<?xml version="1.0" encoding="utf-8" standalone="no"?>
<!DOCTYPE svg PUBLIC "-//W3C//DTD SVG 1.1//EN"
  "http://www.w3.org/Graphics/SVG/1.1/DTD/svg11.dtd">
<!-- Created with matplotlib (http://matplotlib.org/) -->
<svg height="432pt" version="1.1" viewBox="0 0 576 432" width="576pt" xmlns="http://www.w3.org/2000/svg" xmlns:xlink="http://www.w3.org/1999/xlink">
 <defs>
  <style type="text/css">
*{stroke-linecap:butt;stroke-linejoin:round;}
  </style>
 </defs>
 <g id="figure_1">
  <g id="patch_1">
   <path d="
M0 432
L576 432
L576 0
L0 0
z
" style="fill:#ffffff;"/>
  </g>
  <g id="axes_1">
   <g id="patch_2">
    <path d="
M72 345.6
L518.4 345.6
L518.4 43.2
L72 43.2
z
" style="fill:#ffffff;"/>
   </g>
   <g id="line2d_1">
    <path clip-path="url(#pcb2bf987bf)" d="
M72 207.853
L72.1276 207.853
L72.3828 208.536
L72.5105 175.338
L72.7657 172.341
L72.8933 207.164
L73.1485 200.87
L73.2762 207.164
L73.5314 207.853
L73.659 207.853
L73.9142 205.306
L74.0419 207.164
L74.2971 201.59
L74.4247 206.474
L74.6799 207.164
L75.0628 213.307
L75.1904 211.988
L75.4456 201.739
L75.5732 209.291
L75.8285 208.602
L75.9561 209.291
L76.2113 209.291
L76.5942 203.388
L76.7218 200.091
L76.9772 203.388
L77.7429 187.984
L77.8703 187.984
L78.2532 179.893
L78.5084 181.541
L78.636 177.376
L78.8915 181.541
L79.0189 180.732
L79.2741 181.541
L79.4017 180.732
L79.6569 178.215
L79.7846 180.133
L80.0398 213.307
L80.1674 213.247
L80.4226 201.65
L80.5503 212.977
L80.8055 214.625
L80.9331 214.625
L81.1885 215.944
L81.316 217.904
L83.8683 217.904
L83.9959 190.322
L84.2511 217.904
L84.6342 217.904
L85.1444 210.634
L85.5273 210.64
L85.9101 207.194
L86.1654 211.299
L86.5482 209.261
L86.6758 210.64
L86.931 210.64
L87.0587 209.951
L87.3139 166.348
L87.4415 208.572
L87.6967 207.853
L87.8244 208.542
L88.0796 208.572
L88.2072 211.299
L88.4624 194.817
L88.5901 196.315
L88.8453 194.817
L88.8453 194.817
L88.9729 193.319
L89.2281 193.289
L89.3557 195.566
L89.611 188.224
L89.7386 188.224
L89.9938 217.904
L89.9938 217.904
L90.2491 215.824
L90.3767 165.449
L91.0148 213.846
L91.9081 209.111
L92.5461 206.354
L92.6738 208.422
L93.3118 211.838
L94.0775 211.179
L94.2051 209.801
L94.8432 209.111
L94.9708 209.801
L95.6089 194.068
L95.7365 201.59
L96.3746 208.41
L97.1403 207.733
L98.0336 202.609
L98.6717 201.889
L98.7993 202.609
L99.4374 199.732
L100.203 187.025
L100.331 198.263
L100.969 198.263
L101.734 197.514
L101.862 196.765
L102.5 200.99
L103.266 194.667
L103.393 201.829
L104.032 202.609
L104.797 199.726
L105.563 203.322
L106.329 205.665
L107.095 205.665
L107.988 186.156
L108.626 199.582
L109.391 199.342
L109.519 198.623
L110.157 202.309
L110.285 201.799
L110.923 202.519
L111.05 201.799
L111.816 205.665
L113.986 184.328
L114.879 195.572
L116.41 204.251
L117.048 193.888
L117.942 190.022
L118.58 190.801
L118.707 188.464
L119.345 192.36
L120.111 200.451
L121.643 199.192
L122.408 200.655
L122.536 199.222
L123.174 199.941
L124.067 207.733
L124.705 207.733
L125.471 213.151
L126.109 209.501
L126.237 207.613
L126.365 201.59
L127.002 188.764
L127.13 199.432
L127.13 199.432
L127.64 194.817
L127.64 194.817
L127.768 200.87
L128.534 208.806
L128.661 208.123
L129.299 206.924
L130.193 208.123
L130.831 205.366
L131.597 207.433
L132.362 206.924
L132.362 206.924
L133.894 208.362
L134.149 202.309
L134.659 211.281
L135.425 207.074
L136.191 204.287
L136.318 204.287
L137.722 194.667
L138.488 194.667
L139.254 196.166
L140.019 196.166
L140.785 199.462
L141.551 205.006
L141.678 208.482
L142.316 207.104
L143.082 209.471
L143.848 208.093
L143.975 208.776
L144.613 205.336
L145.507 195.866
L146.145 193.618
L147.038 207.403
L148.442 191.97
L149.335 209.471
L149.973 207.403
L150.739 213.151
L150.867 213.151
L151.505 210.46
L152.27 211.119
L153.036 209.441
L153.164 210.13
L153.802 209.741
L154.567 208.812
L156.099 209.052
L157.63 213.157
L158.396 213.157
L159.162 226.283
L160.821 226.283
L162.224 220.589
L162.99 211.629
L163.118 213.337
L163.756 215.494
L163.883 213.517
L164.521 219.33
L164.649 218.701
L165.287 196.315
L166.053 212.857
L166.819 211.539
L167.584 211.509
L167.712 212.198
L168.35 219.33
L169.116 212.138
L169.243 214.805
L169.881 219.33
L170.775 212.977
L171.413 220.343
L172.178 219.75
L172.944 219.81
L173.072 219.18
L173.71 220.439
L174.603 221.068
L176.007 221.068
L176.773 232.276
L176.9 232.27
L177.538 231.131
L178.304 222.896
L179.07 222.057
L179.835 224.089
L179.963 223.466
L180.729 218.491
L181.367 217.233
L182.132 217.233
L182.26 175.278
L182.898 230.958
L183.664 226.223
L183.791 223.226
L184.43 219.66
L185.195 221.937
L185.961 227.961
L186.727 225.564
L188.258 227.961
L189.024 234.104
L189.151 232.965
L190.555 225.084
L191.321 223.885
L191.321 223.885
L192.852 219.72
L193.618 220.343
L194.384 219.72
L195.277 194.068
L195.915 219.72
L196.681 217.862
L198.212 214.595
L198.212 214.595
L198.978 215.249
L200.509 215.165
L201.275 215.884
L202.04 215.225
L202.806 238.27
L203.572 215.524
L203.699 232.246
L204.338 237.131
L205.103 237.191
L205.231 230.568
L205.869 263.376
L205.997 262.543
L206.124 260.859
L206.762 239.768
L207.4 237.035
L208.166 233.175
L208.804 232.036
L209.059 233.745
L209.059 233.745
L209.442 234.314
L209.57 226.582
L209.825 224.784
L210.591 194.158
L210.846 217.293
L211.356 225.983
L211.484 225.983
L211.739 225.384
L212.122 223.406
L212.25 225.324
L212.505 223.286
L212.633 223.286
L212.888 222.057
L213.271 221.428
L213.398 220.799
L213.654 222.051
L213.654 222.051
L213.781 221.428
L214.036 210.07
L214.164 210.07
L214.419 222.687
L214.547 222.057
L214.93 225.977
L215.185 224.784
L215.185 224.784
L215.313 225.977
L216.078 225.977
L216.461 234.871
L216.589 233.175
L216.589 233.175
L216.844 259.541
L217.227 253.403
L217.482 231.137
L217.482 231.137
L217.61 244.383
L217.865 236.651
L217.992 242.855
L218.248 242.855
L218.248 242.855
L218.375 241.836
L218.758 234.524
L219.013 236.352
L219.396 232.246
L219.779 231.797
L219.907 232.246
L220.162 231.677
L220.29 232.246
L220.29 232.246
L220.545 231.167
L220.672 231.731
L220.672 231.731
L220.928 229.459
L221.055 230.029
L221.31 233.535
L221.438 233.535
L221.693 232.336
L222.076 233.181
L222.204 207.523
L222.459 227.991
L223.225 224.395
L223.352 227.386
L223.608 226.792
L223.735 227.386
L223.99 220.02
L224.118 225.474
L224.373 230.928
L224.501 229.22
L224.884 230.928
L225.139 230.928
L225.267 230.352
L225.522 232.066
L225.905 237.97
L225.905 237.97
L226.16 233.715
L226.16 233.715
L226.288 234.272
L226.415 234.272
L226.415 234.272
L226.67 233.715
L226.798 237.431
L227.053 236.891
L227.181 236.352
L227.436 231.767
L227.436 231.767
L227.819 238.12
L227.946 253.403
L228.202 254.302
L228.329 253.823
L228.585 255.345
L228.712 252.444
L228.967 254.152
L229.095 254.003
L229.35 252.085
L229.478 252.085
L229.733 242.765
L230.116 241.207
L230.244 239.049
L230.499 240.128
L230.499 240.128
L231.009 236.352
L231.392 231.701
L231.647 231.137
L231.775 231.137
L232.158 218.521
L232.413 217.892
L232.541 215.944
L232.796 217.263
L232.796 217.263
L232.924 217.263
L233.179 218.521
L233.306 216.603
L233.562 217.892
L233.689 217.263
L233.944 214.625
L234.072 210.67
L234.455 208.602
L235.093 198.713
L235.093 198.713
L235.221 198.713
L235.859 191.79
L235.859 191.79
L235.986 194.967
L236.242 191.155
L236.369 195.566
L236.624 195.566
L236.752 193.319
L237.007 194.817
L237.135 194.068
L237.39 200.99
L237.518 220.409
L237.773 230.478
L237.901 228.8
L238.156 181.901
L238.283 189.123
L238.539 191.461
L238.666 222.027
L238.921 225.683
L239.049 221.338
L239.304 205.725
L239.432 221.308
L239.687 212.917
L239.815 212.977
L240.07 212.318
L240.198 213.577
L240.58 213.637
L240.836 210.999
L240.963 204.167
L241.219 213.637
L241.601 213.637
L241.729 220.044
L241.984 214.056
L242.112 222.387
L242.495 214.835
L242.75 212.198
L242.878 217.203
L243.26 222.531
L243.516 222.531
L243.643 221.308
L243.898 221.908
L244.281 221.878
L244.409 220.649
L244.664 227.601
L244.792 226.996
L245.047 226.403
L245.047 226.403
L245.175 227.002
L245.557 226.996
L245.813 218.791
L245.94 219.031
L246.196 219.031
L246.323 218.401
L246.706 215.824
L247.089 215.824
L247.344 194.068
L247.727 215.165
L247.855 215.818
L248.237 215.812
L248.493 214.506
L248.62 213.187
L248.876 211.868
L248.876 211.868
L249.003 210.31
L249.258 211.809
L249.641 209.771
L249.641 209.771
L250.024 209.771
L250.152 208.392
L250.407 208.392
L250.534 209.081
L250.79 196.315
L250.917 209.022
L251.173 209.081
L251.3 208.902
L251.555 208.872
L251.683 208.182
L251.938 187.325
L252.066 211.149
L252.321 210.46
L252.449 209.081
L252.704 209.081
L252.832 208.392
L253.087 209.081
L253.214 207.014
L253.597 215.812
L253.98 215.812
L254.235 215.159
L254.363 215.818
L254.618 213.846
L254.746 211.209
L254.746 211.209
L255.129 208.452
L255.129 208.452
L255.384 207.763
L255.511 208.362
L255.511 208.362
L255.767 206.295
L255.767 206.295
L255.894 207.673
L256.277 207.673
L256.532 204.916
L256.66 205.605
L256.66 205.605
L257.043 210.514
L257.298 214.296
L257.809 232.258
L258.064 231.108
L258.064 231.108
L258.957 214.416
L259.212 216.394
L259.212 216.394
L259.34 208.392
L259.595 207.703
L259.595 207.703
L259.723 209.081
L259.978 209.081
L260.106 215.075
L260.361 216.693
L260.489 214.595
L260.744 226.283
L260.871 225.683
L261.127 230.538
L261.254 229.399
L261.509 231.108
L261.637 231.108
L262.02 227.032
L262.275 228.83
L262.403 228.231
L262.658 228.68
L262.786 227.481
L263.041 228.68
L263.168 224.485
L263.424 228.081
L263.424 228.081
L263.551 227.481
L264.317 217.652
L264.572 224.485
L264.7 223.885
L264.955 221.428
L264.955 221.428
L265.083 211.599
L265.338 209.501
L265.466 220.799
L265.848 222.687
L266.104 222.057
L266.231 222.687
L266.486 223.286
L266.614 222.687
L266.869 223.286
L266.997 222.687
L267.252 220.799
L267.635 195.926
L267.763 195.926
L268.018 190.831
L268.145 190.831
L268.401 190.052
L268.528 182.44
L268.784 181.631
L268.911 173.96
L269.294 165.928
L269.549 166.827
L269.677 166.827
L269.932 201.919
L270.06 202.638
L270.315 219.36
L270.443 219.96
L270.698 219.36
L270.825 218.641
L271.081 219.99
L271.463 220.289
L271.846 214.296
L271.974 219.84
L272.357 219.84
L272.612 219.21
L272.74 223.286
L273.122 225.384
L273.506 190.322
L273.761 166.348
L273.888 222.681
L274.143 222.687
L274.271 213.637
L274.526 212.977
L274.654 212.965
L274.909 209.591
L274.909 209.591
L275.037 209.591
L275.292 210.7
L275.675 208.902
L275.802 196.315
L276.058 196.315
L276.185 195.566
L276.441 210.939
L276.823 208.872
L276.951 210.25
L277.206 204.017
L277.334 209.591
L277.589 207.523
L277.717 209.585
L277.972 208.872
L277.972 208.872
L278.099 208.872
L278.482 212.288
L278.738 210.969
L279.12 204.616
L279.248 204.616
L279.503 208.212
L279.631 208.212
L279.886 208.902
L280.014 212.965
L280.397 212.965
L280.652 222.687
L280.779 220.823
L281.162 222.597
L281.417 225.348
L281.545 222.327
L281.801 221.698
L282.183 224.754
L282.311 224.694
L282.694 223.256
L283.077 221.368
L283.332 218.222
L283.459 218.851
L283.842 164.55
L284.097 213.637
L284.225 212.318
L284.48 212.318
L284.608 205.006
L284.736 211.599
L285.246 210.939
L285.374 211.659
L285.629 209.621
L285.756 209.621
L286.012 208.242
L286.139 208.932
L286.395 208.242
L286.522 208.932
L286.777 208.302
L286.905 208.926
L287.16 206.834
L287.288 193.468
L287.543 197.334
L287.671 208.212
L287.926 208.212
L288.054 208.926
L288.309 208.926
L288.437 212.318
L288.819 207.553
L289.074 212.306
L289.202 210.969
L289.585 209.411
L289.84 208.722
L290.223 208.722
L290.351 207.943
L290.733 209.411
L290.861 207.613
L290.989 196.315
L291.116 206.924
L291.372 206.924
L291.499 204.856
L291.754 198.113
L292.137 196.615
L292.265 197.364
L292.52 197.304
L292.52 197.304
L292.648 205.545
L292.903 204.856
L293.286 206.504
L293.286 206.504
L293.413 206.504
L293.796 206.924
L294.051 204.856
L294.051 204.856
L294.179 205.545
L294.434 204.856
L294.562 204.137
L295.2 222.627
L295.583 218.222
L295.71 220.739
L295.966 218.851
L296.349 218.222
L296.731 213.637
L296.859 193.618
L297.114 219.48
L297.242 218.851
L297.497 218.851
L297.625 218.222
L297.88 218.851
L298.263 218.851
L298.39 214.446
L298.646 215.105
L298.773 214.985
L299.028 214.985
L299.156 215.644
L299.539 215.644
L299.922 220.289
L300.305 213.637
L300.56 213.637
L300.687 219.48
L300.943 219.48
L301.07 220.109
L301.326 220.727
L301.453 220.727
L301.836 216.963
L302.219 218.851
L302.474 218.851
L302.474 218.851
L302.857 220.721
L302.985 219.45
L303.112 220.074
L303.368 219.45
L303.623 220.074
L303.75 218.821
L304.005 219.45
L304.005 219.45
L304.133 218.821
L304.388 216.933
L304.771 215.614
L304.899 214.296
L305.154 216.274
L305.282 215.614
L305.537 216.268
L305.664 215.614
L305.92 214.949
L306.303 214.955
L306.43 214.296
L306.685 210.999
L307.068 210.999
L307.068 210.999
L307.196 211.659
L307.451 218.815
L307.834 213.637
L307.962 204.257
L308.344 201.38
L308.6 193.828
L308.6 193.828
L309.11 216.873
L309.493 205.605
L309.748 212.192
L309.876 212.198
L310.259 210.25
L310.642 210.25
L310.897 204.017
L311.024 208.093
L311.28 207.403
L311.407 210.25
L312.045 210.25
L312.428 208.182
L312.556 201.709
L312.939 205.905
L313.194 203.987
L313.321 209.561
L313.577 208.872
L314.087 206.714
L314.342 208.182
L314.47 208.152
L314.725 208.872
L314.853 208.182
L315.236 213.696
L315.619 216.214
L315.874 222.627
L316.257 222.627
L316.384 220.799
L316.767 218.821
L317.022 218.881
L317.15 218.251
L317.405 216.334
L317.533 217.622
L317.788 216.993
L317.916 216.993
L318.171 218.881
L318.554 217.293
L318.554 217.293
L318.681 218.881
L318.937 216.334
L319.064 216.334
L319.319 222.357
L319.319 222.357
L319.447 222.057
L319.702 222.051
L319.83 221.428
L320.213 223.286
L320.596 223.286
L320.851 222.681
L320.851 222.681
L321.234 223.286
L321.361 222.687
L321.616 222.045
L321.999 219.24
L322.127 219.21
L322.765 232.007
L326.593 232.007
L326.721 225.683
L327.104 233.745
L327.359 232.546
L327.487 232.576
L327.742 231.108
L327.87 196.315
L328.125 196.315
L328.252 196.166
L328.508 196.315
L328.635 189.543
L328.891 190.322
L329.018 223.736
L329.656 218.731
L329.784 219.99
L330.039 218.731
L330.167 214.296
L330.422 224.952
L330.55 224.335
L330.805 221.188
L330.933 221.218
L331.188 222.507
L331.315 220.619
L331.57 224.335
L331.698 220.229
L331.953 218.371
L332.081 215.794
L332.336 215.734
L332.464 217.113
L332.719 216.453
L332.847 215.075
L333.102 220.289
L333.23 216.453
L333.485 196.315
L333.612 208.302
L333.868 219.69
L333.995 218.461
L334.25 220.289
L334.633 220.289
L334.761 218.401
L335.016 217.113
L335.144 219.031
L335.399 217.772
L335.527 215.105
L335.782 212.648
L335.909 224.335
L336.165 221.997
L336.292 223.855
L336.548 225.683
L336.675 218.461
L337.058 224.485
L337.313 190.801
L337.441 220.799
L337.696 223.28
L337.824 223.28
L338.079 223.885
L338.207 214.715
L338.462 223.28
L338.589 218.881
L338.845 222.645
L338.972 222.027
L339.227 220.08
L339.355 218.132
L339.61 222.645
L339.738 222.567
L339.866 221.937
L340.121 222.567
L340.759 222.561
L341.142 220.679
L341.269 222.567
L341.652 220.769
L342.29 220.769
L342.418 220.139
L342.801 220.139
L343.056 219.51
L343.184 220.139
L343.566 219.96
L343.822 221.398
L343.822 221.398
L343.949 220.139
L344.204 220.769
L344.332 222.027
L344.588 220.139
L344.715 220.139
L345.098 218.251
L345.481 223.885
L345.736 221.248
L345.863 218.401
L346.119 217.766
L346.246 217.113
L346.502 217.053
L346.629 216.423
L346.884 218.395
L346.884 218.395
L347.012 216.453
L347.267 166.348
L347.395 166.348
L347.65 196.315
L347.778 196.315
L348.033 209.801
L348.161 209.111
L348.416 206.306
L348.543 206.306
L348.799 205.605
L348.926 204.916
L349.181 209.711
L349.692 207.044
L349.947 201.59
L350.075 207.907
L350.458 205.156
L350.713 207.907
L350.84 211.293
L351.606 211.299
L351.861 209.921
L351.989 211.599
L352.244 211.179
L352.372 212.378
L352.627 208.302
L352.755 211.299
L353.138 211.599
L353.393 211.119
L353.52 207.673
L353.776 211.119
L353.776 211.119
L354.158 211.779
L354.286 210.43
L354.541 211.838
L354.669 210.49
L354.924 211.838
L355.052 210.49
L355.307 202.998
L355.307 202.998
L355.435 195.566
L355.69 211.832
L355.817 212.498
L356.073 210.49
L356.073 210.49
L356.2 211.119
L356.583 211.838
L356.966 209.801
L357.221 204.976
L357.732 211.838
L357.987 211.179
L358.115 211.838
L358.497 211.838
L358.753 212.498
L358.88 212.492
L359.136 215.788
L359.263 215.788
L359.518 212.965
L359.901 212.965
L360.029 212.288
L360.284 212.965
L360.412 212.288
L360.667 211.629
L360.795 211.629
L361.433 207.613
L361.56 208.302
L361.816 206.115
L362.326 212.258
L362.581 211.629
L362.709 211.629
L362.964 212.288
L363.092 210.969
L363.474 212.959
L363.73 210.969
L363.857 211.629
L364.113 210.34
L364.24 211.599
L364.495 212.288
L364.623 215.135
L364.878 214.476
L365.261 214.476
L365.389 213.816
L366.027 213.816
L366.027 213.816
L366.537 208.362
L366.792 209.501
L366.92 209.501
L367.175 208.812
L367.303 209.501
L367.558 208.812
L367.686 208.812
L367.941 209.501
L368.069 209.052
L368.451 208.812
L368.707 208.812
L369.09 166.318
L369.472 193.319
L369.6 166.348
L369.855 211.113
L370.366 213.816
L370.621 214.476
L371.004 219.031
L371.131 218.401
L371.387 201.53
L371.514 209.081
L371.769 216.447
L371.897 209.141
L372.152 212.498
L372.28 211.838
L372.535 212.498
L372.663 211.838
L372.918 212.498
L373.046 213.151
L373.301 218.192
L373.428 214.296
L373.684 216.933
L373.684 216.933
L373.811 213.637
L374.067 215.704
L374.449 215.465
L374.577 214.146
L374.832 213.696
L374.96 215.488
L375.215 214.835
L375.343 214.835
L375.598 215.494
L375.726 214.176
L376.491 216.268
L376.874 216.274
L377.129 214.416
L377.512 214.416
L377.512 214.416
L377.64 213.726
L377.767 214.386
L378.023 213.097
L378.278 213.097
L378.405 214.41
L378.788 211.779
L379.171 213.696
L379.554 213.756
L379.809 211.779
L379.937 213.097
L380.192 212.378
L380.575 210.31
L380.703 212.977
L380.958 212.318
L381.086 212.318
L381.341 212.198
L381.468 213.037
L381.723 216.088
L381.851 216.094
L382.107 215.435
L382.234 216.088
L382.489 215.375
L382.617 216.034
L382.872 215.435
L383 213.457
L383.255 213.607
L383.383 215.435
L383.638 216.034
L384.021 220.289
L384.148 224.335
L384.403 224.335
L384.786 218.701
L385.169 220.289
L385.297 220.289
L385.552 220.589
L385.68 224.934
L385.935 226.253
L386.062 226.253
L386.445 225.594
L386.828 226.283
L387.083 224.485
L387.211 226.283
L391.422 226.283
L391.678 221.908
L391.805 217.293
L392.06 224.934
L392.188 224.922
L392.443 223.556
L392.571 223.55
L392.826 222.057
L392.954 223.526
L393.209 178.335
L393.337 223.556
L393.592 220.379
L393.719 221.008
L393.975 218.491
L394.102 219.091
L394.102 219.091
L394.485 218.461
L394.74 215.824
L394.868 217.832
L395.123 217.203
L395.251 215.015
L395.634 233.115
L395.889 231.677
L396.016 231.617
L396.272 231.108
L396.399 230.478
L396.655 231.617
L396.782 231.018
L397.037 231.617
L397.165 231.048
L397.42 231.048
L397.548 231.671
L397.931 229.909
L398.186 230.478
L398.314 230.478
L398.569 219.151
L398.696 219.151
L398.952 226.373
L399.079 226.277
L399.335 223.795
L399.462 225.018
L399.717 225.078
L399.845 224.485
L400.1 225.078
L400.483 225.078
L400.611 217.862
L400.866 224.485
L400.993 224.485
L401.249 225.084
L401.376 224.485
L401.632 225.078
L401.759 225.078
L402.014 224.485
L402.142 225.623
L402.525 225.611
L402.78 224.335
L402.908 224.395
L403.163 224.389
L403.291 220.289
L403.546 223.765
L403.673 222.537
L404.056 220.829
L404.439 213.816
L404.694 211.119
L404.822 210.969
L405.077 211.629
L405.205 206.834
L405.588 212.965
L405.843 212.288
L405.97 212.288
L406.226 212.498
L406.353 212.887
L406.609 209.711
L406.736 212.228
L407.119 212.228
L407.374 212.941
L407.502 212.941
L407.757 211.629
L407.885 219.061
L408.14 217.796
L408.268 216.483
L408.65 217.982
L408.906 222.267
L409.033 219.091
L409.289 221.008
L409.416 219.75
L409.671 219.69
L409.799 219.121
L410.054 215.884
L410.182 217.832
L410.437 217.173
L410.565 217.203
L410.82 217.826
L410.948 217.832
L411.203 214.326
L412.479 214.326
L412.607 207.853
L412.989 208.542
L413.245 207.853
L413.627 207.853
L413.883 207.164
L414.01 207.853
L414.266 206.474
L414.393 207.164
L414.648 204.886
L414.776 207.164
L415.031 207.164
L415.159 206.474
L415.414 207.853
L415.542 207.853
L415.797 206.324
L415.925 220.289
L416.307 220.289
L416.563 219.66
L416.69 219.031
L416.945 219.66
L417.073 219.66
L417.328 220.283
L417.456 219.66
L417.839 219.001
L418.094 219.63
L418.222 219.001
L418.477 219.001
L418.604 219.624
L418.86 219.001
L418.987 219.001
L419.243 218.371
L419.37 217.742
L419.625 214.655
L419.753 203.028
L420.008 216.453
L420.136 215.794
L420.391 215.135
L420.519 217.742
L420.902 217.293
L421.157 216.004
L421.284 214.386
L421.667 212.408
L421.922 216.663
L422.05 216.663
L422.305 217.802
L422.433 217.173
L422.816 219.001
L423.071 218.371
L423.199 215.734
L423.454 218.371
L423.581 217.113
L423.837 217.113
L423.964 214.476
L424.22 166.348
L424.347 216.453
L424.602 217.712
L424.985 210.34
L425.113 211.713
L425.368 208.302
L425.496 215.105
L425.751 217.053
L425.879 217.053
L426.134 216.394
L426.261 217.077
L426.517 215.494
L426.644 215.488
L426.899 215.758
L427.282 215.105
L427.41 208.812
L427.665 210.999
L427.793 214.296
L428.176 215.752
L428.431 202.309
L428.558 215.74
L428.814 215.075
L428.941 214.416
L429.579 214.416
L429.707 214.236
L430.09 214.296
L430.345 214.961
L430.473 214.961
L430.728 214.326
L430.856 212.947
L430.983 196.315
L431.238 212.288
L431.494 212.947
L431.621 212.288
L431.877 212.288
L432.259 208.902
L432.642 206.834
L432.642 206.834
L432.77 205.455
L433.153 209.591
L433.408 208.902
L433.536 206.834
L433.791 206.834
L433.918 206.145
L434.174 205.455
L434.301 206.145
L434.556 203.987
L434.684 204.706
L434.939 203.268
L435.067 203.268
L435.45 198.952
L435.705 200.331
L435.833 199.642
L436.215 204.706
L436.471 206.145
L436.598 198.053
L436.981 206.834
L437.236 206.624
L437.364 208.003
L437.619 208.902
L438.002 206.744
L438.13 196.315
L438.385 207.403
L438.513 195.566
L438.768 206.025
L438.895 206.025
L439.151 208.117
L439.661 208.117
L439.916 206.714
L440.044 207.403
L440.299 208.099
L440.299 208.099
L440.427 208.063
L440.682 207.433
L441.065 210.694
L441.192 210.01
L441.448 212.947
L441.575 213.097
L441.958 215.746
L442.341 215.758
L442.724 213.577
L442.979 213.577
L443.107 214.176
L443.362 214.446
L443.49 213.786
L443.745 214.296
L443.872 196.315
L444.255 215.105
L444.51 213.127
L444.638 215.105
L444.893 215.758
L445.021 215.764
L445.276 216.993
L445.404 215.015
L445.659 217.077
L446.042 215.105
L446.169 217.077
L446.425 215.704
L446.552 217.083
L446.935 217.083
L447.19 220.349
L447.701 220.349
L447.956 224.455
L448.339 220.229
L448.467 225.072
L448.722 223.855
L448.849 223.855
L449.105 225.072
L450.126 225.072
L450.381 223.885
L450.636 222.057
L450.764 222.687
L451.019 225.072
L452.295 225.072
L452.678 227.751
L452.933 221.158
L453.061 226.283
L453.316 227.152
L453.444 227.152
L453.699 227.751
L453.826 226.882
L454.082 223.286
L454.209 223.286
L454.465 225.354
L454.592 227.751
L454.847 226.283
L454.847 226.283
L454.975 224.784
L455.23 227.751
L455.613 225.953
L455.741 219.36
L455.996 227.751
L456.123 223.286
L456.379 222.687
L456.506 221.422
L456.762 224.419
L456.889 222.057
L457.144 223.286
L457.272 222.687
L457.655 219.99
L457.91 219.031
L458.038 220.289
L458.293 216.447
L458.421 217.766
L458.676 223.286
L458.803 222.687
L459.059 57.6263
L459.186 221.428
L459.569 212.797
L459.824 220.799
L459.952 220.169
L460.207 221.428
L460.335 221.428
L460.59 222.051
L460.718 222.051
L461.101 227.745
L461.356 222.507
L461.484 197.154
L461.866 227.745
L462.121 227.745
L462.249 225.084
L462.504 223.556
L462.632 227.745
L462.887 227.745
L463.015 227.146
L463.27 224.155
L463.398 227.751
L464.036 224.485
L464.163 226.54
L464.419 224.155
L464.546 204.946
L464.801 224.095
L464.929 222.896
L465.184 222.267
L465.567 217.233
L465.567 217.233
L465.695 216.567
L465.95 215.914
L466.078 216.573
L466.46 209.861
L466.716 209.201
L466.843 211.239
L467.098 210.55
L467.098 210.55
L467.226 212.678
L467.481 213.217
L467.864 212.558
L467.992 211.898
L468.247 211.779
L468.63 212.558
L468.757 212.558
L469.013 214.296
L469.14 214.296
L469.523 216.573
L469.778 216.573
L469.906 222.267
L470.161 222.267
L470.289 221.008
L470.544 221.638
L470.672 222.267
L471.055 220.379
L471.31 221.008
L471.437 219.75
L471.693 222.267
L471.82 221.638
L472.203 217.862
L472.586 207.703
L472.969 222.267
L473.224 221.632
L473.352 214.296
L473.734 221.632
L474.118 221.632
L474.373 221.008
L474.5 219.121
L474.755 218.491
L474.883 220.379
L475.138 217.233
L475.266 221.008
L475.521 220.349
L475.649 220.979
L476.032 217.832
L476.287 194.817
L476.414 196.315
L476.797 209.501
L477.052 209.501
L477.18 208.806
L477.435 208.722
L477.563 208.033
L477.818 208.812
L477.946 208.812
L478.329 215.944
L478.584 217.263
L478.711 205.306
L478.967 219.031
L479.094 237.73
L479.477 232.156
L479.732 228.111
L480.115 232.15
L480.243 231.587
L480.498 231.587
L480.626 231.018
L480.881 231.587
L481.009 231.581
L481.264 232.156
L481.391 225.084
L481.647 232.15
L481.774 232.15
L482.157 229.849
L482.54 229.843
L482.795 227.451
L482.923 228.051
L483.178 178.305
L483.306 226.852
L483.561 220.859
L483.689 226.852
L483.944 228.045
L484.327 226.283
L484.454 223.885
L484.709 224.485
L484.837 223.256
L485.092 224.479
L485.22 222.627
L485.475 225.072
L485.858 225.066
L485.986 223.855
L486.241 224.455
L486.241 224.455
L486.368 223.885
L486.624 227.481
L487.007 224.425
L487.134 224.425
L487.389 223.825
L487.517 224.425
L487.772 226.217
L487.9 225.623
L488.538 225.617
L488.666 225.024
L488.921 225.617
L489.048 225.617
L489.304 225.072
L489.431 225.623
L489.814 223.226
L490.069 225.024
L490.197 224.425
L490.452 223.825
L490.58 223.825
L490.963 228.62
L491.218 227.931
L491.345 226.283
L491.601 224.485
L491.728 219.031
L491.984 218.431
L492.111 224.425
L492.366 223.226
L492.494 221.967
L492.877 221.308
L493.132 220.709
L493.26 220.08
L493.515 220.709
L493.643 218.821
L494.026 218.132
L494.408 215.554
L494.663 216.214
L494.791 214.236
L495.046 216.214
L495.429 210.25
L495.684 210.25
L495.812 214.895
L495.812 214.895
L495.94 214.895
L496.195 210.7
L496.322 214.236
L496.578 215.554
L496.705 214.236
L496.961 210.25
L497.088 210.939
L497.471 210.939
L497.726 215.554
L497.854 212.438
L498.109 214.236
L498.237 214.236
L498.492 213.577
L498.62 214.835
L498.875 212.857
L499.002 212.857
L499.258 214.116
L499.258 214.116
L499.385 214.176
L499.64 213.517
L499.768 214.176
L500.023 213.457
L500.151 214.176
L500.406 212.258
L500.917 200.571
L501.172 198.413
L501.299 196.166
L501.555 202.848
L501.682 193.948
L501.938 194.697
L502.065 193.948
L502.32 181.212
L502.448 214.835
L502.703 215.488
L503.214 215.488
L503.469 213.637
L503.597 215.488
L503.979 215.494
L504.235 214.835
L504.362 214.176
L504.617 215.435
L504.745 214.835
L504.873 215.494
L505.128 212.857
L505.383 215.548
L505.511 212.917
L505.766 214.895
L505.894 214.895
L506.149 215.974
L506.277 215.315
L506.532 215.974
L506.659 215.554
L506.915 216.214
L507.042 215.794
L507.297 216.873
L507.808 216.873
L508.191 212.917
L508.446 213.577
L508.829 213.577
L509.212 208.302
L509.339 215.345
L509.595 215.345
L509.977 218.192
L510.488 217.562
L510.743 219.6
L510.871 218.311
L511.126 219.66
L511.509 219.66
L511.636 221.896
L512.785 221.961
L513.04 220.703
L513.168 219.33
L513.423 218.821
L513.551 217.562
L513.806 218.821
L513.933 220.08
L514.189 220.074
L514.317 219.45
L514.572 220.08
L514.699 220.703
L515.082 216.274
L515.337 217.532
L515.465 220.05
L515.72 220.679
L515.848 219.031
L516.103 219.66
L516.231 221.937
L516.613 220.05
L516.869 221.302
L517.379 216.154
L517.634 216.813
L517.762 215.914
L518.017 210.969
L518.145 194.817
L518.4 210.969
L518.4 210.969" style="fill:none;stroke:#ff0000;stroke-linecap:square;"/>
   </g>
   <g id="line2d_2">
    <path clip-path="url(#pcb2bf987bf)" d="
M72 345.02
L74.4247 345.008
L388.232 345.055
L388.232 345.055
L388.36 345.571
L388.998 345.571
L389.125 345.085
L518.4 345.038
L518.4 345.038" style="fill:none;stroke:#008000;stroke-linecap:square;"/>
   </g>
   <g id="patch_3">
    <path d="
M72 43.2
L518.4 43.2" style="fill:none;stroke:#000000;stroke-linecap:square;stroke-linejoin:miter;"/>
   </g>
   <g id="patch_4">
    <path d="
M518.4 345.6
L518.4 43.2" style="fill:none;stroke:#000000;stroke-linecap:square;stroke-linejoin:miter;"/>
   </g>
   <g id="patch_5">
    <path d="
M72 345.6
L518.4 345.6" style="fill:none;stroke:#000000;stroke-linecap:square;stroke-linejoin:miter;"/>
   </g>
   <g id="patch_6">
    <path d="
M72 345.6
L72 43.2" style="fill:none;stroke:#000000;stroke-linecap:square;stroke-linejoin:miter;"/>
   </g>
   <g id="matplotlib.axis_1">
    <g id="xtick_1">
     <g id="line2d_3">
      <defs>
       <path d="
M0 0
L0 -4" id="m93b0483c22" style="stroke:#000000;stroke-width:0.5;"/>
      </defs>
      <g>
       <use style="stroke:#000000;stroke-width:0.5;" x="117.941468267" xlink:href="#m93b0483c22" y="345.6"/>
      </g>
     </g>
     <g id="line2d_4">
      <defs>
       <path d="
M0 0
L0 4" id="m741efc42ff" style="stroke:#000000;stroke-width:0.5;"/>
      </defs>
      <g>
       <use style="stroke:#000000;stroke-width:0.5;" x="117.941468267" xlink:href="#m741efc42ff" y="43.2"/>
      </g>
     </g>
     <g id="text_1">
      <!-- Oct 13 2015 -->
      <defs>
       <path d="
M19.1875 8.29688
L53.6094 8.29688
L53.6094 0
L7.32812 0
L7.32812 8.29688
Q12.9375 14.1094 22.625 23.8906
Q32.3281 33.6875 34.8125 36.5312
Q39.5469 41.8438 41.4219 45.5312
Q43.3125 49.2188 43.3125 52.7812
Q43.3125 58.5938 39.2344 62.25
Q35.1562 65.9219 28.6094 65.9219
Q23.9688 65.9219 18.8125 64.3125
Q13.6719 62.7031 7.8125 59.4219
L7.8125 69.3906
Q13.7656 71.7812 18.9375 73
Q24.125 74.2188 28.4219 74.2188
Q39.75 74.2188 46.4844 68.5469
Q53.2188 62.8906 53.2188 53.4219
Q53.2188 48.9219 51.5312 44.8906
Q49.8594 40.875 45.4062 35.4062
Q44.1875 33.9844 37.6406 27.2188
Q31.1094 20.4531 19.1875 8.29688" id="BitstreamVeraSans-Roman-32"/>
       <path d="
M39.4062 66.2188
Q28.6562 66.2188 22.3281 58.2031
Q16.0156 50.2031 16.0156 36.375
Q16.0156 22.6094 22.3281 14.5938
Q28.6562 6.59375 39.4062 6.59375
Q50.1406 6.59375 56.4219 14.5938
Q62.7031 22.6094 62.7031 36.375
Q62.7031 50.2031 56.4219 58.2031
Q50.1406 66.2188 39.4062 66.2188
M39.4062 74.2188
Q54.7344 74.2188 63.9062 63.9375
Q73.0938 53.6562 73.0938 36.375
Q73.0938 19.1406 63.9062 8.85938
Q54.7344 -1.42188 39.4062 -1.42188
Q24.0312 -1.42188 14.8125 8.82812
Q5.60938 19.0938 5.60938 36.375
Q5.60938 53.6562 14.8125 63.9375
Q24.0312 74.2188 39.4062 74.2188" id="BitstreamVeraSans-Roman-4f"/>
       <path d="
M31.7812 66.4062
Q24.1719 66.4062 20.3281 58.9062
Q16.5 51.4219 16.5 36.375
Q16.5 21.3906 20.3281 13.8906
Q24.1719 6.39062 31.7812 6.39062
Q39.4531 6.39062 43.2812 13.8906
Q47.125 21.3906 47.125 36.375
Q47.125 51.4219 43.2812 58.9062
Q39.4531 66.4062 31.7812 66.4062
M31.7812 74.2188
Q44.0469 74.2188 50.5156 64.5156
Q56.9844 54.8281 56.9844 36.375
Q56.9844 17.9688 50.5156 8.26562
Q44.0469 -1.42188 31.7812 -1.42188
Q19.5312 -1.42188 13.0625 8.26562
Q6.59375 17.9688 6.59375 36.375
Q6.59375 54.8281 13.0625 64.5156
Q19.5312 74.2188 31.7812 74.2188" id="BitstreamVeraSans-Roman-30"/>
       <path d="
M12.4062 8.29688
L28.5156 8.29688
L28.5156 63.9219
L10.9844 60.4062
L10.9844 69.3906
L28.4219 72.9062
L38.2812 72.9062
L38.2812 8.29688
L54.3906 8.29688
L54.3906 0
L12.4062 0
z
" id="BitstreamVeraSans-Roman-31"/>
       <path d="
M40.5781 39.3125
Q47.6562 37.7969 51.625 33
Q55.6094 28.2188 55.6094 21.1875
Q55.6094 10.4062 48.1875 4.48438
Q40.7656 -1.42188 27.0938 -1.42188
Q22.5156 -1.42188 17.6562 -0.515625
Q12.7969 0.390625 7.625 2.20312
L7.625 11.7188
Q11.7188 9.32812 16.5938 8.10938
Q21.4844 6.89062 26.8125 6.89062
Q36.0781 6.89062 40.9375 10.5469
Q45.7969 14.2031 45.7969 21.1875
Q45.7969 27.6406 41.2812 31.2656
Q36.7656 34.9062 28.7188 34.9062
L20.2188 34.9062
L20.2188 43.0156
L29.1094 43.0156
Q36.375 43.0156 40.2344 45.9219
Q44.0938 48.8281 44.0938 54.2969
Q44.0938 59.9062 40.1094 62.9062
Q36.1406 65.9219 28.7188 65.9219
Q24.6562 65.9219 20.0156 65.0312
Q15.375 64.1562 9.8125 62.3125
L9.8125 71.0938
Q15.4375 72.6562 20.3438 73.4375
Q25.25 74.2188 29.5938 74.2188
Q40.8281 74.2188 47.3594 69.1094
Q53.9062 64.0156 53.9062 55.3281
Q53.9062 49.2656 50.4375 45.0938
Q46.9688 40.9219 40.5781 39.3125" id="BitstreamVeraSans-Roman-33"/>
       <path id="BitstreamVeraSans-Roman-20"/>
       <path d="
M10.7969 72.9062
L49.5156 72.9062
L49.5156 64.5938
L19.8281 64.5938
L19.8281 46.7344
Q21.9688 47.4688 24.1094 47.8281
Q26.2656 48.1875 28.4219 48.1875
Q40.625 48.1875 47.75 41.5
Q54.8906 34.8125 54.8906 23.3906
Q54.8906 11.625 47.5625 5.09375
Q40.2344 -1.42188 26.9062 -1.42188
Q22.3125 -1.42188 17.5469 -0.640625
Q12.7969 0.140625 7.71875 1.70312
L7.71875 11.625
Q12.1094 9.23438 16.7969 8.0625
Q21.4844 6.89062 26.7031 6.89062
Q35.1562 6.89062 40.0781 11.3281
Q45.0156 15.7656 45.0156 23.3906
Q45.0156 31 40.0781 35.4375
Q35.1562 39.8906 26.7031 39.8906
Q22.75 39.8906 18.8125 39.0156
Q14.8906 38.1406 10.7969 36.2812
z
" id="BitstreamVeraSans-Roman-35"/>
       <path d="
M18.3125 70.2188
L18.3125 54.6875
L36.8125 54.6875
L36.8125 47.7031
L18.3125 47.7031
L18.3125 18.0156
Q18.3125 11.3281 20.1406 9.42188
Q21.9688 7.51562 27.5938 7.51562
L36.8125 7.51562
L36.8125 0
L27.5938 0
Q17.1875 0 13.2344 3.875
Q9.28125 7.76562 9.28125 18.0156
L9.28125 47.7031
L2.6875 47.7031
L2.6875 54.6875
L9.28125 54.6875
L9.28125 70.2188
z
" id="BitstreamVeraSans-Roman-74"/>
       <path d="
M48.7812 52.5938
L48.7812 44.1875
Q44.9688 46.2969 41.1406 47.3438
Q37.3125 48.3906 33.4062 48.3906
Q24.6562 48.3906 19.8125 42.8438
Q14.9844 37.3125 14.9844 27.2969
Q14.9844 17.2812 19.8125 11.7344
Q24.6562 6.20312 33.4062 6.20312
Q37.3125 6.20312 41.1406 7.25
Q44.9688 8.29688 48.7812 10.4062
L48.7812 2.09375
Q45.0156 0.34375 40.9844 -0.53125
Q36.9688 -1.42188 32.4219 -1.42188
Q20.0625 -1.42188 12.7812 6.34375
Q5.51562 14.1094 5.51562 27.2969
Q5.51562 40.6719 12.8594 48.3281
Q20.2188 56 33.0156 56
Q37.1562 56 41.1094 55.1406
Q45.0625 54.2969 48.7812 52.5938" id="BitstreamVeraSans-Roman-63"/>
      </defs>
      <g transform="translate(53.3541815316 394.065590385)rotate(-30.0)scale(0.12 -0.12)">
       <use xlink:href="#BitstreamVeraSans-Roman-4f"/>
       <use x="78.7109375" xlink:href="#BitstreamVeraSans-Roman-63"/>
       <use x="133.69140625" xlink:href="#BitstreamVeraSans-Roman-74"/>
       <use x="172.900390625" xlink:href="#BitstreamVeraSans-Roman-20"/>
       <use x="204.6875" xlink:href="#BitstreamVeraSans-Roman-31"/>
       <use x="268.310546875" xlink:href="#BitstreamVeraSans-Roman-33"/>
       <use x="331.93359375" xlink:href="#BitstreamVeraSans-Roman-20"/>
       <use x="363.720703125" xlink:href="#BitstreamVeraSans-Roman-32"/>
       <use x="427.34375" xlink:href="#BitstreamVeraSans-Roman-30"/>
       <use x="490.966796875" xlink:href="#BitstreamVeraSans-Roman-31"/>
       <use x="554.58984375" xlink:href="#BitstreamVeraSans-Roman-35"/>
      </g>
     </g>
    </g>
    <g id="xtick_2">
     <g id="line2d_5">
      <g>
       <use style="stroke:#000000;stroke-width:0.5;" x="173.071485419" xlink:href="#m93b0483c22" y="345.6"/>
      </g>
     </g>
     <g id="line2d_6">
      <g>
       <use style="stroke:#000000;stroke-width:0.5;" x="173.071485419" xlink:href="#m741efc42ff" y="43.2"/>
      </g>
     </g>
     <g id="text_2">
      <!-- Oct 16 2015 -->
      <defs>
       <path d="
M33.0156 40.375
Q26.375 40.375 22.4844 35.8281
Q18.6094 31.2969 18.6094 23.3906
Q18.6094 15.5312 22.4844 10.9531
Q26.375 6.39062 33.0156 6.39062
Q39.6562 6.39062 43.5312 10.9531
Q47.4062 15.5312 47.4062 23.3906
Q47.4062 31.2969 43.5312 35.8281
Q39.6562 40.375 33.0156 40.375
M52.5938 71.2969
L52.5938 62.3125
Q48.875 64.0625 45.0938 64.9844
Q41.3125 65.9219 37.5938 65.9219
Q27.8281 65.9219 22.6719 59.3281
Q17.5312 52.7344 16.7969 39.4062
Q19.6719 43.6562 24.0156 45.9219
Q28.375 48.1875 33.5938 48.1875
Q44.5781 48.1875 50.9531 41.5156
Q57.3281 34.8594 57.3281 23.3906
Q57.3281 12.1562 50.6875 5.35938
Q44.0469 -1.42188 33.0156 -1.42188
Q20.3594 -1.42188 13.6719 8.26562
Q6.98438 17.9688 6.98438 36.375
Q6.98438 53.6562 15.1875 63.9375
Q23.3906 74.2188 37.2031 74.2188
Q40.9219 74.2188 44.7031 73.4844
Q48.4844 72.75 52.5938 71.2969" id="BitstreamVeraSans-Roman-36"/>
      </defs>
      <g transform="translate(108.484198684 394.065590385)rotate(-30.0)scale(0.12 -0.12)">
       <use xlink:href="#BitstreamVeraSans-Roman-4f"/>
       <use x="78.7109375" xlink:href="#BitstreamVeraSans-Roman-63"/>
       <use x="133.69140625" xlink:href="#BitstreamVeraSans-Roman-74"/>
       <use x="172.900390625" xlink:href="#BitstreamVeraSans-Roman-20"/>
       <use x="204.6875" xlink:href="#BitstreamVeraSans-Roman-31"/>
       <use x="268.310546875" xlink:href="#BitstreamVeraSans-Roman-36"/>
       <use x="331.93359375" xlink:href="#BitstreamVeraSans-Roman-20"/>
       <use x="363.720703125" xlink:href="#BitstreamVeraSans-Roman-32"/>
       <use x="427.34375" xlink:href="#BitstreamVeraSans-Roman-30"/>
       <use x="490.966796875" xlink:href="#BitstreamVeraSans-Roman-31"/>
       <use x="554.58984375" xlink:href="#BitstreamVeraSans-Roman-35"/>
      </g>
     </g>
    </g>
    <g id="xtick_3">
     <g id="line2d_7">
      <g>
       <use style="stroke:#000000;stroke-width:0.5;" x="228.201502573" xlink:href="#m93b0483c22" y="345.6"/>
      </g>
     </g>
     <g id="line2d_8">
      <g>
       <use style="stroke:#000000;stroke-width:0.5;" x="228.201502573" xlink:href="#m741efc42ff" y="43.2"/>
      </g>
     </g>
     <g id="text_3">
      <!-- Oct 19 2015 -->
      <defs>
       <path d="
M10.9844 1.51562
L10.9844 10.5
Q14.7031 8.73438 18.5 7.8125
Q22.3125 6.89062 25.9844 6.89062
Q35.75 6.89062 40.8906 13.4531
Q46.0469 20.0156 46.7812 33.4062
Q43.9531 29.2031 39.5938 26.9531
Q35.25 24.7031 29.9844 24.7031
Q19.0469 24.7031 12.6719 31.3125
Q6.29688 37.9375 6.29688 49.4219
Q6.29688 60.6406 12.9375 67.4219
Q19.5781 74.2188 30.6094 74.2188
Q43.2656 74.2188 49.9219 64.5156
Q56.5938 54.8281 56.5938 36.375
Q56.5938 19.1406 48.4062 8.85938
Q40.2344 -1.42188 26.4219 -1.42188
Q22.7031 -1.42188 18.8906 -0.6875
Q15.0938 0.046875 10.9844 1.51562
M30.6094 32.4219
Q37.25 32.4219 41.125 36.9531
Q45.0156 41.5 45.0156 49.4219
Q45.0156 57.2812 41.125 61.8438
Q37.25 66.4062 30.6094 66.4062
Q23.9688 66.4062 20.0938 61.8438
Q16.2188 57.2812 16.2188 49.4219
Q16.2188 41.5 20.0938 36.9531
Q23.9688 32.4219 30.6094 32.4219" id="BitstreamVeraSans-Roman-39"/>
      </defs>
      <g transform="translate(163.614215838 394.065590385)rotate(-30.0)scale(0.12 -0.12)">
       <use xlink:href="#BitstreamVeraSans-Roman-4f"/>
       <use x="78.7109375" xlink:href="#BitstreamVeraSans-Roman-63"/>
       <use x="133.69140625" xlink:href="#BitstreamVeraSans-Roman-74"/>
       <use x="172.900390625" xlink:href="#BitstreamVeraSans-Roman-20"/>
       <use x="204.6875" xlink:href="#BitstreamVeraSans-Roman-31"/>
       <use x="268.310546875" xlink:href="#BitstreamVeraSans-Roman-39"/>
       <use x="331.93359375" xlink:href="#BitstreamVeraSans-Roman-20"/>
       <use x="363.720703125" xlink:href="#BitstreamVeraSans-Roman-32"/>
       <use x="427.34375" xlink:href="#BitstreamVeraSans-Roman-30"/>
       <use x="490.966796875" xlink:href="#BitstreamVeraSans-Roman-31"/>
       <use x="554.58984375" xlink:href="#BitstreamVeraSans-Roman-35"/>
      </g>
     </g>
    </g>
    <g id="xtick_4">
     <g id="line2d_9">
      <g>
       <use style="stroke:#000000;stroke-width:0.5;" x="283.331519725" xlink:href="#m93b0483c22" y="345.6"/>
      </g>
     </g>
     <g id="line2d_10">
      <g>
       <use style="stroke:#000000;stroke-width:0.5;" x="283.331519725" xlink:href="#m741efc42ff" y="43.2"/>
      </g>
     </g>
     <g id="text_4">
      <!-- Oct 22 2015 -->
      <g transform="translate(218.74423299 394.065590385)rotate(-30.0)scale(0.12 -0.12)">
       <use xlink:href="#BitstreamVeraSans-Roman-4f"/>
       <use x="78.7109375" xlink:href="#BitstreamVeraSans-Roman-63"/>
       <use x="133.69140625" xlink:href="#BitstreamVeraSans-Roman-74"/>
       <use x="172.900390625" xlink:href="#BitstreamVeraSans-Roman-20"/>
       <use x="204.6875" xlink:href="#BitstreamVeraSans-Roman-32"/>
       <use x="268.310546875" xlink:href="#BitstreamVeraSans-Roman-32"/>
       <use x="331.93359375" xlink:href="#BitstreamVeraSans-Roman-20"/>
       <use x="363.720703125" xlink:href="#BitstreamVeraSans-Roman-32"/>
       <use x="427.34375" xlink:href="#BitstreamVeraSans-Roman-30"/>
       <use x="490.966796875" xlink:href="#BitstreamVeraSans-Roman-31"/>
       <use x="554.58984375" xlink:href="#BitstreamVeraSans-Roman-35"/>
      </g>
     </g>
    </g>
    <g id="xtick_5">
     <g id="line2d_11">
      <g>
       <use style="stroke:#000000;stroke-width:0.5;" x="338.461536877" xlink:href="#m93b0483c22" y="345.6"/>
      </g>
     </g>
     <g id="line2d_12">
      <g>
       <use style="stroke:#000000;stroke-width:0.5;" x="338.461536877" xlink:href="#m741efc42ff" y="43.2"/>
      </g>
     </g>
     <g id="text_5">
      <!-- Oct 25 2015 -->
      <g transform="translate(273.874250142 394.065590385)rotate(-30.0)scale(0.12 -0.12)">
       <use xlink:href="#BitstreamVeraSans-Roman-4f"/>
       <use x="78.7109375" xlink:href="#BitstreamVeraSans-Roman-63"/>
       <use x="133.69140625" xlink:href="#BitstreamVeraSans-Roman-74"/>
       <use x="172.900390625" xlink:href="#BitstreamVeraSans-Roman-20"/>
       <use x="204.6875" xlink:href="#BitstreamVeraSans-Roman-32"/>
       <use x="268.310546875" xlink:href="#BitstreamVeraSans-Roman-35"/>
       <use x="331.93359375" xlink:href="#BitstreamVeraSans-Roman-20"/>
       <use x="363.720703125" xlink:href="#BitstreamVeraSans-Roman-32"/>
       <use x="427.34375" xlink:href="#BitstreamVeraSans-Roman-30"/>
       <use x="490.966796875" xlink:href="#BitstreamVeraSans-Roman-31"/>
       <use x="554.58984375" xlink:href="#BitstreamVeraSans-Roman-35"/>
      </g>
     </g>
    </g>
    <g id="xtick_6">
     <g id="line2d_13">
      <g>
       <use style="stroke:#000000;stroke-width:0.5;" x="393.591554031" xlink:href="#m93b0483c22" y="345.6"/>
      </g>
     </g>
     <g id="line2d_14">
      <g>
       <use style="stroke:#000000;stroke-width:0.5;" x="393.591554031" xlink:href="#m741efc42ff" y="43.2"/>
      </g>
     </g>
     <g id="text_6">
      <!-- Oct 28 2015 -->
      <defs>
       <path d="
M31.7812 34.625
Q24.75 34.625 20.7188 30.8594
Q16.7031 27.0938 16.7031 20.5156
Q16.7031 13.9219 20.7188 10.1562
Q24.75 6.39062 31.7812 6.39062
Q38.8125 6.39062 42.8594 10.1719
Q46.9219 13.9688 46.9219 20.5156
Q46.9219 27.0938 42.8906 30.8594
Q38.875 34.625 31.7812 34.625
M21.9219 38.8125
Q15.5781 40.375 12.0312 44.7188
Q8.5 49.0781 8.5 55.3281
Q8.5 64.0625 14.7188 69.1406
Q20.9531 74.2188 31.7812 74.2188
Q42.6719 74.2188 48.875 69.1406
Q55.0781 64.0625 55.0781 55.3281
Q55.0781 49.0781 51.5312 44.7188
Q48 40.375 41.7031 38.8125
Q48.8281 37.1562 52.7969 32.3125
Q56.7812 27.4844 56.7812 20.5156
Q56.7812 9.90625 50.3125 4.23438
Q43.8438 -1.42188 31.7812 -1.42188
Q19.7344 -1.42188 13.25 4.23438
Q6.78125 9.90625 6.78125 20.5156
Q6.78125 27.4844 10.7812 32.3125
Q14.7969 37.1562 21.9219 38.8125
M18.3125 54.3906
Q18.3125 48.7344 21.8438 45.5625
Q25.3906 42.3906 31.7812 42.3906
Q38.1406 42.3906 41.7188 45.5625
Q45.3125 48.7344 45.3125 54.3906
Q45.3125 60.0625 41.7188 63.2344
Q38.1406 66.4062 31.7812 66.4062
Q25.3906 66.4062 21.8438 63.2344
Q18.3125 60.0625 18.3125 54.3906" id="BitstreamVeraSans-Roman-38"/>
      </defs>
      <g transform="translate(329.004267296 394.065590385)rotate(-30.0)scale(0.12 -0.12)">
       <use xlink:href="#BitstreamVeraSans-Roman-4f"/>
       <use x="78.7109375" xlink:href="#BitstreamVeraSans-Roman-63"/>
       <use x="133.69140625" xlink:href="#BitstreamVeraSans-Roman-74"/>
       <use x="172.900390625" xlink:href="#BitstreamVeraSans-Roman-20"/>
       <use x="204.6875" xlink:href="#BitstreamVeraSans-Roman-32"/>
       <use x="268.310546875" xlink:href="#BitstreamVeraSans-Roman-38"/>
       <use x="331.93359375" xlink:href="#BitstreamVeraSans-Roman-20"/>
       <use x="363.720703125" xlink:href="#BitstreamVeraSans-Roman-32"/>
       <use x="427.34375" xlink:href="#BitstreamVeraSans-Roman-30"/>
       <use x="490.966796875" xlink:href="#BitstreamVeraSans-Roman-31"/>
       <use x="554.58984375" xlink:href="#BitstreamVeraSans-Roman-35"/>
      </g>
     </g>
    </g>
    <g id="xtick_7">
     <g id="line2d_15">
      <g>
       <use style="stroke:#000000;stroke-width:0.5;" x="448.721571183" xlink:href="#m93b0483c22" y="345.6"/>
      </g>
     </g>
     <g id="line2d_16">
      <g>
       <use style="stroke:#000000;stroke-width:0.5;" x="448.721571183" xlink:href="#m741efc42ff" y="43.2"/>
      </g>
     </g>
     <g id="text_7">
      <!-- Oct 31 2015 -->
      <g transform="translate(384.134284448 394.065590385)rotate(-30.0)scale(0.12 -0.12)">
       <use xlink:href="#BitstreamVeraSans-Roman-4f"/>
       <use x="78.7109375" xlink:href="#BitstreamVeraSans-Roman-63"/>
       <use x="133.69140625" xlink:href="#BitstreamVeraSans-Roman-74"/>
       <use x="172.900390625" xlink:href="#BitstreamVeraSans-Roman-20"/>
       <use x="204.6875" xlink:href="#BitstreamVeraSans-Roman-33"/>
       <use x="268.310546875" xlink:href="#BitstreamVeraSans-Roman-31"/>
       <use x="331.93359375" xlink:href="#BitstreamVeraSans-Roman-20"/>
       <use x="363.720703125" xlink:href="#BitstreamVeraSans-Roman-32"/>
       <use x="427.34375" xlink:href="#BitstreamVeraSans-Roman-30"/>
       <use x="490.966796875" xlink:href="#BitstreamVeraSans-Roman-31"/>
       <use x="554.58984375" xlink:href="#BitstreamVeraSans-Roman-35"/>
      </g>
     </g>
    </g>
    <g id="xtick_8">
     <g id="line2d_17">
      <g>
       <use style="stroke:#000000;stroke-width:0.5;" x="503.851588335" xlink:href="#m93b0483c22" y="345.6"/>
      </g>
     </g>
     <g id="line2d_18">
      <g>
       <use style="stroke:#000000;stroke-width:0.5;" x="503.851588335" xlink:href="#m741efc42ff" y="43.2"/>
      </g>
     </g>
     <g id="text_8">
      <!-- Nov 03 2015 -->
      <defs>
       <path d="
M2.98438 54.6875
L12.5 54.6875
L29.5938 8.79688
L46.6875 54.6875
L56.2031 54.6875
L35.6875 0
L23.4844 0
z
" id="BitstreamVeraSans-Roman-76"/>
       <path d="
M9.8125 72.9062
L23.0938 72.9062
L55.4219 11.9219
L55.4219 72.9062
L64.9844 72.9062
L64.9844 0
L51.7031 0
L19.3906 60.9844
L19.3906 0
L9.8125 0
z
" id="BitstreamVeraSans-Roman-4e"/>
       <path d="
M30.6094 48.3906
Q23.3906 48.3906 19.1875 42.75
Q14.9844 37.1094 14.9844 27.2969
Q14.9844 17.4844 19.1562 11.8438
Q23.3438 6.20312 30.6094 6.20312
Q37.7969 6.20312 41.9844 11.8594
Q46.1875 17.5312 46.1875 27.2969
Q46.1875 37.0156 41.9844 42.7031
Q37.7969 48.3906 30.6094 48.3906
M30.6094 56
Q42.3281 56 49.0156 48.375
Q55.7188 40.7656 55.7188 27.2969
Q55.7188 13.875 49.0156 6.21875
Q42.3281 -1.42188 30.6094 -1.42188
Q18.8438 -1.42188 12.1719 6.21875
Q5.51562 13.875 5.51562 27.2969
Q5.51562 40.7656 12.1719 48.375
Q18.8438 56 30.6094 56" id="BitstreamVeraSans-Roman-6f"/>
      </defs>
      <g transform="translate(436.948766176 395.402465385)rotate(-30.0)scale(0.12 -0.12)">
       <use xlink:href="#BitstreamVeraSans-Roman-4e"/>
       <use x="74.8046875" xlink:href="#BitstreamVeraSans-Roman-6f"/>
       <use x="135.986328125" xlink:href="#BitstreamVeraSans-Roman-76"/>
       <use x="195.166015625" xlink:href="#BitstreamVeraSans-Roman-20"/>
       <use x="226.953125" xlink:href="#BitstreamVeraSans-Roman-30"/>
       <use x="290.576171875" xlink:href="#BitstreamVeraSans-Roman-33"/>
       <use x="354.19921875" xlink:href="#BitstreamVeraSans-Roman-20"/>
       <use x="385.986328125" xlink:href="#BitstreamVeraSans-Roman-32"/>
       <use x="449.609375" xlink:href="#BitstreamVeraSans-Roman-30"/>
       <use x="513.232421875" xlink:href="#BitstreamVeraSans-Roman-31"/>
       <use x="576.85546875" xlink:href="#BitstreamVeraSans-Roman-35"/>
      </g>
     </g>
    </g>
   </g>
   <g id="matplotlib.axis_2">
    <g id="ytick_1">
     <g id="line2d_19">
      <defs>
       <path d="
M0 0
L4 0" id="m728421d6d4" style="stroke:#000000;stroke-width:0.5;"/>
      </defs>
      <g>
       <use style="stroke:#000000;stroke-width:0.5;" x="72.0" xlink:href="#m728421d6d4" y="286.21752557"/>
      </g>
     </g>
     <g id="line2d_20">
      <defs>
       <path d="
M0 0
L-4 0" id="mcb0005524f" style="stroke:#000000;stroke-width:0.5;"/>
      </defs>
      <g>
       <use style="stroke:#000000;stroke-width:0.5;" x="518.4" xlink:href="#mcb0005524f" y="286.21752557"/>
      </g>
     </g>
     <g id="text_9">
      <!-- 10000 -->
      <g transform="translate(31.94 289.52877557)scale(0.12 -0.12)">
       <use xlink:href="#BitstreamVeraSans-Roman-31"/>
       <use x="63.623046875" xlink:href="#BitstreamVeraSans-Roman-30"/>
       <use x="127.24609375" xlink:href="#BitstreamVeraSans-Roman-30"/>
       <use x="190.869140625" xlink:href="#BitstreamVeraSans-Roman-30"/>
       <use x="254.4921875" xlink:href="#BitstreamVeraSans-Roman-30"/>
      </g>
     </g>
    </g>
    <g id="ytick_2">
     <g id="line2d_21">
      <g>
       <use style="stroke:#000000;stroke-width:0.5;" x="72.0" xlink:href="#m728421d6d4" y="226.282752203"/>
      </g>
     </g>
     <g id="line2d_22">
      <g>
       <use style="stroke:#000000;stroke-width:0.5;" x="518.4" xlink:href="#mcb0005524f" y="226.282752203"/>
      </g>
     </g>
     <g id="text_10">
      <!-- 20000 -->
      <g transform="translate(31.50125 229.594002203)scale(0.12 -0.12)">
       <use xlink:href="#BitstreamVeraSans-Roman-32"/>
       <use x="63.623046875" xlink:href="#BitstreamVeraSans-Roman-30"/>
       <use x="127.24609375" xlink:href="#BitstreamVeraSans-Roman-30"/>
       <use x="190.869140625" xlink:href="#BitstreamVeraSans-Roman-30"/>
       <use x="254.4921875" xlink:href="#BitstreamVeraSans-Roman-30"/>
      </g>
     </g>
    </g>
    <g id="ytick_3">
     <g id="line2d_23">
      <g>
       <use style="stroke:#000000;stroke-width:0.5;" x="72.0" xlink:href="#m728421d6d4" y="166.347978837"/>
      </g>
     </g>
     <g id="line2d_24">
      <g>
       <use style="stroke:#000000;stroke-width:0.5;" x="518.4" xlink:href="#mcb0005524f" y="166.347978837"/>
      </g>
     </g>
     <g id="text_11">
      <!-- 30000 -->
      <g transform="translate(31.536875 169.659228837)scale(0.12 -0.12)">
       <use xlink:href="#BitstreamVeraSans-Roman-33"/>
       <use x="63.623046875" xlink:href="#BitstreamVeraSans-Roman-30"/>
       <use x="127.24609375" xlink:href="#BitstreamVeraSans-Roman-30"/>
       <use x="190.869140625" xlink:href="#BitstreamVeraSans-Roman-30"/>
       <use x="254.4921875" xlink:href="#BitstreamVeraSans-Roman-30"/>
      </g>
     </g>
    </g>
    <g id="ytick_4">
     <g id="line2d_25">
      <g>
       <use style="stroke:#000000;stroke-width:0.5;" x="72.0" xlink:href="#m728421d6d4" y="106.41320547"/>
      </g>
     </g>
     <g id="line2d_26">
      <g>
       <use style="stroke:#000000;stroke-width:0.5;" x="518.4" xlink:href="#mcb0005524f" y="106.41320547"/>
      </g>
     </g>
     <g id="text_12">
      <!-- 40000 -->
      <defs>
       <path d="
M37.7969 64.3125
L12.8906 25.3906
L37.7969 25.3906
z

M35.2031 72.9062
L47.6094 72.9062
L47.6094 25.3906
L58.0156 25.3906
L58.0156 17.1875
L47.6094 17.1875
L47.6094 0
L37.7969 0
L37.7969 17.1875
L4.89062 17.1875
L4.89062 26.7031
z
" id="BitstreamVeraSans-Roman-34"/>
      </defs>
      <g transform="translate(31.20875 109.72445547)scale(0.12 -0.12)">
       <use xlink:href="#BitstreamVeraSans-Roman-34"/>
       <use x="63.623046875" xlink:href="#BitstreamVeraSans-Roman-30"/>
       <use x="127.24609375" xlink:href="#BitstreamVeraSans-Roman-30"/>
       <use x="190.869140625" xlink:href="#BitstreamVeraSans-Roman-30"/>
       <use x="254.4921875" xlink:href="#BitstreamVeraSans-Roman-30"/>
      </g>
     </g>
    </g>
    <g id="ytick_5">
     <g id="line2d_27">
      <g>
       <use style="stroke:#000000;stroke-width:0.5;" x="72.0" xlink:href="#m728421d6d4" y="46.4784321032"/>
      </g>
     </g>
     <g id="line2d_28">
      <g>
       <use style="stroke:#000000;stroke-width:0.5;" x="518.4" xlink:href="#mcb0005524f" y="46.4784321032"/>
      </g>
     </g>
     <g id="text_13">
      <!-- 50000 -->
      <g transform="translate(31.548125 49.7896821032)scale(0.12 -0.12)">
       <use xlink:href="#BitstreamVeraSans-Roman-35"/>
       <use x="63.623046875" xlink:href="#BitstreamVeraSans-Roman-30"/>
       <use x="127.24609375" xlink:href="#BitstreamVeraSans-Roman-30"/>
       <use x="190.869140625" xlink:href="#BitstreamVeraSans-Roman-30"/>
       <use x="254.4921875" xlink:href="#BitstreamVeraSans-Roman-30"/>
      </g>
     </g>
    </g>
   </g>
   <g id="text_14">
    <!-- Altmetall -->
    <defs>
     <path d="
M56.2031 29.5938
L56.2031 25.2031
L14.8906 25.2031
Q15.4844 15.9219 20.4844 11.0625
Q25.4844 6.20312 34.4219 6.20312
Q39.5938 6.20312 44.4531 7.46875
Q49.3125 8.73438 54.1094 11.2812
L54.1094 2.78125
Q49.2656 0.734375 44.1875 -0.34375
Q39.1094 -1.42188 33.8906 -1.42188
Q20.7969 -1.42188 13.1562 6.1875
Q5.51562 13.8125 5.51562 26.8125
Q5.51562 40.2344 12.7656 48.1094
Q20.0156 56 32.3281 56
Q43.3594 56 49.7812 48.8906
Q56.2031 41.7969 56.2031 29.5938
M47.2188 32.2344
Q47.125 39.5938 43.0938 43.9844
Q39.0625 48.3906 32.4219 48.3906
Q24.9062 48.3906 20.3906 44.1406
Q15.875 39.8906 15.1875 32.1719
z
" id="BitstreamVeraSans-Roman-65"/>
     <path d="
M52 44.1875
Q55.375 50.25 60.0625 53.125
Q64.75 56 71.0938 56
Q79.6406 56 84.2812 50.0156
Q88.9219 44.0469 88.9219 33.0156
L88.9219 0
L79.8906 0
L79.8906 32.7188
Q79.8906 40.5781 77.0938 44.375
Q74.3125 48.1875 68.6094 48.1875
Q61.625 48.1875 57.5625 43.5469
Q53.5156 38.9219 53.5156 30.9062
L53.5156 0
L44.4844 0
L44.4844 32.7188
Q44.4844 40.625 41.7031 44.4062
Q38.9219 48.1875 33.1094 48.1875
Q26.2188 48.1875 22.1562 43.5312
Q18.1094 38.875 18.1094 30.9062
L18.1094 0
L9.07812 0
L9.07812 54.6875
L18.1094 54.6875
L18.1094 46.1875
Q21.1875 51.2188 25.4844 53.6094
Q29.7812 56 35.6875 56
Q41.6562 56 45.8281 52.9688
Q50 49.9531 52 44.1875" id="BitstreamVeraSans-Roman-6d"/>
     <path d="
M34.2812 27.4844
Q23.3906 27.4844 19.1875 25
Q14.9844 22.5156 14.9844 16.5
Q14.9844 11.7188 18.1406 8.90625
Q21.2969 6.10938 26.7031 6.10938
Q34.1875 6.10938 38.7031 11.4062
Q43.2188 16.7031 43.2188 25.4844
L43.2188 27.4844
z

M52.2031 31.2031
L52.2031 0
L43.2188 0
L43.2188 8.29688
Q40.1406 3.32812 35.5469 0.953125
Q30.9531 -1.42188 24.3125 -1.42188
Q15.9219 -1.42188 10.9531 3.29688
Q6 8.01562 6 15.9219
Q6 25.1406 12.1719 29.8281
Q18.3594 34.5156 30.6094 34.5156
L43.2188 34.5156
L43.2188 35.4062
Q43.2188 41.6094 39.1406 45
Q35.0625 48.3906 27.6875 48.3906
Q23 48.3906 18.5469 47.2656
Q14.1094 46.1406 10.0156 43.8906
L10.0156 52.2031
Q14.9375 54.1094 19.5781 55.0469
Q24.2188 56 28.6094 56
Q40.4844 56 46.3438 49.8438
Q52.2031 43.7031 52.2031 31.2031" id="BitstreamVeraSans-Roman-61"/>
     <path d="
M9.42188 75.9844
L18.4062 75.9844
L18.4062 0
L9.42188 0
z
" id="BitstreamVeraSans-Roman-6c"/>
     <path d="
M34.1875 63.1875
L20.7969 26.9062
L47.6094 26.9062
z

M28.6094 72.9062
L39.7969 72.9062
L67.5781 0
L57.3281 0
L50.6875 18.7031
L17.8281 18.7031
L11.1875 0
L0.78125 0
z
" id="BitstreamVeraSans-Roman-41"/>
    </defs>
    <g transform="translate(455.0085 38.2)scale(0.144 -0.144)">
     <use xlink:href="#BitstreamVeraSans-Roman-41"/>
     <use x="68.408203125" xlink:href="#BitstreamVeraSans-Roman-6c"/>
     <use x="96.19140625" xlink:href="#BitstreamVeraSans-Roman-74"/>
     <use x="135.400390625" xlink:href="#BitstreamVeraSans-Roman-6d"/>
     <use x="232.8125" xlink:href="#BitstreamVeraSans-Roman-65"/>
     <use x="294.3359375" xlink:href="#BitstreamVeraSans-Roman-74"/>
     <use x="333.544921875" xlink:href="#BitstreamVeraSans-Roman-61"/>
     <use x="394.82421875" xlink:href="#BitstreamVeraSans-Roman-6c"/>
     <use x="422.607421875" xlink:href="#BitstreamVeraSans-Roman-6c"/>
    </g>
   </g>
   <g id="legend_1">
    <g id="patch_7">
     <path d="
M123.942 423.616
L466.458 423.616
L466.458 398.16
L123.942 398.16
z
" style="fill:#ffffff;stroke:#000000;stroke-linejoin:miter;"/>
    </g>
    <g id="line2d_29">
     <path d="
M134.022 409.822
L154.182 409.822" style="fill:none;stroke:#ff0000;stroke-linecap:square;"/>
    </g>
    <g id="line2d_30"/>
    <g id="text_15">
     <!-- Schwarzmarktpreis -->
     <defs>
      <path d="
M9.07812 75.9844
L18.1094 75.9844
L18.1094 31.1094
L44.9219 54.6875
L56.3906 54.6875
L27.3906 29.1094
L57.625 0
L45.9062 0
L18.1094 26.7031
L18.1094 0
L9.07812 0
z
" id="BitstreamVeraSans-Roman-6b"/>
      <path d="
M53.5156 70.5156
L53.5156 60.8906
Q47.9062 63.5781 42.9219 64.8906
Q37.9375 66.2188 33.2969 66.2188
Q25.25 66.2188 20.875 63.0938
Q16.5 59.9688 16.5 54.2031
Q16.5 49.3594 19.4062 46.8906
Q22.3125 44.4375 30.4219 42.9219
L36.375 41.7031
Q47.4062 39.5938 52.6562 34.2969
Q57.9062 29 57.9062 20.125
Q57.9062 9.51562 50.7969 4.04688
Q43.7031 -1.42188 29.9844 -1.42188
Q24.8125 -1.42188 18.9688 -0.25
Q13.1406 0.921875 6.89062 3.21875
L6.89062 13.375
Q12.8906 10.0156 18.6562 8.29688
Q24.4219 6.59375 29.9844 6.59375
Q38.4219 6.59375 43.0156 9.90625
Q47.6094 13.2344 47.6094 19.3906
Q47.6094 24.75 44.3125 27.7812
Q41.0156 30.8125 33.5 32.3281
L27.4844 33.5
Q16.4531 35.6875 11.5156 40.375
Q6.59375 45.0625 6.59375 53.4219
Q6.59375 63.0938 13.4062 68.6562
Q20.2188 74.2188 32.1719 74.2188
Q37.3125 74.2188 42.625 73.2812
Q47.9531 72.3594 53.5156 70.5156" id="BitstreamVeraSans-Roman-53"/>
      <path d="
M9.42188 54.6875
L18.4062 54.6875
L18.4062 0
L9.42188 0
z

M9.42188 75.9844
L18.4062 75.9844
L18.4062 64.5938
L9.42188 64.5938
z
" id="BitstreamVeraSans-Roman-69"/>
      <path d="
M54.8906 33.0156
L54.8906 0
L45.9062 0
L45.9062 32.7188
Q45.9062 40.4844 42.875 44.3281
Q39.8438 48.1875 33.7969 48.1875
Q26.5156 48.1875 22.3125 43.5469
Q18.1094 38.9219 18.1094 30.9062
L18.1094 0
L9.07812 0
L9.07812 75.9844
L18.1094 75.9844
L18.1094 46.1875
Q21.3438 51.125 25.7031 53.5625
Q30.0781 56 35.7969 56
Q45.2188 56 50.0469 50.1719
Q54.8906 44.3438 54.8906 33.0156" id="BitstreamVeraSans-Roman-68"/>
      <path d="
M4.20312 54.6875
L13.1875 54.6875
L24.4219 12.0156
L35.5938 54.6875
L46.1875 54.6875
L57.4219 12.0156
L68.6094 54.6875
L77.5938 54.6875
L63.2812 0
L52.6875 0
L40.9219 44.8281
L29.1094 0
L18.5 0
z
" id="BitstreamVeraSans-Roman-77"/>
      <path d="
M5.51562 54.6875
L48.1875 54.6875
L48.1875 46.4844
L14.4062 7.17188
L48.1875 7.17188
L48.1875 0
L4.29688 0
L4.29688 8.20312
L38.0938 47.5156
L5.51562 47.5156
z
" id="BitstreamVeraSans-Roman-7a"/>
      <path d="
M41.1094 46.2969
Q39.5938 47.1719 37.8125 47.5781
Q36.0312 48 33.8906 48
Q26.2656 48 22.1875 43.0469
Q18.1094 38.0938 18.1094 28.8125
L18.1094 0
L9.07812 0
L9.07812 54.6875
L18.1094 54.6875
L18.1094 46.1875
Q20.9531 51.1719 25.4844 53.5781
Q30.0312 56 36.5312 56
Q37.4531 56 38.5781 55.875
Q39.7031 55.7656 41.0625 55.5156
z
" id="BitstreamVeraSans-Roman-72"/>
      <path d="
M44.2812 53.0781
L44.2812 44.5781
Q40.4844 46.5312 36.375 47.5
Q32.2812 48.4844 27.875 48.4844
Q21.1875 48.4844 17.8438 46.4375
Q14.5 44.3906 14.5 40.2812
Q14.5 37.1562 16.8906 35.375
Q19.2812 33.5938 26.5156 31.9844
L29.5938 31.2969
Q39.1562 29.25 43.1875 25.5156
Q47.2188 21.7812 47.2188 15.0938
Q47.2188 7.46875 41.1875 3.01562
Q35.1562 -1.42188 24.6094 -1.42188
Q20.2188 -1.42188 15.4531 -0.5625
Q10.6875 0.296875 5.42188 2
L5.42188 11.2812
Q10.4062 8.6875 15.2344 7.39062
Q20.0625 6.10938 24.8125 6.10938
Q31.1562 6.10938 34.5625 8.28125
Q37.9844 10.4531 37.9844 14.4062
Q37.9844 18.0625 35.5156 20.0156
Q33.0625 21.9688 24.7031 23.7812
L21.5781 24.5156
Q13.2344 26.2656 9.51562 29.9062
Q5.8125 33.5469 5.8125 39.8906
Q5.8125 47.6094 11.2812 51.7969
Q16.75 56 26.8125 56
Q31.7812 56 36.1719 55.2656
Q40.5781 54.5469 44.2812 53.0781" id="BitstreamVeraSans-Roman-73"/>
      <path d="
M18.1094 8.20312
L18.1094 -20.7969
L9.07812 -20.7969
L9.07812 54.6875
L18.1094 54.6875
L18.1094 46.3906
Q20.9531 51.2656 25.2656 53.625
Q29.5938 56 35.5938 56
Q45.5625 56 51.7812 48.0938
Q58.0156 40.1875 58.0156 27.2969
Q58.0156 14.4062 51.7812 6.48438
Q45.5625 -1.42188 35.5938 -1.42188
Q29.5938 -1.42188 25.2656 0.953125
Q20.9531 3.32812 18.1094 8.20312
M48.6875 27.2969
Q48.6875 37.2031 44.6094 42.8438
Q40.5312 48.4844 33.4062 48.4844
Q26.2656 48.4844 22.1875 42.8438
Q18.1094 37.2031 18.1094 27.2969
Q18.1094 17.3906 22.1875 11.75
Q26.2656 6.10938 33.4062 6.10938
Q40.5312 6.10938 44.6094 11.75
Q48.6875 17.3906 48.6875 27.2969" id="BitstreamVeraSans-Roman-70"/>
     </defs>
     <g transform="translate(170.022375 414.86175)scale(0.144 -0.144)">
      <use xlink:href="#BitstreamVeraSans-Roman-53"/>
      <use x="63.4765625" xlink:href="#BitstreamVeraSans-Roman-63"/>
      <use x="118.45703125" xlink:href="#BitstreamVeraSans-Roman-68"/>
      <use x="181.8359375" xlink:href="#BitstreamVeraSans-Roman-77"/>
      <use x="263.623046875" xlink:href="#BitstreamVeraSans-Roman-61"/>
      <use x="324.90234375" xlink:href="#BitstreamVeraSans-Roman-72"/>
      <use x="366.015625" xlink:href="#BitstreamVeraSans-Roman-7a"/>
      <use x="418.505859375" xlink:href="#BitstreamVeraSans-Roman-6d"/>
      <use x="515.91796875" xlink:href="#BitstreamVeraSans-Roman-61"/>
      <use x="577.197265625" xlink:href="#BitstreamVeraSans-Roman-72"/>
      <use x="618.310546875" xlink:href="#BitstreamVeraSans-Roman-6b"/>
      <use x="676.220703125" xlink:href="#BitstreamVeraSans-Roman-74"/>
      <use x="715.4296875" xlink:href="#BitstreamVeraSans-Roman-70"/>
      <use x="778.90625" xlink:href="#BitstreamVeraSans-Roman-72"/>
      <use x="817.76953125" xlink:href="#BitstreamVeraSans-Roman-65"/>
      <use x="879.29296875" xlink:href="#BitstreamVeraSans-Roman-69"/>
      <use x="907.076171875" xlink:href="#BitstreamVeraSans-Roman-73"/>
     </g>
    </g>
    <g id="line2d_31">
     <path d="
M339.609 409.822
L359.769 409.822" style="fill:none;stroke:#008000;stroke-linecap:square;"/>
    </g>
    <g id="line2d_32"/>
    <g id="text_16">
     <!-- Normalpreis -->
     <g transform="translate(375.609375 414.86175)scale(0.144 -0.144)">
      <use xlink:href="#BitstreamVeraSans-Roman-4e"/>
      <use x="74.8046875" xlink:href="#BitstreamVeraSans-Roman-6f"/>
      <use x="135.986328125" xlink:href="#BitstreamVeraSans-Roman-72"/>
      <use x="175.349609375" xlink:href="#BitstreamVeraSans-Roman-6d"/>
      <use x="272.76171875" xlink:href="#BitstreamVeraSans-Roman-61"/>
      <use x="334.041015625" xlink:href="#BitstreamVeraSans-Roman-6c"/>
      <use x="361.82421875" xlink:href="#BitstreamVeraSans-Roman-70"/>
      <use x="425.30078125" xlink:href="#BitstreamVeraSans-Roman-72"/>
      <use x="464.1640625" xlink:href="#BitstreamVeraSans-Roman-65"/>
      <use x="525.6875" xlink:href="#BitstreamVeraSans-Roman-69"/>
      <use x="553.470703125" xlink:href="#BitstreamVeraSans-Roman-73"/>
     </g>
    </g>
   </g>
  </g>
 </g>
 <defs>
  <clipPath id="pcb2bf987bf">
   <rect height="302.4" width="446.4" x="72.0" y="43.2"/>
  </clipPath>
 </defs>
</svg>
