<?xml version="1.0" encoding="utf-8" standalone="no"?>
<!DOCTYPE svg PUBLIC "-//W3C//DTD SVG 1.1//EN"
  "http://www.w3.org/Graphics/SVG/1.1/DTD/svg11.dtd">
<!-- Created with matplotlib (http://matplotlib.org/) -->
<svg height="432pt" version="1.1" viewBox="0 0 576 432" width="576pt" xmlns="http://www.w3.org/2000/svg" xmlns:xlink="http://www.w3.org/1999/xlink">
 <defs>
  <style type="text/css">
*{stroke-linecap:butt;stroke-linejoin:round;}
  </style>
 </defs>
 <g id="figure_1">
  <g id="patch_1">
   <path d="
M0 432
L576 432
L576 0
L0 0
z
" style="fill:#ffffff;"/>
  </g>
  <g id="axes_1">
   <g id="patch_2">
    <path d="
M72 345.6
L518.4 345.6
L518.4 43.2
L72 43.2
z
" style="fill:#ffffff;"/>
   </g>
   <g id="line2d_1">
    <path clip-path="url(#pcb2bf987bf)" d="
M72 130.304
L72.1276 130.304
L72.3828 131.412
L72.5105 131.191
L72.7657 130.08
L73.1485 132.517
L73.2762 132.517
L74.0419 123.494
L74.2971 124.661
L74.4247 132.517
L74.8075 121.325
L75.0628 120.17
L75.1904 122.489
L75.4456 130.304
L75.8285 124.986
L75.9561 126.079
L76.2113 126.079
L76.3389 127.261
L76.5942 126.522
L76.7218 127.409
L76.9772 125.651
L77.3599 130.718
L77.8703 127.763
L78.1256 129.607
L78.1256 129.607
L78.2532 129.607
L78.5084 139.242
L78.636 139.242
L78.8915 136.022
L79.2741 117.141
L79.4017 124.897
L79.6569 122.622
L79.7846 128.883
L80.0398 125.503
L80.1674 125.503
L80.4226 124.365
L80.5503 120.908
L80.8055 117.392
L80.9331 117.392
L81.1885 122.061
L81.316 122.061
L81.5712 120.908
L81.6988 118.574
L82.0816 124.159
L82.3371 123.006
L82.4645 117.067
L82.7197 124.159
L82.8473 124.129
L83.1026 137.009
L83.2302 134.84
L83.4854 134.84
L83.613 133.747
L83.8683 117.067
L83.9959 133.729
L84.2511 132.624
L84.3787 132.624
L84.6342 133.614
L85.1444 133.614
L85.3999 124.395
L85.5273 133.614
L85.7825 132.432
L85.9101 132.432
L86.1654 133.726
L86.6758 133.729
L86.931 131.516
L87.0587 131.516
L87.3139 133.729
L87.4415 131.841
L87.6967 130.437
L88.0796 124.809
L88.2072 123.671
L88.4624 133.54
L88.5901 131.338
L88.8453 120.022
L88.8453 120.022
L88.9729 123.154
L89.2281 122.002
L89.3557 130.23
L89.611 124.587
L89.7386 131.338
L89.9938 133.185
L89.9938 133.185
L90.3767 123.065
L91.0148 126.49
L91.7804 114.763
L91.9081 119.475
L92.5461 122.947
L92.6738 121.795
L93.3118 125.237
L94.0775 130.653
L94.2051 129.536
L94.8432 127.291
L94.9708 130.656
L95.6089 120.421
L95.7365 121.573
L96.3746 109.754
L97.1403 122.046
L97.906 122.046
L98.0336 107.79
L98.6717 130.656
L98.7993 129.536
L99.4374 121.529
L100.203 120.315
L100.331 119.15
L100.969 112.044
L101.734 120.317
L101.862 116.801
L102.5 120.377
L103.393 130.363
L104.032 126.98
L104.797 123.568
L105.563 126.98
L106.329 128.103
L107.86 128.014
L107.988 125.754
L108.626 118.338
L109.391 115.974
L109.519 121.824
L110.157 115.974
L110.285 118.338
L110.923 120.657
L111.05 120.669
L111.689 117.156
L111.816 120.669
L113.986 129.512
L114.879 126.64
L116.283 118.471
L116.41 119.18
L117.048 113.241
L117.814 127.282
L117.942 126.153
L118.58 114.113
L118.707 126.685
L119.345 126.7
L120.111 124.422
L120.877 130.653
L123.94 130.653
L124.067 127.719
L125.471 125.207
L126.109 120.595
L126.365 117.082
L127.002 125.931
L127.13 125.931
L127.13 125.931
L127.64 128.103
L127.64 128.103
L127.768 128.103
L128.661 115.856
L129.299 122.873
L130.065 121.263
L130.193 118.926
L131.597 118.911
L132.362 117.762
L132.362 117.762
L133.894 123.154
L134.149 120.849
L134.659 127.994
L135.425 126.827
L136.191 125.925
L136.318 123.612
L136.956 121.293
L137.722 122.445
L138.488 115.265
L139.254 120.125
L139.381 122.445
L140.019 122.415
L140.785 124.676
L141.551 122.386
L141.678 120.938
L142.316 124.744
L143.082 124.749
L143.848 117.2
L143.975 117.2
L144.613 124.203
L145.379 120.746
L145.507 119.579
L146.145 117.067
L146.272 115.885
L147.038 123.051
L147.676 125.928
L148.442 122.504
L149.208 121.352
L149.335 119.003
L149.973 122.504
L150.867 111.897
L151.505 107.021
L152.27 118.515
L153.036 118.545
L153.164 118.707
L153.802 116.355
L154.567 118.722
L155.333 122.474
L155.333 122.474
L156.099 120.347
L156.865 114.467
L157.63 122.386
L158.396 122.386
L159.162 111.778
L159.927 117.732
L160.693 119.017
L160.821 116.668
L162.224 119.017
L162.99 122.474
L163.118 120.184
L163.756 116.668
L163.883 111.852
L164.649 111.897
L165.287 120.037
L166.053 118.87
L166.819 120.037
L167.712 112.916
L168.35 114.113
L169.116 111.719
L169.243 111.719
L169.881 115.339
L170.647 116.521
L170.775 120.037
L171.413 120.184
L172.178 121.349
L173.072 126.035
L173.71 127.169
L174.475 124.129
L174.603 122.977
L176.007 118.338
L176.9 117.126
L177.538 126.936
L178.304 126.936
L179.07 118.751
L179.835 122.356
L179.963 122.356
L180.601 118.884
L180.729 107.154
L181.367 120.049
L182.132 126.924
L182.26 126.924
L182.898 121.012
L183.664 115.59
L183.791 117.023
L184.43 121.189
L185.195 124.454
L185.961 123.281
L186.727 120.982
L187.492 126.906
L189.024 122.341
L189.151 121.396
L190.555 121.174
L191.321 121.174
L191.321 121.174
L192.852 116.205
L193.618 117.392
L194.384 116.21
L195.149 118.559
L195.277 117.392
L195.915 113.832
L196.681 122.164
L198.212 124.445
L198.212 124.445
L198.978 123.961
L200.509 122.445
L201.275 121.204
L202.04 116.609
L202.806 120.244
L203.572 119.062
L203.699 111.941
L204.338 118.87
L205.231 117.688
L205.869 118.87
L205.997 120.037
L206.124 117.703
L206.507 116.225
L206.635 112.65
L206.635 112.65
L206.762 117.407
L207.4 121.558
L207.911 122.991
L208.166 121.839
L208.804 120.51
L209.059 122.533
L209.059 122.533
L209.442 118.648
L209.57 119.812
L209.825 119.812
L210.591 113.921
L210.846 119.812
L211.356 120.967
L211.484 124.436
L211.867 124.433
L212.122 123.287
L212.25 123.287
L212.505 122.132
L212.633 122.135
L212.888 119.815
L213.271 124.433
L213.781 124.433
L214.036 120.982
L214.164 120.982
L214.419 122.135
L214.547 124.433
L214.802 123.287
L214.93 123.287
L215.185 122.135
L215.185 122.135
L215.313 123.287
L215.568 123.715
L215.695 122.56
L215.951 122.563
L215.951 122.563
L216.333 119.076
L216.461 122.56
L216.589 119.076
L216.589 119.076
L216.844 120.317
L217.099 116.728
L217.482 124.433
L217.482 124.433
L217.61 124.422
L217.865 123.272
L218.248 123.287
L218.248 123.287
L218.375 117.053
L218.758 123.284
L219.013 120.982
L219.396 115.738
L220.29 124.43
L220.29 124.43
L220.417 123.272
L220.545 123.287
L220.672 124.454
L220.672 124.454
L221.055 124.631
L221.438 124.631
L221.693 117.067
L222.076 120.317
L222.204 124.631
L222.842 124.631
L222.842 124.631
L223.225 122.844
L223.352 123.996
L223.608 113.463
L223.735 122.844
L223.99 124.631
L224.118 124.631
L224.373 123.641
L224.501 124.631
L224.756 122.489
L224.884 123.641
L225.139 123.641
L225.267 122.489
L225.522 124.498
L225.649 124.498
L225.649 124.498
L225.777 124.631
L225.777 124.631
L225.905 117.067
L225.905 117.067
L226.032 124.631
L226.032 124.631
L226.16 124.498
L226.16 124.498
L226.288 124.631
L226.415 121.824
L226.415 121.824
L226.67 122.977
L226.798 124.631
L227.053 120.672
L227.181 124.203
L227.436 125.193
L227.436 125.193
L227.819 119.431
L227.946 125.19
L228.202 125.045
L228.967 117.688
L229.478 125.187
L229.733 120.598
L229.861 125.19
L230.244 121.75
L230.499 120.598
L230.499 120.598
L230.882 116.801
L231.009 117.983
L231.264 119.15
L231.264 119.15
L231.392 116.801
L232.03 116.801
L232.158 119.15
L232.413 116.801
L232.541 125.19
L232.796 121.603
L232.796 121.603
L232.924 121.603
L233.179 122.977
L233.306 122.977
L233.562 125.045
L233.689 125.045
L234.072 122.652
L234.327 123.804
L234.327 123.804
L234.455 121.485
L234.71 123.804
L234.838 123.804
L235.093 125.045
L235.093 125.045
L235.476 125.045
L235.603 123.907
L235.859 122.755
L235.859 122.755
L235.986 122.755
L236.242 123.907
L236.369 122.755
L236.624 118.116
L236.752 120.447
L237.007 120.317
L237.135 123.907
L237.39 121.603
L237.518 123.316
L237.773 121.009
L237.901 121.009
L238.156 119.845
L238.283 119.845
L238.539 122.386
L238.666 125.045
L238.921 125.042
L239.049 122.74
L239.304 123.907
L239.432 122.755
L239.815 122.755
L240.07 121.603
L240.198 119.269
L240.453 116.92
L240.453 116.92
L240.836 120.433
L240.963 120.45
L241.219 121.603
L241.346 120.45
L241.601 116.934
L241.729 123.636
L241.984 121.322
L242.112 121.322
L242.367 120.45
L242.495 123.907
L242.75 115.885
L242.878 119.283
L243.133 118.101
L243.26 116.92
L243.516 124.749
L243.898 124.749
L244.026 124.454
L244.281 124.159
L244.409 124.424
L244.792 124.395
L245.047 123.243
L245.047 123.243
L245.175 122.09
L245.43 124.395
L245.813 124.395
L245.94 123.243
L246.196 124.395
L246.323 122.09
L246.578 123.243
L246.578 123.243
L246.706 123.272
L246.961 120.967
L247.089 124.395
L247.344 117.067
L247.727 123.243
L247.855 123.243
L248.237 124.395
L248.62 119.505
L248.876 124.395
L248.876 124.395
L249.003 123.243
L249.258 124.395
L249.641 123.243
L249.641 123.243
L249.769 124.392
L250.152 124.392
L250.407 122.09
L250.534 122.09
L250.917 118.899
L251.173 124.159
L251.3 124.159
L251.555 122.12
L251.683 122.12
L251.938 123.006
L252.066 124.159
L252.321 122.977
L252.449 124.15
L252.704 123.006
L252.832 121.854
L253.087 115.767
L253.214 122.974
L253.597 119.505
L253.852 119.505
L253.98 124.15
L254.235 121.824
L254.363 122.977
L254.618 123.006
L254.746 124.15
L254.746 124.15
L255.001 123.006
L255.384 119.534
L255.511 117.185
L255.511 117.185
L255.894 123.006
L256.277 122.711
L256.66 111.38
L256.66 111.38
L256.915 112.591
L257.043 123.89
L257.298 123.89
L257.426 122.74
L257.681 123.893
L257.809 120.421
L258.064 121.585
L258.064 121.585
L258.447 124.15
L258.574 121.854
L258.702 121.854
L258.83 122.977
L258.957 122.977
L259.212 124.129
L259.212 124.129
L259.723 124.159
L259.978 124.159
L260.361 123.006
L260.489 123.656
L260.744 123.65
L260.871 122.504
L261.127 115.457
L261.254 121.319
L261.637 124.156
L261.892 121.854
L262.02 123.006
L262.403 114.822
L262.658 121.854
L262.786 120.642
L263.041 119.475
L263.168 118.308
L263.424 120.642
L263.424 120.642
L263.551 119.475
L263.807 121.647
L263.934 120.43
L264.189 119.461
L264.189 119.461
L264.317 122.858
L264.572 121.706
L264.7 122.858
L264.955 121.674
L264.955 121.674
L265.083 122.858
L265.338 124.011
L265.466 124.011
L265.593 121.706
L265.848 121.558
L266.231 124.011
L266.486 122.858
L266.614 121.706
L266.869 117.067
L266.997 120.554
L267.252 121.706
L267.635 121.706
L267.763 120.554
L268.018 120.554
L268.401 124.011
L268.784 124.011
L268.911 120.052
L269.166 118.22
L269.294 115.826
L269.549 124.156
L269.677 123.568
L269.932 121.854
L270.06 123.006
L270.315 124.159
L270.698 124.159
L270.825 123.006
L271.081 124.159
L271.974 124.156
L272.229 124.011
L272.357 117.067
L272.612 124.159
L272.74 121.558
L272.995 119.239
L273.122 123.863
L273.506 124.159
L273.888 124.156
L274.143 121.854
L274.271 124.159
L274.526 123.006
L274.654 123.006
L274.909 124.159
L274.909 124.159
L275.037 123.006
L275.292 124.159
L275.802 124.011
L276.058 120.687
L276.185 124.153
L276.441 124.159
L276.568 123.006
L276.823 123.006
L276.951 121.854
L277.206 123.006
L277.589 125.976
L277.717 125.99
L277.972 127.113
L277.972 127.113
L278.099 122.977
L278.355 123.006
L278.482 124.159
L278.738 124.159
L278.865 121.706
L279.248 124.159
L279.503 123.863
L279.631 124.159
L279.886 124.159
L280.014 120.702
L280.269 121.854
L280.269 121.854
L280.397 120.702
L280.652 130.718
L280.779 129.61
L281.035 120.731
L281.035 120.731
L281.162 127.35
L281.545 124.897
L281.801 127.172
L282.311 123.937
L282.566 116.846
L282.694 122.785
L283.077 129.61
L283.332 121.204
L283.459 126.227
L283.715 126.224
L283.842 123.952
L284.225 123.952
L284.736 123.952
L285.246 113.965
L285.374 115.162
L285.629 116.343
L285.756 121.632
L286.522 121.632
L286.777 99.9153
L286.905 120.48
L287.16 121.647
L287.543 125.089
L287.671 125.089
L288.054 130.718
L288.309 130.718
L288.692 123.051
L288.819 122.489
L289.202 129.699
L289.457 125.134
L289.585 129.684
L289.968 128.387
L290.223 124.495
L290.351 124.495
L290.606 128.694
L290.733 128.502
L290.861 130.925
L291.116 121.824
L291.372 123.612
L291.499 122.46
L291.754 118.973
L292.137 124.749
L292.265 123.612
L292.52 116.624
L292.52 116.624
L292.648 117.806
L292.903 121.307
L293.031 121.307
L293.286 130.925
L293.286 130.925
L293.413 128.694
L293.669 130.922
L293.669 130.922
L294.179 130.925
L294.434 127.01
L294.817 130.357
L294.817 130.357
L294.945 128.118
L295.328 130.925
L295.583 129.817
L295.71 128.709
L295.966 130.659
L296.476 127.025
L296.731 129.551
L296.859 128.133
L297.114 129.551
L297.242 129.551
L297.497 128.428
L297.88 128.428
L298.39 130.656
L299.028 130.656
L299.156 129.548
L299.411 128.413
L299.539 128.425
L299.794 127.305
L299.922 123.893
L300.177 123.656
L300.177 123.656
L300.305 122.504
L300.687 128.192
L300.943 129.551
L301.07 129.548
L301.326 127.305
L301.453 125.03
L301.708 128.428
L301.836 127.305
L302.091 126.936
L302.219 128.059
L302.474 128.059
L302.474 128.059
L302.857 126.936
L302.985 121.499
L303.112 124.661
L303.368 126.936
L303.623 126.933
L303.75 125.798
L304.133 124.41
L304.388 122.105
L304.771 121.219
L304.899 121.219
L305.154 126.936
L305.282 125.798
L305.537 124.661
L305.664 123.523
L305.92 124.661
L306.047 124.661
L306.303 129.255
L306.43 128.133
L306.685 129.255
L306.813 127.01
L307.068 129.255
L307.068 129.255
L307.451 129.226
L307.579 128.059
L307.834 130.363
L307.962 128.133
L308.217 125.828
L308.344 122.401
L308.6 128.088
L308.6 128.088
L308.727 128.088
L308.983 120.081
L309.11 120.081
L309.365 116.565
L309.493 118.914
L309.748 118.911
L309.876 117.747
L310.131 127.01
L310.131 127.01
L310.514 120.583
L310.642 118.249
L310.897 119.416
L311.024 119.416
L311.28 120.583
L311.407 121.736
L311.79 117.643
L312.045 118.249
L312.173 100.521
L312.428 130.068
L312.556 128.945
L312.811 130.068
L312.939 127.822
L313.194 125.562
L313.321 127.822
L313.577 126.7
L313.704 130.068
L313.96 128.517
L314.47 130.068
L314.725 127.822
L314.853 125.562
L315.108 130.068
L315.236 128.945
L315.491 130.068
L315.619 130.068
L315.874 127.822
L316.257 126.463
L316.384 128.945
L316.767 128.857
L317.15 130.94
L317.405 130.945
L317.533 130.659
L318.171 123.597
L318.298 118.958
L318.681 130.807
L318.937 129.699
L319.064 98.0686
L319.319 128.354
L319.319 128.354
L319.447 126.094
L320.085 130.804
L320.213 128.561
L320.596 126.33
L320.851 120.598
L320.851 120.598
L321.234 126.33
L321.361 124.055
L321.616 126.227
L321.999 127.453
L322.127 122.12
L322.893 129.699
L323.148 128.292
L323.275 128.576
L323.531 128.576
L323.658 126.33
L323.914 125.193
L323.914 125.193
L324.041 126.33
L324.679 126.33
L324.807 127.453
L325.062 126.33
L325.445 126.33
L325.573 129.699
L325.828 130.807
L325.956 129.699
L326.211 130.807
L326.338 129.699
L326.593 130.807
L326.721 129.625
L326.976 130.948
L327.487 130.948
L327.742 126.283
L327.87 128.676
L328.125 127.556
L328.252 125.296
L328.508 126.434
L328.891 129.772
L329.018 126.404
L329.401 129.77
L329.656 128.65
L329.784 125.267
L330.039 128.354
L330.167 128.354
L330.422 124.956
L330.55 128.354
L330.805 128.354
L330.933 127.231
L331.188 123.819
L331.315 126.005
L331.57 125.754
L331.698 123.405
L331.953 121.987
L332.081 122.253
L332.336 128.354
L332.464 127.231
L332.719 126.094
L332.847 124.942
L333.23 119.195
L333.485 125.931
L333.612 125.931
L333.868 128.883
L333.995 125.503
L334.25 128.883
L334.378 121.352
L334.633 129.793
L334.761 140.554
L335.527 140.646
L335.782 131.841
L335.909 139.579
L336.165 131.737
L336.292 133.067
L336.548 128.62
L336.675 131.959
L336.93 130.851
L337.058 118.589
L337.441 126.375
L337.696 123.376
L337.824 128.62
L338.079 133.064
L338.207 129.743
L338.589 133.064
L338.845 129.625
L338.972 131.959
L339.227 127.497
L339.355 133.064
L339.738 129.74
L339.866 130.851
L340.121 129.743
L340.504 129.743
L340.759 132.692
L341.142 132.695
L341.269 131.959
L341.525 133.064
L341.652 131.959
L341.907 131.959
L342.035 129.551
L342.418 116.55
L342.673 133.064
L343.056 133.064
L343.184 131.959
L343.439 133.064
L343.566 131.959
L343.822 128.502
L343.822 128.502
L343.949 133.064
L344.204 128.499
L344.332 128.886
L344.588 133.064
L344.715 128.576
L344.97 126.123
L345.098 126.123
L345.353 129.699
L345.353 129.699
L345.481 129.699
L345.736 124.046
L346.119 124.055
L346.246 121.75
L346.502 125.931
L346.629 125.931
L346.884 122.504
L346.884 122.504
L347.012 119.017
L347.267 123.656
L347.395 120.022
L347.65 121.352
L347.778 121.263
L348.033 118.929
L348.161 123.656
L348.416 124.791
L348.543 124.791
L348.799 121.337
L348.926 121.334
L349.181 123.656
L349.309 122.504
L349.564 123.656
L349.947 115.885
L350.075 125.6
L350.33 123.316
L350.458 123.316
L350.713 124.469
L350.84 118.692
L351.096 122.179
L351.224 122.179
L351.606 121.027
L351.861 122.179
L351.989 119.859
L352.244 121.027
L352.372 123.331
L352.627 121.027
L352.755 125.925
L353.01 124.454
L353.138 122.164
L353.393 122.953
L353.52 121.795
L353.776 123.316
L353.776 123.316
L354.158 123.656
L354.286 122.504
L354.541 125.931
L354.669 116.595
L355.052 125.928
L355.307 124.794
L355.307 124.794
L355.435 125.931
L356.073 125.931
L356.073 125.931
L356.2 119.919
L356.583 125.902
L356.838 121.307
L356.966 123.612
L357.221 120.14
L357.477 123.609
L357.732 123.612
L357.987 120.14
L358.115 114.113
L358.37 111.882
L358.37 111.882
L358.497 118.97
L358.753 123.612
L359.136 123.612
L359.263 125.928
L359.646 125.925
L359.901 121.824
L360.029 121.824
L360.412 125.925
L360.667 124.794
L361.05 124.794
L361.177 125.931
L361.433 125.931
L361.816 119.017
L361.943 119.017
L362.198 117.85
L362.326 119.017
L362.581 120.184
L362.709 122.504
L362.964 122.386
L363.092 121.204
L363.347 123.627
L363.73 120.184
L363.857 121.352
L364.113 120.184
L364.24 123.656
L364.495 123.656
L364.623 121.352
L364.878 127.447
L365.006 120.406
L365.261 120.214
L365.389 116.698
L365.644 119.047
L365.772 125.503
L366.027 125.503
L366.027 125.503
L366.155 124.365
L366.41 123.213
L366.537 128.886
L366.792 127.763
L366.92 128.886
L367.175 127.763
L367.303 123.213
L367.686 123.21
L367.941 118.899
L368.069 128.88
L368.324 128.88
L368.451 127.76
L368.707 128.88
L369.09 127.757
L369.472 125.459
L369.6 128.88
L369.855 127.409
L369.983 125.207
L370.238 126.345
L370.366 127.468
L370.621 127.704
L370.749 131.542
L371.004 131.536
L371.131 130.954
L371.387 128.724
L371.514 131.471
L371.769 124.055
L371.897 125.872
L372.152 124.735
L372.28 122.445
L372.535 127.01
L372.663 131.536
L372.918 128.487
L373.046 128.487
L373.301 122.415
L373.428 122.415
L373.811 131.823
L374.067 128.487
L374.194 131.817
L374.449 128.472
L374.577 129.595
L374.832 130.703
L374.96 129.595
L375.215 130.703
L375.598 130.703
L375.981 133.658
L376.874 133.658
L377.129 131.767
L377.257 132.875
L377.512 130.659
L377.512 130.659
L377.64 130.659
L377.767 131.767
L378.023 132.872
L378.278 129.551
L378.405 129.551
L378.661 128.428
L378.788 129.551
L379.044 130.659
L379.171 131.767
L379.426 130.659
L379.554 128.428
L379.809 130.656
L379.937 132.869
L380.192 130.659
L380.575 131.767
L380.703 132.872
L380.958 131.767
L381.086 131.767
L381.468 126.286
L381.723 132.872
L382.107 132.872
L382.234 131.767
L382.489 132.872
L382.872 132.869
L383 128.428
L383.255 123.893
L383.383 119.269
L383.638 123.878
L384.021 121.588
L384.148 127.305
L384.403 126.153
L384.786 129.551
L385.297 121.632
L385.552 128.65
L385.68 119.357
L386.062 126.404
L386.318 126.64
L386.445 132.875
L386.701 133.658
L387.211 133.658
L387.466 131.545
L387.594 128.206
L387.849 127.078
L387.977 127.081
L388.232 124.794
L388.232 124.794
L388.36 128.886
L388.615 128.886
L388.742 133.037
L388.998 131.929
L389.125 129.713
L389.38 130.821
L389.508 130.821
L390.274 123.819
L390.529 122.666
L390.657 122.666
L390.912 122.977
L391.422 129.699
L391.805 133.658
L392.188 133.658
L392.443 142.611
L392.571 141.724
L392.826 144.54
L392.954 142.448
L393.209 144.537
L393.337 143.467
L393.719 136.036
L393.975 135.49
L394.102 133.303
L394.102 133.303
L394.485 133.3
L394.74 137.115
L395.123 133.85
L395.251 131.649
L395.506 131.649
L395.634 129.196
L396.016 132.754
L396.272 122.74
L396.399 138.193
L396.655 139.272
L396.782 135.15
L397.037 142.891
L397.165 141.872
L397.42 144.543
L397.548 143.497
L397.803 140.327
L397.931 133.348
L398.186 139.257
L398.314 138.193
L398.569 141.399
L398.696 141.399
L398.952 139.272
L399.079 140.335
L399.462 137.13
L399.845 129.758
L400.1 129.743
L400.228 141.399
L400.483 122.977
L400.611 131.841
L400.993 120.303
L401.249 117.968
L401.376 102.294
L401.632 122.046
L401.759 116.21
L402.142 124.791
L402.397 121.892
L402.525 116.92
L402.78 120.746
L402.908 124.794
L403.163 120.702
L403.291 123.656
L403.546 121.352
L403.673 125.925
L403.929 119.017
L404.056 123.656
L404.311 121.352
L404.439 128.886
L404.694 128.886
L404.822 127.763
L405.077 128.886
L405.205 128.886
L405.46 131.841
L405.588 139.168
L405.843 137.011
L405.97 138.087
L406.226 138.087
L406.353 139.165
L406.609 139.168
L406.736 138.06
L406.991 138.06
L407.119 137.75
L407.885 125.571
L408.14 125.571
L408.268 119.815
L408.65 112.724
L408.906 105.396
L409.033 124.439
L409.289 128.886
L409.416 127.763
L409.671 128.886
L409.799 127.468
L410.054 118.855
L410.182 119.136
L410.565 123.774
L410.948 127.468
L411.33 126.123
L411.586 126.109
L411.713 127.243
L411.968 123.656
L412.479 123.656
L412.607 126.109
L412.989 127.255
L413.245 127.258
L413.5 125.872
L414.01 125.869
L414.393 122.445
L414.648 121.293
L415.031 124.735
L415.159 127.01
L415.414 124.72
L415.542 127.01
L415.797 128.118
L415.925 128.118
L416.18 127.01
L416.307 125.872
L416.69 125.872
L416.945 124.735
L417.073 119.995
L417.328 118.825
L417.456 122.445
L417.711 120.613
L417.839 121.765
L418.222 121.824
L418.477 123.556
L418.604 118.914
L418.86 122.401
L418.987 120.081
L419.243 122.401
L419.37 124.794
L419.625 124.791
L420.008 122.327
L420.136 126.995
L420.519 118.293
L421.157 124.838
L421.54 124.794
L421.922 117.067
L422.05 122.977
L422.433 117.688
L422.816 121.824
L423.199 119.18
L423.454 116.831
L423.581 120.672
L423.837 119.505
L423.964 119.505
L424.22 125.928
L424.602 116.329
L424.985 122.164
L425.113 128.295
L425.368 128.591
L425.496 127.763
L425.751 119.845
L425.879 110.345
L426.134 125.725
L426.261 120.835
L426.644 116.048
L426.899 114.955
L427.41 121.75
L427.665 121.987
L427.793 126.64
L428.048 128.886
L428.176 126.64
L428.431 124.365
L428.558 140.273
L428.814 137.056
L428.941 139.213
L429.197 135.694
L429.324 135.691
L429.579 133.495
L429.707 130.482
L429.962 129.374
L430.09 121.854
L430.345 123.006
L430.473 130.467
L430.983 130.423
L431.238 129.314
L431.494 130.42
L431.621 130.42
L431.877 129.3
L432.004 122.489
L432.259 121.337
L432.387 120.164
L432.642 120.17
L432.642 120.17
L432.77 121.337
L433.153 130.417
L433.918 130.414
L434.174 128.177
L434.301 128.886
L434.556 128.871
L434.684 127.734
L435.322 127.719
L435.705 117.375
L435.833 125.444
L436.088 126.581
L436.215 127.713
L436.471 127.731
L436.854 124.303
L436.981 122.002
L437.364 121.987
L437.619 120.849
L438.002 123.636
L438.13 127.763
L438.385 129.3
L438.513 128.883
L438.895 128.871
L439.151 124.351
L439.533 125.148
L439.916 125.148
L440.044 120.022
L440.299 125.148
L440.299 125.148
L440.427 125.148
L440.682 124.011
L441.065 124.011
L441.448 120.554
L441.575 125.148
L441.831 127.409
L441.831 127.409
L441.958 124.011
L442.341 127.246
L442.724 119.209
L442.979 122.681
L443.362 122.666
L443.49 118.028
L443.745 118.025
L443.872 123.819
L444.128 122.666
L444.255 124.965
L444.51 123.597
L444.638 121.293
L445.021 117.791
L445.276 126.286
L445.404 124.011
L445.659 124.156
L446.169 124.543
L446.425 123.195
L446.552 123.195
L446.808 117.067
L447.19 124.351
L447.318 124.055
L447.573 124.203
L447.701 121.898
L447.956 121.883
L448.084 124.203
L448.339 122.755
L449.105 128.812
L449.232 126.493
L449.487 127.616
L449.487 127.616
L449.615 127.616
L449.87 127.76
L449.998 124.351
L450.126 127.763
L450.636 127.763
L450.764 128.88
L451.146 128.874
L451.529 127.231
L451.785 126.094
L452.295 126.094
L452.678 122.622
L452.933 105.249
L453.061 105.249
L453.316 104.008
L453.444 100.816
L453.699 102.767
L453.826 102.767
L454.082 123.636
L454.465 120.096
L454.592 121.337
L454.847 117.836
L454.847 117.836
L454.975 122.489
L455.23 121.337
L455.358 120.17
L455.613 126.626
L455.741 125.488
L455.996 122.046
L456.123 125.488
L456.379 124.351
L456.506 124.351
L456.762 119.18
L456.889 120.347
L457.272 119.446
L457.527 114.718
L457.91 117.392
L458.038 117.392
L458.293 122.533
L458.421 120.214
L458.676 113.123
L458.803 116.698
L459.059 128.591
L459.186 128.591
L459.569 128.877
L459.824 128.877
L459.952 114.896
L460.207 121.381
L460.335 117.88
L460.59 121.381
L460.718 125.488
L460.973 122.977
L461.101 122.977
L461.356 117.156
L461.484 117.156
L461.739 118.19
L461.866 122.829
L462.121 122.829
L462.249 122.268
L462.504 120.096
L462.632 126.62
L462.887 128.874
L463.015 128.871
L463.27 125.414
L463.398 127.675
L463.653 125.414
L464.036 120.155
L464.163 118.988
L464.419 117.821
L464.546 115.885
L464.801 115.885
L465.184 109.769
L465.312 112.31
L465.695 124.794
L465.95 125.928
L466.078 123.612
L466.46 121
L466.716 118.973
L466.843 121.304
L467.098 121.304
L467.098 121.304
L467.481 117.806
L467.864 118.973
L467.992 117.806
L468.247 120.14
L468.63 117.806
L468.757 117.806
L469.013 118.973
L469.14 117.806
L469.396 114.246
L469.523 117.806
L469.778 117.806
L469.906 116.624
L470.161 118.973
L470.289 121.304
L470.544 115.294
L470.672 118.973
L470.927 120.14
L471.055 118.382
L471.31 117.806
L471.437 117.806
L471.693 120.14
L471.82 120.14
L472.075 117.806
L472.203 113.049
L472.458 120.14
L473.224 120.14
L473.352 121.293
L473.734 117.776
L473.99 121.293
L474.118 115.132
L474.5 125.931
L474.755 125.4
L474.883 123.907
L475.138 126.522
L475.266 126.519
L475.521 121.824
L475.649 121.943
L475.904 124.336
L476.032 122.622
L476.287 124.327
L476.414 119.712
L476.67 118.545
L477.052 114.984
L477.18 123.184
L477.435 120.879
L477.563 120.879
L477.818 118.545
L477.946 120.879
L478.201 119.431
L478.329 117.082
L478.584 115.9
L478.711 124.336
L479.86 108.971
L480.115 121.839
L480.243 120.687
L480.626 90.0319
L481.264 123.535
L481.391 125.633
L481.647 124.203
L481.774 125.34
L482.03 123.021
L482.157 123.021
L482.412 110.803
L482.54 123.021
L482.795 116.58
L482.923 121.869
L483.178 121.854
L483.306 123.006
L483.944 122.977
L484.071 115.974
L484.454 123.656
L484.709 125.928
L484.837 124.794
L485.092 123.656
L485.22 125.928
L485.475 123.656
L485.858 123.656
L485.986 124.794
L486.241 125.928
L486.241 125.928
L486.368 124.794
L486.624 123.656
L486.751 124.543
L487.007 123.405
L487.389 117.067
L487.772 125.928
L488.283 125.928
L488.538 123.656
L488.666 102.294
L488.921 98.0834
L489.304 98.0686
L489.431 102.294
L489.686 123.656
L489.814 122.489
L490.069 121.337
L490.197 120.17
L490.452 122.489
L490.58 125.887
L490.835 125.928
L490.963 122.504
L491.218 122.386
L491.345 118.884
L491.601 123.656
L491.728 121.352
L492.111 124.454
L492.366 125.931
L492.494 124.794
L492.749 121.352
L492.877 123.656
L493.132 113.093
L493.26 57.9735
L493.643 119.014
L493.898 121.352
L494.026 124.794
L494.281 124.794
L494.663 128.874
L495.557 128.874
L495.812 128.664
L495.812 128.664
L495.94 127.409
L496.195 122.858
L496.322 125.148
L496.578 114.689
L496.705 114.689
L496.961 112.295
L497.088 115.871
L497.343 114.689
L497.471 117.058
L497.726 114.408
L497.854 114.408
L498.109 113.211
L498.237 120.022
L498.492 125.045
L498.62 101.334
L498.875 125.917
L499.002 125.928
L499.258 102.294
L499.258 102.294
L499.385 122.991
L499.64 122.932
L500.023 117.097
L500.151 121.765
L500.406 116.196
L500.534 122.977
L500.789 126.416
L500.917 126.419
L501.172 124.126
L501.299 125.281
L501.555 92.765
L501.682 117.171
L501.938 125.281
L502.065 119.52
L502.32 114.113
L502.448 139.937
L502.703 153.573
L502.831 130.363
L503.086 125.872
L503.214 120.111
L503.469 121.278
L503.597 129.255
L503.852 127.01
L503.979 124.735
L504.235 147.9
L504.362 143.335
L504.617 142.433
L505.383 136.022
L505.511 141.381
L505.894 137.115
L506.149 130.88
L506.277 136.031
L506.659 136.031
L506.915 131.841
L507.042 126.286
L507.297 130.733
L507.425 124.454
L507.68 128.502
L507.808 128.502
L508.191 114.704
L508.446 120.184
L508.574 119.845
L508.829 118.678
L509.212 125.104
L509.339 137.112
L509.595 134.943
L509.722 130.496
L509.977 137.109
L510.36 131.486
L510.488 131.486
L510.871 137.109
L511.126 136.036
L511.509 131.146
L511.636 134.943
L511.892 134.943
L512.019 137.112
L512.274 137.112
L512.402 134.943
L512.657 137.112
L513.168 137.112
L513.423 141.37
L513.806 139.641
L513.933 139.641
L514.189 136.672
L514.317 136.672
L514.572 133.407
L514.699 133.407
L514.954 130.053
L515.082 131.161
L515.337 126.286
L515.465 128.96
L515.72 131.191
L515.848 133.407
L516.103 130.097
L516.231 132.314
L516.486 130.097
L516.613 133.407
L516.869 134.5
L516.996 131.205
L517.251 131.205
L517.379 132.314
L517.634 131.176
L517.762 130.068
L518.017 134.53
L518.145 112.916
L518.4 136.834
L518.4 136.834" style="fill:none;stroke:#ff0000;stroke-linecap:square;"/>
   </g>
   <g id="line2d_2">
    <path clip-path="url(#pcb2bf987bf)" d="
M72 341.899
L72.1276 341.981
L74.2971 341.987
L74.4247 342.173
L75.0628 342.173
L75.1904 342.043
L75.8285 342.043
L75.9561 341.908
L76.5942 341.908
L76.7218 342.088
L79.6569 342.085
L79.7846 341.878
L80.4226 341.878
L80.5503 342.014
L88.0796 342.032
L88.2072 341.881
L89.611 341.857
L89.7386 342.023
L90.3767 342.023
L91.0148 341.84
L91.9081 341.896
L93.3118 341.845
L94.2051 341.975
L94.9708 341.893
L96.3746 341.984
L97.906 341.807
L98.0336 341.807
L99.4374 342.052
L100.331 341.798
L102.5 341.863
L103.393 342.04
L104.797 342.014
L105.563 341.925
L106.329 341.987
L107.095 341.913
L108.626 341.993
L109.519 341.713
L110.285 341.724
L111.05 341.559
L111.816 341.786
L116.41 341.943
L117.048 341.488
L117.942 341.535
L118.707 341.757
L120.111 341.931
L121.004 342.179
L122.408 342.268
L122.536 342.268
L123.174 341.84
L127.64 341.494
L127.64 341.494
L128.661 341.532
L129.299 341.237
L130.193 341.541
L130.831 341.432
L134.659 341.402
L135.425 341.671
L136.318 341.432
L136.956 341.39
L137.722 341.172
L139.381 341.042
L140.019 341.249
L140.785 341.379
L142.316 341.325
L143.082 341.485
L147.038 341.565
L147.676 341.639
L148.442 341.922
L150.867 341.837
L151.505 341.662
L154.567 341.615
L155.333 341.571
L155.333 341.571
L156.099 341.745
L156.865 341.568
L157.758 341.568
L158.396 341.724
L159.162 341.562
L159.927 341.689
L160.821 342.032
L163.118 341.987
L163.883 342.138
L167.584 341.987
L171.413 342.029
L173.072 342.105
L173.71 342.439
L176.007 342.17
L182.26 341.955
L185.961 342.159
L186.727 342.032
L188.258 342.191
L189.151 342.197
L190.555 342.33
L191.321 342.15
L191.321 342.15
L195.277 341.893
L198.978 342.303
L201.275 342.094
L202.04 341.967
L206.762 342.129
L207.4 342.043
L207.911 342.351
L209.825 342.404
L210.846 342.117
L211.356 342.117
L211.484 342.445
L216.589 342.374
L216.589 342.374
L217.099 342.295
L217.482 342.295
L217.482 342.295
L217.61 342.498
L221.31 342.534
L221.438 342.374
L222.842 342.454
L222.842 342.454
L223.608 342.513
L223.735 342.354
L228.967 342.33
L229.095 342.197
L233.562 342.25
L233.689 342.457
L236.624 342.374
L236.752 342.295
L237.39 342.295
L237.518 342.41
L247.344 342.36
L247.855 342.227
L249.641 342.271
L249.641 342.271
L250.152 342.235
L253.47 342.15
L253.98 342.114
L254.235 342.114
L254.363 342.298
L258.83 342.389
L258.957 342.611
L261.127 342.593
L261.254 342.472
L261.892 342.472
L262.02 342.593
L263.424 342.507
L263.424 342.507
L263.934 342.478
L265.593 342.38
L266.486 342.336
L266.614 342.431
L267.252 342.431
L267.38 342.3
L270.315 342.404
L270.698 342.451
L274.909 342.38
L274.909 342.38
L275.292 342.33
L280.269 342.274
L280.269 342.274
L280.397 342.442
L281.035 342.442
L281.035 342.442
L281.162 342.327
L283.332 342.218
L284.097 342.209
L284.225 342.351
L284.736 342.351
L285.374 342.138
L287.926 342.168
L288.054 342.433
L288.692 342.433
L288.819 342.265
L295.583 342.354
L295.966 342.404
L297.88 342.431
L298.008 342.516
L299.411 342.448
L299.539 342.271
L300.943 342.244
L301.07 342.392
L302.474 342.33
L302.474 342.33
L303.112 342.203
L305.537 342.17
L305.92 342.221
L307.068 342.221
L307.068 342.221
L307.196 342.357
L310.131 342.371
L310.131 342.371
L310.259 342.513
L310.897 342.513
L311.024 342.292
L314.725 342.386
L315.108 342.428
L327.742 342.407
L327.87 342.17
L330.805 342.224
L330.933 342.321
L333.868 342.315
L333.995 342.475
L336.165 342.46
L336.292 342.28
L338.462 342.38
L338.845 342.428
L345.353 342.348
L345.353 342.348
L345.481 342.256
L346.884 342.256
L346.884 342.256
L347.012 341.919
L347.65 341.919
L347.778 342.076
L354.541 342.1
L354.669 342.224
L356.838 342.162
L356.966 342.052
L361.433 342.085
L361.56 342.2
L362.198 342.2
L362.326 342.055
L364.495 342.058
L364.623 342.244
L365.261 342.244
L365.389 342.389
L385.935 342.38
L386.062 342.549
L388.232 342.478
L388.232 342.478
L388.36 345.187
L388.998 345.187
L389.125 342.389
L389.763 342.389
L389.891 342.271
L390.529 342.271
L390.657 342.126
L391.295 342.126
L391.422 342.342
L392.06 342.342
L392.188 342.484
L393.592 342.451
L393.719 342.238
L394.102 342.238
L394.102 342.238
L394.74 342.055
L395.123 342.055
L395.251 342.215
L396.655 342.159
L396.782 342.327
L397.42 342.327
L397.548 342.445
L398.186 342.445
L398.314 342.3
L401.249 342.363
L401.376 342.082
L405.077 342.165
L405.46 342.224
L407.374 342.2
L407.502 342.105
L408.14 342.105
L408.268 341.949
L409.671 341.848
L409.799 342.108
L419.625 342.179
L420.008 342.233
L424.985 342.315
L425.368 342.365
L427.282 342.413
L427.41 342.563
L429.579 342.655
L429.707 342.428
L430.345 342.428
L430.473 342.117
L435.705 342.014
L435.833 341.94
L436.471 341.94
L436.598 342.085
L437.236 342.085
L437.364 341.913
L438.002 341.913
L438.13 342.108
L438.768 342.108
L438.895 342.233
L439.533 342.233
L439.661 342.064
L445.659 341.975
L446.169 342.179
L447.19 342.191
L447.318 342.309
L447.956 342.309
L448.084 342.088
L449.487 342.182
L449.487 342.182
L450.126 342.206
L455.613 342.094
L455.741 342.241
L457.144 342.2
L457.272 342.067
L459.442 342.029
L459.569 342.321
L461.739 342.271
L461.866 342.097
L465.567 342.07
L465.567 342.07
L465.695 342.227
L474.755 342.33
L474.883 342.463
L477.052 342.466
L477.18 342.289
L477.818 342.289
L477.946 342.572
L480.881 342.599
L481.009 342.259
L481.647 342.259
L481.774 342.454
L482.412 342.454
L482.54 342.33
L483.178 342.33
L483.306 342.176
L484.709 342.227
L484.837 342.51
L487.007 342.439
L487.134 342.268
L487.772 342.268
L487.9 342.433
L493.132 342.516
L493.26 342.159
L493.898 342.159
L494.026 342.475
L494.663 342.475
L494.791 342.614
L495.429 342.614
L495.684 342.401
L499.258 342.431
L499.258 342.431
L499.385 342.513
L500.023 342.513
L500.151 342.194
L500.789 342.194
L500.917 342.422
L504.617 342.371
L504.873 342.283
L505.383 342.283
L505.511 342.07
L506.149 342.07
L506.277 342.194
L509.977 342.295
L511.126 342.463
L511.509 342.463
L511.636 342.333
L513.806 342.407
L513.933 342.478
L514.572 342.478
L514.699 342.357
L516.869 342.38
L516.996 342.475
L518.4 342.454
L518.4 342.454" style="fill:none;stroke:#008000;stroke-linecap:square;"/>
   </g>
   <g id="patch_3">
    <path d="
M72 43.2
L518.4 43.2" style="fill:none;stroke:#000000;stroke-linecap:square;stroke-linejoin:miter;"/>
   </g>
   <g id="patch_4">
    <path d="
M518.4 345.6
L518.4 43.2" style="fill:none;stroke:#000000;stroke-linecap:square;stroke-linejoin:miter;"/>
   </g>
   <g id="patch_5">
    <path d="
M72 345.6
L518.4 345.6" style="fill:none;stroke:#000000;stroke-linecap:square;stroke-linejoin:miter;"/>
   </g>
   <g id="patch_6">
    <path d="
M72 345.6
L72 43.2" style="fill:none;stroke:#000000;stroke-linecap:square;stroke-linejoin:miter;"/>
   </g>
   <g id="matplotlib.axis_1">
    <g id="xtick_1">
     <g id="line2d_3">
      <defs>
       <path d="
M0 0
L0 -4" id="m93b0483c22" style="stroke:#000000;stroke-width:0.5;"/>
      </defs>
      <g>
       <use style="stroke:#000000;stroke-width:0.5;" x="117.941468267" xlink:href="#m93b0483c22" y="345.6"/>
      </g>
     </g>
     <g id="line2d_4">
      <defs>
       <path d="
M0 0
L0 4" id="m741efc42ff" style="stroke:#000000;stroke-width:0.5;"/>
      </defs>
      <g>
       <use style="stroke:#000000;stroke-width:0.5;" x="117.941468267" xlink:href="#m741efc42ff" y="43.2"/>
      </g>
     </g>
     <g id="text_1">
      <!-- Oct 13 2015 -->
      <defs>
       <path d="
M19.1875 8.29688
L53.6094 8.29688
L53.6094 0
L7.32812 0
L7.32812 8.29688
Q12.9375 14.1094 22.625 23.8906
Q32.3281 33.6875 34.8125 36.5312
Q39.5469 41.8438 41.4219 45.5312
Q43.3125 49.2188 43.3125 52.7812
Q43.3125 58.5938 39.2344 62.25
Q35.1562 65.9219 28.6094 65.9219
Q23.9688 65.9219 18.8125 64.3125
Q13.6719 62.7031 7.8125 59.4219
L7.8125 69.3906
Q13.7656 71.7812 18.9375 73
Q24.125 74.2188 28.4219 74.2188
Q39.75 74.2188 46.4844 68.5469
Q53.2188 62.8906 53.2188 53.4219
Q53.2188 48.9219 51.5312 44.8906
Q49.8594 40.875 45.4062 35.4062
Q44.1875 33.9844 37.6406 27.2188
Q31.1094 20.4531 19.1875 8.29688" id="BitstreamVeraSans-Roman-32"/>
       <path d="
M39.4062 66.2188
Q28.6562 66.2188 22.3281 58.2031
Q16.0156 50.2031 16.0156 36.375
Q16.0156 22.6094 22.3281 14.5938
Q28.6562 6.59375 39.4062 6.59375
Q50.1406 6.59375 56.4219 14.5938
Q62.7031 22.6094 62.7031 36.375
Q62.7031 50.2031 56.4219 58.2031
Q50.1406 66.2188 39.4062 66.2188
M39.4062 74.2188
Q54.7344 74.2188 63.9062 63.9375
Q73.0938 53.6562 73.0938 36.375
Q73.0938 19.1406 63.9062 8.85938
Q54.7344 -1.42188 39.4062 -1.42188
Q24.0312 -1.42188 14.8125 8.82812
Q5.60938 19.0938 5.60938 36.375
Q5.60938 53.6562 14.8125 63.9375
Q24.0312 74.2188 39.4062 74.2188" id="BitstreamVeraSans-Roman-4f"/>
       <path d="
M31.7812 66.4062
Q24.1719 66.4062 20.3281 58.9062
Q16.5 51.4219 16.5 36.375
Q16.5 21.3906 20.3281 13.8906
Q24.1719 6.39062 31.7812 6.39062
Q39.4531 6.39062 43.2812 13.8906
Q47.125 21.3906 47.125 36.375
Q47.125 51.4219 43.2812 58.9062
Q39.4531 66.4062 31.7812 66.4062
M31.7812 74.2188
Q44.0469 74.2188 50.5156 64.5156
Q56.9844 54.8281 56.9844 36.375
Q56.9844 17.9688 50.5156 8.26562
Q44.0469 -1.42188 31.7812 -1.42188
Q19.5312 -1.42188 13.0625 8.26562
Q6.59375 17.9688 6.59375 36.375
Q6.59375 54.8281 13.0625 64.5156
Q19.5312 74.2188 31.7812 74.2188" id="BitstreamVeraSans-Roman-30"/>
       <path d="
M12.4062 8.29688
L28.5156 8.29688
L28.5156 63.9219
L10.9844 60.4062
L10.9844 69.3906
L28.4219 72.9062
L38.2812 72.9062
L38.2812 8.29688
L54.3906 8.29688
L54.3906 0
L12.4062 0
z
" id="BitstreamVeraSans-Roman-31"/>
       <path d="
M40.5781 39.3125
Q47.6562 37.7969 51.625 33
Q55.6094 28.2188 55.6094 21.1875
Q55.6094 10.4062 48.1875 4.48438
Q40.7656 -1.42188 27.0938 -1.42188
Q22.5156 -1.42188 17.6562 -0.515625
Q12.7969 0.390625 7.625 2.20312
L7.625 11.7188
Q11.7188 9.32812 16.5938 8.10938
Q21.4844 6.89062 26.8125 6.89062
Q36.0781 6.89062 40.9375 10.5469
Q45.7969 14.2031 45.7969 21.1875
Q45.7969 27.6406 41.2812 31.2656
Q36.7656 34.9062 28.7188 34.9062
L20.2188 34.9062
L20.2188 43.0156
L29.1094 43.0156
Q36.375 43.0156 40.2344 45.9219
Q44.0938 48.8281 44.0938 54.2969
Q44.0938 59.9062 40.1094 62.9062
Q36.1406 65.9219 28.7188 65.9219
Q24.6562 65.9219 20.0156 65.0312
Q15.375 64.1562 9.8125 62.3125
L9.8125 71.0938
Q15.4375 72.6562 20.3438 73.4375
Q25.25 74.2188 29.5938 74.2188
Q40.8281 74.2188 47.3594 69.1094
Q53.9062 64.0156 53.9062 55.3281
Q53.9062 49.2656 50.4375 45.0938
Q46.9688 40.9219 40.5781 39.3125" id="BitstreamVeraSans-Roman-33"/>
       <path id="BitstreamVeraSans-Roman-20"/>
       <path d="
M10.7969 72.9062
L49.5156 72.9062
L49.5156 64.5938
L19.8281 64.5938
L19.8281 46.7344
Q21.9688 47.4688 24.1094 47.8281
Q26.2656 48.1875 28.4219 48.1875
Q40.625 48.1875 47.75 41.5
Q54.8906 34.8125 54.8906 23.3906
Q54.8906 11.625 47.5625 5.09375
Q40.2344 -1.42188 26.9062 -1.42188
Q22.3125 -1.42188 17.5469 -0.640625
Q12.7969 0.140625 7.71875 1.70312
L7.71875 11.625
Q12.1094 9.23438 16.7969 8.0625
Q21.4844 6.89062 26.7031 6.89062
Q35.1562 6.89062 40.0781 11.3281
Q45.0156 15.7656 45.0156 23.3906
Q45.0156 31 40.0781 35.4375
Q35.1562 39.8906 26.7031 39.8906
Q22.75 39.8906 18.8125 39.0156
Q14.8906 38.1406 10.7969 36.2812
z
" id="BitstreamVeraSans-Roman-35"/>
       <path d="
M18.3125 70.2188
L18.3125 54.6875
L36.8125 54.6875
L36.8125 47.7031
L18.3125 47.7031
L18.3125 18.0156
Q18.3125 11.3281 20.1406 9.42188
Q21.9688 7.51562 27.5938 7.51562
L36.8125 7.51562
L36.8125 0
L27.5938 0
Q17.1875 0 13.2344 3.875
Q9.28125 7.76562 9.28125 18.0156
L9.28125 47.7031
L2.6875 47.7031
L2.6875 54.6875
L9.28125 54.6875
L9.28125 70.2188
z
" id="BitstreamVeraSans-Roman-74"/>
       <path d="
M48.7812 52.5938
L48.7812 44.1875
Q44.9688 46.2969 41.1406 47.3438
Q37.3125 48.3906 33.4062 48.3906
Q24.6562 48.3906 19.8125 42.8438
Q14.9844 37.3125 14.9844 27.2969
Q14.9844 17.2812 19.8125 11.7344
Q24.6562 6.20312 33.4062 6.20312
Q37.3125 6.20312 41.1406 7.25
Q44.9688 8.29688 48.7812 10.4062
L48.7812 2.09375
Q45.0156 0.34375 40.9844 -0.53125
Q36.9688 -1.42188 32.4219 -1.42188
Q20.0625 -1.42188 12.7812 6.34375
Q5.51562 14.1094 5.51562 27.2969
Q5.51562 40.6719 12.8594 48.3281
Q20.2188 56 33.0156 56
Q37.1562 56 41.1094 55.1406
Q45.0625 54.2969 48.7812 52.5938" id="BitstreamVeraSans-Roman-63"/>
      </defs>
      <g transform="translate(53.3541815316 394.065590385)rotate(-30.0)scale(0.12 -0.12)">
       <use xlink:href="#BitstreamVeraSans-Roman-4f"/>
       <use x="78.7109375" xlink:href="#BitstreamVeraSans-Roman-63"/>
       <use x="133.69140625" xlink:href="#BitstreamVeraSans-Roman-74"/>
       <use x="172.900390625" xlink:href="#BitstreamVeraSans-Roman-20"/>
       <use x="204.6875" xlink:href="#BitstreamVeraSans-Roman-31"/>
       <use x="268.310546875" xlink:href="#BitstreamVeraSans-Roman-33"/>
       <use x="331.93359375" xlink:href="#BitstreamVeraSans-Roman-20"/>
       <use x="363.720703125" xlink:href="#BitstreamVeraSans-Roman-32"/>
       <use x="427.34375" xlink:href="#BitstreamVeraSans-Roman-30"/>
       <use x="490.966796875" xlink:href="#BitstreamVeraSans-Roman-31"/>
       <use x="554.58984375" xlink:href="#BitstreamVeraSans-Roman-35"/>
      </g>
     </g>
    </g>
    <g id="xtick_2">
     <g id="line2d_5">
      <g>
       <use style="stroke:#000000;stroke-width:0.5;" x="173.071485419" xlink:href="#m93b0483c22" y="345.6"/>
      </g>
     </g>
     <g id="line2d_6">
      <g>
       <use style="stroke:#000000;stroke-width:0.5;" x="173.071485419" xlink:href="#m741efc42ff" y="43.2"/>
      </g>
     </g>
     <g id="text_2">
      <!-- Oct 16 2015 -->
      <defs>
       <path d="
M33.0156 40.375
Q26.375 40.375 22.4844 35.8281
Q18.6094 31.2969 18.6094 23.3906
Q18.6094 15.5312 22.4844 10.9531
Q26.375 6.39062 33.0156 6.39062
Q39.6562 6.39062 43.5312 10.9531
Q47.4062 15.5312 47.4062 23.3906
Q47.4062 31.2969 43.5312 35.8281
Q39.6562 40.375 33.0156 40.375
M52.5938 71.2969
L52.5938 62.3125
Q48.875 64.0625 45.0938 64.9844
Q41.3125 65.9219 37.5938 65.9219
Q27.8281 65.9219 22.6719 59.3281
Q17.5312 52.7344 16.7969 39.4062
Q19.6719 43.6562 24.0156 45.9219
Q28.375 48.1875 33.5938 48.1875
Q44.5781 48.1875 50.9531 41.5156
Q57.3281 34.8594 57.3281 23.3906
Q57.3281 12.1562 50.6875 5.35938
Q44.0469 -1.42188 33.0156 -1.42188
Q20.3594 -1.42188 13.6719 8.26562
Q6.98438 17.9688 6.98438 36.375
Q6.98438 53.6562 15.1875 63.9375
Q23.3906 74.2188 37.2031 74.2188
Q40.9219 74.2188 44.7031 73.4844
Q48.4844 72.75 52.5938 71.2969" id="BitstreamVeraSans-Roman-36"/>
      </defs>
      <g transform="translate(108.484198684 394.065590385)rotate(-30.0)scale(0.12 -0.12)">
       <use xlink:href="#BitstreamVeraSans-Roman-4f"/>
       <use x="78.7109375" xlink:href="#BitstreamVeraSans-Roman-63"/>
       <use x="133.69140625" xlink:href="#BitstreamVeraSans-Roman-74"/>
       <use x="172.900390625" xlink:href="#BitstreamVeraSans-Roman-20"/>
       <use x="204.6875" xlink:href="#BitstreamVeraSans-Roman-31"/>
       <use x="268.310546875" xlink:href="#BitstreamVeraSans-Roman-36"/>
       <use x="331.93359375" xlink:href="#BitstreamVeraSans-Roman-20"/>
       <use x="363.720703125" xlink:href="#BitstreamVeraSans-Roman-32"/>
       <use x="427.34375" xlink:href="#BitstreamVeraSans-Roman-30"/>
       <use x="490.966796875" xlink:href="#BitstreamVeraSans-Roman-31"/>
       <use x="554.58984375" xlink:href="#BitstreamVeraSans-Roman-35"/>
      </g>
     </g>
    </g>
    <g id="xtick_3">
     <g id="line2d_7">
      <g>
       <use style="stroke:#000000;stroke-width:0.5;" x="228.201502573" xlink:href="#m93b0483c22" y="345.6"/>
      </g>
     </g>
     <g id="line2d_8">
      <g>
       <use style="stroke:#000000;stroke-width:0.5;" x="228.201502573" xlink:href="#m741efc42ff" y="43.2"/>
      </g>
     </g>
     <g id="text_3">
      <!-- Oct 19 2015 -->
      <defs>
       <path d="
M10.9844 1.51562
L10.9844 10.5
Q14.7031 8.73438 18.5 7.8125
Q22.3125 6.89062 25.9844 6.89062
Q35.75 6.89062 40.8906 13.4531
Q46.0469 20.0156 46.7812 33.4062
Q43.9531 29.2031 39.5938 26.9531
Q35.25 24.7031 29.9844 24.7031
Q19.0469 24.7031 12.6719 31.3125
Q6.29688 37.9375 6.29688 49.4219
Q6.29688 60.6406 12.9375 67.4219
Q19.5781 74.2188 30.6094 74.2188
Q43.2656 74.2188 49.9219 64.5156
Q56.5938 54.8281 56.5938 36.375
Q56.5938 19.1406 48.4062 8.85938
Q40.2344 -1.42188 26.4219 -1.42188
Q22.7031 -1.42188 18.8906 -0.6875
Q15.0938 0.046875 10.9844 1.51562
M30.6094 32.4219
Q37.25 32.4219 41.125 36.9531
Q45.0156 41.5 45.0156 49.4219
Q45.0156 57.2812 41.125 61.8438
Q37.25 66.4062 30.6094 66.4062
Q23.9688 66.4062 20.0938 61.8438
Q16.2188 57.2812 16.2188 49.4219
Q16.2188 41.5 20.0938 36.9531
Q23.9688 32.4219 30.6094 32.4219" id="BitstreamVeraSans-Roman-39"/>
      </defs>
      <g transform="translate(163.614215838 394.065590385)rotate(-30.0)scale(0.12 -0.12)">
       <use xlink:href="#BitstreamVeraSans-Roman-4f"/>
       <use x="78.7109375" xlink:href="#BitstreamVeraSans-Roman-63"/>
       <use x="133.69140625" xlink:href="#BitstreamVeraSans-Roman-74"/>
       <use x="172.900390625" xlink:href="#BitstreamVeraSans-Roman-20"/>
       <use x="204.6875" xlink:href="#BitstreamVeraSans-Roman-31"/>
       <use x="268.310546875" xlink:href="#BitstreamVeraSans-Roman-39"/>
       <use x="331.93359375" xlink:href="#BitstreamVeraSans-Roman-20"/>
       <use x="363.720703125" xlink:href="#BitstreamVeraSans-Roman-32"/>
       <use x="427.34375" xlink:href="#BitstreamVeraSans-Roman-30"/>
       <use x="490.966796875" xlink:href="#BitstreamVeraSans-Roman-31"/>
       <use x="554.58984375" xlink:href="#BitstreamVeraSans-Roman-35"/>
      </g>
     </g>
    </g>
    <g id="xtick_4">
     <g id="line2d_9">
      <g>
       <use style="stroke:#000000;stroke-width:0.5;" x="283.331519725" xlink:href="#m93b0483c22" y="345.6"/>
      </g>
     </g>
     <g id="line2d_10">
      <g>
       <use style="stroke:#000000;stroke-width:0.5;" x="283.331519725" xlink:href="#m741efc42ff" y="43.2"/>
      </g>
     </g>
     <g id="text_4">
      <!-- Oct 22 2015 -->
      <g transform="translate(218.74423299 394.065590385)rotate(-30.0)scale(0.12 -0.12)">
       <use xlink:href="#BitstreamVeraSans-Roman-4f"/>
       <use x="78.7109375" xlink:href="#BitstreamVeraSans-Roman-63"/>
       <use x="133.69140625" xlink:href="#BitstreamVeraSans-Roman-74"/>
       <use x="172.900390625" xlink:href="#BitstreamVeraSans-Roman-20"/>
       <use x="204.6875" xlink:href="#BitstreamVeraSans-Roman-32"/>
       <use x="268.310546875" xlink:href="#BitstreamVeraSans-Roman-32"/>
       <use x="331.93359375" xlink:href="#BitstreamVeraSans-Roman-20"/>
       <use x="363.720703125" xlink:href="#BitstreamVeraSans-Roman-32"/>
       <use x="427.34375" xlink:href="#BitstreamVeraSans-Roman-30"/>
       <use x="490.966796875" xlink:href="#BitstreamVeraSans-Roman-31"/>
       <use x="554.58984375" xlink:href="#BitstreamVeraSans-Roman-35"/>
      </g>
     </g>
    </g>
    <g id="xtick_5">
     <g id="line2d_11">
      <g>
       <use style="stroke:#000000;stroke-width:0.5;" x="338.461536877" xlink:href="#m93b0483c22" y="345.6"/>
      </g>
     </g>
     <g id="line2d_12">
      <g>
       <use style="stroke:#000000;stroke-width:0.5;" x="338.461536877" xlink:href="#m741efc42ff" y="43.2"/>
      </g>
     </g>
     <g id="text_5">
      <!-- Oct 25 2015 -->
      <g transform="translate(273.874250142 394.065590385)rotate(-30.0)scale(0.12 -0.12)">
       <use xlink:href="#BitstreamVeraSans-Roman-4f"/>
       <use x="78.7109375" xlink:href="#BitstreamVeraSans-Roman-63"/>
       <use x="133.69140625" xlink:href="#BitstreamVeraSans-Roman-74"/>
       <use x="172.900390625" xlink:href="#BitstreamVeraSans-Roman-20"/>
       <use x="204.6875" xlink:href="#BitstreamVeraSans-Roman-32"/>
       <use x="268.310546875" xlink:href="#BitstreamVeraSans-Roman-35"/>
       <use x="331.93359375" xlink:href="#BitstreamVeraSans-Roman-20"/>
       <use x="363.720703125" xlink:href="#BitstreamVeraSans-Roman-32"/>
       <use x="427.34375" xlink:href="#BitstreamVeraSans-Roman-30"/>
       <use x="490.966796875" xlink:href="#BitstreamVeraSans-Roman-31"/>
       <use x="554.58984375" xlink:href="#BitstreamVeraSans-Roman-35"/>
      </g>
     </g>
    </g>
    <g id="xtick_6">
     <g id="line2d_13">
      <g>
       <use style="stroke:#000000;stroke-width:0.5;" x="393.591554031" xlink:href="#m93b0483c22" y="345.6"/>
      </g>
     </g>
     <g id="line2d_14">
      <g>
       <use style="stroke:#000000;stroke-width:0.5;" x="393.591554031" xlink:href="#m741efc42ff" y="43.2"/>
      </g>
     </g>
     <g id="text_6">
      <!-- Oct 28 2015 -->
      <defs>
       <path d="
M31.7812 34.625
Q24.75 34.625 20.7188 30.8594
Q16.7031 27.0938 16.7031 20.5156
Q16.7031 13.9219 20.7188 10.1562
Q24.75 6.39062 31.7812 6.39062
Q38.8125 6.39062 42.8594 10.1719
Q46.9219 13.9688 46.9219 20.5156
Q46.9219 27.0938 42.8906 30.8594
Q38.875 34.625 31.7812 34.625
M21.9219 38.8125
Q15.5781 40.375 12.0312 44.7188
Q8.5 49.0781 8.5 55.3281
Q8.5 64.0625 14.7188 69.1406
Q20.9531 74.2188 31.7812 74.2188
Q42.6719 74.2188 48.875 69.1406
Q55.0781 64.0625 55.0781 55.3281
Q55.0781 49.0781 51.5312 44.7188
Q48 40.375 41.7031 38.8125
Q48.8281 37.1562 52.7969 32.3125
Q56.7812 27.4844 56.7812 20.5156
Q56.7812 9.90625 50.3125 4.23438
Q43.8438 -1.42188 31.7812 -1.42188
Q19.7344 -1.42188 13.25 4.23438
Q6.78125 9.90625 6.78125 20.5156
Q6.78125 27.4844 10.7812 32.3125
Q14.7969 37.1562 21.9219 38.8125
M18.3125 54.3906
Q18.3125 48.7344 21.8438 45.5625
Q25.3906 42.3906 31.7812 42.3906
Q38.1406 42.3906 41.7188 45.5625
Q45.3125 48.7344 45.3125 54.3906
Q45.3125 60.0625 41.7188 63.2344
Q38.1406 66.4062 31.7812 66.4062
Q25.3906 66.4062 21.8438 63.2344
Q18.3125 60.0625 18.3125 54.3906" id="BitstreamVeraSans-Roman-38"/>
      </defs>
      <g transform="translate(329.004267296 394.065590385)rotate(-30.0)scale(0.12 -0.12)">
       <use xlink:href="#BitstreamVeraSans-Roman-4f"/>
       <use x="78.7109375" xlink:href="#BitstreamVeraSans-Roman-63"/>
       <use x="133.69140625" xlink:href="#BitstreamVeraSans-Roman-74"/>
       <use x="172.900390625" xlink:href="#BitstreamVeraSans-Roman-20"/>
       <use x="204.6875" xlink:href="#BitstreamVeraSans-Roman-32"/>
       <use x="268.310546875" xlink:href="#BitstreamVeraSans-Roman-38"/>
       <use x="331.93359375" xlink:href="#BitstreamVeraSans-Roman-20"/>
       <use x="363.720703125" xlink:href="#BitstreamVeraSans-Roman-32"/>
       <use x="427.34375" xlink:href="#BitstreamVeraSans-Roman-30"/>
       <use x="490.966796875" xlink:href="#BitstreamVeraSans-Roman-31"/>
       <use x="554.58984375" xlink:href="#BitstreamVeraSans-Roman-35"/>
      </g>
     </g>
    </g>
    <g id="xtick_7">
     <g id="line2d_15">
      <g>
       <use style="stroke:#000000;stroke-width:0.5;" x="448.721571183" xlink:href="#m93b0483c22" y="345.6"/>
      </g>
     </g>
     <g id="line2d_16">
      <g>
       <use style="stroke:#000000;stroke-width:0.5;" x="448.721571183" xlink:href="#m741efc42ff" y="43.2"/>
      </g>
     </g>
     <g id="text_7">
      <!-- Oct 31 2015 -->
      <g transform="translate(384.134284448 394.065590385)rotate(-30.0)scale(0.12 -0.12)">
       <use xlink:href="#BitstreamVeraSans-Roman-4f"/>
       <use x="78.7109375" xlink:href="#BitstreamVeraSans-Roman-63"/>
       <use x="133.69140625" xlink:href="#BitstreamVeraSans-Roman-74"/>
       <use x="172.900390625" xlink:href="#BitstreamVeraSans-Roman-20"/>
       <use x="204.6875" xlink:href="#BitstreamVeraSans-Roman-33"/>
       <use x="268.310546875" xlink:href="#BitstreamVeraSans-Roman-31"/>
       <use x="331.93359375" xlink:href="#BitstreamVeraSans-Roman-20"/>
       <use x="363.720703125" xlink:href="#BitstreamVeraSans-Roman-32"/>
       <use x="427.34375" xlink:href="#BitstreamVeraSans-Roman-30"/>
       <use x="490.966796875" xlink:href="#BitstreamVeraSans-Roman-31"/>
       <use x="554.58984375" xlink:href="#BitstreamVeraSans-Roman-35"/>
      </g>
     </g>
    </g>
    <g id="xtick_8">
     <g id="line2d_17">
      <g>
       <use style="stroke:#000000;stroke-width:0.5;" x="503.851588335" xlink:href="#m93b0483c22" y="345.6"/>
      </g>
     </g>
     <g id="line2d_18">
      <g>
       <use style="stroke:#000000;stroke-width:0.5;" x="503.851588335" xlink:href="#m741efc42ff" y="43.2"/>
      </g>
     </g>
     <g id="text_8">
      <!-- Nov 03 2015 -->
      <defs>
       <path d="
M2.98438 54.6875
L12.5 54.6875
L29.5938 8.79688
L46.6875 54.6875
L56.2031 54.6875
L35.6875 0
L23.4844 0
z
" id="BitstreamVeraSans-Roman-76"/>
       <path d="
M9.8125 72.9062
L23.0938 72.9062
L55.4219 11.9219
L55.4219 72.9062
L64.9844 72.9062
L64.9844 0
L51.7031 0
L19.3906 60.9844
L19.3906 0
L9.8125 0
z
" id="BitstreamVeraSans-Roman-4e"/>
       <path d="
M30.6094 48.3906
Q23.3906 48.3906 19.1875 42.75
Q14.9844 37.1094 14.9844 27.2969
Q14.9844 17.4844 19.1562 11.8438
Q23.3438 6.20312 30.6094 6.20312
Q37.7969 6.20312 41.9844 11.8594
Q46.1875 17.5312 46.1875 27.2969
Q46.1875 37.0156 41.9844 42.7031
Q37.7969 48.3906 30.6094 48.3906
M30.6094 56
Q42.3281 56 49.0156 48.375
Q55.7188 40.7656 55.7188 27.2969
Q55.7188 13.875 49.0156 6.21875
Q42.3281 -1.42188 30.6094 -1.42188
Q18.8438 -1.42188 12.1719 6.21875
Q5.51562 13.875 5.51562 27.2969
Q5.51562 40.7656 12.1719 48.375
Q18.8438 56 30.6094 56" id="BitstreamVeraSans-Roman-6f"/>
      </defs>
      <g transform="translate(436.948766176 395.402465385)rotate(-30.0)scale(0.12 -0.12)">
       <use xlink:href="#BitstreamVeraSans-Roman-4e"/>
       <use x="74.8046875" xlink:href="#BitstreamVeraSans-Roman-6f"/>
       <use x="135.986328125" xlink:href="#BitstreamVeraSans-Roman-76"/>
       <use x="195.166015625" xlink:href="#BitstreamVeraSans-Roman-20"/>
       <use x="226.953125" xlink:href="#BitstreamVeraSans-Roman-30"/>
       <use x="290.576171875" xlink:href="#BitstreamVeraSans-Roman-33"/>
       <use x="354.19921875" xlink:href="#BitstreamVeraSans-Roman-20"/>
       <use x="385.986328125" xlink:href="#BitstreamVeraSans-Roman-32"/>
       <use x="449.609375" xlink:href="#BitstreamVeraSans-Roman-30"/>
       <use x="513.232421875" xlink:href="#BitstreamVeraSans-Roman-31"/>
       <use x="576.85546875" xlink:href="#BitstreamVeraSans-Roman-35"/>
      </g>
     </g>
    </g>
   </g>
   <g id="matplotlib.axis_2">
    <g id="ytick_1">
     <g id="line2d_19">
      <defs>
       <path d="
M0 0
L4 0" id="m728421d6d4" style="stroke:#000000;stroke-width:0.5;"/>
      </defs>
      <g>
       <use style="stroke:#000000;stroke-width:0.5;" x="72.0" xlink:href="#m728421d6d4" y="294.348802539"/>
      </g>
     </g>
     <g id="line2d_20">
      <defs>
       <path d="
M0 0
L-4 0" id="mcb0005524f" style="stroke:#000000;stroke-width:0.5;"/>
      </defs>
      <g>
       <use style="stroke:#000000;stroke-width:0.5;" x="518.4" xlink:href="#mcb0005524f" y="294.348802539"/>
      </g>
     </g>
     <g id="text_9">
      <!-- 20000 -->
      <g transform="translate(31.50125 297.660052539)scale(0.12 -0.12)">
       <use xlink:href="#BitstreamVeraSans-Roman-32"/>
       <use x="63.623046875" xlink:href="#BitstreamVeraSans-Roman-30"/>
       <use x="127.24609375" xlink:href="#BitstreamVeraSans-Roman-30"/>
       <use x="190.869140625" xlink:href="#BitstreamVeraSans-Roman-30"/>
       <use x="254.4921875" xlink:href="#BitstreamVeraSans-Roman-30"/>
      </g>
     </g>
    </g>
    <g id="ytick_2">
     <g id="line2d_21">
      <g>
       <use style="stroke:#000000;stroke-width:0.5;" x="72.0" xlink:href="#m728421d6d4" y="235.254966647"/>
      </g>
     </g>
     <g id="line2d_22">
      <g>
       <use style="stroke:#000000;stroke-width:0.5;" x="518.4" xlink:href="#mcb0005524f" y="235.254966647"/>
      </g>
     </g>
     <g id="text_10">
      <!-- 40000 -->
      <defs>
       <path d="
M37.7969 64.3125
L12.8906 25.3906
L37.7969 25.3906
z

M35.2031 72.9062
L47.6094 72.9062
L47.6094 25.3906
L58.0156 25.3906
L58.0156 17.1875
L47.6094 17.1875
L47.6094 0
L37.7969 0
L37.7969 17.1875
L4.89062 17.1875
L4.89062 26.7031
z
" id="BitstreamVeraSans-Roman-34"/>
      </defs>
      <g transform="translate(31.20875 238.566216647)scale(0.12 -0.12)">
       <use xlink:href="#BitstreamVeraSans-Roman-34"/>
       <use x="63.623046875" xlink:href="#BitstreamVeraSans-Roman-30"/>
       <use x="127.24609375" xlink:href="#BitstreamVeraSans-Roman-30"/>
       <use x="190.869140625" xlink:href="#BitstreamVeraSans-Roman-30"/>
       <use x="254.4921875" xlink:href="#BitstreamVeraSans-Roman-30"/>
      </g>
     </g>
    </g>
    <g id="ytick_3">
     <g id="line2d_23">
      <g>
       <use style="stroke:#000000;stroke-width:0.5;" x="72.0" xlink:href="#m728421d6d4" y="176.161130756"/>
      </g>
     </g>
     <g id="line2d_24">
      <g>
       <use style="stroke:#000000;stroke-width:0.5;" x="518.4" xlink:href="#mcb0005524f" y="176.161130756"/>
      </g>
     </g>
     <g id="text_11">
      <!-- 60000 -->
      <g transform="translate(31.46 179.472380756)scale(0.12 -0.12)">
       <use xlink:href="#BitstreamVeraSans-Roman-36"/>
       <use x="63.623046875" xlink:href="#BitstreamVeraSans-Roman-30"/>
       <use x="127.24609375" xlink:href="#BitstreamVeraSans-Roman-30"/>
       <use x="190.869140625" xlink:href="#BitstreamVeraSans-Roman-30"/>
       <use x="254.4921875" xlink:href="#BitstreamVeraSans-Roman-30"/>
      </g>
     </g>
    </g>
    <g id="ytick_4">
     <g id="line2d_25">
      <g>
       <use style="stroke:#000000;stroke-width:0.5;" x="72.0" xlink:href="#m728421d6d4" y="117.067294864"/>
      </g>
     </g>
     <g id="line2d_26">
      <g>
       <use style="stroke:#000000;stroke-width:0.5;" x="518.4" xlink:href="#mcb0005524f" y="117.067294864"/>
      </g>
     </g>
     <g id="text_12">
      <!-- 80000 -->
      <g transform="translate(31.435625 120.378544864)scale(0.12 -0.12)">
       <use xlink:href="#BitstreamVeraSans-Roman-38"/>
       <use x="63.623046875" xlink:href="#BitstreamVeraSans-Roman-30"/>
       <use x="127.24609375" xlink:href="#BitstreamVeraSans-Roman-30"/>
       <use x="190.869140625" xlink:href="#BitstreamVeraSans-Roman-30"/>
       <use x="254.4921875" xlink:href="#BitstreamVeraSans-Roman-30"/>
      </g>
     </g>
    </g>
    <g id="ytick_5">
     <g id="line2d_27">
      <g>
       <use style="stroke:#000000;stroke-width:0.5;" x="72.0" xlink:href="#m728421d6d4" y="57.9734589729"/>
      </g>
     </g>
     <g id="line2d_28">
      <g>
       <use style="stroke:#000000;stroke-width:0.5;" x="518.4" xlink:href="#mcb0005524f" y="57.9734589729"/>
      </g>
     </g>
     <g id="text_13">
      <!-- 100000 -->
      <g transform="translate(24.305 61.2847089729)scale(0.12 -0.12)">
       <use xlink:href="#BitstreamVeraSans-Roman-31"/>
       <use x="63.623046875" xlink:href="#BitstreamVeraSans-Roman-30"/>
       <use x="127.24609375" xlink:href="#BitstreamVeraSans-Roman-30"/>
       <use x="190.869140625" xlink:href="#BitstreamVeraSans-Roman-30"/>
       <use x="254.4921875" xlink:href="#BitstreamVeraSans-Roman-30"/>
       <use x="318.115234375" xlink:href="#BitstreamVeraSans-Roman-30"/>
      </g>
     </g>
    </g>
   </g>
   <g id="text_14">
    <!-- Aluminium -->
    <defs>
     <path d="
M54.8906 33.0156
L54.8906 0
L45.9062 0
L45.9062 32.7188
Q45.9062 40.4844 42.875 44.3281
Q39.8438 48.1875 33.7969 48.1875
Q26.5156 48.1875 22.3125 43.5469
Q18.1094 38.9219 18.1094 30.9062
L18.1094 0
L9.07812 0
L9.07812 54.6875
L18.1094 54.6875
L18.1094 46.1875
Q21.3438 51.125 25.7031 53.5625
Q30.0781 56 35.7969 56
Q45.2188 56 50.0469 50.1719
Q54.8906 44.3438 54.8906 33.0156" id="BitstreamVeraSans-Roman-6e"/>
     <path d="
M52 44.1875
Q55.375 50.25 60.0625 53.125
Q64.75 56 71.0938 56
Q79.6406 56 84.2812 50.0156
Q88.9219 44.0469 88.9219 33.0156
L88.9219 0
L79.8906 0
L79.8906 32.7188
Q79.8906 40.5781 77.0938 44.375
Q74.3125 48.1875 68.6094 48.1875
Q61.625 48.1875 57.5625 43.5469
Q53.5156 38.9219 53.5156 30.9062
L53.5156 0
L44.4844 0
L44.4844 32.7188
Q44.4844 40.625 41.7031 44.4062
Q38.9219 48.1875 33.1094 48.1875
Q26.2188 48.1875 22.1562 43.5312
Q18.1094 38.875 18.1094 30.9062
L18.1094 0
L9.07812 0
L9.07812 54.6875
L18.1094 54.6875
L18.1094 46.1875
Q21.1875 51.2188 25.4844 53.6094
Q29.7812 56 35.6875 56
Q41.6562 56 45.8281 52.9688
Q50 49.9531 52 44.1875" id="BitstreamVeraSans-Roman-6d"/>
     <path d="
M9.42188 75.9844
L18.4062 75.9844
L18.4062 0
L9.42188 0
z
" id="BitstreamVeraSans-Roman-6c"/>
     <path d="
M9.42188 54.6875
L18.4062 54.6875
L18.4062 0
L9.42188 0
z

M9.42188 75.9844
L18.4062 75.9844
L18.4062 64.5938
L9.42188 64.5938
z
" id="BitstreamVeraSans-Roman-69"/>
     <path d="
M34.1875 63.1875
L20.7969 26.9062
L47.6094 26.9062
z

M28.6094 72.9062
L39.7969 72.9062
L67.5781 0
L57.3281 0
L50.6875 18.7031
L17.8281 18.7031
L11.1875 0
L0.78125 0
z
" id="BitstreamVeraSans-Roman-41"/>
     <path d="
M8.5 21.5781
L8.5 54.6875
L17.4844 54.6875
L17.4844 21.9219
Q17.4844 14.1562 20.5 10.2656
Q23.5312 6.39062 29.5938 6.39062
Q36.8594 6.39062 41.0781 11.0312
Q45.3125 15.6719 45.3125 23.6875
L45.3125 54.6875
L54.2969 54.6875
L54.2969 0
L45.3125 0
L45.3125 8.40625
Q42.0469 3.42188 37.7188 1
Q33.4062 -1.42188 27.6875 -1.42188
Q18.2656 -1.42188 13.375 4.4375
Q8.5 10.2969 8.5 21.5781" id="BitstreamVeraSans-Roman-75"/>
    </defs>
    <g transform="translate(442.45125 38.2)scale(0.144 -0.144)">
     <use xlink:href="#BitstreamVeraSans-Roman-41"/>
     <use x="68.408203125" xlink:href="#BitstreamVeraSans-Roman-6c"/>
     <use x="96.19140625" xlink:href="#BitstreamVeraSans-Roman-75"/>
     <use x="159.5703125" xlink:href="#BitstreamVeraSans-Roman-6d"/>
     <use x="256.982421875" xlink:href="#BitstreamVeraSans-Roman-69"/>
     <use x="284.765625" xlink:href="#BitstreamVeraSans-Roman-6e"/>
     <use x="348.14453125" xlink:href="#BitstreamVeraSans-Roman-69"/>
     <use x="375.927734375" xlink:href="#BitstreamVeraSans-Roman-75"/>
     <use x="439.306640625" xlink:href="#BitstreamVeraSans-Roman-6d"/>
    </g>
   </g>
   <g id="legend_1">
    <g id="patch_7">
     <path d="
M123.942 423.616
L466.458 423.616
L466.458 398.16
L123.942 398.16
z
" style="fill:#ffffff;stroke:#000000;stroke-linejoin:miter;"/>
    </g>
    <g id="line2d_29">
     <path d="
M134.022 409.822
L154.182 409.822" style="fill:none;stroke:#ff0000;stroke-linecap:square;"/>
    </g>
    <g id="line2d_30"/>
    <g id="text_15">
     <!-- Schwarzmarktpreis -->
     <defs>
      <path d="
M34.2812 27.4844
Q23.3906 27.4844 19.1875 25
Q14.9844 22.5156 14.9844 16.5
Q14.9844 11.7188 18.1406 8.90625
Q21.2969 6.10938 26.7031 6.10938
Q34.1875 6.10938 38.7031 11.4062
Q43.2188 16.7031 43.2188 25.4844
L43.2188 27.4844
z

M52.2031 31.2031
L52.2031 0
L43.2188 0
L43.2188 8.29688
Q40.1406 3.32812 35.5469 0.953125
Q30.9531 -1.42188 24.3125 -1.42188
Q15.9219 -1.42188 10.9531 3.29688
Q6 8.01562 6 15.9219
Q6 25.1406 12.1719 29.8281
Q18.3594 34.5156 30.6094 34.5156
L43.2188 34.5156
L43.2188 35.4062
Q43.2188 41.6094 39.1406 45
Q35.0625 48.3906 27.6875 48.3906
Q23 48.3906 18.5469 47.2656
Q14.1094 46.1406 10.0156 43.8906
L10.0156 52.2031
Q14.9375 54.1094 19.5781 55.0469
Q24.2188 56 28.6094 56
Q40.4844 56 46.3438 49.8438
Q52.2031 43.7031 52.2031 31.2031" id="BitstreamVeraSans-Roman-61"/>
      <path d="
M5.51562 54.6875
L48.1875 54.6875
L48.1875 46.4844
L14.4062 7.17188
L48.1875 7.17188
L48.1875 0
L4.29688 0
L4.29688 8.20312
L38.0938 47.5156
L5.51562 47.5156
z
" id="BitstreamVeraSans-Roman-7a"/>
      <path d="
M53.5156 70.5156
L53.5156 60.8906
Q47.9062 63.5781 42.9219 64.8906
Q37.9375 66.2188 33.2969 66.2188
Q25.25 66.2188 20.875 63.0938
Q16.5 59.9688 16.5 54.2031
Q16.5 49.3594 19.4062 46.8906
Q22.3125 44.4375 30.4219 42.9219
L36.375 41.7031
Q47.4062 39.5938 52.6562 34.2969
Q57.9062 29 57.9062 20.125
Q57.9062 9.51562 50.7969 4.04688
Q43.7031 -1.42188 29.9844 -1.42188
Q24.8125 -1.42188 18.9688 -0.25
Q13.1406 0.921875 6.89062 3.21875
L6.89062 13.375
Q12.8906 10.0156 18.6562 8.29688
Q24.4219 6.59375 29.9844 6.59375
Q38.4219 6.59375 43.0156 9.90625
Q47.6094 13.2344 47.6094 19.3906
Q47.6094 24.75 44.3125 27.7812
Q41.0156 30.8125 33.5 32.3281
L27.4844 33.5
Q16.4531 35.6875 11.5156 40.375
Q6.59375 45.0625 6.59375 53.4219
Q6.59375 63.0938 13.4062 68.6562
Q20.2188 74.2188 32.1719 74.2188
Q37.3125 74.2188 42.625 73.2812
Q47.9531 72.3594 53.5156 70.5156" id="BitstreamVeraSans-Roman-53"/>
      <path d="
M54.8906 33.0156
L54.8906 0
L45.9062 0
L45.9062 32.7188
Q45.9062 40.4844 42.875 44.3281
Q39.8438 48.1875 33.7969 48.1875
Q26.5156 48.1875 22.3125 43.5469
Q18.1094 38.9219 18.1094 30.9062
L18.1094 0
L9.07812 0
L9.07812 75.9844
L18.1094 75.9844
L18.1094 46.1875
Q21.3438 51.125 25.7031 53.5625
Q30.0781 56 35.7969 56
Q45.2188 56 50.0469 50.1719
Q54.8906 44.3438 54.8906 33.0156" id="BitstreamVeraSans-Roman-68"/>
      <path d="
M56.2031 29.5938
L56.2031 25.2031
L14.8906 25.2031
Q15.4844 15.9219 20.4844 11.0625
Q25.4844 6.20312 34.4219 6.20312
Q39.5938 6.20312 44.4531 7.46875
Q49.3125 8.73438 54.1094 11.2812
L54.1094 2.78125
Q49.2656 0.734375 44.1875 -0.34375
Q39.1094 -1.42188 33.8906 -1.42188
Q20.7969 -1.42188 13.1562 6.1875
Q5.51562 13.8125 5.51562 26.8125
Q5.51562 40.2344 12.7656 48.1094
Q20.0156 56 32.3281 56
Q43.3594 56 49.7812 48.8906
Q56.2031 41.7969 56.2031 29.5938
M47.2188 32.2344
Q47.125 39.5938 43.0938 43.9844
Q39.0625 48.3906 32.4219 48.3906
Q24.9062 48.3906 20.3906 44.1406
Q15.875 39.8906 15.1875 32.1719
z
" id="BitstreamVeraSans-Roman-65"/>
      <path d="
M4.20312 54.6875
L13.1875 54.6875
L24.4219 12.0156
L35.5938 54.6875
L46.1875 54.6875
L57.4219 12.0156
L68.6094 54.6875
L77.5938 54.6875
L63.2812 0
L52.6875 0
L40.9219 44.8281
L29.1094 0
L18.5 0
z
" id="BitstreamVeraSans-Roman-77"/>
      <path d="
M9.07812 75.9844
L18.1094 75.9844
L18.1094 31.1094
L44.9219 54.6875
L56.3906 54.6875
L27.3906 29.1094
L57.625 0
L45.9062 0
L18.1094 26.7031
L18.1094 0
L9.07812 0
z
" id="BitstreamVeraSans-Roman-6b"/>
      <path d="
M41.1094 46.2969
Q39.5938 47.1719 37.8125 47.5781
Q36.0312 48 33.8906 48
Q26.2656 48 22.1875 43.0469
Q18.1094 38.0938 18.1094 28.8125
L18.1094 0
L9.07812 0
L9.07812 54.6875
L18.1094 54.6875
L18.1094 46.1875
Q20.9531 51.1719 25.4844 53.5781
Q30.0312 56 36.5312 56
Q37.4531 56 38.5781 55.875
Q39.7031 55.7656 41.0625 55.5156
z
" id="BitstreamVeraSans-Roman-72"/>
      <path d="
M44.2812 53.0781
L44.2812 44.5781
Q40.4844 46.5312 36.375 47.5
Q32.2812 48.4844 27.875 48.4844
Q21.1875 48.4844 17.8438 46.4375
Q14.5 44.3906 14.5 40.2812
Q14.5 37.1562 16.8906 35.375
Q19.2812 33.5938 26.5156 31.9844
L29.5938 31.2969
Q39.1562 29.25 43.1875 25.5156
Q47.2188 21.7812 47.2188 15.0938
Q47.2188 7.46875 41.1875 3.01562
Q35.1562 -1.42188 24.6094 -1.42188
Q20.2188 -1.42188 15.4531 -0.5625
Q10.6875 0.296875 5.42188 2
L5.42188 11.2812
Q10.4062 8.6875 15.2344 7.39062
Q20.0625 6.10938 24.8125 6.10938
Q31.1562 6.10938 34.5625 8.28125
Q37.9844 10.4531 37.9844 14.4062
Q37.9844 18.0625 35.5156 20.0156
Q33.0625 21.9688 24.7031 23.7812
L21.5781 24.5156
Q13.2344 26.2656 9.51562 29.9062
Q5.8125 33.5469 5.8125 39.8906
Q5.8125 47.6094 11.2812 51.7969
Q16.75 56 26.8125 56
Q31.7812 56 36.1719 55.2656
Q40.5781 54.5469 44.2812 53.0781" id="BitstreamVeraSans-Roman-73"/>
      <path d="
M18.1094 8.20312
L18.1094 -20.7969
L9.07812 -20.7969
L9.07812 54.6875
L18.1094 54.6875
L18.1094 46.3906
Q20.9531 51.2656 25.2656 53.625
Q29.5938 56 35.5938 56
Q45.5625 56 51.7812 48.0938
Q58.0156 40.1875 58.0156 27.2969
Q58.0156 14.4062 51.7812 6.48438
Q45.5625 -1.42188 35.5938 -1.42188
Q29.5938 -1.42188 25.2656 0.953125
Q20.9531 3.32812 18.1094 8.20312
M48.6875 27.2969
Q48.6875 37.2031 44.6094 42.8438
Q40.5312 48.4844 33.4062 48.4844
Q26.2656 48.4844 22.1875 42.8438
Q18.1094 37.2031 18.1094 27.2969
Q18.1094 17.3906 22.1875 11.75
Q26.2656 6.10938 33.4062 6.10938
Q40.5312 6.10938 44.6094 11.75
Q48.6875 17.3906 48.6875 27.2969" id="BitstreamVeraSans-Roman-70"/>
     </defs>
     <g transform="translate(170.022375 414.86175)scale(0.144 -0.144)">
      <use xlink:href="#BitstreamVeraSans-Roman-53"/>
      <use x="63.4765625" xlink:href="#BitstreamVeraSans-Roman-63"/>
      <use x="118.45703125" xlink:href="#BitstreamVeraSans-Roman-68"/>
      <use x="181.8359375" xlink:href="#BitstreamVeraSans-Roman-77"/>
      <use x="263.623046875" xlink:href="#BitstreamVeraSans-Roman-61"/>
      <use x="324.90234375" xlink:href="#BitstreamVeraSans-Roman-72"/>
      <use x="366.015625" xlink:href="#BitstreamVeraSans-Roman-7a"/>
      <use x="418.505859375" xlink:href="#BitstreamVeraSans-Roman-6d"/>
      <use x="515.91796875" xlink:href="#BitstreamVeraSans-Roman-61"/>
      <use x="577.197265625" xlink:href="#BitstreamVeraSans-Roman-72"/>
      <use x="618.310546875" xlink:href="#BitstreamVeraSans-Roman-6b"/>
      <use x="676.220703125" xlink:href="#BitstreamVeraSans-Roman-74"/>
      <use x="715.4296875" xlink:href="#BitstreamVeraSans-Roman-70"/>
      <use x="778.90625" xlink:href="#BitstreamVeraSans-Roman-72"/>
      <use x="817.76953125" xlink:href="#BitstreamVeraSans-Roman-65"/>
      <use x="879.29296875" xlink:href="#BitstreamVeraSans-Roman-69"/>
      <use x="907.076171875" xlink:href="#BitstreamVeraSans-Roman-73"/>
     </g>
    </g>
    <g id="line2d_31">
     <path d="
M339.609 409.822
L359.769 409.822" style="fill:none;stroke:#008000;stroke-linecap:square;"/>
    </g>
    <g id="line2d_32"/>
    <g id="text_16">
     <!-- Normalpreis -->
     <g transform="translate(375.609375 414.86175)scale(0.144 -0.144)">
      <use xlink:href="#BitstreamVeraSans-Roman-4e"/>
      <use x="74.8046875" xlink:href="#BitstreamVeraSans-Roman-6f"/>
      <use x="135.986328125" xlink:href="#BitstreamVeraSans-Roman-72"/>
      <use x="175.349609375" xlink:href="#BitstreamVeraSans-Roman-6d"/>
      <use x="272.76171875" xlink:href="#BitstreamVeraSans-Roman-61"/>
      <use x="334.041015625" xlink:href="#BitstreamVeraSans-Roman-6c"/>
      <use x="361.82421875" xlink:href="#BitstreamVeraSans-Roman-70"/>
      <use x="425.30078125" xlink:href="#BitstreamVeraSans-Roman-72"/>
      <use x="464.1640625" xlink:href="#BitstreamVeraSans-Roman-65"/>
      <use x="525.6875" xlink:href="#BitstreamVeraSans-Roman-69"/>
      <use x="553.470703125" xlink:href="#BitstreamVeraSans-Roman-73"/>
     </g>
    </g>
   </g>
  </g>
 </g>
 <defs>
  <clipPath id="pcb2bf987bf">
   <rect height="302.4" width="446.4" x="72.0" y="43.2"/>
  </clipPath>
 </defs>
</svg>
