<?xml version="1.0" encoding="utf-8" standalone="no"?>
<!DOCTYPE svg PUBLIC "-//W3C//DTD SVG 1.1//EN"
  "http://www.w3.org/Graphics/SVG/1.1/DTD/svg11.dtd">
<!-- Created with matplotlib (http://matplotlib.org/) -->
<svg height="432pt" version="1.1" viewBox="0 0 576 432" width="576pt" xmlns="http://www.w3.org/2000/svg" xmlns:xlink="http://www.w3.org/1999/xlink">
 <defs>
  <style type="text/css">
*{stroke-linecap:butt;stroke-linejoin:round;}
  </style>
 </defs>
 <g id="figure_1">
  <g id="patch_1">
   <path d="
M0 432
L576 432
L576 0
L0 0
z
" style="fill:#ffffff;"/>
  </g>
  <g id="axes_1">
   <g id="patch_2">
    <path d="
M72 345.6
L518.4 345.6
L518.4 43.2
L72 43.2
z
" style="fill:#ffffff;"/>
   </g>
   <g id="line2d_1">
    <path clip-path="url(#pcb2bf987bf)" d="
M72 252.168
L72.1276 254.826
L72.5105 249.548
L72.7657 241.873
L72.8933 248.799
L73.1485 243.932
L73.2762 249.922
L73.5314 252.842
L73.659 244.681
L73.9142 252.168
L74.0419 243.183
L74.4247 252.168
L74.6799 252.917
L74.8075 246.74
L75.0628 251.42
L75.1904 249.548
L75.4456 242.809
L75.5732 249.548
L75.9561 252.356
L76.2113 246.366
L76.3389 246.366
L76.5942 240.937
L76.7218 251.42
L76.9772 252.131
L77.3599 251.42
L77.7429 244.681
L77.8703 249.922
L78.1256 248.237
L78.1256 248.237
L78.2532 244.494
L78.5084 250.821
L78.636 250.109
L78.8915 250.109
L79.0189 249.361
L79.2741 252.168
L79.4017 243.932
L79.7846 253.628
L80.0398 251.981
L80.1674 252.73
L80.4226 251.981
L80.5503 243.932
L80.8055 254.377
L80.9331 254.714
L81.1885 254.153
L81.316 394.432
L81.5712 252.73
L81.6988 252.356
L81.9542 255.351
L82.3371 252.917
L82.4645 253.666
L82.7197 255.837
L82.8473 394.432
L83.1026 240.001
L83.2302 252.73
L83.4854 394.432
L83.613 394.432
L83.8683 255.163
L83.9959 394.432
L84.2511 255.912
L84.3787 255.912
L84.6342 394.432
L85.017 394.432
L85.1444 254.976
L85.3999 255.351
L85.5273 253.479
L85.7825 253.816
L85.9101 252.168
L86.1654 251.42
L86.293 252.168
L86.5482 252.543
L86.6758 251.045
L87.0587 254.864
L87.3139 254.227
L87.4415 254.864
L87.6967 251.981
L87.8244 255.5
L88.0796 254.789
L88.2072 253.853
L88.4624 254.602
L88.5901 253.853
L88.8453 394.432
L88.8453 394.432
L88.9729 253.853
L89.2281 253.104
L89.3557 253.104
L89.611 251.607
L89.7386 253.666
L89.9938 394.432
L89.9938 394.432
L90.2491 254.939
L90.3767 254.939
L91.0148 254.227
L91.7804 252.917
L91.9081 254.452
L92.5461 249.548
L92.6738 243.895
L93.3118 244.681
L94.0775 253.853
L94.2051 253.891
L94.8432 252.73
L94.9708 394.432
L95.6089 246.74
L95.7365 252.168
L96.3746 251.42
L97.1403 252.356
L97.906 250.671
L98.0336 250.671
L98.6717 248.425
L98.7993 248.425
L99.4374 248.05
L100.203 249.922
L100.331 251.42
L100.969 250.671
L101.734 252.543
L101.862 252.543
L102.5 255.5
L103.266 251.981
L103.393 252.73
L104.032 253.479
L104.797 394.432
L105.563 252.168
L106.329 247.676
L107.095 254.227
L107.988 247.114
L108.626 248.612
L109.391 250.858
L109.519 238.504
L110.157 253.853
L110.285 252.168
L110.923 249.735
L111.05 250.109
L111.816 254.04
L113.986 248.799
L114.879 254.34
L116.283 251.42
L116.41 251.794
L117.048 251.045
L117.942 248.799
L118.58 394.432
L119.345 394.432
L120.111 253.479
L120.877 394.432
L121.004 256.099
L121.643 256.736
L122.408 255.875
L122.536 254.04
L123.174 257.148
L123.94 394.432
L124.067 394.432
L124.705 255.163
L125.471 255.912
L126.237 246.178
L126.237 246.178
L126.365 240.937
L127.002 251.42
L127.13 249.173
L127.13 249.173
L127.64 255.163
L127.64 255.163
L127.768 253.292
L128.534 255.613
L128.661 394.432
L129.299 253.292
L130.065 247.114
L130.193 247.077
L130.831 255.837
L131.597 251.232
L132.362 394.432
L132.362 394.432
L133.894 243.183
L134.149 248.612
L134.659 256.212
L135.425 254.415
L136.191 255.163
L136.318 256.212
L136.956 394.432
L137.722 255.987
L138.488 248.986
L139.254 394.432
L140.019 394.432
L140.785 255.351
L141.551 394.432
L141.678 394.432
L142.316 254.976
L143.082 394.432
L143.848 251.607
L144.613 254.789
L145.507 247.301
L146.145 253.292
L146.272 252.168
L146.91 251.607
L147.038 250.858
L147.676 248.05
L148.442 249.173
L149.208 254.415
L149.335 252.168
L149.973 255.126
L150.739 243.932
L150.867 253.666
L151.505 254.04
L152.27 253.479
L153.036 252.356
L153.164 250.858
L153.802 251.981
L154.567 256.137
L155.333 254.415
L155.333 254.415
L156.099 251.195
L156.865 253.666
L157.63 252.917
L157.758 394.432
L158.396 256.287
L159.162 255.538
L159.927 394.432
L160.693 249.735
L160.821 250.446
L162.224 251.42
L162.99 252.543
L163.118 252.168
L163.756 245.43
L163.883 247.676
L164.521 254.789
L164.649 254.789
L165.287 253.292
L166.053 253.853
L167.712 252.168
L168.35 252.543
L169.116 252.505
L169.243 207.243
L169.881 254.227
L170.647 252.88
L170.775 253.666
L171.413 250.296
L172.178 251.794
L172.944 394.432
L173.072 253.479
L173.71 394.432
L174.475 255.163
L174.603 394.432
L176.007 255.163
L176.773 253.292
L176.9 254.415
L177.538 252.356
L178.304 394.432
L179.07 252.543
L179.835 251.045
L179.963 252.543
L180.601 250.671
L180.729 245.055
L181.367 253.292
L182.132 248.799
L182.26 251.045
L182.898 252.917
L183.664 394.432
L183.791 253.292
L184.43 248.425
L185.195 251.42
L185.961 251.794
L186.727 253.292
L187.492 251.045
L188.258 252.917
L189.024 251.232
L189.151 250.484
L190.555 254.602
L191.321 252.168
L191.321 252.168
L192.852 254.602
L193.618 254.564
L194.384 251.045
L195.149 250.296
L195.277 249.548
L195.915 255.276
L196.681 255.051
L198.212 247.863
L198.212 247.863
L198.978 254.415
L201.275 252.543
L202.04 254.415
L202.806 254.415
L203.572 253.853
L203.699 394.432
L204.338 252.168
L205.103 253.666
L205.231 250.671
L205.869 394.432
L205.997 254.415
L206.124 394.432
L206.507 248.799
L206.635 252.168
L206.635 252.168
L206.762 249.548
L207.911 254.34
L208.166 394.432
L208.804 252.505
L209.059 254.789
L209.059 254.789
L209.442 252.73
L209.57 252.73
L209.825 253.292
L210.591 394.432
L210.846 255.351
L211.356 394.432
L211.484 394.432
L211.867 237.755
L212.25 255.5
L212.505 394.432
L212.633 254.789
L212.888 254.789
L213.271 216.228
L213.398 252.917
L213.781 255.351
L214.036 394.432
L214.164 394.432
L214.419 254.04
L214.547 394.432
L214.802 251.232
L214.93 251.981
L215.185 394.432
L215.185 394.432
L215.313 394.432
L215.568 254.976
L215.695 394.432
L215.951 394.432
L215.951 394.432
L216.078 254.04
L216.333 254.976
L216.461 254.976
L216.589 394.432
L216.589 394.432
L216.844 253.292
L217.099 253.292
L217.227 255.538
L217.482 254.789
L217.482 254.789
L217.61 254.04
L217.865 248.799
L217.992 251.794
L218.248 394.432
L218.248 394.432
L218.375 394.432
L218.631 255.613
L218.758 254.976
L219.013 254.976
L219.396 252.356
L219.779 254.564
L219.907 250.109
L220.162 252.356
L220.417 249.361
L220.545 251.607
L220.672 250.296
L220.672 250.296
L220.928 240.001
L221.055 254.976
L221.31 254.976
L221.438 253.853
L221.693 253.666
L222.076 254.04
L222.204 252.168
L222.459 394.432
L222.587 255.126
L222.842 115.895
L222.842 115.895
L223.225 254.789
L223.352 255.538
L223.608 254.415
L223.735 394.432
L223.99 253.666
L224.118 253.292
L224.373 254.602
L224.501 250.671
L224.756 253.666
L224.884 394.432
L225.139 254.227
L225.267 254.602
L225.649 251.42
L225.649 251.42
L225.777 252.168
L225.777 252.168
L225.905 394.432
L225.905 394.432
L226.16 394.432
L226.16 394.432
L226.288 251.232
L226.415 394.432
L226.415 394.432
L226.67 255.725
L226.798 394.432
L227.053 254.752
L227.181 253.853
L227.436 256.099
L227.436 256.099
L227.819 253.292
L227.946 255.912
L228.202 255.538
L228.329 254.04
L228.585 256.511
L228.712 255.875
L228.967 394.432
L229.095 256.773
L229.35 394.432
L229.478 394.432
L229.733 254.602
L229.861 254.976
L230.116 394.432
L230.499 394.432
L230.499 394.432
L230.882 254.976
L231.009 255.725
L231.264 244.681
L231.264 244.681
L231.392 250.858
L231.647 252.356
L231.775 255.912
L232.03 256.287
L232.158 255.538
L232.413 394.432
L232.541 256.474
L232.796 394.432
L232.796 394.432
L232.924 255.725
L233.179 394.432
L233.306 255.351
L233.562 253.853
L233.689 253.853
L233.944 255.463
L234.072 250.109
L234.455 255.538
L234.71 255.688
L234.838 256.736
L235.093 394.432
L235.093 394.432
L235.221 255.725
L235.476 254.227
L235.603 254.976
L235.859 252.73
L235.859 252.73
L235.986 253.479
L236.242 252.917
L236.369 251.42
L236.624 255.051
L236.752 254.227
L237.007 254.976
L237.135 394.432
L237.39 394.432
L237.518 254.976
L237.773 251.794
L237.901 254.789
L238.156 394.432
L238.283 394.432
L238.539 255.5
L238.666 394.432
L239.049 394.432
L239.304 254.415
L239.432 394.432
L239.687 253.666
L239.815 255.126
L240.07 255.163
L240.198 252.168
L240.58 248.387
L240.836 252.917
L240.963 252.168
L241.219 394.432
L241.601 394.432
L241.729 253.666
L241.984 252.917
L242.112 252.168
L242.367 254.415
L242.75 254.415
L242.878 253.666
L243.133 249.922
L243.26 394.432
L243.516 253.666
L243.643 255.126
L243.898 252.73
L244.026 253.479
L244.281 394.432
L244.409 254.602
L244.664 244.681
L244.792 254.415
L245.047 253.029
L245.047 253.029
L245.175 394.432
L245.43 252.168
L245.557 253.666
L245.813 254.452
L245.94 252.168
L246.196 394.432
L246.578 394.432
L246.578 394.432
L246.706 254.452
L246.961 253.666
L247.089 254.415
L247.344 254.415
L247.727 394.432
L247.855 394.432
L248.237 253.853
L248.493 254.639
L248.62 394.432
L248.876 253.853
L248.876 253.853
L249.003 253.853
L249.258 394.432
L249.641 254.04
L249.641 254.04
L249.769 254.04
L250.024 254.227
L250.152 394.432
L250.79 394.432
L250.917 254.227
L251.173 394.432
L251.555 394.432
L251.683 255.051
L251.938 253.666
L252.066 394.432
L252.321 394.432
L252.449 253.292
L252.704 394.432
L253.087 394.432
L253.214 254.04
L253.47 243.183
L253.597 394.432
L254.235 394.432
L254.363 244.681
L254.618 253.292
L254.746 394.432
L254.746 394.432
L255.001 253.292
L255.129 394.432
L255.129 394.432
L255.384 253.292
L255.511 253.292
L255.511 253.292
L255.767 248.05
L255.767 248.05
L255.894 394.432
L256.277 252.356
L256.532 252.356
L256.66 394.432
L256.66 394.432
L257.043 394.432
L257.298 254.227
L257.426 252.917
L257.681 253.479
L257.809 394.432
L258.064 207.243
L258.064 207.243
L258.447 253.479
L258.574 394.432
L258.702 394.432
L258.83 253.479
L258.957 394.432
L259.212 244.868
L259.212 244.868
L259.34 253.104
L259.595 394.432
L259.595 394.432
L260.106 394.432
L260.361 249.361
L260.489 254.265
L260.744 394.432
L260.871 254.265
L261.127 394.432
L261.254 253.479
L261.509 251.981
L261.637 394.432
L261.892 253.666
L262.02 244.681
L262.275 252.917
L262.403 252.168
L262.658 252.917
L262.786 253.666
L263.041 249.173
L263.168 253.666
L263.424 253.292
L263.424 253.292
L263.551 245.991
L263.807 251.794
L263.934 249.548
L264.189 394.432
L264.189 394.432
L264.317 252.543
L264.572 253.292
L264.7 394.432
L264.955 252.543
L264.955 252.543
L265.083 252.543
L265.338 249.361
L265.466 250.296
L265.593 247.489
L265.848 253.479
L266.104 394.432
L266.614 394.432
L266.869 253.479
L266.997 394.432
L267.252 394.432
L267.38 253.479
L267.635 394.432
L268.018 394.432
L268.145 251.981
L268.401 394.432
L268.528 394.432
L268.784 253.479
L269.166 253.479
L269.294 253.104
L269.549 253.853
L269.677 394.432
L269.932 251.981
L270.06 394.432
L270.315 253.479
L270.443 394.432
L270.698 394.432
L270.825 253.104
L271.081 250.296
L271.463 394.432
L271.846 253.104
L271.974 394.432
L272.229 394.432
L272.357 252.168
L272.612 252.168
L272.74 252.917
L272.995 394.432
L273.122 394.432
L273.378 251.794
L273.378 251.794
L273.506 251.794
L273.761 253.292
L273.888 394.432
L274.271 394.432
L274.526 249.548
L274.654 394.432
L274.909 253.104
L274.909 253.104
L275.037 252.73
L275.292 394.432
L275.675 394.432
L275.802 251.981
L276.058 243.745
L276.185 394.432
L276.441 248.986
L276.568 252.505
L276.823 394.432
L276.951 252.543
L277.206 252.168
L277.334 253.217
L277.589 252.543
L277.717 394.432
L277.972 252.543
L277.972 252.543
L278.099 394.432
L278.355 253.104
L278.482 252.356
L278.738 253.104
L278.865 252.168
L279.12 251.42
L279.248 252.131
L279.503 252.842
L279.631 394.432
L279.886 252.168
L280.014 244.681
L280.397 251.607
L280.652 394.432
L281.417 394.432
L281.545 251.42
L281.801 252.131
L282.183 251.607
L282.311 244.494
L282.566 394.432
L282.694 253.067
L283.077 247.114
L283.332 252.356
L283.459 252.168
L283.715 394.432
L283.842 252.168
L284.097 252.917
L284.225 251.42
L284.48 394.432
L284.608 394.432
L284.736 251.981
L285.246 394.432
L285.374 251.42
L285.629 394.432
L286.395 394.432
L286.522 251.607
L286.777 394.432
L286.905 394.432
L287.16 252.356
L287.288 394.432
L287.543 252.917
L287.671 252.917
L287.926 394.432
L288.309 394.432
L288.437 252.543
L288.819 252.543
L289.074 394.432
L289.202 394.432
L289.457 253.029
L289.585 394.432
L289.84 253.029
L289.968 253.142
L290.223 243.183
L290.351 243.932
L290.606 252.356
L290.733 394.432
L291.116 394.432
L291.372 250.109
L291.499 251.195
L291.754 394.432
L292.137 250.858
L292.265 252.992
L292.52 394.432
L292.52 394.432
L292.648 252.992
L292.903 252.543
L293.031 394.432
L293.286 253.217
L293.286 253.217
L293.413 394.432
L293.669 253.104
L293.669 253.104
L293.796 394.432
L294.179 394.432
L294.434 252.917
L294.562 252.917
L294.817 252.168
L294.817 252.168
L294.945 394.432
L295.2 252.917
L295.328 252.917
L295.583 394.432
L295.71 252.917
L295.966 252.917
L296.349 394.432
L296.476 394.432
L296.731 253.104
L297.114 252.168
L297.242 394.432
L297.497 252.917
L297.625 394.432
L297.88 252.917
L298.008 251.794
L298.263 252.356
L298.39 249.361
L298.773 253.554
L299.028 394.432
L299.156 394.432
L299.411 248.425
L299.539 394.432
L299.922 394.432
L300.177 252.618
L300.177 252.618
L300.305 394.432
L301.453 394.432
L301.708 247.489
L301.836 252.356
L302.091 252.356
L302.219 250.858
L302.474 253.067
L302.474 253.067
L302.857 394.432
L302.985 252.805
L303.112 394.432
L303.75 394.432
L304.005 251.794
L304.005 251.794
L304.133 252.543
L304.388 252.543
L304.771 251.981
L304.899 394.432
L305.154 251.232
L305.282 252.767
L305.537 252.767
L305.664 251.232
L305.92 394.432
L306.43 394.432
L306.685 248.986
L306.813 394.432
L307.068 248.986
L307.068 248.986
L307.196 394.432
L307.962 394.432
L308.217 251.607
L308.344 247.114
L308.727 251.607
L309.11 251.232
L309.365 251.869
L309.493 394.432
L309.748 251.906
L309.876 394.432
L310.131 394.432
L310.131 394.432
L310.259 250.484
L310.514 251.42
L310.642 394.432
L310.897 247.863
L311.024 394.432
L311.28 248.799
L311.407 394.432
L311.662 394.432
L311.79 250.933
L312.045 249.361
L312.173 250.296
L312.428 250.933
L312.556 245.991
L312.811 394.432
L312.939 394.432
L313.194 252.094
L313.321 394.432
L313.577 250.484
L313.704 394.432
L313.96 251.232
L314.087 251.42
L314.342 249.922
L314.47 251.42
L314.725 394.432
L314.853 246.553
L315.108 251.232
L315.236 251.232
L315.491 394.432
L315.619 252.019
L315.874 394.432
L316.257 251.42
L316.384 394.432
L316.767 246.366
L317.022 251.607
L317.15 249.922
L317.405 394.432
L317.788 394.432
L317.916 251.232
L318.171 394.432
L318.298 251.981
L318.554 252.206
L318.554 252.206
L318.681 249.173
L318.937 394.432
L319.702 394.432
L319.83 252.356
L320.213 252.393
L320.596 247.863
L320.851 250.858
L320.851 250.858
L321.234 252.168
L321.361 394.432
L321.616 394.432
L321.999 251.794
L322.127 394.432
L322.765 394.432
L322.893 251.607
L323.148 251.607
L323.275 251.42
L323.531 394.432
L324.041 394.432
L324.296 251.42
L324.424 251.981
L324.679 394.432
L325.062 394.432
L325.19 251.42
L325.445 394.432
L325.573 248.425
L325.828 394.432
L325.956 394.432
L326.211 250.671
L326.338 247.676
L326.593 394.432
L326.721 394.432
L326.976 250.671
L327.104 394.432
L327.359 394.432
L327.487 250.296
L327.742 251.719
L327.87 394.432
L329.018 394.432
L329.273 251.719
L329.401 394.432
L329.656 394.432
L329.784 247.114
L330.039 247.676
L330.167 245.43
L330.422 394.432
L330.55 249.548
L330.933 249.735
L331.188 394.432
L331.315 248.986
L331.57 250.484
L331.698 249.735
L331.953 250.484
L332.336 250.484
L332.464 249.361
L332.719 394.432
L332.847 394.432
L333.102 251.27
L333.23 394.432
L333.485 249.548
L333.612 394.432
L334.25 394.432
L334.378 250.746
L334.761 249.361
L335.016 247.863
L335.144 249.361
L335.399 249.361
L335.527 246.366
L335.782 245.43
L335.909 240.862
L336.292 250.895
L336.548 247.301
L336.675 248.05
L336.93 250.371
L337.058 244.681
L337.313 250.446
L337.441 250.296
L337.696 249.735
L337.824 394.432
L338.079 249.735
L338.207 394.432
L338.589 394.432
L338.845 241.686
L338.972 250.671
L339.227 251.42
L339.355 251.42
L339.61 394.432
L339.738 394.432
L339.866 251.345
L340.121 394.432
L340.504 394.432
L340.759 250.671
L340.886 394.432
L341.269 394.432
L341.525 250.671
L341.652 394.432
L342.035 394.432
L342.29 249.548
L342.418 250.296
L342.673 394.432
L342.801 248.612
L343.056 394.432
L343.184 248.986
L343.439 246.74
L343.566 248.986
L343.822 394.432
L343.822 394.432
L343.949 394.432
L344.204 250.484
L344.332 394.432
L344.588 251.158
L344.715 394.432
L344.97 394.432
L345.098 250.296
L345.353 250.296
L345.353 250.296
L345.481 251.083
L345.736 247.676
L346.119 249.922
L346.246 240.375
L346.502 394.432
L347.012 394.432
L347.267 249.735
L347.395 394.432
L347.65 249.735
L347.778 250.559
L348.033 394.432
L348.161 245.055
L348.416 394.432
L348.543 250.633
L348.799 249.922
L348.926 250.633
L349.181 239.814
L349.309 246.328
L349.692 246.141
L349.947 394.432
L350.075 250.296
L350.33 394.432
L350.84 394.432
L351.096 250.858
L351.224 394.432
L351.606 249.735
L351.861 249.735
L351.989 394.432
L352.244 394.432
L352.372 251.008
L352.627 394.432
L353.393 394.432
L353.52 248.799
L353.776 251.008
L353.776 251.008
L354.158 251.008
L354.286 248.425
L354.541 249.173
L354.669 250.633
L354.924 394.432
L355.052 250.821
L355.307 250.821
L355.307 250.821
L355.435 248.799
L355.69 394.432
L355.817 249.922
L356.073 249.173
L356.073 249.173
L356.2 394.432
L356.583 250.109
L356.838 249.922
L356.966 250.746
L357.221 394.432
L357.477 249.361
L357.987 245.43
L358.115 394.432
L358.37 394.432
L358.37 394.432
L358.497 249.173
L358.753 246.927
L358.88 247.676
L359.136 249.847
L359.263 249.847
L359.646 249.735
L359.901 249.735
L360.029 247.863
L360.284 394.432
L360.412 249.51
L360.667 250.97
L360.795 250.933
L361.05 250.708
L361.177 249.922
L361.433 249.173
L361.56 394.432
L361.816 250.109
L361.943 244.681
L362.326 249.173
L362.581 394.432
L363.092 394.432
L363.347 251.42
L363.474 249.173
L363.73 394.432
L363.857 249.885
L364.113 394.432
L364.24 394.432
L364.495 250.109
L364.623 251.532
L364.878 249.922
L365.006 394.432
L365.261 250.858
L365.389 251.495
L365.644 394.432
L365.772 394.432
L366.027 250.858
L366.027 250.858
L366.155 247.676
L366.41 248.425
L366.537 245.579
L366.792 394.432
L366.92 394.432
L367.175 248.612
L367.303 251.569
L367.558 225.962
L367.686 394.432
L367.941 394.432
L368.069 251.532
L368.324 250.109
L368.451 394.432
L368.707 394.432
L369.09 249.361
L369.472 250.484
L369.6 251.232
L369.855 251.232
L369.983 250.484
L370.238 394.432
L370.366 250.296
L370.621 250.895
L370.749 250.895
L371.004 247.863
L371.131 250.109
L371.387 394.432
L371.514 250.671
L371.769 244.306
L371.897 247.676
L372.28 251.045
L372.535 394.432
L372.663 250.671
L372.918 394.432
L373.046 251.045
L373.301 249.548
L373.428 251.045
L373.684 394.432
L373.684 394.432
L373.811 394.432
L374.067 248.612
L374.194 246.927
L374.449 251.607
L374.577 250.072
L374.832 250.858
L374.96 247.863
L375.343 250.109
L375.598 249.922
L375.726 394.432
L376.874 394.432
L377.129 251.981
L377.257 251.794
L377.512 394.432
L377.512 394.432
L377.64 251.794
L377.767 394.432
L378.023 252.505
L378.278 394.432
L378.788 394.432
L379.044 252.468
L379.171 251.607
L379.426 250.858
L379.554 394.432
L380.192 394.432
L380.575 252.243
L380.703 394.432
L380.958 394.432
L381.086 250.484
L381.341 394.432
L381.468 251.232
L381.851 251.232
L382.107 394.432
L382.234 251.232
L382.489 251.232
L382.617 394.432
L382.872 252.019
L383 394.432
L383.255 394.432
L383.383 251.045
L383.638 251.045
L384.021 251.644
L384.148 394.432
L384.403 250.858
L384.531 394.432
L384.786 251.495
L385.169 250.858
L385.297 394.432
L385.935 394.432
L386.062 248.612
L386.318 394.432
L386.445 251.569
L386.701 394.432
L386.828 250.484
L387.083 251.158
L387.211 251.158
L387.466 250.858
L387.594 251.158
L387.849 251.158
L387.977 250.109
L388.232 394.432
L388.232 394.432
L388.36 336.216
L388.615 312.069
L388.742 311.694
L388.998 304.207
L389.125 247.676
L389.38 246.178
L389.508 295.184
L389.763 247.676
L389.891 247.676
L390.146 292.976
L390.274 294.099
L390.529 294.099
L390.657 244.119
L390.912 244.681
L391.039 247.114
L391.295 247.114
L391.422 294.099
L391.678 248.425
L391.805 247.938
L392.06 304.207
L392.188 248.425
L392.443 247.676
L392.571 304.207
L392.826 304.207
L392.954 305.704
L393.209 305.704
L393.337 245.242
L393.592 249.323
L393.719 249.286
L393.975 244.681
L394.102 248.425
L394.102 248.425
L394.485 338.275
L394.74 246.553
L394.868 249.585
L395.123 209.864
L395.634 338.275
L395.889 249.548
L396.016 250.184
L396.272 338.275
L396.399 249.361
L396.655 247.863
L396.782 338.275
L397.165 94.9297
L397.42 340.334
L397.548 250.334
L397.803 248.163
L397.931 248.163
L398.186 249.548
L398.314 248.013
L398.696 250.184
L398.952 340.334
L399.335 340.334
L399.462 248.799
L399.717 251.158
L399.845 249.922
L400.1 250.484
L400.228 340.334
L400.483 242.959
L400.611 249.548
L400.866 251.083
L400.993 250.296
L401.249 340.484
L401.376 250.296
L401.632 207.243
L401.759 249.548
L402.014 251.794
L402.142 251.045
L402.397 340.484
L402.525 340.484
L402.78 250.296
L402.908 251.719
L403.163 247.301
L403.291 249.173
L403.546 250.484
L403.673 340.484
L403.929 340.484
L404.056 248.387
L404.311 340.484
L404.439 249.548
L404.694 251.42
L404.822 340.484
L405.077 394.432
L405.205 394.432
L405.46 251.607
L405.843 250.858
L405.97 394.432
L406.226 394.432
L406.353 251.794
L406.609 251.045
L406.736 394.432
L406.991 251.607
L407.119 252.73
L407.374 394.432
L407.502 252.73
L407.757 251.607
L407.885 251.607
L408.268 252.88
L408.65 252.131
L408.906 394.432
L409.033 252.168
L409.289 394.432
L409.416 252.543
L409.671 252.543
L409.799 244.681
L410.054 394.432
L410.182 394.432
L410.437 252.356
L410.565 253.067
L410.82 251.045
L410.948 251.045
L411.203 252.543
L411.33 251.757
L411.586 394.432
L411.713 251.045
L411.968 394.432
L412.351 394.432
L412.479 250.858
L412.607 394.432
L413.245 394.432
L413.5 251.981
L413.627 394.432
L414.01 394.432
L414.266 252.543
L414.393 252.168
L414.648 394.432
L414.776 394.432
L415.031 252.356
L415.159 394.432
L415.414 252.88
L415.542 394.432
L415.797 252.168
L415.925 394.432
L416.307 394.432
L416.563 252.767
L416.69 251.794
L416.945 394.432
L417.073 249.922
L417.328 248.425
L417.456 252.094
L417.711 252.505
L417.839 252.468
L418.094 394.432
L418.477 394.432
L418.604 252.618
L418.86 252.618
L418.987 394.432
L419.243 251.794
L419.37 251.981
L419.625 252.618
L419.753 251.981
L420.008 251.944
L420.136 252.655
L420.391 251.981
L420.519 394.432
L421.284 394.432
L421.54 244.681
L421.667 251.981
L421.922 394.432
L422.05 394.432
L422.305 252.505
L422.433 251.794
L422.688 252.505
L422.816 251.607
L423.071 250.858
L423.199 251.607
L423.454 394.432
L423.581 251.607
L423.837 251.981
L423.964 251.607
L424.22 394.432
L424.347 248.986
L424.602 251.045
L424.73 248.05
L424.985 394.432
L425.368 394.432
L425.496 252.468
L425.751 394.432
L425.879 252.243
L426.261 252.243
L426.517 252.243
L426.899 250.109
L427.282 394.432
L427.41 252.88
L427.665 394.432
L427.793 394.432
L428.048 252.131
L428.176 244.681
L428.431 252.168
L428.558 252.281
L428.814 250.671
L428.941 252.88
L429.197 394.432
L429.324 394.432
L429.579 247.489
L429.707 394.432
L429.962 251.644
L430.09 250.858
L430.345 394.432
L430.473 394.432
L430.728 251.232
L430.856 394.432
L430.983 251.008
L431.238 394.432
L431.494 394.432
L431.621 250.858
L431.877 251.607
L432.004 394.432
L432.259 394.432
L432.387 250.671
L432.642 251.42
L432.642 251.42
L432.77 251.195
L433.025 394.432
L433.153 251.232
L433.408 394.432
L434.174 394.432
L434.301 252.056
L434.556 394.432
L434.684 251.794
L434.939 394.432
L435.067 394.432
L435.322 248.425
L435.45 251.831
L435.705 394.432
L435.833 251.607
L436.088 250.296
L436.215 250.296
L436.471 242.996
L436.598 249.548
L436.854 394.432
L437.619 394.432
L437.747 252.356
L438.002 251.045
L438.13 252.356
L438.385 394.432
L438.513 251.045
L438.768 251.045
L438.895 251.981
L439.151 251.981
L439.533 394.432
L439.661 251.981
L439.916 252.505
L440.044 248.237
L440.299 252.468
L440.299 252.468
L440.427 252.468
L441.065 251.42
L441.192 394.432
L441.448 251.794
L441.575 394.432
L441.831 252.056
L441.831 252.056
L441.958 251.382
L442.341 251.232
L442.596 394.432
L442.979 394.432
L443.107 252.618
L443.362 251.981
L443.49 252.618
L443.745 248.387
L443.872 394.432
L444.128 250.296
L444.255 394.432
L444.51 252.58
L444.638 394.432
L444.893 247.301
L445.021 247.301
L445.276 394.432
L445.404 394.432
L445.659 250.296
L446.042 251.607
L446.169 394.432
L446.425 394.432
L446.552 250.109
L446.808 252.281
L446.935 251.981
L447.19 394.432
L447.318 252.767
L447.573 251.794
L447.701 394.432
L447.956 251.794
L448.084 394.432
L448.339 252.206
L448.467 394.432
L449.105 394.432
L449.232 251.42
L449.487 394.432
L449.487 394.432
L449.998 394.432
L450.126 251.607
L450.381 394.432
L450.636 251.42
L450.764 394.432
L451.019 252.056
L451.146 252.019
L451.402 247.676
L451.529 394.432
L451.785 251.607
L451.912 394.432
L452.167 394.432
L452.295 250.296
L452.55 251.045
L452.678 394.432
L452.933 394.432
L453.061 251.232
L453.316 394.432
L453.444 251.045
L453.699 251.045
L453.826 251.42
L454.082 250.296
L454.209 251.045
L454.465 394.432
L454.975 394.432
L455.23 250.858
L455.358 394.432
L455.741 394.432
L455.996 251.569
L456.123 394.432
L456.379 394.432
L456.506 250.858
L456.762 250.671
L456.889 251.42
L457.144 242.809
L457.272 250.109
L457.527 394.432
L457.655 250.858
L457.91 394.432
L458.293 394.432
L458.421 250.671
L458.676 250.671
L458.803 394.432
L459.059 394.432
L459.186 250.671
L459.442 394.432
L459.569 251.42
L459.824 394.432
L459.952 244.681
L460.207 251.158
L460.335 251.158
L460.59 394.432
L460.718 248.612
L460.973 394.432
L461.101 250.895
L461.356 250.895
L461.866 247.264
L462.249 250.783
L462.504 250.783
L462.632 394.432
L463.27 394.432
L463.398 250.296
L463.653 246.89
L463.781 249.922
L464.036 248.425
L464.163 251.307
L464.419 394.432
L464.546 394.432
L464.801 250.109
L464.929 250.484
L465.184 244.681
L465.312 394.432
L465.567 394.432
L465.567 394.432
L465.695 245.242
L465.95 248.425
L466.078 394.432
L466.46 394.432
L466.716 250.296
L466.843 243.183
L467.098 394.432
L467.098 394.432
L467.226 250.296
L467.481 394.432
L467.864 250.109
L467.992 247.826
L468.247 250.109
L468.63 250.109
L468.757 250.746
L469.013 394.432
L470.289 394.432
L470.544 250.109
L470.672 249.361
L470.927 250.746
L471.055 394.432
L471.693 394.432
L471.82 250.633
L472.075 250.521
L472.203 394.432
L472.458 249.173
L472.586 250.671
L472.841 249.548
L472.969 248.05
L473.224 394.432
L473.352 394.432
L473.607 249.548
L473.99 250.633
L474.118 394.432
L474.373 250.109
L474.5 249.361
L474.755 250.109
L474.883 250.109
L475.266 251.457
L475.521 256.212
L475.649 249.548
L476.032 251.794
L476.287 251.794
L476.414 394.432
L476.67 251.831
L476.797 251.045
L477.052 251.045
L477.18 394.432
L477.435 251.831
L477.563 394.432
L477.818 251.045
L477.946 250.858
L478.201 247.114
L478.329 251.569
L478.584 250.072
L478.711 250.296
L478.967 394.432
L479.094 207.243
L479.35 250.858
L479.477 250.858
L479.732 249.361
L479.86 251.644
L480.115 251.232
L480.243 252.73
L480.498 252.73
L480.626 251.42
L480.881 251.981
L481.009 250.484
L481.264 252.73
L481.391 247.301
L481.774 250.109
L482.03 251.607
L482.157 253.217
L482.412 250.296
L482.795 252.543
L482.923 394.432
L483.178 252.543
L483.306 252.168
L483.561 252.356
L483.689 251.607
L483.944 249.361
L484.071 252.955
L484.327 250.109
L484.454 394.432
L484.709 249.548
L484.837 394.432
L485.986 394.432
L486.241 250.296
L486.241 250.296
L486.368 248.799
L486.624 394.432
L487.007 394.432
L487.134 250.671
L487.389 394.432
L488.666 394.432
L488.921 251.232
L489.048 394.432
L490.58 394.432
L490.835 249.922
L490.963 251.757
L491.218 394.432
L491.345 251.757
L491.601 251.045
L491.728 249.548
L491.984 251.42
L492.111 394.432
L492.366 248.799
L492.494 394.432
L492.749 394.432
L492.877 251.27
L493.132 394.432
L493.26 251.27
L493.515 248.986
L493.643 246.74
L493.898 249.173
L494.026 394.432
L494.281 251.42
L494.408 247.676
L494.663 394.432
L494.791 250.671
L495.046 249.922
L495.174 250.671
L495.429 394.432
L495.557 394.432
L495.684 247.676
L495.812 250.671
L495.812 250.671
L495.94 250.671
L496.195 248.799
L496.322 244.681
L496.578 394.432
L496.705 394.432
L496.961 251.158
L497.088 251.158
L497.343 250.858
L497.471 394.432
L497.726 246.74
L497.854 246.478
L498.109 394.432
L498.237 394.432
L498.492 250.858
L498.62 251.045
L498.875 394.432
L499.002 248.05
L499.258 250.296
L499.258 250.296
L499.385 394.432
L499.64 394.432
L499.768 59.9253
L500.023 394.432
L500.151 250.109
L500.789 250.072
L500.917 245.43
L501.172 394.432
L501.555 394.432
L501.682 250.671
L501.938 394.432
L502.065 249.922
L502.32 250.671
L502.703 250.671
L502.831 251.345
L503.086 394.432
L503.214 249.173
L503.469 249.173
L503.597 251.42
L503.852 247.676
L503.979 249.548
L504.235 250.296
L504.362 394.432
L504.873 394.432
L505.128 250.484
L505.383 394.432
L506.149 394.432
L506.277 250.484
L506.532 394.432
L506.659 250.484
L506.915 251.158
L507.042 250.296
L507.297 394.432
L508.191 394.432
L508.446 250.296
L508.574 394.432
L508.829 249.361
L509.212 394.432
L509.722 394.432
L509.977 249.548
L510.36 246.178
L510.488 249.361
L510.743 249.361
L510.871 248.799
L511.509 248.799
L511.636 394.432
L511.892 248.05
L512.019 394.432
L512.274 248.05
L512.402 248.05
L512.657 394.432
L512.785 248.799
L513.04 248.799
L513.168 394.432
L513.423 248.612
L513.551 247.114
L513.933 249.623
L514.189 394.432
L514.317 250.034
L514.699 248.237
L514.954 248.237
L515.465 250.072
L515.72 248.05
L515.848 250.259
L516.103 248.05
L516.231 249.885
L516.486 394.432
L516.996 394.432
L517.251 249.173
L517.379 249.361
L517.634 394.432
L517.762 248.612
L518.017 249.361
L518.145 394.432
L518.4 394.432
L518.4 394.432" style="fill:none;stroke:#ff0000;stroke-linecap:square;"/>
   </g>
   <g id="line2d_2">
    <path clip-path="url(#pcb2bf987bf)" d="
M72 261.041
L72.1276 261.453
L72.7657 261.453
L72.8933 261.228
L73.5314 261.228
L73.659 261.341
L74.2971 261.341
L74.4247 261.079
L75.0628 261.079
L75.1904 260.517
L75.8285 260.517
L75.9561 260.891
L76.5942 260.891
L76.7218 259.356
L77.3599 259.356
L77.8703 259.693
L78.1256 259.693
L78.1256 259.693
L78.2532 259.132
L78.8915 259.132
L79.0189 260.367
L79.6569 260.367
L79.7846 260.105
L80.4226 260.105
L80.5503 260.817
L81.1885 260.817
L81.316 262.576
L81.9542 262.576
L82.0816 262.426
L85.017 262.351
L85.1444 261.94
L85.7825 261.94
L85.9101 261.603
L86.5482 261.603
L86.6758 261.49
L87.3139 261.49
L87.4415 262.089
L88.0796 262.089
L88.2072 261.228
L89.611 261.266
L89.7386 261.565
L90.3767 261.565
L91.0148 261.977
L91.9081 261.116
L92.6738 261.416
L93.3118 260.554
L94.2051 260.592
L94.9708 260.854
L95.6089 262.089
L95.7365 262.089
L96.3746 260.779
L97.1403 260.48
L98.6717 259.394
L98.7993 259.394
L99.4374 259.693
L100.331 259.656
L100.969 259.768
L101.862 260.33
L102.5 260.143
L103.266 262.015
L103.393 262.015
L104.032 261.715
L104.797 262.726
L105.563 263.1
L106.329 261.865
L107.095 261.49
L107.988 262.277
L108.626 262.277
L109.519 261.266
L110.923 262.089
L111.05 262.089
L111.816 262.239
L113.986 261.079
L114.879 261.528
L117.048 261.865
L117.814 263.325
L117.942 263.325
L118.707 262.614
L119.345 263.624
L120.111 263.362
L121.004 262.726
L121.643 263.287
L122.536 263.175
L123.174 263.662
L124.067 263.213
L124.705 263.138
L125.471 262.501
L126.237 263.1
L126.237 263.1
L126.365 263.1
L127.13 262.464
L127.13 262.464
L127.768 262.015
L128.661 262.202
L129.299 263.437
L130.193 263.362
L130.831 262.426
L131.597 261.79
L132.362 262.801
L132.362 262.801
L133.894 261.865
L134.149 262.763
L134.659 262.763
L135.425 262.202
L136.956 262.614
L137.722 262.576
L138.488 262.314
L140.785 262.614
L141.678 262.015
L142.316 262.277
L143.082 261.827
L143.975 261.865
L144.613 261.416
L145.507 261.79
L146.272 260.929
L147.038 261.453
L147.676 261.266
L148.442 262.464
L149.335 261.902
L150.867 261.827
L151.505 262.089
L152.27 262.576
L153.164 262.576
L153.802 261.64
L154.567 262.726
L156.099 262.314
L156.865 261.827
L157.758 261.827
L158.396 262.838
L159.162 262.726
L159.927 261.902
L160.821 261.603
L162.224 261.453
L163.118 260.704
L163.883 261.416
L164.649 260.629
L165.287 261.228
L166.053 261.153
L166.819 260.554
L167.712 261.416
L168.35 260.629
L169.243 260.779
L169.881 261.528
L170.775 261.079
L171.413 261.303
L172.178 262.052
L173.072 262.239
L173.71 261.902
L174.603 262.464
L176.9 261.827
L177.538 261.94
L178.304 261.902
L179.07 261.416
L179.963 261.603
L180.729 261.004
L181.367 260.891
L182.26 260.929
L182.898 260.629
L183.791 260.704
L184.43 261.041
L185.195 260.367
L185.961 260.742
L186.727 260.592
L187.492 261.191
L188.258 260.966
L189.151 261.266
L190.555 261.266
L191.321 261.678
L192.852 261.902
L194.384 261.94
L195.277 260.929
L196.681 261.678
L198.212 261.266
L198.212 261.266
L198.978 261.715
L200.509 261.827
L201.275 261.528
L202.04 261.079
L202.806 261.678
L203.699 261.902
L205.997 261.678
L206.124 261.416
L206.762 261.416
L207.4 261.004
L207.911 261.453
L208.166 261.453
L208.804 262.089
L209.059 262.089
L209.059 262.089
L209.57 262.239
L209.825 262.239
L210.591 261.341
L210.846 262.651
L211.356 262.651
L211.484 262.464
L212.122 262.464
L212.25 262.089
L212.888 262.089
L213.654 261.977
L213.654 261.977
L213.781 262.127
L214.419 262.127
L214.547 262.277
L216.589 262.277
L216.589 262.277
L216.844 262.015
L218.248 262.052
L218.248 262.052
L218.375 262.202
L219.013 262.202
L219.141 261.902
L219.779 261.902
L219.907 261.603
L220.545 261.603
L220.672 260.592
L220.672 260.592
L221.31 260.592
L221.438 261.752
L222.076 261.752
L222.204 262.389
L222.842 262.389
L222.842 262.389
L223.352 262.726
L225.139 262.726
L225.267 261.94
L225.905 261.94
L225.905 261.94
L226.032 262.988
L226.032 262.988
L226.67 262.988
L226.798 262.726
L227.436 262.726
L227.436 262.726
L227.946 263.063
L228.202 263.063
L228.329 263.175
L228.967 263.175
L229.095 263.325
L229.733 263.325
L229.861 262.988
L230.499 262.988
L230.499 262.988
L231.009 263.287
L231.264 263.287
L231.264 263.287
L231.392 262.913
L232.03 262.913
L232.158 263.025
L232.796 263.025
L232.796 263.025
L232.924 263.287
L233.562 263.287
L233.689 262.763
L234.327 262.763
L234.327 262.763
L234.455 262.277
L235.093 262.277
L235.093 262.277
L235.221 262.95
L235.859 262.95
L235.859 262.95
L235.986 261.678
L236.624 261.678
L236.752 262.351
L237.39 262.351
L237.518 262.127
L238.921 262.127
L239.049 261.752
L240.453 261.79
L240.453 261.79
L240.58 260.367
L241.219 260.367
L241.346 261.715
L243.516 261.752
L243.643 261.603
L244.281 261.603
L244.409 261.228
L245.047 261.228
L245.047 261.228
L245.175 261.116
L246.578 261.116
L246.578 261.116
L246.706 261.715
L247.344 261.715
L247.855 261.603
L248.237 261.266
L248.876 261.266
L248.876 261.266
L249.003 261.453
L249.641 261.453
L249.641 261.453
L249.769 261.603
L251.938 261.678
L252.066 261.416
L252.704 261.416
L252.832 261.041
L253.47 261.041
L253.597 260.742
L254.235 260.742
L254.363 260.629
L255.767 260.592
L255.767 260.592
L255.894 260.442
L256.532 260.442
L256.66 260.891
L256.66 260.891
L258.83 260.854
L258.957 260.442
L259.595 260.442
L259.595 260.442
L259.723 260.929
L260.361 260.929
L260.489 260.367
L261.127 260.367
L261.254 260.779
L261.892 260.779
L262.02 260.367
L263.424 260.367
L263.424 260.367
L263.551 260.629
L265.593 260.592
L265.848 260.817
L268.784 260.891
L268.911 260.517
L269.549 260.517
L269.677 260.779
L270.315 260.779
L270.443 260.48
L271.081 260.48
L271.463 259.806
L271.846 259.806
L271.974 260.367
L272.612 260.367
L272.74 260.03
L274.143 259.955
L274.271 260.442
L274.909 260.442
L274.909 260.442
L275.037 260.18
L276.441 260.105
L276.568 259.955
L277.972 259.955
L277.972 259.955
L278.099 259.806
L278.738 259.806
L278.865 259.581
L280.269 259.544
L280.269 259.544
L280.397 259.731
L281.035 259.731
L281.035 259.731
L281.162 259.619
L282.566 259.619
L282.694 259.768
L283.332 259.768
L283.459 259.656
L284.097 259.656
L284.225 259.469
L285.629 259.544
L285.756 259.806
L287.16 259.806
L287.288 259.656
L287.926 259.656
L288.054 259.881
L288.692 259.881
L288.819 259.731
L289.457 259.731
L289.585 259.843
L290.223 259.843
L290.351 259.693
L292.52 259.693
L292.52 259.693
L292.648 259.918
L294.051 259.955
L294.051 259.955
L294.179 260.255
L294.817 260.255
L294.817 260.255
L294.945 260.367
L296.349 260.33
L296.476 260.105
L297.114 260.105
L297.242 260.255
L297.88 260.255
L298.008 259.881
L298.646 259.881
L298.773 259.469
L299.411 259.469
L299.539 259.356
L300.177 259.356
L300.177 259.356
L300.305 259.731
L302.474 259.768
L302.474 259.768
L302.985 259.544
L303.112 259.544
L303.368 259.881
L304.005 259.881
L304.005 259.881
L304.133 259.394
L304.771 259.394
L304.899 259.506
L307.068 259.431
L307.068 259.431
L307.196 258.645
L307.834 258.645
L307.962 259.094
L308.6 259.094
L308.6 259.094
L308.727 258.683
L309.365 258.683
L309.493 258.982
L310.131 258.982
L310.131 258.982
L310.259 258.87
L310.897 258.87
L311.024 257.747
L311.662 257.747
L311.79 258.907
L312.428 258.907
L312.556 258.046
L313.194 258.046
L313.321 258.795
L315.491 258.795
L315.619 258.945
L317.022 258.982
L317.15 258.757
L317.788 258.757
L317.916 258.945
L318.554 258.945
L318.554 258.945
L318.681 258.57
L319.319 258.57
L319.319 258.57
L319.447 259.132
L320.851 259.057
L320.851 259.057
L321.361 259.244
L322.127 259.282
L324.041 258.832
L326.211 258.832
L326.338 258.608
L326.976 258.608
L327.104 258.495
L329.273 258.533
L329.401 258.271
L330.039 258.271
L330.167 257.297
L330.805 257.297
L330.933 257.971
L332.336 257.934
L332.464 258.084
L333.102 258.084
L333.23 257.747
L333.868 257.747
L333.995 257.559
L334.633 257.559
L334.761 256.886
L335.399 256.886
L335.527 257.709
L336.165 257.709
L336.292 257.222
L337.696 257.297
L337.824 257.971
L338.462 257.971
L338.589 258.196
L339.866 258.158
L340.121 258.308
L340.504 258.308
L340.759 258.196
L340.886 258.009
L341.525 258.009
L341.652 257.896
L342.29 257.896
L342.418 257.634
L343.056 257.634
L343.184 258.084
L343.822 258.084
L343.822 258.084
L343.949 257.971
L345.353 257.896
L345.353 257.896
L345.481 257.522
L346.884 257.522
L346.884 257.522
L347.012 257.372
L349.181 257.447
L349.309 256.96
L349.947 256.96
L350.075 257.821
L350.713 257.821
L350.84 257.934
L351.224 257.934
L351.861 258.084
L352.244 258.084
L352.372 257.821
L353.776 257.821
L353.776 257.821
L354.286 257.447
L354.541 257.447
L354.669 257.634
L355.307 257.634
L355.307 257.634
L355.435 257.447
L356.073 257.447
L356.073 257.447
L356.2 257.559
L357.477 257.597
L357.732 256.698
L358.37 256.698
L358.37 256.698
L358.497 257.559
L359.136 257.559
L359.263 257.335
L359.901 257.335
L360.029 257.784
L360.667 257.784
L360.795 257.522
L361.433 257.522
L361.56 257.672
L362.198 257.672
L362.326 257.335
L362.964 257.335
L363.092 258.196
L363.73 258.196
L363.857 258.346
L368.324 258.308
L368.451 258.608
L369.09 258.608
L369.6 258.046
L369.855 258.046
L369.983 257.747
L370.621 257.747
L370.749 258.42
L371.387 258.42
L371.514 258.196
L372.152 258.196
L372.28 258.458
L372.918 258.458
L373.046 258.608
L373.684 258.608
L373.684 258.608
L373.811 258.383
L375.215 258.383
L375.343 258.945
L375.981 258.945
L376.108 259.394
L377.512 259.319
L377.512 259.319
L377.767 259.244
L379.044 259.207
L379.171 259.132
L380.575 259.057
L380.703 258.683
L382.107 258.757
L382.617 258.795
L382.872 258.795
L383 258.533
L383.638 258.533
L384.786 258.271
L385.935 258.271
L386.062 258.383
L386.701 258.383
L386.828 257.971
L387.466 257.971
L387.594 257.597
L388.232 257.597
L388.232 257.597
L388.36 343.03
L388.998 343.03
L389.125 255.276
L389.763 255.276
L389.891 254.115
L390.529 254.115
L390.657 254.901
L391.295 254.901
L391.422 255.425
L392.06 255.425
L392.188 256.062
L392.826 256.062
L392.954 256.212
L393.592 256.212
L393.719 256.474
L394.102 256.474
L394.102 256.474
L394.485 257.148
L395.123 257.148
L395.251 257.035
L395.889 257.035
L396.016 256.923
L396.655 256.923
L396.782 257.185
L397.42 257.185
L397.548 257.559
L398.186 257.559
L398.314 257.035
L398.952 257.035
L399.079 257.971
L399.717 257.971
L399.845 258.121
L400.483 258.121
L400.611 257.896
L401.249 257.896
L401.376 258.608
L402.014 258.608
L402.142 258.495
L402.78 258.495
L402.908 258.233
L403.546 258.233
L403.673 258.832
L405.077 258.832
L405.205 259.132
L406.609 259.169
L406.736 259.469
L407.374 259.469
L407.502 259.806
L408.14 259.806
L408.268 259.619
L408.906 259.619
L409.033 259.918
L409.671 259.918
L409.799 259.768
L410.437 259.768
L410.565 259.282
L411.968 259.282
L412.096 259.619
L412.607 259.619
L413.245 259.506
L414.266 259.544
L414.393 259.731
L415.031 259.731
L415.159 259.619
L415.797 259.619
L415.925 259.506
L416.563 259.506
L416.69 259.244
L417.328 259.244
L417.456 258.87
L418.094 258.87
L418.222 259.356
L420.391 259.394
L420.519 259.019
L421.157 259.019
L421.284 259.431
L421.922 259.431
L422.05 259.244
L422.688 259.244
L422.816 259.094
L423.454 259.094
L423.581 259.469
L424.22 259.469
L424.347 259.207
L424.985 259.207
L425.113 258.982
L426.517 258.945
L426.644 259.132
L427.282 259.132
L427.41 259.619
L428.048 259.619
L428.176 259.019
L428.814 259.019
L428.941 258.757
L429.579 258.757
L429.707 258.42
L430.345 258.42
L430.473 259.506
L430.983 259.506
L431.238 259.019
L431.877 259.019
L432.004 258.87
L432.642 258.87
L432.642 258.87
L432.77 258.757
L434.939 258.757
L435.067 258.608
L436.471 258.533
L436.598 258.458
L437.236 258.458
L437.364 259.094
L438.002 259.094
L438.13 258.608
L438.768 258.608
L438.895 259.356
L440.299 259.319
L440.299 259.319
L440.427 258.832
L441.065 258.832
L441.192 259.169
L441.831 259.169
L441.831 259.169
L441.958 259.506
L442.596 259.506
L442.724 259.356
L444.893 259.319
L445.021 258.458
L445.659 258.458
L446.169 259.019
L446.425 259.019
L446.552 259.506
L447.19 259.506
L447.318 259.319
L447.956 259.319
L448.084 258.945
L450.126 259.019
L450.381 258.832
L451.019 258.832
L451.146 258.42
L451.785 258.42
L451.912 258.533
L452.55 258.533
L452.678 258.683
L453.316 258.683
L453.444 258.495
L454.082 258.495
L454.209 258.271
L454.847 258.271
L454.847 258.271
L454.975 258.458
L455.613 258.458
L455.741 258.346
L456.379 258.346
L456.506 258.196
L459.442 258.196
L459.569 257.971
L460.207 257.971
L460.335 257.709
L460.973 257.709
L461.101 257.859
L461.739 257.859
L461.866 257.597
L462.504 257.597
L462.632 257.747
L463.27 257.747
L463.398 258.121
L464.036 258.121
L464.163 257.597
L464.801 257.597
L464.929 257.934
L466.333 257.859
L466.843 257.821
L467.098 257.821
L467.098 257.821
L467.226 258.046
L467.864 258.046
L467.992 257.559
L468.63 257.559
L468.757 257.859
L469.396 257.859
L469.523 257.709
L470.161 257.709
L470.289 257.559
L470.927 257.559
L471.055 257.447
L472.458 257.485
L472.586 257.11
L473.224 257.11
L473.352 257.447
L473.99 257.447
L474.118 257.709
L474.755 257.709
L474.883 258.233
L475.521 258.233
L475.649 258.57
L477.052 258.608
L477.18 258.383
L477.818 258.383
L477.946 258.608
L478.584 258.608
L478.711 258.42
L479.35 258.42
L479.477 258.832
L480.115 258.832
L480.243 259.469
L480.881 259.469
L481.009 259.918
L483.178 259.881
L483.306 259.768
L483.944 259.768
L484.071 259.319
L486.241 259.319
L486.241 259.319
L486.368 258.945
L487.007 258.945
L487.134 259.169
L487.772 259.169
L487.9 258.832
L488.538 258.832
L488.666 258.72
L490.069 258.683
L490.197 258.458
L492.366 258.495
L492.494 258.084
L493.132 258.084
L493.26 258.196
L493.898 258.196
L494.026 257.485
L494.663 257.485
L494.791 258.158
L496.195 258.121
L496.322 257.971
L496.961 257.971
L497.088 257.672
L497.726 257.672
L497.854 257.821
L499.258 257.859
L499.258 257.859
L499.385 257.559
L500.789 257.634
L500.917 258.346
L501.555 258.346
L501.682 258.158
L503.852 258.196
L503.979 257.784
L504.617 257.784
L504.745 258.084
L506.149 258.009
L506.659 257.971
L506.915 257.971
L507.042 257.784
L508.446 257.821
L508.574 257.597
L509.212 257.597
L509.339 257.073
L509.977 257.073
L510.488 256.923
L510.743 256.923
L510.871 256.436
L511.509 256.436
L511.636 256.623
L512.274 256.623
L512.402 256.324
L513.04 256.324
L513.168 256.886
L513.806 256.886
L513.933 256.511
L514.572 256.511
L514.699 256.923
L515.337 256.923
L515.465 257.11
L516.103 257.11
L516.231 256.736
L516.869 256.736
L516.996 256.923
L518.4 256.848
L518.4 256.848" style="fill:none;stroke:#008000;stroke-linecap:square;"/>
   </g>
   <g id="patch_3">
    <path d="
M72 43.2
L518.4 43.2" style="fill:none;stroke:#000000;stroke-linecap:square;stroke-linejoin:miter;"/>
   </g>
   <g id="patch_4">
    <path d="
M518.4 345.6
L518.4 43.2" style="fill:none;stroke:#000000;stroke-linecap:square;stroke-linejoin:miter;"/>
   </g>
   <g id="patch_5">
    <path d="
M72 345.6
L518.4 345.6" style="fill:none;stroke:#000000;stroke-linecap:square;stroke-linejoin:miter;"/>
   </g>
   <g id="patch_6">
    <path d="
M72 345.6
L72 43.2" style="fill:none;stroke:#000000;stroke-linecap:square;stroke-linejoin:miter;"/>
   </g>
   <g id="matplotlib.axis_1">
    <g id="xtick_1">
     <g id="line2d_3">
      <defs>
       <path d="
M0 0
L0 -4" id="m93b0483c22" style="stroke:#000000;stroke-width:0.5;"/>
      </defs>
      <g>
       <use style="stroke:#000000;stroke-width:0.5;" x="117.941468267" xlink:href="#m93b0483c22" y="345.6"/>
      </g>
     </g>
     <g id="line2d_4">
      <defs>
       <path d="
M0 0
L0 4" id="m741efc42ff" style="stroke:#000000;stroke-width:0.5;"/>
      </defs>
      <g>
       <use style="stroke:#000000;stroke-width:0.5;" x="117.941468267" xlink:href="#m741efc42ff" y="43.2"/>
      </g>
     </g>
     <g id="text_1">
      <!-- Oct 13 2015 -->
      <defs>
       <path d="
M19.1875 8.29688
L53.6094 8.29688
L53.6094 0
L7.32812 0
L7.32812 8.29688
Q12.9375 14.1094 22.625 23.8906
Q32.3281 33.6875 34.8125 36.5312
Q39.5469 41.8438 41.4219 45.5312
Q43.3125 49.2188 43.3125 52.7812
Q43.3125 58.5938 39.2344 62.25
Q35.1562 65.9219 28.6094 65.9219
Q23.9688 65.9219 18.8125 64.3125
Q13.6719 62.7031 7.8125 59.4219
L7.8125 69.3906
Q13.7656 71.7812 18.9375 73
Q24.125 74.2188 28.4219 74.2188
Q39.75 74.2188 46.4844 68.5469
Q53.2188 62.8906 53.2188 53.4219
Q53.2188 48.9219 51.5312 44.8906
Q49.8594 40.875 45.4062 35.4062
Q44.1875 33.9844 37.6406 27.2188
Q31.1094 20.4531 19.1875 8.29688" id="BitstreamVeraSans-Roman-32"/>
       <path d="
M39.4062 66.2188
Q28.6562 66.2188 22.3281 58.2031
Q16.0156 50.2031 16.0156 36.375
Q16.0156 22.6094 22.3281 14.5938
Q28.6562 6.59375 39.4062 6.59375
Q50.1406 6.59375 56.4219 14.5938
Q62.7031 22.6094 62.7031 36.375
Q62.7031 50.2031 56.4219 58.2031
Q50.1406 66.2188 39.4062 66.2188
M39.4062 74.2188
Q54.7344 74.2188 63.9062 63.9375
Q73.0938 53.6562 73.0938 36.375
Q73.0938 19.1406 63.9062 8.85938
Q54.7344 -1.42188 39.4062 -1.42188
Q24.0312 -1.42188 14.8125 8.82812
Q5.60938 19.0938 5.60938 36.375
Q5.60938 53.6562 14.8125 63.9375
Q24.0312 74.2188 39.4062 74.2188" id="BitstreamVeraSans-Roman-4f"/>
       <path d="
M31.7812 66.4062
Q24.1719 66.4062 20.3281 58.9062
Q16.5 51.4219 16.5 36.375
Q16.5 21.3906 20.3281 13.8906
Q24.1719 6.39062 31.7812 6.39062
Q39.4531 6.39062 43.2812 13.8906
Q47.125 21.3906 47.125 36.375
Q47.125 51.4219 43.2812 58.9062
Q39.4531 66.4062 31.7812 66.4062
M31.7812 74.2188
Q44.0469 74.2188 50.5156 64.5156
Q56.9844 54.8281 56.9844 36.375
Q56.9844 17.9688 50.5156 8.26562
Q44.0469 -1.42188 31.7812 -1.42188
Q19.5312 -1.42188 13.0625 8.26562
Q6.59375 17.9688 6.59375 36.375
Q6.59375 54.8281 13.0625 64.5156
Q19.5312 74.2188 31.7812 74.2188" id="BitstreamVeraSans-Roman-30"/>
       <path d="
M12.4062 8.29688
L28.5156 8.29688
L28.5156 63.9219
L10.9844 60.4062
L10.9844 69.3906
L28.4219 72.9062
L38.2812 72.9062
L38.2812 8.29688
L54.3906 8.29688
L54.3906 0
L12.4062 0
z
" id="BitstreamVeraSans-Roman-31"/>
       <path d="
M40.5781 39.3125
Q47.6562 37.7969 51.625 33
Q55.6094 28.2188 55.6094 21.1875
Q55.6094 10.4062 48.1875 4.48438
Q40.7656 -1.42188 27.0938 -1.42188
Q22.5156 -1.42188 17.6562 -0.515625
Q12.7969 0.390625 7.625 2.20312
L7.625 11.7188
Q11.7188 9.32812 16.5938 8.10938
Q21.4844 6.89062 26.8125 6.89062
Q36.0781 6.89062 40.9375 10.5469
Q45.7969 14.2031 45.7969 21.1875
Q45.7969 27.6406 41.2812 31.2656
Q36.7656 34.9062 28.7188 34.9062
L20.2188 34.9062
L20.2188 43.0156
L29.1094 43.0156
Q36.375 43.0156 40.2344 45.9219
Q44.0938 48.8281 44.0938 54.2969
Q44.0938 59.9062 40.1094 62.9062
Q36.1406 65.9219 28.7188 65.9219
Q24.6562 65.9219 20.0156 65.0312
Q15.375 64.1562 9.8125 62.3125
L9.8125 71.0938
Q15.4375 72.6562 20.3438 73.4375
Q25.25 74.2188 29.5938 74.2188
Q40.8281 74.2188 47.3594 69.1094
Q53.9062 64.0156 53.9062 55.3281
Q53.9062 49.2656 50.4375 45.0938
Q46.9688 40.9219 40.5781 39.3125" id="BitstreamVeraSans-Roman-33"/>
       <path id="BitstreamVeraSans-Roman-20"/>
       <path d="
M10.7969 72.9062
L49.5156 72.9062
L49.5156 64.5938
L19.8281 64.5938
L19.8281 46.7344
Q21.9688 47.4688 24.1094 47.8281
Q26.2656 48.1875 28.4219 48.1875
Q40.625 48.1875 47.75 41.5
Q54.8906 34.8125 54.8906 23.3906
Q54.8906 11.625 47.5625 5.09375
Q40.2344 -1.42188 26.9062 -1.42188
Q22.3125 -1.42188 17.5469 -0.640625
Q12.7969 0.140625 7.71875 1.70312
L7.71875 11.625
Q12.1094 9.23438 16.7969 8.0625
Q21.4844 6.89062 26.7031 6.89062
Q35.1562 6.89062 40.0781 11.3281
Q45.0156 15.7656 45.0156 23.3906
Q45.0156 31 40.0781 35.4375
Q35.1562 39.8906 26.7031 39.8906
Q22.75 39.8906 18.8125 39.0156
Q14.8906 38.1406 10.7969 36.2812
z
" id="BitstreamVeraSans-Roman-35"/>
       <path d="
M18.3125 70.2188
L18.3125 54.6875
L36.8125 54.6875
L36.8125 47.7031
L18.3125 47.7031
L18.3125 18.0156
Q18.3125 11.3281 20.1406 9.42188
Q21.9688 7.51562 27.5938 7.51562
L36.8125 7.51562
L36.8125 0
L27.5938 0
Q17.1875 0 13.2344 3.875
Q9.28125 7.76562 9.28125 18.0156
L9.28125 47.7031
L2.6875 47.7031
L2.6875 54.6875
L9.28125 54.6875
L9.28125 70.2188
z
" id="BitstreamVeraSans-Roman-74"/>
       <path d="
M48.7812 52.5938
L48.7812 44.1875
Q44.9688 46.2969 41.1406 47.3438
Q37.3125 48.3906 33.4062 48.3906
Q24.6562 48.3906 19.8125 42.8438
Q14.9844 37.3125 14.9844 27.2969
Q14.9844 17.2812 19.8125 11.7344
Q24.6562 6.20312 33.4062 6.20312
Q37.3125 6.20312 41.1406 7.25
Q44.9688 8.29688 48.7812 10.4062
L48.7812 2.09375
Q45.0156 0.34375 40.9844 -0.53125
Q36.9688 -1.42188 32.4219 -1.42188
Q20.0625 -1.42188 12.7812 6.34375
Q5.51562 14.1094 5.51562 27.2969
Q5.51562 40.6719 12.8594 48.3281
Q20.2188 56 33.0156 56
Q37.1562 56 41.1094 55.1406
Q45.0625 54.2969 48.7812 52.5938" id="BitstreamVeraSans-Roman-63"/>
      </defs>
      <g transform="translate(53.3541815316 394.065590385)rotate(-30.0)scale(0.12 -0.12)">
       <use xlink:href="#BitstreamVeraSans-Roman-4f"/>
       <use x="78.7109375" xlink:href="#BitstreamVeraSans-Roman-63"/>
       <use x="133.69140625" xlink:href="#BitstreamVeraSans-Roman-74"/>
       <use x="172.900390625" xlink:href="#BitstreamVeraSans-Roman-20"/>
       <use x="204.6875" xlink:href="#BitstreamVeraSans-Roman-31"/>
       <use x="268.310546875" xlink:href="#BitstreamVeraSans-Roman-33"/>
       <use x="331.93359375" xlink:href="#BitstreamVeraSans-Roman-20"/>
       <use x="363.720703125" xlink:href="#BitstreamVeraSans-Roman-32"/>
       <use x="427.34375" xlink:href="#BitstreamVeraSans-Roman-30"/>
       <use x="490.966796875" xlink:href="#BitstreamVeraSans-Roman-31"/>
       <use x="554.58984375" xlink:href="#BitstreamVeraSans-Roman-35"/>
      </g>
     </g>
    </g>
    <g id="xtick_2">
     <g id="line2d_5">
      <g>
       <use style="stroke:#000000;stroke-width:0.5;" x="173.071485419" xlink:href="#m93b0483c22" y="345.6"/>
      </g>
     </g>
     <g id="line2d_6">
      <g>
       <use style="stroke:#000000;stroke-width:0.5;" x="173.071485419" xlink:href="#m741efc42ff" y="43.2"/>
      </g>
     </g>
     <g id="text_2">
      <!-- Oct 16 2015 -->
      <defs>
       <path d="
M33.0156 40.375
Q26.375 40.375 22.4844 35.8281
Q18.6094 31.2969 18.6094 23.3906
Q18.6094 15.5312 22.4844 10.9531
Q26.375 6.39062 33.0156 6.39062
Q39.6562 6.39062 43.5312 10.9531
Q47.4062 15.5312 47.4062 23.3906
Q47.4062 31.2969 43.5312 35.8281
Q39.6562 40.375 33.0156 40.375
M52.5938 71.2969
L52.5938 62.3125
Q48.875 64.0625 45.0938 64.9844
Q41.3125 65.9219 37.5938 65.9219
Q27.8281 65.9219 22.6719 59.3281
Q17.5312 52.7344 16.7969 39.4062
Q19.6719 43.6562 24.0156 45.9219
Q28.375 48.1875 33.5938 48.1875
Q44.5781 48.1875 50.9531 41.5156
Q57.3281 34.8594 57.3281 23.3906
Q57.3281 12.1562 50.6875 5.35938
Q44.0469 -1.42188 33.0156 -1.42188
Q20.3594 -1.42188 13.6719 8.26562
Q6.98438 17.9688 6.98438 36.375
Q6.98438 53.6562 15.1875 63.9375
Q23.3906 74.2188 37.2031 74.2188
Q40.9219 74.2188 44.7031 73.4844
Q48.4844 72.75 52.5938 71.2969" id="BitstreamVeraSans-Roman-36"/>
      </defs>
      <g transform="translate(108.484198684 394.065590385)rotate(-30.0)scale(0.12 -0.12)">
       <use xlink:href="#BitstreamVeraSans-Roman-4f"/>
       <use x="78.7109375" xlink:href="#BitstreamVeraSans-Roman-63"/>
       <use x="133.69140625" xlink:href="#BitstreamVeraSans-Roman-74"/>
       <use x="172.900390625" xlink:href="#BitstreamVeraSans-Roman-20"/>
       <use x="204.6875" xlink:href="#BitstreamVeraSans-Roman-31"/>
       <use x="268.310546875" xlink:href="#BitstreamVeraSans-Roman-36"/>
       <use x="331.93359375" xlink:href="#BitstreamVeraSans-Roman-20"/>
       <use x="363.720703125" xlink:href="#BitstreamVeraSans-Roman-32"/>
       <use x="427.34375" xlink:href="#BitstreamVeraSans-Roman-30"/>
       <use x="490.966796875" xlink:href="#BitstreamVeraSans-Roman-31"/>
       <use x="554.58984375" xlink:href="#BitstreamVeraSans-Roman-35"/>
      </g>
     </g>
    </g>
    <g id="xtick_3">
     <g id="line2d_7">
      <g>
       <use style="stroke:#000000;stroke-width:0.5;" x="228.201502573" xlink:href="#m93b0483c22" y="345.6"/>
      </g>
     </g>
     <g id="line2d_8">
      <g>
       <use style="stroke:#000000;stroke-width:0.5;" x="228.201502573" xlink:href="#m741efc42ff" y="43.2"/>
      </g>
     </g>
     <g id="text_3">
      <!-- Oct 19 2015 -->
      <defs>
       <path d="
M10.9844 1.51562
L10.9844 10.5
Q14.7031 8.73438 18.5 7.8125
Q22.3125 6.89062 25.9844 6.89062
Q35.75 6.89062 40.8906 13.4531
Q46.0469 20.0156 46.7812 33.4062
Q43.9531 29.2031 39.5938 26.9531
Q35.25 24.7031 29.9844 24.7031
Q19.0469 24.7031 12.6719 31.3125
Q6.29688 37.9375 6.29688 49.4219
Q6.29688 60.6406 12.9375 67.4219
Q19.5781 74.2188 30.6094 74.2188
Q43.2656 74.2188 49.9219 64.5156
Q56.5938 54.8281 56.5938 36.375
Q56.5938 19.1406 48.4062 8.85938
Q40.2344 -1.42188 26.4219 -1.42188
Q22.7031 -1.42188 18.8906 -0.6875
Q15.0938 0.046875 10.9844 1.51562
M30.6094 32.4219
Q37.25 32.4219 41.125 36.9531
Q45.0156 41.5 45.0156 49.4219
Q45.0156 57.2812 41.125 61.8438
Q37.25 66.4062 30.6094 66.4062
Q23.9688 66.4062 20.0938 61.8438
Q16.2188 57.2812 16.2188 49.4219
Q16.2188 41.5 20.0938 36.9531
Q23.9688 32.4219 30.6094 32.4219" id="BitstreamVeraSans-Roman-39"/>
      </defs>
      <g transform="translate(163.614215838 394.065590385)rotate(-30.0)scale(0.12 -0.12)">
       <use xlink:href="#BitstreamVeraSans-Roman-4f"/>
       <use x="78.7109375" xlink:href="#BitstreamVeraSans-Roman-63"/>
       <use x="133.69140625" xlink:href="#BitstreamVeraSans-Roman-74"/>
       <use x="172.900390625" xlink:href="#BitstreamVeraSans-Roman-20"/>
       <use x="204.6875" xlink:href="#BitstreamVeraSans-Roman-31"/>
       <use x="268.310546875" xlink:href="#BitstreamVeraSans-Roman-39"/>
       <use x="331.93359375" xlink:href="#BitstreamVeraSans-Roman-20"/>
       <use x="363.720703125" xlink:href="#BitstreamVeraSans-Roman-32"/>
       <use x="427.34375" xlink:href="#BitstreamVeraSans-Roman-30"/>
       <use x="490.966796875" xlink:href="#BitstreamVeraSans-Roman-31"/>
       <use x="554.58984375" xlink:href="#BitstreamVeraSans-Roman-35"/>
      </g>
     </g>
    </g>
    <g id="xtick_4">
     <g id="line2d_9">
      <g>
       <use style="stroke:#000000;stroke-width:0.5;" x="283.331519725" xlink:href="#m93b0483c22" y="345.6"/>
      </g>
     </g>
     <g id="line2d_10">
      <g>
       <use style="stroke:#000000;stroke-width:0.5;" x="283.331519725" xlink:href="#m741efc42ff" y="43.2"/>
      </g>
     </g>
     <g id="text_4">
      <!-- Oct 22 2015 -->
      <g transform="translate(218.74423299 394.065590385)rotate(-30.0)scale(0.12 -0.12)">
       <use xlink:href="#BitstreamVeraSans-Roman-4f"/>
       <use x="78.7109375" xlink:href="#BitstreamVeraSans-Roman-63"/>
       <use x="133.69140625" xlink:href="#BitstreamVeraSans-Roman-74"/>
       <use x="172.900390625" xlink:href="#BitstreamVeraSans-Roman-20"/>
       <use x="204.6875" xlink:href="#BitstreamVeraSans-Roman-32"/>
       <use x="268.310546875" xlink:href="#BitstreamVeraSans-Roman-32"/>
       <use x="331.93359375" xlink:href="#BitstreamVeraSans-Roman-20"/>
       <use x="363.720703125" xlink:href="#BitstreamVeraSans-Roman-32"/>
       <use x="427.34375" xlink:href="#BitstreamVeraSans-Roman-30"/>
       <use x="490.966796875" xlink:href="#BitstreamVeraSans-Roman-31"/>
       <use x="554.58984375" xlink:href="#BitstreamVeraSans-Roman-35"/>
      </g>
     </g>
    </g>
    <g id="xtick_5">
     <g id="line2d_11">
      <g>
       <use style="stroke:#000000;stroke-width:0.5;" x="338.461536877" xlink:href="#m93b0483c22" y="345.6"/>
      </g>
     </g>
     <g id="line2d_12">
      <g>
       <use style="stroke:#000000;stroke-width:0.5;" x="338.461536877" xlink:href="#m741efc42ff" y="43.2"/>
      </g>
     </g>
     <g id="text_5">
      <!-- Oct 25 2015 -->
      <g transform="translate(273.874250142 394.065590385)rotate(-30.0)scale(0.12 -0.12)">
       <use xlink:href="#BitstreamVeraSans-Roman-4f"/>
       <use x="78.7109375" xlink:href="#BitstreamVeraSans-Roman-63"/>
       <use x="133.69140625" xlink:href="#BitstreamVeraSans-Roman-74"/>
       <use x="172.900390625" xlink:href="#BitstreamVeraSans-Roman-20"/>
       <use x="204.6875" xlink:href="#BitstreamVeraSans-Roman-32"/>
       <use x="268.310546875" xlink:href="#BitstreamVeraSans-Roman-35"/>
       <use x="331.93359375" xlink:href="#BitstreamVeraSans-Roman-20"/>
       <use x="363.720703125" xlink:href="#BitstreamVeraSans-Roman-32"/>
       <use x="427.34375" xlink:href="#BitstreamVeraSans-Roman-30"/>
       <use x="490.966796875" xlink:href="#BitstreamVeraSans-Roman-31"/>
       <use x="554.58984375" xlink:href="#BitstreamVeraSans-Roman-35"/>
      </g>
     </g>
    </g>
    <g id="xtick_6">
     <g id="line2d_13">
      <g>
       <use style="stroke:#000000;stroke-width:0.5;" x="393.591554031" xlink:href="#m93b0483c22" y="345.6"/>
      </g>
     </g>
     <g id="line2d_14">
      <g>
       <use style="stroke:#000000;stroke-width:0.5;" x="393.591554031" xlink:href="#m741efc42ff" y="43.2"/>
      </g>
     </g>
     <g id="text_6">
      <!-- Oct 28 2015 -->
      <defs>
       <path d="
M31.7812 34.625
Q24.75 34.625 20.7188 30.8594
Q16.7031 27.0938 16.7031 20.5156
Q16.7031 13.9219 20.7188 10.1562
Q24.75 6.39062 31.7812 6.39062
Q38.8125 6.39062 42.8594 10.1719
Q46.9219 13.9688 46.9219 20.5156
Q46.9219 27.0938 42.8906 30.8594
Q38.875 34.625 31.7812 34.625
M21.9219 38.8125
Q15.5781 40.375 12.0312 44.7188
Q8.5 49.0781 8.5 55.3281
Q8.5 64.0625 14.7188 69.1406
Q20.9531 74.2188 31.7812 74.2188
Q42.6719 74.2188 48.875 69.1406
Q55.0781 64.0625 55.0781 55.3281
Q55.0781 49.0781 51.5312 44.7188
Q48 40.375 41.7031 38.8125
Q48.8281 37.1562 52.7969 32.3125
Q56.7812 27.4844 56.7812 20.5156
Q56.7812 9.90625 50.3125 4.23438
Q43.8438 -1.42188 31.7812 -1.42188
Q19.7344 -1.42188 13.25 4.23438
Q6.78125 9.90625 6.78125 20.5156
Q6.78125 27.4844 10.7812 32.3125
Q14.7969 37.1562 21.9219 38.8125
M18.3125 54.3906
Q18.3125 48.7344 21.8438 45.5625
Q25.3906 42.3906 31.7812 42.3906
Q38.1406 42.3906 41.7188 45.5625
Q45.3125 48.7344 45.3125 54.3906
Q45.3125 60.0625 41.7188 63.2344
Q38.1406 66.4062 31.7812 66.4062
Q25.3906 66.4062 21.8438 63.2344
Q18.3125 60.0625 18.3125 54.3906" id="BitstreamVeraSans-Roman-38"/>
      </defs>
      <g transform="translate(329.004267296 394.065590385)rotate(-30.0)scale(0.12 -0.12)">
       <use xlink:href="#BitstreamVeraSans-Roman-4f"/>
       <use x="78.7109375" xlink:href="#BitstreamVeraSans-Roman-63"/>
       <use x="133.69140625" xlink:href="#BitstreamVeraSans-Roman-74"/>
       <use x="172.900390625" xlink:href="#BitstreamVeraSans-Roman-20"/>
       <use x="204.6875" xlink:href="#BitstreamVeraSans-Roman-32"/>
       <use x="268.310546875" xlink:href="#BitstreamVeraSans-Roman-38"/>
       <use x="331.93359375" xlink:href="#BitstreamVeraSans-Roman-20"/>
       <use x="363.720703125" xlink:href="#BitstreamVeraSans-Roman-32"/>
       <use x="427.34375" xlink:href="#BitstreamVeraSans-Roman-30"/>
       <use x="490.966796875" xlink:href="#BitstreamVeraSans-Roman-31"/>
       <use x="554.58984375" xlink:href="#BitstreamVeraSans-Roman-35"/>
      </g>
     </g>
    </g>
    <g id="xtick_7">
     <g id="line2d_15">
      <g>
       <use style="stroke:#000000;stroke-width:0.5;" x="448.721571183" xlink:href="#m93b0483c22" y="345.6"/>
      </g>
     </g>
     <g id="line2d_16">
      <g>
       <use style="stroke:#000000;stroke-width:0.5;" x="448.721571183" xlink:href="#m741efc42ff" y="43.2"/>
      </g>
     </g>
     <g id="text_7">
      <!-- Oct 31 2015 -->
      <g transform="translate(384.134284448 394.065590385)rotate(-30.0)scale(0.12 -0.12)">
       <use xlink:href="#BitstreamVeraSans-Roman-4f"/>
       <use x="78.7109375" xlink:href="#BitstreamVeraSans-Roman-63"/>
       <use x="133.69140625" xlink:href="#BitstreamVeraSans-Roman-74"/>
       <use x="172.900390625" xlink:href="#BitstreamVeraSans-Roman-20"/>
       <use x="204.6875" xlink:href="#BitstreamVeraSans-Roman-33"/>
       <use x="268.310546875" xlink:href="#BitstreamVeraSans-Roman-31"/>
       <use x="331.93359375" xlink:href="#BitstreamVeraSans-Roman-20"/>
       <use x="363.720703125" xlink:href="#BitstreamVeraSans-Roman-32"/>
       <use x="427.34375" xlink:href="#BitstreamVeraSans-Roman-30"/>
       <use x="490.966796875" xlink:href="#BitstreamVeraSans-Roman-31"/>
       <use x="554.58984375" xlink:href="#BitstreamVeraSans-Roman-35"/>
      </g>
     </g>
    </g>
    <g id="xtick_8">
     <g id="line2d_17">
      <g>
       <use style="stroke:#000000;stroke-width:0.5;" x="503.851588335" xlink:href="#m93b0483c22" y="345.6"/>
      </g>
     </g>
     <g id="line2d_18">
      <g>
       <use style="stroke:#000000;stroke-width:0.5;" x="503.851588335" xlink:href="#m741efc42ff" y="43.2"/>
      </g>
     </g>
     <g id="text_8">
      <!-- Nov 03 2015 -->
      <defs>
       <path d="
M2.98438 54.6875
L12.5 54.6875
L29.5938 8.79688
L46.6875 54.6875
L56.2031 54.6875
L35.6875 0
L23.4844 0
z
" id="BitstreamVeraSans-Roman-76"/>
       <path d="
M9.8125 72.9062
L23.0938 72.9062
L55.4219 11.9219
L55.4219 72.9062
L64.9844 72.9062
L64.9844 0
L51.7031 0
L19.3906 60.9844
L19.3906 0
L9.8125 0
z
" id="BitstreamVeraSans-Roman-4e"/>
       <path d="
M30.6094 48.3906
Q23.3906 48.3906 19.1875 42.75
Q14.9844 37.1094 14.9844 27.2969
Q14.9844 17.4844 19.1562 11.8438
Q23.3438 6.20312 30.6094 6.20312
Q37.7969 6.20312 41.9844 11.8594
Q46.1875 17.5312 46.1875 27.2969
Q46.1875 37.0156 41.9844 42.7031
Q37.7969 48.3906 30.6094 48.3906
M30.6094 56
Q42.3281 56 49.0156 48.375
Q55.7188 40.7656 55.7188 27.2969
Q55.7188 13.875 49.0156 6.21875
Q42.3281 -1.42188 30.6094 -1.42188
Q18.8438 -1.42188 12.1719 6.21875
Q5.51562 13.875 5.51562 27.2969
Q5.51562 40.7656 12.1719 48.375
Q18.8438 56 30.6094 56" id="BitstreamVeraSans-Roman-6f"/>
      </defs>
      <g transform="translate(436.948766176 395.402465385)rotate(-30.0)scale(0.12 -0.12)">
       <use xlink:href="#BitstreamVeraSans-Roman-4e"/>
       <use x="74.8046875" xlink:href="#BitstreamVeraSans-Roman-6f"/>
       <use x="135.986328125" xlink:href="#BitstreamVeraSans-Roman-76"/>
       <use x="195.166015625" xlink:href="#BitstreamVeraSans-Roman-20"/>
       <use x="226.953125" xlink:href="#BitstreamVeraSans-Roman-30"/>
       <use x="290.576171875" xlink:href="#BitstreamVeraSans-Roman-33"/>
       <use x="354.19921875" xlink:href="#BitstreamVeraSans-Roman-20"/>
       <use x="385.986328125" xlink:href="#BitstreamVeraSans-Roman-32"/>
       <use x="449.609375" xlink:href="#BitstreamVeraSans-Roman-30"/>
       <use x="513.232421875" xlink:href="#BitstreamVeraSans-Roman-31"/>
       <use x="576.85546875" xlink:href="#BitstreamVeraSans-Roman-35"/>
      </g>
     </g>
    </g>
   </g>
   <g id="matplotlib.axis_2">
    <g id="ytick_1">
     <g id="line2d_19">
      <defs>
       <path d="
M0 0
L4 0" id="m728421d6d4" style="stroke:#000000;stroke-width:0.5;"/>
      </defs>
      <g>
       <use style="stroke:#000000;stroke-width:0.5;" x="72.0" xlink:href="#m728421d6d4" y="319.556401812"/>
      </g>
     </g>
     <g id="line2d_20">
      <defs>
       <path d="
M0 0
L-4 0" id="mcb0005524f" style="stroke:#000000;stroke-width:0.5;"/>
      </defs>
      <g>
       <use style="stroke:#000000;stroke-width:0.5;" x="518.4" xlink:href="#mcb0005524f" y="319.556401812"/>
      </g>
     </g>
     <g id="text_9">
      <!-- 2000 -->
      <g transform="translate(39.13625 322.867651812)scale(0.12 -0.12)">
       <use xlink:href="#BitstreamVeraSans-Roman-32"/>
       <use x="63.623046875" xlink:href="#BitstreamVeraSans-Roman-30"/>
       <use x="127.24609375" xlink:href="#BitstreamVeraSans-Roman-30"/>
       <use x="190.869140625" xlink:href="#BitstreamVeraSans-Roman-30"/>
      </g>
     </g>
    </g>
    <g id="ytick_2">
     <g id="line2d_21">
      <g>
       <use style="stroke:#000000;stroke-width:0.5;" x="72.0" xlink:href="#m728421d6d4" y="282.118612425"/>
      </g>
     </g>
     <g id="line2d_22">
      <g>
       <use style="stroke:#000000;stroke-width:0.5;" x="518.4" xlink:href="#mcb0005524f" y="282.118612425"/>
      </g>
     </g>
     <g id="text_10">
      <!-- 3000 -->
      <g transform="translate(39.171875 285.429862425)scale(0.12 -0.12)">
       <use xlink:href="#BitstreamVeraSans-Roman-33"/>
       <use x="63.623046875" xlink:href="#BitstreamVeraSans-Roman-30"/>
       <use x="127.24609375" xlink:href="#BitstreamVeraSans-Roman-30"/>
       <use x="190.869140625" xlink:href="#BitstreamVeraSans-Roman-30"/>
      </g>
     </g>
    </g>
    <g id="ytick_3">
     <g id="line2d_23">
      <g>
       <use style="stroke:#000000;stroke-width:0.5;" x="72.0" xlink:href="#m728421d6d4" y="244.680823037"/>
      </g>
     </g>
     <g id="line2d_24">
      <g>
       <use style="stroke:#000000;stroke-width:0.5;" x="518.4" xlink:href="#mcb0005524f" y="244.680823037"/>
      </g>
     </g>
     <g id="text_11">
      <!-- 4000 -->
      <defs>
       <path d="
M37.7969 64.3125
L12.8906 25.3906
L37.7969 25.3906
z

M35.2031 72.9062
L47.6094 72.9062
L47.6094 25.3906
L58.0156 25.3906
L58.0156 17.1875
L47.6094 17.1875
L47.6094 0
L37.7969 0
L37.7969 17.1875
L4.89062 17.1875
L4.89062 26.7031
z
" id="BitstreamVeraSans-Roman-34"/>
      </defs>
      <g transform="translate(38.84375 247.992073037)scale(0.12 -0.12)">
       <use xlink:href="#BitstreamVeraSans-Roman-34"/>
       <use x="63.623046875" xlink:href="#BitstreamVeraSans-Roman-30"/>
       <use x="127.24609375" xlink:href="#BitstreamVeraSans-Roman-30"/>
       <use x="190.869140625" xlink:href="#BitstreamVeraSans-Roman-30"/>
      </g>
     </g>
    </g>
    <g id="ytick_4">
     <g id="line2d_25">
      <g>
       <use style="stroke:#000000;stroke-width:0.5;" x="72.0" xlink:href="#m728421d6d4" y="207.243033649"/>
      </g>
     </g>
     <g id="line2d_26">
      <g>
       <use style="stroke:#000000;stroke-width:0.5;" x="518.4" xlink:href="#mcb0005524f" y="207.243033649"/>
      </g>
     </g>
     <g id="text_12">
      <!-- 5000 -->
      <g transform="translate(39.183125 210.554283649)scale(0.12 -0.12)">
       <use xlink:href="#BitstreamVeraSans-Roman-35"/>
       <use x="63.623046875" xlink:href="#BitstreamVeraSans-Roman-30"/>
       <use x="127.24609375" xlink:href="#BitstreamVeraSans-Roman-30"/>
       <use x="190.869140625" xlink:href="#BitstreamVeraSans-Roman-30"/>
      </g>
     </g>
    </g>
    <g id="ytick_5">
     <g id="line2d_27">
      <g>
       <use style="stroke:#000000;stroke-width:0.5;" x="72.0" xlink:href="#m728421d6d4" y="169.805244262"/>
      </g>
     </g>
     <g id="line2d_28">
      <g>
       <use style="stroke:#000000;stroke-width:0.5;" x="518.4" xlink:href="#mcb0005524f" y="169.805244262"/>
      </g>
     </g>
     <g id="text_13">
      <!-- 6000 -->
      <g transform="translate(39.095 173.116494262)scale(0.12 -0.12)">
       <use xlink:href="#BitstreamVeraSans-Roman-36"/>
       <use x="63.623046875" xlink:href="#BitstreamVeraSans-Roman-30"/>
       <use x="127.24609375" xlink:href="#BitstreamVeraSans-Roman-30"/>
       <use x="190.869140625" xlink:href="#BitstreamVeraSans-Roman-30"/>
      </g>
     </g>
    </g>
    <g id="ytick_6">
     <g id="line2d_29">
      <g>
       <use style="stroke:#000000;stroke-width:0.5;" x="72.0" xlink:href="#m728421d6d4" y="132.367454874"/>
      </g>
     </g>
     <g id="line2d_30">
      <g>
       <use style="stroke:#000000;stroke-width:0.5;" x="518.4" xlink:href="#mcb0005524f" y="132.367454874"/>
      </g>
     </g>
     <g id="text_14">
      <!-- 7000 -->
      <defs>
       <path d="
M8.20312 72.9062
L55.0781 72.9062
L55.0781 68.7031
L28.6094 0
L18.3125 0
L43.2188 64.5938
L8.20312 64.5938
z
" id="BitstreamVeraSans-Roman-37"/>
      </defs>
      <g transform="translate(39.24125 135.678704874)scale(0.12 -0.12)">
       <use xlink:href="#BitstreamVeraSans-Roman-37"/>
       <use x="63.623046875" xlink:href="#BitstreamVeraSans-Roman-30"/>
       <use x="127.24609375" xlink:href="#BitstreamVeraSans-Roman-30"/>
       <use x="190.869140625" xlink:href="#BitstreamVeraSans-Roman-30"/>
      </g>
     </g>
    </g>
    <g id="ytick_7">
     <g id="line2d_31">
      <g>
       <use style="stroke:#000000;stroke-width:0.5;" x="72.0" xlink:href="#m728421d6d4" y="94.9296654864"/>
      </g>
     </g>
     <g id="line2d_32">
      <g>
       <use style="stroke:#000000;stroke-width:0.5;" x="518.4" xlink:href="#mcb0005524f" y="94.9296654864"/>
      </g>
     </g>
     <g id="text_15">
      <!-- 8000 -->
      <g transform="translate(39.070625 98.2409154864)scale(0.12 -0.12)">
       <use xlink:href="#BitstreamVeraSans-Roman-38"/>
       <use x="63.623046875" xlink:href="#BitstreamVeraSans-Roman-30"/>
       <use x="127.24609375" xlink:href="#BitstreamVeraSans-Roman-30"/>
       <use x="190.869140625" xlink:href="#BitstreamVeraSans-Roman-30"/>
      </g>
     </g>
    </g>
    <g id="ytick_8">
     <g id="line2d_33">
      <g>
       <use style="stroke:#000000;stroke-width:0.5;" x="72.0" xlink:href="#m728421d6d4" y="57.4918760987"/>
      </g>
     </g>
     <g id="line2d_34">
      <g>
       <use style="stroke:#000000;stroke-width:0.5;" x="518.4" xlink:href="#mcb0005524f" y="57.4918760987"/>
      </g>
     </g>
     <g id="text_16">
      <!-- 9000 -->
      <g transform="translate(39.0125 60.8031260987)scale(0.12 -0.12)">
       <use xlink:href="#BitstreamVeraSans-Roman-39"/>
       <use x="63.623046875" xlink:href="#BitstreamVeraSans-Roman-30"/>
       <use x="127.24609375" xlink:href="#BitstreamVeraSans-Roman-30"/>
       <use x="190.869140625" xlink:href="#BitstreamVeraSans-Roman-30"/>
      </g>
     </g>
    </g>
   </g>
   <g id="text_17">
    <!-- Beton -->
    <defs>
     <path d="
M56.2031 29.5938
L56.2031 25.2031
L14.8906 25.2031
Q15.4844 15.9219 20.4844 11.0625
Q25.4844 6.20312 34.4219 6.20312
Q39.5938 6.20312 44.4531 7.46875
Q49.3125 8.73438 54.1094 11.2812
L54.1094 2.78125
Q49.2656 0.734375 44.1875 -0.34375
Q39.1094 -1.42188 33.8906 -1.42188
Q20.7969 -1.42188 13.1562 6.1875
Q5.51562 13.8125 5.51562 26.8125
Q5.51562 40.2344 12.7656 48.1094
Q20.0156 56 32.3281 56
Q43.3594 56 49.7812 48.8906
Q56.2031 41.7969 56.2031 29.5938
M47.2188 32.2344
Q47.125 39.5938 43.0938 43.9844
Q39.0625 48.3906 32.4219 48.3906
Q24.9062 48.3906 20.3906 44.1406
Q15.875 39.8906 15.1875 32.1719
z
" id="BitstreamVeraSans-Roman-65"/>
     <path d="
M54.8906 33.0156
L54.8906 0
L45.9062 0
L45.9062 32.7188
Q45.9062 40.4844 42.875 44.3281
Q39.8438 48.1875 33.7969 48.1875
Q26.5156 48.1875 22.3125 43.5469
Q18.1094 38.9219 18.1094 30.9062
L18.1094 0
L9.07812 0
L9.07812 54.6875
L18.1094 54.6875
L18.1094 46.1875
Q21.3438 51.125 25.7031 53.5625
Q30.0781 56 35.7969 56
Q45.2188 56 50.0469 50.1719
Q54.8906 44.3438 54.8906 33.0156" id="BitstreamVeraSans-Roman-6e"/>
     <path d="
M19.6719 34.8125
L19.6719 8.10938
L35.5 8.10938
Q43.4531 8.10938 47.2812 11.4062
Q51.125 14.7031 51.125 21.4844
Q51.125 28.3281 47.2812 31.5625
Q43.4531 34.8125 35.5 34.8125
z

M19.6719 64.7969
L19.6719 42.8281
L34.2812 42.8281
Q41.5 42.8281 45.0312 45.5312
Q48.5781 48.25 48.5781 53.8125
Q48.5781 59.3281 45.0312 62.0625
Q41.5 64.7969 34.2812 64.7969
z

M9.8125 72.9062
L35.0156 72.9062
Q46.2969 72.9062 52.3906 68.2188
Q58.5 63.5312 58.5 54.8906
Q58.5 48.1875 55.375 44.2344
Q52.25 40.2812 46.1875 39.3125
Q53.4688 37.75 57.5 32.7812
Q61.5312 27.8281 61.5312 20.4062
Q61.5312 10.6406 54.8906 5.3125
Q48.25 0 35.9844 0
L9.8125 0
z
" id="BitstreamVeraSans-Roman-42"/>
    </defs>
    <g transform="translate(478.71225 38.2)scale(0.144 -0.144)">
     <use xlink:href="#BitstreamVeraSans-Roman-42"/>
     <use x="68.603515625" xlink:href="#BitstreamVeraSans-Roman-65"/>
     <use x="130.126953125" xlink:href="#BitstreamVeraSans-Roman-74"/>
     <use x="169.3359375" xlink:href="#BitstreamVeraSans-Roman-6f"/>
     <use x="230.517578125" xlink:href="#BitstreamVeraSans-Roman-6e"/>
    </g>
   </g>
   <g id="legend_1">
    <g id="patch_7">
     <path d="
M123.942 423.616
L466.458 423.616
L466.458 398.16
L123.942 398.16
z
" style="fill:#ffffff;stroke:#000000;stroke-linejoin:miter;"/>
    </g>
    <g id="line2d_35">
     <path d="
M134.022 409.822
L154.182 409.822" style="fill:none;stroke:#ff0000;stroke-linecap:square;"/>
    </g>
    <g id="line2d_36"/>
    <g id="text_18">
     <!-- Schwarzmarktpreis -->
     <defs>
      <path d="
M34.2812 27.4844
Q23.3906 27.4844 19.1875 25
Q14.9844 22.5156 14.9844 16.5
Q14.9844 11.7188 18.1406 8.90625
Q21.2969 6.10938 26.7031 6.10938
Q34.1875 6.10938 38.7031 11.4062
Q43.2188 16.7031 43.2188 25.4844
L43.2188 27.4844
z

M52.2031 31.2031
L52.2031 0
L43.2188 0
L43.2188 8.29688
Q40.1406 3.32812 35.5469 0.953125
Q30.9531 -1.42188 24.3125 -1.42188
Q15.9219 -1.42188 10.9531 3.29688
Q6 8.01562 6 15.9219
Q6 25.1406 12.1719 29.8281
Q18.3594 34.5156 30.6094 34.5156
L43.2188 34.5156
L43.2188 35.4062
Q43.2188 41.6094 39.1406 45
Q35.0625 48.3906 27.6875 48.3906
Q23 48.3906 18.5469 47.2656
Q14.1094 46.1406 10.0156 43.8906
L10.0156 52.2031
Q14.9375 54.1094 19.5781 55.0469
Q24.2188 56 28.6094 56
Q40.4844 56 46.3438 49.8438
Q52.2031 43.7031 52.2031 31.2031" id="BitstreamVeraSans-Roman-61"/>
      <path d="
M5.51562 54.6875
L48.1875 54.6875
L48.1875 46.4844
L14.4062 7.17188
L48.1875 7.17188
L48.1875 0
L4.29688 0
L4.29688 8.20312
L38.0938 47.5156
L5.51562 47.5156
z
" id="BitstreamVeraSans-Roman-7a"/>
      <path d="
M53.5156 70.5156
L53.5156 60.8906
Q47.9062 63.5781 42.9219 64.8906
Q37.9375 66.2188 33.2969 66.2188
Q25.25 66.2188 20.875 63.0938
Q16.5 59.9688 16.5 54.2031
Q16.5 49.3594 19.4062 46.8906
Q22.3125 44.4375 30.4219 42.9219
L36.375 41.7031
Q47.4062 39.5938 52.6562 34.2969
Q57.9062 29 57.9062 20.125
Q57.9062 9.51562 50.7969 4.04688
Q43.7031 -1.42188 29.9844 -1.42188
Q24.8125 -1.42188 18.9688 -0.25
Q13.1406 0.921875 6.89062 3.21875
L6.89062 13.375
Q12.8906 10.0156 18.6562 8.29688
Q24.4219 6.59375 29.9844 6.59375
Q38.4219 6.59375 43.0156 9.90625
Q47.6094 13.2344 47.6094 19.3906
Q47.6094 24.75 44.3125 27.7812
Q41.0156 30.8125 33.5 32.3281
L27.4844 33.5
Q16.4531 35.6875 11.5156 40.375
Q6.59375 45.0625 6.59375 53.4219
Q6.59375 63.0938 13.4062 68.6562
Q20.2188 74.2188 32.1719 74.2188
Q37.3125 74.2188 42.625 73.2812
Q47.9531 72.3594 53.5156 70.5156" id="BitstreamVeraSans-Roman-53"/>
      <path d="
M9.42188 54.6875
L18.4062 54.6875
L18.4062 0
L9.42188 0
z

M9.42188 75.9844
L18.4062 75.9844
L18.4062 64.5938
L9.42188 64.5938
z
" id="BitstreamVeraSans-Roman-69"/>
      <path d="
M54.8906 33.0156
L54.8906 0
L45.9062 0
L45.9062 32.7188
Q45.9062 40.4844 42.875 44.3281
Q39.8438 48.1875 33.7969 48.1875
Q26.5156 48.1875 22.3125 43.5469
Q18.1094 38.9219 18.1094 30.9062
L18.1094 0
L9.07812 0
L9.07812 75.9844
L18.1094 75.9844
L18.1094 46.1875
Q21.3438 51.125 25.7031 53.5625
Q30.0781 56 35.7969 56
Q45.2188 56 50.0469 50.1719
Q54.8906 44.3438 54.8906 33.0156" id="BitstreamVeraSans-Roman-68"/>
      <path d="
M52 44.1875
Q55.375 50.25 60.0625 53.125
Q64.75 56 71.0938 56
Q79.6406 56 84.2812 50.0156
Q88.9219 44.0469 88.9219 33.0156
L88.9219 0
L79.8906 0
L79.8906 32.7188
Q79.8906 40.5781 77.0938 44.375
Q74.3125 48.1875 68.6094 48.1875
Q61.625 48.1875 57.5625 43.5469
Q53.5156 38.9219 53.5156 30.9062
L53.5156 0
L44.4844 0
L44.4844 32.7188
Q44.4844 40.625 41.7031 44.4062
Q38.9219 48.1875 33.1094 48.1875
Q26.2188 48.1875 22.1562 43.5312
Q18.1094 38.875 18.1094 30.9062
L18.1094 0
L9.07812 0
L9.07812 54.6875
L18.1094 54.6875
L18.1094 46.1875
Q21.1875 51.2188 25.4844 53.6094
Q29.7812 56 35.6875 56
Q41.6562 56 45.8281 52.9688
Q50 49.9531 52 44.1875" id="BitstreamVeraSans-Roman-6d"/>
      <path d="
M4.20312 54.6875
L13.1875 54.6875
L24.4219 12.0156
L35.5938 54.6875
L46.1875 54.6875
L57.4219 12.0156
L68.6094 54.6875
L77.5938 54.6875
L63.2812 0
L52.6875 0
L40.9219 44.8281
L29.1094 0
L18.5 0
z
" id="BitstreamVeraSans-Roman-77"/>
      <path d="
M9.07812 75.9844
L18.1094 75.9844
L18.1094 31.1094
L44.9219 54.6875
L56.3906 54.6875
L27.3906 29.1094
L57.625 0
L45.9062 0
L18.1094 26.7031
L18.1094 0
L9.07812 0
z
" id="BitstreamVeraSans-Roman-6b"/>
      <path d="
M41.1094 46.2969
Q39.5938 47.1719 37.8125 47.5781
Q36.0312 48 33.8906 48
Q26.2656 48 22.1875 43.0469
Q18.1094 38.0938 18.1094 28.8125
L18.1094 0
L9.07812 0
L9.07812 54.6875
L18.1094 54.6875
L18.1094 46.1875
Q20.9531 51.1719 25.4844 53.5781
Q30.0312 56 36.5312 56
Q37.4531 56 38.5781 55.875
Q39.7031 55.7656 41.0625 55.5156
z
" id="BitstreamVeraSans-Roman-72"/>
      <path d="
M44.2812 53.0781
L44.2812 44.5781
Q40.4844 46.5312 36.375 47.5
Q32.2812 48.4844 27.875 48.4844
Q21.1875 48.4844 17.8438 46.4375
Q14.5 44.3906 14.5 40.2812
Q14.5 37.1562 16.8906 35.375
Q19.2812 33.5938 26.5156 31.9844
L29.5938 31.2969
Q39.1562 29.25 43.1875 25.5156
Q47.2188 21.7812 47.2188 15.0938
Q47.2188 7.46875 41.1875 3.01562
Q35.1562 -1.42188 24.6094 -1.42188
Q20.2188 -1.42188 15.4531 -0.5625
Q10.6875 0.296875 5.42188 2
L5.42188 11.2812
Q10.4062 8.6875 15.2344 7.39062
Q20.0625 6.10938 24.8125 6.10938
Q31.1562 6.10938 34.5625 8.28125
Q37.9844 10.4531 37.9844 14.4062
Q37.9844 18.0625 35.5156 20.0156
Q33.0625 21.9688 24.7031 23.7812
L21.5781 24.5156
Q13.2344 26.2656 9.51562 29.9062
Q5.8125 33.5469 5.8125 39.8906
Q5.8125 47.6094 11.2812 51.7969
Q16.75 56 26.8125 56
Q31.7812 56 36.1719 55.2656
Q40.5781 54.5469 44.2812 53.0781" id="BitstreamVeraSans-Roman-73"/>
      <path d="
M18.1094 8.20312
L18.1094 -20.7969
L9.07812 -20.7969
L9.07812 54.6875
L18.1094 54.6875
L18.1094 46.3906
Q20.9531 51.2656 25.2656 53.625
Q29.5938 56 35.5938 56
Q45.5625 56 51.7812 48.0938
Q58.0156 40.1875 58.0156 27.2969
Q58.0156 14.4062 51.7812 6.48438
Q45.5625 -1.42188 35.5938 -1.42188
Q29.5938 -1.42188 25.2656 0.953125
Q20.9531 3.32812 18.1094 8.20312
M48.6875 27.2969
Q48.6875 37.2031 44.6094 42.8438
Q40.5312 48.4844 33.4062 48.4844
Q26.2656 48.4844 22.1875 42.8438
Q18.1094 37.2031 18.1094 27.2969
Q18.1094 17.3906 22.1875 11.75
Q26.2656 6.10938 33.4062 6.10938
Q40.5312 6.10938 44.6094 11.75
Q48.6875 17.3906 48.6875 27.2969" id="BitstreamVeraSans-Roman-70"/>
     </defs>
     <g transform="translate(170.022375 414.86175)scale(0.144 -0.144)">
      <use xlink:href="#BitstreamVeraSans-Roman-53"/>
      <use x="63.4765625" xlink:href="#BitstreamVeraSans-Roman-63"/>
      <use x="118.45703125" xlink:href="#BitstreamVeraSans-Roman-68"/>
      <use x="181.8359375" xlink:href="#BitstreamVeraSans-Roman-77"/>
      <use x="263.623046875" xlink:href="#BitstreamVeraSans-Roman-61"/>
      <use x="324.90234375" xlink:href="#BitstreamVeraSans-Roman-72"/>
      <use x="366.015625" xlink:href="#BitstreamVeraSans-Roman-7a"/>
      <use x="418.505859375" xlink:href="#BitstreamVeraSans-Roman-6d"/>
      <use x="515.91796875" xlink:href="#BitstreamVeraSans-Roman-61"/>
      <use x="577.197265625" xlink:href="#BitstreamVeraSans-Roman-72"/>
      <use x="618.310546875" xlink:href="#BitstreamVeraSans-Roman-6b"/>
      <use x="676.220703125" xlink:href="#BitstreamVeraSans-Roman-74"/>
      <use x="715.4296875" xlink:href="#BitstreamVeraSans-Roman-70"/>
      <use x="778.90625" xlink:href="#BitstreamVeraSans-Roman-72"/>
      <use x="817.76953125" xlink:href="#BitstreamVeraSans-Roman-65"/>
      <use x="879.29296875" xlink:href="#BitstreamVeraSans-Roman-69"/>
      <use x="907.076171875" xlink:href="#BitstreamVeraSans-Roman-73"/>
     </g>
    </g>
    <g id="line2d_37">
     <path d="
M339.609 409.822
L359.769 409.822" style="fill:none;stroke:#008000;stroke-linecap:square;"/>
    </g>
    <g id="line2d_38"/>
    <g id="text_19">
     <!-- Normalpreis -->
     <defs>
      <path d="
M9.42188 75.9844
L18.4062 75.9844
L18.4062 0
L9.42188 0
z
" id="BitstreamVeraSans-Roman-6c"/>
     </defs>
     <g transform="translate(375.609375 414.86175)scale(0.144 -0.144)">
      <use xlink:href="#BitstreamVeraSans-Roman-4e"/>
      <use x="74.8046875" xlink:href="#BitstreamVeraSans-Roman-6f"/>
      <use x="135.986328125" xlink:href="#BitstreamVeraSans-Roman-72"/>
      <use x="175.349609375" xlink:href="#BitstreamVeraSans-Roman-6d"/>
      <use x="272.76171875" xlink:href="#BitstreamVeraSans-Roman-61"/>
      <use x="334.041015625" xlink:href="#BitstreamVeraSans-Roman-6c"/>
      <use x="361.82421875" xlink:href="#BitstreamVeraSans-Roman-70"/>
      <use x="425.30078125" xlink:href="#BitstreamVeraSans-Roman-72"/>
      <use x="464.1640625" xlink:href="#BitstreamVeraSans-Roman-65"/>
      <use x="525.6875" xlink:href="#BitstreamVeraSans-Roman-69"/>
      <use x="553.470703125" xlink:href="#BitstreamVeraSans-Roman-73"/>
     </g>
    </g>
   </g>
  </g>
 </g>
 <defs>
  <clipPath id="pcb2bf987bf">
   <rect height="302.4" width="446.4" x="72.0" y="43.2"/>
  </clipPath>
 </defs>
</svg>
