<?xml version="1.0" encoding="utf-8" standalone="no"?>
<!DOCTYPE svg PUBLIC "-//W3C//DTD SVG 1.1//EN"
  "http://www.w3.org/Graphics/SVG/1.1/DTD/svg11.dtd">
<!-- Created with matplotlib (http://matplotlib.org/) -->
<svg height="432pt" version="1.1" viewBox="0 0 576 432" width="576pt" xmlns="http://www.w3.org/2000/svg" xmlns:xlink="http://www.w3.org/1999/xlink">
 <defs>
  <style type="text/css">
*{stroke-linecap:butt;stroke-linejoin:round;}
  </style>
 </defs>
 <g id="figure_1">
  <g id="patch_1">
   <path d="
M0 432
L576 432
L576 0
L0 0
z
" style="fill:#ffffff;"/>
  </g>
  <g id="axes_1">
   <g id="patch_2">
    <path d="
M72 345.6
L518.4 345.6
L518.4 43.2
L72 43.2
z
" style="fill:#ffffff;"/>
   </g>
   <g id="line2d_1">
    <path clip-path="url(#pcb2bf987bf)" d="
M72 309.003
L72.1276 309.003
L72.3828 307.842
L72.8933 312.532
L73.1485 308.391
L73.2762 312.219
L73.5314 310.352
L73.659 306.509
L73.9142 311.999
L74.0419 311.842
L74.2971 311.999
L74.4247 311.215
L74.6799 312.376
L75.1904 311.215
L75.4456 309.881
L75.5732 306.587
L75.8285 307.529
L75.9561 305.646
L76.2113 306.352
L76.3389 305.882
L76.5942 311.293
L76.9772 309.568
L77.3599 309.411
L77.7429 302.901
L77.8703 303.591
L78.2532 310.195
L78.5084 309.097
L78.636 306.823
L79.0189 303.999
L79.4017 308.705
L79.6569 307.764
L79.7846 308.47
L80.0398 308.47
L80.1674 307.764
L80.4226 308.234
L80.5503 308.705
L80.9331 306.572
L81.1885 310.195
L81.316 309.489
L81.6988 313.411
L81.9542 311.528
L82.0816 316.626
L82.4645 315.058
L82.7197 320.846
L82.8473 320.689
L83.1026 320.705
L83.2302 320.532
L83.613 315.685
L83.8683 315.215
L83.9959 314.744
L84.2511 312.548
L84.3787 269.882
L84.6342 312.548
L85.017 311.591
L85.1444 309.725
L85.3999 309.097
L85.5273 309.254
L85.7825 314.666
L85.9101 314.901
L86.293 315.136
L86.5482 315.121
L86.6758 314.509
L86.931 314.179
L87.0587 312.862
L87.3139 315.121
L87.4415 313.489
L87.6967 314.823
L88.0796 312.47
L88.2072 305.725
L88.4624 312.077
L88.5901 309.725
L88.8453 311.293
L88.8453 311.293
L89.3557 305.944
L89.611 305.489
L89.7386 301.019
L89.9938 305.882
L89.9938 305.882
L90.2491 304.548
L90.3767 304.548
L91.0148 308.078
L91.9081 310.195
L92.6738 303.842
L93.3118 309.568
L94.0775 305.176
L94.2051 313.019
L94.9708 308.078
L95.6089 309.097
L95.7365 313.881
L96.3746 310.587
L97.1403 311.764
L98.0336 302.98
L98.6717 309.019
L98.7993 304.391
L99.4374 307.607
L100.203 307.356
L100.969 306.117
L101.734 311.136
L101.862 310.979
L102.5 315.058
L103.266 314.117
L103.393 313.489
L104.032 311.764
L104.797 316.532
L105.563 315.999
L106.329 307.764
L107.988 312.783
L108.626 311.842
L109.391 311.372
L109.519 310.979
L110.157 308.47
L110.285 307.45
L110.923 311.607
L111.05 310.979
L111.689 309.254
L111.816 311.293
L113.986 310.979
L114.879 304.47
L116.283 308.94
L116.41 308.94
L117.048 311.607
L117.942 307.999
L118.58 306.823
L120.111 318.822
L120.877 317.097
L121.004 318.195
L121.643 316.156
L122.408 317.395
L122.536 314.744
L123.174 311.293
L123.94 315.842
L124.067 315.528
L124.705 317.16
L125.471 315.905
L126.109 316.391
L126.365 314.666
L127.002 307.293
L127.13 313.175
L127.13 313.175
L127.64 314.195
L127.64 314.195
L127.768 314.979
L128.534 315.999
L128.661 314.901
L129.299 313.411
L130.065 306.901
L130.193 311.67
L130.831 313.254
L131.597 307.293
L132.362 312.548
L132.362 312.548
L133.894 311.685
L134.149 309.881
L134.659 313.489
L135.425 312.391
L136.191 313.646
L136.318 312.846
L136.956 302.274
L137.722 314.274
L138.488 309.881
L139.254 313.175
L139.381 312.234
L140.019 311.45
L140.785 313.63
L141.551 315.372
L141.678 313.96
L142.316 313.725
L143.082 313.709
L143.848 315.999
L143.975 315.372
L144.613 314.901
L145.379 313.019
L145.507 304.548
L146.145 311.842
L146.272 311.999
L146.91 310.038
L147.038 301.254
L147.676 316.862
L148.442 317.411
L149.335 313.803
L149.973 316.391
L150.739 312.234
L150.867 317.348
L151.505 317.411
L152.27 314.901
L153.164 308.313
L153.802 312.313
L154.567 310.509
L155.333 319.685
L155.333 319.685
L156.099 309.097
L156.865 315.826
L157.758 314.117
L158.396 311.607
L159.162 311.607
L159.927 316.783
L160.693 317.097
L160.821 316.47
L162.224 316.548
L162.99 320.234
L163.118 317.803
L163.883 313.568
L164.521 311.215
L164.649 309.881
L165.287 311.842
L166.053 315.842
L166.819 315.293
L167.584 309.097
L167.712 316.626
L168.35 315.058
L169.116 317.332
L169.243 308.234
L169.881 315.513
L170.647 307.529
L170.775 315.685
L171.413 315.528
L172.178 314.979
L172.944 315.528
L173.072 314.117
L173.71 314.587
L174.475 313.803
L174.603 316.47
L176.007 301.489
L176.773 320.94
L176.9 320.783
L177.538 318.117
L178.304 316.626
L179.07 320.469
L179.835 317.568
L179.963 318.022
L180.601 315.999
L180.729 314.901
L181.367 312.234
L182.132 315.528
L182.26 315.215
L182.898 314.038
L183.664 317.881
L183.791 319.685
L184.43 317.019
L185.195 316.313
L185.961 318.195
L186.727 317.489
L187.492 316.47
L188.258 313.803
L189.024 317.724
L189.151 316.862
L190.555 313.175
L191.321 315.921
L191.321 315.921
L192.852 310.979
L193.618 315.826
L194.384 315.215
L195.149 318.822
L195.915 317.881
L198.212 317.881
L198.212 317.881
L198.978 318.509
L200.509 318.038
L201.275 308.705
L202.04 317.411
L202.806 318.807
L203.572 318.822
L203.699 318.979
L204.338 319.136
L205.231 319.92
L205.869 317.803
L205.997 320.234
L206.124 318.195
L206.635 315.999
L206.635 315.999
L206.762 317.881
L207.4 317.254
L207.911 317.881
L208.166 320.077
L208.804 318.509
L209.059 316.313
L209.059 316.313
L209.442 318.979
L209.57 318.509
L209.825 318.822
L210.846 315.685
L211.356 321.489
L211.739 318.195
L211.867 317.724
L212.122 317.568
L212.25 316.783
L212.505 317.097
L212.633 316.313
L212.888 316.783
L213.398 320.077
L213.781 320.705
L214.036 321.332
L214.164 321.175
L214.419 321.332
L214.547 321.599
L214.93 320.862
L215.185 318.65
L215.185 318.65
L215.313 318.979
L215.568 319.136
L215.695 318.822
L215.951 317.881
L215.951 317.881
L216.078 320.862
L216.333 320.219
L216.461 319.058
L216.589 319.92
L216.589 319.92
L216.844 319.764
L217.099 320.705
L217.227 320.077
L217.61 314.352
L217.865 315.058
L217.992 316.313
L218.375 308.94
L218.631 316.391
L218.758 316.47
L219.013 319.764
L219.141 319.293
L219.396 317.568
L219.779 313.332
L219.907 317.489
L220.162 317.724
L220.29 320.501
L220.29 320.501
L220.545 317.568
L220.672 317.254
L220.672 317.254
L220.928 317.097
L221.055 315.67
L221.31 320.517
L221.438 320.391
L221.693 317.881
L222.076 318.038
L222.204 317.019
L222.459 318.666
L222.587 318.509
L222.842 318.509
L222.842 318.509
L223.225 317.411
L223.352 319.685
L223.608 318.195
L223.735 316.783
L223.99 315.372
L224.118 316.156
L224.373 319.92
L224.501 320.062
L224.884 317.724
L225.139 319.607
L225.267 319.136
L225.522 319.764
L225.649 319.45
L225.649 319.45
L225.777 313.803
L225.777 313.803
L225.905 319.56
L225.905 319.56
L226.032 319.136
L226.032 319.136
L226.16 313.019
L226.16 313.019
L226.288 318.932
L226.415 318.791
L226.415 318.791
L226.67 318.273
L226.798 317.568
L227.053 317.411
L227.181 315.356
L227.436 318.195
L227.436 318.195
L227.819 318.509
L227.946 313.725
L228.202 318.352
L228.329 312.077
L228.585 318.509
L228.712 318.038
L228.967 318.822
L229.478 316.626
L229.733 318.964
L229.861 318.509
L230.116 318.493
L230.244 317.411
L230.499 317.568
L230.499 317.568
L230.882 317.254
L231.009 318.352
L231.392 318.038
L231.647 318.195
L231.775 317.097
L232.03 317.709
L232.158 316.94
L232.413 316.47
L232.541 317.254
L232.796 315.058
L232.796 315.058
L232.924 311.764
L233.306 318.822
L233.562 320.077
L233.944 319.293
L234.072 321.724
L234.327 316.94
L234.327 316.94
L234.455 309.097
L234.71 319.764
L234.838 319.136
L235.093 319.277
L235.093 319.277
L235.221 317.552
L235.476 317.175
L235.603 313.803
L235.859 318.509
L235.859 318.509
L235.986 316.862
L236.242 318.273
L236.369 318.117
L236.752 316.626
L237.007 321.097
L237.135 320.25
L237.518 315.215
L237.773 319.764
L237.901 318.666
L238.156 318.901
L238.539 317.097
L238.666 311.842
L238.921 319.748
L239.049 319.607
L239.304 319.92
L239.432 319.764
L239.687 321.254
L239.815 320.156
L240.07 320.454
L240.198 319.685
L240.58 319.748
L240.836 319.45
L240.963 319.058
L241.219 320.077
L241.346 319.999
L241.729 318.587
L241.984 315.842
L242.112 317.489
L242.367 316.548
L242.495 316.626
L242.75 317.019
L242.878 316.862
L243.133 323.528
L243.26 320.077
L243.516 322.038
L243.643 321.332
L243.898 318.195
L244.026 319.92
L244.281 317.724
L244.409 309.881
L244.664 316.783
L244.792 316.626
L245.047 317.724
L245.047 317.724
L245.175 318.964
L245.43 316.94
L245.557 318.666
L245.813 317.724
L245.94 320.077
L246.196 320.077
L246.706 319.607
L246.961 318.195
L247.089 316.783
L247.344 315.842
L247.727 319.607
L247.855 319.293
L248.237 319.607
L248.876 314.901
L248.876 314.901
L249.258 317.881
L249.769 315.528
L250.024 315.372
L250.152 315.058
L250.407 315.528
L250.534 301.019
L250.79 317.568
L250.917 317.097
L251.173 316.783
L251.3 319.92
L251.555 321.175
L251.683 320.705
L251.938 322.744
L252.066 321.646
L252.321 321.881
L252.449 322.571
L252.704 322.587
L252.832 318.524
L253.087 317.568
L253.214 311.921
L253.47 317.097
L253.597 322.728
L253.852 321.332
L253.98 319.293
L254.235 322.807
L254.618 321.411
L254.746 324.783
L255.001 324.783
L255.129 321.567
L255.129 321.567
L255.384 321.332
L255.511 324.783
L255.511 324.783
L255.767 319.999
L255.767 319.999
L255.894 323.434
L256.532 316.94
L256.66 319.293
L256.66 319.293
L256.915 319.136
L257.043 317.881
L257.298 317.254
L257.426 320.234
L257.809 323.293
L258.064 321.567
L258.064 321.567
L258.447 320.156
L258.702 316.783
L258.83 317.96
L258.957 322.587
L259.212 312.234
L259.34 320.234
L259.723 316.862
L259.978 321.489
L260.106 320.705
L260.489 317.097
L260.744 318.038
L260.871 316.626
L261.127 316.313
L261.254 315.528
L261.509 315.372
L261.892 321.018
L262.02 318.509
L262.403 315.528
L262.658 317.881
L262.786 315.215
L263.041 315.842
L263.168 314.352
L263.424 319.371
L263.424 319.371
L263.551 316.783
L263.807 318.744
L263.934 317.724
L264.189 317.693
L264.189 317.693
L264.317 317.097
L264.572 318.666
L264.7 317.96
L264.955 319.45
L264.955 319.45
L265.338 316.94
L265.848 313.646
L266.231 307.215
L266.486 312.94
L266.614 312.626
L266.869 315.999
L266.997 313.332
L267.252 312.862
L267.38 314.587
L267.635 310.666
L267.763 315.528
L268.018 315.058
L268.145 318.822
L268.528 310.979
L268.784 311.136
L269.166 310.195
L269.294 309.097
L269.677 319.764
L269.932 315.999
L270.06 319.607
L270.315 318.195
L270.443 316.47
L270.698 319.293
L270.825 319.136
L271.081 317.881
L271.463 316.94
L271.974 313.646
L272.357 316.924
L272.74 316.313
L273.122 314.744
L273.378 315.999
L273.378 315.999
L273.506 315.528
L273.761 313.175
L273.888 313.646
L274.143 313.332
L274.271 312.234
L274.526 313.96
L274.654 313.803
L274.909 316.156
L274.909 316.156
L275.037 315.528
L275.292 316.313
L275.675 315.058
L275.802 315.999
L276.058 315.215
L276.185 315.999
L276.441 319.858
L276.568 318.195
L277.206 317.568
L277.334 319.764
L277.589 316.626
L277.717 318.352
L277.972 308.94
L277.972 308.94
L278.099 316.391
L278.355 317.097
L278.482 316.313
L278.738 319.12
L278.865 318.666
L279.248 315.528
L279.503 319.136
L279.631 319.215
L279.886 317.96
L280.014 316.313
L280.269 316.156
L280.269 316.156
L280.397 314.901
L280.779 316.297
L281.035 316.705
L281.035 316.705
L281.545 313.803
L282.311 316.548
L282.566 57.7291
L282.694 316.94
L283.077 314.587
L283.332 316.705
L283.459 316.783
L283.715 314.901
L283.842 315.058
L284.097 315.058
L284.225 318.195
L284.48 319.12
L284.608 314.901
L284.736 319.215
L285.246 316.783
L285.374 317.803
L285.629 318.571
L285.756 315.921
L286.139 318.368
L286.395 318.352
L286.522 317.097
L286.777 318.038
L286.905 316.783
L287.288 316.47
L287.543 316.47
L287.671 317.411
L288.309 316.47
L288.437 317.568
L288.692 317.254
L288.819 318.038
L289.074 317.411
L289.202 315.842
L289.457 316.626
L289.585 316.156
L289.84 318.195
L289.968 317.85
L290.223 318.117
L290.351 316.313
L290.606 316.47
L290.733 315.999
L290.861 314.587
L290.989 317.881
L291.116 317.411
L291.372 314.117
L291.499 319.215
L291.754 319.058
L292.265 319.183
L292.648 317.097
L293.031 315.999
L293.286 315.999
L293.286 315.999
L293.413 315.842
L293.796 317.097
L294.051 316.94
L294.051 316.94
L294.179 315.842
L294.562 316.47
L294.817 316.626
L294.817 316.626
L294.945 317.724
L295.328 303.136
L295.583 316.313
L295.71 313.96
L295.966 315.999
L296.349 316.375
L296.476 315.45
L296.731 316.783
L296.859 299.764
L297.114 319.371
L297.242 319.215
L297.625 315.372
L297.88 317.175
L298.263 314.038
L298.39 315.607
L298.646 316.705
L298.773 315.764
L299.028 314.979
L299.156 313.881
L299.539 313.097
L299.794 308.94
L299.922 313.489
L300.177 312.611
L300.177 312.611
L300.305 314.979
L300.56 316.313
L300.687 313.646
L300.943 313.646
L301.07 317.96
L301.326 317.96
L301.453 318.493
L302.091 315.528
L302.219 308.705
L302.474 315.528
L302.474 315.528
L302.857 307.999
L302.985 308.234
L303.112 307.764
L303.368 308.234
L303.623 315.058
L303.75 313.803
L304.005 316.313
L304.005 316.313
L304.133 316.313
L304.388 315.685
L304.771 312.391
L304.899 313.803
L305.154 313.803
L305.282 314.587
L305.664 313.003
L305.92 314.587
L306.047 301.254
L306.43 318.493
L306.685 317.724
L306.813 315.058
L307.068 317.866
L307.068 317.866
L307.196 317.238
L307.451 317.881
L307.579 317.097
L307.834 316.313
L307.962 317.411
L308.217 317.411
L308.344 316.313
L308.6 312.705
L308.6 312.705
L308.727 316.391
L308.983 315.764
L309.11 315.764
L309.365 314.509
L309.493 316.391
L309.748 313.881
L309.876 316.626
L310.131 314.43
L310.131 314.43
L310.259 316.783
L310.514 316.234
L310.642 315.136
L310.897 304.47
L311.024 306.744
L311.407 316.626
L311.662 316.532
L312.428 310.666
L312.556 311.607
L312.811 318.352
L312.939 318.352
L313.194 317.646
L313.704 314.964
L313.96 311.921
L314.087 314.274
L314.342 311.45
L314.47 316.626
L314.725 315.136
L314.853 315.764
L315.236 309.254
L315.491 307.999
L315.619 310.038
L315.874 315.921
L316.257 316.156
L316.384 315.372
L316.767 314.744
L317.022 316.626
L317.15 314.587
L317.405 314.274
L317.533 313.097
L317.788 315.293
L317.916 315.136
L318.171 313.803
L318.298 309.176
L318.554 313.411
L318.554 313.411
L318.681 310.901
L318.937 313.019
L319.064 311.764
L319.319 315.607
L319.319 315.607
L319.447 315.45
L319.702 316.548
L319.83 313.881
L320.213 317.332
L320.596 317.003
L320.851 315.921
L320.851 315.921
L321.234 312.626
L321.361 314.979
L321.616 315.215
L321.999 312.077
L322.127 314.117
L322.765 313.96
L322.893 315.607
L323.148 315.921
L323.275 318.273
L323.531 316.94
L323.658 317.803
L323.914 315.215
L324.041 315.215
L324.296 318.509
L324.424 317.724
L324.807 314.901
L325.062 315.215
L325.445 313.254
L325.828 317.724
L325.956 318.038
L326.211 318.352
L326.593 313.489
L326.721 318.509
L326.976 313.568
L327.359 318.352
L327.487 316.94
L327.742 316.94
L327.87 315.685
L328.125 315.528
L328.508 314.43
L328.635 315.199
L328.891 314.823
L329.018 313.881
L329.273 313.411
L329.401 312.548
L329.656 315.058
L329.784 312.234
L330.039 313.019
L330.167 310.823
L330.422 310.101
L330.55 310.587
L330.933 316.156
L331.188 314.901
L331.315 316.783
L331.57 318.509
L331.698 317.081
L331.953 315.685
L332.081 316.783
L332.336 315.528
L332.464 315.685
L332.719 316.391
L332.847 316.077
L333.102 315.999
L333.23 315.528
L333.612 318.666
L333.868 285.568
L333.995 315.842
L334.25 316.909
L334.378 316.626
L334.633 315.685
L334.761 316.14
L335.016 316.156
L335.144 316.47
L335.399 315.999
L335.527 311.607
L335.782 310.336
L335.909 314.587
L336.165 308.705
L336.292 316.077
L336.548 315.999
L336.675 315.685
L336.93 318.352
L337.058 318.352
L337.313 316.626
L337.441 317.254
L337.824 315.215
L338.079 316.862
L338.462 315.685
L338.589 314.587
L338.845 313.489
L338.972 318.038
L339.227 318.493
L339.355 318.352
L339.61 316.234
L339.738 317.881
L339.866 317.724
L340.121 317.097
L340.376 317.097
L340.504 316.94
L340.759 308.705
L340.886 316.924
L341.142 315.528
L341.269 313.474
L341.525 318.352
L341.652 313.489
L341.907 318.352
L342.29 317.097
L342.418 317.568
L342.673 317.724
L342.801 318.195
L343.056 313.332
L343.184 313.175
L343.566 318.477
L343.822 319.277
L343.822 319.277
L344.332 319.277
L344.588 312.94
L344.715 319.277
L344.97 319.277
L345.098 316.313
L345.353 317.175
L345.353 317.175
L345.481 319.277
L345.736 318.195
L345.863 318.509
L346.246 314.43
L346.502 318.509
L346.629 317.097
L346.884 317.097
L346.884 317.097
L347.012 319.277
L347.395 312.077
L347.65 311.372
L347.778 312.548
L348.033 313.489
L348.416 311.921
L348.543 310.823
L348.926 309.725
L349.181 311.607
L349.309 311.607
L349.564 310.979
L349.692 309.097
L349.947 311.905
L350.075 310.901
L350.33 311.999
L350.458 311.842
L350.713 316.768
L350.84 315.921
L351.096 316.47
L351.224 316.47
L351.606 315.999
L351.861 317.568
L351.989 317.254
L352.372 315.215
L352.627 316.783
L352.755 319.293
L353.01 318.666
L353.138 318.038
L353.393 318.038
L353.52 308.705
L353.776 319.293
L353.776 319.293
L354.158 318.948
L354.286 319.293
L354.541 318.352
L354.669 317.411
L354.924 319.293
L355.052 317.568
L355.307 316.626
L355.307 316.626
L355.435 317.881
L355.69 316.626
L355.817 315.372
L356.073 315.842
L356.073 315.842
L356.2 316.313
L356.583 316.313
L356.838 316.156
L356.966 318.022
L357.477 316.156
L357.732 315.685
L357.987 317.097
L358.115 315.826
L358.37 317.081
L358.37 317.081
L358.497 316.454
L358.753 316.313
L358.88 315.842
L359.136 317.881
L359.263 317.568
L359.518 317.489
L359.646 312.219
L360.029 317.411
L360.284 316.94
L360.412 316.94
L360.667 318.43
L360.795 317.787
L361.05 309.097
L361.177 308.94
L361.433 316.156
L361.816 315.372
L361.943 317.254
L362.198 317.254
L362.326 313.254
L362.964 317.019
L363.092 316.156
L363.347 315.215
L363.474 317.238
L363.857 316.156
L364.24 312.077
L364.495 311.136
L364.623 311.45
L364.878 313.16
L365.006 313.175
L365.261 312.862
L365.389 313.175
L365.644 315.058
L365.772 314.823
L366.155 315.999
L366.41 316.156
L366.537 315.999
L366.792 316.94
L366.92 316.47
L367.175 317.944
L367.303 317.724
L367.558 316.219
L367.686 316.219
L368.069 313.96
L368.324 313.96
L368.451 313.489
L368.707 317.724
L369.09 317.254
L369.6 314.352
L369.855 316.077
L370.238 312.156
L370.366 313.881
L370.621 312.626
L370.749 313.411
L371.004 315.842
L371.131 315.654
L371.514 315.999
L371.769 305.725
L371.897 313.019
L372.152 315.215
L372.28 315.058
L372.535 311.45
L372.663 314.666
L372.918 316.156
L373.046 313.019
L373.301 315.513
L373.428 315.607
L373.684 316.313
L373.684 316.313
L373.811 315.685
L374.067 313.175
L374.194 318.383
L374.449 318.038
L374.832 308.705
L374.96 314.352
L375.343 312.391
L375.598 313.411
L375.726 312.94
L375.981 293.411
L376.108 312.313
L376.364 314.179
L376.491 314.038
L376.746 312.94
L376.874 313.881
L377.129 312.94
L377.257 313.787
L377.512 313.646
L377.512 313.646
L377.64 313.772
L377.767 313.489
L378.023 313.332
L378.278 309.097
L378.405 313.803
L378.661 314.274
L378.788 314.117
L379.044 314.572
L379.171 314.43
L379.426 314.43
L379.554 313.803
L379.809 309.097
L379.937 309.568
L380.192 308.925
L380.703 314.572
L380.958 313.254
L381.086 313.803
L381.341 313.019
L381.468 317.097
L381.723 318.164
L381.851 317.395
L382.107 316.94
L382.617 314.901
L382.872 316.626
L383 315.607
L383.255 314.901
L383.383 314.195
L383.638 314.587
L384.021 314.117
L384.531 311.058
L384.786 310.979
L385.169 312.689
L385.297 316.313
L385.552 313.019
L385.68 315.999
L385.935 314.274
L386.062 315.058
L386.318 313.96
L386.445 315.685
L386.701 315.999
L386.828 315.685
L387.083 313.646
L387.211 314.117
L387.466 313.019
L387.594 313.081
L388.232 317.709
L388.232 317.709
L388.36 315.811
L388.615 309.097
L388.742 313.803
L388.998 314.744
L389.125 314.744
L389.38 314.43
L389.763 315.372
L389.891 317.097
L390.146 311.528
L390.274 311.528
L390.529 314.117
L390.657 313.96
L390.912 312.156
L391.039 314.744
L391.295 314.587
L391.422 315.34
L391.678 315.215
L391.805 314.901
L392.06 316.077
L392.188 310.666
L392.443 308.156
L392.571 308.156
L392.826 282.745
L392.954 300.784
L393.209 302.98
L393.337 296.031
L393.592 295.45
L393.719 294.744
L393.975 305.552
L394.102 305.097
L394.102 305.097
L394.485 305.882
L394.868 303.607
L395.251 310.509
L395.506 309.881
L395.634 310.195
L395.889 312.077
L396.016 312.077
L396.272 316.234
L396.399 316.077
L396.655 314.038
L396.782 305.176
L397.037 313.081
L397.165 313.066
L397.42 296.313
L397.548 311.826
L398.186 309.803
L398.314 309.332
L398.569 309.803
L398.696 310.823
L399.079 316.47
L399.462 316.626
L399.717 316.391
L399.845 315.764
L400.1 315.372
L400.228 316.47
L400.483 315.999
L400.866 316.94
L400.993 315.058
L401.249 315.058
L401.376 315.842
L401.759 314.744
L402.142 306.509
L402.397 304.313
L402.525 304.548
L402.78 303.685
L403.291 314.901
L403.546 313.96
L403.673 315.215
L403.929 312.768
L404.056 313.175
L404.439 313.489
L404.694 316.47
L404.822 312.94
L405.077 314.901
L405.205 314.587
L405.46 313.332
L405.588 314.572
L405.843 313.803
L405.97 315.042
L406.353 311.293
L406.609 312.391
L406.736 312.391
L407.119 310.979
L407.374 312.391
L407.502 311.45
L407.757 313.646
L407.885 313.332
L408.268 310.179
L408.65 309.411
L408.906 311.215
L409.033 308.94
L409.289 311.372
L409.416 309.96
L409.671 309.411
L409.799 311.058
L410.054 308.627
L410.182 293.176
L410.437 307.764
L410.565 306.117
L410.82 310.023
L410.948 307.372
L411.203 310.728
L411.33 309.881
L411.586 310.509
L411.713 309.803
L411.968 309.725
L412.096 307.293
L412.351 309.176
L412.479 312.234
L412.607 312.062
L412.989 312.391
L413.245 315.999
L413.5 315.685
L413.627 315.058
L413.883 314.744
L414.01 315.999
L414.266 308.94
L414.393 314.744
L414.776 312.391
L415.031 312.548
L415.159 312.077
L415.414 314.587
L415.542 314.117
L415.797 313.646
L415.925 313.803
L416.307 313.489
L416.69 316.313
L416.945 316.783
L417.328 299.842
L417.456 301.019
L417.711 314.43
L417.839 314.744
L418.094 307.058
L418.222 314.274
L418.477 313.646
L418.604 313.646
L418.86 315.685
L418.987 310.509
L419.243 309.725
L419.37 315.215
L419.753 314.587
L420.136 315.372
L420.519 314.117
L420.902 312.862
L421.157 313.16
L421.284 311.764
L421.54 311.293
L421.667 311.921
L422.05 316.47
L422.305 315.042
L422.433 315.356
L422.688 309.097
L422.816 312.391
L423.199 316.626
L423.454 315.685
L423.581 316.626
L423.837 288.705
L423.964 315.685
L424.22 314.823
L424.347 316.548
L424.602 315.748
L424.73 315.921
L425.113 314.744
L425.496 311.136
L425.751 311.215
L425.879 312.077
L426.134 313.003
L426.261 309.568
L426.517 312.689
L426.644 312.077
L426.899 316.313
L427.282 305.709
L427.41 315.058
L427.665 314.87
L427.793 313.175
L428.048 311.45
L428.176 315.528
L428.431 316.548
L428.941 308.783
L429.197 316.689
L429.324 316.234
L429.579 314.823
L429.707 312.783
L429.962 304.391
L430.345 308.94
L430.473 309.019
L430.728 306.274
L430.856 316.47
L431.238 313.803
L431.494 313.96
L431.621 309.411
L431.877 305.646
L432.004 301.882
L432.387 306.587
L432.77 304.674
L433.025 307.058
L433.536 314.744
L433.791 314.744
L434.174 314.43
L434.556 311.607
L434.684 312.313
L434.939 310.195
L435.067 310.195
L435.322 311.058
L435.45 310.587
L435.705 310.352
L435.833 310.038
L436.088 310.901
L436.215 308.234
L436.471 308.234
L436.598 311.293
L436.854 296.548
L436.981 311.748
L437.236 308.313
L437.364 313.019
L437.619 313.097
L437.747 312.783
L438.002 311.607
L438.13 311.842
L438.385 311.764
L438.513 311.293
L438.768 310.823
L438.895 310.117
L439.151 310.352
L439.533 313.019
L440.044 306.823
L440.682 312.077
L441.065 312.846
L441.448 312.548
L441.575 312.862
L441.831 309.881
L441.831 309.881
L441.958 311.372
L442.341 309.568
L442.596 311.764
L442.724 311.607
L443.107 309.254
L443.49 312.862
L443.872 306.572
L444.128 309.881
L444.255 309.097
L444.51 309.019
L444.638 310.352
L444.893 309.881
L445.021 311.842
L445.276 310.038
L445.659 295.372
L446.042 293.49
L446.169 291.999
L446.425 287.45
L446.552 298.117
L446.808 296.862
L446.935 298.195
L447.19 302.885
L447.318 311.136
L447.573 310.352
L447.701 311.607
L448.084 312.219
L448.339 311.842
L448.467 311.215
L448.722 311.372
L448.849 312.234
L449.105 312.234
L449.232 311.764
L449.615 309.881
L449.87 308.219
L449.998 309.097
L450.126 311.309
L450.381 312.705
L450.636 312.234
L450.764 310.274
L451.019 309.646
L451.146 310.572
L451.529 309.097
L451.785 308.94
L451.912 308.47
L452.167 307.058
L452.295 301.254
L452.55 305.646
L452.678 305.568
L452.933 305.631
L453.061 304.533
L453.316 304.078
L453.444 305.646
L453.699 305.332
L453.826 295.999
L454.082 312.234
L454.209 311.921
L454.465 312.548
L454.847 305.725
L454.847 305.725
L454.975 308.862
L455.23 306.509
L455.358 306.509
L455.613 306.038
L455.996 309.081
L456.123 308.862
L456.379 307.921
L456.506 305.568
L456.762 305.96
L456.889 306.823
L457.144 307.764
L457.527 303.999
L457.655 305.725
L457.91 301.254
L458.038 301.96
L458.293 297.835
L458.421 302.791
L458.676 302.117
L459.059 307.764
L459.186 307.058
L459.442 307.999
L459.569 307.764
L459.952 304.689
L460.207 303.058
L460.335 293.176
L460.973 307.434
L461.101 306.98
L461.356 307.293
L461.484 307.685
L461.739 306.117
L461.866 306.195
L462.121 305.96
L462.249 305.489
L462.504 303.842
L462.632 306.587
L463.015 308.548
L463.398 307.842
L463.653 304.94
L463.781 308.532
L464.036 306.901
L464.419 307.529
L464.546 306.666
L464.801 302.98
L464.929 302.948
L465.184 305.803
L465.312 301.254
L465.567 298.588
L465.567 298.588
L465.695 306.274
L465.95 306.274
L466.078 305.882
L466.333 307.607
L466.46 301.176
L466.716 306.713
L466.843 306.038
L467.098 307.215
L467.098 307.215
L467.864 304.548
L467.992 308.595
L468.247 301.333
L468.63 306.352
L468.757 305.411
L469.14 301.254
L469.396 305.725
L469.523 304.783
L469.778 304.078
L469.906 303.372
L470.161 304.548
L470.289 303.136
L470.544 308.783
L470.672 306.038
L470.927 305.254
L471.055 301.254
L471.31 304.391
L471.437 303.921
L471.693 303.921
L471.82 302.274
L472.075 302.274
L472.203 301.568
L472.458 301.333
L472.586 300.627
L472.969 301.646
L473.224 308.297
L473.352 307.842
L473.607 306.352
L473.734 308.956
L473.99 301.646
L474.118 305.474
L474.373 302.587
L474.5 308.956
L474.883 304.548
L475.138 307.607
L475.266 306.901
L475.521 301.254
L475.904 306.195
L476.287 301.019
L476.414 308.94
L476.67 307.842
L476.797 301.019
L477.18 293.568
L477.435 308.234
L477.563 308.391
L477.946 306.744
L478.201 309.803
L478.329 308.627
L478.584 304.391
L478.711 305.411
L479.094 301.803
L479.35 300.784
L479.477 300.862
L479.732 302.744
L479.86 294.98
L480.115 302.901
L480.243 302.666
L480.498 301.019
L480.626 299.137
L480.881 302.744
L481.009 302.509
L481.264 299.686
L481.647 301.254
L481.774 302.666
L482.157 296.031
L482.412 296.078
L482.54 294.509
L482.923 303.293
L483.178 300.235
L483.306 293.725
L483.561 300.235
L483.689 300.47
L483.944 297.96
L484.071 291.529
L484.327 290.274
L484.454 299.293
L484.709 297.882
L484.837 299.293
L485.092 297.333
L485.22 297.333
L485.475 298.666
L485.858 301.803
L485.986 298.901
L486.241 285.254
L486.241 285.254
L486.368 291.843
L486.624 298.086
L486.751 287.45
L487.007 301.568
L487.134 296.078
L487.517 302.76
L487.9 302.038
L488.283 301.568
L488.538 301.097
L488.666 298.117
L488.921 294.823
L489.048 300.94
L489.431 301.803
L489.814 300.313
L490.069 300.282
L490.197 302.776
L490.58 300.235
L490.835 302.587
L490.963 301.254
L491.218 302.117
L491.345 300.156
L491.601 300.391
L491.728 299.764
L491.984 300.94
L492.111 298.195
L492.366 298.117
L492.494 285.882
L492.749 285.882
L492.877 301.882
L493.132 297.646
L493.26 297.411
L493.515 297.411
L493.643 296.94
L493.898 296.862
L494.026 294.744
L494.281 297.882
L494.408 297.176
L494.663 298.117
L494.791 287.058
L495.174 301.568
L495.557 302.587
L495.684 299.764
L495.812 302.117
L495.812 302.117
L495.94 300.705
L496.195 301.882
L496.322 300.705
L496.578 302.823
L496.705 302.823
L496.961 300.94
L497.088 301.254
L497.471 303.293
L497.726 301.646
L497.854 303.529
L498.109 302.823
L498.237 301.097
L498.492 301.646
L498.62 301.646
L499.002 297.176
L499.385 302.587
L499.768 296.627
L500.023 297.097
L500.406 295.764
L500.534 297.333
L500.789 295.921
L500.917 300.47
L501.172 304.14
L501.299 301.176
L501.555 300.235
L501.682 300.391
L501.938 300.47
L502.065 301.411
L502.32 300.862
L502.448 291.843
L502.703 295.764
L502.831 294.588
L503.086 299.372
L503.469 295.842
L503.597 287.607
L503.979 297.725
L504.235 299.607
L504.617 297.411
L504.745 302.431
L504.873 302.509
L505.128 302.274
L505.383 302.964
L505.511 301.803
L505.894 301.176
L506.149 300.078
L506.277 298.666
L506.532 302.98
L506.659 302.744
L506.915 302.038
L507.042 302.038
L507.425 301.019
L507.808 298.98
L508.063 296.627
L508.191 297.333
L508.446 297.803
L508.574 297.568
L508.829 298.039
L509.212 293.411
L509.339 302.117
L509.595 301.254
L509.722 302.587
L509.977 298.901
L510.36 290.274
L510.488 299.372
L510.871 294.98
L511.126 297.803
L511.509 295.764
L511.636 293.568
L511.892 292.705
L512.019 297.882
L512.274 301.411
L512.402 299.293
L512.657 301.411
L512.785 301.097
L513.04 301.803
L513.168 301.097
L513.423 300.627
L513.551 302.289
L513.806 301.803
L513.933 302.117
L514.189 300.235
L514.317 300.94
L514.699 296.47
L514.954 295.764
L515.082 293.725
L515.465 296.031
L515.72 302.101
L515.848 301.176
L516.103 301.176
L516.486 297.254
L516.613 297.882
L516.869 294.274
L516.996 301.082
L517.379 298.039
L517.634 294.274
L517.762 298.509
L518.017 299.45
L518.145 298.039
L518.4 297.333
L518.4 297.333" style="fill:none;stroke:#ff0000;stroke-linecap:square;"/>
   </g>
   <g id="line2d_2">
    <path clip-path="url(#pcb2bf987bf)" d="
M72 342.602
L72.1276 342.665
L78.8915 342.602
L79.0189 342.477
L80.4226 342.555
L80.8055 342.602
L81.1885 342.602
L81.316 342.728
L81.9542 342.728
L82.0816 342.869
L84.2511 342.759
L84.3787 342.697
L89.611 342.681
L89.7386 342.524
L91.0148 342.54
L91.9081 342.712
L104.797 342.744
L105.563 342.838
L107.988 342.744
L109.519 342.634
L111.05 342.571
L113.986 342.759
L117.814 342.665
L132.362 342.587
L132.362 342.587
L134.659 342.602
L138.488 342.555
L139.381 342.634
L140.785 342.618
L141.678 342.681
L143.082 342.602
L153.164 342.618
L153.802 342.446
L156.865 342.54
L163.883 342.493
L165.287 342.414
L166.819 342.524
L169.881 342.446
L170.775 342.555
L172.178 342.555
L173.072 342.634
L173.71 342.571
L176.007 342.649
L178.304 342.508
L182.132 342.477
L183.791 342.493
L184.43 342.649
L185.195 342.508
L187.492 342.602
L189.151 342.524
L191.321 342.634
L191.321 342.634
L196.681 342.665
L198.212 342.54
L198.212 342.54
L198.978 342.681
L203.699 342.477
L206.762 342.634
L211.356 342.602
L211.484 342.744
L212.122 342.744
L212.25 342.618
L213.654 342.649
L213.654 342.649
L213.781 342.744
L215.951 342.634
L215.951 342.634
L216.589 342.618
L216.589 342.618
L217.099 342.697
L218.248 342.587
L218.248 342.587
L218.631 342.54
L239.687 342.587
L239.815 342.728
L241.984 342.634
L242.367 342.587
L243.516 342.602
L243.643 342.712
L244.281 342.712
L244.409 342.524
L251.938 342.587
L252.066 342.728
L253.47 342.697
L253.597 342.571
L254.235 342.571
L254.363 342.728
L255.767 342.697
L255.767 342.697
L255.894 342.587
L256.532 342.587
L256.66 342.461
L256.66 342.461
L264.955 342.508
L264.955 342.508
L265.083 342.602
L266.486 342.508
L266.869 342.461
L269.549 342.571
L270.315 342.587
L270.698 342.54
L276.441 342.571
L276.568 342.665
L277.972 342.665
L277.972 342.665
L278.099 342.54
L282.566 342.493
L282.694 342.665
L283.332 342.665
L283.459 342.508
L291.754 342.555
L292.52 342.649
L292.52 342.649
L300.177 342.571
L300.177 342.571
L300.56 342.524
L311.662 342.555
L311.79 342.665
L315.491 342.587
L315.874 342.54
L323.148 342.587
L323.275 342.681
L326.211 342.759
L326.338 342.822
L328.508 342.728
L328.635 342.618
L331.57 342.649
L331.698 342.791
L335.399 342.697
L335.909 342.665
L336.93 342.744
L337.058 342.806
L337.696 342.806
L337.824 342.681
L339.227 342.681
L339.355 342.822
L344.588 342.885
L344.715 342.602
L347.65 342.712
L347.778 342.446
L350.713 342.461
L350.84 342.587
L364.495 342.54
L364.623 342.367
L366.027 342.446
L366.027 342.446
L366.155 342.555
L382.872 342.649
L383.255 342.697
L384.403 342.587
L385.297 342.571
L388.232 342.571
L388.232 342.571
L388.36 345.457
L388.998 345.457
L389.125 342.649
L392.826 342.649
L392.954 342.461
L395.123 342.524
L395.251 342.587
L399.717 342.649
L399.845 342.712
L402.014 342.775
L402.142 342.587
L410.437 342.508
L410.565 342.712
L425.751 342.602
L426.134 342.555
L428.048 342.665
L428.431 342.712
L430.345 342.712
L430.473 342.54
L433.408 342.493
L433.536 342.681
L434.939 342.618
L435.067 342.477
L449.487 342.571
L449.487 342.571
L449.998 342.602
L453.316 342.493
L454.082 342.477
L454.209 342.618
L454.847 342.618
L454.847 342.618
L454.975 342.493
L457.91 342.43
L458.038 342.351
L463.27 342.414
L463.398 342.54
L475.521 342.602
L475.649 342.697
L479.35 342.712
L479.477 342.571
L495.429 342.602
L495.684 342.712
L500.023 342.681
L500.151 342.587
L502.32 342.697
L503.086 342.712
L503.597 342.681
L517.634 342.571
L518.4 342.555
L518.4 342.555" style="fill:none;stroke:#008000;stroke-linecap:square;"/>
   </g>
   <g id="patch_3">
    <path d="
M72 43.2
L518.4 43.2" style="fill:none;stroke:#000000;stroke-linecap:square;stroke-linejoin:miter;"/>
   </g>
   <g id="patch_4">
    <path d="
M518.4 345.6
L518.4 43.2" style="fill:none;stroke:#000000;stroke-linecap:square;stroke-linejoin:miter;"/>
   </g>
   <g id="patch_5">
    <path d="
M72 345.6
L518.4 345.6" style="fill:none;stroke:#000000;stroke-linecap:square;stroke-linejoin:miter;"/>
   </g>
   <g id="patch_6">
    <path d="
M72 345.6
L72 43.2" style="fill:none;stroke:#000000;stroke-linecap:square;stroke-linejoin:miter;"/>
   </g>
   <g id="matplotlib.axis_1">
    <g id="xtick_1">
     <g id="line2d_3">
      <defs>
       <path d="
M0 0
L0 -4" id="m93b0483c22" style="stroke:#000000;stroke-width:0.5;"/>
      </defs>
      <g>
       <use style="stroke:#000000;stroke-width:0.5;" x="117.941468267" xlink:href="#m93b0483c22" y="345.6"/>
      </g>
     </g>
     <g id="line2d_4">
      <defs>
       <path d="
M0 0
L0 4" id="m741efc42ff" style="stroke:#000000;stroke-width:0.5;"/>
      </defs>
      <g>
       <use style="stroke:#000000;stroke-width:0.5;" x="117.941468267" xlink:href="#m741efc42ff" y="43.2"/>
      </g>
     </g>
     <g id="text_1">
      <!-- Oct 13 2015 -->
      <defs>
       <path d="
M19.1875 8.29688
L53.6094 8.29688
L53.6094 0
L7.32812 0
L7.32812 8.29688
Q12.9375 14.1094 22.625 23.8906
Q32.3281 33.6875 34.8125 36.5312
Q39.5469 41.8438 41.4219 45.5312
Q43.3125 49.2188 43.3125 52.7812
Q43.3125 58.5938 39.2344 62.25
Q35.1562 65.9219 28.6094 65.9219
Q23.9688 65.9219 18.8125 64.3125
Q13.6719 62.7031 7.8125 59.4219
L7.8125 69.3906
Q13.7656 71.7812 18.9375 73
Q24.125 74.2188 28.4219 74.2188
Q39.75 74.2188 46.4844 68.5469
Q53.2188 62.8906 53.2188 53.4219
Q53.2188 48.9219 51.5312 44.8906
Q49.8594 40.875 45.4062 35.4062
Q44.1875 33.9844 37.6406 27.2188
Q31.1094 20.4531 19.1875 8.29688" id="BitstreamVeraSans-Roman-32"/>
       <path d="
M39.4062 66.2188
Q28.6562 66.2188 22.3281 58.2031
Q16.0156 50.2031 16.0156 36.375
Q16.0156 22.6094 22.3281 14.5938
Q28.6562 6.59375 39.4062 6.59375
Q50.1406 6.59375 56.4219 14.5938
Q62.7031 22.6094 62.7031 36.375
Q62.7031 50.2031 56.4219 58.2031
Q50.1406 66.2188 39.4062 66.2188
M39.4062 74.2188
Q54.7344 74.2188 63.9062 63.9375
Q73.0938 53.6562 73.0938 36.375
Q73.0938 19.1406 63.9062 8.85938
Q54.7344 -1.42188 39.4062 -1.42188
Q24.0312 -1.42188 14.8125 8.82812
Q5.60938 19.0938 5.60938 36.375
Q5.60938 53.6562 14.8125 63.9375
Q24.0312 74.2188 39.4062 74.2188" id="BitstreamVeraSans-Roman-4f"/>
       <path d="
M31.7812 66.4062
Q24.1719 66.4062 20.3281 58.9062
Q16.5 51.4219 16.5 36.375
Q16.5 21.3906 20.3281 13.8906
Q24.1719 6.39062 31.7812 6.39062
Q39.4531 6.39062 43.2812 13.8906
Q47.125 21.3906 47.125 36.375
Q47.125 51.4219 43.2812 58.9062
Q39.4531 66.4062 31.7812 66.4062
M31.7812 74.2188
Q44.0469 74.2188 50.5156 64.5156
Q56.9844 54.8281 56.9844 36.375
Q56.9844 17.9688 50.5156 8.26562
Q44.0469 -1.42188 31.7812 -1.42188
Q19.5312 -1.42188 13.0625 8.26562
Q6.59375 17.9688 6.59375 36.375
Q6.59375 54.8281 13.0625 64.5156
Q19.5312 74.2188 31.7812 74.2188" id="BitstreamVeraSans-Roman-30"/>
       <path d="
M12.4062 8.29688
L28.5156 8.29688
L28.5156 63.9219
L10.9844 60.4062
L10.9844 69.3906
L28.4219 72.9062
L38.2812 72.9062
L38.2812 8.29688
L54.3906 8.29688
L54.3906 0
L12.4062 0
z
" id="BitstreamVeraSans-Roman-31"/>
       <path d="
M40.5781 39.3125
Q47.6562 37.7969 51.625 33
Q55.6094 28.2188 55.6094 21.1875
Q55.6094 10.4062 48.1875 4.48438
Q40.7656 -1.42188 27.0938 -1.42188
Q22.5156 -1.42188 17.6562 -0.515625
Q12.7969 0.390625 7.625 2.20312
L7.625 11.7188
Q11.7188 9.32812 16.5938 8.10938
Q21.4844 6.89062 26.8125 6.89062
Q36.0781 6.89062 40.9375 10.5469
Q45.7969 14.2031 45.7969 21.1875
Q45.7969 27.6406 41.2812 31.2656
Q36.7656 34.9062 28.7188 34.9062
L20.2188 34.9062
L20.2188 43.0156
L29.1094 43.0156
Q36.375 43.0156 40.2344 45.9219
Q44.0938 48.8281 44.0938 54.2969
Q44.0938 59.9062 40.1094 62.9062
Q36.1406 65.9219 28.7188 65.9219
Q24.6562 65.9219 20.0156 65.0312
Q15.375 64.1562 9.8125 62.3125
L9.8125 71.0938
Q15.4375 72.6562 20.3438 73.4375
Q25.25 74.2188 29.5938 74.2188
Q40.8281 74.2188 47.3594 69.1094
Q53.9062 64.0156 53.9062 55.3281
Q53.9062 49.2656 50.4375 45.0938
Q46.9688 40.9219 40.5781 39.3125" id="BitstreamVeraSans-Roman-33"/>
       <path id="BitstreamVeraSans-Roman-20"/>
       <path d="
M10.7969 72.9062
L49.5156 72.9062
L49.5156 64.5938
L19.8281 64.5938
L19.8281 46.7344
Q21.9688 47.4688 24.1094 47.8281
Q26.2656 48.1875 28.4219 48.1875
Q40.625 48.1875 47.75 41.5
Q54.8906 34.8125 54.8906 23.3906
Q54.8906 11.625 47.5625 5.09375
Q40.2344 -1.42188 26.9062 -1.42188
Q22.3125 -1.42188 17.5469 -0.640625
Q12.7969 0.140625 7.71875 1.70312
L7.71875 11.625
Q12.1094 9.23438 16.7969 8.0625
Q21.4844 6.89062 26.7031 6.89062
Q35.1562 6.89062 40.0781 11.3281
Q45.0156 15.7656 45.0156 23.3906
Q45.0156 31 40.0781 35.4375
Q35.1562 39.8906 26.7031 39.8906
Q22.75 39.8906 18.8125 39.0156
Q14.8906 38.1406 10.7969 36.2812
z
" id="BitstreamVeraSans-Roman-35"/>
       <path d="
M18.3125 70.2188
L18.3125 54.6875
L36.8125 54.6875
L36.8125 47.7031
L18.3125 47.7031
L18.3125 18.0156
Q18.3125 11.3281 20.1406 9.42188
Q21.9688 7.51562 27.5938 7.51562
L36.8125 7.51562
L36.8125 0
L27.5938 0
Q17.1875 0 13.2344 3.875
Q9.28125 7.76562 9.28125 18.0156
L9.28125 47.7031
L2.6875 47.7031
L2.6875 54.6875
L9.28125 54.6875
L9.28125 70.2188
z
" id="BitstreamVeraSans-Roman-74"/>
       <path d="
M48.7812 52.5938
L48.7812 44.1875
Q44.9688 46.2969 41.1406 47.3438
Q37.3125 48.3906 33.4062 48.3906
Q24.6562 48.3906 19.8125 42.8438
Q14.9844 37.3125 14.9844 27.2969
Q14.9844 17.2812 19.8125 11.7344
Q24.6562 6.20312 33.4062 6.20312
Q37.3125 6.20312 41.1406 7.25
Q44.9688 8.29688 48.7812 10.4062
L48.7812 2.09375
Q45.0156 0.34375 40.9844 -0.53125
Q36.9688 -1.42188 32.4219 -1.42188
Q20.0625 -1.42188 12.7812 6.34375
Q5.51562 14.1094 5.51562 27.2969
Q5.51562 40.6719 12.8594 48.3281
Q20.2188 56 33.0156 56
Q37.1562 56 41.1094 55.1406
Q45.0625 54.2969 48.7812 52.5938" id="BitstreamVeraSans-Roman-63"/>
      </defs>
      <g transform="translate(53.3541815316 394.065590385)rotate(-30.0)scale(0.12 -0.12)">
       <use xlink:href="#BitstreamVeraSans-Roman-4f"/>
       <use x="78.7109375" xlink:href="#BitstreamVeraSans-Roman-63"/>
       <use x="133.69140625" xlink:href="#BitstreamVeraSans-Roman-74"/>
       <use x="172.900390625" xlink:href="#BitstreamVeraSans-Roman-20"/>
       <use x="204.6875" xlink:href="#BitstreamVeraSans-Roman-31"/>
       <use x="268.310546875" xlink:href="#BitstreamVeraSans-Roman-33"/>
       <use x="331.93359375" xlink:href="#BitstreamVeraSans-Roman-20"/>
       <use x="363.720703125" xlink:href="#BitstreamVeraSans-Roman-32"/>
       <use x="427.34375" xlink:href="#BitstreamVeraSans-Roman-30"/>
       <use x="490.966796875" xlink:href="#BitstreamVeraSans-Roman-31"/>
       <use x="554.58984375" xlink:href="#BitstreamVeraSans-Roman-35"/>
      </g>
     </g>
    </g>
    <g id="xtick_2">
     <g id="line2d_5">
      <g>
       <use style="stroke:#000000;stroke-width:0.5;" x="173.071485419" xlink:href="#m93b0483c22" y="345.6"/>
      </g>
     </g>
     <g id="line2d_6">
      <g>
       <use style="stroke:#000000;stroke-width:0.5;" x="173.071485419" xlink:href="#m741efc42ff" y="43.2"/>
      </g>
     </g>
     <g id="text_2">
      <!-- Oct 16 2015 -->
      <defs>
       <path d="
M33.0156 40.375
Q26.375 40.375 22.4844 35.8281
Q18.6094 31.2969 18.6094 23.3906
Q18.6094 15.5312 22.4844 10.9531
Q26.375 6.39062 33.0156 6.39062
Q39.6562 6.39062 43.5312 10.9531
Q47.4062 15.5312 47.4062 23.3906
Q47.4062 31.2969 43.5312 35.8281
Q39.6562 40.375 33.0156 40.375
M52.5938 71.2969
L52.5938 62.3125
Q48.875 64.0625 45.0938 64.9844
Q41.3125 65.9219 37.5938 65.9219
Q27.8281 65.9219 22.6719 59.3281
Q17.5312 52.7344 16.7969 39.4062
Q19.6719 43.6562 24.0156 45.9219
Q28.375 48.1875 33.5938 48.1875
Q44.5781 48.1875 50.9531 41.5156
Q57.3281 34.8594 57.3281 23.3906
Q57.3281 12.1562 50.6875 5.35938
Q44.0469 -1.42188 33.0156 -1.42188
Q20.3594 -1.42188 13.6719 8.26562
Q6.98438 17.9688 6.98438 36.375
Q6.98438 53.6562 15.1875 63.9375
Q23.3906 74.2188 37.2031 74.2188
Q40.9219 74.2188 44.7031 73.4844
Q48.4844 72.75 52.5938 71.2969" id="BitstreamVeraSans-Roman-36"/>
      </defs>
      <g transform="translate(108.484198684 394.065590385)rotate(-30.0)scale(0.12 -0.12)">
       <use xlink:href="#BitstreamVeraSans-Roman-4f"/>
       <use x="78.7109375" xlink:href="#BitstreamVeraSans-Roman-63"/>
       <use x="133.69140625" xlink:href="#BitstreamVeraSans-Roman-74"/>
       <use x="172.900390625" xlink:href="#BitstreamVeraSans-Roman-20"/>
       <use x="204.6875" xlink:href="#BitstreamVeraSans-Roman-31"/>
       <use x="268.310546875" xlink:href="#BitstreamVeraSans-Roman-36"/>
       <use x="331.93359375" xlink:href="#BitstreamVeraSans-Roman-20"/>
       <use x="363.720703125" xlink:href="#BitstreamVeraSans-Roman-32"/>
       <use x="427.34375" xlink:href="#BitstreamVeraSans-Roman-30"/>
       <use x="490.966796875" xlink:href="#BitstreamVeraSans-Roman-31"/>
       <use x="554.58984375" xlink:href="#BitstreamVeraSans-Roman-35"/>
      </g>
     </g>
    </g>
    <g id="xtick_3">
     <g id="line2d_7">
      <g>
       <use style="stroke:#000000;stroke-width:0.5;" x="228.201502573" xlink:href="#m93b0483c22" y="345.6"/>
      </g>
     </g>
     <g id="line2d_8">
      <g>
       <use style="stroke:#000000;stroke-width:0.5;" x="228.201502573" xlink:href="#m741efc42ff" y="43.2"/>
      </g>
     </g>
     <g id="text_3">
      <!-- Oct 19 2015 -->
      <defs>
       <path d="
M10.9844 1.51562
L10.9844 10.5
Q14.7031 8.73438 18.5 7.8125
Q22.3125 6.89062 25.9844 6.89062
Q35.75 6.89062 40.8906 13.4531
Q46.0469 20.0156 46.7812 33.4062
Q43.9531 29.2031 39.5938 26.9531
Q35.25 24.7031 29.9844 24.7031
Q19.0469 24.7031 12.6719 31.3125
Q6.29688 37.9375 6.29688 49.4219
Q6.29688 60.6406 12.9375 67.4219
Q19.5781 74.2188 30.6094 74.2188
Q43.2656 74.2188 49.9219 64.5156
Q56.5938 54.8281 56.5938 36.375
Q56.5938 19.1406 48.4062 8.85938
Q40.2344 -1.42188 26.4219 -1.42188
Q22.7031 -1.42188 18.8906 -0.6875
Q15.0938 0.046875 10.9844 1.51562
M30.6094 32.4219
Q37.25 32.4219 41.125 36.9531
Q45.0156 41.5 45.0156 49.4219
Q45.0156 57.2812 41.125 61.8438
Q37.25 66.4062 30.6094 66.4062
Q23.9688 66.4062 20.0938 61.8438
Q16.2188 57.2812 16.2188 49.4219
Q16.2188 41.5 20.0938 36.9531
Q23.9688 32.4219 30.6094 32.4219" id="BitstreamVeraSans-Roman-39"/>
      </defs>
      <g transform="translate(163.614215838 394.065590385)rotate(-30.0)scale(0.12 -0.12)">
       <use xlink:href="#BitstreamVeraSans-Roman-4f"/>
       <use x="78.7109375" xlink:href="#BitstreamVeraSans-Roman-63"/>
       <use x="133.69140625" xlink:href="#BitstreamVeraSans-Roman-74"/>
       <use x="172.900390625" xlink:href="#BitstreamVeraSans-Roman-20"/>
       <use x="204.6875" xlink:href="#BitstreamVeraSans-Roman-31"/>
       <use x="268.310546875" xlink:href="#BitstreamVeraSans-Roman-39"/>
       <use x="331.93359375" xlink:href="#BitstreamVeraSans-Roman-20"/>
       <use x="363.720703125" xlink:href="#BitstreamVeraSans-Roman-32"/>
       <use x="427.34375" xlink:href="#BitstreamVeraSans-Roman-30"/>
       <use x="490.966796875" xlink:href="#BitstreamVeraSans-Roman-31"/>
       <use x="554.58984375" xlink:href="#BitstreamVeraSans-Roman-35"/>
      </g>
     </g>
    </g>
    <g id="xtick_4">
     <g id="line2d_9">
      <g>
       <use style="stroke:#000000;stroke-width:0.5;" x="283.331519725" xlink:href="#m93b0483c22" y="345.6"/>
      </g>
     </g>
     <g id="line2d_10">
      <g>
       <use style="stroke:#000000;stroke-width:0.5;" x="283.331519725" xlink:href="#m741efc42ff" y="43.2"/>
      </g>
     </g>
     <g id="text_4">
      <!-- Oct 22 2015 -->
      <g transform="translate(218.74423299 394.065590385)rotate(-30.0)scale(0.12 -0.12)">
       <use xlink:href="#BitstreamVeraSans-Roman-4f"/>
       <use x="78.7109375" xlink:href="#BitstreamVeraSans-Roman-63"/>
       <use x="133.69140625" xlink:href="#BitstreamVeraSans-Roman-74"/>
       <use x="172.900390625" xlink:href="#BitstreamVeraSans-Roman-20"/>
       <use x="204.6875" xlink:href="#BitstreamVeraSans-Roman-32"/>
       <use x="268.310546875" xlink:href="#BitstreamVeraSans-Roman-32"/>
       <use x="331.93359375" xlink:href="#BitstreamVeraSans-Roman-20"/>
       <use x="363.720703125" xlink:href="#BitstreamVeraSans-Roman-32"/>
       <use x="427.34375" xlink:href="#BitstreamVeraSans-Roman-30"/>
       <use x="490.966796875" xlink:href="#BitstreamVeraSans-Roman-31"/>
       <use x="554.58984375" xlink:href="#BitstreamVeraSans-Roman-35"/>
      </g>
     </g>
    </g>
    <g id="xtick_5">
     <g id="line2d_11">
      <g>
       <use style="stroke:#000000;stroke-width:0.5;" x="338.461536877" xlink:href="#m93b0483c22" y="345.6"/>
      </g>
     </g>
     <g id="line2d_12">
      <g>
       <use style="stroke:#000000;stroke-width:0.5;" x="338.461536877" xlink:href="#m741efc42ff" y="43.2"/>
      </g>
     </g>
     <g id="text_5">
      <!-- Oct 25 2015 -->
      <g transform="translate(273.874250142 394.065590385)rotate(-30.0)scale(0.12 -0.12)">
       <use xlink:href="#BitstreamVeraSans-Roman-4f"/>
       <use x="78.7109375" xlink:href="#BitstreamVeraSans-Roman-63"/>
       <use x="133.69140625" xlink:href="#BitstreamVeraSans-Roman-74"/>
       <use x="172.900390625" xlink:href="#BitstreamVeraSans-Roman-20"/>
       <use x="204.6875" xlink:href="#BitstreamVeraSans-Roman-32"/>
       <use x="268.310546875" xlink:href="#BitstreamVeraSans-Roman-35"/>
       <use x="331.93359375" xlink:href="#BitstreamVeraSans-Roman-20"/>
       <use x="363.720703125" xlink:href="#BitstreamVeraSans-Roman-32"/>
       <use x="427.34375" xlink:href="#BitstreamVeraSans-Roman-30"/>
       <use x="490.966796875" xlink:href="#BitstreamVeraSans-Roman-31"/>
       <use x="554.58984375" xlink:href="#BitstreamVeraSans-Roman-35"/>
      </g>
     </g>
    </g>
    <g id="xtick_6">
     <g id="line2d_13">
      <g>
       <use style="stroke:#000000;stroke-width:0.5;" x="393.591554031" xlink:href="#m93b0483c22" y="345.6"/>
      </g>
     </g>
     <g id="line2d_14">
      <g>
       <use style="stroke:#000000;stroke-width:0.5;" x="393.591554031" xlink:href="#m741efc42ff" y="43.2"/>
      </g>
     </g>
     <g id="text_6">
      <!-- Oct 28 2015 -->
      <defs>
       <path d="
M31.7812 34.625
Q24.75 34.625 20.7188 30.8594
Q16.7031 27.0938 16.7031 20.5156
Q16.7031 13.9219 20.7188 10.1562
Q24.75 6.39062 31.7812 6.39062
Q38.8125 6.39062 42.8594 10.1719
Q46.9219 13.9688 46.9219 20.5156
Q46.9219 27.0938 42.8906 30.8594
Q38.875 34.625 31.7812 34.625
M21.9219 38.8125
Q15.5781 40.375 12.0312 44.7188
Q8.5 49.0781 8.5 55.3281
Q8.5 64.0625 14.7188 69.1406
Q20.9531 74.2188 31.7812 74.2188
Q42.6719 74.2188 48.875 69.1406
Q55.0781 64.0625 55.0781 55.3281
Q55.0781 49.0781 51.5312 44.7188
Q48 40.375 41.7031 38.8125
Q48.8281 37.1562 52.7969 32.3125
Q56.7812 27.4844 56.7812 20.5156
Q56.7812 9.90625 50.3125 4.23438
Q43.8438 -1.42188 31.7812 -1.42188
Q19.7344 -1.42188 13.25 4.23438
Q6.78125 9.90625 6.78125 20.5156
Q6.78125 27.4844 10.7812 32.3125
Q14.7969 37.1562 21.9219 38.8125
M18.3125 54.3906
Q18.3125 48.7344 21.8438 45.5625
Q25.3906 42.3906 31.7812 42.3906
Q38.1406 42.3906 41.7188 45.5625
Q45.3125 48.7344 45.3125 54.3906
Q45.3125 60.0625 41.7188 63.2344
Q38.1406 66.4062 31.7812 66.4062
Q25.3906 66.4062 21.8438 63.2344
Q18.3125 60.0625 18.3125 54.3906" id="BitstreamVeraSans-Roman-38"/>
      </defs>
      <g transform="translate(329.004267296 394.065590385)rotate(-30.0)scale(0.12 -0.12)">
       <use xlink:href="#BitstreamVeraSans-Roman-4f"/>
       <use x="78.7109375" xlink:href="#BitstreamVeraSans-Roman-63"/>
       <use x="133.69140625" xlink:href="#BitstreamVeraSans-Roman-74"/>
       <use x="172.900390625" xlink:href="#BitstreamVeraSans-Roman-20"/>
       <use x="204.6875" xlink:href="#BitstreamVeraSans-Roman-32"/>
       <use x="268.310546875" xlink:href="#BitstreamVeraSans-Roman-38"/>
       <use x="331.93359375" xlink:href="#BitstreamVeraSans-Roman-20"/>
       <use x="363.720703125" xlink:href="#BitstreamVeraSans-Roman-32"/>
       <use x="427.34375" xlink:href="#BitstreamVeraSans-Roman-30"/>
       <use x="490.966796875" xlink:href="#BitstreamVeraSans-Roman-31"/>
       <use x="554.58984375" xlink:href="#BitstreamVeraSans-Roman-35"/>
      </g>
     </g>
    </g>
    <g id="xtick_7">
     <g id="line2d_15">
      <g>
       <use style="stroke:#000000;stroke-width:0.5;" x="448.721571183" xlink:href="#m93b0483c22" y="345.6"/>
      </g>
     </g>
     <g id="line2d_16">
      <g>
       <use style="stroke:#000000;stroke-width:0.5;" x="448.721571183" xlink:href="#m741efc42ff" y="43.2"/>
      </g>
     </g>
     <g id="text_7">
      <!-- Oct 31 2015 -->
      <g transform="translate(384.134284448 394.065590385)rotate(-30.0)scale(0.12 -0.12)">
       <use xlink:href="#BitstreamVeraSans-Roman-4f"/>
       <use x="78.7109375" xlink:href="#BitstreamVeraSans-Roman-63"/>
       <use x="133.69140625" xlink:href="#BitstreamVeraSans-Roman-74"/>
       <use x="172.900390625" xlink:href="#BitstreamVeraSans-Roman-20"/>
       <use x="204.6875" xlink:href="#BitstreamVeraSans-Roman-33"/>
       <use x="268.310546875" xlink:href="#BitstreamVeraSans-Roman-31"/>
       <use x="331.93359375" xlink:href="#BitstreamVeraSans-Roman-20"/>
       <use x="363.720703125" xlink:href="#BitstreamVeraSans-Roman-32"/>
       <use x="427.34375" xlink:href="#BitstreamVeraSans-Roman-30"/>
       <use x="490.966796875" xlink:href="#BitstreamVeraSans-Roman-31"/>
       <use x="554.58984375" xlink:href="#BitstreamVeraSans-Roman-35"/>
      </g>
     </g>
    </g>
    <g id="xtick_8">
     <g id="line2d_17">
      <g>
       <use style="stroke:#000000;stroke-width:0.5;" x="503.851588335" xlink:href="#m93b0483c22" y="345.6"/>
      </g>
     </g>
     <g id="line2d_18">
      <g>
       <use style="stroke:#000000;stroke-width:0.5;" x="503.851588335" xlink:href="#m741efc42ff" y="43.2"/>
      </g>
     </g>
     <g id="text_8">
      <!-- Nov 03 2015 -->
      <defs>
       <path d="
M2.98438 54.6875
L12.5 54.6875
L29.5938 8.79688
L46.6875 54.6875
L56.2031 54.6875
L35.6875 0
L23.4844 0
z
" id="BitstreamVeraSans-Roman-76"/>
       <path d="
M9.8125 72.9062
L23.0938 72.9062
L55.4219 11.9219
L55.4219 72.9062
L64.9844 72.9062
L64.9844 0
L51.7031 0
L19.3906 60.9844
L19.3906 0
L9.8125 0
z
" id="BitstreamVeraSans-Roman-4e"/>
       <path d="
M30.6094 48.3906
Q23.3906 48.3906 19.1875 42.75
Q14.9844 37.1094 14.9844 27.2969
Q14.9844 17.4844 19.1562 11.8438
Q23.3438 6.20312 30.6094 6.20312
Q37.7969 6.20312 41.9844 11.8594
Q46.1875 17.5312 46.1875 27.2969
Q46.1875 37.0156 41.9844 42.7031
Q37.7969 48.3906 30.6094 48.3906
M30.6094 56
Q42.3281 56 49.0156 48.375
Q55.7188 40.7656 55.7188 27.2969
Q55.7188 13.875 49.0156 6.21875
Q42.3281 -1.42188 30.6094 -1.42188
Q18.8438 -1.42188 12.1719 6.21875
Q5.51562 13.875 5.51562 27.2969
Q5.51562 40.7656 12.1719 48.375
Q18.8438 56 30.6094 56" id="BitstreamVeraSans-Roman-6f"/>
      </defs>
      <g transform="translate(436.948766176 395.402465385)rotate(-30.0)scale(0.12 -0.12)">
       <use xlink:href="#BitstreamVeraSans-Roman-4e"/>
       <use x="74.8046875" xlink:href="#BitstreamVeraSans-Roman-6f"/>
       <use x="135.986328125" xlink:href="#BitstreamVeraSans-Roman-76"/>
       <use x="195.166015625" xlink:href="#BitstreamVeraSans-Roman-20"/>
       <use x="226.953125" xlink:href="#BitstreamVeraSans-Roman-30"/>
       <use x="290.576171875" xlink:href="#BitstreamVeraSans-Roman-33"/>
       <use x="354.19921875" xlink:href="#BitstreamVeraSans-Roman-20"/>
       <use x="385.986328125" xlink:href="#BitstreamVeraSans-Roman-32"/>
       <use x="449.609375" xlink:href="#BitstreamVeraSans-Roman-30"/>
       <use x="513.232421875" xlink:href="#BitstreamVeraSans-Roman-31"/>
       <use x="576.85546875" xlink:href="#BitstreamVeraSans-Roman-35"/>
      </g>
     </g>
    </g>
   </g>
   <g id="matplotlib.axis_2">
    <g id="ytick_1">
     <g id="line2d_19">
      <defs>
       <path d="
M0 0
L4 0" id="m728421d6d4" style="stroke:#000000;stroke-width:0.5;"/>
      </defs>
      <g>
       <use style="stroke:#000000;stroke-width:0.5;" x="72.0" xlink:href="#m728421d6d4" y="269.882159002"/>
      </g>
     </g>
     <g id="line2d_20">
      <defs>
       <path d="
M0 0
L-4 0" id="mcb0005524f" style="stroke:#000000;stroke-width:0.5;"/>
      </defs>
      <g>
       <use style="stroke:#000000;stroke-width:0.5;" x="518.4" xlink:href="#mcb0005524f" y="269.882159002"/>
      </g>
     </g>
     <g id="text_9">
      <!-- 5000 -->
      <g transform="translate(39.183125 273.193409002)scale(0.12 -0.12)">
       <use xlink:href="#BitstreamVeraSans-Roman-35"/>
       <use x="63.623046875" xlink:href="#BitstreamVeraSans-Roman-30"/>
       <use x="127.24609375" xlink:href="#BitstreamVeraSans-Roman-30"/>
       <use x="190.869140625" xlink:href="#BitstreamVeraSans-Roman-30"/>
      </g>
     </g>
    </g>
    <g id="ytick_2">
     <g id="line2d_21">
      <g>
       <use style="stroke:#000000;stroke-width:0.5;" x="72.0" xlink:href="#m728421d6d4" y="191.452210381"/>
      </g>
     </g>
     <g id="line2d_22">
      <g>
       <use style="stroke:#000000;stroke-width:0.5;" x="518.4" xlink:href="#mcb0005524f" y="191.452210381"/>
      </g>
     </g>
     <g id="text_10">
      <!-- 10000 -->
      <g transform="translate(31.94 194.763460381)scale(0.12 -0.12)">
       <use xlink:href="#BitstreamVeraSans-Roman-31"/>
       <use x="63.623046875" xlink:href="#BitstreamVeraSans-Roman-30"/>
       <use x="127.24609375" xlink:href="#BitstreamVeraSans-Roman-30"/>
       <use x="190.869140625" xlink:href="#BitstreamVeraSans-Roman-30"/>
       <use x="254.4921875" xlink:href="#BitstreamVeraSans-Roman-30"/>
      </g>
     </g>
    </g>
    <g id="ytick_3">
     <g id="line2d_23">
      <g>
       <use style="stroke:#000000;stroke-width:0.5;" x="72.0" xlink:href="#m728421d6d4" y="113.02226176"/>
      </g>
     </g>
     <g id="line2d_24">
      <g>
       <use style="stroke:#000000;stroke-width:0.5;" x="518.4" xlink:href="#mcb0005524f" y="113.02226176"/>
      </g>
     </g>
     <g id="text_11">
      <!-- 15000 -->
      <g transform="translate(31.94 116.33351176)scale(0.12 -0.12)">
       <use xlink:href="#BitstreamVeraSans-Roman-31"/>
       <use x="63.623046875" xlink:href="#BitstreamVeraSans-Roman-35"/>
       <use x="127.24609375" xlink:href="#BitstreamVeraSans-Roman-30"/>
       <use x="190.869140625" xlink:href="#BitstreamVeraSans-Roman-30"/>
       <use x="254.4921875" xlink:href="#BitstreamVeraSans-Roman-30"/>
      </g>
     </g>
    </g>
   </g>
   <g id="text_12">
    <!-- Eisenerz -->
    <defs>
     <path d="
M54.8906 33.0156
L54.8906 0
L45.9062 0
L45.9062 32.7188
Q45.9062 40.4844 42.875 44.3281
Q39.8438 48.1875 33.7969 48.1875
Q26.5156 48.1875 22.3125 43.5469
Q18.1094 38.9219 18.1094 30.9062
L18.1094 0
L9.07812 0
L9.07812 54.6875
L18.1094 54.6875
L18.1094 46.1875
Q21.3438 51.125 25.7031 53.5625
Q30.0781 56 35.7969 56
Q45.2188 56 50.0469 50.1719
Q54.8906 44.3438 54.8906 33.0156" id="BitstreamVeraSans-Roman-6e"/>
     <path d="
M5.51562 54.6875
L48.1875 54.6875
L48.1875 46.4844
L14.4062 7.17188
L48.1875 7.17188
L48.1875 0
L4.29688 0
L4.29688 8.20312
L38.0938 47.5156
L5.51562 47.5156
z
" id="BitstreamVeraSans-Roman-7a"/>
     <path d="
M9.8125 72.9062
L55.9062 72.9062
L55.9062 64.5938
L19.6719 64.5938
L19.6719 43.0156
L54.3906 43.0156
L54.3906 34.7188
L19.6719 34.7188
L19.6719 8.29688
L56.7812 8.29688
L56.7812 0
L9.8125 0
z
" id="BitstreamVeraSans-Roman-45"/>
     <path d="
M9.42188 54.6875
L18.4062 54.6875
L18.4062 0
L9.42188 0
z

M9.42188 75.9844
L18.4062 75.9844
L18.4062 64.5938
L9.42188 64.5938
z
" id="BitstreamVeraSans-Roman-69"/>
     <path d="
M56.2031 29.5938
L56.2031 25.2031
L14.8906 25.2031
Q15.4844 15.9219 20.4844 11.0625
Q25.4844 6.20312 34.4219 6.20312
Q39.5938 6.20312 44.4531 7.46875
Q49.3125 8.73438 54.1094 11.2812
L54.1094 2.78125
Q49.2656 0.734375 44.1875 -0.34375
Q39.1094 -1.42188 33.8906 -1.42188
Q20.7969 -1.42188 13.1562 6.1875
Q5.51562 13.8125 5.51562 26.8125
Q5.51562 40.2344 12.7656 48.1094
Q20.0156 56 32.3281 56
Q43.3594 56 49.7812 48.8906
Q56.2031 41.7969 56.2031 29.5938
M47.2188 32.2344
Q47.125 39.5938 43.0938 43.9844
Q39.0625 48.3906 32.4219 48.3906
Q24.9062 48.3906 20.3906 44.1406
Q15.875 39.8906 15.1875 32.1719
z
" id="BitstreamVeraSans-Roman-65"/>
     <path d="
M41.1094 46.2969
Q39.5938 47.1719 37.8125 47.5781
Q36.0312 48 33.8906 48
Q26.2656 48 22.1875 43.0469
Q18.1094 38.0938 18.1094 28.8125
L18.1094 0
L9.07812 0
L9.07812 54.6875
L18.1094 54.6875
L18.1094 46.1875
Q20.9531 51.1719 25.4844 53.5781
Q30.0312 56 36.5312 56
Q37.4531 56 38.5781 55.875
Q39.7031 55.7656 41.0625 55.5156
z
" id="BitstreamVeraSans-Roman-72"/>
     <path d="
M44.2812 53.0781
L44.2812 44.5781
Q40.4844 46.5312 36.375 47.5
Q32.2812 48.4844 27.875 48.4844
Q21.1875 48.4844 17.8438 46.4375
Q14.5 44.3906 14.5 40.2812
Q14.5 37.1562 16.8906 35.375
Q19.2812 33.5938 26.5156 31.9844
L29.5938 31.2969
Q39.1562 29.25 43.1875 25.5156
Q47.2188 21.7812 47.2188 15.0938
Q47.2188 7.46875 41.1875 3.01562
Q35.1562 -1.42188 24.6094 -1.42188
Q20.2188 -1.42188 15.4531 -0.5625
Q10.6875 0.296875 5.42188 2
L5.42188 11.2812
Q10.4062 8.6875 15.2344 7.39062
Q20.0625 6.10938 24.8125 6.10938
Q31.1562 6.10938 34.5625 8.28125
Q37.9844 10.4531 37.9844 14.4062
Q37.9844 18.0625 35.5156 20.0156
Q33.0625 21.9688 24.7031 23.7812
L21.5781 24.5156
Q13.2344 26.2656 9.51562 29.9062
Q5.8125 33.5469 5.8125 39.8906
Q5.8125 47.6094 11.2812 51.7969
Q16.75 56 26.8125 56
Q31.7812 56 36.1719 55.2656
Q40.5781 54.5469 44.2812 53.0781" id="BitstreamVeraSans-Roman-73"/>
    </defs>
    <g transform="translate(459.50625 38.2)scale(0.144 -0.144)">
     <use xlink:href="#BitstreamVeraSans-Roman-45"/>
     <use x="63.18359375" xlink:href="#BitstreamVeraSans-Roman-69"/>
     <use x="90.966796875" xlink:href="#BitstreamVeraSans-Roman-73"/>
     <use x="143.06640625" xlink:href="#BitstreamVeraSans-Roman-65"/>
     <use x="204.58984375" xlink:href="#BitstreamVeraSans-Roman-6e"/>
     <use x="267.96875" xlink:href="#BitstreamVeraSans-Roman-65"/>
     <use x="329.4921875" xlink:href="#BitstreamVeraSans-Roman-72"/>
     <use x="370.60546875" xlink:href="#BitstreamVeraSans-Roman-7a"/>
    </g>
   </g>
   <g id="legend_1">
    <g id="patch_7">
     <path d="
M123.942 423.616
L466.458 423.616
L466.458 398.16
L123.942 398.16
z
" style="fill:#ffffff;stroke:#000000;stroke-linejoin:miter;"/>
    </g>
    <g id="line2d_25">
     <path d="
M134.022 409.822
L154.182 409.822" style="fill:none;stroke:#ff0000;stroke-linecap:square;"/>
    </g>
    <g id="line2d_26"/>
    <g id="text_13">
     <!-- Schwarzmarktpreis -->
     <defs>
      <path d="
M52 44.1875
Q55.375 50.25 60.0625 53.125
Q64.75 56 71.0938 56
Q79.6406 56 84.2812 50.0156
Q88.9219 44.0469 88.9219 33.0156
L88.9219 0
L79.8906 0
L79.8906 32.7188
Q79.8906 40.5781 77.0938 44.375
Q74.3125 48.1875 68.6094 48.1875
Q61.625 48.1875 57.5625 43.5469
Q53.5156 38.9219 53.5156 30.9062
L53.5156 0
L44.4844 0
L44.4844 32.7188
Q44.4844 40.625 41.7031 44.4062
Q38.9219 48.1875 33.1094 48.1875
Q26.2188 48.1875 22.1562 43.5312
Q18.1094 38.875 18.1094 30.9062
L18.1094 0
L9.07812 0
L9.07812 54.6875
L18.1094 54.6875
L18.1094 46.1875
Q21.1875 51.2188 25.4844 53.6094
Q29.7812 56 35.6875 56
Q41.6562 56 45.8281 52.9688
Q50 49.9531 52 44.1875" id="BitstreamVeraSans-Roman-6d"/>
      <path d="
M9.07812 75.9844
L18.1094 75.9844
L18.1094 31.1094
L44.9219 54.6875
L56.3906 54.6875
L27.3906 29.1094
L57.625 0
L45.9062 0
L18.1094 26.7031
L18.1094 0
L9.07812 0
z
" id="BitstreamVeraSans-Roman-6b"/>
      <path d="
M53.5156 70.5156
L53.5156 60.8906
Q47.9062 63.5781 42.9219 64.8906
Q37.9375 66.2188 33.2969 66.2188
Q25.25 66.2188 20.875 63.0938
Q16.5 59.9688 16.5 54.2031
Q16.5 49.3594 19.4062 46.8906
Q22.3125 44.4375 30.4219 42.9219
L36.375 41.7031
Q47.4062 39.5938 52.6562 34.2969
Q57.9062 29 57.9062 20.125
Q57.9062 9.51562 50.7969 4.04688
Q43.7031 -1.42188 29.9844 -1.42188
Q24.8125 -1.42188 18.9688 -0.25
Q13.1406 0.921875 6.89062 3.21875
L6.89062 13.375
Q12.8906 10.0156 18.6562 8.29688
Q24.4219 6.59375 29.9844 6.59375
Q38.4219 6.59375 43.0156 9.90625
Q47.6094 13.2344 47.6094 19.3906
Q47.6094 24.75 44.3125 27.7812
Q41.0156 30.8125 33.5 32.3281
L27.4844 33.5
Q16.4531 35.6875 11.5156 40.375
Q6.59375 45.0625 6.59375 53.4219
Q6.59375 63.0938 13.4062 68.6562
Q20.2188 74.2188 32.1719 74.2188
Q37.3125 74.2188 42.625 73.2812
Q47.9531 72.3594 53.5156 70.5156" id="BitstreamVeraSans-Roman-53"/>
      <path d="
M54.8906 33.0156
L54.8906 0
L45.9062 0
L45.9062 32.7188
Q45.9062 40.4844 42.875 44.3281
Q39.8438 48.1875 33.7969 48.1875
Q26.5156 48.1875 22.3125 43.5469
Q18.1094 38.9219 18.1094 30.9062
L18.1094 0
L9.07812 0
L9.07812 75.9844
L18.1094 75.9844
L18.1094 46.1875
Q21.3438 51.125 25.7031 53.5625
Q30.0781 56 35.7969 56
Q45.2188 56 50.0469 50.1719
Q54.8906 44.3438 54.8906 33.0156" id="BitstreamVeraSans-Roman-68"/>
      <path d="
M4.20312 54.6875
L13.1875 54.6875
L24.4219 12.0156
L35.5938 54.6875
L46.1875 54.6875
L57.4219 12.0156
L68.6094 54.6875
L77.5938 54.6875
L63.2812 0
L52.6875 0
L40.9219 44.8281
L29.1094 0
L18.5 0
z
" id="BitstreamVeraSans-Roman-77"/>
      <path d="
M34.2812 27.4844
Q23.3906 27.4844 19.1875 25
Q14.9844 22.5156 14.9844 16.5
Q14.9844 11.7188 18.1406 8.90625
Q21.2969 6.10938 26.7031 6.10938
Q34.1875 6.10938 38.7031 11.4062
Q43.2188 16.7031 43.2188 25.4844
L43.2188 27.4844
z

M52.2031 31.2031
L52.2031 0
L43.2188 0
L43.2188 8.29688
Q40.1406 3.32812 35.5469 0.953125
Q30.9531 -1.42188 24.3125 -1.42188
Q15.9219 -1.42188 10.9531 3.29688
Q6 8.01562 6 15.9219
Q6 25.1406 12.1719 29.8281
Q18.3594 34.5156 30.6094 34.5156
L43.2188 34.5156
L43.2188 35.4062
Q43.2188 41.6094 39.1406 45
Q35.0625 48.3906 27.6875 48.3906
Q23 48.3906 18.5469 47.2656
Q14.1094 46.1406 10.0156 43.8906
L10.0156 52.2031
Q14.9375 54.1094 19.5781 55.0469
Q24.2188 56 28.6094 56
Q40.4844 56 46.3438 49.8438
Q52.2031 43.7031 52.2031 31.2031" id="BitstreamVeraSans-Roman-61"/>
      <path d="
M18.1094 8.20312
L18.1094 -20.7969
L9.07812 -20.7969
L9.07812 54.6875
L18.1094 54.6875
L18.1094 46.3906
Q20.9531 51.2656 25.2656 53.625
Q29.5938 56 35.5938 56
Q45.5625 56 51.7812 48.0938
Q58.0156 40.1875 58.0156 27.2969
Q58.0156 14.4062 51.7812 6.48438
Q45.5625 -1.42188 35.5938 -1.42188
Q29.5938 -1.42188 25.2656 0.953125
Q20.9531 3.32812 18.1094 8.20312
M48.6875 27.2969
Q48.6875 37.2031 44.6094 42.8438
Q40.5312 48.4844 33.4062 48.4844
Q26.2656 48.4844 22.1875 42.8438
Q18.1094 37.2031 18.1094 27.2969
Q18.1094 17.3906 22.1875 11.75
Q26.2656 6.10938 33.4062 6.10938
Q40.5312 6.10938 44.6094 11.75
Q48.6875 17.3906 48.6875 27.2969" id="BitstreamVeraSans-Roman-70"/>
     </defs>
     <g transform="translate(170.022375 414.86175)scale(0.144 -0.144)">
      <use xlink:href="#BitstreamVeraSans-Roman-53"/>
      <use x="63.4765625" xlink:href="#BitstreamVeraSans-Roman-63"/>
      <use x="118.45703125" xlink:href="#BitstreamVeraSans-Roman-68"/>
      <use x="181.8359375" xlink:href="#BitstreamVeraSans-Roman-77"/>
      <use x="263.623046875" xlink:href="#BitstreamVeraSans-Roman-61"/>
      <use x="324.90234375" xlink:href="#BitstreamVeraSans-Roman-72"/>
      <use x="366.015625" xlink:href="#BitstreamVeraSans-Roman-7a"/>
      <use x="418.505859375" xlink:href="#BitstreamVeraSans-Roman-6d"/>
      <use x="515.91796875" xlink:href="#BitstreamVeraSans-Roman-61"/>
      <use x="577.197265625" xlink:href="#BitstreamVeraSans-Roman-72"/>
      <use x="618.310546875" xlink:href="#BitstreamVeraSans-Roman-6b"/>
      <use x="676.220703125" xlink:href="#BitstreamVeraSans-Roman-74"/>
      <use x="715.4296875" xlink:href="#BitstreamVeraSans-Roman-70"/>
      <use x="778.90625" xlink:href="#BitstreamVeraSans-Roman-72"/>
      <use x="817.76953125" xlink:href="#BitstreamVeraSans-Roman-65"/>
      <use x="879.29296875" xlink:href="#BitstreamVeraSans-Roman-69"/>
      <use x="907.076171875" xlink:href="#BitstreamVeraSans-Roman-73"/>
     </g>
    </g>
    <g id="line2d_27">
     <path d="
M339.609 409.822
L359.769 409.822" style="fill:none;stroke:#008000;stroke-linecap:square;"/>
    </g>
    <g id="line2d_28"/>
    <g id="text_14">
     <!-- Normalpreis -->
     <defs>
      <path d="
M9.42188 75.9844
L18.4062 75.9844
L18.4062 0
L9.42188 0
z
" id="BitstreamVeraSans-Roman-6c"/>
     </defs>
     <g transform="translate(375.609375 414.86175)scale(0.144 -0.144)">
      <use xlink:href="#BitstreamVeraSans-Roman-4e"/>
      <use x="74.8046875" xlink:href="#BitstreamVeraSans-Roman-6f"/>
      <use x="135.986328125" xlink:href="#BitstreamVeraSans-Roman-72"/>
      <use x="175.349609375" xlink:href="#BitstreamVeraSans-Roman-6d"/>
      <use x="272.76171875" xlink:href="#BitstreamVeraSans-Roman-61"/>
      <use x="334.041015625" xlink:href="#BitstreamVeraSans-Roman-6c"/>
      <use x="361.82421875" xlink:href="#BitstreamVeraSans-Roman-70"/>
      <use x="425.30078125" xlink:href="#BitstreamVeraSans-Roman-72"/>
      <use x="464.1640625" xlink:href="#BitstreamVeraSans-Roman-65"/>
      <use x="525.6875" xlink:href="#BitstreamVeraSans-Roman-69"/>
      <use x="553.470703125" xlink:href="#BitstreamVeraSans-Roman-73"/>
     </g>
    </g>
   </g>
  </g>
 </g>
 <defs>
  <clipPath id="pcb2bf987bf">
   <rect height="302.4" width="446.4" x="72.0" y="43.2"/>
  </clipPath>
 </defs>
</svg>
