<?xml version="1.0" encoding="utf-8" standalone="no"?>
<!DOCTYPE svg PUBLIC "-//W3C//DTD SVG 1.1//EN"
  "http://www.w3.org/Graphics/SVG/1.1/DTD/svg11.dtd">
<!-- Created with matplotlib (http://matplotlib.org/) -->
<svg height="432pt" version="1.1" viewBox="0 0 576 432" width="576pt" xmlns="http://www.w3.org/2000/svg" xmlns:xlink="http://www.w3.org/1999/xlink">
 <defs>
  <style type="text/css">
*{stroke-linecap:butt;stroke-linejoin:round;}
  </style>
 </defs>
 <g id="figure_1">
  <g id="patch_1">
   <path d="
M0 432
L576 432
L576 0
L0 0
z
" style="fill:#ffffff;"/>
  </g>
  <g id="axes_1">
   <g id="patch_2">
    <path d="
M72 345.6
L518.4 345.6
L518.4 43.2
L72 43.2
z
" style="fill:#ffffff;"/>
   </g>
   <g id="line2d_1">
    <path clip-path="url(#pcb2bf987bf)" d="
M72.2202 433
L72.3828 128.165
L72.5105 123.364
L72.7657 128.165
L72.8933 128.165
L73.056 433
M73.577 433
L73.659 121.491
L73.9142 128.549
L73.9955 433
M74.7262 433
L74.8075 128.645
L75.0628 131.017
L75.1904 131.017
L75.4456 120.243
L75.5732 120.243
L75.8285 131.017
L75.9095 433
M76.0485 433
L76.2113 127.541
L76.7218 127.541
L76.8847 433
M77.1153 433
L77.3599 125.774
L77.7429 128.165
L77.8241 433
M78.7288 433
L78.8915 129.125
L78.9726 433
M79.3206 433
L79.4017 130.95
L79.6569 128.549
L79.7383 433
M80.0862 433
L80.1674 129.606
L80.3298 433
M80.4691 433
L80.5503 129.606
L80.7127 433
M80.8517 433
L80.9331 127.205
L81.1885 126.533
L81.2699 433
M82.5566 433
L82.7197 125.86
L82.8013 433
M83.7052 433
L83.8683 126.024
L83.9959 128.511
L84.3787 128.511
L84.6342 125.985
L84.8788 433
M86.5943 433
L86.6758 126.581
L86.931 125.14
L87.0127 433
M87.3602 433
L87.4415 128.213
L88.2072 128.213
L88.3699 433
M88.5088 433
L88.5901 128.703
L88.8453 126.293
L88.8453 126.293
L88.9268 433
M89.0648 433
L89.2281 124.756
L89.3557 127.157
L89.5186 433
M89.6574 433
L89.7386 129.529
L89.9938 129.558
L89.9938 129.558
L90.2491 131.949
L90.3767 131.949
L91.0148 129.846
L91.7804 125.14
L91.9081 125.14
L92.5461 124.132
L92.6279 433
M92.9073 433
L93.3118 132.602
L93.7973 433
M94.89 433
L94.9708 133.024
L95.6089 130.662
L95.69 433
M95.9693 433
L96.3746 131.046
L96.861 433
M97.9523 433
L98.0336 128.645
L98.4401 433
M102.775 433
L103.266 123.076
L103.348 433
M103.623 433
L104.032 123.364
L104.522 433
M105.076 433
L105.563 130.604
L106.329 127.157
L107.095 129.519
L107.86 130.566
L107.988 128.165
L108.626 129.173
L109.391 129.173
L109.519 131.555
L110.157 130.566
L110.238 433
M110.517 433
L110.923 130.038
L111.05 132.39
L111.689 127.637
L111.816 132.39
L113.986 128.453
L114.879 127.627
L116.283 136.356
L116.41 136.356
L117.048 134.906
L117.814 126.485
L117.942 126.485
L118.349 433
M120.391 433
L120.877 131.344
L121.004 131.344
L121.41 433
M123.456 433
L123.94 136.049
L124.067 136.049
L124.705 131.334
L125.471 129.462
L126.109 131.843
L126.365 131.843
L127.002 131.67
L127.083 433
M127.317 433
L127.64 132.919
L127.64 132.919
L127.64 132.919
L127.768 128.165
L128.256 433
M128.897 433
L129.299 136.03
L130.065 133.485
L130.193 133.476
L130.831 131.094
L131.597 131.68
L132.362 129.317
L132.362 129.317
L133.894 138.7
L134.149 138.7
L134.659 130.278
L135.425 132.246
L136.318 132.246
L136.723 433
M137.236 433
L137.722 130.758
L138.209 433
M140.3 433
L140.785 133.255
L141.27 433
M141.597 433
L141.678 130.614
L142.316 136.904
L142.799 433
M143.364 433
L143.848 135.751
L143.975 138.104
L144.613 136.136
L145.097 433
M145.742 433
L146.145 135.751
L146.272 133.399
L146.91 130.71
L147.038 133.063
L147.676 126.244
L148.442 129.221
L149.208 131.046
L149.289 433
M149.573 433
L149.973 140.409
L150.739 129.903
L150.867 140.409
L151.505 133.476
L151.99 433
M153.083 433
L153.164 130.566
L153.802 136.28
L154.567 136.28
L155.333 128.405
L155.333 128.405
L155.821 433
M157.992 433
L158.396 133.639
L159.162 128.789
L159.649 433
M161.33 433
L162.224 128.568
L162.99 126.244
L163.118 138.21
L163.756 131.622
L163.883 131.622
L164.521 137.499
L164.649 137.499
L165.287 135.415
L166.053 138.584
L166.819 126.244
L167.308 433
M167.95 433
L168.35 141.561
L168.83 433
M169.481 433
L169.881 140.697
L170.647 139.305
L170.775 139.487
L171.413 134.695
L172.178 138.728
L173.072 137.48
L173.71 139.794
L174.191 433
M177.821 433
L178.304 136.088
L179.07 133.735
L179.554 433
M180.965 433
L181.367 138.2
L181.849 433
M182.18 433
L182.26 138.2
L182.662 433
M183.18 433
L183.664 135.896
L183.791 141.763
L184.43 139.689
L184.911 433
M186.248 433
L186.727 143.434
L187.492 138.824
L188.258 132.198
L189.024 144.289
L189.151 144.289
L190.028 433
M190.841 433
L191.321 142.061
L191.321 142.061
L191.321 142.061
L192.852 130.758
L193.618 132.679
L194.384 133.447
L194.869 433
M195.513 433
L195.915 137.288
L196.681 133.063
L197.651 433
M198.492 433
L198.978 131.91
L200.509 142.57
L200.989 433
M203.093 433
L203.572 144.029
L203.699 141.705
L204.338 134.935
L205.103 139.593
L205.231 139.593
L205.869 141.936
L205.949 433
M207 433
L207.4 141.897
L207.911 136.721
L208.166 136.721
L208.569 433
M208.899 433
L209.059 138.872
L209.059 138.872
L209.059 138.872
L209.3 433
M209.49 433
L209.57 141.273
L209.825 138.968
L210.307 433
M211.034 433
L211.356 134.983
L211.484 137.336
L211.867 129.269
L212.122 129.173
L212.25 129.269
L212.505 128.597
L212.633 139.689
L212.888 130.998
L213.271 126.196
L213.654 133.965
L213.654 133.965
L213.781 129.269
L214.419 129.269
L214.547 126.869
L214.802 133.965
L214.93 133.572
L215.091 433
M216.173 433
L216.333 139.065
L216.461 139.065
L216.589 141.369
L216.589 141.369
L216.844 143.924
L217.099 143.924
L217.227 135.655
L217.388 433
M218.295 433
L218.375 137.864
L218.631 135.511
L218.758 133.159
L219.013 135.511
L219.141 140.649
L219.396 137.048
L219.779 134.695
L219.907 134.695
L220.162 126.244
L220.29 137.048
L220.29 137.048
L220.417 123.844
L220.545 126.244
L220.672 121.347
L220.672 121.347
L220.928 126.244
L221.055 126.244
L221.31 138.479
L221.438 138.479
L221.693 126.341
L222.076 121.443
L222.459 139.401
L222.587 136.741
L222.748 433
M224.038 433
L224.118 144.25
L224.278 433
M224.979 433
L225.139 143.818
L225.219 433
M225.697 433
L225.777 143.194
L225.777 143.194
L225.777 143.194
L225.905 146.132
L225.905 146.132
L225.905 146.132
L225.984 433
M226.208 433
L226.288 143.194
L226.415 143.194
L226.415 143.194
L226.575 433
M226.718 433
L226.798 139.689
L227.053 141.993
L227.181 141.897
L227.436 141.993
L227.436 141.993
L227.676 433
M227.867 433
L227.946 141.993
L228.202 138.383
L228.329 138.383
L228.585 140.063
L228.712 140.063
L228.873 433
M229.015 433
L229.095 139.977
L229.35 139.977
L229.478 142.541
L229.733 142.541
L229.861 140.217
L230.116 139.593
L230.244 142.522
L230.403 433
M230.641 433
L230.882 140.025
L231.009 140.025
L231.264 137.672
L231.264 137.672
L231.345 433
M232.461 433
L232.541 142.685
L232.796 140.361
L232.796 140.361
L232.924 142.685
L233.083 433
M233.226 433
L233.306 139.055
L233.467 433
M234.375 433
L234.455 141.993
L234.71 141.993
L234.79 433
M235.523 433
L235.603 135.848
L235.765 433
M236.289 433
L236.369 142.954
L236.624 142.954
L236.704 433
M237.23 433
L237.39 143.242
L237.518 140.937
L237.678 433
M238.378 433
L238.539 141.081
L238.666 143.415
L238.921 136.424
L239.049 129.365
L239.304 124.564
L239.432 124.564
L239.687 136.328
L239.815 133.975
L240.07 131.622
L240.198 131.613
L240.453 133.975
L240.453 133.975
L240.58 133.975
L240.963 138.776
L241.124 433
M241.443 433
L241.601 147.419
L241.681 433
M241.825 433
L241.984 145.114
L242.064 433
M242.206 433
L242.367 136.232
L242.495 130.998
L242.75 130.998
L242.831 433
M242.973 433
L243.133 140.87
L243.26 138.536
L243.516 140.87
L244.026 140.879
L244.281 136.894
L244.409 136.894
L244.664 140.524
L244.792 135.848
L245.047 138.191
L245.047 138.191
L245.175 133.495
L245.43 129.798
L245.557 132.15
L245.813 126.965
L246.196 138.191
L246.323 138.2
L246.578 132.15
L246.578 132.15
L246.706 140.889
L246.961 137.048
L247.089 139.689
L247.344 137.336
L247.727 139.689
L247.855 131.574
L248.237 136.26
L249.258 136.28
L250.152 126.244
L250.534 116.593
L250.79 121.443
L250.917 121.443
L251.173 119.042
L251.3 129.221
L251.555 116.641
L251.683 121.577
L252.066 111.84
L252.321 99.356
L252.449 104.398
L252.704 101.901
L253.214 118.543
L253.47 118.533
L253.597 129.221
L253.98 129.221
L254.235 129.452
L254.363 131.574
L254.618 131.574
L254.746 129.221
L254.746 129.221
L255.001 126.821
L255.129 126.811
L255.129 126.811
L255.511 114.721
L255.511 114.721
L255.767 126.811
L255.767 126.811
L255.894 124.42
L256.277 126.244
L256.532 123.892
L256.66 123.892
L256.66 123.892
L256.915 121.491
L257.043 121.481
L257.298 123.892
L257.426 123.892
L257.681 121.491
L258.447 121.491
L258.574 130.518
L258.702 130.518
L258.83 133.927
L258.957 133.927
L259.212 137.903
L259.212 137.903
L259.34 135.559
L259.595 137.768
L259.595 137.768
L259.723 135.415
L259.978 137.768
L260.361 137.768
L260.489 134.935
L260.744 125.38
L260.871 134.887
L261.509 134.868
L261.637 132.486
L261.892 132.486
L262.02 134.878
L262.275 134.878
L262.403 127.781
L262.658 127.781
L262.786 134.878
L263.551 120.963
L263.807 120.953
L263.934 120.809
L264.189 120.819
L264.189 120.819
L264.317 128.252
L264.572 127.685
L264.7 125.284
L264.955 128.098
L264.955 128.098
L265.083 125.716
L265.466 128.261
L265.593 133.034
L265.848 133.034
L266.104 129.634
L266.231 129.634
L266.486 133.034
L266.614 133.034
L266.869 131.046
L267.763 130.988
L268.018 126.196
L268.145 128.597
L268.401 126.187
L268.784 126.196
L268.911 128.597
L269.166 128.597
L269.294 131.334
L269.549 128.981
L269.677 131.334
L269.932 138.776
L270.06 134.071
L270.315 136.424
L270.443 136.424
L270.604 433
M270.745 433
L270.825 139.881
L270.986 433
M271.608 433
L271.846 147.89
L271.974 147.899
L272.229 150.194
L272.357 150.185
L272.515 433
M272.66 433
L272.74 145.739
L272.995 122.691
L273.122 145.739
L273.378 136.472
L273.378 136.472
L273.506 136.472
L273.888 136.222
L274.143 141.129
L274.271 145.739
L274.526 135.848
L274.654 148.043
L275.037 141.465
L275.292 141.465
L275.675 139.161
L275.802 136.808
L276.058 136.808
L276.185 132.102
L276.441 129.75
L276.568 126.244
L276.951 141.465
L277.206 141.465
L277.334 138.248
L277.589 138.258
L277.717 141.465
L277.972 134.455
L277.972 134.455
L278.099 136.808
L278.482 147.035
L278.738 147.025
L278.865 144.73
L279.248 148.149
L279.407 433
M279.726 433
L279.886 143.53
L280.014 145.451
L280.269 140.841
L280.269 140.841
L280.397 143.146
L280.652 143.146
L280.779 138.219
L281.035 145.451
L281.035 145.451
L281.162 145.451
L281.417 150.396
L281.545 141.609
L282.183 129.846
L282.311 129.846
L282.566 134.695
L282.694 132.342
L282.949 133.975
L283.077 133.975
L283.459 124.468
L283.715 126.869
L283.842 126.869
L284.097 131.622
L284.608 131.622
L284.736 133.975
L285.246 137.048
L285.374 132.679
L285.756 132.486
L286.012 130.134
L286.139 127.157
L286.905 127.157
L287.16 127.733
L287.671 127.733
L287.926 122.643
L288.054 125.044
L288.437 139.391
L288.692 121.347
L288.819 123.575
L289.074 139.391
L289.202 121.347
L289.457 136.52
L289.585 136.52
L289.84 127.061
L289.968 127.061
L290.223 124.66
L290.351 119.81
L290.606 124.66
L290.733 136.52
L290.861 134.157
L291.116 134.167
L291.278 433
M292.569 433
L292.648 151.683
L292.903 149.388
L293.031 147.083
L293.286 137.816
L293.286 137.816
L293.413 137.816
L293.796 128.357
L294.051 125.956
L294.051 125.956
L294.562 150.454
L294.817 148.187
L294.817 148.187
L294.945 141.273
L295.328 145.691
L295.966 145.691
L296.349 143.962
L296.476 147.995
L296.635 433
M297.162 433
L297.242 145.643
L297.401 433
M297.546 433
L297.625 151.356
L297.783 433
M297.928 433
L298.008 149.148
L298.263 145.451
L298.39 151.404
L298.646 153.652
L298.773 153.652
L299.156 141.945
L299.539 104.542
L299.794 99.4041
L299.922 91.7697
L300.177 99.4041
L300.177 99.4041
L300.305 96.8593
L300.687 96.8593
L300.943 129.942
L301.07 126.244
L301.326 126.216
L301.453 123.844
L301.708 127.541
L301.836 132.775
L302.091 130.422
L302.219 135.127
L302.474 137.49
L302.474 137.49
L302.857 135.127
L303.112 135.118
L303.368 132.775
L303.623 137.49
L304.005 137.49
L304.005 137.49
L304.133 135.127
L304.388 139.641
L305.154 139.641
L305.282 136.808
L305.537 139.641
L305.92 148.754
L306.047 140.841
L306.303 140.841
L306.43 148.754
L306.685 148.754
L306.765 433
M306.908 433
L307.068 140.841
L307.068 140.841
L307.068 140.841
L307.196 138.536
L307.451 140.841
L307.579 135.848
L307.962 136.184
L308.217 131.478
L308.344 133.735
L308.6 131.478
L308.6 131.478
L308.727 138.536
L308.983 126.244
L309.11 148.475
L309.365 134.273
L309.446 433
M309.59 433
L309.748 148.331
L309.876 126.244
L310.131 150.607
L310.131 150.607
L310.259 150.607
L310.642 123.844
L311.024 123.844
L311.28 148.475
L311.359 433
M311.504 433
L311.662 147.995
L312.173 147.995
L312.428 150.252
L312.507 433
M312.652 433
L312.811 144.826
L312.939 144.826
L313.194 140.217
L313.577 140.217
L313.704 147.131
L313.96 153.968
L314.087 153.968
L314.342 126.244
L314.424 433
M315.157 433
L315.236 152.413
L315.491 154.669
L315.874 154.669
L316.384 143.386
L316.767 145.691
L317.022 154.669
L317.101 433
M317.63 433
L317.788 149.983
L317.867 433
M318.013 433
L318.171 154.055
L318.298 151.059
L318.554 148.754
L318.554 148.754
L318.681 143.568
L319.064 143.578
L319.319 145.883
L319.319 145.883
L319.447 140.649
L319.702 151.059
L319.83 146.977
L320.085 143.05
L320.596 143.05
L320.851 140.745
L320.851 140.745
L321.234 143.04
L321.361 142.33
L321.616 142.33
L321.999 151.347
L322.127 151.347
L322.765 146.747
L322.893 149.052
L323.051 433
M323.196 433
L323.275 149.052
L323.658 149.052
L324.296 148.283
L324.424 148.283
L324.679 149.052
L324.807 149.052
L325.062 146.411
L325.19 146.411
L325.349 433
M325.668 433
L325.828 144.106
L325.956 146.411
L326.211 144.106
L326.593 144.106
L326.721 141.801
L327.104 129.846
L327.359 132.198
L327.742 132.189
L327.87 129.798
L328.125 132.189
L328.252 132.189
L328.508 123.844
L328.891 147.342
L329.018 147.342
L329.273 145.066
L329.353 433
M329.495 433
L329.656 137.144
L329.784 134.791
L330.039 137.096
L330.167 148.399
L330.422 144.01
L330.55 148.399
L330.933 135.079
L331.188 116.593
L331.315 127.973
L331.57 130.374
L331.698 130.374
L332.081 123.172
L332.464 123.172
L332.719 120.771
L332.847 123.172
L333.23 123.172
L333.485 129.462
L333.612 129.462
L333.868 135.079
L333.995 135.079
L334.25 139.785
L334.378 139.785
L334.761 142.137
L334.921 433
M335.239 433
L335.399 143.962
L335.479 433
M335.624 433
L335.782 152.269
L335.861 433
M336.007 433
L336.165 152.269
L336.292 154.506
L336.45 433
M336.979 433
L337.058 153.248
L337.313 151.404
L337.392 433
M338.128 433
L338.207 152.806
L338.589 152.806
L338.845 150.348
L338.924 433
M339.276 433
L339.355 149.196
L340.121 141.705
L340.504 141.705
L340.759 144.202
L340.886 141.897
L341.142 144.202
L341.269 144.202
L341.525 145.499
L341.652 145.499
L341.811 433
M342.339 433
L342.418 151.078
L343.184 151.078
L343.342 433
M344.047 433
L344.204 152.931
L344.332 148.427
L344.588 148.427
L344.715 150.684
L344.97 148.84
L345.098 144.25
L345.353 146.555
L345.353 146.555
L345.481 146.555
L345.863 146.363
L346.119 148.648
L346.198 433
M346.932 433
L347.012 146.363
L347.171 433
M347.492 433
L347.65 151.741
L347.778 151.741
L347.936 433
M348.257 433
L348.416 149.292
L348.543 146.699
L348.799 151.577
L348.926 146.699
L349.181 151.577
L349.309 149.1
L349.564 151.385
L349.692 144.49
L349.947 144.49
L350.075 138.92
L350.33 149.1
L350.458 138.92
L350.713 151.385
L350.84 138.92
L351.096 138.92
L351.176 433
M351.91 433
L351.989 150.29
L352.244 150.252
L352.372 152.547
L352.627 145.403
L352.755 147.698
L353.01 145.403
L353.138 145.393
L353.393 147.698
L353.52 145.278
L353.776 147.698
L353.776 147.698
L354.286 147.707
L354.445 433
M354.59 433
L354.669 152.269
L354.924 150.012
L355.003 433
M355.356 433
L355.435 150.943
L355.593 433
M356.121 433
L356.2 148.668
L356.438 433
M356.68 433
L356.838 148.139
L357.221 148.139
L357.38 433
M358.211 433
L358.37 147.131
L358.37 147.131
L358.37 147.131
L358.497 147.121
L358.753 149.292
L358.88 144.682
L359.136 144.385
L359.263 144.673
L359.423 433
M359.566 433
L359.646 144.846
L359.805 433
M360.125 433
L360.284 147.227
L360.412 144.922
L360.571 433
M361.274 433
L361.433 147.275
L361.816 140.361
L361.943 135.655
L362.198 141.465
L362.326 141.465
L362.581 135.896
L362.709 138.248
L362.964 135.896
L363.092 138.632
L363.347 138.632
L363.474 146.065
L363.73 146.065
L363.857 147.275
L364.24 136.28
L364.495 138.632
L364.623 144.49
L364.878 144.49
L365.006 149.541
L365.164 433
M365.486 433
L365.644 152.115
L365.772 152.115
L365.929 433
M366.458 433
L366.537 149.82
L366.792 149.82
L366.92 152.077
L367.175 148.908
L367.558 150.252
L367.686 151.184
L367.844 433
M368.373 433
L368.451 152.173
L368.707 150.828
L369.09 150.492
L369.327 433
M369.52 433
L369.6 145.931
L369.759 433
M370.67 433
L370.749 153.594
L370.906 433
M371.052 433
L371.131 151.308
L371.289 433
M371.435 433
L371.514 153.594
L371.672 433
M371.994 433
L372.152 150.732
L372.231 433
M372.759 433
L372.918 148.283
L372.997 433
M373.142 433
L373.301 149.455
L373.428 147.179
L373.684 150.262
L373.684 150.262
L373.811 150.262
L374.067 148.331
L374.194 139.977
L374.355 433
M374.497 433
L374.577 141.561
L374.737 433
M374.88 433
L374.96 146.459
L375.119 433
M375.44 433
L375.598 149.301
L375.981 149.397
L376.06 433
M376.204 433
L376.364 144.442
L376.491 144.442
L376.746 142.137
L376.874 139.881
L377.512 139.881
L377.512 139.881
L377.64 144.442
L378.278 144.442
L378.405 146.747
L378.564 433
M379.092 433
L379.171 146.593
L379.426 149.061
L379.506 433
M380.336 433
L380.575 144.922
L380.703 147.217
L380.958 139.641
L381.086 139.641
L381.341 136.846
L381.468 136.856
L382.107 124.996
L382.234 129.798
L382.489 134.503
L382.617 147.227
L382.872 132.871
L383 135.233
L383.161 433
M383.303 433
L383.383 146.862
L383.638 142.282
L384.021 142.282
L384.148 147.323
L384.531 145.018
L384.786 145.018
L385.297 147.544
L385.68 140.649
L385.935 138.344
L386.062 138.344
L386.223 433
M386.542 433
L386.701 146.574
L386.78 433
M386.925 433
L387.083 150.732
L387.211 150.732
L387.369 433
M387.515 433
L387.594 151.212
L387.752 433
M387.898 433
L387.977 151.212
L388.232 143.386
L388.232 143.386
L388.312 433
M388.512 433
L388.615 315.28
L388.742 309.422
L389.125 265.392
L389.38 124.42
L389.508 119.618
L389.763 129.413
L389.891 257.23
L390.146 126.1
L390.274 123.7
L390.529 126.1
L390.657 257.23
L390.912 123.652
L391.039 121.251
L391.295 257.23
L391.678 257.23
L391.805 260.677
L392.06 123.652
L392.188 129.327
L392.443 126.965
L392.571 126.965
L392.826 129.327
L392.954 260.677
L393.209 126.244
L393.337 126.244
L393.592 260.677
L393.975 260.677
L394.102 128.645
L394.102 128.645
L394.74 123.124
L394.868 287.959
L395.123 287.959
L395.251 125.524
L395.506 134.253
L395.634 287.959
L396.016 287.959
L396.272 134.215
L397.165 134.215
L397.42 287.959
L398.186 287.959
L398.314 134.743
L398.569 132.39
L398.696 132.39
L398.952 133.351
L399.079 133.351
L399.335 130.95
L399.462 126.244
L399.717 129.51
L399.845 129.51
L400.1 130.95
L400.228 126.148
L400.483 133.303
L400.611 133.303
L400.866 130.316
L400.993 123.652
L401.249 287.959
L401.376 138.008
L401.632 138.008
L401.759 135.655
L402.014 144.74
L402.142 297.418
L402.397 306.445
L402.525 140.121
L402.78 142.906
L402.908 137.768
L403.291 137.759
L403.546 140.553
L403.929 140.601
L404.056 142.378
L404.311 137.672
L404.439 140.025
L404.694 137.672
L404.822 137.72
L405.077 140.073
L405.205 140.073
L405.46 137.72
L405.588 135.367
L405.843 135.367
L405.97 140.073
L406.226 306.445
L406.353 146.478
L406.609 144.01
L406.736 144.01
L406.991 146.123
L407.502 146.123
L407.757 143.818
L408.14 143.818
L408.268 141.513
L408.523 139.209
L408.906 139.209
L409.033 143.818
L409.416 143.818
L409.671 146.123
L409.799 149.071
L410.054 306.445
L410.182 141.955
L410.437 145.969
L410.565 145.969
L410.82 143.674
L410.948 148.283
L411.203 150.569
L411.33 306.445
L411.968 306.445
L412.096 148.908
L412.479 148.812
L412.989 139.305
L413.245 148.812
L413.883 148.812
L414.01 142.57
L414.266 148.812
L415.159 148.812
L415.414 140.649
L416.307 140.649
L416.563 137.864
L416.69 137.864
L416.945 140.649
L417.073 136.712
L417.328 136.76
L417.456 148.812
L417.839 148.908
L418.604 148.908
L418.86 306.445
L419.243 306.445
L419.37 149.436
L419.625 151.712
L420.136 151.721
L420.391 140.121
L420.519 140.121
L421.284 135.838
L421.667 135.838
L421.922 137.864
L422.05 137.864
L422.305 134.839
L422.433 131.094
L422.688 133.447
L422.816 133.447
L423.071 134.839
L423.199 132.486
L423.454 130.134
L423.964 130.134
L424.22 134.839
L424.347 132.486
L424.602 134.839
L424.73 134.839
L424.985 135.262
L425.113 137.864
L425.368 135.511
L425.496 139.228
L425.751 140.217
L425.879 140.217
L426.134 135.511
L426.261 137.864
L426.517 151.721
L426.644 151.721
L427.282 148.475
L427.362 433
M427.507 433
L427.665 147.707
L428.048 147.698
L428.176 143.242
L428.431 145.527
L428.558 150.771
L428.717 433
M428.862 433
L428.941 145.518
L429.197 153.959
L429.579 150.348
L429.707 143.242
L429.962 143.242
L430.09 153.901
L430.345 140.937
L430.426 433
M430.776 433
L430.856 145.21
L430.983 145.21
L431.238 147.515
L431.494 145.547
L431.621 145.547
L431.877 143.242
L432.004 143.242
L432.259 140.937
L432.387 143.242
L432.642 145.547
L432.642 145.547
L432.77 145.547
L433.025 147.832
L433.153 147.832
L433.536 149.801
L433.791 146.267
L433.87 433
M434.605 433
L434.684 149.436
L434.939 151.721
L435.018 433
M435.164 433
L435.322 148.86
L435.45 144.25
L435.705 144.25
L435.833 151.136
L436.088 140.265
L436.215 142.57
L436.598 142.56
L436.854 143.05
L436.981 140.745
L437.364 140.649
L437.619 144.874
L437.747 144.874
L438.002 138.392
L438.13 138.392
L438.385 136.04
L438.513 136.04
L438.768 146.248
L438.895 146.248
L439.151 143.962
L439.661 146.248
L440.044 146.219
L440.299 141.609
L440.299 141.609
L440.427 143.914
L440.682 143.674
L440.921 433
M441.113 433
L441.192 151.212
L441.35 433
M441.879 433
L441.958 151.308
L442.341 120.243
L442.505 433
M442.822 433
L442.979 153.978
L443.058 433
M443.204 433
L443.362 151.692
L443.441 433
M443.587 433
L443.745 152.403
L443.824 433
M444.353 433
L444.51 154.775
L444.638 154.775
L444.795 433
M445.325 433
L445.404 154.919
L445.561 433
M446.267 433
L446.425 154.199
L446.552 151.27
L446.71 433
M446.856 433
L446.935 149.004
L447.094 433
M447.415 433
L447.573 152.317
L447.701 147.755
L447.956 150.06
L448.084 147.755
L448.339 150.915
L448.418 433
M449.153 433
L449.232 151.088
L449.39 433
M450.222 433
L450.381 148.524
L451.146 148.524
L451.402 143.146
L451.912 143.146
L452.167 145.451
L452.55 145.451
L452.678 147.746
L452.933 148.524
L453.061 141.561
L453.444 141.561
L453.699 148.524
L453.826 148.524
L453.985 433
M454.513 433
L454.592 150.483
L454.847 148.187
L454.847 148.187
L454.927 433
M456.044 433
L456.123 148.668
L456.379 150.953
L456.458 433
M456.985 433
L457.144 144.826
L457.224 433
M457.369 433
L457.527 151.174
L457.655 151.184
L457.813 433
M458.134 433
L458.293 145.451
L458.373 433
M458.517 433
L458.676 147.227
L458.803 147.227
L458.962 433
M459.107 433
L459.186 150.118
L459.442 150.118
L459.569 147.851
L459.824 147.851
L459.952 150.118
L460.335 149.983
L460.493 433
M461.581 433
L461.739 152.029
L461.866 150.483
L462.504 150.483
L462.632 152.029
L462.887 147.851
L463.015 147.851
L463.173 433
M463.495 433
L463.653 150.348
L463.781 152.605
L463.938 433
M464.261 433
L464.419 151.99
L464.546 149.724
L464.801 147.419
L464.929 147.419
L465.088 433
M465.232 433
L465.312 140.601
L465.472 433
M465.616 433
L465.695 150.867
L465.95 140.265
L466.078 142.57
L466.333 150.867
L466.716 150.867
L466.843 141.897
L467.003 433
M467.323 433
L467.481 148.379
L467.719 433
M467.913 433
L467.992 150.233
L468.15 433
M469.237 433
L469.396 147.707
L469.475 433
M470.592 433
L470.672 147.323
L470.927 145.018
L471.055 142.714
L471.437 142.714
L471.693 143.28
L471.82 143.28
L472.075 138.728
L472.203 138.728
L472.458 136.376
L472.586 138.728
L472.841 137.096
L473.224 137.096
L473.352 139.429
L473.607 138.104
L473.734 145.018
L473.99 138.104
L474.118 140.793
L474.373 140.457
L474.5 149.589
L474.755 140.447
L474.883 140.793
L475.266 140.793
L475.521 140.649
L475.649 149.522
L475.904 144.922
L476.032 149.522
L476.19 433
M476.894 433
L477.052 149.484
L477.18 147.179
L477.435 147.563
L477.563 145.258
L477.722 433
M478.043 433
L478.201 151.356
L478.329 151.356
L478.584 149.436
L478.711 139.449
L478.967 151.702
L479.094 151.702
L479.35 151.212
L479.477 139.449
L479.732 145.451
L479.86 145.451
L480.115 140.841
L480.243 145.451
L480.498 142.368
L480.626 142.378
L480.881 145.451
L481.009 140.841
L481.264 142.378
L481.391 142.378
L481.647 142.906
L481.774 147.851
L482.03 147.467
L482.157 147.851
L482.412 147.851
L482.54 149.561
L482.795 146.891
L482.875 433
M483.019 433
L483.178 146.901
L483.306 149.292
L483.561 147.851
L483.689 149.292
L483.847 433
M483.992 433
L484.071 147.083
L484.327 149.292
L484.454 147.083
L484.613 433
M484.758 433
L484.837 149.359
L485.22 137.864
L485.381 433
M487.23 433
L487.389 145.787
L487.517 143.482
L487.772 145.787
L487.9 142.474
L488.155 144.769
L488.538 144.759
L488.666 140.745
L489.048 140.745
L489.304 144.759
L489.431 140.745
L489.686 140.745
L489.814 139.689
L490.197 139.689
L490.452 137.384
L490.58 137.384
L490.835 140.649
L491.345 140.649
L491.506 433
M492.414 433
L492.494 145.451
L492.653 433
M492.797 433
L492.877 145.547
L493.515 145.547
L493.643 147.851
L493.898 147.851
L494.026 141.945
L494.281 136.923
L494.408 136.923
L494.663 141.945
L494.791 147.851
L495.046 148.245
L495.174 142.435
L495.429 148.245
L495.557 142.435
L495.684 148.245
L495.812 144.634
L495.812 144.634
L495.892 433
M496.036 433
L496.195 148.639
L496.322 147.851
L496.578 147.851
L496.705 145.547
L497.088 148.639
L497.471 148.716
L497.854 136.856
L498.109 141.513
L498.237 148.716
L498.492 144.346
L498.62 144.346
L498.875 142.041
L499.002 139.737
L499.258 149.878
L499.258 149.878
L499.64 147.131
L499.768 147.131
L500.023 149.417
L500.151 149.417
L500.309 433
M500.455 433
L500.534 148.62
L500.789 145.451
L500.917 145.451
L501.172 146.305
L501.299 146.305
L501.555 144.01
L501.682 146.315
L501.841 433
M501.986 433
L502.065 144.778
L502.32 144.778
L502.4 433
M502.543 433
L502.703 142.282
L502.783 433
M502.926 433
L503.086 140.073
L503.214 140.073
L503.469 70.0188
L503.597 144.058
L503.852 146.344
L503.979 143.53
L504.235 145.451
L504.362 149.349
L504.745 142.57
L504.873 142.57
L505.128 140.217
L505.383 142.848
L505.766 149.349
L505.845 433
M506.373 433
L506.532 149.359
L506.659 149.359
L506.818 433
M507.728 433
L507.808 147.323
L508.063 147.323
L508.191 145.018
L508.446 145.018
L508.574 147.323
L508.829 140.025
L509.212 142.349
L509.339 142.339
L509.595 140.025
L509.722 149.628
L509.977 149.628
L510.215 433
M510.792 433
L510.871 149.916
L511.126 147.611
L511.509 145.306
L511.636 140.601
L511.892 152.182
L512.019 152.182
L512.274 137.864
L512.402 137.864
L512.657 145.787
L512.785 145.787
L513.168 145.451
L513.423 145.787
L513.503 433
M514.031 433
L514.189 152.845
L514.317 152.845
L514.474 433
M515.003 433
L515.082 148.572
L515.465 148.572
L516.103 143.146
L516.231 140.841
L516.486 143.146
L516.869 139.737
L516.996 137.384
L517.251 139.737
L517.379 135.031
L517.762 144.942
L518.017 140.313
L518.4 140.313
L518.4 140.313" style="fill:none;stroke:#ff0000;stroke-linecap:square;"/>
   </g>
   <g id="line2d_2">
    <path clip-path="url(#pcb2bf987bf)" d="
M72 150.54
L72.1276 153.2
L72.7657 153.2
L72.8933 147.333
L73.5314 147.333
L73.659 153.555
L75.0628 153.652
L75.1904 145.671
L75.8285 145.671
L75.9561 152.586
L76.5942 152.586
L76.7218 148.658
L77.3599 148.658
L77.7429 151.395
L78.1256 151.395
L78.1256 151.395
L78.2532 154.112
L78.8915 154.112
L79.0189 153.584
L79.6569 153.584
L79.7846 152.307
L80.4226 152.307
L80.5503 151.673
L81.1885 151.673
L81.316 147.102
L81.9542 147.102
L82.0816 151.02
L82.7197 151.02
L82.8473 148.898
L83.4854 148.898
L83.613 151.26
L84.2511 151.26
L84.3787 148.86
L85.017 148.86
L85.1444 151.577
L85.7825 151.577
L85.9101 151.721
L86.5482 151.721
L86.6758 152.586
L87.3139 152.586
L87.4415 153.239
L88.0796 153.239
L88.2072 151.443
L88.8453 151.443
L88.8453 151.443
L88.9729 152.23
L89.611 152.23
L89.7386 154.535
L90.3767 154.535
L91.0148 152.538
L91.9081 152.595
L92.5461 149.388
L92.6738 149.388
L93.3118 155.169
L94.2051 155.745
L94.9708 155.563
L95.6089 150.559
L95.7365 150.559
L96.3746 155.226
L97.1403 152.134
L97.906 153.748
L98.0336 153.748
L98.6717 148.034
L98.7993 148.034
L99.4374 152.182
L100.203 148.802
L100.331 148.802
L100.969 151.155
L101.734 148.485
L101.862 148.485
L102.5 150.588
L103.393 150.665
L104.032 150.943
L104.797 151.856
L105.563 153.258
L106.329 152.221
L107.095 141.945
L107.86 154.16
L108.626 154.16
L109.391 152.163
L109.519 152.163
L110.157 155.476
L110.285 155.476
L110.923 157.205
L111.05 157.205
L111.689 155.342
L111.816 155.342
L113.986 156.1
L114.879 152.71
L116.41 153.69
L117.048 157.358
L117.814 153.892
L117.942 153.892
L118.58 152.605
L118.707 152.605
L119.345 156.427
L120.111 153.968
L120.877 156.494
L121.004 156.494
L121.643 154.477
L122.408 157.368
L122.536 157.368
L123.174 157.992
L124.067 158.443
L124.705 158.175
L125.471 154.439
L126.109 156.504
L126.365 156.504
L127.13 155.716
L127.13 155.716
L127.64 159.941
L127.64 159.941
L127.768 159.941
L128.534 156.792
L128.661 156.792
L129.299 158.424
L130.065 156.004
L130.193 156.004
L130.831 156.552
L131.597 154.285
L132.362 161.603
L132.362 161.603
L133.894 160.969
L134.149 155.198
L134.659 155.198
L135.425 157.089
L136.318 158.395
L136.956 151.078
L137.722 155.659
L138.488 155.025
L139.254 157.57
L139.381 157.57
L140.785 158.011
L141.551 155.505
L141.678 155.505
L142.316 159.26
L143.082 157.512
L143.848 160.402
L143.975 160.402
L144.613 160.739
L145.507 160.7
L146.272 160.374
L146.91 155.601
L147.038 155.601
L147.676 156.206
L148.442 154.208
L149.208 157.099
L149.335 157.099
L149.973 162.592
L150.739 152.586
L150.867 152.586
L151.505 155.995
L152.27 157.694
L153.164 157.694
L153.802 158.664
L154.567 159.596
L155.333 153.872
L155.333 153.872
L156.099 156.091
L156.865 155.38
L157.758 155.38
L158.396 158.395
L159.162 156.004
L159.927 151.385
L160.693 159.855
L160.821 159.855
L162.224 151.318
L162.99 156.465
L163.118 156.465
L163.756 159.826
L163.883 159.826
L164.521 155.726
L164.649 155.726
L165.287 160.21
L166.053 163.062
L166.819 157.08
L167.712 156.436
L168.35 165.002
L169.116 161.094
L169.243 161.094
L169.881 165.05
L170.647 161.718
L170.775 161.718
L171.413 159.385
L172.178 163.197
L173.072 162.006
L173.71 151.635
L174.475 157.79
L174.603 157.79
L176.007 158.674
L176.773 160.191
L176.9 160.191
L177.538 160.374
L178.304 160.719
L179.07 156.753
L179.835 160.086
L179.963 160.086
L180.601 162.966
L180.729 162.966
L181.367 162.726
L182.26 162.736
L182.898 160.537
L183.664 163.888
L183.791 163.888
L184.43 162.304
L185.195 162.928
L185.961 164.772
L187.492 166.289
L188.258 159.26
L189.024 156.648
L189.151 156.648
L190.555 164.167
L191.321 160.739
L191.321 160.739
L192.852 157.896
L193.618 159.701
L194.384 158.223
L195.149 161.862
L195.277 161.862
L195.915 162.102
L196.681 157.829
L198.212 163.11
L198.212 163.11
L198.978 163.447
L200.509 165.002
L201.275 158.184
L202.04 165.895
L203.699 166.039
L204.338 161.824
L205.103 164.052
L205.231 164.052
L205.997 164.416
L206.124 166.318
L207.4 166.222
L207.911 159.087
L208.166 159.087
L208.804 163.36
L209.825 163.418
L210.591 160.566
L210.846 162.294
L211.356 162.294
L211.484 156.456
L212.122 156.456
L212.25 155.87
L212.888 155.87
L213.271 158.511
L213.654 158.511
L213.654 158.511
L213.781 156.081
L215.185 156.1
L215.185 156.1
L215.313 165.723
L215.951 165.723
L215.951 165.723
L216.078 165.943
L216.589 165.943
L216.589 165.943
L216.844 160.297
L217.482 160.297
L217.482 160.297
L217.61 164.647
L218.248 164.647
L218.248 164.647
L218.375 166.971
L219.013 166.971
L219.141 161.632
L219.779 161.632
L219.907 160.758
L220.545 160.758
L220.672 150.002
L220.672 150.002
L221.31 150.002
L221.438 155.966
L222.076 155.966
L222.204 159.096
L222.842 159.096
L222.842 159.096
L223.225 168.248
L223.608 168.248
L223.735 168.421
L224.373 168.421
L224.501 168.046
L225.139 168.046
L225.267 167.432
L225.905 167.432
L225.905 167.432
L226.032 165.127
L226.032 165.127
L226.67 165.127
L226.798 166.299
L227.436 166.299
L227.436 166.299
L227.819 160.662
L228.202 160.662
L228.329 162.265
L228.967 162.265
L229.095 164.628
L229.733 164.628
L229.861 164.052
L230.499 164.052
L230.499 164.052
L231.009 164.436
L231.264 164.436
L231.264 164.436
L231.392 161.199
L232.03 161.199
L232.158 164.762
L232.796 164.762
L232.796 164.762
L232.924 161.305
L233.562 161.305
L233.689 166.318
L234.327 166.318
L234.327 166.318
L234.455 166.76
L235.093 166.76
L235.093 166.76
L235.221 167.163
L236.624 167.201
L236.752 167.47
L237.39 167.47
L237.518 165.454
L238.921 165.454
L239.049 159.154
L239.687 159.154
L239.815 157.627
L240.453 157.627
L240.453 157.627
L240.58 158.203
L241.219 158.203
L241.346 169.276
L241.984 169.276
L242.112 167.451
L242.75 167.451
L242.878 168.104
L243.516 168.104
L243.643 161.459
L244.281 161.459
L244.409 162.707
L245.047 162.707
L245.047 162.707
L245.175 156.965
L246.578 156.965
L246.578 156.965
L246.706 163.869
L247.344 163.869
L247.727 158.674
L247.855 158.674
L248.237 163.399
L248.876 163.399
L248.876 163.399
L249.003 161.372
L249.641 161.372
L249.641 161.372
L249.769 154.737
L250.407 154.737
L250.534 146.161
L251.173 146.161
L251.3 146.968
L251.938 146.968
L252.066 149.349
L252.704 149.349
L252.832 141.773
L253.47 141.773
L253.597 152.163
L254.235 152.163
L254.363 160.21
L255.001 160.21
L255.129 150.991
L255.129 150.991
L255.767 150.991
L255.767 150.991
L255.894 151.433
L256.532 151.433
L256.66 155.447
L256.66 155.447
L257.298 155.447
L257.426 155.649
L258.064 155.649
L258.064 155.649
L258.447 154.861
L258.83 154.861
L258.957 163.264
L259.595 163.264
L259.595 163.264
L259.723 164.08
L260.361 164.08
L260.489 162.448
L261.127 162.448
L261.254 157.877
L261.892 157.877
L262.02 152.845
L262.658 152.845
L262.786 155.572
L263.424 155.572
L263.424 155.572
L263.551 149.148
L264.189 149.148
L264.189 149.148
L264.317 150.867
L264.955 150.867
L264.955 150.867
L265.083 152.336
L265.593 152.336
L265.848 158.472
L267.252 158.453
L267.38 156.36
L268.018 156.36
L268.145 157.454
L268.784 157.454
L268.911 161.353
L269.549 161.353
L269.677 164.004
L270.315 164.004
L270.443 164.292
L271.081 164.292
L271.463 171.916
L271.846 171.916
L271.974 161.516
L272.612 161.516
L272.74 172.022
L273.378 172.022
L273.378 172.022
L273.506 161.852
L274.143 161.852
L274.271 165.799
L274.909 165.799
L274.909 165.799
L275.037 168.085
L275.675 168.085
L275.802 166.039
L276.441 166.039
L276.568 160.546
L277.972 160.546
L277.972 160.546
L278.099 171.081
L278.738 171.081
L278.865 169.977
L279.503 169.977
L279.631 174.25
L280.269 174.25
L280.269 174.25
L280.397 160.508
L281.035 160.508
L281.035 160.508
L281.162 166.558
L281.801 166.558
L282.183 161.622
L282.566 161.622
L282.694 158.703
L283.332 158.703
L283.459 153.383
L284.097 153.383
L284.225 154.919
L284.736 154.919
L285.246 157.474
L285.629 157.474
L285.756 156.052
L286.395 156.052
L286.522 147.919
L287.16 147.919
L287.288 150.252
L287.926 150.252
L288.054 146.757
L288.692 146.757
L288.819 158.895
L289.457 158.895
L289.585 166.212
L290.223 166.212
L290.351 159.394
L290.989 159.394
L291.116 165.742
L291.754 165.742
L292.137 173.155
L292.52 173.155
L292.52 173.155
L292.648 173.328
L293.286 173.328
L293.286 173.328
L293.413 164.81
L294.051 164.81
L294.051 164.81
L294.179 172.157
L294.817 172.157
L294.817 172.157
L294.945 170.39
L295.583 170.39
L295.71 168.181
L296.349 168.181
L296.476 169.746
L297.114 169.746
L297.242 175.181
L298.646 175.21
L298.773 170.543
L299.411 170.543
L299.539 162.755
L300.177 162.755
L300.177 162.755
L300.305 159.817
L300.943 159.817
L301.07 157.608
L301.708 157.608
L301.836 157.81
L302.474 157.81
L302.474 157.81
L302.857 165.233
L303.112 165.233
L303.368 157.195
L304.005 157.195
L304.005 157.195
L304.133 162.986
L304.771 162.986
L304.899 165.271
L307.068 165.223
L307.068 165.223
L307.196 170.274
L307.834 170.274
L307.962 164.532
L308.6 164.532
L308.6 164.532
L308.727 156.753
L309.365 156.753
L309.493 172.32
L310.131 172.32
L310.131 172.32
L310.259 172.493
L311.662 172.425
L311.79 171.302
L312.428 171.302
L312.556 175.508
L313.194 175.508
L313.321 166.625
L313.96 166.625
L314.087 171.753
L314.725 171.753
L314.853 176.18
L315.491 176.18
L315.619 174.106
L316.257 174.106
L316.384 171.715
L317.022 171.715
L317.15 175.594
L317.788 175.594
L317.916 172.733
L318.554 172.733
L318.554 172.733
L318.681 166.644
L319.319 166.644
L319.319 166.644
L319.447 168.853
L320.085 168.853
L320.213 171.196
L320.851 171.196
L320.851 171.196
L321.234 166.635
L321.616 166.635
L321.999 173.011
L323.148 173.011
L323.275 170.841
L324.679 170.841
L324.807 170.495
L326.211 170.495
L326.338 169.602
L326.976 169.602
L327.104 169.199
L327.742 169.199
L327.87 170.092
L328.508 170.092
L328.635 161.718
L329.273 161.718
L329.401 170.207
L330.039 170.207
L330.167 166.424
L330.805 166.424
L330.933 163.917
L331.57 163.917
L331.698 154.429
L332.336 154.429
L332.464 155.62
L333.102 155.62
L333.23 157.838
L333.868 157.838
L333.995 161.18
L334.633 161.18
L334.761 170.361
L335.399 170.361
L335.527 176.017
L336.165 176.017
L336.292 175.21
L336.93 175.21
L337.058 174.826
L337.696 174.826
L337.824 174.413
L338.462 174.413
L338.589 171.542
L339.227 171.542
L339.355 173.126
L339.866 173.126
L340.121 166.635
L340.504 166.635
L340.759 169.765
L340.886 169.612
L341.525 169.612
L341.652 172.752
L342.29 172.752
L342.418 173.827
L343.056 173.827
L343.184 171.964
L343.822 171.964
L343.822 171.964
L343.949 174.519
L344.588 174.519
L344.715 170.62
L345.353 170.62
L345.353 170.62
L345.481 170.438
L346.884 170.438
L346.884 170.438
L347.012 175.566
L347.65 175.566
L347.778 173.232
L348.416 173.232
L348.543 170.764
L349.181 170.764
L349.309 173.05
L349.947 173.05
L350.075 163.389
L350.713 163.389
L350.84 172.06
L351.224 172.06
L351.606 174.154
L352.244 174.154
L352.372 169.545
L353.01 169.545
L353.138 167.23
L353.776 167.23
L353.776 167.23
L354.286 166.836
L354.541 166.836
L354.669 173.885
L355.307 173.885
L355.307 173.885
L355.435 172.637
L356.073 172.637
L356.073 172.637
L356.2 172.291
L356.838 172.291
L356.966 169.304
L357.477 169.304
L357.732 171.177
L358.37 171.177
L358.37 171.177
L358.497 167.038
L359.136 167.038
L359.263 166.817
L359.901 166.817
L360.029 171.244
L361.433 171.321
L361.56 167.979
L362.198 167.979
L362.326 162.765
L362.964 162.765
L363.092 163.12
L363.73 163.12
L363.857 171.292
L364.495 171.292
L364.623 168.68
L365.261 168.68
L365.389 173.741
L366.792 173.703
L366.92 172.858
L367.558 172.858
L367.686 172.512
L368.324 172.512
L368.451 174.653
L369.09 174.653
L369.472 170.053
L369.855 170.053
L369.983 174.98
L370.621 174.98
L370.749 175.153
L371.387 175.153
L371.514 174.576
L372.152 174.576
L372.28 171.974
L372.918 171.974
L373.046 171.206
L373.684 171.206
L373.684 171.206
L373.811 170.553
L375.215 170.553
L375.343 171.158
L375.981 171.158
L376.108 168.632
L376.746 168.632
L376.874 164.311
L377.512 164.311
L377.512 164.311
L377.64 166.078
L378.278 166.078
L378.405 168.488
L379.044 168.488
L379.171 170.831
L379.809 170.831
L379.937 171.244
L380.575 171.244
L380.703 164.071
L381.341 164.071
L381.468 162.774
L382.107 162.774
L382.234 157.666
L382.872 157.666
L383 168.738
L383.638 168.738
L384.148 169.18
L384.403 169.18
L384.531 169.391
L385.935 169.391
L386.062 168.469
L386.701 168.469
L386.828 174.605
L387.466 174.605
L387.594 175.057
L388.232 175.057
L388.232 175.057
L388.36 331.874
L388.998 331.874
L389.125 152.125
L389.763 152.125
L389.891 151.251
L390.529 151.251
L390.657 148.936
L391.295 148.936
L391.422 152.038
L392.06 152.038
L392.188 153.354
L392.826 153.354
L392.954 151.395
L393.592 151.395
L393.719 154.564
L394.102 154.564
L394.102 154.564
L394.485 150.703
L395.123 150.703
L395.251 156.734
L396.655 156.696
L396.782 154.516
L397.42 154.516
L397.548 156.917
L398.186 156.917
L398.314 159.423
L398.952 159.423
L399.079 156.696
L399.717 156.696
L399.845 152.979
L400.483 152.979
L400.611 160.691
L401.249 160.691
L401.376 166.721
L402.014 166.721
L402.142 167.163
L402.78 167.163
L402.908 165.05
L403.546 165.05
L403.673 164.858
L404.311 164.858
L404.439 163.456
L405.077 163.456
L405.205 171.571
L405.843 171.571
L405.97 168.373
L406.609 168.373
L406.736 170.841
L407.374 170.841
L407.502 171.475
L408.14 171.475
L408.268 167.307
L408.906 167.307
L409.033 164.071
L409.671 164.071
L409.799 167.893
L410.437 167.893
L410.565 172.272
L411.203 172.272
L411.33 169.285
L411.968 169.285
L412.096 172.848
L412.607 172.848
L412.989 163.504
L413.5 163.504
L413.627 165.127
L415.797 165.021
L415.925 162.371
L416.563 162.371
L416.69 161.324
L417.328 161.324
L417.456 164.157
L418.094 164.157
L418.222 168.267
L418.86 168.267
L418.987 173.367
L419.625 173.367
L419.753 166.731
L421.157 166.798
L421.284 159.538
L421.922 159.538
L422.05 162.918
L422.688 162.918
L422.816 157.454
L424.22 157.445
L424.347 157.714
L424.985 157.714
L425.113 161.468
L425.751 161.468
L425.879 164.215
L426.517 164.215
L426.644 172.464
L427.282 172.464
L427.41 173.914
L428.048 173.914
L428.176 167.47
L428.814 167.47
L428.941 175.498
L429.579 175.498
L429.707 167.489
L430.345 167.489
L430.473 171.542
L430.983 171.542
L431.238 169.66
L431.877 169.66
L432.004 161.708
L432.642 161.708
L432.642 161.708
L432.77 164.1
L433.408 164.1
L433.536 170.332
L434.174 170.332
L434.301 173.367
L434.939 173.367
L435.067 172.81
L435.705 172.81
L435.833 169.016
L436.471 169.016
L436.598 170.188
L437.236 170.188
L437.364 168.152
L438.002 168.152
L438.13 170.418
L438.768 170.418
L438.895 172.032
L439.533 172.032
L439.661 169.535
L440.299 169.535
L440.299 169.535
L440.427 167.893
L441.065 167.893
L441.192 175.124
L441.831 175.124
L441.831 175.124
L441.958 175.374
L442.596 175.374
L442.724 175.518
L443.362 175.518
L443.49 174.02
L444.128 174.02
L444.255 176.276
L444.893 176.276
L445.021 176.411
L445.659 176.411
L446.042 175.729
L446.425 175.729
L446.552 172.934
L447.19 172.934
L447.318 173.933
L447.956 173.933
L448.084 172.598
L448.722 172.598
L448.849 172.762
L449.487 172.762
L449.487 172.762
L449.615 172.493
L450.126 172.493
L450.381 170.015
L451.019 170.015
L451.146 169.583
L451.785 169.583
L451.912 163.562
L452.55 163.562
L452.678 165.905
L453.316 165.905
L453.444 168.066
L454.082 168.066
L454.209 172.185
L454.847 172.185
L454.847 172.185
L454.975 170.601
L455.613 170.601
L455.741 172.637
L456.379 172.637
L456.506 168.988
L457.144 168.988
L457.272 172.858
L457.91 172.858
L458.038 173.472
L458.676 173.472
L458.803 171.84
L459.442 171.84
L459.569 171.715
L460.207 171.715
L460.335 171.916
L460.973 171.916
L461.101 173.664
L461.739 173.664
L461.866 172.185
L462.504 172.185
L462.632 171.84
L463.27 171.84
L463.398 174.212
L464.036 174.212
L464.163 173.635
L464.801 173.635
L464.929 164.973
L465.567 164.973
L465.567 164.973
L465.695 172.55
L466.333 172.55
L466.46 168.402
L467.098 168.402
L467.098 168.402
L467.226 172.339
L467.864 172.339
L467.992 171.955
L468.63 171.955
L468.757 171.734
L469.396 171.734
L469.523 169.525
L470.161 169.525
L470.289 171.34
L470.927 171.34
L471.055 165.329
L471.693 165.329
L471.82 163.216
L472.458 163.216
L472.586 161.67
L473.224 161.67
L473.352 162.64
L473.99 162.64
L474.118 165.175
L474.755 165.175
L474.883 171.273
L475.521 171.273
L475.649 166.904
L476.287 166.904
L476.414 173.405
L477.052 173.405
L477.18 171.58
L477.818 171.58
L477.946 173.347
L478.584 173.347
L478.711 163.908
L479.35 163.908
L479.477 169.612
L480.115 169.612
L480.243 166.664
L480.881 166.664
L481.009 169.362
L481.647 169.362
L481.774 171.859
L482.412 171.859
L482.54 168.776
L483.178 168.776
L483.306 171.859
L483.944 171.859
L484.071 171.119
L484.709 171.119
L484.837 168.978
L485.475 168.978
L485.858 170.572
L486.241 170.572
L486.241 170.572
L486.368 170.207
L487.007 170.207
L487.134 169.9
L487.772 169.9
L487.9 166.75
L488.538 166.75
L488.666 162.918
L489.304 162.918
L489.431 164.128
L490.835 164.157
L490.963 165.223
L491.601 165.223
L491.728 169.593
L493.132 169.689
L493.26 170.053
L493.898 170.053
L494.026 166.26
L494.663 166.26
L494.791 164.522
L495.429 164.522
L495.557 170.428
L496.961 170.505
L497.088 165.838
L497.726 165.838
L497.854 166.347
L498.492 166.347
L498.62 171.609
L499.258 171.609
L499.258 171.609
L499.385 171.177
L500.023 171.177
L500.151 170.418
L500.789 170.418
L500.917 170.226
L501.555 170.226
L501.682 171.11
L502.32 171.11
L502.448 166.644
L503.086 166.644
L503.214 168.248
L503.852 168.248
L503.979 167.528
L504.617 167.528
L504.745 164.916
L505.383 164.916
L505.511 165.434
L506.149 165.434
L506.277 171.119
L507.68 171.062
L507.808 171.379
L508.446 171.379
L508.574 164.445
L509.212 164.445
L509.339 166.942
L509.977 166.942
L510.36 171.772
L510.743 171.772
L510.871 173.808
L511.509 173.808
L511.636 166.788
L512.274 166.788
L512.402 167.72
L513.04 167.72
L513.168 168.546
L513.806 168.546
L513.933 174.5
L514.572 174.5
L514.699 174.653
L515.337 174.653
L515.465 170.514
L516.103 170.514
L516.231 166.366
L516.869 166.366
L516.996 166.913
L517.634 166.913
L517.762 169.641
L518.4 169.641
L518.4 169.641" style="fill:none;stroke:#008000;stroke-linecap:square;"/>
   </g>
   <g id="patch_3">
    <path d="
M72 43.2
L518.4 43.2" style="fill:none;stroke:#000000;stroke-linecap:square;stroke-linejoin:miter;"/>
   </g>
   <g id="patch_4">
    <path d="
M518.4 345.6
L518.4 43.2" style="fill:none;stroke:#000000;stroke-linecap:square;stroke-linejoin:miter;"/>
   </g>
   <g id="patch_5">
    <path d="
M72 345.6
L518.4 345.6" style="fill:none;stroke:#000000;stroke-linecap:square;stroke-linejoin:miter;"/>
   </g>
   <g id="patch_6">
    <path d="
M72 345.6
L72 43.2" style="fill:none;stroke:#000000;stroke-linecap:square;stroke-linejoin:miter;"/>
   </g>
   <g id="matplotlib.axis_1">
    <g id="xtick_1">
     <g id="line2d_3">
      <defs>
       <path d="
M0 0
L0 -4" id="m93b0483c22" style="stroke:#000000;stroke-width:0.5;"/>
      </defs>
      <g>
       <use style="stroke:#000000;stroke-width:0.5;" x="117.941468267" xlink:href="#m93b0483c22" y="345.6"/>
      </g>
     </g>
     <g id="line2d_4">
      <defs>
       <path d="
M0 0
L0 4" id="m741efc42ff" style="stroke:#000000;stroke-width:0.5;"/>
      </defs>
      <g>
       <use style="stroke:#000000;stroke-width:0.5;" x="117.941468267" xlink:href="#m741efc42ff" y="43.2"/>
      </g>
     </g>
     <g id="text_1">
      <!-- Oct 13 2015 -->
      <defs>
       <path d="
M19.1875 8.29688
L53.6094 8.29688
L53.6094 0
L7.32812 0
L7.32812 8.29688
Q12.9375 14.1094 22.625 23.8906
Q32.3281 33.6875 34.8125 36.5312
Q39.5469 41.8438 41.4219 45.5312
Q43.3125 49.2188 43.3125 52.7812
Q43.3125 58.5938 39.2344 62.25
Q35.1562 65.9219 28.6094 65.9219
Q23.9688 65.9219 18.8125 64.3125
Q13.6719 62.7031 7.8125 59.4219
L7.8125 69.3906
Q13.7656 71.7812 18.9375 73
Q24.125 74.2188 28.4219 74.2188
Q39.75 74.2188 46.4844 68.5469
Q53.2188 62.8906 53.2188 53.4219
Q53.2188 48.9219 51.5312 44.8906
Q49.8594 40.875 45.4062 35.4062
Q44.1875 33.9844 37.6406 27.2188
Q31.1094 20.4531 19.1875 8.29688" id="BitstreamVeraSans-Roman-32"/>
       <path d="
M39.4062 66.2188
Q28.6562 66.2188 22.3281 58.2031
Q16.0156 50.2031 16.0156 36.375
Q16.0156 22.6094 22.3281 14.5938
Q28.6562 6.59375 39.4062 6.59375
Q50.1406 6.59375 56.4219 14.5938
Q62.7031 22.6094 62.7031 36.375
Q62.7031 50.2031 56.4219 58.2031
Q50.1406 66.2188 39.4062 66.2188
M39.4062 74.2188
Q54.7344 74.2188 63.9062 63.9375
Q73.0938 53.6562 73.0938 36.375
Q73.0938 19.1406 63.9062 8.85938
Q54.7344 -1.42188 39.4062 -1.42188
Q24.0312 -1.42188 14.8125 8.82812
Q5.60938 19.0938 5.60938 36.375
Q5.60938 53.6562 14.8125 63.9375
Q24.0312 74.2188 39.4062 74.2188" id="BitstreamVeraSans-Roman-4f"/>
       <path d="
M31.7812 66.4062
Q24.1719 66.4062 20.3281 58.9062
Q16.5 51.4219 16.5 36.375
Q16.5 21.3906 20.3281 13.8906
Q24.1719 6.39062 31.7812 6.39062
Q39.4531 6.39062 43.2812 13.8906
Q47.125 21.3906 47.125 36.375
Q47.125 51.4219 43.2812 58.9062
Q39.4531 66.4062 31.7812 66.4062
M31.7812 74.2188
Q44.0469 74.2188 50.5156 64.5156
Q56.9844 54.8281 56.9844 36.375
Q56.9844 17.9688 50.5156 8.26562
Q44.0469 -1.42188 31.7812 -1.42188
Q19.5312 -1.42188 13.0625 8.26562
Q6.59375 17.9688 6.59375 36.375
Q6.59375 54.8281 13.0625 64.5156
Q19.5312 74.2188 31.7812 74.2188" id="BitstreamVeraSans-Roman-30"/>
       <path d="
M12.4062 8.29688
L28.5156 8.29688
L28.5156 63.9219
L10.9844 60.4062
L10.9844 69.3906
L28.4219 72.9062
L38.2812 72.9062
L38.2812 8.29688
L54.3906 8.29688
L54.3906 0
L12.4062 0
z
" id="BitstreamVeraSans-Roman-31"/>
       <path d="
M40.5781 39.3125
Q47.6562 37.7969 51.625 33
Q55.6094 28.2188 55.6094 21.1875
Q55.6094 10.4062 48.1875 4.48438
Q40.7656 -1.42188 27.0938 -1.42188
Q22.5156 -1.42188 17.6562 -0.515625
Q12.7969 0.390625 7.625 2.20312
L7.625 11.7188
Q11.7188 9.32812 16.5938 8.10938
Q21.4844 6.89062 26.8125 6.89062
Q36.0781 6.89062 40.9375 10.5469
Q45.7969 14.2031 45.7969 21.1875
Q45.7969 27.6406 41.2812 31.2656
Q36.7656 34.9062 28.7188 34.9062
L20.2188 34.9062
L20.2188 43.0156
L29.1094 43.0156
Q36.375 43.0156 40.2344 45.9219
Q44.0938 48.8281 44.0938 54.2969
Q44.0938 59.9062 40.1094 62.9062
Q36.1406 65.9219 28.7188 65.9219
Q24.6562 65.9219 20.0156 65.0312
Q15.375 64.1562 9.8125 62.3125
L9.8125 71.0938
Q15.4375 72.6562 20.3438 73.4375
Q25.25 74.2188 29.5938 74.2188
Q40.8281 74.2188 47.3594 69.1094
Q53.9062 64.0156 53.9062 55.3281
Q53.9062 49.2656 50.4375 45.0938
Q46.9688 40.9219 40.5781 39.3125" id="BitstreamVeraSans-Roman-33"/>
       <path id="BitstreamVeraSans-Roman-20"/>
       <path d="
M10.7969 72.9062
L49.5156 72.9062
L49.5156 64.5938
L19.8281 64.5938
L19.8281 46.7344
Q21.9688 47.4688 24.1094 47.8281
Q26.2656 48.1875 28.4219 48.1875
Q40.625 48.1875 47.75 41.5
Q54.8906 34.8125 54.8906 23.3906
Q54.8906 11.625 47.5625 5.09375
Q40.2344 -1.42188 26.9062 -1.42188
Q22.3125 -1.42188 17.5469 -0.640625
Q12.7969 0.140625 7.71875 1.70312
L7.71875 11.625
Q12.1094 9.23438 16.7969 8.0625
Q21.4844 6.89062 26.7031 6.89062
Q35.1562 6.89062 40.0781 11.3281
Q45.0156 15.7656 45.0156 23.3906
Q45.0156 31 40.0781 35.4375
Q35.1562 39.8906 26.7031 39.8906
Q22.75 39.8906 18.8125 39.0156
Q14.8906 38.1406 10.7969 36.2812
z
" id="BitstreamVeraSans-Roman-35"/>
       <path d="
M18.3125 70.2188
L18.3125 54.6875
L36.8125 54.6875
L36.8125 47.7031
L18.3125 47.7031
L18.3125 18.0156
Q18.3125 11.3281 20.1406 9.42188
Q21.9688 7.51562 27.5938 7.51562
L36.8125 7.51562
L36.8125 0
L27.5938 0
Q17.1875 0 13.2344 3.875
Q9.28125 7.76562 9.28125 18.0156
L9.28125 47.7031
L2.6875 47.7031
L2.6875 54.6875
L9.28125 54.6875
L9.28125 70.2188
z
" id="BitstreamVeraSans-Roman-74"/>
       <path d="
M48.7812 52.5938
L48.7812 44.1875
Q44.9688 46.2969 41.1406 47.3438
Q37.3125 48.3906 33.4062 48.3906
Q24.6562 48.3906 19.8125 42.8438
Q14.9844 37.3125 14.9844 27.2969
Q14.9844 17.2812 19.8125 11.7344
Q24.6562 6.20312 33.4062 6.20312
Q37.3125 6.20312 41.1406 7.25
Q44.9688 8.29688 48.7812 10.4062
L48.7812 2.09375
Q45.0156 0.34375 40.9844 -0.53125
Q36.9688 -1.42188 32.4219 -1.42188
Q20.0625 -1.42188 12.7812 6.34375
Q5.51562 14.1094 5.51562 27.2969
Q5.51562 40.6719 12.8594 48.3281
Q20.2188 56 33.0156 56
Q37.1562 56 41.1094 55.1406
Q45.0625 54.2969 48.7812 52.5938" id="BitstreamVeraSans-Roman-63"/>
      </defs>
      <g transform="translate(53.3541815316 394.065590385)rotate(-30.0)scale(0.12 -0.12)">
       <use xlink:href="#BitstreamVeraSans-Roman-4f"/>
       <use x="78.7109375" xlink:href="#BitstreamVeraSans-Roman-63"/>
       <use x="133.69140625" xlink:href="#BitstreamVeraSans-Roman-74"/>
       <use x="172.900390625" xlink:href="#BitstreamVeraSans-Roman-20"/>
       <use x="204.6875" xlink:href="#BitstreamVeraSans-Roman-31"/>
       <use x="268.310546875" xlink:href="#BitstreamVeraSans-Roman-33"/>
       <use x="331.93359375" xlink:href="#BitstreamVeraSans-Roman-20"/>
       <use x="363.720703125" xlink:href="#BitstreamVeraSans-Roman-32"/>
       <use x="427.34375" xlink:href="#BitstreamVeraSans-Roman-30"/>
       <use x="490.966796875" xlink:href="#BitstreamVeraSans-Roman-31"/>
       <use x="554.58984375" xlink:href="#BitstreamVeraSans-Roman-35"/>
      </g>
     </g>
    </g>
    <g id="xtick_2">
     <g id="line2d_5">
      <g>
       <use style="stroke:#000000;stroke-width:0.5;" x="173.071485419" xlink:href="#m93b0483c22" y="345.6"/>
      </g>
     </g>
     <g id="line2d_6">
      <g>
       <use style="stroke:#000000;stroke-width:0.5;" x="173.071485419" xlink:href="#m741efc42ff" y="43.2"/>
      </g>
     </g>
     <g id="text_2">
      <!-- Oct 16 2015 -->
      <defs>
       <path d="
M33.0156 40.375
Q26.375 40.375 22.4844 35.8281
Q18.6094 31.2969 18.6094 23.3906
Q18.6094 15.5312 22.4844 10.9531
Q26.375 6.39062 33.0156 6.39062
Q39.6562 6.39062 43.5312 10.9531
Q47.4062 15.5312 47.4062 23.3906
Q47.4062 31.2969 43.5312 35.8281
Q39.6562 40.375 33.0156 40.375
M52.5938 71.2969
L52.5938 62.3125
Q48.875 64.0625 45.0938 64.9844
Q41.3125 65.9219 37.5938 65.9219
Q27.8281 65.9219 22.6719 59.3281
Q17.5312 52.7344 16.7969 39.4062
Q19.6719 43.6562 24.0156 45.9219
Q28.375 48.1875 33.5938 48.1875
Q44.5781 48.1875 50.9531 41.5156
Q57.3281 34.8594 57.3281 23.3906
Q57.3281 12.1562 50.6875 5.35938
Q44.0469 -1.42188 33.0156 -1.42188
Q20.3594 -1.42188 13.6719 8.26562
Q6.98438 17.9688 6.98438 36.375
Q6.98438 53.6562 15.1875 63.9375
Q23.3906 74.2188 37.2031 74.2188
Q40.9219 74.2188 44.7031 73.4844
Q48.4844 72.75 52.5938 71.2969" id="BitstreamVeraSans-Roman-36"/>
      </defs>
      <g transform="translate(108.484198684 394.065590385)rotate(-30.0)scale(0.12 -0.12)">
       <use xlink:href="#BitstreamVeraSans-Roman-4f"/>
       <use x="78.7109375" xlink:href="#BitstreamVeraSans-Roman-63"/>
       <use x="133.69140625" xlink:href="#BitstreamVeraSans-Roman-74"/>
       <use x="172.900390625" xlink:href="#BitstreamVeraSans-Roman-20"/>
       <use x="204.6875" xlink:href="#BitstreamVeraSans-Roman-31"/>
       <use x="268.310546875" xlink:href="#BitstreamVeraSans-Roman-36"/>
       <use x="331.93359375" xlink:href="#BitstreamVeraSans-Roman-20"/>
       <use x="363.720703125" xlink:href="#BitstreamVeraSans-Roman-32"/>
       <use x="427.34375" xlink:href="#BitstreamVeraSans-Roman-30"/>
       <use x="490.966796875" xlink:href="#BitstreamVeraSans-Roman-31"/>
       <use x="554.58984375" xlink:href="#BitstreamVeraSans-Roman-35"/>
      </g>
     </g>
    </g>
    <g id="xtick_3">
     <g id="line2d_7">
      <g>
       <use style="stroke:#000000;stroke-width:0.5;" x="228.201502573" xlink:href="#m93b0483c22" y="345.6"/>
      </g>
     </g>
     <g id="line2d_8">
      <g>
       <use style="stroke:#000000;stroke-width:0.5;" x="228.201502573" xlink:href="#m741efc42ff" y="43.2"/>
      </g>
     </g>
     <g id="text_3">
      <!-- Oct 19 2015 -->
      <defs>
       <path d="
M10.9844 1.51562
L10.9844 10.5
Q14.7031 8.73438 18.5 7.8125
Q22.3125 6.89062 25.9844 6.89062
Q35.75 6.89062 40.8906 13.4531
Q46.0469 20.0156 46.7812 33.4062
Q43.9531 29.2031 39.5938 26.9531
Q35.25 24.7031 29.9844 24.7031
Q19.0469 24.7031 12.6719 31.3125
Q6.29688 37.9375 6.29688 49.4219
Q6.29688 60.6406 12.9375 67.4219
Q19.5781 74.2188 30.6094 74.2188
Q43.2656 74.2188 49.9219 64.5156
Q56.5938 54.8281 56.5938 36.375
Q56.5938 19.1406 48.4062 8.85938
Q40.2344 -1.42188 26.4219 -1.42188
Q22.7031 -1.42188 18.8906 -0.6875
Q15.0938 0.046875 10.9844 1.51562
M30.6094 32.4219
Q37.25 32.4219 41.125 36.9531
Q45.0156 41.5 45.0156 49.4219
Q45.0156 57.2812 41.125 61.8438
Q37.25 66.4062 30.6094 66.4062
Q23.9688 66.4062 20.0938 61.8438
Q16.2188 57.2812 16.2188 49.4219
Q16.2188 41.5 20.0938 36.9531
Q23.9688 32.4219 30.6094 32.4219" id="BitstreamVeraSans-Roman-39"/>
      </defs>
      <g transform="translate(163.614215838 394.065590385)rotate(-30.0)scale(0.12 -0.12)">
       <use xlink:href="#BitstreamVeraSans-Roman-4f"/>
       <use x="78.7109375" xlink:href="#BitstreamVeraSans-Roman-63"/>
       <use x="133.69140625" xlink:href="#BitstreamVeraSans-Roman-74"/>
       <use x="172.900390625" xlink:href="#BitstreamVeraSans-Roman-20"/>
       <use x="204.6875" xlink:href="#BitstreamVeraSans-Roman-31"/>
       <use x="268.310546875" xlink:href="#BitstreamVeraSans-Roman-39"/>
       <use x="331.93359375" xlink:href="#BitstreamVeraSans-Roman-20"/>
       <use x="363.720703125" xlink:href="#BitstreamVeraSans-Roman-32"/>
       <use x="427.34375" xlink:href="#BitstreamVeraSans-Roman-30"/>
       <use x="490.966796875" xlink:href="#BitstreamVeraSans-Roman-31"/>
       <use x="554.58984375" xlink:href="#BitstreamVeraSans-Roman-35"/>
      </g>
     </g>
    </g>
    <g id="xtick_4">
     <g id="line2d_9">
      <g>
       <use style="stroke:#000000;stroke-width:0.5;" x="283.331519725" xlink:href="#m93b0483c22" y="345.6"/>
      </g>
     </g>
     <g id="line2d_10">
      <g>
       <use style="stroke:#000000;stroke-width:0.5;" x="283.331519725" xlink:href="#m741efc42ff" y="43.2"/>
      </g>
     </g>
     <g id="text_4">
      <!-- Oct 22 2015 -->
      <g transform="translate(218.74423299 394.065590385)rotate(-30.0)scale(0.12 -0.12)">
       <use xlink:href="#BitstreamVeraSans-Roman-4f"/>
       <use x="78.7109375" xlink:href="#BitstreamVeraSans-Roman-63"/>
       <use x="133.69140625" xlink:href="#BitstreamVeraSans-Roman-74"/>
       <use x="172.900390625" xlink:href="#BitstreamVeraSans-Roman-20"/>
       <use x="204.6875" xlink:href="#BitstreamVeraSans-Roman-32"/>
       <use x="268.310546875" xlink:href="#BitstreamVeraSans-Roman-32"/>
       <use x="331.93359375" xlink:href="#BitstreamVeraSans-Roman-20"/>
       <use x="363.720703125" xlink:href="#BitstreamVeraSans-Roman-32"/>
       <use x="427.34375" xlink:href="#BitstreamVeraSans-Roman-30"/>
       <use x="490.966796875" xlink:href="#BitstreamVeraSans-Roman-31"/>
       <use x="554.58984375" xlink:href="#BitstreamVeraSans-Roman-35"/>
      </g>
     </g>
    </g>
    <g id="xtick_5">
     <g id="line2d_11">
      <g>
       <use style="stroke:#000000;stroke-width:0.5;" x="338.461536877" xlink:href="#m93b0483c22" y="345.6"/>
      </g>
     </g>
     <g id="line2d_12">
      <g>
       <use style="stroke:#000000;stroke-width:0.5;" x="338.461536877" xlink:href="#m741efc42ff" y="43.2"/>
      </g>
     </g>
     <g id="text_5">
      <!-- Oct 25 2015 -->
      <g transform="translate(273.874250142 394.065590385)rotate(-30.0)scale(0.12 -0.12)">
       <use xlink:href="#BitstreamVeraSans-Roman-4f"/>
       <use x="78.7109375" xlink:href="#BitstreamVeraSans-Roman-63"/>
       <use x="133.69140625" xlink:href="#BitstreamVeraSans-Roman-74"/>
       <use x="172.900390625" xlink:href="#BitstreamVeraSans-Roman-20"/>
       <use x="204.6875" xlink:href="#BitstreamVeraSans-Roman-32"/>
       <use x="268.310546875" xlink:href="#BitstreamVeraSans-Roman-35"/>
       <use x="331.93359375" xlink:href="#BitstreamVeraSans-Roman-20"/>
       <use x="363.720703125" xlink:href="#BitstreamVeraSans-Roman-32"/>
       <use x="427.34375" xlink:href="#BitstreamVeraSans-Roman-30"/>
       <use x="490.966796875" xlink:href="#BitstreamVeraSans-Roman-31"/>
       <use x="554.58984375" xlink:href="#BitstreamVeraSans-Roman-35"/>
      </g>
     </g>
    </g>
    <g id="xtick_6">
     <g id="line2d_13">
      <g>
       <use style="stroke:#000000;stroke-width:0.5;" x="393.591554031" xlink:href="#m93b0483c22" y="345.6"/>
      </g>
     </g>
     <g id="line2d_14">
      <g>
       <use style="stroke:#000000;stroke-width:0.5;" x="393.591554031" xlink:href="#m741efc42ff" y="43.2"/>
      </g>
     </g>
     <g id="text_6">
      <!-- Oct 28 2015 -->
      <defs>
       <path d="
M31.7812 34.625
Q24.75 34.625 20.7188 30.8594
Q16.7031 27.0938 16.7031 20.5156
Q16.7031 13.9219 20.7188 10.1562
Q24.75 6.39062 31.7812 6.39062
Q38.8125 6.39062 42.8594 10.1719
Q46.9219 13.9688 46.9219 20.5156
Q46.9219 27.0938 42.8906 30.8594
Q38.875 34.625 31.7812 34.625
M21.9219 38.8125
Q15.5781 40.375 12.0312 44.7188
Q8.5 49.0781 8.5 55.3281
Q8.5 64.0625 14.7188 69.1406
Q20.9531 74.2188 31.7812 74.2188
Q42.6719 74.2188 48.875 69.1406
Q55.0781 64.0625 55.0781 55.3281
Q55.0781 49.0781 51.5312 44.7188
Q48 40.375 41.7031 38.8125
Q48.8281 37.1562 52.7969 32.3125
Q56.7812 27.4844 56.7812 20.5156
Q56.7812 9.90625 50.3125 4.23438
Q43.8438 -1.42188 31.7812 -1.42188
Q19.7344 -1.42188 13.25 4.23438
Q6.78125 9.90625 6.78125 20.5156
Q6.78125 27.4844 10.7812 32.3125
Q14.7969 37.1562 21.9219 38.8125
M18.3125 54.3906
Q18.3125 48.7344 21.8438 45.5625
Q25.3906 42.3906 31.7812 42.3906
Q38.1406 42.3906 41.7188 45.5625
Q45.3125 48.7344 45.3125 54.3906
Q45.3125 60.0625 41.7188 63.2344
Q38.1406 66.4062 31.7812 66.4062
Q25.3906 66.4062 21.8438 63.2344
Q18.3125 60.0625 18.3125 54.3906" id="BitstreamVeraSans-Roman-38"/>
      </defs>
      <g transform="translate(329.004267296 394.065590385)rotate(-30.0)scale(0.12 -0.12)">
       <use xlink:href="#BitstreamVeraSans-Roman-4f"/>
       <use x="78.7109375" xlink:href="#BitstreamVeraSans-Roman-63"/>
       <use x="133.69140625" xlink:href="#BitstreamVeraSans-Roman-74"/>
       <use x="172.900390625" xlink:href="#BitstreamVeraSans-Roman-20"/>
       <use x="204.6875" xlink:href="#BitstreamVeraSans-Roman-32"/>
       <use x="268.310546875" xlink:href="#BitstreamVeraSans-Roman-38"/>
       <use x="331.93359375" xlink:href="#BitstreamVeraSans-Roman-20"/>
       <use x="363.720703125" xlink:href="#BitstreamVeraSans-Roman-32"/>
       <use x="427.34375" xlink:href="#BitstreamVeraSans-Roman-30"/>
       <use x="490.966796875" xlink:href="#BitstreamVeraSans-Roman-31"/>
       <use x="554.58984375" xlink:href="#BitstreamVeraSans-Roman-35"/>
      </g>
     </g>
    </g>
    <g id="xtick_7">
     <g id="line2d_15">
      <g>
       <use style="stroke:#000000;stroke-width:0.5;" x="448.721571183" xlink:href="#m93b0483c22" y="345.6"/>
      </g>
     </g>
     <g id="line2d_16">
      <g>
       <use style="stroke:#000000;stroke-width:0.5;" x="448.721571183" xlink:href="#m741efc42ff" y="43.2"/>
      </g>
     </g>
     <g id="text_7">
      <!-- Oct 31 2015 -->
      <g transform="translate(384.134284448 394.065590385)rotate(-30.0)scale(0.12 -0.12)">
       <use xlink:href="#BitstreamVeraSans-Roman-4f"/>
       <use x="78.7109375" xlink:href="#BitstreamVeraSans-Roman-63"/>
       <use x="133.69140625" xlink:href="#BitstreamVeraSans-Roman-74"/>
       <use x="172.900390625" xlink:href="#BitstreamVeraSans-Roman-20"/>
       <use x="204.6875" xlink:href="#BitstreamVeraSans-Roman-33"/>
       <use x="268.310546875" xlink:href="#BitstreamVeraSans-Roman-31"/>
       <use x="331.93359375" xlink:href="#BitstreamVeraSans-Roman-20"/>
       <use x="363.720703125" xlink:href="#BitstreamVeraSans-Roman-32"/>
       <use x="427.34375" xlink:href="#BitstreamVeraSans-Roman-30"/>
       <use x="490.966796875" xlink:href="#BitstreamVeraSans-Roman-31"/>
       <use x="554.58984375" xlink:href="#BitstreamVeraSans-Roman-35"/>
      </g>
     </g>
    </g>
    <g id="xtick_8">
     <g id="line2d_17">
      <g>
       <use style="stroke:#000000;stroke-width:0.5;" x="503.851588335" xlink:href="#m93b0483c22" y="345.6"/>
      </g>
     </g>
     <g id="line2d_18">
      <g>
       <use style="stroke:#000000;stroke-width:0.5;" x="503.851588335" xlink:href="#m741efc42ff" y="43.2"/>
      </g>
     </g>
     <g id="text_8">
      <!-- Nov 03 2015 -->
      <defs>
       <path d="
M2.98438 54.6875
L12.5 54.6875
L29.5938 8.79688
L46.6875 54.6875
L56.2031 54.6875
L35.6875 0
L23.4844 0
z
" id="BitstreamVeraSans-Roman-76"/>
       <path d="
M9.8125 72.9062
L23.0938 72.9062
L55.4219 11.9219
L55.4219 72.9062
L64.9844 72.9062
L64.9844 0
L51.7031 0
L19.3906 60.9844
L19.3906 0
L9.8125 0
z
" id="BitstreamVeraSans-Roman-4e"/>
       <path d="
M30.6094 48.3906
Q23.3906 48.3906 19.1875 42.75
Q14.9844 37.1094 14.9844 27.2969
Q14.9844 17.4844 19.1562 11.8438
Q23.3438 6.20312 30.6094 6.20312
Q37.7969 6.20312 41.9844 11.8594
Q46.1875 17.5312 46.1875 27.2969
Q46.1875 37.0156 41.9844 42.7031
Q37.7969 48.3906 30.6094 48.3906
M30.6094 56
Q42.3281 56 49.0156 48.375
Q55.7188 40.7656 55.7188 27.2969
Q55.7188 13.875 49.0156 6.21875
Q42.3281 -1.42188 30.6094 -1.42188
Q18.8438 -1.42188 12.1719 6.21875
Q5.51562 13.875 5.51562 27.2969
Q5.51562 40.7656 12.1719 48.375
Q18.8438 56 30.6094 56" id="BitstreamVeraSans-Roman-6f"/>
      </defs>
      <g transform="translate(436.948766176 395.402465385)rotate(-30.0)scale(0.12 -0.12)">
       <use xlink:href="#BitstreamVeraSans-Roman-4e"/>
       <use x="74.8046875" xlink:href="#BitstreamVeraSans-Roman-6f"/>
       <use x="135.986328125" xlink:href="#BitstreamVeraSans-Roman-76"/>
       <use x="195.166015625" xlink:href="#BitstreamVeraSans-Roman-20"/>
       <use x="226.953125" xlink:href="#BitstreamVeraSans-Roman-30"/>
       <use x="290.576171875" xlink:href="#BitstreamVeraSans-Roman-33"/>
       <use x="354.19921875" xlink:href="#BitstreamVeraSans-Roman-20"/>
       <use x="385.986328125" xlink:href="#BitstreamVeraSans-Roman-32"/>
       <use x="449.609375" xlink:href="#BitstreamVeraSans-Roman-30"/>
       <use x="513.232421875" xlink:href="#BitstreamVeraSans-Roman-31"/>
       <use x="576.85546875" xlink:href="#BitstreamVeraSans-Roman-35"/>
      </g>
     </g>
    </g>
   </g>
   <g id="matplotlib.axis_2">
    <g id="ytick_1">
     <g id="line2d_19">
      <defs>
       <path d="
M0 0
L4 0" id="m728421d6d4" style="stroke:#000000;stroke-width:0.5;"/>
      </defs>
      <g>
       <use style="stroke:#000000;stroke-width:0.5;" x="72.0" xlink:href="#m728421d6d4" y="318.304861528"/>
      </g>
     </g>
     <g id="line2d_20">
      <defs>
       <path d="
M0 0
L-4 0" id="mcb0005524f" style="stroke:#000000;stroke-width:0.5;"/>
      </defs>
      <g>
       <use style="stroke:#000000;stroke-width:0.5;" x="518.4" xlink:href="#mcb0005524f" y="318.304861528"/>
      </g>
     </g>
     <g id="text_9">
      <!-- 30000 -->
      <g transform="translate(31.536875 321.616111528)scale(0.12 -0.12)">
       <use xlink:href="#BitstreamVeraSans-Roman-33"/>
       <use x="63.623046875" xlink:href="#BitstreamVeraSans-Roman-30"/>
       <use x="127.24609375" xlink:href="#BitstreamVeraSans-Roman-30"/>
       <use x="190.869140625" xlink:href="#BitstreamVeraSans-Roman-30"/>
       <use x="254.4921875" xlink:href="#BitstreamVeraSans-Roman-30"/>
      </g>
     </g>
    </g>
    <g id="ytick_2">
     <g id="line2d_21">
      <g>
       <use style="stroke:#000000;stroke-width:0.5;" x="72.0" xlink:href="#m728421d6d4" y="270.289771071"/>
      </g>
     </g>
     <g id="line2d_22">
      <g>
       <use style="stroke:#000000;stroke-width:0.5;" x="518.4" xlink:href="#mcb0005524f" y="270.289771071"/>
      </g>
     </g>
     <g id="text_10">
      <!-- 35000 -->
      <g transform="translate(31.536875 273.601021071)scale(0.12 -0.12)">
       <use xlink:href="#BitstreamVeraSans-Roman-33"/>
       <use x="63.623046875" xlink:href="#BitstreamVeraSans-Roman-35"/>
       <use x="127.24609375" xlink:href="#BitstreamVeraSans-Roman-30"/>
       <use x="190.869140625" xlink:href="#BitstreamVeraSans-Roman-30"/>
       <use x="254.4921875" xlink:href="#BitstreamVeraSans-Roman-30"/>
      </g>
     </g>
    </g>
    <g id="ytick_3">
     <g id="line2d_23">
      <g>
       <use style="stroke:#000000;stroke-width:0.5;" x="72.0" xlink:href="#m728421d6d4" y="222.274680614"/>
      </g>
     </g>
     <g id="line2d_24">
      <g>
       <use style="stroke:#000000;stroke-width:0.5;" x="518.4" xlink:href="#mcb0005524f" y="222.274680614"/>
      </g>
     </g>
     <g id="text_11">
      <!-- 40000 -->
      <defs>
       <path d="
M37.7969 64.3125
L12.8906 25.3906
L37.7969 25.3906
z

M35.2031 72.9062
L47.6094 72.9062
L47.6094 25.3906
L58.0156 25.3906
L58.0156 17.1875
L47.6094 17.1875
L47.6094 0
L37.7969 0
L37.7969 17.1875
L4.89062 17.1875
L4.89062 26.7031
z
" id="BitstreamVeraSans-Roman-34"/>
      </defs>
      <g transform="translate(31.20875 225.585930614)scale(0.12 -0.12)">
       <use xlink:href="#BitstreamVeraSans-Roman-34"/>
       <use x="63.623046875" xlink:href="#BitstreamVeraSans-Roman-30"/>
       <use x="127.24609375" xlink:href="#BitstreamVeraSans-Roman-30"/>
       <use x="190.869140625" xlink:href="#BitstreamVeraSans-Roman-30"/>
       <use x="254.4921875" xlink:href="#BitstreamVeraSans-Roman-30"/>
      </g>
     </g>
    </g>
    <g id="ytick_4">
     <g id="line2d_25">
      <g>
       <use style="stroke:#000000;stroke-width:0.5;" x="72.0" xlink:href="#m728421d6d4" y="174.259590157"/>
      </g>
     </g>
     <g id="line2d_26">
      <g>
       <use style="stroke:#000000;stroke-width:0.5;" x="518.4" xlink:href="#mcb0005524f" y="174.259590157"/>
      </g>
     </g>
     <g id="text_12">
      <!-- 45000 -->
      <g transform="translate(31.20875 177.570840157)scale(0.12 -0.12)">
       <use xlink:href="#BitstreamVeraSans-Roman-34"/>
       <use x="63.623046875" xlink:href="#BitstreamVeraSans-Roman-35"/>
       <use x="127.24609375" xlink:href="#BitstreamVeraSans-Roman-30"/>
       <use x="190.869140625" xlink:href="#BitstreamVeraSans-Roman-30"/>
       <use x="254.4921875" xlink:href="#BitstreamVeraSans-Roman-30"/>
      </g>
     </g>
    </g>
    <g id="ytick_5">
     <g id="line2d_27">
      <g>
       <use style="stroke:#000000;stroke-width:0.5;" x="72.0" xlink:href="#m728421d6d4" y="126.2444997"/>
      </g>
     </g>
     <g id="line2d_28">
      <g>
       <use style="stroke:#000000;stroke-width:0.5;" x="518.4" xlink:href="#mcb0005524f" y="126.2444997"/>
      </g>
     </g>
     <g id="text_13">
      <!-- 50000 -->
      <g transform="translate(31.548125 129.5557497)scale(0.12 -0.12)">
       <use xlink:href="#BitstreamVeraSans-Roman-35"/>
       <use x="63.623046875" xlink:href="#BitstreamVeraSans-Roman-30"/>
       <use x="127.24609375" xlink:href="#BitstreamVeraSans-Roman-30"/>
       <use x="190.869140625" xlink:href="#BitstreamVeraSans-Roman-30"/>
       <use x="254.4921875" xlink:href="#BitstreamVeraSans-Roman-30"/>
      </g>
     </g>
    </g>
    <g id="ytick_6">
     <g id="line2d_29">
      <g>
       <use style="stroke:#000000;stroke-width:0.5;" x="72.0" xlink:href="#m728421d6d4" y="78.2294092429"/>
      </g>
     </g>
     <g id="line2d_30">
      <g>
       <use style="stroke:#000000;stroke-width:0.5;" x="518.4" xlink:href="#mcb0005524f" y="78.2294092429"/>
      </g>
     </g>
     <g id="text_14">
      <!-- 55000 -->
      <g transform="translate(31.548125 81.5406592429)scale(0.12 -0.12)">
       <use xlink:href="#BitstreamVeraSans-Roman-35"/>
       <use x="63.623046875" xlink:href="#BitstreamVeraSans-Roman-35"/>
       <use x="127.24609375" xlink:href="#BitstreamVeraSans-Roman-30"/>
       <use x="190.869140625" xlink:href="#BitstreamVeraSans-Roman-30"/>
       <use x="254.4921875" xlink:href="#BitstreamVeraSans-Roman-30"/>
      </g>
     </g>
    </g>
   </g>
   <g id="text_15">
    <!-- Elektronik -->
    <defs>
     <path d="
M54.8906 33.0156
L54.8906 0
L45.9062 0
L45.9062 32.7188
Q45.9062 40.4844 42.875 44.3281
Q39.8438 48.1875 33.7969 48.1875
Q26.5156 48.1875 22.3125 43.5469
Q18.1094 38.9219 18.1094 30.9062
L18.1094 0
L9.07812 0
L9.07812 54.6875
L18.1094 54.6875
L18.1094 46.1875
Q21.3438 51.125 25.7031 53.5625
Q30.0781 56 35.7969 56
Q45.2188 56 50.0469 50.1719
Q54.8906 44.3438 54.8906 33.0156" id="BitstreamVeraSans-Roman-6e"/>
     <path d="
M9.42188 75.9844
L18.4062 75.9844
L18.4062 0
L9.42188 0
z
" id="BitstreamVeraSans-Roman-6c"/>
     <path d="
M9.07812 75.9844
L18.1094 75.9844
L18.1094 31.1094
L44.9219 54.6875
L56.3906 54.6875
L27.3906 29.1094
L57.625 0
L45.9062 0
L18.1094 26.7031
L18.1094 0
L9.07812 0
z
" id="BitstreamVeraSans-Roman-6b"/>
     <path d="
M9.8125 72.9062
L55.9062 72.9062
L55.9062 64.5938
L19.6719 64.5938
L19.6719 43.0156
L54.3906 43.0156
L54.3906 34.7188
L19.6719 34.7188
L19.6719 8.29688
L56.7812 8.29688
L56.7812 0
L9.8125 0
z
" id="BitstreamVeraSans-Roman-45"/>
     <path d="
M9.42188 54.6875
L18.4062 54.6875
L18.4062 0
L9.42188 0
z

M9.42188 75.9844
L18.4062 75.9844
L18.4062 64.5938
L9.42188 64.5938
z
" id="BitstreamVeraSans-Roman-69"/>
     <path d="
M56.2031 29.5938
L56.2031 25.2031
L14.8906 25.2031
Q15.4844 15.9219 20.4844 11.0625
Q25.4844 6.20312 34.4219 6.20312
Q39.5938 6.20312 44.4531 7.46875
Q49.3125 8.73438 54.1094 11.2812
L54.1094 2.78125
Q49.2656 0.734375 44.1875 -0.34375
Q39.1094 -1.42188 33.8906 -1.42188
Q20.7969 -1.42188 13.1562 6.1875
Q5.51562 13.8125 5.51562 26.8125
Q5.51562 40.2344 12.7656 48.1094
Q20.0156 56 32.3281 56
Q43.3594 56 49.7812 48.8906
Q56.2031 41.7969 56.2031 29.5938
M47.2188 32.2344
Q47.125 39.5938 43.0938 43.9844
Q39.0625 48.3906 32.4219 48.3906
Q24.9062 48.3906 20.3906 44.1406
Q15.875 39.8906 15.1875 32.1719
z
" id="BitstreamVeraSans-Roman-65"/>
     <path d="
M41.1094 46.2969
Q39.5938 47.1719 37.8125 47.5781
Q36.0312 48 33.8906 48
Q26.2656 48 22.1875 43.0469
Q18.1094 38.0938 18.1094 28.8125
L18.1094 0
L9.07812 0
L9.07812 54.6875
L18.1094 54.6875
L18.1094 46.1875
Q20.9531 51.1719 25.4844 53.5781
Q30.0312 56 36.5312 56
Q37.4531 56 38.5781 55.875
Q39.7031 55.7656 41.0625 55.5156
z
" id="BitstreamVeraSans-Roman-72"/>
    </defs>
    <g transform="translate(448.038 38.2)scale(0.144 -0.144)">
     <use xlink:href="#BitstreamVeraSans-Roman-45"/>
     <use x="63.18359375" xlink:href="#BitstreamVeraSans-Roman-6c"/>
     <use x="90.966796875" xlink:href="#BitstreamVeraSans-Roman-65"/>
     <use x="152.490234375" xlink:href="#BitstreamVeraSans-Roman-6b"/>
     <use x="210.400390625" xlink:href="#BitstreamVeraSans-Roman-74"/>
     <use x="249.609375" xlink:href="#BitstreamVeraSans-Roman-72"/>
     <use x="288.47265625" xlink:href="#BitstreamVeraSans-Roman-6f"/>
     <use x="349.654296875" xlink:href="#BitstreamVeraSans-Roman-6e"/>
     <use x="413.033203125" xlink:href="#BitstreamVeraSans-Roman-69"/>
     <use x="440.81640625" xlink:href="#BitstreamVeraSans-Roman-6b"/>
    </g>
   </g>
   <g id="legend_1">
    <g id="patch_7">
     <path d="
M123.942 423.616
L466.458 423.616
L466.458 398.16
L123.942 398.16
z
" style="fill:#ffffff;stroke:#000000;stroke-linejoin:miter;"/>
    </g>
    <g id="line2d_31">
     <path d="
M134.022 409.822
L154.182 409.822" style="fill:none;stroke:#ff0000;stroke-linecap:square;"/>
    </g>
    <g id="line2d_32"/>
    <g id="text_16">
     <!-- Schwarzmarktpreis -->
     <defs>
      <path d="
M52 44.1875
Q55.375 50.25 60.0625 53.125
Q64.75 56 71.0938 56
Q79.6406 56 84.2812 50.0156
Q88.9219 44.0469 88.9219 33.0156
L88.9219 0
L79.8906 0
L79.8906 32.7188
Q79.8906 40.5781 77.0938 44.375
Q74.3125 48.1875 68.6094 48.1875
Q61.625 48.1875 57.5625 43.5469
Q53.5156 38.9219 53.5156 30.9062
L53.5156 0
L44.4844 0
L44.4844 32.7188
Q44.4844 40.625 41.7031 44.4062
Q38.9219 48.1875 33.1094 48.1875
Q26.2188 48.1875 22.1562 43.5312
Q18.1094 38.875 18.1094 30.9062
L18.1094 0
L9.07812 0
L9.07812 54.6875
L18.1094 54.6875
L18.1094 46.1875
Q21.1875 51.2188 25.4844 53.6094
Q29.7812 56 35.6875 56
Q41.6562 56 45.8281 52.9688
Q50 49.9531 52 44.1875" id="BitstreamVeraSans-Roman-6d"/>
      <path d="
M5.51562 54.6875
L48.1875 54.6875
L48.1875 46.4844
L14.4062 7.17188
L48.1875 7.17188
L48.1875 0
L4.29688 0
L4.29688 8.20312
L38.0938 47.5156
L5.51562 47.5156
z
" id="BitstreamVeraSans-Roman-7a"/>
      <path d="
M53.5156 70.5156
L53.5156 60.8906
Q47.9062 63.5781 42.9219 64.8906
Q37.9375 66.2188 33.2969 66.2188
Q25.25 66.2188 20.875 63.0938
Q16.5 59.9688 16.5 54.2031
Q16.5 49.3594 19.4062 46.8906
Q22.3125 44.4375 30.4219 42.9219
L36.375 41.7031
Q47.4062 39.5938 52.6562 34.2969
Q57.9062 29 57.9062 20.125
Q57.9062 9.51562 50.7969 4.04688
Q43.7031 -1.42188 29.9844 -1.42188
Q24.8125 -1.42188 18.9688 -0.25
Q13.1406 0.921875 6.89062 3.21875
L6.89062 13.375
Q12.8906 10.0156 18.6562 8.29688
Q24.4219 6.59375 29.9844 6.59375
Q38.4219 6.59375 43.0156 9.90625
Q47.6094 13.2344 47.6094 19.3906
Q47.6094 24.75 44.3125 27.7812
Q41.0156 30.8125 33.5 32.3281
L27.4844 33.5
Q16.4531 35.6875 11.5156 40.375
Q6.59375 45.0625 6.59375 53.4219
Q6.59375 63.0938 13.4062 68.6562
Q20.2188 74.2188 32.1719 74.2188
Q37.3125 74.2188 42.625 73.2812
Q47.9531 72.3594 53.5156 70.5156" id="BitstreamVeraSans-Roman-53"/>
      <path d="
M54.8906 33.0156
L54.8906 0
L45.9062 0
L45.9062 32.7188
Q45.9062 40.4844 42.875 44.3281
Q39.8438 48.1875 33.7969 48.1875
Q26.5156 48.1875 22.3125 43.5469
Q18.1094 38.9219 18.1094 30.9062
L18.1094 0
L9.07812 0
L9.07812 75.9844
L18.1094 75.9844
L18.1094 46.1875
Q21.3438 51.125 25.7031 53.5625
Q30.0781 56 35.7969 56
Q45.2188 56 50.0469 50.1719
Q54.8906 44.3438 54.8906 33.0156" id="BitstreamVeraSans-Roman-68"/>
      <path d="
M4.20312 54.6875
L13.1875 54.6875
L24.4219 12.0156
L35.5938 54.6875
L46.1875 54.6875
L57.4219 12.0156
L68.6094 54.6875
L77.5938 54.6875
L63.2812 0
L52.6875 0
L40.9219 44.8281
L29.1094 0
L18.5 0
z
" id="BitstreamVeraSans-Roman-77"/>
      <path d="
M34.2812 27.4844
Q23.3906 27.4844 19.1875 25
Q14.9844 22.5156 14.9844 16.5
Q14.9844 11.7188 18.1406 8.90625
Q21.2969 6.10938 26.7031 6.10938
Q34.1875 6.10938 38.7031 11.4062
Q43.2188 16.7031 43.2188 25.4844
L43.2188 27.4844
z

M52.2031 31.2031
L52.2031 0
L43.2188 0
L43.2188 8.29688
Q40.1406 3.32812 35.5469 0.953125
Q30.9531 -1.42188 24.3125 -1.42188
Q15.9219 -1.42188 10.9531 3.29688
Q6 8.01562 6 15.9219
Q6 25.1406 12.1719 29.8281
Q18.3594 34.5156 30.6094 34.5156
L43.2188 34.5156
L43.2188 35.4062
Q43.2188 41.6094 39.1406 45
Q35.0625 48.3906 27.6875 48.3906
Q23 48.3906 18.5469 47.2656
Q14.1094 46.1406 10.0156 43.8906
L10.0156 52.2031
Q14.9375 54.1094 19.5781 55.0469
Q24.2188 56 28.6094 56
Q40.4844 56 46.3438 49.8438
Q52.2031 43.7031 52.2031 31.2031" id="BitstreamVeraSans-Roman-61"/>
      <path d="
M44.2812 53.0781
L44.2812 44.5781
Q40.4844 46.5312 36.375 47.5
Q32.2812 48.4844 27.875 48.4844
Q21.1875 48.4844 17.8438 46.4375
Q14.5 44.3906 14.5 40.2812
Q14.5 37.1562 16.8906 35.375
Q19.2812 33.5938 26.5156 31.9844
L29.5938 31.2969
Q39.1562 29.25 43.1875 25.5156
Q47.2188 21.7812 47.2188 15.0938
Q47.2188 7.46875 41.1875 3.01562
Q35.1562 -1.42188 24.6094 -1.42188
Q20.2188 -1.42188 15.4531 -0.5625
Q10.6875 0.296875 5.42188 2
L5.42188 11.2812
Q10.4062 8.6875 15.2344 7.39062
Q20.0625 6.10938 24.8125 6.10938
Q31.1562 6.10938 34.5625 8.28125
Q37.9844 10.4531 37.9844 14.4062
Q37.9844 18.0625 35.5156 20.0156
Q33.0625 21.9688 24.7031 23.7812
L21.5781 24.5156
Q13.2344 26.2656 9.51562 29.9062
Q5.8125 33.5469 5.8125 39.8906
Q5.8125 47.6094 11.2812 51.7969
Q16.75 56 26.8125 56
Q31.7812 56 36.1719 55.2656
Q40.5781 54.5469 44.2812 53.0781" id="BitstreamVeraSans-Roman-73"/>
      <path d="
M18.1094 8.20312
L18.1094 -20.7969
L9.07812 -20.7969
L9.07812 54.6875
L18.1094 54.6875
L18.1094 46.3906
Q20.9531 51.2656 25.2656 53.625
Q29.5938 56 35.5938 56
Q45.5625 56 51.7812 48.0938
Q58.0156 40.1875 58.0156 27.2969
Q58.0156 14.4062 51.7812 6.48438
Q45.5625 -1.42188 35.5938 -1.42188
Q29.5938 -1.42188 25.2656 0.953125
Q20.9531 3.32812 18.1094 8.20312
M48.6875 27.2969
Q48.6875 37.2031 44.6094 42.8438
Q40.5312 48.4844 33.4062 48.4844
Q26.2656 48.4844 22.1875 42.8438
Q18.1094 37.2031 18.1094 27.2969
Q18.1094 17.3906 22.1875 11.75
Q26.2656 6.10938 33.4062 6.10938
Q40.5312 6.10938 44.6094 11.75
Q48.6875 17.3906 48.6875 27.2969" id="BitstreamVeraSans-Roman-70"/>
     </defs>
     <g transform="translate(170.022375 414.86175)scale(0.144 -0.144)">
      <use xlink:href="#BitstreamVeraSans-Roman-53"/>
      <use x="63.4765625" xlink:href="#BitstreamVeraSans-Roman-63"/>
      <use x="118.45703125" xlink:href="#BitstreamVeraSans-Roman-68"/>
      <use x="181.8359375" xlink:href="#BitstreamVeraSans-Roman-77"/>
      <use x="263.623046875" xlink:href="#BitstreamVeraSans-Roman-61"/>
      <use x="324.90234375" xlink:href="#BitstreamVeraSans-Roman-72"/>
      <use x="366.015625" xlink:href="#BitstreamVeraSans-Roman-7a"/>
      <use x="418.505859375" xlink:href="#BitstreamVeraSans-Roman-6d"/>
      <use x="515.91796875" xlink:href="#BitstreamVeraSans-Roman-61"/>
      <use x="577.197265625" xlink:href="#BitstreamVeraSans-Roman-72"/>
      <use x="618.310546875" xlink:href="#BitstreamVeraSans-Roman-6b"/>
      <use x="676.220703125" xlink:href="#BitstreamVeraSans-Roman-74"/>
      <use x="715.4296875" xlink:href="#BitstreamVeraSans-Roman-70"/>
      <use x="778.90625" xlink:href="#BitstreamVeraSans-Roman-72"/>
      <use x="817.76953125" xlink:href="#BitstreamVeraSans-Roman-65"/>
      <use x="879.29296875" xlink:href="#BitstreamVeraSans-Roman-69"/>
      <use x="907.076171875" xlink:href="#BitstreamVeraSans-Roman-73"/>
     </g>
    </g>
    <g id="line2d_33">
     <path d="
M339.609 409.822
L359.769 409.822" style="fill:none;stroke:#008000;stroke-linecap:square;"/>
    </g>
    <g id="line2d_34"/>
    <g id="text_17">
     <!-- Normalpreis -->
     <g transform="translate(375.609375 414.86175)scale(0.144 -0.144)">
      <use xlink:href="#BitstreamVeraSans-Roman-4e"/>
      <use x="74.8046875" xlink:href="#BitstreamVeraSans-Roman-6f"/>
      <use x="135.986328125" xlink:href="#BitstreamVeraSans-Roman-72"/>
      <use x="175.349609375" xlink:href="#BitstreamVeraSans-Roman-6d"/>
      <use x="272.76171875" xlink:href="#BitstreamVeraSans-Roman-61"/>
      <use x="334.041015625" xlink:href="#BitstreamVeraSans-Roman-6c"/>
      <use x="361.82421875" xlink:href="#BitstreamVeraSans-Roman-70"/>
      <use x="425.30078125" xlink:href="#BitstreamVeraSans-Roman-72"/>
      <use x="464.1640625" xlink:href="#BitstreamVeraSans-Roman-65"/>
      <use x="525.6875" xlink:href="#BitstreamVeraSans-Roman-69"/>
      <use x="553.470703125" xlink:href="#BitstreamVeraSans-Roman-73"/>
     </g>
    </g>
   </g>
  </g>
 </g>
 <defs>
  <clipPath id="pcb2bf987bf">
   <rect height="302.4" width="446.4" x="72.0" y="43.2"/>
  </clipPath>
 </defs>
</svg>
