<?xml version="1.0" encoding="utf-8" standalone="no"?>
<!DOCTYPE svg PUBLIC "-//W3C//DTD SVG 1.1//EN"
  "http://www.w3.org/Graphics/SVG/1.1/DTD/svg11.dtd">
<!-- Created with matplotlib (http://matplotlib.org/) -->
<svg height="432pt" version="1.1" viewBox="0 0 576 432" width="576pt" xmlns="http://www.w3.org/2000/svg" xmlns:xlink="http://www.w3.org/1999/xlink">
 <defs>
  <style type="text/css">
*{stroke-linecap:butt;stroke-linejoin:round;}
  </style>
 </defs>
 <g id="figure_1">
  <g id="patch_1">
   <path d="
M0 432
L576 432
L576 0
L0 0
z
" style="fill:#ffffff;"/>
  </g>
  <g id="axes_1">
   <g id="patch_2">
    <path d="
M72 345.6
L518.4 345.6
L518.4 43.2
L72 43.2
z
" style="fill:#ffffff;"/>
   </g>
   <g id="line2d_1">
    <path clip-path="url(#pcb2bf987bf)" d="
M72 116.544
L72.3828 122.06
L72.5105 131.223
L72.7657 141.161
L73.1485 141.161
L73.2762 138.982
L73.5314 136.832
L73.659 136.832
L73.9142 140.104
L74.0419 139.029
L74.8075 130.147
L75.0628 134.635
L75.1904 76.8571
L75.5732 82.5133
L75.9561 82.5133
L76.2113 83.869
L76.3389 90.8809
L76.5942 75.408
L76.7218 76.8103
L76.9772 58.1587
L77.3599 122.425
L77.7429 122.434
L77.8703 123.603
L78.1256 136.879
L78.1256 136.879
L78.2532 135.757
L78.5084 136.879
L78.636 133.513
L78.8915 134.635
L79.0189 132.391
L79.2741 117.386
L79.4017 130.147
L79.6569 132.391
L79.7846 136.879
L80.0398 141.18
L80.1674 80.5033
L80.4226 79.1009
L80.5503 81.8589
L80.8055 81.8589
L80.9331 143.32
L81.1885 141.18
L81.316 137.72
L81.5712 143.33
L82.0816 143.32
L82.3371 140.104
L82.4645 141.18
L82.7197 140.104
L82.8473 140.104
L83.1026 139.029
L83.2302 141.18
L83.4854 141.18
L83.613 140.104
L83.8683 142.255
L83.9959 142.255
L84.2511 143.32
L84.3787 142.255
L84.6342 143.32
L85.3999 143.32
L85.5273 142.255
L85.7825 142.255
L85.9101 131.83
L86.1654 130.708
L86.293 129.587
L86.5482 129.587
L86.6758 131.83
L87.0587 128.465
L87.3139 127.343
L87.4415 122.668
L87.6967 126.174
L87.8244 125.005
L88.0796 132.017
L88.2072 144.396
L88.4624 143.32
L88.5901 139.964
L88.8453 144.396
L88.8453 144.396
L88.9729 141.17
L89.2281 137.954
L89.3557 137.954
L89.611 133.42
L89.7386 133.513
L89.9938 134.635
L89.9938 134.635
L90.2491 132.391
L90.3767 134.626
L91.0148 131.269
L91.7804 134.635
L91.9081 134.635
L92.5461 149.687
L93.3118 149.687
L94.0775 103.643
L94.2051 103.643
L94.8432 150.753
L94.9708 150.753
L95.7365 141.507
L96.3746 125.286
L97.1403 120.752
L97.906 136.785
L98.0336 127.81
L98.6717 130.007
L98.7993 131.129
L99.4374 113.497
L100.203 109.86
L100.331 111.075
L100.969 109.86
L101.734 108.644
L101.862 109.86
L102.5 111.075
L103.266 117.152
L103.393 117.152
L104.032 124.164
L104.797 119.489
L105.563 125.333
L106.329 123.603
L107.095 125.426
L107.86 137.861
L107.988 137.861
L108.626 149.472
L109.519 149.575
L110.157 143.003
L110.285 123.603
L110.923 134.168
L111.05 130.802
L111.689 130.802
L113.986 151.651
L114.879 144.405
L116.283 144.685
L116.41 151.51
L117.048 162.496
L117.814 163.337
L117.942 156.325
L118.707 151.23
L119.345 148.145
L120.111 138.562
L120.877 134.822
L121.004 134.822
L121.643 133.7
L122.408 130.334
L122.536 137.066
L123.174 147.116
L123.94 143.938
L124.067 143.938
L124.705 127.576
L125.471 131.269
L126.109 157.213
L126.365 157.213
L127.002 131.129
L127.13 131.036
L127.13 131.036
L127.64 129.96
L127.64 129.96
L127.768 129.96
L128.534 160.486
L129.299 149.407
L130.193 139.076
L130.831 137.627
L131.597 156.559
L132.362 158.055
L132.362 158.055
L133.894 145.761
L134.149 146.836
L134.659 133.56
L135.425 148.509
L136.318 115.189
L136.956 116.124
L137.722 150.716
L138.488 147.256
L139.254 145.153
L140.019 150.716
L140.785 150.575
L141.551 146.415
L141.678 132.952
L142.316 130.708
L143.082 142.722
L143.975 122.855
L144.613 148.556
L145.379 145.387
L145.507 143.236
L146.145 76.4831
L146.272 76.4831
L146.91 136.785
L147.038 134.542
L147.676 142.161
L148.442 142.301
L149.208 148.556
L149.335 147.49
L149.973 145.387
L150.867 125.417
L151.505 148.565
L152.27 184.466
L153.036 179.184
L153.164 165.067
L153.802 140.011
L154.567 135.617
L155.333 132.251
L155.333 132.251
L156.099 117.984
L156.865 121.92
L157.63 119.583
L157.758 118.414
L159.162 126.595
L159.927 123.594
L160.693 145.527
L160.821 180.072
L162.224 174.743
L162.99 179.137
L163.118 179.137
L163.756 181.334
L163.883 183.111
L164.521 181.334
L164.649 180.306
L165.287 167.544
L166.053 164.739
L166.819 167.544
L167.584 165.628
L167.712 68.8168
L168.35 158.335
L169.116 152.305
L169.243 149.22
L169.881 155.325
L170.647 153.287
L170.775 154.296
L171.413 150.435
L172.178 138.795
L172.944 138.702
L173.072 142.021
L173.71 146.976
L174.603 134.542
L176.007 147.313
L176.773 147.313
L176.9 148.378
L177.538 134.635
L178.304 142.301
L179.07 145.948
L179.835 147.35
L179.963 145.246
L180.601 147.256
L180.729 146.228
L181.367 146.322
L182.132 147.35
L182.26 145.246
L182.898 163.664
L183.664 161.701
L183.791 151.651
L184.43 167.357
L185.195 167.451
L185.961 187.365
L186.727 193.722
L187.492 186.43
L188.258 183.905
L189.151 170.386
L190.555 129.587
L191.321 161.748
L191.321 161.748
L192.852 162.776
L193.618 169.461
L194.384 167.544
L195.149 169.414
L195.277 169.414
L195.915 173.2
L196.681 179.464
L198.212 151.23
L198.212 151.23
L198.978 128.091
L200.509 116.03
L201.275 140.338
L202.04 144.639
L202.806 150.201
L203.572 147.116
L203.699 147.116
L204.338 145.106
L205.103 148.238
L205.231 152.258
L206.124 156.325
L206.507 156.325
L206.635 159.036
L206.635 159.036
L206.762 158.055
L207.4 144.545
L207.911 146.696
L208.166 146.696
L208.804 157.026
L209.442 152.586
L209.57 149.5
L209.825 154.455
L210.591 166.095
L210.846 150.622
L211.356 150.622
L211.484 170.349
L211.867 164.739
L212.122 165.674
L212.25 164.739
L212.505 161.794
L212.633 165.674
L212.888 164.739
L213.398 151.277
L213.654 150.248
L213.654 150.248
L213.781 152.399
L214.036 153.427
L214.164 162.87
L214.419 161.888
L214.547 159.177
L214.802 159.177
L214.93 147.817
L215.185 157.213
L215.185 157.213
L215.313 156.185
L215.568 156.232
L215.695 155.203
L215.951 156.232
L215.951 156.232
L216.078 155.203
L216.333 154.923
L216.461 155.203
L216.589 155.203
L216.589 155.203
L216.844 152.118
L217.099 151.09
L217.482 153.146
L217.482 153.146
L217.61 156.232
L217.865 155.203
L217.992 159.177
L218.248 161.888
L218.248 161.888
L218.375 161.888
L218.631 158.924
L218.758 123.603
L219.013 157.887
L219.141 157.887
L219.396 146.555
L219.779 156.933
L219.907 156.933
L220.162 159.925
L220.29 157.961
L220.29 157.961
L220.417 160.906
L220.545 159.925
L220.672 164.552
L220.672 164.552
L220.928 164.73
L221.055 162.776
L221.31 163.758
L221.438 159.831
L221.693 165.674
L222.076 163.328
L222.204 166.609
L222.459 162.823
L222.587 169.414
L222.842 176.8
L222.842 176.8
L223.225 173.2
L223.352 170.349
L223.608 167.544
L223.735 164.739
L223.99 163.758
L224.118 162.776
L224.373 166.609
L224.501 161.841
L224.756 158.896
L224.884 159.878
L225.139 166.609
L225.267 163.758
L225.522 114.254
L225.649 158.849
L225.649 158.849
L225.777 145.153
L225.777 145.153
L225.905 148.285
L225.905 148.285
L226.16 165.674
L226.16 165.674
L226.415 158.055
L226.415 158.055
L226.67 149.594
L226.798 151.651
L227.053 146.509
L227.181 149.594
L227.436 147.537
L227.436 147.537
L227.819 147.537
L228.202 236.448
L228.329 194.376
L228.712 180.586
L228.967 179.745
L229.095 181.521
L229.478 177.034
L229.861 174.369
L230.244 178.81
L230.499 175.117
L230.499 175.117
L230.882 174.042
L231.264 169.367
L231.264 169.367
L231.647 169.358
L232.03 177.782
L232.158 176.893
L232.413 175.958
L232.541 176.893
L232.796 175.024
L232.796 175.024
L232.924 176.005
L233.179 176.893
L233.306 176.893
L233.562 174.696
L233.689 162.776
L233.944 160.205
L234.072 164.122
L234.327 163.15
L234.327 163.15
L234.455 175.585
L234.838 170.022
L235.093 169.087
L235.093 169.087
L235.221 170.957
L235.476 167.217
L235.603 167.217
L235.859 165.3
L235.859 165.3
L235.986 165.3
L236.242 164.319
L236.369 165.674
L236.624 161.935
L236.752 165.656
L237.007 166.609
L237.135 166.609
L237.39 165.674
L237.518 168.105
L237.901 164.319
L238.156 163.337
L238.283 166.235
L238.539 160.392
L238.666 162.355
L238.921 161.374
L239.049 159.41
L239.304 158.429
L239.432 157.447
L239.687 154.455
L239.815 154.455
L240.07 153.427
L240.198 155.484
L240.453 155.484
L240.453 155.484
L240.58 167.152
L240.836 166.048
L240.963 166.983
L241.219 165.674
L241.346 163.758
L241.729 168.152
L241.984 162.402
L242.112 164.365
L242.367 162.402
L242.75 147.256
L242.878 146.228
L243.26 150.388
L243.643 179.689
L243.898 175.257
L244.026 177.034
L244.281 178.857
L244.409 177.782
L244.792 169.461
L245.047 160.766
L245.047 160.766
L245.175 162.823
L245.43 162.823
L245.557 164.786
L245.813 163.758
L245.94 174.65
L246.196 180.633
L246.323 239.299
L246.578 195.405
L246.578 195.405
L246.706 195.405
L246.961 190.403
L247.089 190.403
L247.344 188.711
L247.727 180.717
L247.855 180.727
L248.237 175.398
L248.493 179.792
L248.62 179.792
L248.876 178.95
L248.876 178.95
L249.003 179.838
L249.258 191.244
L249.641 190.403
L249.641 190.403
L249.769 190.403
L250.024 191.244
L250.152 190.403
L250.407 190.403
L250.534 192.927
L250.79 192.927
L250.917 191.282
L251.173 190.45
L251.3 186.243
L251.555 184.56
L251.683 185.401
L251.938 184.56
L252.066 183.718
L253.087 173.892
L253.214 173.892
L253.47 175.725
L253.597 164.506
L253.852 175.725
L253.98 174.837
L254.235 180.166
L254.363 178.389
L254.746 178.389
L254.746 178.389
L255.001 185.214
L255.129 184.373
L255.129 184.373
L255.384 186.243
L255.767 192.918
L255.767 192.918
L255.894 192.918
L256.532 195.358
L256.915 195.358
L257.043 193.713
L257.298 192.974
L257.426 193.769
L257.809 185.682
L258.064 189.047
L258.064 189.047
L258.447 188.206
L258.574 188.206
L258.702 189.047
L258.83 183.531
L258.957 183.531
L259.212 188.206
L259.212 188.206
L259.34 188.206
L259.595 186.523
L259.595 186.523
L259.723 189.047
L259.978 188.206
L260.106 188.197
L260.361 185.682
L260.489 185.869
L260.871 182.643
L261.127 178.202
L261.254 179.979
L261.509 176.426
L261.637 179.09
L261.892 176.893
L262.02 177.267
L262.275 176.379
L262.403 176.426
L262.786 179.979
L263.041 179.09
L263.424 174.65
L263.424 174.65
L263.551 177.314
L263.807 179.09
L263.934 179.09
L264.189 176.379
L264.189 176.379
L264.317 178.202
L264.572 179.09
L264.7 175.538
L264.955 177.314
L264.955 177.314
L265.338 170.91
L265.466 179.979
L265.848 179.969
L266.231 176.94
L266.486 180.867
L266.614 178.202
L266.869 179.885
L266.997 178.156
L267.252 177.267
L267.38 174.603
L267.763 174.603
L268.018 172.733
L268.528 166.189
L268.784 168.993
L268.911 168.993
L269.166 173.668
L269.549 173.668
L269.677 178.156
L270.06 181.755
L270.315 182.643
L270.443 182.503
L270.698 183.531
L270.825 183.438
L271.081 180.773
L271.463 179.885
L271.846 179.698
L271.974 177.922
L272.229 176.145
L272.612 170.349
L272.74 173.434
L272.995 171.564
L273.122 172.499
L273.378 177.024
L273.378 177.024
L273.506 175.257
L273.761 176.043
L274.143 176.145
L274.271 182.643
L274.526 181.755
L274.654 170.349
L274.909 181.746
L274.909 181.746
L275.037 180.867
L275.292 180.867
L275.675 181.755
L276.058 181.755
L276.185 180.867
L276.568 181.755
L276.823 179.979
L276.951 181.755
L277.206 181.755
L277.334 180.867
L277.589 179.979
L277.717 179.979
L277.972 175.211
L277.972 175.211
L278.099 177.875
L278.355 179.979
L278.482 179.09
L278.738 179.09
L278.865 178.202
L279.12 179.979
L279.248 176.426
L279.503 174.65
L279.631 174.65
L280.014 167.17
L280.269 174.65
L280.269 174.65
L280.652 174.603
L280.779 174.603
L281.035 172.733
L281.035 172.733
L281.162 176.407
L281.417 179.979
L281.545 179.979
L281.801 179.09
L282.311 168.76
L282.566 169.788
L282.694 166.983
L283.077 166.983
L283.332 169.788
L283.459 168.853
L283.715 178.202
L283.842 178.202
L284.097 177.314
L284.225 172.78
L284.48 179.09
L284.608 179.09
L284.736 178.193
L285.374 178.202
L285.629 177.314
L286.012 177.314
L286.139 176.426
L286.395 175.538
L286.522 177.314
L286.777 174.65
L286.905 176.426
L287.16 175.538
L287.288 174.65
L287.543 175.528
L287.671 175.519
L287.926 174.603
L288.054 175.519
L288.309 174.603
L288.437 176.417
L289.074 167.544
L289.202 171.275
L289.457 170.349
L289.585 170.349
L289.84 169.414
L289.968 175.491
L290.223 174.135
L290.351 174.135
L290.606 174.603
L290.733 178.202
L290.861 178.202
L291.116 179.745
L291.372 180.867
L291.499 170.349
L291.754 180.96
L292.137 180.96
L292.265 181.848
L292.648 181.568
L292.903 181.83
L293.031 180.96
L293.286 180.072
L293.286 180.072
L293.796 183.522
L294.051 184.363
L294.051 184.363
L295.583 184.373
L296.349 184.373
L296.476 178.81
L296.731 174.322
L296.859 174.229
L297.114 176.089
L297.242 178.763
L297.497 176.987
L297.625 177.875
L297.88 192.75
L298.008 190.263
L298.263 189.421
L298.39 187.738
L298.646 186.056
L298.773 186.056
L299.156 178.202
L299.539 169.414
L299.794 170.349
L300.177 170.349
L300.177 170.349
L300.305 183.428
L300.56 178.997
L300.687 170.349
L301.07 170.629
L301.326 171.564
L301.453 177.221
L301.708 181.652
L302.219 181.661
L302.474 188.58
L302.474 188.58
L302.857 179.698
L302.985 188.533
L303.112 188.533
L303.368 186.85
L303.75 186.85
L304.005 191.525
L304.005 191.525
L304.133 191.525
L304.388 191.899
L304.771 189.047
L304.899 189.047
L305.154 191.057
L305.282 190.216
L305.537 191.899
L305.664 191.899
L305.92 189.375
L306.047 190.207
L306.303 188.533
L306.43 183.064
L306.685 179.708
L307.068 188.533
L307.068 188.533
L307.196 186.009
L307.451 172.266
L307.579 183.438
L307.834 179.885
L308.217 182.55
L308.344 179.698
L308.727 190.207
L308.983 192.74
L309.11 191.057
L309.365 191.899
L309.493 192.74
L309.748 189.328
L309.876 198.49
L310.131 196.901
L310.259 194.517
L310.514 192.824
L311.024 192.834
L311.407 190.309
L311.662 189.468
L311.79 193.675
L312.045 193.713
L312.173 194.517
L312.428 198.49
L312.556 198.397
L312.811 197.602
L312.939 196.807
L313.194 196.807
L313.321 198.397
L313.577 193.815
L313.704 193.853
L313.96 193.021
L314.087 193.021
L314.342 191.385
L314.47 186.991
L314.725 187.925
L314.853 181.989
L315.108 181.989
L315.236 185.308
L315.491 188.86
L315.619 188.86
L315.874 187.925
L316.257 187.084
L316.384 184.56
L316.767 183.438
L317.15 183.718
L317.405 183.718
L317.533 185.401
L317.788 185.308
L317.916 183.625
L318.171 182.737
L318.298 182.737
L318.554 180.212
L318.554 180.212
L318.681 180.212
L318.937 173.902
L319.064 178.436
L319.319 177.548
L319.319 177.548
L319.447 179.324
L319.702 181.101
L319.83 180.212
L320.085 183.615
L320.213 180.072
L320.596 180.96
L320.851 185.401
L320.851 185.401
L321.234 183.625
L321.361 183.625
L321.616 185.401
L321.999 185.401
L322.127 183.718
L322.765 181.942
L323.148 181.933
L323.531 179.698
L323.658 181.933
L324.041 181.942
L324.424 183.531
L324.679 183.531
L324.807 183.718
L325.062 184.56
L325.19 184.56
L325.445 188.019
L325.573 187.178
L325.828 186.336
L325.956 185.495
L326.211 187.925
L326.338 186.149
L326.593 186.991
L326.721 186.149
L326.976 185.308
L327.104 186.149
L327.359 186.336
L327.487 187.178
L327.742 188.019
L327.87 189.038
L328.125 216.394
L328.252 310.587
L328.508 217.095
L328.635 215.683
L329.018 207.512
L329.273 204.52
L329.401 204.941
L329.656 203.024
L329.784 199.846
L330.039 196.48
L330.167 189.094
L330.55 197.275
L330.805 195.685
L330.933 195.685
L331.188 194.096
L331.315 194.096
L331.57 193.301
L331.698 192.46
L332.081 186.009
L332.336 189.375
L332.719 186.85
L332.847 186.85
L333.102 188.533
L333.23 187.692
L333.485 188.533
L333.612 187.692
L333.868 193.301
L333.995 191.618
L334.25 191.618
L334.633 185.728
L334.761 184.887
L335.144 180.493
L335.399 184.046
L335.527 183.157
L335.909 184.887
L336.165 191.992
L336.292 182.269
L336.548 184.046
L336.675 191.151
L336.93 188.206
L337.058 184.373
L337.313 184.84
L337.441 187.365
L337.696 186.514
L337.824 185.682
L338.079 186.71
L338.207 185.027
L338.589 185.027
L338.845 188.206
L338.972 184.84
L339.227 183.531
L339.355 184.373
L339.61 188.206
L339.866 188.112
L340.504 188.084
L340.759 187.271
L340.886 188.103
L341.142 187.271
L341.269 185.588
L341.525 186.43
L341.652 187.271
L342.035 187.271
L342.29 186.43
L342.418 186.43
L342.673 184.747
L342.801 182.129
L343.056 183.905
L343.184 188.206
L343.439 186.523
L343.566 187.365
L343.822 185.682
L343.822 185.682
L343.949 185.682
L344.204 186.42
L344.332 189.029
L344.588 186.523
L344.715 187.365
L344.97 187.365
L345.098 183.859
L345.353 182.082
L345.481 180.306
L345.736 187.365
L345.863 186.523
L346.119 185.682
L346.246 181.334
L346.629 181.334
L346.884 180.446
L346.884 180.446
L347.267 186.43
L347.395 183.017
L347.778 178.576
L348.033 178.576
L348.161 186.43
L348.416 187.271
L348.543 187.271
L348.799 188.206
L348.926 188.206
L349.181 185.682
L349.309 187.365
L349.564 187.365
L349.692 188.206
L350.075 183.017
L350.458 186.523
L350.713 184.84
L350.84 183.064
L351.096 185.635
L351.224 184.84
L351.606 183.999
L351.861 189.038
L351.989 188.206
L352.372 192.834
L352.627 192.834
L352.755 203.071
L353.01 199.892
L353.138 202.258
L353.52 202.258
L353.776 197.695
L353.776 197.695
L354.286 186.196
L354.541 187.879
L354.924 187.879
L355.052 188.72
L355.307 188.72
L355.307 188.72
L355.435 187.879
L355.817 187.879
L356.073 188.58
L356.073 188.58
L356.2 188.58
L356.583 187.879
L356.838 187.037
L356.966 187.037
L357.221 186.196
L357.477 187.879
L357.732 186.991
L357.987 187.037
L358.115 188.72
L358.37 187.879
L358.497 187.037
L358.753 197.686
L359.136 197.686
L359.263 198.49
L359.518 197.695
L359.901 197.695
L360.029 196.901
L360.284 196.106
L360.412 197.695
L360.667 196.891
L361.433 196.854
L361.56 195.265
L361.816 194.461
L361.943 196.901
L362.326 192.834
L362.581 189.468
L362.709 189.468
L362.964 191.132
L363.092 191.132
L363.347 186.944
L363.474 189.468
L363.73 188.627
L363.857 185.261
L364.113 183.578
L364.24 186.944
L364.495 187.785
L364.623 189.468
L365.006 189.468
L365.261 190.309
L365.389 189.468
L365.644 190.309
L366.155 184.42
L366.41 189.468
L366.537 188.627
L366.792 189.468
L366.92 190.309
L367.303 178.296
L367.686 194.47
L368.324 200.36
L368.451 199.565
L368.707 194.797
L369.09 195.582
L369.472 195.592
L369.6 194.797
L369.855 200.36
L370.238 196.667
L370.366 198.771
L370.621 235.793
L370.749 226.996
L371.131 220.881
L371.387 214.758
L371.769 190.029
L371.897 186.663
L372.152 187.505
L372.28 186.663
L372.535 186.663
L372.663 189.188
L372.918 188.346
L373.046 170.349
L373.301 178.81
L373.428 187.505
L373.684 183.251
L373.684 183.251
L373.811 186.663
L374.067 186.663
L374.194 183.251
L374.449 186.617
L374.577 192.086
L374.832 187.037
L374.96 181.895
L375.215 181.895
L375.343 181.007
L375.598 183.625
L375.726 183.625
L376.364 180.773
L376.491 179.885
L376.874 179.885
L377.129 178.997
L377.257 180.773
L377.512 179.885
L377.512 179.885
L377.64 178.109
L378.405 178.109
L378.661 183.438
L378.788 183.438
L379.044 181.661
L379.171 182.55
L379.426 183.438
L379.554 182.55
L379.809 186.196
L379.937 185.354
L380.192 197.602
L380.575 195.218
L380.703 196.807
L380.958 197.602
L381.341 190.356
L381.468 193.161
L381.723 191.244
L381.851 191.244
L382.107 188.72
L382.234 192.086
L382.489 192.694
L382.617 196.013
L382.872 196.013
L383 195.218
L383.255 198.387
L384.021 198.397
L384.403 196.013
L384.531 197.602
L384.786 194.423
L385.169 192.787
L385.297 193.628
L385.552 192.787
L385.68 191.104
L385.935 191.899
L386.062 192.787
L386.318 197.368
L386.445 194.657
L386.701 192.226
L386.828 194.657
L387.083 190.403
L387.211 190.403
L387.466 196.573
L387.594 193.395
L387.849 166.89
L387.977 196.573
L388.232 195.685
L388.232 195.685
L388.36 196.807
L388.615 197.602
L388.742 198.397
L389.125 191.946
L389.38 191.946
L389.508 196.013
L389.891 193.582
L390.146 186.663
L390.274 186.663
L390.529 197.602
L390.657 197.593
L390.912 215.365
L391.039 213.963
L391.295 208.12
L391.422 207.746
L391.805 192.74
L392.06 195.966
L392.188 195.966
L392.443 206.998
L392.571 206.063
L392.826 206.054
L392.954 203.819
L393.209 202.267
L393.337 208.858
L393.719 202.791
L393.975 200.407
L394.102 200.407
L394.102 200.407
L394.485 199.584
L394.74 199.584
L394.868 198.817
L395.123 198.817
L395.251 198.023
L395.506 198.023
L395.634 199.612
L395.889 198.817
L396.016 202.744
L396.272 201.949
L396.399 200.36
L396.655 199.565
L396.782 196.901
L397.037 196.901
L397.165 197.695
L397.42 177.408
L397.548 201.155
L397.803 199.565
L397.931 200.266
L398.314 197.462
L398.569 196.059
L398.696 194.47
L399.079 194.461
L399.335 193.666
L399.845 187.692
L400.1 189.375
L400.228 188.533
L400.483 187.692
L400.611 186.85
L400.993 186.85
L401.249 186.009
L401.376 185.167
L401.759 179.885
L402.014 170.349
L402.142 176.332
L402.397 152.913
L402.525 163.244
L402.78 159.41
L402.908 179.885
L403.163 164.833
L403.291 184.363
L403.546 186.009
L403.673 186.009
L403.929 123.603
L404.056 184.326
L404.311 183.438
L404.439 184.326
L404.822 180.867
L405.077 183.531
L405.46 174.463
L405.588 178.903
L405.843 178.903
L405.97 179.792
L406.226 185.354
L406.353 165.768
L406.609 184.513
L406.736 184.42
L406.991 186.009
L407.119 182.55
L407.374 184.326
L407.502 184.279
L407.885 192.787
L408.268 187.738
L408.523 188.58
L408.65 174.977
L409.033 186.897
L409.416 189.421
L409.671 188.58
L409.799 186.85
L410.054 179.651
L410.182 186
L410.437 180.773
L410.565 180.773
L410.948 173.621
L411.203 173.621
L411.33 170.34
L411.586 168.479
L411.713 173.612
L411.968 172.686
L412.096 184.373
L412.351 184.186
L412.479 183.298
L412.607 152.118
L412.989 180.773
L413.245 180.773
L413.5 183.288
L413.627 183.288
L413.883 183.531
L414.01 184.363
L414.266 183.522
L414.393 182.643
L414.648 179.969
L414.776 184.373
L415.031 184.373
L415.159 183.531
L415.414 183.531
L415.542 182.643
L415.797 186.804
L415.925 185.859
L416.18 185.869
L416.307 185.027
L416.563 186.71
L416.69 186.71
L417.073 184.186
L417.328 181.521
L417.456 182.409
L417.839 189.412
L418.094 191.946
L418.222 191.852
L418.477 190.169
L418.604 190.076
L418.86 189.234
L418.987 190.076
L419.243 187.551
L419.625 187.551
L419.753 189.982
L420.008 188.299
L420.136 185.775
L420.391 184.092
L420.519 179.651
L421.157 172.219
L421.54 172.125
L421.667 173.2
L421.922 178.763
L422.05 178.763
L422.433 176.099
L422.816 184.139
L423.071 184.373
L423.199 183.531
L423.581 191.946
L423.837 193.722
L424.22 191.244
L424.347 192.086
L424.602 191.244
L424.73 188.72
L424.985 193.722
L425.113 192.32
L425.368 191.572
L425.496 190.73
L425.751 188.206
L425.879 190.73
L426.134 208.868
L426.261 178.249
L426.517 206.11
L426.899 199.191
L427.282 191.104
L427.41 190.917
L427.793 195.218
L428.048 192.787
L428.176 190.263
L428.431 182.643
L428.558 189.421
L428.814 186.056
L428.941 186.897
L429.197 184.279
L429.324 186.056
L429.579 183.531
L429.707 183.531
L429.962 184.373
L430.09 183.531
L430.345 183.531
L430.473 184.373
L430.728 182.55
L430.856 180.773
L430.983 180.727
L431.238 181.661
L431.494 180.773
L431.621 179.745
L431.877 175.117
L432.004 175.117
L432.259 174.229
L432.387 172.359
L432.642 170.489
L432.642 170.489
L432.77 170.489
L433.025 169.554
L433.408 169.554
L433.536 167.684
L433.791 167.684
L433.918 168.619
L434.174 168.619
L434.301 174.229
L434.556 173.294
L434.684 173.294
L434.939 173.144
L435.067 170.349
L435.322 171.751
L435.45 170.349
L435.705 173.154
L435.833 171.284
L436.088 170.349
L436.215 170.349
L436.471 172.219
L436.598 171.284
L436.854 172.219
L436.981 172.219
L437.236 173.294
L437.747 173.294
L438.002 172.359
L438.13 170.489
L438.385 170.489
L438.513 172.359
L438.768 174.229
L439.151 192.787
L439.533 193.722
L439.661 192.086
L439.916 193.722
L440.044 190.403
L440.299 187.037
L440.299 187.037
L440.427 187.879
L440.682 187.879
L441.065 206.437
L441.448 204.193
L441.575 204.941
L441.831 204.146
L441.831 204.146
L441.958 201.856
L442.341 198.406
L442.596 204.193
L442.724 204.193
L443.107 198.069
L443.362 176.987
L443.49 194.096
L443.745 192.413
L443.872 194.087
L444.128 192.404
L444.255 194.891
L444.51 195.685
L444.638 195.685
L444.893 197.275
L445.021 197.275
L445.276 193.301
L445.404 194.096
L445.659 189.842
L446.042 188.159
L446.425 183.952
L446.552 184.793
L446.808 183.531
L446.935 184.793
L447.19 182.176
L447.318 179.511
L447.573 184.793
L447.701 184.793
L448.084 182.166
L448.339 179.511
L448.467 179.511
L448.722 181.288
L449.105 178.623
L449.232 176.847
L449.487 175.07
L449.487 175.07
L449.615 181.288
L449.998 186.476
L450.126 184.747
L450.381 185.635
L450.636 185.635
L450.764 186.476
L451.019 186.476
L451.146 190.777
L451.402 189.936
L451.529 177.959
L451.785 187.308
L451.912 181.989
L452.295 178.436
L452.55 176.66
L452.678 174.883
L452.933 176.66
L453.444 176.66
L453.699 179.324
L453.826 178.436
L454.209 189.029
L454.465 187.365
L454.592 189.029
L454.847 173.715
L454.847 173.715
L454.975 172.78
L455.23 189.795
L455.358 189.795
L455.613 194.077
L455.741 193.254
L455.996 192.413
L456.123 193.722
L456.379 193.722
L456.506 188.206
L456.762 193.722
L456.889 193.713
L457.144 192.039
L457.527 191.946
L458.293 181.746
L458.421 190.356
L458.676 191.198
L458.803 191.198
L459.059 194.077
L459.952 188.019
L460.207 190.543
L460.335 190.543
L460.59 189.702
L460.718 188.86
L460.973 188.86
L461.356 170.349
L461.484 181.802
L461.739 180.914
L462.121 189.702
L462.249 188.019
L462.504 187.178
L462.632 187.178
L462.887 188.673
L463.015 194.087
L463.398 190.637
L463.653 194.087
L463.781 193.254
L464.036 193.254
L464.163 191.572
L464.419 191.572
L464.546 199.799
L464.801 197.415
L464.929 182.83
L465.312 181.521
L465.567 198.986
L465.567 198.986
L465.695 188.954
L465.95 188.112
L466.078 189.047
L466.333 195.779
L466.46 194.984
L466.716 194.984
L466.843 194.189
L467.098 190.73
L467.226 190.73
L467.481 189.038
L467.864 190.712
L467.992 190.712
L468.247 189.889
L468.63 186.523
L468.757 186.523
L469.013 184.84
L469.778 184.84
L469.906 183.999
L470.161 183.111
L470.289 173.808
L470.544 184.84
L470.672 183.999
L470.927 183.999
L471.31 181.334
L471.437 181.334
L471.693 183.111
L471.82 183.111
L472.203 179.698
L472.458 179.324
L472.586 183.111
L472.969 180.446
L473.352 183.083
L473.607 183.101
L473.734 184.84
L473.99 184.42
L474.118 179.698
L474.373 177.034
L474.5 179.698
L474.755 189.515
L474.883 189.515
L475.138 191.207
L475.266 189.505
L475.521 191.207
L475.649 191.207
L475.904 190.356
L476.032 188.299
L476.414 188.206
L476.67 198.153
L476.797 198.116
L477.18 189.375
L477.435 190.216
L477.818 207.746
L478.711 207.746
L478.967 203.071
L479.094 207.746
L479.477 207.746
L479.732 207.549
L479.86 205.895
L480.115 205.128
L480.243 203.623
L480.498 206.811
L480.626 189.047
L480.881 204.885
L481.009 203.398
L481.264 204.146
L481.391 204.941
L481.647 204.193
L481.774 196.807
L482.157 191.244
L482.412 178.81
L482.54 191.244
L482.795 197.508
L482.923 197.499
L483.178 198.387
L483.306 198.397
L483.561 197.508
L483.689 195.919
L483.944 195.124
L484.327 195.124
L484.454 195.919
L484.709 194.33
L484.837 194.33
L485.092 192.32
L485.22 187.925
L485.475 194.283
L485.858 193.535
L485.986 191.852
L486.241 194.33
L486.241 194.33
L486.368 192.694
L486.624 196.714
L486.751 195.124
L487.007 195.872
L487.134 195.078
L487.389 194.283
L487.517 193.488
L487.772 195.078
L488.283 195.068
L488.538 198.303
L488.666 188.206
L489.048 203.071
L489.304 202.276
L489.431 201.482
L489.814 207.596
L490.069 206.11
L490.197 202.37
L490.452 199.986
L490.58 200.781
L490.835 199.939
L490.963 199.939
L491.218 199.144
L491.345 196.76
L491.728 199.911
L491.984 170.349
L492.111 195.956
L492.366 195.171
L492.494 195.966
L492.877 199.93
L493.515 187.178
L493.643 185.495
L493.898 184.653
L494.026 184.653
L494.281 189.702
L494.408 189.702
L494.663 191.385
L494.791 190.543
L495.046 176.052
L495.174 188.019
L495.429 189.702
L495.557 189.702
L495.684 200.781
L495.812 199.191
L495.812 199.191
L495.94 199.986
L496.195 200.781
L496.322 200.781
L496.578 205.315
L496.705 204.567
L496.961 204.558
L497.088 203.772
L497.343 203.024
L497.471 203.024
L497.726 198.771
L497.854 203.726
L498.109 202.978
L498.237 199.004
L498.62 196.62
L498.875 194.236
L499.258 199.004
L499.258 199.004
L499.385 199.004
L499.64 180.306
L499.768 198.817
L500.023 198.21
L500.151 195.826
L500.406 195.826
L500.534 196.62
L500.789 195.826
L500.917 195.826
L501.299 188.486
L501.555 189.234
L501.938 194.657
L502.065 182.877
L502.32 189.692
L502.448 187.178
L502.703 186.336
L502.831 184.653
L503.086 188.019
L503.214 188.019
L503.597 193.068
L503.979 189.702
L504.235 190.637
L504.362 190.637
L504.617 188.112
L504.873 184.747
L505.128 169.414
L505.383 189.047
L505.894 189.047
L506.149 190.637
L506.277 190.637
L506.532 189.795
L506.659 190.59
L507.042 183.531
L507.297 190.59
L507.425 189.749
L507.68 188.907
L507.808 188.907
L508.063 190.59
L508.191 189.749
L508.829 178.997
L509.212 176.332
L509.339 181.101
L509.595 180.212
L509.722 180.212
L509.977 174.416
L510.36 181.989
L510.488 180.212
L510.743 188.907
L510.871 188.066
L511.126 190.581
L511.509 189.749
L511.636 189.749
L511.892 185.354
L512.019 189.739
L512.402 187.224
L512.657 188.066
L513.168 184.7
L513.423 185.541
L513.551 184.7
L513.933 184.363
L514.189 182.596
L514.317 182.596
L514.572 183.531
L514.699 187.365
L514.954 183.111
L515.082 183.905
L515.337 183.017
L515.465 183.999
L515.848 198.397
L516.103 204.52
L516.231 204.52
L516.486 198.387
L516.613 198.397
L516.869 197.593
L516.996 197.602
L517.251 202.865
L517.379 202.865
L517.634 201.295
L517.762 199.705
L518.145 198.116
L518.4 191.057
L518.4 191.057" style="fill:none;stroke:#ff0000;stroke-linecap:square;"/>
   </g>
   <g id="line2d_2">
    <path clip-path="url(#pcb2bf987bf)" d="
M72 339.943
L72.1276 339.766
L72.7657 339.766
L72.8933 340.084
L74.2971 339.981
L74.4247 339.878
L75.8285 339.943
L75.9561 339.532
L76.5942 339.532
L76.7218 339.7
L77.3599 339.7
L77.8703 339.84
L78.1256 339.84
L78.1256 339.84
L78.2532 340.186
L79.6569 340.093
L79.7846 339.962
L80.4226 339.962
L80.5503 340.261
L81.1885 340.261
L81.316 340.486
L82.7197 340.551
L82.8473 340.308
L84.2511 340.364
L84.3787 340.523
L87.3139 340.429
L87.4415 340.317
L88.8453 340.383
L88.8453 340.383
L88.9729 340.551
L89.611 340.551
L89.7386 340.27
L92.6738 340.327
L93.3118 340.429
L94.2051 340.242
L94.9708 339.897
L95.7365 340.205
L97.1403 339.897
L98.0336 340.13
L98.7993 339.336
L99.4374 339.401
L100.331 339.354
L100.969 339.429
L102.5 339.364
L103.393 339.364
L104.032 339.504
L105.563 339.326
L106.329 339.644
L107.095 339.485
L107.988 339.747
L108.626 339.747
L109.519 339.99
L110.285 340.093
L111.05 339.794
L111.816 339.7
L114.879 340.055
L116.41 339.635
L117.048 339.953
L118.707 340.046
L120.877 339.831
L121.004 339.831
L121.643 339.588
L122.536 339.644
L124.067 339.99
L124.705 340.084
L125.471 339.915
L127.13 340.327
L127.13 340.327
L127.768 340.093
L128.661 340.158
L129.299 340.383
L130.193 340.093
L130.831 340.177
L132.362 340.757
L132.362 340.757
L134.659 340.514
L135.425 340.56
L136.318 340.747
L136.956 340.616
L138.488 340.766
L139.381 340.607
L140.785 340.888
L143.082 340.504
L143.975 340.299
L145.507 341.009
L146.91 340.551
L147.676 340.551
L148.442 340.757
L149.335 340.822
L149.973 341.037
L151.505 340.719
L152.27 341.075
L153.164 341.075
L153.802 340.383
L154.567 339.981
L156.099 340.401
L156.865 339.953
L157.758 339.953
L159.162 340.448
L160.821 340.673
L162.224 340.99
L163.118 340.916
L163.883 341.159
L166.819 340.701
L167.712 340.794
L169.243 340.504
L169.881 340.149
L170.775 340.392
L171.413 340.261
L172.178 340.411
L173.072 340.074
L173.71 340.084
L174.603 340.504
L176.007 340.579
L176.9 340.439
L177.538 340.439
L178.304 340.27
L179.07 340.308
L179.963 340.121
L180.729 340.392
L181.367 340.177
L182.26 340.364
L182.898 340.411
L183.791 340.925
L185.961 340.972
L186.727 340.785
L187.492 340.317
L189.151 339.775
L191.321 339.046
L191.321 339.046
L192.852 339.345
L193.618 339.691
L194.384 339.831
L195.277 339.766
L195.915 339.934
L196.681 340.009
L198.978 339.448
L201.275 339.214
L202.04 339.569
L203.699 339.653
L204.338 339.579
L205.231 339.756
L205.997 339.635
L206.124 339.7
L207.4 339.597
L209.059 339.644
L209.059 339.644
L209.825 339.719
L210.591 339.747
L210.846 340.102
L213.654 340.018
L213.654 340.018
L213.781 339.897
L216.589 339.803
L216.589 339.803
L216.844 339.625
L218.248 339.691
L218.248 339.691
L218.375 339.971
L219.013 339.971
L219.141 339.681
L219.779 339.681
L219.907 339.803
L220.545 339.803
L220.672 339.99
L220.672 339.99
L222.076 340.065
L222.204 340.401
L222.842 340.401
L222.842 340.401
L223.352 340.747
L223.608 340.747
L223.735 340.514
L225.139 340.616
L225.267 340.803
L228.202 340.719
L228.329 340.644
L230.499 340.56
L230.499 340.56
L231.009 340.439
L232.03 340.429
L232.158 340.616
L234.327 340.579
L234.327 340.579
L234.455 340.495
L235.093 340.495
L235.093 340.495
L235.221 340.355
L236.624 340.345
L236.752 340.242
L237.39 340.242
L237.518 340.626
L241.984 340.626
L242.112 340.757
L242.75 340.757
L242.878 340.514
L243.516 340.514
L243.643 340.972
L245.047 341.028
L245.047 341.028
L245.175 340.841
L247.344 340.803
L247.855 340.168
L248.493 340.046
L249.641 340.121
L249.641 340.121
L249.769 340.457
L251.938 340.429
L252.066 340.252
L252.704 340.252
L252.832 340.373
L254.235 340.476
L254.618 340.523
L255.001 340.523
L255.129 340.635
L255.129 340.635
L255.767 340.635
L255.767 340.635
L255.894 340.859
L257.298 340.869
L257.426 340.747
L258.064 340.747
L258.064 340.747
L259.34 340.439
L260.361 340.392
L260.489 340.588
L261.127 340.588
L261.254 340.214
L261.892 340.214
L262.02 340.102
L262.658 340.102
L262.786 340.355
L266.486 340.448
L266.614 340.57
L267.252 340.57
L267.38 340.457
L268.018 340.457
L268.145 340.336
L269.549 340.327
L269.677 340.457
L272.612 340.364
L272.74 340.074
L273.378 340.074
L273.378 340.074
L273.506 340.373
L274.143 340.373
L274.271 340.57
L277.972 340.504
L277.972 340.504
L278.099 340.317
L281.035 340.364
L281.035 340.364
L281.162 340.205
L284.097 340.214
L284.225 340.355
L284.736 340.355
L285.374 340.532
L288.692 340.495
L288.819 340.392
L291.754 340.457
L292.265 340.663
L294.051 340.56
L294.051 340.56
L294.179 340.831
L294.817 340.831
L294.817 340.831
L294.945 340.57
L295.583 340.57
L295.71 340.121
L297.88 340.027
L298.008 340.28
L298.646 340.28
L298.773 340.093
L299.411 340.093
L299.539 339.71
L300.177 339.71
L300.177 339.71
L300.305 339.859
L300.943 339.859
L301.07 340.186
L301.708 340.186
L301.836 340.299
L302.474 340.299
L302.474 340.299
L303.112 340.439
L305.154 340.626
L307.068 340.663
L307.068 340.663
L307.196 340.457
L308.6 340.392
L308.6 340.392
L308.727 340.616
L309.365 340.616
L309.493 340.785
L310.131 340.785
L310.131 340.785
L310.259 340.972
L310.897 340.972
L311.024 340.719
L311.662 340.719
L311.79 340.598
L312.428 340.598
L312.556 341.103
L313.194 341.103
L313.321 340.962
L313.96 340.962
L314.087 340.831
L314.725 340.831
L314.853 340.588
L315.491 340.588
L315.619 340.794
L317.022 340.766
L317.15 340.654
L320.851 340.71
L320.851 340.71
L321.361 340.869
L322.127 340.813
L323.148 340.757
L323.275 340.588
L326.211 340.691
L326.721 340.719
L327.742 340.719
L327.87 341.065
L328.508 341.065
L328.635 340.682
L329.273 340.682
L329.401 340.532
L330.039 340.532
L330.167 340.299
L330.805 340.299
L330.933 340.429
L331.57 340.429
L331.698 340.308
L332.336 340.308
L332.464 340.186
L333.868 340.13
L333.995 340.327
L334.633 340.327
L334.761 340.196
L336.165 340.224
L336.292 340.345
L339.866 340.299
L340.376 340.205
L343.822 340.252
L343.822 340.252
L343.949 340.523
L344.588 340.523
L344.715 340.392
L346.884 340.429
L346.884 340.429
L347.012 340.523
L348.416 340.42
L348.543 340.644
L349.181 340.644
L349.309 340.532
L352.244 340.439
L352.372 340.766
L353.776 340.719
L353.776 340.719
L354.286 340.542
L354.541 340.542
L354.669 340.345
L359.136 340.392
L359.263 340.495
L360.667 340.439
L360.795 340.289
L363.73 340.289
L363.857 340.14
L365.261 340.168
L365.389 340.429
L366.792 340.355
L366.92 340.579
L368.324 340.654
L368.451 340.916
L369.09 340.916
L369.6 340.701
L369.855 340.701
L369.983 340.906
L371.387 340.822
L371.514 340.401
L372.152 340.401
L372.28 340.074
L378.278 340.177
L379.809 340.196
L379.937 340.467
L381.341 340.373
L381.468 340.27
L382.872 340.252
L383 340.495
L383.638 340.495
L384.148 340.654
L384.403 340.654
L384.531 340.504
L385.935 340.504
L386.062 340.345
L387.466 340.28
L387.594 340.457
L388.232 340.457
L388.232 340.457
L388.36 344.982
L388.998 344.982
L389.125 340.616
L390.529 340.691
L390.657 340.878
L391.295 340.878
L391.422 340.523
L392.06 340.523
L392.188 340.401
L392.826 340.401
L392.954 340.532
L394.102 340.532
L394.102 340.532
L394.485 340.308
L395.889 340.289
L396.016 340.514
L398.186 340.429
L398.314 340.289
L398.952 340.289
L399.079 340.093
L402.014 340.074
L402.142 339.831
L402.78 339.831
L402.908 340.158
L403.546 340.158
L403.673 340.299
L408.14 340.373
L408.268 340.439
L410.437 340.364
L410.82 340.317
L411.203 340.317
L411.33 340.14
L414.266 340.196
L414.393 340.289
L418.094 340.242
L418.222 340.71
L418.86 340.71
L418.987 340.57
L420.391 340.542
L420.519 340.429
L423.454 340.429
L423.581 340.738
L426.517 340.757
L426.644 340.476
L427.282 340.476
L427.41 340.224
L429.579 340.177
L429.707 340.364
L431.877 340.308
L432.004 340.046
L433.408 340.149
L434.684 340.242
L437.236 340.224
L437.364 340.486
L438.768 340.495
L438.895 340.616
L439.533 340.616
L439.661 340.944
L441.831 341
L441.831 341
L441.958 340.738
L442.596 340.738
L442.724 340.878
L443.362 340.878
L443.49 340.579
L444.128 340.579
L444.255 340.439
L444.893 340.439
L445.021 340.691
L445.659 340.691
L446.169 340.448
L446.425 340.448
L446.552 340.27
L447.19 340.27
L447.318 340.457
L447.956 340.457
L448.084 340.579
L451.785 340.635
L451.912 340.373
L452.55 340.373
L452.678 340.224
L454.082 340.177
L454.209 340.373
L454.847 340.373
L454.847 340.373
L454.975 340.495
L455.613 340.495
L455.741 340.626
L457.144 340.579
L457.272 340.476
L458.676 340.57
L458.803 340.701
L464.036 340.794
L464.801 340.813
L464.929 340.682
L466.333 340.691
L466.46 340.411
L467.098 340.411
L467.098 340.411
L467.226 340.27
L469.396 340.168
L469.906 340.13
L473.99 340.149
L474.118 340.345
L474.755 340.345
L474.883 340.57
L477.052 340.57
L477.18 340.691
L477.818 340.691
L477.946 340.803
L478.584 340.803
L478.711 340.429
L479.35 340.429
L479.477 340.186
L480.115 340.186
L480.243 340.027
L483.944 340.065
L484.071 339.747
L488.538 339.803
L488.666 339.971
L490.835 339.915
L490.963 339.616
L493.132 339.625
L493.26 339.822
L493.898 339.822
L494.026 339.569
L494.663 339.569
L494.791 339.775
L496.195 339.84
L496.322 340.055
L496.961 340.055
L497.088 340.214
L498.492 340.27
L498.62 340.046
L499.258 340.046
L499.258 340.046
L499.385 340.177
L500.789 340.252
L500.917 340.065
L501.555 340.065
L501.682 339.953
L502.32 339.953
L502.448 339.822
L503.852 339.784
L503.979 339.962
L504.617 339.962
L504.873 339.85
L506.149 339.953
L506.277 340.037
L507.68 340.027
L507.808 339.915
L509.212 339.859
L509.339 339.719
L509.977 339.719
L510.488 339.99
L510.743 339.99
L510.871 340.102
L516.103 340.046
L516.231 340.794
L516.869 340.794
L516.996 340.616
L518.4 340.626
L518.4 340.626" style="fill:none;stroke:#008000;stroke-linecap:square;"/>
   </g>
   <g id="patch_3">
    <path d="
M72 43.2
L518.4 43.2" style="fill:none;stroke:#000000;stroke-linecap:square;stroke-linejoin:miter;"/>
   </g>
   <g id="patch_4">
    <path d="
M518.4 345.6
L518.4 43.2" style="fill:none;stroke:#000000;stroke-linecap:square;stroke-linejoin:miter;"/>
   </g>
   <g id="patch_5">
    <path d="
M72 345.6
L518.4 345.6" style="fill:none;stroke:#000000;stroke-linecap:square;stroke-linejoin:miter;"/>
   </g>
   <g id="patch_6">
    <path d="
M72 345.6
L72 43.2" style="fill:none;stroke:#000000;stroke-linecap:square;stroke-linejoin:miter;"/>
   </g>
   <g id="matplotlib.axis_1">
    <g id="xtick_1">
     <g id="line2d_3">
      <defs>
       <path d="
M0 0
L0 -4" id="m93b0483c22" style="stroke:#000000;stroke-width:0.5;"/>
      </defs>
      <g>
       <use style="stroke:#000000;stroke-width:0.5;" x="117.941468267" xlink:href="#m93b0483c22" y="345.6"/>
      </g>
     </g>
     <g id="line2d_4">
      <defs>
       <path d="
M0 0
L0 4" id="m741efc42ff" style="stroke:#000000;stroke-width:0.5;"/>
      </defs>
      <g>
       <use style="stroke:#000000;stroke-width:0.5;" x="117.941468267" xlink:href="#m741efc42ff" y="43.2"/>
      </g>
     </g>
     <g id="text_1">
      <!-- Oct 13 2015 -->
      <defs>
       <path d="
M19.1875 8.29688
L53.6094 8.29688
L53.6094 0
L7.32812 0
L7.32812 8.29688
Q12.9375 14.1094 22.625 23.8906
Q32.3281 33.6875 34.8125 36.5312
Q39.5469 41.8438 41.4219 45.5312
Q43.3125 49.2188 43.3125 52.7812
Q43.3125 58.5938 39.2344 62.25
Q35.1562 65.9219 28.6094 65.9219
Q23.9688 65.9219 18.8125 64.3125
Q13.6719 62.7031 7.8125 59.4219
L7.8125 69.3906
Q13.7656 71.7812 18.9375 73
Q24.125 74.2188 28.4219 74.2188
Q39.75 74.2188 46.4844 68.5469
Q53.2188 62.8906 53.2188 53.4219
Q53.2188 48.9219 51.5312 44.8906
Q49.8594 40.875 45.4062 35.4062
Q44.1875 33.9844 37.6406 27.2188
Q31.1094 20.4531 19.1875 8.29688" id="BitstreamVeraSans-Roman-32"/>
       <path d="
M39.4062 66.2188
Q28.6562 66.2188 22.3281 58.2031
Q16.0156 50.2031 16.0156 36.375
Q16.0156 22.6094 22.3281 14.5938
Q28.6562 6.59375 39.4062 6.59375
Q50.1406 6.59375 56.4219 14.5938
Q62.7031 22.6094 62.7031 36.375
Q62.7031 50.2031 56.4219 58.2031
Q50.1406 66.2188 39.4062 66.2188
M39.4062 74.2188
Q54.7344 74.2188 63.9062 63.9375
Q73.0938 53.6562 73.0938 36.375
Q73.0938 19.1406 63.9062 8.85938
Q54.7344 -1.42188 39.4062 -1.42188
Q24.0312 -1.42188 14.8125 8.82812
Q5.60938 19.0938 5.60938 36.375
Q5.60938 53.6562 14.8125 63.9375
Q24.0312 74.2188 39.4062 74.2188" id="BitstreamVeraSans-Roman-4f"/>
       <path d="
M31.7812 66.4062
Q24.1719 66.4062 20.3281 58.9062
Q16.5 51.4219 16.5 36.375
Q16.5 21.3906 20.3281 13.8906
Q24.1719 6.39062 31.7812 6.39062
Q39.4531 6.39062 43.2812 13.8906
Q47.125 21.3906 47.125 36.375
Q47.125 51.4219 43.2812 58.9062
Q39.4531 66.4062 31.7812 66.4062
M31.7812 74.2188
Q44.0469 74.2188 50.5156 64.5156
Q56.9844 54.8281 56.9844 36.375
Q56.9844 17.9688 50.5156 8.26562
Q44.0469 -1.42188 31.7812 -1.42188
Q19.5312 -1.42188 13.0625 8.26562
Q6.59375 17.9688 6.59375 36.375
Q6.59375 54.8281 13.0625 64.5156
Q19.5312 74.2188 31.7812 74.2188" id="BitstreamVeraSans-Roman-30"/>
       <path d="
M12.4062 8.29688
L28.5156 8.29688
L28.5156 63.9219
L10.9844 60.4062
L10.9844 69.3906
L28.4219 72.9062
L38.2812 72.9062
L38.2812 8.29688
L54.3906 8.29688
L54.3906 0
L12.4062 0
z
" id="BitstreamVeraSans-Roman-31"/>
       <path d="
M40.5781 39.3125
Q47.6562 37.7969 51.625 33
Q55.6094 28.2188 55.6094 21.1875
Q55.6094 10.4062 48.1875 4.48438
Q40.7656 -1.42188 27.0938 -1.42188
Q22.5156 -1.42188 17.6562 -0.515625
Q12.7969 0.390625 7.625 2.20312
L7.625 11.7188
Q11.7188 9.32812 16.5938 8.10938
Q21.4844 6.89062 26.8125 6.89062
Q36.0781 6.89062 40.9375 10.5469
Q45.7969 14.2031 45.7969 21.1875
Q45.7969 27.6406 41.2812 31.2656
Q36.7656 34.9062 28.7188 34.9062
L20.2188 34.9062
L20.2188 43.0156
L29.1094 43.0156
Q36.375 43.0156 40.2344 45.9219
Q44.0938 48.8281 44.0938 54.2969
Q44.0938 59.9062 40.1094 62.9062
Q36.1406 65.9219 28.7188 65.9219
Q24.6562 65.9219 20.0156 65.0312
Q15.375 64.1562 9.8125 62.3125
L9.8125 71.0938
Q15.4375 72.6562 20.3438 73.4375
Q25.25 74.2188 29.5938 74.2188
Q40.8281 74.2188 47.3594 69.1094
Q53.9062 64.0156 53.9062 55.3281
Q53.9062 49.2656 50.4375 45.0938
Q46.9688 40.9219 40.5781 39.3125" id="BitstreamVeraSans-Roman-33"/>
       <path id="BitstreamVeraSans-Roman-20"/>
       <path d="
M10.7969 72.9062
L49.5156 72.9062
L49.5156 64.5938
L19.8281 64.5938
L19.8281 46.7344
Q21.9688 47.4688 24.1094 47.8281
Q26.2656 48.1875 28.4219 48.1875
Q40.625 48.1875 47.75 41.5
Q54.8906 34.8125 54.8906 23.3906
Q54.8906 11.625 47.5625 5.09375
Q40.2344 -1.42188 26.9062 -1.42188
Q22.3125 -1.42188 17.5469 -0.640625
Q12.7969 0.140625 7.71875 1.70312
L7.71875 11.625
Q12.1094 9.23438 16.7969 8.0625
Q21.4844 6.89062 26.7031 6.89062
Q35.1562 6.89062 40.0781 11.3281
Q45.0156 15.7656 45.0156 23.3906
Q45.0156 31 40.0781 35.4375
Q35.1562 39.8906 26.7031 39.8906
Q22.75 39.8906 18.8125 39.0156
Q14.8906 38.1406 10.7969 36.2812
z
" id="BitstreamVeraSans-Roman-35"/>
       <path d="
M18.3125 70.2188
L18.3125 54.6875
L36.8125 54.6875
L36.8125 47.7031
L18.3125 47.7031
L18.3125 18.0156
Q18.3125 11.3281 20.1406 9.42188
Q21.9688 7.51562 27.5938 7.51562
L36.8125 7.51562
L36.8125 0
L27.5938 0
Q17.1875 0 13.2344 3.875
Q9.28125 7.76562 9.28125 18.0156
L9.28125 47.7031
L2.6875 47.7031
L2.6875 54.6875
L9.28125 54.6875
L9.28125 70.2188
z
" id="BitstreamVeraSans-Roman-74"/>
       <path d="
M48.7812 52.5938
L48.7812 44.1875
Q44.9688 46.2969 41.1406 47.3438
Q37.3125 48.3906 33.4062 48.3906
Q24.6562 48.3906 19.8125 42.8438
Q14.9844 37.3125 14.9844 27.2969
Q14.9844 17.2812 19.8125 11.7344
Q24.6562 6.20312 33.4062 6.20312
Q37.3125 6.20312 41.1406 7.25
Q44.9688 8.29688 48.7812 10.4062
L48.7812 2.09375
Q45.0156 0.34375 40.9844 -0.53125
Q36.9688 -1.42188 32.4219 -1.42188
Q20.0625 -1.42188 12.7812 6.34375
Q5.51562 14.1094 5.51562 27.2969
Q5.51562 40.6719 12.8594 48.3281
Q20.2188 56 33.0156 56
Q37.1562 56 41.1094 55.1406
Q45.0625 54.2969 48.7812 52.5938" id="BitstreamVeraSans-Roman-63"/>
      </defs>
      <g transform="translate(53.3541815316 394.065590385)rotate(-30.0)scale(0.12 -0.12)">
       <use xlink:href="#BitstreamVeraSans-Roman-4f"/>
       <use x="78.7109375" xlink:href="#BitstreamVeraSans-Roman-63"/>
       <use x="133.69140625" xlink:href="#BitstreamVeraSans-Roman-74"/>
       <use x="172.900390625" xlink:href="#BitstreamVeraSans-Roman-20"/>
       <use x="204.6875" xlink:href="#BitstreamVeraSans-Roman-31"/>
       <use x="268.310546875" xlink:href="#BitstreamVeraSans-Roman-33"/>
       <use x="331.93359375" xlink:href="#BitstreamVeraSans-Roman-20"/>
       <use x="363.720703125" xlink:href="#BitstreamVeraSans-Roman-32"/>
       <use x="427.34375" xlink:href="#BitstreamVeraSans-Roman-30"/>
       <use x="490.966796875" xlink:href="#BitstreamVeraSans-Roman-31"/>
       <use x="554.58984375" xlink:href="#BitstreamVeraSans-Roman-35"/>
      </g>
     </g>
    </g>
    <g id="xtick_2">
     <g id="line2d_5">
      <g>
       <use style="stroke:#000000;stroke-width:0.5;" x="173.071485419" xlink:href="#m93b0483c22" y="345.6"/>
      </g>
     </g>
     <g id="line2d_6">
      <g>
       <use style="stroke:#000000;stroke-width:0.5;" x="173.071485419" xlink:href="#m741efc42ff" y="43.2"/>
      </g>
     </g>
     <g id="text_2">
      <!-- Oct 16 2015 -->
      <defs>
       <path d="
M33.0156 40.375
Q26.375 40.375 22.4844 35.8281
Q18.6094 31.2969 18.6094 23.3906
Q18.6094 15.5312 22.4844 10.9531
Q26.375 6.39062 33.0156 6.39062
Q39.6562 6.39062 43.5312 10.9531
Q47.4062 15.5312 47.4062 23.3906
Q47.4062 31.2969 43.5312 35.8281
Q39.6562 40.375 33.0156 40.375
M52.5938 71.2969
L52.5938 62.3125
Q48.875 64.0625 45.0938 64.9844
Q41.3125 65.9219 37.5938 65.9219
Q27.8281 65.9219 22.6719 59.3281
Q17.5312 52.7344 16.7969 39.4062
Q19.6719 43.6562 24.0156 45.9219
Q28.375 48.1875 33.5938 48.1875
Q44.5781 48.1875 50.9531 41.5156
Q57.3281 34.8594 57.3281 23.3906
Q57.3281 12.1562 50.6875 5.35938
Q44.0469 -1.42188 33.0156 -1.42188
Q20.3594 -1.42188 13.6719 8.26562
Q6.98438 17.9688 6.98438 36.375
Q6.98438 53.6562 15.1875 63.9375
Q23.3906 74.2188 37.2031 74.2188
Q40.9219 74.2188 44.7031 73.4844
Q48.4844 72.75 52.5938 71.2969" id="BitstreamVeraSans-Roman-36"/>
      </defs>
      <g transform="translate(108.484198684 394.065590385)rotate(-30.0)scale(0.12 -0.12)">
       <use xlink:href="#BitstreamVeraSans-Roman-4f"/>
       <use x="78.7109375" xlink:href="#BitstreamVeraSans-Roman-63"/>
       <use x="133.69140625" xlink:href="#BitstreamVeraSans-Roman-74"/>
       <use x="172.900390625" xlink:href="#BitstreamVeraSans-Roman-20"/>
       <use x="204.6875" xlink:href="#BitstreamVeraSans-Roman-31"/>
       <use x="268.310546875" xlink:href="#BitstreamVeraSans-Roman-36"/>
       <use x="331.93359375" xlink:href="#BitstreamVeraSans-Roman-20"/>
       <use x="363.720703125" xlink:href="#BitstreamVeraSans-Roman-32"/>
       <use x="427.34375" xlink:href="#BitstreamVeraSans-Roman-30"/>
       <use x="490.966796875" xlink:href="#BitstreamVeraSans-Roman-31"/>
       <use x="554.58984375" xlink:href="#BitstreamVeraSans-Roman-35"/>
      </g>
     </g>
    </g>
    <g id="xtick_3">
     <g id="line2d_7">
      <g>
       <use style="stroke:#000000;stroke-width:0.5;" x="228.201502573" xlink:href="#m93b0483c22" y="345.6"/>
      </g>
     </g>
     <g id="line2d_8">
      <g>
       <use style="stroke:#000000;stroke-width:0.5;" x="228.201502573" xlink:href="#m741efc42ff" y="43.2"/>
      </g>
     </g>
     <g id="text_3">
      <!-- Oct 19 2015 -->
      <defs>
       <path d="
M10.9844 1.51562
L10.9844 10.5
Q14.7031 8.73438 18.5 7.8125
Q22.3125 6.89062 25.9844 6.89062
Q35.75 6.89062 40.8906 13.4531
Q46.0469 20.0156 46.7812 33.4062
Q43.9531 29.2031 39.5938 26.9531
Q35.25 24.7031 29.9844 24.7031
Q19.0469 24.7031 12.6719 31.3125
Q6.29688 37.9375 6.29688 49.4219
Q6.29688 60.6406 12.9375 67.4219
Q19.5781 74.2188 30.6094 74.2188
Q43.2656 74.2188 49.9219 64.5156
Q56.5938 54.8281 56.5938 36.375
Q56.5938 19.1406 48.4062 8.85938
Q40.2344 -1.42188 26.4219 -1.42188
Q22.7031 -1.42188 18.8906 -0.6875
Q15.0938 0.046875 10.9844 1.51562
M30.6094 32.4219
Q37.25 32.4219 41.125 36.9531
Q45.0156 41.5 45.0156 49.4219
Q45.0156 57.2812 41.125 61.8438
Q37.25 66.4062 30.6094 66.4062
Q23.9688 66.4062 20.0938 61.8438
Q16.2188 57.2812 16.2188 49.4219
Q16.2188 41.5 20.0938 36.9531
Q23.9688 32.4219 30.6094 32.4219" id="BitstreamVeraSans-Roman-39"/>
      </defs>
      <g transform="translate(163.614215838 394.065590385)rotate(-30.0)scale(0.12 -0.12)">
       <use xlink:href="#BitstreamVeraSans-Roman-4f"/>
       <use x="78.7109375" xlink:href="#BitstreamVeraSans-Roman-63"/>
       <use x="133.69140625" xlink:href="#BitstreamVeraSans-Roman-74"/>
       <use x="172.900390625" xlink:href="#BitstreamVeraSans-Roman-20"/>
       <use x="204.6875" xlink:href="#BitstreamVeraSans-Roman-31"/>
       <use x="268.310546875" xlink:href="#BitstreamVeraSans-Roman-39"/>
       <use x="331.93359375" xlink:href="#BitstreamVeraSans-Roman-20"/>
       <use x="363.720703125" xlink:href="#BitstreamVeraSans-Roman-32"/>
       <use x="427.34375" xlink:href="#BitstreamVeraSans-Roman-30"/>
       <use x="490.966796875" xlink:href="#BitstreamVeraSans-Roman-31"/>
       <use x="554.58984375" xlink:href="#BitstreamVeraSans-Roman-35"/>
      </g>
     </g>
    </g>
    <g id="xtick_4">
     <g id="line2d_9">
      <g>
       <use style="stroke:#000000;stroke-width:0.5;" x="283.331519725" xlink:href="#m93b0483c22" y="345.6"/>
      </g>
     </g>
     <g id="line2d_10">
      <g>
       <use style="stroke:#000000;stroke-width:0.5;" x="283.331519725" xlink:href="#m741efc42ff" y="43.2"/>
      </g>
     </g>
     <g id="text_4">
      <!-- Oct 22 2015 -->
      <g transform="translate(218.74423299 394.065590385)rotate(-30.0)scale(0.12 -0.12)">
       <use xlink:href="#BitstreamVeraSans-Roman-4f"/>
       <use x="78.7109375" xlink:href="#BitstreamVeraSans-Roman-63"/>
       <use x="133.69140625" xlink:href="#BitstreamVeraSans-Roman-74"/>
       <use x="172.900390625" xlink:href="#BitstreamVeraSans-Roman-20"/>
       <use x="204.6875" xlink:href="#BitstreamVeraSans-Roman-32"/>
       <use x="268.310546875" xlink:href="#BitstreamVeraSans-Roman-32"/>
       <use x="331.93359375" xlink:href="#BitstreamVeraSans-Roman-20"/>
       <use x="363.720703125" xlink:href="#BitstreamVeraSans-Roman-32"/>
       <use x="427.34375" xlink:href="#BitstreamVeraSans-Roman-30"/>
       <use x="490.966796875" xlink:href="#BitstreamVeraSans-Roman-31"/>
       <use x="554.58984375" xlink:href="#BitstreamVeraSans-Roman-35"/>
      </g>
     </g>
    </g>
    <g id="xtick_5">
     <g id="line2d_11">
      <g>
       <use style="stroke:#000000;stroke-width:0.5;" x="338.461536877" xlink:href="#m93b0483c22" y="345.6"/>
      </g>
     </g>
     <g id="line2d_12">
      <g>
       <use style="stroke:#000000;stroke-width:0.5;" x="338.461536877" xlink:href="#m741efc42ff" y="43.2"/>
      </g>
     </g>
     <g id="text_5">
      <!-- Oct 25 2015 -->
      <g transform="translate(273.874250142 394.065590385)rotate(-30.0)scale(0.12 -0.12)">
       <use xlink:href="#BitstreamVeraSans-Roman-4f"/>
       <use x="78.7109375" xlink:href="#BitstreamVeraSans-Roman-63"/>
       <use x="133.69140625" xlink:href="#BitstreamVeraSans-Roman-74"/>
       <use x="172.900390625" xlink:href="#BitstreamVeraSans-Roman-20"/>
       <use x="204.6875" xlink:href="#BitstreamVeraSans-Roman-32"/>
       <use x="268.310546875" xlink:href="#BitstreamVeraSans-Roman-35"/>
       <use x="331.93359375" xlink:href="#BitstreamVeraSans-Roman-20"/>
       <use x="363.720703125" xlink:href="#BitstreamVeraSans-Roman-32"/>
       <use x="427.34375" xlink:href="#BitstreamVeraSans-Roman-30"/>
       <use x="490.966796875" xlink:href="#BitstreamVeraSans-Roman-31"/>
       <use x="554.58984375" xlink:href="#BitstreamVeraSans-Roman-35"/>
      </g>
     </g>
    </g>
    <g id="xtick_6">
     <g id="line2d_13">
      <g>
       <use style="stroke:#000000;stroke-width:0.5;" x="393.591554031" xlink:href="#m93b0483c22" y="345.6"/>
      </g>
     </g>
     <g id="line2d_14">
      <g>
       <use style="stroke:#000000;stroke-width:0.5;" x="393.591554031" xlink:href="#m741efc42ff" y="43.2"/>
      </g>
     </g>
     <g id="text_6">
      <!-- Oct 28 2015 -->
      <defs>
       <path d="
M31.7812 34.625
Q24.75 34.625 20.7188 30.8594
Q16.7031 27.0938 16.7031 20.5156
Q16.7031 13.9219 20.7188 10.1562
Q24.75 6.39062 31.7812 6.39062
Q38.8125 6.39062 42.8594 10.1719
Q46.9219 13.9688 46.9219 20.5156
Q46.9219 27.0938 42.8906 30.8594
Q38.875 34.625 31.7812 34.625
M21.9219 38.8125
Q15.5781 40.375 12.0312 44.7188
Q8.5 49.0781 8.5 55.3281
Q8.5 64.0625 14.7188 69.1406
Q20.9531 74.2188 31.7812 74.2188
Q42.6719 74.2188 48.875 69.1406
Q55.0781 64.0625 55.0781 55.3281
Q55.0781 49.0781 51.5312 44.7188
Q48 40.375 41.7031 38.8125
Q48.8281 37.1562 52.7969 32.3125
Q56.7812 27.4844 56.7812 20.5156
Q56.7812 9.90625 50.3125 4.23438
Q43.8438 -1.42188 31.7812 -1.42188
Q19.7344 -1.42188 13.25 4.23438
Q6.78125 9.90625 6.78125 20.5156
Q6.78125 27.4844 10.7812 32.3125
Q14.7969 37.1562 21.9219 38.8125
M18.3125 54.3906
Q18.3125 48.7344 21.8438 45.5625
Q25.3906 42.3906 31.7812 42.3906
Q38.1406 42.3906 41.7188 45.5625
Q45.3125 48.7344 45.3125 54.3906
Q45.3125 60.0625 41.7188 63.2344
Q38.1406 66.4062 31.7812 66.4062
Q25.3906 66.4062 21.8438 63.2344
Q18.3125 60.0625 18.3125 54.3906" id="BitstreamVeraSans-Roman-38"/>
      </defs>
      <g transform="translate(329.004267296 394.065590385)rotate(-30.0)scale(0.12 -0.12)">
       <use xlink:href="#BitstreamVeraSans-Roman-4f"/>
       <use x="78.7109375" xlink:href="#BitstreamVeraSans-Roman-63"/>
       <use x="133.69140625" xlink:href="#BitstreamVeraSans-Roman-74"/>
       <use x="172.900390625" xlink:href="#BitstreamVeraSans-Roman-20"/>
       <use x="204.6875" xlink:href="#BitstreamVeraSans-Roman-32"/>
       <use x="268.310546875" xlink:href="#BitstreamVeraSans-Roman-38"/>
       <use x="331.93359375" xlink:href="#BitstreamVeraSans-Roman-20"/>
       <use x="363.720703125" xlink:href="#BitstreamVeraSans-Roman-32"/>
       <use x="427.34375" xlink:href="#BitstreamVeraSans-Roman-30"/>
       <use x="490.966796875" xlink:href="#BitstreamVeraSans-Roman-31"/>
       <use x="554.58984375" xlink:href="#BitstreamVeraSans-Roman-35"/>
      </g>
     </g>
    </g>
    <g id="xtick_7">
     <g id="line2d_15">
      <g>
       <use style="stroke:#000000;stroke-width:0.5;" x="448.721571183" xlink:href="#m93b0483c22" y="345.6"/>
      </g>
     </g>
     <g id="line2d_16">
      <g>
       <use style="stroke:#000000;stroke-width:0.5;" x="448.721571183" xlink:href="#m741efc42ff" y="43.2"/>
      </g>
     </g>
     <g id="text_7">
      <!-- Oct 31 2015 -->
      <g transform="translate(384.134284448 394.065590385)rotate(-30.0)scale(0.12 -0.12)">
       <use xlink:href="#BitstreamVeraSans-Roman-4f"/>
       <use x="78.7109375" xlink:href="#BitstreamVeraSans-Roman-63"/>
       <use x="133.69140625" xlink:href="#BitstreamVeraSans-Roman-74"/>
       <use x="172.900390625" xlink:href="#BitstreamVeraSans-Roman-20"/>
       <use x="204.6875" xlink:href="#BitstreamVeraSans-Roman-33"/>
       <use x="268.310546875" xlink:href="#BitstreamVeraSans-Roman-31"/>
       <use x="331.93359375" xlink:href="#BitstreamVeraSans-Roman-20"/>
       <use x="363.720703125" xlink:href="#BitstreamVeraSans-Roman-32"/>
       <use x="427.34375" xlink:href="#BitstreamVeraSans-Roman-30"/>
       <use x="490.966796875" xlink:href="#BitstreamVeraSans-Roman-31"/>
       <use x="554.58984375" xlink:href="#BitstreamVeraSans-Roman-35"/>
      </g>
     </g>
    </g>
    <g id="xtick_8">
     <g id="line2d_17">
      <g>
       <use style="stroke:#000000;stroke-width:0.5;" x="503.851588335" xlink:href="#m93b0483c22" y="345.6"/>
      </g>
     </g>
     <g id="line2d_18">
      <g>
       <use style="stroke:#000000;stroke-width:0.5;" x="503.851588335" xlink:href="#m741efc42ff" y="43.2"/>
      </g>
     </g>
     <g id="text_8">
      <!-- Nov 03 2015 -->
      <defs>
       <path d="
M2.98438 54.6875
L12.5 54.6875
L29.5938 8.79688
L46.6875 54.6875
L56.2031 54.6875
L35.6875 0
L23.4844 0
z
" id="BitstreamVeraSans-Roman-76"/>
       <path d="
M9.8125 72.9062
L23.0938 72.9062
L55.4219 11.9219
L55.4219 72.9062
L64.9844 72.9062
L64.9844 0
L51.7031 0
L19.3906 60.9844
L19.3906 0
L9.8125 0
z
" id="BitstreamVeraSans-Roman-4e"/>
       <path d="
M30.6094 48.3906
Q23.3906 48.3906 19.1875 42.75
Q14.9844 37.1094 14.9844 27.2969
Q14.9844 17.4844 19.1562 11.8438
Q23.3438 6.20312 30.6094 6.20312
Q37.7969 6.20312 41.9844 11.8594
Q46.1875 17.5312 46.1875 27.2969
Q46.1875 37.0156 41.9844 42.7031
Q37.7969 48.3906 30.6094 48.3906
M30.6094 56
Q42.3281 56 49.0156 48.375
Q55.7188 40.7656 55.7188 27.2969
Q55.7188 13.875 49.0156 6.21875
Q42.3281 -1.42188 30.6094 -1.42188
Q18.8438 -1.42188 12.1719 6.21875
Q5.51562 13.875 5.51562 27.2969
Q5.51562 40.7656 12.1719 48.375
Q18.8438 56 30.6094 56" id="BitstreamVeraSans-Roman-6f"/>
      </defs>
      <g transform="translate(436.948766176 395.402465385)rotate(-30.0)scale(0.12 -0.12)">
       <use xlink:href="#BitstreamVeraSans-Roman-4e"/>
       <use x="74.8046875" xlink:href="#BitstreamVeraSans-Roman-6f"/>
       <use x="135.986328125" xlink:href="#BitstreamVeraSans-Roman-76"/>
       <use x="195.166015625" xlink:href="#BitstreamVeraSans-Roman-20"/>
       <use x="226.953125" xlink:href="#BitstreamVeraSans-Roman-30"/>
       <use x="290.576171875" xlink:href="#BitstreamVeraSans-Roman-33"/>
       <use x="354.19921875" xlink:href="#BitstreamVeraSans-Roman-20"/>
       <use x="385.986328125" xlink:href="#BitstreamVeraSans-Roman-32"/>
       <use x="449.609375" xlink:href="#BitstreamVeraSans-Roman-30"/>
       <use x="513.232421875" xlink:href="#BitstreamVeraSans-Roman-31"/>
       <use x="576.85546875" xlink:href="#BitstreamVeraSans-Roman-35"/>
      </g>
     </g>
    </g>
   </g>
   <g id="matplotlib.axis_2">
    <g id="ytick_1">
     <g id="line2d_19">
      <defs>
       <path d="
M0 0
L4 0" id="m728421d6d4" style="stroke:#000000;stroke-width:0.5;"/>
      </defs>
      <g>
       <use style="stroke:#000000;stroke-width:0.5;" x="72.0" xlink:href="#m728421d6d4" y="310.586818076"/>
      </g>
     </g>
     <g id="line2d_20">
      <defs>
       <path d="
M0 0
L-4 0" id="mcb0005524f" style="stroke:#000000;stroke-width:0.5;"/>
      </defs>
      <g>
       <use style="stroke:#000000;stroke-width:0.5;" x="518.4" xlink:href="#mcb0005524f" y="310.586818076"/>
      </g>
     </g>
     <g id="text_9">
      <!-- 5000 -->
      <g transform="translate(39.183125 313.898068076)scale(0.12 -0.12)">
       <use xlink:href="#BitstreamVeraSans-Roman-35"/>
       <use x="63.623046875" xlink:href="#BitstreamVeraSans-Roman-30"/>
       <use x="127.24609375" xlink:href="#BitstreamVeraSans-Roman-30"/>
       <use x="190.869140625" xlink:href="#BitstreamVeraSans-Roman-30"/>
      </g>
     </g>
    </g>
    <g id="ytick_2">
     <g id="line2d_21">
      <g>
       <use style="stroke:#000000;stroke-width:0.5;" x="72.0" xlink:href="#m728421d6d4" y="263.84087086"/>
      </g>
     </g>
     <g id="line2d_22">
      <g>
       <use style="stroke:#000000;stroke-width:0.5;" x="518.4" xlink:href="#mcb0005524f" y="263.84087086"/>
      </g>
     </g>
     <g id="text_10">
      <!-- 10000 -->
      <g transform="translate(31.94 267.15212086)scale(0.12 -0.12)">
       <use xlink:href="#BitstreamVeraSans-Roman-31"/>
       <use x="63.623046875" xlink:href="#BitstreamVeraSans-Roman-30"/>
       <use x="127.24609375" xlink:href="#BitstreamVeraSans-Roman-30"/>
       <use x="190.869140625" xlink:href="#BitstreamVeraSans-Roman-30"/>
       <use x="254.4921875" xlink:href="#BitstreamVeraSans-Roman-30"/>
      </g>
     </g>
    </g>
    <g id="ytick_3">
     <g id="line2d_23">
      <g>
       <use style="stroke:#000000;stroke-width:0.5;" x="72.0" xlink:href="#m728421d6d4" y="217.094923644"/>
      </g>
     </g>
     <g id="line2d_24">
      <g>
       <use style="stroke:#000000;stroke-width:0.5;" x="518.4" xlink:href="#mcb0005524f" y="217.094923644"/>
      </g>
     </g>
     <g id="text_11">
      <!-- 15000 -->
      <g transform="translate(31.94 220.406173644)scale(0.12 -0.12)">
       <use xlink:href="#BitstreamVeraSans-Roman-31"/>
       <use x="63.623046875" xlink:href="#BitstreamVeraSans-Roman-35"/>
       <use x="127.24609375" xlink:href="#BitstreamVeraSans-Roman-30"/>
       <use x="190.869140625" xlink:href="#BitstreamVeraSans-Roman-30"/>
       <use x="254.4921875" xlink:href="#BitstreamVeraSans-Roman-30"/>
      </g>
     </g>
    </g>
    <g id="ytick_4">
     <g id="line2d_25">
      <g>
       <use style="stroke:#000000;stroke-width:0.5;" x="72.0" xlink:href="#m728421d6d4" y="170.348976428"/>
      </g>
     </g>
     <g id="line2d_26">
      <g>
       <use style="stroke:#000000;stroke-width:0.5;" x="518.4" xlink:href="#mcb0005524f" y="170.348976428"/>
      </g>
     </g>
     <g id="text_12">
      <!-- 20000 -->
      <g transform="translate(31.50125 173.660226428)scale(0.12 -0.12)">
       <use xlink:href="#BitstreamVeraSans-Roman-32"/>
       <use x="63.623046875" xlink:href="#BitstreamVeraSans-Roman-30"/>
       <use x="127.24609375" xlink:href="#BitstreamVeraSans-Roman-30"/>
       <use x="190.869140625" xlink:href="#BitstreamVeraSans-Roman-30"/>
       <use x="254.4921875" xlink:href="#BitstreamVeraSans-Roman-30"/>
      </g>
     </g>
    </g>
    <g id="ytick_5">
     <g id="line2d_27">
      <g>
       <use style="stroke:#000000;stroke-width:0.5;" x="72.0" xlink:href="#m728421d6d4" y="123.603029212"/>
      </g>
     </g>
     <g id="line2d_28">
      <g>
       <use style="stroke:#000000;stroke-width:0.5;" x="518.4" xlink:href="#mcb0005524f" y="123.603029212"/>
      </g>
     </g>
     <g id="text_13">
      <!-- 25000 -->
      <g transform="translate(31.50125 126.914279212)scale(0.12 -0.12)">
       <use xlink:href="#BitstreamVeraSans-Roman-32"/>
       <use x="63.623046875" xlink:href="#BitstreamVeraSans-Roman-35"/>
       <use x="127.24609375" xlink:href="#BitstreamVeraSans-Roman-30"/>
       <use x="190.869140625" xlink:href="#BitstreamVeraSans-Roman-30"/>
       <use x="254.4921875" xlink:href="#BitstreamVeraSans-Roman-30"/>
      </g>
     </g>
    </g>
    <g id="ytick_6">
     <g id="line2d_29">
      <g>
       <use style="stroke:#000000;stroke-width:0.5;" x="72.0" xlink:href="#m728421d6d4" y="76.8570819955"/>
      </g>
     </g>
     <g id="line2d_30">
      <g>
       <use style="stroke:#000000;stroke-width:0.5;" x="518.4" xlink:href="#mcb0005524f" y="76.8570819955"/>
      </g>
     </g>
     <g id="text_14">
      <!-- 30000 -->
      <g transform="translate(31.536875 80.1683319955)scale(0.12 -0.12)">
       <use xlink:href="#BitstreamVeraSans-Roman-33"/>
       <use x="63.623046875" xlink:href="#BitstreamVeraSans-Roman-30"/>
       <use x="127.24609375" xlink:href="#BitstreamVeraSans-Roman-30"/>
       <use x="190.869140625" xlink:href="#BitstreamVeraSans-Roman-30"/>
       <use x="254.4921875" xlink:href="#BitstreamVeraSans-Roman-30"/>
      </g>
     </g>
    </g>
   </g>
   <g id="text_15">
    <!-- Foss. Brennstoffe -->
    <defs>
     <path d="
M54.8906 33.0156
L54.8906 0
L45.9062 0
L45.9062 32.7188
Q45.9062 40.4844 42.875 44.3281
Q39.8438 48.1875 33.7969 48.1875
Q26.5156 48.1875 22.3125 43.5469
Q18.1094 38.9219 18.1094 30.9062
L18.1094 0
L9.07812 0
L9.07812 54.6875
L18.1094 54.6875
L18.1094 46.1875
Q21.3438 51.125 25.7031 53.5625
Q30.0781 56 35.7969 56
Q45.2188 56 50.0469 50.1719
Q54.8906 44.3438 54.8906 33.0156" id="BitstreamVeraSans-Roman-6e"/>
     <path d="
M9.8125 72.9062
L51.7031 72.9062
L51.7031 64.5938
L19.6719 64.5938
L19.6719 43.1094
L48.5781 43.1094
L48.5781 34.8125
L19.6719 34.8125
L19.6719 0
L9.8125 0
z
" id="BitstreamVeraSans-Roman-46"/>
     <path d="
M10.6875 12.4062
L21 12.4062
L21 0
L10.6875 0
z
" id="BitstreamVeraSans-Roman-2e"/>
     <path d="
M19.6719 34.8125
L19.6719 8.10938
L35.5 8.10938
Q43.4531 8.10938 47.2812 11.4062
Q51.125 14.7031 51.125 21.4844
Q51.125 28.3281 47.2812 31.5625
Q43.4531 34.8125 35.5 34.8125
z

M19.6719 64.7969
L19.6719 42.8281
L34.2812 42.8281
Q41.5 42.8281 45.0312 45.5312
Q48.5781 48.25 48.5781 53.8125
Q48.5781 59.3281 45.0312 62.0625
Q41.5 64.7969 34.2812 64.7969
z

M9.8125 72.9062
L35.0156 72.9062
Q46.2969 72.9062 52.3906 68.2188
Q58.5 63.5312 58.5 54.8906
Q58.5 48.1875 55.375 44.2344
Q52.25 40.2812 46.1875 39.3125
Q53.4688 37.75 57.5 32.7812
Q61.5312 27.8281 61.5312 20.4062
Q61.5312 10.6406 54.8906 5.3125
Q48.25 0 35.9844 0
L9.8125 0
z
" id="BitstreamVeraSans-Roman-42"/>
     <path d="
M56.2031 29.5938
L56.2031 25.2031
L14.8906 25.2031
Q15.4844 15.9219 20.4844 11.0625
Q25.4844 6.20312 34.4219 6.20312
Q39.5938 6.20312 44.4531 7.46875
Q49.3125 8.73438 54.1094 11.2812
L54.1094 2.78125
Q49.2656 0.734375 44.1875 -0.34375
Q39.1094 -1.42188 33.8906 -1.42188
Q20.7969 -1.42188 13.1562 6.1875
Q5.51562 13.8125 5.51562 26.8125
Q5.51562 40.2344 12.7656 48.1094
Q20.0156 56 32.3281 56
Q43.3594 56 49.7812 48.8906
Q56.2031 41.7969 56.2031 29.5938
M47.2188 32.2344
Q47.125 39.5938 43.0938 43.9844
Q39.0625 48.3906 32.4219 48.3906
Q24.9062 48.3906 20.3906 44.1406
Q15.875 39.8906 15.1875 32.1719
z
" id="BitstreamVeraSans-Roman-65"/>
     <path d="
M37.1094 75.9844
L37.1094 68.5
L28.5156 68.5
Q23.6875 68.5 21.7969 66.5469
Q19.9219 64.5938 19.9219 59.5156
L19.9219 54.6875
L34.7188 54.6875
L34.7188 47.7031
L19.9219 47.7031
L19.9219 0
L10.8906 0
L10.8906 47.7031
L2.29688 47.7031
L2.29688 54.6875
L10.8906 54.6875
L10.8906 58.5
Q10.8906 67.625 15.1406 71.7969
Q19.3906 75.9844 28.6094 75.9844
z
" id="BitstreamVeraSans-Roman-66"/>
     <path d="
M41.1094 46.2969
Q39.5938 47.1719 37.8125 47.5781
Q36.0312 48 33.8906 48
Q26.2656 48 22.1875 43.0469
Q18.1094 38.0938 18.1094 28.8125
L18.1094 0
L9.07812 0
L9.07812 54.6875
L18.1094 54.6875
L18.1094 46.1875
Q20.9531 51.1719 25.4844 53.5781
Q30.0312 56 36.5312 56
Q37.4531 56 38.5781 55.875
Q39.7031 55.7656 41.0625 55.5156
z
" id="BitstreamVeraSans-Roman-72"/>
     <path d="
M44.2812 53.0781
L44.2812 44.5781
Q40.4844 46.5312 36.375 47.5
Q32.2812 48.4844 27.875 48.4844
Q21.1875 48.4844 17.8438 46.4375
Q14.5 44.3906 14.5 40.2812
Q14.5 37.1562 16.8906 35.375
Q19.2812 33.5938 26.5156 31.9844
L29.5938 31.2969
Q39.1562 29.25 43.1875 25.5156
Q47.2188 21.7812 47.2188 15.0938
Q47.2188 7.46875 41.1875 3.01562
Q35.1562 -1.42188 24.6094 -1.42188
Q20.2188 -1.42188 15.4531 -0.5625
Q10.6875 0.296875 5.42188 2
L5.42188 11.2812
Q10.4062 8.6875 15.2344 7.39062
Q20.0625 6.10938 24.8125 6.10938
Q31.1562 6.10938 34.5625 8.28125
Q37.9844 10.4531 37.9844 14.4062
Q37.9844 18.0625 35.5156 20.0156
Q33.0625 21.9688 24.7031 23.7812
L21.5781 24.5156
Q13.2344 26.2656 9.51562 29.9062
Q5.8125 33.5469 5.8125 39.8906
Q5.8125 47.6094 11.2812 51.7969
Q16.75 56 26.8125 56
Q31.7812 56 36.1719 55.2656
Q40.5781 54.5469 44.2812 53.0781" id="BitstreamVeraSans-Roman-73"/>
    </defs>
    <g transform="translate(394.89525 38.2)scale(0.144 -0.144)">
     <use xlink:href="#BitstreamVeraSans-Roman-46"/>
     <use x="53.89453125" xlink:href="#BitstreamVeraSans-Roman-6f"/>
     <use x="115.076171875" xlink:href="#BitstreamVeraSans-Roman-73"/>
     <use x="167.17578125" xlink:href="#BitstreamVeraSans-Roman-73"/>
     <use x="219.275390625" xlink:href="#BitstreamVeraSans-Roman-2e"/>
     <use x="251.0625" xlink:href="#BitstreamVeraSans-Roman-20"/>
     <use x="282.849609375" xlink:href="#BitstreamVeraSans-Roman-42"/>
     <use x="351.453125" xlink:href="#BitstreamVeraSans-Roman-72"/>
     <use x="390.31640625" xlink:href="#BitstreamVeraSans-Roman-65"/>
     <use x="451.83984375" xlink:href="#BitstreamVeraSans-Roman-6e"/>
     <use x="515.21875" xlink:href="#BitstreamVeraSans-Roman-6e"/>
     <use x="578.59765625" xlink:href="#BitstreamVeraSans-Roman-73"/>
     <use x="630.697265625" xlink:href="#BitstreamVeraSans-Roman-74"/>
     <use x="669.90625" xlink:href="#BitstreamVeraSans-Roman-6f"/>
     <use x="731.087890625" xlink:href="#BitstreamVeraSans-Roman-66"/>
     <use x="766.29296875" xlink:href="#BitstreamVeraSans-Roman-66"/>
     <use x="801.498046875" xlink:href="#BitstreamVeraSans-Roman-65"/>
    </g>
   </g>
   <g id="legend_1">
    <g id="patch_7">
     <path d="
M123.942 423.616
L466.458 423.616
L466.458 398.16
L123.942 398.16
z
" style="fill:#ffffff;stroke:#000000;stroke-linejoin:miter;"/>
    </g>
    <g id="line2d_31">
     <path d="
M134.022 409.822
L154.182 409.822" style="fill:none;stroke:#ff0000;stroke-linecap:square;"/>
    </g>
    <g id="line2d_32"/>
    <g id="text_16">
     <!-- Schwarzmarktpreis -->
     <defs>
      <path d="
M52 44.1875
Q55.375 50.25 60.0625 53.125
Q64.75 56 71.0938 56
Q79.6406 56 84.2812 50.0156
Q88.9219 44.0469 88.9219 33.0156
L88.9219 0
L79.8906 0
L79.8906 32.7188
Q79.8906 40.5781 77.0938 44.375
Q74.3125 48.1875 68.6094 48.1875
Q61.625 48.1875 57.5625 43.5469
Q53.5156 38.9219 53.5156 30.9062
L53.5156 0
L44.4844 0
L44.4844 32.7188
Q44.4844 40.625 41.7031 44.4062
Q38.9219 48.1875 33.1094 48.1875
Q26.2188 48.1875 22.1562 43.5312
Q18.1094 38.875 18.1094 30.9062
L18.1094 0
L9.07812 0
L9.07812 54.6875
L18.1094 54.6875
L18.1094 46.1875
Q21.1875 51.2188 25.4844 53.6094
Q29.7812 56 35.6875 56
Q41.6562 56 45.8281 52.9688
Q50 49.9531 52 44.1875" id="BitstreamVeraSans-Roman-6d"/>
      <path d="
M5.51562 54.6875
L48.1875 54.6875
L48.1875 46.4844
L14.4062 7.17188
L48.1875 7.17188
L48.1875 0
L4.29688 0
L4.29688 8.20312
L38.0938 47.5156
L5.51562 47.5156
z
" id="BitstreamVeraSans-Roman-7a"/>
      <path d="
M53.5156 70.5156
L53.5156 60.8906
Q47.9062 63.5781 42.9219 64.8906
Q37.9375 66.2188 33.2969 66.2188
Q25.25 66.2188 20.875 63.0938
Q16.5 59.9688 16.5 54.2031
Q16.5 49.3594 19.4062 46.8906
Q22.3125 44.4375 30.4219 42.9219
L36.375 41.7031
Q47.4062 39.5938 52.6562 34.2969
Q57.9062 29 57.9062 20.125
Q57.9062 9.51562 50.7969 4.04688
Q43.7031 -1.42188 29.9844 -1.42188
Q24.8125 -1.42188 18.9688 -0.25
Q13.1406 0.921875 6.89062 3.21875
L6.89062 13.375
Q12.8906 10.0156 18.6562 8.29688
Q24.4219 6.59375 29.9844 6.59375
Q38.4219 6.59375 43.0156 9.90625
Q47.6094 13.2344 47.6094 19.3906
Q47.6094 24.75 44.3125 27.7812
Q41.0156 30.8125 33.5 32.3281
L27.4844 33.5
Q16.4531 35.6875 11.5156 40.375
Q6.59375 45.0625 6.59375 53.4219
Q6.59375 63.0938 13.4062 68.6562
Q20.2188 74.2188 32.1719 74.2188
Q37.3125 74.2188 42.625 73.2812
Q47.9531 72.3594 53.5156 70.5156" id="BitstreamVeraSans-Roman-53"/>
      <path d="
M9.42188 54.6875
L18.4062 54.6875
L18.4062 0
L9.42188 0
z

M9.42188 75.9844
L18.4062 75.9844
L18.4062 64.5938
L9.42188 64.5938
z
" id="BitstreamVeraSans-Roman-69"/>
      <path d="
M54.8906 33.0156
L54.8906 0
L45.9062 0
L45.9062 32.7188
Q45.9062 40.4844 42.875 44.3281
Q39.8438 48.1875 33.7969 48.1875
Q26.5156 48.1875 22.3125 43.5469
Q18.1094 38.9219 18.1094 30.9062
L18.1094 0
L9.07812 0
L9.07812 75.9844
L18.1094 75.9844
L18.1094 46.1875
Q21.3438 51.125 25.7031 53.5625
Q30.0781 56 35.7969 56
Q45.2188 56 50.0469 50.1719
Q54.8906 44.3438 54.8906 33.0156" id="BitstreamVeraSans-Roman-68"/>
      <path d="
M4.20312 54.6875
L13.1875 54.6875
L24.4219 12.0156
L35.5938 54.6875
L46.1875 54.6875
L57.4219 12.0156
L68.6094 54.6875
L77.5938 54.6875
L63.2812 0
L52.6875 0
L40.9219 44.8281
L29.1094 0
L18.5 0
z
" id="BitstreamVeraSans-Roman-77"/>
      <path d="
M9.07812 75.9844
L18.1094 75.9844
L18.1094 31.1094
L44.9219 54.6875
L56.3906 54.6875
L27.3906 29.1094
L57.625 0
L45.9062 0
L18.1094 26.7031
L18.1094 0
L9.07812 0
z
" id="BitstreamVeraSans-Roman-6b"/>
      <path d="
M34.2812 27.4844
Q23.3906 27.4844 19.1875 25
Q14.9844 22.5156 14.9844 16.5
Q14.9844 11.7188 18.1406 8.90625
Q21.2969 6.10938 26.7031 6.10938
Q34.1875 6.10938 38.7031 11.4062
Q43.2188 16.7031 43.2188 25.4844
L43.2188 27.4844
z

M52.2031 31.2031
L52.2031 0
L43.2188 0
L43.2188 8.29688
Q40.1406 3.32812 35.5469 0.953125
Q30.9531 -1.42188 24.3125 -1.42188
Q15.9219 -1.42188 10.9531 3.29688
Q6 8.01562 6 15.9219
Q6 25.1406 12.1719 29.8281
Q18.3594 34.5156 30.6094 34.5156
L43.2188 34.5156
L43.2188 35.4062
Q43.2188 41.6094 39.1406 45
Q35.0625 48.3906 27.6875 48.3906
Q23 48.3906 18.5469 47.2656
Q14.1094 46.1406 10.0156 43.8906
L10.0156 52.2031
Q14.9375 54.1094 19.5781 55.0469
Q24.2188 56 28.6094 56
Q40.4844 56 46.3438 49.8438
Q52.2031 43.7031 52.2031 31.2031" id="BitstreamVeraSans-Roman-61"/>
      <path d="
M18.1094 8.20312
L18.1094 -20.7969
L9.07812 -20.7969
L9.07812 54.6875
L18.1094 54.6875
L18.1094 46.3906
Q20.9531 51.2656 25.2656 53.625
Q29.5938 56 35.5938 56
Q45.5625 56 51.7812 48.0938
Q58.0156 40.1875 58.0156 27.2969
Q58.0156 14.4062 51.7812 6.48438
Q45.5625 -1.42188 35.5938 -1.42188
Q29.5938 -1.42188 25.2656 0.953125
Q20.9531 3.32812 18.1094 8.20312
M48.6875 27.2969
Q48.6875 37.2031 44.6094 42.8438
Q40.5312 48.4844 33.4062 48.4844
Q26.2656 48.4844 22.1875 42.8438
Q18.1094 37.2031 18.1094 27.2969
Q18.1094 17.3906 22.1875 11.75
Q26.2656 6.10938 33.4062 6.10938
Q40.5312 6.10938 44.6094 11.75
Q48.6875 17.3906 48.6875 27.2969" id="BitstreamVeraSans-Roman-70"/>
     </defs>
     <g transform="translate(170.022375 414.86175)scale(0.144 -0.144)">
      <use xlink:href="#BitstreamVeraSans-Roman-53"/>
      <use x="63.4765625" xlink:href="#BitstreamVeraSans-Roman-63"/>
      <use x="118.45703125" xlink:href="#BitstreamVeraSans-Roman-68"/>
      <use x="181.8359375" xlink:href="#BitstreamVeraSans-Roman-77"/>
      <use x="263.623046875" xlink:href="#BitstreamVeraSans-Roman-61"/>
      <use x="324.90234375" xlink:href="#BitstreamVeraSans-Roman-72"/>
      <use x="366.015625" xlink:href="#BitstreamVeraSans-Roman-7a"/>
      <use x="418.505859375" xlink:href="#BitstreamVeraSans-Roman-6d"/>
      <use x="515.91796875" xlink:href="#BitstreamVeraSans-Roman-61"/>
      <use x="577.197265625" xlink:href="#BitstreamVeraSans-Roman-72"/>
      <use x="618.310546875" xlink:href="#BitstreamVeraSans-Roman-6b"/>
      <use x="676.220703125" xlink:href="#BitstreamVeraSans-Roman-74"/>
      <use x="715.4296875" xlink:href="#BitstreamVeraSans-Roman-70"/>
      <use x="778.90625" xlink:href="#BitstreamVeraSans-Roman-72"/>
      <use x="817.76953125" xlink:href="#BitstreamVeraSans-Roman-65"/>
      <use x="879.29296875" xlink:href="#BitstreamVeraSans-Roman-69"/>
      <use x="907.076171875" xlink:href="#BitstreamVeraSans-Roman-73"/>
     </g>
    </g>
    <g id="line2d_33">
     <path d="
M339.609 409.822
L359.769 409.822" style="fill:none;stroke:#008000;stroke-linecap:square;"/>
    </g>
    <g id="line2d_34"/>
    <g id="text_17">
     <!-- Normalpreis -->
     <defs>
      <path d="
M9.42188 75.9844
L18.4062 75.9844
L18.4062 0
L9.42188 0
z
" id="BitstreamVeraSans-Roman-6c"/>
     </defs>
     <g transform="translate(375.609375 414.86175)scale(0.144 -0.144)">
      <use xlink:href="#BitstreamVeraSans-Roman-4e"/>
      <use x="74.8046875" xlink:href="#BitstreamVeraSans-Roman-6f"/>
      <use x="135.986328125" xlink:href="#BitstreamVeraSans-Roman-72"/>
      <use x="175.349609375" xlink:href="#BitstreamVeraSans-Roman-6d"/>
      <use x="272.76171875" xlink:href="#BitstreamVeraSans-Roman-61"/>
      <use x="334.041015625" xlink:href="#BitstreamVeraSans-Roman-6c"/>
      <use x="361.82421875" xlink:href="#BitstreamVeraSans-Roman-70"/>
      <use x="425.30078125" xlink:href="#BitstreamVeraSans-Roman-72"/>
      <use x="464.1640625" xlink:href="#BitstreamVeraSans-Roman-65"/>
      <use x="525.6875" xlink:href="#BitstreamVeraSans-Roman-69"/>
      <use x="553.470703125" xlink:href="#BitstreamVeraSans-Roman-73"/>
     </g>
    </g>
   </g>
  </g>
 </g>
 <defs>
  <clipPath id="pcb2bf987bf">
   <rect height="302.4" width="446.4" x="72.0" y="43.2"/>
  </clipPath>
 </defs>
</svg>
