<?xml version="1.0" encoding="utf-8" standalone="no"?>
<!DOCTYPE svg PUBLIC "-//W3C//DTD SVG 1.1//EN"
  "http://www.w3.org/Graphics/SVG/1.1/DTD/svg11.dtd">
<!-- Created with matplotlib (http://matplotlib.org/) -->
<svg height="432pt" version="1.1" viewBox="0 0 576 432" width="576pt" xmlns="http://www.w3.org/2000/svg" xmlns:xlink="http://www.w3.org/1999/xlink">
 <defs>
  <style type="text/css">
*{stroke-linecap:butt;stroke-linejoin:round;}
  </style>
 </defs>
 <g id="figure_1">
  <g id="patch_1">
   <path d="
M0 432
L576 432
L576 0
L0 0
z
" style="fill:#ffffff;"/>
  </g>
  <g id="axes_1">
   <g id="patch_2">
    <path d="
M72 345.6
L518.4 345.6
L518.4 43.2
L72 43.2
z
" style="fill:#ffffff;"/>
   </g>
   <g id="line2d_1">
    <path clip-path="url(#pcb2bf987bf)" d="
M72 408.935
L72.1276 227.112
L72.3828 408.935
L74.6799 408.935
L74.8075 223.629
L75.0628 408.935
L75.8285 408.935
L75.9561 223.977
L76.2113 408.935
L77.8703 408.935
L78.1256 223.977
L78.1256 223.977
L78.2532 408.935
L78.636 408.935
L78.8915 224.047
L79.0189 408.935
L81.6988 408.935
L81.9542 230.596
L82.0816 408.935
L82.7197 408.935
L82.8473 230.247
L83.1026 408.935
L88.0796 408.935
L88.2072 227.948
L88.4624 227.112
L88.5901 408.935
L89.2281 408.935
L89.3557 230.247
L89.611 408.935
L97.906 408.935
L98.0336 228.506
L98.6717 408.935
L100.969 408.935
L101.734 231.292
L101.862 408.935
L104.032 408.935
L104.797 227.809
L105.563 408.935
L106.329 408.935
L107.095 227.809
L107.86 408.935
L119.345 408.935
L120.111 230.596
L120.877 408.935
L125.471 408.935
L126.109 230.596
L126.237 408.935
L126.237 408.935
L127.13 408.935
L127.13 408.935
L127.64 228.506
L127.64 228.506
L127.768 408.935
L140.785 408.935
L141.551 229.899
L141.678 229.899
L142.316 408.935
L179.07 408.935
L179.835 226.416
L179.963 408.935
L193.618 408.935
L194.384 234.079
L195.149 408.935
L202.806 408.935
L203.572 228.157
L203.699 408.935
L205.997 408.935
L206.124 226.485
L206.507 408.935
L209.059 408.935
L209.059 408.935
L209.442 226.416
L209.57 408.935
L209.825 408.935
L210.591 229.899
L210.846 408.935
L211.356 408.935
L211.484 232.267
L211.739 408.935
L211.867 231.292
L212.122 408.935
L212.888 408.935
L213.271 230.944
L213.398 408.935
L215.695 408.935
L215.951 230.247
L215.951 230.247
L216.078 408.935
L216.461 408.935
L216.589 231.571
L216.589 231.571
L216.844 408.935
L218.758 408.935
L219.013 231.989
L219.141 408.935
L226.032 408.935
L226.032 408.935
L226.16 227.182
L226.16 227.182
L226.288 408.935
L226.415 227.321
L226.415 227.321
L226.67 408.935
L229.095 408.935
L229.35 233.034
L229.478 408.935
L230.116 408.935
L230.244 235.193
L230.499 408.935
L230.499 408.935
L230.882 234.775
L231.009 408.935
L234.072 408.935
L234.327 233.382
L234.327 233.382
L234.455 408.935
L234.71 408.935
L234.838 233.034
L235.093 408.935
L235.093 408.935
L235.221 233.034
L235.476 408.935
L246.578 408.935
L246.578 408.935
L246.706 231.292
L246.961 408.935
L247.089 408.935
L247.344 234.079
L247.727 408.935
L247.855 232.546
L248.237 233.382
L248.493 408.935
L249.003 408.935
L249.258 236.308
L249.641 408.935
L249.641 408.935
L264.317 408.935
L264.572 234.775
L264.7 408.935
L267.763 408.935
L268.018 235.124
L268.145 408.935
L276.058 408.935
L276.185 232.685
L276.441 408.935
L277.972 408.935
L277.972 408.935
L278.099 230.247
L278.355 408.935
L278.738 408.935
L278.865 224.326
L279.12 408.935
L284.48 408.935
L284.608 236.447
L284.736 408.935
L285.629 408.935
L285.756 236.726
L286.012 408.935
L287.16 408.935
L287.288 236.865
L287.543 408.935
L289.074 408.935
L289.202 228.157
L289.457 408.935
L290.861 408.935
L290.989 233.034
L291.116 408.935
L292.52 408.935
L292.52 408.935
L292.648 237.214
L292.903 408.935
L297.242 408.935
L297.497 227.112
L297.625 408.935
L300.943 408.935
L301.07 230.596
L301.326 408.935
L304.005 408.935
L304.005 408.935
L304.133 233.73
L304.388 408.935
L304.771 408.935
L304.899 60.6159
L305.154 408.935
L309.365 408.935
L309.493 230.596
L309.748 408.935
L312.173 408.935
L312.428 231.292
L312.556 408.935
L313.194 408.935
L313.321 233.73
L313.577 408.935
L314.087 408.935
L314.342 231.641
L314.47 231.641
L314.725 408.935
L315.108 408.935
L315.236 230.247
L315.491 408.935
L317.022 408.935
L317.15 228.506
L317.405 408.935
L318.937 408.935
L319.064 227.461
L319.319 408.935
L319.319 408.935
L319.447 230.805
L319.702 408.935
L321.361 408.935
L321.616 228.854
L321.999 408.935
L323.148 408.935
L323.275 233.939
L323.531 408.935
L324.424 408.935
L324.679 231.989
L324.807 232.685
L325.062 408.935
L326.338 408.935
L326.593 233.382
L326.721 408.935
L330.805 408.935
L330.933 232.685
L331.188 408.935
L331.315 408.935
L331.57 232.685
L331.698 408.935
L332.464 408.935
L332.719 231.641
L332.847 408.935
L333.612 408.935
L333.868 230.944
L333.995 408.935
L334.378 408.935
L334.633 231.292
L334.761 408.935
L344.588 408.935
L344.715 234.775
L344.97 408.935
L346.629 408.935
L346.884 232.337
L346.884 232.337
L347.012 408.935
L351.861 408.935
L351.989 232.685
L352.244 408.935
L356.2 408.935
L356.583 234.427
L356.838 408.935
L359.263 408.935
L359.518 235.472
L359.646 408.935
L362.709 408.935
L362.964 229.551
L363.092 408.935
L363.474 408.935
L363.73 231.989
L363.857 408.935
L368.324 408.935
L368.451 231.989
L368.707 408.935
L373.811 408.935
L374.067 235.751
L374.194 408.935
L377.512 408.935
L377.512 408.935
L377.64 236.865
L377.767 408.935
L378.023 408.935
L378.278 237.562
L378.405 408.935
L380.192 408.935
L380.575 237.562
L380.703 231.292
L380.958 408.935
L383.255 408.935
L383.383 231.989
L383.638 408.935
L384.021 408.935
L384.148 231.989
L384.403 408.935
L388.36 408.935
L388.615 338.574
L388.742 337.808
L388.998 408.935
L389.125 338.226
L389.38 338.226
L389.508 304.439
L391.039 304.439
L391.295 235.193
L391.422 304.439
L392.188 304.439
L392.443 235.751
L392.571 337.878
L392.826 337.878
L392.954 338.923
L393.337 338.992
L393.592 232.337
L393.719 408.935
L396.655 408.935
L396.782 239.304
L397.037 408.935
L397.165 408.935
L397.42 239.652
L397.548 408.935
L398.186 408.935
L398.314 240.488
L398.569 408.935
L399.845 408.935
L400.1 236.865
L400.228 408.935
L400.483 408.935
L400.611 236.169
L400.866 408.935
L402.014 408.935
L402.142 234.427
L402.397 408.935
L410.437 408.935
L410.565 234.079
L410.82 230.944
L410.948 408.935
L416.18 408.935
L416.307 232.685
L416.563 408.935
L417.456 408.935
L417.711 233.034
L417.839 408.935
L419.37 408.935
L419.625 236.517
L419.753 408.935
L423.964 408.935
L424.22 231.292
L424.347 408.935
L429.962 408.935
L430.09 236.308
L430.345 408.935
L430.983 408.935
L431.238 237.214
L431.494 408.935
L431.877 408.935
L432.004 237.214
L432.259 408.935
L434.556 408.935
L434.684 237.214
L434.939 408.935
L435.067 408.935
L435.322 236.517
L435.45 408.935
L435.705 408.935
L435.833 236.865
L436.088 408.935
L437.364 408.935
L437.619 235.124
L437.747 235.124
L438.002 408.935
L447.318 408.935
L447.573 232.685
L447.701 408.935
L448.084 408.935
L448.339 232.685
L448.467 408.935
L450.381 408.935
L450.636 231.989
L450.764 408.935
L451.529 408.935
L451.785 233.382
L451.912 408.935
L454.592 408.935
L454.847 231.78
L454.847 231.78
L454.975 408.935
L455.358 408.935
L455.613 231.641
L455.741 408.935
L456.889 408.935
L457.144 230.247
L457.272 408.935
L465.312 408.935
L465.567 231.641
L465.567 231.641
L465.695 233.103
L465.95 408.935
L466.843 408.935
L467.098 232.546
L467.098 232.546
L467.226 408.935
L469.013 408.935
L469.14 233.382
L469.396 408.935
L470.672 408.935
L470.927 234.775
L471.055 408.935
L471.437 408.935
L471.693 234.079
L471.82 408.935
L472.075 235.751
L472.203 408.935
L472.841 408.935
L472.969 235.472
L473.224 408.935
L473.352 232.337
L473.607 408.935
L476.414 408.935
L476.67 233.034
L476.797 408.935
L477.435 408.935
L477.563 233.382
L477.818 233.382
L477.946 408.935
L478.329 408.935
L478.584 232.337
L478.711 408.935
L480.243 408.935
L480.498 227.809
L480.626 408.935
L485.22 408.935
L485.475 237.214
L485.858 408.935
L486.624 408.935
L486.751 237.91
L487.007 408.935
L487.134 408.935
L487.389 238.259
L487.517 408.935
L490.197 408.935
L490.452 239.652
L490.58 408.935
L493.132 408.935
L493.26 237.562
L493.515 408.935
L500.534 408.935
L500.789 234.775
L500.917 408.935
L504.617 408.935
L504.745 236.169
L504.873 408.935
L510.36 408.935
L510.488 238.607
L510.743 408.935
L512.657 408.935
L512.785 237.562
L513.04 408.935
L514.572 408.935
L514.699 235.82
L514.954 408.935
L518.4 408.935
L518.4 408.935" style="fill:none;stroke:#ff0000;stroke-linecap:square;"/>
   </g>
   <g id="line2d_2">
    <path clip-path="url(#pcb2bf987bf)" d="
M72 237.771
L72.1276 236.517
L72.7657 236.517
L72.8933 234.288
L73.5314 234.288
L73.659 235.124
L74.2971 235.124
L74.4247 233.243
L75.0628 233.243
L75.1904 235.263
L75.8285 235.263
L75.9561 233.591
L77.3599 233.661
L78.1256 233.73
L78.1256 233.73
L78.2532 232.825
L78.8915 232.825
L79.0189 233.103
L79.6569 233.103
L79.7846 235.89
L80.4226 235.89
L80.5503 238.328
L81.1885 238.328
L81.316 239.791
L82.7197 239.722
L82.8473 239.443
L83.4854 239.443
L83.613 240.348
L84.2511 240.348
L84.3787 240.07
L85.017 240.07
L85.1444 238.259
L86.5482 238.259
L86.6758 237.005
L88.0796 237.005
L88.2072 236.517
L88.8453 236.517
L88.8453 236.517
L88.9729 239.652
L89.611 239.652
L89.7386 235.82
L90.3767 235.82
L91.0148 236.517
L91.9081 235.472
L92.6738 235.124
L93.3118 236.726
L94.2051 235.681
L94.8432 237.492
L94.9708 237.492
L95.6089 235.96
L95.7365 235.96
L96.3746 237.841
L97.1403 238.468
L98.0336 237.771
L98.7993 238.05
L99.4374 238.607
L100.331 238.677
L100.969 240.906
L101.862 240.418
L102.5 242.508
L103.393 241.742
L104.032 239.861
L105.563 236.865
L106.329 236.726
L107.095 237.283
L107.86 239.025
L108.626 239.025
L109.391 236.308
L109.519 236.308
L110.285 236.587
L110.923 234.775
L111.05 234.775
L111.816 234.566
L113.986 234.706
L114.879 234.636
L116.283 237.492
L116.41 237.492
L117.048 238.189
L117.814 240.418
L117.942 240.418
L118.58 239.025
L118.707 239.025
L119.345 238.746
L120.111 239.931
L120.877 241.811
L121.004 241.811
L122.536 240.836
L123.174 241.881
L124.067 241.672
L124.705 239.722
L125.471 238.119
L126.109 239.791
L126.365 239.791
L127.002 237.423
L127.13 237.423
L127.13 237.423
L127.768 237.91
L128.661 236.935
L129.299 238.607
L130.193 237.423
L130.831 237.353
L131.597 236.169
L132.362 233.8
L132.362 233.8
L133.894 237.841
L134.149 237.283
L134.659 237.283
L136.318 240.836
L136.956 238.537
L138.488 242.647
L139.381 242.229
L140.019 242.856
L140.785 241.324
L141.551 239.304
L141.678 239.304
L142.316 239.164
L143.082 240.627
L143.848 239.095
L143.975 239.095
L144.613 240.766
L145.507 240.766
L146.145 238.677
L146.272 238.677
L146.91 237.492
L147.038 237.492
L147.676 236.865
L148.442 237.423
L149.208 234.845
L149.335 234.845
L149.973 235.193
L150.867 234.148
L151.505 238.119
L152.27 237.144
L153.164 237.144
L154.567 240.488
L155.333 243.762
L155.333 243.762
L156.099 243.483
L156.865 242.787
L157.758 242.787
L158.396 243.414
L159.162 243.344
L159.927 240.766
L160.693 239.095
L160.821 239.095
L162.224 239.304
L163.118 239.861
L163.883 239.582
L164.521 237.632
L164.649 237.632
L165.287 236.865
L166.053 239.304
L166.819 240.557
L167.584 239.164
L167.712 239.164
L168.35 238.607
L169.243 239.234
L169.881 237.841
L170.775 237.771
L171.413 237.423
L172.178 237.214
L173.072 237.701
L173.71 242.02
L174.475 244.946
L174.603 244.946
L176.007 243.832
L176.773 241.811
L176.9 241.811
L177.538 240.906
L178.304 239.164
L179.07 241.254
L179.835 236.029
L179.963 236.029
L180.601 239.234
L180.729 239.234
L181.367 241.324
L182.26 242.09
L182.898 244.389
L183.664 242.856
L183.791 242.856
L184.43 241.045
L185.195 240.139
L185.961 239.931
L186.727 241.115
L187.492 235.89
L188.258 237.423
L189.151 236.656
L190.555 235.82
L191.321 238.816
L191.321 238.816
L192.852 242.02
L193.618 241.533
L194.384 243.065
L195.149 240.836
L195.277 240.836
L195.915 240.627
L196.681 238.746
L198.212 238.259
L198.212 238.259
L198.978 237.074
L200.509 235.82
L201.275 237.005
L202.806 236.796
L203.699 237.632
L204.338 237.562
L205.231 238.189
L205.869 237.005
L205.997 237.005
L206.124 235.124
L206.762 235.124
L207.4 237.841
L208.166 237.771
L208.804 235.193
L209.059 235.193
L209.059 235.193
L209.57 235.82
L209.825 235.82
L210.846 240.418
L211.356 240.418
L211.484 240.627
L212.122 240.627
L212.25 238.816
L212.888 238.816
L213.271 240.139
L213.654 240.139
L213.654 240.139
L213.781 238.816
L214.419 238.816
L214.547 239.931
L215.185 239.931
L215.185 239.931
L215.313 239.443
L215.951 239.443
L215.951 239.443
L216.078 240
L216.589 240
L216.589 240
L216.844 237.771
L217.482 237.771
L217.482 237.771
L217.61 238.746
L218.248 238.746
L218.248 238.746
L218.375 241.184
L219.013 241.184
L219.141 238.328
L220.545 238.259
L220.672 239.234
L220.672 239.234
L221.31 239.234
L221.438 235.333
L222.076 235.333
L222.204 237.841
L222.842 237.841
L222.842 237.841
L223.225 238.816
L223.608 238.816
L223.735 236.935
L224.373 236.935
L224.501 235.333
L225.139 235.333
L225.267 235.96
L225.905 235.96
L225.905 235.96
L226.032 235.542
L226.032 235.542
L226.67 235.542
L226.798 236.169
L227.436 236.169
L227.436 236.169
L227.946 236.378
L228.202 236.378
L228.329 238.746
L228.967 238.746
L229.095 242.299
L229.733 242.299
L229.861 243.414
L230.499 243.414
L230.499 243.414
L231.009 243.832
L232.03 243.901
L232.158 242.996
L232.796 242.996
L232.796 242.996
L232.924 241.254
L233.562 241.254
L233.689 242.717
L234.327 242.717
L234.327 242.717
L234.455 242.369
L235.093 242.369
L235.093 242.369
L235.221 242.16
L235.859 242.16
L235.859 242.16
L235.986 241.324
L236.624 241.324
L236.752 240.906
L237.39 240.906
L237.518 239.304
L238.921 239.304
L239.049 238.677
L239.687 238.677
L239.815 236.447
L240.453 236.447
L240.453 236.447
L240.58 233.87
L241.219 233.87
L241.346 240.279
L241.984 240.279
L242.112 237.353
L242.75 237.353
L242.878 235.89
L243.516 235.89
L243.643 242.578
L244.281 242.578
L244.409 238.607
L245.047 238.607
L245.047 238.607
L245.175 240.697
L246.578 240.697
L246.578 240.697
L246.706 243.135
L247.344 243.135
L247.727 240.906
L247.855 240.906
L248.237 243.483
L248.876 243.483
L248.876 243.483
L249.003 244.528
L250.407 244.598
L250.534 244.389
L251.173 244.389
L251.3 241.811
L251.938 241.811
L252.066 241.115
L252.704 241.115
L252.832 241.951
L253.47 241.951
L253.597 242.16
L254.235 242.16
L254.363 242.508
L255.001 242.508
L255.129 240.627
L255.129 240.627
L255.767 240.627
L255.767 240.627
L255.894 239.095
L256.532 239.095
L256.66 239.652
L256.66 239.652
L257.298 239.652
L257.426 242.299
L258.064 242.299
L258.064 242.299
L258.447 240.906
L258.83 240.906
L258.957 241.811
L259.595 241.811
L259.595 241.811
L259.723 241.393
L260.361 241.393
L260.489 238.886
L261.127 238.886
L261.254 239.095
L261.892 239.095
L262.02 240.906
L262.658 240.906
L262.786 238.816
L263.424 238.816
L263.424 238.816
L263.551 241.324
L264.189 241.324
L264.189 241.324
L264.317 243.832
L264.955 243.832
L264.955 243.832
L265.083 244.668
L265.593 244.668
L265.848 244.877
L266.486 244.877
L266.614 244.25
L267.252 244.25
L267.38 244.041
L268.018 244.041
L268.145 243.553
L268.784 243.553
L268.911 242.856
L269.549 242.856
L269.677 241.393
L270.315 241.393
L270.443 236.029
L271.081 236.029
L271.463 241.742
L271.846 241.742
L271.974 239.373
L272.612 239.373
L272.74 240
L273.378 240
L273.378 240
L273.506 237.91
L274.143 237.91
L274.271 237.632
L274.909 237.632
L274.909 237.632
L275.037 237.144
L275.675 237.144
L275.802 242.02
L276.441 242.02
L276.568 240.975
L277.972 240.975
L277.972 240.975
L278.099 240.418
L278.738 240.418
L278.865 238.746
L279.503 238.746
L279.631 241.602
L280.269 241.602
L280.269 241.602
L280.397 239.931
L281.035 239.931
L281.035 239.931
L281.162 236.238
L281.801 236.238
L282.183 239.791
L282.566 239.791
L282.694 239.164
L283.332 239.164
L283.459 244.598
L284.097 244.598
L284.225 243.623
L284.736 243.623
L285.246 244.877
L285.629 244.877
L285.756 244.459
L286.395 244.459
L286.522 245.016
L287.926 244.946
L288.054 243.483
L288.692 243.483
L288.819 239.582
L289.457 239.582
L289.585 241.045
L290.223 241.045
L290.351 242.09
L290.989 242.09
L291.116 243.832
L291.754 243.832
L292.137 246.479
L292.52 246.479
L292.52 246.479
L292.648 246.27
L293.286 246.27
L293.286 246.27
L293.413 245.016
L294.051 245.016
L294.051 245.016
L294.179 243.065
L294.817 243.065
L294.817 243.065
L294.945 238.816
L295.583 238.816
L295.71 238.398
L296.349 238.398
L296.476 239.513
L297.114 239.513
L297.242 236.726
L297.88 236.726
L298.008 237.91
L298.646 237.91
L298.773 236.726
L299.411 236.726
L299.539 236.587
L300.177 236.587
L300.177 236.587
L300.305 239.931
L300.943 239.931
L301.07 239.373
L301.708 239.373
L301.836 240.836
L302.474 240.836
L302.474 240.836
L302.985 241.324
L304.005 241.254
L304.005 241.254
L304.133 242.926
L304.771 242.926
L304.899 242.02
L305.537 242.02
L305.664 241.742
L307.068 241.742
L307.068 241.742
L307.196 240
L307.834 240
L307.962 240.348
L308.6 240.348
L308.6 240.348
L308.727 239.931
L309.365 239.931
L309.493 240.279
L310.131 240.279
L310.131 240.279
L310.259 240.418
L310.897 240.418
L311.024 241.184
L311.662 241.184
L311.79 240.557
L312.428 240.557
L312.556 242.996
L313.194 242.996
L313.321 242.09
L313.96 242.09
L314.087 241.045
L314.725 241.045
L314.853 240.488
L315.491 240.488
L315.619 237.701
L316.257 237.701
L316.384 238.468
L317.022 238.468
L317.15 237.98
L318.554 237.91
L318.554 237.91
L318.681 237.005
L319.319 237.005
L319.319 237.005
L319.447 239.234
L320.085 239.234
L320.213 239.513
L320.851 239.513
L320.851 239.513
L321.234 238.119
L321.616 238.119
L321.999 241.254
L323.148 241.254
L323.275 242.229
L324.679 242.229
L324.807 242.02
L326.211 242.02
L326.338 241.742
L326.976 241.742
L327.104 240.418
L327.742 240.418
L327.87 241.045
L328.508 241.045
L328.635 239.234
L329.273 239.234
L329.401 237.91
L330.039 237.91
L330.167 240.07
L330.805 240.07
L330.933 241.881
L332.336 241.881
L332.464 240.906
L333.102 240.906
L333.23 240.348
L333.868 240.348
L333.995 240.697
L334.633 240.697
L334.761 241.533
L335.399 241.533
L335.527 237.91
L336.165 237.91
L336.292 241.115
L336.93 241.115
L337.058 240.697
L337.696 240.697
L337.824 243.414
L338.462 243.414
L338.589 242.229
L339.227 242.229
L339.355 243.901
L339.866 243.901
L340.121 245.922
L340.504 245.922
L340.886 243.205
L341.525 243.205
L341.652 242.16
L343.056 242.09
L343.184 243.692
L343.822 243.692
L343.822 243.692
L343.949 243.901
L344.588 243.901
L344.715 241.533
L346.884 241.533
L346.884 241.533
L347.012 238.955
L347.65 238.955
L347.778 240.906
L348.416 240.906
L348.543 241.184
L349.181 241.184
L349.309 242.787
L349.947 242.787
L350.075 241.881
L350.713 241.881
L350.84 242.508
L351.224 242.508
L351.606 241.951
L352.244 241.951
L352.372 240.557
L353.01 240.557
L353.138 240.418
L353.776 240.418
L353.776 240.418
L354.158 238.468
L354.541 238.468
L354.669 241.951
L355.307 241.951
L355.307 241.951
L355.435 241.463
L356.073 241.463
L356.073 241.463
L356.2 243.414
L356.838 243.414
L356.966 245.713
L357.477 245.713
L357.732 245.016
L358.37 245.016
L358.37 245.016
L358.497 244.737
L359.136 244.737
L359.263 244.528
L359.901 244.528
L360.029 243.553
L360.667 243.553
L360.795 245.086
L361.433 245.086
L361.56 244.041
L362.198 244.041
L362.326 238.816
L362.964 238.816
L363.092 241.393
L363.73 241.393
L363.857 245.364
L364.495 245.364
L364.623 244.459
L365.261 244.459
L365.389 243.274
L366.792 243.274
L366.92 242.647
L367.558 242.647
L367.686 242.02
L368.324 242.02
L368.451 242.229
L369.855 242.229
L369.983 242.369
L370.621 242.369
L370.749 240.418
L371.387 240.418
L371.514 242.856
L372.152 242.856
L372.28 242.369
L372.918 242.369
L373.046 240
L373.684 240
L373.684 240
L373.811 243.971
L375.215 243.971
L375.343 243.483
L375.981 243.483
L376.108 244.877
L377.512 244.877
L377.512 244.877
L377.64 245.713
L378.278 245.713
L378.405 245.852
L379.809 245.782
L379.937 245.713
L380.575 245.713
L380.703 243.692
L381.341 243.692
L381.468 241.602
L382.107 241.602
L382.234 242.16
L383.638 242.16
L384.021 241.254
L384.403 241.254
L384.531 245.155
L385.935 245.155
L386.062 243.762
L386.701 243.762
L386.828 243.623
L387.466 243.623
L387.594 242.996
L388.232 242.996
L388.232 242.996
L388.36 342.267
L388.998 342.267
L389.125 239.234
L389.763 239.234
L389.891 237.98
L390.529 237.98
L390.657 243.414
L391.295 243.414
L391.422 240.836
L392.06 240.836
L392.188 241.463
L392.826 241.463
L392.954 244.389
L393.592 244.389
L393.719 245.922
L394.102 245.922
L394.102 245.922
L394.485 247.942
L395.123 247.942
L395.251 247.245
L395.889 247.245
L396.016 248.36
L396.655 248.36
L396.782 248.012
L397.42 248.012
L397.548 248.429
L398.186 248.429
L398.314 248.569
L398.952 248.569
L399.079 247.803
L399.717 247.803
L399.845 245.782
L400.483 245.782
L400.611 245.155
L401.249 245.155
L401.376 244.528
L402.014 244.528
L402.142 243.414
L402.78 243.414
L402.908 244.389
L403.546 244.389
L403.673 241.951
L404.311 241.951
L404.439 243.205
L405.077 243.205
L405.205 244.319
L405.843 244.319
L405.97 243.553
L406.609 243.553
L406.736 242.229
L407.374 242.229
L407.502 242.09
L408.14 242.09
L408.268 242.787
L408.906 242.787
L409.033 242.16
L409.671 242.16
L409.799 243.065
L410.437 243.065
L410.565 242.299
L411.203 242.299
L411.33 243.692
L411.968 243.692
L412.096 244.18
L412.607 244.18
L413.245 244.319
L413.5 244.319
L413.627 245.086
L414.266 245.086
L414.393 244.807
L415.031 244.807
L415.159 243.414
L415.797 243.414
L415.925 242.787
L417.328 242.717
L417.456 243.205
L418.094 243.205
L418.222 243.553
L418.86 243.553
L418.987 244.668
L419.625 244.668
L419.753 244.041
L420.391 244.041
L420.519 242.09
L421.157 242.09
L421.284 241.672
L421.922 241.672
L422.05 239.373
L422.688 239.373
L422.816 239.652
L423.454 239.652
L423.581 240.697
L424.22 240.697
L424.347 243.065
L424.985 243.065
L425.113 244.25
L425.751 244.25
L425.879 242.717
L426.517 242.717
L426.644 243.762
L427.282 243.762
L427.41 246.061
L428.048 246.061
L428.176 244.459
L429.579 244.528
L429.707 244.946
L430.345 244.946
L430.473 246.409
L430.983 246.409
L431.238 246.2
L431.877 246.2
L432.004 246.827
L432.642 246.827
L432.642 246.827
L432.77 245.713
L433.408 245.713
L433.536 245.991
L434.174 245.991
L434.301 246.27
L434.939 246.27
L435.067 245.504
L435.705 245.504
L435.833 245.922
L436.471 245.922
L436.598 244.459
L437.236 244.459
L437.364 244.319
L438.002 244.319
L438.13 243.065
L438.768 243.065
L438.895 241.602
L439.533 241.602
L439.661 242.02
L440.299 242.02
L440.299 242.02
L440.427 243.901
L441.065 243.901
L441.192 245.225
L441.831 245.225
L441.831 245.225
L441.958 243.205
L442.596 243.205
L442.724 243.553
L443.362 243.553
L443.49 245.573
L444.128 245.573
L444.255 246.758
L444.893 246.758
L445.021 245.782
L445.659 245.782
L446.042 244.807
L446.425 244.807
L446.552 243.901
L447.19 243.901
L447.318 241.881
L447.956 241.881
L448.084 242.717
L448.722 242.717
L448.849 242.578
L449.487 242.578
L449.487 242.578
L449.615 241.393
L450.126 241.393
L450.381 241.951
L451.019 241.951
L451.146 242.578
L453.316 242.647
L453.444 240.975
L454.082 240.975
L454.209 240.209
L456.379 240.209
L456.506 239.513
L457.144 239.513
L457.272 239.373
L457.91 239.373
L458.038 236.517
L458.676 236.517
L458.803 238.05
L459.442 238.05
L459.569 240.209
L460.207 240.209
L460.335 242.16
L460.973 242.16
L461.101 241.742
L461.739 241.742
L461.866 240.766
L462.504 240.766
L462.632 241.254
L463.27 241.254
L463.398 241.951
L464.036 241.951
L464.163 241.742
L465.567 241.811
L465.567 241.811
L465.695 241.463
L466.333 241.463
L466.46 240.906
L467.098 240.906
L467.098 240.906
L467.226 238.398
L467.864 238.398
L467.992 240.697
L468.63 240.697
L468.757 243.483
L469.396 243.483
L469.523 244.18
L470.161 244.18
L470.289 243.971
L470.927 243.971
L471.055 243.274
L471.693 243.274
L471.82 243.971
L472.458 243.971
L472.586 244.459
L473.224 244.459
L473.352 242.508
L473.99 242.508
L474.118 240
L474.755 240
L474.883 241.254
L475.521 241.254
L475.649 243.205
L476.287 243.205
L476.414 242.369
L477.052 242.369
L477.18 242.508
L477.818 242.508
L477.946 241.672
L478.584 241.672
L478.711 240.975
L479.35 240.975
L479.477 240.488
L480.115 240.488
L480.243 242.16
L480.881 242.16
L481.009 240.906
L481.647 240.906
L481.774 241.672
L483.178 241.672
L483.306 243.344
L483.944 243.344
L484.071 243.762
L484.709 243.762
L484.837 246.827
L485.475 246.827
L485.986 246.967
L487.007 246.967
L487.134 247.176
L487.772 247.176
L487.9 246.618
L488.538 246.618
L488.666 246.27
L489.304 246.27
L489.431 245.504
L490.069 245.504
L490.197 248.429
L490.835 248.429
L490.963 246.618
L492.366 246.618
L492.494 247.106
L493.132 247.106
L493.26 246.549
L493.898 246.549
L494.026 247.106
L494.663 247.106
L494.791 246.688
L495.429 246.688
L495.557 247.454
L496.195 247.454
L496.322 245.782
L496.961 245.782
L497.088 247.942
L497.726 247.942
L497.854 248.429
L498.492 248.429
L498.62 246.897
L499.258 246.897
L499.258 246.897
L499.385 245.713
L500.023 245.713
L500.151 244.459
L500.789 244.459
L500.917 243.692
L501.555 243.692
L501.682 246.061
L502.32 246.061
L502.448 245.295
L503.086 245.295
L503.214 243.692
L503.852 243.692
L503.979 245.225
L504.617 245.225
L504.745 243.692
L505.383 243.692
L505.511 245.573
L506.149 245.573
L506.277 246.061
L508.446 245.991
L508.574 242.647
L509.212 242.647
L509.339 247.106
L509.977 247.106
L510.488 247.524
L510.743 247.524
L510.871 247.106
L512.274 247.036
L512.402 246.549
L513.04 246.549
L513.168 244.319
L513.806 244.319
L513.933 245.713
L514.572 245.713
L514.699 244.807
L515.337 244.807
L515.465 243.553
L516.869 243.483
L516.996 242.787
L517.634 242.787
L517.762 242.647
L518.4 242.647
L518.4 242.647" style="fill:none;stroke:#008000;stroke-linecap:square;"/>
   </g>
   <g id="patch_3">
    <path d="
M72 43.2
L518.4 43.2" style="fill:none;stroke:#000000;stroke-linecap:square;stroke-linejoin:miter;"/>
   </g>
   <g id="patch_4">
    <path d="
M518.4 345.6
L518.4 43.2" style="fill:none;stroke:#000000;stroke-linecap:square;stroke-linejoin:miter;"/>
   </g>
   <g id="patch_5">
    <path d="
M72 345.6
L518.4 345.6" style="fill:none;stroke:#000000;stroke-linecap:square;stroke-linejoin:miter;"/>
   </g>
   <g id="patch_6">
    <path d="
M72 345.6
L72 43.2" style="fill:none;stroke:#000000;stroke-linecap:square;stroke-linejoin:miter;"/>
   </g>
   <g id="matplotlib.axis_1">
    <g id="xtick_1">
     <g id="line2d_3">
      <defs>
       <path d="
M0 0
L0 -4" id="m93b0483c22" style="stroke:#000000;stroke-width:0.5;"/>
      </defs>
      <g>
       <use style="stroke:#000000;stroke-width:0.5;" x="117.941468267" xlink:href="#m93b0483c22" y="345.6"/>
      </g>
     </g>
     <g id="line2d_4">
      <defs>
       <path d="
M0 0
L0 4" id="m741efc42ff" style="stroke:#000000;stroke-width:0.5;"/>
      </defs>
      <g>
       <use style="stroke:#000000;stroke-width:0.5;" x="117.941468267" xlink:href="#m741efc42ff" y="43.2"/>
      </g>
     </g>
     <g id="text_1">
      <!-- Oct 13 2015 -->
      <defs>
       <path d="
M19.1875 8.29688
L53.6094 8.29688
L53.6094 0
L7.32812 0
L7.32812 8.29688
Q12.9375 14.1094 22.625 23.8906
Q32.3281 33.6875 34.8125 36.5312
Q39.5469 41.8438 41.4219 45.5312
Q43.3125 49.2188 43.3125 52.7812
Q43.3125 58.5938 39.2344 62.25
Q35.1562 65.9219 28.6094 65.9219
Q23.9688 65.9219 18.8125 64.3125
Q13.6719 62.7031 7.8125 59.4219
L7.8125 69.3906
Q13.7656 71.7812 18.9375 73
Q24.125 74.2188 28.4219 74.2188
Q39.75 74.2188 46.4844 68.5469
Q53.2188 62.8906 53.2188 53.4219
Q53.2188 48.9219 51.5312 44.8906
Q49.8594 40.875 45.4062 35.4062
Q44.1875 33.9844 37.6406 27.2188
Q31.1094 20.4531 19.1875 8.29688" id="BitstreamVeraSans-Roman-32"/>
       <path d="
M39.4062 66.2188
Q28.6562 66.2188 22.3281 58.2031
Q16.0156 50.2031 16.0156 36.375
Q16.0156 22.6094 22.3281 14.5938
Q28.6562 6.59375 39.4062 6.59375
Q50.1406 6.59375 56.4219 14.5938
Q62.7031 22.6094 62.7031 36.375
Q62.7031 50.2031 56.4219 58.2031
Q50.1406 66.2188 39.4062 66.2188
M39.4062 74.2188
Q54.7344 74.2188 63.9062 63.9375
Q73.0938 53.6562 73.0938 36.375
Q73.0938 19.1406 63.9062 8.85938
Q54.7344 -1.42188 39.4062 -1.42188
Q24.0312 -1.42188 14.8125 8.82812
Q5.60938 19.0938 5.60938 36.375
Q5.60938 53.6562 14.8125 63.9375
Q24.0312 74.2188 39.4062 74.2188" id="BitstreamVeraSans-Roman-4f"/>
       <path d="
M31.7812 66.4062
Q24.1719 66.4062 20.3281 58.9062
Q16.5 51.4219 16.5 36.375
Q16.5 21.3906 20.3281 13.8906
Q24.1719 6.39062 31.7812 6.39062
Q39.4531 6.39062 43.2812 13.8906
Q47.125 21.3906 47.125 36.375
Q47.125 51.4219 43.2812 58.9062
Q39.4531 66.4062 31.7812 66.4062
M31.7812 74.2188
Q44.0469 74.2188 50.5156 64.5156
Q56.9844 54.8281 56.9844 36.375
Q56.9844 17.9688 50.5156 8.26562
Q44.0469 -1.42188 31.7812 -1.42188
Q19.5312 -1.42188 13.0625 8.26562
Q6.59375 17.9688 6.59375 36.375
Q6.59375 54.8281 13.0625 64.5156
Q19.5312 74.2188 31.7812 74.2188" id="BitstreamVeraSans-Roman-30"/>
       <path d="
M12.4062 8.29688
L28.5156 8.29688
L28.5156 63.9219
L10.9844 60.4062
L10.9844 69.3906
L28.4219 72.9062
L38.2812 72.9062
L38.2812 8.29688
L54.3906 8.29688
L54.3906 0
L12.4062 0
z
" id="BitstreamVeraSans-Roman-31"/>
       <path d="
M40.5781 39.3125
Q47.6562 37.7969 51.625 33
Q55.6094 28.2188 55.6094 21.1875
Q55.6094 10.4062 48.1875 4.48438
Q40.7656 -1.42188 27.0938 -1.42188
Q22.5156 -1.42188 17.6562 -0.515625
Q12.7969 0.390625 7.625 2.20312
L7.625 11.7188
Q11.7188 9.32812 16.5938 8.10938
Q21.4844 6.89062 26.8125 6.89062
Q36.0781 6.89062 40.9375 10.5469
Q45.7969 14.2031 45.7969 21.1875
Q45.7969 27.6406 41.2812 31.2656
Q36.7656 34.9062 28.7188 34.9062
L20.2188 34.9062
L20.2188 43.0156
L29.1094 43.0156
Q36.375 43.0156 40.2344 45.9219
Q44.0938 48.8281 44.0938 54.2969
Q44.0938 59.9062 40.1094 62.9062
Q36.1406 65.9219 28.7188 65.9219
Q24.6562 65.9219 20.0156 65.0312
Q15.375 64.1562 9.8125 62.3125
L9.8125 71.0938
Q15.4375 72.6562 20.3438 73.4375
Q25.25 74.2188 29.5938 74.2188
Q40.8281 74.2188 47.3594 69.1094
Q53.9062 64.0156 53.9062 55.3281
Q53.9062 49.2656 50.4375 45.0938
Q46.9688 40.9219 40.5781 39.3125" id="BitstreamVeraSans-Roman-33"/>
       <path id="BitstreamVeraSans-Roman-20"/>
       <path d="
M10.7969 72.9062
L49.5156 72.9062
L49.5156 64.5938
L19.8281 64.5938
L19.8281 46.7344
Q21.9688 47.4688 24.1094 47.8281
Q26.2656 48.1875 28.4219 48.1875
Q40.625 48.1875 47.75 41.5
Q54.8906 34.8125 54.8906 23.3906
Q54.8906 11.625 47.5625 5.09375
Q40.2344 -1.42188 26.9062 -1.42188
Q22.3125 -1.42188 17.5469 -0.640625
Q12.7969 0.140625 7.71875 1.70312
L7.71875 11.625
Q12.1094 9.23438 16.7969 8.0625
Q21.4844 6.89062 26.7031 6.89062
Q35.1562 6.89062 40.0781 11.3281
Q45.0156 15.7656 45.0156 23.3906
Q45.0156 31 40.0781 35.4375
Q35.1562 39.8906 26.7031 39.8906
Q22.75 39.8906 18.8125 39.0156
Q14.8906 38.1406 10.7969 36.2812
z
" id="BitstreamVeraSans-Roman-35"/>
       <path d="
M18.3125 70.2188
L18.3125 54.6875
L36.8125 54.6875
L36.8125 47.7031
L18.3125 47.7031
L18.3125 18.0156
Q18.3125 11.3281 20.1406 9.42188
Q21.9688 7.51562 27.5938 7.51562
L36.8125 7.51562
L36.8125 0
L27.5938 0
Q17.1875 0 13.2344 3.875
Q9.28125 7.76562 9.28125 18.0156
L9.28125 47.7031
L2.6875 47.7031
L2.6875 54.6875
L9.28125 54.6875
L9.28125 70.2188
z
" id="BitstreamVeraSans-Roman-74"/>
       <path d="
M48.7812 52.5938
L48.7812 44.1875
Q44.9688 46.2969 41.1406 47.3438
Q37.3125 48.3906 33.4062 48.3906
Q24.6562 48.3906 19.8125 42.8438
Q14.9844 37.3125 14.9844 27.2969
Q14.9844 17.2812 19.8125 11.7344
Q24.6562 6.20312 33.4062 6.20312
Q37.3125 6.20312 41.1406 7.25
Q44.9688 8.29688 48.7812 10.4062
L48.7812 2.09375
Q45.0156 0.34375 40.9844 -0.53125
Q36.9688 -1.42188 32.4219 -1.42188
Q20.0625 -1.42188 12.7812 6.34375
Q5.51562 14.1094 5.51562 27.2969
Q5.51562 40.6719 12.8594 48.3281
Q20.2188 56 33.0156 56
Q37.1562 56 41.1094 55.1406
Q45.0625 54.2969 48.7812 52.5938" id="BitstreamVeraSans-Roman-63"/>
      </defs>
      <g transform="translate(53.3541815316 394.065590385)rotate(-30.0)scale(0.12 -0.12)">
       <use xlink:href="#BitstreamVeraSans-Roman-4f"/>
       <use x="78.7109375" xlink:href="#BitstreamVeraSans-Roman-63"/>
       <use x="133.69140625" xlink:href="#BitstreamVeraSans-Roman-74"/>
       <use x="172.900390625" xlink:href="#BitstreamVeraSans-Roman-20"/>
       <use x="204.6875" xlink:href="#BitstreamVeraSans-Roman-31"/>
       <use x="268.310546875" xlink:href="#BitstreamVeraSans-Roman-33"/>
       <use x="331.93359375" xlink:href="#BitstreamVeraSans-Roman-20"/>
       <use x="363.720703125" xlink:href="#BitstreamVeraSans-Roman-32"/>
       <use x="427.34375" xlink:href="#BitstreamVeraSans-Roman-30"/>
       <use x="490.966796875" xlink:href="#BitstreamVeraSans-Roman-31"/>
       <use x="554.58984375" xlink:href="#BitstreamVeraSans-Roman-35"/>
      </g>
     </g>
    </g>
    <g id="xtick_2">
     <g id="line2d_5">
      <g>
       <use style="stroke:#000000;stroke-width:0.5;" x="173.071485419" xlink:href="#m93b0483c22" y="345.6"/>
      </g>
     </g>
     <g id="line2d_6">
      <g>
       <use style="stroke:#000000;stroke-width:0.5;" x="173.071485419" xlink:href="#m741efc42ff" y="43.2"/>
      </g>
     </g>
     <g id="text_2">
      <!-- Oct 16 2015 -->
      <defs>
       <path d="
M33.0156 40.375
Q26.375 40.375 22.4844 35.8281
Q18.6094 31.2969 18.6094 23.3906
Q18.6094 15.5312 22.4844 10.9531
Q26.375 6.39062 33.0156 6.39062
Q39.6562 6.39062 43.5312 10.9531
Q47.4062 15.5312 47.4062 23.3906
Q47.4062 31.2969 43.5312 35.8281
Q39.6562 40.375 33.0156 40.375
M52.5938 71.2969
L52.5938 62.3125
Q48.875 64.0625 45.0938 64.9844
Q41.3125 65.9219 37.5938 65.9219
Q27.8281 65.9219 22.6719 59.3281
Q17.5312 52.7344 16.7969 39.4062
Q19.6719 43.6562 24.0156 45.9219
Q28.375 48.1875 33.5938 48.1875
Q44.5781 48.1875 50.9531 41.5156
Q57.3281 34.8594 57.3281 23.3906
Q57.3281 12.1562 50.6875 5.35938
Q44.0469 -1.42188 33.0156 -1.42188
Q20.3594 -1.42188 13.6719 8.26562
Q6.98438 17.9688 6.98438 36.375
Q6.98438 53.6562 15.1875 63.9375
Q23.3906 74.2188 37.2031 74.2188
Q40.9219 74.2188 44.7031 73.4844
Q48.4844 72.75 52.5938 71.2969" id="BitstreamVeraSans-Roman-36"/>
      </defs>
      <g transform="translate(108.484198684 394.065590385)rotate(-30.0)scale(0.12 -0.12)">
       <use xlink:href="#BitstreamVeraSans-Roman-4f"/>
       <use x="78.7109375" xlink:href="#BitstreamVeraSans-Roman-63"/>
       <use x="133.69140625" xlink:href="#BitstreamVeraSans-Roman-74"/>
       <use x="172.900390625" xlink:href="#BitstreamVeraSans-Roman-20"/>
       <use x="204.6875" xlink:href="#BitstreamVeraSans-Roman-31"/>
       <use x="268.310546875" xlink:href="#BitstreamVeraSans-Roman-36"/>
       <use x="331.93359375" xlink:href="#BitstreamVeraSans-Roman-20"/>
       <use x="363.720703125" xlink:href="#BitstreamVeraSans-Roman-32"/>
       <use x="427.34375" xlink:href="#BitstreamVeraSans-Roman-30"/>
       <use x="490.966796875" xlink:href="#BitstreamVeraSans-Roman-31"/>
       <use x="554.58984375" xlink:href="#BitstreamVeraSans-Roman-35"/>
      </g>
     </g>
    </g>
    <g id="xtick_3">
     <g id="line2d_7">
      <g>
       <use style="stroke:#000000;stroke-width:0.5;" x="228.201502573" xlink:href="#m93b0483c22" y="345.6"/>
      </g>
     </g>
     <g id="line2d_8">
      <g>
       <use style="stroke:#000000;stroke-width:0.5;" x="228.201502573" xlink:href="#m741efc42ff" y="43.2"/>
      </g>
     </g>
     <g id="text_3">
      <!-- Oct 19 2015 -->
      <defs>
       <path d="
M10.9844 1.51562
L10.9844 10.5
Q14.7031 8.73438 18.5 7.8125
Q22.3125 6.89062 25.9844 6.89062
Q35.75 6.89062 40.8906 13.4531
Q46.0469 20.0156 46.7812 33.4062
Q43.9531 29.2031 39.5938 26.9531
Q35.25 24.7031 29.9844 24.7031
Q19.0469 24.7031 12.6719 31.3125
Q6.29688 37.9375 6.29688 49.4219
Q6.29688 60.6406 12.9375 67.4219
Q19.5781 74.2188 30.6094 74.2188
Q43.2656 74.2188 49.9219 64.5156
Q56.5938 54.8281 56.5938 36.375
Q56.5938 19.1406 48.4062 8.85938
Q40.2344 -1.42188 26.4219 -1.42188
Q22.7031 -1.42188 18.8906 -0.6875
Q15.0938 0.046875 10.9844 1.51562
M30.6094 32.4219
Q37.25 32.4219 41.125 36.9531
Q45.0156 41.5 45.0156 49.4219
Q45.0156 57.2812 41.125 61.8438
Q37.25 66.4062 30.6094 66.4062
Q23.9688 66.4062 20.0938 61.8438
Q16.2188 57.2812 16.2188 49.4219
Q16.2188 41.5 20.0938 36.9531
Q23.9688 32.4219 30.6094 32.4219" id="BitstreamVeraSans-Roman-39"/>
      </defs>
      <g transform="translate(163.614215838 394.065590385)rotate(-30.0)scale(0.12 -0.12)">
       <use xlink:href="#BitstreamVeraSans-Roman-4f"/>
       <use x="78.7109375" xlink:href="#BitstreamVeraSans-Roman-63"/>
       <use x="133.69140625" xlink:href="#BitstreamVeraSans-Roman-74"/>
       <use x="172.900390625" xlink:href="#BitstreamVeraSans-Roman-20"/>
       <use x="204.6875" xlink:href="#BitstreamVeraSans-Roman-31"/>
       <use x="268.310546875" xlink:href="#BitstreamVeraSans-Roman-39"/>
       <use x="331.93359375" xlink:href="#BitstreamVeraSans-Roman-20"/>
       <use x="363.720703125" xlink:href="#BitstreamVeraSans-Roman-32"/>
       <use x="427.34375" xlink:href="#BitstreamVeraSans-Roman-30"/>
       <use x="490.966796875" xlink:href="#BitstreamVeraSans-Roman-31"/>
       <use x="554.58984375" xlink:href="#BitstreamVeraSans-Roman-35"/>
      </g>
     </g>
    </g>
    <g id="xtick_4">
     <g id="line2d_9">
      <g>
       <use style="stroke:#000000;stroke-width:0.5;" x="283.331519725" xlink:href="#m93b0483c22" y="345.6"/>
      </g>
     </g>
     <g id="line2d_10">
      <g>
       <use style="stroke:#000000;stroke-width:0.5;" x="283.331519725" xlink:href="#m741efc42ff" y="43.2"/>
      </g>
     </g>
     <g id="text_4">
      <!-- Oct 22 2015 -->
      <g transform="translate(218.74423299 394.065590385)rotate(-30.0)scale(0.12 -0.12)">
       <use xlink:href="#BitstreamVeraSans-Roman-4f"/>
       <use x="78.7109375" xlink:href="#BitstreamVeraSans-Roman-63"/>
       <use x="133.69140625" xlink:href="#BitstreamVeraSans-Roman-74"/>
       <use x="172.900390625" xlink:href="#BitstreamVeraSans-Roman-20"/>
       <use x="204.6875" xlink:href="#BitstreamVeraSans-Roman-32"/>
       <use x="268.310546875" xlink:href="#BitstreamVeraSans-Roman-32"/>
       <use x="331.93359375" xlink:href="#BitstreamVeraSans-Roman-20"/>
       <use x="363.720703125" xlink:href="#BitstreamVeraSans-Roman-32"/>
       <use x="427.34375" xlink:href="#BitstreamVeraSans-Roman-30"/>
       <use x="490.966796875" xlink:href="#BitstreamVeraSans-Roman-31"/>
       <use x="554.58984375" xlink:href="#BitstreamVeraSans-Roman-35"/>
      </g>
     </g>
    </g>
    <g id="xtick_5">
     <g id="line2d_11">
      <g>
       <use style="stroke:#000000;stroke-width:0.5;" x="338.461536877" xlink:href="#m93b0483c22" y="345.6"/>
      </g>
     </g>
     <g id="line2d_12">
      <g>
       <use style="stroke:#000000;stroke-width:0.5;" x="338.461536877" xlink:href="#m741efc42ff" y="43.2"/>
      </g>
     </g>
     <g id="text_5">
      <!-- Oct 25 2015 -->
      <g transform="translate(273.874250142 394.065590385)rotate(-30.0)scale(0.12 -0.12)">
       <use xlink:href="#BitstreamVeraSans-Roman-4f"/>
       <use x="78.7109375" xlink:href="#BitstreamVeraSans-Roman-63"/>
       <use x="133.69140625" xlink:href="#BitstreamVeraSans-Roman-74"/>
       <use x="172.900390625" xlink:href="#BitstreamVeraSans-Roman-20"/>
       <use x="204.6875" xlink:href="#BitstreamVeraSans-Roman-32"/>
       <use x="268.310546875" xlink:href="#BitstreamVeraSans-Roman-35"/>
       <use x="331.93359375" xlink:href="#BitstreamVeraSans-Roman-20"/>
       <use x="363.720703125" xlink:href="#BitstreamVeraSans-Roman-32"/>
       <use x="427.34375" xlink:href="#BitstreamVeraSans-Roman-30"/>
       <use x="490.966796875" xlink:href="#BitstreamVeraSans-Roman-31"/>
       <use x="554.58984375" xlink:href="#BitstreamVeraSans-Roman-35"/>
      </g>
     </g>
    </g>
    <g id="xtick_6">
     <g id="line2d_13">
      <g>
       <use style="stroke:#000000;stroke-width:0.5;" x="393.591554031" xlink:href="#m93b0483c22" y="345.6"/>
      </g>
     </g>
     <g id="line2d_14">
      <g>
       <use style="stroke:#000000;stroke-width:0.5;" x="393.591554031" xlink:href="#m741efc42ff" y="43.2"/>
      </g>
     </g>
     <g id="text_6">
      <!-- Oct 28 2015 -->
      <defs>
       <path d="
M31.7812 34.625
Q24.75 34.625 20.7188 30.8594
Q16.7031 27.0938 16.7031 20.5156
Q16.7031 13.9219 20.7188 10.1562
Q24.75 6.39062 31.7812 6.39062
Q38.8125 6.39062 42.8594 10.1719
Q46.9219 13.9688 46.9219 20.5156
Q46.9219 27.0938 42.8906 30.8594
Q38.875 34.625 31.7812 34.625
M21.9219 38.8125
Q15.5781 40.375 12.0312 44.7188
Q8.5 49.0781 8.5 55.3281
Q8.5 64.0625 14.7188 69.1406
Q20.9531 74.2188 31.7812 74.2188
Q42.6719 74.2188 48.875 69.1406
Q55.0781 64.0625 55.0781 55.3281
Q55.0781 49.0781 51.5312 44.7188
Q48 40.375 41.7031 38.8125
Q48.8281 37.1562 52.7969 32.3125
Q56.7812 27.4844 56.7812 20.5156
Q56.7812 9.90625 50.3125 4.23438
Q43.8438 -1.42188 31.7812 -1.42188
Q19.7344 -1.42188 13.25 4.23438
Q6.78125 9.90625 6.78125 20.5156
Q6.78125 27.4844 10.7812 32.3125
Q14.7969 37.1562 21.9219 38.8125
M18.3125 54.3906
Q18.3125 48.7344 21.8438 45.5625
Q25.3906 42.3906 31.7812 42.3906
Q38.1406 42.3906 41.7188 45.5625
Q45.3125 48.7344 45.3125 54.3906
Q45.3125 60.0625 41.7188 63.2344
Q38.1406 66.4062 31.7812 66.4062
Q25.3906 66.4062 21.8438 63.2344
Q18.3125 60.0625 18.3125 54.3906" id="BitstreamVeraSans-Roman-38"/>
      </defs>
      <g transform="translate(329.004267296 394.065590385)rotate(-30.0)scale(0.12 -0.12)">
       <use xlink:href="#BitstreamVeraSans-Roman-4f"/>
       <use x="78.7109375" xlink:href="#BitstreamVeraSans-Roman-63"/>
       <use x="133.69140625" xlink:href="#BitstreamVeraSans-Roman-74"/>
       <use x="172.900390625" xlink:href="#BitstreamVeraSans-Roman-20"/>
       <use x="204.6875" xlink:href="#BitstreamVeraSans-Roman-32"/>
       <use x="268.310546875" xlink:href="#BitstreamVeraSans-Roman-38"/>
       <use x="331.93359375" xlink:href="#BitstreamVeraSans-Roman-20"/>
       <use x="363.720703125" xlink:href="#BitstreamVeraSans-Roman-32"/>
       <use x="427.34375" xlink:href="#BitstreamVeraSans-Roman-30"/>
       <use x="490.966796875" xlink:href="#BitstreamVeraSans-Roman-31"/>
       <use x="554.58984375" xlink:href="#BitstreamVeraSans-Roman-35"/>
      </g>
     </g>
    </g>
    <g id="xtick_7">
     <g id="line2d_15">
      <g>
       <use style="stroke:#000000;stroke-width:0.5;" x="448.721571183" xlink:href="#m93b0483c22" y="345.6"/>
      </g>
     </g>
     <g id="line2d_16">
      <g>
       <use style="stroke:#000000;stroke-width:0.5;" x="448.721571183" xlink:href="#m741efc42ff" y="43.2"/>
      </g>
     </g>
     <g id="text_7">
      <!-- Oct 31 2015 -->
      <g transform="translate(384.134284448 394.065590385)rotate(-30.0)scale(0.12 -0.12)">
       <use xlink:href="#BitstreamVeraSans-Roman-4f"/>
       <use x="78.7109375" xlink:href="#BitstreamVeraSans-Roman-63"/>
       <use x="133.69140625" xlink:href="#BitstreamVeraSans-Roman-74"/>
       <use x="172.900390625" xlink:href="#BitstreamVeraSans-Roman-20"/>
       <use x="204.6875" xlink:href="#BitstreamVeraSans-Roman-33"/>
       <use x="268.310546875" xlink:href="#BitstreamVeraSans-Roman-31"/>
       <use x="331.93359375" xlink:href="#BitstreamVeraSans-Roman-20"/>
       <use x="363.720703125" xlink:href="#BitstreamVeraSans-Roman-32"/>
       <use x="427.34375" xlink:href="#BitstreamVeraSans-Roman-30"/>
       <use x="490.966796875" xlink:href="#BitstreamVeraSans-Roman-31"/>
       <use x="554.58984375" xlink:href="#BitstreamVeraSans-Roman-35"/>
      </g>
     </g>
    </g>
    <g id="xtick_8">
     <g id="line2d_17">
      <g>
       <use style="stroke:#000000;stroke-width:0.5;" x="503.851588335" xlink:href="#m93b0483c22" y="345.6"/>
      </g>
     </g>
     <g id="line2d_18">
      <g>
       <use style="stroke:#000000;stroke-width:0.5;" x="503.851588335" xlink:href="#m741efc42ff" y="43.2"/>
      </g>
     </g>
     <g id="text_8">
      <!-- Nov 03 2015 -->
      <defs>
       <path d="
M2.98438 54.6875
L12.5 54.6875
L29.5938 8.79688
L46.6875 54.6875
L56.2031 54.6875
L35.6875 0
L23.4844 0
z
" id="BitstreamVeraSans-Roman-76"/>
       <path d="
M9.8125 72.9062
L23.0938 72.9062
L55.4219 11.9219
L55.4219 72.9062
L64.9844 72.9062
L64.9844 0
L51.7031 0
L19.3906 60.9844
L19.3906 0
L9.8125 0
z
" id="BitstreamVeraSans-Roman-4e"/>
       <path d="
M30.6094 48.3906
Q23.3906 48.3906 19.1875 42.75
Q14.9844 37.1094 14.9844 27.2969
Q14.9844 17.4844 19.1562 11.8438
Q23.3438 6.20312 30.6094 6.20312
Q37.7969 6.20312 41.9844 11.8594
Q46.1875 17.5312 46.1875 27.2969
Q46.1875 37.0156 41.9844 42.7031
Q37.7969 48.3906 30.6094 48.3906
M30.6094 56
Q42.3281 56 49.0156 48.375
Q55.7188 40.7656 55.7188 27.2969
Q55.7188 13.875 49.0156 6.21875
Q42.3281 -1.42188 30.6094 -1.42188
Q18.8438 -1.42188 12.1719 6.21875
Q5.51562 13.875 5.51562 27.2969
Q5.51562 40.7656 12.1719 48.375
Q18.8438 56 30.6094 56" id="BitstreamVeraSans-Roman-6f"/>
      </defs>
      <g transform="translate(436.948766176 395.402465385)rotate(-30.0)scale(0.12 -0.12)">
       <use xlink:href="#BitstreamVeraSans-Roman-4e"/>
       <use x="74.8046875" xlink:href="#BitstreamVeraSans-Roman-6f"/>
       <use x="135.986328125" xlink:href="#BitstreamVeraSans-Roman-76"/>
       <use x="195.166015625" xlink:href="#BitstreamVeraSans-Roman-20"/>
       <use x="226.953125" xlink:href="#BitstreamVeraSans-Roman-30"/>
       <use x="290.576171875" xlink:href="#BitstreamVeraSans-Roman-33"/>
       <use x="354.19921875" xlink:href="#BitstreamVeraSans-Roman-20"/>
       <use x="385.986328125" xlink:href="#BitstreamVeraSans-Roman-32"/>
       <use x="449.609375" xlink:href="#BitstreamVeraSans-Roman-30"/>
       <use x="513.232421875" xlink:href="#BitstreamVeraSans-Roman-31"/>
       <use x="576.85546875" xlink:href="#BitstreamVeraSans-Roman-35"/>
      </g>
     </g>
    </g>
   </g>
   <g id="matplotlib.axis_2">
    <g id="ytick_1">
     <g id="line2d_19">
      <defs>
       <path d="
M0 0
L4 0" id="m728421d6d4" style="stroke:#000000;stroke-width:0.5;"/>
      </defs>
      <g>
       <use style="stroke:#000000;stroke-width:0.5;" x="72.0" xlink:href="#m728421d6d4" y="339.271045993"/>
      </g>
     </g>
     <g id="line2d_20">
      <defs>
       <path d="
M0 0
L-4 0" id="mcb0005524f" style="stroke:#000000;stroke-width:0.5;"/>
      </defs>
      <g>
       <use style="stroke:#000000;stroke-width:0.5;" x="518.4" xlink:href="#mcb0005524f" y="339.271045993"/>
      </g>
     </g>
     <g id="text_9">
      <!-- 1000 -->
      <g transform="translate(39.575 342.582295993)scale(0.12 -0.12)">
       <use xlink:href="#BitstreamVeraSans-Roman-31"/>
       <use x="63.623046875" xlink:href="#BitstreamVeraSans-Roman-30"/>
       <use x="127.24609375" xlink:href="#BitstreamVeraSans-Roman-30"/>
       <use x="190.869140625" xlink:href="#BitstreamVeraSans-Roman-30"/>
      </g>
     </g>
    </g>
    <g id="ytick_2">
     <g id="line2d_21">
      <g>
       <use style="stroke:#000000;stroke-width:0.5;" x="72.0" xlink:href="#m728421d6d4" y="269.607270465"/>
      </g>
     </g>
     <g id="line2d_22">
      <g>
       <use style="stroke:#000000;stroke-width:0.5;" x="518.4" xlink:href="#mcb0005524f" y="269.607270465"/>
      </g>
     </g>
     <g id="text_10">
      <!-- 2000 -->
      <g transform="translate(39.13625 272.918520465)scale(0.12 -0.12)">
       <use xlink:href="#BitstreamVeraSans-Roman-32"/>
       <use x="63.623046875" xlink:href="#BitstreamVeraSans-Roman-30"/>
       <use x="127.24609375" xlink:href="#BitstreamVeraSans-Roman-30"/>
       <use x="190.869140625" xlink:href="#BitstreamVeraSans-Roman-30"/>
      </g>
     </g>
    </g>
    <g id="ytick_3">
     <g id="line2d_23">
      <g>
       <use style="stroke:#000000;stroke-width:0.5;" x="72.0" xlink:href="#m728421d6d4" y="199.943494938"/>
      </g>
     </g>
     <g id="line2d_24">
      <g>
       <use style="stroke:#000000;stroke-width:0.5;" x="518.4" xlink:href="#mcb0005524f" y="199.943494938"/>
      </g>
     </g>
     <g id="text_11">
      <!-- 3000 -->
      <g transform="translate(39.171875 203.254744938)scale(0.12 -0.12)">
       <use xlink:href="#BitstreamVeraSans-Roman-33"/>
       <use x="63.623046875" xlink:href="#BitstreamVeraSans-Roman-30"/>
       <use x="127.24609375" xlink:href="#BitstreamVeraSans-Roman-30"/>
       <use x="190.869140625" xlink:href="#BitstreamVeraSans-Roman-30"/>
      </g>
     </g>
    </g>
    <g id="ytick_4">
     <g id="line2d_25">
      <g>
       <use style="stroke:#000000;stroke-width:0.5;" x="72.0" xlink:href="#m728421d6d4" y="130.27971941"/>
      </g>
     </g>
     <g id="line2d_26">
      <g>
       <use style="stroke:#000000;stroke-width:0.5;" x="518.4" xlink:href="#mcb0005524f" y="130.27971941"/>
      </g>
     </g>
     <g id="text_12">
      <!-- 4000 -->
      <defs>
       <path d="
M37.7969 64.3125
L12.8906 25.3906
L37.7969 25.3906
z

M35.2031 72.9062
L47.6094 72.9062
L47.6094 25.3906
L58.0156 25.3906
L58.0156 17.1875
L47.6094 17.1875
L47.6094 0
L37.7969 0
L37.7969 17.1875
L4.89062 17.1875
L4.89062 26.7031
z
" id="BitstreamVeraSans-Roman-34"/>
      </defs>
      <g transform="translate(38.84375 133.59096941)scale(0.12 -0.12)">
       <use xlink:href="#BitstreamVeraSans-Roman-34"/>
       <use x="63.623046875" xlink:href="#BitstreamVeraSans-Roman-30"/>
       <use x="127.24609375" xlink:href="#BitstreamVeraSans-Roman-30"/>
       <use x="190.869140625" xlink:href="#BitstreamVeraSans-Roman-30"/>
      </g>
     </g>
    </g>
    <g id="ytick_5">
     <g id="line2d_27">
      <g>
       <use style="stroke:#000000;stroke-width:0.5;" x="72.0" xlink:href="#m728421d6d4" y="60.615943882"/>
      </g>
     </g>
     <g id="line2d_28">
      <g>
       <use style="stroke:#000000;stroke-width:0.5;" x="518.4" xlink:href="#mcb0005524f" y="60.615943882"/>
      </g>
     </g>
     <g id="text_13">
      <!-- 5000 -->
      <g transform="translate(39.183125 63.927193882)scale(0.12 -0.12)">
       <use xlink:href="#BitstreamVeraSans-Roman-35"/>
       <use x="63.623046875" xlink:href="#BitstreamVeraSans-Roman-30"/>
       <use x="127.24609375" xlink:href="#BitstreamVeraSans-Roman-30"/>
       <use x="190.869140625" xlink:href="#BitstreamVeraSans-Roman-30"/>
      </g>
     </g>
    </g>
   </g>
   <g id="text_14">
    <!-- Golderz -->
    <defs>
     <path d="
M9.42188 75.9844
L18.4062 75.9844
L18.4062 0
L9.42188 0
z
" id="BitstreamVeraSans-Roman-6c"/>
     <path d="
M5.51562 54.6875
L48.1875 54.6875
L48.1875 46.4844
L14.4062 7.17188
L48.1875 7.17188
L48.1875 0
L4.29688 0
L4.29688 8.20312
L38.0938 47.5156
L5.51562 47.5156
z
" id="BitstreamVeraSans-Roman-7a"/>
     <path d="
M59.5156 10.4062
L59.5156 29.9844
L43.4062 29.9844
L43.4062 38.0938
L69.2812 38.0938
L69.2812 6.78125
Q63.5781 2.73438 56.6875 0.65625
Q49.8125 -1.42188 42 -1.42188
Q24.9062 -1.42188 15.25 8.5625
Q5.60938 18.5625 5.60938 36.375
Q5.60938 54.25 15.25 64.2344
Q24.9062 74.2188 42 74.2188
Q49.125 74.2188 55.5469 72.4531
Q61.9688 70.7031 67.3906 67.2812
L67.3906 56.7812
Q61.9219 61.4219 55.7656 63.7656
Q49.6094 66.1094 42.8281 66.1094
Q29.4375 66.1094 22.7188 58.6406
Q16.0156 51.1719 16.0156 36.375
Q16.0156 21.625 22.7188 14.1562
Q29.4375 6.6875 42.8281 6.6875
Q48.0469 6.6875 52.1406 7.59375
Q56.25 8.5 59.5156 10.4062" id="BitstreamVeraSans-Roman-47"/>
     <path d="
M56.2031 29.5938
L56.2031 25.2031
L14.8906 25.2031
Q15.4844 15.9219 20.4844 11.0625
Q25.4844 6.20312 34.4219 6.20312
Q39.5938 6.20312 44.4531 7.46875
Q49.3125 8.73438 54.1094 11.2812
L54.1094 2.78125
Q49.2656 0.734375 44.1875 -0.34375
Q39.1094 -1.42188 33.8906 -1.42188
Q20.7969 -1.42188 13.1562 6.1875
Q5.51562 13.8125 5.51562 26.8125
Q5.51562 40.2344 12.7656 48.1094
Q20.0156 56 32.3281 56
Q43.3594 56 49.7812 48.8906
Q56.2031 41.7969 56.2031 29.5938
M47.2188 32.2344
Q47.125 39.5938 43.0938 43.9844
Q39.0625 48.3906 32.4219 48.3906
Q24.9062 48.3906 20.3906 44.1406
Q15.875 39.8906 15.1875 32.1719
z
" id="BitstreamVeraSans-Roman-65"/>
     <path d="
M45.4062 46.3906
L45.4062 75.9844
L54.3906 75.9844
L54.3906 0
L45.4062 0
L45.4062 8.20312
Q42.5781 3.32812 38.25 0.953125
Q33.9375 -1.42188 27.875 -1.42188
Q17.9688 -1.42188 11.7344 6.48438
Q5.51562 14.4062 5.51562 27.2969
Q5.51562 40.1875 11.7344 48.0938
Q17.9688 56 27.875 56
Q33.9375 56 38.25 53.625
Q42.5781 51.2656 45.4062 46.3906
M14.7969 27.2969
Q14.7969 17.3906 18.875 11.75
Q22.9531 6.10938 30.0781 6.10938
Q37.2031 6.10938 41.2969 11.75
Q45.4062 17.3906 45.4062 27.2969
Q45.4062 37.2031 41.2969 42.8438
Q37.2031 48.4844 30.0781 48.4844
Q22.9531 48.4844 18.875 42.8438
Q14.7969 37.2031 14.7969 27.2969" id="BitstreamVeraSans-Roman-64"/>
     <path d="
M41.1094 46.2969
Q39.5938 47.1719 37.8125 47.5781
Q36.0312 48 33.8906 48
Q26.2656 48 22.1875 43.0469
Q18.1094 38.0938 18.1094 28.8125
L18.1094 0
L9.07812 0
L9.07812 54.6875
L18.1094 54.6875
L18.1094 46.1875
Q20.9531 51.1719 25.4844 53.5781
Q30.0312 56 36.5312 56
Q37.4531 56 38.5781 55.875
Q39.7031 55.7656 41.0625 55.5156
z
" id="BitstreamVeraSans-Roman-72"/>
    </defs>
    <g transform="translate(464.3775 38.2)scale(0.144 -0.144)">
     <use xlink:href="#BitstreamVeraSans-Roman-47"/>
     <use x="77.490234375" xlink:href="#BitstreamVeraSans-Roman-6f"/>
     <use x="138.671875" xlink:href="#BitstreamVeraSans-Roman-6c"/>
     <use x="166.455078125" xlink:href="#BitstreamVeraSans-Roman-64"/>
     <use x="229.931640625" xlink:href="#BitstreamVeraSans-Roman-65"/>
     <use x="291.455078125" xlink:href="#BitstreamVeraSans-Roman-72"/>
     <use x="332.568359375" xlink:href="#BitstreamVeraSans-Roman-7a"/>
    </g>
   </g>
   <g id="legend_1">
    <g id="patch_7">
     <path d="
M123.942 423.616
L466.458 423.616
L466.458 398.16
L123.942 398.16
z
" style="fill:#ffffff;stroke:#000000;stroke-linejoin:miter;"/>
    </g>
    <g id="line2d_29">
     <path d="
M134.022 409.822
L154.182 409.822" style="fill:none;stroke:#ff0000;stroke-linecap:square;"/>
    </g>
    <g id="line2d_30"/>
    <g id="text_15">
     <!-- Schwarzmarktpreis -->
     <defs>
      <path d="
M52 44.1875
Q55.375 50.25 60.0625 53.125
Q64.75 56 71.0938 56
Q79.6406 56 84.2812 50.0156
Q88.9219 44.0469 88.9219 33.0156
L88.9219 0
L79.8906 0
L79.8906 32.7188
Q79.8906 40.5781 77.0938 44.375
Q74.3125 48.1875 68.6094 48.1875
Q61.625 48.1875 57.5625 43.5469
Q53.5156 38.9219 53.5156 30.9062
L53.5156 0
L44.4844 0
L44.4844 32.7188
Q44.4844 40.625 41.7031 44.4062
Q38.9219 48.1875 33.1094 48.1875
Q26.2188 48.1875 22.1562 43.5312
Q18.1094 38.875 18.1094 30.9062
L18.1094 0
L9.07812 0
L9.07812 54.6875
L18.1094 54.6875
L18.1094 46.1875
Q21.1875 51.2188 25.4844 53.6094
Q29.7812 56 35.6875 56
Q41.6562 56 45.8281 52.9688
Q50 49.9531 52 44.1875" id="BitstreamVeraSans-Roman-6d"/>
      <path d="
M9.07812 75.9844
L18.1094 75.9844
L18.1094 31.1094
L44.9219 54.6875
L56.3906 54.6875
L27.3906 29.1094
L57.625 0
L45.9062 0
L18.1094 26.7031
L18.1094 0
L9.07812 0
z
" id="BitstreamVeraSans-Roman-6b"/>
      <path d="
M53.5156 70.5156
L53.5156 60.8906
Q47.9062 63.5781 42.9219 64.8906
Q37.9375 66.2188 33.2969 66.2188
Q25.25 66.2188 20.875 63.0938
Q16.5 59.9688 16.5 54.2031
Q16.5 49.3594 19.4062 46.8906
Q22.3125 44.4375 30.4219 42.9219
L36.375 41.7031
Q47.4062 39.5938 52.6562 34.2969
Q57.9062 29 57.9062 20.125
Q57.9062 9.51562 50.7969 4.04688
Q43.7031 -1.42188 29.9844 -1.42188
Q24.8125 -1.42188 18.9688 -0.25
Q13.1406 0.921875 6.89062 3.21875
L6.89062 13.375
Q12.8906 10.0156 18.6562 8.29688
Q24.4219 6.59375 29.9844 6.59375
Q38.4219 6.59375 43.0156 9.90625
Q47.6094 13.2344 47.6094 19.3906
Q47.6094 24.75 44.3125 27.7812
Q41.0156 30.8125 33.5 32.3281
L27.4844 33.5
Q16.4531 35.6875 11.5156 40.375
Q6.59375 45.0625 6.59375 53.4219
Q6.59375 63.0938 13.4062 68.6562
Q20.2188 74.2188 32.1719 74.2188
Q37.3125 74.2188 42.625 73.2812
Q47.9531 72.3594 53.5156 70.5156" id="BitstreamVeraSans-Roman-53"/>
      <path d="
M9.42188 54.6875
L18.4062 54.6875
L18.4062 0
L9.42188 0
z

M9.42188 75.9844
L18.4062 75.9844
L18.4062 64.5938
L9.42188 64.5938
z
" id="BitstreamVeraSans-Roman-69"/>
      <path d="
M54.8906 33.0156
L54.8906 0
L45.9062 0
L45.9062 32.7188
Q45.9062 40.4844 42.875 44.3281
Q39.8438 48.1875 33.7969 48.1875
Q26.5156 48.1875 22.3125 43.5469
Q18.1094 38.9219 18.1094 30.9062
L18.1094 0
L9.07812 0
L9.07812 75.9844
L18.1094 75.9844
L18.1094 46.1875
Q21.3438 51.125 25.7031 53.5625
Q30.0781 56 35.7969 56
Q45.2188 56 50.0469 50.1719
Q54.8906 44.3438 54.8906 33.0156" id="BitstreamVeraSans-Roman-68"/>
      <path d="
M4.20312 54.6875
L13.1875 54.6875
L24.4219 12.0156
L35.5938 54.6875
L46.1875 54.6875
L57.4219 12.0156
L68.6094 54.6875
L77.5938 54.6875
L63.2812 0
L52.6875 0
L40.9219 44.8281
L29.1094 0
L18.5 0
z
" id="BitstreamVeraSans-Roman-77"/>
      <path d="
M34.2812 27.4844
Q23.3906 27.4844 19.1875 25
Q14.9844 22.5156 14.9844 16.5
Q14.9844 11.7188 18.1406 8.90625
Q21.2969 6.10938 26.7031 6.10938
Q34.1875 6.10938 38.7031 11.4062
Q43.2188 16.7031 43.2188 25.4844
L43.2188 27.4844
z

M52.2031 31.2031
L52.2031 0
L43.2188 0
L43.2188 8.29688
Q40.1406 3.32812 35.5469 0.953125
Q30.9531 -1.42188 24.3125 -1.42188
Q15.9219 -1.42188 10.9531 3.29688
Q6 8.01562 6 15.9219
Q6 25.1406 12.1719 29.8281
Q18.3594 34.5156 30.6094 34.5156
L43.2188 34.5156
L43.2188 35.4062
Q43.2188 41.6094 39.1406 45
Q35.0625 48.3906 27.6875 48.3906
Q23 48.3906 18.5469 47.2656
Q14.1094 46.1406 10.0156 43.8906
L10.0156 52.2031
Q14.9375 54.1094 19.5781 55.0469
Q24.2188 56 28.6094 56
Q40.4844 56 46.3438 49.8438
Q52.2031 43.7031 52.2031 31.2031" id="BitstreamVeraSans-Roman-61"/>
      <path d="
M44.2812 53.0781
L44.2812 44.5781
Q40.4844 46.5312 36.375 47.5
Q32.2812 48.4844 27.875 48.4844
Q21.1875 48.4844 17.8438 46.4375
Q14.5 44.3906 14.5 40.2812
Q14.5 37.1562 16.8906 35.375
Q19.2812 33.5938 26.5156 31.9844
L29.5938 31.2969
Q39.1562 29.25 43.1875 25.5156
Q47.2188 21.7812 47.2188 15.0938
Q47.2188 7.46875 41.1875 3.01562
Q35.1562 -1.42188 24.6094 -1.42188
Q20.2188 -1.42188 15.4531 -0.5625
Q10.6875 0.296875 5.42188 2
L5.42188 11.2812
Q10.4062 8.6875 15.2344 7.39062
Q20.0625 6.10938 24.8125 6.10938
Q31.1562 6.10938 34.5625 8.28125
Q37.9844 10.4531 37.9844 14.4062
Q37.9844 18.0625 35.5156 20.0156
Q33.0625 21.9688 24.7031 23.7812
L21.5781 24.5156
Q13.2344 26.2656 9.51562 29.9062
Q5.8125 33.5469 5.8125 39.8906
Q5.8125 47.6094 11.2812 51.7969
Q16.75 56 26.8125 56
Q31.7812 56 36.1719 55.2656
Q40.5781 54.5469 44.2812 53.0781" id="BitstreamVeraSans-Roman-73"/>
      <path d="
M18.1094 8.20312
L18.1094 -20.7969
L9.07812 -20.7969
L9.07812 54.6875
L18.1094 54.6875
L18.1094 46.3906
Q20.9531 51.2656 25.2656 53.625
Q29.5938 56 35.5938 56
Q45.5625 56 51.7812 48.0938
Q58.0156 40.1875 58.0156 27.2969
Q58.0156 14.4062 51.7812 6.48438
Q45.5625 -1.42188 35.5938 -1.42188
Q29.5938 -1.42188 25.2656 0.953125
Q20.9531 3.32812 18.1094 8.20312
M48.6875 27.2969
Q48.6875 37.2031 44.6094 42.8438
Q40.5312 48.4844 33.4062 48.4844
Q26.2656 48.4844 22.1875 42.8438
Q18.1094 37.2031 18.1094 27.2969
Q18.1094 17.3906 22.1875 11.75
Q26.2656 6.10938 33.4062 6.10938
Q40.5312 6.10938 44.6094 11.75
Q48.6875 17.3906 48.6875 27.2969" id="BitstreamVeraSans-Roman-70"/>
     </defs>
     <g transform="translate(170.022375 414.86175)scale(0.144 -0.144)">
      <use xlink:href="#BitstreamVeraSans-Roman-53"/>
      <use x="63.4765625" xlink:href="#BitstreamVeraSans-Roman-63"/>
      <use x="118.45703125" xlink:href="#BitstreamVeraSans-Roman-68"/>
      <use x="181.8359375" xlink:href="#BitstreamVeraSans-Roman-77"/>
      <use x="263.623046875" xlink:href="#BitstreamVeraSans-Roman-61"/>
      <use x="324.90234375" xlink:href="#BitstreamVeraSans-Roman-72"/>
      <use x="366.015625" xlink:href="#BitstreamVeraSans-Roman-7a"/>
      <use x="418.505859375" xlink:href="#BitstreamVeraSans-Roman-6d"/>
      <use x="515.91796875" xlink:href="#BitstreamVeraSans-Roman-61"/>
      <use x="577.197265625" xlink:href="#BitstreamVeraSans-Roman-72"/>
      <use x="618.310546875" xlink:href="#BitstreamVeraSans-Roman-6b"/>
      <use x="676.220703125" xlink:href="#BitstreamVeraSans-Roman-74"/>
      <use x="715.4296875" xlink:href="#BitstreamVeraSans-Roman-70"/>
      <use x="778.90625" xlink:href="#BitstreamVeraSans-Roman-72"/>
      <use x="817.76953125" xlink:href="#BitstreamVeraSans-Roman-65"/>
      <use x="879.29296875" xlink:href="#BitstreamVeraSans-Roman-69"/>
      <use x="907.076171875" xlink:href="#BitstreamVeraSans-Roman-73"/>
     </g>
    </g>
    <g id="line2d_31">
     <path d="
M339.609 409.822
L359.769 409.822" style="fill:none;stroke:#008000;stroke-linecap:square;"/>
    </g>
    <g id="line2d_32"/>
    <g id="text_16">
     <!-- Normalpreis -->
     <g transform="translate(375.609375 414.86175)scale(0.144 -0.144)">
      <use xlink:href="#BitstreamVeraSans-Roman-4e"/>
      <use x="74.8046875" xlink:href="#BitstreamVeraSans-Roman-6f"/>
      <use x="135.986328125" xlink:href="#BitstreamVeraSans-Roman-72"/>
      <use x="175.349609375" xlink:href="#BitstreamVeraSans-Roman-6d"/>
      <use x="272.76171875" xlink:href="#BitstreamVeraSans-Roman-61"/>
      <use x="334.041015625" xlink:href="#BitstreamVeraSans-Roman-6c"/>
      <use x="361.82421875" xlink:href="#BitstreamVeraSans-Roman-70"/>
      <use x="425.30078125" xlink:href="#BitstreamVeraSans-Roman-72"/>
      <use x="464.1640625" xlink:href="#BitstreamVeraSans-Roman-65"/>
      <use x="525.6875" xlink:href="#BitstreamVeraSans-Roman-69"/>
      <use x="553.470703125" xlink:href="#BitstreamVeraSans-Roman-73"/>
     </g>
    </g>
   </g>
  </g>
 </g>
 <defs>
  <clipPath id="pcb2bf987bf">
   <rect height="302.4" width="446.4" x="72.0" y="43.2"/>
  </clipPath>
 </defs>
</svg>
