<?xml version="1.0" encoding="utf-8" standalone="no"?>
<!DOCTYPE svg PUBLIC "-//W3C//DTD SVG 1.1//EN"
  "http://www.w3.org/Graphics/SVG/1.1/DTD/svg11.dtd">
<!-- Created with matplotlib (http://matplotlib.org/) -->
<svg height="432pt" version="1.1" viewBox="0 0 576 432" width="576pt" xmlns="http://www.w3.org/2000/svg" xmlns:xlink="http://www.w3.org/1999/xlink">
 <defs>
  <style type="text/css">
*{stroke-linecap:butt;stroke-linejoin:round;}
  </style>
 </defs>
 <g id="figure_1">
  <g id="patch_1">
   <path d="
M0 432
L576 432
L576 0
L0 0
z
" style="fill:#ffffff;"/>
  </g>
  <g id="axes_1">
   <g id="patch_2">
    <path d="
M72 345.6
L518.4 345.6
L518.4 43.2
L72 43.2
z
" style="fill:#ffffff;"/>
   </g>
   <g id="line2d_1">
    <path clip-path="url(#pcb2bf987bf)" d="
M72 138.065
L72.1276 136.841
L72.5105 136.802
L72.7657 135.567
L72.8933 134.328
L73.2762 134.323
L73.659 130.566
L74.0419 130.566
L74.2971 131.538
L74.6799 131.538
L74.8075 130.149
L75.4456 130.147
L75.5732 130.678
L75.9561 130.678
L76.2113 128.88
L76.3389 128.88
L76.5942 130.045
L76.7218 130.045
L77.3599 127.563
L77.7429 119.646
L78.2532 119.645
L78.5084 118.271
L78.636 119.588
L78.8915 120.957
L79.0189 120.958
L79.2741 126.193
L79.4017 126.167
L79.6569 124.793
L79.7846 124.793
L80.0398 126.11
L80.1674 127.47
L80.5503 127.228
L80.9331 127.276
L81.316 127.563
L81.6988 127.562
L81.9542 126.28
L82.0816 126.28
L82.3371 124.992
L82.4645 124.992
L82.7197 123.699
L82.8473 123.699
L83.1026 122.402
L83.2302 123.699
L83.4854 122.402
L83.613 122.402
L83.8683 124.992
L83.9959 124.944
L84.3787 124.992
L84.6342 126.28
L85.017 127.557
L85.5273 127.557
L85.9101 127.256
L86.1654 127.256
L86.293 127.519
L86.6758 127.518
L86.931 126.241
L87.0587 127.519
L87.3139 126.28
L87.8244 126.274
L88.0796 124.987
L88.2072 126.273
L88.4624 126.275
L88.5901 125.818
L88.9729 126.279
L89.2281 124.991
L89.3557 123.699
L89.7386 123.663
L89.9938 123.874
L89.9938 123.874
L90.3767 123.874
L91.0148 124.987
L92.5461 124.992
L92.6738 138.064
L93.3118 138.064
L94.0775 176.444
L94.2051 173.324
L94.9708 169.558
L95.6089 169.509
L95.7365 168.973
L96.3746 165.378
L97.1403 163.724
L97.906 160.289
L98.0336 158.72
L98.6717 153.277
L98.7993 150.964
L99.4374 152.125
L100.969 149.612
L101.734 152.125
L101.862 152.125
L102.5 151.891
L103.393 151.867
L104.032 151.673
L104.797 146.966
L105.563 147.202
L106.329 146.998
L107.095 151.745
L107.86 151.556
L107.988 148.952
L108.626 148.854
L110.285 148.796
L110.923 146.235
L111.05 146.235
L111.689 145.049
L111.816 145.049
L113.986 142.075
L114.879 146.395
L116.41 147.575
L117.048 140.408
L117.942 139.135
L118.58 137.229
L121.643 137.229
L122.408 134.761
L122.536 135.999
L123.174 133.516
L123.94 135.736
L124.067 136.51
L124.705 136.972
L125.471 137.229
L126.109 136
L127.13 136
L127.13 136
L127.64 137.236
L127.64 137.236
L127.768 139.178
L128.534 137.963
L128.661 139.183
L129.299 139.183
L130.065 139.907
L130.193 138.687
L130.831 139.907
L131.597 140.155
L132.362 143.086
L132.362 143.086
L133.894 138.245
L134.149 139.465
L134.659 140.398
L135.425 136.734
L136.191 141.855
L136.318 141.856
L136.956 139.183
L137.722 139.183
L138.488 140.398
L139.254 141.365
L139.381 141.856
L140.019 141.885
L141.551 144.188
L141.678 144.188
L142.316 142.758
L143.082 142.758
L143.848 141.555
L143.975 140.345
L145.379 137.871
L145.507 136.641
L146.145 131.597
L146.272 131.597
L146.91 130.814
L147.038 129.512
L147.676 129.118
L148.442 125.95
L149.208 127.845
L149.335 127.845
L149.973 135.342
L151.505 135.407
L152.27 134.168
L153.036 140.299
L153.164 137.604
L153.802 135.052
L154.567 135.14
L155.333 135.11
L155.333 135.11
L156.099 132.428
L156.865 133.594
L157.63 133.317
L157.758 133.594
L158.396 135.538
L159.162 135.441
L159.927 136.345
L160.821 137.6
L162.224 139.081
L163.118 140.299
L163.756 139.081
L163.883 139.081
L164.521 141.025
L164.649 141.025
L165.287 145.161
L167.712 145.209
L168.35 151.964
L169.116 150.905
L169.243 148.568
L169.881 145.258
L170.647 143.314
L170.775 144.067
L171.413 140.461
L172.178 140.159
L172.944 140.155
L173.072 138.93
L173.71 137.706
L174.603 138.93
L176.007 138.697
L176.773 138.945
L176.9 137.725
L177.538 138.945
L178.304 138.945
L179.07 137.72
L179.835 137.711
L179.963 137.103
L180.729 137.229
L182.132 137.229
L182.26 136
L182.898 140.16
L183.664 140.16
L183.791 140.399
L184.43 140.155
L185.195 138.158
L185.961 140.592
L187.492 140.589
L188.258 129.901
L189.024 137.229
L189.151 136
L190.555 134.488
L191.321 135.733
L191.321 135.733
L192.852 133.515
L194.384 133.515
L195.149 132.69
L195.277 131.436
L195.915 130.178
L196.681 132.69
L198.212 133.857
L198.212 133.857
L198.978 132.69
L200.509 133.516
L201.275 139.232
L202.04 135.538
L202.806 141.657
L203.572 138.454
L203.699 136
L204.338 130.041
L205.231 128.773
L205.869 132.267
L205.997 134.566
L206.124 134.565
L206.507 132.371
L206.635 132.37
L206.635 132.37
L206.762 129.852
L207.4 131.116
L207.911 131.794
L208.166 130.537
L208.804 129.273
L209.059 129.273
L209.059 129.273
L209.442 130.537
L209.57 134.565
L209.825 132.054
L210.846 132.054
L211.356 133.303
L211.484 133.302
L211.739 131.767
L211.867 133.021
L212.25 132.621
L212.505 132.62
L212.633 133.298
L212.888 136.509
L213.654 136.508
L213.654 136.508
L213.781 134.036
L214.036 135.276
L214.164 135.276
L214.419 136.508
L214.547 136.508
L214.802 138.453
L214.93 138.453
L215.185 136.972
L215.185 136.972
L216.333 136.972
L216.461 135.737
L216.589 136.971
L216.589 136.971
L216.844 136.967
L217.099 138.453
L217.227 138.453
L217.61 138.779
L217.865 137.482
L217.992 137.482
L218.248 136.253
L218.248 136.253
L218.375 133.594
L218.631 138.357
L219.013 135.903
L219.396 135.903
L219.779 134.42
L220.29 134.42
L220.29 134.42
L220.417 130.678
L220.545 134.284
L220.672 134.284
L220.672 134.284
L221.055 135.852
L221.31 135.903
L221.438 134.566
L221.693 133.322
L222.076 134.566
L222.204 134.566
L222.459 130.814
L222.587 130.814
L222.842 133.321
L222.842 133.321
L223.225 133.273
L223.352 134.518
L223.99 134.518
L224.118 134.245
L224.373 133.273
L224.501 133.273
L224.756 132.024
L225.139 132.024
L225.267 130.717
L225.522 130.717
L226.032 125.527
L226.032 125.527
L226.16 126.907
L226.16 126.907
L226.288 126.907
L226.415 128.185
L226.415 128.185
L226.67 126.907
L226.798 131.976
L227.181 131.976
L227.436 133.633
L227.436 133.633
L227.819 133.074
L227.946 133.633
L228.202 130.323
L228.329 130.322
L228.585 129.06
L228.712 130.323
L228.967 131.582
L229.095 131.553
L229.35 130.323
L229.478 130.323
L229.733 129.06
L229.861 94.71
L230.116 127.787
L230.499 127.787
L230.499 127.787
L230.882 129.06
L231.392 129.06
L231.647 130.323
L231.775 131.582
L232.03 131.582
L232.158 130.323
L232.413 131.581
L232.541 131.581
L232.796 132.836
L232.796 132.836
L232.924 134.469
L233.179 129.415
L233.306 133.225
L233.689 133.225
L233.944 131.976
L234.072 131.976
L234.327 133.225
L234.327 133.225
L234.455 134.469
L234.71 135.752
L234.838 135.538
L235.093 135.537
L235.093 135.537
L235.221 134.299
L235.476 133.269
L235.603 133.268
L235.859 134.513
L235.859 134.513
L235.986 135.752
L236.369 135.83
L236.624 137.773
L236.752 137.773
L237.007 137.14
L237.135 137.14
L237.39 135.908
L237.518 135.908
L237.773 138.94
L239.815 138.94
L240.58 135.018
L240.963 137.745
L241.219 138.964
L241.346 140.787
L241.601 140.787
L241.729 139.572
L241.984 135.645
L242.75 135.538
L242.878 134.396
L243.133 134.396
L243.26 133.152
L243.516 134.396
L243.643 134.396
L243.898 135.635
L244.026 135.645
L244.281 137.482
L244.409 137.336
L244.664 137.335
L244.792 136.107
L245.047 139.232
L245.047 139.232
L245.175 136.787
L245.43 138.012
L245.557 138.012
L245.813 139.075
L246.323 139.037
L246.706 134.007
L246.961 132.758
L247.089 134.007
L247.344 132.758
L248.237 132.768
L248.493 129.969
L248.62 129.969
L248.876 131.227
L248.876 131.227
L249.003 131.227
L249.258 131.509
L249.641 130.251
L249.641 130.251
L250.024 130.251
L250.152 128.987
L250.407 130.251
L250.917 130.25
L251.173 128.987
L251.3 130.251
L251.555 128.987
L251.938 132.768
L252.321 132.767
L252.449 134.017
L252.832 134.017
L253.087 135.256
L253.597 135.256
L253.852 132.768
L254.363 132.728
L254.618 131.189
L254.746 131.189
L254.746 131.189
L255.001 129.93
L255.129 128.661
L255.129 128.661
L255.384 131.189
L255.511 131.189
L255.511 131.189
L255.767 132.728
L255.767 132.728
L256.66 132.729
L256.66 132.729
L256.915 133.594
L257.426 130.255
L257.681 130.255
L257.809 128.992
L258.064 130.255
L258.064 130.255
L258.447 128.992
L258.574 128.992
L258.702 130.255
L258.957 130.255
L259.212 132.486
L259.212 132.486
L259.595 132.486
L259.595 132.486
L259.723 132.768
L259.978 133.983
L260.106 133.983
L260.361 130.678
L260.744 132.733
L261.637 132.73
L262.02 129.92
L262.403 130.215
L262.658 128.948
L262.786 128.953
L263.041 132.72
L263.168 131.475
L263.424 132.729
L263.424 132.729
L263.551 131.475
L264.189 131.48
L264.189 131.48
L264.317 132.734
L264.572 132.733
L264.7 131.48
L265.083 131.48
L265.338 132.734
L265.466 131.193
L265.848 131.193
L266.104 126.406
L266.486 126.406
L266.614 127.685
L266.869 123.831
L266.997 125.123
L267.252 126.406
L267.38 123.831
L267.635 126.405
L267.763 126.405
L268.018 125.118
L268.401 125.118
L268.528 126.405
L268.911 126.405
L269.166 127.378
L269.294 127.378
L269.549 124.812
L269.677 124.811
L269.932 126.098
L270.06 120.923
L270.443 120.923
L270.698 125.818
L270.825 123.238
L271.081 123.238
L271.463 124.846
L271.846 125.817
L273.378 125.817
L273.378 125.817
L273.506 126.014
L275.037 126.099
L275.292 124.812
L275.802 124.812
L276.058 123.52
L276.568 123.486
L276.823 124.811
L276.951 124.811
L277.206 123.486
L277.334 120.915
L277.589 120.914
L277.717 119.986
L277.972 122.222
L277.972 122.222
L278.099 122.222
L278.355 124.81
L278.865 124.81
L279.12 122.222
L279.248 122.222
L279.503 123.52
L279.886 123.52
L280.014 124.811
L280.269 120.866
L280.269 120.866
L280.652 120.915
L280.779 128.958
L281.035 133.205
L281.035 133.205
L281.162 131.908
L281.417 131.854
L281.545 132.962
L281.801 130.45
L282.183 131.368
L282.311 123.709
L282.566 123.709
L282.694 125.002
L282.949 132.525
L283.077 132.525
L283.332 131.266
L283.459 131.266
L283.715 130.012
L283.842 131.271
L284.225 131.271
L284.48 130.012
L285.246 130.012
L285.374 131.271
L285.756 131.368
L286.012 128.841
L286.139 128.841
L286.395 130.109
L286.522 130.109
L286.777 128.841
L286.905 127.568
L287.671 127.568
L287.926 126.29
L288.692 126.289
L288.819 130.046
L289.457 130.084
L289.585 128.807
L289.84 128.807
L289.968 130.075
L290.351 130.076
L290.606 128.817
L290.733 128.817
L290.861 131.975
L291.116 131.975
L291.372 130.707
L291.499 129.444
L291.754 130.706
L292.137 130.706
L292.52 128.438
L292.52 128.438
L292.648 128.438
L293.031 126.572
L293.286 130.387
L293.286 130.387
L293.413 130.387
L293.669 129.415
L293.669 129.415
L293.796 128.146
L294.051 129.395
L294.051 129.395
L294.179 128.126
L294.562 128.126
L294.817 126.849
L294.817 126.849
L294.945 128.125
L295.2 126.849
L295.328 128.126
L295.966 128.122
L296.349 129.395
L296.476 128.132
L296.731 129.415
L296.859 125.58
L297.114 125.58
L297.242 124.292
L297.497 124.292
L297.625 125.58
L297.88 124.292
L298.008 124.292
L298.263 126.863
L298.39 126.863
L298.773 128.709
L299.028 127.41
L299.539 120.958
L299.794 120.958
L299.922 119.889
L300.177 120.861
L300.177 120.861
L300.56 116.9
L300.687 119.549
L300.943 118.232
L301.07 118.232
L301.326 120.86
L302.474 120.91
L302.474 120.91
L302.857 119.598
L303.112 122.805
L303.368 120.195
L303.623 118.878
L304.899 118.878
L305.154 117.556
L305.282 116.23
L305.664 116.23
L305.92 117.556
L306.813 117.459
L307.068 116.215
L307.068 116.215
L307.196 116.215
L307.451 113.537
L307.962 113.537
L308.217 103.816
L308.344 113.761
L308.6 117.556
L308.6 117.556
L308.727 121.444
L309.11 121.444
L309.365 120.959
L309.493 120.959
L309.748 121.492
L310.259 121.493
L310.514 120.181
L310.642 120.181
L310.897 121.493
L311.024 120.142
L311.28 120.141
L311.407 118.825
L312.045 118.825
L312.173 120.141
L312.428 118.771
L312.556 117.45
L312.811 116.118
L312.939 116.118
L313.194 117.45
L313.321 117.45
L313.577 120.088
L313.704 120.142
L313.96 121.444
L314.087 121.444
L314.342 120.074
L314.47 120.074
L314.725 121.385
L314.853 117.435
L315.108 119.986
L315.236 119.982
L315.491 121.384
L315.874 121.388
L316.257 120.079
L316.767 120.078
L317.022 117.44
L317.15 120.025
L317.405 118.708
L317.788 118.708
L317.916 117.386
L318.171 118.708
L318.298 120.025
L318.937 120.024
L319.064 121.492
L319.319 120.176
L319.319 120.176
L319.447 121.492
L319.702 120.181
L319.83 120.181
L320.085 121.444
L320.596 121.492
L320.851 118.869
L321.234 117.547
L321.361 120.186
L321.616 120.186
L321.999 121.493
L323.658 121.396
L323.914 119.646
L323.914 119.646
L325.19 119.646
L325.445 121.396
L325.573 121.396
L325.956 117.493
L326.211 117.493
L326.338 118.815
L326.976 121.444
L327.104 121.444
L327.359 120.958
L327.487 119.695
L327.742 119.695
L327.87 118.378
L328.125 119.695
L328.252 119.694
L328.508 118.869
L328.891 121.493
L329.018 121.493
L329.401 121.93
L329.656 120.623
L329.784 121.93
L330.039 119.311
L330.167 119.311
L330.422 120.623
L330.55 120.623
L330.805 121.833
L330.933 120.181
L331.188 118.864
L331.698 113.532
L331.953 114.874
L332.464 114.874
L332.719 113.532
L333.102 120.191
L333.23 121.498
L333.485 122.794
L333.868 122.757
L333.995 121.454
L334.25 120.142
L334.378 120.142
L334.633 118.825
L335.016 118.825
L335.144 120.142
L335.399 130.678
L336.292 130.678
L336.548 129.609
L336.675 128.297
L336.93 126.99
L337.058 122.577
L337.313 122.577
L337.441 124.419
L337.824 124.087
L338.079 124.098
L338.207 125.332
L338.462 125.235
L338.589 123.942
L338.845 125.184
L338.972 123.893
L339.355 123.888
L339.61 122.577
L340.504 122.576
L340.759 119.956
L342.418 119.957
L342.673 122.571
L343.056 122.56
L343.184 121.255
L343.566 121.254
L343.822 119.943
L343.822 119.943
L343.949 121.252
L344.204 122.558
L344.332 122.415
L344.588 91.7989
L344.715 109.878
L344.97 105.757
L345.098 105.757
L345.353 102.423
L345.353 102.423
L345.481 102.423
L345.736 97.6697
L345.863 99.1325
L346.119 97.7134
L346.246 99.1325
L346.502 91.7989
L346.629 102.005
L346.884 101.018
L346.884 101.018
L347.267 101.018
L347.395 102.423
L347.65 102.972
L347.778 104.367
L348.033 104.367
L348.161 107.137
L348.416 105.97
L348.543 106.379
L348.799 110.267
L348.926 110.267
L349.309 109.975
L349.564 111.336
L349.947 111.433
L350.075 111.53
L350.33 119.695
L350.458 119.695
L350.713 118.042
L350.84 118.378
L351.096 118.372
L351.224 117.046
L351.606 119.662
L351.861 119.662
L351.989 118.344
L352.244 117.017
L352.372 118.344
L352.755 118.334
L353.01 117.007
L353.138 115.676
L353.776 115.676
L353.776 115.676
L354.158 106.379
L354.286 114.241
L354.541 112.906
L354.669 112.993
L354.924 103.166
L355.052 103.385
L355.307 104.78
L355.307 104.78
L355.435 107.351
L355.69 104.58
L355.817 105.969
L356.073 105.969
L356.073 105.969
L356.2 110.267
L356.838 110.267
L356.966 107.53
L357.477 113.912
L358.497 113.91
L358.753 111.204
L360.412 111.173
L360.667 109.814
L360.795 102.038
L361.05 111.173
L361.56 111.167
L361.816 109.801
L361.943 108.434
L362.326 91.7998
L362.581 59.3997
L362.709 97.2702
L363.092 97.2702
L363.474 108.42
L363.73 111.166
L363.857 111.166
L364.24 114.155
L364.623 114.338
L365.006 114.338
L365.261 112.026
L365.389 114.155
L365.644 114.338
L365.772 113.965
L366.027 112.619
L366.027 112.619
L366.155 111.263
L366.41 106.379
L366.537 96.6588
L366.792 111.239
L366.92 111.239
L367.175 108.512
L367.303 108.512
L367.558 104.288
L368.324 104.288
L368.451 98.6028
L368.707 102.894
L369.472 100.08
L369.6 102.894
L369.983 102.893
L370.238 100.158
L370.366 102.893
L370.621 101.49
L370.749 104.211
L371.131 104.289
L371.387 101.49
L371.514 101.489
L371.769 100.08
L371.897 101.489
L372.152 100.08
L372.28 100.08
L372.535 101.489
L372.663 100.08
L372.918 101.489
L373.301 101.49
L373.428 100.08
L373.811 100.109
L374.067 103.461
L374.194 100.547
L374.449 103.462
L374.832 103.365
L374.96 104.289
L375.215 102.894
L375.598 102.879
L375.726 100.066
L375.981 97.2274
L376.108 98.6514
L376.364 98.6514
L376.491 101.475
L376.746 100.061
L376.874 100.061
L377.257 101.47
L378.661 101.465
L378.788 100.066
L379.171 100.066
L379.426 101.033
L379.554 101.033
L379.809 101.519
L379.937 100.109
L380.575 100.109
L380.703 91.7114
L381.086 101.519
L381.468 101.475
L381.851 97.0816
L382.489 100.066
L382.617 102.782
L383 100.542
L383.383 100.449
L383.638 100.449
L384.021 102.782
L384.148 102.491
L384.531 98.2528
L384.786 96.824
L385.169 104.508
L385.297 104.508
L385.552 105.407
L385.68 105.407
L385.935 104.576
L386.062 105.961
L386.445 105.892
L386.701 104.503
L386.828 104.435
L387.211 105.891
L387.849 105.892
L387.977 104.503
L388.232 105.893
L388.232 105.893
L388.36 104.508
L389.508 104.508
L389.763 105.893
L390.912 105.97
L391.039 101.363
L391.295 96.6588
L391.422 99.9538
L391.678 92.4987
L391.805 106.379
L392.06 106.379
L392.188 110.753
L392.571 110.845
L393.209 110.889
L393.337 111.237
L393.592 108.527
L393.719 108.512
L393.975 107.137
L394.485 107.137
L394.74 109.081
L394.868 111.253
L399.079 111.239
L399.335 91.9398
L399.462 104.994
L399.845 104.993
L400.1 103.56
L400.228 104.994
L400.483 106.379
L400.611 106.379
L400.866 104.983
L400.993 102.189
L401.249 110.753
L402.142 110.753
L402.397 111.253
L402.525 111.253
L402.78 109.284
L402.908 110.65
L403.291 110.651
L403.546 109.285
L403.673 111.253
L405.077 111.253
L405.205 108.512
L405.46 111.253
L405.588 111.253
L405.843 112.392
L406.226 118.572
L406.353 117.25
L406.609 119.841
L406.736 119.888
L406.991 136.734
L407.119 130.673
L407.374 126.863
L407.502 119.984
L407.757 125.527
L407.885 125.58
L408.14 120.958
L408.268 98.6902
L408.65 108.702
L408.906 110.067
L409.033 110.067
L409.289 106.33
L409.416 106.359
L409.671 107.351
L409.799 110.067
L410.054 120.374
L410.182 120.374
L410.437 119.058
L410.82 114.762
L410.948 117.581
L411.203 117.736
L411.33 117.556
L411.713 117.735
L412.351 117.735
L412.607 120.365
L413.627 120.365
L413.883 119.048
L414.01 119.048
L414.266 120.374
L414.393 120.127
L414.648 118.81
L415.542 118.81
L415.797 120.126
L415.925 118.81
L416.563 118.81
L416.69 117.488
L416.945 117.488
L417.073 116.157
L417.711 116.157
L417.839 119.986
L418.222 119.889
L418.477 119.014
L418.604 119.014
L418.86 116.366
L418.987 117.693
L419.243 119.014
L419.37 119.014
L419.625 114.043
L419.753 115.383
L420.136 115.374
L420.391 114.043
L420.519 114.043
L420.902 111.345
L421.284 99.5747
L421.54 111.661
L421.667 110.301
L421.922 110.301
L422.05 115.384
L422.305 116.356
L422.433 116.356
L422.688 116.716
L422.816 115.384
L423.071 116.098
L423.964 116.098
L424.22 114.762
L424.347 114.762
L424.602 116.098
L424.73 116.097
L424.985 113.046
L425.113 113.046
L425.368 114.393
L425.496 115.962
L425.751 113.399
L425.879 114.626
L426.134 109.868
L426.261 109.867
L426.517 114.626
L426.899 111.239
L427.282 108.512
L427.41 109.878
L427.665 109.878
L428.048 105.757
L428.176 109.878
L428.431 111.929
L428.558 111.831
L428.814 110.476
L428.941 100.61
L429.197 115.903
L429.579 113.78
L429.707 111.078
L429.962 111.078
L430.09 113.78
L430.345 111.501
L430.473 112.852
L430.728 114.198
L431.238 114.198
L431.494 112.852
L431.621 112.852
L431.877 114.198
L432.004 114.198
L432.259 112.852
L433.153 112.851
L433.408 111.496
L433.536 112.85
L433.791 110.855
L434.301 110.855
L434.556 109.494
L434.939 112.85
L435.45 112.852
L435.705 114.198
L435.833 115.903
L436.215 109.353
L436.471 107.982
L436.598 107.982
L436.854 106.607
L437.236 106.607
L437.364 107.982
L437.619 109.295
L437.747 107.343
L438.002 109.295
L438.13 109.29
L438.513 107.827
L438.768 109.197
L439.151 109.295
L439.533 107.924
L439.661 109.353
L439.916 109.353
L440.044 107.982
L440.299 107.981
L440.299 107.981
L440.427 101.519
L440.682 107.981
L441.065 105.217
L441.575 105.216
L441.831 103.827
L441.831 103.827
L441.958 103.826
L442.341 102.063
L442.596 103.826
L442.724 103.826
L442.979 99.5747
L443.107 100.109
L443.49 100.109
L443.745 103.826
L443.872 102.428
L444.128 101.519
L444.255 101.519
L444.51 100.109
L444.638 100.109
L444.893 98.6951
L445.021 100.109
L445.659 100.108
L446.042 101.517
L446.169 101.518
L446.552 107.875
L446.935 107.492
L447.318 107.492
L447.573 105.703
L447.701 107.083
L447.956 107.083
L448.084 108.711
L448.339 107.438
L448.467 108.809
L448.849 101.519
L449.232 104.994
L449.487 103.604
L449.487 103.604
L450.764 103.599
L451.146 103.463
L451.785 103.463
L451.912 91.7989
L452.295 104.994
L452.933 104.984
L453.061 103.594
L453.316 104.984
L453.826 104.994
L454.082 109.197
L454.465 109.295
L454.592 110.267
L454.847 101.519
L454.847 101.519
L454.975 109.873
L455.23 108.507
L455.358 111.234
L455.613 113.78
L455.741 111.237
L456.123 111.239
L456.379 115.124
L456.506 113.78
L456.762 115.029
L456.889 115.029
L457.144 113.771
L457.272 100.756
L457.655 113.183
L458.038 113.177
L458.803 105.946
L459.059 107.326
L459.186 109.104
L459.442 101.519
L459.569 111.725
L459.952 111.827
L460.207 110.471
L460.335 108.512
L460.59 107.137
L461.101 107.137
L461.356 108.42
L461.484 108.016
L461.866 94.7877
L462.121 106.639
L462.632 106.639
L462.887 101.519
L463.015 106.379
L463.398 106.379
L463.653 103.604
L464.163 103.604
L464.546 106.281
L464.801 106.379
L464.929 106.639
L465.312 106.379
L465.95 106.379
L466.078 104.994
L466.333 106.379
L466.46 104.576
L466.716 106.379
L467.226 106.379
L467.481 104.994
L467.992 104.989
L468.247 103.599
L468.63 102.199
L468.757 102.199
L469.013 100.795
L469.14 103.599
L469.396 102.199
L469.523 100.795
L469.906 106.379
L470.161 104.994
L470.289 104.994
L470.544 106.379
L470.672 106.379
L470.927 104.994
L471.055 104.994
L471.31 104.154
L472.075 104.156
L472.203 102.758
L472.458 102.758
L472.586 104.994
L472.969 104.994
L473.224 106.379
L473.352 106.379
L473.607 104.994
L473.734 104.994
L473.99 101.519
L474.118 106.639
L474.373 101.032
L474.5 102.466
L474.883 108.322
L475.138 106.947
L475.266 108.322
L476.032 108.419
L476.287 102.6
L476.414 108.419
L476.67 108.42
L476.797 113.722
L477.052 112.969
L477.18 113.348
L477.946 113.348
L478.201 110.471
L478.329 110.471
L478.584 111.827
L478.967 105.407
L479.094 107.233
L479.35 105.854
L479.477 105.854
L479.732 107.233
L479.86 105.849
L480.115 107.234
L480.243 107.234
L480.498 108.609
L480.626 108.609
L481.009 109.003
L481.647 109.003
L481.774 110.369
L482.157 110.47
L482.412 111.239
L482.54 101.519
L482.795 110.47
L483.178 110.466
L483.306 101.52
L483.561 111.822
L483.689 99.3318
L483.944 110.159
L484.071 110.265
L484.327 110.262
L484.454 111.218
L484.709 108.493
L485.092 108.493
L485.22 107.117
L485.475 109.858
L485.986 109.465
L486.368 109.858
L486.624 111.224
L486.751 109.863
L487.007 108.498
L487.134 107.122
L487.389 107.122
L487.517 108.498
L488.921 108.498
L489.048 107.122
L489.304 108.498
L489.431 108.498
L489.686 104.765
L490.069 104.765
L490.197 108.323
L490.452 108.483
L490.58 107.108
L490.835 107.108
L490.963 108.483
L491.345 108.483
L491.601 107.108
L491.728 108.498
L491.984 108.498
L492.366 105.407
L492.494 105.407
L492.749 105.969
L492.877 104.585
L493.132 105.97
L493.26 107.351
L493.515 108.497
L494.026 108.498
L494.281 111.139
L494.408 111.139
L494.663 109.679
L495.046 109.581
L495.429 104.585
L495.557 107.351
L495.94 107.341
L496.322 103.604
L496.705 103.604
L496.961 102.204
L497.088 102.204
L497.343 99.3862
L497.471 99.3862
L497.726 97.9661
L497.854 97.9661
L498.109 96.5373
L498.62 96.5373
L498.875 95.6868
L499.002 95.6868
L499.258 96.5373
L499.258 96.5373
L499.385 96.5373
L499.64 100.547
L499.768 99.1325
L500.023 97.7134
L500.151 100.173
L500.534 100.542
L501.299 100.547
L501.555 97.7134
L501.682 97.7134
L501.938 104.007
L502.065 104.007
L502.32 102.588
L502.448 105.407
L502.703 106.378
L503.086 104.07
L503.214 101.271
L503.597 107.156
L503.852 105.961
L503.979 104.576
L504.362 104.576
L504.617 103.181
L505.511 103.181
L505.766 104.576
L505.894 103.181
L506.149 104.576
L506.277 104.576
L506.532 107.34
L506.659 105.951
L506.915 107.331
L507.68 107.331
L507.808 105.951
L508.829 105.893
L509.339 105.407
L509.595 105.538
L509.722 107.326
L510.871 107.351
L511.509 104.017
L511.636 105.97
L511.892 106.379
L512.019 105.873
L512.274 107.254
L512.402 105.873
L512.657 107.254
L512.785 105.406
L513.04 105.407
L513.168 102.622
L513.423 93.7428
L513.806 102.491
L513.933 101.217
L514.189 102.491
L514.317 99.808
L515.082 99.8071
L515.465 94.0928
L515.72 94.0928
L515.848 99.7691
L516.103 99.8071
L516.231 98.3889
L516.486 99.8071
L516.613 99.5747
L516.996 90.3409
L517.251 90.8998
L517.379 99.5728
L517.762 99.5728
L518.017 98.1556
L518.145 98.1556
L518.4 99.5728
L518.4 99.5728" style="fill:none;stroke:#ff0000;stroke-linecap:square;"/>
   </g>
   <g id="line2d_2">
    <path clip-path="url(#pcb2bf987bf)" d="
M72 326.609
L72.1276 327.408
L72.7657 327.408
L72.8933 327.235
L73.5314 327.235
L73.659 326.379
L74.2971 326.379
L74.4247 326.518
L75.0628 326.518
L75.1904 325.792
L75.8285 325.792
L75.9561 326.067
L76.5942 326.067
L76.7218 325.718
L77.3599 325.718
L77.7429 324.374
L78.1256 324.374
L78.1256 324.374
L78.2532 324.488
L78.8915 324.488
L79.0189 325.318
L79.6569 325.318
L79.7846 323.823
L80.4226 323.823
L80.5503 324.628
L81.1885 324.628
L81.316 326.813
L81.9542 326.813
L82.0816 326.642
L82.7197 326.642
L82.8473 325.621
L83.4854 325.621
L83.613 325.881
L84.2511 325.881
L84.3787 326.448
L85.017 326.448
L85.1444 326.989
L85.7825 326.989
L85.9101 325.784
L86.5482 325.784
L86.6758 326.428
L87.3139 326.428
L87.4415 327.002
L88.0796 327.002
L88.2072 325.065
L88.8453 325.065
L88.8453 325.065
L88.9729 326.807
L89.611 326.807
L89.7386 326.505
L90.3767 326.505
L91.0148 327.257
L92.6738 328.288
L93.3118 330.416
L94.2051 329.8
L94.8432 326.007
L94.9708 326.007
L95.6089 324.775
L95.7365 324.775
L96.3746 324.013
L97.906 318.534
L98.0336 318.534
L98.7993 318.886
L99.4374 315.672
L100.331 317.001
L100.969 317.408
L101.862 317.023
L102.5 317.51
L104.032 315.518
L104.797 316.222
L105.563 315.754
L106.329 316.95
L107.095 316.123
L107.86 318.831
L108.626 318.831
L110.157 319.725
L110.285 319.725
L111.05 319.071
L111.816 319.128
L113.986 322.967
L114.879 321.531
L116.41 323.34
L117.048 322.509
L118.58 319.979
L118.707 319.979
L119.345 319.406
L120.111 319.416
L120.877 317.897
L121.004 317.897
L121.643 318.942
L122.536 319.579
L123.174 318.51
L124.067 318.638
L124.705 318.89
L125.471 319.68
L126.237 320.681
L126.237 320.681
L126.365 320.681
L127.13 320.196
L127.13 320.196
L127.768 319.926
L128.661 321.272
L129.299 321.777
L130.193 321.853
L130.831 322.384
L131.597 323.555
L132.362 325.543
L132.362 325.543
L134.149 326.709
L135.425 326.669
L136.318 326.265
L136.956 327.958
L137.722 327.554
L138.488 327.01
L139.381 326.787
L140.019 327.68
L141.551 328.39
L141.678 328.39
L142.316 328.522
L143.082 327.53
L143.848 325.957
L143.975 325.957
L144.613 326.215
L145.507 326.771
L146.272 325.649
L147.038 324.657
L147.676 323.151
L148.442 324.155
L149.335 323.278
L149.973 324.551
L150.867 324.545
L151.505 326.532
L152.27 326.805
L153.802 326.779
L154.567 326.987
L155.333 325.789
L155.333 325.789
L156.099 325.022
L156.865 324.688
L157.758 324.688
L158.396 325.034
L159.162 325.092
L159.927 325.671
L160.693 327.282
L160.821 327.282
L162.224 329.427
L163.118 328.824
L163.883 329.418
L164.649 329.281
L165.287 329.266
L166.053 330.129
L166.819 326.635
L167.712 325.57
L168.35 324.277
L169.243 323.321
L169.881 322.849
L170.775 321.854
L171.413 323.798
L172.178 324.326
L172.944 322.186
L173.072 322.186
L174.475 321.998
L176.007 322.102
L177.538 322.862
L178.304 322.921
L179.07 321.856
L179.963 322.294
L180.729 322.225
L181.367 323.862
L182.26 323.478
L182.898 323.719
L183.791 325.033
L184.43 325.638
L185.195 325.716
L185.961 325.27
L186.727 325.796
L187.492 326.134
L188.258 325.606
L189.151 326.28
L190.555 323.24
L191.321 323.578
L191.321 323.578
L192.852 323.897
L193.618 323.859
L194.384 323.432
L195.277 322.709
L195.915 320.89
L196.681 320.924
L198.212 321.741
L198.212 321.741
L198.978 322.478
L200.509 323.531
L201.275 323.179
L202.04 324.434
L202.806 325.109
L203.572 326.964
L203.699 326.964
L205.103 322.644
L205.231 322.644
L205.997 323.416
L206.124 324.724
L206.762 324.724
L207.4 323.315
L207.911 325.394
L208.166 325.394
L209.059 325.253
L209.059 325.253
L209.57 325.835
L209.825 325.835
L210.591 324.896
L211.356 324.845
L211.484 326.053
L212.122 326.053
L212.25 325.652
L212.888 325.652
L213.271 329.086
L213.654 329.086
L213.654 329.086
L213.781 328.634
L215.185 328.629
L215.185 328.629
L215.313 328.174
L215.951 328.174
L215.951 328.174
L216.078 328.35
L216.589 328.35
L216.589 328.35
L216.844 328.561
L217.482 328.561
L217.482 328.561
L217.61 329.919
L218.248 329.919
L218.248 329.919
L218.375 329.307
L219.013 329.307
L219.141 328.568
L219.779 328.568
L219.907 328.192
L220.545 328.192
L220.672 327.946
L220.672 327.946
L221.31 327.946
L221.438 328.7
L222.076 328.7
L222.204 328.142
L222.842 328.142
L222.842 328.142
L223.352 327.711
L223.608 327.711
L223.735 327.837
L224.373 327.837
L224.501 326.557
L225.139 326.557
L225.267 327.018
L225.905 327.018
L225.905 327.018
L226.032 327.479
L226.032 327.479
L226.67 327.479
L226.798 326.639
L227.436 326.639
L227.436 326.639
L227.946 327.219
L228.202 327.219
L228.329 326.26
L228.967 326.26
L229.095 326.557
L229.733 326.557
L229.861 325.529
L231.264 325.49
L231.264 325.49
L231.392 326.286
L232.03 326.286
L232.158 327.07
L232.796 327.07
L232.796 327.07
L232.924 328.31
L233.562 328.31
L233.689 328.874
L234.327 328.874
L234.327 328.874
L234.455 329.163
L235.093 329.163
L235.093 329.163
L235.221 328.958
L235.859 328.958
L235.859 328.958
L235.986 329.379
L236.624 329.379
L236.752 330.005
L238.921 330.035
L239.049 326.904
L239.687 326.904
L239.815 327.423
L240.453 327.423
L240.453 327.423
L240.58 324.668
L241.219 324.668
L241.346 326.373
L241.984 326.373
L242.112 325.24
L242.75 325.24
L242.878 324.617
L243.516 324.617
L243.643 324.978
L244.281 324.978
L244.409 326.521
L246.578 326.427
L246.578 326.427
L246.706 323.937
L247.344 323.937
L247.855 323.427
L248.493 323.565
L248.876 323.565
L248.876 323.565
L249.003 322.807
L249.641 322.807
L249.641 322.807
L249.769 323.142
L250.407 323.142
L250.534 322.881
L251.173 322.881
L251.3 323.008
L251.938 323.008
L252.066 323.79
L252.704 323.79
L252.832 324.704
L253.47 324.704
L253.597 325.402
L254.235 325.402
L254.363 323.586
L255.001 323.586
L255.129 322.999
L255.129 322.999
L255.767 322.999
L255.767 322.999
L255.894 322.398
L256.532 322.398
L256.66 323.51
L256.66 323.51
L257.298 323.51
L257.426 323.715
L258.064 323.715
L258.064 323.715
L258.447 324.763
L259.595 324.749
L259.595 324.749
L259.723 326.161
L260.361 326.161
L260.489 324.467
L261.127 324.467
L261.254 324.333
L261.892 324.333
L262.02 324.839
L262.658 324.839
L262.786 325.447
L263.424 325.447
L263.424 325.447
L263.551 326.086
L264.955 326.033
L264.955 326.033
L265.083 324.833
L265.593 324.833
L265.848 325.253
L266.486 325.253
L266.614 324.244
L267.252 324.244
L267.38 323.712
L268.018 323.712
L268.145 322.97
L268.784 322.97
L268.911 323.672
L269.549 323.672
L269.677 323.141
L270.315 323.141
L270.443 323.652
L271.081 323.652
L271.463 322.289
L272.612 322.359
L272.74 323.117
L273.378 323.117
L273.378 323.117
L273.506 323.709
L274.143 323.709
L274.271 324.195
L274.909 324.195
L274.909 324.195
L275.037 325.402
L275.675 325.402
L275.802 325.757
L276.441 325.757
L276.568 325.07
L277.972 325.07
L277.972 325.07
L278.099 325.459
L278.738 325.459
L278.865 325.9
L279.503 325.9
L279.631 326.243
L281.035 326.24
L281.035 326.24
L281.162 326.636
L281.801 326.636
L282.183 324.255
L282.566 324.255
L282.694 323.603
L283.332 323.603
L283.459 324.285
L284.097 324.285
L284.225 324.538
L284.736 324.538
L285.374 323.986
L285.629 323.986
L285.756 323.465
L286.395 323.465
L286.522 322.66
L287.16 322.66
L287.288 321.329
L287.926 321.329
L288.054 321.725
L289.457 321.735
L289.585 323.388
L290.223 323.388
L290.351 323.267
L290.989 323.267
L291.116 325.594
L291.754 325.594
L292.137 323.814
L293.286 323.844
L293.286 323.844
L293.413 324.038
L294.051 324.038
L294.051 324.038
L294.179 323.816
L294.817 323.816
L294.817 323.816
L294.945 323.43
L295.583 323.43
L295.71 323.916
L296.349 323.916
L296.476 324.115
L297.114 324.115
L297.242 323.757
L298.646 323.761
L298.773 325.254
L299.411 325.254
L299.539 321.805
L300.177 321.805
L300.177 321.805
L300.305 323.062
L300.943 323.062
L301.07 321.187
L301.708 321.187
L301.836 321.666
L302.474 321.666
L302.474 321.666
L303.112 321.493
L303.368 322.391
L304.005 322.391
L304.005 322.391
L304.133 321.92
L305.537 321.938
L305.664 321.262
L307.068 321.262
L307.068 321.262
L307.196 320.885
L307.834 320.885
L307.962 319.847
L308.6 319.847
L308.6 319.847
L308.727 322.104
L310.131 322.185
L310.131 322.185
L310.259 322.737
L310.897 322.737
L311.024 322.374
L311.662 322.374
L311.79 320.59
L312.428 320.59
L312.556 321.585
L313.194 321.585
L313.321 321.26
L313.96 321.26
L314.087 323.364
L314.725 323.364
L314.853 322.469
L315.491 322.469
L315.619 323.404
L316.257 323.404
L316.384 323.518
L317.788 323.507
L317.916 322.114
L318.554 322.114
L318.554 322.114
L318.681 322.32
L319.319 322.32
L319.319 322.32
L319.447 323.385
L320.085 323.385
L320.213 323.752
L320.851 323.752
L320.851 323.752
L321.361 323.313
L321.616 323.313
L322.127 323.454
L322.893 324.529
L323.148 324.529
L323.275 324.761
L324.679 324.761
L324.807 323.243
L326.211 323.243
L326.338 323.452
L326.976 323.452
L327.104 325.669
L327.742 325.669
L327.87 326.627
L328.508 326.627
L328.635 326.453
L329.273 326.453
L329.401 328.45
L330.039 328.45
L330.167 327.111
L330.805 327.111
L330.933 328.067
L331.57 328.067
L331.698 326.284
L332.336 326.284
L332.464 326.475
L333.102 326.475
L333.23 328.048
L333.868 328.048
L333.995 328.694
L334.633 328.694
L334.761 329.84
L335.399 329.84
L335.527 327.141
L336.165 327.141
L336.292 330.546
L336.93 330.546
L337.058 326.316
L337.696 326.316
L337.824 325.535
L338.462 325.535
L338.589 328.054
L339.227 328.054
L339.355 327.559
L339.866 327.559
L340.121 326.841
L340.759 326.862
L340.886 326.513
L341.525 326.513
L341.652 326.725
L342.29 326.725
L342.418 327.47
L343.822 327.412
L343.822 327.412
L343.949 327.001
L344.588 327.001
L344.715 326.832
L345.353 326.832
L345.353 326.832
L345.481 324.252
L346.884 324.252
L346.884 324.252
L347.012 324.468
L347.65 324.468
L347.778 324.268
L348.416 324.268
L348.543 324.412
L349.181 324.412
L349.309 326.863
L351.224 326.816
L351.606 327.165
L352.244 327.165
L352.372 327.641
L353.01 327.641
L353.138 326.847
L353.776 326.847
L353.776 326.847
L354.286 326.424
L354.541 326.424
L354.669 326.142
L355.307 326.142
L355.307 326.142
L355.435 324.952
L356.073 324.952
L356.073 324.952
L356.2 323.351
L356.838 323.351
L356.966 323.518
L357.477 323.518
L357.732 325.021
L358.37 325.021
L358.37 325.021
L358.497 324.207
L359.136 324.207
L359.263 325.573
L359.901 325.573
L360.029 324.9
L360.667 324.9
L360.795 325.603
L361.433 325.603
L361.56 325.781
L362.198 325.781
L362.326 322.863
L362.964 322.863
L363.092 323.502
L363.73 323.502
L363.857 326.978
L364.495 326.978
L364.623 327.912
L365.261 327.912
L365.389 326.94
L366.027 326.94
L366.027 326.94
L366.155 326.587
L366.792 326.587
L366.92 325.938
L367.558 325.938
L367.686 325.241
L368.324 325.241
L368.451 324.933
L369.09 324.933
L369.472 323.967
L369.855 323.967
L369.983 324.688
L370.621 324.688
L370.749 325.419
L371.387 325.419
L371.514 324.679
L372.152 324.679
L372.28 322.401
L372.918 322.401
L373.046 323.681
L373.684 323.681
L373.684 323.681
L373.811 323.533
L375.215 323.533
L375.343 325.026
L375.981 325.026
L376.108 324.06
L377.512 324.138
L377.512 324.138
L377.64 324.889
L378.278 324.889
L378.405 325.36
L379.044 325.36
L379.171 324.161
L379.809 324.161
L379.937 325.092
L380.575 325.092
L380.703 324.178
L381.341 324.178
L381.468 325.582
L382.872 325.599
L383 326.324
L384.403 326.324
L384.531 326.992
L385.935 326.992
L386.062 328.45
L386.701 328.45
L386.828 326.935
L387.466 326.935
L387.594 327.601
L388.232 327.601
L388.232 327.601
L388.36 343.611
L388.998 343.611
L389.125 328.045
L389.763 328.045
L389.891 330.383
L390.529 330.383
L390.657 330.927
L391.295 330.927
L391.422 328.01
L392.06 328.01
L392.188 329.545
L392.826 329.545
L392.954 330.255
L393.592 330.255
L393.719 330.86
L394.102 330.86
L394.102 330.86
L394.485 329.972
L395.123 329.972
L395.251 330.838
L396.655 330.728
L396.782 329.96
L398.952 329.988
L399.079 330.463
L399.717 330.463
L399.845 329.885
L401.249 329.917
L401.376 328.756
L403.546 328.863
L403.673 329.259
L404.311 329.259
L404.439 329.509
L405.077 329.509
L405.205 331.334
L406.609 331.354
L406.736 332.845
L407.374 332.845
L407.502 329.082
L408.14 329.082
L408.268 328.645
L408.906 328.645
L409.033 328.778
L409.671 328.778
L409.799 328.44
L410.437 328.44
L410.565 328.965
L411.203 328.965
L411.33 328.443
L411.968 328.443
L412.096 328.285
L412.607 328.285
L413.245 328.402
L413.5 328.402
L413.627 328.824
L414.266 328.824
L414.393 329.256
L415.031 329.256
L415.159 328.395
L415.797 328.395
L415.925 328.516
L416.563 328.516
L416.69 329.547
L417.328 329.547
L417.456 328.701
L418.094 328.701
L418.222 329.341
L418.86 329.341
L418.987 328.507
L419.625 328.507
L419.753 327.992
L420.391 327.992
L420.519 328.137
L421.157 328.137
L421.284 327.57
L421.922 327.57
L422.05 328.301
L422.688 328.301
L422.816 329.713
L423.454 329.713
L423.581 329.474
L424.22 329.474
L424.347 329.056
L425.751 329.092
L425.879 329.289
L426.517 329.289
L426.644 329.487
L427.282 329.487
L427.41 328.279
L428.814 328.317
L428.941 327.955
L429.579 327.955
L429.707 328.515
L430.345 328.515
L430.473 328.907
L430.983 328.907
L431.238 329.335
L432.642 329.3
L432.642 329.3
L432.77 328.464
L433.408 328.464
L433.536 328.113
L434.939 328.12
L435.067 328.705
L435.705 328.705
L435.833 329.955
L436.471 329.955
L436.598 327.94
L437.236 327.94
L437.364 327.72
L438.002 327.72
L438.13 328.138
L438.768 328.138
L438.895 327.811
L439.533 327.811
L439.661 328.839
L440.299 328.839
L440.299 328.839
L440.427 328.627
L441.831 328.595
L441.831 328.595
L441.958 327.751
L442.596 327.751
L442.724 328.161
L443.362 328.161
L443.49 326.672
L444.128 326.672
L444.255 328.676
L444.893 328.676
L445.021 327.808
L445.659 327.808
L446.042 329.152
L446.425 329.152
L446.552 329.025
L447.19 329.025
L447.318 328.338
L447.956 328.338
L448.084 327.155
L448.722 327.155
L448.849 326.779
L451.019 326.691
L451.146 327.526
L452.55 327.527
L452.678 328.263
L453.316 328.263
L453.444 327.508
L454.082 327.508
L454.209 328.575
L454.847 328.575
L454.847 328.575
L454.975 328.722
L455.613 328.722
L455.741 330.323
L457.144 330.3
L457.272 329.578
L457.91 329.578
L458.038 328.796
L458.676 328.796
L458.803 327.266
L459.442 327.266
L459.569 327.942
L460.207 327.942
L460.335 329.299
L460.973 329.299
L461.101 328.693
L462.504 328.616
L462.632 329.395
L463.27 329.395
L463.398 328.845
L464.036 328.845
L464.163 326.997
L464.801 326.997
L464.929 328.146
L465.567 328.146
L465.567 328.146
L465.695 327.734
L466.333 327.734
L466.46 327.97
L467.098 327.97
L467.098 327.97
L467.226 327.398
L467.864 327.398
L467.992 326.988
L468.63 326.988
L468.757 326.132
L470.161 326.171
L470.289 327.247
L470.927 327.247
L471.055 327.004
L471.693 327.004
L471.82 326.867
L472.458 326.867
L472.586 327.229
L473.224 327.229
L473.352 328.961
L473.99 328.961
L474.118 329.18
L474.755 329.18
L474.883 330.512
L475.521 330.512
L475.649 332.059
L476.287 332.059
L476.414 330.629
L477.052 330.629
L477.18 330.883
L477.818 330.883
L477.946 330.711
L478.584 330.711
L478.711 329.465
L479.35 329.465
L479.477 326.981
L480.115 326.981
L480.243 328.162
L480.881 328.162
L481.009 328.484
L481.647 328.484
L481.774 329.363
L482.412 329.363
L482.54 328.243
L483.178 328.243
L483.306 328.874
L483.944 328.874
L484.071 327.239
L484.709 327.239
L484.837 327.764
L490.069 327.728
L490.197 326.957
L490.835 326.957
L490.963 327.467
L491.601 327.467
L491.728 328.177
L492.366 328.177
L492.494 327.993
L493.132 327.993
L493.26 327.547
L493.898 327.547
L494.026 328.741
L495.429 328.821
L495.557 327.765
L496.195 327.765
L496.322 327.373
L496.961 327.373
L497.088 326.696
L497.726 326.696
L497.854 326.835
L498.492 326.835
L498.62 327.102
L500.023 327.083
L500.151 326.778
L501.555 326.714
L501.682 326.977
L503.086 327.074
L503.214 327.253
L503.852 327.253
L503.979 328.366
L504.617 328.366
L504.745 327.436
L506.149 327.453
L506.277 328.164
L507.68 328.118
L507.808 327.872
L509.212 327.941
L509.339 327.533
L509.977 327.533
L510.36 329.495
L510.743 329.495
L510.871 329.008
L511.509 329.008
L511.636 328.565
L512.274 328.565
L512.402 328.846
L513.04 328.846
L513.168 328.485
L513.806 328.485
L513.933 327.271
L514.572 327.271
L514.699 327.928
L515.337 327.928
L515.465 327.757
L516.103 327.757
L516.231 328.003
L516.869 328.003
L516.996 327.67
L517.634 327.67
L517.762 327.419
L518.4 327.419
L518.4 327.419" style="fill:none;stroke:#008000;stroke-linecap:square;"/>
   </g>
   <g id="patch_3">
    <path d="
M72 43.2
L518.4 43.2" style="fill:none;stroke:#000000;stroke-linecap:square;stroke-linejoin:miter;"/>
   </g>
   <g id="patch_4">
    <path d="
M518.4 345.6
L518.4 43.2" style="fill:none;stroke:#000000;stroke-linecap:square;stroke-linejoin:miter;"/>
   </g>
   <g id="patch_5">
    <path d="
M72 345.6
L518.4 345.6" style="fill:none;stroke:#000000;stroke-linecap:square;stroke-linejoin:miter;"/>
   </g>
   <g id="patch_6">
    <path d="
M72 345.6
L72 43.2" style="fill:none;stroke:#000000;stroke-linecap:square;stroke-linejoin:miter;"/>
   </g>
   <g id="matplotlib.axis_1">
    <g id="xtick_1">
     <g id="line2d_3">
      <defs>
       <path d="
M0 0
L0 -4" id="m93b0483c22" style="stroke:#000000;stroke-width:0.5;"/>
      </defs>
      <g>
       <use style="stroke:#000000;stroke-width:0.5;" x="117.941468267" xlink:href="#m93b0483c22" y="345.6"/>
      </g>
     </g>
     <g id="line2d_4">
      <defs>
       <path d="
M0 0
L0 4" id="m741efc42ff" style="stroke:#000000;stroke-width:0.5;"/>
      </defs>
      <g>
       <use style="stroke:#000000;stroke-width:0.5;" x="117.941468267" xlink:href="#m741efc42ff" y="43.2"/>
      </g>
     </g>
     <g id="text_1">
      <!-- Oct 13 2015 -->
      <defs>
       <path d="
M19.1875 8.29688
L53.6094 8.29688
L53.6094 0
L7.32812 0
L7.32812 8.29688
Q12.9375 14.1094 22.625 23.8906
Q32.3281 33.6875 34.8125 36.5312
Q39.5469 41.8438 41.4219 45.5312
Q43.3125 49.2188 43.3125 52.7812
Q43.3125 58.5938 39.2344 62.25
Q35.1562 65.9219 28.6094 65.9219
Q23.9688 65.9219 18.8125 64.3125
Q13.6719 62.7031 7.8125 59.4219
L7.8125 69.3906
Q13.7656 71.7812 18.9375 73
Q24.125 74.2188 28.4219 74.2188
Q39.75 74.2188 46.4844 68.5469
Q53.2188 62.8906 53.2188 53.4219
Q53.2188 48.9219 51.5312 44.8906
Q49.8594 40.875 45.4062 35.4062
Q44.1875 33.9844 37.6406 27.2188
Q31.1094 20.4531 19.1875 8.29688" id="BitstreamVeraSans-Roman-32"/>
       <path d="
M39.4062 66.2188
Q28.6562 66.2188 22.3281 58.2031
Q16.0156 50.2031 16.0156 36.375
Q16.0156 22.6094 22.3281 14.5938
Q28.6562 6.59375 39.4062 6.59375
Q50.1406 6.59375 56.4219 14.5938
Q62.7031 22.6094 62.7031 36.375
Q62.7031 50.2031 56.4219 58.2031
Q50.1406 66.2188 39.4062 66.2188
M39.4062 74.2188
Q54.7344 74.2188 63.9062 63.9375
Q73.0938 53.6562 73.0938 36.375
Q73.0938 19.1406 63.9062 8.85938
Q54.7344 -1.42188 39.4062 -1.42188
Q24.0312 -1.42188 14.8125 8.82812
Q5.60938 19.0938 5.60938 36.375
Q5.60938 53.6562 14.8125 63.9375
Q24.0312 74.2188 39.4062 74.2188" id="BitstreamVeraSans-Roman-4f"/>
       <path d="
M31.7812 66.4062
Q24.1719 66.4062 20.3281 58.9062
Q16.5 51.4219 16.5 36.375
Q16.5 21.3906 20.3281 13.8906
Q24.1719 6.39062 31.7812 6.39062
Q39.4531 6.39062 43.2812 13.8906
Q47.125 21.3906 47.125 36.375
Q47.125 51.4219 43.2812 58.9062
Q39.4531 66.4062 31.7812 66.4062
M31.7812 74.2188
Q44.0469 74.2188 50.5156 64.5156
Q56.9844 54.8281 56.9844 36.375
Q56.9844 17.9688 50.5156 8.26562
Q44.0469 -1.42188 31.7812 -1.42188
Q19.5312 -1.42188 13.0625 8.26562
Q6.59375 17.9688 6.59375 36.375
Q6.59375 54.8281 13.0625 64.5156
Q19.5312 74.2188 31.7812 74.2188" id="BitstreamVeraSans-Roman-30"/>
       <path d="
M12.4062 8.29688
L28.5156 8.29688
L28.5156 63.9219
L10.9844 60.4062
L10.9844 69.3906
L28.4219 72.9062
L38.2812 72.9062
L38.2812 8.29688
L54.3906 8.29688
L54.3906 0
L12.4062 0
z
" id="BitstreamVeraSans-Roman-31"/>
       <path d="
M40.5781 39.3125
Q47.6562 37.7969 51.625 33
Q55.6094 28.2188 55.6094 21.1875
Q55.6094 10.4062 48.1875 4.48438
Q40.7656 -1.42188 27.0938 -1.42188
Q22.5156 -1.42188 17.6562 -0.515625
Q12.7969 0.390625 7.625 2.20312
L7.625 11.7188
Q11.7188 9.32812 16.5938 8.10938
Q21.4844 6.89062 26.8125 6.89062
Q36.0781 6.89062 40.9375 10.5469
Q45.7969 14.2031 45.7969 21.1875
Q45.7969 27.6406 41.2812 31.2656
Q36.7656 34.9062 28.7188 34.9062
L20.2188 34.9062
L20.2188 43.0156
L29.1094 43.0156
Q36.375 43.0156 40.2344 45.9219
Q44.0938 48.8281 44.0938 54.2969
Q44.0938 59.9062 40.1094 62.9062
Q36.1406 65.9219 28.7188 65.9219
Q24.6562 65.9219 20.0156 65.0312
Q15.375 64.1562 9.8125 62.3125
L9.8125 71.0938
Q15.4375 72.6562 20.3438 73.4375
Q25.25 74.2188 29.5938 74.2188
Q40.8281 74.2188 47.3594 69.1094
Q53.9062 64.0156 53.9062 55.3281
Q53.9062 49.2656 50.4375 45.0938
Q46.9688 40.9219 40.5781 39.3125" id="BitstreamVeraSans-Roman-33"/>
       <path id="BitstreamVeraSans-Roman-20"/>
       <path d="
M10.7969 72.9062
L49.5156 72.9062
L49.5156 64.5938
L19.8281 64.5938
L19.8281 46.7344
Q21.9688 47.4688 24.1094 47.8281
Q26.2656 48.1875 28.4219 48.1875
Q40.625 48.1875 47.75 41.5
Q54.8906 34.8125 54.8906 23.3906
Q54.8906 11.625 47.5625 5.09375
Q40.2344 -1.42188 26.9062 -1.42188
Q22.3125 -1.42188 17.5469 -0.640625
Q12.7969 0.140625 7.71875 1.70312
L7.71875 11.625
Q12.1094 9.23438 16.7969 8.0625
Q21.4844 6.89062 26.7031 6.89062
Q35.1562 6.89062 40.0781 11.3281
Q45.0156 15.7656 45.0156 23.3906
Q45.0156 31 40.0781 35.4375
Q35.1562 39.8906 26.7031 39.8906
Q22.75 39.8906 18.8125 39.0156
Q14.8906 38.1406 10.7969 36.2812
z
" id="BitstreamVeraSans-Roman-35"/>
       <path d="
M18.3125 70.2188
L18.3125 54.6875
L36.8125 54.6875
L36.8125 47.7031
L18.3125 47.7031
L18.3125 18.0156
Q18.3125 11.3281 20.1406 9.42188
Q21.9688 7.51562 27.5938 7.51562
L36.8125 7.51562
L36.8125 0
L27.5938 0
Q17.1875 0 13.2344 3.875
Q9.28125 7.76562 9.28125 18.0156
L9.28125 47.7031
L2.6875 47.7031
L2.6875 54.6875
L9.28125 54.6875
L9.28125 70.2188
z
" id="BitstreamVeraSans-Roman-74"/>
       <path d="
M48.7812 52.5938
L48.7812 44.1875
Q44.9688 46.2969 41.1406 47.3438
Q37.3125 48.3906 33.4062 48.3906
Q24.6562 48.3906 19.8125 42.8438
Q14.9844 37.3125 14.9844 27.2969
Q14.9844 17.2812 19.8125 11.7344
Q24.6562 6.20312 33.4062 6.20312
Q37.3125 6.20312 41.1406 7.25
Q44.9688 8.29688 48.7812 10.4062
L48.7812 2.09375
Q45.0156 0.34375 40.9844 -0.53125
Q36.9688 -1.42188 32.4219 -1.42188
Q20.0625 -1.42188 12.7812 6.34375
Q5.51562 14.1094 5.51562 27.2969
Q5.51562 40.6719 12.8594 48.3281
Q20.2188 56 33.0156 56
Q37.1562 56 41.1094 55.1406
Q45.0625 54.2969 48.7812 52.5938" id="BitstreamVeraSans-Roman-63"/>
      </defs>
      <g transform="translate(53.3541815316 394.065590385)rotate(-30.0)scale(0.12 -0.12)">
       <use xlink:href="#BitstreamVeraSans-Roman-4f"/>
       <use x="78.7109375" xlink:href="#BitstreamVeraSans-Roman-63"/>
       <use x="133.69140625" xlink:href="#BitstreamVeraSans-Roman-74"/>
       <use x="172.900390625" xlink:href="#BitstreamVeraSans-Roman-20"/>
       <use x="204.6875" xlink:href="#BitstreamVeraSans-Roman-31"/>
       <use x="268.310546875" xlink:href="#BitstreamVeraSans-Roman-33"/>
       <use x="331.93359375" xlink:href="#BitstreamVeraSans-Roman-20"/>
       <use x="363.720703125" xlink:href="#BitstreamVeraSans-Roman-32"/>
       <use x="427.34375" xlink:href="#BitstreamVeraSans-Roman-30"/>
       <use x="490.966796875" xlink:href="#BitstreamVeraSans-Roman-31"/>
       <use x="554.58984375" xlink:href="#BitstreamVeraSans-Roman-35"/>
      </g>
     </g>
    </g>
    <g id="xtick_2">
     <g id="line2d_5">
      <g>
       <use style="stroke:#000000;stroke-width:0.5;" x="173.071485419" xlink:href="#m93b0483c22" y="345.6"/>
      </g>
     </g>
     <g id="line2d_6">
      <g>
       <use style="stroke:#000000;stroke-width:0.5;" x="173.071485419" xlink:href="#m741efc42ff" y="43.2"/>
      </g>
     </g>
     <g id="text_2">
      <!-- Oct 16 2015 -->
      <defs>
       <path d="
M33.0156 40.375
Q26.375 40.375 22.4844 35.8281
Q18.6094 31.2969 18.6094 23.3906
Q18.6094 15.5312 22.4844 10.9531
Q26.375 6.39062 33.0156 6.39062
Q39.6562 6.39062 43.5312 10.9531
Q47.4062 15.5312 47.4062 23.3906
Q47.4062 31.2969 43.5312 35.8281
Q39.6562 40.375 33.0156 40.375
M52.5938 71.2969
L52.5938 62.3125
Q48.875 64.0625 45.0938 64.9844
Q41.3125 65.9219 37.5938 65.9219
Q27.8281 65.9219 22.6719 59.3281
Q17.5312 52.7344 16.7969 39.4062
Q19.6719 43.6562 24.0156 45.9219
Q28.375 48.1875 33.5938 48.1875
Q44.5781 48.1875 50.9531 41.5156
Q57.3281 34.8594 57.3281 23.3906
Q57.3281 12.1562 50.6875 5.35938
Q44.0469 -1.42188 33.0156 -1.42188
Q20.3594 -1.42188 13.6719 8.26562
Q6.98438 17.9688 6.98438 36.375
Q6.98438 53.6562 15.1875 63.9375
Q23.3906 74.2188 37.2031 74.2188
Q40.9219 74.2188 44.7031 73.4844
Q48.4844 72.75 52.5938 71.2969" id="BitstreamVeraSans-Roman-36"/>
      </defs>
      <g transform="translate(108.484198684 394.065590385)rotate(-30.0)scale(0.12 -0.12)">
       <use xlink:href="#BitstreamVeraSans-Roman-4f"/>
       <use x="78.7109375" xlink:href="#BitstreamVeraSans-Roman-63"/>
       <use x="133.69140625" xlink:href="#BitstreamVeraSans-Roman-74"/>
       <use x="172.900390625" xlink:href="#BitstreamVeraSans-Roman-20"/>
       <use x="204.6875" xlink:href="#BitstreamVeraSans-Roman-31"/>
       <use x="268.310546875" xlink:href="#BitstreamVeraSans-Roman-36"/>
       <use x="331.93359375" xlink:href="#BitstreamVeraSans-Roman-20"/>
       <use x="363.720703125" xlink:href="#BitstreamVeraSans-Roman-32"/>
       <use x="427.34375" xlink:href="#BitstreamVeraSans-Roman-30"/>
       <use x="490.966796875" xlink:href="#BitstreamVeraSans-Roman-31"/>
       <use x="554.58984375" xlink:href="#BitstreamVeraSans-Roman-35"/>
      </g>
     </g>
    </g>
    <g id="xtick_3">
     <g id="line2d_7">
      <g>
       <use style="stroke:#000000;stroke-width:0.5;" x="228.201502573" xlink:href="#m93b0483c22" y="345.6"/>
      </g>
     </g>
     <g id="line2d_8">
      <g>
       <use style="stroke:#000000;stroke-width:0.5;" x="228.201502573" xlink:href="#m741efc42ff" y="43.2"/>
      </g>
     </g>
     <g id="text_3">
      <!-- Oct 19 2015 -->
      <defs>
       <path d="
M10.9844 1.51562
L10.9844 10.5
Q14.7031 8.73438 18.5 7.8125
Q22.3125 6.89062 25.9844 6.89062
Q35.75 6.89062 40.8906 13.4531
Q46.0469 20.0156 46.7812 33.4062
Q43.9531 29.2031 39.5938 26.9531
Q35.25 24.7031 29.9844 24.7031
Q19.0469 24.7031 12.6719 31.3125
Q6.29688 37.9375 6.29688 49.4219
Q6.29688 60.6406 12.9375 67.4219
Q19.5781 74.2188 30.6094 74.2188
Q43.2656 74.2188 49.9219 64.5156
Q56.5938 54.8281 56.5938 36.375
Q56.5938 19.1406 48.4062 8.85938
Q40.2344 -1.42188 26.4219 -1.42188
Q22.7031 -1.42188 18.8906 -0.6875
Q15.0938 0.046875 10.9844 1.51562
M30.6094 32.4219
Q37.25 32.4219 41.125 36.9531
Q45.0156 41.5 45.0156 49.4219
Q45.0156 57.2812 41.125 61.8438
Q37.25 66.4062 30.6094 66.4062
Q23.9688 66.4062 20.0938 61.8438
Q16.2188 57.2812 16.2188 49.4219
Q16.2188 41.5 20.0938 36.9531
Q23.9688 32.4219 30.6094 32.4219" id="BitstreamVeraSans-Roman-39"/>
      </defs>
      <g transform="translate(163.614215838 394.065590385)rotate(-30.0)scale(0.12 -0.12)">
       <use xlink:href="#BitstreamVeraSans-Roman-4f"/>
       <use x="78.7109375" xlink:href="#BitstreamVeraSans-Roman-63"/>
       <use x="133.69140625" xlink:href="#BitstreamVeraSans-Roman-74"/>
       <use x="172.900390625" xlink:href="#BitstreamVeraSans-Roman-20"/>
       <use x="204.6875" xlink:href="#BitstreamVeraSans-Roman-31"/>
       <use x="268.310546875" xlink:href="#BitstreamVeraSans-Roman-39"/>
       <use x="331.93359375" xlink:href="#BitstreamVeraSans-Roman-20"/>
       <use x="363.720703125" xlink:href="#BitstreamVeraSans-Roman-32"/>
       <use x="427.34375" xlink:href="#BitstreamVeraSans-Roman-30"/>
       <use x="490.966796875" xlink:href="#BitstreamVeraSans-Roman-31"/>
       <use x="554.58984375" xlink:href="#BitstreamVeraSans-Roman-35"/>
      </g>
     </g>
    </g>
    <g id="xtick_4">
     <g id="line2d_9">
      <g>
       <use style="stroke:#000000;stroke-width:0.5;" x="283.331519725" xlink:href="#m93b0483c22" y="345.6"/>
      </g>
     </g>
     <g id="line2d_10">
      <g>
       <use style="stroke:#000000;stroke-width:0.5;" x="283.331519725" xlink:href="#m741efc42ff" y="43.2"/>
      </g>
     </g>
     <g id="text_4">
      <!-- Oct 22 2015 -->
      <g transform="translate(218.74423299 394.065590385)rotate(-30.0)scale(0.12 -0.12)">
       <use xlink:href="#BitstreamVeraSans-Roman-4f"/>
       <use x="78.7109375" xlink:href="#BitstreamVeraSans-Roman-63"/>
       <use x="133.69140625" xlink:href="#BitstreamVeraSans-Roman-74"/>
       <use x="172.900390625" xlink:href="#BitstreamVeraSans-Roman-20"/>
       <use x="204.6875" xlink:href="#BitstreamVeraSans-Roman-32"/>
       <use x="268.310546875" xlink:href="#BitstreamVeraSans-Roman-32"/>
       <use x="331.93359375" xlink:href="#BitstreamVeraSans-Roman-20"/>
       <use x="363.720703125" xlink:href="#BitstreamVeraSans-Roman-32"/>
       <use x="427.34375" xlink:href="#BitstreamVeraSans-Roman-30"/>
       <use x="490.966796875" xlink:href="#BitstreamVeraSans-Roman-31"/>
       <use x="554.58984375" xlink:href="#BitstreamVeraSans-Roman-35"/>
      </g>
     </g>
    </g>
    <g id="xtick_5">
     <g id="line2d_11">
      <g>
       <use style="stroke:#000000;stroke-width:0.5;" x="338.461536877" xlink:href="#m93b0483c22" y="345.6"/>
      </g>
     </g>
     <g id="line2d_12">
      <g>
       <use style="stroke:#000000;stroke-width:0.5;" x="338.461536877" xlink:href="#m741efc42ff" y="43.2"/>
      </g>
     </g>
     <g id="text_5">
      <!-- Oct 25 2015 -->
      <g transform="translate(273.874250142 394.065590385)rotate(-30.0)scale(0.12 -0.12)">
       <use xlink:href="#BitstreamVeraSans-Roman-4f"/>
       <use x="78.7109375" xlink:href="#BitstreamVeraSans-Roman-63"/>
       <use x="133.69140625" xlink:href="#BitstreamVeraSans-Roman-74"/>
       <use x="172.900390625" xlink:href="#BitstreamVeraSans-Roman-20"/>
       <use x="204.6875" xlink:href="#BitstreamVeraSans-Roman-32"/>
       <use x="268.310546875" xlink:href="#BitstreamVeraSans-Roman-35"/>
       <use x="331.93359375" xlink:href="#BitstreamVeraSans-Roman-20"/>
       <use x="363.720703125" xlink:href="#BitstreamVeraSans-Roman-32"/>
       <use x="427.34375" xlink:href="#BitstreamVeraSans-Roman-30"/>
       <use x="490.966796875" xlink:href="#BitstreamVeraSans-Roman-31"/>
       <use x="554.58984375" xlink:href="#BitstreamVeraSans-Roman-35"/>
      </g>
     </g>
    </g>
    <g id="xtick_6">
     <g id="line2d_13">
      <g>
       <use style="stroke:#000000;stroke-width:0.5;" x="393.591554031" xlink:href="#m93b0483c22" y="345.6"/>
      </g>
     </g>
     <g id="line2d_14">
      <g>
       <use style="stroke:#000000;stroke-width:0.5;" x="393.591554031" xlink:href="#m741efc42ff" y="43.2"/>
      </g>
     </g>
     <g id="text_6">
      <!-- Oct 28 2015 -->
      <defs>
       <path d="
M31.7812 34.625
Q24.75 34.625 20.7188 30.8594
Q16.7031 27.0938 16.7031 20.5156
Q16.7031 13.9219 20.7188 10.1562
Q24.75 6.39062 31.7812 6.39062
Q38.8125 6.39062 42.8594 10.1719
Q46.9219 13.9688 46.9219 20.5156
Q46.9219 27.0938 42.8906 30.8594
Q38.875 34.625 31.7812 34.625
M21.9219 38.8125
Q15.5781 40.375 12.0312 44.7188
Q8.5 49.0781 8.5 55.3281
Q8.5 64.0625 14.7188 69.1406
Q20.9531 74.2188 31.7812 74.2188
Q42.6719 74.2188 48.875 69.1406
Q55.0781 64.0625 55.0781 55.3281
Q55.0781 49.0781 51.5312 44.7188
Q48 40.375 41.7031 38.8125
Q48.8281 37.1562 52.7969 32.3125
Q56.7812 27.4844 56.7812 20.5156
Q56.7812 9.90625 50.3125 4.23438
Q43.8438 -1.42188 31.7812 -1.42188
Q19.7344 -1.42188 13.25 4.23438
Q6.78125 9.90625 6.78125 20.5156
Q6.78125 27.4844 10.7812 32.3125
Q14.7969 37.1562 21.9219 38.8125
M18.3125 54.3906
Q18.3125 48.7344 21.8438 45.5625
Q25.3906 42.3906 31.7812 42.3906
Q38.1406 42.3906 41.7188 45.5625
Q45.3125 48.7344 45.3125 54.3906
Q45.3125 60.0625 41.7188 63.2344
Q38.1406 66.4062 31.7812 66.4062
Q25.3906 66.4062 21.8438 63.2344
Q18.3125 60.0625 18.3125 54.3906" id="BitstreamVeraSans-Roman-38"/>
      </defs>
      <g transform="translate(329.004267296 394.065590385)rotate(-30.0)scale(0.12 -0.12)">
       <use xlink:href="#BitstreamVeraSans-Roman-4f"/>
       <use x="78.7109375" xlink:href="#BitstreamVeraSans-Roman-63"/>
       <use x="133.69140625" xlink:href="#BitstreamVeraSans-Roman-74"/>
       <use x="172.900390625" xlink:href="#BitstreamVeraSans-Roman-20"/>
       <use x="204.6875" xlink:href="#BitstreamVeraSans-Roman-32"/>
       <use x="268.310546875" xlink:href="#BitstreamVeraSans-Roman-38"/>
       <use x="331.93359375" xlink:href="#BitstreamVeraSans-Roman-20"/>
       <use x="363.720703125" xlink:href="#BitstreamVeraSans-Roman-32"/>
       <use x="427.34375" xlink:href="#BitstreamVeraSans-Roman-30"/>
       <use x="490.966796875" xlink:href="#BitstreamVeraSans-Roman-31"/>
       <use x="554.58984375" xlink:href="#BitstreamVeraSans-Roman-35"/>
      </g>
     </g>
    </g>
    <g id="xtick_7">
     <g id="line2d_15">
      <g>
       <use style="stroke:#000000;stroke-width:0.5;" x="448.721571183" xlink:href="#m93b0483c22" y="345.6"/>
      </g>
     </g>
     <g id="line2d_16">
      <g>
       <use style="stroke:#000000;stroke-width:0.5;" x="448.721571183" xlink:href="#m741efc42ff" y="43.2"/>
      </g>
     </g>
     <g id="text_7">
      <!-- Oct 31 2015 -->
      <g transform="translate(384.134284448 394.065590385)rotate(-30.0)scale(0.12 -0.12)">
       <use xlink:href="#BitstreamVeraSans-Roman-4f"/>
       <use x="78.7109375" xlink:href="#BitstreamVeraSans-Roman-63"/>
       <use x="133.69140625" xlink:href="#BitstreamVeraSans-Roman-74"/>
       <use x="172.900390625" xlink:href="#BitstreamVeraSans-Roman-20"/>
       <use x="204.6875" xlink:href="#BitstreamVeraSans-Roman-33"/>
       <use x="268.310546875" xlink:href="#BitstreamVeraSans-Roman-31"/>
       <use x="331.93359375" xlink:href="#BitstreamVeraSans-Roman-20"/>
       <use x="363.720703125" xlink:href="#BitstreamVeraSans-Roman-32"/>
       <use x="427.34375" xlink:href="#BitstreamVeraSans-Roman-30"/>
       <use x="490.966796875" xlink:href="#BitstreamVeraSans-Roman-31"/>
       <use x="554.58984375" xlink:href="#BitstreamVeraSans-Roman-35"/>
      </g>
     </g>
    </g>
    <g id="xtick_8">
     <g id="line2d_17">
      <g>
       <use style="stroke:#000000;stroke-width:0.5;" x="503.851588335" xlink:href="#m93b0483c22" y="345.6"/>
      </g>
     </g>
     <g id="line2d_18">
      <g>
       <use style="stroke:#000000;stroke-width:0.5;" x="503.851588335" xlink:href="#m741efc42ff" y="43.2"/>
      </g>
     </g>
     <g id="text_8">
      <!-- Nov 03 2015 -->
      <defs>
       <path d="
M2.98438 54.6875
L12.5 54.6875
L29.5938 8.79688
L46.6875 54.6875
L56.2031 54.6875
L35.6875 0
L23.4844 0
z
" id="BitstreamVeraSans-Roman-76"/>
       <path d="
M9.8125 72.9062
L23.0938 72.9062
L55.4219 11.9219
L55.4219 72.9062
L64.9844 72.9062
L64.9844 0
L51.7031 0
L19.3906 60.9844
L19.3906 0
L9.8125 0
z
" id="BitstreamVeraSans-Roman-4e"/>
       <path d="
M30.6094 48.3906
Q23.3906 48.3906 19.1875 42.75
Q14.9844 37.1094 14.9844 27.2969
Q14.9844 17.4844 19.1562 11.8438
Q23.3438 6.20312 30.6094 6.20312
Q37.7969 6.20312 41.9844 11.8594
Q46.1875 17.5312 46.1875 27.2969
Q46.1875 37.0156 41.9844 42.7031
Q37.7969 48.3906 30.6094 48.3906
M30.6094 56
Q42.3281 56 49.0156 48.375
Q55.7188 40.7656 55.7188 27.2969
Q55.7188 13.875 49.0156 6.21875
Q42.3281 -1.42188 30.6094 -1.42188
Q18.8438 -1.42188 12.1719 6.21875
Q5.51562 13.875 5.51562 27.2969
Q5.51562 40.7656 12.1719 48.375
Q18.8438 56 30.6094 56" id="BitstreamVeraSans-Roman-6f"/>
      </defs>
      <g transform="translate(436.948766176 395.402465385)rotate(-30.0)scale(0.12 -0.12)">
       <use xlink:href="#BitstreamVeraSans-Roman-4e"/>
       <use x="74.8046875" xlink:href="#BitstreamVeraSans-Roman-6f"/>
       <use x="135.986328125" xlink:href="#BitstreamVeraSans-Roman-76"/>
       <use x="195.166015625" xlink:href="#BitstreamVeraSans-Roman-20"/>
       <use x="226.953125" xlink:href="#BitstreamVeraSans-Roman-30"/>
       <use x="290.576171875" xlink:href="#BitstreamVeraSans-Roman-33"/>
       <use x="354.19921875" xlink:href="#BitstreamVeraSans-Roman-20"/>
       <use x="385.986328125" xlink:href="#BitstreamVeraSans-Roman-32"/>
       <use x="449.609375" xlink:href="#BitstreamVeraSans-Roman-30"/>
       <use x="513.232421875" xlink:href="#BitstreamVeraSans-Roman-31"/>
       <use x="576.85546875" xlink:href="#BitstreamVeraSans-Roman-35"/>
      </g>
     </g>
    </g>
   </g>
   <g id="matplotlib.axis_2">
    <g id="ytick_1">
     <g id="line2d_19">
      <defs>
       <path d="
M0 0
L4 0" id="m728421d6d4" style="stroke:#000000;stroke-width:0.5;"/>
      </defs>
      <g>
       <use style="stroke:#000000;stroke-width:0.5;" x="72.0" xlink:href="#m728421d6d4" y="334.794937003"/>
      </g>
     </g>
     <g id="line2d_20">
      <defs>
       <path d="
M0 0
L-4 0" id="mcb0005524f" style="stroke:#000000;stroke-width:0.5;"/>
      </defs>
      <g>
       <use style="stroke:#000000;stroke-width:0.5;" x="518.4" xlink:href="#mcb0005524f" y="334.794937003"/>
      </g>
     </g>
     <g id="text_9">
      <!-- 50000 -->
      <g transform="translate(31.548125 338.106187003)scale(0.12 -0.12)">
       <use xlink:href="#BitstreamVeraSans-Roman-35"/>
       <use x="63.623046875" xlink:href="#BitstreamVeraSans-Roman-30"/>
       <use x="127.24609375" xlink:href="#BitstreamVeraSans-Roman-30"/>
       <use x="190.869140625" xlink:href="#BitstreamVeraSans-Roman-30"/>
       <use x="254.4921875" xlink:href="#BitstreamVeraSans-Roman-30"/>
      </g>
     </g>
    </g>
    <g id="ytick_2">
     <g id="line2d_21">
      <g>
       <use style="stroke:#000000;stroke-width:0.5;" x="72.0" xlink:href="#m728421d6d4" y="286.195724137"/>
      </g>
     </g>
     <g id="line2d_22">
      <g>
       <use style="stroke:#000000;stroke-width:0.5;" x="518.4" xlink:href="#mcb0005524f" y="286.195724137"/>
      </g>
     </g>
     <g id="text_10">
      <!-- 100000 -->
      <g transform="translate(24.305 289.506974137)scale(0.12 -0.12)">
       <use xlink:href="#BitstreamVeraSans-Roman-31"/>
       <use x="63.623046875" xlink:href="#BitstreamVeraSans-Roman-30"/>
       <use x="127.24609375" xlink:href="#BitstreamVeraSans-Roman-30"/>
       <use x="190.869140625" xlink:href="#BitstreamVeraSans-Roman-30"/>
       <use x="254.4921875" xlink:href="#BitstreamVeraSans-Roman-30"/>
       <use x="318.115234375" xlink:href="#BitstreamVeraSans-Roman-30"/>
      </g>
     </g>
    </g>
    <g id="ytick_3">
     <g id="line2d_23">
      <g>
       <use style="stroke:#000000;stroke-width:0.5;" x="72.0" xlink:href="#m728421d6d4" y="237.596511271"/>
      </g>
     </g>
     <g id="line2d_24">
      <g>
       <use style="stroke:#000000;stroke-width:0.5;" x="518.4" xlink:href="#mcb0005524f" y="237.596511271"/>
      </g>
     </g>
     <g id="text_11">
      <!-- 150000 -->
      <g transform="translate(24.305 240.907761271)scale(0.12 -0.12)">
       <use xlink:href="#BitstreamVeraSans-Roman-31"/>
       <use x="63.623046875" xlink:href="#BitstreamVeraSans-Roman-35"/>
       <use x="127.24609375" xlink:href="#BitstreamVeraSans-Roman-30"/>
       <use x="190.869140625" xlink:href="#BitstreamVeraSans-Roman-30"/>
       <use x="254.4921875" xlink:href="#BitstreamVeraSans-Roman-30"/>
       <use x="318.115234375" xlink:href="#BitstreamVeraSans-Roman-30"/>
      </g>
     </g>
    </g>
    <g id="ytick_4">
     <g id="line2d_25">
      <g>
       <use style="stroke:#000000;stroke-width:0.5;" x="72.0" xlink:href="#m728421d6d4" y="188.997298404"/>
      </g>
     </g>
     <g id="line2d_26">
      <g>
       <use style="stroke:#000000;stroke-width:0.5;" x="518.4" xlink:href="#mcb0005524f" y="188.997298404"/>
      </g>
     </g>
     <g id="text_12">
      <!-- 200000 -->
      <g transform="translate(23.86625 192.308548404)scale(0.12 -0.12)">
       <use xlink:href="#BitstreamVeraSans-Roman-32"/>
       <use x="63.623046875" xlink:href="#BitstreamVeraSans-Roman-30"/>
       <use x="127.24609375" xlink:href="#BitstreamVeraSans-Roman-30"/>
       <use x="190.869140625" xlink:href="#BitstreamVeraSans-Roman-30"/>
       <use x="254.4921875" xlink:href="#BitstreamVeraSans-Roman-30"/>
       <use x="318.115234375" xlink:href="#BitstreamVeraSans-Roman-30"/>
      </g>
     </g>
    </g>
    <g id="ytick_5">
     <g id="line2d_27">
      <g>
       <use style="stroke:#000000;stroke-width:0.5;" x="72.0" xlink:href="#m728421d6d4" y="140.398085538"/>
      </g>
     </g>
     <g id="line2d_28">
      <g>
       <use style="stroke:#000000;stroke-width:0.5;" x="518.4" xlink:href="#mcb0005524f" y="140.398085538"/>
      </g>
     </g>
     <g id="text_13">
      <!-- 250000 -->
      <g transform="translate(23.86625 143.709335538)scale(0.12 -0.12)">
       <use xlink:href="#BitstreamVeraSans-Roman-32"/>
       <use x="63.623046875" xlink:href="#BitstreamVeraSans-Roman-35"/>
       <use x="127.24609375" xlink:href="#BitstreamVeraSans-Roman-30"/>
       <use x="190.869140625" xlink:href="#BitstreamVeraSans-Roman-30"/>
       <use x="254.4921875" xlink:href="#BitstreamVeraSans-Roman-30"/>
       <use x="318.115234375" xlink:href="#BitstreamVeraSans-Roman-30"/>
      </g>
     </g>
    </g>
    <g id="ytick_6">
     <g id="line2d_29">
      <g>
       <use style="stroke:#000000;stroke-width:0.5;" x="72.0" xlink:href="#m728421d6d4" y="91.7988726718"/>
      </g>
     </g>
     <g id="line2d_30">
      <g>
       <use style="stroke:#000000;stroke-width:0.5;" x="518.4" xlink:href="#mcb0005524f" y="91.7988726718"/>
      </g>
     </g>
     <g id="text_14">
      <!-- 300000 -->
      <g transform="translate(23.901875 95.1101226718)scale(0.12 -0.12)">
       <use xlink:href="#BitstreamVeraSans-Roman-33"/>
       <use x="63.623046875" xlink:href="#BitstreamVeraSans-Roman-30"/>
       <use x="127.24609375" xlink:href="#BitstreamVeraSans-Roman-30"/>
       <use x="190.869140625" xlink:href="#BitstreamVeraSans-Roman-30"/>
       <use x="254.4921875" xlink:href="#BitstreamVeraSans-Roman-30"/>
       <use x="318.115234375" xlink:href="#BitstreamVeraSans-Roman-30"/>
      </g>
     </g>
    </g>
    <g id="ytick_7">
     <g id="text_15">
      <!-- 350000 -->
      <g transform="translate(23.901875 46.5109098055)scale(0.12 -0.12)">
       <use xlink:href="#BitstreamVeraSans-Roman-33"/>
       <use x="63.623046875" xlink:href="#BitstreamVeraSans-Roman-35"/>
       <use x="127.24609375" xlink:href="#BitstreamVeraSans-Roman-30"/>
       <use x="190.869140625" xlink:href="#BitstreamVeraSans-Roman-30"/>
       <use x="254.4921875" xlink:href="#BitstreamVeraSans-Roman-30"/>
       <use x="318.115234375" xlink:href="#BitstreamVeraSans-Roman-30"/>
      </g>
     </g>
    </g>
   </g>
   <g id="text_16">
    <!-- Gold -->
    <defs>
     <path d="
M59.5156 10.4062
L59.5156 29.9844
L43.4062 29.9844
L43.4062 38.0938
L69.2812 38.0938
L69.2812 6.78125
Q63.5781 2.73438 56.6875 0.65625
Q49.8125 -1.42188 42 -1.42188
Q24.9062 -1.42188 15.25 8.5625
Q5.60938 18.5625 5.60938 36.375
Q5.60938 54.25 15.25 64.2344
Q24.9062 74.2188 42 74.2188
Q49.125 74.2188 55.5469 72.4531
Q61.9688 70.7031 67.3906 67.2812
L67.3906 56.7812
Q61.9219 61.4219 55.7656 63.7656
Q49.6094 66.1094 42.8281 66.1094
Q29.4375 66.1094 22.7188 58.6406
Q16.0156 51.1719 16.0156 36.375
Q16.0156 21.625 22.7188 14.1562
Q29.4375 6.6875 42.8281 6.6875
Q48.0469 6.6875 52.1406 7.59375
Q56.25 8.5 59.5156 10.4062" id="BitstreamVeraSans-Roman-47"/>
     <path d="
M45.4062 46.3906
L45.4062 75.9844
L54.3906 75.9844
L54.3906 0
L45.4062 0
L45.4062 8.20312
Q42.5781 3.32812 38.25 0.953125
Q33.9375 -1.42188 27.875 -1.42188
Q17.9688 -1.42188 11.7344 6.48438
Q5.51562 14.4062 5.51562 27.2969
Q5.51562 40.1875 11.7344 48.0938
Q17.9688 56 27.875 56
Q33.9375 56 38.25 53.625
Q42.5781 51.2656 45.4062 46.3906
M14.7969 27.2969
Q14.7969 17.3906 18.875 11.75
Q22.9531 6.10938 30.0781 6.10938
Q37.2031 6.10938 41.2969 11.75
Q45.4062 17.3906 45.4062 27.2969
Q45.4062 37.2031 41.2969 42.8438
Q37.2031 48.4844 30.0781 48.4844
Q22.9531 48.4844 18.875 42.8438
Q14.7969 37.2031 14.7969 27.2969" id="BitstreamVeraSans-Roman-64"/>
     <path d="
M9.42188 75.9844
L18.4062 75.9844
L18.4062 0
L9.42188 0
z
" id="BitstreamVeraSans-Roman-6c"/>
    </defs>
    <g transform="translate(487.40625 38.2)scale(0.144 -0.144)">
     <use xlink:href="#BitstreamVeraSans-Roman-47"/>
     <use x="77.490234375" xlink:href="#BitstreamVeraSans-Roman-6f"/>
     <use x="138.671875" xlink:href="#BitstreamVeraSans-Roman-6c"/>
     <use x="166.455078125" xlink:href="#BitstreamVeraSans-Roman-64"/>
    </g>
   </g>
   <g id="legend_1">
    <g id="patch_7">
     <path d="
M123.942 423.616
L466.458 423.616
L466.458 398.16
L123.942 398.16
z
" style="fill:#ffffff;stroke:#000000;stroke-linejoin:miter;"/>
    </g>
    <g id="line2d_31">
     <path d="
M134.022 409.822
L154.182 409.822" style="fill:none;stroke:#ff0000;stroke-linecap:square;"/>
    </g>
    <g id="line2d_32"/>
    <g id="text_17">
     <!-- Schwarzmarktpreis -->
     <defs>
      <path d="
M34.2812 27.4844
Q23.3906 27.4844 19.1875 25
Q14.9844 22.5156 14.9844 16.5
Q14.9844 11.7188 18.1406 8.90625
Q21.2969 6.10938 26.7031 6.10938
Q34.1875 6.10938 38.7031 11.4062
Q43.2188 16.7031 43.2188 25.4844
L43.2188 27.4844
z

M52.2031 31.2031
L52.2031 0
L43.2188 0
L43.2188 8.29688
Q40.1406 3.32812 35.5469 0.953125
Q30.9531 -1.42188 24.3125 -1.42188
Q15.9219 -1.42188 10.9531 3.29688
Q6 8.01562 6 15.9219
Q6 25.1406 12.1719 29.8281
Q18.3594 34.5156 30.6094 34.5156
L43.2188 34.5156
L43.2188 35.4062
Q43.2188 41.6094 39.1406 45
Q35.0625 48.3906 27.6875 48.3906
Q23 48.3906 18.5469 47.2656
Q14.1094 46.1406 10.0156 43.8906
L10.0156 52.2031
Q14.9375 54.1094 19.5781 55.0469
Q24.2188 56 28.6094 56
Q40.4844 56 46.3438 49.8438
Q52.2031 43.7031 52.2031 31.2031" id="BitstreamVeraSans-Roman-61"/>
      <path d="
M5.51562 54.6875
L48.1875 54.6875
L48.1875 46.4844
L14.4062 7.17188
L48.1875 7.17188
L48.1875 0
L4.29688 0
L4.29688 8.20312
L38.0938 47.5156
L5.51562 47.5156
z
" id="BitstreamVeraSans-Roman-7a"/>
      <path d="
M53.5156 70.5156
L53.5156 60.8906
Q47.9062 63.5781 42.9219 64.8906
Q37.9375 66.2188 33.2969 66.2188
Q25.25 66.2188 20.875 63.0938
Q16.5 59.9688 16.5 54.2031
Q16.5 49.3594 19.4062 46.8906
Q22.3125 44.4375 30.4219 42.9219
L36.375 41.7031
Q47.4062 39.5938 52.6562 34.2969
Q57.9062 29 57.9062 20.125
Q57.9062 9.51562 50.7969 4.04688
Q43.7031 -1.42188 29.9844 -1.42188
Q24.8125 -1.42188 18.9688 -0.25
Q13.1406 0.921875 6.89062 3.21875
L6.89062 13.375
Q12.8906 10.0156 18.6562 8.29688
Q24.4219 6.59375 29.9844 6.59375
Q38.4219 6.59375 43.0156 9.90625
Q47.6094 13.2344 47.6094 19.3906
Q47.6094 24.75 44.3125 27.7812
Q41.0156 30.8125 33.5 32.3281
L27.4844 33.5
Q16.4531 35.6875 11.5156 40.375
Q6.59375 45.0625 6.59375 53.4219
Q6.59375 63.0938 13.4062 68.6562
Q20.2188 74.2188 32.1719 74.2188
Q37.3125 74.2188 42.625 73.2812
Q47.9531 72.3594 53.5156 70.5156" id="BitstreamVeraSans-Roman-53"/>
      <path d="
M9.42188 54.6875
L18.4062 54.6875
L18.4062 0
L9.42188 0
z

M9.42188 75.9844
L18.4062 75.9844
L18.4062 64.5938
L9.42188 64.5938
z
" id="BitstreamVeraSans-Roman-69"/>
      <path d="
M54.8906 33.0156
L54.8906 0
L45.9062 0
L45.9062 32.7188
Q45.9062 40.4844 42.875 44.3281
Q39.8438 48.1875 33.7969 48.1875
Q26.5156 48.1875 22.3125 43.5469
Q18.1094 38.9219 18.1094 30.9062
L18.1094 0
L9.07812 0
L9.07812 75.9844
L18.1094 75.9844
L18.1094 46.1875
Q21.3438 51.125 25.7031 53.5625
Q30.0781 56 35.7969 56
Q45.2188 56 50.0469 50.1719
Q54.8906 44.3438 54.8906 33.0156" id="BitstreamVeraSans-Roman-68"/>
      <path d="
M52 44.1875
Q55.375 50.25 60.0625 53.125
Q64.75 56 71.0938 56
Q79.6406 56 84.2812 50.0156
Q88.9219 44.0469 88.9219 33.0156
L88.9219 0
L79.8906 0
L79.8906 32.7188
Q79.8906 40.5781 77.0938 44.375
Q74.3125 48.1875 68.6094 48.1875
Q61.625 48.1875 57.5625 43.5469
Q53.5156 38.9219 53.5156 30.9062
L53.5156 0
L44.4844 0
L44.4844 32.7188
Q44.4844 40.625 41.7031 44.4062
Q38.9219 48.1875 33.1094 48.1875
Q26.2188 48.1875 22.1562 43.5312
Q18.1094 38.875 18.1094 30.9062
L18.1094 0
L9.07812 0
L9.07812 54.6875
L18.1094 54.6875
L18.1094 46.1875
Q21.1875 51.2188 25.4844 53.6094
Q29.7812 56 35.6875 56
Q41.6562 56 45.8281 52.9688
Q50 49.9531 52 44.1875" id="BitstreamVeraSans-Roman-6d"/>
      <path d="
M56.2031 29.5938
L56.2031 25.2031
L14.8906 25.2031
Q15.4844 15.9219 20.4844 11.0625
Q25.4844 6.20312 34.4219 6.20312
Q39.5938 6.20312 44.4531 7.46875
Q49.3125 8.73438 54.1094 11.2812
L54.1094 2.78125
Q49.2656 0.734375 44.1875 -0.34375
Q39.1094 -1.42188 33.8906 -1.42188
Q20.7969 -1.42188 13.1562 6.1875
Q5.51562 13.8125 5.51562 26.8125
Q5.51562 40.2344 12.7656 48.1094
Q20.0156 56 32.3281 56
Q43.3594 56 49.7812 48.8906
Q56.2031 41.7969 56.2031 29.5938
M47.2188 32.2344
Q47.125 39.5938 43.0938 43.9844
Q39.0625 48.3906 32.4219 48.3906
Q24.9062 48.3906 20.3906 44.1406
Q15.875 39.8906 15.1875 32.1719
z
" id="BitstreamVeraSans-Roman-65"/>
      <path d="
M4.20312 54.6875
L13.1875 54.6875
L24.4219 12.0156
L35.5938 54.6875
L46.1875 54.6875
L57.4219 12.0156
L68.6094 54.6875
L77.5938 54.6875
L63.2812 0
L52.6875 0
L40.9219 44.8281
L29.1094 0
L18.5 0
z
" id="BitstreamVeraSans-Roman-77"/>
      <path d="
M9.07812 75.9844
L18.1094 75.9844
L18.1094 31.1094
L44.9219 54.6875
L56.3906 54.6875
L27.3906 29.1094
L57.625 0
L45.9062 0
L18.1094 26.7031
L18.1094 0
L9.07812 0
z
" id="BitstreamVeraSans-Roman-6b"/>
      <path d="
M41.1094 46.2969
Q39.5938 47.1719 37.8125 47.5781
Q36.0312 48 33.8906 48
Q26.2656 48 22.1875 43.0469
Q18.1094 38.0938 18.1094 28.8125
L18.1094 0
L9.07812 0
L9.07812 54.6875
L18.1094 54.6875
L18.1094 46.1875
Q20.9531 51.1719 25.4844 53.5781
Q30.0312 56 36.5312 56
Q37.4531 56 38.5781 55.875
Q39.7031 55.7656 41.0625 55.5156
z
" id="BitstreamVeraSans-Roman-72"/>
      <path d="
M44.2812 53.0781
L44.2812 44.5781
Q40.4844 46.5312 36.375 47.5
Q32.2812 48.4844 27.875 48.4844
Q21.1875 48.4844 17.8438 46.4375
Q14.5 44.3906 14.5 40.2812
Q14.5 37.1562 16.8906 35.375
Q19.2812 33.5938 26.5156 31.9844
L29.5938 31.2969
Q39.1562 29.25 43.1875 25.5156
Q47.2188 21.7812 47.2188 15.0938
Q47.2188 7.46875 41.1875 3.01562
Q35.1562 -1.42188 24.6094 -1.42188
Q20.2188 -1.42188 15.4531 -0.5625
Q10.6875 0.296875 5.42188 2
L5.42188 11.2812
Q10.4062 8.6875 15.2344 7.39062
Q20.0625 6.10938 24.8125 6.10938
Q31.1562 6.10938 34.5625 8.28125
Q37.9844 10.4531 37.9844 14.4062
Q37.9844 18.0625 35.5156 20.0156
Q33.0625 21.9688 24.7031 23.7812
L21.5781 24.5156
Q13.2344 26.2656 9.51562 29.9062
Q5.8125 33.5469 5.8125 39.8906
Q5.8125 47.6094 11.2812 51.7969
Q16.75 56 26.8125 56
Q31.7812 56 36.1719 55.2656
Q40.5781 54.5469 44.2812 53.0781" id="BitstreamVeraSans-Roman-73"/>
      <path d="
M18.1094 8.20312
L18.1094 -20.7969
L9.07812 -20.7969
L9.07812 54.6875
L18.1094 54.6875
L18.1094 46.3906
Q20.9531 51.2656 25.2656 53.625
Q29.5938 56 35.5938 56
Q45.5625 56 51.7812 48.0938
Q58.0156 40.1875 58.0156 27.2969
Q58.0156 14.4062 51.7812 6.48438
Q45.5625 -1.42188 35.5938 -1.42188
Q29.5938 -1.42188 25.2656 0.953125
Q20.9531 3.32812 18.1094 8.20312
M48.6875 27.2969
Q48.6875 37.2031 44.6094 42.8438
Q40.5312 48.4844 33.4062 48.4844
Q26.2656 48.4844 22.1875 42.8438
Q18.1094 37.2031 18.1094 27.2969
Q18.1094 17.3906 22.1875 11.75
Q26.2656 6.10938 33.4062 6.10938
Q40.5312 6.10938 44.6094 11.75
Q48.6875 17.3906 48.6875 27.2969" id="BitstreamVeraSans-Roman-70"/>
     </defs>
     <g transform="translate(170.022375 414.86175)scale(0.144 -0.144)">
      <use xlink:href="#BitstreamVeraSans-Roman-53"/>
      <use x="63.4765625" xlink:href="#BitstreamVeraSans-Roman-63"/>
      <use x="118.45703125" xlink:href="#BitstreamVeraSans-Roman-68"/>
      <use x="181.8359375" xlink:href="#BitstreamVeraSans-Roman-77"/>
      <use x="263.623046875" xlink:href="#BitstreamVeraSans-Roman-61"/>
      <use x="324.90234375" xlink:href="#BitstreamVeraSans-Roman-72"/>
      <use x="366.015625" xlink:href="#BitstreamVeraSans-Roman-7a"/>
      <use x="418.505859375" xlink:href="#BitstreamVeraSans-Roman-6d"/>
      <use x="515.91796875" xlink:href="#BitstreamVeraSans-Roman-61"/>
      <use x="577.197265625" xlink:href="#BitstreamVeraSans-Roman-72"/>
      <use x="618.310546875" xlink:href="#BitstreamVeraSans-Roman-6b"/>
      <use x="676.220703125" xlink:href="#BitstreamVeraSans-Roman-74"/>
      <use x="715.4296875" xlink:href="#BitstreamVeraSans-Roman-70"/>
      <use x="778.90625" xlink:href="#BitstreamVeraSans-Roman-72"/>
      <use x="817.76953125" xlink:href="#BitstreamVeraSans-Roman-65"/>
      <use x="879.29296875" xlink:href="#BitstreamVeraSans-Roman-69"/>
      <use x="907.076171875" xlink:href="#BitstreamVeraSans-Roman-73"/>
     </g>
    </g>
    <g id="line2d_33">
     <path d="
M339.609 409.822
L359.769 409.822" style="fill:none;stroke:#008000;stroke-linecap:square;"/>
    </g>
    <g id="line2d_34"/>
    <g id="text_18">
     <!-- Normalpreis -->
     <g transform="translate(375.609375 414.86175)scale(0.144 -0.144)">
      <use xlink:href="#BitstreamVeraSans-Roman-4e"/>
      <use x="74.8046875" xlink:href="#BitstreamVeraSans-Roman-6f"/>
      <use x="135.986328125" xlink:href="#BitstreamVeraSans-Roman-72"/>
      <use x="175.349609375" xlink:href="#BitstreamVeraSans-Roman-6d"/>
      <use x="272.76171875" xlink:href="#BitstreamVeraSans-Roman-61"/>
      <use x="334.041015625" xlink:href="#BitstreamVeraSans-Roman-6c"/>
      <use x="361.82421875" xlink:href="#BitstreamVeraSans-Roman-70"/>
      <use x="425.30078125" xlink:href="#BitstreamVeraSans-Roman-72"/>
      <use x="464.1640625" xlink:href="#BitstreamVeraSans-Roman-65"/>
      <use x="525.6875" xlink:href="#BitstreamVeraSans-Roman-69"/>
      <use x="553.470703125" xlink:href="#BitstreamVeraSans-Roman-73"/>
     </g>
    </g>
   </g>
  </g>
 </g>
 <defs>
  <clipPath id="pcb2bf987bf">
   <rect height="302.4" width="446.4" x="72.0" y="43.2"/>
  </clipPath>
 </defs>
</svg>
