<?xml version="1.0" encoding="utf-8" standalone="no"?>
<!DOCTYPE svg PUBLIC "-//W3C//DTD SVG 1.1//EN"
  "http://www.w3.org/Graphics/SVG/1.1/DTD/svg11.dtd">
<!-- Created with matplotlib (http://matplotlib.org/) -->
<svg height="432pt" version="1.1" viewBox="0 0 576 432" width="576pt" xmlns="http://www.w3.org/2000/svg" xmlns:xlink="http://www.w3.org/1999/xlink">
 <defs>
  <style type="text/css">
*{stroke-linecap:butt;stroke-linejoin:round;}
  </style>
 </defs>
 <g id="figure_1">
  <g id="patch_1">
   <path d="
M0 432
L576 432
L576 0
L0 0
z
" style="fill:#ffffff;"/>
  </g>
  <g id="axes_1">
   <g id="patch_2">
    <path d="
M72 345.6
L518.4 345.6
L518.4 43.2
L72 43.2
z
" style="fill:#ffffff;"/>
   </g>
   <g id="line2d_1">
    <path clip-path="url(#pcb2bf987bf)" d="
M72 305.265
L72.1276 305.811
L72.3828 306.357
L72.5105 301.987
L72.7657 311.273
L72.8933 311.82
L73.1485 313.458
L73.2762 312.366
L73.5314 311.273
L73.659 307.45
L73.9142 311.273
L74.0419 309.635
L74.4247 315.097
L74.6799 312.912
L74.8075 310.181
L75.0628 309.635
L75.5732 309.525
L75.8285 309.088
L75.9561 308.542
L76.2113 305.265
L76.3389 305.265
L76.7218 303.626
L76.9772 305.265
L77.3599 304.172
L77.7429 309.088
L78.1256 309.088
L78.1256 309.088
L78.2532 311.273
L78.5084 310.727
L78.636 309.635
L78.8915 285.053
L79.0189 309.635
L79.4017 313.458
L79.6569 314.551
L79.7846 314.551
L80.0398 314.77
L80.1674 314.005
L80.4226 373
L80.5503 263.203
L80.8055 262.111
L80.9331 315.097
L81.1885 315.097
L81.316 313.458
L81.5712 312.366
L81.6988 312.366
L81.9542 311.273
L82.3371 311.273
L82.4645 311.82
L83.1026 311.82
L83.4854 310.399
L83.613 310.399
L83.8683 309.635
L83.9959 310.399
L84.2511 310.181
L84.3787 309.088
L84.6342 310.181
L85.1444 310.727
L85.3999 309.088
L85.5273 309.088
L85.9101 306.903
L86.1654 306.357
L86.5482 307.887
L86.6758 311.82
L86.931 310.727
L87.0587 311.273
L87.3139 310.727
L87.4415 310.181
L87.6967 309.635
L87.8244 311.82
L88.2072 309.088
L88.4624 310.727
L88.5901 309.635
L88.9729 312.366
L89.2281 312.366
L89.3557 311.82
L89.611 311.273
L89.7386 310.181
L89.9938 311.273
L89.9938 311.273
L90.2491 310.181
L91.0148 310.181
L91.9081 306.357
L92.5461 314.005
L92.6738 312.912
L93.3118 309.088
L94.0775 296.525
L94.2051 305.811
L94.8432 312.147
L94.9708 311.273
L95.6089 311.273
L95.7365 310.727
L96.3746 307.34
L97.1403 300.348
L97.906 263.203
L98.0336 313.568
L98.6717 373
L98.7993 314.332
L99.4374 285.6
L100.203 295.978
L100.331 295.978
L101.862 315.097
L102.5 373
L103.266 315.425
L103.393 205.3
L104.032 314.005
L104.797 312.366
L105.563 308.542
L106.329 285.053
L107.095 311.82
L107.988 312.366
L108.626 311.82
L109.391 305.92
L109.519 305.811
L110.157 305.811
L110.285 307.34
L110.923 296.525
L111.05 305.265
L111.689 308.542
L111.816 312.366
L113.986 310.727
L114.879 312.366
L116.283 308.979
L116.41 307.996
L117.048 311.82
L117.814 279.591
L117.942 58.9048
L118.58 311.164
L118.707 308.542
L119.345 305.265
L120.111 311.273
L120.877 310.181
L121.004 311.273
L121.643 309.088
L122.536 293.247
L123.174 305.811
L123.94 306.903
L124.067 306.357
L124.705 307.45
L126.109 294.23
L126.365 294.23
L127.002 289.97
L127.13 289.97
L127.13 289.97
L127.64 293.247
L127.768 293.247
L128.534 301.987
L128.661 300.895
L129.299 299.802
L130.065 303.626
L130.193 303.08
L130.831 288.331
L131.597 286.692
L132.362 298.163
L132.362 298.163
L133.894 299.802
L134.149 298.71
L134.659 295.978
L135.425 301.987
L136.191 301.987
L136.318 302.533
L136.956 295.978
L137.722 300.895
L138.488 306.794
L139.254 305.811
L139.381 304.718
L140.019 301.987
L140.785 302.424
L141.678 293.793
L142.316 299.256
L143.082 302.533
L143.975 289.423
L144.613 306.903
L145.507 304.172
L146.145 301.441
L146.272 301.987
L147.038 301.441
L147.676 303.626
L148.442 304.172
L149.208 304.391
L149.973 299.802
L150.739 297.071
L150.867 295.978
L151.505 294.886
L152.27 303.626
L153.164 289.97
L153.802 291.062
L154.567 299.256
L155.333 296.525
L155.333 296.525
L156.099 286.692
L156.865 292.155
L157.63 295.978
L157.758 294.886
L158.396 293.247
L159.162 291.608
L159.927 298.71
L160.821 304.609
L162.224 300.895
L162.99 299.256
L163.118 299.256
L163.756 306.357
L163.883 306.357
L164.521 304.172
L165.287 295.432
L166.053 305.811
L166.819 303.08
L167.712 298.163
L168.35 309.744
L169.243 309.744
L169.881 307.887
L170.647 310.509
L170.775 310.509
L172.178 306.357
L172.944 305.811
L173.072 295.978
L173.71 312.366
L174.475 310.727
L174.603 310.181
L176.007 310.181
L176.773 312.366
L176.9 312.366
L177.538 315.097
L178.304 311.82
L179.07 311.273
L179.835 285.053
L179.963 308.979
L180.601 306.357
L180.729 305.265
L181.367 310.181
L182.132 308.542
L182.26 307.996
L182.898 312.912
L183.664 373
L183.791 315.097
L184.43 312.912
L185.195 309.635
L185.961 306.903
L186.727 312.912
L187.492 314.551
L188.258 307.996
L189.024 315.097
L189.151 373
L190.555 311.492
L191.321 310.727
L191.321 310.727
L192.852 295.978
L193.618 302.533
L194.384 301.441
L195.277 301.987
L195.915 303.626
L196.681 313.458
L198.212 300.895
L198.212 300.895
L198.978 313.458
L200.509 306.903
L202.04 301.441
L202.806 304.172
L203.572 307.45
L203.699 306.357
L204.338 310.727
L205.103 311.273
L205.231 313.349
L205.997 309.088
L206.124 309.635
L206.507 300.895
L206.635 300.895
L206.635 300.895
L206.762 309.635
L207.4 312.803
L207.911 311.82
L208.166 312.366
L208.804 314.223
L209.059 314.005
L209.059 314.005
L209.57 314.005
L209.825 311.82
L210.591 312.366
L210.846 312.366
L211.484 306.903
L211.867 305.265
L212.122 305.811
L212.25 305.811
L212.505 306.903
L212.633 314.223
L212.888 313.458
L213.271 312.912
L213.398 314.005
L213.781 314.005
L214.036 312.366
L214.164 312.366
L214.419 263.203
L214.547 311.82
L214.802 313.458
L215.313 311.273
L215.568 310.727
L215.695 309.635
L215.951 312.366
L215.951 312.366
L216.078 312.366
L216.461 308.542
L216.589 305.265
L216.589 305.265
L216.844 312.366
L217.099 312.366
L217.227 311.82
L217.482 373
L217.482 373
L217.61 312.366
L217.865 314.005
L218.248 311.273
L218.248 311.273
L218.375 311.273
L218.631 312.912
L218.758 312.366
L219.013 311.82
L219.141 284.507
L219.396 310.181
L219.779 311.273
L219.907 312.912
L220.162 312.912
L220.29 373
L220.29 373
L220.417 373
L220.545 314.005
L220.672 313.458
L220.672 313.458
L220.928 310.727
L221.055 373
L221.31 307.45
L221.438 315.097
L221.693 311.82
L222.076 310.727
L222.204 315.097
L222.459 312.912
L222.587 310.181
L222.842 310.181
L222.842 310.181
L223.225 310.727
L223.352 314.551
L223.608 373
L223.735 315.644
L223.99 313.349
L224.118 314.005
L224.373 312.366
L224.501 307.45
L224.756 311.273
L224.884 310.181
L225.139 315.097
L225.267 314.988
L225.522 312.912
L225.649 315.097
L225.649 315.097
L225.777 305.811
L225.777 305.811
L225.905 315.097
L225.905 315.097
L226.16 314.005
L226.16 314.005
L226.288 312.912
L226.415 315.097
L226.415 315.097
L226.67 312.912
L226.798 314.988
L227.053 315.207
L227.181 314.551
L227.436 314.551
L227.436 314.551
L227.819 315.097
L227.946 373
L228.202 315.097
L228.329 314.005
L228.585 305.811
L228.712 192.737
L228.967 301.441
L229.095 300.895
L229.35 276.313
L229.478 275.767
L229.733 276.313
L229.861 264.296
L230.116 275.658
L230.244 275.658
L230.499 263.75
L230.499 263.75
L230.882 277.297
L231.009 276.86
L231.392 274.019
L231.647 272.49
L231.775 276.86
L232.158 298.163
L232.413 299.256
L232.541 298.163
L232.796 300.895
L232.796 300.895
L233.179 299.256
L233.306 286.146
L233.562 300.348
L233.689 299.256
L233.944 304.172
L234.072 312.912
L234.455 307.996
L234.71 312.912
L235.093 312.912
L235.093 312.912
L235.221 313.24
L235.476 313.349
L235.603 312.366
L235.859 311.82
L235.859 311.82
L235.986 315.207
L236.242 314.551
L236.369 315.207
L236.624 315.207
L236.752 314.551
L237.007 315.207
L237.135 315.207
L237.39 314.551
L237.518 312.366
L237.773 312.366
L237.901 312.912
L238.156 94.4112
L238.283 314.551
L238.539 314.551
L238.666 314.005
L239.049 307.996
L239.304 306.903
L239.432 307.45
L239.687 285.053
L239.815 305.811
L240.07 306.357
L240.198 308.542
L240.453 309.198
L240.453 309.198
L240.58 308.542
L240.836 309.088
L240.963 308.542
L241.219 310.727
L241.346 310.181
L241.601 310.727
L242.112 306.903
L242.367 314.551
L242.75 310.727
L242.878 314.551
L243.133 311.82
L243.516 315.644
L243.643 314.005
L243.898 373
L244.026 315.644
L244.281 373
L244.409 315.644
L244.664 314.551
L244.792 311.82
L245.047 311.82
L245.047 311.82
L245.175 314.551
L245.43 310.181
L245.557 292.701
L245.813 373
L245.94 314.551
L246.323 312.912
L246.578 314.005
L246.578 314.005
L246.706 314.005
L246.961 373
L247.089 373
L247.344 314.879
L247.855 310.181
L248.493 307.45
L248.876 307.45
L248.876 307.45
L249.003 306.903
L249.258 306.903
L249.641 373
L249.641 373
L250.024 373
L250.152 314.551
L250.407 312.912
L250.534 312.912
L250.79 312.366
L250.917 312.366
L251.173 311.82
L251.3 312.366
L251.555 373
L251.938 373
L252.066 312.912
L252.321 315.644
L252.449 311.82
L252.704 312.912
L252.832 315.316
L253.214 315.097
L253.47 314.551
L253.597 315.534
L253.852 307.45
L253.98 315.097
L254.235 314.551
L254.363 313.458
L254.618 312.912
L254.746 307.45
L254.746 307.45
L255.129 305.265
L255.129 305.265
L255.511 296.525
L255.511 296.525
L255.767 314.551
L255.767 314.551
L255.894 373
L256.277 312.912
L256.532 313.458
L256.66 313.458
L256.66 313.458
L257.043 311.273
L257.298 311.273
L257.426 312.366
L257.681 311.82
L257.809 313.458
L258.064 312.366
L258.064 312.366
L258.574 312.912
L258.702 314.551
L258.83 313.458
L258.957 311.273
L259.212 312.912
L259.212 312.912
L259.34 312.366
L259.595 311.82
L259.595 311.82
L259.723 311.82
L259.978 312.257
L260.106 307.45
L260.361 307.45
L260.489 310.727
L260.744 313.458
L260.871 313.458
L261.127 301.987
L261.254 310.181
L261.509 309.088
L261.637 312.912
L261.892 311.71
L262.02 310.181
L262.275 310.181
L262.403 311.71
L262.786 307.45
L263.041 307.996
L263.424 306.357
L263.424 306.357
L263.551 295.978
L263.807 315.097
L263.934 373
L264.189 312.912
L264.189 312.912
L264.317 313.458
L264.572 373
L264.7 314.551
L264.955 307.45
L264.955 307.45
L265.083 308.542
L265.338 309.635
L265.466 373
L265.593 313.458
L265.848 312.912
L266.104 373
L266.231 373
L266.486 314.551
L266.614 315.534
L266.869 314.988
L266.997 315.644
L267.252 306.903
L267.38 306.903
L267.635 305.811
L267.763 306.903
L268.401 306.903
L268.784 305.265
L268.911 305.265
L269.166 306.357
L269.294 314.332
L269.549 315.644
L269.677 263.75
L269.932 313.895
L270.06 313.895
L270.443 305.811
L270.698 305.265
L270.825 373
L271.081 314.005
L271.463 312.912
L271.846 312.912
L272.229 310.181
L272.357 310.181
L272.612 297.071
L272.74 279.591
L272.995 279.591
L273.122 307.996
L273.378 311.273
L273.378 311.273
L273.506 373
L273.761 373
L273.888 315.644
L274.143 315.644
L274.271 315.097
L274.526 313.458
L274.654 313.458
L274.909 315.644
L274.909 315.644
L275.292 312.912
L275.675 315.534
L276.058 315.644
L276.185 316.19
L276.441 315.097
L276.568 315.097
L276.951 313.458
L277.206 314.551
L277.334 314.005
L277.589 313.458
L277.717 373
L277.972 307.45
L277.972 307.45
L278.099 307.45
L278.355 275.221
L278.482 315.644
L278.738 312.912
L279.12 314.551
L279.248 373
L279.503 315.644
L279.631 373
L279.886 315.097
L280.014 312.912
L280.269 316.736
L280.269 316.736
L280.397 312.366
L280.652 312.912
L281.035 307.996
L281.035 307.996
L281.162 307.45
L281.417 309.088
L281.545 314.551
L281.801 92.2262
L282.183 311.82
L282.311 310.727
L282.566 305.811
L282.694 296.525
L283.332 309.088
L283.459 309.635
L283.715 373
L284.225 373
L284.48 314.551
L284.608 314.551
L284.736 314.005
L285.246 313.458
L285.374 373
L285.756 373
L286.012 315.644
L286.395 315.644
L286.522 314.551
L286.777 314.005
L286.905 313.458
L287.16 312.912
L287.288 314.551
L287.671 312.366
L287.926 311.273
L288.054 314.005
L288.437 308.542
L288.692 315.097
L288.819 373
L289.202 290.516
L289.457 313.895
L289.585 312.366
L289.84 300.895
L289.968 300.239
L290.223 311.82
L290.351 373
L290.606 314.551
L290.733 313.458
L290.861 314.005
L290.989 314.005
L291.116 313.458
L291.372 373
L291.499 373
L291.754 314.551
L292.137 373
L292.265 373
L292.52 307.45
L292.52 307.45
L292.648 315.097
L292.903 314.005
L293.286 307.996
L293.286 307.996
L293.413 307.45
L293.669 313.458
L293.669 313.458
L293.796 307.45
L294.179 301.441
L294.562 298.163
L294.817 297.071
L294.817 297.071
L294.945 297.071
L295.2 314.77
L295.328 315.644
L295.583 314.551
L295.71 314.551
L295.966 311.82
L296.476 310.181
L296.731 310.618
L296.859 311.273
L297.114 311.82
L297.242 312.366
L297.497 311.82
L297.625 310.727
L297.88 310.181
L298.008 315.097
L298.263 315.097
L298.39 314.005
L298.773 295.978
L299.028 297.071
L299.156 373
L299.411 313.458
L299.539 314.988
L299.794 315.644
L299.922 315.097
L300.177 373
L300.305 314.005
L300.687 312.366
L301.07 306.903
L301.453 314.005
L301.708 373
L301.836 315.644
L302.091 315.644
L302.219 313.458
L302.474 315.644
L302.474 315.644
L302.857 313.458
L302.985 313.458
L303.368 312.257
L303.623 314.551
L303.75 312.912
L304.005 313.458
L304.005 313.458
L304.133 312.912
L304.388 312.366
L304.771 310.727
L304.899 309.635
L305.282 309.525
L305.664 307.996
L306.303 307.996
L306.43 307.45
L306.685 198.745
L306.813 307.996
L307.068 313.458
L307.068 313.458
L307.451 311.82
L307.579 307.45
L307.834 307.45
L307.962 313.568
L308.217 313.458
L308.344 315.971
L308.727 315.971
L308.983 373
L309.748 373
L309.876 316.19
L310.259 312.912
L310.514 311.82
L310.642 313.458
L310.897 310.727
L311.024 311.82
L311.28 311.273
L311.407 312.257
L311.662 311.71
L311.79 311.71
L312.173 309.635
L312.428 310.181
L312.556 307.996
L312.811 307.45
L312.939 307.996
L313.194 307.996
L313.704 304.172
L313.96 306.903
L314.087 306.903
L314.342 310.181
L314.47 309.088
L314.725 285.6
L314.853 310.181
L315.108 313.458
L315.236 308.542
L315.619 308.542
L315.874 314.988
L316.257 314.551
L316.767 312.366
L317.022 309.635
L317.15 312.912
L317.405 315.097
L317.533 312.912
L317.916 312.257
L318.298 312.366
L318.681 307.45
L318.937 308.542
L319.064 312.912
L319.319 310.727
L319.319 310.727
L319.447 312.366
L319.702 312.366
L319.83 315.644
L320.085 315.644
L320.213 373
L320.596 373
L320.851 313.458
L320.851 313.458
L321.234 314.005
L321.361 315.644
L321.616 314.005
L322.127 313.458
L322.765 312.912
L322.893 311.82
L323.148 314.551
L323.275 314.005
L323.531 312.366
L323.658 314.988
L323.914 315.097
L323.914 315.097
L324.041 315.644
L324.296 315.644
L324.424 314.551
L324.679 313.458
L324.807 315.097
L325.062 313.458
L325.19 313.458
L325.445 314.551
L325.573 314.551
L325.828 312.912
L325.956 314.005
L326.211 313.458
L326.338 314.005
L326.593 312.912
L326.721 314.551
L326.976 314.551
L327.104 312.366
L327.359 373
L327.487 314.551
L327.742 315.753
L328.252 313.458
L328.508 313.458
L328.635 312.912
L328.891 315.097
L329.018 315.097
L329.273 314.551
L329.656 314.551
L329.784 373
L330.167 373
L330.422 314.551
L330.805 316.19
L330.933 316.19
L331.188 373
L331.315 316.19
L331.57 316.19
L331.953 314.551
L332.081 313.458
L332.464 309.088
L332.719 314.005
L332.847 373
L333.102 314.005
L333.23 314.005
L333.485 373
L333.612 315.097
L333.868 373
L333.995 315.971
L334.25 314.551
L334.378 314.551
L334.633 316.19
L334.761 315.644
L335.016 373
L335.144 373
L335.399 285.6
L335.527 315.644
L335.782 316.081
L335.909 373
L336.165 314.005
L336.292 311.82
L336.548 311.273
L336.675 311.273
L337.058 305.811
L337.441 305.811
L337.696 304.172
L337.824 291.062
L338.079 315.644
L338.207 310.181
L338.462 307.45
L338.589 307.45
L338.845 307.996
L339.227 311.273
L339.61 309.635
L339.866 307.996
L340.504 307.996
L340.759 309.525
L340.886 309.088
L341.142 311.273
L341.269 310.727
L341.525 312.803
L341.652 312.803
L341.907 312.257
L342.035 311.273
L342.29 311.82
L342.418 311.82
L342.673 315.534
L342.801 373
L343.056 314.551
L343.184 314.988
L343.439 314.879
L343.566 314.551
L343.822 373
L343.822 373
L343.949 316.081
L344.204 315.534
L344.332 316.081
L344.588 373
L344.715 315.644
L344.97 316.081
L345.098 315.862
L345.353 315.097
L345.353 315.097
L345.481 315.644
L345.736 315.097
L346.119 311.273
L346.246 309.635
L346.502 303.08
L346.629 315.971
L347.267 310.727
L347.395 310.727
L347.65 289.423
L347.778 312.912
L348.033 312.912
L348.161 285.6
L348.416 307.996
L348.543 306.357
L348.799 182.358
L348.926 304.172
L349.309 301.987
L349.692 304.718
L349.947 305.265
L350.075 301.987
L350.458 299.256
L350.713 300.348
L350.84 300.348
L351.224 315.097
L351.606 316.19
L351.989 311.82
L352.244 316.19
L352.372 314.005
L352.627 315.097
L352.755 313.458
L353.01 314.551
L353.138 314.005
L353.393 315.097
L353.52 315.097
L353.776 314.551
L353.776 314.551
L354.158 312.912
L354.541 312.912
L354.669 311.273
L354.924 310.181
L355.052 306.903
L355.307 305.811
L355.307 305.811
L355.69 312.912
L355.817 307.996
L356.2 303.08
L356.583 312.912
L356.966 312.912
L357.221 311.273
L357.477 313.458
L357.732 313.458
L357.987 310.181
L358.37 310.181
L358.37 310.181
L358.753 306.903
L358.88 306.794
L359.136 307.996
L359.263 306.903
L359.518 307.45
L359.646 307.45
L360.284 304.718
L360.412 304.718
L360.795 302.533
L361.05 303.626
L361.177 303.08
L361.433 307.45
L361.56 307.45
L361.816 308.542
L361.943 308.542
L362.326 313.786
L362.581 312.912
L362.709 373
L362.964 373
L363.092 315.097
L363.347 306.357
L363.474 306.248
L363.857 315.644
L364.113 313.458
L364.24 313.458
L364.495 315.097
L364.623 314.551
L364.878 299.802
L365.006 299.802
L365.261 298.71
L365.389 299.802
L365.644 314.005
L366.027 314.005
L366.027 314.005
L366.155 315.097
L366.41 315.097
L366.537 315.644
L366.92 312.912
L367.175 315.097
L367.303 315.097
L367.686 313.458
L367.941 312.912
L368.069 312.912
L368.324 312.366
L368.451 304.172
L368.707 312.366
L369.09 311.273
L369.6 310.727
L369.983 310.618
L370.621 308.542
L370.749 309.088
L371.131 314.223
L371.387 311.273
L371.769 312.366
L371.897 311.82
L372.152 309.635
L372.28 313.458
L372.535 310.181
L372.663 306.357
L372.918 313.458
L373.046 312.366
L373.301 312.366
L373.428 310.181
L373.684 309.088
L373.684 309.088
L373.811 300.895
L374.577 300.895
L374.96 313.458
L375.215 312.366
L375.343 313.458
L375.726 309.635
L375.981 89.4949
L376.108 308.542
L376.364 307.996
L376.491 305.811
L376.746 305.811
L377.129 304.172
L377.512 304.063
L377.512 304.063
L377.64 301.441
L377.767 263.75
L378.023 300.895
L378.278 300.348
L378.405 299.802
L378.661 305.265
L378.788 305.265
L379.044 303.626
L379.171 304.172
L379.426 310.618
L379.554 310.618
L379.809 312.912
L379.937 312.366
L380.192 312.912
L380.575 311.82
L380.703 311.82
L380.958 310.181
L381.341 299.802
L381.468 299.802
L381.723 297.071
L381.851 299.802
L382.107 312.912
L382.234 312.912
L382.489 314.77
L382.617 313.458
L382.872 312.366
L383 311.273
L383.255 311.273
L383.383 310.727
L383.638 312.912
L384.148 307.996
L384.531 305.811
L384.786 305.811
L385.169 307.45
L385.552 307.45
L385.68 306.903
L385.935 304.172
L386.062 305.265
L386.318 304.718
L386.445 304.718
L386.701 304.172
L387.083 304.172
L387.211 303.626
L387.466 307.45
L387.594 307.45
L387.849 306.903
L387.977 299.802
L388.615 297.071
L388.742 294.886
L388.998 298.054
L389.125 295.432
L389.508 300.895
L389.763 312.912
L389.891 279.045
L390.146 311.82
L390.274 312.366
L390.529 307.996
L390.657 314.005
L390.912 311.82
L391.039 373
L391.295 313.458
L391.422 314.005
L391.678 314.551
L391.805 314.551
L392.06 315.097
L392.188 315.644
L392.443 316.19
L392.571 315.644
L392.826 373
L392.954 316.19
L393.209 373
L393.337 373
L393.592 315.644
L393.719 316.081
L394.102 314.551
L394.102 314.551
L394.485 314.988
L394.74 314.005
L394.868 314.551
L395.123 313.458
L395.251 313.458
L395.506 312.366
L395.634 312.912
L395.889 309.088
L396.016 309.088
L396.272 308.542
L396.399 309.635
L396.655 308.542
L396.782 308.979
L397.42 307.996
L397.548 309.088
L397.931 309.088
L398.569 306.357
L398.696 308.542
L399.079 310.181
L399.335 312.366
L399.462 310.727
L399.717 312.912
L399.845 311.82
L400.1 311.273
L400.483 311.273
L400.611 309.635
L400.866 309.635
L400.993 263.75
L401.249 307.45
L401.376 307.45
L401.632 314.005
L402.014 314.005
L402.397 312.366
L402.525 307.45
L402.78 312.366
L402.908 310.727
L403.291 308.433
L403.546 312.803
L403.673 312.912
L404.056 312.257
L404.311 297.617
L404.439 297.071
L404.694 297.617
L404.822 298.163
L405.077 312.912
L405.205 311.82
L405.46 312.366
L405.843 312.366
L405.97 311.273
L406.226 311.82
L406.353 310.727
L406.609 310.181
L406.736 312.366
L406.991 311.273
L407.119 312.366
L407.374 308.542
L407.502 311.273
L407.885 309.635
L408.14 311.273
L408.268 311.273
L408.523 310.727
L408.65 308.542
L408.906 310.727
L409.033 309.635
L409.289 309.635
L409.416 306.357
L409.671 309.088
L409.799 307.996
L410.054 313.458
L410.182 312.912
L410.437 310.727
L410.565 310.727
L410.82 309.635
L410.948 308.542
L411.33 300.895
L411.586 309.635
L411.713 309.088
L411.968 308.542
L412.096 311.055
L412.607 307.996
L412.989 306.903
L413.245 308.542
L413.627 295.978
L413.883 301.332
L414.01 308.542
L414.393 306.357
L414.648 295.978
L414.776 295.432
L415.031 293.247
L415.159 293.247
L415.414 286.692
L415.542 290.953
L415.797 290.516
L416.307 286.692
L416.563 286.146
L416.69 289.423
L416.945 287.785
L417.073 287.785
L417.328 287.238
L417.456 286.146
L417.839 309.088
L418.094 306.903
L418.222 307.996
L418.604 312.366
L418.86 310.181
L418.987 310.181
L419.243 305.811
L419.37 308.542
L419.625 307.45
L419.753 307.45
L420.008 305.811
L420.136 306.903
L420.391 305.265
L420.519 305.265
L420.902 303.626
L421.157 305.811
L421.54 304.172
L421.667 303.08
L421.922 302.533
L422.05 291.062
L422.305 295.978
L422.433 303.626
L422.688 301.987
L422.816 307.45
L423.071 306.357
L423.199 307.45
L423.454 306.903
L423.581 306.903
L423.837 309.088
L423.964 308.979
L424.22 310.727
L424.347 315.097
L424.602 314.551
L424.73 315.097
L424.985 313.458
L425.113 311.273
L425.368 314.551
L425.496 314.551
L425.751 311.82
L426.134 311.82
L426.899 305.265
L427.282 304.172
L427.41 305.265
L427.665 302.533
L427.793 302.533
L428.048 306.903
L428.176 306.357
L428.558 306.357
L428.814 280.137
L428.941 307.45
L429.197 311.82
L429.324 309.088
L429.579 307.45
L429.707 313.458
L429.962 311.273
L430.09 311.273
L430.345 301.987
L430.473 309.088
L430.728 307.996
L430.856 311.273
L430.983 310.727
L431.238 310.181
L431.494 311.273
L431.621 311.273
L432.004 312.912
L432.387 310.727
L432.77 310.727
L433.025 309.635
L433.153 309.635
L433.408 308.542
L433.536 308.542
L433.791 307.45
L434.301 307.45
L434.556 309.088
L434.684 308.542
L434.939 310.181
L435.067 306.794
L435.322 307.996
L435.45 307.996
L435.833 304.718
L436.088 306.903
L436.471 306.903
L436.598 309.635
L436.854 307.996
L436.981 308.433
L437.236 307.996
L437.619 306.357
L437.747 313.458
L438.002 312.912
L438.13 312.257
L438.385 311.82
L438.513 311.273
L438.768 312.912
L438.895 312.912
L439.151 314.551
L440.299 312.912
L440.299 312.912
L440.427 311.82
L440.682 311.273
L441.065 308.542
L441.192 311.273
L441.448 311.82
L441.575 311.273
L441.831 308.542
L441.831 308.542
L442.341 315.097
L442.596 314.551
L442.724 314.005
L442.979 314.551
L443.107 314.005
L443.49 311.055
L443.872 312.912
L444.255 305.265
L444.638 305.265
L445.021 301.987
L445.276 300.895
L445.404 301.441
L445.659 301.441
L446.042 300.895
L446.169 300.348
L446.425 304.718
L446.552 303.626
L446.808 295.978
L446.935 306.903
L447.19 309.635
L447.318 314.988
L447.701 312.366
L447.956 313.458
L448.084 315.097
L448.339 315.644
L448.467 315.644
L448.722 315.097
L448.849 315.644
L449.105 314.005
L449.487 314.005
L449.487 314.005
L449.87 315.097
L450.126 313.458
L450.381 312.366
L450.636 312.366
L450.764 311.273
L451.019 312.912
L451.146 311.82
L451.529 311.82
L451.785 311.273
L451.912 311.273
L452.167 301.987
L452.295 301.987
L452.55 373
L452.933 373
L453.061 316.736
L453.316 316.19
L453.444 315.644
L453.826 315.644
L454.209 313.458
L454.465 312.366
L454.592 310.727
L454.847 313.458
L454.847 313.458
L454.975 313.458
L455.23 312.912
L455.358 314.005
L455.613 315.097
L455.741 312.912
L456.123 304.718
L456.506 303.08
L456.762 305.811
L456.889 305.265
L457.144 309.635
L457.272 309.088
L457.527 312.912
L457.655 312.366
L457.91 312.912
L458.038 300.239
L458.293 307.996
L458.421 306.794
L458.676 313.458
L458.803 313.458
L459.186 312.366
L459.442 312.912
L459.569 314.005
L459.952 312.366
L460.207 312.366
L460.335 311.82
L461.101 316.19
L461.356 315.644
L461.484 315.644
L461.866 309.088
L462.121 306.357
L462.249 307.45
L462.632 311.82
L462.887 312.366
L463.015 311.82
L463.27 316.081
L463.398 315.644
L463.653 316.19
L463.781 314.005
L464.036 311.82
L464.163 314.551
L464.419 315.097
L464.546 314.442
L464.801 316.19
L464.929 314.005
L465.184 314.551
L465.312 314.005
L465.695 311.273
L465.95 307.996
L466.078 307.996
L466.333 310.181
L466.46 312.366
L466.716 300.348
L466.843 312.366
L467.098 312.912
L467.098 312.912
L467.226 315.316
L467.481 314.442
L467.864 315.097
L467.992 373
L468.63 373
L468.757 316.736
L469.14 314.005
L469.396 313.458
L469.523 312.912
L469.906 312.912
L470.161 314.551
L470.289 314.551
L470.544 285.053
L470.672 314.551
L470.927 314.005
L471.055 314.005
L471.31 314.551
L471.437 313.458
L472.203 310.181
L472.458 312.912
L472.586 312.912
L472.841 309.635
L472.969 310.181
L473.352 312.912
L473.607 312.366
L473.734 307.45
L474.118 314.551
L474.373 316.736
L474.5 313.458
L474.755 313.458
L474.883 316.19
L475.138 373
L475.266 314.551
L475.521 316.19
L475.649 315.097
L475.904 316.736
L476.032 373
L476.287 314.551
L476.414 312.912
L476.67 315.097
L477.18 310.727
L477.435 317.064
L477.563 373
L477.818 306.903
L478.201 301.441
L478.329 301.987
L478.584 301.441
L478.711 301.987
L478.967 316.081
L479.094 314.551
L479.35 312.912
L479.732 314.551
L479.86 316.627
L480.115 373
L480.243 316.19
L480.498 315.644
L480.626 314.988
L480.881 315.097
L481.009 312.912
L481.264 312.366
L481.647 314.005
L482.03 307.996
L482.157 307.996
L482.412 312.366
L482.54 310.727
L482.795 313.895
L482.923 312.912
L483.178 314.005
L483.561 311.273
L483.689 311.82
L483.944 315.097
L484.071 312.366
L484.327 311.273
L484.454 310.181
L484.709 313.458
L484.837 311.273
L485.092 314.005
L485.22 309.635
L485.475 314.005
L485.858 313.895
L485.986 312.912
L486.241 285.053
L486.241 285.053
L486.368 285.053
L486.624 284.507
L486.751 283.961
L487.007 285.053
L487.134 284.507
L487.389 285.6
L487.517 285.6
L487.772 283.961
L487.9 283.961
L488.155 282.868
L488.283 283.305
L488.538 282.868
L488.666 283.415
L488.921 283.415
L489.048 282.868
L489.304 283.305
L489.431 285.053
L489.686 284.507
L489.814 284.507
L490.069 285.6
L490.452 285.6
L490.58 306.903
L490.835 305.155
L490.963 305.265
L491.345 299.256
L491.601 300.895
L491.728 303.08
L491.984 304.172
L492.111 303.626
L492.366 303.08
L492.494 301.987
L492.749 303.626
L492.877 302.752
L493.132 304.172
L493.26 303.08
L493.515 306.903
L493.643 306.903
L493.898 307.45
L494.026 307.45
L494.281 303.626
L494.408 308.542
L494.663 312.803
L494.791 312.912
L495.046 312.912
L495.429 314.551
L495.557 314.005
L495.684 314.005
L495.812 312.912
L495.812 312.912
L495.94 310.727
L496.195 310.727
L496.322 309.635
L496.578 309.088
L496.961 306.357
L497.088 306.903
L497.343 305.811
L497.471 305.811
L497.726 306.357
L497.854 305.811
L498.109 305.265
L498.237 304.172
L498.492 303.08
L498.62 303.08
L499.002 300.895
L499.258 299.802
L499.258 299.802
L499.385 299.802
L499.64 298.163
L499.768 298.71
L500.023 300.895
L500.406 296.525
L500.534 296.525
L500.789 297.617
L500.917 296.525
L501.299 310.181
L501.555 305.265
L501.682 307.45
L501.938 305.265
L502.065 263.203
L502.32 304.172
L502.448 305.265
L502.703 303.08
L502.831 306.357
L503.086 307.34
L503.214 305.265
L503.469 303.626
L503.597 304.718
L503.852 305.811
L503.979 305.811
L504.235 308.542
L504.362 307.996
L504.617 305.265
L504.873 305.155
L505.128 303.626
L505.383 304.172
L505.511 304.718
L505.766 304.718
L506.277 302.533
L506.532 305.265
L506.659 305.265
L506.915 304.718
L507.042 306.903
L507.297 305.811
L507.425 305.811
L507.68 304.609
L507.808 305.265
L508.191 305.265
L508.574 309.088
L508.829 310.727
L509.339 310.727
L509.595 308.542
L509.722 308.542
L509.977 307.45
L510.36 306.357
L510.488 306.357
L510.743 305.811
L510.871 305.811
L511.126 308.542
L511.509 309.088
L511.636 309.635
L511.892 309.088
L512.019 291.062
L512.274 308.542
L512.402 306.357
L512.657 309.088
L513.168 306.794
L513.423 306.357
L513.551 305.811
L513.806 302.533
L513.933 302.424
L514.189 300.895
L514.317 304.718
L514.572 303.08
L514.699 306.903
L514.954 307.45
L515.082 307.34
L515.337 309.635
L515.465 309.635
L515.848 307.45
L516.103 285.053
L516.231 285.053
L516.486 305.811
L516.613 302.533
L516.996 299.693
L517.251 300.895
L517.379 299.256
L518.017 311.82
L518.4 307.996
L518.4 307.996" style="fill:none;stroke:#ff0000;stroke-linecap:square;"/>
   </g>
   <g id="line2d_2">
    <path clip-path="url(#pcb2bf987bf)" d="
M72 318.375
L72.1276 317.173
L72.7657 317.173
L72.8933 317.829
L74.2971 317.938
L74.4247 318.703
L75.0628 318.703
L75.1904 317.61
L75.8285 317.61
L75.9561 316.955
L76.5942 316.955
L76.7218 316.408
L77.3599 316.408
L77.8703 316.19
L78.1256 316.19
L78.1256 316.19
L78.2532 317.719
L78.8915 317.719
L79.0189 317.501
L79.6569 317.501
L79.7846 317.938
L80.4226 317.938
L80.5503 318.703
L81.1885 318.703
L81.316 318.156
L81.9542 318.156
L82.0816 317.173
L84.2511 317.282
L84.3787 316.627
L85.017 316.627
L85.1444 316.845
L85.7825 316.845
L85.9101 316.299
L86.5482 316.299
L86.6758 316.518
L87.3139 316.518
L87.4415 317.282
L88.0796 317.282
L88.2072 316.518
L88.8453 316.518
L88.8453 316.518
L88.9729 317.173
L89.611 317.173
L89.7386 316.955
L90.3767 316.955
L91.0148 316.627
L91.9081 316.955
L92.6738 316.081
L93.3118 318.484
L94.0775 317.064
L94.9708 316.955
L95.7365 317.392
L96.3746 317.282
L97.1403 316.299
L97.906 318.266
L98.0336 318.266
L98.7993 317.829
L99.4374 318.047
L100.331 316.955
L100.969 316.955
L101.862 317.829
L102.5 318.266
L104.032 318.156
L104.797 317.501
L105.563 318.266
L106.329 318.156
L107.095 316.845
L107.988 318.047
L108.626 318.047
L109.391 316.299
L109.519 316.299
L110.285 315.862
L111.05 316.19
L111.816 316.19
L113.986 317.064
L114.879 315.862
L116.41 315.753
L117.048 316.408
L117.942 316.408
L118.58 317.719
L118.707 317.719
L119.345 315.753
L120.111 316.627
L121.004 316.408
L121.643 316.518
L122.536 315.316
L123.174 314.66
L124.067 314.77
L124.705 315.534
L125.471 315.753
L126.109 314.005
L126.365 314.005
L127.002 312.803
L127.13 312.803
L127.13 312.803
L127.768 312.257
L128.661 313.24
L129.299 314.551
L130.193 315.425
L130.831 314.77
L131.597 313.349
L132.362 313.349
L132.362 313.349
L133.894 313.677
L134.149 313.568
L134.659 313.568
L135.425 312.694
L136.318 313.458
L136.956 313.895
L137.722 311.71
L138.488 312.475
L139.254 314.114
L140.019 314.223
L140.785 313.349
L141.678 313.677
L142.316 312.694
L143.082 313.349
L143.848 315.971
L143.975 315.971
L144.613 315.097
L145.507 316.299
L146.145 315.097
L146.272 315.097
L147.038 314.66
L147.676 314.332
L148.442 315.862
L149.973 315.316
L151.505 313.131
L152.27 315.534
L153.164 315.534
L153.802 310.509
L155.333 313.021
L155.333 313.021
L156.099 312.038
L156.865 311.273
L157.758 311.273
L158.396 312.803
L159.162 313.131
L159.927 313.677
L160.821 314.77
L162.224 314.442
L163.756 314.551
L163.883 314.551
L164.521 317.173
L164.649 317.173
L165.287 316.408
L166.053 314.66
L166.819 317.719
L167.712 316.518
L168.35 317.064
L169.243 316.845
L169.881 317.392
L170.647 315.862
L170.775 315.862
L171.413 317.392
L172.178 318.266
L172.944 315.425
L173.072 315.425
L173.71 315.862
L174.475 317.501
L174.603 317.501
L176.007 316.299
L176.9 316.736
L177.538 318.047
L178.304 317.61
L179.07 318.156
L179.963 317.61
L180.729 317.392
L181.367 316.408
L182.26 316.19
L182.898 316.845
L183.791 318.156
L184.43 318.703
L185.195 318.047
L185.961 316.627
L186.727 316.955
L187.492 318.047
L188.258 318.156
L189.151 318.812
L190.555 318.266
L191.321 317.61
L191.321 317.61
L192.852 318.047
L194.384 316.408
L195.277 316.408
L195.915 316.955
L196.681 317.173
L198.212 315.971
L198.212 315.971
L198.978 316.955
L200.509 317.064
L201.275 316.627
L202.04 316.408
L202.806 315.534
L203.699 316.408
L204.338 316.299
L205.231 316.736
L205.997 317.61
L206.124 316.081
L207.4 315.971
L207.911 316.299
L208.166 316.299
L208.804 316.955
L209.059 316.955
L209.059 316.955
L209.442 317.719
L209.825 317.719
L210.591 317.173
L210.846 317.829
L211.356 317.829
L211.484 317.173
L212.122 317.173
L212.25 316.955
L212.888 316.955
L213.271 317.719
L213.654 317.719
L213.654 317.719
L213.781 318.047
L214.419 318.047
L214.547 317.282
L216.589 317.282
L216.589 317.282
L216.844 316.518
L217.482 316.518
L217.482 316.518
L217.61 318.593
L218.248 318.593
L218.248 318.593
L218.375 317.282
L219.779 317.392
L219.907 317.501
L220.545 317.501
L220.672 318.375
L220.672 318.375
L221.31 318.375
L221.438 318.156
L222.076 318.156
L222.204 317.501
L223.608 317.501
L223.735 318.703
L224.373 318.703
L224.501 317.829
L225.139 317.829
L225.267 318.375
L225.905 318.375
L225.905 318.375
L226.032 317.938
L226.032 317.938
L226.67 317.938
L226.798 317.61
L227.436 317.61
L227.436 317.61
L227.946 318.047
L228.967 317.938
L229.095 315.534
L229.733 315.534
L229.861 314.114
L231.264 314.114
L231.264 314.114
L231.392 313.131
L232.03 313.131
L232.158 314.114
L232.796 314.114
L232.796 314.114
L232.924 315.971
L233.562 315.971
L233.689 316.19
L234.327 316.19
L234.327 316.19
L234.455 316.736
L235.093 316.736
L235.093 316.736
L235.221 317.938
L235.859 317.938
L235.859 317.938
L235.986 317.61
L236.624 317.61
L236.752 318.593
L237.39 318.593
L237.518 318.156
L238.921 318.156
L239.049 317.719
L239.687 317.719
L239.815 316.736
L240.453 316.736
L240.453 316.736
L240.58 317.829
L241.219 317.829
L241.346 317.501
L241.984 317.501
L242.112 318.375
L242.75 318.375
L242.878 317.392
L243.516 317.392
L243.643 318.703
L245.047 318.812
L245.047 318.812
L245.175 317.61
L246.578 317.61
L246.578 317.61
L246.706 318.047
L247.855 318.156
L248.237 317.501
L248.876 317.501
L248.876 317.501
L249.003 317.719
L249.641 317.719
L249.641 317.719
L249.769 318.375
L250.407 318.375
L250.534 317.501
L251.173 317.501
L251.3 317.282
L251.938 317.282
L252.066 318.484
L252.704 318.484
L252.832 318.266
L254.235 318.375
L254.363 318.047
L255.001 318.047
L255.129 317.392
L255.767 317.392
L255.767 317.392
L255.894 318.812
L256.532 318.812
L256.66 317.829
L256.66 317.829
L257.298 317.829
L257.426 317.064
L258.064 317.064
L258.064 317.064
L258.574 317.501
L258.83 317.501
L258.957 317.938
L259.595 317.938
L259.595 317.938
L259.723 317.719
L260.361 317.719
L260.489 317.173
L261.127 317.173
L261.254 317.392
L261.892 317.392
L262.02 318.703
L262.658 318.703
L262.786 318.047
L264.189 318.047
L264.189 318.047
L264.317 318.484
L264.955 318.484
L264.955 318.484
L265.083 317.392
L265.593 317.392
L265.848 318.266
L266.486 318.266
L266.614 318.593
L267.252 318.593
L267.38 317.938
L268.784 317.829
L268.911 317.501
L269.549 317.501
L269.677 318.703
L270.315 318.703
L270.443 317.61
L271.081 317.61
L271.463 318.593
L272.612 318.484
L272.74 317.064
L273.378 317.064
L273.378 317.064
L273.506 318.593
L274.143 318.593
L274.271 319.14
L275.675 319.14
L275.802 318.921
L276.441 318.921
L276.568 318.593
L277.972 318.593
L277.972 318.593
L278.099 319.03
L278.738 319.03
L278.865 318.375
L279.503 318.375
L279.631 319.467
L280.269 319.467
L280.269 319.467
L280.397 318.812
L281.035 318.812
L281.035 318.812
L281.162 317.719
L281.801 317.719
L282.311 318.156
L282.566 318.156
L282.694 317.064
L283.332 317.064
L283.459 317.392
L284.097 317.392
L284.225 318.593
L287.16 318.484
L287.288 318.047
L287.926 318.047
L288.054 317.282
L288.692 317.282
L288.819 318.484
L289.457 318.484
L289.585 317.61
L290.223 317.61
L290.351 317.282
L290.989 317.282
L291.116 318.156
L292.52 318.156
L292.52 318.156
L292.648 318.593
L293.286 318.593
L293.286 318.593
L293.413 317.501
L294.051 317.501
L294.051 317.501
L294.179 318.375
L294.817 318.375
L294.817 318.375
L294.945 317.392
L295.583 317.392
L295.71 318.921
L296.349 318.921
L296.476 317.829
L299.411 317.719
L299.539 318.484
L300.177 318.484
L300.177 318.484
L300.305 318.812
L300.943 318.812
L301.07 317.719
L301.708 317.719
L301.836 318.593
L303.112 318.593
L303.368 317.501
L304.005 317.501
L304.005 317.501
L304.133 317.719
L304.771 317.719
L304.899 316.955
L305.537 316.955
L305.664 316.299
L307.068 316.299
L307.068 316.299
L307.196 318.156
L307.834 318.156
L307.962 317.501
L308.6 317.501
L308.6 317.501
L308.727 318.703
L309.365 318.703
L309.493 318.921
L310.131 318.921
L310.131 318.921
L310.259 318.047
L311.662 318.047
L311.79 317.173
L312.428 317.173
L312.556 316.845
L313.194 316.845
L313.321 316.19
L313.96 316.19
L314.087 315.862
L314.725 315.862
L314.853 316.518
L315.491 316.518
L315.619 317.938
L316.257 317.938
L316.384 318.375
L317.022 318.375
L317.15 316.955
L317.788 316.955
L317.916 317.61
L318.554 317.61
L318.554 317.61
L318.681 316.955
L319.319 316.955
L319.319 316.955
L319.447 318.484
L320.085 318.484
L320.213 318.703
L320.851 318.703
L320.851 318.703
L321.234 317.719
L321.616 317.719
L322.127 317.938
L322.893 317.719
L323.148 317.719
L323.275 318.375
L324.679 318.375
L324.807 318.156
L326.976 318.047
L327.104 318.484
L327.742 318.484
L327.87 318.703
L328.508 318.703
L328.635 317.829
L329.273 317.829
L329.401 318.266
L330.039 318.266
L330.167 318.921
L332.336 318.812
L332.464 317.719
L333.102 317.719
L333.23 318.703
L333.868 318.703
L333.995 319.03
L334.633 319.03
L334.761 318.812
L336.165 318.703
L336.292 317.938
L336.93 317.938
L337.058 315.971
L337.696 315.971
L337.824 315.753
L338.462 315.753
L338.589 316.627
L339.227 316.627
L339.355 317.501
L339.866 317.501
L340.121 316.736
L340.504 316.736
L340.759 316.955
L340.886 317.719
L341.525 317.719
L341.652 318.375
L342.29 318.375
L342.418 317.719
L343.056 317.719
L343.184 318.593
L344.588 318.703
L344.715 318.812
L345.353 318.812
L345.353 318.812
L345.481 318.593
L346.884 318.593
L346.884 318.593
L347.012 318.047
L347.65 318.047
L347.778 316.845
L348.416 316.845
L348.543 317.173
L349.181 317.173
L349.309 316.627
L349.947 316.627
L350.075 316.955
L351.224 316.845
L351.606 319.14
L352.244 319.14
L352.372 318.812
L353.01 318.812
L353.138 318.266
L353.776 318.266
L353.776 318.266
L354.286 318.593
L354.541 318.593
L354.669 317.938
L355.307 317.938
L355.307 317.938
L355.435 315.971
L356.073 315.971
L356.073 315.971
L356.2 316.518
L356.838 316.518
L356.966 317.719
L357.477 317.719
L357.732 317.938
L358.37 317.938
L358.37 317.938
L358.497 316.845
L359.136 316.845
L359.263 316.299
L359.901 316.299
L360.029 315.862
L360.667 315.862
L360.795 314.77
L361.433 314.77
L361.56 316.955
L362.198 316.955
L362.326 317.938
L362.964 317.938
L363.092 318.812
L363.73 318.812
L363.857 318.375
L364.495 318.375
L364.623 318.593
L365.261 318.593
L365.389 317.173
L366.027 317.173
L366.027 317.173
L366.155 318.266
L367.558 318.156
L367.686 317.501
L368.324 317.501
L368.451 317.064
L370.621 316.955
L370.749 316.627
L371.387 316.627
L371.514 317.392
L372.152 317.392
L372.28 317.173
L372.918 317.173
L373.046 317.719
L373.684 317.719
L373.684 317.719
L373.811 316.518
L375.215 316.518
L375.343 317.501
L375.981 317.501
L376.108 316.627
L376.746 316.627
L376.874 316.408
L377.512 316.408
L377.512 316.408
L377.64 315.971
L378.278 315.971
L378.405 315.753
L379.044 315.753
L379.171 316.19
L379.809 316.19
L379.937 317.392
L384.403 317.501
L384.531 315.862
L385.935 315.862
L386.062 316.081
L387.466 315.971
L387.594 316.736
L388.232 316.736
L388.232 316.736
L388.36 344.158
L388.998 344.158
L389.125 316.081
L389.763 316.081
L389.891 317.938
L390.529 317.938
L390.657 317.392
L391.295 317.392
L391.422 318.703
L392.06 318.703
L392.188 318.921
L393.592 319.03
L393.719 318.375
L394.102 318.375
L394.102 318.375
L394.485 318.047
L395.889 317.938
L396.016 317.282
L396.655 317.282
L396.782 317.064
L397.42 317.064
L397.548 316.627
L398.186 316.627
L398.314 316.299
L398.952 316.299
L399.079 317.501
L400.483 317.61
L400.611 317.282
L402.014 317.282
L402.142 318.812
L402.78 318.812
L402.908 317.829
L403.546 317.829
L403.673 318.047
L404.311 318.047
L404.439 317.719
L405.077 317.719
L405.205 318.484
L406.609 318.375
L406.736 317.61
L408.14 317.719
L408.268 318.156
L408.906 318.156
L409.033 317.938
L409.671 317.938
L409.799 316.845
L411.203 316.845
L411.33 315.425
L411.968 315.425
L412.096 316.518
L412.607 316.518
L412.989 315.753
L414.266 315.753
L414.393 315.207
L415.031 315.207
L415.159 314.223
L416.563 314.114
L416.69 313.895
L417.328 313.895
L417.456 314.551
L418.094 314.551
L418.222 316.19
L418.86 316.19
L418.987 317.938
L419.625 317.938
L419.753 316.955
L421.157 316.845
L421.284 317.282
L421.922 317.282
L422.05 316.845
L423.454 316.955
L423.581 317.392
L424.22 317.392
L424.347 318.593
L424.985 318.593
L425.113 318.266
L425.751 318.266
L425.879 318.047
L426.517 318.047
L426.644 317.282
L427.282 317.282
L427.41 316.736
L428.048 316.736
L428.176 316.955
L428.814 316.955
L428.941 317.173
L430.345 317.282
L430.473 316.19
L430.983 316.19
L431.238 316.845
L431.877 316.845
L432.004 317.282
L432.642 317.282
L432.642 317.282
L432.77 316.627
L433.408 316.627
L433.536 315.971
L434.174 315.971
L434.301 315.534
L434.939 315.534
L435.067 316.299
L435.705 316.299
L435.833 315.425
L436.471 315.425
L436.598 315.753
L437.236 315.753
L437.364 316.736
L438.002 316.736
L438.13 318.593
L439.533 318.703
L439.661 318.921
L440.299 318.921
L440.299 318.921
L440.427 318.484
L441.065 318.484
L441.192 317.61
L442.596 317.61
L442.724 319.14
L443.362 319.14
L443.49 318.266
L444.128 318.266
L444.255 317.829
L444.893 317.829
L445.021 316.845
L446.425 316.955
L446.552 317.173
L447.19 317.173
L447.318 317.719
L447.956 317.719
L448.084 318.703
L448.722 318.703
L448.849 318.921
L449.487 318.921
L449.487 318.921
L449.615 318.484
L450.126 318.484
L450.381 318.047
L452.55 318.156
L452.678 319.577
L453.316 319.577
L453.444 319.249
L454.082 319.249
L454.209 319.03
L454.847 319.03
L454.847 319.03
L454.975 318.375
L455.613 318.375
L455.741 319.467
L456.379 319.467
L456.506 317.392
L457.144 317.392
L457.272 318.375
L457.91 318.375
L458.038 318.812
L460.973 318.812
L461.101 319.795
L461.739 319.795
L461.866 318.375
L462.504 318.375
L462.632 318.703
L463.27 318.703
L463.398 319.358
L464.036 319.358
L464.163 318.156
L464.801 318.156
L464.929 319.249
L465.567 319.249
L465.567 319.249
L465.695 317.938
L466.333 317.938
L466.46 317.61
L467.098 317.61
L467.098 317.61
L467.226 318.703
L467.864 318.703
L467.992 319.467
L468.63 319.467
L468.757 319.795
L469.396 319.795
L469.523 318.921
L470.927 318.812
L471.055 318.375
L471.693 318.375
L471.82 317.938
L472.458 317.938
L472.586 318.156
L473.224 318.156
L473.352 317.719
L474.755 317.829
L474.883 319.249
L475.521 319.249
L475.649 319.795
L477.052 319.686
L477.18 319.14
L477.818 319.14
L477.946 319.467
L478.584 319.467
L478.711 318.156
L479.35 318.156
L479.477 319.249
L480.115 319.249
L480.243 319.795
L480.881 319.795
L481.009 319.14
L481.647 319.14
L481.774 318.593
L482.412 318.593
L482.54 318.156
L483.178 318.156
L483.306 317.392
L484.709 317.501
L484.837 317.064
L485.475 317.064
L485.986 317.501
L486.241 317.501
L486.241 317.501
L486.368 316.518
L487.007 316.518
L487.134 316.081
L487.772 316.081
L487.9 315.644
L488.538 315.644
L488.666 315.316
L489.304 315.316
L489.431 316.081
L490.069 316.081
L490.197 316.408
L490.835 316.408
L490.963 315.862
L491.601 315.862
L491.728 314.879
L492.366 314.879
L492.494 315.097
L493.132 315.097
L493.26 315.644
L493.898 315.644
L494.026 315.971
L494.663 315.971
L494.791 317.064
L495.429 317.064
L495.557 318.156
L496.195 318.156
L496.322 316.736
L496.961 316.736
L497.088 315.534
L498.492 315.534
L498.62 314.66
L499.258 314.66
L499.258 314.66
L499.385 314.332
L500.789 314.442
L500.917 313.895
L501.555 313.895
L501.682 316.627
L502.32 316.627
L502.448 315.644
L503.852 315.753
L503.979 315.207
L505.383 315.207
L505.511 314.77
L506.149 314.77
L506.277 314.551
L506.915 314.551
L507.042 314.879
L507.68 314.879
L507.808 315.097
L508.446 315.097
L508.574 315.753
L509.212 315.753
L509.339 316.081
L509.977 316.081
L510.36 314.66
L510.743 314.66
L510.871 314.879
L511.509 314.879
L511.636 315.753
L513.04 315.644
L513.168 315.097
L513.806 315.097
L513.933 314.332
L514.572 314.332
L514.699 314.77
L515.337 314.77
L515.465 316.19
L516.103 316.19
L516.231 315.316
L517.634 315.207
L517.762 316.518
L518.4 316.518
L518.4 316.518" style="fill:none;stroke:#008000;stroke-linecap:square;"/>
   </g>
   <g id="patch_3">
    <path d="
M72 43.2
L518.4 43.2" style="fill:none;stroke:#000000;stroke-linecap:square;stroke-linejoin:miter;"/>
   </g>
   <g id="patch_4">
    <path d="
M518.4 345.6
L518.4 43.2" style="fill:none;stroke:#000000;stroke-linecap:square;stroke-linejoin:miter;"/>
   </g>
   <g id="patch_5">
    <path d="
M72 345.6
L518.4 345.6" style="fill:none;stroke:#000000;stroke-linecap:square;stroke-linejoin:miter;"/>
   </g>
   <g id="patch_6">
    <path d="
M72 345.6
L72 43.2" style="fill:none;stroke:#000000;stroke-linecap:square;stroke-linejoin:miter;"/>
   </g>
   <g id="matplotlib.axis_1">
    <g id="xtick_1">
     <g id="line2d_3">
      <defs>
       <path d="
M0 0
L0 -4" id="m93b0483c22" style="stroke:#000000;stroke-width:0.5;"/>
      </defs>
      <g>
       <use style="stroke:#000000;stroke-width:0.5;" x="117.941468267" xlink:href="#m93b0483c22" y="345.6"/>
      </g>
     </g>
     <g id="line2d_4">
      <defs>
       <path d="
M0 0
L0 4" id="m741efc42ff" style="stroke:#000000;stroke-width:0.5;"/>
      </defs>
      <g>
       <use style="stroke:#000000;stroke-width:0.5;" x="117.941468267" xlink:href="#m741efc42ff" y="43.2"/>
      </g>
     </g>
     <g id="text_1">
      <!-- Oct 13 2015 -->
      <defs>
       <path d="
M19.1875 8.29688
L53.6094 8.29688
L53.6094 0
L7.32812 0
L7.32812 8.29688
Q12.9375 14.1094 22.625 23.8906
Q32.3281 33.6875 34.8125 36.5312
Q39.5469 41.8438 41.4219 45.5312
Q43.3125 49.2188 43.3125 52.7812
Q43.3125 58.5938 39.2344 62.25
Q35.1562 65.9219 28.6094 65.9219
Q23.9688 65.9219 18.8125 64.3125
Q13.6719 62.7031 7.8125 59.4219
L7.8125 69.3906
Q13.7656 71.7812 18.9375 73
Q24.125 74.2188 28.4219 74.2188
Q39.75 74.2188 46.4844 68.5469
Q53.2188 62.8906 53.2188 53.4219
Q53.2188 48.9219 51.5312 44.8906
Q49.8594 40.875 45.4062 35.4062
Q44.1875 33.9844 37.6406 27.2188
Q31.1094 20.4531 19.1875 8.29688" id="BitstreamVeraSans-Roman-32"/>
       <path d="
M39.4062 66.2188
Q28.6562 66.2188 22.3281 58.2031
Q16.0156 50.2031 16.0156 36.375
Q16.0156 22.6094 22.3281 14.5938
Q28.6562 6.59375 39.4062 6.59375
Q50.1406 6.59375 56.4219 14.5938
Q62.7031 22.6094 62.7031 36.375
Q62.7031 50.2031 56.4219 58.2031
Q50.1406 66.2188 39.4062 66.2188
M39.4062 74.2188
Q54.7344 74.2188 63.9062 63.9375
Q73.0938 53.6562 73.0938 36.375
Q73.0938 19.1406 63.9062 8.85938
Q54.7344 -1.42188 39.4062 -1.42188
Q24.0312 -1.42188 14.8125 8.82812
Q5.60938 19.0938 5.60938 36.375
Q5.60938 53.6562 14.8125 63.9375
Q24.0312 74.2188 39.4062 74.2188" id="BitstreamVeraSans-Roman-4f"/>
       <path d="
M31.7812 66.4062
Q24.1719 66.4062 20.3281 58.9062
Q16.5 51.4219 16.5 36.375
Q16.5 21.3906 20.3281 13.8906
Q24.1719 6.39062 31.7812 6.39062
Q39.4531 6.39062 43.2812 13.8906
Q47.125 21.3906 47.125 36.375
Q47.125 51.4219 43.2812 58.9062
Q39.4531 66.4062 31.7812 66.4062
M31.7812 74.2188
Q44.0469 74.2188 50.5156 64.5156
Q56.9844 54.8281 56.9844 36.375
Q56.9844 17.9688 50.5156 8.26562
Q44.0469 -1.42188 31.7812 -1.42188
Q19.5312 -1.42188 13.0625 8.26562
Q6.59375 17.9688 6.59375 36.375
Q6.59375 54.8281 13.0625 64.5156
Q19.5312 74.2188 31.7812 74.2188" id="BitstreamVeraSans-Roman-30"/>
       <path d="
M12.4062 8.29688
L28.5156 8.29688
L28.5156 63.9219
L10.9844 60.4062
L10.9844 69.3906
L28.4219 72.9062
L38.2812 72.9062
L38.2812 8.29688
L54.3906 8.29688
L54.3906 0
L12.4062 0
z
" id="BitstreamVeraSans-Roman-31"/>
       <path d="
M40.5781 39.3125
Q47.6562 37.7969 51.625 33
Q55.6094 28.2188 55.6094 21.1875
Q55.6094 10.4062 48.1875 4.48438
Q40.7656 -1.42188 27.0938 -1.42188
Q22.5156 -1.42188 17.6562 -0.515625
Q12.7969 0.390625 7.625 2.20312
L7.625 11.7188
Q11.7188 9.32812 16.5938 8.10938
Q21.4844 6.89062 26.8125 6.89062
Q36.0781 6.89062 40.9375 10.5469
Q45.7969 14.2031 45.7969 21.1875
Q45.7969 27.6406 41.2812 31.2656
Q36.7656 34.9062 28.7188 34.9062
L20.2188 34.9062
L20.2188 43.0156
L29.1094 43.0156
Q36.375 43.0156 40.2344 45.9219
Q44.0938 48.8281 44.0938 54.2969
Q44.0938 59.9062 40.1094 62.9062
Q36.1406 65.9219 28.7188 65.9219
Q24.6562 65.9219 20.0156 65.0312
Q15.375 64.1562 9.8125 62.3125
L9.8125 71.0938
Q15.4375 72.6562 20.3438 73.4375
Q25.25 74.2188 29.5938 74.2188
Q40.8281 74.2188 47.3594 69.1094
Q53.9062 64.0156 53.9062 55.3281
Q53.9062 49.2656 50.4375 45.0938
Q46.9688 40.9219 40.5781 39.3125" id="BitstreamVeraSans-Roman-33"/>
       <path id="BitstreamVeraSans-Roman-20"/>
       <path d="
M10.7969 72.9062
L49.5156 72.9062
L49.5156 64.5938
L19.8281 64.5938
L19.8281 46.7344
Q21.9688 47.4688 24.1094 47.8281
Q26.2656 48.1875 28.4219 48.1875
Q40.625 48.1875 47.75 41.5
Q54.8906 34.8125 54.8906 23.3906
Q54.8906 11.625 47.5625 5.09375
Q40.2344 -1.42188 26.9062 -1.42188
Q22.3125 -1.42188 17.5469 -0.640625
Q12.7969 0.140625 7.71875 1.70312
L7.71875 11.625
Q12.1094 9.23438 16.7969 8.0625
Q21.4844 6.89062 26.7031 6.89062
Q35.1562 6.89062 40.0781 11.3281
Q45.0156 15.7656 45.0156 23.3906
Q45.0156 31 40.0781 35.4375
Q35.1562 39.8906 26.7031 39.8906
Q22.75 39.8906 18.8125 39.0156
Q14.8906 38.1406 10.7969 36.2812
z
" id="BitstreamVeraSans-Roman-35"/>
       <path d="
M18.3125 70.2188
L18.3125 54.6875
L36.8125 54.6875
L36.8125 47.7031
L18.3125 47.7031
L18.3125 18.0156
Q18.3125 11.3281 20.1406 9.42188
Q21.9688 7.51562 27.5938 7.51562
L36.8125 7.51562
L36.8125 0
L27.5938 0
Q17.1875 0 13.2344 3.875
Q9.28125 7.76562 9.28125 18.0156
L9.28125 47.7031
L2.6875 47.7031
L2.6875 54.6875
L9.28125 54.6875
L9.28125 70.2188
z
" id="BitstreamVeraSans-Roman-74"/>
       <path d="
M48.7812 52.5938
L48.7812 44.1875
Q44.9688 46.2969 41.1406 47.3438
Q37.3125 48.3906 33.4062 48.3906
Q24.6562 48.3906 19.8125 42.8438
Q14.9844 37.3125 14.9844 27.2969
Q14.9844 17.2812 19.8125 11.7344
Q24.6562 6.20312 33.4062 6.20312
Q37.3125 6.20312 41.1406 7.25
Q44.9688 8.29688 48.7812 10.4062
L48.7812 2.09375
Q45.0156 0.34375 40.9844 -0.53125
Q36.9688 -1.42188 32.4219 -1.42188
Q20.0625 -1.42188 12.7812 6.34375
Q5.51562 14.1094 5.51562 27.2969
Q5.51562 40.6719 12.8594 48.3281
Q20.2188 56 33.0156 56
Q37.1562 56 41.1094 55.1406
Q45.0625 54.2969 48.7812 52.5938" id="BitstreamVeraSans-Roman-63"/>
      </defs>
      <g transform="translate(53.3541815316 394.065590385)rotate(-30.0)scale(0.12 -0.12)">
       <use xlink:href="#BitstreamVeraSans-Roman-4f"/>
       <use x="78.7109375" xlink:href="#BitstreamVeraSans-Roman-63"/>
       <use x="133.69140625" xlink:href="#BitstreamVeraSans-Roman-74"/>
       <use x="172.900390625" xlink:href="#BitstreamVeraSans-Roman-20"/>
       <use x="204.6875" xlink:href="#BitstreamVeraSans-Roman-31"/>
       <use x="268.310546875" xlink:href="#BitstreamVeraSans-Roman-33"/>
       <use x="331.93359375" xlink:href="#BitstreamVeraSans-Roman-20"/>
       <use x="363.720703125" xlink:href="#BitstreamVeraSans-Roman-32"/>
       <use x="427.34375" xlink:href="#BitstreamVeraSans-Roman-30"/>
       <use x="490.966796875" xlink:href="#BitstreamVeraSans-Roman-31"/>
       <use x="554.58984375" xlink:href="#BitstreamVeraSans-Roman-35"/>
      </g>
     </g>
    </g>
    <g id="xtick_2">
     <g id="line2d_5">
      <g>
       <use style="stroke:#000000;stroke-width:0.5;" x="173.071485419" xlink:href="#m93b0483c22" y="345.6"/>
      </g>
     </g>
     <g id="line2d_6">
      <g>
       <use style="stroke:#000000;stroke-width:0.5;" x="173.071485419" xlink:href="#m741efc42ff" y="43.2"/>
      </g>
     </g>
     <g id="text_2">
      <!-- Oct 16 2015 -->
      <defs>
       <path d="
M33.0156 40.375
Q26.375 40.375 22.4844 35.8281
Q18.6094 31.2969 18.6094 23.3906
Q18.6094 15.5312 22.4844 10.9531
Q26.375 6.39062 33.0156 6.39062
Q39.6562 6.39062 43.5312 10.9531
Q47.4062 15.5312 47.4062 23.3906
Q47.4062 31.2969 43.5312 35.8281
Q39.6562 40.375 33.0156 40.375
M52.5938 71.2969
L52.5938 62.3125
Q48.875 64.0625 45.0938 64.9844
Q41.3125 65.9219 37.5938 65.9219
Q27.8281 65.9219 22.6719 59.3281
Q17.5312 52.7344 16.7969 39.4062
Q19.6719 43.6562 24.0156 45.9219
Q28.375 48.1875 33.5938 48.1875
Q44.5781 48.1875 50.9531 41.5156
Q57.3281 34.8594 57.3281 23.3906
Q57.3281 12.1562 50.6875 5.35938
Q44.0469 -1.42188 33.0156 -1.42188
Q20.3594 -1.42188 13.6719 8.26562
Q6.98438 17.9688 6.98438 36.375
Q6.98438 53.6562 15.1875 63.9375
Q23.3906 74.2188 37.2031 74.2188
Q40.9219 74.2188 44.7031 73.4844
Q48.4844 72.75 52.5938 71.2969" id="BitstreamVeraSans-Roman-36"/>
      </defs>
      <g transform="translate(108.484198684 394.065590385)rotate(-30.0)scale(0.12 -0.12)">
       <use xlink:href="#BitstreamVeraSans-Roman-4f"/>
       <use x="78.7109375" xlink:href="#BitstreamVeraSans-Roman-63"/>
       <use x="133.69140625" xlink:href="#BitstreamVeraSans-Roman-74"/>
       <use x="172.900390625" xlink:href="#BitstreamVeraSans-Roman-20"/>
       <use x="204.6875" xlink:href="#BitstreamVeraSans-Roman-31"/>
       <use x="268.310546875" xlink:href="#BitstreamVeraSans-Roman-36"/>
       <use x="331.93359375" xlink:href="#BitstreamVeraSans-Roman-20"/>
       <use x="363.720703125" xlink:href="#BitstreamVeraSans-Roman-32"/>
       <use x="427.34375" xlink:href="#BitstreamVeraSans-Roman-30"/>
       <use x="490.966796875" xlink:href="#BitstreamVeraSans-Roman-31"/>
       <use x="554.58984375" xlink:href="#BitstreamVeraSans-Roman-35"/>
      </g>
     </g>
    </g>
    <g id="xtick_3">
     <g id="line2d_7">
      <g>
       <use style="stroke:#000000;stroke-width:0.5;" x="228.201502573" xlink:href="#m93b0483c22" y="345.6"/>
      </g>
     </g>
     <g id="line2d_8">
      <g>
       <use style="stroke:#000000;stroke-width:0.5;" x="228.201502573" xlink:href="#m741efc42ff" y="43.2"/>
      </g>
     </g>
     <g id="text_3">
      <!-- Oct 19 2015 -->
      <defs>
       <path d="
M10.9844 1.51562
L10.9844 10.5
Q14.7031 8.73438 18.5 7.8125
Q22.3125 6.89062 25.9844 6.89062
Q35.75 6.89062 40.8906 13.4531
Q46.0469 20.0156 46.7812 33.4062
Q43.9531 29.2031 39.5938 26.9531
Q35.25 24.7031 29.9844 24.7031
Q19.0469 24.7031 12.6719 31.3125
Q6.29688 37.9375 6.29688 49.4219
Q6.29688 60.6406 12.9375 67.4219
Q19.5781 74.2188 30.6094 74.2188
Q43.2656 74.2188 49.9219 64.5156
Q56.5938 54.8281 56.5938 36.375
Q56.5938 19.1406 48.4062 8.85938
Q40.2344 -1.42188 26.4219 -1.42188
Q22.7031 -1.42188 18.8906 -0.6875
Q15.0938 0.046875 10.9844 1.51562
M30.6094 32.4219
Q37.25 32.4219 41.125 36.9531
Q45.0156 41.5 45.0156 49.4219
Q45.0156 57.2812 41.125 61.8438
Q37.25 66.4062 30.6094 66.4062
Q23.9688 66.4062 20.0938 61.8438
Q16.2188 57.2812 16.2188 49.4219
Q16.2188 41.5 20.0938 36.9531
Q23.9688 32.4219 30.6094 32.4219" id="BitstreamVeraSans-Roman-39"/>
      </defs>
      <g transform="translate(163.614215838 394.065590385)rotate(-30.0)scale(0.12 -0.12)">
       <use xlink:href="#BitstreamVeraSans-Roman-4f"/>
       <use x="78.7109375" xlink:href="#BitstreamVeraSans-Roman-63"/>
       <use x="133.69140625" xlink:href="#BitstreamVeraSans-Roman-74"/>
       <use x="172.900390625" xlink:href="#BitstreamVeraSans-Roman-20"/>
       <use x="204.6875" xlink:href="#BitstreamVeraSans-Roman-31"/>
       <use x="268.310546875" xlink:href="#BitstreamVeraSans-Roman-39"/>
       <use x="331.93359375" xlink:href="#BitstreamVeraSans-Roman-20"/>
       <use x="363.720703125" xlink:href="#BitstreamVeraSans-Roman-32"/>
       <use x="427.34375" xlink:href="#BitstreamVeraSans-Roman-30"/>
       <use x="490.966796875" xlink:href="#BitstreamVeraSans-Roman-31"/>
       <use x="554.58984375" xlink:href="#BitstreamVeraSans-Roman-35"/>
      </g>
     </g>
    </g>
    <g id="xtick_4">
     <g id="line2d_9">
      <g>
       <use style="stroke:#000000;stroke-width:0.5;" x="283.331519725" xlink:href="#m93b0483c22" y="345.6"/>
      </g>
     </g>
     <g id="line2d_10">
      <g>
       <use style="stroke:#000000;stroke-width:0.5;" x="283.331519725" xlink:href="#m741efc42ff" y="43.2"/>
      </g>
     </g>
     <g id="text_4">
      <!-- Oct 22 2015 -->
      <g transform="translate(218.74423299 394.065590385)rotate(-30.0)scale(0.12 -0.12)">
       <use xlink:href="#BitstreamVeraSans-Roman-4f"/>
       <use x="78.7109375" xlink:href="#BitstreamVeraSans-Roman-63"/>
       <use x="133.69140625" xlink:href="#BitstreamVeraSans-Roman-74"/>
       <use x="172.900390625" xlink:href="#BitstreamVeraSans-Roman-20"/>
       <use x="204.6875" xlink:href="#BitstreamVeraSans-Roman-32"/>
       <use x="268.310546875" xlink:href="#BitstreamVeraSans-Roman-32"/>
       <use x="331.93359375" xlink:href="#BitstreamVeraSans-Roman-20"/>
       <use x="363.720703125" xlink:href="#BitstreamVeraSans-Roman-32"/>
       <use x="427.34375" xlink:href="#BitstreamVeraSans-Roman-30"/>
       <use x="490.966796875" xlink:href="#BitstreamVeraSans-Roman-31"/>
       <use x="554.58984375" xlink:href="#BitstreamVeraSans-Roman-35"/>
      </g>
     </g>
    </g>
    <g id="xtick_5">
     <g id="line2d_11">
      <g>
       <use style="stroke:#000000;stroke-width:0.5;" x="338.461536877" xlink:href="#m93b0483c22" y="345.6"/>
      </g>
     </g>
     <g id="line2d_12">
      <g>
       <use style="stroke:#000000;stroke-width:0.5;" x="338.461536877" xlink:href="#m741efc42ff" y="43.2"/>
      </g>
     </g>
     <g id="text_5">
      <!-- Oct 25 2015 -->
      <g transform="translate(273.874250142 394.065590385)rotate(-30.0)scale(0.12 -0.12)">
       <use xlink:href="#BitstreamVeraSans-Roman-4f"/>
       <use x="78.7109375" xlink:href="#BitstreamVeraSans-Roman-63"/>
       <use x="133.69140625" xlink:href="#BitstreamVeraSans-Roman-74"/>
       <use x="172.900390625" xlink:href="#BitstreamVeraSans-Roman-20"/>
       <use x="204.6875" xlink:href="#BitstreamVeraSans-Roman-32"/>
       <use x="268.310546875" xlink:href="#BitstreamVeraSans-Roman-35"/>
       <use x="331.93359375" xlink:href="#BitstreamVeraSans-Roman-20"/>
       <use x="363.720703125" xlink:href="#BitstreamVeraSans-Roman-32"/>
       <use x="427.34375" xlink:href="#BitstreamVeraSans-Roman-30"/>
       <use x="490.966796875" xlink:href="#BitstreamVeraSans-Roman-31"/>
       <use x="554.58984375" xlink:href="#BitstreamVeraSans-Roman-35"/>
      </g>
     </g>
    </g>
    <g id="xtick_6">
     <g id="line2d_13">
      <g>
       <use style="stroke:#000000;stroke-width:0.5;" x="393.591554031" xlink:href="#m93b0483c22" y="345.6"/>
      </g>
     </g>
     <g id="line2d_14">
      <g>
       <use style="stroke:#000000;stroke-width:0.5;" x="393.591554031" xlink:href="#m741efc42ff" y="43.2"/>
      </g>
     </g>
     <g id="text_6">
      <!-- Oct 28 2015 -->
      <defs>
       <path d="
M31.7812 34.625
Q24.75 34.625 20.7188 30.8594
Q16.7031 27.0938 16.7031 20.5156
Q16.7031 13.9219 20.7188 10.1562
Q24.75 6.39062 31.7812 6.39062
Q38.8125 6.39062 42.8594 10.1719
Q46.9219 13.9688 46.9219 20.5156
Q46.9219 27.0938 42.8906 30.8594
Q38.875 34.625 31.7812 34.625
M21.9219 38.8125
Q15.5781 40.375 12.0312 44.7188
Q8.5 49.0781 8.5 55.3281
Q8.5 64.0625 14.7188 69.1406
Q20.9531 74.2188 31.7812 74.2188
Q42.6719 74.2188 48.875 69.1406
Q55.0781 64.0625 55.0781 55.3281
Q55.0781 49.0781 51.5312 44.7188
Q48 40.375 41.7031 38.8125
Q48.8281 37.1562 52.7969 32.3125
Q56.7812 27.4844 56.7812 20.5156
Q56.7812 9.90625 50.3125 4.23438
Q43.8438 -1.42188 31.7812 -1.42188
Q19.7344 -1.42188 13.25 4.23438
Q6.78125 9.90625 6.78125 20.5156
Q6.78125 27.4844 10.7812 32.3125
Q14.7969 37.1562 21.9219 38.8125
M18.3125 54.3906
Q18.3125 48.7344 21.8438 45.5625
Q25.3906 42.3906 31.7812 42.3906
Q38.1406 42.3906 41.7188 45.5625
Q45.3125 48.7344 45.3125 54.3906
Q45.3125 60.0625 41.7188 63.2344
Q38.1406 66.4062 31.7812 66.4062
Q25.3906 66.4062 21.8438 63.2344
Q18.3125 60.0625 18.3125 54.3906" id="BitstreamVeraSans-Roman-38"/>
      </defs>
      <g transform="translate(329.004267296 394.065590385)rotate(-30.0)scale(0.12 -0.12)">
       <use xlink:href="#BitstreamVeraSans-Roman-4f"/>
       <use x="78.7109375" xlink:href="#BitstreamVeraSans-Roman-63"/>
       <use x="133.69140625" xlink:href="#BitstreamVeraSans-Roman-74"/>
       <use x="172.900390625" xlink:href="#BitstreamVeraSans-Roman-20"/>
       <use x="204.6875" xlink:href="#BitstreamVeraSans-Roman-32"/>
       <use x="268.310546875" xlink:href="#BitstreamVeraSans-Roman-38"/>
       <use x="331.93359375" xlink:href="#BitstreamVeraSans-Roman-20"/>
       <use x="363.720703125" xlink:href="#BitstreamVeraSans-Roman-32"/>
       <use x="427.34375" xlink:href="#BitstreamVeraSans-Roman-30"/>
       <use x="490.966796875" xlink:href="#BitstreamVeraSans-Roman-31"/>
       <use x="554.58984375" xlink:href="#BitstreamVeraSans-Roman-35"/>
      </g>
     </g>
    </g>
    <g id="xtick_7">
     <g id="line2d_15">
      <g>
       <use style="stroke:#000000;stroke-width:0.5;" x="448.721571183" xlink:href="#m93b0483c22" y="345.6"/>
      </g>
     </g>
     <g id="line2d_16">
      <g>
       <use style="stroke:#000000;stroke-width:0.5;" x="448.721571183" xlink:href="#m741efc42ff" y="43.2"/>
      </g>
     </g>
     <g id="text_7">
      <!-- Oct 31 2015 -->
      <g transform="translate(384.134284448 394.065590385)rotate(-30.0)scale(0.12 -0.12)">
       <use xlink:href="#BitstreamVeraSans-Roman-4f"/>
       <use x="78.7109375" xlink:href="#BitstreamVeraSans-Roman-63"/>
       <use x="133.69140625" xlink:href="#BitstreamVeraSans-Roman-74"/>
       <use x="172.900390625" xlink:href="#BitstreamVeraSans-Roman-20"/>
       <use x="204.6875" xlink:href="#BitstreamVeraSans-Roman-33"/>
       <use x="268.310546875" xlink:href="#BitstreamVeraSans-Roman-31"/>
       <use x="331.93359375" xlink:href="#BitstreamVeraSans-Roman-20"/>
       <use x="363.720703125" xlink:href="#BitstreamVeraSans-Roman-32"/>
       <use x="427.34375" xlink:href="#BitstreamVeraSans-Roman-30"/>
       <use x="490.966796875" xlink:href="#BitstreamVeraSans-Roman-31"/>
       <use x="554.58984375" xlink:href="#BitstreamVeraSans-Roman-35"/>
      </g>
     </g>
    </g>
    <g id="xtick_8">
     <g id="line2d_17">
      <g>
       <use style="stroke:#000000;stroke-width:0.5;" x="503.851588335" xlink:href="#m93b0483c22" y="345.6"/>
      </g>
     </g>
     <g id="line2d_18">
      <g>
       <use style="stroke:#000000;stroke-width:0.5;" x="503.851588335" xlink:href="#m741efc42ff" y="43.2"/>
      </g>
     </g>
     <g id="text_8">
      <!-- Nov 03 2015 -->
      <defs>
       <path d="
M2.98438 54.6875
L12.5 54.6875
L29.5938 8.79688
L46.6875 54.6875
L56.2031 54.6875
L35.6875 0
L23.4844 0
z
" id="BitstreamVeraSans-Roman-76"/>
       <path d="
M9.8125 72.9062
L23.0938 72.9062
L55.4219 11.9219
L55.4219 72.9062
L64.9844 72.9062
L64.9844 0
L51.7031 0
L19.3906 60.9844
L19.3906 0
L9.8125 0
z
" id="BitstreamVeraSans-Roman-4e"/>
       <path d="
M30.6094 48.3906
Q23.3906 48.3906 19.1875 42.75
Q14.9844 37.1094 14.9844 27.2969
Q14.9844 17.4844 19.1562 11.8438
Q23.3438 6.20312 30.6094 6.20312
Q37.7969 6.20312 41.9844 11.8594
Q46.1875 17.5312 46.1875 27.2969
Q46.1875 37.0156 41.9844 42.7031
Q37.7969 48.3906 30.6094 48.3906
M30.6094 56
Q42.3281 56 49.0156 48.375
Q55.7188 40.7656 55.7188 27.2969
Q55.7188 13.875 49.0156 6.21875
Q42.3281 -1.42188 30.6094 -1.42188
Q18.8438 -1.42188 12.1719 6.21875
Q5.51562 13.875 5.51562 27.2969
Q5.51562 40.7656 12.1719 48.375
Q18.8438 56 30.6094 56" id="BitstreamVeraSans-Roman-6f"/>
      </defs>
      <g transform="translate(436.948766176 395.402465385)rotate(-30.0)scale(0.12 -0.12)">
       <use xlink:href="#BitstreamVeraSans-Roman-4e"/>
       <use x="74.8046875" xlink:href="#BitstreamVeraSans-Roman-6f"/>
       <use x="135.986328125" xlink:href="#BitstreamVeraSans-Roman-76"/>
       <use x="195.166015625" xlink:href="#BitstreamVeraSans-Roman-20"/>
       <use x="226.953125" xlink:href="#BitstreamVeraSans-Roman-30"/>
       <use x="290.576171875" xlink:href="#BitstreamVeraSans-Roman-33"/>
       <use x="354.19921875" xlink:href="#BitstreamVeraSans-Roman-20"/>
       <use x="385.986328125" xlink:href="#BitstreamVeraSans-Roman-32"/>
       <use x="449.609375" xlink:href="#BitstreamVeraSans-Roman-30"/>
       <use x="513.232421875" xlink:href="#BitstreamVeraSans-Roman-31"/>
       <use x="576.85546875" xlink:href="#BitstreamVeraSans-Roman-35"/>
      </g>
     </g>
    </g>
   </g>
   <g id="matplotlib.axis_2">
    <g id="ytick_1">
     <g id="line2d_19">
      <defs>
       <path d="
M0 0
L4 0" id="m728421d6d4" style="stroke:#000000;stroke-width:0.5;"/>
      </defs>
      <g>
       <use style="stroke:#000000;stroke-width:0.5;" x="72.0" xlink:href="#m728421d6d4" y="318.37476833"/>
      </g>
     </g>
     <g id="line2d_20">
      <defs>
       <path d="
M0 0
L-4 0" id="mcb0005524f" style="stroke:#000000;stroke-width:0.5;"/>
      </defs>
      <g>
       <use style="stroke:#000000;stroke-width:0.5;" x="518.4" xlink:href="#mcb0005524f" y="318.37476833"/>
      </g>
     </g>
     <g id="text_9">
      <!-- 500 -->
      <g transform="translate(46.818125 321.68601833)scale(0.12 -0.12)">
       <use xlink:href="#BitstreamVeraSans-Roman-35"/>
       <use x="63.623046875" xlink:href="#BitstreamVeraSans-Roman-30"/>
       <use x="127.24609375" xlink:href="#BitstreamVeraSans-Roman-30"/>
      </g>
     </g>
    </g>
    <g id="ytick_2">
     <g id="line2d_21">
      <g>
       <use style="stroke:#000000;stroke-width:0.5;" x="72.0" xlink:href="#m728421d6d4" y="263.749504146"/>
      </g>
     </g>
     <g id="line2d_22">
      <g>
       <use style="stroke:#000000;stroke-width:0.5;" x="518.4" xlink:href="#mcb0005524f" y="263.749504146"/>
      </g>
     </g>
     <g id="text_10">
      <!-- 1000 -->
      <g transform="translate(39.575 267.060754146)scale(0.12 -0.12)">
       <use xlink:href="#BitstreamVeraSans-Roman-31"/>
       <use x="63.623046875" xlink:href="#BitstreamVeraSans-Roman-30"/>
       <use x="127.24609375" xlink:href="#BitstreamVeraSans-Roman-30"/>
       <use x="190.869140625" xlink:href="#BitstreamVeraSans-Roman-30"/>
      </g>
     </g>
    </g>
    <g id="ytick_3">
     <g id="line2d_23">
      <g>
       <use style="stroke:#000000;stroke-width:0.5;" x="72.0" xlink:href="#m728421d6d4" y="209.124239961"/>
      </g>
     </g>
     <g id="line2d_24">
      <g>
       <use style="stroke:#000000;stroke-width:0.5;" x="518.4" xlink:href="#mcb0005524f" y="209.124239961"/>
      </g>
     </g>
     <g id="text_11">
      <!-- 1500 -->
      <g transform="translate(39.575 212.435489961)scale(0.12 -0.12)">
       <use xlink:href="#BitstreamVeraSans-Roman-31"/>
       <use x="63.623046875" xlink:href="#BitstreamVeraSans-Roman-35"/>
       <use x="127.24609375" xlink:href="#BitstreamVeraSans-Roman-30"/>
       <use x="190.869140625" xlink:href="#BitstreamVeraSans-Roman-30"/>
      </g>
     </g>
    </g>
    <g id="ytick_4">
     <g id="line2d_25">
      <g>
       <use style="stroke:#000000;stroke-width:0.5;" x="72.0" xlink:href="#m728421d6d4" y="154.498975776"/>
      </g>
     </g>
     <g id="line2d_26">
      <g>
       <use style="stroke:#000000;stroke-width:0.5;" x="518.4" xlink:href="#mcb0005524f" y="154.498975776"/>
      </g>
     </g>
     <g id="text_12">
      <!-- 2000 -->
      <g transform="translate(39.13625 157.810225776)scale(0.12 -0.12)">
       <use xlink:href="#BitstreamVeraSans-Roman-32"/>
       <use x="63.623046875" xlink:href="#BitstreamVeraSans-Roman-30"/>
       <use x="127.24609375" xlink:href="#BitstreamVeraSans-Roman-30"/>
       <use x="190.869140625" xlink:href="#BitstreamVeraSans-Roman-30"/>
      </g>
     </g>
    </g>
    <g id="ytick_5">
     <g id="line2d_27">
      <g>
       <use style="stroke:#000000;stroke-width:0.5;" x="72.0" xlink:href="#m728421d6d4" y="99.8737115916"/>
      </g>
     </g>
     <g id="line2d_28">
      <g>
       <use style="stroke:#000000;stroke-width:0.5;" x="518.4" xlink:href="#mcb0005524f" y="99.8737115916"/>
      </g>
     </g>
     <g id="text_13">
      <!-- 2500 -->
      <g transform="translate(39.13625 103.184961592)scale(0.12 -0.12)">
       <use xlink:href="#BitstreamVeraSans-Roman-32"/>
       <use x="63.623046875" xlink:href="#BitstreamVeraSans-Roman-35"/>
       <use x="127.24609375" xlink:href="#BitstreamVeraSans-Roman-30"/>
       <use x="190.869140625" xlink:href="#BitstreamVeraSans-Roman-30"/>
      </g>
     </g>
    </g>
    <g id="ytick_6">
     <g id="line2d_29">
      <g>
       <use style="stroke:#000000;stroke-width:0.5;" x="72.0" xlink:href="#m728421d6d4" y="45.2484474069"/>
      </g>
     </g>
     <g id="line2d_30">
      <g>
       <use style="stroke:#000000;stroke-width:0.5;" x="518.4" xlink:href="#mcb0005524f" y="45.2484474069"/>
      </g>
     </g>
     <g id="text_14">
      <!-- 3000 -->
      <g transform="translate(39.171875 48.5596974069)scale(0.12 -0.12)">
       <use xlink:href="#BitstreamVeraSans-Roman-33"/>
       <use x="63.623046875" xlink:href="#BitstreamVeraSans-Roman-30"/>
       <use x="127.24609375" xlink:href="#BitstreamVeraSans-Roman-30"/>
       <use x="190.869140625" xlink:href="#BitstreamVeraSans-Roman-30"/>
      </g>
     </g>
    </g>
   </g>
   <g id="text_15">
    <!-- Ilmenit -->
    <defs>
     <path d="
M54.8906 33.0156
L54.8906 0
L45.9062 0
L45.9062 32.7188
Q45.9062 40.4844 42.875 44.3281
Q39.8438 48.1875 33.7969 48.1875
Q26.5156 48.1875 22.3125 43.5469
Q18.1094 38.9219 18.1094 30.9062
L18.1094 0
L9.07812 0
L9.07812 54.6875
L18.1094 54.6875
L18.1094 46.1875
Q21.3438 51.125 25.7031 53.5625
Q30.0781 56 35.7969 56
Q45.2188 56 50.0469 50.1719
Q54.8906 44.3438 54.8906 33.0156" id="BitstreamVeraSans-Roman-6e"/>
     <path d="
M52 44.1875
Q55.375 50.25 60.0625 53.125
Q64.75 56 71.0938 56
Q79.6406 56 84.2812 50.0156
Q88.9219 44.0469 88.9219 33.0156
L88.9219 0
L79.8906 0
L79.8906 32.7188
Q79.8906 40.5781 77.0938 44.375
Q74.3125 48.1875 68.6094 48.1875
Q61.625 48.1875 57.5625 43.5469
Q53.5156 38.9219 53.5156 30.9062
L53.5156 0
L44.4844 0
L44.4844 32.7188
Q44.4844 40.625 41.7031 44.4062
Q38.9219 48.1875 33.1094 48.1875
Q26.2188 48.1875 22.1562 43.5312
Q18.1094 38.875 18.1094 30.9062
L18.1094 0
L9.07812 0
L9.07812 54.6875
L18.1094 54.6875
L18.1094 46.1875
Q21.1875 51.2188 25.4844 53.6094
Q29.7812 56 35.6875 56
Q41.6562 56 45.8281 52.9688
Q50 49.9531 52 44.1875" id="BitstreamVeraSans-Roman-6d"/>
     <path d="
M9.42188 75.9844
L18.4062 75.9844
L18.4062 0
L9.42188 0
z
" id="BitstreamVeraSans-Roman-6c"/>
     <path d="
M9.42188 54.6875
L18.4062 54.6875
L18.4062 0
L9.42188 0
z

M9.42188 75.9844
L18.4062 75.9844
L18.4062 64.5938
L9.42188 64.5938
z
" id="BitstreamVeraSans-Roman-69"/>
     <path d="
M56.2031 29.5938
L56.2031 25.2031
L14.8906 25.2031
Q15.4844 15.9219 20.4844 11.0625
Q25.4844 6.20312 34.4219 6.20312
Q39.5938 6.20312 44.4531 7.46875
Q49.3125 8.73438 54.1094 11.2812
L54.1094 2.78125
Q49.2656 0.734375 44.1875 -0.34375
Q39.1094 -1.42188 33.8906 -1.42188
Q20.7969 -1.42188 13.1562 6.1875
Q5.51562 13.8125 5.51562 26.8125
Q5.51562 40.2344 12.7656 48.1094
Q20.0156 56 32.3281 56
Q43.3594 56 49.7812 48.8906
Q56.2031 41.7969 56.2031 29.5938
M47.2188 32.2344
Q47.125 39.5938 43.0938 43.9844
Q39.0625 48.3906 32.4219 48.3906
Q24.9062 48.3906 20.3906 44.1406
Q15.875 39.8906 15.1875 32.1719
z
" id="BitstreamVeraSans-Roman-65"/>
     <path d="
M9.8125 72.9062
L19.6719 72.9062
L19.6719 0
L9.8125 0
z
" id="BitstreamVeraSans-Roman-49"/>
    </defs>
    <g transform="translate(470.25 38.2)scale(0.144 -0.144)">
     <use xlink:href="#BitstreamVeraSans-Roman-49"/>
     <use x="29.4921875" xlink:href="#BitstreamVeraSans-Roman-6c"/>
     <use x="57.275390625" xlink:href="#BitstreamVeraSans-Roman-6d"/>
     <use x="154.6875" xlink:href="#BitstreamVeraSans-Roman-65"/>
     <use x="216.2109375" xlink:href="#BitstreamVeraSans-Roman-6e"/>
     <use x="279.58984375" xlink:href="#BitstreamVeraSans-Roman-69"/>
     <use x="307.373046875" xlink:href="#BitstreamVeraSans-Roman-74"/>
    </g>
   </g>
   <g id="legend_1">
    <g id="patch_7">
     <path d="
M123.942 423.616
L466.458 423.616
L466.458 398.16
L123.942 398.16
z
" style="fill:#ffffff;stroke:#000000;stroke-linejoin:miter;"/>
    </g>
    <g id="line2d_31">
     <path d="
M134.022 409.822
L154.182 409.822" style="fill:none;stroke:#ff0000;stroke-linecap:square;"/>
    </g>
    <g id="line2d_32"/>
    <g id="text_16">
     <!-- Schwarzmarktpreis -->
     <defs>
      <path d="
M34.2812 27.4844
Q23.3906 27.4844 19.1875 25
Q14.9844 22.5156 14.9844 16.5
Q14.9844 11.7188 18.1406 8.90625
Q21.2969 6.10938 26.7031 6.10938
Q34.1875 6.10938 38.7031 11.4062
Q43.2188 16.7031 43.2188 25.4844
L43.2188 27.4844
z

M52.2031 31.2031
L52.2031 0
L43.2188 0
L43.2188 8.29688
Q40.1406 3.32812 35.5469 0.953125
Q30.9531 -1.42188 24.3125 -1.42188
Q15.9219 -1.42188 10.9531 3.29688
Q6 8.01562 6 15.9219
Q6 25.1406 12.1719 29.8281
Q18.3594 34.5156 30.6094 34.5156
L43.2188 34.5156
L43.2188 35.4062
Q43.2188 41.6094 39.1406 45
Q35.0625 48.3906 27.6875 48.3906
Q23 48.3906 18.5469 47.2656
Q14.1094 46.1406 10.0156 43.8906
L10.0156 52.2031
Q14.9375 54.1094 19.5781 55.0469
Q24.2188 56 28.6094 56
Q40.4844 56 46.3438 49.8438
Q52.2031 43.7031 52.2031 31.2031" id="BitstreamVeraSans-Roman-61"/>
      <path d="
M5.51562 54.6875
L48.1875 54.6875
L48.1875 46.4844
L14.4062 7.17188
L48.1875 7.17188
L48.1875 0
L4.29688 0
L4.29688 8.20312
L38.0938 47.5156
L5.51562 47.5156
z
" id="BitstreamVeraSans-Roman-7a"/>
      <path d="
M53.5156 70.5156
L53.5156 60.8906
Q47.9062 63.5781 42.9219 64.8906
Q37.9375 66.2188 33.2969 66.2188
Q25.25 66.2188 20.875 63.0938
Q16.5 59.9688 16.5 54.2031
Q16.5 49.3594 19.4062 46.8906
Q22.3125 44.4375 30.4219 42.9219
L36.375 41.7031
Q47.4062 39.5938 52.6562 34.2969
Q57.9062 29 57.9062 20.125
Q57.9062 9.51562 50.7969 4.04688
Q43.7031 -1.42188 29.9844 -1.42188
Q24.8125 -1.42188 18.9688 -0.25
Q13.1406 0.921875 6.89062 3.21875
L6.89062 13.375
Q12.8906 10.0156 18.6562 8.29688
Q24.4219 6.59375 29.9844 6.59375
Q38.4219 6.59375 43.0156 9.90625
Q47.6094 13.2344 47.6094 19.3906
Q47.6094 24.75 44.3125 27.7812
Q41.0156 30.8125 33.5 32.3281
L27.4844 33.5
Q16.4531 35.6875 11.5156 40.375
Q6.59375 45.0625 6.59375 53.4219
Q6.59375 63.0938 13.4062 68.6562
Q20.2188 74.2188 32.1719 74.2188
Q37.3125 74.2188 42.625 73.2812
Q47.9531 72.3594 53.5156 70.5156" id="BitstreamVeraSans-Roman-53"/>
      <path d="
M54.8906 33.0156
L54.8906 0
L45.9062 0
L45.9062 32.7188
Q45.9062 40.4844 42.875 44.3281
Q39.8438 48.1875 33.7969 48.1875
Q26.5156 48.1875 22.3125 43.5469
Q18.1094 38.9219 18.1094 30.9062
L18.1094 0
L9.07812 0
L9.07812 75.9844
L18.1094 75.9844
L18.1094 46.1875
Q21.3438 51.125 25.7031 53.5625
Q30.0781 56 35.7969 56
Q45.2188 56 50.0469 50.1719
Q54.8906 44.3438 54.8906 33.0156" id="BitstreamVeraSans-Roman-68"/>
      <path d="
M4.20312 54.6875
L13.1875 54.6875
L24.4219 12.0156
L35.5938 54.6875
L46.1875 54.6875
L57.4219 12.0156
L68.6094 54.6875
L77.5938 54.6875
L63.2812 0
L52.6875 0
L40.9219 44.8281
L29.1094 0
L18.5 0
z
" id="BitstreamVeraSans-Roman-77"/>
      <path d="
M9.07812 75.9844
L18.1094 75.9844
L18.1094 31.1094
L44.9219 54.6875
L56.3906 54.6875
L27.3906 29.1094
L57.625 0
L45.9062 0
L18.1094 26.7031
L18.1094 0
L9.07812 0
z
" id="BitstreamVeraSans-Roman-6b"/>
      <path d="
M41.1094 46.2969
Q39.5938 47.1719 37.8125 47.5781
Q36.0312 48 33.8906 48
Q26.2656 48 22.1875 43.0469
Q18.1094 38.0938 18.1094 28.8125
L18.1094 0
L9.07812 0
L9.07812 54.6875
L18.1094 54.6875
L18.1094 46.1875
Q20.9531 51.1719 25.4844 53.5781
Q30.0312 56 36.5312 56
Q37.4531 56 38.5781 55.875
Q39.7031 55.7656 41.0625 55.5156
z
" id="BitstreamVeraSans-Roman-72"/>
      <path d="
M44.2812 53.0781
L44.2812 44.5781
Q40.4844 46.5312 36.375 47.5
Q32.2812 48.4844 27.875 48.4844
Q21.1875 48.4844 17.8438 46.4375
Q14.5 44.3906 14.5 40.2812
Q14.5 37.1562 16.8906 35.375
Q19.2812 33.5938 26.5156 31.9844
L29.5938 31.2969
Q39.1562 29.25 43.1875 25.5156
Q47.2188 21.7812 47.2188 15.0938
Q47.2188 7.46875 41.1875 3.01562
Q35.1562 -1.42188 24.6094 -1.42188
Q20.2188 -1.42188 15.4531 -0.5625
Q10.6875 0.296875 5.42188 2
L5.42188 11.2812
Q10.4062 8.6875 15.2344 7.39062
Q20.0625 6.10938 24.8125 6.10938
Q31.1562 6.10938 34.5625 8.28125
Q37.9844 10.4531 37.9844 14.4062
Q37.9844 18.0625 35.5156 20.0156
Q33.0625 21.9688 24.7031 23.7812
L21.5781 24.5156
Q13.2344 26.2656 9.51562 29.9062
Q5.8125 33.5469 5.8125 39.8906
Q5.8125 47.6094 11.2812 51.7969
Q16.75 56 26.8125 56
Q31.7812 56 36.1719 55.2656
Q40.5781 54.5469 44.2812 53.0781" id="BitstreamVeraSans-Roman-73"/>
      <path d="
M18.1094 8.20312
L18.1094 -20.7969
L9.07812 -20.7969
L9.07812 54.6875
L18.1094 54.6875
L18.1094 46.3906
Q20.9531 51.2656 25.2656 53.625
Q29.5938 56 35.5938 56
Q45.5625 56 51.7812 48.0938
Q58.0156 40.1875 58.0156 27.2969
Q58.0156 14.4062 51.7812 6.48438
Q45.5625 -1.42188 35.5938 -1.42188
Q29.5938 -1.42188 25.2656 0.953125
Q20.9531 3.32812 18.1094 8.20312
M48.6875 27.2969
Q48.6875 37.2031 44.6094 42.8438
Q40.5312 48.4844 33.4062 48.4844
Q26.2656 48.4844 22.1875 42.8438
Q18.1094 37.2031 18.1094 27.2969
Q18.1094 17.3906 22.1875 11.75
Q26.2656 6.10938 33.4062 6.10938
Q40.5312 6.10938 44.6094 11.75
Q48.6875 17.3906 48.6875 27.2969" id="BitstreamVeraSans-Roman-70"/>
     </defs>
     <g transform="translate(170.022375 414.86175)scale(0.144 -0.144)">
      <use xlink:href="#BitstreamVeraSans-Roman-53"/>
      <use x="63.4765625" xlink:href="#BitstreamVeraSans-Roman-63"/>
      <use x="118.45703125" xlink:href="#BitstreamVeraSans-Roman-68"/>
      <use x="181.8359375" xlink:href="#BitstreamVeraSans-Roman-77"/>
      <use x="263.623046875" xlink:href="#BitstreamVeraSans-Roman-61"/>
      <use x="324.90234375" xlink:href="#BitstreamVeraSans-Roman-72"/>
      <use x="366.015625" xlink:href="#BitstreamVeraSans-Roman-7a"/>
      <use x="418.505859375" xlink:href="#BitstreamVeraSans-Roman-6d"/>
      <use x="515.91796875" xlink:href="#BitstreamVeraSans-Roman-61"/>
      <use x="577.197265625" xlink:href="#BitstreamVeraSans-Roman-72"/>
      <use x="618.310546875" xlink:href="#BitstreamVeraSans-Roman-6b"/>
      <use x="676.220703125" xlink:href="#BitstreamVeraSans-Roman-74"/>
      <use x="715.4296875" xlink:href="#BitstreamVeraSans-Roman-70"/>
      <use x="778.90625" xlink:href="#BitstreamVeraSans-Roman-72"/>
      <use x="817.76953125" xlink:href="#BitstreamVeraSans-Roman-65"/>
      <use x="879.29296875" xlink:href="#BitstreamVeraSans-Roman-69"/>
      <use x="907.076171875" xlink:href="#BitstreamVeraSans-Roman-73"/>
     </g>
    </g>
    <g id="line2d_33">
     <path d="
M339.609 409.822
L359.769 409.822" style="fill:none;stroke:#008000;stroke-linecap:square;"/>
    </g>
    <g id="line2d_34"/>
    <g id="text_17">
     <!-- Normalpreis -->
     <g transform="translate(375.609375 414.86175)scale(0.144 -0.144)">
      <use xlink:href="#BitstreamVeraSans-Roman-4e"/>
      <use x="74.8046875" xlink:href="#BitstreamVeraSans-Roman-6f"/>
      <use x="135.986328125" xlink:href="#BitstreamVeraSans-Roman-72"/>
      <use x="175.349609375" xlink:href="#BitstreamVeraSans-Roman-6d"/>
      <use x="272.76171875" xlink:href="#BitstreamVeraSans-Roman-61"/>
      <use x="334.041015625" xlink:href="#BitstreamVeraSans-Roman-6c"/>
      <use x="361.82421875" xlink:href="#BitstreamVeraSans-Roman-70"/>
      <use x="425.30078125" xlink:href="#BitstreamVeraSans-Roman-72"/>
      <use x="464.1640625" xlink:href="#BitstreamVeraSans-Roman-65"/>
      <use x="525.6875" xlink:href="#BitstreamVeraSans-Roman-69"/>
      <use x="553.470703125" xlink:href="#BitstreamVeraSans-Roman-73"/>
     </g>
    </g>
   </g>
  </g>
 </g>
 <defs>
  <clipPath id="pcb2bf987bf">
   <rect height="302.4" width="446.4" x="72.0" y="43.2"/>
  </clipPath>
 </defs>
</svg>
