<?xml version="1.0" encoding="utf-8" standalone="no"?>
<!DOCTYPE svg PUBLIC "-//W3C//DTD SVG 1.1//EN"
  "http://www.w3.org/Graphics/SVG/1.1/DTD/svg11.dtd">
<!-- Created with matplotlib (http://matplotlib.org/) -->
<svg height="432pt" version="1.1" viewBox="0 0 576 432" width="576pt" xmlns="http://www.w3.org/2000/svg" xmlns:xlink="http://www.w3.org/1999/xlink">
 <defs>
  <style type="text/css">
*{stroke-linecap:butt;stroke-linejoin:round;}
  </style>
 </defs>
 <g id="figure_1">
  <g id="patch_1">
   <path d="
M0 432
L576 432
L576 0
L0 0
z
" style="fill:#ffffff;"/>
  </g>
  <g id="axes_1">
   <g id="patch_2">
    <path d="
M72 345.6
L518.4 345.6
L518.4 43.2
L72 43.2
z
" style="fill:#ffffff;"/>
   </g>
   <g id="line2d_1">
    <path clip-path="url(#pcb2bf987bf)" d="
M75.4722 433
L75.5732 153.34
L75.7753 433
M82.5175 433
L82.7197 152.472
L82.8208 433
M87.3405 433
L87.4415 154.555
L87.6434 433
M89.6376 433
L89.7386 154.468
L89.9405 433
M110.184 433
L110.285 150.954
L110.791 433
M172.971 433
L173.072 152.342
L173.577 433
M195.408 433
L195.915 149.652
L196.523 433
M200.668 433
L201.275 151.821
L201.882 433
M211.766 433
L211.867 151.171
L212.069 433
M212.531 433
L212.633 152.472
L212.835 433
M214.982 433
L215.185 150.737
L215.185 150.737
L215.185 150.737
L215.286 433
M215.365 433
L215.568 150.737
L215.669 433
M220.725 433
L220.928 149.652
L221.029 433
M221.491 433
L221.693 149.435
L221.997 433
M224.782 433
L224.884 150.303
L225.086 433
M226.059 433
L226.16 151.865
L226.16 151.865
L226.16 151.865
L226.261 433
M226.468 433
L226.67 151.865
L226.771 433
M232.822 433
L232.924 150.737
L233.126 433
M234.125 433
L234.327 152.472
L234.327 152.472
L234.327 152.472
L234.428 433
M237.799 433
L237.901 153.774
L238.103 433
M239.331 433
L239.432 153.34
L239.634 433
M248.673 433
L248.876 151.604
L248.876 151.604
L248.876 151.604
L248.977 433
M250.433 433
L250.534 153.427
L250.737 433
M252.885 433
L253.087 152.472
L253.188 433
M253.65 433
L253.852 152.472
L253.954 433
M269.193 433
L269.294 150.52
L269.497 433
M281.598 433
L281.801 152.819
L282.104 433
M283.895 433
L284.097 152.038
L284.199 433
M286.958 433
L287.16 153.817
L287.261 433
M288.333 433
L288.437 116.026
L288.644 433
M299.975 433
L300.177 152.689
L300.177 152.689
L300.177 152.689
L300.278 433
M301.506 433
L301.708 150.954
L301.81 433
M303.42 433
L303.623 151.387
L303.724 433
M317.969 433
L318.171 152.689
L318.272 433
M324.094 433
L324.296 153.34
L324.397 433
M324.706 433
L324.807 155.032
L325.009 433
M328.151 433
L328.252 153.34
L328.455 433
M330.449 433
L330.55 154.728
L330.751 433
M340.174 433
L340.376 153.21
L340.477 433
M345.762 433
L345.863 151.821
L346.066 433
M349.974 433
L350.075 155.423
L350.277 433
M356.865 433
L356.966 152.255
L357.168 433
M359.162 433
L359.263 152.255
L359.465 433
M363.527 433
L363.73 150.954
L363.831 433
M373.864 433
L374.067 151.604
L374.168 433
M389.231 433
L389.38 328.67
L389.508 328.627
L390.274 328.67
L390.657 328.67
L390.806 433
M392.624 433
L392.826 154.859
L392.927 433
M399.361 433
L399.462 152.689
L399.664 433
M406.023 433
L406.226 151.387
L406.327 433
M407.401 433
L407.502 151.604
L407.704 433
M412.505 433
L412.607 152.038
L412.91 433
M423.634 433
L423.837 152.299
L423.938 433
M424.783 433
L424.985 152.168
L425.086 433
M425.774 433
L425.879 106.264
L426.087 433
M426.979 433
L427.282 150.737
L427.384 433
M427.692 433
L427.793 150.303
L427.995 433
M428.228 433
L428.431 150.086
L428.532 433
M436.268 433
L436.471 151.171
L436.572 433
M443.771 433
L443.872 152.906
L444.075 433
M444.308 433
L444.51 152.906
L444.612 433
M444.691 433
L444.893 152.906
L444.994 433
M450.178 433
L450.381 151.301
L450.636 149.652
L450.737 433
M456.017 433
L456.123 65.2627
L456.336 433
M456.559 433
L456.762 151.821
L456.863 433
M461.382 433
L461.484 152.255
L461.686 433
M478.765 433
L478.967 154.425
L479.068 433
M482.21 433
L482.412 154.034
L482.513 433
M493.541 433
L493.643 150.737
L493.845 433
M495.455 433
L495.557 149.869
L495.658 433
M499.284 433
L499.385 151.387
L499.588 433
M500.05 433
L500.151 152.689
L500.353 433
M502.73 433
L502.831 150.737
L503.086 151.171
L503.187 433
M507.323 433
L507.425 137.72
L507.629 433
M512.301 433
L512.402 150.52
L512.605 433
M516.13 433
L516.231 153.644
L516.486 151.821
L516.587 433
M517.661 433
L517.762 153.166
L517.964 433
L517.964 433" style="fill:none;stroke:#ff0000;stroke-linecap:square;"/>
   </g>
   <g id="line2d_2">
    <path clip-path="url(#pcb2bf987bf)" d="
M72 171.129
L72.7657 171.129
L72.8933 171.606
L73.5314 171.606
L73.659 171.736
L74.2971 171.736
L74.4247 172.561
L75.0628 172.561
L75.1904 171.823
L75.8285 171.823
L75.9561 172.864
L76.5942 172.864
L76.7218 173.081
L77.3599 173.081
L77.7429 172.3
L78.1256 172.3
L78.1256 172.3
L78.2532 171.042
L78.8915 171.042
L79.0189 170.522
L79.6569 170.522
L79.7846 169.827
L80.4226 169.827
L80.5503 170.652
L81.1885 170.652
L81.316 171.172
L81.9542 171.172
L82.0816 170.999
L82.7197 170.999
L82.8473 171.563
L83.4854 171.563
L83.613 171.259
L85.017 171.346
L85.1444 170.912
L86.5482 170.955
L86.6758 171.216
L88.0796 171.303
L88.2072 171.823
L88.8453 171.823
L88.8453 171.823
L88.9729 171.216
L89.611 171.216
L89.7386 171.78
L90.3767 171.78
L91.0148 169.914
L91.9081 169.263
L92.6738 170.261
L93.3118 169.827
L94.2051 169.48
L94.9708 170.261
L95.7365 170.305
L96.3746 169.784
L97.1403 169.914
L98.0336 168.569
L98.7993 168.439
L99.4374 167.571
L100.331 167.441
L100.969 167.615
L101.862 167.571
L102.5 168.005
L103.393 167.962
L104.797 169.22
L105.563 168.352
L106.329 169.524
L107.095 169.176
L107.988 169.61
L108.626 169.61
L109.519 169.957
L110.285 169.524
L111.05 170.435
L111.816 169.957
L113.986 171.953
L114.879 171.91
L116.41 171.476
L117.048 171.606
L117.942 171.042
L118.707 170.912
L119.345 172.04
L121.004 171.91
L121.643 171.91
L122.536 171.693
L123.174 172.604
L124.067 172.778
L124.705 172.517
L125.471 171.693
L126.237 170.825
L126.237 170.825
L126.365 170.825
L127.13 170.522
L127.13 170.522
L127.768 170.001
L128.661 168.916
L129.299 169.393
L130.193 169.307
L130.831 169.09
L131.597 169.046
L132.362 169.22
L132.362 169.22
L133.894 170.218
L134.659 170.174
L135.425 169.437
L136.318 169.003
L136.956 169.697
L137.722 168.96
L138.488 169.914
L139.381 170.044
L140.019 170.608
L140.785 170.478
L141.678 169.697
L142.316 169.871
L143.082 170.348
L143.975 170.608
L144.613 170.174
L145.507 169.48
L146.272 169.654
L147.038 169.263
L147.676 169.176
L148.442 169.48
L149.335 169.393
L149.973 169.437
L150.739 171.389
L150.867 171.389
L151.505 170.218
L152.27 170.348
L153.164 170.348
L153.802 169.393
L154.567 168.96
L155.333 168.656
L155.333 168.656
L156.099 169.48
L156.865 169.914
L158.396 169.871
L159.162 169.48
L159.927 169.393
L160.821 169.741
L162.224 169.567
L163.756 170.695
L163.883 170.695
L166.053 168.743
L166.819 168.656
L167.712 169.393
L169.881 170.348
L171.413 169.654
L173.072 169.176
L173.71 168.222
L174.603 168.309
L176.007 167.615
L176.9 168.612
L177.538 168.439
L178.304 168.916
L179.07 168.916
L179.963 169.567
L180.729 169.784
L182.132 169.307
L182.26 169.307
L182.898 168.005
L183.664 169.393
L183.791 169.393
L184.43 168.96
L185.195 168.96
L185.961 168.048
L186.727 167.571
L187.492 167.831
L188.258 166.877
L189.151 167.788
L190.555 167.484
L191.321 167.094
L193.618 166.964
L194.384 167.398
L195.277 168.309
L195.915 168.222
L196.681 168.005
L198.212 168.786
L198.212 168.786
L198.978 169.437
L200.509 170.261
L201.275 170.348
L202.806 172.17
L203.699 171.736
L204.338 171.65
L205.231 170.782
L205.997 170.478
L206.124 170.608
L206.762 170.608
L207.4 170.435
L207.911 169.697
L208.166 169.697
L209.059 170.001
L209.059 170.001
L209.57 169.697
L209.825 169.697
L210.591 169.263
L210.846 169.697
L211.356 169.697
L211.484 169.307
L212.888 169.393
L213.781 169.393
L215.951 169.393
L215.951 169.393
L216.078 169.524
L218.248 169.61
L218.248 169.61
L218.375 169.741
L219.013 169.741
L219.141 169.22
L220.545 169.133
L220.672 168.222
L220.672 168.222
L221.31 168.222
L221.438 168.092
L222.076 168.092
L222.204 168.309
L222.842 168.309
L222.842 168.309
L223.225 169.697
L224.373 169.61
L224.501 168.873
L225.139 168.873
L225.267 168.309
L225.905 168.309
L225.905 168.309
L226.032 168.743
L226.032 168.743
L226.67 168.743
L226.798 168.439
L227.436 168.439
L227.436 168.439
L227.946 168.179
L228.202 168.179
L228.329 169.741
L228.967 169.741
L229.095 169.524
L229.733 169.524
L229.861 169.176
L230.499 169.176
L230.499 169.176
L230.882 170.131
L232.03 170.088
L232.158 170.001
L233.562 170.088
L233.689 169.35
L234.327 169.35
L234.327 169.35
L234.455 171.433
L235.093 171.433
L235.093 171.433
L235.221 170.825
L235.859 170.825
L235.859 170.825
L235.986 169.871
L236.624 169.871
L236.752 170.695
L237.39 170.695
L237.518 171.259
L238.921 171.259
L239.049 171.78
L239.687 171.78
L239.815 172.648
L240.453 172.648
L240.453 172.648
L240.58 172.387
L241.219 172.387
L241.346 172.214
L241.984 172.214
L242.112 171.867
L242.75 171.867
L242.878 171.693
L243.516 171.693
L243.643 170.869
L244.281 170.869
L244.409 170.348
L245.047 170.348
L245.047 170.348
L245.175 169.741
L246.578 169.741
L246.578 169.741
L246.706 170.131
L248.876 170.131
L248.876 170.131
L249.003 169.957
L249.641 169.957
L249.641 169.957
L249.769 170.174
L251.173 170.218
L251.3 169.697
L251.938 169.697
L252.066 171.086
L254.235 171.042
L254.363 171.216
L255.767 171.172
L255.767 171.172
L255.894 170.955
L256.532 170.955
L256.66 170.001
L256.66 170.001
L257.298 170.001
L257.426 170.391
L258.064 170.391
L258.064 170.391
L258.702 170.218
L258.83 170.218
L258.957 170.608
L259.595 170.608
L259.595 170.608
L259.723 170.478
L260.361 170.478
L260.489 169.35
L261.127 169.35
L261.254 170.435
L261.892 170.435
L262.02 169.784
L262.658 169.784
L262.786 169.437
L263.424 169.437
L263.424 169.437
L263.551 168.439
L264.189 168.439
L264.189 168.439
L264.317 168.309
L264.955 168.309
L264.955 168.309
L265.083 168.656
L265.593 168.656
L265.848 168.179
L266.486 168.179
L266.614 169.003
L267.252 169.003
L267.38 169.22
L269.549 169.307
L269.677 168.829
L270.315 168.829
L270.443 169.307
L271.081 169.307
L271.463 170.001
L271.846 170.001
L271.974 169.09
L272.612 169.09
L272.74 169.524
L273.378 169.524
L273.378 169.524
L273.506 170.435
L274.143 170.435
L274.271 170.305
L274.909 170.305
L274.909 170.305
L275.037 170.131
L275.675 170.131
L275.802 170.738
L278.738 170.695
L278.865 170.044
L279.503 170.044
L279.631 170.955
L280.269 170.955
L280.269 170.955
L280.397 170.348
L281.035 170.348
L281.035 170.348
L281.162 169.654
L281.801 169.654
L282.311 170.305
L282.566 170.305
L282.694 171.129
L283.332 171.129
L283.459 170.608
L284.736 170.608
L285.374 170.088
L285.629 170.088
L285.756 170.608
L286.395 170.608
L286.522 171.216
L287.16 171.216
L287.288 170.478
L287.926 170.478
L288.054 171.476
L288.692 171.476
L288.819 170.738
L289.457 170.738
L289.585 169.827
L290.223 169.827
L290.351 170.131
L290.989 170.131
L291.116 169.22
L291.754 169.22
L292.265 168.873
L292.52 168.873
L292.52 168.873
L292.648 169.35
L293.286 169.35
L293.286 169.35
L293.413 169.914
L294.051 169.914
L294.051 169.914
L294.179 170.565
L294.817 170.565
L294.817 170.565
L294.945 170.001
L295.583 170.001
L295.71 169.567
L296.349 169.567
L296.476 170.825
L297.114 170.825
L297.242 171.563
L297.88 171.563
L298.008 170.782
L298.646 170.782
L298.773 169.654
L299.411 169.654
L299.539 169.524
L300.943 169.524
L301.07 169.654
L301.708 169.654
L301.836 169.784
L303.112 169.827
L303.368 169.957
L304.771 169.957
L304.899 170.435
L305.537 170.435
L305.664 170.565
L307.068 170.565
L307.068 170.565
L307.196 169.393
L307.834 169.393
L307.962 170.522
L309.365 170.478
L309.493 170.305
L310.131 170.305
L310.131 170.305
L310.259 171.259
L311.662 171.172
L311.79 171.433
L312.428 171.433
L312.556 170.782
L313.194 170.782
L313.321 171.606
L313.96 171.606
L314.087 170.825
L314.725 170.825
L314.853 171.129
L315.491 171.129
L315.619 171.476
L316.257 171.476
L316.384 171.303
L317.022 171.303
L317.15 171.086
L318.554 171.129
L318.554 171.129
L318.681 171.997
L320.851 171.997
L320.851 171.997
L321.361 172.474
L321.616 172.474
L322.127 171.953
L323.148 172.083
L323.275 171.736
L324.679 171.736
L324.807 171.172
L326.211 171.172
L326.338 171.693
L326.976 171.693
L327.104 171.997
L327.742 171.997
L327.87 171.867
L328.508 171.867
L328.635 170.869
L329.273 170.869
L329.401 171.476
L330.039 171.476
L330.167 170.869
L330.805 170.869
L330.933 170.738
L331.57 170.738
L331.698 170.608
L333.102 170.695
L333.23 172.04
L334.633 172.04
L334.761 172.257
L335.399 172.257
L335.527 171.389
L336.165 171.389
L336.292 171.259
L336.93 171.259
L337.058 171.476
L337.696 171.476
L337.824 170.912
L338.462 170.912
L338.589 170.391
L339.227 170.391
L339.355 170.001
L339.866 170.001
L340.121 169.654
L340.504 169.654
L340.886 169.176
L341.525 169.176
L341.652 169.393
L343.056 169.437
L343.184 169.654
L343.822 169.654
L343.822 169.654
L343.949 170.131
L344.588 170.131
L344.715 171.563
L345.353 171.563
L345.353 171.563
L345.481 170.478
L347.65 170.565
L348.033 170.608
L348.416 170.608
L348.543 171.563
L349.181 171.563
L349.309 172.127
L349.947 172.127
L350.075 171.91
L350.713 171.91
L350.84 172.257
L352.244 172.214
L352.372 171.476
L353.01 171.476
L353.138 171.303
L353.776 171.303
L353.776 171.303
L354.286 171.172
L354.541 171.172
L354.669 169.827
L355.307 169.827
L355.307 169.827
L355.435 169.697
L356.073 169.697
L356.073 169.697
L356.2 170.088
L356.838 170.088
L356.966 170.825
L357.477 170.825
L357.732 170.131
L359.136 170.088
L359.263 170.738
L359.901 170.738
L360.029 170.348
L360.667 170.348
L360.795 169.784
L361.433 169.784
L361.56 170.391
L362.964 170.305
L363.092 169.654
L363.73 169.654
L363.857 170.738
L364.495 170.738
L364.623 170.478
L365.261 170.478
L365.389 171.216
L366.027 171.216
L366.027 171.216
L366.155 171.346
L368.324 171.259
L368.451 170.652
L369.09 170.652
L369.6 170.825
L369.855 170.825
L369.983 170.565
L370.621 170.565
L370.749 170.131
L372.152 170.088
L372.28 170.869
L372.918 170.869
L373.046 169.741
L373.684 169.741
L373.684 169.741
L373.811 170.174
L375.215 170.174
L375.343 171.433
L375.981 171.433
L376.108 171.042
L376.746 171.042
L376.874 170.912
L377.512 170.912
L377.512 170.912
L377.64 170.435
L379.044 170.522
L379.171 170.261
L379.809 170.261
L379.937 169.654
L381.341 169.697
L381.468 170.478
L382.107 170.478
L382.234 170.044
L382.872 170.044
L383 170.218
L383.638 170.218
L384.148 170.869
L384.403 170.869
L384.531 170.652
L385.935 170.652
L386.062 170.305
L386.701 170.305
L386.828 170.565
L387.466 170.565
L387.594 170.999
L388.232 170.999
L388.232 170.999
L388.36 337.131
L388.998 337.131
L389.125 171.693
L389.763 171.693
L389.891 170.695
L390.529 170.695
L390.657 171.563
L391.295 171.563
L391.422 172.344
L392.06 172.344
L392.188 171.65
L392.826 171.65
L392.954 171.086
L394.102 171.129
L394.102 171.129
L394.485 169.654
L395.123 169.654
L395.251 171.086
L395.889 171.086
L396.016 170.522
L396.655 170.522
L396.782 171.78
L398.186 171.78
L398.314 171.476
L398.952 171.476
L399.079 171.259
L399.717 171.259
L399.845 171.129
L400.483 171.129
L400.611 170.825
L401.249 170.825
L401.376 170.608
L402.014 170.608
L402.142 170.044
L402.78 170.044
L402.908 169.48
L403.546 169.48
L403.673 169.697
L404.311 169.697
L404.439 170.348
L405.077 170.348
L405.205 169.957
L406.609 170.001
L406.736 170.131
L407.374 170.131
L407.502 170.478
L408.14 170.478
L408.268 171.346
L408.906 171.346
L409.033 170.608
L409.671 170.608
L409.799 169.827
L410.437 169.827
L410.565 171.172
L411.203 171.172
L411.33 170.912
L411.968 170.912
L412.096 170.695
L412.607 170.695
L412.989 171.303
L414.266 171.216
L414.393 170.869
L415.031 170.869
L415.159 170.695
L415.797 170.695
L415.925 170.305
L416.563 170.305
L416.69 169.437
L417.328 169.437
L417.456 170.391
L418.094 170.391
L418.222 169.09
L418.86 169.09
L418.987 169.307
L419.625 169.307
L419.753 169.697
L420.391 169.697
L420.519 170.001
L421.157 170.001
L421.284 169.654
L422.688 169.654
L422.816 169.524
L423.454 169.524
L423.581 169.133
L424.22 169.133
L424.347 169.003
L424.985 169.003
L425.113 168.699
L425.751 168.699
L425.879 168.265
L426.517 168.265
L426.644 169.437
L427.282 169.437
L427.41 169.003
L428.048 169.003
L428.176 168.656
L429.579 168.699
L429.707 170.391
L430.345 170.391
L430.473 170.695
L430.983 170.695
L431.238 170.565
L431.877 170.565
L432.004 170.869
L432.642 170.869
L432.642 170.869
L432.77 170.131
L434.174 170.174
L434.301 170.261
L434.939 170.261
L435.067 170.001
L435.705 170.001
L435.833 169.827
L436.471 169.827
L436.598 170.478
L437.236 170.478
L437.364 170.782
L438.002 170.782
L438.13 171.346
L438.768 171.346
L438.895 171.042
L439.533 171.042
L439.661 171.216
L441.831 171.129
L441.831 171.129
L441.958 170.131
L442.596 170.131
L442.724 170.869
L443.362 170.869
L443.49 171.346
L444.128 171.346
L444.255 170.608
L444.893 170.608
L445.021 170.782
L445.659 170.782
L446.169 170.522
L446.425 170.522
L446.552 170.261
L447.19 170.261
L447.318 169.567
L447.956 169.567
L448.084 169.003
L448.722 169.003
L448.849 168.526
L449.487 168.526
L449.487 168.526
L449.615 168.179
L451.019 168.222
L451.146 168.612
L451.785 168.612
L451.912 169.133
L452.55 169.133
L452.678 168.699
L453.316 168.699
L453.444 169.914
L454.082 169.914
L454.209 170.261
L454.847 170.261
L454.847 170.261
L454.975 170.435
L455.613 170.435
L455.741 170.652
L456.379 170.652
L456.506 170.435
L457.91 170.348
L458.038 170.608
L458.676 170.608
L458.803 170.782
L459.442 170.782
L459.569 170.522
L460.207 170.522
L460.335 170.001
L460.973 170.001
L461.101 170.869
L461.739 170.869
L461.866 171.042
L462.504 171.042
L462.632 170.869
L463.27 170.869
L463.398 170.565
L464.036 170.565
L464.163 170.695
L464.801 170.695
L464.929 169.61
L465.567 169.61
L465.567 169.61
L465.695 169.35
L466.333 169.35
L466.46 169.48
L467.864 169.437
L467.992 169.003
L468.63 169.003
L468.757 168.699
L469.396 168.699
L469.523 168.396
L470.161 168.396
L470.289 168.96
L470.927 168.96
L471.055 169.263
L473.224 169.22
L473.352 169.524
L473.99 169.524
L474.118 169.914
L474.755 169.914
L474.883 169.741
L476.287 169.784
L476.414 169.871
L477.052 169.871
L477.18 169.741
L477.818 169.741
L477.946 170.174
L478.584 170.174
L478.711 171.216
L479.35 171.216
L479.477 170.999
L480.115 170.999
L480.243 170.348
L480.881 170.348
L481.009 170.782
L481.647 170.782
L481.774 170.348
L482.412 170.348
L482.54 170.478
L483.178 170.478
L483.306 169.654
L484.709 169.697
L484.837 168.743
L486.241 168.829
L486.241 168.829
L486.368 169.046
L487.007 169.046
L487.134 169.437
L488.538 169.437
L488.666 168.873
L490.069 168.786
L490.197 169.307
L490.835 169.307
L490.963 168.873
L491.601 168.873
L491.728 169.48
L492.366 169.48
L492.494 170.001
L493.132 170.001
L493.26 169.263
L494.663 169.176
L494.791 168.526
L495.429 168.526
L495.557 168.873
L496.195 168.873
L496.322 169.263
L496.961 169.263
L497.088 169.524
L497.726 169.524
L497.854 170.305
L498.492 170.305
L498.62 170.825
L499.258 170.825
L499.258 170.825
L499.385 169.871
L500.023 169.871
L500.151 171.259
L500.789 171.259
L500.917 171.389
L501.555 171.389
L501.682 169.654
L502.32 169.654
L502.448 169.827
L503.086 169.827
L503.214 170.131
L503.852 170.131
L503.979 169.957
L505.383 170.044
L505.511 170.131
L506.149 170.131
L506.277 170.261
L506.915 170.261
L507.042 169.393
L507.68 169.393
L507.808 170.174
L509.212 170.131
L509.339 169.09
L509.977 169.09
L510.488 168.786
L510.743 168.786
L510.871 168.916
L511.509 168.916
L511.636 169.133
L513.04 169.176
L513.168 169.524
L513.806 169.524
L513.933 169.35
L514.572 169.35
L514.699 168.829
L515.337 168.829
L515.465 169.61
L516.103 169.61
L516.231 170.435
L516.869 170.435
L516.996 169.957
L518.4 169.957
L518.4 169.957" style="fill:none;stroke:#008000;stroke-linecap:square;"/>
   </g>
   <g id="patch_3">
    <path d="
M72 43.2
L518.4 43.2" style="fill:none;stroke:#000000;stroke-linecap:square;stroke-linejoin:miter;"/>
   </g>
   <g id="patch_4">
    <path d="
M518.4 345.6
L518.4 43.2" style="fill:none;stroke:#000000;stroke-linecap:square;stroke-linejoin:miter;"/>
   </g>
   <g id="patch_5">
    <path d="
M72 345.6
L518.4 345.6" style="fill:none;stroke:#000000;stroke-linecap:square;stroke-linejoin:miter;"/>
   </g>
   <g id="patch_6">
    <path d="
M72 345.6
L72 43.2" style="fill:none;stroke:#000000;stroke-linecap:square;stroke-linejoin:miter;"/>
   </g>
   <g id="matplotlib.axis_1">
    <g id="xtick_1">
     <g id="line2d_3">
      <defs>
       <path d="
M0 0
L0 -4" id="m93b0483c22" style="stroke:#000000;stroke-width:0.5;"/>
      </defs>
      <g>
       <use style="stroke:#000000;stroke-width:0.5;" x="117.941468267" xlink:href="#m93b0483c22" y="345.6"/>
      </g>
     </g>
     <g id="line2d_4">
      <defs>
       <path d="
M0 0
L0 4" id="m741efc42ff" style="stroke:#000000;stroke-width:0.5;"/>
      </defs>
      <g>
       <use style="stroke:#000000;stroke-width:0.5;" x="117.941468267" xlink:href="#m741efc42ff" y="43.2"/>
      </g>
     </g>
     <g id="text_1">
      <!-- Oct 13 2015 -->
      <defs>
       <path d="
M19.1875 8.29688
L53.6094 8.29688
L53.6094 0
L7.32812 0
L7.32812 8.29688
Q12.9375 14.1094 22.625 23.8906
Q32.3281 33.6875 34.8125 36.5312
Q39.5469 41.8438 41.4219 45.5312
Q43.3125 49.2188 43.3125 52.7812
Q43.3125 58.5938 39.2344 62.25
Q35.1562 65.9219 28.6094 65.9219
Q23.9688 65.9219 18.8125 64.3125
Q13.6719 62.7031 7.8125 59.4219
L7.8125 69.3906
Q13.7656 71.7812 18.9375 73
Q24.125 74.2188 28.4219 74.2188
Q39.75 74.2188 46.4844 68.5469
Q53.2188 62.8906 53.2188 53.4219
Q53.2188 48.9219 51.5312 44.8906
Q49.8594 40.875 45.4062 35.4062
Q44.1875 33.9844 37.6406 27.2188
Q31.1094 20.4531 19.1875 8.29688" id="BitstreamVeraSans-Roman-32"/>
       <path d="
M39.4062 66.2188
Q28.6562 66.2188 22.3281 58.2031
Q16.0156 50.2031 16.0156 36.375
Q16.0156 22.6094 22.3281 14.5938
Q28.6562 6.59375 39.4062 6.59375
Q50.1406 6.59375 56.4219 14.5938
Q62.7031 22.6094 62.7031 36.375
Q62.7031 50.2031 56.4219 58.2031
Q50.1406 66.2188 39.4062 66.2188
M39.4062 74.2188
Q54.7344 74.2188 63.9062 63.9375
Q73.0938 53.6562 73.0938 36.375
Q73.0938 19.1406 63.9062 8.85938
Q54.7344 -1.42188 39.4062 -1.42188
Q24.0312 -1.42188 14.8125 8.82812
Q5.60938 19.0938 5.60938 36.375
Q5.60938 53.6562 14.8125 63.9375
Q24.0312 74.2188 39.4062 74.2188" id="BitstreamVeraSans-Roman-4f"/>
       <path d="
M31.7812 66.4062
Q24.1719 66.4062 20.3281 58.9062
Q16.5 51.4219 16.5 36.375
Q16.5 21.3906 20.3281 13.8906
Q24.1719 6.39062 31.7812 6.39062
Q39.4531 6.39062 43.2812 13.8906
Q47.125 21.3906 47.125 36.375
Q47.125 51.4219 43.2812 58.9062
Q39.4531 66.4062 31.7812 66.4062
M31.7812 74.2188
Q44.0469 74.2188 50.5156 64.5156
Q56.9844 54.8281 56.9844 36.375
Q56.9844 17.9688 50.5156 8.26562
Q44.0469 -1.42188 31.7812 -1.42188
Q19.5312 -1.42188 13.0625 8.26562
Q6.59375 17.9688 6.59375 36.375
Q6.59375 54.8281 13.0625 64.5156
Q19.5312 74.2188 31.7812 74.2188" id="BitstreamVeraSans-Roman-30"/>
       <path d="
M12.4062 8.29688
L28.5156 8.29688
L28.5156 63.9219
L10.9844 60.4062
L10.9844 69.3906
L28.4219 72.9062
L38.2812 72.9062
L38.2812 8.29688
L54.3906 8.29688
L54.3906 0
L12.4062 0
z
" id="BitstreamVeraSans-Roman-31"/>
       <path d="
M40.5781 39.3125
Q47.6562 37.7969 51.625 33
Q55.6094 28.2188 55.6094 21.1875
Q55.6094 10.4062 48.1875 4.48438
Q40.7656 -1.42188 27.0938 -1.42188
Q22.5156 -1.42188 17.6562 -0.515625
Q12.7969 0.390625 7.625 2.20312
L7.625 11.7188
Q11.7188 9.32812 16.5938 8.10938
Q21.4844 6.89062 26.8125 6.89062
Q36.0781 6.89062 40.9375 10.5469
Q45.7969 14.2031 45.7969 21.1875
Q45.7969 27.6406 41.2812 31.2656
Q36.7656 34.9062 28.7188 34.9062
L20.2188 34.9062
L20.2188 43.0156
L29.1094 43.0156
Q36.375 43.0156 40.2344 45.9219
Q44.0938 48.8281 44.0938 54.2969
Q44.0938 59.9062 40.1094 62.9062
Q36.1406 65.9219 28.7188 65.9219
Q24.6562 65.9219 20.0156 65.0312
Q15.375 64.1562 9.8125 62.3125
L9.8125 71.0938
Q15.4375 72.6562 20.3438 73.4375
Q25.25 74.2188 29.5938 74.2188
Q40.8281 74.2188 47.3594 69.1094
Q53.9062 64.0156 53.9062 55.3281
Q53.9062 49.2656 50.4375 45.0938
Q46.9688 40.9219 40.5781 39.3125" id="BitstreamVeraSans-Roman-33"/>
       <path id="BitstreamVeraSans-Roman-20"/>
       <path d="
M10.7969 72.9062
L49.5156 72.9062
L49.5156 64.5938
L19.8281 64.5938
L19.8281 46.7344
Q21.9688 47.4688 24.1094 47.8281
Q26.2656 48.1875 28.4219 48.1875
Q40.625 48.1875 47.75 41.5
Q54.8906 34.8125 54.8906 23.3906
Q54.8906 11.625 47.5625 5.09375
Q40.2344 -1.42188 26.9062 -1.42188
Q22.3125 -1.42188 17.5469 -0.640625
Q12.7969 0.140625 7.71875 1.70312
L7.71875 11.625
Q12.1094 9.23438 16.7969 8.0625
Q21.4844 6.89062 26.7031 6.89062
Q35.1562 6.89062 40.0781 11.3281
Q45.0156 15.7656 45.0156 23.3906
Q45.0156 31 40.0781 35.4375
Q35.1562 39.8906 26.7031 39.8906
Q22.75 39.8906 18.8125 39.0156
Q14.8906 38.1406 10.7969 36.2812
z
" id="BitstreamVeraSans-Roman-35"/>
       <path d="
M18.3125 70.2188
L18.3125 54.6875
L36.8125 54.6875
L36.8125 47.7031
L18.3125 47.7031
L18.3125 18.0156
Q18.3125 11.3281 20.1406 9.42188
Q21.9688 7.51562 27.5938 7.51562
L36.8125 7.51562
L36.8125 0
L27.5938 0
Q17.1875 0 13.2344 3.875
Q9.28125 7.76562 9.28125 18.0156
L9.28125 47.7031
L2.6875 47.7031
L2.6875 54.6875
L9.28125 54.6875
L9.28125 70.2188
z
" id="BitstreamVeraSans-Roman-74"/>
       <path d="
M48.7812 52.5938
L48.7812 44.1875
Q44.9688 46.2969 41.1406 47.3438
Q37.3125 48.3906 33.4062 48.3906
Q24.6562 48.3906 19.8125 42.8438
Q14.9844 37.3125 14.9844 27.2969
Q14.9844 17.2812 19.8125 11.7344
Q24.6562 6.20312 33.4062 6.20312
Q37.3125 6.20312 41.1406 7.25
Q44.9688 8.29688 48.7812 10.4062
L48.7812 2.09375
Q45.0156 0.34375 40.9844 -0.53125
Q36.9688 -1.42188 32.4219 -1.42188
Q20.0625 -1.42188 12.7812 6.34375
Q5.51562 14.1094 5.51562 27.2969
Q5.51562 40.6719 12.8594 48.3281
Q20.2188 56 33.0156 56
Q37.1562 56 41.1094 55.1406
Q45.0625 54.2969 48.7812 52.5938" id="BitstreamVeraSans-Roman-63"/>
      </defs>
      <g transform="translate(53.3541815316 394.065590385)rotate(-30.0)scale(0.12 -0.12)">
       <use xlink:href="#BitstreamVeraSans-Roman-4f"/>
       <use x="78.7109375" xlink:href="#BitstreamVeraSans-Roman-63"/>
       <use x="133.69140625" xlink:href="#BitstreamVeraSans-Roman-74"/>
       <use x="172.900390625" xlink:href="#BitstreamVeraSans-Roman-20"/>
       <use x="204.6875" xlink:href="#BitstreamVeraSans-Roman-31"/>
       <use x="268.310546875" xlink:href="#BitstreamVeraSans-Roman-33"/>
       <use x="331.93359375" xlink:href="#BitstreamVeraSans-Roman-20"/>
       <use x="363.720703125" xlink:href="#BitstreamVeraSans-Roman-32"/>
       <use x="427.34375" xlink:href="#BitstreamVeraSans-Roman-30"/>
       <use x="490.966796875" xlink:href="#BitstreamVeraSans-Roman-31"/>
       <use x="554.58984375" xlink:href="#BitstreamVeraSans-Roman-35"/>
      </g>
     </g>
    </g>
    <g id="xtick_2">
     <g id="line2d_5">
      <g>
       <use style="stroke:#000000;stroke-width:0.5;" x="173.071485419" xlink:href="#m93b0483c22" y="345.6"/>
      </g>
     </g>
     <g id="line2d_6">
      <g>
       <use style="stroke:#000000;stroke-width:0.5;" x="173.071485419" xlink:href="#m741efc42ff" y="43.2"/>
      </g>
     </g>
     <g id="text_2">
      <!-- Oct 16 2015 -->
      <defs>
       <path d="
M33.0156 40.375
Q26.375 40.375 22.4844 35.8281
Q18.6094 31.2969 18.6094 23.3906
Q18.6094 15.5312 22.4844 10.9531
Q26.375 6.39062 33.0156 6.39062
Q39.6562 6.39062 43.5312 10.9531
Q47.4062 15.5312 47.4062 23.3906
Q47.4062 31.2969 43.5312 35.8281
Q39.6562 40.375 33.0156 40.375
M52.5938 71.2969
L52.5938 62.3125
Q48.875 64.0625 45.0938 64.9844
Q41.3125 65.9219 37.5938 65.9219
Q27.8281 65.9219 22.6719 59.3281
Q17.5312 52.7344 16.7969 39.4062
Q19.6719 43.6562 24.0156 45.9219
Q28.375 48.1875 33.5938 48.1875
Q44.5781 48.1875 50.9531 41.5156
Q57.3281 34.8594 57.3281 23.3906
Q57.3281 12.1562 50.6875 5.35938
Q44.0469 -1.42188 33.0156 -1.42188
Q20.3594 -1.42188 13.6719 8.26562
Q6.98438 17.9688 6.98438 36.375
Q6.98438 53.6562 15.1875 63.9375
Q23.3906 74.2188 37.2031 74.2188
Q40.9219 74.2188 44.7031 73.4844
Q48.4844 72.75 52.5938 71.2969" id="BitstreamVeraSans-Roman-36"/>
      </defs>
      <g transform="translate(108.484198684 394.065590385)rotate(-30.0)scale(0.12 -0.12)">
       <use xlink:href="#BitstreamVeraSans-Roman-4f"/>
       <use x="78.7109375" xlink:href="#BitstreamVeraSans-Roman-63"/>
       <use x="133.69140625" xlink:href="#BitstreamVeraSans-Roman-74"/>
       <use x="172.900390625" xlink:href="#BitstreamVeraSans-Roman-20"/>
       <use x="204.6875" xlink:href="#BitstreamVeraSans-Roman-31"/>
       <use x="268.310546875" xlink:href="#BitstreamVeraSans-Roman-36"/>
       <use x="331.93359375" xlink:href="#BitstreamVeraSans-Roman-20"/>
       <use x="363.720703125" xlink:href="#BitstreamVeraSans-Roman-32"/>
       <use x="427.34375" xlink:href="#BitstreamVeraSans-Roman-30"/>
       <use x="490.966796875" xlink:href="#BitstreamVeraSans-Roman-31"/>
       <use x="554.58984375" xlink:href="#BitstreamVeraSans-Roman-35"/>
      </g>
     </g>
    </g>
    <g id="xtick_3">
     <g id="line2d_7">
      <g>
       <use style="stroke:#000000;stroke-width:0.5;" x="228.201502573" xlink:href="#m93b0483c22" y="345.6"/>
      </g>
     </g>
     <g id="line2d_8">
      <g>
       <use style="stroke:#000000;stroke-width:0.5;" x="228.201502573" xlink:href="#m741efc42ff" y="43.2"/>
      </g>
     </g>
     <g id="text_3">
      <!-- Oct 19 2015 -->
      <defs>
       <path d="
M10.9844 1.51562
L10.9844 10.5
Q14.7031 8.73438 18.5 7.8125
Q22.3125 6.89062 25.9844 6.89062
Q35.75 6.89062 40.8906 13.4531
Q46.0469 20.0156 46.7812 33.4062
Q43.9531 29.2031 39.5938 26.9531
Q35.25 24.7031 29.9844 24.7031
Q19.0469 24.7031 12.6719 31.3125
Q6.29688 37.9375 6.29688 49.4219
Q6.29688 60.6406 12.9375 67.4219
Q19.5781 74.2188 30.6094 74.2188
Q43.2656 74.2188 49.9219 64.5156
Q56.5938 54.8281 56.5938 36.375
Q56.5938 19.1406 48.4062 8.85938
Q40.2344 -1.42188 26.4219 -1.42188
Q22.7031 -1.42188 18.8906 -0.6875
Q15.0938 0.046875 10.9844 1.51562
M30.6094 32.4219
Q37.25 32.4219 41.125 36.9531
Q45.0156 41.5 45.0156 49.4219
Q45.0156 57.2812 41.125 61.8438
Q37.25 66.4062 30.6094 66.4062
Q23.9688 66.4062 20.0938 61.8438
Q16.2188 57.2812 16.2188 49.4219
Q16.2188 41.5 20.0938 36.9531
Q23.9688 32.4219 30.6094 32.4219" id="BitstreamVeraSans-Roman-39"/>
      </defs>
      <g transform="translate(163.614215838 394.065590385)rotate(-30.0)scale(0.12 -0.12)">
       <use xlink:href="#BitstreamVeraSans-Roman-4f"/>
       <use x="78.7109375" xlink:href="#BitstreamVeraSans-Roman-63"/>
       <use x="133.69140625" xlink:href="#BitstreamVeraSans-Roman-74"/>
       <use x="172.900390625" xlink:href="#BitstreamVeraSans-Roman-20"/>
       <use x="204.6875" xlink:href="#BitstreamVeraSans-Roman-31"/>
       <use x="268.310546875" xlink:href="#BitstreamVeraSans-Roman-39"/>
       <use x="331.93359375" xlink:href="#BitstreamVeraSans-Roman-20"/>
       <use x="363.720703125" xlink:href="#BitstreamVeraSans-Roman-32"/>
       <use x="427.34375" xlink:href="#BitstreamVeraSans-Roman-30"/>
       <use x="490.966796875" xlink:href="#BitstreamVeraSans-Roman-31"/>
       <use x="554.58984375" xlink:href="#BitstreamVeraSans-Roman-35"/>
      </g>
     </g>
    </g>
    <g id="xtick_4">
     <g id="line2d_9">
      <g>
       <use style="stroke:#000000;stroke-width:0.5;" x="283.331519725" xlink:href="#m93b0483c22" y="345.6"/>
      </g>
     </g>
     <g id="line2d_10">
      <g>
       <use style="stroke:#000000;stroke-width:0.5;" x="283.331519725" xlink:href="#m741efc42ff" y="43.2"/>
      </g>
     </g>
     <g id="text_4">
      <!-- Oct 22 2015 -->
      <g transform="translate(218.74423299 394.065590385)rotate(-30.0)scale(0.12 -0.12)">
       <use xlink:href="#BitstreamVeraSans-Roman-4f"/>
       <use x="78.7109375" xlink:href="#BitstreamVeraSans-Roman-63"/>
       <use x="133.69140625" xlink:href="#BitstreamVeraSans-Roman-74"/>
       <use x="172.900390625" xlink:href="#BitstreamVeraSans-Roman-20"/>
       <use x="204.6875" xlink:href="#BitstreamVeraSans-Roman-32"/>
       <use x="268.310546875" xlink:href="#BitstreamVeraSans-Roman-32"/>
       <use x="331.93359375" xlink:href="#BitstreamVeraSans-Roman-20"/>
       <use x="363.720703125" xlink:href="#BitstreamVeraSans-Roman-32"/>
       <use x="427.34375" xlink:href="#BitstreamVeraSans-Roman-30"/>
       <use x="490.966796875" xlink:href="#BitstreamVeraSans-Roman-31"/>
       <use x="554.58984375" xlink:href="#BitstreamVeraSans-Roman-35"/>
      </g>
     </g>
    </g>
    <g id="xtick_5">
     <g id="line2d_11">
      <g>
       <use style="stroke:#000000;stroke-width:0.5;" x="338.461536877" xlink:href="#m93b0483c22" y="345.6"/>
      </g>
     </g>
     <g id="line2d_12">
      <g>
       <use style="stroke:#000000;stroke-width:0.5;" x="338.461536877" xlink:href="#m741efc42ff" y="43.2"/>
      </g>
     </g>
     <g id="text_5">
      <!-- Oct 25 2015 -->
      <g transform="translate(273.874250142 394.065590385)rotate(-30.0)scale(0.12 -0.12)">
       <use xlink:href="#BitstreamVeraSans-Roman-4f"/>
       <use x="78.7109375" xlink:href="#BitstreamVeraSans-Roman-63"/>
       <use x="133.69140625" xlink:href="#BitstreamVeraSans-Roman-74"/>
       <use x="172.900390625" xlink:href="#BitstreamVeraSans-Roman-20"/>
       <use x="204.6875" xlink:href="#BitstreamVeraSans-Roman-32"/>
       <use x="268.310546875" xlink:href="#BitstreamVeraSans-Roman-35"/>
       <use x="331.93359375" xlink:href="#BitstreamVeraSans-Roman-20"/>
       <use x="363.720703125" xlink:href="#BitstreamVeraSans-Roman-32"/>
       <use x="427.34375" xlink:href="#BitstreamVeraSans-Roman-30"/>
       <use x="490.966796875" xlink:href="#BitstreamVeraSans-Roman-31"/>
       <use x="554.58984375" xlink:href="#BitstreamVeraSans-Roman-35"/>
      </g>
     </g>
    </g>
    <g id="xtick_6">
     <g id="line2d_13">
      <g>
       <use style="stroke:#000000;stroke-width:0.5;" x="393.591554031" xlink:href="#m93b0483c22" y="345.6"/>
      </g>
     </g>
     <g id="line2d_14">
      <g>
       <use style="stroke:#000000;stroke-width:0.5;" x="393.591554031" xlink:href="#m741efc42ff" y="43.2"/>
      </g>
     </g>
     <g id="text_6">
      <!-- Oct 28 2015 -->
      <defs>
       <path d="
M31.7812 34.625
Q24.75 34.625 20.7188 30.8594
Q16.7031 27.0938 16.7031 20.5156
Q16.7031 13.9219 20.7188 10.1562
Q24.75 6.39062 31.7812 6.39062
Q38.8125 6.39062 42.8594 10.1719
Q46.9219 13.9688 46.9219 20.5156
Q46.9219 27.0938 42.8906 30.8594
Q38.875 34.625 31.7812 34.625
M21.9219 38.8125
Q15.5781 40.375 12.0312 44.7188
Q8.5 49.0781 8.5 55.3281
Q8.5 64.0625 14.7188 69.1406
Q20.9531 74.2188 31.7812 74.2188
Q42.6719 74.2188 48.875 69.1406
Q55.0781 64.0625 55.0781 55.3281
Q55.0781 49.0781 51.5312 44.7188
Q48 40.375 41.7031 38.8125
Q48.8281 37.1562 52.7969 32.3125
Q56.7812 27.4844 56.7812 20.5156
Q56.7812 9.90625 50.3125 4.23438
Q43.8438 -1.42188 31.7812 -1.42188
Q19.7344 -1.42188 13.25 4.23438
Q6.78125 9.90625 6.78125 20.5156
Q6.78125 27.4844 10.7812 32.3125
Q14.7969 37.1562 21.9219 38.8125
M18.3125 54.3906
Q18.3125 48.7344 21.8438 45.5625
Q25.3906 42.3906 31.7812 42.3906
Q38.1406 42.3906 41.7188 45.5625
Q45.3125 48.7344 45.3125 54.3906
Q45.3125 60.0625 41.7188 63.2344
Q38.1406 66.4062 31.7812 66.4062
Q25.3906 66.4062 21.8438 63.2344
Q18.3125 60.0625 18.3125 54.3906" id="BitstreamVeraSans-Roman-38"/>
      </defs>
      <g transform="translate(329.004267296 394.065590385)rotate(-30.0)scale(0.12 -0.12)">
       <use xlink:href="#BitstreamVeraSans-Roman-4f"/>
       <use x="78.7109375" xlink:href="#BitstreamVeraSans-Roman-63"/>
       <use x="133.69140625" xlink:href="#BitstreamVeraSans-Roman-74"/>
       <use x="172.900390625" xlink:href="#BitstreamVeraSans-Roman-20"/>
       <use x="204.6875" xlink:href="#BitstreamVeraSans-Roman-32"/>
       <use x="268.310546875" xlink:href="#BitstreamVeraSans-Roman-38"/>
       <use x="331.93359375" xlink:href="#BitstreamVeraSans-Roman-20"/>
       <use x="363.720703125" xlink:href="#BitstreamVeraSans-Roman-32"/>
       <use x="427.34375" xlink:href="#BitstreamVeraSans-Roman-30"/>
       <use x="490.966796875" xlink:href="#BitstreamVeraSans-Roman-31"/>
       <use x="554.58984375" xlink:href="#BitstreamVeraSans-Roman-35"/>
      </g>
     </g>
    </g>
    <g id="xtick_7">
     <g id="line2d_15">
      <g>
       <use style="stroke:#000000;stroke-width:0.5;" x="448.721571183" xlink:href="#m93b0483c22" y="345.6"/>
      </g>
     </g>
     <g id="line2d_16">
      <g>
       <use style="stroke:#000000;stroke-width:0.5;" x="448.721571183" xlink:href="#m741efc42ff" y="43.2"/>
      </g>
     </g>
     <g id="text_7">
      <!-- Oct 31 2015 -->
      <g transform="translate(384.134284448 394.065590385)rotate(-30.0)scale(0.12 -0.12)">
       <use xlink:href="#BitstreamVeraSans-Roman-4f"/>
       <use x="78.7109375" xlink:href="#BitstreamVeraSans-Roman-63"/>
       <use x="133.69140625" xlink:href="#BitstreamVeraSans-Roman-74"/>
       <use x="172.900390625" xlink:href="#BitstreamVeraSans-Roman-20"/>
       <use x="204.6875" xlink:href="#BitstreamVeraSans-Roman-33"/>
       <use x="268.310546875" xlink:href="#BitstreamVeraSans-Roman-31"/>
       <use x="331.93359375" xlink:href="#BitstreamVeraSans-Roman-20"/>
       <use x="363.720703125" xlink:href="#BitstreamVeraSans-Roman-32"/>
       <use x="427.34375" xlink:href="#BitstreamVeraSans-Roman-30"/>
       <use x="490.966796875" xlink:href="#BitstreamVeraSans-Roman-31"/>
       <use x="554.58984375" xlink:href="#BitstreamVeraSans-Roman-35"/>
      </g>
     </g>
    </g>
    <g id="xtick_8">
     <g id="line2d_17">
      <g>
       <use style="stroke:#000000;stroke-width:0.5;" x="503.851588335" xlink:href="#m93b0483c22" y="345.6"/>
      </g>
     </g>
     <g id="line2d_18">
      <g>
       <use style="stroke:#000000;stroke-width:0.5;" x="503.851588335" xlink:href="#m741efc42ff" y="43.2"/>
      </g>
     </g>
     <g id="text_8">
      <!-- Nov 03 2015 -->
      <defs>
       <path d="
M2.98438 54.6875
L12.5 54.6875
L29.5938 8.79688
L46.6875 54.6875
L56.2031 54.6875
L35.6875 0
L23.4844 0
z
" id="BitstreamVeraSans-Roman-76"/>
       <path d="
M9.8125 72.9062
L23.0938 72.9062
L55.4219 11.9219
L55.4219 72.9062
L64.9844 72.9062
L64.9844 0
L51.7031 0
L19.3906 60.9844
L19.3906 0
L9.8125 0
z
" id="BitstreamVeraSans-Roman-4e"/>
       <path d="
M30.6094 48.3906
Q23.3906 48.3906 19.1875 42.75
Q14.9844 37.1094 14.9844 27.2969
Q14.9844 17.4844 19.1562 11.8438
Q23.3438 6.20312 30.6094 6.20312
Q37.7969 6.20312 41.9844 11.8594
Q46.1875 17.5312 46.1875 27.2969
Q46.1875 37.0156 41.9844 42.7031
Q37.7969 48.3906 30.6094 48.3906
M30.6094 56
Q42.3281 56 49.0156 48.375
Q55.7188 40.7656 55.7188 27.2969
Q55.7188 13.875 49.0156 6.21875
Q42.3281 -1.42188 30.6094 -1.42188
Q18.8438 -1.42188 12.1719 6.21875
Q5.51562 13.875 5.51562 27.2969
Q5.51562 40.7656 12.1719 48.375
Q18.8438 56 30.6094 56" id="BitstreamVeraSans-Roman-6f"/>
      </defs>
      <g transform="translate(436.948766176 395.402465385)rotate(-30.0)scale(0.12 -0.12)">
       <use xlink:href="#BitstreamVeraSans-Roman-4e"/>
       <use x="74.8046875" xlink:href="#BitstreamVeraSans-Roman-6f"/>
       <use x="135.986328125" xlink:href="#BitstreamVeraSans-Roman-76"/>
       <use x="195.166015625" xlink:href="#BitstreamVeraSans-Roman-20"/>
       <use x="226.953125" xlink:href="#BitstreamVeraSans-Roman-30"/>
       <use x="290.576171875" xlink:href="#BitstreamVeraSans-Roman-33"/>
       <use x="354.19921875" xlink:href="#BitstreamVeraSans-Roman-20"/>
       <use x="385.986328125" xlink:href="#BitstreamVeraSans-Roman-32"/>
       <use x="449.609375" xlink:href="#BitstreamVeraSans-Roman-30"/>
       <use x="513.232421875" xlink:href="#BitstreamVeraSans-Roman-31"/>
       <use x="576.85546875" xlink:href="#BitstreamVeraSans-Roman-35"/>
      </g>
     </g>
    </g>
   </g>
   <g id="matplotlib.axis_2">
    <g id="ytick_1">
     <g id="line2d_19">
      <defs>
       <path d="
M0 0
L4 0" id="m728421d6d4" style="stroke:#000000;stroke-width:0.5;"/>
      </defs>
      <g>
       <use style="stroke:#000000;stroke-width:0.5;" x="72.0" xlink:href="#m728421d6d4" y="332.965470537"/>
      </g>
     </g>
     <g id="line2d_20">
      <defs>
       <path d="
M0 0
L-4 0" id="mcb0005524f" style="stroke:#000000;stroke-width:0.5;"/>
      </defs>
      <g>
       <use style="stroke:#000000;stroke-width:0.5;" x="518.4" xlink:href="#mcb0005524f" y="332.965470537"/>
      </g>
     </g>
     <g id="text_9">
      <!-- 4000 -->
      <defs>
       <path d="
M37.7969 64.3125
L12.8906 25.3906
L37.7969 25.3906
z

M35.2031 72.9062
L47.6094 72.9062
L47.6094 25.3906
L58.0156 25.3906
L58.0156 17.1875
L47.6094 17.1875
L47.6094 0
L37.7969 0
L37.7969 17.1875
L4.89062 17.1875
L4.89062 26.7031
z
" id="BitstreamVeraSans-Roman-34"/>
      </defs>
      <g transform="translate(38.84375 336.276720537)scale(0.12 -0.12)">
       <use xlink:href="#BitstreamVeraSans-Roman-34"/>
       <use x="63.623046875" xlink:href="#BitstreamVeraSans-Roman-30"/>
       <use x="127.24609375" xlink:href="#BitstreamVeraSans-Roman-30"/>
       <use x="190.869140625" xlink:href="#BitstreamVeraSans-Roman-30"/>
      </g>
     </g>
    </g>
    <g id="ytick_2">
     <g id="line2d_21">
      <g>
       <use style="stroke:#000000;stroke-width:0.5;" x="72.0" xlink:href="#m728421d6d4" y="289.577663314"/>
      </g>
     </g>
     <g id="line2d_22">
      <g>
       <use style="stroke:#000000;stroke-width:0.5;" x="518.4" xlink:href="#mcb0005524f" y="289.577663314"/>
      </g>
     </g>
     <g id="text_10">
      <!-- 5000 -->
      <g transform="translate(39.183125 292.888913314)scale(0.12 -0.12)">
       <use xlink:href="#BitstreamVeraSans-Roman-35"/>
       <use x="63.623046875" xlink:href="#BitstreamVeraSans-Roman-30"/>
       <use x="127.24609375" xlink:href="#BitstreamVeraSans-Roman-30"/>
       <use x="190.869140625" xlink:href="#BitstreamVeraSans-Roman-30"/>
      </g>
     </g>
    </g>
    <g id="ytick_3">
     <g id="line2d_23">
      <g>
       <use style="stroke:#000000;stroke-width:0.5;" x="72.0" xlink:href="#m728421d6d4" y="246.189856091"/>
      </g>
     </g>
     <g id="line2d_24">
      <g>
       <use style="stroke:#000000;stroke-width:0.5;" x="518.4" xlink:href="#mcb0005524f" y="246.189856091"/>
      </g>
     </g>
     <g id="text_11">
      <!-- 6000 -->
      <g transform="translate(39.095 249.501106091)scale(0.12 -0.12)">
       <use xlink:href="#BitstreamVeraSans-Roman-36"/>
       <use x="63.623046875" xlink:href="#BitstreamVeraSans-Roman-30"/>
       <use x="127.24609375" xlink:href="#BitstreamVeraSans-Roman-30"/>
       <use x="190.869140625" xlink:href="#BitstreamVeraSans-Roman-30"/>
      </g>
     </g>
    </g>
    <g id="ytick_4">
     <g id="line2d_25">
      <g>
       <use style="stroke:#000000;stroke-width:0.5;" x="72.0" xlink:href="#m728421d6d4" y="202.802048869"/>
      </g>
     </g>
     <g id="line2d_26">
      <g>
       <use style="stroke:#000000;stroke-width:0.5;" x="518.4" xlink:href="#mcb0005524f" y="202.802048869"/>
      </g>
     </g>
     <g id="text_12">
      <!-- 7000 -->
      <defs>
       <path d="
M8.20312 72.9062
L55.0781 72.9062
L55.0781 68.7031
L28.6094 0
L18.3125 0
L43.2188 64.5938
L8.20312 64.5938
z
" id="BitstreamVeraSans-Roman-37"/>
      </defs>
      <g transform="translate(39.24125 206.113298869)scale(0.12 -0.12)">
       <use xlink:href="#BitstreamVeraSans-Roman-37"/>
       <use x="63.623046875" xlink:href="#BitstreamVeraSans-Roman-30"/>
       <use x="127.24609375" xlink:href="#BitstreamVeraSans-Roman-30"/>
       <use x="190.869140625" xlink:href="#BitstreamVeraSans-Roman-30"/>
      </g>
     </g>
    </g>
    <g id="ytick_5">
     <g id="line2d_27">
      <g>
       <use style="stroke:#000000;stroke-width:0.5;" x="72.0" xlink:href="#m728421d6d4" y="159.414241646"/>
      </g>
     </g>
     <g id="line2d_28">
      <g>
       <use style="stroke:#000000;stroke-width:0.5;" x="518.4" xlink:href="#mcb0005524f" y="159.414241646"/>
      </g>
     </g>
     <g id="text_13">
      <!-- 8000 -->
      <g transform="translate(39.070625 162.725491646)scale(0.12 -0.12)">
       <use xlink:href="#BitstreamVeraSans-Roman-38"/>
       <use x="63.623046875" xlink:href="#BitstreamVeraSans-Roman-30"/>
       <use x="127.24609375" xlink:href="#BitstreamVeraSans-Roman-30"/>
       <use x="190.869140625" xlink:href="#BitstreamVeraSans-Roman-30"/>
      </g>
     </g>
    </g>
    <g id="ytick_6">
     <g id="line2d_29">
      <g>
       <use style="stroke:#000000;stroke-width:0.5;" x="72.0" xlink:href="#m728421d6d4" y="116.026434423"/>
      </g>
     </g>
     <g id="line2d_30">
      <g>
       <use style="stroke:#000000;stroke-width:0.5;" x="518.4" xlink:href="#mcb0005524f" y="116.026434423"/>
      </g>
     </g>
     <g id="text_14">
      <!-- 9000 -->
      <g transform="translate(39.0125 119.337684423)scale(0.12 -0.12)">
       <use xlink:href="#BitstreamVeraSans-Roman-39"/>
       <use x="63.623046875" xlink:href="#BitstreamVeraSans-Roman-30"/>
       <use x="127.24609375" xlink:href="#BitstreamVeraSans-Roman-30"/>
       <use x="190.869140625" xlink:href="#BitstreamVeraSans-Roman-30"/>
      </g>
     </g>
    </g>
    <g id="ytick_7">
     <g id="line2d_31">
      <g>
       <use style="stroke:#000000;stroke-width:0.5;" x="72.0" xlink:href="#m728421d6d4" y="72.6386272006"/>
      </g>
     </g>
     <g id="line2d_32">
      <g>
       <use style="stroke:#000000;stroke-width:0.5;" x="518.4" xlink:href="#mcb0005524f" y="72.6386272006"/>
      </g>
     </g>
     <g id="text_15">
      <!-- 10000 -->
      <g transform="translate(31.94 75.9498772006)scale(0.12 -0.12)">
       <use xlink:href="#BitstreamVeraSans-Roman-31"/>
       <use x="63.623046875" xlink:href="#BitstreamVeraSans-Roman-30"/>
       <use x="127.24609375" xlink:href="#BitstreamVeraSans-Roman-30"/>
       <use x="190.869140625" xlink:href="#BitstreamVeraSans-Roman-30"/>
       <use x="254.4921875" xlink:href="#BitstreamVeraSans-Roman-30"/>
      </g>
     </g>
    </g>
   </g>
   <g id="text_16">
    <!-- Insektizide -->
    <defs>
     <path d="
M54.8906 33.0156
L54.8906 0
L45.9062 0
L45.9062 32.7188
Q45.9062 40.4844 42.875 44.3281
Q39.8438 48.1875 33.7969 48.1875
Q26.5156 48.1875 22.3125 43.5469
Q18.1094 38.9219 18.1094 30.9062
L18.1094 0
L9.07812 0
L9.07812 54.6875
L18.1094 54.6875
L18.1094 46.1875
Q21.3438 51.125 25.7031 53.5625
Q30.0781 56 35.7969 56
Q45.2188 56 50.0469 50.1719
Q54.8906 44.3438 54.8906 33.0156" id="BitstreamVeraSans-Roman-6e"/>
     <path d="
M9.07812 75.9844
L18.1094 75.9844
L18.1094 31.1094
L44.9219 54.6875
L56.3906 54.6875
L27.3906 29.1094
L57.625 0
L45.9062 0
L18.1094 26.7031
L18.1094 0
L9.07812 0
z
" id="BitstreamVeraSans-Roman-6b"/>
     <path d="
M9.42188 54.6875
L18.4062 54.6875
L18.4062 0
L9.42188 0
z

M9.42188 75.9844
L18.4062 75.9844
L18.4062 64.5938
L9.42188 64.5938
z
" id="BitstreamVeraSans-Roman-69"/>
     <path d="
M56.2031 29.5938
L56.2031 25.2031
L14.8906 25.2031
Q15.4844 15.9219 20.4844 11.0625
Q25.4844 6.20312 34.4219 6.20312
Q39.5938 6.20312 44.4531 7.46875
Q49.3125 8.73438 54.1094 11.2812
L54.1094 2.78125
Q49.2656 0.734375 44.1875 -0.34375
Q39.1094 -1.42188 33.8906 -1.42188
Q20.7969 -1.42188 13.1562 6.1875
Q5.51562 13.8125 5.51562 26.8125
Q5.51562 40.2344 12.7656 48.1094
Q20.0156 56 32.3281 56
Q43.3594 56 49.7812 48.8906
Q56.2031 41.7969 56.2031 29.5938
M47.2188 32.2344
Q47.125 39.5938 43.0938 43.9844
Q39.0625 48.3906 32.4219 48.3906
Q24.9062 48.3906 20.3906 44.1406
Q15.875 39.8906 15.1875 32.1719
z
" id="BitstreamVeraSans-Roman-65"/>
     <path d="
M45.4062 46.3906
L45.4062 75.9844
L54.3906 75.9844
L54.3906 0
L45.4062 0
L45.4062 8.20312
Q42.5781 3.32812 38.25 0.953125
Q33.9375 -1.42188 27.875 -1.42188
Q17.9688 -1.42188 11.7344 6.48438
Q5.51562 14.4062 5.51562 27.2969
Q5.51562 40.1875 11.7344 48.0938
Q17.9688 56 27.875 56
Q33.9375 56 38.25 53.625
Q42.5781 51.2656 45.4062 46.3906
M14.7969 27.2969
Q14.7969 17.3906 18.875 11.75
Q22.9531 6.10938 30.0781 6.10938
Q37.2031 6.10938 41.2969 11.75
Q45.4062 17.3906 45.4062 27.2969
Q45.4062 37.2031 41.2969 42.8438
Q37.2031 48.4844 30.0781 48.4844
Q22.9531 48.4844 18.875 42.8438
Q14.7969 37.2031 14.7969 27.2969" id="BitstreamVeraSans-Roman-64"/>
     <path d="
M5.51562 54.6875
L48.1875 54.6875
L48.1875 46.4844
L14.4062 7.17188
L48.1875 7.17188
L48.1875 0
L4.29688 0
L4.29688 8.20312
L38.0938 47.5156
L5.51562 47.5156
z
" id="BitstreamVeraSans-Roman-7a"/>
     <path d="
M44.2812 53.0781
L44.2812 44.5781
Q40.4844 46.5312 36.375 47.5
Q32.2812 48.4844 27.875 48.4844
Q21.1875 48.4844 17.8438 46.4375
Q14.5 44.3906 14.5 40.2812
Q14.5 37.1562 16.8906 35.375
Q19.2812 33.5938 26.5156 31.9844
L29.5938 31.2969
Q39.1562 29.25 43.1875 25.5156
Q47.2188 21.7812 47.2188 15.0938
Q47.2188 7.46875 41.1875 3.01562
Q35.1562 -1.42188 24.6094 -1.42188
Q20.2188 -1.42188 15.4531 -0.5625
Q10.6875 0.296875 5.42188 2
L5.42188 11.2812
Q10.4062 8.6875 15.2344 7.39062
Q20.0625 6.10938 24.8125 6.10938
Q31.1562 6.10938 34.5625 8.28125
Q37.9844 10.4531 37.9844 14.4062
Q37.9844 18.0625 35.5156 20.0156
Q33.0625 21.9688 24.7031 23.7812
L21.5781 24.5156
Q13.2344 26.2656 9.51562 29.9062
Q5.8125 33.5469 5.8125 39.8906
Q5.8125 47.6094 11.2812 51.7969
Q16.75 56 26.8125 56
Q31.7812 56 36.1719 55.2656
Q40.5781 54.5469 44.2812 53.0781" id="BitstreamVeraSans-Roman-73"/>
     <path d="
M9.8125 72.9062
L19.6719 72.9062
L19.6719 0
L9.8125 0
z
" id="BitstreamVeraSans-Roman-49"/>
    </defs>
    <g transform="translate(443.2995 38.2)scale(0.144 -0.144)">
     <use xlink:href="#BitstreamVeraSans-Roman-49"/>
     <use x="29.4921875" xlink:href="#BitstreamVeraSans-Roman-6e"/>
     <use x="92.87109375" xlink:href="#BitstreamVeraSans-Roman-73"/>
     <use x="144.970703125" xlink:href="#BitstreamVeraSans-Roman-65"/>
     <use x="206.494140625" xlink:href="#BitstreamVeraSans-Roman-6b"/>
     <use x="264.404296875" xlink:href="#BitstreamVeraSans-Roman-74"/>
     <use x="303.61328125" xlink:href="#BitstreamVeraSans-Roman-69"/>
     <use x="331.396484375" xlink:href="#BitstreamVeraSans-Roman-7a"/>
     <use x="383.88671875" xlink:href="#BitstreamVeraSans-Roman-69"/>
     <use x="411.669921875" xlink:href="#BitstreamVeraSans-Roman-64"/>
     <use x="475.146484375" xlink:href="#BitstreamVeraSans-Roman-65"/>
    </g>
   </g>
   <g id="legend_1">
    <g id="patch_7">
     <path d="
M123.942 423.616
L466.458 423.616
L466.458 398.16
L123.942 398.16
z
" style="fill:#ffffff;stroke:#000000;stroke-linejoin:miter;"/>
    </g>
    <g id="line2d_33">
     <path d="
M134.022 409.822
L154.182 409.822" style="fill:none;stroke:#ff0000;stroke-linecap:square;"/>
    </g>
    <g id="line2d_34"/>
    <g id="text_17">
     <!-- Schwarzmarktpreis -->
     <defs>
      <path d="
M34.2812 27.4844
Q23.3906 27.4844 19.1875 25
Q14.9844 22.5156 14.9844 16.5
Q14.9844 11.7188 18.1406 8.90625
Q21.2969 6.10938 26.7031 6.10938
Q34.1875 6.10938 38.7031 11.4062
Q43.2188 16.7031 43.2188 25.4844
L43.2188 27.4844
z

M52.2031 31.2031
L52.2031 0
L43.2188 0
L43.2188 8.29688
Q40.1406 3.32812 35.5469 0.953125
Q30.9531 -1.42188 24.3125 -1.42188
Q15.9219 -1.42188 10.9531 3.29688
Q6 8.01562 6 15.9219
Q6 25.1406 12.1719 29.8281
Q18.3594 34.5156 30.6094 34.5156
L43.2188 34.5156
L43.2188 35.4062
Q43.2188 41.6094 39.1406 45
Q35.0625 48.3906 27.6875 48.3906
Q23 48.3906 18.5469 47.2656
Q14.1094 46.1406 10.0156 43.8906
L10.0156 52.2031
Q14.9375 54.1094 19.5781 55.0469
Q24.2188 56 28.6094 56
Q40.4844 56 46.3438 49.8438
Q52.2031 43.7031 52.2031 31.2031" id="BitstreamVeraSans-Roman-61"/>
      <path d="
M53.5156 70.5156
L53.5156 60.8906
Q47.9062 63.5781 42.9219 64.8906
Q37.9375 66.2188 33.2969 66.2188
Q25.25 66.2188 20.875 63.0938
Q16.5 59.9688 16.5 54.2031
Q16.5 49.3594 19.4062 46.8906
Q22.3125 44.4375 30.4219 42.9219
L36.375 41.7031
Q47.4062 39.5938 52.6562 34.2969
Q57.9062 29 57.9062 20.125
Q57.9062 9.51562 50.7969 4.04688
Q43.7031 -1.42188 29.9844 -1.42188
Q24.8125 -1.42188 18.9688 -0.25
Q13.1406 0.921875 6.89062 3.21875
L6.89062 13.375
Q12.8906 10.0156 18.6562 8.29688
Q24.4219 6.59375 29.9844 6.59375
Q38.4219 6.59375 43.0156 9.90625
Q47.6094 13.2344 47.6094 19.3906
Q47.6094 24.75 44.3125 27.7812
Q41.0156 30.8125 33.5 32.3281
L27.4844 33.5
Q16.4531 35.6875 11.5156 40.375
Q6.59375 45.0625 6.59375 53.4219
Q6.59375 63.0938 13.4062 68.6562
Q20.2188 74.2188 32.1719 74.2188
Q37.3125 74.2188 42.625 73.2812
Q47.9531 72.3594 53.5156 70.5156" id="BitstreamVeraSans-Roman-53"/>
      <path d="
M54.8906 33.0156
L54.8906 0
L45.9062 0
L45.9062 32.7188
Q45.9062 40.4844 42.875 44.3281
Q39.8438 48.1875 33.7969 48.1875
Q26.5156 48.1875 22.3125 43.5469
Q18.1094 38.9219 18.1094 30.9062
L18.1094 0
L9.07812 0
L9.07812 75.9844
L18.1094 75.9844
L18.1094 46.1875
Q21.3438 51.125 25.7031 53.5625
Q30.0781 56 35.7969 56
Q45.2188 56 50.0469 50.1719
Q54.8906 44.3438 54.8906 33.0156" id="BitstreamVeraSans-Roman-68"/>
      <path d="
M52 44.1875
Q55.375 50.25 60.0625 53.125
Q64.75 56 71.0938 56
Q79.6406 56 84.2812 50.0156
Q88.9219 44.0469 88.9219 33.0156
L88.9219 0
L79.8906 0
L79.8906 32.7188
Q79.8906 40.5781 77.0938 44.375
Q74.3125 48.1875 68.6094 48.1875
Q61.625 48.1875 57.5625 43.5469
Q53.5156 38.9219 53.5156 30.9062
L53.5156 0
L44.4844 0
L44.4844 32.7188
Q44.4844 40.625 41.7031 44.4062
Q38.9219 48.1875 33.1094 48.1875
Q26.2188 48.1875 22.1562 43.5312
Q18.1094 38.875 18.1094 30.9062
L18.1094 0
L9.07812 0
L9.07812 54.6875
L18.1094 54.6875
L18.1094 46.1875
Q21.1875 51.2188 25.4844 53.6094
Q29.7812 56 35.6875 56
Q41.6562 56 45.8281 52.9688
Q50 49.9531 52 44.1875" id="BitstreamVeraSans-Roman-6d"/>
      <path d="
M4.20312 54.6875
L13.1875 54.6875
L24.4219 12.0156
L35.5938 54.6875
L46.1875 54.6875
L57.4219 12.0156
L68.6094 54.6875
L77.5938 54.6875
L63.2812 0
L52.6875 0
L40.9219 44.8281
L29.1094 0
L18.5 0
z
" id="BitstreamVeraSans-Roman-77"/>
      <path d="
M41.1094 46.2969
Q39.5938 47.1719 37.8125 47.5781
Q36.0312 48 33.8906 48
Q26.2656 48 22.1875 43.0469
Q18.1094 38.0938 18.1094 28.8125
L18.1094 0
L9.07812 0
L9.07812 54.6875
L18.1094 54.6875
L18.1094 46.1875
Q20.9531 51.1719 25.4844 53.5781
Q30.0312 56 36.5312 56
Q37.4531 56 38.5781 55.875
Q39.7031 55.7656 41.0625 55.5156
z
" id="BitstreamVeraSans-Roman-72"/>
      <path d="
M18.1094 8.20312
L18.1094 -20.7969
L9.07812 -20.7969
L9.07812 54.6875
L18.1094 54.6875
L18.1094 46.3906
Q20.9531 51.2656 25.2656 53.625
Q29.5938 56 35.5938 56
Q45.5625 56 51.7812 48.0938
Q58.0156 40.1875 58.0156 27.2969
Q58.0156 14.4062 51.7812 6.48438
Q45.5625 -1.42188 35.5938 -1.42188
Q29.5938 -1.42188 25.2656 0.953125
Q20.9531 3.32812 18.1094 8.20312
M48.6875 27.2969
Q48.6875 37.2031 44.6094 42.8438
Q40.5312 48.4844 33.4062 48.4844
Q26.2656 48.4844 22.1875 42.8438
Q18.1094 37.2031 18.1094 27.2969
Q18.1094 17.3906 22.1875 11.75
Q26.2656 6.10938 33.4062 6.10938
Q40.5312 6.10938 44.6094 11.75
Q48.6875 17.3906 48.6875 27.2969" id="BitstreamVeraSans-Roman-70"/>
     </defs>
     <g transform="translate(170.022375 414.86175)scale(0.144 -0.144)">
      <use xlink:href="#BitstreamVeraSans-Roman-53"/>
      <use x="63.4765625" xlink:href="#BitstreamVeraSans-Roman-63"/>
      <use x="118.45703125" xlink:href="#BitstreamVeraSans-Roman-68"/>
      <use x="181.8359375" xlink:href="#BitstreamVeraSans-Roman-77"/>
      <use x="263.623046875" xlink:href="#BitstreamVeraSans-Roman-61"/>
      <use x="324.90234375" xlink:href="#BitstreamVeraSans-Roman-72"/>
      <use x="366.015625" xlink:href="#BitstreamVeraSans-Roman-7a"/>
      <use x="418.505859375" xlink:href="#BitstreamVeraSans-Roman-6d"/>
      <use x="515.91796875" xlink:href="#BitstreamVeraSans-Roman-61"/>
      <use x="577.197265625" xlink:href="#BitstreamVeraSans-Roman-72"/>
      <use x="618.310546875" xlink:href="#BitstreamVeraSans-Roman-6b"/>
      <use x="676.220703125" xlink:href="#BitstreamVeraSans-Roman-74"/>
      <use x="715.4296875" xlink:href="#BitstreamVeraSans-Roman-70"/>
      <use x="778.90625" xlink:href="#BitstreamVeraSans-Roman-72"/>
      <use x="817.76953125" xlink:href="#BitstreamVeraSans-Roman-65"/>
      <use x="879.29296875" xlink:href="#BitstreamVeraSans-Roman-69"/>
      <use x="907.076171875" xlink:href="#BitstreamVeraSans-Roman-73"/>
     </g>
    </g>
    <g id="line2d_35">
     <path d="
M339.609 409.822
L359.769 409.822" style="fill:none;stroke:#008000;stroke-linecap:square;"/>
    </g>
    <g id="line2d_36"/>
    <g id="text_18">
     <!-- Normalpreis -->
     <defs>
      <path d="
M9.42188 75.9844
L18.4062 75.9844
L18.4062 0
L9.42188 0
z
" id="BitstreamVeraSans-Roman-6c"/>
     </defs>
     <g transform="translate(375.609375 414.86175)scale(0.144 -0.144)">
      <use xlink:href="#BitstreamVeraSans-Roman-4e"/>
      <use x="74.8046875" xlink:href="#BitstreamVeraSans-Roman-6f"/>
      <use x="135.986328125" xlink:href="#BitstreamVeraSans-Roman-72"/>
      <use x="175.349609375" xlink:href="#BitstreamVeraSans-Roman-6d"/>
      <use x="272.76171875" xlink:href="#BitstreamVeraSans-Roman-61"/>
      <use x="334.041015625" xlink:href="#BitstreamVeraSans-Roman-6c"/>
      <use x="361.82421875" xlink:href="#BitstreamVeraSans-Roman-70"/>
      <use x="425.30078125" xlink:href="#BitstreamVeraSans-Roman-72"/>
      <use x="464.1640625" xlink:href="#BitstreamVeraSans-Roman-65"/>
      <use x="525.6875" xlink:href="#BitstreamVeraSans-Roman-69"/>
      <use x="553.470703125" xlink:href="#BitstreamVeraSans-Roman-73"/>
     </g>
    </g>
   </g>
  </g>
 </g>
 <defs>
  <clipPath id="pcb2bf987bf">
   <rect height="302.4" width="446.4" x="72.0" y="43.2"/>
  </clipPath>
 </defs>
</svg>
