<?xml version="1.0" encoding="utf-8" standalone="no"?>
<!DOCTYPE svg PUBLIC "-//W3C//DTD SVG 1.1//EN"
  "http://www.w3.org/Graphics/SVG/1.1/DTD/svg11.dtd">
<!-- Created with matplotlib (http://matplotlib.org/) -->
<svg height="432pt" version="1.1" viewBox="0 0 576 432" width="576pt" xmlns="http://www.w3.org/2000/svg" xmlns:xlink="http://www.w3.org/1999/xlink">
 <defs>
  <style type="text/css">
*{stroke-linecap:butt;stroke-linejoin:round;}
  </style>
 </defs>
 <g id="figure_1">
  <g id="patch_1">
   <path d="
M0 432
L576 432
L576 0
L0 0
z
" style="fill:#ffffff;"/>
  </g>
  <g id="axes_1">
   <g id="patch_2">
    <path d="
M72 345.6
L518.4 345.6
L518.4 43.2
L72 43.2
z
" style="fill:#ffffff;"/>
   </g>
   <g id="line2d_1">
    <path clip-path="url(#pcb2bf987bf)" d="
M72 360.952
L72.1276 316.769
L72.3828 282.271
L72.5105 283.178
L72.7657 322.216
L72.8933 308.901
L73.1485 316.769
L73.5314 313.138
L73.659 309.204
L73.9142 315.256
L74.0419 315.256
L74.2971 313.44
L74.4247 314.954
L74.6799 322.701
L74.8075 321.309
L75.0628 322.216
L75.1904 321.611
L75.4456 322.761
L75.5732 317.98
L75.8285 318.525
L75.9561 317.677
L76.2113 318.585
L76.3389 317.072
L76.5942 317.072
L76.7218 311.625
L76.9772 319.19
L77.3599 322.519
L77.7429 315.498
L77.8703 315.498
L78.2532 312.23
L78.5084 311.322
L78.636 314.954
L78.8915 314.954
L79.0189 312.23
L79.2741 312.835
L79.4017 312.23
L79.6569 320.401
L79.7846 314.046
L80.1674 323.73
L80.4226 319.796
L80.5503 315.559
L80.8055 313.44
L81.1885 323.124
L81.316 321.914
L81.6988 315.256
L81.9542 324.335
L82.3371 321.914
L82.4645 298.915
L82.7197 320.401
L82.8473 320.401
L83.1026 319.432
L83.2302 320.401
L83.4854 318.282
L83.613 320.703
L83.8683 312.533
L83.9959 321.006
L84.3787 319.796
L84.6342 321.611
L85.1444 320.703
L85.3999 314.046
L85.5273 314.651
L85.9101 321.611
L86.1654 318.585
L86.293 321.611
L86.5482 321.611
L86.6758 324.335
L86.931 324.456
L87.0587 323.73
L87.3139 323.124
L87.4415 321.611
L87.6967 312.533
L87.8244 320.703
L88.2072 316.467
L88.5901 320.34
L88.8453 318.282
L88.8453 318.282
L88.9729 319.493
L89.2281 320.703
L89.3557 320.703
L89.7386 316.164
L89.9938 299.52
L89.9938 299.52
L90.2491 294.073
L90.3767 266.232
L91.0148 324.456
L91.7804 321.611
L91.9081 318.585
L92.5461 322.216
L92.6738 321.914
L93.3118 321.611
L94.0775 299.823
L94.2051 309.809
L94.8432 309.446
L94.9708 310.112
L95.7365 323.427
L96.3746 321.49
L97.1403 319.796
L97.906 324.637
L98.0336 324.274
L98.6717 323.972
L99.4374 304.362
L100.203 304.967
L100.331 311.625
L100.969 315.498
L101.734 324.335
L101.862 324.032
L102.5 323.972
L103.266 324.637
L103.393 323.124
L104.797 317.98
L105.563 323.427
L106.329 322.216
L107.095 314.046
L107.988 324.032
L108.626 321.611
L109.391 316.709
L109.519 317.677
L110.157 313.743
L110.285 317.98
L111.05 324.335
L111.689 360.952
L111.816 360.952
L113.986 316.769
L114.879 320.098
L116.283 321.611
L116.41 319.19
L117.048 320.703
L117.814 318.585
L117.942 318.888
L118.707 324.335
L119.345 320.703
L120.111 321.006
L120.877 318.585
L121.643 306.48
L122.408 324.88
L122.536 321.611
L123.174 360.952
L124.067 321.006
L124.705 299.823
L125.471 316.769
L126.109 307.993
L126.237 313.44
L126.237 313.44
L126.365 313.44
L127.002 317.375
L127.13 319.493
L127.13 319.493
L127.64 319.13
L127.64 319.13
L127.768 317.677
L128.534 317.98
L128.661 318.888
L129.299 314.288
L130.065 320.703
L130.193 319.674
L130.831 300.428
L131.597 304.664
L132.362 319.432
L132.362 319.432
L133.894 309.809
L134.149 299.823
L134.659 309.809
L135.425 318.888
L136.191 317.496
L136.318 317.677
L136.956 311.927
L137.722 317.072
L138.488 311.625
L139.254 314.954
L139.381 313.44
L140.019 315.559
L140.785 311.322
L141.678 318.827
L142.316 318.282
L143.082 322.216
L143.848 317.98
L143.975 318.888
L144.613 320.401
L145.507 316.164
L146.145 299.217
L146.272 319.19
L146.91 319.19
L147.038 319.493
L147.676 318.585
L148.442 317.072
L149.208 319.796
L149.335 321.006
L149.973 317.677
L150.739 311.02
L150.867 306.783
L151.505 318.282
L152.27 316.769
L153.036 308.599
L153.164 308.901
L153.802 306.178
L154.567 316.769
L155.333 315.861
L155.333 315.861
L156.099 318.585
L156.865 317.98
L157.63 315.256
L157.758 310.535
L158.396 323.124
L159.162 321.914
L159.927 318.585
L160.693 311.625
L160.821 319.493
L162.224 321.914
L162.99 316.769
L163.118 316.769
L163.756 321.309
L163.883 319.19
L164.521 321.914
L164.649 321.006
L165.287 323.427
L166.053 311.625
L166.819 314.046
L167.584 314.046
L167.712 313.743
L168.35 313.743
L169.116 306.48
L169.243 307.993
L169.881 298.915
L170.647 311.927
L170.775 318.585
L171.413 323.427
L172.178 316.467
L172.944 317.98
L173.072 317.677
L174.475 321.611
L174.603 321.006
L176.007 300.428
L176.773 323.73
L176.9 323.73
L177.538 324.637
L178.304 311.625
L179.07 318.282
L179.963 299.52
L180.601 300.73
L180.729 300.488
L181.367 306.178
L182.26 303.454
L182.898 297.402
L183.664 320.945
L183.791 321.188
L184.43 320.098
L185.195 319.493
L185.961 302.849
L186.727 305.27
L187.492 292.56
L188.258 317.677
L189.024 304.362
L189.151 318.585
L190.555 312.23
L191.321 320.703
L191.321 320.703
L192.852 319.19
L193.618 323.73
L194.384 323.911
L195.915 318.282
L196.681 317.677
L198.212 316.769
L198.212 316.769
L198.978 311.927
L200.509 300.125
L201.275 308.599
L202.04 300.428
L202.806 301.336
L203.572 292.196
L203.699 304.362
L204.338 298.915
L205.103 285.599
L205.231 286.205
L205.997 305.27
L206.124 303.151
L206.507 300.125
L206.635 304.664
L206.635 304.664
L206.762 301.941
L207.4 311.02
L207.911 306.48
L208.166 307.085
L208.804 286.81
L209.059 300.125
L209.059 300.125
L209.442 306.178
L209.57 305.572
L209.825 306.178
L210.591 304.362
L210.846 300.428
L211.356 300.125
L211.739 306.42
L211.867 305.27
L212.122 306.42
L212.25 299.217
L212.505 307.691
L212.633 307.388
L212.888 307.993
L213.398 310.959
L213.781 311.02
L214.036 310.414
L214.164 308.296
L214.419 314.288
L214.547 314.046
L214.802 258.061
L214.93 313.44
L215.185 314.954
L215.185 314.954
L215.313 317.98
L215.695 313.743
L215.951 314.046
L215.951 314.046
L216.078 318.585
L216.333 308.296
L216.589 320.401
L216.589 320.401
L216.844 320.703
L217.227 308.901
L217.482 302.546
L217.482 302.546
L217.61 318.888
L218.248 310.717
L218.248 310.717
L218.375 312.533
L218.631 312.23
L218.758 309.809
L219.013 308.901
L219.141 312.533
L219.396 308.599
L219.779 312.472
L219.907 310.112
L220.162 311.322
L220.417 307.388
L220.545 300.125
L220.672 304.664
L220.672 304.664
L220.928 305.512
L221.055 308.296
L221.438 303.151
L221.693 302.546
L222.076 300.428
L222.204 303.757
L222.459 300.125
L222.587 305.27
L222.842 304.362
L222.842 304.362
L223.225 305.27
L223.608 299.52
L223.735 303.757
L223.99 300.125
L224.118 294.375
L224.373 304.362
L224.501 240.811
L224.756 300.125
L224.884 299.823
L225.267 307.388
L225.522 305.875
L225.649 288.02
L225.649 288.02
L225.777 286.81
L225.777 286.81
L226.032 301.941
L226.032 301.941
L226.288 293.77
L226.415 294.375
L226.415 294.375
L226.67 287.718
L227.053 301.638
L227.181 299.823
L227.436 301.336
L227.436 301.336
L227.819 284.389
L227.946 300.428
L228.202 304.362
L228.329 303.454
L228.585 310.112
L228.712 300.367
L228.967 298.309
L229.095 300.367
L229.35 307.993
L229.478 304.967
L229.733 304.664
L229.861 303.454
L230.116 307.691
L230.244 307.933
L230.499 310.112
L230.499 310.112
L230.882 311.927
L231.392 304.967
L231.647 305.572
L231.775 312.533
L232.03 310.717
L232.158 306.48
L232.413 288.323
L232.541 309.204
L232.796 310.112
L232.796 310.112
L232.924 306.178
L233.179 313.138
L233.306 312.472
L233.562 312.533
L233.689 311.927
L233.944 302.546
L234.072 311.02
L234.455 306.178
L234.71 305.875
L234.838 305.27
L235.093 300.125
L235.093 300.125
L235.221 305.572
L235.603 311.322
L235.859 310.414
L235.859 310.414
L235.986 311.625
L236.242 284.389
L236.369 304.967
L236.752 303.454
L237.007 303.757
L237.39 300.125
L237.518 302.546
L237.901 297.704
L238.283 303.757
L238.539 303.151
L238.666 302.546
L238.921 309.809
L239.049 307.085
L239.304 309.083
L239.432 309.204
L239.687 307.388
L239.815 179.379
L240.07 306.48
L240.198 308.901
L240.453 303.757
L240.453 303.757
L240.836 286.507
L240.963 285.297
L241.219 295.888
L241.346 308.901
L241.601 309.204
L241.729 310.414
L241.984 309.506
L242.112 300.488
L242.367 308.901
L242.75 303.151
L242.878 308.296
L243.133 305.27
L243.26 299.217
L243.643 307.328
L243.898 306.178
L244.026 302.244
L244.281 301.941
L244.409 300.125
L244.664 302.849
L244.792 306.178
L245.047 303.454
L245.047 303.454
L245.175 299.52
L245.43 303.454
L245.557 267.442
L245.813 311.625
L245.94 300.428
L246.323 304.664
L246.578 300.428
L246.578 300.428
L246.706 304.907
L247.089 304.967
L247.344 306.117
L247.855 284.994
L248.237 313.743
L248.493 315.559
L248.62 318.585
L248.876 317.375
L248.876 317.375
L249.003 306.48
L249.258 306.48
L249.641 316.467
L249.641 316.467
L249.769 316.164
L250.152 313.138
L250.407 312.533
L250.534 311.322
L250.79 310.717
L250.917 309.506
L251.173 311.927
L251.3 317.677
L251.555 318.585
L251.683 318.585
L251.938 306.48
L252.066 312.23
L252.321 306.48
L252.449 312.23
L252.704 317.98
L252.832 300.428
L253.087 317.98
L253.214 318.585
L253.47 306.178
L253.597 307.085
L253.852 305.572
L253.98 301.033
L254.363 307.691
L254.618 281.363
L254.746 300.125
L254.746 300.125
L255.001 317.677
L255.129 308.296
L255.129 308.296
L255.511 313.44
L255.511 313.44
L255.767 303.454
L255.767 303.454
L255.894 312.835
L256.277 312.533
L256.66 312.533
L256.66 312.533
L256.915 311.927
L257.043 312.835
L257.426 304.362
L257.681 304.967
L258.064 303.454
L258.064 303.454
L258.447 291.349
L258.574 283.784
L258.702 282.876
L258.83 282.815
L258.957 300.428
L259.212 299.217
L259.212 299.217
L259.34 307.085
L259.723 311.625
L259.978 300.73
L260.106 301.638
L260.361 304.664
L260.489 288.323
L260.744 304.967
L260.871 301.638
L261.127 305.27
L261.254 304.967
L261.509 232.641
L261.637 297.704
L261.892 294.073
L262.02 288.02
L262.275 290.925
L262.403 287.415
L262.658 304.362
L262.786 298.309
L263.041 292.862
L263.168 303.454
L263.424 302.546
L263.424 302.546
L263.551 304.301
L263.807 304.967
L263.934 305.875
L264.189 306.783
L264.189 306.783
L264.572 312.23
L264.955 305.27
L264.955 305.27
L265.083 299.52
L265.338 306.178
L265.466 305.875
L265.593 307.085
L265.848 306.783
L266.104 311.927
L266.231 311.322
L266.486 316.164
L266.614 311.02
L266.869 313.743
L266.997 309.204
L267.252 311.927
L267.38 297.402
L267.635 299.823
L267.763 299.52
L268.018 287.718
L268.145 299.823
L268.528 312.533
L268.784 315.861
L268.911 315.256
L269.166 313.44
L269.294 300.73
L269.549 300.73
L269.677 301.033
L269.932 299.52
L270.06 312.835
L270.315 311.927
L270.443 301.033
L270.698 313.077
L270.825 306.178
L271.081 303.454
L271.463 311.322
L271.846 298.007
L271.974 306.783
L272.229 305.875
L272.357 305.875
L272.612 311.927
L272.74 311.02
L272.995 312.775
L273.122 312.835
L273.378 311.322
L273.378 311.322
L273.506 300.125
L273.761 307.388
L273.888 304.967
L274.143 316.043
L274.271 315.559
L274.526 315.498
L274.654 315.256
L274.909 308.599
L274.909 308.599
L275.037 311.927
L275.292 307.388
L275.802 305.875
L276.058 304.362
L276.185 288.323
L276.441 304.664
L276.568 302.546
L276.823 301.336
L276.951 301.941
L277.206 302.244
L277.334 295.586
L277.589 307.085
L277.717 300.125
L277.972 306.178
L277.972 306.178
L278.099 304.664
L278.355 307.993
L278.482 307.085
L278.738 304.362
L278.865 299.217
L279.12 298.915
L279.248 300.488
L279.503 307.388
L279.631 316.769
L279.886 316.164
L280.269 302.244
L280.269 302.244
L280.397 315.861
L281.162 306.178
L281.417 305.27
L281.545 240.811
L281.801 300.67
L282.183 304.664
L282.311 292.862
L282.566 299.823
L282.694 298.915
L282.949 269.863
L283.077 306.178
L283.459 300.428
L284.097 311.02
L284.225 300.428
L284.48 312.533
L284.608 293.71
L284.736 312.169
L285.246 308.296
L285.374 308.901
L285.629 308.296
L285.756 308.901
L286.012 309.204
L286.139 311.322
L286.395 309.506
L286.522 305.572
L286.777 308.599
L286.905 306.783
L287.16 307.993
L287.288 307.691
L287.543 308.599
L287.671 300.428
L288.054 311.625
L288.309 310.414
L288.437 309.204
L288.692 312.835
L288.819 308.901
L289.074 305.875
L289.202 312.533
L289.457 312.835
L289.585 312.23
L289.968 311.867
L290.223 307.691
L290.606 312.472
L290.733 312.23
L290.861 312.23
L290.989 310.717
L291.116 311.322
L291.372 306.178
L291.499 311.927
L291.754 312.169
L292.265 307.691
L292.52 300.428
L292.52 300.428
L292.648 306.48
L292.903 304.967
L293.413 311.625
L293.669 315.317
L293.669 315.317
L293.796 314.893
L294.179 317.072
L294.434 306.541
L294.562 312.533
L294.817 298.612
L294.817 298.612
L294.945 298.007
L295.328 310.414
L295.583 310.414
L295.71 306.783
L295.966 310.112
L296.476 306.783
L296.731 311.02
L296.859 309.809
L297.114 311.322
L297.242 306.48
L297.497 320.34
L297.625 318.827
L297.88 318.585
L298.008 317.98
L298.39 308.599
L298.773 312.23
L299.028 299.52
L299.156 316.467
L299.411 311.02
L299.539 313.44
L299.794 309.809
L299.922 305.512
L300.305 288.626
L300.687 310.414
L300.943 314.046
L301.07 305.875
L301.326 300.428
L301.453 311.625
L301.708 314.348
L301.836 306.48
L302.091 305.875
L302.219 303.757
L302.474 305.814
L302.474 305.814
L302.985 307.388
L303.112 307.085
L303.368 307.388
L303.623 309.809
L303.75 312.835
L304.005 298.612
L304.005 298.612
L304.133 308.901
L304.388 311.927
L304.771 311.625
L304.899 312.835
L305.154 312.835
L305.282 314.651
L305.537 312.169
L305.664 307.691
L306.047 315.801
L306.303 311.927
L306.43 315.559
L306.685 315.861
L307.196 320.34
L307.579 320.34
L307.962 318.585
L308.217 315.559
L308.344 312.533
L308.6 310.112
L308.6 310.112
L308.727 307.085
L308.983 312.23
L309.11 304.664
L309.365 301.941
L309.493 303.757
L309.748 297.704
L309.876 300.125
L310.131 299.823
L310.131 299.823
L310.259 303.151
L310.642 297.704
L310.897 303.151
L311.024 310.717
L311.407 304.059
L311.662 304.362
L311.79 305.27
L312.173 297.341
L312.428 285.297
L312.556 296.131
L312.811 301.033
L312.939 300.125
L313.321 297.099
L313.577 294.981
L313.704 295.586
L313.96 295.283
L314.087 296.796
L314.342 297.402
L314.47 298.007
L314.725 300.428
L314.853 297.099
L315.236 300.73
L315.491 312.23
L315.619 303.454
L316.257 300.428
L316.384 302.788
L316.767 295.888
L317.022 302.244
L317.15 312.835
L317.405 312.23
L317.533 310.414
L317.916 294.073
L318.171 299.217
L318.298 299.217
L318.681 293.77
L318.937 292.257
L319.064 290.441
L319.319 301.336
L319.319 301.336
L319.447 299.217
L319.702 290.139
L319.83 290.441
L320.085 299.823
L320.213 308.901
L320.596 309.506
L320.851 307.691
L320.851 307.691
L321.234 309.809
L321.361 307.691
L321.616 307.691
L321.999 288.928
L322.127 292.257
L322.765 305.875
L322.893 300.428
L323.148 299.823
L323.275 299.823
L323.531 298.309
L323.914 292.257
L323.914 292.257
L324.041 292.56
L324.424 294.678
L324.679 293.165
L324.807 239.298
L325.062 292.862
L325.19 292.56
L325.445 295.283
L325.573 298.915
L325.828 298.007
L326.211 304.967
L326.338 300.125
L326.593 304.664
L326.721 300.428
L327.104 282.573
L327.359 269.258
L327.487 283.784
L327.87 301.638
L328.125 304.664
L328.252 294.073
L328.635 304.967
L329.018 298.007
L329.273 238.693
L329.401 238.693
L329.784 300.307
L330.039 303.454
L330.167 301.638
L330.422 299.823
L330.55 299.823
L330.805 298.915
L330.933 301.941
L331.188 301.336
L331.315 300.125
L331.57 288.02
L331.953 286.205
L332.081 303.454
L332.336 304.059
L332.464 304.059
L332.719 306.178
L332.847 306.178
L333.102 304.967
L333.23 301.033
L333.485 300.549
L333.612 304.543
L333.868 304.362
L333.995 305.572
L334.378 303.091
L334.761 290.139
L335.144 296.796
L335.399 297.704
L335.527 288.626
L335.782 308.599
L335.909 307.993
L336.165 300.488
L336.548 271.376
L336.675 307.993
L336.93 296.494
L337.058 308.538
L337.313 307.691
L337.441 305.27
L337.696 294.073
L337.824 303.454
L338.079 298.915
L338.207 307.085
L338.462 307.388
L338.589 306.48
L338.845 299.823
L338.972 300.73
L339.355 301.033
L339.61 301.033
L339.866 294.678
L340.121 301.638
L340.376 301.88
L340.504 302.788
L340.759 305.572
L340.886 305.572
L341.142 288.02
L341.269 288.02
L341.525 294.073
L341.652 304.967
L341.907 300.125
L342.035 282.271
L342.418 305.209
L342.673 302.849
L343.056 288.323
L343.184 299.701
L343.439 305.572
L343.566 304.967
L343.822 301.941
L343.822 301.941
L343.949 296.494
L344.204 297.099
L344.332 294.375
L344.588 294.375
L344.715 296.191
L344.97 295.586
L345.098 288.626
L345.481 283.481
L345.736 282.876
L345.863 283.481
L346.119 282.876
L346.502 277.731
L346.629 285.599
L347.012 295.586
L347.267 294.073
L347.395 289.533
L347.65 290.744
L347.778 239.904
L348.033 296.191
L348.161 281.363
L348.416 292.862
L348.543 279.244
L348.926 294.073
L349.309 292.56
L349.564 294.617
L349.692 292.56
L349.947 276.218
L350.075 277.065
L350.458 297.402
L350.713 301.033
L351.224 297.704
L351.606 301.033
L351.861 299.52
L351.989 239.904
L352.244 302.788
L352.372 298.915
L352.755 302.849
L353.01 300.125
L353.138 308.599
L353.393 285.297
L353.52 307.388
L353.776 308.901
L353.776 308.901
L354.286 299.217
L354.541 302.849
L354.669 301.033
L354.924 306.178
L355.052 302.849
L355.307 304.362
L355.307 304.362
L355.435 301.638
L355.69 300.125
L356.2 291.349
L356.583 290.139
L356.838 288.323
L356.966 301.033
L357.221 302.546
L357.732 292.862
L357.987 294.799
L358.115 293.77
L358.37 296.131
L358.37 296.131
L358.753 294.678
L358.88 292.56
L359.136 281.363
L359.263 288.626
L359.518 293.165
L359.646 293.165
L360.029 296.494
L360.284 296.494
L360.667 288.626
L360.795 295.525
L361.05 297.704
L361.177 296.494
L361.433 300.125
L361.56 307.025
L361.943 305.27
L362.198 300.428
L362.326 287.112
L362.709 306.178
L362.964 300.125
L363.092 294.375
L363.73 304.362
L363.857 304.059
L364.24 290.441
L364.495 291.047
L364.623 289.231
L364.878 288.02
L365.006 282.271
L365.261 292.257
L365.389 288.928
L365.772 287.415
L366.027 288.323
L366.027 288.323
L366.155 286.81
L366.41 285.902
L366.537 304.059
L366.792 302.244
L367.175 287.112
L367.303 288.02
L367.558 303.151
L367.686 297.402
L367.941 294.678
L368.069 296.191
L368.451 292.56
L368.707 292.56
L369.09 267.745
L369.472 300.428
L369.6 298.915
L369.855 299.762
L369.983 299.762
L370.238 303.151
L370.366 301.336
L370.621 265.626
L370.749 293.165
L371.004 284.994
L371.131 288.928
L371.387 292.56
L371.514 290.139
L371.769 288.02
L371.897 282.271
L372.152 232.338
L372.28 292.56
L372.535 300.428
L372.663 281.665
L372.918 304.664
L373.046 301.638
L373.301 305.875
L373.428 300.428
L373.684 301.941
L373.684 301.941
L373.811 290.744
L374.067 281.968
L374.194 302.244
L374.449 299.217
L374.577 300.428
L374.832 288.323
L374.96 287.718
L375.343 294.073
L375.598 296.796
L375.726 296.494
L375.981 295.586
L376.108 301.033
L376.364 301.336
L376.491 300.972
L376.746 297.099
L376.874 298.915
L377.129 298.007
L377.257 298.309
L377.512 295.586
L377.512 295.586
L377.64 298.007
L377.767 279.85
L378.023 278.639
L378.278 239.904
L378.405 287.718
L378.661 287.718
L378.788 286.205
L379.044 286.205
L379.171 285.902
L379.426 298.612
L379.554 270.166
L379.937 302.244
L380.192 302.849
L380.703 296.191
L380.958 304.604
L381.086 299.823
L381.341 305.572
L381.468 301.275
L381.723 286.507
L381.851 298.915
L382.107 298.612
L382.234 293.165
L382.489 303.757
L382.617 301.941
L382.872 287.052
L383 299.823
L383.255 299.823
L383.383 298.915
L383.638 300.125
L384.021 301.033
L384.148 300.125
L384.531 281.06
L384.786 278.881
L385.169 284.994
L385.297 283.784
L385.552 297.704
L385.68 296.494
L385.935 297.704
L386.062 297.099
L386.318 301.638
L386.445 293.407
L386.701 300.73
L386.828 293.467
L387.211 291.954
L387.594 281.06
L387.849 283.481
L388.232 276.279
L388.232 276.279
L388.36 275.613
L388.615 281.968
L388.742 291.047
L388.998 290.441
L389.125 300.125
L389.38 299.823
L389.508 301.638
L389.891 300.125
L390.146 268.35
L390.274 295.586
L390.529 288.928
L390.657 298.309
L390.912 299.217
L391.039 301.88
L391.295 300.125
L391.422 300.125
L391.678 298.007
L392.06 308.538
L392.188 307.085
L392.571 294.981
L392.826 305.572
L392.954 306.178
L393.209 301.033
L393.337 282.876
L393.592 300.125
L393.719 292.257
L394.102 289.776
L394.102 289.776
L394.485 290.139
L394.74 280.455
L394.868 280.152
L395.506 275.008
L395.634 276.218
L395.889 239.298
L396.016 238.088
L396.272 276.823
L396.399 275.613
L396.655 280.152
L396.782 279.547
L397.037 293.467
L397.165 293.467
L397.42 167.275
L397.548 290.139
L397.803 293.77
L397.931 292.862
L398.186 298.007
L398.314 296.191
L398.696 300.73
L398.952 301.82
L399.079 301.82
L399.335 305.209
L399.462 304.967
L399.845 306.48
L400.1 305.572
L400.228 304.664
L400.483 295.888
L400.866 312.533
L400.993 312.533
L401.249 311.322
L401.376 307.691
L401.632 287.415
L402.014 307.388
L402.142 298.915
L402.397 307.388
L402.525 307.388
L402.78 302.546
L402.908 304.301
L403.291 277.731
L403.546 297.099
L403.673 295.888
L403.929 301.336
L404.056 301.033
L404.311 299.823
L404.439 299.823
L404.822 289.231
L405.077 287.718
L405.46 293.467
L405.588 300.609
L405.843 299.52
L405.97 293.467
L406.226 292.257
L406.353 293.165
L406.609 294.073
L406.736 293.467
L406.991 299.52
L407.374 300.428
L407.502 300.367
L407.757 298.915
L407.885 293.77
L408.14 294.073
L408.268 291.349
L408.523 296.796
L408.65 295.888
L408.906 296.494
L409.033 294.375
L409.289 235.364
L409.416 295.283
L409.799 299.52
L410.054 293.165
L410.182 209.036
L410.437 302.849
L410.565 298.612
L410.948 303.393
L411.203 297.099
L411.33 297.704
L411.586 300.73
L411.713 299.823
L411.968 300.73
L412.096 297.402
L412.351 300.972
L412.479 257.758
L412.607 295.888
L412.989 293.467
L413.245 286.507
L413.627 256.85
L413.883 284.389
L414.01 58.331
L414.266 278.034
L414.648 281.363
L414.776 291.047
L415.159 290.744
L415.414 292.862
L415.542 296.796
L415.797 297.099
L415.925 295.888
L416.18 300.67
L416.307 299.823
L416.563 301.336
L416.945 300.428
L417.073 298.007
L417.328 298.612
L417.456 306.178
L417.711 305.875
L417.839 308.901
L418.094 299.823
L418.222 304.362
L418.604 307.691
L418.86 323.73
L418.987 306.178
L419.243 288.02
L419.37 300.125
L419.625 294.981
L419.753 299.823
L420.008 298.915
L420.391 291.047
L420.519 296.796
L420.902 293.165
L421.157 298.309
L421.284 297.402
L421.54 308.901
L421.667 308.296
L421.922 312.533
L422.05 311.625
L422.305 308.296
L422.433 304.967
L422.688 304.059
L422.816 304.664
L423.071 303.454
L423.199 303.757
L423.837 298.007
L423.964 280.273
L424.22 299.459
L424.347 299.823
L424.602 299.701
L424.73 300.125
L424.985 302.849
L425.113 297.099
L425.368 294.073
L425.496 295.586
L425.751 289.533
L425.879 182.103
L426.134 294.981
L426.261 294.073
L426.644 283.784
L426.899 269.258
L427.41 280.636
L427.665 276.521
L427.793 292.862
L428.176 286.81
L428.431 290.744
L428.558 297.099
L428.814 296.796
L428.941 295.888
L429.197 292.56
L429.324 292.862
L429.579 299.217
L429.707 298.915
L429.962 292.257
L430.09 292.257
L430.345 301.336
L430.473 300.73
L430.728 298.915
L430.856 270.166
L430.983 298.915
L431.238 294.981
L431.494 294.981
L431.621 298.309
L431.877 300.428
L432.004 296.494
L432.387 293.467
L432.642 293.286
L432.642 293.286
L432.77 292.56
L433.153 294.375
L433.408 294.073
L433.536 293.467
L433.791 284.691
L433.918 293.165
L434.174 293.165
L434.684 287.718
L435.067 282.271
L435.45 260.482
L435.833 291.289
L436.088 293.165
L436.471 292.257
L436.598 294.012
L436.854 285.297
L436.981 285.297
L437.364 288.626
L437.619 300.428
L437.747 300.73
L438.002 300.428
L438.13 270.166
L438.513 302.849
L438.768 300.428
L438.895 281.968
L439.151 298.915
L439.533 300.125
L439.661 300.125
L439.916 301.941
L440.044 300.428
L440.299 301.336
L440.299 301.336
L440.427 305.572
L440.682 300.488
L441.065 264.416
L441.192 295.888
L441.448 288.262
L441.575 287.96
L442.341 279.85
L442.596 288.02
L442.724 280.031
L442.979 297.099
L443.107 292.56
L443.362 303.757
L443.49 299.217
L443.745 300.73
L443.872 304.967
L444.128 304.967
L444.255 301.941
L444.51 306.117
L445.021 296.494
L445.276 300.125
L445.404 304.362
L445.659 300.488
L446.042 302.244
L446.169 304.362
L446.425 290.744
L446.552 303.757
L446.808 281.06
L446.935 302.849
L447.318 299.823
L447.573 293.77
L447.701 299.823
L447.956 289.231
L448.084 301.941
L448.339 300.67
L448.467 296.494
L448.722 299.52
L448.849 299.52
L449.232 295.586
L449.487 287.355
L449.487 287.355
L449.615 288.323
L449.87 298.915
L450.126 270.166
L450.381 301.638
L450.764 277.429
L451.019 283.723
L451.146 282.513
L451.402 296.796
L451.912 292.257
L452.167 295.586
L452.295 295.586
L452.55 295.888
L452.678 297.099
L452.933 296.615
L453.316 294.073
L453.444 295.586
L453.699 297.099
L453.826 296.191
L454.209 302.546
L454.465 300.972
L454.592 296.494
L454.847 294.375
L454.847 294.375
L454.975 283.178
L455.23 236.272
L455.358 233.851
L455.613 234.456
L455.741 275.008
L455.996 271.376
L456.123 280.455
L456.379 279.244
L456.762 279.244
L456.889 281.06
L457.144 293.77
L457.272 293.77
L457.527 295.888
L457.655 286.205
L457.91 299.823
L458.038 299.823
L458.293 295.888
L458.421 297.341
L458.676 295.586
L458.803 287.112
L459.186 297.402
L459.824 288.02
L459.952 274.705
L460.207 297.099
L460.335 298.007
L460.59 294.375
L460.718 286.205
L460.973 299.52
L461.101 298.309
L461.356 298.309
L461.484 294.073
L461.739 298.309
L461.866 298.007
L462.249 297.402
L462.504 275.31
L462.632 277.429
L462.887 277.429
L463.015 291.652
L463.27 291.047
L463.398 267.745
L463.653 299.52
L463.781 298.007
L464.163 275.613
L464.419 279.486
L464.546 277.429
L464.801 278.639
L464.929 278.034
L465.184 278.034
L465.312 269.863
L465.567 277.126
L465.695 271.074
L465.95 279.244
L466.078 300.125
L466.333 292.862
L466.46 292.56
L466.716 289.836
L466.843 272.284
L467.226 291.652
L467.864 281.968
L467.992 276.823
L468.247 286.81
L468.63 280.757
L468.757 280.757
L469.14 275.915
L469.396 275.008
L469.523 293.467
L469.906 291.652
L470.161 293.77
L470.289 293.77
L470.544 282.271
L470.672 292.862
L471.31 288.02
L471.437 290.441
L471.693 290.744
L471.82 288.323
L472.203 293.467
L472.458 292.862
L472.586 292.862
L472.841 299.52
L472.969 306.783
L473.224 311.564
L473.352 311.564
L473.607 297.402
L473.734 311.564
L473.99 307.993
L474.118 294.436
L474.5 310.414
L474.883 304.664
L475.138 294.073
L475.266 294.678
L475.521 292.257
L475.649 289.836
L476.287 270.166
L476.414 281.968
L476.67 288.02
L476.797 288.02
L477.052 288.323
L477.18 290.441
L477.435 300.428
L477.563 299.823
L477.818 303.454
L477.946 301.336
L478.201 288.626
L478.329 298.309
L478.584 298.915
L478.711 299.52
L478.967 299.823
L479.094 296.494
L479.35 297.704
L479.477 295.888
L479.732 290.139
L479.86 295.888
L480.115 300.125
L480.243 269.863
L480.626 300.125
L481.009 289.533
L481.264 287.415
L481.391 293.77
L481.647 300.73
L481.774 297.402
L482.157 280.152
L482.412 296.796
L482.54 296.494
L482.795 287.112
L482.923 293.407
L483.306 290.744
L483.561 292.56
L483.689 291.954
L483.944 289.836
L484.327 265.626
L484.454 281
L484.709 246.259
L484.837 294.073
L485.092 290.139
L485.475 245.048
L485.858 279.547
L485.986 279.547
L486.241 280.455
L486.241 280.455
L486.368 278.942
L486.624 273.797
L486.751 276.823
L487.134 280.455
L487.517 278.336
L487.772 280.757
L487.9 279.547
L488.155 281
L488.283 280.152
L488.538 279.85
L488.666 278.942
L489.048 298.007
L489.304 297.099
L489.431 299.52
L489.686 239.601
L489.814 294.375
L490.197 300.367
L490.452 303.454
L490.58 303.151
L490.835 303.151
L490.963 305.27
L491.601 294.981
L491.728 287.718
L491.984 296.494
L492.111 296.796
L492.366 295.283
L492.749 288.323
L492.877 296.796
L493.132 296.796
L493.26 303.151
L493.515 292.257
L493.643 292.56
L493.898 245.956
L494.026 281.363
L494.281 284.994
L494.663 299.823
L494.791 297.704
L495.046 298.915
L495.174 297.704
L495.429 303.454
L495.557 303.757
L495.812 298.612
L495.812 298.612
L495.94 302.788
L496.195 302.486
L496.322 303.454
L496.578 304.362
L496.705 302.849
L496.961 304.059
L497.343 302.244
L497.471 304.059
L497.726 297.099
L497.854 297.402
L498.109 296.796
L498.237 294.073
L498.62 291.047
L498.875 290.744
L499.002 289.836
L499.258 289.836
L499.258 289.836
L499.385 288.626
L500.023 297.099
L500.151 294.073
L500.406 296.191
L500.534 292.56
L500.789 303.333
L500.917 301.578
L501.172 301.336
L501.299 303.393
L501.555 240.509
L501.682 301.336
L501.938 301.638
L502.065 279.85
L502.32 284.086
L502.448 299.217
L502.831 292.56
L503.086 298.309
L503.214 298.309
L503.597 297.402
L503.852 298.309
L503.979 300.73
L504.235 301.88
L504.362 239.601
L504.617 300.73
L504.745 301.638
L505.128 301.638
L505.383 299.823
L505.511 300.549
L505.766 282.876
L505.894 282.876
L506.149 270.166
L506.277 291.047
L506.532 297.099
L506.659 297.099
L506.915 294.678
L507.042 295.283
L507.425 295.283
L507.68 294.981
L508.063 279.244
L508.191 277.126
L508.446 277.429
L508.574 278.639
L508.829 301.033
L509.212 302.849
L509.339 302.849
L509.595 303.151
L509.722 301.941
L509.977 301.941
L510.488 300.73
L510.743 299.823
L510.871 298.007
L511.126 297.704
L511.509 295.586
L511.892 281.968
L512.019 281.363
L512.274 297.341
L512.402 297.099
L512.657 288.626
L512.785 297.644
L513.04 282.573
L513.168 294.981
L513.423 297.402
L513.551 209.642
L513.806 298.007
L514.189 295.525
L514.317 295.525
L514.572 296.796
L514.699 299.52
L514.954 300.73
L515.082 292.257
L515.465 291.591
L515.848 291.349
L516.103 291.652
L516.231 294.012
L516.613 288.02
L516.869 287.415
L516.996 287.415
L517.251 288.02
L517.379 284.994
L517.762 288.202
L518.017 179.379
L518.145 285.902
L518.4 284.389
L518.4 284.389" style="fill:none;stroke:#ff0000;stroke-linecap:square;"/>
   </g>
   <g id="line2d_2">
    <path clip-path="url(#pcb2bf987bf)" d="
M72 326.635
L72.1276 326.756
L72.7657 326.756
L72.8933 326.151
L73.5314 326.151
L73.659 325.908
L74.2971 325.908
L74.4247 325.787
L75.0628 325.787
L75.1904 326.272
L75.8285 326.272
L75.9561 325.908
L77.3599 325.908
L77.8703 326.272
L78.1256 326.272
L78.1256 326.272
L78.2532 325.727
L79.6569 325.787
L79.7846 326.03
L80.4226 326.03
L80.5503 326.211
L81.9542 326.272
L82.0816 326.514
L82.7197 326.514
L82.8473 326.09
L84.2511 326.151
L84.3787 325.969
L85.017 325.969
L85.1444 326.453
L86.5482 326.514
L86.931 326.574
L87.3139 326.574
L87.4415 326.332
L88.0796 326.332
L88.2072 325.908
L88.8453 325.908
L88.8453 325.908
L88.9729 326.151
L89.611 326.151
L89.7386 326.393
L90.3767 326.393
L91.0148 326.151
L91.9081 326.635
L92.6738 326.514
L93.3118 326.574
L94.2051 326.393
L94.9708 326.03
L96.3746 326.453
L97.1403 326.453
L98.0336 326.635
L99.4374 326.453
L100.331 325.787
L100.969 325.908
L101.862 326.514
L104.032 326.816
L104.797 326.453
L105.563 326.574
L106.329 326.816
L107.988 326.332
L108.626 326.332
L109.519 326.151
L110.285 326.151
L111.05 326.272
L111.816 326.574
L113.986 326.393
L116.41 326.695
L117.048 326.272
L117.942 326.453
L118.707 326.332
L119.345 326.635
L121.004 326.453
L121.643 326.332
L123.174 326.937
L124.067 326.937
L124.705 326.514
L125.471 326.393
L126.365 326.09
L127.13 326.03
L127.13 326.03
L127.768 326.151
L128.661 325.969
L129.299 326.09
L130.193 325.727
L130.831 325.969
L131.597 325.666
L132.362 325.545
L132.362 325.545
L133.894 325.848
L134.149 325.666
L134.659 325.666
L135.425 325.485
L136.318 325.848
L137.722 325.364
L138.488 325.424
L139.381 325.243
L140.785 325.364
L141.678 324.94
L142.316 325.606
L143.082 325.364
L144.613 325.666
L145.507 326.09
L146.272 325.727
L147.038 325.908
L147.676 325.969
L148.442 325.908
L149.335 325.606
L149.973 325.969
L150.867 325.787
L151.505 325.424
L152.27 326.03
L153.164 326.03
L153.802 325.666
L154.567 325.848
L156.099 325.727
L157.758 325.787
L158.396 326.151
L159.162 326.332
L160.821 325.787
L162.224 325.969
L163.118 325.848
L163.883 325.606
L164.649 325.908
L165.287 325.908
L166.053 326.09
L166.819 326.03
L167.712 325.727
L168.35 325.908
L169.881 325.606
L171.413 325.908
L173.072 326.453
L173.71 325.848
L174.603 326.211
L176.007 326.211
L176.9 326.332
L177.538 326.332
L178.304 326.695
L179.07 326.09
L179.963 325.969
L180.729 325.666
L181.367 325.727
L182.26 325.545
L182.898 325.243
L183.791 326.09
L184.43 326.393
L185.195 326.211
L185.961 325.727
L186.727 325.908
L188.258 325.606
L189.151 325.908
L190.555 326.09
L191.321 326.393
L191.321 326.393
L192.852 326.151
L193.618 326.332
L194.384 326.635
L195.277 326.574
L196.681 326.09
L198.212 325.727
L198.212 325.727
L198.978 325.908
L200.509 325.666
L201.275 325.424
L202.04 325.848
L202.806 325.606
L203.699 325.666
L204.338 325.969
L205.231 325.545
L205.997 325.485
L206.124 325.848
L206.762 325.848
L207.4 325.666
L208.166 325.908
L208.804 325.545
L209.825 325.485
L212.122 325.303
L212.25 325.666
L212.888 325.666
L213.398 325.787
L215.951 325.848
L215.951 325.848
L216.078 326.03
L216.589 326.03
L216.589 326.03
L216.844 326.272
L217.482 326.272
L217.482 326.272
L217.61 325.848
L218.248 325.848
L218.248 325.848
L218.375 325.666
L219.013 325.666
L219.141 326.272
L219.779 326.272
L219.907 325.969
L220.545 325.969
L220.672 325.666
L220.672 325.666
L222.076 325.606
L222.459 325.545
L222.842 325.545
L222.842 325.545
L223.352 325.666
L223.608 325.666
L223.735 325.485
L226.67 325.545
L226.798 325.303
L227.436 325.303
L227.436 325.303
L227.946 325.485
L228.202 325.485
L228.329 325.848
L228.967 325.848
L229.095 325.727
L229.733 325.727
L229.861 325.908
L230.499 325.908
L230.499 325.908
L231.009 326.09
L231.264 326.09
L231.264 326.09
L231.392 326.272
L232.03 326.272
L232.158 326.393
L234.327 326.393
L234.327 326.393
L234.455 326.03
L235.093 326.03
L235.093 326.03
L235.221 325.848
L235.859 325.848
L235.859 325.848
L235.986 326.272
L236.624 326.272
L236.752 326.151
L237.39 326.151
L237.518 325.969
L238.921 325.969
L239.049 326.211
L239.687 326.211
L239.815 325.969
L241.219 326.03
L241.346 325.848
L241.984 325.848
L242.112 326.211
L242.75 326.211
L242.878 325.848
L243.516 325.848
L243.643 325.606
L246.578 325.606
L246.578 325.606
L246.706 325.727
L247.344 325.727
L247.855 326.272
L248.876 326.272
L248.876 326.272
L249.003 326.393
L249.641 326.393
L249.641 326.393
L249.769 326.211
L251.173 326.211
L251.3 326.393
L251.938 326.393
L252.066 326.151
L252.704 326.151
L252.832 326.272
L253.47 326.272
L253.597 326.151
L255.767 326.151
L255.767 326.151
L255.894 325.727
L256.532 325.727
L256.66 325.908
L257.298 325.908
L257.426 325.727
L258.064 325.727
L258.064 325.727
L258.574 325.303
L259.595 325.303
L259.595 325.303
L259.723 325.848
L260.361 325.848
L260.489 325.606
L261.127 325.606
L261.254 325.727
L261.892 325.727
L262.02 325.243
L262.658 325.243
L262.786 325.727
L264.189 325.727
L264.189 325.727
L264.317 325.969
L264.955 325.969
L264.955 325.969
L265.083 326.09
L265.593 326.09
L266.104 325.969
L266.486 325.969
L266.614 326.272
L269.549 326.272
L269.677 326.09
L271.081 326.09
L271.463 325.908
L271.846 325.908
L271.974 325.787
L272.612 325.787
L272.74 326.09
L274.143 326.03
L274.271 326.211
L274.909 326.211
L274.909 326.211
L275.037 326.09
L275.675 326.09
L275.802 325.424
L276.441 325.424
L276.568 325.303
L277.972 325.303
L277.972 325.303
L278.099 325.787
L278.738 325.787
L278.865 326.03
L280.269 326.09
L280.269 326.09
L280.397 325.908
L281.801 325.848
L282.311 325.727
L284.097 325.666
L284.225 326.03
L285.629 326.09
L285.756 325.787
L286.395 325.787
L286.522 325.969
L287.16 325.969
L287.288 325.848
L288.692 325.848
L288.819 326.03
L289.457 326.03
L289.585 326.332
L290.223 326.332
L290.351 326.09
L290.989 326.09
L291.116 325.969
L291.754 325.969
L292.265 326.09
L292.52 326.09
L292.52 326.09
L292.648 325.787
L293.286 325.787
L293.286 325.787
L293.413 326.151
L294.051 326.151
L294.051 326.151
L294.179 326.332
L294.817 326.332
L294.817 326.332
L294.945 325.969
L295.583 325.969
L295.71 326.211
L296.349 326.211
L296.476 326.03
L297.114 326.03
L297.242 326.272
L297.88 326.272
L298.008 326.453
L298.646 326.453
L298.773 326.03
L299.411 326.03
L299.539 326.272
L300.177 326.272
L300.177 326.272
L300.305 325.364
L300.943 325.364
L301.07 325.969
L302.474 325.969
L302.474 325.969
L302.985 325.545
L304.005 325.485
L304.005 325.485
L304.133 325.727
L305.537 325.787
L305.664 325.908
L307.068 325.908
L307.068 325.908
L307.196 326.272
L307.834 326.272
L307.962 326.453
L308.6 326.453
L308.6 326.453
L308.727 326.332
L309.365 326.332
L309.493 326.03
L310.897 325.969
L311.024 326.272
L311.662 326.272
L311.79 325.908
L312.428 325.908
L312.556 325.666
L313.194 325.666
L313.321 325.364
L313.96 325.364
L314.087 325.243
L314.725 325.243
L314.853 325.606
L315.491 325.606
L315.619 326.332
L316.257 326.332
L316.384 325.969
L317.022 325.969
L317.15 326.272
L317.788 326.272
L317.916 325.908
L319.319 325.969
L319.319 325.969
L319.702 326.03
L321.616 325.969
L322.127 325.908
L323.148 325.908
L323.275 326.03
L324.679 326.03
L324.807 325.485
L326.211 325.485
L326.338 325.727
L326.976 325.727
L327.104 325.545
L328.508 325.545
L328.635 325.666
L329.273 325.666
L329.401 325.182
L330.039 325.182
L330.167 325.364
L330.805 325.364
L330.933 325.243
L332.336 325.182
L332.464 325.666
L333.102 325.666
L333.23 325.787
L335.399 325.727
L335.782 325.666
L336.165 325.666
L336.292 325.787
L336.93 325.787
L337.058 325.606
L337.696 325.606
L337.824 326.09
L339.227 326.151
L339.355 325.666
L340.504 325.727
L341.269 325.969
L341.525 325.969
L341.652 325.848
L342.29 325.848
L342.418 325.727
L343.056 325.727
L343.184 325.848
L345.353 325.787
L345.353 325.787
L345.481 325.424
L346.884 325.424
L346.884 325.424
L347.012 325.727
L347.65 325.727
L347.778 325.606
L348.416 325.606
L348.543 326.09
L349.181 326.09
L349.309 325.848
L349.947 325.848
L350.075 325.485
L350.713 325.485
L350.84 326.272
L351.224 326.272
L351.861 326.09
L352.244 326.09
L352.372 326.332
L353.776 326.332
L353.776 326.332
L354.286 326.514
L355.307 326.453
L355.307 326.453
L355.435 326.332
L356.838 326.272
L357.221 326.211
L357.477 326.211
L357.987 326.332
L358.37 326.332
L358.37 326.332
L358.497 326.151
L359.136 326.151
L359.263 325.727
L359.901 325.727
L360.029 326.211
L360.667 326.211
L360.795 325.727
L361.433 325.727
L361.56 326.453
L362.198 326.453
L362.326 326.635
L362.964 326.635
L363.092 326.453
L363.73 326.453
L363.857 326.332
L364.495 326.332
L364.623 326.09
L365.261 326.09
L365.389 326.332
L366.792 326.272
L366.92 326.453
L367.558 326.453
L367.686 326.574
L368.324 326.574
L368.451 326.453
L369.09 326.453
L369.6 326.635
L369.855 326.635
L369.983 326.332
L370.621 326.332
L370.749 326.211
L371.387 326.211
L371.514 326.09
L372.918 326.151
L373.046 326.937
L373.684 326.937
L373.684 326.937
L373.811 326.635
L375.215 326.635
L375.343 326.332
L376.746 326.393
L376.874 326.151
L378.278 326.09
L378.661 326.03
L379.044 326.03
L379.171 325.787
L379.809 325.787
L379.937 326.272
L380.575 326.272
L380.703 326.393
L381.341 326.393
L381.468 326.877
L382.107 326.877
L382.234 326.695
L382.872 326.695
L383 326.574
L384.403 326.635
L384.531 326.393
L387.466 326.453
L387.594 326.211
L388.232 326.211
L388.232 326.211
L388.36 344.792
L388.998 344.792
L389.125 326.332
L389.763 326.332
L389.891 326.453
L390.529 326.453
L390.657 326.09
L391.295 326.09
L391.422 326.332
L392.06 326.332
L392.188 326.877
L393.592 326.877
L393.719 326.332
L395.123 326.332
L395.251 326.151
L395.889 326.151
L396.016 326.03
L396.655 326.03
L396.782 326.332
L397.42 326.332
L397.548 326.09
L398.186 326.09
L398.314 326.514
L398.952 326.514
L399.079 326.695
L399.717 326.695
L399.845 326.816
L400.483 326.816
L400.611 326.393
L401.249 326.393
L401.376 326.877
L402.014 326.877
L402.142 326.756
L402.78 326.756
L402.908 326.453
L404.311 326.453
L404.439 326.211
L405.077 326.211
L405.205 326.03
L405.843 326.03
L405.97 325.908
L406.609 325.908
L406.736 326.09
L407.374 326.09
L407.502 326.211
L408.14 326.211
L408.268 325.848
L408.906 325.848
L409.033 326.03
L410.437 326.03
L410.565 326.332
L411.203 326.332
L411.33 326.151
L412.607 326.151
L412.989 325.666
L413.5 325.666
L413.627 325.243
L415.031 325.303
L415.159 325.545
L415.797 325.545
L415.925 325.848
L416.563 325.848
L416.69 326.09
L417.328 326.09
L417.456 326.393
L418.094 326.393
L418.222 326.574
L418.86 326.574
L418.987 327.058
L419.625 327.058
L419.753 326.635
L420.391 326.635
L420.519 326.393
L421.157 326.393
L421.284 326.574
L421.922 326.574
L422.05 326.937
L422.688 326.937
L422.816 326.574
L423.454 326.574
L423.581 326.453
L424.22 326.453
L424.347 326.211
L424.985 326.211
L425.113 326.453
L425.751 326.453
L425.879 325.969
L427.282 326.03
L427.41 325.424
L428.048 325.424
L428.176 325.908
L428.814 325.908
L428.941 326.514
L429.579 326.514
L429.707 326.695
L430.345 326.695
L430.473 326.816
L430.983 326.816
L431.238 326.393
L431.877 326.393
L432.004 326.635
L432.642 326.635
L432.642 326.635
L432.77 326.393
L434.939 326.393
L435.067 325.727
L435.705 325.727
L435.833 326.211
L436.471 326.211
L436.598 326.393
L437.236 326.393
L437.364 326.272
L438.002 326.272
L438.13 326.756
L438.768 326.756
L438.895 327.058
L440.299 327.058
L440.299 327.058
L440.427 327.179
L441.065 327.179
L441.192 326.756
L443.362 326.816
L443.49 327.119
L444.893 327.058
L445.021 326.877
L445.659 326.877
L446.169 327.179
L447.19 327.119
L447.573 327.058
L447.956 327.058
L448.084 327.24
L448.722 327.24
L448.849 327.119
L449.487 327.119
L449.487 327.119
L449.615 326.756
L450.126 326.756
L450.381 327.361
L451.019 327.361
L451.146 327.179
L451.785 327.179
L451.912 326.998
L452.55 326.998
L452.678 327.179
L454.847 327.24
L454.847 327.24
L454.975 326.695
L455.613 326.695
L455.741 326.151
L457.144 326.09
L457.272 326.635
L457.91 326.635
L458.038 326.937
L458.676 326.937
L458.803 326.756
L460.973 326.816
L461.101 327.058
L461.739 327.058
L461.866 326.937
L462.504 326.937
L462.632 326.514
L463.27 326.514
L463.398 326.635
L464.801 326.635
L464.929 326.998
L466.333 326.937
L466.46 327.361
L467.864 327.301
L467.992 326.877
L468.63 326.877
L468.757 326.998
L470.161 326.998
L470.289 327.301
L470.927 327.301
L471.055 327.119
L473.224 327.058
L473.352 327.482
L474.755 327.422
L474.883 326.998
L475.521 326.998
L475.649 326.635
L476.287 326.635
L476.414 326.211
L477.052 326.211
L477.18 326.453
L477.818 326.453
L477.946 327.058
L478.584 327.058
L478.711 326.756
L479.35 326.756
L479.477 326.635
L480.115 326.635
L480.243 326.877
L483.178 326.877
L483.306 326.574
L483.944 326.574
L484.071 326.453
L484.709 326.453
L484.837 326.332
L485.475 326.332
L485.986 326.453
L488.538 326.514
L488.921 326.574
L489.304 326.574
L489.431 326.695
L490.835 326.756
L490.963 327.119
L493.132 327.058
L493.26 327.24
L493.898 327.24
L494.026 326.816
L494.663 326.816
L494.791 327.119
L495.429 327.119
L495.684 327.24
L496.195 327.24
L496.322 327.119
L497.726 327.119
L497.854 326.816
L498.492 326.816
L498.62 326.393
L500.023 326.453
L500.151 326.756
L500.789 326.756
L500.917 327.058
L501.555 327.058
L501.682 326.695
L502.32 326.695
L502.448 326.937
L503.086 326.937
L503.214 326.695
L504.617 326.756
L504.745 326.998
L505.383 326.998
L505.511 326.877
L506.149 326.877
L506.277 326.695
L508.446 326.756
L508.829 326.816
L509.212 326.816
L509.339 327.058
L509.977 327.058
L510.488 326.877
L510.743 326.877
L510.871 326.695
L513.04 326.635
L513.423 326.574
L513.806 326.574
L513.933 326.756
L514.572 326.756
L514.699 326.635
L515.337 326.635
L515.465 326.756
L516.103 326.756
L516.231 326.635
L517.634 326.635
L517.762 326.393
L518.4 326.393
L518.4 326.393" style="fill:none;stroke:#008000;stroke-linecap:square;"/>
   </g>
   <g id="patch_3">
    <path d="
M72 43.2
L518.4 43.2" style="fill:none;stroke:#000000;stroke-linecap:square;stroke-linejoin:miter;"/>
   </g>
   <g id="patch_4">
    <path d="
M518.4 345.6
L518.4 43.2" style="fill:none;stroke:#000000;stroke-linecap:square;stroke-linejoin:miter;"/>
   </g>
   <g id="patch_5">
    <path d="
M72 345.6
L518.4 345.6" style="fill:none;stroke:#000000;stroke-linecap:square;stroke-linejoin:miter;"/>
   </g>
   <g id="patch_6">
    <path d="
M72 345.6
L72 43.2" style="fill:none;stroke:#000000;stroke-linecap:square;stroke-linejoin:miter;"/>
   </g>
   <g id="matplotlib.axis_1">
    <g id="xtick_1">
     <g id="line2d_3">
      <defs>
       <path d="
M0 0
L0 -4" id="m93b0483c22" style="stroke:#000000;stroke-width:0.5;"/>
      </defs>
      <g>
       <use style="stroke:#000000;stroke-width:0.5;" x="117.941468267" xlink:href="#m93b0483c22" y="345.6"/>
      </g>
     </g>
     <g id="line2d_4">
      <defs>
       <path d="
M0 0
L0 4" id="m741efc42ff" style="stroke:#000000;stroke-width:0.5;"/>
      </defs>
      <g>
       <use style="stroke:#000000;stroke-width:0.5;" x="117.941468267" xlink:href="#m741efc42ff" y="43.2"/>
      </g>
     </g>
     <g id="text_1">
      <!-- Oct 13 2015 -->
      <defs>
       <path d="
M19.1875 8.29688
L53.6094 8.29688
L53.6094 0
L7.32812 0
L7.32812 8.29688
Q12.9375 14.1094 22.625 23.8906
Q32.3281 33.6875 34.8125 36.5312
Q39.5469 41.8438 41.4219 45.5312
Q43.3125 49.2188 43.3125 52.7812
Q43.3125 58.5938 39.2344 62.25
Q35.1562 65.9219 28.6094 65.9219
Q23.9688 65.9219 18.8125 64.3125
Q13.6719 62.7031 7.8125 59.4219
L7.8125 69.3906
Q13.7656 71.7812 18.9375 73
Q24.125 74.2188 28.4219 74.2188
Q39.75 74.2188 46.4844 68.5469
Q53.2188 62.8906 53.2188 53.4219
Q53.2188 48.9219 51.5312 44.8906
Q49.8594 40.875 45.4062 35.4062
Q44.1875 33.9844 37.6406 27.2188
Q31.1094 20.4531 19.1875 8.29688" id="BitstreamVeraSans-Roman-32"/>
       <path d="
M39.4062 66.2188
Q28.6562 66.2188 22.3281 58.2031
Q16.0156 50.2031 16.0156 36.375
Q16.0156 22.6094 22.3281 14.5938
Q28.6562 6.59375 39.4062 6.59375
Q50.1406 6.59375 56.4219 14.5938
Q62.7031 22.6094 62.7031 36.375
Q62.7031 50.2031 56.4219 58.2031
Q50.1406 66.2188 39.4062 66.2188
M39.4062 74.2188
Q54.7344 74.2188 63.9062 63.9375
Q73.0938 53.6562 73.0938 36.375
Q73.0938 19.1406 63.9062 8.85938
Q54.7344 -1.42188 39.4062 -1.42188
Q24.0312 -1.42188 14.8125 8.82812
Q5.60938 19.0938 5.60938 36.375
Q5.60938 53.6562 14.8125 63.9375
Q24.0312 74.2188 39.4062 74.2188" id="BitstreamVeraSans-Roman-4f"/>
       <path d="
M31.7812 66.4062
Q24.1719 66.4062 20.3281 58.9062
Q16.5 51.4219 16.5 36.375
Q16.5 21.3906 20.3281 13.8906
Q24.1719 6.39062 31.7812 6.39062
Q39.4531 6.39062 43.2812 13.8906
Q47.125 21.3906 47.125 36.375
Q47.125 51.4219 43.2812 58.9062
Q39.4531 66.4062 31.7812 66.4062
M31.7812 74.2188
Q44.0469 74.2188 50.5156 64.5156
Q56.9844 54.8281 56.9844 36.375
Q56.9844 17.9688 50.5156 8.26562
Q44.0469 -1.42188 31.7812 -1.42188
Q19.5312 -1.42188 13.0625 8.26562
Q6.59375 17.9688 6.59375 36.375
Q6.59375 54.8281 13.0625 64.5156
Q19.5312 74.2188 31.7812 74.2188" id="BitstreamVeraSans-Roman-30"/>
       <path d="
M12.4062 8.29688
L28.5156 8.29688
L28.5156 63.9219
L10.9844 60.4062
L10.9844 69.3906
L28.4219 72.9062
L38.2812 72.9062
L38.2812 8.29688
L54.3906 8.29688
L54.3906 0
L12.4062 0
z
" id="BitstreamVeraSans-Roman-31"/>
       <path d="
M40.5781 39.3125
Q47.6562 37.7969 51.625 33
Q55.6094 28.2188 55.6094 21.1875
Q55.6094 10.4062 48.1875 4.48438
Q40.7656 -1.42188 27.0938 -1.42188
Q22.5156 -1.42188 17.6562 -0.515625
Q12.7969 0.390625 7.625 2.20312
L7.625 11.7188
Q11.7188 9.32812 16.5938 8.10938
Q21.4844 6.89062 26.8125 6.89062
Q36.0781 6.89062 40.9375 10.5469
Q45.7969 14.2031 45.7969 21.1875
Q45.7969 27.6406 41.2812 31.2656
Q36.7656 34.9062 28.7188 34.9062
L20.2188 34.9062
L20.2188 43.0156
L29.1094 43.0156
Q36.375 43.0156 40.2344 45.9219
Q44.0938 48.8281 44.0938 54.2969
Q44.0938 59.9062 40.1094 62.9062
Q36.1406 65.9219 28.7188 65.9219
Q24.6562 65.9219 20.0156 65.0312
Q15.375 64.1562 9.8125 62.3125
L9.8125 71.0938
Q15.4375 72.6562 20.3438 73.4375
Q25.25 74.2188 29.5938 74.2188
Q40.8281 74.2188 47.3594 69.1094
Q53.9062 64.0156 53.9062 55.3281
Q53.9062 49.2656 50.4375 45.0938
Q46.9688 40.9219 40.5781 39.3125" id="BitstreamVeraSans-Roman-33"/>
       <path id="BitstreamVeraSans-Roman-20"/>
       <path d="
M10.7969 72.9062
L49.5156 72.9062
L49.5156 64.5938
L19.8281 64.5938
L19.8281 46.7344
Q21.9688 47.4688 24.1094 47.8281
Q26.2656 48.1875 28.4219 48.1875
Q40.625 48.1875 47.75 41.5
Q54.8906 34.8125 54.8906 23.3906
Q54.8906 11.625 47.5625 5.09375
Q40.2344 -1.42188 26.9062 -1.42188
Q22.3125 -1.42188 17.5469 -0.640625
Q12.7969 0.140625 7.71875 1.70312
L7.71875 11.625
Q12.1094 9.23438 16.7969 8.0625
Q21.4844 6.89062 26.7031 6.89062
Q35.1562 6.89062 40.0781 11.3281
Q45.0156 15.7656 45.0156 23.3906
Q45.0156 31 40.0781 35.4375
Q35.1562 39.8906 26.7031 39.8906
Q22.75 39.8906 18.8125 39.0156
Q14.8906 38.1406 10.7969 36.2812
z
" id="BitstreamVeraSans-Roman-35"/>
       <path d="
M18.3125 70.2188
L18.3125 54.6875
L36.8125 54.6875
L36.8125 47.7031
L18.3125 47.7031
L18.3125 18.0156
Q18.3125 11.3281 20.1406 9.42188
Q21.9688 7.51562 27.5938 7.51562
L36.8125 7.51562
L36.8125 0
L27.5938 0
Q17.1875 0 13.2344 3.875
Q9.28125 7.76562 9.28125 18.0156
L9.28125 47.7031
L2.6875 47.7031
L2.6875 54.6875
L9.28125 54.6875
L9.28125 70.2188
z
" id="BitstreamVeraSans-Roman-74"/>
       <path d="
M48.7812 52.5938
L48.7812 44.1875
Q44.9688 46.2969 41.1406 47.3438
Q37.3125 48.3906 33.4062 48.3906
Q24.6562 48.3906 19.8125 42.8438
Q14.9844 37.3125 14.9844 27.2969
Q14.9844 17.2812 19.8125 11.7344
Q24.6562 6.20312 33.4062 6.20312
Q37.3125 6.20312 41.1406 7.25
Q44.9688 8.29688 48.7812 10.4062
L48.7812 2.09375
Q45.0156 0.34375 40.9844 -0.53125
Q36.9688 -1.42188 32.4219 -1.42188
Q20.0625 -1.42188 12.7812 6.34375
Q5.51562 14.1094 5.51562 27.2969
Q5.51562 40.6719 12.8594 48.3281
Q20.2188 56 33.0156 56
Q37.1562 56 41.1094 55.1406
Q45.0625 54.2969 48.7812 52.5938" id="BitstreamVeraSans-Roman-63"/>
      </defs>
      <g transform="translate(53.3541815316 394.065590385)rotate(-30.0)scale(0.12 -0.12)">
       <use xlink:href="#BitstreamVeraSans-Roman-4f"/>
       <use x="78.7109375" xlink:href="#BitstreamVeraSans-Roman-63"/>
       <use x="133.69140625" xlink:href="#BitstreamVeraSans-Roman-74"/>
       <use x="172.900390625" xlink:href="#BitstreamVeraSans-Roman-20"/>
       <use x="204.6875" xlink:href="#BitstreamVeraSans-Roman-31"/>
       <use x="268.310546875" xlink:href="#BitstreamVeraSans-Roman-33"/>
       <use x="331.93359375" xlink:href="#BitstreamVeraSans-Roman-20"/>
       <use x="363.720703125" xlink:href="#BitstreamVeraSans-Roman-32"/>
       <use x="427.34375" xlink:href="#BitstreamVeraSans-Roman-30"/>
       <use x="490.966796875" xlink:href="#BitstreamVeraSans-Roman-31"/>
       <use x="554.58984375" xlink:href="#BitstreamVeraSans-Roman-35"/>
      </g>
     </g>
    </g>
    <g id="xtick_2">
     <g id="line2d_5">
      <g>
       <use style="stroke:#000000;stroke-width:0.5;" x="173.071485419" xlink:href="#m93b0483c22" y="345.6"/>
      </g>
     </g>
     <g id="line2d_6">
      <g>
       <use style="stroke:#000000;stroke-width:0.5;" x="173.071485419" xlink:href="#m741efc42ff" y="43.2"/>
      </g>
     </g>
     <g id="text_2">
      <!-- Oct 16 2015 -->
      <defs>
       <path d="
M33.0156 40.375
Q26.375 40.375 22.4844 35.8281
Q18.6094 31.2969 18.6094 23.3906
Q18.6094 15.5312 22.4844 10.9531
Q26.375 6.39062 33.0156 6.39062
Q39.6562 6.39062 43.5312 10.9531
Q47.4062 15.5312 47.4062 23.3906
Q47.4062 31.2969 43.5312 35.8281
Q39.6562 40.375 33.0156 40.375
M52.5938 71.2969
L52.5938 62.3125
Q48.875 64.0625 45.0938 64.9844
Q41.3125 65.9219 37.5938 65.9219
Q27.8281 65.9219 22.6719 59.3281
Q17.5312 52.7344 16.7969 39.4062
Q19.6719 43.6562 24.0156 45.9219
Q28.375 48.1875 33.5938 48.1875
Q44.5781 48.1875 50.9531 41.5156
Q57.3281 34.8594 57.3281 23.3906
Q57.3281 12.1562 50.6875 5.35938
Q44.0469 -1.42188 33.0156 -1.42188
Q20.3594 -1.42188 13.6719 8.26562
Q6.98438 17.9688 6.98438 36.375
Q6.98438 53.6562 15.1875 63.9375
Q23.3906 74.2188 37.2031 74.2188
Q40.9219 74.2188 44.7031 73.4844
Q48.4844 72.75 52.5938 71.2969" id="BitstreamVeraSans-Roman-36"/>
      </defs>
      <g transform="translate(108.484198684 394.065590385)rotate(-30.0)scale(0.12 -0.12)">
       <use xlink:href="#BitstreamVeraSans-Roman-4f"/>
       <use x="78.7109375" xlink:href="#BitstreamVeraSans-Roman-63"/>
       <use x="133.69140625" xlink:href="#BitstreamVeraSans-Roman-74"/>
       <use x="172.900390625" xlink:href="#BitstreamVeraSans-Roman-20"/>
       <use x="204.6875" xlink:href="#BitstreamVeraSans-Roman-31"/>
       <use x="268.310546875" xlink:href="#BitstreamVeraSans-Roman-36"/>
       <use x="331.93359375" xlink:href="#BitstreamVeraSans-Roman-20"/>
       <use x="363.720703125" xlink:href="#BitstreamVeraSans-Roman-32"/>
       <use x="427.34375" xlink:href="#BitstreamVeraSans-Roman-30"/>
       <use x="490.966796875" xlink:href="#BitstreamVeraSans-Roman-31"/>
       <use x="554.58984375" xlink:href="#BitstreamVeraSans-Roman-35"/>
      </g>
     </g>
    </g>
    <g id="xtick_3">
     <g id="line2d_7">
      <g>
       <use style="stroke:#000000;stroke-width:0.5;" x="228.201502573" xlink:href="#m93b0483c22" y="345.6"/>
      </g>
     </g>
     <g id="line2d_8">
      <g>
       <use style="stroke:#000000;stroke-width:0.5;" x="228.201502573" xlink:href="#m741efc42ff" y="43.2"/>
      </g>
     </g>
     <g id="text_3">
      <!-- Oct 19 2015 -->
      <defs>
       <path d="
M10.9844 1.51562
L10.9844 10.5
Q14.7031 8.73438 18.5 7.8125
Q22.3125 6.89062 25.9844 6.89062
Q35.75 6.89062 40.8906 13.4531
Q46.0469 20.0156 46.7812 33.4062
Q43.9531 29.2031 39.5938 26.9531
Q35.25 24.7031 29.9844 24.7031
Q19.0469 24.7031 12.6719 31.3125
Q6.29688 37.9375 6.29688 49.4219
Q6.29688 60.6406 12.9375 67.4219
Q19.5781 74.2188 30.6094 74.2188
Q43.2656 74.2188 49.9219 64.5156
Q56.5938 54.8281 56.5938 36.375
Q56.5938 19.1406 48.4062 8.85938
Q40.2344 -1.42188 26.4219 -1.42188
Q22.7031 -1.42188 18.8906 -0.6875
Q15.0938 0.046875 10.9844 1.51562
M30.6094 32.4219
Q37.25 32.4219 41.125 36.9531
Q45.0156 41.5 45.0156 49.4219
Q45.0156 57.2812 41.125 61.8438
Q37.25 66.4062 30.6094 66.4062
Q23.9688 66.4062 20.0938 61.8438
Q16.2188 57.2812 16.2188 49.4219
Q16.2188 41.5 20.0938 36.9531
Q23.9688 32.4219 30.6094 32.4219" id="BitstreamVeraSans-Roman-39"/>
      </defs>
      <g transform="translate(163.614215838 394.065590385)rotate(-30.0)scale(0.12 -0.12)">
       <use xlink:href="#BitstreamVeraSans-Roman-4f"/>
       <use x="78.7109375" xlink:href="#BitstreamVeraSans-Roman-63"/>
       <use x="133.69140625" xlink:href="#BitstreamVeraSans-Roman-74"/>
       <use x="172.900390625" xlink:href="#BitstreamVeraSans-Roman-20"/>
       <use x="204.6875" xlink:href="#BitstreamVeraSans-Roman-31"/>
       <use x="268.310546875" xlink:href="#BitstreamVeraSans-Roman-39"/>
       <use x="331.93359375" xlink:href="#BitstreamVeraSans-Roman-20"/>
       <use x="363.720703125" xlink:href="#BitstreamVeraSans-Roman-32"/>
       <use x="427.34375" xlink:href="#BitstreamVeraSans-Roman-30"/>
       <use x="490.966796875" xlink:href="#BitstreamVeraSans-Roman-31"/>
       <use x="554.58984375" xlink:href="#BitstreamVeraSans-Roman-35"/>
      </g>
     </g>
    </g>
    <g id="xtick_4">
     <g id="line2d_9">
      <g>
       <use style="stroke:#000000;stroke-width:0.5;" x="283.331519725" xlink:href="#m93b0483c22" y="345.6"/>
      </g>
     </g>
     <g id="line2d_10">
      <g>
       <use style="stroke:#000000;stroke-width:0.5;" x="283.331519725" xlink:href="#m741efc42ff" y="43.2"/>
      </g>
     </g>
     <g id="text_4">
      <!-- Oct 22 2015 -->
      <g transform="translate(218.74423299 394.065590385)rotate(-30.0)scale(0.12 -0.12)">
       <use xlink:href="#BitstreamVeraSans-Roman-4f"/>
       <use x="78.7109375" xlink:href="#BitstreamVeraSans-Roman-63"/>
       <use x="133.69140625" xlink:href="#BitstreamVeraSans-Roman-74"/>
       <use x="172.900390625" xlink:href="#BitstreamVeraSans-Roman-20"/>
       <use x="204.6875" xlink:href="#BitstreamVeraSans-Roman-32"/>
       <use x="268.310546875" xlink:href="#BitstreamVeraSans-Roman-32"/>
       <use x="331.93359375" xlink:href="#BitstreamVeraSans-Roman-20"/>
       <use x="363.720703125" xlink:href="#BitstreamVeraSans-Roman-32"/>
       <use x="427.34375" xlink:href="#BitstreamVeraSans-Roman-30"/>
       <use x="490.966796875" xlink:href="#BitstreamVeraSans-Roman-31"/>
       <use x="554.58984375" xlink:href="#BitstreamVeraSans-Roman-35"/>
      </g>
     </g>
    </g>
    <g id="xtick_5">
     <g id="line2d_11">
      <g>
       <use style="stroke:#000000;stroke-width:0.5;" x="338.461536877" xlink:href="#m93b0483c22" y="345.6"/>
      </g>
     </g>
     <g id="line2d_12">
      <g>
       <use style="stroke:#000000;stroke-width:0.5;" x="338.461536877" xlink:href="#m741efc42ff" y="43.2"/>
      </g>
     </g>
     <g id="text_5">
      <!-- Oct 25 2015 -->
      <g transform="translate(273.874250142 394.065590385)rotate(-30.0)scale(0.12 -0.12)">
       <use xlink:href="#BitstreamVeraSans-Roman-4f"/>
       <use x="78.7109375" xlink:href="#BitstreamVeraSans-Roman-63"/>
       <use x="133.69140625" xlink:href="#BitstreamVeraSans-Roman-74"/>
       <use x="172.900390625" xlink:href="#BitstreamVeraSans-Roman-20"/>
       <use x="204.6875" xlink:href="#BitstreamVeraSans-Roman-32"/>
       <use x="268.310546875" xlink:href="#BitstreamVeraSans-Roman-35"/>
       <use x="331.93359375" xlink:href="#BitstreamVeraSans-Roman-20"/>
       <use x="363.720703125" xlink:href="#BitstreamVeraSans-Roman-32"/>
       <use x="427.34375" xlink:href="#BitstreamVeraSans-Roman-30"/>
       <use x="490.966796875" xlink:href="#BitstreamVeraSans-Roman-31"/>
       <use x="554.58984375" xlink:href="#BitstreamVeraSans-Roman-35"/>
      </g>
     </g>
    </g>
    <g id="xtick_6">
     <g id="line2d_13">
      <g>
       <use style="stroke:#000000;stroke-width:0.5;" x="393.591554031" xlink:href="#m93b0483c22" y="345.6"/>
      </g>
     </g>
     <g id="line2d_14">
      <g>
       <use style="stroke:#000000;stroke-width:0.5;" x="393.591554031" xlink:href="#m741efc42ff" y="43.2"/>
      </g>
     </g>
     <g id="text_6">
      <!-- Oct 28 2015 -->
      <defs>
       <path d="
M31.7812 34.625
Q24.75 34.625 20.7188 30.8594
Q16.7031 27.0938 16.7031 20.5156
Q16.7031 13.9219 20.7188 10.1562
Q24.75 6.39062 31.7812 6.39062
Q38.8125 6.39062 42.8594 10.1719
Q46.9219 13.9688 46.9219 20.5156
Q46.9219 27.0938 42.8906 30.8594
Q38.875 34.625 31.7812 34.625
M21.9219 38.8125
Q15.5781 40.375 12.0312 44.7188
Q8.5 49.0781 8.5 55.3281
Q8.5 64.0625 14.7188 69.1406
Q20.9531 74.2188 31.7812 74.2188
Q42.6719 74.2188 48.875 69.1406
Q55.0781 64.0625 55.0781 55.3281
Q55.0781 49.0781 51.5312 44.7188
Q48 40.375 41.7031 38.8125
Q48.8281 37.1562 52.7969 32.3125
Q56.7812 27.4844 56.7812 20.5156
Q56.7812 9.90625 50.3125 4.23438
Q43.8438 -1.42188 31.7812 -1.42188
Q19.7344 -1.42188 13.25 4.23438
Q6.78125 9.90625 6.78125 20.5156
Q6.78125 27.4844 10.7812 32.3125
Q14.7969 37.1562 21.9219 38.8125
M18.3125 54.3906
Q18.3125 48.7344 21.8438 45.5625
Q25.3906 42.3906 31.7812 42.3906
Q38.1406 42.3906 41.7188 45.5625
Q45.3125 48.7344 45.3125 54.3906
Q45.3125 60.0625 41.7188 63.2344
Q38.1406 66.4062 31.7812 66.4062
Q25.3906 66.4062 21.8438 63.2344
Q18.3125 60.0625 18.3125 54.3906" id="BitstreamVeraSans-Roman-38"/>
      </defs>
      <g transform="translate(329.004267296 394.065590385)rotate(-30.0)scale(0.12 -0.12)">
       <use xlink:href="#BitstreamVeraSans-Roman-4f"/>
       <use x="78.7109375" xlink:href="#BitstreamVeraSans-Roman-63"/>
       <use x="133.69140625" xlink:href="#BitstreamVeraSans-Roman-74"/>
       <use x="172.900390625" xlink:href="#BitstreamVeraSans-Roman-20"/>
       <use x="204.6875" xlink:href="#BitstreamVeraSans-Roman-32"/>
       <use x="268.310546875" xlink:href="#BitstreamVeraSans-Roman-38"/>
       <use x="331.93359375" xlink:href="#BitstreamVeraSans-Roman-20"/>
       <use x="363.720703125" xlink:href="#BitstreamVeraSans-Roman-32"/>
       <use x="427.34375" xlink:href="#BitstreamVeraSans-Roman-30"/>
       <use x="490.966796875" xlink:href="#BitstreamVeraSans-Roman-31"/>
       <use x="554.58984375" xlink:href="#BitstreamVeraSans-Roman-35"/>
      </g>
     </g>
    </g>
    <g id="xtick_7">
     <g id="line2d_15">
      <g>
       <use style="stroke:#000000;stroke-width:0.5;" x="448.721571183" xlink:href="#m93b0483c22" y="345.6"/>
      </g>
     </g>
     <g id="line2d_16">
      <g>
       <use style="stroke:#000000;stroke-width:0.5;" x="448.721571183" xlink:href="#m741efc42ff" y="43.2"/>
      </g>
     </g>
     <g id="text_7">
      <!-- Oct 31 2015 -->
      <g transform="translate(384.134284448 394.065590385)rotate(-30.0)scale(0.12 -0.12)">
       <use xlink:href="#BitstreamVeraSans-Roman-4f"/>
       <use x="78.7109375" xlink:href="#BitstreamVeraSans-Roman-63"/>
       <use x="133.69140625" xlink:href="#BitstreamVeraSans-Roman-74"/>
       <use x="172.900390625" xlink:href="#BitstreamVeraSans-Roman-20"/>
       <use x="204.6875" xlink:href="#BitstreamVeraSans-Roman-33"/>
       <use x="268.310546875" xlink:href="#BitstreamVeraSans-Roman-31"/>
       <use x="331.93359375" xlink:href="#BitstreamVeraSans-Roman-20"/>
       <use x="363.720703125" xlink:href="#BitstreamVeraSans-Roman-32"/>
       <use x="427.34375" xlink:href="#BitstreamVeraSans-Roman-30"/>
       <use x="490.966796875" xlink:href="#BitstreamVeraSans-Roman-31"/>
       <use x="554.58984375" xlink:href="#BitstreamVeraSans-Roman-35"/>
      </g>
     </g>
    </g>
    <g id="xtick_8">
     <g id="line2d_17">
      <g>
       <use style="stroke:#000000;stroke-width:0.5;" x="503.851588335" xlink:href="#m93b0483c22" y="345.6"/>
      </g>
     </g>
     <g id="line2d_18">
      <g>
       <use style="stroke:#000000;stroke-width:0.5;" x="503.851588335" xlink:href="#m741efc42ff" y="43.2"/>
      </g>
     </g>
     <g id="text_8">
      <!-- Nov 03 2015 -->
      <defs>
       <path d="
M2.98438 54.6875
L12.5 54.6875
L29.5938 8.79688
L46.6875 54.6875
L56.2031 54.6875
L35.6875 0
L23.4844 0
z
" id="BitstreamVeraSans-Roman-76"/>
       <path d="
M9.8125 72.9062
L23.0938 72.9062
L55.4219 11.9219
L55.4219 72.9062
L64.9844 72.9062
L64.9844 0
L51.7031 0
L19.3906 60.9844
L19.3906 0
L9.8125 0
z
" id="BitstreamVeraSans-Roman-4e"/>
       <path d="
M30.6094 48.3906
Q23.3906 48.3906 19.1875 42.75
Q14.9844 37.1094 14.9844 27.2969
Q14.9844 17.4844 19.1562 11.8438
Q23.3438 6.20312 30.6094 6.20312
Q37.7969 6.20312 41.9844 11.8594
Q46.1875 17.5312 46.1875 27.2969
Q46.1875 37.0156 41.9844 42.7031
Q37.7969 48.3906 30.6094 48.3906
M30.6094 56
Q42.3281 56 49.0156 48.375
Q55.7188 40.7656 55.7188 27.2969
Q55.7188 13.875 49.0156 6.21875
Q42.3281 -1.42188 30.6094 -1.42188
Q18.8438 -1.42188 12.1719 6.21875
Q5.51562 13.875 5.51562 27.2969
Q5.51562 40.7656 12.1719 48.375
Q18.8438 56 30.6094 56" id="BitstreamVeraSans-Roman-6f"/>
      </defs>
      <g transform="translate(436.948766176 395.402465385)rotate(-30.0)scale(0.12 -0.12)">
       <use xlink:href="#BitstreamVeraSans-Roman-4e"/>
       <use x="74.8046875" xlink:href="#BitstreamVeraSans-Roman-6f"/>
       <use x="135.986328125" xlink:href="#BitstreamVeraSans-Roman-76"/>
       <use x="195.166015625" xlink:href="#BitstreamVeraSans-Roman-20"/>
       <use x="226.953125" xlink:href="#BitstreamVeraSans-Roman-30"/>
       <use x="290.576171875" xlink:href="#BitstreamVeraSans-Roman-33"/>
       <use x="354.19921875" xlink:href="#BitstreamVeraSans-Roman-20"/>
       <use x="385.986328125" xlink:href="#BitstreamVeraSans-Roman-32"/>
       <use x="449.609375" xlink:href="#BitstreamVeraSans-Roman-30"/>
       <use x="513.232421875" xlink:href="#BitstreamVeraSans-Roman-31"/>
       <use x="576.85546875" xlink:href="#BitstreamVeraSans-Roman-35"/>
      </g>
     </g>
    </g>
   </g>
   <g id="matplotlib.axis_2">
    <g id="ytick_1">
     <g id="line2d_19">
      <defs>
       <path d="
M0 0
L4 0" id="m728421d6d4" style="stroke:#000000;stroke-width:0.5;"/>
      </defs>
      <g>
       <use style="stroke:#000000;stroke-width:0.5;" x="72.0" xlink:href="#m728421d6d4" y="300.427776277"/>
      </g>
     </g>
     <g id="line2d_20">
      <defs>
       <path d="
M0 0
L-4 0" id="mcb0005524f" style="stroke:#000000;stroke-width:0.5;"/>
      </defs>
      <g>
       <use style="stroke:#000000;stroke-width:0.5;" x="518.4" xlink:href="#mcb0005524f" y="300.427776277"/>
      </g>
     </g>
     <g id="text_9">
      <!-- 1000 -->
      <g transform="translate(39.575 303.739026277)scale(0.12 -0.12)">
       <use xlink:href="#BitstreamVeraSans-Roman-31"/>
       <use x="63.623046875" xlink:href="#BitstreamVeraSans-Roman-30"/>
       <use x="127.24609375" xlink:href="#BitstreamVeraSans-Roman-30"/>
       <use x="190.869140625" xlink:href="#BitstreamVeraSans-Roman-30"/>
      </g>
     </g>
    </g>
    <g id="ytick_2">
     <g id="line2d_21">
      <g>
       <use style="stroke:#000000;stroke-width:0.5;" x="72.0" xlink:href="#m728421d6d4" y="239.903593623"/>
      </g>
     </g>
     <g id="line2d_22">
      <g>
       <use style="stroke:#000000;stroke-width:0.5;" x="518.4" xlink:href="#mcb0005524f" y="239.903593623"/>
      </g>
     </g>
     <g id="text_10">
      <!-- 2000 -->
      <g transform="translate(39.13625 243.214843623)scale(0.12 -0.12)">
       <use xlink:href="#BitstreamVeraSans-Roman-32"/>
       <use x="63.623046875" xlink:href="#BitstreamVeraSans-Roman-30"/>
       <use x="127.24609375" xlink:href="#BitstreamVeraSans-Roman-30"/>
       <use x="190.869140625" xlink:href="#BitstreamVeraSans-Roman-30"/>
      </g>
     </g>
    </g>
    <g id="ytick_3">
     <g id="line2d_23">
      <g>
       <use style="stroke:#000000;stroke-width:0.5;" x="72.0" xlink:href="#m728421d6d4" y="179.37941097"/>
      </g>
     </g>
     <g id="line2d_24">
      <g>
       <use style="stroke:#000000;stroke-width:0.5;" x="518.4" xlink:href="#mcb0005524f" y="179.37941097"/>
      </g>
     </g>
     <g id="text_11">
      <!-- 3000 -->
      <g transform="translate(39.171875 182.69066097)scale(0.12 -0.12)">
       <use xlink:href="#BitstreamVeraSans-Roman-33"/>
       <use x="63.623046875" xlink:href="#BitstreamVeraSans-Roman-30"/>
       <use x="127.24609375" xlink:href="#BitstreamVeraSans-Roman-30"/>
       <use x="190.869140625" xlink:href="#BitstreamVeraSans-Roman-30"/>
      </g>
     </g>
    </g>
    <g id="ytick_4">
     <g id="line2d_25">
      <g>
       <use style="stroke:#000000;stroke-width:0.5;" x="72.0" xlink:href="#m728421d6d4" y="118.855228317"/>
      </g>
     </g>
     <g id="line2d_26">
      <g>
       <use style="stroke:#000000;stroke-width:0.5;" x="518.4" xlink:href="#mcb0005524f" y="118.855228317"/>
      </g>
     </g>
     <g id="text_12">
      <!-- 4000 -->
      <defs>
       <path d="
M37.7969 64.3125
L12.8906 25.3906
L37.7969 25.3906
z

M35.2031 72.9062
L47.6094 72.9062
L47.6094 25.3906
L58.0156 25.3906
L58.0156 17.1875
L47.6094 17.1875
L47.6094 0
L37.7969 0
L37.7969 17.1875
L4.89062 17.1875
L4.89062 26.7031
z
" id="BitstreamVeraSans-Roman-34"/>
      </defs>
      <g transform="translate(38.84375 122.166478317)scale(0.12 -0.12)">
       <use xlink:href="#BitstreamVeraSans-Roman-34"/>
       <use x="63.623046875" xlink:href="#BitstreamVeraSans-Roman-30"/>
       <use x="127.24609375" xlink:href="#BitstreamVeraSans-Roman-30"/>
       <use x="190.869140625" xlink:href="#BitstreamVeraSans-Roman-30"/>
      </g>
     </g>
    </g>
    <g id="ytick_5">
     <g id="line2d_27">
      <g>
       <use style="stroke:#000000;stroke-width:0.5;" x="72.0" xlink:href="#m728421d6d4" y="58.3310456633"/>
      </g>
     </g>
     <g id="line2d_28">
      <g>
       <use style="stroke:#000000;stroke-width:0.5;" x="518.4" xlink:href="#mcb0005524f" y="58.3310456633"/>
      </g>
     </g>
     <g id="text_13">
      <!-- 5000 -->
      <g transform="translate(39.183125 61.6422956633)scale(0.12 -0.12)">
       <use xlink:href="#BitstreamVeraSans-Roman-35"/>
       <use x="63.623046875" xlink:href="#BitstreamVeraSans-Roman-30"/>
       <use x="127.24609375" xlink:href="#BitstreamVeraSans-Roman-30"/>
       <use x="190.869140625" xlink:href="#BitstreamVeraSans-Roman-30"/>
      </g>
     </g>
    </g>
   </g>
   <g id="text_14">
    <!-- Kalkstein -->
    <defs>
     <path d="
M9.8125 72.9062
L19.6719 72.9062
L19.6719 42.0938
L52.3906 72.9062
L65.0938 72.9062
L28.9062 38.9219
L67.6719 0
L54.6875 0
L19.6719 35.1094
L19.6719 0
L9.8125 0
z
" id="BitstreamVeraSans-Roman-4b"/>
     <path d="
M54.8906 33.0156
L54.8906 0
L45.9062 0
L45.9062 32.7188
Q45.9062 40.4844 42.875 44.3281
Q39.8438 48.1875 33.7969 48.1875
Q26.5156 48.1875 22.3125 43.5469
Q18.1094 38.9219 18.1094 30.9062
L18.1094 0
L9.07812 0
L9.07812 54.6875
L18.1094 54.6875
L18.1094 46.1875
Q21.3438 51.125 25.7031 53.5625
Q30.0781 56 35.7969 56
Q45.2188 56 50.0469 50.1719
Q54.8906 44.3438 54.8906 33.0156" id="BitstreamVeraSans-Roman-6e"/>
     <path d="
M9.42188 75.9844
L18.4062 75.9844
L18.4062 0
L9.42188 0
z
" id="BitstreamVeraSans-Roman-6c"/>
     <path d="
M9.07812 75.9844
L18.1094 75.9844
L18.1094 31.1094
L44.9219 54.6875
L56.3906 54.6875
L27.3906 29.1094
L57.625 0
L45.9062 0
L18.1094 26.7031
L18.1094 0
L9.07812 0
z
" id="BitstreamVeraSans-Roman-6b"/>
     <path d="
M9.42188 54.6875
L18.4062 54.6875
L18.4062 0
L9.42188 0
z

M9.42188 75.9844
L18.4062 75.9844
L18.4062 64.5938
L9.42188 64.5938
z
" id="BitstreamVeraSans-Roman-69"/>
     <path d="
M56.2031 29.5938
L56.2031 25.2031
L14.8906 25.2031
Q15.4844 15.9219 20.4844 11.0625
Q25.4844 6.20312 34.4219 6.20312
Q39.5938 6.20312 44.4531 7.46875
Q49.3125 8.73438 54.1094 11.2812
L54.1094 2.78125
Q49.2656 0.734375 44.1875 -0.34375
Q39.1094 -1.42188 33.8906 -1.42188
Q20.7969 -1.42188 13.1562 6.1875
Q5.51562 13.8125 5.51562 26.8125
Q5.51562 40.2344 12.7656 48.1094
Q20.0156 56 32.3281 56
Q43.3594 56 49.7812 48.8906
Q56.2031 41.7969 56.2031 29.5938
M47.2188 32.2344
Q47.125 39.5938 43.0938 43.9844
Q39.0625 48.3906 32.4219 48.3906
Q24.9062 48.3906 20.3906 44.1406
Q15.875 39.8906 15.1875 32.1719
z
" id="BitstreamVeraSans-Roman-65"/>
     <path d="
M34.2812 27.4844
Q23.3906 27.4844 19.1875 25
Q14.9844 22.5156 14.9844 16.5
Q14.9844 11.7188 18.1406 8.90625
Q21.2969 6.10938 26.7031 6.10938
Q34.1875 6.10938 38.7031 11.4062
Q43.2188 16.7031 43.2188 25.4844
L43.2188 27.4844
z

M52.2031 31.2031
L52.2031 0
L43.2188 0
L43.2188 8.29688
Q40.1406 3.32812 35.5469 0.953125
Q30.9531 -1.42188 24.3125 -1.42188
Q15.9219 -1.42188 10.9531 3.29688
Q6 8.01562 6 15.9219
Q6 25.1406 12.1719 29.8281
Q18.3594 34.5156 30.6094 34.5156
L43.2188 34.5156
L43.2188 35.4062
Q43.2188 41.6094 39.1406 45
Q35.0625 48.3906 27.6875 48.3906
Q23 48.3906 18.5469 47.2656
Q14.1094 46.1406 10.0156 43.8906
L10.0156 52.2031
Q14.9375 54.1094 19.5781 55.0469
Q24.2188 56 28.6094 56
Q40.4844 56 46.3438 49.8438
Q52.2031 43.7031 52.2031 31.2031" id="BitstreamVeraSans-Roman-61"/>
     <path d="
M44.2812 53.0781
L44.2812 44.5781
Q40.4844 46.5312 36.375 47.5
Q32.2812 48.4844 27.875 48.4844
Q21.1875 48.4844 17.8438 46.4375
Q14.5 44.3906 14.5 40.2812
Q14.5 37.1562 16.8906 35.375
Q19.2812 33.5938 26.5156 31.9844
L29.5938 31.2969
Q39.1562 29.25 43.1875 25.5156
Q47.2188 21.7812 47.2188 15.0938
Q47.2188 7.46875 41.1875 3.01562
Q35.1562 -1.42188 24.6094 -1.42188
Q20.2188 -1.42188 15.4531 -0.5625
Q10.6875 0.296875 5.42188 2
L5.42188 11.2812
Q10.4062 8.6875 15.2344 7.39062
Q20.0625 6.10938 24.8125 6.10938
Q31.1562 6.10938 34.5625 8.28125
Q37.9844 10.4531 37.9844 14.4062
Q37.9844 18.0625 35.5156 20.0156
Q33.0625 21.9688 24.7031 23.7812
L21.5781 24.5156
Q13.2344 26.2656 9.51562 29.9062
Q5.8125 33.5469 5.8125 39.8906
Q5.8125 47.6094 11.2812 51.7969
Q16.75 56 26.8125 56
Q31.7812 56 36.1719 55.2656
Q40.5781 54.5469 44.2812 53.0781" id="BitstreamVeraSans-Roman-73"/>
    </defs>
    <g transform="translate(455.54625 38.2)scale(0.144 -0.144)">
     <use xlink:href="#BitstreamVeraSans-Roman-4b"/>
     <use x="63.826171875" xlink:href="#BitstreamVeraSans-Roman-61"/>
     <use x="125.10546875" xlink:href="#BitstreamVeraSans-Roman-6c"/>
     <use x="152.888671875" xlink:href="#BitstreamVeraSans-Roman-6b"/>
     <use x="210.798828125" xlink:href="#BitstreamVeraSans-Roman-73"/>
     <use x="262.8984375" xlink:href="#BitstreamVeraSans-Roman-74"/>
     <use x="302.107421875" xlink:href="#BitstreamVeraSans-Roman-65"/>
     <use x="363.630859375" xlink:href="#BitstreamVeraSans-Roman-69"/>
     <use x="391.4140625" xlink:href="#BitstreamVeraSans-Roman-6e"/>
    </g>
   </g>
   <g id="legend_1">
    <g id="patch_7">
     <path d="
M123.942 423.616
L466.458 423.616
L466.458 398.16
L123.942 398.16
z
" style="fill:#ffffff;stroke:#000000;stroke-linejoin:miter;"/>
    </g>
    <g id="line2d_29">
     <path d="
M134.022 409.822
L154.182 409.822" style="fill:none;stroke:#ff0000;stroke-linecap:square;"/>
    </g>
    <g id="line2d_30"/>
    <g id="text_15">
     <!-- Schwarzmarktpreis -->
     <defs>
      <path d="
M52 44.1875
Q55.375 50.25 60.0625 53.125
Q64.75 56 71.0938 56
Q79.6406 56 84.2812 50.0156
Q88.9219 44.0469 88.9219 33.0156
L88.9219 0
L79.8906 0
L79.8906 32.7188
Q79.8906 40.5781 77.0938 44.375
Q74.3125 48.1875 68.6094 48.1875
Q61.625 48.1875 57.5625 43.5469
Q53.5156 38.9219 53.5156 30.9062
L53.5156 0
L44.4844 0
L44.4844 32.7188
Q44.4844 40.625 41.7031 44.4062
Q38.9219 48.1875 33.1094 48.1875
Q26.2188 48.1875 22.1562 43.5312
Q18.1094 38.875 18.1094 30.9062
L18.1094 0
L9.07812 0
L9.07812 54.6875
L18.1094 54.6875
L18.1094 46.1875
Q21.1875 51.2188 25.4844 53.6094
Q29.7812 56 35.6875 56
Q41.6562 56 45.8281 52.9688
Q50 49.9531 52 44.1875" id="BitstreamVeraSans-Roman-6d"/>
      <path d="
M5.51562 54.6875
L48.1875 54.6875
L48.1875 46.4844
L14.4062 7.17188
L48.1875 7.17188
L48.1875 0
L4.29688 0
L4.29688 8.20312
L38.0938 47.5156
L5.51562 47.5156
z
" id="BitstreamVeraSans-Roman-7a"/>
      <path d="
M53.5156 70.5156
L53.5156 60.8906
Q47.9062 63.5781 42.9219 64.8906
Q37.9375 66.2188 33.2969 66.2188
Q25.25 66.2188 20.875 63.0938
Q16.5 59.9688 16.5 54.2031
Q16.5 49.3594 19.4062 46.8906
Q22.3125 44.4375 30.4219 42.9219
L36.375 41.7031
Q47.4062 39.5938 52.6562 34.2969
Q57.9062 29 57.9062 20.125
Q57.9062 9.51562 50.7969 4.04688
Q43.7031 -1.42188 29.9844 -1.42188
Q24.8125 -1.42188 18.9688 -0.25
Q13.1406 0.921875 6.89062 3.21875
L6.89062 13.375
Q12.8906 10.0156 18.6562 8.29688
Q24.4219 6.59375 29.9844 6.59375
Q38.4219 6.59375 43.0156 9.90625
Q47.6094 13.2344 47.6094 19.3906
Q47.6094 24.75 44.3125 27.7812
Q41.0156 30.8125 33.5 32.3281
L27.4844 33.5
Q16.4531 35.6875 11.5156 40.375
Q6.59375 45.0625 6.59375 53.4219
Q6.59375 63.0938 13.4062 68.6562
Q20.2188 74.2188 32.1719 74.2188
Q37.3125 74.2188 42.625 73.2812
Q47.9531 72.3594 53.5156 70.5156" id="BitstreamVeraSans-Roman-53"/>
      <path d="
M54.8906 33.0156
L54.8906 0
L45.9062 0
L45.9062 32.7188
Q45.9062 40.4844 42.875 44.3281
Q39.8438 48.1875 33.7969 48.1875
Q26.5156 48.1875 22.3125 43.5469
Q18.1094 38.9219 18.1094 30.9062
L18.1094 0
L9.07812 0
L9.07812 75.9844
L18.1094 75.9844
L18.1094 46.1875
Q21.3438 51.125 25.7031 53.5625
Q30.0781 56 35.7969 56
Q45.2188 56 50.0469 50.1719
Q54.8906 44.3438 54.8906 33.0156" id="BitstreamVeraSans-Roman-68"/>
      <path d="
M4.20312 54.6875
L13.1875 54.6875
L24.4219 12.0156
L35.5938 54.6875
L46.1875 54.6875
L57.4219 12.0156
L68.6094 54.6875
L77.5938 54.6875
L63.2812 0
L52.6875 0
L40.9219 44.8281
L29.1094 0
L18.5 0
z
" id="BitstreamVeraSans-Roman-77"/>
      <path d="
M41.1094 46.2969
Q39.5938 47.1719 37.8125 47.5781
Q36.0312 48 33.8906 48
Q26.2656 48 22.1875 43.0469
Q18.1094 38.0938 18.1094 28.8125
L18.1094 0
L9.07812 0
L9.07812 54.6875
L18.1094 54.6875
L18.1094 46.1875
Q20.9531 51.1719 25.4844 53.5781
Q30.0312 56 36.5312 56
Q37.4531 56 38.5781 55.875
Q39.7031 55.7656 41.0625 55.5156
z
" id="BitstreamVeraSans-Roman-72"/>
      <path d="
M18.1094 8.20312
L18.1094 -20.7969
L9.07812 -20.7969
L9.07812 54.6875
L18.1094 54.6875
L18.1094 46.3906
Q20.9531 51.2656 25.2656 53.625
Q29.5938 56 35.5938 56
Q45.5625 56 51.7812 48.0938
Q58.0156 40.1875 58.0156 27.2969
Q58.0156 14.4062 51.7812 6.48438
Q45.5625 -1.42188 35.5938 -1.42188
Q29.5938 -1.42188 25.2656 0.953125
Q20.9531 3.32812 18.1094 8.20312
M48.6875 27.2969
Q48.6875 37.2031 44.6094 42.8438
Q40.5312 48.4844 33.4062 48.4844
Q26.2656 48.4844 22.1875 42.8438
Q18.1094 37.2031 18.1094 27.2969
Q18.1094 17.3906 22.1875 11.75
Q26.2656 6.10938 33.4062 6.10938
Q40.5312 6.10938 44.6094 11.75
Q48.6875 17.3906 48.6875 27.2969" id="BitstreamVeraSans-Roman-70"/>
     </defs>
     <g transform="translate(170.022375 414.86175)scale(0.144 -0.144)">
      <use xlink:href="#BitstreamVeraSans-Roman-53"/>
      <use x="63.4765625" xlink:href="#BitstreamVeraSans-Roman-63"/>
      <use x="118.45703125" xlink:href="#BitstreamVeraSans-Roman-68"/>
      <use x="181.8359375" xlink:href="#BitstreamVeraSans-Roman-77"/>
      <use x="263.623046875" xlink:href="#BitstreamVeraSans-Roman-61"/>
      <use x="324.90234375" xlink:href="#BitstreamVeraSans-Roman-72"/>
      <use x="366.015625" xlink:href="#BitstreamVeraSans-Roman-7a"/>
      <use x="418.505859375" xlink:href="#BitstreamVeraSans-Roman-6d"/>
      <use x="515.91796875" xlink:href="#BitstreamVeraSans-Roman-61"/>
      <use x="577.197265625" xlink:href="#BitstreamVeraSans-Roman-72"/>
      <use x="618.310546875" xlink:href="#BitstreamVeraSans-Roman-6b"/>
      <use x="676.220703125" xlink:href="#BitstreamVeraSans-Roman-74"/>
      <use x="715.4296875" xlink:href="#BitstreamVeraSans-Roman-70"/>
      <use x="778.90625" xlink:href="#BitstreamVeraSans-Roman-72"/>
      <use x="817.76953125" xlink:href="#BitstreamVeraSans-Roman-65"/>
      <use x="879.29296875" xlink:href="#BitstreamVeraSans-Roman-69"/>
      <use x="907.076171875" xlink:href="#BitstreamVeraSans-Roman-73"/>
     </g>
    </g>
    <g id="line2d_31">
     <path d="
M339.609 409.822
L359.769 409.822" style="fill:none;stroke:#008000;stroke-linecap:square;"/>
    </g>
    <g id="line2d_32"/>
    <g id="text_16">
     <!-- Normalpreis -->
     <g transform="translate(375.609375 414.86175)scale(0.144 -0.144)">
      <use xlink:href="#BitstreamVeraSans-Roman-4e"/>
      <use x="74.8046875" xlink:href="#BitstreamVeraSans-Roman-6f"/>
      <use x="135.986328125" xlink:href="#BitstreamVeraSans-Roman-72"/>
      <use x="175.349609375" xlink:href="#BitstreamVeraSans-Roman-6d"/>
      <use x="272.76171875" xlink:href="#BitstreamVeraSans-Roman-61"/>
      <use x="334.041015625" xlink:href="#BitstreamVeraSans-Roman-6c"/>
      <use x="361.82421875" xlink:href="#BitstreamVeraSans-Roman-70"/>
      <use x="425.30078125" xlink:href="#BitstreamVeraSans-Roman-72"/>
      <use x="464.1640625" xlink:href="#BitstreamVeraSans-Roman-65"/>
      <use x="525.6875" xlink:href="#BitstreamVeraSans-Roman-69"/>
      <use x="553.470703125" xlink:href="#BitstreamVeraSans-Roman-73"/>
     </g>
    </g>
   </g>
  </g>
 </g>
 <defs>
  <clipPath id="pcb2bf987bf">
   <rect height="302.4" width="446.4" x="72.0" y="43.2"/>
  </clipPath>
 </defs>
</svg>
