<?xml version="1.0" encoding="utf-8" standalone="no"?>
<!DOCTYPE svg PUBLIC "-//W3C//DTD SVG 1.1//EN"
  "http://www.w3.org/Graphics/SVG/1.1/DTD/svg11.dtd">
<!-- Created with matplotlib (http://matplotlib.org/) -->
<svg height="432pt" version="1.1" viewBox="0 0 576 432" width="576pt" xmlns="http://www.w3.org/2000/svg" xmlns:xlink="http://www.w3.org/1999/xlink">
 <defs>
  <style type="text/css">
*{stroke-linecap:butt;stroke-linejoin:round;}
  </style>
 </defs>
 <g id="figure_1">
  <g id="patch_1">
   <path d="
M0 432
L576 432
L576 0
L0 0
z
" style="fill:#ffffff;"/>
  </g>
  <g id="axes_1">
   <g id="patch_2">
    <path d="
M72 345.6
L518.4 345.6
L518.4 43.2
L72 43.2
z
" style="fill:#ffffff;"/>
   </g>
   <g id="line2d_1">
    <path clip-path="url(#pcb2bf987bf)" d="
M72 229.986
L72.5105 229.986
L72.7657 232.764
L72.8933 232.764
L73.1485 231.843
L73.659 231.843
L73.9142 229.252
L74.0419 229.252
L74.2971 230.187
L74.8075 230.187
L75.1904 227.369
L76.2113 227.368
L76.3389 225.465
L76.5942 224.506
L76.9772 224.506
L77.3599 223.542
L78.636 223.541
L78.8915 222.129
L79.0189 176.633
L79.4017 176.633
L79.6569 222.129
L80.0398 222.128
L80.1674 223.54
L80.4226 222.571
L80.5503 222.571
L80.8055 221.283
L81.1885 221.283
L81.316 222.571
L81.6988 222.571
L82.0816 219.64
L82.3371 218.651
L83.613 218.651
L83.8683 219.64
L83.9959 219.64
L84.2511 223.54
L86.6758 223.54
L86.931 230.187
L88.2072 230.142
L88.4624 229.207
L88.5901 229.207
L88.8453 230.142
L88.8453 230.142
L91.0148 230.142
L91.7804 229.207
L91.9081 228.268
L93.3118 228.268
L94.0775 230.142
L95.7365 230.142
L96.3746 229.074
L97.1403 229.074
L98.0336 230.141
L98.6717 230.142
L98.7993 229.207
L99.4374 230.142
L101.862 230.187
L110.285 230.187
L110.923 281.579
L111.05 280.9
L111.816 280.9
L113.986 280.488
L114.879 277.73
L116.41 275.883
L117.048 275.882
L117.814 274.465
L117.942 273.033
L118.58 239.091
L118.707 239.091
L119.345 261.169
L120.111 261.169
L121.004 260.387
L121.643 260.387
L122.536 260.016
L123.174 259.23
L124.067 259.23
L124.705 218.861
L125.471 216.831
L126.365 216.608
L127.002 217.87
L127.768 217.87
L128.534 215.871
L128.661 215.871
L130.065 213.854
L130.193 212.837
L130.831 211.815
L131.597 211.815
L132.362 217.87
L132.362 217.87
L133.894 218.861
L135.425 218.861
L136.318 217.87
L136.956 217.87
L137.722 215.871
L138.488 216.873
L139.381 215.871
L140.019 216.873
L141.678 216.873
L142.316 260.61
L143.082 261.173
L144.613 261.173
L145.379 259.61
L145.507 258.822
L146.272 258.822
L146.91 257.235
L147.676 257.235
L148.442 194.57
L149.335 194.569
L149.973 190.074
L150.867 190.074
L151.505 185.314
L152.27 188.938
L153.164 188.938
L153.802 215.829
L154.567 216.831
L155.333 215.829
L155.333 215.829
L156.099 216.831
L159.927 216.831
L160.693 254.671
L162.224 254.671
L162.99 253.858
L163.118 253.041
L163.756 254.671
L163.883 253.858
L164.649 253.858
L165.287 253.04
L166.053 251.379
L166.819 251.379
L167.584 250.55
L167.712 249.718
L168.35 249.718
L169.116 248.04
L169.881 248.04
L171.413 244.678
L173.072 244.678
L173.71 242.949
L174.603 243.543
L176.007 242.949
L176.9 242.949
L178.304 241.203
L179.963 239.44
L182.26 239.44
L182.898 238.552
L184.43 238.552
L185.961 236.762
L186.727 238.552
L188.258 236.762
L189.024 227.961
L189.151 236.762
L190.555 238.552
L192.852 235.861
L196.681 235.861
L198.212 234.955
L198.212 234.955
L198.978 235.861
L200.509 235.861
L201.275 235.4
L202.04 235.861
L202.806 236.762
L203.572 236.731
L203.699 235.83
L204.338 236.762
L205.103 234.955
L205.231 235.861
L205.869 235.861
L205.997 245.537
L207.911 245.537
L208.166 330.343
L209.059 329.034
L209.059 329.034
L209.442 329.034
L209.57 328.593
L209.825 328.593
L210.591 328.133
L210.846 324.991
L211.484 324.53
L212.633 324.53
L212.888 325.45
L214.164 325.449
L214.419 324.991
L214.802 324.976
L214.93 324.052
L215.313 324.036
L215.568 323.235
L215.695 323.235
L215.951 322.765
L215.951 322.765
L216.461 322.765
L216.589 322.293
L216.589 322.293
L216.844 322.293
L217.099 321.819
L217.227 321.343
L217.482 321.342
L217.482 321.342
L218.248 315.844
L218.248 315.844
L218.375 315.844
L218.758 310.124
L219.013 282.276
L219.141 282.276
L219.396 312.684
L219.779 308.243
L219.907 305.257
L220.162 306.555
L220.29 306.555
L220.29 306.555
L220.417 306.001
L220.545 306.001
L220.672 305.444
L220.672 305.444
L220.928 304.886
L221.055 303.762
L221.31 292.516
L221.438 305.444
L221.693 304.884
L222.459 298.55
L222.587 297.362
L223.225 297.362
L223.352 296.763
L223.608 294.782
L223.735 291.594
L224.118 291.594
L224.373 289.7
L224.501 289.686
L224.756 289.05
L225.139 287.115
L225.522 287.115
L225.649 287.763
L225.649 287.763
L225.905 283.162
L225.905 283.162
L226.288 283.162
L226.415 285.154
L226.415 285.154
L227.181 285.152
L227.436 284.486
L227.436 284.486
L227.946 284.486
L228.202 283.823
L228.712 283.823
L229.095 283.612
L231.775 283.611
L232.03 282.944
L232.924 282.944
L233.179 282.274
L233.306 283.543
L234.072 283.543
L234.327 282.202
L234.327 282.202
L235.093 282.202
L235.093 282.202
L235.221 281.528
L235.603 281.528
L235.859 282.202
L235.859 282.202
L235.986 281.528
L236.369 281.528
L236.624 280.849
L236.752 280.849
L237.007 281.528
L237.135 280.849
L237.518 280.849
L237.773 280.168
L238.666 280.168
L238.921 279.482
L239.432 279.482
L239.687 276.568
L239.815 276.568
L240.07 275.865
L240.198 275.865
L240.453 261.351
L240.453 261.351
L240.58 260.572
L240.836 280.168
L240.963 279.482
L241.219 278.794
L241.346 278.102
L241.601 277.408
L241.729 277.408
L241.984 263.985
L242.495 263.985
L242.75 263.219
L242.878 263.219
L243.133 263.985
L243.26 264.746
L243.516 264.746
L243.643 263.985
L244.664 263.985
L244.792 263.219
L245.047 263.985
L245.047 263.985
L245.175 263.98
L245.43 263.214
L245.557 263.214
L246.196 261.467
L247.344 261.467
L247.727 262.242
L247.855 262.242
L248.237 260.688
L248.62 260.688
L248.876 259.121
L248.876 259.121
L249.769 259.121
L250.024 258.33
L250.152 258.33
L250.407 261.467
L250.534 261.467
L250.79 262.242
L251.173 262.242
L251.3 261.467
L251.683 261.44
L251.938 260.661
L252.449 260.661
L252.704 259.878
L252.832 259.878
L253.087 259.092
L253.214 259.09
L253.47 258.299
L253.597 257.505
L253.852 256.705
L255.129 256.705
L255.129 256.705
L255.384 255.904
L255.511 255.904
L255.511 255.904
L255.767 256.705
L255.767 256.705
L256.277 256.705
L256.532 254.738
L256.66 254.738
L256.66 254.738
L256.915 253.925
L257.043 253.925
L257.298 253.108
L257.426 253.108
L257.681 253.925
L257.809 256.349
L258.064 255.546
L258.064 255.546
L258.574 255.546
L258.702 242.675
L259.595 242.675
L259.595 242.675
L259.723 254.738
L259.978 255.546
L260.106 255.546
L260.361 256.349
L260.744 256.349
L260.871 224.381
L261.127 256.705
L262.02 256.705
L262.275 255.904
L262.658 255.904
L262.786 255.098
L263.041 209.767
L264.7 209.767
L264.955 254.287
L264.955 254.287
L265.083 254.287
L265.338 252.447
L265.593 252.425
L265.848 254.673
L266.104 253.861
L266.231 253.044
L266.486 252.447
L266.614 251.623
L266.997 251.623
L267.252 252.447
L267.635 252.447
L267.763 251.623
L268.145 251.463
L269.677 251.463
L269.932 250.221
L270.315 250.221
L270.443 249.386
L270.698 250.221
L270.825 250.221
L271.081 249.386
L272.357 249.375
L272.74 246.844
L272.995 246.844
L273.122 245.991
L273.888 245.991
L274.143 246.844
L274.271 245.992
L274.526 245.137
L274.909 245.137
L274.909 245.137
L275.037 243.414
L275.292 246.844
L276.058 246.844
L276.185 239.091
L276.568 239.091
L276.823 245.992
L277.589 245.992
L277.717 245.137
L278.099 245.137
L278.355 244.278
L278.865 244.278
L279.12 243.414
L279.248 244.278
L279.503 243.414
L280.397 243.414
L280.652 242.546
L280.779 242.546
L281.035 241.673
L281.035 241.673
L281.545 241.673
L281.801 249.286
L282.566 249.286
L282.694 248.985
L283.077 248.985
L283.332 247.995
L283.459 247.995
L283.715 239.091
L283.842 239.091
L284.097 247.149
L284.225 247.149
L284.48 245.854
L284.736 245.854
L285.246 244.58
L285.374 244.58
L285.629 243.717
L286.522 243.717
L286.777 242.848
L287.288 242.848
L287.671 242.653
L287.926 241.762
L288.054 213.158
L288.437 213.158
L288.692 214.173
L289.585 214.173
L289.84 213.158
L290.351 213.157
L290.606 212.138
L290.861 203.096
L291.116 211.933
L291.499 211.933
L291.754 210.907
L292.137 209.876
L292.648 209.876
L292.903 211.933
L293.031 210.152
L293.413 210.152
L293.669 211.933
L293.796 211.933
L294.051 207.926
L294.051 207.926
L294.945 207.926
L295.2 206.88
L295.328 205.829
L295.71 205.829
L295.966 204.772
L296.731 204.772
L296.859 203.71
L297.114 202.644
L298.773 202.644
L299.028 201.571
L299.156 200.494
L299.411 194.57
L299.539 202.644
L299.794 202.644
L299.922 204.772
L300.177 203.71
L300.177 203.71
L300.56 203.71
L300.687 202.644
L300.943 203.71
L302.474 203.71
L302.474 203.71
L302.857 204.772
L303.368 204.772
L303.623 203.71
L304.388 203.71
L304.771 211.085
L304.899 209.019
L305.154 209.019
L305.282 212.111
L307.068 212.138
L307.068 212.138
L307.196 211.112
L307.451 211.112
L307.962 206.96
L308.727 206.96
L308.983 209.046
L309.493 209.046
L309.748 208.007
L310.514 208.007
L310.642 206.96
L311.407 206.96
L311.662 205.91
L311.79 204.852
L312.173 204.852
L312.556 202.896
L312.939 202.896
L313.194 201.825
L313.321 201.825
L313.577 202.896
L314.853 202.896
L315.108 204.852
L315.491 204.852
L315.619 242.675
L317.788 242.674
L317.916 241.802
L318.171 242.674
L318.298 241.802
L318.937 241.802
L319.064 242.653
L319.447 242.653
L319.702 240.903
L321.361 240.898
L321.616 240.017
L322.127 240.017
L322.893 239.131
L323.914 239.131
L323.914 239.131
L324.041 238.241
L324.807 238.241
L325.19 239.131
L325.573 239.09
L325.828 237.306
L326.976 237.306
L327.104 236.406
L327.359 236.406
L327.487 235.503
L328.252 235.503
L328.508 234.594
L330.039 234.594
L330.167 233.682
L332.081 233.682
L332.336 232.747
L333.995 232.747
L334.25 233.682
L335.909 233.682
L336.165 232.764
L336.292 233.682
L338.972 233.681
L339.227 232.764
L339.355 231.843
L340.504 231.842
L340.759 230.917
L341.269 230.917
L341.525 229.986
L341.907 229.986
L342.035 229.051
L344.97 229.051
L345.098 228.11
L346.246 228.094
L346.502 227.148
L346.629 228.094
L348.033 228.094
L348.161 227.148
L348.416 228.11
L348.543 228.11
L348.799 227.164
L348.926 225.323
L349.181 227.164
L349.309 227.164
L349.564 226.213
L349.692 226.213
L349.947 225.258
L350.075 226.213
L350.33 224.266
L350.458 224.266
L350.713 223.302
L351.224 223.302
L351.606 222.333
L351.989 222.333
L352.244 221.358
L353.776 221.358
L353.776 221.358
L354.158 222.333
L354.541 222.333
L354.669 221.358
L354.924 221.358
L355.052 220.379
L355.307 220.379
L355.307 220.379
L355.435 219.395
L355.817 219.395
L356.073 218.407
L356.583 218.407
L356.838 194.57
L358.88 194.57
L359.136 220.379
L360.795 220.379
L361.05 219.395
L362.326 219.395
L362.581 217.414
L364.495 217.414
L364.623 218.407
L365.006 218.407
L365.261 222.333
L365.389 222.333
L365.644 215.833
L366.027 215.833
L366.027 215.833
L366.155 222.262
L366.92 222.318
L367.175 223.286
L367.558 223.286
L367.686 225.225
L368.324 225.225
L368.451 224.266
L368.707 224.265
L369.09 223.954
L369.472 222.988
L369.6 222.017
L369.983 222.017
L370.238 221.042
L370.366 221.042
L370.621 222.988
L370.749 222.988
L371.004 223.954
L371.131 223.954
L371.387 222.988
L371.514 222.017
L371.769 223.954
L371.897 222.988
L373.046 222.908
L373.301 221.937
L373.811 221.937
L374.067 220.96
L374.194 220.96
L374.449 219.978
L376.108 219.978
L376.364 220.96
L377.767 220.96
L378.023 216.831
L378.278 215.829
L379.426 215.829
L379.554 214.823
L380.703 214.823
L380.958 213.81
L381.086 213.81
L381.341 214.823
L381.723 214.823
L381.851 213.81
L382.107 212.824
L383.255 212.823
L383.383 211.802
L383.638 211.802
L384.021 209.743
L384.531 209.743
L384.786 208.706
L385.297 208.706
L385.552 207.664
L385.68 207.664
L385.935 208.706
L386.062 208.706
L386.318 206.615
L386.701 206.615
L386.828 205.562
L387.083 208.706
L387.211 207.664
L387.594 207.664
L387.849 206.615
L387.977 205.562
L388.232 193.457
L388.232 193.457
L389.38 193.457
L389.508 194.57
L389.763 193.457
L389.891 193.457
L390.146 192.339
L390.274 105.531
L390.529 192.339
L391.295 192.331
L391.422 169.837
L391.678 169.837
L391.805 192.33
L394.868 192.339
L395.123 208.706
L395.634 208.706
L395.889 207.664
L400.228 207.664
L400.483 206.615
L400.611 206.595
L400.866 205.542
L400.993 205.542
L401.249 206.595
L401.632 206.595
L402.014 203.421
L404.056 203.421
L404.311 202.352
L405.97 202.352
L406.226 203.421
L406.609 203.421
L406.736 202.352
L407.374 202.352
L407.502 201.277
L408.906 201.277
L409.033 203.421
L409.289 203.421
L409.416 202.352
L409.671 203.421
L410.182 203.421
L410.437 202.352
L410.82 202.352
L410.948 201.277
L411.203 200.198
L411.33 200.198
L411.586 199.114
L411.968 199.114
L412.096 194.57
L413.245 194.57
L413.5 199.114
L413.627 199.114
L413.883 198.023
L414.648 198.023
L414.776 199.114
L415.925 199.114
L416.18 198.023
L416.69 198.023
L416.945 196.928
L417.073 195.826
L417.456 195.826
L417.711 194.719
L418.094 194.719
L418.222 195.826
L418.987 195.826
L419.243 194.719
L419.37 194.719
L419.625 193.606
L419.753 193.606
L420.008 195.826
L420.136 194.719
L420.391 194.719
L420.519 193.606
L421.284 193.606
L421.54 191.365
L421.667 192.489
L421.922 193.606
L422.05 194.719
L422.433 194.719
L422.816 194.57
L424.347 194.57
L424.602 193.457
L425.496 193.457
L425.751 194.719
L425.879 194.719
L426.261 194.57
L426.517 194.57
L426.644 194.719
L426.899 193.606
L427.41 193.606
L427.665 191.365
L428.048 191.364
L428.176 190.236
L428.431 190.236
L428.558 189.101
L428.814 190.236
L429.324 190.236
L429.579 189.101
L430.345 189.101
L430.473 187.961
L431.877 187.961
L432.004 186.815
L434.301 186.815
L434.556 187.892
L434.684 186.746
L435.45 186.746
L435.705 187.892
L436.471 187.892
L436.598 185.593
L436.854 184.435
L436.981 184.435
L437.236 182.102
L437.747 182.102
L438.002 179.745
L439.151 179.745
L439.533 180.927
L441.575 180.927
L441.831 182.102
L441.831 182.102
L442.341 182.102
L442.596 180.927
L443.107 180.927
L443.362 178.558
L444.255 178.558
L444.638 171.691
L444.893 172.913
L445.021 171.691
L447.701 171.691
L447.956 150.047
L448.084 150.047
L448.339 148.712
L448.849 148.712
L449.105 150.047
L450.126 150.047
L450.381 148.712
L451.019 148.712
L451.146 147.369
L452.295 147.356
L452.55 146.02
L453.826 146.02
L454.082 144.665
L454.847 144.665
L454.847 144.665
L454.975 147.369
L455.23 148.712
L455.358 147.369
L455.613 148.712
L456.123 148.712
L456.379 150.047
L457.272 150.047
L457.527 148.712
L457.655 150.047
L458.421 150.047
L458.676 147.369
L459.186 147.369
L459.442 150.047
L460.973 150.047
L461.101 148.712
L461.484 148.712
L461.739 147.369
L461.866 148.711
L462.504 148.711
L462.632 147.369
L462.887 148.711
L463.27 148.711
L463.398 150.047
L464.163 150.046
L464.419 148.712
L464.546 148.712
L464.801 147.369
L465.695 147.369
L465.95 150.046
L466.078 150.046
L466.333 148.712
L466.46 150.046
L468.247 150.047
L468.63 147.369
L469.14 147.369
L469.396 148.712
L469.523 148.712
L469.778 147.369
L469.906 148.712
L470.161 150.047
L471.437 150.047
L471.693 171.691
L481.647 171.691
L481.774 233.032
L482.54 233.032
L482.795 234.859
L482.923 233.947
L483.306 233.949
L483.561 234.861
L484.071 234.861
L484.327 233.949
L485.092 233.949
L485.22 234.861
L485.475 237.753
L486.368 237.753
L486.624 305.315
L487.134 305.315
L487.389 304.193
L489.304 304.162
L489.431 303.646
L489.686 304.162
L490.58 304.162
L490.835 283.612
L490.963 283.612
L491.218 282.944
L491.984 282.944
L492.111 282.274
L492.494 282.274
L492.749 272.368
L493.26 272.368
L493.515 271.644
L493.643 271.644
L493.898 282.944
L494.026 282.944
L494.408 282.719
L494.663 282.719
L494.791 282.047
L495.046 281.37
L495.174 280.691
L495.429 280.008
L495.684 278.632
L495.812 278.632
L495.812 278.632
L495.94 277.94
L496.322 272.07
L496.705 272.07
L496.961 271.344
L497.854 271.344
L498.237 271.145
L498.62 271.145
L498.875 270.416
L499.002 270.416
L499.258 269.677
L499.258 269.677
L499.385 269.677
L499.64 268.94
L499.768 268.94
L500.023 268.198
L500.151 268.198
L500.406 267.453
L501.172 267.452
L501.299 265.952
L501.555 265.196
L501.682 264.436
L501.938 265.196
L502.448 265.193
L502.703 251.075
L502.831 250.246
L503.214 250.245
L503.469 238.779
L503.597 215.626
L503.979 215.626
L504.235 214.618
L504.362 214.618
L504.617 238.779
L505.128 238.779
L505.383 249.41
L505.511 248.572
L505.766 247.728
L507.042 247.728
L507.297 246.88
L507.425 246.027
L507.68 245.172
L508.574 245.172
L508.829 244.313
L509.339 238.2
L509.595 237.306
L509.977 237.306
L510.36 234.594
L511.126 234.594
L511.509 216.831
L511.636 234.194
L511.892 232.858
L512.274 194.57
L513.168 194.57
L513.423 233.748
L513.551 232.413
L513.806 232.413
L513.933 231.489
L514.954 231.489
L515.082 230.561
L515.337 230.561
L515.72 225.85
L515.848 225.735
L516.103 224.777
L516.231 223.816
L516.486 223.816
L516.613 222.85
L516.869 223.816
L516.996 223.816
L517.251 61.0083
L517.379 223.816
L517.762 223.816
L518.145 223.509
L518.4 222.54
L518.4 222.54" style="fill:none;stroke:#ff0000;stroke-linecap:square;"/>
   </g>
   <g id="line2d_2">
    <path clip-path="url(#pcb2bf987bf)" d="
M72 339.046
L72.7657 339.048
L72.8933 339.23
L73.5314 339.23
L73.659 339.008
L76.5942 338.929
L76.7218 337.629
L78.8915 337.686
L79.0189 338.641
L81.1885 338.706
L81.5712 338.762
L84.2511 338.812
L84.3787 338.891
L87.3139 338.923
L87.4415 339.379
L88.8453 339.388
L88.8453 339.388
L88.9729 339.168
L91.0148 339.269
L100.331 339.401
L100.969 339.126
L101.862 338.175
L109.519 338.27
L111.816 338.518
L113.986 337.927
L114.879 337.892
L116.41 338.008
L117.942 337.914
L118.707 337.951
L119.345 338.128
L123.174 338.155
L125.471 337.148
L126.365 337.424
L127.13 337.442
L127.13 337.442
L127.768 337.62
L131.597 337.685
L132.362 337.934
L132.362 337.934
L136.318 337.954
L136.956 338.107
L137.722 338.155
L138.488 338.953
L142.316 339.085
L143.082 338.069
L145.507 338.111
L146.272 337.782
L147.038 337.982
L147.676 337.865
L148.442 337.997
L149.335 337.536
L149.973 337.506
L150.867 337.277
L151.505 337.234
L152.27 337.017
L153.164 337.017
L153.802 337.718
L154.567 338.092
L157.758 338.083
L158.396 337.868
L160.821 338.036
L162.224 337.994
L163.118 338.083
L163.883 339.149
L164.649 339.408
L169.243 339.649
L169.881 339.241
L170.775 338.221
L174.603 338.095
L176.007 339.229
L176.9 339.133
L179.963 339.233
L180.729 339.141
L189.024 339.3
L198.212 339.374
L198.212 339.374
L201.275 339.498
L202.806 339.511
L203.699 339.724
L205.231 339.747
L205.997 339.924
L206.124 340.365
L206.762 340.365
L207.4 338.238
L208.166 338.245
L209.059 337.998
L209.059 337.998
L209.442 337.274
L209.825 337.274
L210.591 337.416
L210.846 336.494
L211.356 336.494
L211.484 335.707
L212.888 335.698
L213.398 335.831
L214.419 335.816
L214.547 336.755
L215.185 336.755
L215.185 336.755
L215.313 336.299
L215.951 336.299
L215.951 336.299
L216.078 335.546
L217.482 335.566
L217.482 335.566
L217.61 335.16
L218.248 335.16
L218.248 335.16
L218.375 334.473
L219.013 334.473
L219.141 335.788
L220.545 335.831
L220.672 336.657
L220.672 336.657
L221.31 336.657
L221.438 336.312
L222.076 336.312
L222.204 336.728
L222.842 336.728
L222.842 336.728
L223.352 337.225
L223.608 337.225
L223.735 337.008
L225.139 336.984
L225.267 336.523
L225.905 336.523
L225.905 336.523
L226.032 336.763
L226.032 336.763
L226.67 336.763
L226.798 338.271
L227.436 338.271
L227.436 338.271
L227.946 338.138
L228.967 338.129
L229.095 337.847
L233.562 337.924
L234.072 337.959
L238.921 338.059
L239.049 338.328
L239.687 338.328
L239.815 338.643
L240.453 338.643
L240.453 338.643
L240.58 338.506
L241.219 338.506
L241.346 338.854
L241.984 338.854
L242.112 338.7
L243.516 338.794
L243.643 339.298
L245.047 339.206
L245.047 339.206
L245.557 339.171
L246.578 339.171
L246.578 339.171
L246.706 338.941
L250.407 339.016
L250.79 339.062
L251.938 339.081
L252.066 337.916
L253.47 337.906
L253.597 337.522
L254.235 337.522
L254.363 337.388
L255.767 337.456
L255.767 337.456
L255.894 337.552
L257.298 337.553
L257.426 338.022
L258.83 338.061
L258.957 337.733
L259.595 337.733
L259.595 337.733
L259.723 338.105
L261.127 338.154
L261.254 339.257
L263.424 339.247
L263.424 339.247
L263.551 338.847
L266.486 338.917
L266.614 339.228
L268.018 339.235
L268.145 338.838
L270.315 338.746
L270.443 338.635
L271.081 338.635
L271.463 338.767
L272.612 338.776
L272.74 338.654
L274.909 338.674
L274.909 338.674
L275.037 338.785
L277.972 338.797
L277.972 338.797
L278.099 339.882
L281.801 339.948
L282.566 340.005
L282.694 340.224
L283.332 340.224
L283.459 340.113
L285.629 340.097
L285.756 339.052
L287.926 339.011
L288.054 338.9
L293.286 338.963
L293.286 338.963
L293.413 339.046
L295.583 338.959
L295.71 339.335
L297.114 339.344
L297.242 338.977
L300.177 339.042
L300.177 339.042
L300.305 340.181
L303.112 340.219
L303.623 340.319
L304.771 340.341
L304.899 340.605
L307.068 340.651
L307.068 340.651
L307.196 340.744
L316.257 340.773
L316.384 340.578
L317.788 340.581
L317.916 340.708
L326.211 340.813
L326.338 340.515
L328.508 340.545
L328.635 340.388
L330.039 340.394
L330.167 340.516
L330.805 340.516
L330.933 340.395
L334.633 340.437
L334.761 340.597
L339.227 340.685
L339.738 340.719
L345.353 340.762
L345.353 340.762
L345.481 340.466
L346.884 340.466
L346.884 340.466
L347.012 340.671
L349.947 340.757
L350.075 340.375
L355.307 340.271
L355.307 340.271
L355.69 340.214
L359.136 340.285
L359.263 340.362
L362.964 340.46
L363.092 340.638
L367.558 340.726
L367.941 340.775
L369.09 340.801
L369.6 340.65
L371.387 340.718
L371.514 340.485
L372.152 340.485
L372.28 340.685
L379.809 340.655
L379.937 340.471
L382.107 340.492
L382.234 340.28
L383.638 340.273
L384.148 340.456
L384.403 340.456
L384.531 340.071
L385.935 340.071
L386.062 340.217
L386.701 340.217
L386.828 340.638
L388.232 340.667
L388.232 340.667
L388.36 341.833
L388.998 341.833
L389.125 340.666
L408.14 340.571
L408.523 340.533
L409.671 340.506
L409.799 340.744
L410.437 340.744
L410.565 340.917
L419.625 341.01
L420.136 341.042
L422.688 341.107
L422.816 341.171
L426.517 341.181
L426.644 341.015
L428.814 340.915
L428.941 340.847
L434.174 340.933
L434.684 340.958
L437.236 340.95
L437.364 340.518
L447.956 340.581
L448.084 340.021
L452.55 340.056
L452.678 340.203
L454.082 340.205
L454.209 340.411
L457.91 340.504
L458.038 340.592
L462.504 340.61
L462.632 340.742
L464.036 340.739
L464.163 340.561
L471.693 340.595
L471.82 341.1
L477.818 341.071
L477.946 340.988
L480.115 340.956
L480.243 340.732
L482.412 340.7
L482.54 341.053
L483.178 341.053
L483.306 341.37
L486.241 341.453
L486.241 341.453
L486.368 340.813
L487.007 340.813
L487.134 340.554
L487.772 340.554
L487.9 340.115
L488.538 340.115
L488.666 339.871
L492.366 339.888
L492.494 340.735
L493.898 340.81
L494.026 341.195
L494.663 341.195
L494.791 340.91
L496.961 340.81
L498.109 340.809
L500.023 340.778
L500.151 340.929
L501.555 340.939
L501.682 340.653
L502.32 340.653
L502.448 340.201
L503.086 340.201
L503.214 340.634
L505.383 340.661
L505.511 340.846
L507.68 340.788
L507.808 340.724
L509.977 340.638
L511.509 340.569
L511.636 339.715
L512.274 339.715
L512.402 339.863
L513.806 339.901
L513.933 340.499
L514.572 340.499
L514.699 340.614
L516.103 340.618
L516.231 340.431
L518.4 340.486
L518.4 340.486" style="fill:none;stroke:#008000;stroke-linecap:square;"/>
   </g>
   <g id="patch_3">
    <path d="
M72 43.2
L518.4 43.2" style="fill:none;stroke:#000000;stroke-linecap:square;stroke-linejoin:miter;"/>
   </g>
   <g id="patch_4">
    <path d="
M518.4 345.6
L518.4 43.2" style="fill:none;stroke:#000000;stroke-linecap:square;stroke-linejoin:miter;"/>
   </g>
   <g id="patch_5">
    <path d="
M72 345.6
L518.4 345.6" style="fill:none;stroke:#000000;stroke-linecap:square;stroke-linejoin:miter;"/>
   </g>
   <g id="patch_6">
    <path d="
M72 345.6
L72 43.2" style="fill:none;stroke:#000000;stroke-linecap:square;stroke-linejoin:miter;"/>
   </g>
   <g id="matplotlib.axis_1">
    <g id="xtick_1">
     <g id="line2d_3">
      <defs>
       <path d="
M0 0
L0 -4" id="m93b0483c22" style="stroke:#000000;stroke-width:0.5;"/>
      </defs>
      <g>
       <use style="stroke:#000000;stroke-width:0.5;" x="117.941468267" xlink:href="#m93b0483c22" y="345.6"/>
      </g>
     </g>
     <g id="line2d_4">
      <defs>
       <path d="
M0 0
L0 4" id="m741efc42ff" style="stroke:#000000;stroke-width:0.5;"/>
      </defs>
      <g>
       <use style="stroke:#000000;stroke-width:0.5;" x="117.941468267" xlink:href="#m741efc42ff" y="43.2"/>
      </g>
     </g>
     <g id="text_1">
      <!-- Oct 13 2015 -->
      <defs>
       <path d="
M19.1875 8.29688
L53.6094 8.29688
L53.6094 0
L7.32812 0
L7.32812 8.29688
Q12.9375 14.1094 22.625 23.8906
Q32.3281 33.6875 34.8125 36.5312
Q39.5469 41.8438 41.4219 45.5312
Q43.3125 49.2188 43.3125 52.7812
Q43.3125 58.5938 39.2344 62.25
Q35.1562 65.9219 28.6094 65.9219
Q23.9688 65.9219 18.8125 64.3125
Q13.6719 62.7031 7.8125 59.4219
L7.8125 69.3906
Q13.7656 71.7812 18.9375 73
Q24.125 74.2188 28.4219 74.2188
Q39.75 74.2188 46.4844 68.5469
Q53.2188 62.8906 53.2188 53.4219
Q53.2188 48.9219 51.5312 44.8906
Q49.8594 40.875 45.4062 35.4062
Q44.1875 33.9844 37.6406 27.2188
Q31.1094 20.4531 19.1875 8.29688" id="BitstreamVeraSans-Roman-32"/>
       <path d="
M39.4062 66.2188
Q28.6562 66.2188 22.3281 58.2031
Q16.0156 50.2031 16.0156 36.375
Q16.0156 22.6094 22.3281 14.5938
Q28.6562 6.59375 39.4062 6.59375
Q50.1406 6.59375 56.4219 14.5938
Q62.7031 22.6094 62.7031 36.375
Q62.7031 50.2031 56.4219 58.2031
Q50.1406 66.2188 39.4062 66.2188
M39.4062 74.2188
Q54.7344 74.2188 63.9062 63.9375
Q73.0938 53.6562 73.0938 36.375
Q73.0938 19.1406 63.9062 8.85938
Q54.7344 -1.42188 39.4062 -1.42188
Q24.0312 -1.42188 14.8125 8.82812
Q5.60938 19.0938 5.60938 36.375
Q5.60938 53.6562 14.8125 63.9375
Q24.0312 74.2188 39.4062 74.2188" id="BitstreamVeraSans-Roman-4f"/>
       <path d="
M31.7812 66.4062
Q24.1719 66.4062 20.3281 58.9062
Q16.5 51.4219 16.5 36.375
Q16.5 21.3906 20.3281 13.8906
Q24.1719 6.39062 31.7812 6.39062
Q39.4531 6.39062 43.2812 13.8906
Q47.125 21.3906 47.125 36.375
Q47.125 51.4219 43.2812 58.9062
Q39.4531 66.4062 31.7812 66.4062
M31.7812 74.2188
Q44.0469 74.2188 50.5156 64.5156
Q56.9844 54.8281 56.9844 36.375
Q56.9844 17.9688 50.5156 8.26562
Q44.0469 -1.42188 31.7812 -1.42188
Q19.5312 -1.42188 13.0625 8.26562
Q6.59375 17.9688 6.59375 36.375
Q6.59375 54.8281 13.0625 64.5156
Q19.5312 74.2188 31.7812 74.2188" id="BitstreamVeraSans-Roman-30"/>
       <path d="
M12.4062 8.29688
L28.5156 8.29688
L28.5156 63.9219
L10.9844 60.4062
L10.9844 69.3906
L28.4219 72.9062
L38.2812 72.9062
L38.2812 8.29688
L54.3906 8.29688
L54.3906 0
L12.4062 0
z
" id="BitstreamVeraSans-Roman-31"/>
       <path d="
M40.5781 39.3125
Q47.6562 37.7969 51.625 33
Q55.6094 28.2188 55.6094 21.1875
Q55.6094 10.4062 48.1875 4.48438
Q40.7656 -1.42188 27.0938 -1.42188
Q22.5156 -1.42188 17.6562 -0.515625
Q12.7969 0.390625 7.625 2.20312
L7.625 11.7188
Q11.7188 9.32812 16.5938 8.10938
Q21.4844 6.89062 26.8125 6.89062
Q36.0781 6.89062 40.9375 10.5469
Q45.7969 14.2031 45.7969 21.1875
Q45.7969 27.6406 41.2812 31.2656
Q36.7656 34.9062 28.7188 34.9062
L20.2188 34.9062
L20.2188 43.0156
L29.1094 43.0156
Q36.375 43.0156 40.2344 45.9219
Q44.0938 48.8281 44.0938 54.2969
Q44.0938 59.9062 40.1094 62.9062
Q36.1406 65.9219 28.7188 65.9219
Q24.6562 65.9219 20.0156 65.0312
Q15.375 64.1562 9.8125 62.3125
L9.8125 71.0938
Q15.4375 72.6562 20.3438 73.4375
Q25.25 74.2188 29.5938 74.2188
Q40.8281 74.2188 47.3594 69.1094
Q53.9062 64.0156 53.9062 55.3281
Q53.9062 49.2656 50.4375 45.0938
Q46.9688 40.9219 40.5781 39.3125" id="BitstreamVeraSans-Roman-33"/>
       <path id="BitstreamVeraSans-Roman-20"/>
       <path d="
M10.7969 72.9062
L49.5156 72.9062
L49.5156 64.5938
L19.8281 64.5938
L19.8281 46.7344
Q21.9688 47.4688 24.1094 47.8281
Q26.2656 48.1875 28.4219 48.1875
Q40.625 48.1875 47.75 41.5
Q54.8906 34.8125 54.8906 23.3906
Q54.8906 11.625 47.5625 5.09375
Q40.2344 -1.42188 26.9062 -1.42188
Q22.3125 -1.42188 17.5469 -0.640625
Q12.7969 0.140625 7.71875 1.70312
L7.71875 11.625
Q12.1094 9.23438 16.7969 8.0625
Q21.4844 6.89062 26.7031 6.89062
Q35.1562 6.89062 40.0781 11.3281
Q45.0156 15.7656 45.0156 23.3906
Q45.0156 31 40.0781 35.4375
Q35.1562 39.8906 26.7031 39.8906
Q22.75 39.8906 18.8125 39.0156
Q14.8906 38.1406 10.7969 36.2812
z
" id="BitstreamVeraSans-Roman-35"/>
       <path d="
M18.3125 70.2188
L18.3125 54.6875
L36.8125 54.6875
L36.8125 47.7031
L18.3125 47.7031
L18.3125 18.0156
Q18.3125 11.3281 20.1406 9.42188
Q21.9688 7.51562 27.5938 7.51562
L36.8125 7.51562
L36.8125 0
L27.5938 0
Q17.1875 0 13.2344 3.875
Q9.28125 7.76562 9.28125 18.0156
L9.28125 47.7031
L2.6875 47.7031
L2.6875 54.6875
L9.28125 54.6875
L9.28125 70.2188
z
" id="BitstreamVeraSans-Roman-74"/>
       <path d="
M48.7812 52.5938
L48.7812 44.1875
Q44.9688 46.2969 41.1406 47.3438
Q37.3125 48.3906 33.4062 48.3906
Q24.6562 48.3906 19.8125 42.8438
Q14.9844 37.3125 14.9844 27.2969
Q14.9844 17.2812 19.8125 11.7344
Q24.6562 6.20312 33.4062 6.20312
Q37.3125 6.20312 41.1406 7.25
Q44.9688 8.29688 48.7812 10.4062
L48.7812 2.09375
Q45.0156 0.34375 40.9844 -0.53125
Q36.9688 -1.42188 32.4219 -1.42188
Q20.0625 -1.42188 12.7812 6.34375
Q5.51562 14.1094 5.51562 27.2969
Q5.51562 40.6719 12.8594 48.3281
Q20.2188 56 33.0156 56
Q37.1562 56 41.1094 55.1406
Q45.0625 54.2969 48.7812 52.5938" id="BitstreamVeraSans-Roman-63"/>
      </defs>
      <g transform="translate(53.3541815316 394.065590385)rotate(-30.0)scale(0.12 -0.12)">
       <use xlink:href="#BitstreamVeraSans-Roman-4f"/>
       <use x="78.7109375" xlink:href="#BitstreamVeraSans-Roman-63"/>
       <use x="133.69140625" xlink:href="#BitstreamVeraSans-Roman-74"/>
       <use x="172.900390625" xlink:href="#BitstreamVeraSans-Roman-20"/>
       <use x="204.6875" xlink:href="#BitstreamVeraSans-Roman-31"/>
       <use x="268.310546875" xlink:href="#BitstreamVeraSans-Roman-33"/>
       <use x="331.93359375" xlink:href="#BitstreamVeraSans-Roman-20"/>
       <use x="363.720703125" xlink:href="#BitstreamVeraSans-Roman-32"/>
       <use x="427.34375" xlink:href="#BitstreamVeraSans-Roman-30"/>
       <use x="490.966796875" xlink:href="#BitstreamVeraSans-Roman-31"/>
       <use x="554.58984375" xlink:href="#BitstreamVeraSans-Roman-35"/>
      </g>
     </g>
    </g>
    <g id="xtick_2">
     <g id="line2d_5">
      <g>
       <use style="stroke:#000000;stroke-width:0.5;" x="173.071485419" xlink:href="#m93b0483c22" y="345.6"/>
      </g>
     </g>
     <g id="line2d_6">
      <g>
       <use style="stroke:#000000;stroke-width:0.5;" x="173.071485419" xlink:href="#m741efc42ff" y="43.2"/>
      </g>
     </g>
     <g id="text_2">
      <!-- Oct 16 2015 -->
      <defs>
       <path d="
M33.0156 40.375
Q26.375 40.375 22.4844 35.8281
Q18.6094 31.2969 18.6094 23.3906
Q18.6094 15.5312 22.4844 10.9531
Q26.375 6.39062 33.0156 6.39062
Q39.6562 6.39062 43.5312 10.9531
Q47.4062 15.5312 47.4062 23.3906
Q47.4062 31.2969 43.5312 35.8281
Q39.6562 40.375 33.0156 40.375
M52.5938 71.2969
L52.5938 62.3125
Q48.875 64.0625 45.0938 64.9844
Q41.3125 65.9219 37.5938 65.9219
Q27.8281 65.9219 22.6719 59.3281
Q17.5312 52.7344 16.7969 39.4062
Q19.6719 43.6562 24.0156 45.9219
Q28.375 48.1875 33.5938 48.1875
Q44.5781 48.1875 50.9531 41.5156
Q57.3281 34.8594 57.3281 23.3906
Q57.3281 12.1562 50.6875 5.35938
Q44.0469 -1.42188 33.0156 -1.42188
Q20.3594 -1.42188 13.6719 8.26562
Q6.98438 17.9688 6.98438 36.375
Q6.98438 53.6562 15.1875 63.9375
Q23.3906 74.2188 37.2031 74.2188
Q40.9219 74.2188 44.7031 73.4844
Q48.4844 72.75 52.5938 71.2969" id="BitstreamVeraSans-Roman-36"/>
      </defs>
      <g transform="translate(108.484198684 394.065590385)rotate(-30.0)scale(0.12 -0.12)">
       <use xlink:href="#BitstreamVeraSans-Roman-4f"/>
       <use x="78.7109375" xlink:href="#BitstreamVeraSans-Roman-63"/>
       <use x="133.69140625" xlink:href="#BitstreamVeraSans-Roman-74"/>
       <use x="172.900390625" xlink:href="#BitstreamVeraSans-Roman-20"/>
       <use x="204.6875" xlink:href="#BitstreamVeraSans-Roman-31"/>
       <use x="268.310546875" xlink:href="#BitstreamVeraSans-Roman-36"/>
       <use x="331.93359375" xlink:href="#BitstreamVeraSans-Roman-20"/>
       <use x="363.720703125" xlink:href="#BitstreamVeraSans-Roman-32"/>
       <use x="427.34375" xlink:href="#BitstreamVeraSans-Roman-30"/>
       <use x="490.966796875" xlink:href="#BitstreamVeraSans-Roman-31"/>
       <use x="554.58984375" xlink:href="#BitstreamVeraSans-Roman-35"/>
      </g>
     </g>
    </g>
    <g id="xtick_3">
     <g id="line2d_7">
      <g>
       <use style="stroke:#000000;stroke-width:0.5;" x="228.201502573" xlink:href="#m93b0483c22" y="345.6"/>
      </g>
     </g>
     <g id="line2d_8">
      <g>
       <use style="stroke:#000000;stroke-width:0.5;" x="228.201502573" xlink:href="#m741efc42ff" y="43.2"/>
      </g>
     </g>
     <g id="text_3">
      <!-- Oct 19 2015 -->
      <defs>
       <path d="
M10.9844 1.51562
L10.9844 10.5
Q14.7031 8.73438 18.5 7.8125
Q22.3125 6.89062 25.9844 6.89062
Q35.75 6.89062 40.8906 13.4531
Q46.0469 20.0156 46.7812 33.4062
Q43.9531 29.2031 39.5938 26.9531
Q35.25 24.7031 29.9844 24.7031
Q19.0469 24.7031 12.6719 31.3125
Q6.29688 37.9375 6.29688 49.4219
Q6.29688 60.6406 12.9375 67.4219
Q19.5781 74.2188 30.6094 74.2188
Q43.2656 74.2188 49.9219 64.5156
Q56.5938 54.8281 56.5938 36.375
Q56.5938 19.1406 48.4062 8.85938
Q40.2344 -1.42188 26.4219 -1.42188
Q22.7031 -1.42188 18.8906 -0.6875
Q15.0938 0.046875 10.9844 1.51562
M30.6094 32.4219
Q37.25 32.4219 41.125 36.9531
Q45.0156 41.5 45.0156 49.4219
Q45.0156 57.2812 41.125 61.8438
Q37.25 66.4062 30.6094 66.4062
Q23.9688 66.4062 20.0938 61.8438
Q16.2188 57.2812 16.2188 49.4219
Q16.2188 41.5 20.0938 36.9531
Q23.9688 32.4219 30.6094 32.4219" id="BitstreamVeraSans-Roman-39"/>
      </defs>
      <g transform="translate(163.614215838 394.065590385)rotate(-30.0)scale(0.12 -0.12)">
       <use xlink:href="#BitstreamVeraSans-Roman-4f"/>
       <use x="78.7109375" xlink:href="#BitstreamVeraSans-Roman-63"/>
       <use x="133.69140625" xlink:href="#BitstreamVeraSans-Roman-74"/>
       <use x="172.900390625" xlink:href="#BitstreamVeraSans-Roman-20"/>
       <use x="204.6875" xlink:href="#BitstreamVeraSans-Roman-31"/>
       <use x="268.310546875" xlink:href="#BitstreamVeraSans-Roman-39"/>
       <use x="331.93359375" xlink:href="#BitstreamVeraSans-Roman-20"/>
       <use x="363.720703125" xlink:href="#BitstreamVeraSans-Roman-32"/>
       <use x="427.34375" xlink:href="#BitstreamVeraSans-Roman-30"/>
       <use x="490.966796875" xlink:href="#BitstreamVeraSans-Roman-31"/>
       <use x="554.58984375" xlink:href="#BitstreamVeraSans-Roman-35"/>
      </g>
     </g>
    </g>
    <g id="xtick_4">
     <g id="line2d_9">
      <g>
       <use style="stroke:#000000;stroke-width:0.5;" x="283.331519725" xlink:href="#m93b0483c22" y="345.6"/>
      </g>
     </g>
     <g id="line2d_10">
      <g>
       <use style="stroke:#000000;stroke-width:0.5;" x="283.331519725" xlink:href="#m741efc42ff" y="43.2"/>
      </g>
     </g>
     <g id="text_4">
      <!-- Oct 22 2015 -->
      <g transform="translate(218.74423299 394.065590385)rotate(-30.0)scale(0.12 -0.12)">
       <use xlink:href="#BitstreamVeraSans-Roman-4f"/>
       <use x="78.7109375" xlink:href="#BitstreamVeraSans-Roman-63"/>
       <use x="133.69140625" xlink:href="#BitstreamVeraSans-Roman-74"/>
       <use x="172.900390625" xlink:href="#BitstreamVeraSans-Roman-20"/>
       <use x="204.6875" xlink:href="#BitstreamVeraSans-Roman-32"/>
       <use x="268.310546875" xlink:href="#BitstreamVeraSans-Roman-32"/>
       <use x="331.93359375" xlink:href="#BitstreamVeraSans-Roman-20"/>
       <use x="363.720703125" xlink:href="#BitstreamVeraSans-Roman-32"/>
       <use x="427.34375" xlink:href="#BitstreamVeraSans-Roman-30"/>
       <use x="490.966796875" xlink:href="#BitstreamVeraSans-Roman-31"/>
       <use x="554.58984375" xlink:href="#BitstreamVeraSans-Roman-35"/>
      </g>
     </g>
    </g>
    <g id="xtick_5">
     <g id="line2d_11">
      <g>
       <use style="stroke:#000000;stroke-width:0.5;" x="338.461536877" xlink:href="#m93b0483c22" y="345.6"/>
      </g>
     </g>
     <g id="line2d_12">
      <g>
       <use style="stroke:#000000;stroke-width:0.5;" x="338.461536877" xlink:href="#m741efc42ff" y="43.2"/>
      </g>
     </g>
     <g id="text_5">
      <!-- Oct 25 2015 -->
      <g transform="translate(273.874250142 394.065590385)rotate(-30.0)scale(0.12 -0.12)">
       <use xlink:href="#BitstreamVeraSans-Roman-4f"/>
       <use x="78.7109375" xlink:href="#BitstreamVeraSans-Roman-63"/>
       <use x="133.69140625" xlink:href="#BitstreamVeraSans-Roman-74"/>
       <use x="172.900390625" xlink:href="#BitstreamVeraSans-Roman-20"/>
       <use x="204.6875" xlink:href="#BitstreamVeraSans-Roman-32"/>
       <use x="268.310546875" xlink:href="#BitstreamVeraSans-Roman-35"/>
       <use x="331.93359375" xlink:href="#BitstreamVeraSans-Roman-20"/>
       <use x="363.720703125" xlink:href="#BitstreamVeraSans-Roman-32"/>
       <use x="427.34375" xlink:href="#BitstreamVeraSans-Roman-30"/>
       <use x="490.966796875" xlink:href="#BitstreamVeraSans-Roman-31"/>
       <use x="554.58984375" xlink:href="#BitstreamVeraSans-Roman-35"/>
      </g>
     </g>
    </g>
    <g id="xtick_6">
     <g id="line2d_13">
      <g>
       <use style="stroke:#000000;stroke-width:0.5;" x="393.591554031" xlink:href="#m93b0483c22" y="345.6"/>
      </g>
     </g>
     <g id="line2d_14">
      <g>
       <use style="stroke:#000000;stroke-width:0.5;" x="393.591554031" xlink:href="#m741efc42ff" y="43.2"/>
      </g>
     </g>
     <g id="text_6">
      <!-- Oct 28 2015 -->
      <defs>
       <path d="
M31.7812 34.625
Q24.75 34.625 20.7188 30.8594
Q16.7031 27.0938 16.7031 20.5156
Q16.7031 13.9219 20.7188 10.1562
Q24.75 6.39062 31.7812 6.39062
Q38.8125 6.39062 42.8594 10.1719
Q46.9219 13.9688 46.9219 20.5156
Q46.9219 27.0938 42.8906 30.8594
Q38.875 34.625 31.7812 34.625
M21.9219 38.8125
Q15.5781 40.375 12.0312 44.7188
Q8.5 49.0781 8.5 55.3281
Q8.5 64.0625 14.7188 69.1406
Q20.9531 74.2188 31.7812 74.2188
Q42.6719 74.2188 48.875 69.1406
Q55.0781 64.0625 55.0781 55.3281
Q55.0781 49.0781 51.5312 44.7188
Q48 40.375 41.7031 38.8125
Q48.8281 37.1562 52.7969 32.3125
Q56.7812 27.4844 56.7812 20.5156
Q56.7812 9.90625 50.3125 4.23438
Q43.8438 -1.42188 31.7812 -1.42188
Q19.7344 -1.42188 13.25 4.23438
Q6.78125 9.90625 6.78125 20.5156
Q6.78125 27.4844 10.7812 32.3125
Q14.7969 37.1562 21.9219 38.8125
M18.3125 54.3906
Q18.3125 48.7344 21.8438 45.5625
Q25.3906 42.3906 31.7812 42.3906
Q38.1406 42.3906 41.7188 45.5625
Q45.3125 48.7344 45.3125 54.3906
Q45.3125 60.0625 41.7188 63.2344
Q38.1406 66.4062 31.7812 66.4062
Q25.3906 66.4062 21.8438 63.2344
Q18.3125 60.0625 18.3125 54.3906" id="BitstreamVeraSans-Roman-38"/>
      </defs>
      <g transform="translate(329.004267296 394.065590385)rotate(-30.0)scale(0.12 -0.12)">
       <use xlink:href="#BitstreamVeraSans-Roman-4f"/>
       <use x="78.7109375" xlink:href="#BitstreamVeraSans-Roman-63"/>
       <use x="133.69140625" xlink:href="#BitstreamVeraSans-Roman-74"/>
       <use x="172.900390625" xlink:href="#BitstreamVeraSans-Roman-20"/>
       <use x="204.6875" xlink:href="#BitstreamVeraSans-Roman-32"/>
       <use x="268.310546875" xlink:href="#BitstreamVeraSans-Roman-38"/>
       <use x="331.93359375" xlink:href="#BitstreamVeraSans-Roman-20"/>
       <use x="363.720703125" xlink:href="#BitstreamVeraSans-Roman-32"/>
       <use x="427.34375" xlink:href="#BitstreamVeraSans-Roman-30"/>
       <use x="490.966796875" xlink:href="#BitstreamVeraSans-Roman-31"/>
       <use x="554.58984375" xlink:href="#BitstreamVeraSans-Roman-35"/>
      </g>
     </g>
    </g>
    <g id="xtick_7">
     <g id="line2d_15">
      <g>
       <use style="stroke:#000000;stroke-width:0.5;" x="448.721571183" xlink:href="#m93b0483c22" y="345.6"/>
      </g>
     </g>
     <g id="line2d_16">
      <g>
       <use style="stroke:#000000;stroke-width:0.5;" x="448.721571183" xlink:href="#m741efc42ff" y="43.2"/>
      </g>
     </g>
     <g id="text_7">
      <!-- Oct 31 2015 -->
      <g transform="translate(384.134284448 394.065590385)rotate(-30.0)scale(0.12 -0.12)">
       <use xlink:href="#BitstreamVeraSans-Roman-4f"/>
       <use x="78.7109375" xlink:href="#BitstreamVeraSans-Roman-63"/>
       <use x="133.69140625" xlink:href="#BitstreamVeraSans-Roman-74"/>
       <use x="172.900390625" xlink:href="#BitstreamVeraSans-Roman-20"/>
       <use x="204.6875" xlink:href="#BitstreamVeraSans-Roman-33"/>
       <use x="268.310546875" xlink:href="#BitstreamVeraSans-Roman-31"/>
       <use x="331.93359375" xlink:href="#BitstreamVeraSans-Roman-20"/>
       <use x="363.720703125" xlink:href="#BitstreamVeraSans-Roman-32"/>
       <use x="427.34375" xlink:href="#BitstreamVeraSans-Roman-30"/>
       <use x="490.966796875" xlink:href="#BitstreamVeraSans-Roman-31"/>
       <use x="554.58984375" xlink:href="#BitstreamVeraSans-Roman-35"/>
      </g>
     </g>
    </g>
    <g id="xtick_8">
     <g id="line2d_17">
      <g>
       <use style="stroke:#000000;stroke-width:0.5;" x="503.851588335" xlink:href="#m93b0483c22" y="345.6"/>
      </g>
     </g>
     <g id="line2d_18">
      <g>
       <use style="stroke:#000000;stroke-width:0.5;" x="503.851588335" xlink:href="#m741efc42ff" y="43.2"/>
      </g>
     </g>
     <g id="text_8">
      <!-- Nov 03 2015 -->
      <defs>
       <path d="
M2.98438 54.6875
L12.5 54.6875
L29.5938 8.79688
L46.6875 54.6875
L56.2031 54.6875
L35.6875 0
L23.4844 0
z
" id="BitstreamVeraSans-Roman-76"/>
       <path d="
M9.8125 72.9062
L23.0938 72.9062
L55.4219 11.9219
L55.4219 72.9062
L64.9844 72.9062
L64.9844 0
L51.7031 0
L19.3906 60.9844
L19.3906 0
L9.8125 0
z
" id="BitstreamVeraSans-Roman-4e"/>
       <path d="
M30.6094 48.3906
Q23.3906 48.3906 19.1875 42.75
Q14.9844 37.1094 14.9844 27.2969
Q14.9844 17.4844 19.1562 11.8438
Q23.3438 6.20312 30.6094 6.20312
Q37.7969 6.20312 41.9844 11.8594
Q46.1875 17.5312 46.1875 27.2969
Q46.1875 37.0156 41.9844 42.7031
Q37.7969 48.3906 30.6094 48.3906
M30.6094 56
Q42.3281 56 49.0156 48.375
Q55.7188 40.7656 55.7188 27.2969
Q55.7188 13.875 49.0156 6.21875
Q42.3281 -1.42188 30.6094 -1.42188
Q18.8438 -1.42188 12.1719 6.21875
Q5.51562 13.875 5.51562 27.2969
Q5.51562 40.7656 12.1719 48.375
Q18.8438 56 30.6094 56" id="BitstreamVeraSans-Roman-6f"/>
      </defs>
      <g transform="translate(436.948766176 395.402465385)rotate(-30.0)scale(0.12 -0.12)">
       <use xlink:href="#BitstreamVeraSans-Roman-4e"/>
       <use x="74.8046875" xlink:href="#BitstreamVeraSans-Roman-6f"/>
       <use x="135.986328125" xlink:href="#BitstreamVeraSans-Roman-76"/>
       <use x="195.166015625" xlink:href="#BitstreamVeraSans-Roman-20"/>
       <use x="226.953125" xlink:href="#BitstreamVeraSans-Roman-30"/>
       <use x="290.576171875" xlink:href="#BitstreamVeraSans-Roman-33"/>
       <use x="354.19921875" xlink:href="#BitstreamVeraSans-Roman-20"/>
       <use x="385.986328125" xlink:href="#BitstreamVeraSans-Roman-32"/>
       <use x="449.609375" xlink:href="#BitstreamVeraSans-Roman-30"/>
       <use x="513.232421875" xlink:href="#BitstreamVeraSans-Roman-31"/>
       <use x="576.85546875" xlink:href="#BitstreamVeraSans-Roman-35"/>
      </g>
     </g>
    </g>
   </g>
   <g id="matplotlib.axis_2">
    <g id="ytick_1">
     <g id="line2d_19">
      <defs>
       <path d="
M0 0
L4 0" id="m728421d6d4" style="stroke:#000000;stroke-width:0.5;"/>
      </defs>
      <g>
       <use style="stroke:#000000;stroke-width:0.5;" x="72.0" xlink:href="#m728421d6d4" y="328.132187712"/>
      </g>
     </g>
     <g id="line2d_20">
      <defs>
       <path d="
M0 0
L-4 0" id="mcb0005524f" style="stroke:#000000;stroke-width:0.5;"/>
      </defs>
      <g>
       <use style="stroke:#000000;stroke-width:0.5;" x="518.4" xlink:href="#mcb0005524f" y="328.132187712"/>
      </g>
     </g>
     <g id="text_9">
      <!-- 200000 -->
      <g transform="translate(23.86625 331.443437712)scale(0.12 -0.12)">
       <use xlink:href="#BitstreamVeraSans-Roman-32"/>
       <use x="63.623046875" xlink:href="#BitstreamVeraSans-Roman-30"/>
       <use x="127.24609375" xlink:href="#BitstreamVeraSans-Roman-30"/>
       <use x="190.869140625" xlink:href="#BitstreamVeraSans-Roman-30"/>
       <use x="254.4921875" xlink:href="#BitstreamVeraSans-Roman-30"/>
       <use x="318.115234375" xlink:href="#BitstreamVeraSans-Roman-30"/>
      </g>
     </g>
    </g>
    <g id="ytick_2">
     <g id="line2d_21">
      <g>
       <use style="stroke:#000000;stroke-width:0.5;" x="72.0" xlink:href="#m728421d6d4" y="283.611533382"/>
      </g>
     </g>
     <g id="line2d_22">
      <g>
       <use style="stroke:#000000;stroke-width:0.5;" x="518.4" xlink:href="#mcb0005524f" y="283.611533382"/>
      </g>
     </g>
     <g id="text_10">
      <!-- 300000 -->
      <g transform="translate(23.901875 286.922783382)scale(0.12 -0.12)">
       <use xlink:href="#BitstreamVeraSans-Roman-33"/>
       <use x="63.623046875" xlink:href="#BitstreamVeraSans-Roman-30"/>
       <use x="127.24609375" xlink:href="#BitstreamVeraSans-Roman-30"/>
       <use x="190.869140625" xlink:href="#BitstreamVeraSans-Roman-30"/>
       <use x="254.4921875" xlink:href="#BitstreamVeraSans-Roman-30"/>
       <use x="318.115234375" xlink:href="#BitstreamVeraSans-Roman-30"/>
      </g>
     </g>
    </g>
    <g id="ytick_3">
     <g id="line2d_23">
      <g>
       <use style="stroke:#000000;stroke-width:0.5;" x="72.0" xlink:href="#m728421d6d4" y="239.090879052"/>
      </g>
     </g>
     <g id="line2d_24">
      <g>
       <use style="stroke:#000000;stroke-width:0.5;" x="518.4" xlink:href="#mcb0005524f" y="239.090879052"/>
      </g>
     </g>
     <g id="text_11">
      <!-- 400000 -->
      <defs>
       <path d="
M37.7969 64.3125
L12.8906 25.3906
L37.7969 25.3906
z

M35.2031 72.9062
L47.6094 72.9062
L47.6094 25.3906
L58.0156 25.3906
L58.0156 17.1875
L47.6094 17.1875
L47.6094 0
L37.7969 0
L37.7969 17.1875
L4.89062 17.1875
L4.89062 26.7031
z
" id="BitstreamVeraSans-Roman-34"/>
      </defs>
      <g transform="translate(23.57375 242.402129052)scale(0.12 -0.12)">
       <use xlink:href="#BitstreamVeraSans-Roman-34"/>
       <use x="63.623046875" xlink:href="#BitstreamVeraSans-Roman-30"/>
       <use x="127.24609375" xlink:href="#BitstreamVeraSans-Roman-30"/>
       <use x="190.869140625" xlink:href="#BitstreamVeraSans-Roman-30"/>
       <use x="254.4921875" xlink:href="#BitstreamVeraSans-Roman-30"/>
       <use x="318.115234375" xlink:href="#BitstreamVeraSans-Roman-30"/>
      </g>
     </g>
    </g>
    <g id="ytick_4">
     <g id="line2d_25">
      <g>
       <use style="stroke:#000000;stroke-width:0.5;" x="72.0" xlink:href="#m728421d6d4" y="194.570224722"/>
      </g>
     </g>
     <g id="line2d_26">
      <g>
       <use style="stroke:#000000;stroke-width:0.5;" x="518.4" xlink:href="#mcb0005524f" y="194.570224722"/>
      </g>
     </g>
     <g id="text_12">
      <!-- 500000 -->
      <g transform="translate(23.913125 197.881474722)scale(0.12 -0.12)">
       <use xlink:href="#BitstreamVeraSans-Roman-35"/>
       <use x="63.623046875" xlink:href="#BitstreamVeraSans-Roman-30"/>
       <use x="127.24609375" xlink:href="#BitstreamVeraSans-Roman-30"/>
       <use x="190.869140625" xlink:href="#BitstreamVeraSans-Roman-30"/>
       <use x="254.4921875" xlink:href="#BitstreamVeraSans-Roman-30"/>
       <use x="318.115234375" xlink:href="#BitstreamVeraSans-Roman-30"/>
      </g>
     </g>
    </g>
    <g id="ytick_5">
     <g id="line2d_27">
      <g>
       <use style="stroke:#000000;stroke-width:0.5;" x="72.0" xlink:href="#m728421d6d4" y="150.049570392"/>
      </g>
     </g>
     <g id="line2d_28">
      <g>
       <use style="stroke:#000000;stroke-width:0.5;" x="518.4" xlink:href="#mcb0005524f" y="150.049570392"/>
      </g>
     </g>
     <g id="text_13">
      <!-- 600000 -->
      <g transform="translate(23.825 153.360820392)scale(0.12 -0.12)">
       <use xlink:href="#BitstreamVeraSans-Roman-36"/>
       <use x="63.623046875" xlink:href="#BitstreamVeraSans-Roman-30"/>
       <use x="127.24609375" xlink:href="#BitstreamVeraSans-Roman-30"/>
       <use x="190.869140625" xlink:href="#BitstreamVeraSans-Roman-30"/>
       <use x="254.4921875" xlink:href="#BitstreamVeraSans-Roman-30"/>
       <use x="318.115234375" xlink:href="#BitstreamVeraSans-Roman-30"/>
      </g>
     </g>
    </g>
    <g id="ytick_6">
     <g id="line2d_29">
      <g>
       <use style="stroke:#000000;stroke-width:0.5;" x="72.0" xlink:href="#m728421d6d4" y="105.528916062"/>
      </g>
     </g>
     <g id="line2d_30">
      <g>
       <use style="stroke:#000000;stroke-width:0.5;" x="518.4" xlink:href="#mcb0005524f" y="105.528916062"/>
      </g>
     </g>
     <g id="text_14">
      <!-- 700000 -->
      <defs>
       <path d="
M8.20312 72.9062
L55.0781 72.9062
L55.0781 68.7031
L28.6094 0
L18.3125 0
L43.2188 64.5938
L8.20312 64.5938
z
" id="BitstreamVeraSans-Roman-37"/>
      </defs>
      <g transform="translate(23.97125 108.840166062)scale(0.12 -0.12)">
       <use xlink:href="#BitstreamVeraSans-Roman-37"/>
       <use x="63.623046875" xlink:href="#BitstreamVeraSans-Roman-30"/>
       <use x="127.24609375" xlink:href="#BitstreamVeraSans-Roman-30"/>
       <use x="190.869140625" xlink:href="#BitstreamVeraSans-Roman-30"/>
       <use x="254.4921875" xlink:href="#BitstreamVeraSans-Roman-30"/>
       <use x="318.115234375" xlink:href="#BitstreamVeraSans-Roman-30"/>
      </g>
     </g>
    </g>
    <g id="ytick_7">
     <g id="line2d_31">
      <g>
       <use style="stroke:#000000;stroke-width:0.5;" x="72.0" xlink:href="#m728421d6d4" y="61.008261732"/>
      </g>
     </g>
     <g id="line2d_32">
      <g>
       <use style="stroke:#000000;stroke-width:0.5;" x="518.4" xlink:href="#mcb0005524f" y="61.008261732"/>
      </g>
     </g>
     <g id="text_15">
      <!-- 800000 -->
      <g transform="translate(23.800625 64.319511732)scale(0.12 -0.12)">
       <use xlink:href="#BitstreamVeraSans-Roman-38"/>
       <use x="63.623046875" xlink:href="#BitstreamVeraSans-Roman-30"/>
       <use x="127.24609375" xlink:href="#BitstreamVeraSans-Roman-30"/>
       <use x="190.869140625" xlink:href="#BitstreamVeraSans-Roman-30"/>
       <use x="254.4921875" xlink:href="#BitstreamVeraSans-Roman-30"/>
       <use x="318.115234375" xlink:href="#BitstreamVeraSans-Roman-30"/>
      </g>
     </g>
    </g>
   </g>
   <g id="text_16">
    <!-- Kampfhunde -->
    <defs>
     <path d="
M8.5 21.5781
L8.5 54.6875
L17.4844 54.6875
L17.4844 21.9219
Q17.4844 14.1562 20.5 10.2656
Q23.5312 6.39062 29.5938 6.39062
Q36.8594 6.39062 41.0781 11.0312
Q45.3125 15.6719 45.3125 23.6875
L45.3125 54.6875
L54.2969 54.6875
L54.2969 0
L45.3125 0
L45.3125 8.40625
Q42.0469 3.42188 37.7188 1
Q33.4062 -1.42188 27.6875 -1.42188
Q18.2656 -1.42188 13.375 4.4375
Q8.5 10.2969 8.5 21.5781" id="BitstreamVeraSans-Roman-75"/>
     <path d="
M9.8125 72.9062
L19.6719 72.9062
L19.6719 42.0938
L52.3906 72.9062
L65.0938 72.9062
L28.9062 38.9219
L67.6719 0
L54.6875 0
L19.6719 35.1094
L19.6719 0
L9.8125 0
z
" id="BitstreamVeraSans-Roman-4b"/>
     <path d="
M54.8906 33.0156
L54.8906 0
L45.9062 0
L45.9062 32.7188
Q45.9062 40.4844 42.875 44.3281
Q39.8438 48.1875 33.7969 48.1875
Q26.5156 48.1875 22.3125 43.5469
Q18.1094 38.9219 18.1094 30.9062
L18.1094 0
L9.07812 0
L9.07812 54.6875
L18.1094 54.6875
L18.1094 46.1875
Q21.3438 51.125 25.7031 53.5625
Q30.0781 56 35.7969 56
Q45.2188 56 50.0469 50.1719
Q54.8906 44.3438 54.8906 33.0156" id="BitstreamVeraSans-Roman-6e"/>
     <path d="
M52 44.1875
Q55.375 50.25 60.0625 53.125
Q64.75 56 71.0938 56
Q79.6406 56 84.2812 50.0156
Q88.9219 44.0469 88.9219 33.0156
L88.9219 0
L79.8906 0
L79.8906 32.7188
Q79.8906 40.5781 77.0938 44.375
Q74.3125 48.1875 68.6094 48.1875
Q61.625 48.1875 57.5625 43.5469
Q53.5156 38.9219 53.5156 30.9062
L53.5156 0
L44.4844 0
L44.4844 32.7188
Q44.4844 40.625 41.7031 44.4062
Q38.9219 48.1875 33.1094 48.1875
Q26.2188 48.1875 22.1562 43.5312
Q18.1094 38.875 18.1094 30.9062
L18.1094 0
L9.07812 0
L9.07812 54.6875
L18.1094 54.6875
L18.1094 46.1875
Q21.1875 51.2188 25.4844 53.6094
Q29.7812 56 35.6875 56
Q41.6562 56 45.8281 52.9688
Q50 49.9531 52 44.1875" id="BitstreamVeraSans-Roman-6d"/>
     <path d="
M54.8906 33.0156
L54.8906 0
L45.9062 0
L45.9062 32.7188
Q45.9062 40.4844 42.875 44.3281
Q39.8438 48.1875 33.7969 48.1875
Q26.5156 48.1875 22.3125 43.5469
Q18.1094 38.9219 18.1094 30.9062
L18.1094 0
L9.07812 0
L9.07812 75.9844
L18.1094 75.9844
L18.1094 46.1875
Q21.3438 51.125 25.7031 53.5625
Q30.0781 56 35.7969 56
Q45.2188 56 50.0469 50.1719
Q54.8906 44.3438 54.8906 33.0156" id="BitstreamVeraSans-Roman-68"/>
     <path d="
M56.2031 29.5938
L56.2031 25.2031
L14.8906 25.2031
Q15.4844 15.9219 20.4844 11.0625
Q25.4844 6.20312 34.4219 6.20312
Q39.5938 6.20312 44.4531 7.46875
Q49.3125 8.73438 54.1094 11.2812
L54.1094 2.78125
Q49.2656 0.734375 44.1875 -0.34375
Q39.1094 -1.42188 33.8906 -1.42188
Q20.7969 -1.42188 13.1562 6.1875
Q5.51562 13.8125 5.51562 26.8125
Q5.51562 40.2344 12.7656 48.1094
Q20.0156 56 32.3281 56
Q43.3594 56 49.7812 48.8906
Q56.2031 41.7969 56.2031 29.5938
M47.2188 32.2344
Q47.125 39.5938 43.0938 43.9844
Q39.0625 48.3906 32.4219 48.3906
Q24.9062 48.3906 20.3906 44.1406
Q15.875 39.8906 15.1875 32.1719
z
" id="BitstreamVeraSans-Roman-65"/>
     <path d="
M45.4062 46.3906
L45.4062 75.9844
L54.3906 75.9844
L54.3906 0
L45.4062 0
L45.4062 8.20312
Q42.5781 3.32812 38.25 0.953125
Q33.9375 -1.42188 27.875 -1.42188
Q17.9688 -1.42188 11.7344 6.48438
Q5.51562 14.4062 5.51562 27.2969
Q5.51562 40.1875 11.7344 48.0938
Q17.9688 56 27.875 56
Q33.9375 56 38.25 53.625
Q42.5781 51.2656 45.4062 46.3906
M14.7969 27.2969
Q14.7969 17.3906 18.875 11.75
Q22.9531 6.10938 30.0781 6.10938
Q37.2031 6.10938 41.2969 11.75
Q45.4062 17.3906 45.4062 27.2969
Q45.4062 37.2031 41.2969 42.8438
Q37.2031 48.4844 30.0781 48.4844
Q22.9531 48.4844 18.875 42.8438
Q14.7969 37.2031 14.7969 27.2969" id="BitstreamVeraSans-Roman-64"/>
     <path d="
M37.1094 75.9844
L37.1094 68.5
L28.5156 68.5
Q23.6875 68.5 21.7969 66.5469
Q19.9219 64.5938 19.9219 59.5156
L19.9219 54.6875
L34.7188 54.6875
L34.7188 47.7031
L19.9219 47.7031
L19.9219 0
L10.8906 0
L10.8906 47.7031
L2.29688 47.7031
L2.29688 54.6875
L10.8906 54.6875
L10.8906 58.5
Q10.8906 67.625 15.1406 71.7969
Q19.3906 75.9844 28.6094 75.9844
z
" id="BitstreamVeraSans-Roman-66"/>
     <path d="
M34.2812 27.4844
Q23.3906 27.4844 19.1875 25
Q14.9844 22.5156 14.9844 16.5
Q14.9844 11.7188 18.1406 8.90625
Q21.2969 6.10938 26.7031 6.10938
Q34.1875 6.10938 38.7031 11.4062
Q43.2188 16.7031 43.2188 25.4844
L43.2188 27.4844
z

M52.2031 31.2031
L52.2031 0
L43.2188 0
L43.2188 8.29688
Q40.1406 3.32812 35.5469 0.953125
Q30.9531 -1.42188 24.3125 -1.42188
Q15.9219 -1.42188 10.9531 3.29688
Q6 8.01562 6 15.9219
Q6 25.1406 12.1719 29.8281
Q18.3594 34.5156 30.6094 34.5156
L43.2188 34.5156
L43.2188 35.4062
Q43.2188 41.6094 39.1406 45
Q35.0625 48.3906 27.6875 48.3906
Q23 48.3906 18.5469 47.2656
Q14.1094 46.1406 10.0156 43.8906
L10.0156 52.2031
Q14.9375 54.1094 19.5781 55.0469
Q24.2188 56 28.6094 56
Q40.4844 56 46.3438 49.8438
Q52.2031 43.7031 52.2031 31.2031" id="BitstreamVeraSans-Roman-61"/>
     <path d="
M18.1094 8.20312
L18.1094 -20.7969
L9.07812 -20.7969
L9.07812 54.6875
L18.1094 54.6875
L18.1094 46.3906
Q20.9531 51.2656 25.2656 53.625
Q29.5938 56 35.5938 56
Q45.5625 56 51.7812 48.0938
Q58.0156 40.1875 58.0156 27.2969
Q58.0156 14.4062 51.7812 6.48438
Q45.5625 -1.42188 35.5938 -1.42188
Q29.5938 -1.42188 25.2656 0.953125
Q20.9531 3.32812 18.1094 8.20312
M48.6875 27.2969
Q48.6875 37.2031 44.6094 42.8438
Q40.5312 48.4844 33.4062 48.4844
Q26.2656 48.4844 22.1875 42.8438
Q18.1094 37.2031 18.1094 27.2969
Q18.1094 17.3906 22.1875 11.75
Q26.2656 6.10938 33.4062 6.10938
Q40.5312 6.10938 44.6094 11.75
Q48.6875 17.3906 48.6875 27.2969" id="BitstreamVeraSans-Roman-70"/>
    </defs>
    <g transform="translate(428.94675 38.2)scale(0.144 -0.144)">
     <use xlink:href="#BitstreamVeraSans-Roman-4b"/>
     <use x="63.826171875" xlink:href="#BitstreamVeraSans-Roman-61"/>
     <use x="125.10546875" xlink:href="#BitstreamVeraSans-Roman-6d"/>
     <use x="222.517578125" xlink:href="#BitstreamVeraSans-Roman-70"/>
     <use x="285.994140625" xlink:href="#BitstreamVeraSans-Roman-66"/>
     <use x="321.19921875" xlink:href="#BitstreamVeraSans-Roman-68"/>
     <use x="384.578125" xlink:href="#BitstreamVeraSans-Roman-75"/>
     <use x="447.95703125" xlink:href="#BitstreamVeraSans-Roman-6e"/>
     <use x="511.3359375" xlink:href="#BitstreamVeraSans-Roman-64"/>
     <use x="574.8125" xlink:href="#BitstreamVeraSans-Roman-65"/>
    </g>
   </g>
   <g id="legend_1">
    <g id="patch_7">
     <path d="
M123.942 423.616
L466.458 423.616
L466.458 398.16
L123.942 398.16
z
" style="fill:#ffffff;stroke:#000000;stroke-linejoin:miter;"/>
    </g>
    <g id="line2d_33">
     <path d="
M134.022 409.822
L154.182 409.822" style="fill:none;stroke:#ff0000;stroke-linecap:square;"/>
    </g>
    <g id="line2d_34"/>
    <g id="text_17">
     <!-- Schwarzmarktpreis -->
     <defs>
      <path d="
M9.07812 75.9844
L18.1094 75.9844
L18.1094 31.1094
L44.9219 54.6875
L56.3906 54.6875
L27.3906 29.1094
L57.625 0
L45.9062 0
L18.1094 26.7031
L18.1094 0
L9.07812 0
z
" id="BitstreamVeraSans-Roman-6b"/>
      <path d="
M53.5156 70.5156
L53.5156 60.8906
Q47.9062 63.5781 42.9219 64.8906
Q37.9375 66.2188 33.2969 66.2188
Q25.25 66.2188 20.875 63.0938
Q16.5 59.9688 16.5 54.2031
Q16.5 49.3594 19.4062 46.8906
Q22.3125 44.4375 30.4219 42.9219
L36.375 41.7031
Q47.4062 39.5938 52.6562 34.2969
Q57.9062 29 57.9062 20.125
Q57.9062 9.51562 50.7969 4.04688
Q43.7031 -1.42188 29.9844 -1.42188
Q24.8125 -1.42188 18.9688 -0.25
Q13.1406 0.921875 6.89062 3.21875
L6.89062 13.375
Q12.8906 10.0156 18.6562 8.29688
Q24.4219 6.59375 29.9844 6.59375
Q38.4219 6.59375 43.0156 9.90625
Q47.6094 13.2344 47.6094 19.3906
Q47.6094 24.75 44.3125 27.7812
Q41.0156 30.8125 33.5 32.3281
L27.4844 33.5
Q16.4531 35.6875 11.5156 40.375
Q6.59375 45.0625 6.59375 53.4219
Q6.59375 63.0938 13.4062 68.6562
Q20.2188 74.2188 32.1719 74.2188
Q37.3125 74.2188 42.625 73.2812
Q47.9531 72.3594 53.5156 70.5156" id="BitstreamVeraSans-Roman-53"/>
      <path d="
M9.42188 54.6875
L18.4062 54.6875
L18.4062 0
L9.42188 0
z

M9.42188 75.9844
L18.4062 75.9844
L18.4062 64.5938
L9.42188 64.5938
z
" id="BitstreamVeraSans-Roman-69"/>
      <path d="
M4.20312 54.6875
L13.1875 54.6875
L24.4219 12.0156
L35.5938 54.6875
L46.1875 54.6875
L57.4219 12.0156
L68.6094 54.6875
L77.5938 54.6875
L63.2812 0
L52.6875 0
L40.9219 44.8281
L29.1094 0
L18.5 0
z
" id="BitstreamVeraSans-Roman-77"/>
      <path d="
M5.51562 54.6875
L48.1875 54.6875
L48.1875 46.4844
L14.4062 7.17188
L48.1875 7.17188
L48.1875 0
L4.29688 0
L4.29688 8.20312
L38.0938 47.5156
L5.51562 47.5156
z
" id="BitstreamVeraSans-Roman-7a"/>
      <path d="
M41.1094 46.2969
Q39.5938 47.1719 37.8125 47.5781
Q36.0312 48 33.8906 48
Q26.2656 48 22.1875 43.0469
Q18.1094 38.0938 18.1094 28.8125
L18.1094 0
L9.07812 0
L9.07812 54.6875
L18.1094 54.6875
L18.1094 46.1875
Q20.9531 51.1719 25.4844 53.5781
Q30.0312 56 36.5312 56
Q37.4531 56 38.5781 55.875
Q39.7031 55.7656 41.0625 55.5156
z
" id="BitstreamVeraSans-Roman-72"/>
      <path d="
M44.2812 53.0781
L44.2812 44.5781
Q40.4844 46.5312 36.375 47.5
Q32.2812 48.4844 27.875 48.4844
Q21.1875 48.4844 17.8438 46.4375
Q14.5 44.3906 14.5 40.2812
Q14.5 37.1562 16.8906 35.375
Q19.2812 33.5938 26.5156 31.9844
L29.5938 31.2969
Q39.1562 29.25 43.1875 25.5156
Q47.2188 21.7812 47.2188 15.0938
Q47.2188 7.46875 41.1875 3.01562
Q35.1562 -1.42188 24.6094 -1.42188
Q20.2188 -1.42188 15.4531 -0.5625
Q10.6875 0.296875 5.42188 2
L5.42188 11.2812
Q10.4062 8.6875 15.2344 7.39062
Q20.0625 6.10938 24.8125 6.10938
Q31.1562 6.10938 34.5625 8.28125
Q37.9844 10.4531 37.9844 14.4062
Q37.9844 18.0625 35.5156 20.0156
Q33.0625 21.9688 24.7031 23.7812
L21.5781 24.5156
Q13.2344 26.2656 9.51562 29.9062
Q5.8125 33.5469 5.8125 39.8906
Q5.8125 47.6094 11.2812 51.7969
Q16.75 56 26.8125 56
Q31.7812 56 36.1719 55.2656
Q40.5781 54.5469 44.2812 53.0781" id="BitstreamVeraSans-Roman-73"/>
     </defs>
     <g transform="translate(170.022375 414.86175)scale(0.144 -0.144)">
      <use xlink:href="#BitstreamVeraSans-Roman-53"/>
      <use x="63.4765625" xlink:href="#BitstreamVeraSans-Roman-63"/>
      <use x="118.45703125" xlink:href="#BitstreamVeraSans-Roman-68"/>
      <use x="181.8359375" xlink:href="#BitstreamVeraSans-Roman-77"/>
      <use x="263.623046875" xlink:href="#BitstreamVeraSans-Roman-61"/>
      <use x="324.90234375" xlink:href="#BitstreamVeraSans-Roman-72"/>
      <use x="366.015625" xlink:href="#BitstreamVeraSans-Roman-7a"/>
      <use x="418.505859375" xlink:href="#BitstreamVeraSans-Roman-6d"/>
      <use x="515.91796875" xlink:href="#BitstreamVeraSans-Roman-61"/>
      <use x="577.197265625" xlink:href="#BitstreamVeraSans-Roman-72"/>
      <use x="618.310546875" xlink:href="#BitstreamVeraSans-Roman-6b"/>
      <use x="676.220703125" xlink:href="#BitstreamVeraSans-Roman-74"/>
      <use x="715.4296875" xlink:href="#BitstreamVeraSans-Roman-70"/>
      <use x="778.90625" xlink:href="#BitstreamVeraSans-Roman-72"/>
      <use x="817.76953125" xlink:href="#BitstreamVeraSans-Roman-65"/>
      <use x="879.29296875" xlink:href="#BitstreamVeraSans-Roman-69"/>
      <use x="907.076171875" xlink:href="#BitstreamVeraSans-Roman-73"/>
     </g>
    </g>
    <g id="line2d_35">
     <path d="
M339.609 409.822
L359.769 409.822" style="fill:none;stroke:#008000;stroke-linecap:square;"/>
    </g>
    <g id="line2d_36"/>
    <g id="text_18">
     <!-- Normalpreis -->
     <defs>
      <path d="
M9.42188 75.9844
L18.4062 75.9844
L18.4062 0
L9.42188 0
z
" id="BitstreamVeraSans-Roman-6c"/>
     </defs>
     <g transform="translate(375.609375 414.86175)scale(0.144 -0.144)">
      <use xlink:href="#BitstreamVeraSans-Roman-4e"/>
      <use x="74.8046875" xlink:href="#BitstreamVeraSans-Roman-6f"/>
      <use x="135.986328125" xlink:href="#BitstreamVeraSans-Roman-72"/>
      <use x="175.349609375" xlink:href="#BitstreamVeraSans-Roman-6d"/>
      <use x="272.76171875" xlink:href="#BitstreamVeraSans-Roman-61"/>
      <use x="334.041015625" xlink:href="#BitstreamVeraSans-Roman-6c"/>
      <use x="361.82421875" xlink:href="#BitstreamVeraSans-Roman-70"/>
      <use x="425.30078125" xlink:href="#BitstreamVeraSans-Roman-72"/>
      <use x="464.1640625" xlink:href="#BitstreamVeraSans-Roman-65"/>
      <use x="525.6875" xlink:href="#BitstreamVeraSans-Roman-69"/>
      <use x="553.470703125" xlink:href="#BitstreamVeraSans-Roman-73"/>
     </g>
    </g>
   </g>
  </g>
 </g>
 <defs>
  <clipPath id="pcb2bf987bf">
   <rect height="302.4" width="446.4" x="72.0" y="43.2"/>
  </clipPath>
 </defs>
</svg>
