<?xml version="1.0" encoding="utf-8" standalone="no"?>
<!DOCTYPE svg PUBLIC "-//W3C//DTD SVG 1.1//EN"
  "http://www.w3.org/Graphics/SVG/1.1/DTD/svg11.dtd">
<!-- Created with matplotlib (http://matplotlib.org/) -->
<svg height="432pt" version="1.1" viewBox="0 0 576 432" width="576pt" xmlns="http://www.w3.org/2000/svg" xmlns:xlink="http://www.w3.org/1999/xlink">
 <defs>
  <style type="text/css">
*{stroke-linecap:butt;stroke-linejoin:round;}
  </style>
 </defs>
 <g id="figure_1">
  <g id="patch_1">
   <path d="
M0 432
L576 432
L576 0
L0 0
z
" style="fill:#ffffff;"/>
  </g>
  <g id="axes_1">
   <g id="patch_2">
    <path d="
M72 345.6
L518.4 345.6
L518.4 43.2
L72 43.2
z
" style="fill:#ffffff;"/>
   </g>
   <g id="line2d_1">
    <path clip-path="url(#pcb2bf987bf)" d="
M72 322.915
L72.1276 309.232
L72.3828 327.161
L72.5105 327.067
L72.8933 327.161
L73.1485 360.661
L73.2762 360.661
L73.5314 327.161
L73.659 327.444
L74.0419 327.161
L74.2971 327.161
L74.4247 360.661
L74.6799 360.661
L74.8075 327.161
L75.0628 360.661
L75.1904 327.539
L75.4456 327.161
L75.5732 327.256
L75.9561 327.161
L76.3389 327.35
L76.5942 327.161
L76.7218 360.661
L76.9772 327.161
L77.3599 327.161
L77.7429 324.33
L77.8703 360.661
L78.1256 326.689
L78.1256 326.689
L78.2532 326.218
L78.5084 326.218
L78.636 324.802
L78.8915 327.161
L79.0189 360.661
L79.2741 326.689
L79.4017 327.444
L79.6569 327.35
L79.7846 327.161
L80.1674 327.161
L80.5503 323.858
L80.8055 326.878
L80.9331 326.689
L81.1885 327.444
L81.316 326.689
L81.5712 326.689
L81.6988 326.218
L82.0816 327.35
L82.3371 360.661
L82.4645 327.161
L82.7197 327.161
L82.8473 326.689
L83.1026 360.661
L83.2302 327.161
L83.613 327.161
L83.8683 324.802
L83.9959 326.689
L84.2511 326.595
L84.3787 325.274
L84.6342 326.218
L85.017 327.161
L85.1444 326.689
L85.5273 326.689
L85.9101 323.858
L86.1654 324.802
L86.293 327.161
L86.5482 360.661
L87.3139 360.661
L87.4415 327.067
L87.6967 360.661
L87.8244 360.661
L88.0796 327.539
L88.4624 326.689
L88.5901 360.661
L88.8453 360.661
L88.8453 360.661
L88.9729 327.161
L89.2281 360.661
L89.3557 327.161
L89.611 327.633
L89.7386 327.633
L89.9938 360.661
L89.9938 360.661
L91.0148 360.661
L91.7804 327.161
L92.5461 327.161
L92.6738 360.661
L94.0775 360.661
L94.2051 327.067
L94.8432 360.661
L94.9708 327.161
L95.6089 360.661
L95.7365 327.161
L96.3746 360.661
L97.1403 327.161
L97.906 327.161
L98.0336 360.661
L98.7993 360.661
L99.4374 326.972
L100.203 322.915
L100.331 322.915
L100.969 326.689
L101.734 327.161
L101.862 360.661
L102.5 327.161
L103.266 360.661
L104.032 360.661
L104.797 327.161
L106.329 327.161
L107.095 360.661
L107.86 327.161
L107.988 327.161
L108.626 327.539
L109.519 327.161
L111.05 327.161
L111.689 360.661
L111.816 327.161
L113.986 327.633
L114.879 327.633
L116.41 327.161
L117.048 327.161
L117.814 360.661
L117.942 327.161
L118.58 327.444
L118.707 360.661
L119.345 326.689
L120.111 327.161
L120.877 327.161
L121.004 360.661
L122.536 360.661
L123.174 327.633
L123.94 360.661
L124.067 327.633
L124.705 360.661
L125.471 327.633
L126.109 327.633
L126.237 360.661
L126.237 360.661
L126.365 327.633
L127.002 327.633
L127.13 360.661
L127.13 360.661
L127.64 360.661
L127.64 360.661
L127.768 327.633
L128.534 360.661
L129.299 360.661
L130.065 327.161
L130.193 360.661
L130.831 360.661
L131.597 327.633
L132.362 360.661
L132.362 360.661
L133.894 360.661
L134.149 327.633
L134.659 325.746
L135.425 360.661
L136.191 327.633
L136.318 327.633
L136.956 326.689
L137.722 360.661
L138.488 327.161
L139.254 360.661
L139.381 360.661
L140.019 327.161
L141.551 327.161
L141.678 360.661
L142.316 327.161
L143.082 360.661
L143.848 323.387
L143.975 323.387
L144.613 321.405
L145.507 327.161
L146.145 360.661
L146.272 327.161
L146.91 327.444
L147.038 327.161
L148.442 327.161
L149.208 360.661
L151.505 360.661
L152.27 327.161
L153.802 327.161
L154.567 326.689
L155.333 327.161
L155.333 327.161
L156.099 326.878
L156.865 360.661
L157.63 326.218
L157.758 360.661
L158.396 327.161
L159.162 327.161
L159.927 360.661
L160.693 327.161
L160.821 360.661
L162.224 326.689
L162.99 360.661
L163.118 327.161
L163.883 327.256
L164.521 326.972
L164.649 326.689
L165.287 360.661
L166.053 360.661
L166.819 327.161
L171.413 327.161
L172.178 360.661
L172.944 360.661
L173.072 313.95
L173.71 360.661
L174.475 326.689
L174.603 326.689
L176.007 327.161
L176.9 326.689
L177.538 360.661
L178.304 360.661
L179.07 327.161
L180.601 327.161
L180.729 360.661
L181.367 360.661
L182.132 326.689
L182.26 360.661
L182.898 326.689
L183.664 360.661
L183.791 360.661
L184.43 327.161
L185.195 325.746
L185.961 327.161
L186.727 360.661
L187.492 360.661
L188.258 327.067
L189.024 360.661
L189.151 327.161
L190.555 307.817
L191.321 360.661
L191.321 360.661
L195.149 360.661
L195.277 327.161
L195.915 360.661
L196.681 327.161
L198.212 360.661
L198.212 360.661
L198.978 326.689
L200.509 327.161
L202.806 327.161
L203.572 360.661
L203.699 322.915
L204.338 360.661
L205.997 360.661
L206.124 327.161
L206.507 360.661
L207.4 360.661
L207.911 326.218
L208.166 360.661
L208.804 327.161
L209.059 327.161
L209.059 327.161
L209.442 327.444
L209.57 360.661
L209.825 360.661
L210.591 327.161
L210.846 326.218
L211.356 327.161
L212.25 327.161
L212.505 360.661
L212.633 327.161
L212.888 360.661
L213.271 327.161
L213.398 327.161
L213.654 360.661
L213.654 360.661
L213.781 360.661
L214.036 327.161
L214.164 360.661
L214.419 360.661
L214.547 304.042
L214.802 327.161
L215.185 327.161
L215.185 327.161
L215.313 360.661
L215.695 323.858
L215.951 360.661
L215.951 360.661
L216.078 360.661
L216.333 327.161
L216.461 360.661
L216.844 360.661
L217.099 327.161
L217.227 326.689
L217.482 327.161
L217.482 327.161
L217.61 326.689
L217.865 360.661
L217.992 326.689
L218.248 360.661
L218.248 360.661
L218.375 360.661
L218.631 327.35
L218.758 360.661
L219.013 327.161
L219.141 360.661
L219.779 360.661
L219.907 327.539
L220.162 360.661
L220.29 327.161
L220.29 327.161
L220.417 360.661
L220.545 327.161
L220.672 327.161
L220.672 327.161
L220.928 326.218
L221.055 360.661
L221.438 360.661
L221.693 327.161
L222.076 323.858
L222.204 360.661
L222.459 360.661
L222.587 327.161
L222.842 360.661
L222.842 360.661
L223.225 326.689
L223.352 360.661
L223.608 327.161
L224.118 327.161
L224.373 360.661
L224.501 327.161
L224.756 323.387
L224.884 327.161
L225.139 326.218
L225.267 360.661
L225.522 327.161
L225.649 360.661
L225.649 360.661
L225.777 327.067
L225.777 327.067
L225.905 327.35
L225.905 327.35
L226.032 327.161
L226.032 327.161
L226.16 360.661
L226.16 360.661
L226.288 327.161
L226.415 360.661
L226.415 360.661
L226.67 360.661
L226.798 327.161
L227.053 315.366
L227.181 326.595
L227.436 360.661
L227.436 360.661
L227.819 327.161
L227.946 360.661
L228.202 327.161
L228.329 325.274
L228.585 326.689
L228.712 360.661
L228.967 327.161
L229.095 360.661
L229.35 327.161
L229.478 360.661
L229.733 327.161
L229.861 360.661
L230.116 327.161
L230.244 327.161
L230.499 360.661
L230.499 360.661
L230.882 327.161
L231.009 327.256
L231.392 327.161
L232.03 327.161
L232.158 326.689
L232.413 327.161
L232.541 360.661
L232.796 360.661
L232.796 360.661
L232.924 327.161
L233.306 327.161
L233.562 360.661
L233.689 360.661
L233.944 327.161
L234.072 360.661
L234.327 360.661
L234.327 360.661
L234.455 327.161
L235.093 327.161
L235.093 327.161
L235.221 360.661
L236.242 360.661
L236.369 327.161
L236.624 360.661
L236.752 360.661
L237.007 327.444
L237.135 360.661
L237.39 327.161
L238.156 327.161
L238.283 360.661
L238.921 360.661
L239.049 327.067
L239.304 360.661
L239.432 360.661
L239.687 326.689
L239.815 327.161
L240.07 360.661
L240.198 360.661
L240.453 327.161
L240.453 327.161
L240.58 327.161
L240.836 326.689
L240.963 326.689
L241.219 327.161
L241.346 327.161
L241.601 360.661
L241.729 327.161
L241.984 360.661
L242.112 327.161
L242.367 327.161
L242.495 360.661
L243.26 360.661
L243.516 327.161
L243.643 327.161
L243.898 324.991
L244.026 325.274
L244.281 360.661
L244.409 327.161
L244.664 326.218
L244.792 360.661
L245.175 322.443
L245.43 326.218
L245.557 360.661
L245.94 360.661
L246.196 327.161
L246.323 360.661
L246.706 360.661
L246.961 327.161
L247.089 327.067
L247.344 327.161
L247.727 327.067
L247.855 326.689
L248.237 327.161
L248.493 360.661
L248.62 360.661
L248.876 327.161
L248.876 327.161
L249.003 360.661
L249.258 325.274
L249.641 326.689
L249.641 326.689
L249.769 303.57
L250.024 360.661
L250.534 360.661
L250.79 327.161
L250.917 327.161
L251.173 360.661
L251.3 327.161
L251.683 327.161
L251.938 327.35
L252.066 327.161
L252.321 360.661
L252.832 360.661
L253.087 327.161
L253.214 360.661
L253.47 325.274
L253.597 327.067
L253.98 327.161
L254.235 360.661
L254.363 327.161
L254.618 322.915
L254.746 327.161
L254.746 327.161
L255.001 322.915
L255.129 327.161
L255.129 327.161
L255.384 308.288
L255.511 322.443
L255.511 322.443
L255.767 325.746
L255.767 325.746
L255.894 360.661
L256.66 360.661
L256.66 360.661
L256.915 327.161
L257.043 327.161
L257.298 360.661
L257.426 217.227
L257.681 360.661
L257.809 360.661
L258.064 327.161
L258.064 327.161
L258.447 360.661
L258.574 327.161
L258.702 327.444
L258.957 327.161
L259.212 308.288
L259.212 308.288
L259.34 327.161
L259.595 327.161
L259.595 327.161
L259.723 360.661
L259.978 327.539
L260.106 327.161
L260.361 327.161
L260.489 360.661
L260.744 360.661
L260.871 327.161
L262.02 327.067
L262.275 360.661
L262.658 360.661
L262.786 327.161
L263.041 360.661
L263.168 327.161
L263.424 360.661
L263.424 360.661
L263.551 327.161
L264.317 327.161
L264.572 360.661
L264.955 360.661
L264.955 360.661
L265.083 327.161
L265.338 360.661
L265.466 327.161
L265.593 360.661
L265.848 327.161
L266.104 327.161
L266.231 360.661
L266.486 327.161
L266.614 360.661
L266.869 327.444
L266.997 327.161
L267.38 327.161
L267.635 360.661
L267.763 327.161
L268.018 360.661
L268.145 327.161
L268.401 327.444
L268.528 360.661
L268.784 327.161
L268.911 360.661
L269.166 360.661
L269.294 327.161
L269.549 360.661
L269.677 327.161
L269.932 327.161
L270.06 360.661
L270.315 327.161
L270.443 327.161
L270.698 360.661
L270.825 360.661
L271.081 327.161
L271.463 360.661
L271.846 327.633
L271.974 327.161
L272.229 325.746
L272.357 58.3172
L272.612 327.161
L272.74 327.161
L272.995 324.33
L273.378 324.33
L273.378 324.33
L273.506 327.161
L273.761 326.689
L273.888 327.35
L274.271 327.161
L274.654 327.161
L274.909 327.539
L274.909 327.539
L275.292 327.067
L275.675 327.067
L275.802 360.661
L276.058 327.444
L276.185 360.661
L276.441 360.661
L276.568 327.161
L277.206 327.161
L277.334 360.661
L277.717 360.661
L277.972 326.218
L277.972 326.218
L278.099 326.218
L278.355 322.915
L278.482 360.661
L278.738 327.161
L278.865 360.661
L279.12 326.218
L279.248 360.661
L279.503 360.661
L279.631 327.633
L280.397 327.633
L280.652 360.661
L280.779 327.161
L281.545 327.161
L281.801 324.33
L282.183 360.661
L282.311 326.689
L282.566 326.218
L282.694 326.689
L282.949 323.858
L283.077 327.161
L284.225 327.161
L284.48 360.661
L284.608 327.256
L284.736 360.661
L285.246 326.689
L285.374 327.161
L285.756 327.161
L286.012 325.274
L286.139 360.661
L286.395 327.161
L286.522 360.661
L286.905 315.366
L287.16 324.802
L287.288 324.33
L287.671 327.35
L287.926 327.067
L288.309 327.35
L288.437 360.661
L288.692 360.661
L288.819 326.689
L289.074 327.161
L289.202 327.161
L289.457 360.661
L289.585 326.878
L289.84 326.123
L289.968 327.633
L290.989 327.633
L291.116 327.161
L291.499 327.161
L291.754 360.661
L292.137 327.633
L292.265 327.633
L292.52 360.661
L292.52 360.661
L292.903 360.661
L293.031 313.478
L293.286 327.539
L293.286 327.539
L293.413 360.661
L293.669 327.161
L293.669 327.161
L294.179 327.161
L294.434 326.218
L294.817 326.218
L294.817 326.218
L294.945 360.661
L295.2 360.661
L295.328 327.633
L295.71 327.633
L295.966 327.161
L296.476 327.161
L296.731 360.661
L296.859 323.387
L297.114 360.661
L298.008 360.661
L298.263 327.727
L298.39 327.633
L298.646 326.689
L298.773 327.161
L299.028 326.218
L299.156 327.067
L299.411 327.539
L299.539 327.161
L299.794 324.33
L299.922 324.33
L300.177 360.661
L300.177 360.661
L300.305 327.161
L300.56 360.661
L300.943 360.661
L301.07 318.197
L301.453 327.161
L301.708 327.161
L301.836 360.661
L302.219 322.915
L302.474 360.661
L302.474 360.661
L302.985 360.661
L303.112 327.161
L303.368 327.539
L303.623 360.661
L303.75 360.661
L304.005 327.161
L304.005 327.161
L304.388 327.161
L304.771 327.35
L304.899 327.161
L305.154 360.661
L306.047 360.661
L306.303 327.444
L306.43 360.661
L306.685 360.661
L306.813 327.35
L307.068 360.661
L307.068 360.661
L307.196 327.161
L307.451 360.661
L307.579 360.661
L307.834 327.161
L307.962 360.661
L308.217 327.161
L308.344 327.161
L308.6 360.661
L308.6 360.661
L309.11 360.661
L309.365 327.161
L309.493 360.661
L309.748 360.661
L309.876 327.539
L310.131 327.161
L310.131 327.161
L310.259 327.539
L310.514 327.161
L310.642 360.661
L310.897 327.35
L311.28 327.35
L311.407 327.161
L311.662 360.661
L311.79 360.661
L312.045 326.218
L312.173 326.689
L312.428 326.218
L312.556 326.218
L312.811 325.274
L312.939 326.689
L313.194 325.746
L313.321 360.661
L313.577 326.689
L313.704 326.878
L313.96 326.689
L314.087 327.161
L314.342 360.661
L314.47 327.161
L314.725 305.929
L314.853 327.161
L315.236 327.161
L315.491 360.661
L315.619 360.661
L315.874 327.161
L316.257 360.661
L316.384 360.661
L316.767 327.161
L317.022 327.539
L317.405 326.689
L317.533 326.689
L317.788 327.539
L317.916 327.161
L318.171 360.661
L318.298 327.161
L318.554 325.746
L318.554 325.746
L318.681 326.689
L318.937 360.661
L319.064 360.661
L319.447 323.292
L319.83 326.689
L320.085 327.161
L320.213 360.661
L320.596 326.218
L320.851 327.161
L320.851 327.161
L321.234 326.689
L321.361 327.161
L321.616 327.161
L322.127 326.689
L322.893 327.161
L323.148 325.18
L323.275 327.161
L323.658 327.161
L323.914 360.661
L323.914 360.661
L324.041 327.161
L324.296 327.161
L324.424 360.661
L325.19 360.661
L325.445 327.067
L325.573 327.161
L325.828 325.274
L325.956 360.661
L326.338 360.661
L326.593 327.161
L327.487 327.161
L327.742 325.274
L327.87 327.161
L328.125 360.661
L328.252 327.161
L328.635 327.161
L328.891 360.661
L329.018 327.161
L329.273 326.218
L329.401 326.218
L329.656 360.661
L330.039 360.661
L330.167 324.802
L330.422 318.197
L330.55 324.802
L330.805 360.661
L330.933 360.661
L331.188 327.633
L331.315 327.539
L331.57 327.161
L331.698 327.633
L331.953 360.661
L332.081 360.661
L332.336 327.161
L332.719 327.161
L332.847 360.661
L333.612 360.661
L333.868 327.161
L333.995 327.161
L334.25 360.661
L334.378 327.161
L334.633 327.161
L334.761 360.661
L335.144 323.858
L335.527 326.218
L335.782 327.256
L335.909 360.661
L336.165 327.161
L336.292 326.689
L336.548 326.689
L336.675 327.161
L336.93 360.661
L337.058 360.661
L337.441 318.102
L337.696 327.161
L337.824 327.161
L338.079 360.661
L338.462 360.661
L338.589 327.161
L338.845 360.661
L338.972 360.661
L339.227 327.161
L339.355 327.444
L339.61 360.661
L339.866 360.661
L340.121 327.444
L340.376 327.35
L340.504 327.444
L340.886 327.067
L341.269 327.161
L341.525 327.444
L341.652 326.218
L341.907 327.161
L342.673 327.161
L342.801 360.661
L343.822 360.661
L343.822 360.661
L343.949 327.161
L344.332 327.161
L344.588 360.661
L344.715 327.161
L345.098 327.161
L345.353 360.661
L345.353 360.661
L345.481 327.067
L345.863 327.161
L346.246 327.067
L346.502 360.661
L346.629 313.478
L346.884 327.444
L346.884 327.444
L347.012 327.067
L347.267 327.161
L347.395 327.444
L347.65 327.161
L347.778 360.661
L348.033 326.218
L348.161 326.218
L348.416 327.161
L348.543 360.661
L348.799 327.161
L348.926 360.661
L349.181 327.161
L349.309 360.661
L349.564 326.689
L349.692 327.161
L349.947 360.661
L350.075 327.256
L350.33 360.661
L350.713 360.661
L350.84 327.161
L351.096 327.161
L351.224 327.444
L351.606 327.067
L351.861 327.444
L351.989 360.661
L352.244 327.161
L352.372 360.661
L352.627 360.661
L352.755 327.444
L353.01 360.661
L353.138 360.661
L353.393 327.35
L353.52 327.161
L353.776 327.35
L353.776 327.35
L354.286 327.161
L354.541 360.661
L354.669 327.444
L354.924 360.661
L355.052 327.161
L356.073 327.161
L356.073 327.161
L356.2 360.661
L356.583 327.161
L356.838 323.387
L356.966 327.161
L357.221 360.661
L357.477 327.161
L357.732 360.661
L357.987 360.661
L358.115 327.161
L358.37 327.161
L358.37 327.161
L358.497 360.661
L358.753 326.689
L358.88 360.661
L359.136 327.161
L359.263 360.661
L359.518 327.161
L359.646 327.161
L359.901 360.661
L360.029 327.256
L360.284 324.802
L360.412 326.689
L360.667 326.689
L360.795 360.661
L361.177 360.661
L361.433 326.689
L361.56 326.689
L361.816 326.218
L361.943 326.972
L362.198 360.661
L362.326 360.661
L362.581 327.161
L362.709 360.661
L362.964 327.161
L363.092 360.661
L363.857 360.661
L364.24 323.387
L364.495 360.661
L364.623 360.661
L364.878 327.161
L365.006 360.661
L365.261 327.35
L365.389 360.661
L365.644 327.067
L365.772 327.161
L366.027 360.661
L366.027 360.661
L366.155 327.161
L366.41 327.161
L366.537 360.661
L366.792 327.161
L366.92 325.274
L367.175 326.689
L367.303 326.689
L367.558 360.661
L367.686 360.661
L367.941 327.161
L368.707 327.161
L369.09 360.661
L369.6 360.661
L369.855 327.35
L369.983 327.161
L370.238 327.256
L370.366 232.797
L370.621 327.161
L370.749 327.161
L371.004 313.478
L371.131 360.661
L371.387 327.161
L371.769 327.161
L371.897 325.274
L372.152 327.256
L372.28 327.161
L372.663 327.161
L372.918 318.197
L373.046 327.161
L373.301 326.595
L373.428 360.661
L373.684 326.689
L373.684 326.689
L373.811 327.161
L375.215 327.067
L375.343 360.661
L375.598 323.009
L375.726 360.661
L375.981 327.161
L376.108 360.661
L376.364 360.661
L376.491 327.161
L376.874 327.161
L377.129 360.661
L377.257 327.161
L377.512 324.802
L377.512 324.802
L377.64 327.161
L377.767 325.274
L378.023 325.274
L378.278 327.161
L378.405 327.161
L378.661 360.661
L378.788 326.784
L379.171 326.689
L379.426 327.161
L379.554 327.161
L379.809 360.661
L380.192 360.661
L380.575 327.161
L380.703 327.067
L380.958 360.661
L381.086 360.661
L381.341 327.161
L382.489 327.161
L382.617 327.444
L383 327.161
L383.255 360.661
L383.383 327.161
L383.638 327.161
L384.021 327.35
L384.148 325.274
L384.531 325.274
L384.786 327.161
L385.297 327.161
L385.552 327.35
L385.68 327.161
L385.935 327.35
L386.062 360.661
L386.445 360.661
L386.701 327.539
L386.828 327.161
L387.083 326.972
L387.211 326.689
L387.466 327.161
L387.594 360.661
L387.849 360.661
L387.977 327.161
L388.232 327.444
L388.232 327.444
L388.36 275.261
L388.615 343.958
L388.742 343.581
L388.998 343.675
L389.125 327.161
L389.508 327.161
L389.763 343.581
L390.146 299.324
L390.274 343.581
L390.529 327.161
L390.912 327.161
L391.039 343.675
L391.295 343.675
L391.422 360.661
L391.678 327.161
L391.805 327.161
L392.06 325.746
L392.188 327.067
L392.443 326.689
L392.571 326.972
L392.826 360.661
L392.954 327.161
L393.209 360.661
L393.719 360.661
L393.975 327.161
L394.102 327.256
L394.102 327.256
L394.485 327.161
L394.74 325.274
L394.868 327.161
L395.251 327.161
L395.506 326.218
L395.634 326.218
L395.889 360.661
L396.016 327.067
L396.272 360.661
L396.782 360.661
L397.037 327.161
L397.165 360.661
L397.42 360.661
L397.548 327.161
L397.803 360.661
L397.931 360.661
L398.186 327.161
L398.569 327.161
L398.696 360.661
L399.462 360.661
L399.717 327.161
L399.845 327.161
L400.1 326.689
L400.228 324.802
L400.483 327.444
L400.611 360.661
L401.249 360.661
L401.376 326.218
L401.632 327.161
L402.142 327.161
L402.525 324.802
L402.908 324.802
L403.163 327.067
L403.291 326.689
L403.673 326.689
L403.929 327.161
L404.694 327.161
L404.822 325.746
L405.077 327.444
L405.46 326.689
L405.588 327.161
L405.843 327.161
L405.97 326.784
L406.353 327.161
L406.609 326.218
L406.736 360.661
L406.991 327.161
L407.119 327.161
L407.374 326.689
L407.502 327.161
L407.757 360.661
L408.523 360.661
L408.65 327.161
L408.906 327.161
L409.033 360.661
L409.289 326.218
L409.416 326.689
L409.671 327.161
L410.565 327.161
L410.82 360.661
L411.713 360.661
L412.096 322.915
L412.351 327.067
L412.479 326.689
L412.607 325.746
L412.989 326.218
L413.245 360.661
L413.5 360.661
L413.627 327.161
L413.883 360.661
L414.01 360.661
L414.266 327.161
L414.393 360.661
L414.648 327.256
L414.776 327.161
L415.031 327.161
L415.159 320.556
L415.414 327.161
L415.542 360.661
L415.797 360.661
L415.925 327.161
L416.18 360.661
L416.307 327.161
L416.563 360.661
L416.69 360.661
L416.945 326.689
L417.073 327.161
L417.328 360.661
L417.456 327.161
L417.711 327.161
L417.839 327.444
L418.094 327.161
L418.222 360.661
L418.477 327.161
L418.604 360.661
L418.86 360.661
L418.987 327.444
L419.243 326.689
L419.37 360.661
L420.008 360.661
L420.136 327.161
L420.391 326.689
L420.519 327.161
L420.902 325.274
L421.157 360.661
L421.284 327.161
L421.54 313.478
L421.667 360.661
L421.922 296.493
L422.05 297.814
L422.305 360.661
L422.433 327.256
L422.688 323.387
L422.816 360.661
L423.071 327.161
L423.199 327.161
L423.454 360.661
L423.581 360.661
L423.964 313.478
L424.22 327.161
L424.347 360.661
L424.602 327.161
L424.73 327.161
L424.985 326.689
L425.113 326.689
L425.368 360.661
L425.496 360.661
L425.751 327.161
L425.879 360.661
L426.134 327.633
L426.261 327.633
L426.517 325.746
L426.644 327.067
L426.899 327.161
L427.282 360.661
L427.41 326.218
L427.665 323.387
L427.793 327.161
L428.176 327.161
L428.431 360.661
L428.558 360.661
L428.814 327.161
L428.941 327.161
L429.197 360.661
L429.579 360.661
L429.707 327.161
L429.962 360.661
L430.728 360.661
L430.856 327.067
L430.983 360.661
L431.238 360.661
L431.494 327.161
L431.621 360.661
L431.877 360.661
L432.004 327.161
L432.387 327.161
L432.642 327.444
L432.642 327.444
L432.77 327.161
L433.791 327.161
L433.918 360.661
L434.174 360.661
L434.301 327.161
L434.556 360.661
L434.939 360.661
L435.067 327.161
L435.322 360.661
L435.833 360.661
L436.088 327.161
L436.215 360.661
L436.471 327.161
L436.598 327.161
L436.854 360.661
L436.981 327.444
L437.236 360.661
L437.619 360.661
L437.747 327.161
L438.002 327.161
L438.13 360.661
L438.385 360.661
L438.513 327.161
L438.768 326.689
L438.895 360.661
L439.151 327.161
L439.533 326.689
L439.661 360.661
L439.916 360.661
L440.044 327.539
L440.299 360.661
L440.299 360.661
L440.427 327.633
L441.192 327.633
L441.448 324.802
L441.958 324.802
L442.341 360.661
L442.596 327.161
L442.724 234.495
L442.979 327.161
L443.107 327.539
L443.362 327.633
L443.49 360.661
L443.745 327.633
L443.872 327.727
L444.128 360.661
L444.255 327.633
L444.51 360.661
L444.638 327.633
L444.893 327.633
L445.021 360.661
L445.276 327.727
L445.404 360.661
L445.659 360.661
L446.042 327.633
L446.169 327.633
L446.425 327.161
L446.552 325.746
L446.808 325.274
L446.935 327.727
L447.19 327.539
L447.318 360.661
L447.573 327.633
L447.701 327.161
L447.956 326.689
L448.084 326.218
L448.339 327.161
L448.849 327.161
L449.105 360.661
L449.232 327.633
L449.487 360.661
L449.487 360.661
L449.615 327.727
L449.87 360.661
L449.998 327.633
L450.126 327.161
L450.381 360.661
L450.636 327.633
L450.764 360.661
L451.019 327.633
L451.912 327.633
L452.167 326.689
L452.295 327.161
L452.55 360.661
L453.061 360.661
L453.316 327.633
L453.444 327.633
L453.699 360.661
L453.826 360.661
L454.082 327.161
L454.209 327.633
L454.465 360.661
L454.592 326.595
L454.847 360.661
L454.847 360.661
L454.975 327.633
L456.123 327.633
L456.379 323.858
L456.889 323.858
L457.144 322.915
L457.272 327.161
L457.527 322.915
L457.655 327.161
L457.91 326.689
L458.038 326.218
L458.421 326.595
L458.676 325.746
L458.803 326.689
L459.059 327.727
L459.186 327.161
L459.442 360.661
L459.569 327.161
L459.824 327.633
L459.952 326.218
L460.207 327.633
L460.335 327.633
L460.59 306.401
L460.718 324.802
L460.973 324.613
L461.101 327.633
L461.356 360.661
L461.484 360.661
L461.739 327.161
L461.866 360.661
L462.121 327.633
L462.249 360.661
L462.504 360.661
L462.632 327.633
L462.887 360.661
L463.653 360.661
L463.781 327.633
L464.036 326.689
L464.163 326.689
L464.419 327.539
L464.546 327.161
L464.801 327.161
L464.929 325.746
L465.184 327.161
L465.95 327.161
L466.078 325.274
L466.333 325.18
L466.46 324.33
L466.716 327.161
L467.098 325.746
L467.098 325.746
L467.226 326.689
L467.481 322.915
L467.864 326.689
L467.992 326.689
L468.247 360.661
L468.63 360.661
L468.757 327.161
L469.14 327.067
L469.523 327.161
L469.906 327.161
L470.161 360.661
L470.289 325.746
L470.544 360.661
L471.055 360.661
L471.31 327.539
L471.437 360.661
L471.693 327.161
L471.82 327.539
L472.075 360.661
L472.203 327.161
L472.458 360.661
L473.352 360.661
L473.607 327.161
L473.734 327.161
L473.99 327.539
L474.118 360.661
L474.373 327.161
L474.5 327.161
L474.755 327.539
L474.883 327.161
L475.138 327.539
L475.266 360.661
L475.649 360.661
L475.904 327.161
L476.032 327.161
L476.287 327.539
L476.414 360.661
L476.797 360.661
L477.052 327.161
L477.435 327.161
L477.563 327.444
L477.946 327.444
L478.201 326.689
L478.329 360.661
L478.584 360.661
L478.711 327.161
L478.967 327.067
L479.094 360.661
L479.35 326.689
L479.477 327.161
L479.732 360.661
L480.243 360.661
L480.498 327.35
L480.626 327.161
L480.881 327.35
L481.009 360.661
L481.264 327.35
L481.391 327.067
L481.647 327.067
L481.774 326.689
L482.03 327.067
L482.412 326.218
L482.54 326.218
L482.795 327.35
L482.923 360.661
L483.178 327.161
L483.689 327.161
L483.944 360.661
L484.071 327.161
L484.327 360.661
L484.454 327.161
L484.709 360.661
L484.837 360.661
L485.092 326.689
L485.858 326.689
L485.986 326.218
L486.241 326.784
L486.241 326.784
L486.368 326.689
L486.624 360.661
L486.751 360.661
L487.007 326.689
L487.134 326.878
L487.389 360.661
L487.517 326.689
L487.772 326.689
L487.9 360.661
L488.155 326.689
L488.283 326.595
L488.666 326.878
L488.921 360.661
L489.048 326.689
L489.304 360.661
L489.431 360.661
L489.686 326.878
L489.814 326.878
L490.069 326.689
L490.197 360.661
L490.452 360.661
L490.58 326.689
L490.835 360.661
L490.963 326.689
L491.218 327.161
L491.345 326.689
L491.601 326.689
L491.728 326.218
L491.984 360.661
L492.111 327.161
L492.366 360.661
L492.494 327.161
L492.749 360.661
L492.877 327.161
L493.643 327.256
L493.898 360.661
L494.026 360.661
L494.281 324.33
L494.408 324.33
L494.663 360.661
L494.791 327.161
L495.046 326.595
L495.174 360.661
L495.429 327.161
L495.557 360.661
L495.684 324.33
L495.812 360.661
L495.812 360.661
L495.94 360.661
L496.195 327.161
L496.322 327.161
L496.578 360.661
L496.705 360.661
L496.961 327.161
L497.088 326.689
L497.343 360.661
L497.471 327.161
L497.726 327.161
L497.854 360.661
L498.109 327.161
L498.492 327.161
L498.62 360.661
L499.002 360.661
L499.258 327.161
L499.258 327.161
L499.385 326.972
L499.64 322.915
L500.023 327.161
L500.151 324.33
L500.406 360.661
L500.534 360.661
L500.789 326.689
L500.917 326.878
L501.299 326.689
L501.555 231.381
L501.682 326.689
L502.065 326.689
L502.32 360.661
L502.448 322.915
L502.703 326.689
L502.831 360.661
L503.086 327.161
L503.214 326.689
L503.469 360.661
L503.597 326.689
L503.852 326.218
L503.979 326.878
L504.362 326.689
L504.617 326.972
L504.745 360.661
L505.128 360.661
L505.383 326.689
L505.511 360.661
L505.766 326.689
L505.894 360.661
L506.277 320.084
L506.532 326.689
L506.659 326.878
L506.915 326.689
L507.042 360.661
L508.063 360.661
L508.191 326.689
L508.446 326.972
L508.574 325.746
L508.829 327.161
L510.743 327.161
L510.871 360.661
L511.509 360.661
L511.636 327.161
L511.892 325.274
L512.019 326.689
L512.274 360.661
L512.402 327.256
L512.657 327.161
L512.785 360.661
L513.551 360.661
L513.806 327.161
L513.933 327.35
L514.317 327.161
L514.572 360.661
L515.082 360.661
L515.337 327.161
L515.465 326.218
L515.72 326.689
L515.848 327.161
L516.103 327.161
L516.231 360.661
L516.486 324.33
L516.613 360.661
L516.869 360.661
L516.996 326.689
L517.251 360.661
L517.379 327.161
L517.762 327.161
L518.017 322.915
L518.145 327.161
L518.4 322.915
L518.4 322.915" style="fill:none;stroke:#ff0000;stroke-linecap:square;"/>
   </g>
   <g id="line2d_2">
    <path clip-path="url(#pcb2bf987bf)" d="
M72 329.048
L72.1276 328.954
L80.4226 328.954
L80.5503 328.577
L81.1885 328.577
L81.316 328.765
L84.2511 328.671
L84.3787 328.482
L85.017 328.482
L85.1444 328.765
L85.7825 328.765
L85.9101 328.294
L86.5482 328.294
L86.6758 329.048
L91.0148 329.143
L91.9081 328.86
L93.3118 329.143
L94.9708 328.954
L95.7365 329.048
L96.3746 329.048
L97.1403 328.86
L98.7993 329.048
L100.331 328.671
L100.969 328.954
L102.5 328.86
L104.797 328.954
L106.329 329.048
L120.111 329.048
L121.004 328.86
L121.643 329.048
L122.536 328.954
L123.174 329.143
L124.705 329.237
L129.299 329.332
L130.193 329.048
L130.831 329.237
L131.597 329.143
L132.362 329.237
L132.362 329.237
L135.425 329.048
L136.318 329.143
L136.956 328.671
L140.785 329.048
L143.975 329.048
L144.613 328.765
L145.507 328.577
L146.272 328.954
L153.164 329.048
L153.802 328.765
L154.567 328.577
L156.099 328.671
L157.758 328.577
L158.396 328.671
L162.224 328.577
L163.118 328.86
L163.883 328.765
L164.649 328.954
L165.287 328.577
L166.053 328.954
L166.819 328.86
L169.243 329.048
L169.881 329.048
L170.775 328.86
L171.413 328.954
L173.71 328.765
L174.603 328.765
L176.007 328.482
L176.9 328.765
L177.538 328.577
L178.304 328.765
L181.367 328.86
L182.26 328.577
L182.898 328.86
L185.195 328.86
L185.961 328.671
L186.727 328.954
L201.275 328.954
L202.04 328.765
L202.806 328.954
L211.356 328.86
L211.484 328.671
L212.888 328.671
L213.398 328.86
L219.779 328.954
L219.907 329.048
L220.545 329.048
L220.672 328.86
L220.672 328.86
L221.31 328.86
L221.438 329.048
L225.139 328.954
L225.267 328.86
L232.03 328.765
L232.158 328.577
L232.796 328.577
L232.796 328.577
L232.924 328.86
L234.327 328.954
L234.327 328.954
L234.455 329.048
L245.047 328.954
L245.047 328.954
L245.175 328.86
L257.298 328.954
L257.426 329.048
L261.892 329.048
L262.02 328.765
L262.658 328.765
L262.786 329.048
L273.378 329.048
L273.378 329.048
L273.506 328.86
L274.909 328.954
L274.909 328.954
L275.037 329.048
L277.972 329.048
L277.972 329.048
L278.099 328.86
L278.738 328.86
L278.865 329.048
L281.801 329.048
L282.311 328.765
L284.736 328.765
L285.374 328.954
L289.457 329.048
L289.585 329.143
L304.005 329.048
L304.005 329.048
L304.133 328.86
L308.6 328.954
L308.6 328.954
L308.727 329.048
L310.131 329.048
L310.131 329.048
L310.259 328.86
L310.897 328.86
L311.024 329.048
L312.428 329.048
L312.556 328.482
L313.194 328.482
L313.321 328.86
L315.491 328.86
L315.619 329.048
L318.554 328.954
L318.554 328.954
L318.681 328.765
L324.679 328.765
L324.807 328.954
L329.273 328.954
L329.401 328.765
L330.039 328.765
L330.167 329.048
L335.399 328.954
L335.527 328.765
L336.165 328.765
L336.292 328.954
L337.696 328.954
L337.824 328.765
L338.462 328.765
L338.589 328.954
L356.838 328.86
L356.966 328.671
L362.964 328.765
L363.092 328.86
L373.684 328.954
L373.684 328.954
L373.811 328.671
L379.044 328.577
L379.171 328.86
L385.935 328.86
L386.062 329.048
L388.232 329.048
L388.232 329.048
L388.36 344.807
L388.998 344.807
L389.125 328.86
L390.529 328.765
L390.657 328.671
L392.06 328.765
L392.188 328.86
L399.717 328.954
L399.845 329.048
L402.014 328.954
L402.142 328.765
L404.311 328.86
L404.439 328.954
L405.843 328.954
L405.97 328.765
L406.609 328.765
L406.736 329.048
L409.671 328.954
L409.799 328.86
L411.968 328.954
L412.096 328.671
L415.797 328.765
L415.925 328.86
L423.454 328.954
L423.581 329.048
L424.985 329.048
L425.113 328.765
L425.751 328.765
L425.879 329.143
L428.048 329.048
L428.176 328.954
L439.533 329.048
L439.661 329.237
L441.831 329.237
L441.831 329.237
L441.958 329.048
L442.596 329.048
L442.724 329.237
L446.425 329.237
L446.552 329.048
L447.19 329.048
L447.318 329.332
L447.956 329.332
L448.084 328.765
L448.722 328.765
L448.849 329.237
L451.785 329.237
L451.912 329.048
L454.847 329.048
L454.847 329.048
L454.975 329.237
L456.379 329.237
L456.506 328.954
L457.91 328.86
L458.038 329.143
L458.676 329.143
L458.803 328.86
L459.442 328.86
L459.569 329.237
L460.973 329.143
L461.101 328.86
L461.739 328.86
L461.866 329.143
L464.801 329.048
L464.929 328.954
L465.567 328.954
L465.567 328.954
L465.695 328.765
L466.333 328.765
L466.46 328.482
L467.864 328.577
L467.992 329.048
L477.052 328.954
L477.18 328.86
L481.647 328.86
L481.774 328.671
L485.475 328.577
L486.241 328.482
L486.241 328.482
L486.368 328.577
L492.366 328.671
L492.494 328.765
L493.132 328.765
L493.26 328.577
L498.492 328.671
L498.62 328.765
L500.789 328.765
L500.917 328.482
L502.32 328.388
L502.448 328.671
L503.852 328.577
L503.979 328.482
L508.446 328.577
L508.574 328.671
L513.04 328.765
L513.168 328.86
L518.4 328.86
L518.4 328.86" style="fill:none;stroke:#008000;stroke-linecap:square;"/>
   </g>
   <g id="patch_3">
    <path d="
M72 43.2
L518.4 43.2" style="fill:none;stroke:#000000;stroke-linecap:square;stroke-linejoin:miter;"/>
   </g>
   <g id="patch_4">
    <path d="
M518.4 345.6
L518.4 43.2" style="fill:none;stroke:#000000;stroke-linecap:square;stroke-linejoin:miter;"/>
   </g>
   <g id="patch_5">
    <path d="
M72 345.6
L518.4 345.6" style="fill:none;stroke:#000000;stroke-linecap:square;stroke-linejoin:miter;"/>
   </g>
   <g id="patch_6">
    <path d="
M72 345.6
L72 43.2" style="fill:none;stroke:#000000;stroke-linecap:square;stroke-linejoin:miter;"/>
   </g>
   <g id="matplotlib.axis_1">
    <g id="xtick_1">
     <g id="line2d_3">
      <defs>
       <path d="
M0 0
L0 -4" id="m93b0483c22" style="stroke:#000000;stroke-width:0.5;"/>
      </defs>
      <g>
       <use style="stroke:#000000;stroke-width:0.5;" x="117.941468267" xlink:href="#m93b0483c22" y="345.6"/>
      </g>
     </g>
     <g id="line2d_4">
      <defs>
       <path d="
M0 0
L0 4" id="m741efc42ff" style="stroke:#000000;stroke-width:0.5;"/>
      </defs>
      <g>
       <use style="stroke:#000000;stroke-width:0.5;" x="117.941468267" xlink:href="#m741efc42ff" y="43.2"/>
      </g>
     </g>
     <g id="text_1">
      <!-- Oct 13 2015 -->
      <defs>
       <path d="
M19.1875 8.29688
L53.6094 8.29688
L53.6094 0
L7.32812 0
L7.32812 8.29688
Q12.9375 14.1094 22.625 23.8906
Q32.3281 33.6875 34.8125 36.5312
Q39.5469 41.8438 41.4219 45.5312
Q43.3125 49.2188 43.3125 52.7812
Q43.3125 58.5938 39.2344 62.25
Q35.1562 65.9219 28.6094 65.9219
Q23.9688 65.9219 18.8125 64.3125
Q13.6719 62.7031 7.8125 59.4219
L7.8125 69.3906
Q13.7656 71.7812 18.9375 73
Q24.125 74.2188 28.4219 74.2188
Q39.75 74.2188 46.4844 68.5469
Q53.2188 62.8906 53.2188 53.4219
Q53.2188 48.9219 51.5312 44.8906
Q49.8594 40.875 45.4062 35.4062
Q44.1875 33.9844 37.6406 27.2188
Q31.1094 20.4531 19.1875 8.29688" id="BitstreamVeraSans-Roman-32"/>
       <path d="
M39.4062 66.2188
Q28.6562 66.2188 22.3281 58.2031
Q16.0156 50.2031 16.0156 36.375
Q16.0156 22.6094 22.3281 14.5938
Q28.6562 6.59375 39.4062 6.59375
Q50.1406 6.59375 56.4219 14.5938
Q62.7031 22.6094 62.7031 36.375
Q62.7031 50.2031 56.4219 58.2031
Q50.1406 66.2188 39.4062 66.2188
M39.4062 74.2188
Q54.7344 74.2188 63.9062 63.9375
Q73.0938 53.6562 73.0938 36.375
Q73.0938 19.1406 63.9062 8.85938
Q54.7344 -1.42188 39.4062 -1.42188
Q24.0312 -1.42188 14.8125 8.82812
Q5.60938 19.0938 5.60938 36.375
Q5.60938 53.6562 14.8125 63.9375
Q24.0312 74.2188 39.4062 74.2188" id="BitstreamVeraSans-Roman-4f"/>
       <path d="
M31.7812 66.4062
Q24.1719 66.4062 20.3281 58.9062
Q16.5 51.4219 16.5 36.375
Q16.5 21.3906 20.3281 13.8906
Q24.1719 6.39062 31.7812 6.39062
Q39.4531 6.39062 43.2812 13.8906
Q47.125 21.3906 47.125 36.375
Q47.125 51.4219 43.2812 58.9062
Q39.4531 66.4062 31.7812 66.4062
M31.7812 74.2188
Q44.0469 74.2188 50.5156 64.5156
Q56.9844 54.8281 56.9844 36.375
Q56.9844 17.9688 50.5156 8.26562
Q44.0469 -1.42188 31.7812 -1.42188
Q19.5312 -1.42188 13.0625 8.26562
Q6.59375 17.9688 6.59375 36.375
Q6.59375 54.8281 13.0625 64.5156
Q19.5312 74.2188 31.7812 74.2188" id="BitstreamVeraSans-Roman-30"/>
       <path d="
M12.4062 8.29688
L28.5156 8.29688
L28.5156 63.9219
L10.9844 60.4062
L10.9844 69.3906
L28.4219 72.9062
L38.2812 72.9062
L38.2812 8.29688
L54.3906 8.29688
L54.3906 0
L12.4062 0
z
" id="BitstreamVeraSans-Roman-31"/>
       <path d="
M40.5781 39.3125
Q47.6562 37.7969 51.625 33
Q55.6094 28.2188 55.6094 21.1875
Q55.6094 10.4062 48.1875 4.48438
Q40.7656 -1.42188 27.0938 -1.42188
Q22.5156 -1.42188 17.6562 -0.515625
Q12.7969 0.390625 7.625 2.20312
L7.625 11.7188
Q11.7188 9.32812 16.5938 8.10938
Q21.4844 6.89062 26.8125 6.89062
Q36.0781 6.89062 40.9375 10.5469
Q45.7969 14.2031 45.7969 21.1875
Q45.7969 27.6406 41.2812 31.2656
Q36.7656 34.9062 28.7188 34.9062
L20.2188 34.9062
L20.2188 43.0156
L29.1094 43.0156
Q36.375 43.0156 40.2344 45.9219
Q44.0938 48.8281 44.0938 54.2969
Q44.0938 59.9062 40.1094 62.9062
Q36.1406 65.9219 28.7188 65.9219
Q24.6562 65.9219 20.0156 65.0312
Q15.375 64.1562 9.8125 62.3125
L9.8125 71.0938
Q15.4375 72.6562 20.3438 73.4375
Q25.25 74.2188 29.5938 74.2188
Q40.8281 74.2188 47.3594 69.1094
Q53.9062 64.0156 53.9062 55.3281
Q53.9062 49.2656 50.4375 45.0938
Q46.9688 40.9219 40.5781 39.3125" id="BitstreamVeraSans-Roman-33"/>
       <path id="BitstreamVeraSans-Roman-20"/>
       <path d="
M10.7969 72.9062
L49.5156 72.9062
L49.5156 64.5938
L19.8281 64.5938
L19.8281 46.7344
Q21.9688 47.4688 24.1094 47.8281
Q26.2656 48.1875 28.4219 48.1875
Q40.625 48.1875 47.75 41.5
Q54.8906 34.8125 54.8906 23.3906
Q54.8906 11.625 47.5625 5.09375
Q40.2344 -1.42188 26.9062 -1.42188
Q22.3125 -1.42188 17.5469 -0.640625
Q12.7969 0.140625 7.71875 1.70312
L7.71875 11.625
Q12.1094 9.23438 16.7969 8.0625
Q21.4844 6.89062 26.7031 6.89062
Q35.1562 6.89062 40.0781 11.3281
Q45.0156 15.7656 45.0156 23.3906
Q45.0156 31 40.0781 35.4375
Q35.1562 39.8906 26.7031 39.8906
Q22.75 39.8906 18.8125 39.0156
Q14.8906 38.1406 10.7969 36.2812
z
" id="BitstreamVeraSans-Roman-35"/>
       <path d="
M18.3125 70.2188
L18.3125 54.6875
L36.8125 54.6875
L36.8125 47.7031
L18.3125 47.7031
L18.3125 18.0156
Q18.3125 11.3281 20.1406 9.42188
Q21.9688 7.51562 27.5938 7.51562
L36.8125 7.51562
L36.8125 0
L27.5938 0
Q17.1875 0 13.2344 3.875
Q9.28125 7.76562 9.28125 18.0156
L9.28125 47.7031
L2.6875 47.7031
L2.6875 54.6875
L9.28125 54.6875
L9.28125 70.2188
z
" id="BitstreamVeraSans-Roman-74"/>
       <path d="
M48.7812 52.5938
L48.7812 44.1875
Q44.9688 46.2969 41.1406 47.3438
Q37.3125 48.3906 33.4062 48.3906
Q24.6562 48.3906 19.8125 42.8438
Q14.9844 37.3125 14.9844 27.2969
Q14.9844 17.2812 19.8125 11.7344
Q24.6562 6.20312 33.4062 6.20312
Q37.3125 6.20312 41.1406 7.25
Q44.9688 8.29688 48.7812 10.4062
L48.7812 2.09375
Q45.0156 0.34375 40.9844 -0.53125
Q36.9688 -1.42188 32.4219 -1.42188
Q20.0625 -1.42188 12.7812 6.34375
Q5.51562 14.1094 5.51562 27.2969
Q5.51562 40.6719 12.8594 48.3281
Q20.2188 56 33.0156 56
Q37.1562 56 41.1094 55.1406
Q45.0625 54.2969 48.7812 52.5938" id="BitstreamVeraSans-Roman-63"/>
      </defs>
      <g transform="translate(53.3541815316 394.065590385)rotate(-30.0)scale(0.12 -0.12)">
       <use xlink:href="#BitstreamVeraSans-Roman-4f"/>
       <use x="78.7109375" xlink:href="#BitstreamVeraSans-Roman-63"/>
       <use x="133.69140625" xlink:href="#BitstreamVeraSans-Roman-74"/>
       <use x="172.900390625" xlink:href="#BitstreamVeraSans-Roman-20"/>
       <use x="204.6875" xlink:href="#BitstreamVeraSans-Roman-31"/>
       <use x="268.310546875" xlink:href="#BitstreamVeraSans-Roman-33"/>
       <use x="331.93359375" xlink:href="#BitstreamVeraSans-Roman-20"/>
       <use x="363.720703125" xlink:href="#BitstreamVeraSans-Roman-32"/>
       <use x="427.34375" xlink:href="#BitstreamVeraSans-Roman-30"/>
       <use x="490.966796875" xlink:href="#BitstreamVeraSans-Roman-31"/>
       <use x="554.58984375" xlink:href="#BitstreamVeraSans-Roman-35"/>
      </g>
     </g>
    </g>
    <g id="xtick_2">
     <g id="line2d_5">
      <g>
       <use style="stroke:#000000;stroke-width:0.5;" x="173.071485419" xlink:href="#m93b0483c22" y="345.6"/>
      </g>
     </g>
     <g id="line2d_6">
      <g>
       <use style="stroke:#000000;stroke-width:0.5;" x="173.071485419" xlink:href="#m741efc42ff" y="43.2"/>
      </g>
     </g>
     <g id="text_2">
      <!-- Oct 16 2015 -->
      <defs>
       <path d="
M33.0156 40.375
Q26.375 40.375 22.4844 35.8281
Q18.6094 31.2969 18.6094 23.3906
Q18.6094 15.5312 22.4844 10.9531
Q26.375 6.39062 33.0156 6.39062
Q39.6562 6.39062 43.5312 10.9531
Q47.4062 15.5312 47.4062 23.3906
Q47.4062 31.2969 43.5312 35.8281
Q39.6562 40.375 33.0156 40.375
M52.5938 71.2969
L52.5938 62.3125
Q48.875 64.0625 45.0938 64.9844
Q41.3125 65.9219 37.5938 65.9219
Q27.8281 65.9219 22.6719 59.3281
Q17.5312 52.7344 16.7969 39.4062
Q19.6719 43.6562 24.0156 45.9219
Q28.375 48.1875 33.5938 48.1875
Q44.5781 48.1875 50.9531 41.5156
Q57.3281 34.8594 57.3281 23.3906
Q57.3281 12.1562 50.6875 5.35938
Q44.0469 -1.42188 33.0156 -1.42188
Q20.3594 -1.42188 13.6719 8.26562
Q6.98438 17.9688 6.98438 36.375
Q6.98438 53.6562 15.1875 63.9375
Q23.3906 74.2188 37.2031 74.2188
Q40.9219 74.2188 44.7031 73.4844
Q48.4844 72.75 52.5938 71.2969" id="BitstreamVeraSans-Roman-36"/>
      </defs>
      <g transform="translate(108.484198684 394.065590385)rotate(-30.0)scale(0.12 -0.12)">
       <use xlink:href="#BitstreamVeraSans-Roman-4f"/>
       <use x="78.7109375" xlink:href="#BitstreamVeraSans-Roman-63"/>
       <use x="133.69140625" xlink:href="#BitstreamVeraSans-Roman-74"/>
       <use x="172.900390625" xlink:href="#BitstreamVeraSans-Roman-20"/>
       <use x="204.6875" xlink:href="#BitstreamVeraSans-Roman-31"/>
       <use x="268.310546875" xlink:href="#BitstreamVeraSans-Roman-36"/>
       <use x="331.93359375" xlink:href="#BitstreamVeraSans-Roman-20"/>
       <use x="363.720703125" xlink:href="#BitstreamVeraSans-Roman-32"/>
       <use x="427.34375" xlink:href="#BitstreamVeraSans-Roman-30"/>
       <use x="490.966796875" xlink:href="#BitstreamVeraSans-Roman-31"/>
       <use x="554.58984375" xlink:href="#BitstreamVeraSans-Roman-35"/>
      </g>
     </g>
    </g>
    <g id="xtick_3">
     <g id="line2d_7">
      <g>
       <use style="stroke:#000000;stroke-width:0.5;" x="228.201502573" xlink:href="#m93b0483c22" y="345.6"/>
      </g>
     </g>
     <g id="line2d_8">
      <g>
       <use style="stroke:#000000;stroke-width:0.5;" x="228.201502573" xlink:href="#m741efc42ff" y="43.2"/>
      </g>
     </g>
     <g id="text_3">
      <!-- Oct 19 2015 -->
      <defs>
       <path d="
M10.9844 1.51562
L10.9844 10.5
Q14.7031 8.73438 18.5 7.8125
Q22.3125 6.89062 25.9844 6.89062
Q35.75 6.89062 40.8906 13.4531
Q46.0469 20.0156 46.7812 33.4062
Q43.9531 29.2031 39.5938 26.9531
Q35.25 24.7031 29.9844 24.7031
Q19.0469 24.7031 12.6719 31.3125
Q6.29688 37.9375 6.29688 49.4219
Q6.29688 60.6406 12.9375 67.4219
Q19.5781 74.2188 30.6094 74.2188
Q43.2656 74.2188 49.9219 64.5156
Q56.5938 54.8281 56.5938 36.375
Q56.5938 19.1406 48.4062 8.85938
Q40.2344 -1.42188 26.4219 -1.42188
Q22.7031 -1.42188 18.8906 -0.6875
Q15.0938 0.046875 10.9844 1.51562
M30.6094 32.4219
Q37.25 32.4219 41.125 36.9531
Q45.0156 41.5 45.0156 49.4219
Q45.0156 57.2812 41.125 61.8438
Q37.25 66.4062 30.6094 66.4062
Q23.9688 66.4062 20.0938 61.8438
Q16.2188 57.2812 16.2188 49.4219
Q16.2188 41.5 20.0938 36.9531
Q23.9688 32.4219 30.6094 32.4219" id="BitstreamVeraSans-Roman-39"/>
      </defs>
      <g transform="translate(163.614215838 394.065590385)rotate(-30.0)scale(0.12 -0.12)">
       <use xlink:href="#BitstreamVeraSans-Roman-4f"/>
       <use x="78.7109375" xlink:href="#BitstreamVeraSans-Roman-63"/>
       <use x="133.69140625" xlink:href="#BitstreamVeraSans-Roman-74"/>
       <use x="172.900390625" xlink:href="#BitstreamVeraSans-Roman-20"/>
       <use x="204.6875" xlink:href="#BitstreamVeraSans-Roman-31"/>
       <use x="268.310546875" xlink:href="#BitstreamVeraSans-Roman-39"/>
       <use x="331.93359375" xlink:href="#BitstreamVeraSans-Roman-20"/>
       <use x="363.720703125" xlink:href="#BitstreamVeraSans-Roman-32"/>
       <use x="427.34375" xlink:href="#BitstreamVeraSans-Roman-30"/>
       <use x="490.966796875" xlink:href="#BitstreamVeraSans-Roman-31"/>
       <use x="554.58984375" xlink:href="#BitstreamVeraSans-Roman-35"/>
      </g>
     </g>
    </g>
    <g id="xtick_4">
     <g id="line2d_9">
      <g>
       <use style="stroke:#000000;stroke-width:0.5;" x="283.331519725" xlink:href="#m93b0483c22" y="345.6"/>
      </g>
     </g>
     <g id="line2d_10">
      <g>
       <use style="stroke:#000000;stroke-width:0.5;" x="283.331519725" xlink:href="#m741efc42ff" y="43.2"/>
      </g>
     </g>
     <g id="text_4">
      <!-- Oct 22 2015 -->
      <g transform="translate(218.74423299 394.065590385)rotate(-30.0)scale(0.12 -0.12)">
       <use xlink:href="#BitstreamVeraSans-Roman-4f"/>
       <use x="78.7109375" xlink:href="#BitstreamVeraSans-Roman-63"/>
       <use x="133.69140625" xlink:href="#BitstreamVeraSans-Roman-74"/>
       <use x="172.900390625" xlink:href="#BitstreamVeraSans-Roman-20"/>
       <use x="204.6875" xlink:href="#BitstreamVeraSans-Roman-32"/>
       <use x="268.310546875" xlink:href="#BitstreamVeraSans-Roman-32"/>
       <use x="331.93359375" xlink:href="#BitstreamVeraSans-Roman-20"/>
       <use x="363.720703125" xlink:href="#BitstreamVeraSans-Roman-32"/>
       <use x="427.34375" xlink:href="#BitstreamVeraSans-Roman-30"/>
       <use x="490.966796875" xlink:href="#BitstreamVeraSans-Roman-31"/>
       <use x="554.58984375" xlink:href="#BitstreamVeraSans-Roman-35"/>
      </g>
     </g>
    </g>
    <g id="xtick_5">
     <g id="line2d_11">
      <g>
       <use style="stroke:#000000;stroke-width:0.5;" x="338.461536877" xlink:href="#m93b0483c22" y="345.6"/>
      </g>
     </g>
     <g id="line2d_12">
      <g>
       <use style="stroke:#000000;stroke-width:0.5;" x="338.461536877" xlink:href="#m741efc42ff" y="43.2"/>
      </g>
     </g>
     <g id="text_5">
      <!-- Oct 25 2015 -->
      <g transform="translate(273.874250142 394.065590385)rotate(-30.0)scale(0.12 -0.12)">
       <use xlink:href="#BitstreamVeraSans-Roman-4f"/>
       <use x="78.7109375" xlink:href="#BitstreamVeraSans-Roman-63"/>
       <use x="133.69140625" xlink:href="#BitstreamVeraSans-Roman-74"/>
       <use x="172.900390625" xlink:href="#BitstreamVeraSans-Roman-20"/>
       <use x="204.6875" xlink:href="#BitstreamVeraSans-Roman-32"/>
       <use x="268.310546875" xlink:href="#BitstreamVeraSans-Roman-35"/>
       <use x="331.93359375" xlink:href="#BitstreamVeraSans-Roman-20"/>
       <use x="363.720703125" xlink:href="#BitstreamVeraSans-Roman-32"/>
       <use x="427.34375" xlink:href="#BitstreamVeraSans-Roman-30"/>
       <use x="490.966796875" xlink:href="#BitstreamVeraSans-Roman-31"/>
       <use x="554.58984375" xlink:href="#BitstreamVeraSans-Roman-35"/>
      </g>
     </g>
    </g>
    <g id="xtick_6">
     <g id="line2d_13">
      <g>
       <use style="stroke:#000000;stroke-width:0.5;" x="393.591554031" xlink:href="#m93b0483c22" y="345.6"/>
      </g>
     </g>
     <g id="line2d_14">
      <g>
       <use style="stroke:#000000;stroke-width:0.5;" x="393.591554031" xlink:href="#m741efc42ff" y="43.2"/>
      </g>
     </g>
     <g id="text_6">
      <!-- Oct 28 2015 -->
      <defs>
       <path d="
M31.7812 34.625
Q24.75 34.625 20.7188 30.8594
Q16.7031 27.0938 16.7031 20.5156
Q16.7031 13.9219 20.7188 10.1562
Q24.75 6.39062 31.7812 6.39062
Q38.8125 6.39062 42.8594 10.1719
Q46.9219 13.9688 46.9219 20.5156
Q46.9219 27.0938 42.8906 30.8594
Q38.875 34.625 31.7812 34.625
M21.9219 38.8125
Q15.5781 40.375 12.0312 44.7188
Q8.5 49.0781 8.5 55.3281
Q8.5 64.0625 14.7188 69.1406
Q20.9531 74.2188 31.7812 74.2188
Q42.6719 74.2188 48.875 69.1406
Q55.0781 64.0625 55.0781 55.3281
Q55.0781 49.0781 51.5312 44.7188
Q48 40.375 41.7031 38.8125
Q48.8281 37.1562 52.7969 32.3125
Q56.7812 27.4844 56.7812 20.5156
Q56.7812 9.90625 50.3125 4.23438
Q43.8438 -1.42188 31.7812 -1.42188
Q19.7344 -1.42188 13.25 4.23438
Q6.78125 9.90625 6.78125 20.5156
Q6.78125 27.4844 10.7812 32.3125
Q14.7969 37.1562 21.9219 38.8125
M18.3125 54.3906
Q18.3125 48.7344 21.8438 45.5625
Q25.3906 42.3906 31.7812 42.3906
Q38.1406 42.3906 41.7188 45.5625
Q45.3125 48.7344 45.3125 54.3906
Q45.3125 60.0625 41.7188 63.2344
Q38.1406 66.4062 31.7812 66.4062
Q25.3906 66.4062 21.8438 63.2344
Q18.3125 60.0625 18.3125 54.3906" id="BitstreamVeraSans-Roman-38"/>
      </defs>
      <g transform="translate(329.004267296 394.065590385)rotate(-30.0)scale(0.12 -0.12)">
       <use xlink:href="#BitstreamVeraSans-Roman-4f"/>
       <use x="78.7109375" xlink:href="#BitstreamVeraSans-Roman-63"/>
       <use x="133.69140625" xlink:href="#BitstreamVeraSans-Roman-74"/>
       <use x="172.900390625" xlink:href="#BitstreamVeraSans-Roman-20"/>
       <use x="204.6875" xlink:href="#BitstreamVeraSans-Roman-32"/>
       <use x="268.310546875" xlink:href="#BitstreamVeraSans-Roman-38"/>
       <use x="331.93359375" xlink:href="#BitstreamVeraSans-Roman-20"/>
       <use x="363.720703125" xlink:href="#BitstreamVeraSans-Roman-32"/>
       <use x="427.34375" xlink:href="#BitstreamVeraSans-Roman-30"/>
       <use x="490.966796875" xlink:href="#BitstreamVeraSans-Roman-31"/>
       <use x="554.58984375" xlink:href="#BitstreamVeraSans-Roman-35"/>
      </g>
     </g>
    </g>
    <g id="xtick_7">
     <g id="line2d_15">
      <g>
       <use style="stroke:#000000;stroke-width:0.5;" x="448.721571183" xlink:href="#m93b0483c22" y="345.6"/>
      </g>
     </g>
     <g id="line2d_16">
      <g>
       <use style="stroke:#000000;stroke-width:0.5;" x="448.721571183" xlink:href="#m741efc42ff" y="43.2"/>
      </g>
     </g>
     <g id="text_7">
      <!-- Oct 31 2015 -->
      <g transform="translate(384.134284448 394.065590385)rotate(-30.0)scale(0.12 -0.12)">
       <use xlink:href="#BitstreamVeraSans-Roman-4f"/>
       <use x="78.7109375" xlink:href="#BitstreamVeraSans-Roman-63"/>
       <use x="133.69140625" xlink:href="#BitstreamVeraSans-Roman-74"/>
       <use x="172.900390625" xlink:href="#BitstreamVeraSans-Roman-20"/>
       <use x="204.6875" xlink:href="#BitstreamVeraSans-Roman-33"/>
       <use x="268.310546875" xlink:href="#BitstreamVeraSans-Roman-31"/>
       <use x="331.93359375" xlink:href="#BitstreamVeraSans-Roman-20"/>
       <use x="363.720703125" xlink:href="#BitstreamVeraSans-Roman-32"/>
       <use x="427.34375" xlink:href="#BitstreamVeraSans-Roman-30"/>
       <use x="490.966796875" xlink:href="#BitstreamVeraSans-Roman-31"/>
       <use x="554.58984375" xlink:href="#BitstreamVeraSans-Roman-35"/>
      </g>
     </g>
    </g>
    <g id="xtick_8">
     <g id="line2d_17">
      <g>
       <use style="stroke:#000000;stroke-width:0.5;" x="503.851588335" xlink:href="#m93b0483c22" y="345.6"/>
      </g>
     </g>
     <g id="line2d_18">
      <g>
       <use style="stroke:#000000;stroke-width:0.5;" x="503.851588335" xlink:href="#m741efc42ff" y="43.2"/>
      </g>
     </g>
     <g id="text_8">
      <!-- Nov 03 2015 -->
      <defs>
       <path d="
M2.98438 54.6875
L12.5 54.6875
L29.5938 8.79688
L46.6875 54.6875
L56.2031 54.6875
L35.6875 0
L23.4844 0
z
" id="BitstreamVeraSans-Roman-76"/>
       <path d="
M9.8125 72.9062
L23.0938 72.9062
L55.4219 11.9219
L55.4219 72.9062
L64.9844 72.9062
L64.9844 0
L51.7031 0
L19.3906 60.9844
L19.3906 0
L9.8125 0
z
" id="BitstreamVeraSans-Roman-4e"/>
       <path d="
M30.6094 48.3906
Q23.3906 48.3906 19.1875 42.75
Q14.9844 37.1094 14.9844 27.2969
Q14.9844 17.4844 19.1562 11.8438
Q23.3438 6.20312 30.6094 6.20312
Q37.7969 6.20312 41.9844 11.8594
Q46.1875 17.5312 46.1875 27.2969
Q46.1875 37.0156 41.9844 42.7031
Q37.7969 48.3906 30.6094 48.3906
M30.6094 56
Q42.3281 56 49.0156 48.375
Q55.7188 40.7656 55.7188 27.2969
Q55.7188 13.875 49.0156 6.21875
Q42.3281 -1.42188 30.6094 -1.42188
Q18.8438 -1.42188 12.1719 6.21875
Q5.51562 13.875 5.51562 27.2969
Q5.51562 40.7656 12.1719 48.375
Q18.8438 56 30.6094 56" id="BitstreamVeraSans-Roman-6f"/>
      </defs>
      <g transform="translate(436.948766176 395.402465385)rotate(-30.0)scale(0.12 -0.12)">
       <use xlink:href="#BitstreamVeraSans-Roman-4e"/>
       <use x="74.8046875" xlink:href="#BitstreamVeraSans-Roman-6f"/>
       <use x="135.986328125" xlink:href="#BitstreamVeraSans-Roman-76"/>
       <use x="195.166015625" xlink:href="#BitstreamVeraSans-Roman-20"/>
       <use x="226.953125" xlink:href="#BitstreamVeraSans-Roman-30"/>
       <use x="290.576171875" xlink:href="#BitstreamVeraSans-Roman-33"/>
       <use x="354.19921875" xlink:href="#BitstreamVeraSans-Roman-20"/>
       <use x="385.986328125" xlink:href="#BitstreamVeraSans-Roman-32"/>
       <use x="449.609375" xlink:href="#BitstreamVeraSans-Roman-30"/>
       <use x="513.232421875" xlink:href="#BitstreamVeraSans-Roman-31"/>
       <use x="576.85546875" xlink:href="#BitstreamVeraSans-Roman-35"/>
      </g>
     </g>
    </g>
   </g>
   <g id="matplotlib.axis_2">
    <g id="ytick_1">
     <g id="line2d_19">
      <defs>
       <path d="
M0 0
L4 0" id="m728421d6d4" style="stroke:#000000;stroke-width:0.5;"/>
      </defs>
      <g>
       <use style="stroke:#000000;stroke-width:0.5;" x="72.0" xlink:href="#m728421d6d4" y="313.478374836"/>
      </g>
     </g>
     <g id="line2d_20">
      <defs>
       <path d="
M0 0
L-4 0" id="mcb0005524f" style="stroke:#000000;stroke-width:0.5;"/>
      </defs>
      <g>
       <use style="stroke:#000000;stroke-width:0.5;" x="518.4" xlink:href="#mcb0005524f" y="313.478374836"/>
      </g>
     </g>
     <g id="text_9">
      <!-- 500 -->
      <g transform="translate(46.818125 316.789624836)scale(0.12 -0.12)">
       <use xlink:href="#BitstreamVeraSans-Roman-35"/>
       <use x="63.623046875" xlink:href="#BitstreamVeraSans-Roman-30"/>
       <use x="127.24609375" xlink:href="#BitstreamVeraSans-Roman-30"/>
      </g>
     </g>
    </g>
    <g id="ytick_2">
     <g id="line2d_21">
      <g>
       <use style="stroke:#000000;stroke-width:0.5;" x="72.0" xlink:href="#m728421d6d4" y="266.296199214"/>
      </g>
     </g>
     <g id="line2d_22">
      <g>
       <use style="stroke:#000000;stroke-width:0.5;" x="518.4" xlink:href="#mcb0005524f" y="266.296199214"/>
      </g>
     </g>
     <g id="text_10">
      <!-- 1000 -->
      <g transform="translate(39.575 269.607449214)scale(0.12 -0.12)">
       <use xlink:href="#BitstreamVeraSans-Roman-31"/>
       <use x="63.623046875" xlink:href="#BitstreamVeraSans-Roman-30"/>
       <use x="127.24609375" xlink:href="#BitstreamVeraSans-Roman-30"/>
       <use x="190.869140625" xlink:href="#BitstreamVeraSans-Roman-30"/>
      </g>
     </g>
    </g>
    <g id="ytick_3">
     <g id="line2d_23">
      <g>
       <use style="stroke:#000000;stroke-width:0.5;" x="72.0" xlink:href="#m728421d6d4" y="219.114023591"/>
      </g>
     </g>
     <g id="line2d_24">
      <g>
       <use style="stroke:#000000;stroke-width:0.5;" x="518.4" xlink:href="#mcb0005524f" y="219.114023591"/>
      </g>
     </g>
     <g id="text_11">
      <!-- 1500 -->
      <g transform="translate(39.575 222.425273591)scale(0.12 -0.12)">
       <use xlink:href="#BitstreamVeraSans-Roman-31"/>
       <use x="63.623046875" xlink:href="#BitstreamVeraSans-Roman-35"/>
       <use x="127.24609375" xlink:href="#BitstreamVeraSans-Roman-30"/>
       <use x="190.869140625" xlink:href="#BitstreamVeraSans-Roman-30"/>
      </g>
     </g>
    </g>
    <g id="ytick_4">
     <g id="line2d_25">
      <g>
       <use style="stroke:#000000;stroke-width:0.5;" x="72.0" xlink:href="#m728421d6d4" y="171.931847969"/>
      </g>
     </g>
     <g id="line2d_26">
      <g>
       <use style="stroke:#000000;stroke-width:0.5;" x="518.4" xlink:href="#mcb0005524f" y="171.931847969"/>
      </g>
     </g>
     <g id="text_12">
      <!-- 2000 -->
      <g transform="translate(39.13625 175.243097969)scale(0.12 -0.12)">
       <use xlink:href="#BitstreamVeraSans-Roman-32"/>
       <use x="63.623046875" xlink:href="#BitstreamVeraSans-Roman-30"/>
       <use x="127.24609375" xlink:href="#BitstreamVeraSans-Roman-30"/>
       <use x="190.869140625" xlink:href="#BitstreamVeraSans-Roman-30"/>
      </g>
     </g>
    </g>
    <g id="ytick_5">
     <g id="line2d_27">
      <g>
       <use style="stroke:#000000;stroke-width:0.5;" x="72.0" xlink:href="#m728421d6d4" y="124.749672346"/>
      </g>
     </g>
     <g id="line2d_28">
      <g>
       <use style="stroke:#000000;stroke-width:0.5;" x="518.4" xlink:href="#mcb0005524f" y="124.749672346"/>
      </g>
     </g>
     <g id="text_13">
      <!-- 2500 -->
      <g transform="translate(39.13625 128.060922346)scale(0.12 -0.12)">
       <use xlink:href="#BitstreamVeraSans-Roman-32"/>
       <use x="63.623046875" xlink:href="#BitstreamVeraSans-Roman-35"/>
       <use x="127.24609375" xlink:href="#BitstreamVeraSans-Roman-30"/>
       <use x="190.869140625" xlink:href="#BitstreamVeraSans-Roman-30"/>
      </g>
     </g>
    </g>
    <g id="ytick_6">
     <g id="line2d_29">
      <g>
       <use style="stroke:#000000;stroke-width:0.5;" x="72.0" xlink:href="#m728421d6d4" y="77.5674967235"/>
      </g>
     </g>
     <g id="line2d_30">
      <g>
       <use style="stroke:#000000;stroke-width:0.5;" x="518.4" xlink:href="#mcb0005524f" y="77.5674967235"/>
      </g>
     </g>
     <g id="text_14">
      <!-- 3000 -->
      <g transform="translate(39.171875 80.8787467235)scale(0.12 -0.12)">
       <use xlink:href="#BitstreamVeraSans-Roman-33"/>
       <use x="63.623046875" xlink:href="#BitstreamVeraSans-Roman-30"/>
       <use x="127.24609375" xlink:href="#BitstreamVeraSans-Roman-30"/>
       <use x="190.869140625" xlink:href="#BitstreamVeraSans-Roman-30"/>
      </g>
     </g>
    </g>
   </g>
   <g id="text_15">
    <!-- Kies -->
    <defs>
     <path d="
M56.2031 29.5938
L56.2031 25.2031
L14.8906 25.2031
Q15.4844 15.9219 20.4844 11.0625
Q25.4844 6.20312 34.4219 6.20312
Q39.5938 6.20312 44.4531 7.46875
Q49.3125 8.73438 54.1094 11.2812
L54.1094 2.78125
Q49.2656 0.734375 44.1875 -0.34375
Q39.1094 -1.42188 33.8906 -1.42188
Q20.7969 -1.42188 13.1562 6.1875
Q5.51562 13.8125 5.51562 26.8125
Q5.51562 40.2344 12.7656 48.1094
Q20.0156 56 32.3281 56
Q43.3594 56 49.7812 48.8906
Q56.2031 41.7969 56.2031 29.5938
M47.2188 32.2344
Q47.125 39.5938 43.0938 43.9844
Q39.0625 48.3906 32.4219 48.3906
Q24.9062 48.3906 20.3906 44.1406
Q15.875 39.8906 15.1875 32.1719
z
" id="BitstreamVeraSans-Roman-65"/>
     <path d="
M9.42188 54.6875
L18.4062 54.6875
L18.4062 0
L9.42188 0
z

M9.42188 75.9844
L18.4062 75.9844
L18.4062 64.5938
L9.42188 64.5938
z
" id="BitstreamVeraSans-Roman-69"/>
     <path d="
M9.8125 72.9062
L19.6719 72.9062
L19.6719 42.0938
L52.3906 72.9062
L65.0938 72.9062
L28.9062 38.9219
L67.6719 0
L54.6875 0
L19.6719 35.1094
L19.6719 0
L9.8125 0
z
" id="BitstreamVeraSans-Roman-4b"/>
     <path d="
M44.2812 53.0781
L44.2812 44.5781
Q40.4844 46.5312 36.375 47.5
Q32.2812 48.4844 27.875 48.4844
Q21.1875 48.4844 17.8438 46.4375
Q14.5 44.3906 14.5 40.2812
Q14.5 37.1562 16.8906 35.375
Q19.2812 33.5938 26.5156 31.9844
L29.5938 31.2969
Q39.1562 29.25 43.1875 25.5156
Q47.2188 21.7812 47.2188 15.0938
Q47.2188 7.46875 41.1875 3.01562
Q35.1562 -1.42188 24.6094 -1.42188
Q20.2188 -1.42188 15.4531 -0.5625
Q10.6875 0.296875 5.42188 2
L5.42188 11.2812
Q10.4062 8.6875 15.2344 7.39062
Q20.0625 6.10938 24.8125 6.10938
Q31.1562 6.10938 34.5625 8.28125
Q37.9844 10.4531 37.9844 14.4062
Q37.9844 18.0625 35.5156 20.0156
Q33.0625 21.9688 24.7031 23.7812
L21.5781 24.5156
Q13.2344 26.2656 9.51562 29.9062
Q5.8125 33.5469 5.8125 39.8906
Q5.8125 47.6094 11.2812 51.7969
Q16.75 56 26.8125 56
Q31.7812 56 36.1719 55.2656
Q40.5781 54.5469 44.2812 53.0781" id="BitstreamVeraSans-Roman-73"/>
    </defs>
    <g transform="translate(490.70925 38.2)scale(0.144 -0.144)">
     <use xlink:href="#BitstreamVeraSans-Roman-4b"/>
     <use x="65.576171875" xlink:href="#BitstreamVeraSans-Roman-69"/>
     <use x="93.359375" xlink:href="#BitstreamVeraSans-Roman-65"/>
     <use x="154.8828125" xlink:href="#BitstreamVeraSans-Roman-73"/>
    </g>
   </g>
   <g id="legend_1">
    <g id="patch_7">
     <path d="
M123.942 423.616
L466.458 423.616
L466.458 398.16
L123.942 398.16
z
" style="fill:#ffffff;stroke:#000000;stroke-linejoin:miter;"/>
    </g>
    <g id="line2d_31">
     <path d="
M134.022 409.822
L154.182 409.822" style="fill:none;stroke:#ff0000;stroke-linecap:square;"/>
    </g>
    <g id="line2d_32"/>
    <g id="text_16">
     <!-- Schwarzmarktpreis -->
     <defs>
      <path d="
M34.2812 27.4844
Q23.3906 27.4844 19.1875 25
Q14.9844 22.5156 14.9844 16.5
Q14.9844 11.7188 18.1406 8.90625
Q21.2969 6.10938 26.7031 6.10938
Q34.1875 6.10938 38.7031 11.4062
Q43.2188 16.7031 43.2188 25.4844
L43.2188 27.4844
z

M52.2031 31.2031
L52.2031 0
L43.2188 0
L43.2188 8.29688
Q40.1406 3.32812 35.5469 0.953125
Q30.9531 -1.42188 24.3125 -1.42188
Q15.9219 -1.42188 10.9531 3.29688
Q6 8.01562 6 15.9219
Q6 25.1406 12.1719 29.8281
Q18.3594 34.5156 30.6094 34.5156
L43.2188 34.5156
L43.2188 35.4062
Q43.2188 41.6094 39.1406 45
Q35.0625 48.3906 27.6875 48.3906
Q23 48.3906 18.5469 47.2656
Q14.1094 46.1406 10.0156 43.8906
L10.0156 52.2031
Q14.9375 54.1094 19.5781 55.0469
Q24.2188 56 28.6094 56
Q40.4844 56 46.3438 49.8438
Q52.2031 43.7031 52.2031 31.2031" id="BitstreamVeraSans-Roman-61"/>
      <path d="
M5.51562 54.6875
L48.1875 54.6875
L48.1875 46.4844
L14.4062 7.17188
L48.1875 7.17188
L48.1875 0
L4.29688 0
L4.29688 8.20312
L38.0938 47.5156
L5.51562 47.5156
z
" id="BitstreamVeraSans-Roman-7a"/>
      <path d="
M53.5156 70.5156
L53.5156 60.8906
Q47.9062 63.5781 42.9219 64.8906
Q37.9375 66.2188 33.2969 66.2188
Q25.25 66.2188 20.875 63.0938
Q16.5 59.9688 16.5 54.2031
Q16.5 49.3594 19.4062 46.8906
Q22.3125 44.4375 30.4219 42.9219
L36.375 41.7031
Q47.4062 39.5938 52.6562 34.2969
Q57.9062 29 57.9062 20.125
Q57.9062 9.51562 50.7969 4.04688
Q43.7031 -1.42188 29.9844 -1.42188
Q24.8125 -1.42188 18.9688 -0.25
Q13.1406 0.921875 6.89062 3.21875
L6.89062 13.375
Q12.8906 10.0156 18.6562 8.29688
Q24.4219 6.59375 29.9844 6.59375
Q38.4219 6.59375 43.0156 9.90625
Q47.6094 13.2344 47.6094 19.3906
Q47.6094 24.75 44.3125 27.7812
Q41.0156 30.8125 33.5 32.3281
L27.4844 33.5
Q16.4531 35.6875 11.5156 40.375
Q6.59375 45.0625 6.59375 53.4219
Q6.59375 63.0938 13.4062 68.6562
Q20.2188 74.2188 32.1719 74.2188
Q37.3125 74.2188 42.625 73.2812
Q47.9531 72.3594 53.5156 70.5156" id="BitstreamVeraSans-Roman-53"/>
      <path d="
M54.8906 33.0156
L54.8906 0
L45.9062 0
L45.9062 32.7188
Q45.9062 40.4844 42.875 44.3281
Q39.8438 48.1875 33.7969 48.1875
Q26.5156 48.1875 22.3125 43.5469
Q18.1094 38.9219 18.1094 30.9062
L18.1094 0
L9.07812 0
L9.07812 75.9844
L18.1094 75.9844
L18.1094 46.1875
Q21.3438 51.125 25.7031 53.5625
Q30.0781 56 35.7969 56
Q45.2188 56 50.0469 50.1719
Q54.8906 44.3438 54.8906 33.0156" id="BitstreamVeraSans-Roman-68"/>
      <path d="
M52 44.1875
Q55.375 50.25 60.0625 53.125
Q64.75 56 71.0938 56
Q79.6406 56 84.2812 50.0156
Q88.9219 44.0469 88.9219 33.0156
L88.9219 0
L79.8906 0
L79.8906 32.7188
Q79.8906 40.5781 77.0938 44.375
Q74.3125 48.1875 68.6094 48.1875
Q61.625 48.1875 57.5625 43.5469
Q53.5156 38.9219 53.5156 30.9062
L53.5156 0
L44.4844 0
L44.4844 32.7188
Q44.4844 40.625 41.7031 44.4062
Q38.9219 48.1875 33.1094 48.1875
Q26.2188 48.1875 22.1562 43.5312
Q18.1094 38.875 18.1094 30.9062
L18.1094 0
L9.07812 0
L9.07812 54.6875
L18.1094 54.6875
L18.1094 46.1875
Q21.1875 51.2188 25.4844 53.6094
Q29.7812 56 35.6875 56
Q41.6562 56 45.8281 52.9688
Q50 49.9531 52 44.1875" id="BitstreamVeraSans-Roman-6d"/>
      <path d="
M4.20312 54.6875
L13.1875 54.6875
L24.4219 12.0156
L35.5938 54.6875
L46.1875 54.6875
L57.4219 12.0156
L68.6094 54.6875
L77.5938 54.6875
L63.2812 0
L52.6875 0
L40.9219 44.8281
L29.1094 0
L18.5 0
z
" id="BitstreamVeraSans-Roman-77"/>
      <path d="
M9.07812 75.9844
L18.1094 75.9844
L18.1094 31.1094
L44.9219 54.6875
L56.3906 54.6875
L27.3906 29.1094
L57.625 0
L45.9062 0
L18.1094 26.7031
L18.1094 0
L9.07812 0
z
" id="BitstreamVeraSans-Roman-6b"/>
      <path d="
M41.1094 46.2969
Q39.5938 47.1719 37.8125 47.5781
Q36.0312 48 33.8906 48
Q26.2656 48 22.1875 43.0469
Q18.1094 38.0938 18.1094 28.8125
L18.1094 0
L9.07812 0
L9.07812 54.6875
L18.1094 54.6875
L18.1094 46.1875
Q20.9531 51.1719 25.4844 53.5781
Q30.0312 56 36.5312 56
Q37.4531 56 38.5781 55.875
Q39.7031 55.7656 41.0625 55.5156
z
" id="BitstreamVeraSans-Roman-72"/>
      <path d="
M18.1094 8.20312
L18.1094 -20.7969
L9.07812 -20.7969
L9.07812 54.6875
L18.1094 54.6875
L18.1094 46.3906
Q20.9531 51.2656 25.2656 53.625
Q29.5938 56 35.5938 56
Q45.5625 56 51.7812 48.0938
Q58.0156 40.1875 58.0156 27.2969
Q58.0156 14.4062 51.7812 6.48438
Q45.5625 -1.42188 35.5938 -1.42188
Q29.5938 -1.42188 25.2656 0.953125
Q20.9531 3.32812 18.1094 8.20312
M48.6875 27.2969
Q48.6875 37.2031 44.6094 42.8438
Q40.5312 48.4844 33.4062 48.4844
Q26.2656 48.4844 22.1875 42.8438
Q18.1094 37.2031 18.1094 27.2969
Q18.1094 17.3906 22.1875 11.75
Q26.2656 6.10938 33.4062 6.10938
Q40.5312 6.10938 44.6094 11.75
Q48.6875 17.3906 48.6875 27.2969" id="BitstreamVeraSans-Roman-70"/>
     </defs>
     <g transform="translate(170.022375 414.86175)scale(0.144 -0.144)">
      <use xlink:href="#BitstreamVeraSans-Roman-53"/>
      <use x="63.4765625" xlink:href="#BitstreamVeraSans-Roman-63"/>
      <use x="118.45703125" xlink:href="#BitstreamVeraSans-Roman-68"/>
      <use x="181.8359375" xlink:href="#BitstreamVeraSans-Roman-77"/>
      <use x="263.623046875" xlink:href="#BitstreamVeraSans-Roman-61"/>
      <use x="324.90234375" xlink:href="#BitstreamVeraSans-Roman-72"/>
      <use x="366.015625" xlink:href="#BitstreamVeraSans-Roman-7a"/>
      <use x="418.505859375" xlink:href="#BitstreamVeraSans-Roman-6d"/>
      <use x="515.91796875" xlink:href="#BitstreamVeraSans-Roman-61"/>
      <use x="577.197265625" xlink:href="#BitstreamVeraSans-Roman-72"/>
      <use x="618.310546875" xlink:href="#BitstreamVeraSans-Roman-6b"/>
      <use x="676.220703125" xlink:href="#BitstreamVeraSans-Roman-74"/>
      <use x="715.4296875" xlink:href="#BitstreamVeraSans-Roman-70"/>
      <use x="778.90625" xlink:href="#BitstreamVeraSans-Roman-72"/>
      <use x="817.76953125" xlink:href="#BitstreamVeraSans-Roman-65"/>
      <use x="879.29296875" xlink:href="#BitstreamVeraSans-Roman-69"/>
      <use x="907.076171875" xlink:href="#BitstreamVeraSans-Roman-73"/>
     </g>
    </g>
    <g id="line2d_33">
     <path d="
M339.609 409.822
L359.769 409.822" style="fill:none;stroke:#008000;stroke-linecap:square;"/>
    </g>
    <g id="line2d_34"/>
    <g id="text_17">
     <!-- Normalpreis -->
     <defs>
      <path d="
M9.42188 75.9844
L18.4062 75.9844
L18.4062 0
L9.42188 0
z
" id="BitstreamVeraSans-Roman-6c"/>
     </defs>
     <g transform="translate(375.609375 414.86175)scale(0.144 -0.144)">
      <use xlink:href="#BitstreamVeraSans-Roman-4e"/>
      <use x="74.8046875" xlink:href="#BitstreamVeraSans-Roman-6f"/>
      <use x="135.986328125" xlink:href="#BitstreamVeraSans-Roman-72"/>
      <use x="175.349609375" xlink:href="#BitstreamVeraSans-Roman-6d"/>
      <use x="272.76171875" xlink:href="#BitstreamVeraSans-Roman-61"/>
      <use x="334.041015625" xlink:href="#BitstreamVeraSans-Roman-6c"/>
      <use x="361.82421875" xlink:href="#BitstreamVeraSans-Roman-70"/>
      <use x="425.30078125" xlink:href="#BitstreamVeraSans-Roman-72"/>
      <use x="464.1640625" xlink:href="#BitstreamVeraSans-Roman-65"/>
      <use x="525.6875" xlink:href="#BitstreamVeraSans-Roman-69"/>
      <use x="553.470703125" xlink:href="#BitstreamVeraSans-Roman-73"/>
     </g>
    </g>
   </g>
  </g>
 </g>
 <defs>
  <clipPath id="pcb2bf987bf">
   <rect height="302.4" width="446.4" x="72.0" y="43.2"/>
  </clipPath>
 </defs>
</svg>
