<?xml version="1.0" encoding="utf-8" standalone="no"?>
<!DOCTYPE svg PUBLIC "-//W3C//DTD SVG 1.1//EN"
  "http://www.w3.org/Graphics/SVG/1.1/DTD/svg11.dtd">
<!-- Created with matplotlib (http://matplotlib.org/) -->
<svg height="432pt" version="1.1" viewBox="0 0 576 432" width="576pt" xmlns="http://www.w3.org/2000/svg" xmlns:xlink="http://www.w3.org/1999/xlink">
 <defs>
  <style type="text/css">
*{stroke-linecap:butt;stroke-linejoin:round;}
  </style>
 </defs>
 <g id="figure_1">
  <g id="patch_1">
   <path d="
M0 432
L576 432
L576 0
L0 0
z
" style="fill:#ffffff;"/>
  </g>
  <g id="axes_1">
   <g id="patch_2">
    <path d="
M72 345.6
L518.4 345.6
L518.4 43.2
L72 43.2
z
" style="fill:#ffffff;"/>
   </g>
   <g id="line2d_1">
    <path clip-path="url(#pcb2bf987bf)" d="
M72 267.798
L72.3828 274.824
L72.7657 271.034
L72.8933 271.034
L73.1485 260.976
L73.2762 249.752
L73.5314 239.403
L73.659 239.986
L73.9142 271.034
L74.0419 270.451
L74.2971 274.387
L74.4247 273.046
L74.6799 273.95
L74.8075 270.597
L75.0628 260.102
L75.1904 259.664
L75.4456 258.061
L75.5732 253.688
L75.8285 253.63
L75.9561 253.251
L76.2113 257.478
L76.3389 255.291
L76.5942 255.291
L76.7218 242.901
L77.3599 260.539
L77.7429 266.224
L77.8703 278.614
L78.2532 270.597
L78.636 252.668
L78.8915 253.105
L79.0189 254.854
L79.4017 271.472
L79.7846 265.058
L80.0398 245.962
L80.1674 258.936
L80.4226 262.871
L80.5503 261.997
L80.8055 261.997
L80.9331 256.166
L81.1885 265.349
L81.316 260.976
L81.5712 257.624
L81.6988 260.831
L81.9542 260.831
L82.0816 260.393
L82.4645 263.571
L82.8473 252.23
L83.1026 259.081
L83.2302 256.312
L83.4854 256.457
L83.613 252.813
L83.9959 256.457
L84.2511 253.834
L84.6342 256.02
L85.1444 252.084
L85.3999 247.711
L85.5273 247.711
L85.9101 245.671
L86.1654 250.335
L86.293 261.851
L86.5482 262.288
L86.6758 258.936
L87.0587 273.512
L87.3139 272.638
L87.4415 269.139
L87.6967 266.515
L87.8244 267.536
L88.0796 271.326
L88.2072 261.763
L88.5901 271.734
L88.8453 270.451
L88.8453 270.451
L88.9729 265.641
L89.611 255.583
L89.7386 262.288
L89.9938 262.725
L89.9938 262.725
L90.2491 260.976
L90.3767 260.976
L91.0148 270.597
L91.7804 266.515
L91.9081 276.136
L92.5461 264.62
L92.6738 269.139
L93.3118 273.95
L94.0775 265.932
L94.2051 268.702
L94.8432 243.63
L94.9708 251.647
L95.7365 260.976
L96.3746 246.254
L97.1403 267.536
L97.906 265.787
L98.0336 264.766
L98.6717 261.851
L98.7993 275.845
L99.4374 278.876
L100.203 272.638
L100.331 260.102
L100.969 254.563
L101.862 249.752
L102.5 252.084
L103.266 260.102
L103.393 255.291
L104.032 254.563
L104.797 275.407
L105.563 272.783
L106.329 272.346
L107.095 262.871
L107.86 264.766
L107.988 264.766
L108.626 261.268
L109.391 264.766
L109.519 260.393
L110.157 249.898
L110.285 262.434
L110.923 266.953
L111.05 260.539
L111.816 268.119
L113.986 272.2
L114.879 265.932
L116.283 262.58
L116.41 269.139
L117.048 257.915
L117.814 250.306
L117.942 247.566
L118.58 266.37
L118.707 266.778
L119.345 265.495
L120.111 263.6
L120.877 260.685
L121.004 259.081
L121.643 265.495
L122.408 263.309
L122.536 266.341
L123.174 260.685
L123.94 255.437
L124.067 256.603
L124.705 272.346
L125.471 264.037
L126.109 260.539
L126.237 256.895
L126.237 256.895
L126.365 267.536
L127.002 244.359
L127.13 267.099
L127.13 267.099
L127.768 270.888
L128.534 263.163
L128.661 243.338
L129.299 266.049
L130.065 264.766
L130.193 260.393
L130.831 261.851
L131.597 243.193
L132.362 272.638
L132.362 272.638
L133.894 267.798
L134.149 268.41
L134.659 261.414
L136.191 273.95
L136.318 271.763
L136.956 268.993
L137.722 259.081
L138.488 224.972
L139.254 263.309
L139.381 248.878
L140.019 251.501
L140.785 251.064
L141.551 264.475
L141.678 270.451
L142.316 270.568
L143.082 275.699
L143.848 249.752
L143.975 260.831
L144.613 272.2
L145.507 258.79
L146.145 269.139
L146.272 268.702
L146.91 261.122
L147.038 237.945
L147.676 271.034
L148.442 270.888
L149.208 274.97
L149.335 270.888
L149.973 270.597
L150.739 268.265
L150.867 272.783
L151.505 280.363
L152.27 265.787
L153.036 248.003
L153.164 261.414
L153.802 255.466
L154.567 261.851
L155.333 264.037
L155.333 264.037
L156.099 262.259
L156.865 241.443
L157.758 262.725
L158.396 259.664
L159.162 257.624
L159.927 261.414
L160.693 274.241
L162.224 264.329
L162.99 243.776
L163.118 233.28
L163.756 269.722
L163.883 267.536
L164.521 266.661
L164.649 268.848
L165.287 263.017
L166.053 253.251
L166.819 262.58
L167.584 258.469
L167.712 256.02
L168.35 240.423
L169.116 254.708
L169.243 212.29
L169.881 267.507
L170.647 270.743
L170.775 266.37
L171.413 270.16
L172.178 273.862
L172.944 243.338
L173.072 268.848
L173.71 246.108
L174.475 262.58
L176.007 253.979
L176.9 266.224
L177.538 266.807
L178.304 268.848
L179.07 266.807
L179.835 268.993
L179.963 264.912
L180.601 268.993
L181.367 264.183
L182.132 232.697
L182.26 257.624
L182.898 270.014
L183.664 271.326
L183.791 275.99
L184.43 272.929
L185.195 273.92
L185.961 269.402
L186.727 267.682
L187.492 264.037
L188.258 270.393
L189.024 273.512
L189.151 271.763
L190.555 246.254
L191.321 273.221
L191.321 273.221
L192.852 270.888
L193.618 265.204
L194.384 264.183
L195.149 259.373
L195.277 266.807
L195.915 256.457
L196.681 267.39
L198.212 263.892
L198.212 263.892
L198.978 263.6
L200.509 267.973
L201.275 268.848
L202.04 269.431
L202.806 268.556
L203.572 260.539
L203.699 260.539
L204.338 257.478
L205.103 261.559
L205.231 249.898
L205.869 262.434
L205.997 271.909
L206.124 271.472
L206.507 262.58
L206.635 247.274
L206.635 247.274
L206.762 269.285
L207.911 253.396
L208.166 265.787
L208.804 272.346
L209.059 261.414
L209.059 261.414
L209.442 266.515
L209.57 261.997
L209.825 272.346
L210.591 269.868
L210.846 252.522
L211.356 259.664
L211.484 258.79
L211.739 269.693
L211.867 264.62
L212.25 259.781
L212.633 256.749
L212.888 262.434
L213.271 260.685
L213.398 259.081
L213.654 262.434
L213.654 262.434
L213.781 261.559
L214.036 261.851
L214.164 269.285
L214.419 224.534
L214.547 265.204
L214.802 271.034
L214.93 271.326
L215.185 270.597
L215.185 270.597
L215.313 268.41
L215.568 270.16
L215.695 261.705
L215.951 266.632
L215.951 266.632
L216.078 264.912
L216.333 264.912
L216.461 264.329
L216.589 270.597
L216.589 270.597
L216.844 261.851
L217.099 260.685
L217.482 247.566
L217.482 247.566
L217.61 244.796
L217.865 259.373
L217.992 260.247
L218.248 259.664
L218.248 259.664
L218.631 250.335
L218.758 254.125
L219.141 247.128
L219.396 245.379
L219.779 243.63
L219.907 254.563
L220.417 264.008
L220.545 264.008
L220.672 260.393
L220.672 260.393
L220.928 261.414
L221.055 251.21
L221.438 243.922
L221.693 257.915
L222.076 257.915
L222.204 266.515
L222.587 263.454
L222.842 261.414
L222.842 261.414
L223.225 267.215
L223.352 265.787
L223.608 255.146
L223.735 262.288
L223.99 263.6
L224.118 262.725
L224.373 261.88
L224.501 261.88
L224.884 264.037
L225.139 248.149
L225.267 261.414
L225.522 258.79
L225.649 263.017
L225.649 263.017
L225.777 262.142
L225.777 262.142
L226.032 250.335
L226.032 250.335
L226.16 245.962
L226.16 245.962
L226.288 248.44
L226.415 244.359
L226.415 244.359
L226.67 254.708
L226.798 266.37
L227.053 268.381
L227.181 263.309
L227.436 259.81
L227.436 259.81
L227.819 270.305
L227.946 269.577
L228.202 266.953
L228.329 255.874
L228.585 267.682
L228.712 265.058
L228.967 263.017
L229.095 263.163
L229.35 265.787
L229.478 265.349
L229.733 266.953
L229.861 268.702
L230.116 267.682
L230.499 264.183
L230.499 264.183
L230.882 251.501
L231.009 261.997
L231.264 265.787
L231.264 265.787
L231.392 264.037
L231.647 265.787
L231.775 264.912
L232.03 264.183
L232.158 262.871
L232.413 262.725
L232.541 260.685
L232.796 259.373
L232.796 259.373
L232.924 255.583
L233.306 270.014
L233.562 270.597
L233.689 267.973
L233.944 258.936
L234.072 261.997
L234.327 216.08
L234.327 216.08
L234.455 260.247
L234.71 258.498
L234.838 256.166
L235.221 261.122
L235.476 263.746
L235.603 263.717
L235.859 264.562
L235.859 264.562
L235.986 264.183
L236.242 260.685
L236.369 254.417
L236.752 266.661
L237.135 259.227
L237.39 243.776
L237.518 257.624
L237.901 265.495
L238.156 259.519
L238.283 264.737
L238.539 262.58
L238.666 255.146
L238.921 232.114
L239.432 264.329
L239.687 264.183
L239.815 263.746
L240.07 255.437
L240.198 246.837
L240.58 240.277
L240.836 242.61
L241.219 237.362
L241.346 256.02
L241.601 256.02
L241.729 255.146
L241.984 257.624
L242.112 264.329
L242.367 260.685
L242.75 264.037
L242.878 263.163
L243.133 265.787
L243.26 263.017
L243.643 266.953
L243.898 263.163
L244.026 266.953
L244.281 260.393
L244.409 266.953
L244.792 268.119
L245.43 259.081
L245.557 251.326
L245.813 252.813
L245.94 264.737
L246.196 271.88
L246.323 266.953
L246.578 267.536
L246.578 267.536
L246.706 270.597
L246.961 260.539
L247.344 269.693
L247.727 266.953
L247.855 269.722
L248.237 267.099
L249.003 253.396
L249.258 253.834
L249.641 264.329
L249.769 256.02
L250.024 269.285
L250.152 268.41
L250.534 271.88
L250.79 267.244
L250.917 268.702
L251.173 267.39
L251.3 258.936
L251.555 266.807
L251.683 265.495
L252.066 269.11
L252.321 268.09
L252.449 265.349
L252.704 270.305
L253.087 271.034
L253.47 265.787
L253.597 269.285
L253.852 261.851
L253.98 269.285
L254.235 270.888
L254.363 246.837
L254.618 269.285
L254.746 268.702
L254.746 268.702
L255.001 272.025
L255.129 264.795
L255.129 264.795
L255.384 264.241
L255.511 273.454
L255.511 273.454
L255.767 270.597
L255.767 270.597
L255.894 265.495
L256.277 268.702
L256.532 261.414
L256.66 261.88
L256.66 261.88
L256.915 270.597
L257.043 270.305
L257.298 263.892
L257.426 272.492
L257.681 272.2
L257.809 271.326
L258.064 271.034
L258.064 271.034
L258.574 262.871
L258.702 261.414
L258.83 258.498
L258.957 258.936
L259.212 260.685
L259.212 260.685
L259.34 259.81
L259.595 268.265
L259.595 268.265
L259.723 265.641
L259.978 243.776
L260.106 262.521
L260.361 262.142
L260.489 260.393
L260.744 261.268
L260.871 246.254
L261.127 243.193
L261.254 248.44
L261.509 247.711
L261.637 244.213
L262.02 266.224
L262.403 252.376
L262.786 263.6
L263.041 264.183
L263.424 266.37
L263.424 266.37
L263.551 263.017
L263.934 258.207
L264.317 265.495
L264.572 265.932
L264.7 263.746
L264.955 269.023
L264.955 269.023
L265.083 267.652
L265.466 232.114
L265.593 253.396
L266.104 268.119
L266.231 260.976
L266.614 268.41
L266.869 268.527
L267.252 261.268
L267.635 256.457
L267.763 254.708
L268.145 262.725
L268.401 261.851
L268.528 268.556
L268.784 261.414
L268.911 263.309
L269.166 263.746
L269.294 261.851
L269.549 254.854
L269.932 237.362
L270.443 267.244
L270.698 265.058
L270.825 266.807
L271.081 262.434
L271.463 263.746
L271.846 263.658
L271.974 260.247
L272.229 259.373
L272.357 257.186
L272.612 263.688
L273.506 253.834
L273.761 254.271
L273.888 256.603
L274.143 256.749
L274.271 253.105
L274.526 257.478
L274.654 264.329
L274.909 264.766
L274.909 264.766
L275.037 261.122
L275.292 258.498
L275.675 263.454
L275.802 262.142
L276.058 267.682
L276.185 266.807
L276.441 267.682
L276.568 267.215
L276.823 265.058
L276.951 258.79
L277.334 264.62
L277.589 265.058
L277.717 263.309
L277.972 244.359
L277.972 244.359
L278.099 254.708
L278.355 261.122
L278.482 260.685
L278.738 261.851
L278.865 259.081
L279.248 267.682
L279.503 268.556
L279.631 261.851
L279.886 266.953
L280.269 261.268
L280.269 261.268
L280.397 265.641
L280.652 262.871
L281.035 267.099
L281.035 267.099
L281.162 267.973
L281.545 261.414
L281.801 259.519
L282.311 269.285
L282.566 266.078
L282.694 261.705
L282.949 247.274
L283.077 260.393
L283.332 263.892
L283.459 268.265
L283.842 260.393
L284.097 258.644
L284.225 256.166
L284.608 267.973
L284.736 267.827
L285.246 261.705
L285.374 262.58
L285.629 262.142
L286.012 260.393
L286.139 261.822
L286.522 263.396
L286.905 263.396
L287.16 263.017
L287.288 264.679
L287.543 263.892
L287.671 264.329
L287.926 263.892
L288.437 267.652
L288.692 269.868
L289.202 263.163
L289.585 270.16
L289.968 267.244
L290.223 266.661
L290.351 267.099
L290.733 266.661
L290.861 269.722
L290.989 267.973
L291.116 269.285
L291.372 261.997
L291.499 265.349
L291.754 264.766
L292.137 262.988
L292.265 263.454
L292.52 263.454
L292.52 263.454
L292.648 263.163
L292.903 269.285
L293.413 259.227
L293.669 262.871
L293.669 262.871
L293.796 261.122
L294.051 266.807
L294.051 266.807
L294.179 261.414
L294.434 261.122
L294.562 256.02
L294.817 263.6
L294.817 263.6
L294.945 260.539
L295.2 263.6
L295.328 261.414
L295.583 261.414
L295.71 256.603
L295.966 262.725
L296.349 266.661
L296.476 264.037
L296.731 261.851
L296.859 266.224
L297.114 264.912
L297.242 265.495
L297.497 262.434
L297.625 270.597
L298.008 264.329
L298.263 267.973
L298.39 267.682
L298.646 268.848
L298.773 253.105
L299.028 266.807
L299.411 252.959
L299.539 265.058
L299.794 262.434
L299.922 264.62
L300.177 265.495
L300.177 265.495
L300.305 266.807
L300.56 261.997
L300.687 249.752
L300.943 266.37
L301.07 264.62
L301.326 266.224
L301.453 269.722
L301.708 260.831
L301.836 270.568
L302.091 252.23
L302.219 263.017
L302.474 260.102
L302.474 260.102
L302.857 264.766
L303.112 261.268
L303.368 262.58
L303.623 259.373
L303.75 264.766
L304.005 256.02
L304.005 256.02
L304.133 259.635
L304.388 257.478
L304.771 245.816
L304.899 255.962
L305.282 267.536
L305.537 266.37
L305.664 260.685
L305.92 263.309
L306.047 263.309
L306.303 268.119
L306.43 267.244
L306.813 254.125
L307.196 269.139
L307.451 267.099
L307.579 270.16
L307.834 268.702
L307.962 265.204
L308.217 268.702
L308.344 268.848
L308.6 264.766
L308.6 264.766
L308.727 258.207
L308.983 265.204
L309.11 262.725
L309.493 262.58
L309.748 263.163
L309.876 261.414
L310.131 261.414
L310.131 261.414
L310.259 259.664
L310.514 268.702
L310.642 268.265
L310.897 269.285
L311.024 270.597
L311.407 263.892
L311.662 264.329
L311.79 260.539
L312.045 260.539
L312.173 260.685
L312.428 261.851
L312.811 250.627
L312.939 262.871
L313.194 261.414
L313.321 266.078
L313.577 267.536
L313.704 261.414
L313.96 257.478
L314.087 261.268
L314.47 264.329
L314.725 261.122
L314.853 264.329
L315.236 261.997
L315.491 253.105
L315.619 260.831
L315.874 262.434
L316.257 265.641
L316.384 265.204
L316.767 261.851
L317.022 265.058
L317.15 265.029
L317.405 270.597
L317.533 267.827
L317.788 254.708
L317.916 260.685
L318.171 262.142
L318.298 266.37
L318.554 266.953
L318.554 266.953
L318.681 258.061
L318.937 265.058
L319.064 262.142
L319.319 264.183
L319.319 264.183
L319.447 261.997
L319.702 267.536
L320.213 256.166
L320.596 263.017
L320.851 258.644
L320.851 258.644
L321.234 261.851
L321.361 261.851
L321.616 266.37
L321.999 252.084
L322.127 265.932
L322.765 260.976
L322.893 253.688
L323.275 259.664
L323.658 255.874
L323.914 252.376
L323.914 252.376
L324.041 252.813
L324.296 250.627
L324.424 257.915
L324.679 255.583
L324.807 255.583
L325.062 263.309
L325.19 262.434
L325.445 258.498
L325.828 257.915
L325.956 258.469
L326.338 265.932
L326.593 268.265
L326.976 258.207
L327.104 257.332
L327.359 266.37
L327.487 265.495
L327.742 265.932
L327.87 263.309
L328.125 266.37
L328.252 265.932
L328.635 261.122
L328.891 261.122
L329.018 248.003
L329.273 257.449
L329.401 256.02
L329.784 248.732
L330.039 255.583
L330.167 228.616
L330.422 254.563
L330.55 255.146
L330.805 252.23
L330.933 257.915
L331.188 258.936
L331.315 265.874
L331.57 265.495
L331.698 260.393
L331.953 259.956
L332.081 245.671
L332.336 260.831
L332.847 256.895
L333.23 251.356
L333.485 252.084
L333.612 250.335
L333.868 249.606
L333.995 246.983
L334.378 263.6
L334.633 262.871
L334.761 264.766
L335.016 263.163
L335.399 258.79
L335.527 258.79
L335.909 261.851
L336.165 267.682
L336.292 263.746
L336.548 262.434
L336.675 262.871
L336.93 262.871
L337.058 263.309
L337.313 272.638
L337.441 265.204
L337.696 266.515
L337.824 264.766
L338.079 264.037
L338.207 255
L338.589 257.041
L338.845 253.251
L338.972 263.454
L339.355 264.3
L339.61 265.204
L339.738 264.883
L339.866 262.725
L340.121 260.976
L340.376 264.883
L340.504 264.883
L340.759 232.697
L340.886 255.729
L341.142 231.531
L341.269 230.074
L341.525 268.265
L341.652 270.014
L341.907 270.305
L342.035 268.556
L342.29 270.305
L342.418 268.119
L342.673 247.274
L342.801 269.431
L343.439 262.288
L343.566 262.288
L343.822 261.268
L343.822 261.268
L343.949 257.769
L344.204 256.457
L344.332 258.061
L344.588 251.21
L344.715 257.157
L344.97 260.831
L345.098 259.956
L345.353 247.274
L345.353 247.274
L345.481 254.125
L345.736 254.417
L345.863 258.936
L346.246 253.105
L346.502 252.668
L346.629 258.498
L346.884 259.664
L346.884 259.664
L347.012 263.6
L347.267 253.688
L347.395 239.403
L347.65 232.989
L348.033 253.251
L348.416 245.962
L348.543 261.851
L348.926 251.064
L349.181 259.227
L349.309 259.081
L349.564 270.888
L349.692 270.014
L349.947 269.722
L350.33 262.026
L350.458 261.122
L350.713 260.976
L350.84 259.664
L351.096 262.871
L351.224 257.478
L351.606 263.309
L351.989 255.437
L352.372 265.058
L352.627 264.912
L352.755 261.822
L353.138 264.475
L353.393 247.274
L353.52 255.729
L353.776 254.125
L353.776 254.125
L354.158 262.142
L354.286 231.531
L354.541 260.831
L354.669 242.172
L354.924 250.19
L355.052 248.149
L355.435 266.807
L355.69 265.204
L355.817 265.174
L356.073 260.831
L356.073 260.831
L356.2 254.563
L356.583 258.352
L356.838 262.142
L356.966 260.831
L357.221 265.058
L357.732 256.02
L357.987 252.376
L358.115 259.635
L358.37 267.244
L358.37 267.244
L358.497 265.932
L358.753 255.874
L358.88 243.193
L359.136 256.312
L359.263 269.956
L359.646 261.705
L359.901 269.577
L360.029 267.827
L360.284 258.644
L360.412 267.827
L360.667 268.265
L360.795 269.431
L361.05 270.568
L361.177 265.932
L361.433 265.058
L361.56 262.434
L361.816 253.105
L361.943 259.81
L362.198 259.373
L362.326 251.647
L362.581 250.19
L362.709 232.697
L362.964 262.871
L363.092 258.498
L363.347 265.932
L363.474 261.122
L363.73 266.37
L363.857 264.62
L364.24 249.752
L364.495 258.411
L364.623 256.603
L364.878 264.329
L365.261 250.044
L365.389 257.186
L365.644 251.793
L365.772 251.501
L366.155 258.936
L366.41 261.997
L366.537 232.697
L366.792 259.664
L366.92 259.664
L367.175 261.122
L367.303 260.393
L367.686 259.519
L368.069 254.125
L368.324 258.207
L368.451 255.146
L368.707 255.146
L369.09 253.979
L369.472 266.37
L369.6 266.807
L369.855 266.224
L369.983 261.851
L370.238 264.766
L370.366 260.102
L370.621 261.851
L370.749 264.183
L371.004 262.434
L371.131 257.624
L371.387 263.454
L371.769 247.274
L371.897 267.536
L372.152 264.037
L372.28 258.936
L372.535 258.061
L372.663 260.685
L372.918 260.247
L373.046 260.539
L373.301 261.997
L373.428 261.851
L373.684 260.976
L373.684 260.976
L373.811 259.664
L374.067 260.539
L374.194 259.519
L374.449 262.142
L374.577 57.7767
L374.832 263.163
L374.96 263.309
L375.215 203.544
L375.343 260.685
L375.598 264.329
L375.726 261.851
L375.981 266.632
L376.108 265.641
L376.364 266.224
L376.491 265.932
L376.746 262.142
L376.874 254.271
L377.129 265.32
L377.257 263.163
L377.64 262.696
L377.767 259.664
L378.023 261.268
L378.278 260.976
L378.405 261.414
L378.661 264.766
L378.788 263.454
L379.044 264.912
L379.171 264.912
L379.426 265.641
L379.554 261.122
L379.809 265.641
L379.937 264.766
L380.192 265.641
L380.575 263.017
L380.703 259.956
L381.723 254.563
L381.851 263.134
L382.107 264.329
L382.234 264.037
L382.489 254.708
L382.617 257.041
L382.872 263.892
L383 245.525
L383.255 252.959
L383.383 264.766
L383.638 263.017
L384.021 261.705
L384.148 255.146
L384.403 249.898
L384.786 259.956
L385.169 255.583
L385.297 261.414
L386.062 257.769
L386.445 249.898
L386.701 252.522
L386.828 256.457
L387.083 246.837
L387.211 248.878
L387.466 242.61
L387.594 251.939
L387.849 260.831
L387.977 260.976
L388.232 258.498
L388.232 258.498
L388.36 265.058
L388.615 246.837
L388.742 259.081
L388.998 263.309
L389.125 262.871
L389.38 266.953
L389.508 246.837
L389.763 265.349
L389.891 261.851
L390.274 261.967
L390.529 264.008
L390.657 263.163
L390.912 259.664
L391.039 261.851
L391.295 260.539
L391.422 263.163
L391.678 261.414
L391.805 263.454
L392.06 257.915
L392.188 262.288
L392.443 257.478
L392.571 258.352
L392.826 251.647
L392.954 256.603
L393.209 257.041
L393.337 259.664
L393.592 254.563
L393.719 258.352
L393.975 248.265
L394.102 249.169
L394.102 249.169
L394.485 256.166
L394.74 257.915
L394.868 256.166
L395.123 250.918
L395.251 252.668
L395.634 239.548
L395.889 243.047
L396.016 253.105
L396.272 253.105
L396.655 233.864
L396.782 260.947
L397.037 258.352
L397.165 258.352
L397.42 225.846
L397.548 256.312
L397.803 256.312
L397.931 250.773
L398.186 261.851
L398.314 262.288
L398.569 262.725
L398.696 258.936
L398.952 243.776
L399.079 256.166
L399.335 258.352
L399.462 262.725
L399.717 260.247
L399.845 263.688
L400.1 257.624
L400.228 263.309
L400.483 261.851
L400.611 265.204
L400.866 265.349
L400.993 247.274
L401.249 264.475
L401.376 260.976
L401.759 244.505
L402.014 267.536
L402.142 266.515
L402.78 258.498
L402.908 259.081
L403.163 258.79
L403.291 267.536
L403.546 265.349
L403.929 252.813
L404.056 253.396
L404.311 259.956
L404.439 267.536
L404.694 265.116
L404.822 260.976
L405.077 263.454
L405.46 259.664
L405.588 267.536
L405.97 263.017
L406.226 264.183
L406.353 262.871
L406.609 267.536
L406.736 266.515
L406.991 261.414
L407.119 267.536
L407.374 265.787
L407.502 263.6
L407.757 264.475
L407.885 265.349
L408.65 250.773
L408.906 266.807
L409.033 259.664
L409.416 253.105
L409.671 256.603
L409.799 263.746
L410.054 266.661
L410.182 260.102
L410.437 262.434
L410.565 258.061
L410.948 260.976
L411.203 251.21
L411.33 253.105
L411.586 265.349
L411.968 259.227
L412.096 261.414
L412.351 263.163
L412.479 266.166
L412.989 263.309
L413.245 264.766
L413.5 262.871
L413.627 259.81
L413.883 248.295
L414.01 255.437
L414.393 251.501
L414.648 253.105
L414.776 57.8059
L415.031 251.356
L415.159 251.501
L415.414 253.105
L415.797 249.606
L415.925 249.606
L416.18 251.793
L416.307 250.481
L416.563 260.393
L416.69 260.976
L416.945 253.834
L417.073 260.947
L417.328 265.787
L417.456 265.204
L417.839 265.349
L418.094 263.163
L418.222 264.037
L418.477 263.513
L418.604 264.912
L418.86 264.475
L418.987 259.519
L419.243 260.976
L419.37 257.041
L419.625 266.078
L419.753 264.475
L420.008 263.309
L420.136 261.997
L420.391 261.967
L420.519 258.498
L420.902 262.871
L421.157 254.563
L421.54 260.976
L421.667 259.664
L421.922 266.807
L422.05 263.017
L422.305 267.244
L422.433 265.058
L422.688 267.944
L422.816 267.827
L423.071 265.204
L423.454 255.874
L423.581 265.204
L423.837 258.207
L423.964 264.329
L424.347 266.078
L424.602 264.329
L424.73 265.641
L424.985 258.936
L425.113 259.227
L425.368 263.892
L425.496 261.705
L425.751 260.685
L425.879 265.058
L426.134 257.624
L426.261 264.62
L426.644 257.186
L426.899 258.79
L427.282 258.936
L427.41 264.912
L427.665 241.443
L427.793 265.932
L428.048 266.37
L428.176 265.058
L428.558 251.939
L428.814 252.376
L428.941 251.064
L429.197 261.122
L429.324 256.312
L429.579 264.766
L429.707 264.037
L429.962 256.02
L430.09 264.358
L430.473 259.519
L430.728 259.519
L430.983 255.146
L431.238 259.956
L431.494 260.976
L432.004 256.603
L432.259 254.417
L432.387 255.291
L432.642 250.481
L432.642 250.481
L432.77 250.481
L433.025 257.478
L433.153 255.291
L433.408 257.011
L433.536 256.166
L433.791 252.376
L433.918 252.376
L434.174 254.708
L434.556 250.627
L434.684 255.146
L434.939 249.315
L435.067 253.396
L435.322 256.02
L435.45 258.498
L435.705 256.603
L435.833 248.295
L436.088 259.664
L436.215 249.898
L436.471 264.329
L436.598 264.766
L436.854 263.892
L436.981 266.078
L437.236 263.454
L437.364 264.329
L437.619 265.204
L437.747 261.559
L438.13 259.81
L438.385 256.895
L438.513 257.478
L438.768 264.737
L438.895 263.892
L439.151 258.79
L439.533 265.204
L439.661 256.749
L439.916 255.874
L440.044 261.851
L440.299 261.414
L440.299 261.414
L440.427 258.352
L440.682 259.519
L441.065 252.959
L441.192 263.746
L441.448 254.563
L441.575 257.478
L441.958 248.295
L442.341 251.064
L442.596 259.227
L442.724 255.437
L442.979 252.084
L443.107 252.522
L443.362 248.586
L443.745 255.874
L443.872 254.563
L444.128 264.912
L444.255 260.539
L444.638 262.288
L444.893 266.807
L445.021 264.329
L445.276 265.932
L445.659 258.352
L446.042 262.288
L446.169 259.664
L446.425 242.755
L446.552 257.041
L446.808 259.664
L447.19 266.778
L447.318 266.807
L447.573 267.682
L447.701 262.58
L447.956 259.664
L448.084 260.539
L448.339 261.268
L448.467 264.912
L448.722 266.807
L448.849 261.559
L449.105 258.498
L449.232 269.868
L449.615 269.868
L449.87 260.539
L449.998 261.414
L450.126 257.041
L450.636 257.915
L450.764 259.664
L451.019 258.352
L451.146 268.41
L451.529 261.851
L451.785 257.186
L451.912 258.061
L452.295 256.749
L452.678 245.088
L452.933 246.254
L453.061 246.254
L453.316 252.23
L453.444 266.195
L453.699 268.265
L454.209 262.142
L454.465 261.268
L454.592 253.105
L454.847 251.21
L454.847 251.21
L454.975 246.837
L455.23 242.172
L455.358 242.755
L455.613 241.589
L455.741 258.498
L455.996 258.936
L456.123 262.58
L456.506 260.831
L456.762 261.268
L456.889 260.685
L457.272 250.481
L457.527 265.787
L458.038 259.519
L458.676 253.979
L458.803 258.207
L459.059 257.711
L459.186 258.352
L459.442 256.895
L459.569 257.332
L459.952 257.478
L460.335 250.773
L460.718 255.729
L460.973 264.329
L461.356 255.874
L461.739 265.058
L461.866 263.746
L462.249 257.186
L462.504 258.936
L462.887 266.078
L463.015 264.329
L463.27 266.37
L463.398 264.183
L463.653 265.349
L464.036 261.268
L464.163 258.644
L464.419 258.061
L464.546 262.725
L464.801 259.81
L464.929 262.58
L465.184 256.312
L465.312 258.498
L465.567 255.874
L465.567 255.874
L465.695 261.822
L465.95 259.956
L466.078 260.102
L466.333 258.79
L466.46 256.895
L466.716 264.183
L466.843 263.892
L467.098 265.204
L467.098 265.204
L467.226 264.183
L467.481 274.824
L467.864 261.997
L467.992 262.142
L468.247 251.647
L468.757 266.953
L469.14 255.437
L469.396 258.79
L469.523 254.708
L469.778 251.647
L469.906 252.522
L470.161 251.501
L470.289 248.295
L470.544 252.084
L470.672 259.227
L471.055 254.854
L471.31 254.417
L471.437 230.948
L471.693 253.542
L471.82 247.128
L472.203 238.382
L472.458 244.213
L472.586 243.63
L472.969 259.227
L473.224 253.542
L473.352 261.851
L473.607 235.613
L473.734 264.329
L473.99 255.583
L474.118 267.099
L474.373 257.332
L474.5 258.061
L474.755 254.708
L474.883 256.166
L475.266 266.224
L475.521 259.81
L475.649 265.058
L475.904 263.746
L476.032 261.997
L476.287 265.757
L476.414 263.454
L476.67 264.037
L476.797 252.668
L477.052 203.544
L477.18 264.912
L477.435 259.664
L477.563 261.851
L477.818 258.061
L477.946 265.204
L478.584 261.268
L478.711 263.017
L479.094 257.478
L479.477 250.627
L479.86 256.603
L480.115 260.947
L480.243 260.393
L480.626 264.912
L481.647 260.976
L481.774 245.671
L482.03 260.102
L482.157 257.507
L482.412 256.457
L482.54 250.19
L482.795 261.268
L482.923 260.831
L483.178 255.146
L483.306 239.986
L483.561 237.654
L483.689 238.528
L483.944 256.166
L484.071 255.146
L484.327 258.061
L484.454 261.414
L484.709 258.79
L484.837 258.79
L485.475 248.732
L485.858 250.627
L486.368 243.922
L486.624 255.729
L486.751 255.291
L487.134 252.23
L487.517 249.606
L487.772 248.149
L487.9 249.169
L488.283 246.4
L488.538 247.42
L488.666 249.169
L488.921 244.067
L489.048 247.42
L489.304 250.19
L489.431 249.606
L489.686 258.498
L489.814 257.186
L490.197 249.606
L490.452 258.79
L490.58 258.79
L490.835 254.417
L491.218 261.414
L491.345 257.186
L491.601 255.437
L491.728 252.813
L491.984 264.329
L492.111 264.446
L492.366 265.787
L492.749 263.454
L492.877 244.359
L493.132 244.359
L493.26 229.782
L493.515 260.102
L493.643 260.393
L493.898 259.519
L494.026 257.332
L494.281 256.457
L494.408 256.457
L494.663 250.481
L494.791 228.179
L495.046 258.79
L495.174 257.041
L495.429 228.324
L495.557 263.892
L495.684 252.143
L495.812 259.081
L495.812 259.081
L495.94 253.105
L496.195 254.271
L496.322 253.834
L496.578 257.624
L496.961 250.773
L497.088 249.461
L497.343 249.461
L497.471 252.668
L497.726 57.7767
L497.854 260.247
L498.109 244.942
L498.237 255.291
L498.492 251.21
L498.62 263.017
L498.875 262.142
L499.002 259.081
L499.258 262.551
L499.258 262.551
L499.768 254.854
L500.023 253.979
L500.151 250.773
L500.406 232.114
L500.534 249.898
L500.917 259.081
L501.172 261.122
L501.555 248.44
L501.682 238.528
L501.938 263.454
L502.065 238.528
L502.32 264.271
L502.448 258.061
L502.703 266.661
L502.831 258.936
L503.086 264.766
L503.597 256.603
L503.852 256.166
L503.979 255
L504.362 248.586
L504.617 228.324
L504.873 252.084
L505.128 252.084
L505.383 231.531
L505.511 253.979
L505.894 252.668
L506.149 252.668
L506.277 254.854
L506.532 254.417
L506.659 252.23
L506.915 250.481
L507.042 239.986
L507.297 243.922
L507.425 254.563
L507.68 255.729
L507.808 240.977
L508.063 256.166
L508.191 255.874
L508.446 257.624
L508.574 256.312
L508.829 255
L509.212 262.142
L509.339 258.615
L509.595 259.344
L509.722 257.186
L509.977 257.186
L510.36 259.81
L510.488 261.967
L510.743 255.583
L510.871 255.583
L511.126 251.647
L511.636 261.122
L511.892 264.241
L512.019 263.746
L512.402 265.787
L512.657 265.349
L512.785 261.414
L513.04 244.359
L513.168 264.008
L513.423 255
L513.551 259.373
L513.806 256.312
L513.933 261.997
L514.189 261.122
L514.317 260.247
L514.572 257.041
L514.699 257.332
L514.954 255.437
L515.337 260.539
L515.72 251.793
L515.848 260.247
L516.103 256.603
L516.231 256.603
L516.486 258.906
L516.613 255
L516.869 254.271
L516.996 258.906
L517.251 258.061
L517.379 255.874
L517.634 256.895
L517.762 260.685
L518.145 256.749
L518.4 251.793
L518.4 251.793" style="fill:none;stroke:#ff0000;stroke-linecap:square;"/>
   </g>
   <g id="line2d_2">
    <path clip-path="url(#pcb2bf987bf)" d="
M72 341.498
L72.1276 341.381
L73.5314 341.323
L73.659 341.207
L74.2971 341.207
L74.4247 341.352
L75.8285 341.294
L75.9561 341.148
L77.3599 341.236
L77.8703 341.44
L78.1256 341.44
L78.1256 341.44
L78.2532 341.236
L78.8915 341.236
L79.0189 341.09
L79.6569 341.09
L79.7846 341.352
L81.1885 341.411
L81.5712 341.469
L82.7197 341.411
L82.8473 341.294
L85.7825 341.265
L85.9101 341.119
L86.5482 341.119
L86.6758 341.381
L89.611 341.352
L89.7386 341.265
L91.0148 341.236
L91.9081 341.469
L94.9708 341.381
L96.3746 341.265
L97.1403 341.294
L98.0336 341.44
L98.7993 341.411
L100.331 341.527
L101.862 341.352
L103.393 341.352
L104.797 341.469
L106.329 341.352
L108.626 341.44
L110.285 341.265
L111.816 341.323
L113.986 341.032
L114.879 341.411
L120.877 341.148
L124.067 341.119
L124.705 341.032
L126.109 341.09
L128.661 341.148
L129.299 340.857
L130.193 340.915
L130.831 340.857
L133.894 341.177
L134.149 341.032
L136.956 341.032
L137.722 340.828
L139.381 340.828
L140.019 340.944
L140.785 340.944
L141.678 341.119
L142.316 341.003
L143.975 341.061
L146.272 340.915
L147.038 340.915
L147.676 340.798
L148.442 340.973
L153.164 341.236
L154.567 340.711
L155.333 340.944
L155.333 340.944
L156.099 340.886
L157.758 340.973
L158.396 340.973
L159.162 340.828
L159.927 340.828
L162.224 341.09
L164.649 341.032
L165.287 341.119
L167.712 340.857
L168.35 340.886
L169.243 340.798
L169.881 340.828
L170.775 341.177
L171.413 341.119
L172.178 341.207
L173.71 341.148
L174.603 341.236
L176.9 341.09
L177.538 341.177
L178.304 341.148
L179.07 341.294
L182.898 341.003
L184.43 341.323
L185.195 341.207
L185.961 341.294
L187.492 341.236
L192.852 341.44
L194.384 341.207
L195.915 341.323
L196.681 341.352
L198.978 341.236
L200.509 341.323
L201.275 341.207
L203.699 341.236
L204.338 341.119
L205.997 341.119
L206.124 341.236
L208.166 341.177
L209.059 341.352
L209.059 341.352
L209.57 341.177
L209.825 341.177
L210.591 341.381
L210.846 341.294
L212.122 341.236
L212.25 341.09
L215.185 341.148
L215.185 341.148
L215.568 341.207
L217.482 341.265
L217.482 341.265
L217.61 340.973
L218.248 340.973
L218.248 340.973
L218.375 341.148
L222.842 341.061
L222.842 341.061
L223.735 341.032
L226.67 341.003
L226.798 341.148
L229.733 341.207
L230.116 341.265
L230.499 341.265
L230.499 341.265
L231.009 341.148
L232.03 341.207
L232.413 341.265
L232.796 341.265
L232.796 341.265
L232.924 341.09
L233.562 341.09
L233.689 341.323
L234.327 341.323
L234.327 341.323
L234.455 341.003
L235.859 341.09
L235.859 341.09
L236.369 341.119
L238.921 341.177
L239.049 340.915
L239.687 340.915
L239.815 341.177
L240.453 341.177
L240.453 341.177
L240.58 341.003
L243.516 341.003
L243.643 341.177
L247.344 341.265
L248.876 341.323
L248.876 341.323
L249.258 341.265
L253.47 341.265
L253.597 341.148
L254.235 341.148
L254.363 341.265
L256.532 341.323
L256.66 341.148
L256.66 341.148
L257.298 341.148
L257.426 341.352
L258.83 341.294
L258.957 341.148
L261.127 341.148
L261.254 341.032
L261.892 341.032
L262.02 341.236
L264.955 341.323
L264.955 341.323
L265.083 341.411
L265.593 341.411
L265.848 341.265
L266.486 341.265
L266.614 341.411
L267.252 341.411
L267.38 341.294
L273.378 341.294
L273.378 341.294
L273.506 341.148
L274.909 341.09
L274.909 341.09
L275.037 341.265
L276.441 341.265
L276.568 341.381
L277.972 341.381
L277.972 341.381
L278.099 341.119
L278.738 341.119
L278.865 341.236
L281.035 341.265
L281.035 341.265
L281.162 341.44
L282.566 341.381
L282.694 341.294
L284.097 341.265
L284.225 341.119
L284.736 341.119
L285.629 341.265
L286.139 341.236
L288.692 341.323
L289.074 341.381
L293.286 341.294
L293.286 341.294
L293.669 341.236
L293.669 341.236
L294.051 341.236
L294.051 341.236
L294.179 341.352
L295.583 341.323
L295.71 341.207
L296.349 341.207
L296.476 341.323
L298.646 341.323
L298.773 341.44
L299.411 341.44
L299.539 341.294
L304.005 341.207
L304.005 341.207
L304.388 341.177
L305.537 341.177
L305.664 341.294
L308.6 341.236
L308.6 341.236
L308.983 341.177
L310.131 341.119
L310.131 341.119
L310.514 341.061
L310.897 341.061
L311.024 341.265
L320.085 341.323
L320.213 341.148
L321.616 341.09
L322.127 341.323
L323.148 341.207
L323.531 341.265
L330.039 341.177
L330.167 341.09
L331.57 341.061
L331.698 341.294
L332.336 341.294
L332.464 341.148
L333.102 341.148
L333.23 341.032
L334.633 340.973
L334.761 341.177
L336.165 341.148
L336.292 341.352
L336.93 341.352
L337.058 341.207
L337.696 341.207
L337.824 341.323
L338.462 341.323
L338.589 341.177
L339.866 341.236
L340.504 341.294
L342.418 341.411
L344.588 341.352
L344.715 341.119
L346.884 341.177
L346.884 341.177
L347.012 341.265
L347.65 341.265
L347.778 341.032
L349.181 341.032
L349.309 341.265
L349.947 341.265
L350.075 341.469
L350.713 341.469
L350.84 341.265
L359.901 341.265
L360.029 341.44
L364.495 341.352
L364.623 341.265
L369.855 341.236
L369.983 341.498
L372.152 341.411
L372.535 341.352
L372.918 341.352
L373.046 341.236
L375.981 341.294
L376.108 341.411
L380.575 341.323
L381.086 341.294
L381.341 341.294
L381.468 341.177
L384.403 341.207
L384.531 341.003
L387.466 341.003
L387.594 340.886
L388.232 340.886
L388.232 340.886
L388.36 345.405
L388.998 345.405
L389.125 341.207
L391.295 341.119
L391.805 341.09
L392.826 341.003
L393.209 340.944
L394.102 340.973
L394.102 340.973
L394.74 340.798
L397.42 340.769
L397.548 340.973
L398.186 340.973
L398.314 341.119
L399.717 341.061
L399.845 341.265
L402.014 341.323
L402.142 341.44
L402.78 341.44
L402.908 341.207
L403.546 341.207
L403.673 341.381
L408.14 341.323
L408.268 341.207
L408.906 341.207
L409.033 341.381
L411.968 341.294
L412.351 341.236
L414.266 341.236
L414.393 341.119
L416.563 341.148
L416.69 341.323
L420.391 341.265
L420.519 341.177
L421.922 341.207
L422.05 341.323
L425.751 341.236
L426.261 341.207
L428.048 341.207
L428.176 341.323
L430.345 341.294
L430.473 341.177
L432.642 341.177
L432.642 341.177
L432.77 341.032
L434.939 341.003
L435.067 340.915
L435.705 340.915
L435.833 341.061
L436.471 341.061
L436.598 341.207
L440.299 341.177
L440.299 341.177
L440.427 341.09
L443.362 341.09
L443.49 340.973
L444.128 340.973
L444.255 341.265
L447.956 341.323
L448.339 341.381
L449.487 341.469
L449.487 341.469
L449.615 341.586
L450.126 341.586
L450.636 341.469
L452.55 341.411
L452.678 341.323
L460.207 341.294
L460.335 341.177
L460.973 341.177
L461.101 341.44
L467.098 341.44
L467.098 341.44
L467.226 341.644
L467.864 341.644
L467.992 341.44
L471.693 341.352
L472.203 341.323
L472.458 341.323
L472.586 341.207
L473.224 341.207
L473.352 341.469
L479.35 341.469
L479.477 341.236
L480.115 341.236
L480.243 341.411
L483.178 341.352
L483.561 341.294
L483.944 341.294
L484.071 341.411
L485.475 341.381
L486.368 341.236
L492.366 341.323
L492.494 341.469
L493.898 341.411
L494.281 341.352
L494.663 341.352
L494.791 341.148
L495.429 341.148
L495.557 341.498
L496.195 341.498
L496.322 341.352
L496.961 341.352
L497.088 341.177
L497.726 341.177
L497.854 341.352
L501.555 341.352
L501.682 341.207
L502.32 341.207
L502.448 341.469
L503.852 341.556
L503.979 341.352
L509.977 341.381
L510.488 341.177
L510.743 341.177
L510.871 341.352
L512.274 341.265
L512.402 341.469
L513.04 341.469
L513.168 341.294
L518.4 341.294
L518.4 341.294" style="fill:none;stroke:#008000;stroke-linecap:square;"/>
   </g>
   <g id="patch_3">
    <path d="
M72 43.2
L518.4 43.2" style="fill:none;stroke:#000000;stroke-linecap:square;stroke-linejoin:miter;"/>
   </g>
   <g id="patch_4">
    <path d="
M518.4 345.6
L518.4 43.2" style="fill:none;stroke:#000000;stroke-linecap:square;stroke-linejoin:miter;"/>
   </g>
   <g id="patch_5">
    <path d="
M72 345.6
L518.4 345.6" style="fill:none;stroke:#000000;stroke-linecap:square;stroke-linejoin:miter;"/>
   </g>
   <g id="patch_6">
    <path d="
M72 345.6
L72 43.2" style="fill:none;stroke:#000000;stroke-linecap:square;stroke-linejoin:miter;"/>
   </g>
   <g id="matplotlib.axis_1">
    <g id="xtick_1">
     <g id="line2d_3">
      <defs>
       <path d="
M0 0
L0 -4" id="m93b0483c22" style="stroke:#000000;stroke-width:0.5;"/>
      </defs>
      <g>
       <use style="stroke:#000000;stroke-width:0.5;" x="117.941468267" xlink:href="#m93b0483c22" y="345.6"/>
      </g>
     </g>
     <g id="line2d_4">
      <defs>
       <path d="
M0 0
L0 4" id="m741efc42ff" style="stroke:#000000;stroke-width:0.5;"/>
      </defs>
      <g>
       <use style="stroke:#000000;stroke-width:0.5;" x="117.941468267" xlink:href="#m741efc42ff" y="43.2"/>
      </g>
     </g>
     <g id="text_1">
      <!-- Oct 13 2015 -->
      <defs>
       <path d="
M19.1875 8.29688
L53.6094 8.29688
L53.6094 0
L7.32812 0
L7.32812 8.29688
Q12.9375 14.1094 22.625 23.8906
Q32.3281 33.6875 34.8125 36.5312
Q39.5469 41.8438 41.4219 45.5312
Q43.3125 49.2188 43.3125 52.7812
Q43.3125 58.5938 39.2344 62.25
Q35.1562 65.9219 28.6094 65.9219
Q23.9688 65.9219 18.8125 64.3125
Q13.6719 62.7031 7.8125 59.4219
L7.8125 69.3906
Q13.7656 71.7812 18.9375 73
Q24.125 74.2188 28.4219 74.2188
Q39.75 74.2188 46.4844 68.5469
Q53.2188 62.8906 53.2188 53.4219
Q53.2188 48.9219 51.5312 44.8906
Q49.8594 40.875 45.4062 35.4062
Q44.1875 33.9844 37.6406 27.2188
Q31.1094 20.4531 19.1875 8.29688" id="BitstreamVeraSans-Roman-32"/>
       <path d="
M39.4062 66.2188
Q28.6562 66.2188 22.3281 58.2031
Q16.0156 50.2031 16.0156 36.375
Q16.0156 22.6094 22.3281 14.5938
Q28.6562 6.59375 39.4062 6.59375
Q50.1406 6.59375 56.4219 14.5938
Q62.7031 22.6094 62.7031 36.375
Q62.7031 50.2031 56.4219 58.2031
Q50.1406 66.2188 39.4062 66.2188
M39.4062 74.2188
Q54.7344 74.2188 63.9062 63.9375
Q73.0938 53.6562 73.0938 36.375
Q73.0938 19.1406 63.9062 8.85938
Q54.7344 -1.42188 39.4062 -1.42188
Q24.0312 -1.42188 14.8125 8.82812
Q5.60938 19.0938 5.60938 36.375
Q5.60938 53.6562 14.8125 63.9375
Q24.0312 74.2188 39.4062 74.2188" id="BitstreamVeraSans-Roman-4f"/>
       <path d="
M31.7812 66.4062
Q24.1719 66.4062 20.3281 58.9062
Q16.5 51.4219 16.5 36.375
Q16.5 21.3906 20.3281 13.8906
Q24.1719 6.39062 31.7812 6.39062
Q39.4531 6.39062 43.2812 13.8906
Q47.125 21.3906 47.125 36.375
Q47.125 51.4219 43.2812 58.9062
Q39.4531 66.4062 31.7812 66.4062
M31.7812 74.2188
Q44.0469 74.2188 50.5156 64.5156
Q56.9844 54.8281 56.9844 36.375
Q56.9844 17.9688 50.5156 8.26562
Q44.0469 -1.42188 31.7812 -1.42188
Q19.5312 -1.42188 13.0625 8.26562
Q6.59375 17.9688 6.59375 36.375
Q6.59375 54.8281 13.0625 64.5156
Q19.5312 74.2188 31.7812 74.2188" id="BitstreamVeraSans-Roman-30"/>
       <path d="
M12.4062 8.29688
L28.5156 8.29688
L28.5156 63.9219
L10.9844 60.4062
L10.9844 69.3906
L28.4219 72.9062
L38.2812 72.9062
L38.2812 8.29688
L54.3906 8.29688
L54.3906 0
L12.4062 0
z
" id="BitstreamVeraSans-Roman-31"/>
       <path d="
M40.5781 39.3125
Q47.6562 37.7969 51.625 33
Q55.6094 28.2188 55.6094 21.1875
Q55.6094 10.4062 48.1875 4.48438
Q40.7656 -1.42188 27.0938 -1.42188
Q22.5156 -1.42188 17.6562 -0.515625
Q12.7969 0.390625 7.625 2.20312
L7.625 11.7188
Q11.7188 9.32812 16.5938 8.10938
Q21.4844 6.89062 26.8125 6.89062
Q36.0781 6.89062 40.9375 10.5469
Q45.7969 14.2031 45.7969 21.1875
Q45.7969 27.6406 41.2812 31.2656
Q36.7656 34.9062 28.7188 34.9062
L20.2188 34.9062
L20.2188 43.0156
L29.1094 43.0156
Q36.375 43.0156 40.2344 45.9219
Q44.0938 48.8281 44.0938 54.2969
Q44.0938 59.9062 40.1094 62.9062
Q36.1406 65.9219 28.7188 65.9219
Q24.6562 65.9219 20.0156 65.0312
Q15.375 64.1562 9.8125 62.3125
L9.8125 71.0938
Q15.4375 72.6562 20.3438 73.4375
Q25.25 74.2188 29.5938 74.2188
Q40.8281 74.2188 47.3594 69.1094
Q53.9062 64.0156 53.9062 55.3281
Q53.9062 49.2656 50.4375 45.0938
Q46.9688 40.9219 40.5781 39.3125" id="BitstreamVeraSans-Roman-33"/>
       <path id="BitstreamVeraSans-Roman-20"/>
       <path d="
M10.7969 72.9062
L49.5156 72.9062
L49.5156 64.5938
L19.8281 64.5938
L19.8281 46.7344
Q21.9688 47.4688 24.1094 47.8281
Q26.2656 48.1875 28.4219 48.1875
Q40.625 48.1875 47.75 41.5
Q54.8906 34.8125 54.8906 23.3906
Q54.8906 11.625 47.5625 5.09375
Q40.2344 -1.42188 26.9062 -1.42188
Q22.3125 -1.42188 17.5469 -0.640625
Q12.7969 0.140625 7.71875 1.70312
L7.71875 11.625
Q12.1094 9.23438 16.7969 8.0625
Q21.4844 6.89062 26.7031 6.89062
Q35.1562 6.89062 40.0781 11.3281
Q45.0156 15.7656 45.0156 23.3906
Q45.0156 31 40.0781 35.4375
Q35.1562 39.8906 26.7031 39.8906
Q22.75 39.8906 18.8125 39.0156
Q14.8906 38.1406 10.7969 36.2812
z
" id="BitstreamVeraSans-Roman-35"/>
       <path d="
M18.3125 70.2188
L18.3125 54.6875
L36.8125 54.6875
L36.8125 47.7031
L18.3125 47.7031
L18.3125 18.0156
Q18.3125 11.3281 20.1406 9.42188
Q21.9688 7.51562 27.5938 7.51562
L36.8125 7.51562
L36.8125 0
L27.5938 0
Q17.1875 0 13.2344 3.875
Q9.28125 7.76562 9.28125 18.0156
L9.28125 47.7031
L2.6875 47.7031
L2.6875 54.6875
L9.28125 54.6875
L9.28125 70.2188
z
" id="BitstreamVeraSans-Roman-74"/>
       <path d="
M48.7812 52.5938
L48.7812 44.1875
Q44.9688 46.2969 41.1406 47.3438
Q37.3125 48.3906 33.4062 48.3906
Q24.6562 48.3906 19.8125 42.8438
Q14.9844 37.3125 14.9844 27.2969
Q14.9844 17.2812 19.8125 11.7344
Q24.6562 6.20312 33.4062 6.20312
Q37.3125 6.20312 41.1406 7.25
Q44.9688 8.29688 48.7812 10.4062
L48.7812 2.09375
Q45.0156 0.34375 40.9844 -0.53125
Q36.9688 -1.42188 32.4219 -1.42188
Q20.0625 -1.42188 12.7812 6.34375
Q5.51562 14.1094 5.51562 27.2969
Q5.51562 40.6719 12.8594 48.3281
Q20.2188 56 33.0156 56
Q37.1562 56 41.1094 55.1406
Q45.0625 54.2969 48.7812 52.5938" id="BitstreamVeraSans-Roman-63"/>
      </defs>
      <g transform="translate(53.3541815316 394.065590385)rotate(-30.0)scale(0.12 -0.12)">
       <use xlink:href="#BitstreamVeraSans-Roman-4f"/>
       <use x="78.7109375" xlink:href="#BitstreamVeraSans-Roman-63"/>
       <use x="133.69140625" xlink:href="#BitstreamVeraSans-Roman-74"/>
       <use x="172.900390625" xlink:href="#BitstreamVeraSans-Roman-20"/>
       <use x="204.6875" xlink:href="#BitstreamVeraSans-Roman-31"/>
       <use x="268.310546875" xlink:href="#BitstreamVeraSans-Roman-33"/>
       <use x="331.93359375" xlink:href="#BitstreamVeraSans-Roman-20"/>
       <use x="363.720703125" xlink:href="#BitstreamVeraSans-Roman-32"/>
       <use x="427.34375" xlink:href="#BitstreamVeraSans-Roman-30"/>
       <use x="490.966796875" xlink:href="#BitstreamVeraSans-Roman-31"/>
       <use x="554.58984375" xlink:href="#BitstreamVeraSans-Roman-35"/>
      </g>
     </g>
    </g>
    <g id="xtick_2">
     <g id="line2d_5">
      <g>
       <use style="stroke:#000000;stroke-width:0.5;" x="173.071485419" xlink:href="#m93b0483c22" y="345.6"/>
      </g>
     </g>
     <g id="line2d_6">
      <g>
       <use style="stroke:#000000;stroke-width:0.5;" x="173.071485419" xlink:href="#m741efc42ff" y="43.2"/>
      </g>
     </g>
     <g id="text_2">
      <!-- Oct 16 2015 -->
      <defs>
       <path d="
M33.0156 40.375
Q26.375 40.375 22.4844 35.8281
Q18.6094 31.2969 18.6094 23.3906
Q18.6094 15.5312 22.4844 10.9531
Q26.375 6.39062 33.0156 6.39062
Q39.6562 6.39062 43.5312 10.9531
Q47.4062 15.5312 47.4062 23.3906
Q47.4062 31.2969 43.5312 35.8281
Q39.6562 40.375 33.0156 40.375
M52.5938 71.2969
L52.5938 62.3125
Q48.875 64.0625 45.0938 64.9844
Q41.3125 65.9219 37.5938 65.9219
Q27.8281 65.9219 22.6719 59.3281
Q17.5312 52.7344 16.7969 39.4062
Q19.6719 43.6562 24.0156 45.9219
Q28.375 48.1875 33.5938 48.1875
Q44.5781 48.1875 50.9531 41.5156
Q57.3281 34.8594 57.3281 23.3906
Q57.3281 12.1562 50.6875 5.35938
Q44.0469 -1.42188 33.0156 -1.42188
Q20.3594 -1.42188 13.6719 8.26562
Q6.98438 17.9688 6.98438 36.375
Q6.98438 53.6562 15.1875 63.9375
Q23.3906 74.2188 37.2031 74.2188
Q40.9219 74.2188 44.7031 73.4844
Q48.4844 72.75 52.5938 71.2969" id="BitstreamVeraSans-Roman-36"/>
      </defs>
      <g transform="translate(108.484198684 394.065590385)rotate(-30.0)scale(0.12 -0.12)">
       <use xlink:href="#BitstreamVeraSans-Roman-4f"/>
       <use x="78.7109375" xlink:href="#BitstreamVeraSans-Roman-63"/>
       <use x="133.69140625" xlink:href="#BitstreamVeraSans-Roman-74"/>
       <use x="172.900390625" xlink:href="#BitstreamVeraSans-Roman-20"/>
       <use x="204.6875" xlink:href="#BitstreamVeraSans-Roman-31"/>
       <use x="268.310546875" xlink:href="#BitstreamVeraSans-Roman-36"/>
       <use x="331.93359375" xlink:href="#BitstreamVeraSans-Roman-20"/>
       <use x="363.720703125" xlink:href="#BitstreamVeraSans-Roman-32"/>
       <use x="427.34375" xlink:href="#BitstreamVeraSans-Roman-30"/>
       <use x="490.966796875" xlink:href="#BitstreamVeraSans-Roman-31"/>
       <use x="554.58984375" xlink:href="#BitstreamVeraSans-Roman-35"/>
      </g>
     </g>
    </g>
    <g id="xtick_3">
     <g id="line2d_7">
      <g>
       <use style="stroke:#000000;stroke-width:0.5;" x="228.201502573" xlink:href="#m93b0483c22" y="345.6"/>
      </g>
     </g>
     <g id="line2d_8">
      <g>
       <use style="stroke:#000000;stroke-width:0.5;" x="228.201502573" xlink:href="#m741efc42ff" y="43.2"/>
      </g>
     </g>
     <g id="text_3">
      <!-- Oct 19 2015 -->
      <defs>
       <path d="
M10.9844 1.51562
L10.9844 10.5
Q14.7031 8.73438 18.5 7.8125
Q22.3125 6.89062 25.9844 6.89062
Q35.75 6.89062 40.8906 13.4531
Q46.0469 20.0156 46.7812 33.4062
Q43.9531 29.2031 39.5938 26.9531
Q35.25 24.7031 29.9844 24.7031
Q19.0469 24.7031 12.6719 31.3125
Q6.29688 37.9375 6.29688 49.4219
Q6.29688 60.6406 12.9375 67.4219
Q19.5781 74.2188 30.6094 74.2188
Q43.2656 74.2188 49.9219 64.5156
Q56.5938 54.8281 56.5938 36.375
Q56.5938 19.1406 48.4062 8.85938
Q40.2344 -1.42188 26.4219 -1.42188
Q22.7031 -1.42188 18.8906 -0.6875
Q15.0938 0.046875 10.9844 1.51562
M30.6094 32.4219
Q37.25 32.4219 41.125 36.9531
Q45.0156 41.5 45.0156 49.4219
Q45.0156 57.2812 41.125 61.8438
Q37.25 66.4062 30.6094 66.4062
Q23.9688 66.4062 20.0938 61.8438
Q16.2188 57.2812 16.2188 49.4219
Q16.2188 41.5 20.0938 36.9531
Q23.9688 32.4219 30.6094 32.4219" id="BitstreamVeraSans-Roman-39"/>
      </defs>
      <g transform="translate(163.614215838 394.065590385)rotate(-30.0)scale(0.12 -0.12)">
       <use xlink:href="#BitstreamVeraSans-Roman-4f"/>
       <use x="78.7109375" xlink:href="#BitstreamVeraSans-Roman-63"/>
       <use x="133.69140625" xlink:href="#BitstreamVeraSans-Roman-74"/>
       <use x="172.900390625" xlink:href="#BitstreamVeraSans-Roman-20"/>
       <use x="204.6875" xlink:href="#BitstreamVeraSans-Roman-31"/>
       <use x="268.310546875" xlink:href="#BitstreamVeraSans-Roman-39"/>
       <use x="331.93359375" xlink:href="#BitstreamVeraSans-Roman-20"/>
       <use x="363.720703125" xlink:href="#BitstreamVeraSans-Roman-32"/>
       <use x="427.34375" xlink:href="#BitstreamVeraSans-Roman-30"/>
       <use x="490.966796875" xlink:href="#BitstreamVeraSans-Roman-31"/>
       <use x="554.58984375" xlink:href="#BitstreamVeraSans-Roman-35"/>
      </g>
     </g>
    </g>
    <g id="xtick_4">
     <g id="line2d_9">
      <g>
       <use style="stroke:#000000;stroke-width:0.5;" x="283.331519725" xlink:href="#m93b0483c22" y="345.6"/>
      </g>
     </g>
     <g id="line2d_10">
      <g>
       <use style="stroke:#000000;stroke-width:0.5;" x="283.331519725" xlink:href="#m741efc42ff" y="43.2"/>
      </g>
     </g>
     <g id="text_4">
      <!-- Oct 22 2015 -->
      <g transform="translate(218.74423299 394.065590385)rotate(-30.0)scale(0.12 -0.12)">
       <use xlink:href="#BitstreamVeraSans-Roman-4f"/>
       <use x="78.7109375" xlink:href="#BitstreamVeraSans-Roman-63"/>
       <use x="133.69140625" xlink:href="#BitstreamVeraSans-Roman-74"/>
       <use x="172.900390625" xlink:href="#BitstreamVeraSans-Roman-20"/>
       <use x="204.6875" xlink:href="#BitstreamVeraSans-Roman-32"/>
       <use x="268.310546875" xlink:href="#BitstreamVeraSans-Roman-32"/>
       <use x="331.93359375" xlink:href="#BitstreamVeraSans-Roman-20"/>
       <use x="363.720703125" xlink:href="#BitstreamVeraSans-Roman-32"/>
       <use x="427.34375" xlink:href="#BitstreamVeraSans-Roman-30"/>
       <use x="490.966796875" xlink:href="#BitstreamVeraSans-Roman-31"/>
       <use x="554.58984375" xlink:href="#BitstreamVeraSans-Roman-35"/>
      </g>
     </g>
    </g>
    <g id="xtick_5">
     <g id="line2d_11">
      <g>
       <use style="stroke:#000000;stroke-width:0.5;" x="338.461536877" xlink:href="#m93b0483c22" y="345.6"/>
      </g>
     </g>
     <g id="line2d_12">
      <g>
       <use style="stroke:#000000;stroke-width:0.5;" x="338.461536877" xlink:href="#m741efc42ff" y="43.2"/>
      </g>
     </g>
     <g id="text_5">
      <!-- Oct 25 2015 -->
      <g transform="translate(273.874250142 394.065590385)rotate(-30.0)scale(0.12 -0.12)">
       <use xlink:href="#BitstreamVeraSans-Roman-4f"/>
       <use x="78.7109375" xlink:href="#BitstreamVeraSans-Roman-63"/>
       <use x="133.69140625" xlink:href="#BitstreamVeraSans-Roman-74"/>
       <use x="172.900390625" xlink:href="#BitstreamVeraSans-Roman-20"/>
       <use x="204.6875" xlink:href="#BitstreamVeraSans-Roman-32"/>
       <use x="268.310546875" xlink:href="#BitstreamVeraSans-Roman-35"/>
       <use x="331.93359375" xlink:href="#BitstreamVeraSans-Roman-20"/>
       <use x="363.720703125" xlink:href="#BitstreamVeraSans-Roman-32"/>
       <use x="427.34375" xlink:href="#BitstreamVeraSans-Roman-30"/>
       <use x="490.966796875" xlink:href="#BitstreamVeraSans-Roman-31"/>
       <use x="554.58984375" xlink:href="#BitstreamVeraSans-Roman-35"/>
      </g>
     </g>
    </g>
    <g id="xtick_6">
     <g id="line2d_13">
      <g>
       <use style="stroke:#000000;stroke-width:0.5;" x="393.591554031" xlink:href="#m93b0483c22" y="345.6"/>
      </g>
     </g>
     <g id="line2d_14">
      <g>
       <use style="stroke:#000000;stroke-width:0.5;" x="393.591554031" xlink:href="#m741efc42ff" y="43.2"/>
      </g>
     </g>
     <g id="text_6">
      <!-- Oct 28 2015 -->
      <defs>
       <path d="
M31.7812 34.625
Q24.75 34.625 20.7188 30.8594
Q16.7031 27.0938 16.7031 20.5156
Q16.7031 13.9219 20.7188 10.1562
Q24.75 6.39062 31.7812 6.39062
Q38.8125 6.39062 42.8594 10.1719
Q46.9219 13.9688 46.9219 20.5156
Q46.9219 27.0938 42.8906 30.8594
Q38.875 34.625 31.7812 34.625
M21.9219 38.8125
Q15.5781 40.375 12.0312 44.7188
Q8.5 49.0781 8.5 55.3281
Q8.5 64.0625 14.7188 69.1406
Q20.9531 74.2188 31.7812 74.2188
Q42.6719 74.2188 48.875 69.1406
Q55.0781 64.0625 55.0781 55.3281
Q55.0781 49.0781 51.5312 44.7188
Q48 40.375 41.7031 38.8125
Q48.8281 37.1562 52.7969 32.3125
Q56.7812 27.4844 56.7812 20.5156
Q56.7812 9.90625 50.3125 4.23438
Q43.8438 -1.42188 31.7812 -1.42188
Q19.7344 -1.42188 13.25 4.23438
Q6.78125 9.90625 6.78125 20.5156
Q6.78125 27.4844 10.7812 32.3125
Q14.7969 37.1562 21.9219 38.8125
M18.3125 54.3906
Q18.3125 48.7344 21.8438 45.5625
Q25.3906 42.3906 31.7812 42.3906
Q38.1406 42.3906 41.7188 45.5625
Q45.3125 48.7344 45.3125 54.3906
Q45.3125 60.0625 41.7188 63.2344
Q38.1406 66.4062 31.7812 66.4062
Q25.3906 66.4062 21.8438 63.2344
Q18.3125 60.0625 18.3125 54.3906" id="BitstreamVeraSans-Roman-38"/>
      </defs>
      <g transform="translate(329.004267296 394.065590385)rotate(-30.0)scale(0.12 -0.12)">
       <use xlink:href="#BitstreamVeraSans-Roman-4f"/>
       <use x="78.7109375" xlink:href="#BitstreamVeraSans-Roman-63"/>
       <use x="133.69140625" xlink:href="#BitstreamVeraSans-Roman-74"/>
       <use x="172.900390625" xlink:href="#BitstreamVeraSans-Roman-20"/>
       <use x="204.6875" xlink:href="#BitstreamVeraSans-Roman-32"/>
       <use x="268.310546875" xlink:href="#BitstreamVeraSans-Roman-38"/>
       <use x="331.93359375" xlink:href="#BitstreamVeraSans-Roman-20"/>
       <use x="363.720703125" xlink:href="#BitstreamVeraSans-Roman-32"/>
       <use x="427.34375" xlink:href="#BitstreamVeraSans-Roman-30"/>
       <use x="490.966796875" xlink:href="#BitstreamVeraSans-Roman-31"/>
       <use x="554.58984375" xlink:href="#BitstreamVeraSans-Roman-35"/>
      </g>
     </g>
    </g>
    <g id="xtick_7">
     <g id="line2d_15">
      <g>
       <use style="stroke:#000000;stroke-width:0.5;" x="448.721571183" xlink:href="#m93b0483c22" y="345.6"/>
      </g>
     </g>
     <g id="line2d_16">
      <g>
       <use style="stroke:#000000;stroke-width:0.5;" x="448.721571183" xlink:href="#m741efc42ff" y="43.2"/>
      </g>
     </g>
     <g id="text_7">
      <!-- Oct 31 2015 -->
      <g transform="translate(384.134284448 394.065590385)rotate(-30.0)scale(0.12 -0.12)">
       <use xlink:href="#BitstreamVeraSans-Roman-4f"/>
       <use x="78.7109375" xlink:href="#BitstreamVeraSans-Roman-63"/>
       <use x="133.69140625" xlink:href="#BitstreamVeraSans-Roman-74"/>
       <use x="172.900390625" xlink:href="#BitstreamVeraSans-Roman-20"/>
       <use x="204.6875" xlink:href="#BitstreamVeraSans-Roman-33"/>
       <use x="268.310546875" xlink:href="#BitstreamVeraSans-Roman-31"/>
       <use x="331.93359375" xlink:href="#BitstreamVeraSans-Roman-20"/>
       <use x="363.720703125" xlink:href="#BitstreamVeraSans-Roman-32"/>
       <use x="427.34375" xlink:href="#BitstreamVeraSans-Roman-30"/>
       <use x="490.966796875" xlink:href="#BitstreamVeraSans-Roman-31"/>
       <use x="554.58984375" xlink:href="#BitstreamVeraSans-Roman-35"/>
      </g>
     </g>
    </g>
    <g id="xtick_8">
     <g id="line2d_17">
      <g>
       <use style="stroke:#000000;stroke-width:0.5;" x="503.851588335" xlink:href="#m93b0483c22" y="345.6"/>
      </g>
     </g>
     <g id="line2d_18">
      <g>
       <use style="stroke:#000000;stroke-width:0.5;" x="503.851588335" xlink:href="#m741efc42ff" y="43.2"/>
      </g>
     </g>
     <g id="text_8">
      <!-- Nov 03 2015 -->
      <defs>
       <path d="
M2.98438 54.6875
L12.5 54.6875
L29.5938 8.79688
L46.6875 54.6875
L56.2031 54.6875
L35.6875 0
L23.4844 0
z
" id="BitstreamVeraSans-Roman-76"/>
       <path d="
M9.8125 72.9062
L23.0938 72.9062
L55.4219 11.9219
L55.4219 72.9062
L64.9844 72.9062
L64.9844 0
L51.7031 0
L19.3906 60.9844
L19.3906 0
L9.8125 0
z
" id="BitstreamVeraSans-Roman-4e"/>
       <path d="
M30.6094 48.3906
Q23.3906 48.3906 19.1875 42.75
Q14.9844 37.1094 14.9844 27.2969
Q14.9844 17.4844 19.1562 11.8438
Q23.3438 6.20312 30.6094 6.20312
Q37.7969 6.20312 41.9844 11.8594
Q46.1875 17.5312 46.1875 27.2969
Q46.1875 37.0156 41.9844 42.7031
Q37.7969 48.3906 30.6094 48.3906
M30.6094 56
Q42.3281 56 49.0156 48.375
Q55.7188 40.7656 55.7188 27.2969
Q55.7188 13.875 49.0156 6.21875
Q42.3281 -1.42188 30.6094 -1.42188
Q18.8438 -1.42188 12.1719 6.21875
Q5.51562 13.875 5.51562 27.2969
Q5.51562 40.7656 12.1719 48.375
Q18.8438 56 30.6094 56" id="BitstreamVeraSans-Roman-6f"/>
      </defs>
      <g transform="translate(436.948766176 395.402465385)rotate(-30.0)scale(0.12 -0.12)">
       <use xlink:href="#BitstreamVeraSans-Roman-4e"/>
       <use x="74.8046875" xlink:href="#BitstreamVeraSans-Roman-6f"/>
       <use x="135.986328125" xlink:href="#BitstreamVeraSans-Roman-76"/>
       <use x="195.166015625" xlink:href="#BitstreamVeraSans-Roman-20"/>
       <use x="226.953125" xlink:href="#BitstreamVeraSans-Roman-30"/>
       <use x="290.576171875" xlink:href="#BitstreamVeraSans-Roman-33"/>
       <use x="354.19921875" xlink:href="#BitstreamVeraSans-Roman-20"/>
       <use x="385.986328125" xlink:href="#BitstreamVeraSans-Roman-32"/>
       <use x="449.609375" xlink:href="#BitstreamVeraSans-Roman-30"/>
       <use x="513.232421875" xlink:href="#BitstreamVeraSans-Roman-31"/>
       <use x="576.85546875" xlink:href="#BitstreamVeraSans-Roman-35"/>
      </g>
     </g>
    </g>
   </g>
   <g id="matplotlib.axis_2">
    <g id="ytick_1">
     <g id="line2d_19">
      <defs>
       <path d="
M0 0
L4 0" id="m728421d6d4" style="stroke:#000000;stroke-width:0.5;"/>
      </defs>
      <g>
       <use style="stroke:#000000;stroke-width:0.5;" x="72.0" xlink:href="#m728421d6d4" y="291.004332527"/>
      </g>
     </g>
     <g id="line2d_20">
      <defs>
       <path d="
M0 0
L-4 0" id="mcb0005524f" style="stroke:#000000;stroke-width:0.5;"/>
      </defs>
      <g>
       <use style="stroke:#000000;stroke-width:0.5;" x="518.4" xlink:href="#mcb0005524f" y="291.004332527"/>
      </g>
     </g>
     <g id="text_9">
      <!-- 2000 -->
      <g transform="translate(39.13625 294.315582527)scale(0.12 -0.12)">
       <use xlink:href="#BitstreamVeraSans-Roman-32"/>
       <use x="63.623046875" xlink:href="#BitstreamVeraSans-Roman-30"/>
       <use x="127.24609375" xlink:href="#BitstreamVeraSans-Roman-30"/>
       <use x="190.869140625" xlink:href="#BitstreamVeraSans-Roman-30"/>
      </g>
     </g>
    </g>
    <g id="ytick_2">
     <g id="line2d_21">
      <g>
       <use style="stroke:#000000;stroke-width:0.5;" x="72.0" xlink:href="#m728421d6d4" y="232.697430756"/>
      </g>
     </g>
     <g id="line2d_22">
      <g>
       <use style="stroke:#000000;stroke-width:0.5;" x="518.4" xlink:href="#mcb0005524f" y="232.697430756"/>
      </g>
     </g>
     <g id="text_10">
      <!-- 4000 -->
      <defs>
       <path d="
M37.7969 64.3125
L12.8906 25.3906
L37.7969 25.3906
z

M35.2031 72.9062
L47.6094 72.9062
L47.6094 25.3906
L58.0156 25.3906
L58.0156 17.1875
L47.6094 17.1875
L47.6094 0
L37.7969 0
L37.7969 17.1875
L4.89062 17.1875
L4.89062 26.7031
z
" id="BitstreamVeraSans-Roman-34"/>
      </defs>
      <g transform="translate(38.84375 236.008680756)scale(0.12 -0.12)">
       <use xlink:href="#BitstreamVeraSans-Roman-34"/>
       <use x="63.623046875" xlink:href="#BitstreamVeraSans-Roman-30"/>
       <use x="127.24609375" xlink:href="#BitstreamVeraSans-Roman-30"/>
       <use x="190.869140625" xlink:href="#BitstreamVeraSans-Roman-30"/>
      </g>
     </g>
    </g>
    <g id="ytick_3">
     <g id="line2d_23">
      <g>
       <use style="stroke:#000000;stroke-width:0.5;" x="72.0" xlink:href="#m728421d6d4" y="174.390528985"/>
      </g>
     </g>
     <g id="line2d_24">
      <g>
       <use style="stroke:#000000;stroke-width:0.5;" x="518.4" xlink:href="#mcb0005524f" y="174.390528985"/>
      </g>
     </g>
     <g id="text_11">
      <!-- 6000 -->
      <g transform="translate(39.095 177.701778985)scale(0.12 -0.12)">
       <use xlink:href="#BitstreamVeraSans-Roman-36"/>
       <use x="63.623046875" xlink:href="#BitstreamVeraSans-Roman-30"/>
       <use x="127.24609375" xlink:href="#BitstreamVeraSans-Roman-30"/>
       <use x="190.869140625" xlink:href="#BitstreamVeraSans-Roman-30"/>
      </g>
     </g>
    </g>
    <g id="ytick_4">
     <g id="line2d_25">
      <g>
       <use style="stroke:#000000;stroke-width:0.5;" x="72.0" xlink:href="#m728421d6d4" y="116.083627214"/>
      </g>
     </g>
     <g id="line2d_26">
      <g>
       <use style="stroke:#000000;stroke-width:0.5;" x="518.4" xlink:href="#mcb0005524f" y="116.083627214"/>
      </g>
     </g>
     <g id="text_12">
      <!-- 8000 -->
      <g transform="translate(39.070625 119.394877214)scale(0.12 -0.12)">
       <use xlink:href="#BitstreamVeraSans-Roman-38"/>
       <use x="63.623046875" xlink:href="#BitstreamVeraSans-Roman-30"/>
       <use x="127.24609375" xlink:href="#BitstreamVeraSans-Roman-30"/>
       <use x="190.869140625" xlink:href="#BitstreamVeraSans-Roman-30"/>
      </g>
     </g>
    </g>
    <g id="ytick_5">
     <g id="line2d_27">
      <g>
       <use style="stroke:#000000;stroke-width:0.5;" x="72.0" xlink:href="#m728421d6d4" y="57.7767254427"/>
      </g>
     </g>
     <g id="line2d_28">
      <g>
       <use style="stroke:#000000;stroke-width:0.5;" x="518.4" xlink:href="#mcb0005524f" y="57.7767254427"/>
      </g>
     </g>
     <g id="text_13">
      <!-- 10000 -->
      <g transform="translate(31.94 61.0879754427)scale(0.12 -0.12)">
       <use xlink:href="#BitstreamVeraSans-Roman-31"/>
       <use x="63.623046875" xlink:href="#BitstreamVeraSans-Roman-30"/>
       <use x="127.24609375" xlink:href="#BitstreamVeraSans-Roman-30"/>
       <use x="190.869140625" xlink:href="#BitstreamVeraSans-Roman-30"/>
       <use x="254.4921875" xlink:href="#BitstreamVeraSans-Roman-30"/>
      </g>
     </g>
    </g>
   </g>
   <g id="text_14">
    <!-- Kohle -->
    <defs>
     <path d="
M56.2031 29.5938
L56.2031 25.2031
L14.8906 25.2031
Q15.4844 15.9219 20.4844 11.0625
Q25.4844 6.20312 34.4219 6.20312
Q39.5938 6.20312 44.4531 7.46875
Q49.3125 8.73438 54.1094 11.2812
L54.1094 2.78125
Q49.2656 0.734375 44.1875 -0.34375
Q39.1094 -1.42188 33.8906 -1.42188
Q20.7969 -1.42188 13.1562 6.1875
Q5.51562 13.8125 5.51562 26.8125
Q5.51562 40.2344 12.7656 48.1094
Q20.0156 56 32.3281 56
Q43.3594 56 49.7812 48.8906
Q56.2031 41.7969 56.2031 29.5938
M47.2188 32.2344
Q47.125 39.5938 43.0938 43.9844
Q39.0625 48.3906 32.4219 48.3906
Q24.9062 48.3906 20.3906 44.1406
Q15.875 39.8906 15.1875 32.1719
z
" id="BitstreamVeraSans-Roman-65"/>
     <path d="
M9.8125 72.9062
L19.6719 72.9062
L19.6719 42.0938
L52.3906 72.9062
L65.0938 72.9062
L28.9062 38.9219
L67.6719 0
L54.6875 0
L19.6719 35.1094
L19.6719 0
L9.8125 0
z
" id="BitstreamVeraSans-Roman-4b"/>
     <path d="
M9.42188 75.9844
L18.4062 75.9844
L18.4062 0
L9.42188 0
z
" id="BitstreamVeraSans-Roman-6c"/>
     <path d="
M54.8906 33.0156
L54.8906 0
L45.9062 0
L45.9062 32.7188
Q45.9062 40.4844 42.875 44.3281
Q39.8438 48.1875 33.7969 48.1875
Q26.5156 48.1875 22.3125 43.5469
Q18.1094 38.9219 18.1094 30.9062
L18.1094 0
L9.07812 0
L9.07812 75.9844
L18.1094 75.9844
L18.1094 46.1875
Q21.3438 51.125 25.7031 53.5625
Q30.0781 56 35.7969 56
Q45.2188 56 50.0469 50.1719
Q54.8906 44.3438 54.8906 33.0156" id="BitstreamVeraSans-Roman-68"/>
    </defs>
    <g transform="translate(481.059 38.2)scale(0.144 -0.144)">
     <use xlink:href="#BitstreamVeraSans-Roman-4b"/>
     <use x="60.576171875" xlink:href="#BitstreamVeraSans-Roman-6f"/>
     <use x="121.7578125" xlink:href="#BitstreamVeraSans-Roman-68"/>
     <use x="185.13671875" xlink:href="#BitstreamVeraSans-Roman-6c"/>
     <use x="212.919921875" xlink:href="#BitstreamVeraSans-Roman-65"/>
    </g>
   </g>
   <g id="legend_1">
    <g id="patch_7">
     <path d="
M123.942 423.616
L466.458 423.616
L466.458 398.16
L123.942 398.16
z
" style="fill:#ffffff;stroke:#000000;stroke-linejoin:miter;"/>
    </g>
    <g id="line2d_29">
     <path d="
M134.022 409.822
L154.182 409.822" style="fill:none;stroke:#ff0000;stroke-linecap:square;"/>
    </g>
    <g id="line2d_30"/>
    <g id="text_15">
     <!-- Schwarzmarktpreis -->
     <defs>
      <path d="
M52 44.1875
Q55.375 50.25 60.0625 53.125
Q64.75 56 71.0938 56
Q79.6406 56 84.2812 50.0156
Q88.9219 44.0469 88.9219 33.0156
L88.9219 0
L79.8906 0
L79.8906 32.7188
Q79.8906 40.5781 77.0938 44.375
Q74.3125 48.1875 68.6094 48.1875
Q61.625 48.1875 57.5625 43.5469
Q53.5156 38.9219 53.5156 30.9062
L53.5156 0
L44.4844 0
L44.4844 32.7188
Q44.4844 40.625 41.7031 44.4062
Q38.9219 48.1875 33.1094 48.1875
Q26.2188 48.1875 22.1562 43.5312
Q18.1094 38.875 18.1094 30.9062
L18.1094 0
L9.07812 0
L9.07812 54.6875
L18.1094 54.6875
L18.1094 46.1875
Q21.1875 51.2188 25.4844 53.6094
Q29.7812 56 35.6875 56
Q41.6562 56 45.8281 52.9688
Q50 49.9531 52 44.1875" id="BitstreamVeraSans-Roman-6d"/>
      <path d="
M5.51562 54.6875
L48.1875 54.6875
L48.1875 46.4844
L14.4062 7.17188
L48.1875 7.17188
L48.1875 0
L4.29688 0
L4.29688 8.20312
L38.0938 47.5156
L5.51562 47.5156
z
" id="BitstreamVeraSans-Roman-7a"/>
      <path d="
M53.5156 70.5156
L53.5156 60.8906
Q47.9062 63.5781 42.9219 64.8906
Q37.9375 66.2188 33.2969 66.2188
Q25.25 66.2188 20.875 63.0938
Q16.5 59.9688 16.5 54.2031
Q16.5 49.3594 19.4062 46.8906
Q22.3125 44.4375 30.4219 42.9219
L36.375 41.7031
Q47.4062 39.5938 52.6562 34.2969
Q57.9062 29 57.9062 20.125
Q57.9062 9.51562 50.7969 4.04688
Q43.7031 -1.42188 29.9844 -1.42188
Q24.8125 -1.42188 18.9688 -0.25
Q13.1406 0.921875 6.89062 3.21875
L6.89062 13.375
Q12.8906 10.0156 18.6562 8.29688
Q24.4219 6.59375 29.9844 6.59375
Q38.4219 6.59375 43.0156 9.90625
Q47.6094 13.2344 47.6094 19.3906
Q47.6094 24.75 44.3125 27.7812
Q41.0156 30.8125 33.5 32.3281
L27.4844 33.5
Q16.4531 35.6875 11.5156 40.375
Q6.59375 45.0625 6.59375 53.4219
Q6.59375 63.0938 13.4062 68.6562
Q20.2188 74.2188 32.1719 74.2188
Q37.3125 74.2188 42.625 73.2812
Q47.9531 72.3594 53.5156 70.5156" id="BitstreamVeraSans-Roman-53"/>
      <path d="
M9.42188 54.6875
L18.4062 54.6875
L18.4062 0
L9.42188 0
z

M9.42188 75.9844
L18.4062 75.9844
L18.4062 64.5938
L9.42188 64.5938
z
" id="BitstreamVeraSans-Roman-69"/>
      <path d="
M4.20312 54.6875
L13.1875 54.6875
L24.4219 12.0156
L35.5938 54.6875
L46.1875 54.6875
L57.4219 12.0156
L68.6094 54.6875
L77.5938 54.6875
L63.2812 0
L52.6875 0
L40.9219 44.8281
L29.1094 0
L18.5 0
z
" id="BitstreamVeraSans-Roman-77"/>
      <path d="
M34.2812 27.4844
Q23.3906 27.4844 19.1875 25
Q14.9844 22.5156 14.9844 16.5
Q14.9844 11.7188 18.1406 8.90625
Q21.2969 6.10938 26.7031 6.10938
Q34.1875 6.10938 38.7031 11.4062
Q43.2188 16.7031 43.2188 25.4844
L43.2188 27.4844
z

M52.2031 31.2031
L52.2031 0
L43.2188 0
L43.2188 8.29688
Q40.1406 3.32812 35.5469 0.953125
Q30.9531 -1.42188 24.3125 -1.42188
Q15.9219 -1.42188 10.9531 3.29688
Q6 8.01562 6 15.9219
Q6 25.1406 12.1719 29.8281
Q18.3594 34.5156 30.6094 34.5156
L43.2188 34.5156
L43.2188 35.4062
Q43.2188 41.6094 39.1406 45
Q35.0625 48.3906 27.6875 48.3906
Q23 48.3906 18.5469 47.2656
Q14.1094 46.1406 10.0156 43.8906
L10.0156 52.2031
Q14.9375 54.1094 19.5781 55.0469
Q24.2188 56 28.6094 56
Q40.4844 56 46.3438 49.8438
Q52.2031 43.7031 52.2031 31.2031" id="BitstreamVeraSans-Roman-61"/>
      <path d="
M9.07812 75.9844
L18.1094 75.9844
L18.1094 31.1094
L44.9219 54.6875
L56.3906 54.6875
L27.3906 29.1094
L57.625 0
L45.9062 0
L18.1094 26.7031
L18.1094 0
L9.07812 0
z
" id="BitstreamVeraSans-Roman-6b"/>
      <path d="
M41.1094 46.2969
Q39.5938 47.1719 37.8125 47.5781
Q36.0312 48 33.8906 48
Q26.2656 48 22.1875 43.0469
Q18.1094 38.0938 18.1094 28.8125
L18.1094 0
L9.07812 0
L9.07812 54.6875
L18.1094 54.6875
L18.1094 46.1875
Q20.9531 51.1719 25.4844 53.5781
Q30.0312 56 36.5312 56
Q37.4531 56 38.5781 55.875
Q39.7031 55.7656 41.0625 55.5156
z
" id="BitstreamVeraSans-Roman-72"/>
      <path d="
M44.2812 53.0781
L44.2812 44.5781
Q40.4844 46.5312 36.375 47.5
Q32.2812 48.4844 27.875 48.4844
Q21.1875 48.4844 17.8438 46.4375
Q14.5 44.3906 14.5 40.2812
Q14.5 37.1562 16.8906 35.375
Q19.2812 33.5938 26.5156 31.9844
L29.5938 31.2969
Q39.1562 29.25 43.1875 25.5156
Q47.2188 21.7812 47.2188 15.0938
Q47.2188 7.46875 41.1875 3.01562
Q35.1562 -1.42188 24.6094 -1.42188
Q20.2188 -1.42188 15.4531 -0.5625
Q10.6875 0.296875 5.42188 2
L5.42188 11.2812
Q10.4062 8.6875 15.2344 7.39062
Q20.0625 6.10938 24.8125 6.10938
Q31.1562 6.10938 34.5625 8.28125
Q37.9844 10.4531 37.9844 14.4062
Q37.9844 18.0625 35.5156 20.0156
Q33.0625 21.9688 24.7031 23.7812
L21.5781 24.5156
Q13.2344 26.2656 9.51562 29.9062
Q5.8125 33.5469 5.8125 39.8906
Q5.8125 47.6094 11.2812 51.7969
Q16.75 56 26.8125 56
Q31.7812 56 36.1719 55.2656
Q40.5781 54.5469 44.2812 53.0781" id="BitstreamVeraSans-Roman-73"/>
      <path d="
M18.1094 8.20312
L18.1094 -20.7969
L9.07812 -20.7969
L9.07812 54.6875
L18.1094 54.6875
L18.1094 46.3906
Q20.9531 51.2656 25.2656 53.625
Q29.5938 56 35.5938 56
Q45.5625 56 51.7812 48.0938
Q58.0156 40.1875 58.0156 27.2969
Q58.0156 14.4062 51.7812 6.48438
Q45.5625 -1.42188 35.5938 -1.42188
Q29.5938 -1.42188 25.2656 0.953125
Q20.9531 3.32812 18.1094 8.20312
M48.6875 27.2969
Q48.6875 37.2031 44.6094 42.8438
Q40.5312 48.4844 33.4062 48.4844
Q26.2656 48.4844 22.1875 42.8438
Q18.1094 37.2031 18.1094 27.2969
Q18.1094 17.3906 22.1875 11.75
Q26.2656 6.10938 33.4062 6.10938
Q40.5312 6.10938 44.6094 11.75
Q48.6875 17.3906 48.6875 27.2969" id="BitstreamVeraSans-Roman-70"/>
     </defs>
     <g transform="translate(170.022375 414.86175)scale(0.144 -0.144)">
      <use xlink:href="#BitstreamVeraSans-Roman-53"/>
      <use x="63.4765625" xlink:href="#BitstreamVeraSans-Roman-63"/>
      <use x="118.45703125" xlink:href="#BitstreamVeraSans-Roman-68"/>
      <use x="181.8359375" xlink:href="#BitstreamVeraSans-Roman-77"/>
      <use x="263.623046875" xlink:href="#BitstreamVeraSans-Roman-61"/>
      <use x="324.90234375" xlink:href="#BitstreamVeraSans-Roman-72"/>
      <use x="366.015625" xlink:href="#BitstreamVeraSans-Roman-7a"/>
      <use x="418.505859375" xlink:href="#BitstreamVeraSans-Roman-6d"/>
      <use x="515.91796875" xlink:href="#BitstreamVeraSans-Roman-61"/>
      <use x="577.197265625" xlink:href="#BitstreamVeraSans-Roman-72"/>
      <use x="618.310546875" xlink:href="#BitstreamVeraSans-Roman-6b"/>
      <use x="676.220703125" xlink:href="#BitstreamVeraSans-Roman-74"/>
      <use x="715.4296875" xlink:href="#BitstreamVeraSans-Roman-70"/>
      <use x="778.90625" xlink:href="#BitstreamVeraSans-Roman-72"/>
      <use x="817.76953125" xlink:href="#BitstreamVeraSans-Roman-65"/>
      <use x="879.29296875" xlink:href="#BitstreamVeraSans-Roman-69"/>
      <use x="907.076171875" xlink:href="#BitstreamVeraSans-Roman-73"/>
     </g>
    </g>
    <g id="line2d_31">
     <path d="
M339.609 409.822
L359.769 409.822" style="fill:none;stroke:#008000;stroke-linecap:square;"/>
    </g>
    <g id="line2d_32"/>
    <g id="text_16">
     <!-- Normalpreis -->
     <g transform="translate(375.609375 414.86175)scale(0.144 -0.144)">
      <use xlink:href="#BitstreamVeraSans-Roman-4e"/>
      <use x="74.8046875" xlink:href="#BitstreamVeraSans-Roman-6f"/>
      <use x="135.986328125" xlink:href="#BitstreamVeraSans-Roman-72"/>
      <use x="175.349609375" xlink:href="#BitstreamVeraSans-Roman-6d"/>
      <use x="272.76171875" xlink:href="#BitstreamVeraSans-Roman-61"/>
      <use x="334.041015625" xlink:href="#BitstreamVeraSans-Roman-6c"/>
      <use x="361.82421875" xlink:href="#BitstreamVeraSans-Roman-70"/>
      <use x="425.30078125" xlink:href="#BitstreamVeraSans-Roman-72"/>
      <use x="464.1640625" xlink:href="#BitstreamVeraSans-Roman-65"/>
      <use x="525.6875" xlink:href="#BitstreamVeraSans-Roman-69"/>
      <use x="553.470703125" xlink:href="#BitstreamVeraSans-Roman-73"/>
     </g>
    </g>
   </g>
  </g>
 </g>
 <defs>
  <clipPath id="pcb2bf987bf">
   <rect height="302.4" width="446.4" x="72.0" y="43.2"/>
  </clipPath>
 </defs>
</svg>
