<?xml version="1.0" encoding="utf-8" standalone="no"?>
<!DOCTYPE svg PUBLIC "-//W3C//DTD SVG 1.1//EN"
  "http://www.w3.org/Graphics/SVG/1.1/DTD/svg11.dtd">
<!-- Created with matplotlib (http://matplotlib.org/) -->
<svg height="432pt" version="1.1" viewBox="0 0 576 432" width="576pt" xmlns="http://www.w3.org/2000/svg" xmlns:xlink="http://www.w3.org/1999/xlink">
 <defs>
  <style type="text/css">
*{stroke-linecap:butt;stroke-linejoin:round;}
  </style>
 </defs>
 <g id="figure_1">
  <g id="patch_1">
   <path d="
M0 432
L576 432
L576 0
L0 0
z
" style="fill:#ffffff;"/>
  </g>
  <g id="axes_1">
   <g id="patch_2">
    <path d="
M72 345.6
L518.4 345.6
L518.4 43.2
L72 43.2
z
" style="fill:#ffffff;"/>
   </g>
   <g id="line2d_1">
    <path clip-path="url(#pcb2bf987bf)" d="
M72 191.7
L72.3828 142.364
L72.5105 249.953
L72.8933 242.454
L73.1485 246.508
L73.2762 246.508
L73.5314 245.523
L73.659 247.979
L73.9142 248.274
L74.0419 246.797
L74.2971 245.871
L74.4247 245.871
L74.6799 245.292
L74.8075 239.553
L75.0628 239.553
L75.1904 239.009
L75.4456 244.25
L75.5732 237.677
L75.8285 237.648
L75.9561 237.098
L76.2113 237.098
L76.3389 237.671
L76.5942 237.671
L76.7218 238.227
L76.9772 237.677
L77.3599 244.25
L77.7429 244.771
L77.8703 244.713
L78.1256 243.149
L78.1256 243.149
L78.2532 243.144
L78.5084 249.548
L78.636 249.056
L78.8915 252.762
L79.0189 246.016
L79.2741 252.298
L79.4017 251.835
L79.6569 251.372
L79.7846 250.88
L80.0398 251.835
L80.4226 248.911
L80.5503 251.169
L80.8055 231.394
L80.9331 248.216
L81.1885 253.225
L81.5712 250.822
L81.6988 250.33
L81.9542 250.764
L82.0816 249.287
L82.3371 248.795
L82.4645 248.303
L82.7197 246.821
L82.8473 246.821
L83.1026 246.305
L83.2302 246.334
L83.4854 244.278
L83.613 244.278
L83.8683 243.236
L83.9959 242.194
L84.2511 241.152
L84.3787 241.152
L84.6342 239.038
L85.1444 234.174
L85.3999 246.826
L85.5273 246.826
L85.7825 246.334
L85.9101 245.842
L86.1654 245.321
L86.293 244.278
L86.5482 244.278
L86.6758 254.545
L86.931 253.63
L87.0587 252.327
L87.3139 252.327
L87.4415 252.814
L87.6967 248.245
L87.8244 248.737
L88.0796 257.163
L88.2072 256.236
L88.4624 255.773
L88.5901 254.557
L88.8453 254.036
L88.8453 254.036
L88.9729 253.051
L89.611 253.051
L89.9938 248.94
L89.9938 248.94
L90.2491 248.39
L90.3767 248.39
L91.0148 248.882
L91.7804 234.608
L91.9081 246.682
L92.5461 255.773
L92.6738 254.209
L93.3118 257.452
L94.0775 255.165
L94.2051 254.238
L94.8432 250.474
L94.9708 250.474
L95.6089 246.508
L95.7365 245.002
L96.3746 261.216
L97.1403 256.815
L97.906 254.493
L98.0336 255.889
L98.6717 253.196
L98.7993 254.933
L99.4374 251.661
L100.331 228.499
L100.969 244.713
L101.734 254.499
L101.862 202.441
L102.5 201.718
L103.266 253.63
L103.393 253.63
L104.032 257.713
L104.797 256.526
L105.563 254.615
L106.329 250.214
L107.095 278.061
L107.988 271.176
L108.626 267.412
L109.519 264.951
L110.157 263.677
L110.285 258.465
L110.923 257.249
L111.05 257.684
L111.816 253.63
L113.986 242.454
L114.879 264.939
L116.283 257.278
L116.41 257.278
L117.048 262.027
L117.814 264.308
L117.942 263.474
L118.707 262.606
L119.345 262.171
L120.111 255.483
L121.004 254.557
L121.643 263.88
L122.536 262.606
L124.067 254.151
L124.705 252.762
L125.471 258.697
L126.109 255.078
L126.365 263.04
L127.002 266.954
L127.13 266.543
L127.768 266.543
L128.534 237.156
L128.661 248.274
L129.299 231.707
L130.065 225.604
L130.193 257.568
L130.831 265.704
L131.597 259.624
L132.362 257.134
L132.362 257.134
L134.149 247.666
L134.659 248.65
L135.425 247.174
L136.191 244.134
L136.318 242.049
L136.956 244.649
L137.722 242.397
L138.488 255.269
L139.381 254.094
L140.019 253.428
L140.785 253.428
L141.678 255.269
L142.316 253.428
L143.082 250.59
L143.848 259.913
L143.975 259.913
L144.613 256.699
L145.379 253.856
L145.507 255.252
L146.145 259.044
L146.91 259.044
L147.038 258.176
L148.442 253.711
L149.335 259.479
L149.973 256.786
L150.739 255.396
L150.867 254.673
L151.505 253.862
L152.27 255.425
L153.036 231.163
L153.164 254.036
L153.802 253.37
L154.567 248.071
L156.099 250.04
L156.865 246.994
L157.63 244.481
L157.758 243.439
L158.396 252.443
L159.162 259.479
L159.927 256.815
L160.821 256.844
L162.224 258.755
L163.118 258.147
L163.756 254.499
L163.883 258.575
L164.521 257.684
L164.649 258.118
L165.287 254.563
L166.053 253.63
L166.819 255.802
L167.712 202.441
L168.35 229.397
L169.116 253.949
L169.243 253.949
L169.881 258.176
L170.775 259.044
L171.413 258.61
L172.178 256.67
L172.944 257.134
L173.072 256.207
L173.71 256.67
L174.603 256.207
L176.007 256.207
L176.9 247.579
L177.538 256.207
L178.304 257.562
L179.07 258.436
L179.835 258.436
L179.963 258.002
L180.601 256.41
L180.729 256.41
L181.367 255.947
L182.132 258.002
L182.26 258.871
L182.898 258.871
L183.664 258.379
L183.791 257.944
L184.43 256.583
L185.195 255.425
L185.961 247.637
L186.727 256.555
L187.492 259.062
L188.258 252.849
L189.024 247.955
L189.151 245.466
L190.555 253.572
L191.321 277.864
L191.321 277.864
L192.852 266.63
L193.618 265.733
L194.384 265.819
L195.915 259.942
L196.681 258.639
L198.212 258.639
L198.212 258.639
L198.978 253.109
L200.509 228.875
L201.275 253.167
L202.04 257.771
L202.806 256.207
L203.572 253.891
L203.699 252.964
L204.338 253.428
L205.103 245.813
L205.231 243.207
L205.997 236.403
L206.124 246.305
L206.507 246.797
L206.762 240.891
L207.4 241.817
L208.166 238.575
L208.804 240.775
L209.059 245.813
L209.059 245.813
L209.442 271.552
L209.57 270.741
L209.825 270.365
L210.591 264.227
L210.846 260.347
L211.356 263.358
L212.122 260.724
L212.633 260.724
L212.888 257.394
L213.398 249.229
L213.781 239.704
L214.164 236.403
L214.419 237.503
L214.547 237.503
L214.93 235.274
L215.185 228.499
L215.185 228.499
L215.313 240.167
L215.568 247.029
L215.695 256.468
L215.951 256.004
L215.951 256.004
L216.078 256.925
L216.333 256.004
L216.589 253.63
L216.589 253.63
L216.844 253.167
L217.227 250.822
L217.61 261.158
L217.992 260.724
L218.375 260.724
L218.631 261.158
L218.758 259.392
L219.013 251.98
L219.141 251.98
L219.396 259.826
L219.779 258.958
L219.907 254.094
L220.162 258.523
L220.29 253.63
L220.29 253.63
L220.417 258.958
L220.928 257.22
L221.055 256.294
L221.31 255.831
L221.438 256.294
L221.693 256.757
L222.076 260.347
L222.204 258.61
L222.587 260.347
L222.842 259.044
L222.842 259.044
L223.225 262.085
L223.352 261.65
L223.608 261.65
L223.735 261.216
L223.99 265.269
L224.118 264.459
L224.373 270.365
L224.884 266.022
L225.139 266.022
L225.267 264.053
L225.522 266.41
L225.649 265.183
L225.649 265.183
L225.777 265.183
L225.777 265.183
L225.905 263.55
L225.905 263.55
L226.032 254.094
L226.032 254.094
L226.16 266.399
L226.16 266.399
L226.415 263.966
L226.415 263.966
L226.798 228.499
L227.053 259.913
L227.181 259.479
L227.436 264.777
L227.436 264.777
L227.946 258.639
L228.202 249.403
L228.329 253.804
L228.585 253.804
L228.712 253.341
L228.967 252.877
L229.095 253.341
L229.478 253.341
L229.733 262.982
L229.861 262.982
L230.116 261.795
L230.244 254.702
L230.499 264.777
L230.499 264.777
L230.882 265.993
L231.009 268.657
L231.392 268.228
L231.775 262.837
L232.413 261.534
L232.541 261.1
L232.796 260.66
L232.796 260.66
L232.924 260.666
L233.306 259.768
L233.562 259.768
L233.689 260.203
L234.072 258.61
L234.327 258.755
L234.327 258.755
L234.455 257.452
L234.71 259.624
L234.838 258.749
L235.221 250.33
L235.476 251.777
L235.603 251.777
L235.859 248.274
L235.859 248.274
L235.986 251.198
L236.369 252.241
L236.752 252.241
L237.007 253.167
L237.39 253.167
L237.518 260.492
L237.773 259.189
L237.901 260.347
L238.156 259.189
L238.666 259.189
L239.049 261.1
L239.304 259.044
L239.432 261.534
L239.687 260.232
L239.815 260.203
L240.07 258.929
L240.198 258.929
L240.453 261.534
L240.453 261.534
L240.58 261.1
L240.963 261.21
L241.219 261.245
L241.346 261.534
L241.601 260.232
L241.729 258.494
L241.984 258.494
L242.367 236.866
L242.495 254.094
L242.75 253.109
L242.878 248.766
L243.133 255.802
L243.26 254.412
L243.516 253.92
L243.643 252.53
L244.026 245.813
L244.281 245.292
L244.792 239.501
L245.175 244.244
L245.43 224.417
L245.557 223.201
L245.813 242.976
L245.94 244.244
L246.196 241.644
L246.706 251.082
L246.961 253.92
L247.089 253.457
L247.855 252.241
L248.237 251.777
L248.493 250.7
L248.62 251.575
L248.876 249.606
L248.876 249.606
L249.258 256.439
L249.641 257.713
L249.641 257.713
L249.769 257.278
L250.024 257.267
L250.152 254.557
L250.534 256.583
L250.917 254.615
L251.3 254.615
L251.555 252.298
L251.683 252.762
L251.938 250.88
L252.066 269.033
L252.832 269.033
L253.087 268.657
L253.214 268.252
L253.47 267.007
L253.852 267.036
L253.98 267.441
L254.235 260.318
L254.363 266.804
L254.618 258.929
L254.746 265.993
L254.746 265.993
L255.001 265.588
L255.129 264.777
L255.129 264.777
L255.384 264.777
L255.767 260.347
L255.767 260.347
L255.894 260.753
L256.277 254.094
L256.532 252.704
L256.66 252.704
L256.66 252.704
L256.915 261.621
L257.043 261.505
L257.426 259.131
L257.809 258.726
L258.064 257.857
L258.064 257.857
L258.574 255.657
L258.702 256.12
L258.83 235.361
L258.957 256.583
L259.212 253.341
L259.212 253.341
L259.34 253.804
L259.595 252.877
L259.595 252.877
L259.723 252.877
L259.978 252.241
L260.106 252.356
L260.361 251.43
L260.489 246.624
L260.744 252.414
L261.254 252.356
L261.509 229.078
L261.637 249.982
L261.892 243.207
L262.403 264.777
L262.658 266.399
L262.786 266.399
L263.041 267.84
L263.168 266.891
L263.551 259.971
L263.807 259.971
L264.189 233.421
L264.189 233.421
L264.317 197.143
L264.572 233.421
L264.7 232.031
L264.955 247.955
L264.955 247.955
L265.083 247.463
L265.338 253.167
L265.593 251.719
L265.848 251.835
L266.231 251.366
L266.486 249.229
L266.614 253.63
L266.869 254.094
L266.997 254.094
L267.252 254.545
L267.38 254.094
L267.635 253.63
L267.763 253.63
L268.018 253.167
L268.401 251.777
L268.528 249.837
L268.784 249.345
L268.911 249.345
L269.166 248.847
L269.549 254.545
L269.677 252.704
L269.932 253.167
L270.06 254.545
L270.443 248.853
L270.698 253.051
L270.825 266.126
L271.081 264.922
L271.463 263.677
L271.846 264.893
L271.974 263.677
L272.229 263.677
L272.357 261.905
L272.612 261.448
L272.74 259.71
L272.995 258.842
L273.122 257.539
L273.378 259.276
L273.378 259.276
L273.506 259.276
L273.761 259.71
L273.888 258.842
L274.271 259.71
L274.526 256.526
L274.654 252.588
L275.037 231.365
L275.292 260.347
L275.675 259.189
L275.802 261.87
L276.185 259.71
L276.441 259.276
L276.568 257.336
L276.823 258.205
L276.951 260.145
L277.206 258.408
L277.334 258.842
L277.589 256.526
L277.717 256.526
L277.972 257.423
L277.972 257.423
L278.099 256.96
L278.355 253.827
L278.482 255.136
L278.738 230.786
L278.865 246.479
L279.12 243.931
L279.248 244.452
L279.503 241.325
L279.886 246.479
L280.014 255.947
L280.269 259.913
L280.269 259.913
L280.397 257.684
L280.652 255.396
L280.779 251.459
L281.035 250.156
L281.035 250.156
L281.162 248.187
L281.417 247.203
L281.545 245.726
L281.801 252.588
L282.311 246.739
L282.949 241.817
L283.459 243.902
L283.715 246.247
L283.842 246.247
L284.097 247.232
L284.225 247.232
L284.48 246.739
L284.608 246.218
L284.736 239.936
L285.246 236.085
L285.374 227.92
L285.629 237.185
L285.756 230.815
L286.139 229.078
L286.395 229.657
L286.522 229.078
L286.777 237.185
L286.905 235.535
L287.16 229.02
L287.288 230.786
L287.543 230.207
L287.671 231.394
L287.926 260.579
L288.054 260.579
L288.437 258.408
L288.692 257.539
L289.074 254.296
L289.202 252.906
L289.457 251.98
L289.585 248.274
L289.84 247.782
L289.968 247.782
L290.223 248.766
L290.351 248.766
L291.116 244.742
L291.372 244.742
L291.499 259.763
L292.648 249.606
L293.031 240.37
L293.286 238.198
L293.286 238.198
L293.413 243.786
L293.669 247.145
L293.669 247.145
L293.796 231.394
L294.051 243.062
L294.051 243.062
L294.179 240.978
L294.562 199.546
L294.817 231.394
L294.817 231.394
L294.945 229.078
L295.2 250.677
L295.328 250.185
L295.71 246.739
L295.966 248.564
L296.349 245.552
L296.476 245.552
L296.731 244.51
L296.859 244.51
L297.114 245.031
L297.242 243.989
L297.497 245.552
L297.625 243.468
L297.88 212.285
L298.008 212.946
L298.263 250.677
L298.39 250.185
L298.646 257.018
L298.773 256.555
L299.028 256.549
L299.156 257.018
L299.411 256.555
L299.539 255.165
L299.794 254.238
L300.177 254.238
L300.177 254.238
L300.56 255.628
L300.687 257.134
L300.943 258.176
L301.07 258.176
L301.326 256.844
L301.453 256.838
L302.091 253.138
L302.474 246.276
L302.474 246.276
L302.857 253.63
L303.623 242.976
L303.75 245.9
L304.005 245.9
L304.005 245.9
L304.133 245.408
L304.388 244.886
L304.899 245.234
L305.154 244.829
L305.282 243.265
L305.537 242.744
L305.664 242.744
L305.92 243.265
L306.047 242.744
L306.303 242.744
L306.43 243.259
L306.685 241.18
L306.813 182.232
L307.068 240.659
L307.068 240.659
L307.196 240.659
L307.451 231.394
L307.579 254.094
L307.834 254.557
L308.344 250.185
L308.727 246.566
L309.11 253.167
L309.365 255.454
L309.493 254.991
L309.748 259.334
L309.876 257.452
L310.131 257.452
L310.131 257.452
L310.259 253.514
L310.514 250.185
L310.642 257.452
L310.897 256.091
L311.024 256.091
L311.28 255.628
L311.407 257.018
L311.662 256.555
L311.79 256.555
L312.045 257.018
L312.173 256.091
L312.428 255.252
L312.811 252.877
L312.939 252.935
L313.704 246.45
L313.96 244.858
L314.087 244.858
L314.47 251.025
L314.725 251.025
L314.853 250.04
L315.108 190.86
L315.236 256.091
L315.491 253.63
L315.874 256.091
L316.257 256.091
L316.384 255.628
L316.767 259.913
L317.022 259.479
L317.533 257.742
L317.788 259.392
L317.916 258.958
L318.171 257.22
L318.298 255.367
L318.554 255.367
L318.554 255.367
L318.681 254.904
L319.064 250.185
L319.319 260.255
L319.319 260.255
L319.447 258.958
L319.83 251.661
L320.213 251.661
L320.596 251.198
L320.851 251.198
L320.851 251.198
L321.234 257.22
L321.361 256.757
L321.616 256.294
L321.999 257.655
L322.127 256.757
L322.893 254.904
L323.275 252.588
L323.658 250.677
L324.041 260.261
L324.296 260.342
L324.424 259.913
L324.807 260.342
L325.062 260.342
L325.19 259.913
L325.573 260.347
L326.338 260.347
L326.721 248.679
L326.976 248.766
L327.104 255.599
L327.742 253.167
L327.87 254.094
L328.125 253.167
L328.252 253.167
L328.508 57.6765
L328.635 242.454
L328.891 241.933
L329.018 239.299
L329.401 236.635
L329.656 241.933
L329.784 239.849
L330.039 255.773
L330.167 255.767
L330.55 256.294
L330.805 256.294
L330.933 257.134
L331.188 256.67
L331.315 256.67
L331.57 231.394
L331.698 194.392
L331.953 251.053
L332.081 250.561
L332.336 250.069
L332.464 249.085
L332.719 245.379
L333.23 258.61
L333.485 257.307
L333.868 262.085
L333.995 262.056
L334.25 259.826
L334.761 259.797
L335.016 258.494
L335.144 259.363
L335.399 259.392
L335.527 261.158
L335.909 261.187
L336.165 260.695
L336.292 260.753
L336.548 261.621
L336.93 260.318
L337.058 261.187
L337.824 252.125
L338.079 261.505
L338.207 254.557
L338.462 258.46
L338.589 258.46
L338.845 260.637
L339.227 259.45
L339.355 257.655
L339.61 259.479
L339.738 200.27
L339.866 258.61
L340.121 258.176
L340.376 258.176
L340.504 258.61
L340.759 257.307
L340.886 257.307
L341.142 253.167
L341.269 248.766
L341.525 252.704
L341.652 250.735
L341.907 250.729
L342.035 250.243
L342.29 253.63
L342.418 253.167
L342.673 253.161
L342.801 252.704
L343.056 252.698
L343.184 251.748
L343.439 251.279
L343.566 251.279
L343.822 250.59
L343.822 250.59
L343.949 248.766
L344.204 247.782
L344.332 250.793
L344.588 248.245
L344.715 248.818
L344.97 248.332
L345.098 247.347
L345.353 242.976
L345.353 242.976
L345.481 244.336
L345.863 245.871
L346.119 242.976
L346.246 244.336
L346.629 241.731
L346.884 213.559
L346.884 213.559
L347.012 213.559
L347.267 242.976
L347.395 239.472
L347.65 235.622
L347.778 238.372
L348.033 251.082
L348.161 251.082
L348.543 241.933
L348.799 244.684
L348.926 250.59
L349.181 250.092
L349.309 248.621
L349.564 248.123
L349.692 249.606
L349.947 247.463
L350.075 250.793
L350.458 247.666
L350.713 246.682
L351.224 241.499
L351.861 236.809
L351.989 235.708
L352.244 234.602
L352.372 236.258
L352.627 234.058
L352.755 235.158
L353.01 246.328
L353.138 244.481
L353.393 231.394
L353.52 236.635
L353.776 236.056
L353.776 236.056
L354.158 236.635
L354.286 236.085
L354.541 225.893
L354.669 243.265
L354.924 245.292
L355.307 245.286
L355.307 245.286
L355.435 245.002
L355.69 245.002
L355.817 243.439
L356.073 241.875
L356.073 241.875
L356.2 245.002
L356.583 244.765
L356.838 244.25
L356.966 241.626
L357.477 245.286
L357.732 238.719
L358.115 234.55
L358.497 238.98
L358.753 237.88
L358.88 236.78
L359.136 236.78
L359.263 235.679
L359.646 238.43
L359.901 238.424
L360.284 236.78
L360.412 231.394
L360.667 234.579
L360.795 234.579
L361.05 251.071
L361.433 245.842
L361.56 245.321
L361.816 244.8
L361.943 245.379
L362.198 245.379
L362.326 244.858
L362.581 242.773
L362.709 242.773
L362.964 240.544
L363.092 240.538
L363.347 241.065
L363.73 241.065
L363.857 241.586
L364.113 249.808
L364.24 248.332
L364.495 248.274
L364.623 247.782
L364.878 250.214
L365.006 249.229
L365.261 249.229
L365.389 247.753
L365.644 247.261
L365.772 246.276
L366.027 247.753
L366.027 247.753
L366.155 247.261
L366.41 245.755
L366.537 246.247
L366.92 244.713
L367.175 244.51
L367.303 242.425
L367.558 242.947
L367.686 238.719
L367.941 239.27
L368.069 238.169
L368.324 240.341
L368.451 239.82
L368.707 239.82
L369.09 238.951
L369.472 245.031
L369.6 243.989
L369.855 244.713
L370.238 243.149
L370.749 237.822
L371.004 240.08
L371.131 240.08
L371.514 238.343
L371.769 239.125
L371.897 239.125
L372.152 237.417
L372.535 237.417
L372.663 238.401
L372.918 238.575
L373.046 238.025
L373.301 242.947
L373.428 177.252
L373.684 241.904
L373.684 241.904
L373.811 240.804
L374.194 228.875
L374.577 226.472
L374.832 228.499
L374.96 226.704
L375.215 225.488
L375.343 226.704
L375.598 226.096
L375.726 227.92
L375.981 227.92
L376.108 228.499
L376.364 227.92
L376.746 227.92
L376.874 227.312
L377.129 227.196
L377.257 226.588
L377.512 227.92
L377.512 227.92
L377.64 227.92
L378.023 230.005
L378.278 229.426
L378.405 230.613
L378.661 229.455
L378.788 229.449
L379.044 228.847
L379.171 228.847
L379.426 227.659
L379.554 228.847
L379.809 225.604
L379.937 228.267
L380.192 228.262
L380.703 222.182
L380.958 207.19
L381.086 187.965
L381.468 228.267
L381.723 232.35
L381.851 231.771
L382.107 244.51
L382.234 243.468
L382.489 244.51
L382.617 243.989
L382.872 245.031
L383 243.989
L383.255 244.51
L383.383 248.76
L383.638 253.399
L384.021 251.546
L384.148 255.599
L385.297 255.599
L385.552 242.976
L385.68 248.766
L385.935 249.49
L386.062 248.506
L386.445 233.884
L386.701 242.425
L386.828 231.684
L387.211 255.599
L387.977 255.599
L388.232 255.483
L388.232 255.483
L388.615 252.82
L388.742 253.109
L388.998 253.167
L389.125 252.646
L389.38 252.646
L389.508 255.599
L390.912 255.599
L391.039 239.849
L391.295 224.851
L391.422 231.394
L391.678 231.829
L391.805 229.657
L392.188 238.719
L392.443 230.815
L392.571 231.394
L392.826 258.06
L392.954 258.494
L393.337 255.483
L393.592 231.394
L393.719 254.545
L393.975 248.274
L394.102 241.702
L394.868 236.809
L395.251 240.08
L395.506 240.08
L395.634 238.633
L395.889 234.261
L396.272 234.261
L396.399 233.103
L396.655 229.657
L396.782 225.025
L397.037 231.394
L397.931 231.394
L398.569 228.499
L398.696 228.499
L398.952 229.657
L399.079 233.682
L399.335 233.682
L399.462 240.08
L399.717 240.074
L399.845 239.524
L400.1 240.08
L400.228 239.559
L400.483 254.557
L400.611 247.376
L400.866 246.392
L400.993 244.886
L401.249 244.365
L401.376 244.365
L401.632 245.9
L401.759 244.886
L402.014 243.844
L402.142 244.771
L402.397 242.454
L402.525 244.25
L402.78 245.9
L402.908 245.35
L403.163 244.858
L403.291 236.953
L403.546 235.853
L403.673 233.624
L403.929 223.739
L404.056 233.624
L404.311 233.045
L404.439 232.466
L404.822 229.078
L405.077 229.657
L405.205 224.996
L405.46 223.172
L405.588 223.78
L405.843 223.172
L405.97 221.753
L406.226 221.116
L406.353 221.116
L406.609 219.205
L406.736 216.657
L406.991 218.568
L407.119 244.858
L407.374 243.294
L407.502 240.688
L407.757 196.825
L407.885 219.35
L408.268 217.439
L408.523 218.713
L408.65 217.439
L409.033 220.624
L409.289 239.964
L409.416 239.964
L409.671 241.522
L410.054 236.085
L410.182 218.528
L410.437 227.92
L410.565 240.648
L410.82 238.922
L410.948 238.922
L411.33 237.243
L411.586 242.721
L411.713 242.223
L411.968 245.379
L412.607 237.185
L412.989 236.838
L413.245 235.737
L413.5 235.187
L413.627 234.637
L413.883 235.187
L414.01 235.187
L414.266 234.637
L414.393 233.161
L414.648 233.508
L414.776 231.771
L415.159 231.771
L415.414 234.637
L415.542 234.29
L415.797 233.161
L415.925 233.161
L416.18 234.637
L416.307 234.637
L416.563 233.508
L416.69 234.087
L416.945 242.767
L417.073 242.767
L417.328 243.265
L417.456 235.911
L417.711 235.361
L417.839 235.361
L418.094 242.976
L418.222 242.425
L418.477 241.904
L418.604 240.862
L418.86 240.862
L419.243 237.069
L419.37 237.069
L419.625 242.425
L419.753 240.804
L420.008 240.804
L420.136 240.08
L420.391 245.9
L420.519 242.802
L420.902 241.76
L421.157 238.575
L421.284 238.575
L421.54 239.125
L421.667 240.196
L421.922 240.717
L422.05 243.786
L422.305 231.394
L422.433 243.033
L422.688 243.549
L422.816 243.028
L423.199 243.028
L423.454 231.394
L423.581 247.376
L423.837 246.884
L424.22 243.844
L424.347 243.844
L424.602 231.105
L424.73 230.526
L424.985 231.105
L425.113 244.365
L425.496 241.412
L425.751 241.933
L425.879 240.891
L426.261 231.452
L426.517 228.557
L426.644 230.288
L426.899 226.154
L427.282 233.769
L427.41 232.031
L427.665 231.446
L427.793 234.313
L428.048 246.884
L428.431 244.858
L428.558 242.252
L428.814 243.815
L428.941 242.773
L429.197 241.644
L429.324 237.185
L429.579 236.635
L429.707 236.085
L430.345 247.376
L430.473 247.376
L430.728 246.768
L430.856 245.263
L430.983 245.379
L431.238 245.379
L431.494 247.376
L432.004 247.376
L432.387 238.459
L432.642 238.997
L432.642 238.997
L432.77 236.809
L433.025 202.441
L433.536 202.441
L433.791 173.488
L433.918 235.448
L434.174 234.348
L435.067 234.348
L435.322 234.898
L435.45 234.348
L435.705 235.448
L435.833 235.442
L436.088 236.258
L436.215 238.997
L436.471 236.085
L436.598 236.085
L436.854 235.535
L436.981 235.535
L437.236 238.974
L437.364 238.974
L437.619 238.343
L437.747 238.343
L438.002 237.764
L438.13 231.365
L438.513 238.337
L438.768 235.737
L438.895 238.054
L439.151 238.343
L439.661 239.003
L439.916 232.581
L440.299 245.871
L440.299 245.871
L440.427 244.307
L440.682 243.613
L441.192 249.345
L441.448 249.316
L441.575 249.919
L441.831 248.187
L441.831 248.187
L441.958 241.325
L442.596 241.325
L442.724 247.116
L442.979 246.131
L443.107 243.555
L443.362 244.076
L443.49 242.223
L443.872 246.444
L444.128 258.292
L444.255 258.292
L444.638 256.96
L444.893 258.749
L445.021 251.227
L445.276 258.321
L445.404 257.886
L445.659 254.702
L446.169 253.312
L446.425 251.372
L446.552 253.775
L446.808 253.312
L446.935 250.967
L447.19 252.849
L447.318 251.459
L447.573 250.967
L447.701 250.474
L447.956 254.209
L448.084 250.909
L448.339 252.345
L448.467 258.321
L448.849 258.315
L449.105 256.96
L449.232 258.321
L449.615 250.185
L449.998 244.713
L450.126 247.724
L450.381 247.232
L450.636 242.454
L450.764 242.454
L451.019 244.423
L451.146 246.739
L451.402 246.247
L451.529 243.555
L451.785 243.033
L451.912 237.185
L452.167 236.606
L452.295 242.97
L452.55 237.237
L453.444 237.243
L453.699 246.739
L453.826 246.247
L454.082 244.713
L454.592 246.739
L454.847 246.247
L454.847 246.247
L454.975 246.757
L455.358 243.67
L455.613 242.57
L455.741 236.635
L455.996 236.085
L456.123 234.985
L456.379 234.985
L456.506 233.305
L456.762 233.132
L456.889 233.884
L457.144 242.454
L457.272 242.976
L457.527 241.412
L457.655 242.449
L457.91 239.791
L458.038 240.833
L458.293 237.359
L458.421 239.009
L458.676 228.21
L458.803 237.59
L459.059 219.147
L459.186 237.04
L459.442 203.947
L459.569 203.223
L459.952 236.49
L460.207 237.04
L460.335 235.94
L460.59 242.397
L460.718 236.085
L460.973 231.568
L461.101 242.454
L461.356 240.717
L461.484 240.659
L461.739 240.138
L461.866 242.454
L462.121 239.206
L462.249 239.206
L462.632 243.67
L462.887 244.655
L463.015 244.134
L463.27 245.17
L463.781 243.091
L464.163 235.593
L464.419 234.463
L464.546 233.305
L464.801 232.726
L464.929 233.305
L465.184 242.976
L465.312 242.454
L465.567 240.891
L465.567 240.891
L465.695 231.394
L466.078 245.17
L466.333 244.655
L466.716 259.45
L467.226 253.457
L467.481 256.346
L467.864 231.394
L467.992 254.557
L468.247 254.557
L468.757 252.356
L469.013 252.356
L469.14 250.938
L469.523 249.461
L469.778 248.969
L470.161 247.492
L470.289 247.486
L470.544 246.016
L470.672 243.96
L470.927 241.875
L471.055 243.96
L471.31 242.918
L471.693 242.918
L472.203 246.508
L472.841 246.502
L472.969 245.987
L473.224 245.987
L473.352 245.494
L473.607 227.022
L473.734 238.054
L474.118 238.054
L474.373 240.08
L474.5 251.661
L474.755 253.688
L474.883 251.082
L475.138 254.615
L475.266 260.33
L475.649 260.33
L476.032 241.412
L476.414 234.979
L476.67 237.185
L476.797 236.085
L477.052 260.33
L477.18 257.452
L477.435 255.165
L477.563 255.165
L477.818 260.33
L480.498 260.33
L480.626 259.624
L481.009 254.18
L481.264 254.673
L481.391 254.557
L481.647 260.33
L481.774 260.492
L482.157 254.209
L482.412 234.985
L482.54 234.434
L482.795 253.051
L482.923 253.804
L483.178 254.499
L483.561 251.256
L483.689 253.572
L483.944 245.784
L484.071 171.751
L484.454 247.724
L484.709 254.47
L484.837 249.982
L485.092 253.37
L485.858 250.706
L485.986 243.381
L486.241 243.381
L486.241 243.381
L486.368 242.339
L486.624 256.873
L487.007 255.483
L487.134 255.947
L487.389 255.483
L488.283 249.345
L488.666 248.274
L488.921 246.797
L489.431 246.797
L489.814 244.25
L490.069 237.388
L490.197 244.771
L490.452 247.782
L490.835 247.788
L490.963 248.274
L491.218 249.832
L491.345 249.345
L491.601 247.782
L491.728 248.332
L491.984 248.332
L492.111 239.067
L492.366 243.815
L492.749 243.815
L492.877 244.858
L493.132 243.815
L493.26 242.773
L493.515 244.336
L493.643 242.976
L493.898 243.815
L494.026 242.773
L494.281 244.336
L494.408 243.815
L494.791 238.835
L495.046 242.976
L495.174 248.332
L495.429 248.332
L495.557 255.02
L495.684 254.557
L495.812 255.136
L495.812 255.136
L496.195 253.862
L496.322 253.399
L496.705 247.29
L496.961 247.782
L497.088 242.454
L497.343 242.454
L497.471 249.693
L498.109 244.713
L498.237 242.107
L498.62 245.228
L498.875 246.653
L499.002 248.216
L499.385 246.276
L499.64 253.856
L499.768 254.088
L500.023 253.167
L500.151 251.633
L500.406 253.624
L500.534 253.167
L500.789 248.708
L500.917 249.2
L501.299 249.2
L501.555 248.448
L501.682 248.448
L501.938 247.95
L502.32 247.955
L502.448 246.971
L502.831 240.688
L503.214 250.677
L503.469 249.2
L503.597 250.185
L503.852 241.962
L503.979 254.094
L504.617 255.715
L504.873 255.715
L505.128 253.63
L505.383 254.788
L505.511 254.788
L505.766 253.862
L505.894 256.178
L506.149 255.715
L506.659 253.717
L507.042 250.359
L507.425 250.353
L507.68 248.795
L507.808 249.855
L508.191 241.933
L508.446 219.176
L508.574 219.813
L508.829 218.539
L509.595 237.185
L509.722 245.813
L509.977 248.853
L510.36 246.624
L510.743 247.608
L510.871 247.145
L511.126 248.882
L511.509 246.421
L511.636 246.913
L511.892 224.272
L512.019 247.376
L512.274 246.884
L512.402 247.376
L512.657 242.599
L512.785 248.882
L513.04 249.837
L513.168 251.169
L513.551 238.575
L513.806 238.025
L513.933 238.025
L514.189 252.252
L514.317 231.394
L514.572 251.372
L514.954 246.942
L515.082 246.942
L515.465 229.512
L515.72 229.512
L515.848 246.942
L516.231 254.151
L516.486 253.225
L516.613 254.904
L516.869 254.898
L516.996 253.978
L517.251 254.441
L517.379 253.978
L517.634 254.441
L517.762 254.441
L518.017 253.399
L518.145 254.441
L518.4 254.904
L518.4 254.904" style="fill:none;stroke:#ff0000;stroke-linecap:square;"/>
   </g>
   <g id="line2d_2">
    <path clip-path="url(#pcb2bf987bf)" d="
M72 344.931
L72.5105 344.907
L88.0796 344.989
L88.4624 345.041
L90.3767 344.96
L91.0148 344.878
L95.7365 344.994
L96.3746 344.936
L97.1403 345.041
L98.0336 344.931
L100.331 344.902
L100.969 344.867
L101.862 344.948
L103.393 344.931
L108.626 345.012
L110.285 344.85
L121.004 344.844
L124.067 344.861
L125.471 344.797
L126.365 344.983
L128.661 344.96
L131.597 344.977
L132.362 344.907
L132.362 344.907
L135.425 344.878
L138.488 344.85
L140.019 344.873
L143.975 344.873
L146.91 344.925
L157.758 344.867
L158.396 344.786
L159.927 344.936
L163.883 344.925
L167.712 344.855
L169.243 344.815
L173.072 344.878
L176.9 344.931
L181.367 344.919
L183.791 345.017
L186.727 344.989
L201.275 344.757
L202.04 344.89
L231.264 344.994
L231.264 344.994
L232.03 345.012
L232.413 344.954
L279.503 344.861
L279.886 344.821
L280.269 344.821
L280.269 344.821
L280.397 344.948
L283.332 344.838
L284.097 344.821
L284.48 344.861
L291.754 344.936
L292.903 344.96
L383.638 345.07
L385.297 345.064
L388.232 344.989
L388.232 344.989
L388.36 345.515
L388.998 345.515
L389.125 344.971
L394.102 344.907
L394.102 344.907
L394.868 344.826
L400.483 344.902
L400.611 344.983
L509.212 344.884
L509.977 344.867
L511.126 344.931
L518.4 345.023
L518.4 345.023" style="fill:none;stroke:#008000;stroke-linecap:square;"/>
   </g>
   <g id="patch_3">
    <path d="
M72 43.2
L518.4 43.2" style="fill:none;stroke:#000000;stroke-linecap:square;stroke-linejoin:miter;"/>
   </g>
   <g id="patch_4">
    <path d="
M518.4 345.6
L518.4 43.2" style="fill:none;stroke:#000000;stroke-linecap:square;stroke-linejoin:miter;"/>
   </g>
   <g id="patch_5">
    <path d="
M72 345.6
L518.4 345.6" style="fill:none;stroke:#000000;stroke-linecap:square;stroke-linejoin:miter;"/>
   </g>
   <g id="patch_6">
    <path d="
M72 345.6
L72 43.2" style="fill:none;stroke:#000000;stroke-linecap:square;stroke-linejoin:miter;"/>
   </g>
   <g id="matplotlib.axis_1">
    <g id="xtick_1">
     <g id="line2d_3">
      <defs>
       <path d="
M0 0
L0 -4" id="m93b0483c22" style="stroke:#000000;stroke-width:0.5;"/>
      </defs>
      <g>
       <use style="stroke:#000000;stroke-width:0.5;" x="117.941468267" xlink:href="#m93b0483c22" y="345.6"/>
      </g>
     </g>
     <g id="line2d_4">
      <defs>
       <path d="
M0 0
L0 4" id="m741efc42ff" style="stroke:#000000;stroke-width:0.5;"/>
      </defs>
      <g>
       <use style="stroke:#000000;stroke-width:0.5;" x="117.941468267" xlink:href="#m741efc42ff" y="43.2"/>
      </g>
     </g>
     <g id="text_1">
      <!-- Oct 13 2015 -->
      <defs>
       <path d="
M19.1875 8.29688
L53.6094 8.29688
L53.6094 0
L7.32812 0
L7.32812 8.29688
Q12.9375 14.1094 22.625 23.8906
Q32.3281 33.6875 34.8125 36.5312
Q39.5469 41.8438 41.4219 45.5312
Q43.3125 49.2188 43.3125 52.7812
Q43.3125 58.5938 39.2344 62.25
Q35.1562 65.9219 28.6094 65.9219
Q23.9688 65.9219 18.8125 64.3125
Q13.6719 62.7031 7.8125 59.4219
L7.8125 69.3906
Q13.7656 71.7812 18.9375 73
Q24.125 74.2188 28.4219 74.2188
Q39.75 74.2188 46.4844 68.5469
Q53.2188 62.8906 53.2188 53.4219
Q53.2188 48.9219 51.5312 44.8906
Q49.8594 40.875 45.4062 35.4062
Q44.1875 33.9844 37.6406 27.2188
Q31.1094 20.4531 19.1875 8.29688" id="BitstreamVeraSans-Roman-32"/>
       <path d="
M39.4062 66.2188
Q28.6562 66.2188 22.3281 58.2031
Q16.0156 50.2031 16.0156 36.375
Q16.0156 22.6094 22.3281 14.5938
Q28.6562 6.59375 39.4062 6.59375
Q50.1406 6.59375 56.4219 14.5938
Q62.7031 22.6094 62.7031 36.375
Q62.7031 50.2031 56.4219 58.2031
Q50.1406 66.2188 39.4062 66.2188
M39.4062 74.2188
Q54.7344 74.2188 63.9062 63.9375
Q73.0938 53.6562 73.0938 36.375
Q73.0938 19.1406 63.9062 8.85938
Q54.7344 -1.42188 39.4062 -1.42188
Q24.0312 -1.42188 14.8125 8.82812
Q5.60938 19.0938 5.60938 36.375
Q5.60938 53.6562 14.8125 63.9375
Q24.0312 74.2188 39.4062 74.2188" id="BitstreamVeraSans-Roman-4f"/>
       <path d="
M31.7812 66.4062
Q24.1719 66.4062 20.3281 58.9062
Q16.5 51.4219 16.5 36.375
Q16.5 21.3906 20.3281 13.8906
Q24.1719 6.39062 31.7812 6.39062
Q39.4531 6.39062 43.2812 13.8906
Q47.125 21.3906 47.125 36.375
Q47.125 51.4219 43.2812 58.9062
Q39.4531 66.4062 31.7812 66.4062
M31.7812 74.2188
Q44.0469 74.2188 50.5156 64.5156
Q56.9844 54.8281 56.9844 36.375
Q56.9844 17.9688 50.5156 8.26562
Q44.0469 -1.42188 31.7812 -1.42188
Q19.5312 -1.42188 13.0625 8.26562
Q6.59375 17.9688 6.59375 36.375
Q6.59375 54.8281 13.0625 64.5156
Q19.5312 74.2188 31.7812 74.2188" id="BitstreamVeraSans-Roman-30"/>
       <path d="
M12.4062 8.29688
L28.5156 8.29688
L28.5156 63.9219
L10.9844 60.4062
L10.9844 69.3906
L28.4219 72.9062
L38.2812 72.9062
L38.2812 8.29688
L54.3906 8.29688
L54.3906 0
L12.4062 0
z
" id="BitstreamVeraSans-Roman-31"/>
       <path d="
M40.5781 39.3125
Q47.6562 37.7969 51.625 33
Q55.6094 28.2188 55.6094 21.1875
Q55.6094 10.4062 48.1875 4.48438
Q40.7656 -1.42188 27.0938 -1.42188
Q22.5156 -1.42188 17.6562 -0.515625
Q12.7969 0.390625 7.625 2.20312
L7.625 11.7188
Q11.7188 9.32812 16.5938 8.10938
Q21.4844 6.89062 26.8125 6.89062
Q36.0781 6.89062 40.9375 10.5469
Q45.7969 14.2031 45.7969 21.1875
Q45.7969 27.6406 41.2812 31.2656
Q36.7656 34.9062 28.7188 34.9062
L20.2188 34.9062
L20.2188 43.0156
L29.1094 43.0156
Q36.375 43.0156 40.2344 45.9219
Q44.0938 48.8281 44.0938 54.2969
Q44.0938 59.9062 40.1094 62.9062
Q36.1406 65.9219 28.7188 65.9219
Q24.6562 65.9219 20.0156 65.0312
Q15.375 64.1562 9.8125 62.3125
L9.8125 71.0938
Q15.4375 72.6562 20.3438 73.4375
Q25.25 74.2188 29.5938 74.2188
Q40.8281 74.2188 47.3594 69.1094
Q53.9062 64.0156 53.9062 55.3281
Q53.9062 49.2656 50.4375 45.0938
Q46.9688 40.9219 40.5781 39.3125" id="BitstreamVeraSans-Roman-33"/>
       <path id="BitstreamVeraSans-Roman-20"/>
       <path d="
M10.7969 72.9062
L49.5156 72.9062
L49.5156 64.5938
L19.8281 64.5938
L19.8281 46.7344
Q21.9688 47.4688 24.1094 47.8281
Q26.2656 48.1875 28.4219 48.1875
Q40.625 48.1875 47.75 41.5
Q54.8906 34.8125 54.8906 23.3906
Q54.8906 11.625 47.5625 5.09375
Q40.2344 -1.42188 26.9062 -1.42188
Q22.3125 -1.42188 17.5469 -0.640625
Q12.7969 0.140625 7.71875 1.70312
L7.71875 11.625
Q12.1094 9.23438 16.7969 8.0625
Q21.4844 6.89062 26.7031 6.89062
Q35.1562 6.89062 40.0781 11.3281
Q45.0156 15.7656 45.0156 23.3906
Q45.0156 31 40.0781 35.4375
Q35.1562 39.8906 26.7031 39.8906
Q22.75 39.8906 18.8125 39.0156
Q14.8906 38.1406 10.7969 36.2812
z
" id="BitstreamVeraSans-Roman-35"/>
       <path d="
M18.3125 70.2188
L18.3125 54.6875
L36.8125 54.6875
L36.8125 47.7031
L18.3125 47.7031
L18.3125 18.0156
Q18.3125 11.3281 20.1406 9.42188
Q21.9688 7.51562 27.5938 7.51562
L36.8125 7.51562
L36.8125 0
L27.5938 0
Q17.1875 0 13.2344 3.875
Q9.28125 7.76562 9.28125 18.0156
L9.28125 47.7031
L2.6875 47.7031
L2.6875 54.6875
L9.28125 54.6875
L9.28125 70.2188
z
" id="BitstreamVeraSans-Roman-74"/>
       <path d="
M48.7812 52.5938
L48.7812 44.1875
Q44.9688 46.2969 41.1406 47.3438
Q37.3125 48.3906 33.4062 48.3906
Q24.6562 48.3906 19.8125 42.8438
Q14.9844 37.3125 14.9844 27.2969
Q14.9844 17.2812 19.8125 11.7344
Q24.6562 6.20312 33.4062 6.20312
Q37.3125 6.20312 41.1406 7.25
Q44.9688 8.29688 48.7812 10.4062
L48.7812 2.09375
Q45.0156 0.34375 40.9844 -0.53125
Q36.9688 -1.42188 32.4219 -1.42188
Q20.0625 -1.42188 12.7812 6.34375
Q5.51562 14.1094 5.51562 27.2969
Q5.51562 40.6719 12.8594 48.3281
Q20.2188 56 33.0156 56
Q37.1562 56 41.1094 55.1406
Q45.0625 54.2969 48.7812 52.5938" id="BitstreamVeraSans-Roman-63"/>
      </defs>
      <g transform="translate(53.3541815316 394.065590385)rotate(-30.0)scale(0.12 -0.12)">
       <use xlink:href="#BitstreamVeraSans-Roman-4f"/>
       <use x="78.7109375" xlink:href="#BitstreamVeraSans-Roman-63"/>
       <use x="133.69140625" xlink:href="#BitstreamVeraSans-Roman-74"/>
       <use x="172.900390625" xlink:href="#BitstreamVeraSans-Roman-20"/>
       <use x="204.6875" xlink:href="#BitstreamVeraSans-Roman-31"/>
       <use x="268.310546875" xlink:href="#BitstreamVeraSans-Roman-33"/>
       <use x="331.93359375" xlink:href="#BitstreamVeraSans-Roman-20"/>
       <use x="363.720703125" xlink:href="#BitstreamVeraSans-Roman-32"/>
       <use x="427.34375" xlink:href="#BitstreamVeraSans-Roman-30"/>
       <use x="490.966796875" xlink:href="#BitstreamVeraSans-Roman-31"/>
       <use x="554.58984375" xlink:href="#BitstreamVeraSans-Roman-35"/>
      </g>
     </g>
    </g>
    <g id="xtick_2">
     <g id="line2d_5">
      <g>
       <use style="stroke:#000000;stroke-width:0.5;" x="173.071485419" xlink:href="#m93b0483c22" y="345.6"/>
      </g>
     </g>
     <g id="line2d_6">
      <g>
       <use style="stroke:#000000;stroke-width:0.5;" x="173.071485419" xlink:href="#m741efc42ff" y="43.2"/>
      </g>
     </g>
     <g id="text_2">
      <!-- Oct 16 2015 -->
      <defs>
       <path d="
M33.0156 40.375
Q26.375 40.375 22.4844 35.8281
Q18.6094 31.2969 18.6094 23.3906
Q18.6094 15.5312 22.4844 10.9531
Q26.375 6.39062 33.0156 6.39062
Q39.6562 6.39062 43.5312 10.9531
Q47.4062 15.5312 47.4062 23.3906
Q47.4062 31.2969 43.5312 35.8281
Q39.6562 40.375 33.0156 40.375
M52.5938 71.2969
L52.5938 62.3125
Q48.875 64.0625 45.0938 64.9844
Q41.3125 65.9219 37.5938 65.9219
Q27.8281 65.9219 22.6719 59.3281
Q17.5312 52.7344 16.7969 39.4062
Q19.6719 43.6562 24.0156 45.9219
Q28.375 48.1875 33.5938 48.1875
Q44.5781 48.1875 50.9531 41.5156
Q57.3281 34.8594 57.3281 23.3906
Q57.3281 12.1562 50.6875 5.35938
Q44.0469 -1.42188 33.0156 -1.42188
Q20.3594 -1.42188 13.6719 8.26562
Q6.98438 17.9688 6.98438 36.375
Q6.98438 53.6562 15.1875 63.9375
Q23.3906 74.2188 37.2031 74.2188
Q40.9219 74.2188 44.7031 73.4844
Q48.4844 72.75 52.5938 71.2969" id="BitstreamVeraSans-Roman-36"/>
      </defs>
      <g transform="translate(108.484198684 394.065590385)rotate(-30.0)scale(0.12 -0.12)">
       <use xlink:href="#BitstreamVeraSans-Roman-4f"/>
       <use x="78.7109375" xlink:href="#BitstreamVeraSans-Roman-63"/>
       <use x="133.69140625" xlink:href="#BitstreamVeraSans-Roman-74"/>
       <use x="172.900390625" xlink:href="#BitstreamVeraSans-Roman-20"/>
       <use x="204.6875" xlink:href="#BitstreamVeraSans-Roman-31"/>
       <use x="268.310546875" xlink:href="#BitstreamVeraSans-Roman-36"/>
       <use x="331.93359375" xlink:href="#BitstreamVeraSans-Roman-20"/>
       <use x="363.720703125" xlink:href="#BitstreamVeraSans-Roman-32"/>
       <use x="427.34375" xlink:href="#BitstreamVeraSans-Roman-30"/>
       <use x="490.966796875" xlink:href="#BitstreamVeraSans-Roman-31"/>
       <use x="554.58984375" xlink:href="#BitstreamVeraSans-Roman-35"/>
      </g>
     </g>
    </g>
    <g id="xtick_3">
     <g id="line2d_7">
      <g>
       <use style="stroke:#000000;stroke-width:0.5;" x="228.201502573" xlink:href="#m93b0483c22" y="345.6"/>
      </g>
     </g>
     <g id="line2d_8">
      <g>
       <use style="stroke:#000000;stroke-width:0.5;" x="228.201502573" xlink:href="#m741efc42ff" y="43.2"/>
      </g>
     </g>
     <g id="text_3">
      <!-- Oct 19 2015 -->
      <defs>
       <path d="
M10.9844 1.51562
L10.9844 10.5
Q14.7031 8.73438 18.5 7.8125
Q22.3125 6.89062 25.9844 6.89062
Q35.75 6.89062 40.8906 13.4531
Q46.0469 20.0156 46.7812 33.4062
Q43.9531 29.2031 39.5938 26.9531
Q35.25 24.7031 29.9844 24.7031
Q19.0469 24.7031 12.6719 31.3125
Q6.29688 37.9375 6.29688 49.4219
Q6.29688 60.6406 12.9375 67.4219
Q19.5781 74.2188 30.6094 74.2188
Q43.2656 74.2188 49.9219 64.5156
Q56.5938 54.8281 56.5938 36.375
Q56.5938 19.1406 48.4062 8.85938
Q40.2344 -1.42188 26.4219 -1.42188
Q22.7031 -1.42188 18.8906 -0.6875
Q15.0938 0.046875 10.9844 1.51562
M30.6094 32.4219
Q37.25 32.4219 41.125 36.9531
Q45.0156 41.5 45.0156 49.4219
Q45.0156 57.2812 41.125 61.8438
Q37.25 66.4062 30.6094 66.4062
Q23.9688 66.4062 20.0938 61.8438
Q16.2188 57.2812 16.2188 49.4219
Q16.2188 41.5 20.0938 36.9531
Q23.9688 32.4219 30.6094 32.4219" id="BitstreamVeraSans-Roman-39"/>
      </defs>
      <g transform="translate(163.614215838 394.065590385)rotate(-30.0)scale(0.12 -0.12)">
       <use xlink:href="#BitstreamVeraSans-Roman-4f"/>
       <use x="78.7109375" xlink:href="#BitstreamVeraSans-Roman-63"/>
       <use x="133.69140625" xlink:href="#BitstreamVeraSans-Roman-74"/>
       <use x="172.900390625" xlink:href="#BitstreamVeraSans-Roman-20"/>
       <use x="204.6875" xlink:href="#BitstreamVeraSans-Roman-31"/>
       <use x="268.310546875" xlink:href="#BitstreamVeraSans-Roman-39"/>
       <use x="331.93359375" xlink:href="#BitstreamVeraSans-Roman-20"/>
       <use x="363.720703125" xlink:href="#BitstreamVeraSans-Roman-32"/>
       <use x="427.34375" xlink:href="#BitstreamVeraSans-Roman-30"/>
       <use x="490.966796875" xlink:href="#BitstreamVeraSans-Roman-31"/>
       <use x="554.58984375" xlink:href="#BitstreamVeraSans-Roman-35"/>
      </g>
     </g>
    </g>
    <g id="xtick_4">
     <g id="line2d_9">
      <g>
       <use style="stroke:#000000;stroke-width:0.5;" x="283.331519725" xlink:href="#m93b0483c22" y="345.6"/>
      </g>
     </g>
     <g id="line2d_10">
      <g>
       <use style="stroke:#000000;stroke-width:0.5;" x="283.331519725" xlink:href="#m741efc42ff" y="43.2"/>
      </g>
     </g>
     <g id="text_4">
      <!-- Oct 22 2015 -->
      <g transform="translate(218.74423299 394.065590385)rotate(-30.0)scale(0.12 -0.12)">
       <use xlink:href="#BitstreamVeraSans-Roman-4f"/>
       <use x="78.7109375" xlink:href="#BitstreamVeraSans-Roman-63"/>
       <use x="133.69140625" xlink:href="#BitstreamVeraSans-Roman-74"/>
       <use x="172.900390625" xlink:href="#BitstreamVeraSans-Roman-20"/>
       <use x="204.6875" xlink:href="#BitstreamVeraSans-Roman-32"/>
       <use x="268.310546875" xlink:href="#BitstreamVeraSans-Roman-32"/>
       <use x="331.93359375" xlink:href="#BitstreamVeraSans-Roman-20"/>
       <use x="363.720703125" xlink:href="#BitstreamVeraSans-Roman-32"/>
       <use x="427.34375" xlink:href="#BitstreamVeraSans-Roman-30"/>
       <use x="490.966796875" xlink:href="#BitstreamVeraSans-Roman-31"/>
       <use x="554.58984375" xlink:href="#BitstreamVeraSans-Roman-35"/>
      </g>
     </g>
    </g>
    <g id="xtick_5">
     <g id="line2d_11">
      <g>
       <use style="stroke:#000000;stroke-width:0.5;" x="338.461536877" xlink:href="#m93b0483c22" y="345.6"/>
      </g>
     </g>
     <g id="line2d_12">
      <g>
       <use style="stroke:#000000;stroke-width:0.5;" x="338.461536877" xlink:href="#m741efc42ff" y="43.2"/>
      </g>
     </g>
     <g id="text_5">
      <!-- Oct 25 2015 -->
      <g transform="translate(273.874250142 394.065590385)rotate(-30.0)scale(0.12 -0.12)">
       <use xlink:href="#BitstreamVeraSans-Roman-4f"/>
       <use x="78.7109375" xlink:href="#BitstreamVeraSans-Roman-63"/>
       <use x="133.69140625" xlink:href="#BitstreamVeraSans-Roman-74"/>
       <use x="172.900390625" xlink:href="#BitstreamVeraSans-Roman-20"/>
       <use x="204.6875" xlink:href="#BitstreamVeraSans-Roman-32"/>
       <use x="268.310546875" xlink:href="#BitstreamVeraSans-Roman-35"/>
       <use x="331.93359375" xlink:href="#BitstreamVeraSans-Roman-20"/>
       <use x="363.720703125" xlink:href="#BitstreamVeraSans-Roman-32"/>
       <use x="427.34375" xlink:href="#BitstreamVeraSans-Roman-30"/>
       <use x="490.966796875" xlink:href="#BitstreamVeraSans-Roman-31"/>
       <use x="554.58984375" xlink:href="#BitstreamVeraSans-Roman-35"/>
      </g>
     </g>
    </g>
    <g id="xtick_6">
     <g id="line2d_13">
      <g>
       <use style="stroke:#000000;stroke-width:0.5;" x="393.591554031" xlink:href="#m93b0483c22" y="345.6"/>
      </g>
     </g>
     <g id="line2d_14">
      <g>
       <use style="stroke:#000000;stroke-width:0.5;" x="393.591554031" xlink:href="#m741efc42ff" y="43.2"/>
      </g>
     </g>
     <g id="text_6">
      <!-- Oct 28 2015 -->
      <defs>
       <path d="
M31.7812 34.625
Q24.75 34.625 20.7188 30.8594
Q16.7031 27.0938 16.7031 20.5156
Q16.7031 13.9219 20.7188 10.1562
Q24.75 6.39062 31.7812 6.39062
Q38.8125 6.39062 42.8594 10.1719
Q46.9219 13.9688 46.9219 20.5156
Q46.9219 27.0938 42.8906 30.8594
Q38.875 34.625 31.7812 34.625
M21.9219 38.8125
Q15.5781 40.375 12.0312 44.7188
Q8.5 49.0781 8.5 55.3281
Q8.5 64.0625 14.7188 69.1406
Q20.9531 74.2188 31.7812 74.2188
Q42.6719 74.2188 48.875 69.1406
Q55.0781 64.0625 55.0781 55.3281
Q55.0781 49.0781 51.5312 44.7188
Q48 40.375 41.7031 38.8125
Q48.8281 37.1562 52.7969 32.3125
Q56.7812 27.4844 56.7812 20.5156
Q56.7812 9.90625 50.3125 4.23438
Q43.8438 -1.42188 31.7812 -1.42188
Q19.7344 -1.42188 13.25 4.23438
Q6.78125 9.90625 6.78125 20.5156
Q6.78125 27.4844 10.7812 32.3125
Q14.7969 37.1562 21.9219 38.8125
M18.3125 54.3906
Q18.3125 48.7344 21.8438 45.5625
Q25.3906 42.3906 31.7812 42.3906
Q38.1406 42.3906 41.7188 45.5625
Q45.3125 48.7344 45.3125 54.3906
Q45.3125 60.0625 41.7188 63.2344
Q38.1406 66.4062 31.7812 66.4062
Q25.3906 66.4062 21.8438 63.2344
Q18.3125 60.0625 18.3125 54.3906" id="BitstreamVeraSans-Roman-38"/>
      </defs>
      <g transform="translate(329.004267296 394.065590385)rotate(-30.0)scale(0.12 -0.12)">
       <use xlink:href="#BitstreamVeraSans-Roman-4f"/>
       <use x="78.7109375" xlink:href="#BitstreamVeraSans-Roman-63"/>
       <use x="133.69140625" xlink:href="#BitstreamVeraSans-Roman-74"/>
       <use x="172.900390625" xlink:href="#BitstreamVeraSans-Roman-20"/>
       <use x="204.6875" xlink:href="#BitstreamVeraSans-Roman-32"/>
       <use x="268.310546875" xlink:href="#BitstreamVeraSans-Roman-38"/>
       <use x="331.93359375" xlink:href="#BitstreamVeraSans-Roman-20"/>
       <use x="363.720703125" xlink:href="#BitstreamVeraSans-Roman-32"/>
       <use x="427.34375" xlink:href="#BitstreamVeraSans-Roman-30"/>
       <use x="490.966796875" xlink:href="#BitstreamVeraSans-Roman-31"/>
       <use x="554.58984375" xlink:href="#BitstreamVeraSans-Roman-35"/>
      </g>
     </g>
    </g>
    <g id="xtick_7">
     <g id="line2d_15">
      <g>
       <use style="stroke:#000000;stroke-width:0.5;" x="448.721571183" xlink:href="#m93b0483c22" y="345.6"/>
      </g>
     </g>
     <g id="line2d_16">
      <g>
       <use style="stroke:#000000;stroke-width:0.5;" x="448.721571183" xlink:href="#m741efc42ff" y="43.2"/>
      </g>
     </g>
     <g id="text_7">
      <!-- Oct 31 2015 -->
      <g transform="translate(384.134284448 394.065590385)rotate(-30.0)scale(0.12 -0.12)">
       <use xlink:href="#BitstreamVeraSans-Roman-4f"/>
       <use x="78.7109375" xlink:href="#BitstreamVeraSans-Roman-63"/>
       <use x="133.69140625" xlink:href="#BitstreamVeraSans-Roman-74"/>
       <use x="172.900390625" xlink:href="#BitstreamVeraSans-Roman-20"/>
       <use x="204.6875" xlink:href="#BitstreamVeraSans-Roman-33"/>
       <use x="268.310546875" xlink:href="#BitstreamVeraSans-Roman-31"/>
       <use x="331.93359375" xlink:href="#BitstreamVeraSans-Roman-20"/>
       <use x="363.720703125" xlink:href="#BitstreamVeraSans-Roman-32"/>
       <use x="427.34375" xlink:href="#BitstreamVeraSans-Roman-30"/>
       <use x="490.966796875" xlink:href="#BitstreamVeraSans-Roman-31"/>
       <use x="554.58984375" xlink:href="#BitstreamVeraSans-Roman-35"/>
      </g>
     </g>
    </g>
    <g id="xtick_8">
     <g id="line2d_17">
      <g>
       <use style="stroke:#000000;stroke-width:0.5;" x="503.851588335" xlink:href="#m93b0483c22" y="345.6"/>
      </g>
     </g>
     <g id="line2d_18">
      <g>
       <use style="stroke:#000000;stroke-width:0.5;" x="503.851588335" xlink:href="#m741efc42ff" y="43.2"/>
      </g>
     </g>
     <g id="text_8">
      <!-- Nov 03 2015 -->
      <defs>
       <path d="
M2.98438 54.6875
L12.5 54.6875
L29.5938 8.79688
L46.6875 54.6875
L56.2031 54.6875
L35.6875 0
L23.4844 0
z
" id="BitstreamVeraSans-Roman-76"/>
       <path d="
M9.8125 72.9062
L23.0938 72.9062
L55.4219 11.9219
L55.4219 72.9062
L64.9844 72.9062
L64.9844 0
L51.7031 0
L19.3906 60.9844
L19.3906 0
L9.8125 0
z
" id="BitstreamVeraSans-Roman-4e"/>
       <path d="
M30.6094 48.3906
Q23.3906 48.3906 19.1875 42.75
Q14.9844 37.1094 14.9844 27.2969
Q14.9844 17.4844 19.1562 11.8438
Q23.3438 6.20312 30.6094 6.20312
Q37.7969 6.20312 41.9844 11.8594
Q46.1875 17.5312 46.1875 27.2969
Q46.1875 37.0156 41.9844 42.7031
Q37.7969 48.3906 30.6094 48.3906
M30.6094 56
Q42.3281 56 49.0156 48.375
Q55.7188 40.7656 55.7188 27.2969
Q55.7188 13.875 49.0156 6.21875
Q42.3281 -1.42188 30.6094 -1.42188
Q18.8438 -1.42188 12.1719 6.21875
Q5.51562 13.875 5.51562 27.2969
Q5.51562 40.7656 12.1719 48.375
Q18.8438 56 30.6094 56" id="BitstreamVeraSans-Roman-6f"/>
      </defs>
      <g transform="translate(436.948766176 395.402465385)rotate(-30.0)scale(0.12 -0.12)">
       <use xlink:href="#BitstreamVeraSans-Roman-4e"/>
       <use x="74.8046875" xlink:href="#BitstreamVeraSans-Roman-6f"/>
       <use x="135.986328125" xlink:href="#BitstreamVeraSans-Roman-76"/>
       <use x="195.166015625" xlink:href="#BitstreamVeraSans-Roman-20"/>
       <use x="226.953125" xlink:href="#BitstreamVeraSans-Roman-30"/>
       <use x="290.576171875" xlink:href="#BitstreamVeraSans-Roman-33"/>
       <use x="354.19921875" xlink:href="#BitstreamVeraSans-Roman-20"/>
       <use x="385.986328125" xlink:href="#BitstreamVeraSans-Roman-32"/>
       <use x="449.609375" xlink:href="#BitstreamVeraSans-Roman-30"/>
       <use x="513.232421875" xlink:href="#BitstreamVeraSans-Roman-31"/>
       <use x="576.85546875" xlink:href="#BitstreamVeraSans-Roman-35"/>
      </g>
     </g>
    </g>
   </g>
   <g id="matplotlib.axis_2">
    <g id="ytick_1">
     <g id="line2d_19">
      <defs>
       <path d="
M0 0
L4 0" id="m728421d6d4" style="stroke:#000000;stroke-width:0.5;"/>
      </defs>
      <g>
       <use style="stroke:#000000;stroke-width:0.5;" x="72.0" xlink:href="#m728421d6d4" y="289.300347359"/>
      </g>
     </g>
     <g id="line2d_20">
      <defs>
       <path d="
M0 0
L-4 0" id="mcb0005524f" style="stroke:#000000;stroke-width:0.5;"/>
      </defs>
      <g>
       <use style="stroke:#000000;stroke-width:0.5;" x="518.4" xlink:href="#mcb0005524f" y="289.300347359"/>
      </g>
     </g>
     <g id="text_9">
      <!-- 10000 -->
      <g transform="translate(31.94 292.611597359)scale(0.12 -0.12)">
       <use xlink:href="#BitstreamVeraSans-Roman-31"/>
       <use x="63.623046875" xlink:href="#BitstreamVeraSans-Roman-30"/>
       <use x="127.24609375" xlink:href="#BitstreamVeraSans-Roman-30"/>
       <use x="190.869140625" xlink:href="#BitstreamVeraSans-Roman-30"/>
       <use x="254.4921875" xlink:href="#BitstreamVeraSans-Roman-30"/>
      </g>
     </g>
    </g>
    <g id="ytick_2">
     <g id="line2d_21">
      <g>
       <use style="stroke:#000000;stroke-width:0.5;" x="72.0" xlink:href="#m728421d6d4" y="231.394383275"/>
      </g>
     </g>
     <g id="line2d_22">
      <g>
       <use style="stroke:#000000;stroke-width:0.5;" x="518.4" xlink:href="#mcb0005524f" y="231.394383275"/>
      </g>
     </g>
     <g id="text_10">
      <!-- 20000 -->
      <g transform="translate(31.50125 234.705633275)scale(0.12 -0.12)">
       <use xlink:href="#BitstreamVeraSans-Roman-32"/>
       <use x="63.623046875" xlink:href="#BitstreamVeraSans-Roman-30"/>
       <use x="127.24609375" xlink:href="#BitstreamVeraSans-Roman-30"/>
       <use x="190.869140625" xlink:href="#BitstreamVeraSans-Roman-30"/>
       <use x="254.4921875" xlink:href="#BitstreamVeraSans-Roman-30"/>
      </g>
     </g>
    </g>
    <g id="ytick_3">
     <g id="line2d_23">
      <g>
       <use style="stroke:#000000;stroke-width:0.5;" x="72.0" xlink:href="#m728421d6d4" y="173.48841919"/>
      </g>
     </g>
     <g id="line2d_24">
      <g>
       <use style="stroke:#000000;stroke-width:0.5;" x="518.4" xlink:href="#mcb0005524f" y="173.48841919"/>
      </g>
     </g>
     <g id="text_11">
      <!-- 30000 -->
      <g transform="translate(31.536875 176.79966919)scale(0.12 -0.12)">
       <use xlink:href="#BitstreamVeraSans-Roman-33"/>
       <use x="63.623046875" xlink:href="#BitstreamVeraSans-Roman-30"/>
       <use x="127.24609375" xlink:href="#BitstreamVeraSans-Roman-30"/>
       <use x="190.869140625" xlink:href="#BitstreamVeraSans-Roman-30"/>
       <use x="254.4921875" xlink:href="#BitstreamVeraSans-Roman-30"/>
      </g>
     </g>
    </g>
    <g id="ytick_4">
     <g id="line2d_25">
      <g>
       <use style="stroke:#000000;stroke-width:0.5;" x="72.0" xlink:href="#m728421d6d4" y="115.582455106"/>
      </g>
     </g>
     <g id="line2d_26">
      <g>
       <use style="stroke:#000000;stroke-width:0.5;" x="518.4" xlink:href="#mcb0005524f" y="115.582455106"/>
      </g>
     </g>
     <g id="text_12">
      <!-- 40000 -->
      <defs>
       <path d="
M37.7969 64.3125
L12.8906 25.3906
L37.7969 25.3906
z

M35.2031 72.9062
L47.6094 72.9062
L47.6094 25.3906
L58.0156 25.3906
L58.0156 17.1875
L47.6094 17.1875
L47.6094 0
L37.7969 0
L37.7969 17.1875
L4.89062 17.1875
L4.89062 26.7031
z
" id="BitstreamVeraSans-Roman-34"/>
      </defs>
      <g transform="translate(31.20875 118.893705106)scale(0.12 -0.12)">
       <use xlink:href="#BitstreamVeraSans-Roman-34"/>
       <use x="63.623046875" xlink:href="#BitstreamVeraSans-Roman-30"/>
       <use x="127.24609375" xlink:href="#BitstreamVeraSans-Roman-30"/>
       <use x="190.869140625" xlink:href="#BitstreamVeraSans-Roman-30"/>
       <use x="254.4921875" xlink:href="#BitstreamVeraSans-Roman-30"/>
      </g>
     </g>
    </g>
    <g id="ytick_5">
     <g id="line2d_27">
      <g>
       <use style="stroke:#000000;stroke-width:0.5;" x="72.0" xlink:href="#m728421d6d4" y="57.6764910211"/>
      </g>
     </g>
     <g id="line2d_28">
      <g>
       <use style="stroke:#000000;stroke-width:0.5;" x="518.4" xlink:href="#mcb0005524f" y="57.6764910211"/>
      </g>
     </g>
     <g id="text_13">
      <!-- 50000 -->
      <g transform="translate(31.548125 60.9877410211)scale(0.12 -0.12)">
       <use xlink:href="#BitstreamVeraSans-Roman-35"/>
       <use x="63.623046875" xlink:href="#BitstreamVeraSans-Roman-30"/>
       <use x="127.24609375" xlink:href="#BitstreamVeraSans-Roman-30"/>
       <use x="190.869140625" xlink:href="#BitstreamVeraSans-Roman-30"/>
       <use x="254.4921875" xlink:href="#BitstreamVeraSans-Roman-30"/>
      </g>
     </g>
    </g>
   </g>
   <g id="text_14">
    <!-- Kunststoffschrott -->
    <defs>
     <path d="
M37.1094 75.9844
L37.1094 68.5
L28.5156 68.5
Q23.6875 68.5 21.7969 66.5469
Q19.9219 64.5938 19.9219 59.5156
L19.9219 54.6875
L34.7188 54.6875
L34.7188 47.7031
L19.9219 47.7031
L19.9219 0
L10.8906 0
L10.8906 47.7031
L2.29688 47.7031
L2.29688 54.6875
L10.8906 54.6875
L10.8906 58.5
Q10.8906 67.625 15.1406 71.7969
Q19.3906 75.9844 28.6094 75.9844
z
" id="BitstreamVeraSans-Roman-66"/>
     <path d="
M9.8125 72.9062
L19.6719 72.9062
L19.6719 42.0938
L52.3906 72.9062
L65.0938 72.9062
L28.9062 38.9219
L67.6719 0
L54.6875 0
L19.6719 35.1094
L19.6719 0
L9.8125 0
z
" id="BitstreamVeraSans-Roman-4b"/>
     <path d="
M54.8906 33.0156
L54.8906 0
L45.9062 0
L45.9062 32.7188
Q45.9062 40.4844 42.875 44.3281
Q39.8438 48.1875 33.7969 48.1875
Q26.5156 48.1875 22.3125 43.5469
Q18.1094 38.9219 18.1094 30.9062
L18.1094 0
L9.07812 0
L9.07812 54.6875
L18.1094 54.6875
L18.1094 46.1875
Q21.3438 51.125 25.7031 53.5625
Q30.0781 56 35.7969 56
Q45.2188 56 50.0469 50.1719
Q54.8906 44.3438 54.8906 33.0156" id="BitstreamVeraSans-Roman-6e"/>
     <path d="
M54.8906 33.0156
L54.8906 0
L45.9062 0
L45.9062 32.7188
Q45.9062 40.4844 42.875 44.3281
Q39.8438 48.1875 33.7969 48.1875
Q26.5156 48.1875 22.3125 43.5469
Q18.1094 38.9219 18.1094 30.9062
L18.1094 0
L9.07812 0
L9.07812 75.9844
L18.1094 75.9844
L18.1094 46.1875
Q21.3438 51.125 25.7031 53.5625
Q30.0781 56 35.7969 56
Q45.2188 56 50.0469 50.1719
Q54.8906 44.3438 54.8906 33.0156" id="BitstreamVeraSans-Roman-68"/>
     <path d="
M8.5 21.5781
L8.5 54.6875
L17.4844 54.6875
L17.4844 21.9219
Q17.4844 14.1562 20.5 10.2656
Q23.5312 6.39062 29.5938 6.39062
Q36.8594 6.39062 41.0781 11.0312
Q45.3125 15.6719 45.3125 23.6875
L45.3125 54.6875
L54.2969 54.6875
L54.2969 0
L45.3125 0
L45.3125 8.40625
Q42.0469 3.42188 37.7188 1
Q33.4062 -1.42188 27.6875 -1.42188
Q18.2656 -1.42188 13.375 4.4375
Q8.5 10.2969 8.5 21.5781" id="BitstreamVeraSans-Roman-75"/>
     <path d="
M41.1094 46.2969
Q39.5938 47.1719 37.8125 47.5781
Q36.0312 48 33.8906 48
Q26.2656 48 22.1875 43.0469
Q18.1094 38.0938 18.1094 28.8125
L18.1094 0
L9.07812 0
L9.07812 54.6875
L18.1094 54.6875
L18.1094 46.1875
Q20.9531 51.1719 25.4844 53.5781
Q30.0312 56 36.5312 56
Q37.4531 56 38.5781 55.875
Q39.7031 55.7656 41.0625 55.5156
z
" id="BitstreamVeraSans-Roman-72"/>
     <path d="
M44.2812 53.0781
L44.2812 44.5781
Q40.4844 46.5312 36.375 47.5
Q32.2812 48.4844 27.875 48.4844
Q21.1875 48.4844 17.8438 46.4375
Q14.5 44.3906 14.5 40.2812
Q14.5 37.1562 16.8906 35.375
Q19.2812 33.5938 26.5156 31.9844
L29.5938 31.2969
Q39.1562 29.25 43.1875 25.5156
Q47.2188 21.7812 47.2188 15.0938
Q47.2188 7.46875 41.1875 3.01562
Q35.1562 -1.42188 24.6094 -1.42188
Q20.2188 -1.42188 15.4531 -0.5625
Q10.6875 0.296875 5.42188 2
L5.42188 11.2812
Q10.4062 8.6875 15.2344 7.39062
Q20.0625 6.10938 24.8125 6.10938
Q31.1562 6.10938 34.5625 8.28125
Q37.9844 10.4531 37.9844 14.4062
Q37.9844 18.0625 35.5156 20.0156
Q33.0625 21.9688 24.7031 23.7812
L21.5781 24.5156
Q13.2344 26.2656 9.51562 29.9062
Q5.8125 33.5469 5.8125 39.8906
Q5.8125 47.6094 11.2812 51.7969
Q16.75 56 26.8125 56
Q31.7812 56 36.1719 55.2656
Q40.5781 54.5469 44.2812 53.0781" id="BitstreamVeraSans-Roman-73"/>
    </defs>
    <g transform="translate(397.6965 38.2)scale(0.144 -0.144)">
     <use xlink:href="#BitstreamVeraSans-Roman-4b"/>
     <use x="60.576171875" xlink:href="#BitstreamVeraSans-Roman-75"/>
     <use x="123.955078125" xlink:href="#BitstreamVeraSans-Roman-6e"/>
     <use x="187.333984375" xlink:href="#BitstreamVeraSans-Roman-73"/>
     <use x="239.43359375" xlink:href="#BitstreamVeraSans-Roman-74"/>
     <use x="278.642578125" xlink:href="#BitstreamVeraSans-Roman-73"/>
     <use x="330.7421875" xlink:href="#BitstreamVeraSans-Roman-74"/>
     <use x="369.951171875" xlink:href="#BitstreamVeraSans-Roman-6f"/>
     <use x="431.1328125" xlink:href="#BitstreamVeraSans-Roman-66"/>
     <use x="466.337890625" xlink:href="#BitstreamVeraSans-Roman-66"/>
     <use x="501.54296875" xlink:href="#BitstreamVeraSans-Roman-73"/>
     <use x="553.642578125" xlink:href="#BitstreamVeraSans-Roman-63"/>
     <use x="608.623046875" xlink:href="#BitstreamVeraSans-Roman-68"/>
     <use x="672.001953125" xlink:href="#BitstreamVeraSans-Roman-72"/>
     <use x="710.865234375" xlink:href="#BitstreamVeraSans-Roman-6f"/>
     <use x="772.046875" xlink:href="#BitstreamVeraSans-Roman-74"/>
     <use x="811.255859375" xlink:href="#BitstreamVeraSans-Roman-74"/>
    </g>
   </g>
   <g id="legend_1">
    <g id="patch_7">
     <path d="
M123.942 423.616
L466.458 423.616
L466.458 398.16
L123.942 398.16
z
" style="fill:#ffffff;stroke:#000000;stroke-linejoin:miter;"/>
    </g>
    <g id="line2d_29">
     <path d="
M134.022 409.822
L154.182 409.822" style="fill:none;stroke:#ff0000;stroke-linecap:square;"/>
    </g>
    <g id="line2d_30"/>
    <g id="text_15">
     <!-- Schwarzmarktpreis -->
     <defs>
      <path d="
M52 44.1875
Q55.375 50.25 60.0625 53.125
Q64.75 56 71.0938 56
Q79.6406 56 84.2812 50.0156
Q88.9219 44.0469 88.9219 33.0156
L88.9219 0
L79.8906 0
L79.8906 32.7188
Q79.8906 40.5781 77.0938 44.375
Q74.3125 48.1875 68.6094 48.1875
Q61.625 48.1875 57.5625 43.5469
Q53.5156 38.9219 53.5156 30.9062
L53.5156 0
L44.4844 0
L44.4844 32.7188
Q44.4844 40.625 41.7031 44.4062
Q38.9219 48.1875 33.1094 48.1875
Q26.2188 48.1875 22.1562 43.5312
Q18.1094 38.875 18.1094 30.9062
L18.1094 0
L9.07812 0
L9.07812 54.6875
L18.1094 54.6875
L18.1094 46.1875
Q21.1875 51.2188 25.4844 53.6094
Q29.7812 56 35.6875 56
Q41.6562 56 45.8281 52.9688
Q50 49.9531 52 44.1875" id="BitstreamVeraSans-Roman-6d"/>
      <path d="
M9.07812 75.9844
L18.1094 75.9844
L18.1094 31.1094
L44.9219 54.6875
L56.3906 54.6875
L27.3906 29.1094
L57.625 0
L45.9062 0
L18.1094 26.7031
L18.1094 0
L9.07812 0
z
" id="BitstreamVeraSans-Roman-6b"/>
      <path d="
M53.5156 70.5156
L53.5156 60.8906
Q47.9062 63.5781 42.9219 64.8906
Q37.9375 66.2188 33.2969 66.2188
Q25.25 66.2188 20.875 63.0938
Q16.5 59.9688 16.5 54.2031
Q16.5 49.3594 19.4062 46.8906
Q22.3125 44.4375 30.4219 42.9219
L36.375 41.7031
Q47.4062 39.5938 52.6562 34.2969
Q57.9062 29 57.9062 20.125
Q57.9062 9.51562 50.7969 4.04688
Q43.7031 -1.42188 29.9844 -1.42188
Q24.8125 -1.42188 18.9688 -0.25
Q13.1406 0.921875 6.89062 3.21875
L6.89062 13.375
Q12.8906 10.0156 18.6562 8.29688
Q24.4219 6.59375 29.9844 6.59375
Q38.4219 6.59375 43.0156 9.90625
Q47.6094 13.2344 47.6094 19.3906
Q47.6094 24.75 44.3125 27.7812
Q41.0156 30.8125 33.5 32.3281
L27.4844 33.5
Q16.4531 35.6875 11.5156 40.375
Q6.59375 45.0625 6.59375 53.4219
Q6.59375 63.0938 13.4062 68.6562
Q20.2188 74.2188 32.1719 74.2188
Q37.3125 74.2188 42.625 73.2812
Q47.9531 72.3594 53.5156 70.5156" id="BitstreamVeraSans-Roman-53"/>
      <path d="
M9.42188 54.6875
L18.4062 54.6875
L18.4062 0
L9.42188 0
z

M9.42188 75.9844
L18.4062 75.9844
L18.4062 64.5938
L9.42188 64.5938
z
" id="BitstreamVeraSans-Roman-69"/>
      <path d="
M56.2031 29.5938
L56.2031 25.2031
L14.8906 25.2031
Q15.4844 15.9219 20.4844 11.0625
Q25.4844 6.20312 34.4219 6.20312
Q39.5938 6.20312 44.4531 7.46875
Q49.3125 8.73438 54.1094 11.2812
L54.1094 2.78125
Q49.2656 0.734375 44.1875 -0.34375
Q39.1094 -1.42188 33.8906 -1.42188
Q20.7969 -1.42188 13.1562 6.1875
Q5.51562 13.8125 5.51562 26.8125
Q5.51562 40.2344 12.7656 48.1094
Q20.0156 56 32.3281 56
Q43.3594 56 49.7812 48.8906
Q56.2031 41.7969 56.2031 29.5938
M47.2188 32.2344
Q47.125 39.5938 43.0938 43.9844
Q39.0625 48.3906 32.4219 48.3906
Q24.9062 48.3906 20.3906 44.1406
Q15.875 39.8906 15.1875 32.1719
z
" id="BitstreamVeraSans-Roman-65"/>
      <path d="
M4.20312 54.6875
L13.1875 54.6875
L24.4219 12.0156
L35.5938 54.6875
L46.1875 54.6875
L57.4219 12.0156
L68.6094 54.6875
L77.5938 54.6875
L63.2812 0
L52.6875 0
L40.9219 44.8281
L29.1094 0
L18.5 0
z
" id="BitstreamVeraSans-Roman-77"/>
      <path d="
M5.51562 54.6875
L48.1875 54.6875
L48.1875 46.4844
L14.4062 7.17188
L48.1875 7.17188
L48.1875 0
L4.29688 0
L4.29688 8.20312
L38.0938 47.5156
L5.51562 47.5156
z
" id="BitstreamVeraSans-Roman-7a"/>
      <path d="
M34.2812 27.4844
Q23.3906 27.4844 19.1875 25
Q14.9844 22.5156 14.9844 16.5
Q14.9844 11.7188 18.1406 8.90625
Q21.2969 6.10938 26.7031 6.10938
Q34.1875 6.10938 38.7031 11.4062
Q43.2188 16.7031 43.2188 25.4844
L43.2188 27.4844
z

M52.2031 31.2031
L52.2031 0
L43.2188 0
L43.2188 8.29688
Q40.1406 3.32812 35.5469 0.953125
Q30.9531 -1.42188 24.3125 -1.42188
Q15.9219 -1.42188 10.9531 3.29688
Q6 8.01562 6 15.9219
Q6 25.1406 12.1719 29.8281
Q18.3594 34.5156 30.6094 34.5156
L43.2188 34.5156
L43.2188 35.4062
Q43.2188 41.6094 39.1406 45
Q35.0625 48.3906 27.6875 48.3906
Q23 48.3906 18.5469 47.2656
Q14.1094 46.1406 10.0156 43.8906
L10.0156 52.2031
Q14.9375 54.1094 19.5781 55.0469
Q24.2188 56 28.6094 56
Q40.4844 56 46.3438 49.8438
Q52.2031 43.7031 52.2031 31.2031" id="BitstreamVeraSans-Roman-61"/>
      <path d="
M18.1094 8.20312
L18.1094 -20.7969
L9.07812 -20.7969
L9.07812 54.6875
L18.1094 54.6875
L18.1094 46.3906
Q20.9531 51.2656 25.2656 53.625
Q29.5938 56 35.5938 56
Q45.5625 56 51.7812 48.0938
Q58.0156 40.1875 58.0156 27.2969
Q58.0156 14.4062 51.7812 6.48438
Q45.5625 -1.42188 35.5938 -1.42188
Q29.5938 -1.42188 25.2656 0.953125
Q20.9531 3.32812 18.1094 8.20312
M48.6875 27.2969
Q48.6875 37.2031 44.6094 42.8438
Q40.5312 48.4844 33.4062 48.4844
Q26.2656 48.4844 22.1875 42.8438
Q18.1094 37.2031 18.1094 27.2969
Q18.1094 17.3906 22.1875 11.75
Q26.2656 6.10938 33.4062 6.10938
Q40.5312 6.10938 44.6094 11.75
Q48.6875 17.3906 48.6875 27.2969" id="BitstreamVeraSans-Roman-70"/>
     </defs>
     <g transform="translate(170.022375 414.86175)scale(0.144 -0.144)">
      <use xlink:href="#BitstreamVeraSans-Roman-53"/>
      <use x="63.4765625" xlink:href="#BitstreamVeraSans-Roman-63"/>
      <use x="118.45703125" xlink:href="#BitstreamVeraSans-Roman-68"/>
      <use x="181.8359375" xlink:href="#BitstreamVeraSans-Roman-77"/>
      <use x="263.623046875" xlink:href="#BitstreamVeraSans-Roman-61"/>
      <use x="324.90234375" xlink:href="#BitstreamVeraSans-Roman-72"/>
      <use x="366.015625" xlink:href="#BitstreamVeraSans-Roman-7a"/>
      <use x="418.505859375" xlink:href="#BitstreamVeraSans-Roman-6d"/>
      <use x="515.91796875" xlink:href="#BitstreamVeraSans-Roman-61"/>
      <use x="577.197265625" xlink:href="#BitstreamVeraSans-Roman-72"/>
      <use x="618.310546875" xlink:href="#BitstreamVeraSans-Roman-6b"/>
      <use x="676.220703125" xlink:href="#BitstreamVeraSans-Roman-74"/>
      <use x="715.4296875" xlink:href="#BitstreamVeraSans-Roman-70"/>
      <use x="778.90625" xlink:href="#BitstreamVeraSans-Roman-72"/>
      <use x="817.76953125" xlink:href="#BitstreamVeraSans-Roman-65"/>
      <use x="879.29296875" xlink:href="#BitstreamVeraSans-Roman-69"/>
      <use x="907.076171875" xlink:href="#BitstreamVeraSans-Roman-73"/>
     </g>
    </g>
    <g id="line2d_31">
     <path d="
M339.609 409.822
L359.769 409.822" style="fill:none;stroke:#008000;stroke-linecap:square;"/>
    </g>
    <g id="line2d_32"/>
    <g id="text_16">
     <!-- Normalpreis -->
     <defs>
      <path d="
M9.42188 75.9844
L18.4062 75.9844
L18.4062 0
L9.42188 0
z
" id="BitstreamVeraSans-Roman-6c"/>
     </defs>
     <g transform="translate(375.609375 414.86175)scale(0.144 -0.144)">
      <use xlink:href="#BitstreamVeraSans-Roman-4e"/>
      <use x="74.8046875" xlink:href="#BitstreamVeraSans-Roman-6f"/>
      <use x="135.986328125" xlink:href="#BitstreamVeraSans-Roman-72"/>
      <use x="175.349609375" xlink:href="#BitstreamVeraSans-Roman-6d"/>
      <use x="272.76171875" xlink:href="#BitstreamVeraSans-Roman-61"/>
      <use x="334.041015625" xlink:href="#BitstreamVeraSans-Roman-6c"/>
      <use x="361.82421875" xlink:href="#BitstreamVeraSans-Roman-70"/>
      <use x="425.30078125" xlink:href="#BitstreamVeraSans-Roman-72"/>
      <use x="464.1640625" xlink:href="#BitstreamVeraSans-Roman-65"/>
      <use x="525.6875" xlink:href="#BitstreamVeraSans-Roman-69"/>
      <use x="553.470703125" xlink:href="#BitstreamVeraSans-Roman-73"/>
     </g>
    </g>
   </g>
  </g>
 </g>
 <defs>
  <clipPath id="pcb2bf987bf">
   <rect height="302.4" width="446.4" x="72.0" y="43.2"/>
  </clipPath>
 </defs>
</svg>
