<?xml version="1.0" encoding="utf-8" standalone="no"?>
<!DOCTYPE svg PUBLIC "-//W3C//DTD SVG 1.1//EN"
  "http://www.w3.org/Graphics/SVG/1.1/DTD/svg11.dtd">
<!-- Created with matplotlib (http://matplotlib.org/) -->
<svg height="432pt" version="1.1" viewBox="0 0 576 432" width="576pt" xmlns="http://www.w3.org/2000/svg" xmlns:xlink="http://www.w3.org/1999/xlink">
 <defs>
  <style type="text/css">
*{stroke-linecap:butt;stroke-linejoin:round;}
  </style>
 </defs>
 <g id="figure_1">
  <g id="patch_1">
   <path d="
M0 432
L576 432
L576 0
L0 0
z
" style="fill:#ffffff;"/>
  </g>
  <g id="axes_1">
   <g id="patch_2">
    <path d="
M72 345.6
L518.4 345.6
L518.4 43.2
L72 43.2
z
" style="fill:#ffffff;"/>
   </g>
   <g id="line2d_1">
    <path clip-path="url(#pcb2bf987bf)" d="
M72 146.792
L72.1276 163.978
L72.5105 159.136
L72.7657 159.136
L72.8933 162.068
L73.1485 110.306
L73.2762 110.306
L73.5314 159.054
L73.659 159.136
L73.9142 162.546
L74.0419 161.591
L74.4247 146.11
L74.6799 151.498
L74.8075 148.361
L75.0628 149.438
L75.1904 149.438
L75.4456 147.338
L75.5732 149.438
L75.8285 115.762
L75.9561 146.315
L76.2113 148.429
L76.3389 144.201
L76.5942 152.657
L76.9772 143.246
L77.3599 138.881
L77.7429 136.699
L77.8703 147.542
L78.1256 149.588
L78.1256 149.588
L78.5084 144.337
L78.8915 154.908
L79.0189 153.885
L79.2741 155.589
L79.4017 117.126
L79.7846 168.82
L80.0398 167.865
L80.1674 168.82
L80.4226 165.942
L80.5503 166.91
L80.9331 162.136
L81.1885 165.001
L81.316 164.046
L81.5712 168.738
L81.6988 167.797
L81.9542 168.752
L82.0816 167.797
L82.3371 163.569
L82.4645 163.569
L82.7197 154.908
L82.8473 160.704
L83.1026 161.659
L83.4854 158.727
L83.613 150.27
L83.9959 58.2035
L84.2511 150.611
L84.3787 149.588
L85.1444 149.588
L85.3999 147.542
L85.5273 147.542
L85.7825 144.337
L85.9101 144.337
L86.1654 143.246
L86.293 147.542
L86.5482 146.519
L86.6758 147.542
L87.0587 147.542
L87.3139 150.611
L87.4415 146.519
L87.6967 147.542
L87.8244 146.519
L88.0796 143.246
L88.2072 145.428
L88.4624 147.542
L88.5901 147.542
L88.8453 150.611
L88.8453 150.611
L88.9729 145.428
L89.2281 144.337
L89.3557 152.589
L89.611 145.292
L89.7386 145.292
L89.9938 148.483
L89.9938 148.483
L90.2491 146.451
L90.3767 124.082
L91.0148 154.635
L91.7804 167.797
L91.9081 167.797
L92.5461 160.159
L92.6738 163.978
L93.3118 160.227
L94.0775 152.043
L94.2051 161.182
L94.8432 195.553
L94.9708 195.471
L95.6089 164.455
L95.7365 164.387
L96.3746 163.5
L97.1403 163.5
L98.0336 149.588
L98.6717 153.203
L98.7993 149.111
L99.4374 142.768
L100.203 160.636
L100.331 132.402
L100.969 155.589
L101.734 166.365
L101.862 166.365
L102.5 164.455
L103.266 165.41
L103.393 163.5
L104.032 162.546
L104.797 163.5
L105.563 165.41
L106.329 166.365
L107.095 189.265
L107.86 186.619
L107.988 183.96
L108.626 176.663
L109.391 173.866
L109.519 174.808
L110.157 166.228
L110.285 166.228
L110.923 176.403
L111.05 172.775
L111.689 169.911
L111.816 169.911
L113.986 168.001
L114.879 147.474
L116.283 168.001
L116.41 168.001
L117.048 168.956
L117.814 180.413
L118.58 180.4
L118.707 178.64
L119.345 173.321
L120.111 169.434
L121.643 167.524
L122.408 164.251
L122.536 164.251
L123.174 158.999
L123.94 160.022
L124.067 161.386
L124.705 151.225
L125.471 155.248
L126.109 159.34
L126.237 166.569
L126.237 166.569
L126.365 165.615
L127.002 170.388
L127.13 170.388
L127.13 170.388
L127.64 171.275
L127.64 171.275
L127.768 169.229
L128.534 154.635
L128.661 168.274
L129.299 168.547
L130.065 162.818
L130.193 163.773
L130.831 151.634
L131.597 167.183
L133.894 143.655
L134.149 144.746
L134.659 168.138
L135.425 159.954
L136.191 157.908
L136.318 158.931
L136.956 158.931
L137.722 175.981
L138.488 170.443
L139.254 166.637
L139.381 169.502
L140.019 171.411
L140.785 180.413
L141.551 171.957
L141.678 168.138
L142.316 160.5
L143.082 167.183
L143.975 179.595
L144.613 176.935
L146.145 159.136
L146.272 159.136
L146.91 167.647
L147.038 164.796
L148.442 152.657
L149.208 152.657
L149.335 165.751
L149.973 160.977
L150.867 174.276
L151.505 160.5
L152.27 164.66
L153.036 158.863
L153.164 158.863
L153.802 156.817
L154.567 153.68
L155.333 148.906
L155.333 148.906
L156.099 150.597
L156.865 147.406
L157.63 155.712
L157.758 154.703
L158.396 152.657
L159.162 149.724
L159.927 138.677
L160.693 167.306
L160.821 167.306
L162.224 150.611
L162.99 174.126
L163.118 173.184
L163.756 153.544
L163.883 153.544
L164.521 173.253
L164.649 173.253
L165.287 170.184
L166.819 164.455
L167.584 173.171
L168.35 167.456
L169.116 172.23
L169.243 171.275
L169.881 171.343
L170.647 173.184
L170.775 173.184
L171.413 170.32
L172.178 170.307
L172.944 152.862
L173.072 167.456
L173.71 168.683
L174.603 168.274
L176.007 168.274
L176.9 168.411
L177.538 165.546
L178.304 168.411
L179.07 174.276
L180.729 174.276
L181.367 173.116
L182.132 167.319
L182.26 167.319
L182.898 174.276
L183.791 174.276
L184.43 170.252
L185.195 168.82
L185.961 164.455
L186.727 174.276
L187.492 179.39
L188.258 167.319
L189.151 184.096
L190.555 152.657
L191.321 153.68
L192.852 178.299
L193.618 176.526
L194.384 148.361
L195.149 176.526
L195.277 175.64
L195.915 174.753
L196.681 180.959
L198.212 179.186
L198.212 179.186
L198.978 202.891
L200.509 179.186
L201.275 177.344
L202.04 176.39
L202.806 184.437
L203.572 186.347
L203.699 184.505
L204.338 180.959
L205.103 186.333
L205.231 186.333
L205.869 185.46
L205.997 186.333
L206.124 185.46
L206.507 181.914
L206.635 155.248
L206.635 155.248
L206.762 186.319
L207.4 184.56
L207.911 183.66
L208.166 167.319
L208.804 175.981
L209.059 183.673
L209.059 183.673
L209.442 175.708
L209.57 175.708
L209.825 168.001
L210.591 176.526
L210.846 176.526
L211.356 187.233
L211.484 184.573
L211.739 184.573
L211.867 181.027
L212.122 181.027
L212.25 182.8
L212.505 181.914
L212.633 182.8
L212.888 186.347
L213.271 186.347
L213.398 184.573
L213.781 181.914
L214.036 185.46
L214.164 185.46
L214.419 184.56
L214.547 185.46
L214.802 186.347
L214.93 188.87
L215.185 188.051
L215.185 188.051
L215.313 187.029
L215.568 186.21
L215.951 188.87
L215.951 188.87
L216.078 188.038
L216.333 177.685
L216.461 193.766
L216.589 192.143
L217.227 190.234
L217.61 194.558
L217.865 193.712
L217.992 189.62
L218.248 189.62
L218.248 189.62
L218.375 188.802
L218.631 190.37
L218.758 189.552
L219.013 190.37
L219.141 193.712
L219.396 192.962
L219.779 191.325
L219.907 192.13
L220.162 192.143
L220.29 191.325
L220.29 191.325
L220.417 191.325
L220.545 190.507
L220.672 193.916
L220.672 193.916
L220.928 186.074
L221.055 200.736
L221.438 197.326
L221.693 212.739
L222.076 209.738
L222.204 207.488
L222.587 198.895
L222.842 186.21
L222.842 186.21
L223.352 199.891
L223.608 199.099
L223.735 197.19
L223.99 189.961
L224.118 192.962
L224.501 190.507
L224.884 181.436
L225.267 192.962
L225.522 192.894
L225.649 180.072
L225.649 180.072
L225.777 191.257
L225.777 191.257
L225.905 185.187
L225.905 185.187
L226.032 190.37
L226.032 190.37
L226.288 190.357
L226.67 187.915
L226.798 185.324
L227.053 189.552
L227.181 187.642
L227.436 180.004
L227.819 183.209
L227.946 190.37
L228.329 190.302
L228.585 189.143
L228.712 191.257
L228.967 192.075
L229.095 189.62
L229.35 191.257
L229.478 194.571
L229.733 197.19
L229.861 216.94
L230.116 216.94
L230.499 210.352
L230.499 210.352
L230.882 216.967
L231.009 216.967
L231.264 215.535
L231.264 215.535
L231.392 206.738
L231.647 206.738
L231.775 205.987
L232.03 205.237
L232.158 205.237
L232.541 205.101
L232.924 205.237
L233.179 174.889
L233.306 204.487
L233.562 201.486
L233.689 202.237
L233.944 180.959
L234.072 200.586
L234.327 197.19
L234.327 197.19
L234.71 187.233
L234.838 187.233
L235.093 180.072
L235.093 180.072
L235.221 183.687
L235.476 181.914
L235.603 181.914
L235.986 177.481
L236.242 181.027
L236.369 180.141
L236.624 174.821
L236.752 181.914
L237.007 181.914
L237.135 181.027
L237.39 181.914
L237.518 181.9
L237.773 185.446
L237.901 183.687
L238.156 185.46
L238.283 185.46
L238.539 192.143
L238.666 137.858
L238.921 185.187
L239.049 185.187
L239.304 182.05
L239.432 185.187
L239.815 176.663
L240.07 179.868
L240.453 177.208
L240.453 177.208
L240.58 182.527
L240.836 180.754
L241.219 183.414
L241.346 200.054
L241.601 199.099
L242.112 194.871
L242.367 191.598
L242.495 185.869
L243.133 199.031
L243.26 194.939
L243.516 195.69
L243.643 195.69
L243.898 193.235
L244.026 193.235
L244.281 182.391
L244.409 183.278
L244.664 201.418
L244.792 200.654
L245.047 198.213
L245.047 198.213
L245.175 166.637
L245.43 193.916
L245.557 186.142
L245.813 184.355
L245.94 196.508
L246.323 195.621
L246.578 194.053
L246.578 194.053
L246.706 194.053
L246.961 194.735
L247.089 193.916
L247.344 194.721
L247.727 191.325
L247.855 188.87
L248.237 190.507
L248.493 190.507
L248.62 191.257
L249.003 181.846
L249.258 191.325
L249.641 193.916
L249.641 193.916
L249.769 193.916
L250.024 194.871
L250.152 194.053
L250.534 194.053
L250.79 195.69
L250.917 195.69
L251.173 191.598
L251.3 195.69
L251.555 194.871
L251.683 194.053
L251.938 193.235
L252.066 212.944
L252.449 210.693
L252.704 206.192
L252.832 206.929
L253.087 206.942
L253.214 206.192
L253.47 205.442
L253.597 203.873
L253.98 193.507
L254.363 191.721
L254.618 188.461
L254.746 185.051
L254.746 185.051
L255.001 195.13
L255.129 195.13
L255.129 195.13
L255.384 200.054
L255.511 199.236
L256.277 186.619
L256.915 186.606
L257.043 204.146
L257.298 203.873
L257.426 203.123
L257.809 203.123
L258.064 206.192
L258.064 206.192
L258.447 204.692
L258.574 205.442
L258.83 211.416
L258.957 208.238
L259.212 209.193
L259.212 209.193
L259.34 208.224
L259.595 207.488
L259.595 207.488
L259.978 198.281
L260.106 197.449
L260.361 207.488
L260.744 202.373
L260.871 203.055
L261.127 202.646
L261.254 192.962
L261.637 185.46
L261.892 186.347
L262.02 184.573
L262.275 184.505
L262.403 181.846
L262.658 184.505
L263.168 180.823
L263.424 175.503
L263.424 175.503
L263.551 175.503
L263.807 174.548
L263.934 174.548
L264.189 172.707
L264.189 172.707
L264.317 175.462
L264.7 175.476
L264.955 176.376
L264.955 176.376
L265.083 176.376
L265.466 168.956
L265.593 172.775
L265.848 172.775
L266.104 180.823
L266.231 180.823
L266.486 179.936
L266.614 183.55
L266.997 183.55
L267.252 165.751
L267.38 165.751
L267.635 166.706
L267.763 165.751
L268.018 165.751
L268.145 164.796
L268.401 184.505
L268.528 169.024
L268.784 153.68
L268.911 169.979
L269.294 180.959
L269.549 181.846
L269.932 179.186
L270.315 179.172
L270.443 175.571
L270.825 180.686
L271.081 179.186
L271.463 178.286
L271.846 175.64
L271.974 171.943
L272.229 172.912
L272.357 194.598
L272.612 191.871
L272.74 192.416
L272.995 191.598
L273.122 192.962
L273.378 190.507
L273.378 190.507
L273.506 179.186
L273.761 178.299
L273.888 180.072
L274.143 185.46
L274.271 185.528
L274.654 177.481
L274.909 183.687
L274.909 183.687
L275.037 182.868
L275.292 185.051
L275.675 186.347
L275.802 185.324
L276.058 184.423
L276.185 182.664
L276.441 147.815
L276.568 181.436
L276.823 204.214
L276.951 201.896
L277.206 200.191
L277.334 201.009
L277.589 203.464
L277.717 202.714
L277.972 192.962
L277.972 192.962
L278.099 159.545
L278.355 157.499
L278.482 188.802
L278.738 185.392
L278.865 164.66
L279.12 174.139
L279.631 171.329
L279.886 173.253
L280.014 171.261
L280.269 174.112
L280.269 174.112
L280.397 171.275
L280.652 174.139
L281.035 174.126
L281.035 174.126
L281.162 186.892
L281.417 186.878
L281.545 186.006
L281.801 178.231
L282.183 184.232
L282.311 182.459
L282.566 177.344
L282.694 165.274
L282.949 177.344
L283.077 172.843
L283.332 182.459
L283.459 182.459
L283.715 179.8
L283.842 179.8
L284.097 182.459
L284.225 180.686
L284.48 185.105
L284.736 185.119
L285.246 186.892
L285.374 192.102
L285.756 192.102
L286.012 175.844
L286.139 191.257
L286.395 192.102
L286.522 191.257
L286.777 190.438
L286.905 192.116
L287.16 190.438
L287.288 188.802
L287.543 187.165
L287.671 185.392
L287.926 187.165
L288.054 185.392
L288.309 191.257
L288.437 190.438
L288.692 189.62
L288.819 187.915
L289.074 186.21
L289.202 186.21
L289.457 185.324
L289.84 182.664
L289.968 180.891
L290.223 180.004
L290.351 179.991
L290.606 178.231
L290.733 179.595
L290.861 179.581
L290.989 178.708
L291.116 179.595
L291.372 183.55
L291.499 182.664
L291.754 179.595
L292.265 183.537
L292.648 180.891
L292.903 181.777
L293.031 180.959
L293.286 181.777
L293.286 181.777
L293.413 183.537
L293.669 183.537
L293.669 183.537
L293.796 182.664
L294.051 180.004
L294.051 180.004
L294.179 176.458
L294.434 175.571
L294.562 174.617
L294.817 173.73
L294.817 173.73
L295.328 167.047
L295.583 183.51
L295.71 183.51
L296.349 181.777
L296.476 178.217
L296.731 177.344
L296.859 180.004
L297.114 178.231
L297.242 174.276
L297.497 175.162
L297.625 176.867
L298.008 172.366
L298.263 171.411
L298.39 172.366
L298.646 173.321
L298.773 173.253
L299.156 170.388
L299.411 167.524
L299.539 167.524
L299.794 168.438
L299.922 169.42
L300.305 166.351
L300.687 161.591
L300.943 169.093
L301.453 170.375
L301.836 170.375
L302.091 166.569
L302.219 169.434
L302.474 169.434
L302.474 169.434
L302.857 170.375
L302.985 169.434
L303.112 169.434
L303.368 170.375
L303.623 169.434
L303.75 171.343
L304.133 171.343
L304.388 179.118
L304.771 178.231
L304.899 182.323
L305.154 182.323
L305.282 183.55
L305.537 182.664
L305.664 180.891
L305.92 179.118
L306.047 179.118
L306.43 174.685
L306.813 178.095
L307.068 177.344
L307.068 177.344
L307.196 181.777
L307.451 181.777
L307.579 177.344
L307.834 178.708
L307.962 174.276
L308.344 174.276
L308.727 181.777
L308.983 180.55
L309.11 183.537
L309.365 183.537
L309.493 182.664
L309.748 183.55
L309.876 182.664
L310.131 181.777
L310.131 181.777
L310.259 180.891
L310.514 181.75
L310.642 181.764
L310.897 202.714
L311.407 202.714
L311.662 177.003
L311.79 202.714
L312.045 198.827
L312.173 198.827
L312.428 197.995
L312.556 193.78
L312.811 195.417
L312.939 192.962
L313.194 191.325
L313.577 191.325
L313.704 192.143
L313.96 192.962
L314.087 196.222
L314.342 194.994
L314.47 193.235
L314.725 195.962
L314.853 195.417
L315.108 191.871
L315.236 193.235
L315.491 95.7121
L315.619 174.48
L315.874 192.143
L316.384 192.143
L316.767 189.675
L317.022 189.675
L317.15 191.325
L317.533 188.051
L317.916 182.732
L318.171 183.619
L318.298 179.186
L318.554 180.072
L318.554 180.072
L318.681 178.299
L318.937 177.413
L319.064 178.299
L319.319 177.413
L319.319 177.413
L319.447 177.413
L319.702 174.617
L319.83 174.603
L320.085 173.716
L320.213 177.413
L320.596 176.526
L320.851 173.866
L320.851 173.866
L321.234 174.276
L321.361 173.389
L321.616 177.413
L321.999 176.526
L322.127 177.413
L322.765 175.64
L322.893 173.866
L323.148 176.526
L323.275 176.526
L323.531 177.413
L323.658 177.413
L323.914 175.64
L323.914 175.64
L324.041 177.413
L324.296 183.619
L324.807 183.687
L325.062 185.392
L325.19 183.619
L325.445 182.732
L325.573 181.846
L325.828 185.392
L325.956 184.505
L326.338 182.732
L326.593 185.596
L326.721 184.71
L326.976 176.049
L327.104 185.596
L327.359 196.222
L327.487 194.598
L327.87 192.825
L328.125 196.222
L328.252 196.222
L328.508 194.598
L328.891 194.598
L329.018 189.688
L329.273 192.962
L329.401 189.688
L329.656 191.325
L329.784 190.507
L330.039 212.057
L330.167 210.557
L330.422 212.057
L330.55 211.307
L330.805 210.557
L330.933 208.238
L331.188 206.738
L331.315 176.322
L331.57 175.435
L331.698 204.487
L332.081 202.714
L332.336 203.737
L332.464 205.237
L332.847 193.78
L333.23 186.278
L333.485 186.074
L333.868 193.916
L333.995 193.916
L334.25 214.308
L334.633 212.03
L335.016 201.418
L335.144 210.147
L335.399 211.634
L335.527 208.647
L335.782 207.42
L335.909 203.123
L336.165 206.874
L336.292 202.373
L336.548 173.253
L336.675 194.598
L337.058 206.11
L337.313 199.85
L337.441 204.351
L338.079 196.44
L338.207 190.711
L338.462 189.893
L338.589 187.029
L338.845 191.461
L338.972 189.074
L339.227 188.256
L339.355 189.074
L339.738 185.528
L340.121 185.528
L340.376 184.642
L340.504 184.642
L340.759 185.528
L340.886 183.755
L341.142 183.755
L341.269 182.868
L341.525 184.642
L341.652 184.642
L341.907 174.139
L342.035 174.139
L342.29 173.253
L342.418 174.139
L342.673 168.956
L342.801 168.956
L343.056 181.982
L343.184 181.095
L343.439 181.982
L343.566 181.095
L343.822 183.755
L343.822 183.755
L343.949 183.755
L344.204 185.528
L344.332 183.755
L344.588 183.755
L344.97 189.688
L345.098 190.507
L345.353 189.143
L345.353 189.143
L345.481 202.1
L345.863 180.209
L346.246 206.601
L346.502 200.054
L346.629 200.873
L346.884 196.781
L346.884 196.781
L347.012 197.599
L347.267 196.508
L347.65 199.236
L347.778 202.373
L348.033 205.783
L348.161 204.283
L348.543 201.964
L348.926 205.728
L349.181 204.214
L349.309 201.896
L349.564 199.509
L349.692 200.3
L350.33 200.3
L350.458 201.145
L350.713 201.964
L350.84 201.964
L351.224 194.53
L351.606 197.804
L351.989 202.769
L352.244 202.769
L352.372 201.964
L352.627 201.964
L352.755 201.214
L353.01 201.214
L353.138 199.577
L353.393 201.964
L353.52 201.214
L353.776 202.755
L353.776 202.755
L354.158 204.214
L354.286 203.464
L354.541 201.077
L354.669 196.167
L354.924 199.577
L355.052 196.099
L355.307 193.644
L355.307 193.644
L355.817 185.324
L356.073 184.437
L356.073 184.437
L356.2 184.437
L356.583 191.871
L356.838 193.63
L356.966 192.812
L357.221 191.993
L357.477 188.461
L357.732 186.756
L357.987 188.733
L358.115 153.68
L358.37 171.057
L358.37 171.057
L358.88 167.251
L359.136 191.993
L359.263 191.993
L359.518 199.318
L359.646 170.457
L359.901 199.577
L360.029 201.2
L360.284 201.2
L360.412 199.577
L360.667 199.577
L360.795 201.2
L361.05 201.2
L361.433 184.164
L361.56 183.346
L361.816 192.553
L361.943 191.734
L362.198 193.221
L362.581 190.984
L362.709 192.621
L362.964 191.802
L363.092 191.802
L363.347 201.964
L363.474 201.964
L363.73 201.145
L363.857 197.872
L364.113 194.598
L364.24 186.96
L364.495 186.074
L364.878 204.214
L365.389 197.599
L365.644 204.201
L365.772 203.464
L366.027 208.17
L366.027 208.17
L367.941 208.17
L368.069 156.749
L368.324 156.735
L368.451 154.703
L368.707 208.17
L370.366 208.17
L370.749 198.759
L371.004 200.354
L371.131 194.394
L371.387 199.509
L371.514 194.598
L372.152 200.327
L372.28 199.44
L372.535 207.351
L372.663 205.851
L372.918 196.167
L373.046 205.51
L373.301 203.996
L373.428 200.463
L373.684 197.736
L373.684 197.736
L373.811 198.554
L374.067 197.736
L374.194 198.554
L374.449 197.736
L374.577 196.508
L374.832 198.759
L374.96 203.601
L375.215 197.599
L375.343 199.236
L375.598 205.837
L375.726 205.851
L376.108 202.85
L376.364 202.1
L376.491 202.1
L376.746 204.146
L376.874 204.146
L377.129 203.587
L377.257 203.587
L377.512 202.032
L377.512 202.032
L377.64 203.587
L377.767 203.587
L378.023 208.238
L378.278 201.282
L378.405 209.193
L378.661 208.443
L378.788 208.443
L379.044 206.738
L379.426 201.418
L379.554 200.668
L379.809 199.85
L379.937 192.757
L380.575 205.987
L380.958 207.897
L381.086 199.85
L381.341 199.031
L381.468 195.212
L381.851 195.212
L382.107 197.395
L382.234 200.668
L382.489 199.031
L382.617 199.031
L383 194.121
L383.383 199.85
L383.638 153.68
L384.021 204.623
L384.148 204.623
L384.403 203.123
L384.531 206.11
L384.786 204.623
L385.169 203.873
L385.297 203.123
L385.552 204.623
L385.68 203.805
L385.935 204.623
L386.062 194.598
L386.318 205.374
L386.445 205.237
L386.701 208.715
L386.828 201.623
L387.083 202.359
L387.211 200.804
L387.466 211.17
L387.594 209.616
L387.849 210.42
L387.977 209.67
L388.232 209.943
L388.232 209.943
L388.36 211.402
L388.615 208.443
L388.742 205.442
L388.998 204.692
L389.125 204.692
L389.38 203.123
L389.508 203.942
L389.763 203.942
L389.891 206.192
L390.146 206.178
L390.274 193.78
L390.529 211.375
L390.657 187.779
L390.912 190.507
L391.039 189.688
L391.295 207.488
L391.422 196.576
L391.678 301.532
L391.805 245.883
L392.06 212.112
L392.188 212.112
L392.443 196.644
L392.571 164.114
L392.826 210.693
L393.209 205.442
L393.337 205.442
L393.592 204.692
L393.975 196.713
L394.102 197.531
L394.102 197.531
L394.485 195.076
L394.74 196.713
L394.868 195.894
L395.123 195.076
L395.251 207.692
L395.506 208.074
L395.634 210.693
L395.889 210.679
L396.016 207.692
L396.272 205.442
L396.399 206.192
L396.655 204.692
L397.037 208.238
L397.165 208.443
L397.42 211.58
L397.548 211.58
L397.803 212.944
L398.186 212.944
L398.569 188.188
L398.696 204.146
L398.952 204.146
L399.079 204.883
L399.335 211.443
L399.462 211.443
L399.717 169.979
L399.845 194.598
L400.1 194.598
L400.228 210.625
L400.483 180.345
L400.611 207.488
L400.866 207.488
L400.993 204.76
L401.249 202.032
L401.376 202.782
L401.632 202.782
L401.759 207.488
L402.014 206.724
L402.142 205.919
L402.397 206.192
L402.525 203.532
L402.78 206.192
L402.908 204.487
L403.163 202.987
L403.291 205.237
L403.546 205.237
L403.673 202.987
L403.929 203.737
L404.311 195.758
L404.439 194.939
L404.694 201.486
L404.822 201.486
L405.077 199.918
L405.205 196.576
L405.46 197.463
L405.588 196.631
L405.843 193.507
L405.97 186.96
L406.226 197.463
L406.353 195.008
L406.609 193.371
L406.736 194.189
L407.119 192.962
L407.374 194.598
L407.502 199.099
L407.757 196.576
L408.14 199.099
L408.268 197.463
L408.523 197.19
L408.65 194.735
L408.906 195.553
L409.033 196.372
L409.289 199.918
L409.416 198.281
L409.671 199.918
L409.799 199.918
L410.437 196.508
L410.565 196.508
L410.82 197.326
L410.948 197.326
L411.203 195.69
L411.33 197.326
L411.586 199.086
L411.713 197.326
L411.968 199.086
L412.096 197.19
L412.351 199.086
L412.479 199.086
L412.607 199.918
L412.989 199.099
L413.245 198.281
L413.5 199.918
L413.627 199.904
L413.883 198.145
L414.01 198.949
L414.393 194.871
L414.648 194.871
L414.776 192.825
L415.031 192.825
L415.159 192.143
L415.414 193.098
L415.542 186.96
L415.797 182.527
L415.925 193.916
L416.18 194.871
L416.307 190.779
L416.563 195.676
L416.69 85.4825
L416.945 193.848
L417.073 194.871
L417.328 199.099
L417.456 199.099
L417.711 198.69
L417.839 199.904
L418.094 199.918
L418.222 204.555
L418.477 205.987
L418.604 205.851
L418.86 206.697
L418.987 205.101
L419.243 203.669
L419.625 198.895
L419.753 202.168
L420.008 204.01
L420.136 203.26
L420.519 189.756
L420.902 182.868
L421.157 183.755
L421.284 182.868
L421.54 193.098
L421.667 191.871
L421.922 191.461
L422.05 192.28
L422.305 191.461
L422.433 176.526
L422.688 175.64
L422.816 153.68
L423.071 140.04
L423.199 177.413
L423.454 179.172
L423.581 194.38
L423.964 189.143
L424.602 189.143
L424.73 188.87
L424.985 192.416
L425.113 206.724
L425.496 206.71
L425.751 195.008
L425.879 194.598
L426.134 205.237
L426.261 202.919
L426.517 203.737
L426.644 203.737
L426.899 194.598
L427.793 181.914
L428.048 119.104
L428.176 164.728
L428.431 175.981
L428.558 171.411
L428.814 176.867
L428.941 175.094
L429.197 175.094
L429.324 173.321
L429.707 175.981
L429.962 175.094
L430.09 177.754
L430.345 179.254
L430.473 178.367
L430.728 189.688
L430.856 189.688
L430.983 188.051
L431.238 189.688
L431.621 206.86
L432.004 206.86
L432.387 198.267
L432.642 197.64
L432.642 197.64
L432.77 197.64
L433.025 196.849
L433.153 206.86
L434.939 206.86
L435.067 193.848
L435.322 206.056
L435.45 205.305
L435.705 176.867
L435.833 186.142
L436.088 184.369
L436.215 185.255
L436.471 204.146
L436.981 189.756
L437.236 198.213
L437.364 196.508
L437.619 195.758
L438.002 206.86
L438.13 206.86
L438.513 192.962
L438.768 192.143
L438.895 191.325
L439.151 188.87
L439.533 205.987
L439.661 205.237
L439.916 204.487
L440.044 204.487
L440.299 203.737
L440.299 203.737
L440.427 202.987
L440.682 185.187
L441.192 202.237
L441.448 192.416
L441.575 194.598
L441.831 206.874
L441.831 206.874
L441.958 206.874
L442.341 177.822
L442.596 208.224
L442.724 206.738
L442.979 206.738
L443.107 203.873
L443.362 200.668
L443.49 200.668
L443.745 197.395
L443.872 197.395
L444.128 201.418
L444.255 200.668
L444.51 201.418
L444.893 196.563
L445.021 196.576
L445.276 199.918
L445.404 199.918
L446.042 193.848
L446.169 198.213
L446.425 196.508
L446.552 194.598
L446.808 194.871
L446.935 194.598
L447.19 190.234
L447.318 190.234
L447.573 200.736
L447.701 199.918
L447.956 196.644
L448.084 196.644
L448.339 195.826
L448.467 193.371
L448.722 193.371
L448.849 199.918
L449.232 199.918
L449.487 206.738
L449.487 206.738
L449.615 206.738
L449.87 205.987
L449.998 203.737
L450.126 204.487
L450.381 204.487
L450.636 202.987
L451.019 206.738
L451.146 204.487
L451.402 204.487
L451.529 203.737
L451.785 204.487
L452.167 206.56
L452.295 205.783
L452.55 206.56
L452.933 206.574
L453.061 205.783
L453.444 205.783
L453.699 205.033
L454.082 167.319
L454.209 203.396
L454.592 199.509
L454.975 199.509
L455.23 194.462
L455.358 195.417
L455.613 191.052
L455.741 191.871
L455.996 190.507
L456.123 191.871
L456.379 190.234
L456.889 183.414
L457.144 190.234
L457.527 187.779
L457.655 185.187
L458.038 188.597
L458.293 196.235
L458.421 194.598
L458.676 184.71
L458.803 193.78
L459.059 192.962
L459.186 188.87
L459.442 187.983
L459.569 188.802
L459.824 188.802
L460.207 186.415
L460.335 181.914
L460.59 181.027
L460.718 179.254
L460.973 180.141
L461.101 192.962
L461.356 200.327
L461.866 200.313
L462.121 201.868
L462.249 201.827
L462.504 202.632
L462.887 202.632
L463.015 200.668
L463.27 202.632
L463.398 201.077
L463.653 202.632
L463.781 201.827
L464.036 204.119
L464.163 202.578
L464.419 193.78
L464.546 194.53
L464.801 197.326
L464.929 197.313
L465.184 198.813
L465.312 197.19
L465.567 198.827
L465.567 198.827
L465.95 196.372
L466.078 197.19
L466.333 192.143
L466.46 192.143
L466.843 185.324
L467.098 194.598
L467.098 194.598
L467.226 193.78
L467.481 193.562
L467.864 191.12
L467.992 192.757
L468.247 192.757
L468.63 194.585
L468.757 193.78
L469.013 185.46
L469.14 194.585
L469.396 193.78
L469.523 194.571
L469.778 193.78
L469.906 194.585
L470.161 193.78
L470.289 194.585
L470.544 190.779
L470.672 190.779
L470.927 183.687
L471.055 174.139
L471.437 166.365
L471.82 172.093
L472.075 172.093
L472.203 194.585
L472.458 193.78
L472.841 193.78
L472.969 192.962
L473.224 193.78
L473.352 192.962
L473.607 192.962
L473.734 195.403
L474.118 197.313
L474.373 197.299
L474.883 189.811
L475.138 189.006
L475.266 188.993
L475.649 184.642
L475.904 188.188
L476.032 188.188
L476.287 185.596
L476.414 188.174
L477.052 181.436
L477.18 182.459
L477.435 179.186
L477.563 180.959
L478.201 184.219
L478.329 182.459
L478.584 180.959
L478.711 183.332
L478.967 184.232
L479.094 188.993
L479.35 188.12
L479.477 188.993
L479.732 188.12
L479.86 188.993
L480.115 188.993
L480.243 193.78
L480.498 193.78
L480.626 194.571
L480.881 194.571
L481.009 193.78
L481.264 193.78
L481.391 194.571
L481.647 194.571
L481.774 193.78
L482.03 191.325
L482.54 191.325
L482.795 189.688
L482.923 182.732
L483.178 189.661
L483.306 187.097
L483.561 186.278
L483.689 184.505
L483.944 185.187
L484.071 184.164
L484.327 194.571
L484.454 194.571
L484.709 179.186
L484.837 193.78
L485.092 194.585
L485.22 194.585
L485.475 197.463
L485.986 198.008
L487.9 198.008
L488.155 197.736
L488.283 196.917
L488.538 196.917
L488.666 153.68
L488.921 196.099
L489.048 197.736
L489.304 195.826
L489.431 197.736
L489.686 196.781
L489.814 196.917
L490.069 180.754
L490.197 181.641
L490.58 181.641
L490.835 194.598
L490.963 194.598
L491.218 193.78
L491.345 191.734
L491.601 182.391
L491.728 190.084
L492.494 181.164
L492.877 184.301
L493.132 184.301
L493.26 182.527
L493.515 186.947
L493.643 182.732
L493.898 186.619
L494.026 185.733
L494.791 191.734
L495.174 186.756
L495.429 185.869
L495.557 186.756
L495.684 188.461
L495.94 188.324
L496.195 187.506
L496.322 189.961
L496.705 185.733
L496.961 184.846
L497.088 184.846
L497.343 185.733
L497.854 179.527
L498.109 179.513
L498.237 181.3
L498.492 189.143
L498.62 189.129
L498.875 189.961
L499.258 189.961
L499.258 189.961
L499.64 184.301
L499.768 181.641
L500.023 180.754
L500.151 176.663
L500.406 180.686
L500.534 180.754
L500.789 181.627
L501.172 74.98
L501.299 180.277
L501.555 180.072
L501.682 179.172
L501.938 181.382
L502.448 181.368
L502.831 177.413
L503.086 171.957
L503.214 174.753
L503.469 173.866
L503.597 171.957
L503.979 176.526
L504.235 176.458
L504.362 181.436
L504.617 182.323
L504.873 182.309
L505.128 177.003
L505.383 176.049
L505.511 185.187
L505.766 185.187
L505.894 187.779
L506.149 186.96
L506.277 187.779
L506.532 186.96
L506.915 186.96
L507.042 187.779
L507.297 187.779
L507.808 181.641
L508.063 181.641
L508.191 186.074
L508.574 149.588
L508.829 140.04
L509.212 186.074
L509.339 186.742
L509.722 186.756
L509.977 185.187
L510.36 198.527
L510.488 196.917
L510.743 196.917
L510.871 194.735
L511.126 197.736
L511.636 196.849
L511.892 197.736
L512.019 180.959
L512.274 203.982
L512.402 200.736
L512.657 203.982
L512.785 204.01
L513.04 197.054
L513.168 197.872
L513.551 205.578
L513.806 204.078
L513.933 205.496
L514.189 193.78
L514.317 147.951
L514.572 205.51
L514.699 205.51
L515.337 203.164
L515.72 200.859
L515.848 201.623
L516.103 202.373
L516.486 191.802
L516.613 198.418
L516.996 195.962
L517.251 158.113
L517.379 180.618
L517.762 194.598
L518.017 195.949
L518.145 195.144
L518.4 161.182
L518.4 161.182" style="fill:none;stroke:#ff0000;stroke-linecap:square;"/>
   </g>
   <g id="line2d_2">
    <path clip-path="url(#pcb2bf987bf)" d="
M72 334.308
L72.1276 334.403
L72.7657 334.403
L72.8933 334.622
L74.2971 334.567
L74.4247 334.103
L75.8285 334.076
L75.9561 333.83
L76.5942 333.83
L76.7218 334.294
L78.1256 334.212
L78.1256 334.212
L78.2532 334.581
L80.4226 334.662
L80.5503 334.758
L81.1885 334.758
L81.316 334.567
L81.9542 334.567
L82.0816 334.853
L82.7197 334.853
L82.8473 334.594
L83.4854 334.594
L83.613 334.431
L85.7825 334.349
L85.9101 334.199
L87.3139 334.308
L87.4415 334.54
L88.8453 334.444
L88.8453 334.444
L88.9729 334.826
L89.611 334.826
L89.7386 334.417
L91.0148 334.349
L91.9081 334.881
L92.6738 335.113
L93.3118 335.072
L94.2051 334.662
L94.9708 334.922
L95.7365 334.403
L96.3746 334.171
L97.1403 334.431
L98.0336 334.253
L98.7993 333.667
L99.4374 333.981
L100.331 334.185
L100.969 334.526
L101.862 334.062
L102.5 334.499
L104.797 334.376
L105.563 334.417
L106.329 334.24
L107.095 334.417
L108.626 334.362
L109.519 333.749
L110.285 333.612
L111.05 333.694
L111.816 333.585
L113.986 333.571
L114.879 334.062
L116.41 333.912
L118.707 334.526
L119.345 334.321
L120.111 333.762
L121.004 333.544
L121.643 333.53
L122.536 333.626
L123.174 333.585
L124.067 333.258
L124.705 333.612
L125.471 333.394
L126.365 333.489
L127.13 334.09
L127.13 334.09
L127.768 334.158
L128.661 334.035
L129.299 334.185
L131.597 333.735
L132.362 334.24
L132.362 334.24
L133.894 334.212
L134.149 334.431
L134.659 334.431
L135.425 334.622
L136.318 334.431
L136.956 334.703
L137.722 334.676
L138.488 334.908
L139.381 334.444
L140.019 334.458
L140.785 334.853
L141.678 334.785
L142.316 334.417
L143.082 334.512
L143.975 334.744
L144.613 334.853
L145.507 334.799
L146.272 334.526
L147.038 334.526
L147.676 334.308
L148.442 334.499
L149.335 334.485
L149.973 334.826
L150.867 335.072
L151.505 334.758
L152.27 334.144
L153.164 334.144
L153.802 333.83
L155.333 333.762
L155.333 333.762
L156.099 334.049
L156.865 333.844
L157.758 333.844
L158.396 334.24
L159.927 333.912
L162.224 334.622
L163.118 334.662
L163.883 334.949
L164.649 334.581
L165.287 335.113
L166.053 334.908
L167.712 334.758
L168.35 335.058
L169.243 334.826
L170.775 335.181
L171.413 335.072
L172.178 334.622
L173.072 334.853
L173.71 334.813
L174.603 334.881
L176.007 334.703
L176.9 335.154
L178.304 334.894
L179.07 335.14
L180.601 334.131
L180.729 334.131
L181.367 333.953
L182.26 333.858
L182.898 333.885
L183.791 334.581
L184.43 334.076
L185.195 334.362
L186.727 333.844
L187.492 334.54
L188.258 334.922
L189.151 334.281
L190.555 334.294
L191.321 334.458
L191.321 334.458
L192.852 335.031
L198.212 335.003
L198.212 335.003
L198.978 335.276
L201.275 334.472
L202.04 334.703
L203.572 334.785
L203.699 334.785
L204.338 334.362
L205.231 334.321
L206.124 334.758
L207.4 334.758
L209.059 334.267
L209.059 334.267
L209.57 334.622
L209.825 334.622
L210.591 334.117
L210.846 334.199
L211.356 334.199
L211.484 334.826
L212.122 334.826
L212.25 334.581
L212.888 334.581
L213.398 334.744
L213.654 334.744
L213.654 334.744
L213.781 334.417
L214.419 334.417
L214.547 334.54
L215.185 334.54
L215.185 334.54
L215.313 334.894
L215.951 334.894
L215.951 334.894
L216.078 335.031
L218.248 335.017
L218.248 335.017
L218.375 334.799
L219.013 334.799
L219.141 334.949
L220.545 334.853
L220.672 334.758
L220.672 334.758
L221.31 334.758
L221.438 335.126
L222.842 335.154
L222.842 335.154
L223.352 334.649
L224.373 334.622
L224.501 334.431
L228.967 334.499
L229.095 334.594
L229.733 334.594
L229.861 334.963
L232.03 335.003
L232.158 334.84
L232.796 334.84
L232.796 334.84
L232.924 334.963
L233.562 334.963
L233.689 334.717
L234.327 334.717
L234.327 334.717
L234.455 334.362
L235.093 334.362
L235.093 334.362
L235.221 333.83
L236.624 333.735
L236.752 333.571
L237.39 333.571
L237.518 333.912
L238.921 333.912
L239.049 334.185
L240.453 334.117
L240.453 334.117
L240.58 334.008
L241.219 334.008
L241.346 334.499
L242.75 334.417
L243.133 334.362
L244.281 334.376
L244.409 334.117
L245.047 334.117
L245.047 334.117
L245.175 334.444
L247.344 334.362
L249.641 334.131
L249.641 334.131
L249.769 334.444
L251.173 334.526
L251.555 334.581
L253.47 334.526
L253.597 334.431
L254.235 334.431
L254.363 333.721
L255.001 333.721
L255.129 334.062
L255.129 334.062
L255.767 334.062
L255.767 334.062
L255.894 334.376
L256.532 334.376
L256.66 334.185
L256.66 334.185
L257.298 334.185
L257.426 334.594
L258.064 334.594
L258.064 334.594
L258.574 334.908
L259.595 335.017
L259.595 335.017
L259.723 334.785
L261.127 334.799
L261.254 334.499
L261.892 334.499
L262.02 334.622
L263.424 334.635
L263.424 334.635
L263.551 334.185
L264.189 334.185
L264.189 334.185
L264.317 333.899
L264.955 333.899
L264.955 333.899
L265.083 334.226
L266.486 334.267
L266.614 334.431
L267.252 334.431
L267.38 334.594
L268.018 334.594
L268.145 334.758
L269.549 334.826
L269.677 334.963
L271.081 334.963
L271.463 335.085
L271.846 335.085
L271.974 334.813
L272.612 334.813
L272.74 335.167
L274.143 335.222
L274.271 334.976
L274.909 334.976
L274.909 334.976
L275.037 334.799
L276.441 334.881
L276.568 334.39
L277.972 334.39
L277.972 334.39
L278.099 335.154
L278.738 335.154
L278.865 334.662
L279.503 334.662
L279.631 334.431
L280.269 334.431
L280.269 334.431
L280.397 334.635
L282.566 334.526
L282.694 334.09
L283.332 334.09
L283.459 334.417
L284.736 334.417
L286.395 334.813
L287.926 334.922
L288.054 334.826
L290.223 334.717
L290.351 334.199
L290.989 334.199
L291.116 334.008
L291.754 334.008
L292.265 334.253
L293.286 334.321
L293.286 334.321
L293.413 334.431
L294.051 334.431
L294.051 334.431
L294.179 334.281
L294.817 334.281
L294.817 334.281
L294.945 334.062
L295.583 334.062
L295.71 334.458
L296.349 334.458
L296.476 334.662
L299.411 334.758
L299.539 334.171
L300.943 334.199
L301.07 334.376
L301.708 334.376
L301.836 334.676
L304.005 334.676
L304.005 334.676
L304.133 334.813
L304.771 334.813
L304.899 335.126
L307.068 335.14
L307.068 335.14
L307.196 334.922
L308.6 334.922
L308.6 334.922
L308.727 335.044
L309.365 335.044
L309.493 335.249
L310.897 335.235
L311.024 335.767
L311.662 335.767
L311.79 335.003
L313.194 334.922
L313.321 334.758
L314.725 334.867
L314.853 335.167
L315.491 335.167
L315.619 334.84
L317.788 334.785
L317.916 334.362
L319.319 334.253
L319.319 334.253
L319.447 334.635
L320.085 334.635
L320.213 334.349
L320.851 334.349
L320.851 334.349
L321.361 334.103
L321.616 334.103
L322.127 334.444
L323.658 334.376
L324.679 334.376
L324.807 334.54
L327.742 334.526
L327.87 335.058
L328.508 335.058
L328.635 335.317
L330.039 335.317
L330.167 335.481
L331.57 335.385
L331.698 335.126
L333.102 335.14
L333.23 334.772
L333.868 334.772
L333.995 335.167
L336.165 335.167
L336.292 334.853
L337.696 334.922
L337.824 334.608
L338.462 334.608
L338.589 334.294
L339.866 334.362
L340.121 334.131
L342.29 334.09
L342.418 333.967
L344.588 334.062
L344.715 334.39
L345.353 334.39
L345.353 334.39
L345.481 334.867
L347.65 334.935
L347.778 335.058
L349.947 335.167
L350.075 334.908
L350.713 334.908
L350.84 335.249
L351.224 335.249
L351.861 335.085
L352.244 335.085
L352.372 335.208
L353.01 335.208
L353.138 335.072
L353.776 335.072
L353.776 335.072
L354.286 335.222
L354.541 335.222
L354.669 335.085
L355.307 335.085
L355.307 335.085
L355.435 334.813
L356.073 334.813
L356.073 334.813
L356.2 334.567
L356.838 334.567
L356.966 334.703
L357.477 334.703
L357.732 334.253
L359.136 334.294
L359.263 334.772
L359.901 334.772
L360.029 335.167
L361.433 335.14
L361.56 334.785
L362.198 334.785
L362.326 334.908
L363.73 334.935
L363.857 335.044
L364.495 335.044
L364.623 334.785
L365.261 334.785
L365.389 335.304
L366.027 335.304
L366.027 335.304
L366.155 335.563
L366.792 335.563
L366.92 335.685
L367.558 335.685
L367.686 335.508
L369.09 335.413
L369.855 335.358
L369.983 335.426
L370.621 335.426
L370.749 335.222
L372.918 335.208
L373.046 334.949
L373.684 334.949
L373.684 334.949
L373.811 334.649
L375.215 334.649
L375.343 334.881
L375.981 334.881
L376.108 335.222
L377.512 335.126
L377.512 335.126
L377.767 334.99
L378.278 334.99
L378.405 335.358
L379.809 335.304
L379.937 334.99
L380.575 334.99
L380.703 335.317
L381.341 335.317
L381.468 335.126
L382.872 335.044
L383 334.785
L383.638 334.785
L384.148 335.099
L384.403 335.099
L384.531 334.881
L386.701 334.908
L386.828 335.29
L387.466 335.29
L387.594 335.563
L388.232 335.563
L388.232 335.563
L388.36 344.933
L388.998 344.933
L389.125 335.003
L390.529 334.908
L390.657 335.358
L391.295 335.358
L391.422 335.058
L392.06 335.058
L392.188 334.935
L393.592 334.826
L393.719 334.512
L394.102 334.512
L394.102 334.512
L394.485 334.212
L395.889 334.308
L396.016 335.044
L396.655 335.044
L396.782 334.813
L399.717 334.922
L399.845 334.594
L400.483 334.594
L400.611 334.472
L401.249 334.472
L401.376 334.267
L402.014 334.267
L402.142 334.444
L404.311 334.335
L404.439 333.79
L405.077 333.79
L405.205 334.294
L405.843 334.294
L405.97 333.79
L407.374 333.844
L407.502 334.144
L408.14 334.144
L408.268 334.281
L410.437 334.24
L410.565 333.926
L411.203 333.926
L411.33 334.199
L414.266 334.212
L414.393 334.049
L416.563 334.103
L416.69 334.294
L417.328 334.294
L417.456 334.458
L418.86 334.512
L418.987 334.813
L419.625 334.813
L419.753 334.403
L420.391 334.403
L420.519 334.567
L421.922 334.472
L422.05 334.717
L423.454 334.676
L423.581 334.867
L424.985 334.758
L425.113 335.181
L427.282 335.126
L427.41 334.731
L428.048 334.731
L428.176 334.226
L428.814 334.226
L428.941 334.703
L429.579 334.703
L429.707 334.826
L430.345 334.826
L430.473 335.058
L430.983 335.058
L431.238 334.922
L431.877 334.922
L432.004 334.785
L432.642 334.785
L432.642 334.785
L432.77 334.512
L433.408 334.512
L433.536 334.785
L434.174 334.785
L434.301 334.499
L436.471 334.608
L436.598 334.853
L437.236 334.853
L437.364 334.717
L438.002 334.717
L438.13 335.181
L438.768 335.181
L438.895 334.799
L441.831 334.758
L441.831 334.758
L441.958 334.976
L443.362 334.99
L443.49 334.785
L446.425 334.69
L446.552 334.594
L447.19 334.594
L447.318 334.472
L447.956 334.472
L448.084 334.785
L448.722 334.785
L448.849 334.581
L449.487 334.581
L449.487 334.581
L449.615 334.963
L450.126 334.963
L450.381 334.772
L451.019 334.772
L451.146 334.976
L451.785 334.976
L451.912 334.731
L454.082 334.649
L454.209 334.553
L455.613 334.472
L455.741 334.049
L457.144 334.049
L457.272 334.185
L458.676 334.103
L458.803 334.431
L459.442 334.431
L459.569 334.171
L460.207 334.171
L460.335 334.54
L460.973 334.54
L461.101 334.349
L461.739 334.349
L461.866 334.703
L463.27 334.731
L463.398 334.867
L464.801 334.867
L464.929 334.703
L466.333 334.785
L466.46 334.526
L467.098 334.526
L467.098 334.526
L467.226 334.649
L467.864 334.649
L467.992 334.24
L468.63 334.24
L468.757 334.731
L469.396 334.731
L469.523 334.581
L470.161 334.581
L470.289 334.703
L470.927 334.703
L471.055 334.54
L471.693 334.54
L471.82 334.403
L472.458 334.403
L472.586 334.717
L473.99 334.813
L474.118 335.14
L474.755 335.14
L474.883 334.676
L476.287 334.758
L476.414 334.99
L477.052 334.99
L477.18 334.758
L477.818 334.758
L477.946 334.581
L478.584 334.581
L478.711 334.703
L479.35 334.703
L479.477 335.208
L482.412 335.14
L482.54 335.003
L483.178 335.003
L483.306 334.758
L483.944 334.758
L484.071 334.567
L484.709 334.567
L484.837 334.772
L485.475 334.772
L485.986 335.072
L486.241 335.072
L486.241 335.072
L486.368 334.785
L487.772 334.826
L487.9 334.458
L488.538 334.458
L488.666 334.199
L489.304 334.199
L489.431 334.403
L490.069 334.403
L490.197 334.267
L490.835 334.267
L490.963 334.444
L491.601 334.444
L491.728 334.171
L492.366 334.171
L492.494 334.008
L494.663 334.09
L494.791 334.294
L496.961 334.253
L497.088 334.008
L498.492 333.981
L498.62 334.526
L499.258 334.526
L499.258 334.526
L499.385 334.662
L500.023 334.662
L500.151 334.185
L500.789 334.185
L500.917 334.308
L503.086 334.403
L503.214 333.994
L503.852 333.994
L503.979 334.199
L504.617 334.199
L504.873 334.403
L506.149 334.431
L506.277 334.649
L510.743 334.717
L510.871 335.044
L512.274 335.072
L512.402 335.304
L513.04 335.304
L513.168 335.154
L513.806 335.154
L513.933 335.399
L515.337 335.508
L515.465 335.208
L517.634 335.113
L517.762 334.99
L518.4 334.99
L518.4 334.99" style="fill:none;stroke:#008000;stroke-linecap:square;"/>
   </g>
   <g id="patch_3">
    <path d="
M72 43.2
L518.4 43.2" style="fill:none;stroke:#000000;stroke-linecap:square;stroke-linejoin:miter;"/>
   </g>
   <g id="patch_4">
    <path d="
M518.4 345.6
L518.4 43.2" style="fill:none;stroke:#000000;stroke-linecap:square;stroke-linejoin:miter;"/>
   </g>
   <g id="patch_5">
    <path d="
M72 345.6
L518.4 345.6" style="fill:none;stroke:#000000;stroke-linecap:square;stroke-linejoin:miter;"/>
   </g>
   <g id="patch_6">
    <path d="
M72 345.6
L72 43.2" style="fill:none;stroke:#000000;stroke-linecap:square;stroke-linejoin:miter;"/>
   </g>
   <g id="matplotlib.axis_1">
    <g id="xtick_1">
     <g id="line2d_3">
      <defs>
       <path d="
M0 0
L0 -4" id="m93b0483c22" style="stroke:#000000;stroke-width:0.5;"/>
      </defs>
      <g>
       <use style="stroke:#000000;stroke-width:0.5;" x="117.941468267" xlink:href="#m93b0483c22" y="345.6"/>
      </g>
     </g>
     <g id="line2d_4">
      <defs>
       <path d="
M0 0
L0 4" id="m741efc42ff" style="stroke:#000000;stroke-width:0.5;"/>
      </defs>
      <g>
       <use style="stroke:#000000;stroke-width:0.5;" x="117.941468267" xlink:href="#m741efc42ff" y="43.2"/>
      </g>
     </g>
     <g id="text_1">
      <!-- Oct 13 2015 -->
      <defs>
       <path d="
M19.1875 8.29688
L53.6094 8.29688
L53.6094 0
L7.32812 0
L7.32812 8.29688
Q12.9375 14.1094 22.625 23.8906
Q32.3281 33.6875 34.8125 36.5312
Q39.5469 41.8438 41.4219 45.5312
Q43.3125 49.2188 43.3125 52.7812
Q43.3125 58.5938 39.2344 62.25
Q35.1562 65.9219 28.6094 65.9219
Q23.9688 65.9219 18.8125 64.3125
Q13.6719 62.7031 7.8125 59.4219
L7.8125 69.3906
Q13.7656 71.7812 18.9375 73
Q24.125 74.2188 28.4219 74.2188
Q39.75 74.2188 46.4844 68.5469
Q53.2188 62.8906 53.2188 53.4219
Q53.2188 48.9219 51.5312 44.8906
Q49.8594 40.875 45.4062 35.4062
Q44.1875 33.9844 37.6406 27.2188
Q31.1094 20.4531 19.1875 8.29688" id="BitstreamVeraSans-Roman-32"/>
       <path d="
M39.4062 66.2188
Q28.6562 66.2188 22.3281 58.2031
Q16.0156 50.2031 16.0156 36.375
Q16.0156 22.6094 22.3281 14.5938
Q28.6562 6.59375 39.4062 6.59375
Q50.1406 6.59375 56.4219 14.5938
Q62.7031 22.6094 62.7031 36.375
Q62.7031 50.2031 56.4219 58.2031
Q50.1406 66.2188 39.4062 66.2188
M39.4062 74.2188
Q54.7344 74.2188 63.9062 63.9375
Q73.0938 53.6562 73.0938 36.375
Q73.0938 19.1406 63.9062 8.85938
Q54.7344 -1.42188 39.4062 -1.42188
Q24.0312 -1.42188 14.8125 8.82812
Q5.60938 19.0938 5.60938 36.375
Q5.60938 53.6562 14.8125 63.9375
Q24.0312 74.2188 39.4062 74.2188" id="BitstreamVeraSans-Roman-4f"/>
       <path d="
M31.7812 66.4062
Q24.1719 66.4062 20.3281 58.9062
Q16.5 51.4219 16.5 36.375
Q16.5 21.3906 20.3281 13.8906
Q24.1719 6.39062 31.7812 6.39062
Q39.4531 6.39062 43.2812 13.8906
Q47.125 21.3906 47.125 36.375
Q47.125 51.4219 43.2812 58.9062
Q39.4531 66.4062 31.7812 66.4062
M31.7812 74.2188
Q44.0469 74.2188 50.5156 64.5156
Q56.9844 54.8281 56.9844 36.375
Q56.9844 17.9688 50.5156 8.26562
Q44.0469 -1.42188 31.7812 -1.42188
Q19.5312 -1.42188 13.0625 8.26562
Q6.59375 17.9688 6.59375 36.375
Q6.59375 54.8281 13.0625 64.5156
Q19.5312 74.2188 31.7812 74.2188" id="BitstreamVeraSans-Roman-30"/>
       <path d="
M12.4062 8.29688
L28.5156 8.29688
L28.5156 63.9219
L10.9844 60.4062
L10.9844 69.3906
L28.4219 72.9062
L38.2812 72.9062
L38.2812 8.29688
L54.3906 8.29688
L54.3906 0
L12.4062 0
z
" id="BitstreamVeraSans-Roman-31"/>
       <path d="
M40.5781 39.3125
Q47.6562 37.7969 51.625 33
Q55.6094 28.2188 55.6094 21.1875
Q55.6094 10.4062 48.1875 4.48438
Q40.7656 -1.42188 27.0938 -1.42188
Q22.5156 -1.42188 17.6562 -0.515625
Q12.7969 0.390625 7.625 2.20312
L7.625 11.7188
Q11.7188 9.32812 16.5938 8.10938
Q21.4844 6.89062 26.8125 6.89062
Q36.0781 6.89062 40.9375 10.5469
Q45.7969 14.2031 45.7969 21.1875
Q45.7969 27.6406 41.2812 31.2656
Q36.7656 34.9062 28.7188 34.9062
L20.2188 34.9062
L20.2188 43.0156
L29.1094 43.0156
Q36.375 43.0156 40.2344 45.9219
Q44.0938 48.8281 44.0938 54.2969
Q44.0938 59.9062 40.1094 62.9062
Q36.1406 65.9219 28.7188 65.9219
Q24.6562 65.9219 20.0156 65.0312
Q15.375 64.1562 9.8125 62.3125
L9.8125 71.0938
Q15.4375 72.6562 20.3438 73.4375
Q25.25 74.2188 29.5938 74.2188
Q40.8281 74.2188 47.3594 69.1094
Q53.9062 64.0156 53.9062 55.3281
Q53.9062 49.2656 50.4375 45.0938
Q46.9688 40.9219 40.5781 39.3125" id="BitstreamVeraSans-Roman-33"/>
       <path id="BitstreamVeraSans-Roman-20"/>
       <path d="
M10.7969 72.9062
L49.5156 72.9062
L49.5156 64.5938
L19.8281 64.5938
L19.8281 46.7344
Q21.9688 47.4688 24.1094 47.8281
Q26.2656 48.1875 28.4219 48.1875
Q40.625 48.1875 47.75 41.5
Q54.8906 34.8125 54.8906 23.3906
Q54.8906 11.625 47.5625 5.09375
Q40.2344 -1.42188 26.9062 -1.42188
Q22.3125 -1.42188 17.5469 -0.640625
Q12.7969 0.140625 7.71875 1.70312
L7.71875 11.625
Q12.1094 9.23438 16.7969 8.0625
Q21.4844 6.89062 26.7031 6.89062
Q35.1562 6.89062 40.0781 11.3281
Q45.0156 15.7656 45.0156 23.3906
Q45.0156 31 40.0781 35.4375
Q35.1562 39.8906 26.7031 39.8906
Q22.75 39.8906 18.8125 39.0156
Q14.8906 38.1406 10.7969 36.2812
z
" id="BitstreamVeraSans-Roman-35"/>
       <path d="
M18.3125 70.2188
L18.3125 54.6875
L36.8125 54.6875
L36.8125 47.7031
L18.3125 47.7031
L18.3125 18.0156
Q18.3125 11.3281 20.1406 9.42188
Q21.9688 7.51562 27.5938 7.51562
L36.8125 7.51562
L36.8125 0
L27.5938 0
Q17.1875 0 13.2344 3.875
Q9.28125 7.76562 9.28125 18.0156
L9.28125 47.7031
L2.6875 47.7031
L2.6875 54.6875
L9.28125 54.6875
L9.28125 70.2188
z
" id="BitstreamVeraSans-Roman-74"/>
       <path d="
M48.7812 52.5938
L48.7812 44.1875
Q44.9688 46.2969 41.1406 47.3438
Q37.3125 48.3906 33.4062 48.3906
Q24.6562 48.3906 19.8125 42.8438
Q14.9844 37.3125 14.9844 27.2969
Q14.9844 17.2812 19.8125 11.7344
Q24.6562 6.20312 33.4062 6.20312
Q37.3125 6.20312 41.1406 7.25
Q44.9688 8.29688 48.7812 10.4062
L48.7812 2.09375
Q45.0156 0.34375 40.9844 -0.53125
Q36.9688 -1.42188 32.4219 -1.42188
Q20.0625 -1.42188 12.7812 6.34375
Q5.51562 14.1094 5.51562 27.2969
Q5.51562 40.6719 12.8594 48.3281
Q20.2188 56 33.0156 56
Q37.1562 56 41.1094 55.1406
Q45.0625 54.2969 48.7812 52.5938" id="BitstreamVeraSans-Roman-63"/>
      </defs>
      <g transform="translate(53.3541815316 394.065590385)rotate(-30.0)scale(0.12 -0.12)">
       <use xlink:href="#BitstreamVeraSans-Roman-4f"/>
       <use x="78.7109375" xlink:href="#BitstreamVeraSans-Roman-63"/>
       <use x="133.69140625" xlink:href="#BitstreamVeraSans-Roman-74"/>
       <use x="172.900390625" xlink:href="#BitstreamVeraSans-Roman-20"/>
       <use x="204.6875" xlink:href="#BitstreamVeraSans-Roman-31"/>
       <use x="268.310546875" xlink:href="#BitstreamVeraSans-Roman-33"/>
       <use x="331.93359375" xlink:href="#BitstreamVeraSans-Roman-20"/>
       <use x="363.720703125" xlink:href="#BitstreamVeraSans-Roman-32"/>
       <use x="427.34375" xlink:href="#BitstreamVeraSans-Roman-30"/>
       <use x="490.966796875" xlink:href="#BitstreamVeraSans-Roman-31"/>
       <use x="554.58984375" xlink:href="#BitstreamVeraSans-Roman-35"/>
      </g>
     </g>
    </g>
    <g id="xtick_2">
     <g id="line2d_5">
      <g>
       <use style="stroke:#000000;stroke-width:0.5;" x="173.071485419" xlink:href="#m93b0483c22" y="345.6"/>
      </g>
     </g>
     <g id="line2d_6">
      <g>
       <use style="stroke:#000000;stroke-width:0.5;" x="173.071485419" xlink:href="#m741efc42ff" y="43.2"/>
      </g>
     </g>
     <g id="text_2">
      <!-- Oct 16 2015 -->
      <defs>
       <path d="
M33.0156 40.375
Q26.375 40.375 22.4844 35.8281
Q18.6094 31.2969 18.6094 23.3906
Q18.6094 15.5312 22.4844 10.9531
Q26.375 6.39062 33.0156 6.39062
Q39.6562 6.39062 43.5312 10.9531
Q47.4062 15.5312 47.4062 23.3906
Q47.4062 31.2969 43.5312 35.8281
Q39.6562 40.375 33.0156 40.375
M52.5938 71.2969
L52.5938 62.3125
Q48.875 64.0625 45.0938 64.9844
Q41.3125 65.9219 37.5938 65.9219
Q27.8281 65.9219 22.6719 59.3281
Q17.5312 52.7344 16.7969 39.4062
Q19.6719 43.6562 24.0156 45.9219
Q28.375 48.1875 33.5938 48.1875
Q44.5781 48.1875 50.9531 41.5156
Q57.3281 34.8594 57.3281 23.3906
Q57.3281 12.1562 50.6875 5.35938
Q44.0469 -1.42188 33.0156 -1.42188
Q20.3594 -1.42188 13.6719 8.26562
Q6.98438 17.9688 6.98438 36.375
Q6.98438 53.6562 15.1875 63.9375
Q23.3906 74.2188 37.2031 74.2188
Q40.9219 74.2188 44.7031 73.4844
Q48.4844 72.75 52.5938 71.2969" id="BitstreamVeraSans-Roman-36"/>
      </defs>
      <g transform="translate(108.484198684 394.065590385)rotate(-30.0)scale(0.12 -0.12)">
       <use xlink:href="#BitstreamVeraSans-Roman-4f"/>
       <use x="78.7109375" xlink:href="#BitstreamVeraSans-Roman-63"/>
       <use x="133.69140625" xlink:href="#BitstreamVeraSans-Roman-74"/>
       <use x="172.900390625" xlink:href="#BitstreamVeraSans-Roman-20"/>
       <use x="204.6875" xlink:href="#BitstreamVeraSans-Roman-31"/>
       <use x="268.310546875" xlink:href="#BitstreamVeraSans-Roman-36"/>
       <use x="331.93359375" xlink:href="#BitstreamVeraSans-Roman-20"/>
       <use x="363.720703125" xlink:href="#BitstreamVeraSans-Roman-32"/>
       <use x="427.34375" xlink:href="#BitstreamVeraSans-Roman-30"/>
       <use x="490.966796875" xlink:href="#BitstreamVeraSans-Roman-31"/>
       <use x="554.58984375" xlink:href="#BitstreamVeraSans-Roman-35"/>
      </g>
     </g>
    </g>
    <g id="xtick_3">
     <g id="line2d_7">
      <g>
       <use style="stroke:#000000;stroke-width:0.5;" x="228.201502573" xlink:href="#m93b0483c22" y="345.6"/>
      </g>
     </g>
     <g id="line2d_8">
      <g>
       <use style="stroke:#000000;stroke-width:0.5;" x="228.201502573" xlink:href="#m741efc42ff" y="43.2"/>
      </g>
     </g>
     <g id="text_3">
      <!-- Oct 19 2015 -->
      <defs>
       <path d="
M10.9844 1.51562
L10.9844 10.5
Q14.7031 8.73438 18.5 7.8125
Q22.3125 6.89062 25.9844 6.89062
Q35.75 6.89062 40.8906 13.4531
Q46.0469 20.0156 46.7812 33.4062
Q43.9531 29.2031 39.5938 26.9531
Q35.25 24.7031 29.9844 24.7031
Q19.0469 24.7031 12.6719 31.3125
Q6.29688 37.9375 6.29688 49.4219
Q6.29688 60.6406 12.9375 67.4219
Q19.5781 74.2188 30.6094 74.2188
Q43.2656 74.2188 49.9219 64.5156
Q56.5938 54.8281 56.5938 36.375
Q56.5938 19.1406 48.4062 8.85938
Q40.2344 -1.42188 26.4219 -1.42188
Q22.7031 -1.42188 18.8906 -0.6875
Q15.0938 0.046875 10.9844 1.51562
M30.6094 32.4219
Q37.25 32.4219 41.125 36.9531
Q45.0156 41.5 45.0156 49.4219
Q45.0156 57.2812 41.125 61.8438
Q37.25 66.4062 30.6094 66.4062
Q23.9688 66.4062 20.0938 61.8438
Q16.2188 57.2812 16.2188 49.4219
Q16.2188 41.5 20.0938 36.9531
Q23.9688 32.4219 30.6094 32.4219" id="BitstreamVeraSans-Roman-39"/>
      </defs>
      <g transform="translate(163.614215838 394.065590385)rotate(-30.0)scale(0.12 -0.12)">
       <use xlink:href="#BitstreamVeraSans-Roman-4f"/>
       <use x="78.7109375" xlink:href="#BitstreamVeraSans-Roman-63"/>
       <use x="133.69140625" xlink:href="#BitstreamVeraSans-Roman-74"/>
       <use x="172.900390625" xlink:href="#BitstreamVeraSans-Roman-20"/>
       <use x="204.6875" xlink:href="#BitstreamVeraSans-Roman-31"/>
       <use x="268.310546875" xlink:href="#BitstreamVeraSans-Roman-39"/>
       <use x="331.93359375" xlink:href="#BitstreamVeraSans-Roman-20"/>
       <use x="363.720703125" xlink:href="#BitstreamVeraSans-Roman-32"/>
       <use x="427.34375" xlink:href="#BitstreamVeraSans-Roman-30"/>
       <use x="490.966796875" xlink:href="#BitstreamVeraSans-Roman-31"/>
       <use x="554.58984375" xlink:href="#BitstreamVeraSans-Roman-35"/>
      </g>
     </g>
    </g>
    <g id="xtick_4">
     <g id="line2d_9">
      <g>
       <use style="stroke:#000000;stroke-width:0.5;" x="283.331519725" xlink:href="#m93b0483c22" y="345.6"/>
      </g>
     </g>
     <g id="line2d_10">
      <g>
       <use style="stroke:#000000;stroke-width:0.5;" x="283.331519725" xlink:href="#m741efc42ff" y="43.2"/>
      </g>
     </g>
     <g id="text_4">
      <!-- Oct 22 2015 -->
      <g transform="translate(218.74423299 394.065590385)rotate(-30.0)scale(0.12 -0.12)">
       <use xlink:href="#BitstreamVeraSans-Roman-4f"/>
       <use x="78.7109375" xlink:href="#BitstreamVeraSans-Roman-63"/>
       <use x="133.69140625" xlink:href="#BitstreamVeraSans-Roman-74"/>
       <use x="172.900390625" xlink:href="#BitstreamVeraSans-Roman-20"/>
       <use x="204.6875" xlink:href="#BitstreamVeraSans-Roman-32"/>
       <use x="268.310546875" xlink:href="#BitstreamVeraSans-Roman-32"/>
       <use x="331.93359375" xlink:href="#BitstreamVeraSans-Roman-20"/>
       <use x="363.720703125" xlink:href="#BitstreamVeraSans-Roman-32"/>
       <use x="427.34375" xlink:href="#BitstreamVeraSans-Roman-30"/>
       <use x="490.966796875" xlink:href="#BitstreamVeraSans-Roman-31"/>
       <use x="554.58984375" xlink:href="#BitstreamVeraSans-Roman-35"/>
      </g>
     </g>
    </g>
    <g id="xtick_5">
     <g id="line2d_11">
      <g>
       <use style="stroke:#000000;stroke-width:0.5;" x="338.461536877" xlink:href="#m93b0483c22" y="345.6"/>
      </g>
     </g>
     <g id="line2d_12">
      <g>
       <use style="stroke:#000000;stroke-width:0.5;" x="338.461536877" xlink:href="#m741efc42ff" y="43.2"/>
      </g>
     </g>
     <g id="text_5">
      <!-- Oct 25 2015 -->
      <g transform="translate(273.874250142 394.065590385)rotate(-30.0)scale(0.12 -0.12)">
       <use xlink:href="#BitstreamVeraSans-Roman-4f"/>
       <use x="78.7109375" xlink:href="#BitstreamVeraSans-Roman-63"/>
       <use x="133.69140625" xlink:href="#BitstreamVeraSans-Roman-74"/>
       <use x="172.900390625" xlink:href="#BitstreamVeraSans-Roman-20"/>
       <use x="204.6875" xlink:href="#BitstreamVeraSans-Roman-32"/>
       <use x="268.310546875" xlink:href="#BitstreamVeraSans-Roman-35"/>
       <use x="331.93359375" xlink:href="#BitstreamVeraSans-Roman-20"/>
       <use x="363.720703125" xlink:href="#BitstreamVeraSans-Roman-32"/>
       <use x="427.34375" xlink:href="#BitstreamVeraSans-Roman-30"/>
       <use x="490.966796875" xlink:href="#BitstreamVeraSans-Roman-31"/>
       <use x="554.58984375" xlink:href="#BitstreamVeraSans-Roman-35"/>
      </g>
     </g>
    </g>
    <g id="xtick_6">
     <g id="line2d_13">
      <g>
       <use style="stroke:#000000;stroke-width:0.5;" x="393.591554031" xlink:href="#m93b0483c22" y="345.6"/>
      </g>
     </g>
     <g id="line2d_14">
      <g>
       <use style="stroke:#000000;stroke-width:0.5;" x="393.591554031" xlink:href="#m741efc42ff" y="43.2"/>
      </g>
     </g>
     <g id="text_6">
      <!-- Oct 28 2015 -->
      <defs>
       <path d="
M31.7812 34.625
Q24.75 34.625 20.7188 30.8594
Q16.7031 27.0938 16.7031 20.5156
Q16.7031 13.9219 20.7188 10.1562
Q24.75 6.39062 31.7812 6.39062
Q38.8125 6.39062 42.8594 10.1719
Q46.9219 13.9688 46.9219 20.5156
Q46.9219 27.0938 42.8906 30.8594
Q38.875 34.625 31.7812 34.625
M21.9219 38.8125
Q15.5781 40.375 12.0312 44.7188
Q8.5 49.0781 8.5 55.3281
Q8.5 64.0625 14.7188 69.1406
Q20.9531 74.2188 31.7812 74.2188
Q42.6719 74.2188 48.875 69.1406
Q55.0781 64.0625 55.0781 55.3281
Q55.0781 49.0781 51.5312 44.7188
Q48 40.375 41.7031 38.8125
Q48.8281 37.1562 52.7969 32.3125
Q56.7812 27.4844 56.7812 20.5156
Q56.7812 9.90625 50.3125 4.23438
Q43.8438 -1.42188 31.7812 -1.42188
Q19.7344 -1.42188 13.25 4.23438
Q6.78125 9.90625 6.78125 20.5156
Q6.78125 27.4844 10.7812 32.3125
Q14.7969 37.1562 21.9219 38.8125
M18.3125 54.3906
Q18.3125 48.7344 21.8438 45.5625
Q25.3906 42.3906 31.7812 42.3906
Q38.1406 42.3906 41.7188 45.5625
Q45.3125 48.7344 45.3125 54.3906
Q45.3125 60.0625 41.7188 63.2344
Q38.1406 66.4062 31.7812 66.4062
Q25.3906 66.4062 21.8438 63.2344
Q18.3125 60.0625 18.3125 54.3906" id="BitstreamVeraSans-Roman-38"/>
      </defs>
      <g transform="translate(329.004267296 394.065590385)rotate(-30.0)scale(0.12 -0.12)">
       <use xlink:href="#BitstreamVeraSans-Roman-4f"/>
       <use x="78.7109375" xlink:href="#BitstreamVeraSans-Roman-63"/>
       <use x="133.69140625" xlink:href="#BitstreamVeraSans-Roman-74"/>
       <use x="172.900390625" xlink:href="#BitstreamVeraSans-Roman-20"/>
       <use x="204.6875" xlink:href="#BitstreamVeraSans-Roman-32"/>
       <use x="268.310546875" xlink:href="#BitstreamVeraSans-Roman-38"/>
       <use x="331.93359375" xlink:href="#BitstreamVeraSans-Roman-20"/>
       <use x="363.720703125" xlink:href="#BitstreamVeraSans-Roman-32"/>
       <use x="427.34375" xlink:href="#BitstreamVeraSans-Roman-30"/>
       <use x="490.966796875" xlink:href="#BitstreamVeraSans-Roman-31"/>
       <use x="554.58984375" xlink:href="#BitstreamVeraSans-Roman-35"/>
      </g>
     </g>
    </g>
    <g id="xtick_7">
     <g id="line2d_15">
      <g>
       <use style="stroke:#000000;stroke-width:0.5;" x="448.721571183" xlink:href="#m93b0483c22" y="345.6"/>
      </g>
     </g>
     <g id="line2d_16">
      <g>
       <use style="stroke:#000000;stroke-width:0.5;" x="448.721571183" xlink:href="#m741efc42ff" y="43.2"/>
      </g>
     </g>
     <g id="text_7">
      <!-- Oct 31 2015 -->
      <g transform="translate(384.134284448 394.065590385)rotate(-30.0)scale(0.12 -0.12)">
       <use xlink:href="#BitstreamVeraSans-Roman-4f"/>
       <use x="78.7109375" xlink:href="#BitstreamVeraSans-Roman-63"/>
       <use x="133.69140625" xlink:href="#BitstreamVeraSans-Roman-74"/>
       <use x="172.900390625" xlink:href="#BitstreamVeraSans-Roman-20"/>
       <use x="204.6875" xlink:href="#BitstreamVeraSans-Roman-33"/>
       <use x="268.310546875" xlink:href="#BitstreamVeraSans-Roman-31"/>
       <use x="331.93359375" xlink:href="#BitstreamVeraSans-Roman-20"/>
       <use x="363.720703125" xlink:href="#BitstreamVeraSans-Roman-32"/>
       <use x="427.34375" xlink:href="#BitstreamVeraSans-Roman-30"/>
       <use x="490.966796875" xlink:href="#BitstreamVeraSans-Roman-31"/>
       <use x="554.58984375" xlink:href="#BitstreamVeraSans-Roman-35"/>
      </g>
     </g>
    </g>
    <g id="xtick_8">
     <g id="line2d_17">
      <g>
       <use style="stroke:#000000;stroke-width:0.5;" x="503.851588335" xlink:href="#m93b0483c22" y="345.6"/>
      </g>
     </g>
     <g id="line2d_18">
      <g>
       <use style="stroke:#000000;stroke-width:0.5;" x="503.851588335" xlink:href="#m741efc42ff" y="43.2"/>
      </g>
     </g>
     <g id="text_8">
      <!-- Nov 03 2015 -->
      <defs>
       <path d="
M2.98438 54.6875
L12.5 54.6875
L29.5938 8.79688
L46.6875 54.6875
L56.2031 54.6875
L35.6875 0
L23.4844 0
z
" id="BitstreamVeraSans-Roman-76"/>
       <path d="
M9.8125 72.9062
L23.0938 72.9062
L55.4219 11.9219
L55.4219 72.9062
L64.9844 72.9062
L64.9844 0
L51.7031 0
L19.3906 60.9844
L19.3906 0
L9.8125 0
z
" id="BitstreamVeraSans-Roman-4e"/>
       <path d="
M30.6094 48.3906
Q23.3906 48.3906 19.1875 42.75
Q14.9844 37.1094 14.9844 27.2969
Q14.9844 17.4844 19.1562 11.8438
Q23.3438 6.20312 30.6094 6.20312
Q37.7969 6.20312 41.9844 11.8594
Q46.1875 17.5312 46.1875 27.2969
Q46.1875 37.0156 41.9844 42.7031
Q37.7969 48.3906 30.6094 48.3906
M30.6094 56
Q42.3281 56 49.0156 48.375
Q55.7188 40.7656 55.7188 27.2969
Q55.7188 13.875 49.0156 6.21875
Q42.3281 -1.42188 30.6094 -1.42188
Q18.8438 -1.42188 12.1719 6.21875
Q5.51562 13.875 5.51562 27.2969
Q5.51562 40.7656 12.1719 48.375
Q18.8438 56 30.6094 56" id="BitstreamVeraSans-Roman-6f"/>
      </defs>
      <g transform="translate(436.948766176 395.402465385)rotate(-30.0)scale(0.12 -0.12)">
       <use xlink:href="#BitstreamVeraSans-Roman-4e"/>
       <use x="74.8046875" xlink:href="#BitstreamVeraSans-Roman-6f"/>
       <use x="135.986328125" xlink:href="#BitstreamVeraSans-Roman-76"/>
       <use x="195.166015625" xlink:href="#BitstreamVeraSans-Roman-20"/>
       <use x="226.953125" xlink:href="#BitstreamVeraSans-Roman-30"/>
       <use x="290.576171875" xlink:href="#BitstreamVeraSans-Roman-33"/>
       <use x="354.19921875" xlink:href="#BitstreamVeraSans-Roman-20"/>
       <use x="385.986328125" xlink:href="#BitstreamVeraSans-Roman-32"/>
       <use x="449.609375" xlink:href="#BitstreamVeraSans-Roman-30"/>
       <use x="513.232421875" xlink:href="#BitstreamVeraSans-Roman-31"/>
       <use x="576.85546875" xlink:href="#BitstreamVeraSans-Roman-35"/>
      </g>
     </g>
    </g>
   </g>
   <g id="matplotlib.axis_2">
    <g id="ytick_1">
     <g id="line2d_19">
      <defs>
       <path d="
M0 0
L4 0" id="m728421d6d4" style="stroke:#000000;stroke-width:0.5;"/>
      </defs>
      <g>
       <use style="stroke:#000000;stroke-width:0.5;" x="72.0" xlink:href="#m728421d6d4" y="290.074957715"/>
      </g>
     </g>
     <g id="line2d_20">
      <defs>
       <path d="
M0 0
L-4 0" id="mcb0005524f" style="stroke:#000000;stroke-width:0.5;"/>
      </defs>
      <g>
       <use style="stroke:#000000;stroke-width:0.5;" x="518.4" xlink:href="#mcb0005524f" y="290.074957715"/>
      </g>
     </g>
     <g id="text_9">
      <!-- 5000 -->
      <g transform="translate(39.183125 293.386207715)scale(0.12 -0.12)">
       <use xlink:href="#BitstreamVeraSans-Roman-35"/>
       <use x="63.623046875" xlink:href="#BitstreamVeraSans-Roman-30"/>
       <use x="127.24609375" xlink:href="#BitstreamVeraSans-Roman-30"/>
       <use x="190.869140625" xlink:href="#BitstreamVeraSans-Roman-30"/>
      </g>
     </g>
    </g>
    <g id="ytick_2">
     <g id="line2d_21">
      <g>
       <use style="stroke:#000000;stroke-width:0.5;" x="72.0" xlink:href="#m728421d6d4" y="221.877455584"/>
      </g>
     </g>
     <g id="line2d_22">
      <g>
       <use style="stroke:#000000;stroke-width:0.5;" x="518.4" xlink:href="#mcb0005524f" y="221.877455584"/>
      </g>
     </g>
     <g id="text_10">
      <!-- 10000 -->
      <g transform="translate(31.94 225.188705584)scale(0.12 -0.12)">
       <use xlink:href="#BitstreamVeraSans-Roman-31"/>
       <use x="63.623046875" xlink:href="#BitstreamVeraSans-Roman-30"/>
       <use x="127.24609375" xlink:href="#BitstreamVeraSans-Roman-30"/>
       <use x="190.869140625" xlink:href="#BitstreamVeraSans-Roman-30"/>
       <use x="254.4921875" xlink:href="#BitstreamVeraSans-Roman-30"/>
      </g>
     </g>
    </g>
    <g id="ytick_3">
     <g id="line2d_23">
      <g>
       <use style="stroke:#000000;stroke-width:0.5;" x="72.0" xlink:href="#m728421d6d4" y="153.679953452"/>
      </g>
     </g>
     <g id="line2d_24">
      <g>
       <use style="stroke:#000000;stroke-width:0.5;" x="518.4" xlink:href="#mcb0005524f" y="153.679953452"/>
      </g>
     </g>
     <g id="text_11">
      <!-- 15000 -->
      <g transform="translate(31.94 156.991203452)scale(0.12 -0.12)">
       <use xlink:href="#BitstreamVeraSans-Roman-31"/>
       <use x="63.623046875" xlink:href="#BitstreamVeraSans-Roman-35"/>
       <use x="127.24609375" xlink:href="#BitstreamVeraSans-Roman-30"/>
       <use x="190.869140625" xlink:href="#BitstreamVeraSans-Roman-30"/>
       <use x="254.4921875" xlink:href="#BitstreamVeraSans-Roman-30"/>
      </g>
     </g>
    </g>
    <g id="ytick_4">
     <g id="line2d_25">
      <g>
       <use style="stroke:#000000;stroke-width:0.5;" x="72.0" xlink:href="#m728421d6d4" y="85.4824513213"/>
      </g>
     </g>
     <g id="line2d_26">
      <g>
       <use style="stroke:#000000;stroke-width:0.5;" x="518.4" xlink:href="#mcb0005524f" y="85.4824513213"/>
      </g>
     </g>
     <g id="text_12">
      <!-- 20000 -->
      <g transform="translate(31.50125 88.7937013213)scale(0.12 -0.12)">
       <use xlink:href="#BitstreamVeraSans-Roman-32"/>
       <use x="63.623046875" xlink:href="#BitstreamVeraSans-Roman-30"/>
       <use x="127.24609375" xlink:href="#BitstreamVeraSans-Roman-30"/>
       <use x="190.869140625" xlink:href="#BitstreamVeraSans-Roman-30"/>
       <use x="254.4921875" xlink:href="#BitstreamVeraSans-Roman-30"/>
      </g>
     </g>
    </g>
   </g>
   <g id="text_13">
    <!-- Kunststoffe -->
    <defs>
     <path d="
M37.1094 75.9844
L37.1094 68.5
L28.5156 68.5
Q23.6875 68.5 21.7969 66.5469
Q19.9219 64.5938 19.9219 59.5156
L19.9219 54.6875
L34.7188 54.6875
L34.7188 47.7031
L19.9219 47.7031
L19.9219 0
L10.8906 0
L10.8906 47.7031
L2.29688 47.7031
L2.29688 54.6875
L10.8906 54.6875
L10.8906 58.5
Q10.8906 67.625 15.1406 71.7969
Q19.3906 75.9844 28.6094 75.9844
z
" id="BitstreamVeraSans-Roman-66"/>
     <path d="
M9.8125 72.9062
L19.6719 72.9062
L19.6719 42.0938
L52.3906 72.9062
L65.0938 72.9062
L28.9062 38.9219
L67.6719 0
L54.6875 0
L19.6719 35.1094
L19.6719 0
L9.8125 0
z
" id="BitstreamVeraSans-Roman-4b"/>
     <path d="
M54.8906 33.0156
L54.8906 0
L45.9062 0
L45.9062 32.7188
Q45.9062 40.4844 42.875 44.3281
Q39.8438 48.1875 33.7969 48.1875
Q26.5156 48.1875 22.3125 43.5469
Q18.1094 38.9219 18.1094 30.9062
L18.1094 0
L9.07812 0
L9.07812 54.6875
L18.1094 54.6875
L18.1094 46.1875
Q21.3438 51.125 25.7031 53.5625
Q30.0781 56 35.7969 56
Q45.2188 56 50.0469 50.1719
Q54.8906 44.3438 54.8906 33.0156" id="BitstreamVeraSans-Roman-6e"/>
     <path d="
M56.2031 29.5938
L56.2031 25.2031
L14.8906 25.2031
Q15.4844 15.9219 20.4844 11.0625
Q25.4844 6.20312 34.4219 6.20312
Q39.5938 6.20312 44.4531 7.46875
Q49.3125 8.73438 54.1094 11.2812
L54.1094 2.78125
Q49.2656 0.734375 44.1875 -0.34375
Q39.1094 -1.42188 33.8906 -1.42188
Q20.7969 -1.42188 13.1562 6.1875
Q5.51562 13.8125 5.51562 26.8125
Q5.51562 40.2344 12.7656 48.1094
Q20.0156 56 32.3281 56
Q43.3594 56 49.7812 48.8906
Q56.2031 41.7969 56.2031 29.5938
M47.2188 32.2344
Q47.125 39.5938 43.0938 43.9844
Q39.0625 48.3906 32.4219 48.3906
Q24.9062 48.3906 20.3906 44.1406
Q15.875 39.8906 15.1875 32.1719
z
" id="BitstreamVeraSans-Roman-65"/>
     <path d="
M8.5 21.5781
L8.5 54.6875
L17.4844 54.6875
L17.4844 21.9219
Q17.4844 14.1562 20.5 10.2656
Q23.5312 6.39062 29.5938 6.39062
Q36.8594 6.39062 41.0781 11.0312
Q45.3125 15.6719 45.3125 23.6875
L45.3125 54.6875
L54.2969 54.6875
L54.2969 0
L45.3125 0
L45.3125 8.40625
Q42.0469 3.42188 37.7188 1
Q33.4062 -1.42188 27.6875 -1.42188
Q18.2656 -1.42188 13.375 4.4375
Q8.5 10.2969 8.5 21.5781" id="BitstreamVeraSans-Roman-75"/>
     <path d="
M44.2812 53.0781
L44.2812 44.5781
Q40.4844 46.5312 36.375 47.5
Q32.2812 48.4844 27.875 48.4844
Q21.1875 48.4844 17.8438 46.4375
Q14.5 44.3906 14.5 40.2812
Q14.5 37.1562 16.8906 35.375
Q19.2812 33.5938 26.5156 31.9844
L29.5938 31.2969
Q39.1562 29.25 43.1875 25.5156
Q47.2188 21.7812 47.2188 15.0938
Q47.2188 7.46875 41.1875 3.01562
Q35.1562 -1.42188 24.6094 -1.42188
Q20.2188 -1.42188 15.4531 -0.5625
Q10.6875 0.296875 5.42188 2
L5.42188 11.2812
Q10.4062 8.6875 15.2344 7.39062
Q20.0625 6.10938 24.8125 6.10938
Q31.1562 6.10938 34.5625 8.28125
Q37.9844 10.4531 37.9844 14.4062
Q37.9844 18.0625 35.5156 20.0156
Q33.0625 21.9688 24.7031 23.7812
L21.5781 24.5156
Q13.2344 26.2656 9.51562 29.9062
Q5.8125 33.5469 5.8125 39.8906
Q5.8125 47.6094 11.2812 51.7969
Q16.75 56 26.8125 56
Q31.7812 56 36.1719 55.2656
Q40.5781 54.5469 44.2812 53.0781" id="BitstreamVeraSans-Roman-73"/>
    </defs>
    <g transform="translate(439.5015 38.2)scale(0.144 -0.144)">
     <use xlink:href="#BitstreamVeraSans-Roman-4b"/>
     <use x="60.576171875" xlink:href="#BitstreamVeraSans-Roman-75"/>
     <use x="123.955078125" xlink:href="#BitstreamVeraSans-Roman-6e"/>
     <use x="187.333984375" xlink:href="#BitstreamVeraSans-Roman-73"/>
     <use x="239.43359375" xlink:href="#BitstreamVeraSans-Roman-74"/>
     <use x="278.642578125" xlink:href="#BitstreamVeraSans-Roman-73"/>
     <use x="330.7421875" xlink:href="#BitstreamVeraSans-Roman-74"/>
     <use x="369.951171875" xlink:href="#BitstreamVeraSans-Roman-6f"/>
     <use x="431.1328125" xlink:href="#BitstreamVeraSans-Roman-66"/>
     <use x="466.337890625" xlink:href="#BitstreamVeraSans-Roman-66"/>
     <use x="501.54296875" xlink:href="#BitstreamVeraSans-Roman-65"/>
    </g>
   </g>
   <g id="legend_1">
    <g id="patch_7">
     <path d="
M123.942 423.616
L466.458 423.616
L466.458 398.16
L123.942 398.16
z
" style="fill:#ffffff;stroke:#000000;stroke-linejoin:miter;"/>
    </g>
    <g id="line2d_27">
     <path d="
M134.022 409.822
L154.182 409.822" style="fill:none;stroke:#ff0000;stroke-linecap:square;"/>
    </g>
    <g id="line2d_28"/>
    <g id="text_14">
     <!-- Schwarzmarktpreis -->
     <defs>
      <path d="
M34.2812 27.4844
Q23.3906 27.4844 19.1875 25
Q14.9844 22.5156 14.9844 16.5
Q14.9844 11.7188 18.1406 8.90625
Q21.2969 6.10938 26.7031 6.10938
Q34.1875 6.10938 38.7031 11.4062
Q43.2188 16.7031 43.2188 25.4844
L43.2188 27.4844
z

M52.2031 31.2031
L52.2031 0
L43.2188 0
L43.2188 8.29688
Q40.1406 3.32812 35.5469 0.953125
Q30.9531 -1.42188 24.3125 -1.42188
Q15.9219 -1.42188 10.9531 3.29688
Q6 8.01562 6 15.9219
Q6 25.1406 12.1719 29.8281
Q18.3594 34.5156 30.6094 34.5156
L43.2188 34.5156
L43.2188 35.4062
Q43.2188 41.6094 39.1406 45
Q35.0625 48.3906 27.6875 48.3906
Q23 48.3906 18.5469 47.2656
Q14.1094 46.1406 10.0156 43.8906
L10.0156 52.2031
Q14.9375 54.1094 19.5781 55.0469
Q24.2188 56 28.6094 56
Q40.4844 56 46.3438 49.8438
Q52.2031 43.7031 52.2031 31.2031" id="BitstreamVeraSans-Roman-61"/>
      <path d="
M5.51562 54.6875
L48.1875 54.6875
L48.1875 46.4844
L14.4062 7.17188
L48.1875 7.17188
L48.1875 0
L4.29688 0
L4.29688 8.20312
L38.0938 47.5156
L5.51562 47.5156
z
" id="BitstreamVeraSans-Roman-7a"/>
      <path d="
M53.5156 70.5156
L53.5156 60.8906
Q47.9062 63.5781 42.9219 64.8906
Q37.9375 66.2188 33.2969 66.2188
Q25.25 66.2188 20.875 63.0938
Q16.5 59.9688 16.5 54.2031
Q16.5 49.3594 19.4062 46.8906
Q22.3125 44.4375 30.4219 42.9219
L36.375 41.7031
Q47.4062 39.5938 52.6562 34.2969
Q57.9062 29 57.9062 20.125
Q57.9062 9.51562 50.7969 4.04688
Q43.7031 -1.42188 29.9844 -1.42188
Q24.8125 -1.42188 18.9688 -0.25
Q13.1406 0.921875 6.89062 3.21875
L6.89062 13.375
Q12.8906 10.0156 18.6562 8.29688
Q24.4219 6.59375 29.9844 6.59375
Q38.4219 6.59375 43.0156 9.90625
Q47.6094 13.2344 47.6094 19.3906
Q47.6094 24.75 44.3125 27.7812
Q41.0156 30.8125 33.5 32.3281
L27.4844 33.5
Q16.4531 35.6875 11.5156 40.375
Q6.59375 45.0625 6.59375 53.4219
Q6.59375 63.0938 13.4062 68.6562
Q20.2188 74.2188 32.1719 74.2188
Q37.3125 74.2188 42.625 73.2812
Q47.9531 72.3594 53.5156 70.5156" id="BitstreamVeraSans-Roman-53"/>
      <path d="
M9.42188 54.6875
L18.4062 54.6875
L18.4062 0
L9.42188 0
z

M9.42188 75.9844
L18.4062 75.9844
L18.4062 64.5938
L9.42188 64.5938
z
" id="BitstreamVeraSans-Roman-69"/>
      <path d="
M54.8906 33.0156
L54.8906 0
L45.9062 0
L45.9062 32.7188
Q45.9062 40.4844 42.875 44.3281
Q39.8438 48.1875 33.7969 48.1875
Q26.5156 48.1875 22.3125 43.5469
Q18.1094 38.9219 18.1094 30.9062
L18.1094 0
L9.07812 0
L9.07812 75.9844
L18.1094 75.9844
L18.1094 46.1875
Q21.3438 51.125 25.7031 53.5625
Q30.0781 56 35.7969 56
Q45.2188 56 50.0469 50.1719
Q54.8906 44.3438 54.8906 33.0156" id="BitstreamVeraSans-Roman-68"/>
      <path d="
M52 44.1875
Q55.375 50.25 60.0625 53.125
Q64.75 56 71.0938 56
Q79.6406 56 84.2812 50.0156
Q88.9219 44.0469 88.9219 33.0156
L88.9219 0
L79.8906 0
L79.8906 32.7188
Q79.8906 40.5781 77.0938 44.375
Q74.3125 48.1875 68.6094 48.1875
Q61.625 48.1875 57.5625 43.5469
Q53.5156 38.9219 53.5156 30.9062
L53.5156 0
L44.4844 0
L44.4844 32.7188
Q44.4844 40.625 41.7031 44.4062
Q38.9219 48.1875 33.1094 48.1875
Q26.2188 48.1875 22.1562 43.5312
Q18.1094 38.875 18.1094 30.9062
L18.1094 0
L9.07812 0
L9.07812 54.6875
L18.1094 54.6875
L18.1094 46.1875
Q21.1875 51.2188 25.4844 53.6094
Q29.7812 56 35.6875 56
Q41.6562 56 45.8281 52.9688
Q50 49.9531 52 44.1875" id="BitstreamVeraSans-Roman-6d"/>
      <path d="
M4.20312 54.6875
L13.1875 54.6875
L24.4219 12.0156
L35.5938 54.6875
L46.1875 54.6875
L57.4219 12.0156
L68.6094 54.6875
L77.5938 54.6875
L63.2812 0
L52.6875 0
L40.9219 44.8281
L29.1094 0
L18.5 0
z
" id="BitstreamVeraSans-Roman-77"/>
      <path d="
M9.07812 75.9844
L18.1094 75.9844
L18.1094 31.1094
L44.9219 54.6875
L56.3906 54.6875
L27.3906 29.1094
L57.625 0
L45.9062 0
L18.1094 26.7031
L18.1094 0
L9.07812 0
z
" id="BitstreamVeraSans-Roman-6b"/>
      <path d="
M41.1094 46.2969
Q39.5938 47.1719 37.8125 47.5781
Q36.0312 48 33.8906 48
Q26.2656 48 22.1875 43.0469
Q18.1094 38.0938 18.1094 28.8125
L18.1094 0
L9.07812 0
L9.07812 54.6875
L18.1094 54.6875
L18.1094 46.1875
Q20.9531 51.1719 25.4844 53.5781
Q30.0312 56 36.5312 56
Q37.4531 56 38.5781 55.875
Q39.7031 55.7656 41.0625 55.5156
z
" id="BitstreamVeraSans-Roman-72"/>
      <path d="
M18.1094 8.20312
L18.1094 -20.7969
L9.07812 -20.7969
L9.07812 54.6875
L18.1094 54.6875
L18.1094 46.3906
Q20.9531 51.2656 25.2656 53.625
Q29.5938 56 35.5938 56
Q45.5625 56 51.7812 48.0938
Q58.0156 40.1875 58.0156 27.2969
Q58.0156 14.4062 51.7812 6.48438
Q45.5625 -1.42188 35.5938 -1.42188
Q29.5938 -1.42188 25.2656 0.953125
Q20.9531 3.32812 18.1094 8.20312
M48.6875 27.2969
Q48.6875 37.2031 44.6094 42.8438
Q40.5312 48.4844 33.4062 48.4844
Q26.2656 48.4844 22.1875 42.8438
Q18.1094 37.2031 18.1094 27.2969
Q18.1094 17.3906 22.1875 11.75
Q26.2656 6.10938 33.4062 6.10938
Q40.5312 6.10938 44.6094 11.75
Q48.6875 17.3906 48.6875 27.2969" id="BitstreamVeraSans-Roman-70"/>
     </defs>
     <g transform="translate(170.022375 414.86175)scale(0.144 -0.144)">
      <use xlink:href="#BitstreamVeraSans-Roman-53"/>
      <use x="63.4765625" xlink:href="#BitstreamVeraSans-Roman-63"/>
      <use x="118.45703125" xlink:href="#BitstreamVeraSans-Roman-68"/>
      <use x="181.8359375" xlink:href="#BitstreamVeraSans-Roman-77"/>
      <use x="263.623046875" xlink:href="#BitstreamVeraSans-Roman-61"/>
      <use x="324.90234375" xlink:href="#BitstreamVeraSans-Roman-72"/>
      <use x="366.015625" xlink:href="#BitstreamVeraSans-Roman-7a"/>
      <use x="418.505859375" xlink:href="#BitstreamVeraSans-Roman-6d"/>
      <use x="515.91796875" xlink:href="#BitstreamVeraSans-Roman-61"/>
      <use x="577.197265625" xlink:href="#BitstreamVeraSans-Roman-72"/>
      <use x="618.310546875" xlink:href="#BitstreamVeraSans-Roman-6b"/>
      <use x="676.220703125" xlink:href="#BitstreamVeraSans-Roman-74"/>
      <use x="715.4296875" xlink:href="#BitstreamVeraSans-Roman-70"/>
      <use x="778.90625" xlink:href="#BitstreamVeraSans-Roman-72"/>
      <use x="817.76953125" xlink:href="#BitstreamVeraSans-Roman-65"/>
      <use x="879.29296875" xlink:href="#BitstreamVeraSans-Roman-69"/>
      <use x="907.076171875" xlink:href="#BitstreamVeraSans-Roman-73"/>
     </g>
    </g>
    <g id="line2d_29">
     <path d="
M339.609 409.822
L359.769 409.822" style="fill:none;stroke:#008000;stroke-linecap:square;"/>
    </g>
    <g id="line2d_30"/>
    <g id="text_15">
     <!-- Normalpreis -->
     <defs>
      <path d="
M9.42188 75.9844
L18.4062 75.9844
L18.4062 0
L9.42188 0
z
" id="BitstreamVeraSans-Roman-6c"/>
     </defs>
     <g transform="translate(375.609375 414.86175)scale(0.144 -0.144)">
      <use xlink:href="#BitstreamVeraSans-Roman-4e"/>
      <use x="74.8046875" xlink:href="#BitstreamVeraSans-Roman-6f"/>
      <use x="135.986328125" xlink:href="#BitstreamVeraSans-Roman-72"/>
      <use x="175.349609375" xlink:href="#BitstreamVeraSans-Roman-6d"/>
      <use x="272.76171875" xlink:href="#BitstreamVeraSans-Roman-61"/>
      <use x="334.041015625" xlink:href="#BitstreamVeraSans-Roman-6c"/>
      <use x="361.82421875" xlink:href="#BitstreamVeraSans-Roman-70"/>
      <use x="425.30078125" xlink:href="#BitstreamVeraSans-Roman-72"/>
      <use x="464.1640625" xlink:href="#BitstreamVeraSans-Roman-65"/>
      <use x="525.6875" xlink:href="#BitstreamVeraSans-Roman-69"/>
      <use x="553.470703125" xlink:href="#BitstreamVeraSans-Roman-73"/>
     </g>
    </g>
   </g>
  </g>
 </g>
 <defs>
  <clipPath id="pcb2bf987bf">
   <rect height="302.4" width="446.4" x="72.0" y="43.2"/>
  </clipPath>
 </defs>
</svg>
