<?xml version="1.0" encoding="utf-8" standalone="no"?>
<!DOCTYPE svg PUBLIC "-//W3C//DTD SVG 1.1//EN"
  "http://www.w3.org/Graphics/SVG/1.1/DTD/svg11.dtd">
<!-- Created with matplotlib (http://matplotlib.org/) -->
<svg height="432pt" version="1.1" viewBox="0 0 576 432" width="576pt" xmlns="http://www.w3.org/2000/svg" xmlns:xlink="http://www.w3.org/1999/xlink">
 <defs>
  <style type="text/css">
*{stroke-linecap:butt;stroke-linejoin:round;}
  </style>
 </defs>
 <g id="figure_1">
  <g id="patch_1">
   <path d="
M0 432
L576 432
L576 0
L0 0
z
" style="fill:#ffffff;"/>
  </g>
  <g id="axes_1">
   <g id="patch_2">
    <path d="
M72 345.6
L518.4 345.6
L518.4 43.2
L72 43.2
z
" style="fill:#ffffff;"/>
   </g>
   <g id="line2d_1">
    <path clip-path="url(#pcb2bf987bf)" d="
M72 314.665
L72.1276 313.418
L72.3828 316.535
L72.7657 316.535
L72.8933 316.223
L73.1485 315.912
L73.2762 312.794
L73.5314 316.847
L73.659 316.535
L73.9142 316.535
L74.0419 312.015
L74.2971 316.535
L74.4247 313.106
L74.6799 316.878
L74.8075 375.451
L75.0628 315.912
L75.1904 314.976
L75.4456 314.041
L75.5732 313.106
L75.8285 315.6
L75.9561 315.6
L76.2113 315.756
L76.3389 315.132
L76.5942 314.976
L76.7218 315.912
L77.7429 315.912
L77.8703 375.451
L78.1256 316.847
L78.1256 316.847
L78.2532 375.451
L78.5084 316.66
L78.636 316.379
L78.8915 316.379
L79.0189 316.691
L79.6569 316.067
L79.7846 316.067
L80.1674 314.041
L80.5503 316.473
L80.8055 315.912
L80.9331 315.288
L81.1885 314.976
L81.316 315.6
L81.5712 375.451
L81.6988 375.451
L81.9542 312.171
L82.0816 314.665
L82.3371 375.451
L82.4645 315.132
L82.8473 314.197
L83.1026 314.821
L83.2302 314.197
L83.4854 314.509
L83.613 314.197
L83.8683 315.756
L83.9959 315.756
L84.3787 315.132
L84.6342 315.756
L85.017 315.132
L85.1444 316.005
L85.5273 314.197
L85.7825 315.6
L85.9101 375.451
L86.1654 316.067
L86.293 375.451
L86.5482 316.067
L86.6758 375.451
L86.931 375.451
L87.0587 316.535
L87.4415 316.067
L87.6967 314.509
L87.8244 312.95
L88.0796 315.756
L88.4624 313.262
L88.5901 310.612
L88.9729 314.976
L89.2281 313.418
L89.3557 375.451
L89.7386 375.451
L89.9938 315.912
L89.9938 315.912
L90.2491 316.535
L90.3767 375.451
L91.0148 316.784
L91.9081 315.912
L92.5461 375.451
L92.6738 315.288
L93.3118 315.6
L94.0775 315.6
L94.2051 312.794
L94.8432 315.444
L94.9708 314.197
L95.6089 314.509
L95.7365 313.574
L96.3746 316.223
L97.1403 315.444
L97.906 306.092
L98.0336 316.379
L98.6717 316.629
L98.7993 316.223
L99.4374 306.872
L100.331 316.223
L100.969 314.041
L101.734 314.821
L101.862 314.509
L102.5 314.509
L103.266 313.885
L103.393 314.197
L104.032 314.197
L104.797 315.756
L105.563 375.451
L106.329 316.535
L107.095 317.003
L107.86 315.6
L107.988 312.171
L108.626 316.535
L109.391 315.288
L109.519 314.041
L110.157 316.223
L110.285 313.106
L110.923 317.377
L111.05 316.847
L111.689 314.976
L111.816 316.847
L113.986 314.197
L114.879 312.327
L116.283 314.353
L116.41 313.73
L117.048 316.223
L117.814 315.6
L117.942 314.041
L118.58 314.665
L118.707 316.535
L119.345 308.274
L120.111 317.003
L121.004 316.223
L121.643 315.912
L122.408 312.794
L122.536 316.753
L123.94 316.753
L124.067 315.6
L124.705 315.6
L125.471 317.003
L126.109 316.847
L126.237 316.535
L126.237 316.535
L126.365 317.439
L127.002 375.451
L127.13 317.158
L127.13 317.158
L127.64 316.223
L127.64 316.223
L127.768 312.794
L128.534 315.288
L128.661 314.353
L129.299 316.535
L130.193 316.223
L131.597 317.19
L132.362 375.451
L132.362 375.451
L133.894 315.756
L134.149 315.132
L135.425 316.94
L136.191 315.756
L136.318 316.691
L136.956 312.794
L137.722 375.451
L138.488 312.794
L139.254 311.392
L139.381 305.157
L140.019 315.444
L140.785 316.379
L141.551 316.067
L141.678 314.976
L142.316 315.6
L143.082 315.6
L143.848 312.794
L143.975 313.73
L144.613 316.067
L145.379 309.677
L145.507 316.286
L146.145 315.444
L146.272 315.756
L146.91 312.763
L147.038 375.451
L147.676 316.691
L148.442 317.003
L149.208 316.691
L149.335 375.451
L149.973 317.408
L150.739 315.756
L150.867 315.132
L151.505 313.106
L152.27 316.223
L153.036 315.288
L153.802 303.131
L154.567 316.13
L155.333 311.859
L155.333 311.859
L156.099 313.73
L156.865 315.288
L157.63 315.538
L157.758 314.976
L158.396 314.821
L159.162 316.067
L159.927 317.003
L160.693 312.919
L160.821 314.821
L162.224 375.451
L162.99 316.067
L163.118 314.821
L163.756 315.132
L163.883 316.067
L164.521 315.756
L164.649 316.067
L165.287 316.691
L166.053 313.885
L166.819 316.036
L167.584 315.6
L167.712 316.535
L168.35 312.794
L169.116 315.756
L169.243 309.365
L169.881 317.003
L170.647 312.794
L170.775 316.192
L171.413 312.483
L172.178 317.158
L172.944 375.451
L173.072 316.691
L173.71 375.451
L174.475 314.509
L174.603 375.451
L176.007 315.569
L176.773 315.756
L176.9 297.364
L177.538 315.725
L178.304 316.223
L179.07 317.003
L179.835 317.314
L179.963 316.379
L180.729 315.288
L181.367 315.288
L182.132 314.509
L182.26 313.574
L182.898 314.665
L183.664 316.691
L183.791 316.691
L184.43 314.509
L185.195 314.509
L185.961 375.451
L186.727 317.003
L187.492 317.158
L189.024 316.535
L189.151 375.451
L190.555 314.976
L191.321 315.6
L191.321 315.6
L192.852 314.197
L193.618 315.756
L194.384 313.574
L195.149 297.52
L195.277 313.262
L195.915 314.041
L196.681 314.665
L198.212 316.223
L198.212 316.223
L198.978 316.691
L200.509 315.756
L201.275 315.444
L202.04 316.379
L202.806 316.847
L203.699 314.041
L204.338 314.665
L205.103 317.158
L205.231 312.794
L205.869 314.197
L205.997 313.574
L206.124 314.509
L206.507 316.379
L206.635 375.451
L206.635 375.451
L206.762 375.451
L207.4 317.158
L207.911 316.223
L208.166 315.288
L208.804 316.535
L209.059 314.665
L209.059 314.665
L209.442 314.976
L209.57 315.257
L209.825 315.288
L210.591 315.912
L210.846 313.106
L211.867 311.859
L212.122 297.52
L212.25 314.634
L212.633 316.535
L212.888 315.912
L213.398 311.859
L213.781 316.535
L214.036 315.6
L214.164 315.6
L214.419 315.756
L214.547 315.444
L214.802 316.379
L215.185 314.821
L215.185 314.821
L215.313 375.451
L215.568 316.379
L215.695 316.348
L215.951 317.003
L215.951 317.003
L216.078 317.003
L216.333 314.821
L216.589 276.479
L216.589 276.479
L216.844 315.132
L217.099 317.158
L217.227 375.451
L217.482 317.47
L217.482 317.47
L217.61 375.451
L217.865 317.003
L217.992 317.907
L218.248 317.907
L218.248 317.907
L218.375 304.845
L218.631 317.47
L218.758 317.47
L219.013 317.158
L219.141 317.907
L219.396 316.223
L219.779 317.47
L219.907 317.158
L220.162 317.47
L220.29 375.451
L220.29 375.451
L220.417 317.47
L220.672 318.031
L220.672 318.031
L220.928 313.418
L221.055 315.444
L221.438 312.171
L221.693 316.909
L222.204 312.483
L222.587 316.379
L222.842 316.535
L222.842 316.535
L223.225 314.291
L223.352 316.847
L223.608 315.444
L223.735 317.003
L223.99 315.6
L224.118 309.054
L224.373 302.04
L224.501 375.451
L224.756 316.379
L224.884 316.94
L225.139 315.756
L225.267 316.691
L225.522 316.067
L225.649 316.379
L225.649 316.379
L225.777 316.379
L225.777 316.379
L225.905 317.003
L225.905 317.003
L226.16 313.574
L226.16 313.574
L226.288 313.574
L226.415 312.95
L226.415 312.95
L226.67 316.379
L226.798 316.379
L227.053 316.691
L227.181 314.509
L227.436 314.197
L227.436 314.197
L227.819 315.132
L227.946 316.971
L228.202 316.535
L228.329 317.003
L228.585 375.451
L228.712 317.003
L228.967 316.036
L229.095 316.067
L229.35 314.509
L229.478 316.223
L229.733 315.6
L229.861 315.6
L230.116 316.691
L230.244 316.067
L230.499 312.483
L230.499 312.483
L230.882 309.989
L231.009 311.859
L231.264 311.236
L231.264 311.236
L231.392 311.547
L231.647 315.912
L231.775 315.756
L232.158 304.378
L232.413 312.171
L232.541 312.171
L232.796 311.236
L232.796 311.236
L232.924 311.547
L233.179 311.392
L233.306 315.6
L233.562 311.236
L233.689 315.756
L233.944 315.288
L234.072 314.353
L234.327 313.73
L234.327 313.73
L234.455 315.974
L234.838 311.236
L235.093 375.451
L235.093 375.451
L235.221 375.451
L235.476 316.847
L235.603 375.451
L235.859 314.041
L235.859 314.041
L235.986 313.075
L236.242 317.158
L236.369 314.041
L236.624 317.47
L236.752 375.451
L237.007 317.003
L237.518 311.859
L237.773 375.451
L237.901 189.976
L238.156 315.912
L238.283 316.629
L238.539 315.756
L238.666 314.821
L238.921 375.451
L239.049 317.47
L239.432 317.158
L239.687 375.451
L239.815 317.47
L240.07 375.451
L240.198 316.847
L240.453 315.6
L240.453 315.6
L240.58 316.379
L240.836 316.036
L240.963 296.429
L241.346 315.132
L241.601 317.003
L241.729 315.6
L241.984 316.223
L242.112 315.288
L242.367 312.483
L242.495 312.483
L242.75 310.301
L242.878 315.912
L243.133 315.288
L243.26 314.353
L243.516 317.938
L243.643 375.451
L243.898 316.847
L244.026 317.47
L244.281 317.782
L244.409 311.859
L244.664 317.158
L244.792 317.158
L245.175 315.288
L245.43 316.067
L245.557 317.003
L245.94 315.444
L246.196 317.003
L246.323 316.379
L246.578 317.003
L246.578 317.003
L246.706 316.379
L246.961 316.036
L247.089 312.483
L247.344 314.821
L247.727 314.197
L247.855 306.248
L248.237 317.564
L248.493 305.313
L248.62 316.348
L248.876 315.6
L248.876 315.6
L249.003 309.989
L249.258 316.691
L249.641 316.067
L249.641 316.067
L249.769 315.444
L250.152 314.789
L250.534 312.327
L250.917 316.067
L251.173 280.999
L251.3 279.128
L251.555 316.784
L251.683 316.816
L251.938 314.976
L252.449 317.003
L252.704 316.691
L252.832 375.451
L253.087 315.444
L253.214 317.782
L253.47 316.067
L253.597 317.72
L253.852 316.847
L253.98 313.106
L254.235 316.847
L254.363 315.6
L254.618 314.353
L254.746 314.353
L254.746 314.353
L255.001 317.003
L255.129 316.691
L255.129 316.691
L255.384 315.756
L255.894 311.547
L256.277 317.034
L256.532 316.691
L256.66 315.756
L256.66 315.756
L257.043 316.379
L257.298 317.314
L257.426 317.158
L257.681 316.223
L257.809 317.595
L258.064 375.451
L258.064 375.451
L258.447 315.912
L258.574 317.782
L258.702 316.816
L258.83 297.832
L258.957 317.47
L259.212 317.938
L259.212 317.938
L259.34 317.626
L259.595 317.626
L259.595 317.626
L259.723 317.003
L259.978 316.379
L260.106 316.379
L260.361 315.6
L260.489 316.535
L260.744 316.535
L260.871 315.912
L261.127 317.158
L261.254 315.912
L261.509 375.451
L261.637 317.626
L261.892 317.938
L262.02 317.314
L262.275 312.171
L262.403 317.003
L262.658 316.223
L262.786 317.657
L263.041 316.847
L263.168 314.976
L263.424 315.444
L263.424 315.444
L263.551 312.483
L263.807 314.976
L263.934 314.353
L264.189 313.73
L264.189 313.73
L264.317 314.821
L264.572 315.444
L264.7 316.067
L264.955 313.885
L264.955 313.885
L265.083 315.132
L265.848 312.327
L266.104 314.509
L266.231 314.478
L266.486 314.041
L266.614 314.509
L266.869 314.821
L266.997 316.223
L267.252 314.353
L267.635 315.288
L267.763 314.665
L268.018 312.794
L268.145 316.878
L268.401 316.535
L268.528 375.451
L268.784 315.756
L268.911 375.451
L269.166 310.456
L269.294 310.145
L269.549 317.314
L269.677 375.451
L270.06 375.451
L270.315 316.847
L270.443 316.223
L270.698 375.451
L270.825 317.314
L271.081 315.6
L271.463 314.665
L271.846 315.6
L271.974 375.451
L272.229 317.782
L272.357 316.223
L272.612 317.158
L272.74 314.041
L273.122 311.859
L273.378 316.223
L273.378 316.223
L273.506 315.912
L273.761 316.847
L273.888 316.847
L274.143 311.236
L274.271 311.236
L274.526 317.127
L274.654 315.756
L274.909 316.067
L274.909 316.067
L275.037 316.691
L275.292 315.756
L275.675 313.854
L275.802 312.327
L276.185 314.665
L276.568 314.789
L276.823 315.756
L276.951 314.197
L277.206 315.756
L277.334 375.451
L277.717 375.451
L277.972 314.509
L278.099 313.262
L278.482 313.574
L278.738 317.47
L278.865 315.444
L279.12 375.451
L279.248 317.314
L279.503 314.353
L279.631 375.451
L279.886 317.47
L280.014 317.127
L280.269 317.314
L280.269 317.314
L280.397 312.794
L280.779 316.847
L281.035 317.377
L281.035 317.377
L281.417 316.535
L281.545 375.451
L281.801 317.72
L282.183 316.847
L282.311 313.137
L282.566 316.691
L282.694 314.821
L283.459 317.47
L283.842 316.223
L284.097 375.451
L284.225 316.535
L284.736 314.041
L285.246 313.418
L285.374 316.223
L285.629 316.379
L286.012 315.444
L286.139 317.813
L286.905 313.262
L287.16 314.197
L287.288 316.94
L287.543 315.756
L287.671 315.756
L288.054 314.197
L288.309 316.067
L288.437 315.756
L288.692 316.847
L288.819 313.106
L289.074 317.626
L289.202 317.314
L289.457 316.379
L289.585 317.626
L289.84 316.223
L289.968 317.158
L290.223 312.794
L290.351 316.847
L290.606 314.353
L290.733 316.223
L290.861 315.912
L291.116 317.314
L291.372 316.691
L291.499 317.003
L291.754 313.106
L292.137 375.451
L292.52 375.451
L292.52 375.451
L292.648 317.47
L292.903 375.451
L293.031 317.782
L293.286 317.158
L293.286 317.158
L293.413 375.451
L293.669 310.301
L293.669 310.301
L293.796 310.924
L294.051 317.626
L294.051 317.626
L294.179 317.314
L294.434 317.626
L294.562 316.66
L294.817 317.626
L294.817 317.626
L294.945 316.192
L295.2 375.451
L295.328 317.938
L295.583 314.821
L295.71 311.236
L295.966 315.912
L296.349 316.535
L296.476 317.252
L297.114 311.859
L297.242 314.976
L297.497 317.938
L297.625 317.938
L297.88 312.794
L298.008 313.106
L298.263 314.509
L298.39 314.197
L298.646 314.197
L298.773 315.444
L299.028 315.288
L299.156 312.794
L299.411 314.353
L299.539 375.451
L299.794 375.451
L299.922 309.989
L300.177 316.847
L300.177 316.847
L300.305 314.353
L300.56 375.451
L300.687 317.314
L300.943 375.451
L301.326 375.451
L301.453 316.223
L301.708 317.813
L302.091 314.665
L302.219 316.847
L302.474 316.223
L302.474 316.223
L302.857 317.751
L302.985 316.847
L303.112 317.158
L303.368 317.158
L303.623 375.451
L303.75 316.847
L304.005 316.691
L304.005 316.691
L304.771 314.976
L304.899 316.223
L305.154 314.976
L305.282 316.379
L305.664 316.66
L305.92 316.66
L306.43 312.483
L306.685 316.847
L306.813 314.665
L307.068 314.041
L307.196 315.6
L307.579 314.041
L307.962 316.067
L308.217 313.106
L308.344 316.067
L308.6 312.015
L308.6 312.015
L308.727 315.444
L308.983 309.989
L309.11 315.132
L309.493 316.067
L309.748 313.73
L309.876 311.236
L310.131 316.223
L310.131 316.223
L310.259 315.288
L310.514 316.784
L310.642 315.6
L310.897 314.353
L311.024 315.756
L311.28 314.665
L311.407 315.756
L311.662 316.099
L311.79 315.756
L312.428 316.099
L312.811 313.262
L312.939 316.784
L313.194 316.223
L313.321 315.6
L313.577 316.753
L313.704 315.912
L314.087 315.912
L314.342 315.6
L314.47 316.847
L314.725 316.535
L314.853 316.691
L315.108 315.6
L315.236 313.137
L315.491 316.66
L315.619 315.6
L315.874 317.158
L316.257 317.626
L316.384 313.106
L316.767 317.626
L317.022 316.691
L317.15 317.938
L317.405 316.223
L317.533 308.399
L317.788 316.847
L318.171 314.758
L318.298 315.444
L318.554 315.132
L318.554 315.132
L318.681 317.003
L318.937 316.847
L319.064 317.19
L319.319 316.847
L319.319 316.847
L319.447 308.742
L319.702 317.314
L320.085 313.73
L320.213 316.067
L320.596 316.379
L320.851 314.509
L320.851 314.509
L321.234 375.451
L321.361 316.067
L321.616 316.379
L321.999 316.067
L322.127 315.444
L322.893 316.847
L323.148 316.535
L323.531 314.634
L323.658 316.691
L324.041 314.509
L324.296 316.067
L324.424 316.036
L324.679 315.444
L324.807 313.262
L325.19 316.317
L325.573 313.885
L326.211 316.348
L326.338 315.444
L326.593 315.132
L326.721 313.106
L326.976 316.192
L327.104 316.379
L327.487 313.885
L327.87 316.691
L328.125 315.444
L328.252 317.127
L328.508 312.171
L328.635 315.6
L328.891 266.348
L329.018 59.0215
L329.273 312.171
L329.401 314.665
L329.656 314.976
L329.784 314.353
L330.039 315.288
L330.422 312.015
L330.55 315.288
L330.933 316.223
L331.188 314.976
L331.315 316.535
L331.57 317.158
L331.698 314.976
L331.953 314.665
L332.081 314.041
L332.464 316.535
L332.719 315.288
L332.847 316.535
L333.102 314.976
L333.23 317.47
L333.485 313.106
L333.612 315.912
L333.868 316.847
L334.378 314.665
L334.633 315.444
L334.761 314.509
L335.016 314.197
L335.144 313.574
L335.399 315.6
L335.527 312.483
L335.782 313.418
L335.909 316.504
L336.165 315.6
L336.292 316.223
L336.548 315.912
L336.675 315.288
L336.93 315.912
L337.058 315.912
L337.313 314.976
L337.441 312.794
L337.696 313.698
L338.079 316.535
L338.462 314.041
L338.845 316.629
L338.972 316.379
L339.227 315.6
L339.355 316.192
L339.61 316.691
L339.866 316.691
L340.121 314.509
L340.376 317.782
L340.504 317.034
L340.886 315.912
L341.269 312.483
L341.525 313.73
L341.652 316.192
L342.035 315.288
L342.29 316.535
L342.673 316.535
L342.801 313.106
L343.184 310.924
L343.439 316.223
L343.566 309.989
L343.949 316.535
L344.204 315.912
L344.332 316.348
L344.588 316.816
L344.715 316.566
L344.97 317.158
L345.353 315.756
L345.353 315.756
L345.481 317.314
L345.736 309.054
L345.863 308.742
L346.246 309.677
L346.502 309.989
L346.629 315.288
L346.884 375.451
L346.884 375.451
L347.012 316.816
L347.395 314.353
L347.65 314.041
L347.778 297.52
L348.161 311.859
L348.416 315.912
L348.543 375.451
L348.799 315.912
L348.926 314.665
L349.181 314.665
L349.309 316.223
L349.564 375.451
L349.692 315.725
L350.075 317.782
L350.458 315.912
L350.713 315.288
L350.84 316.847
L351.096 317.158
L351.606 314.665
L351.861 317.782
L351.989 316.847
L352.244 317.158
L352.372 316.223
L352.627 313.418
L352.755 317.158
L353.138 314.976
L353.393 317.158
L353.52 316.847
L353.776 317.782
L353.776 317.782
L354.158 316.535
L354.286 317.47
L354.541 317.782
L354.669 313.418
L354.924 375.451
L355.052 316.223
L355.307 313.418
L355.307 313.418
L355.435 316.847
L355.69 315.288
L356.2 315.288
L356.583 313.73
L356.838 315.912
L356.966 297.364
L357.221 314.353
L357.477 316.784
L357.987 313.418
L358.115 313.73
L358.37 312.483
L358.37 312.483
L358.497 312.794
L358.753 311.236
L358.88 311.236
L359.136 309.677
L359.263 313.73
L359.518 313.574
L359.646 312.015
L359.901 315.6
L360.029 314.041
L360.284 313.418
L360.412 312.483
L360.667 312.171
L360.795 315.101
L361.177 311.859
L361.433 315.132
L361.56 314.509
L361.943 317.688
L362.198 375.451
L362.326 375.451
L362.581 316.691
L362.709 375.451
L362.964 318.374
L363.092 318.094
L363.347 375.451
L363.474 316.535
L363.857 312.296
L364.113 312.171
L364.24 375.451
L364.495 375.451
L364.623 317.47
L365.006 318.374
L365.261 317.003
L365.389 317.782
L365.644 317.47
L365.772 316.847
L366.155 317.751
L366.41 316.691
L366.537 375.451
L366.792 312.794
L366.92 311.547
L367.303 317.782
L367.686 313.574
L367.941 317.969
L368.069 317.626
L368.324 318.125
L368.451 317.314
L368.707 317.626
L369.09 318.561
L369.855 316.067
L369.983 316.067
L370.238 317.626
L370.366 375.451
L370.621 315.6
L370.749 315.6
L371.004 313.106
L371.131 318.468
L371.387 317.626
L371.514 375.451
L371.897 375.451
L372.152 317.003
L372.28 317.782
L372.535 316.223
L372.663 316.535
L372.918 315.912
L373.046 315.912
L373.301 313.885
L373.428 314.665
L373.684 309.365
L373.684 309.365
L373.811 315.912
L374.194 314.353
L374.449 314.041
L374.577 313.418
L374.832 315.912
L375.215 315.6
L375.343 316.161
L375.726 316.067
L375.981 316.067
L376.108 312.95
L376.364 314.821
L376.491 314.197
L376.746 375.451
L376.874 317.158
L377.257 316.535
L377.767 310.924
L378.023 310.924
L378.405 317.158
L378.661 317.158
L379.171 315.756
L379.426 316.535
L379.554 309.989
L379.937 317.47
L380.192 317.47
L380.575 316.847
L380.958 317.782
L381.341 315.912
L381.468 316.691
L381.723 314.197
L381.851 316.691
L382.107 317.158
L382.234 317.003
L382.489 312.483
L382.617 316.971
L382.872 375.451
L383 375.451
L383.255 318.25
L384.021 315.756
L384.148 317.501
L384.403 316.504
L384.531 316.535
L384.786 315.912
L385.169 316.379
L385.297 317.003
L385.68 314.197
L385.935 315.132
L386.062 314.197
L386.318 313.418
L386.445 313.73
L386.701 316.379
L386.828 315.444
L387.211 314.665
L387.466 314.665
L387.594 314.353
L387.977 314.665
L388.232 316.379
L388.232 316.379
L388.36 313.106
L388.615 319.029
L388.742 317.003
L388.998 341.161
L389.125 341.161
L389.38 316.379
L389.508 315.912
L389.763 315.6
L389.891 314.976
L390.146 315.756
L390.274 314.821
L390.529 306.872
L390.657 314.353
L390.912 315.195
L391.039 314.353
L391.422 314.821
L391.678 313.885
L391.805 316.504
L392.06 316.473
L392.188 340.787
L392.443 315.912
L392.571 340.787
L392.954 314.041
L393.337 316.722
L393.592 316.722
L393.719 316.379
L393.975 312.95
L394.102 315.444
L394.102 315.444
L394.485 316.442
L394.74 316.223
L394.868 316.442
L395.123 315.912
L395.251 315.912
L395.506 316.597
L395.634 315.912
L395.889 315.6
L396.016 315.912
L396.399 315.912
L396.655 316.286
L396.782 315.288
L397.037 314.976
L397.165 313.885
L397.42 308.119
L397.548 314.727
L397.803 312.639
L397.931 314.353
L398.186 313.106
L398.314 313.387
L398.569 312.483
L399.079 316.691
L399.335 314.509
L399.462 315.288
L399.845 312.483
L400.1 316.691
L400.228 316.691
L400.483 314.821
L400.611 340.787
L400.866 314.634
L400.993 340.787
L401.249 312.794
L401.376 314.665
L401.632 315.943
L401.759 313.418
L402.397 316.067
L402.525 315.132
L402.78 309.21
L402.908 87.8869
L403.163 313.885
L403.291 316.005
L403.546 315.132
L403.929 312.483
L404.056 309.677
L404.311 315.912
L404.439 315.912
L404.822 313.73
L405.077 313.73
L405.205 306.872
L405.46 316.847
L405.843 316.847
L405.97 316.223
L406.226 316.847
L406.353 340.787
L406.609 316.691
L406.736 317.377
L406.991 316.379
L407.119 316.66
L407.374 316.535
L407.502 317.19
L407.757 315.6
L407.885 317.19
L408.14 317.501
L408.268 317.158
L408.523 315.6
L408.65 316.691
L408.906 317.564
L409.033 316.067
L409.289 314.665
L409.416 317.003
L409.671 316.379
L409.799 317.003
L410.054 316.691
L410.182 312.171
L410.437 315.132
L410.565 306.248
L410.948 316.691
L411.203 315.6
L411.33 316.535
L411.586 316.691
L411.713 315.756
L411.968 312.327
L412.096 314.197
L412.607 317.003
L412.989 315.444
L413.245 312.639
L413.5 312.639
L413.627 312.483
L413.883 316.753
L414.01 316.66
L414.393 312.794
L414.648 314.821
L414.776 313.137
L415.031 313.137
L415.159 312.794
L415.414 310.924
L415.542 315.756
L415.925 315.132
L416.18 297.52
L416.307 296.741
L416.563 316.067
L417.073 315.288
L417.328 314.353
L417.456 316.597
L417.839 312.639
L418.094 315.912
L418.222 315.6
L418.477 313.418
L418.604 317.034
L418.86 316.223
L419.37 310.612
L419.625 311.236
L419.753 297.52
L420.008 316.473
L420.136 316.223
L420.519 314.976
L420.902 316.223
L421.284 312.639
L421.54 316.379
L421.922 314.197
L422.05 312.95
L422.305 313.574
L422.433 314.197
L422.688 311.703
L422.816 316.067
L423.071 315.756
L423.199 316.067
L423.454 315.444
L423.581 341.785
L423.964 313.106
L424.347 315.756
L424.602 315.132
L424.73 314.197
L424.985 314.821
L425.368 311.703
L425.496 312.639
L425.751 312.95
L425.879 296.585
L426.261 316.348
L426.644 315.444
L426.899 312.794
L427.282 315.444
L427.41 317.501
L427.793 313.73
L428.048 316.535
L428.176 316.535
L428.558 316.847
L428.941 315.912
L429.197 317.938
L429.324 317.938
L429.962 317.314
L430.09 317.314
L430.345 313.574
L430.473 314.509
L430.728 314.509
L430.856 316.067
L430.983 315.756
L431.238 317.72
L431.621 316.223
L432.004 316.847
L432.387 316.223
L432.642 314.665
L432.642 314.665
L433.025 314.665
L433.153 316.816
L433.408 317.127
L433.536 316.847
L433.791 314.976
L433.918 296.741
L434.174 312.296
L434.301 313.106
L434.556 315.912
L434.939 312.95
L435.067 313.574
L435.322 312.639
L435.705 316.223
L436.088 314.509
L436.215 314.509
L436.471 316.535
L436.598 315.288
L436.854 314.01
L436.981 316.223
L437.236 317.158
L437.364 313.106
L437.619 313.73
L437.747 313.418
L438.002 316.847
L438.385 314.821
L438.513 313.574
L438.768 375.451
L438.895 317.47
L439.151 316.223
L439.533 316.535
L439.661 314.976
L439.916 314.665
L440.044 309.365
L440.299 316.223
L440.299 316.223
L440.427 315.288
L440.682 315.6
L441.065 314.976
L441.192 316.691
L441.831 310.768
L441.831 310.768
L441.958 310.768
L442.341 312.015
L442.596 311.703
L442.724 315.756
L442.979 313.574
L443.107 316.971
L443.362 316.379
L443.49 314.821
L443.745 375.451
L443.872 316.971
L444.128 316.691
L444.255 316.847
L444.51 316.223
L444.638 375.451
L444.893 316.067
L445.021 316.379
L445.276 316.067
L445.404 316.691
L445.659 317.314
L446.042 311.703
L446.169 316.971
L446.425 313.885
L446.552 317.003
L446.935 313.262
L447.19 315.756
L447.318 375.451
L447.573 316.535
L447.701 314.665
L447.956 314.322
L448.084 317.314
L448.339 314.976
L448.467 315.756
L448.722 315.132
L448.849 317.782
L449.105 315.132
L449.232 316.535
L449.487 314.976
L449.487 314.976
L449.615 309.646
L449.87 375.451
L450.126 375.451
L450.381 316.223
L450.636 316.223
L450.764 317.47
L451.019 375.451
L451.146 312.794
L451.402 375.451
L451.529 375.451
L451.785 317.003
L451.912 316.691
L452.167 316.847
L452.295 315.912
L452.55 316.535
L452.678 317.907
L452.933 317.158
L453.061 317.158
L453.316 316.847
L453.444 316.223
L453.699 316.535
L453.826 315.88
L454.082 316.535
L454.209 375.451
L454.465 297.52
L454.592 315.444
L454.847 317.314
L454.847 317.314
L454.975 317.003
L455.23 317.626
L455.358 317.626
L455.613 316.379
L455.741 316.379
L455.996 316.847
L456.123 314.353
L456.379 317.158
L456.506 316.691
L456.889 315.912
L457.272 312.95
L457.527 312.639
L457.655 314.976
L457.91 314.976
L458.038 316.223
L458.293 313.418
L458.421 313.418
L458.676 315.912
L458.803 314.976
L459.059 310.924
L459.186 315.6
L459.442 316.223
L459.569 316.847
L459.824 316.223
L459.952 316.847
L460.59 316.223
L460.718 375.451
L460.973 316.847
L461.101 316.223
L461.356 315.912
L461.484 317.314
L461.866 316.067
L462.121 316.067
L462.249 375.451
L462.504 317.158
L462.632 316.223
L462.887 318.094
L463.015 317.782
L463.27 316.535
L463.398 283.492
L463.653 315.912
L463.781 312.171
L464.163 317.158
L464.419 313.106
L464.546 313.574
L464.929 317.751
L465.184 375.451
L465.312 317.158
L465.567 317.158
L465.567 317.158
L465.695 316.847
L465.95 317.782
L466.078 375.451
L466.333 317.938
L466.46 316.847
L466.716 317.626
L466.843 375.451
L467.098 316.971
L467.098 316.971
L467.226 375.451
L467.481 316.379
L467.864 317.314
L467.992 375.451
L468.247 375.451
L468.63 317.626
L468.757 316.379
L469.14 317.751
L469.396 316.535
L469.523 318
L469.778 375.451
L469.906 316.223
L470.161 315.912
L470.289 314.976
L470.927 314.976
L471.055 315.288
L471.437 313.73
L471.693 314.041
L471.82 314.01
L472.075 313.73
L472.203 313.418
L472.586 317.782
L472.841 317.782
L472.969 375.451
L473.224 317.158
L473.352 317.158
L473.607 317.782
L473.734 316.847
L473.99 317.314
L474.118 375.451
L474.373 375.451
L474.5 314.197
L474.755 317.003
L474.883 316.847
L475.138 375.451
L475.266 316.223
L475.521 317.003
L475.649 315.756
L475.904 317.782
L476.032 317.47
L476.414 314.197
L476.67 313.262
L476.797 313.262
L477.052 317.564
L477.18 316.379
L477.435 317.47
L477.563 375.451
L477.818 317.003
L477.946 316.691
L478.201 314.041
L478.329 317.626
L478.584 317.626
L478.711 317.314
L478.967 375.451
L479.094 317.314
L479.35 297.52
L479.477 317.938
L479.86 314.976
L480.243 317.969
L480.498 317.626
L480.626 375.451
L480.881 317.907
L481.009 317.907
L481.264 317.626
L481.391 266.348
L481.647 375.451
L481.774 317.47
L482.03 316.847
L482.157 315.912
L482.412 315.912
L482.54 317.782
L482.795 317.065
L482.923 315.6
L483.178 318.343
L483.306 316.535
L483.561 317.782
L483.689 316.223
L483.944 317.782
L484.071 313.418
L484.454 317.782
L484.709 317.439
L484.837 375.451
L485.092 375.451
L485.22 316.691
L485.475 314.976
L485.858 315.756
L485.986 315.132
L486.368 281.934
L486.624 313.73
L486.751 313.574
L487.007 314.197
L487.134 315.132
L487.389 314.509
L487.517 314.509
L487.772 316.722
L487.9 316.067
L488.155 316.067
L488.283 316.348
L488.538 315.756
L488.666 316.379
L488.921 315.132
L489.048 313.885
L489.304 312.95
L489.686 315.6
L489.814 315.288
L490.069 315.444
L490.197 317.47
L490.452 317.158
L490.58 316.535
L490.835 315.912
L490.963 316.847
L491.345 314.041
L491.601 313.73
L491.728 314.976
L491.984 315.6
L492.366 311.703
L492.494 314.509
L492.749 310.768
L492.877 316.504
L493.132 315.6
L493.26 314.353
L493.515 313.106
L493.643 317.813
L493.898 316.847
L494.026 317.47
L494.408 317.47
L494.663 316.223
L494.791 317.47
L495.046 317.907
L495.429 317.314
L495.557 375.451
L495.684 317.626
L495.94 315.444
L496.195 316.379
L496.322 316.067
L496.705 314.197
L496.961 313.262
L497.088 316.379
L497.471 315.6
L497.854 312.794
L498.109 315.6
L498.237 315.288
L498.492 313.106
L498.62 315.288
L498.875 313.574
L499.002 313.574
L499.258 314.976
L499.258 314.976
L499.385 314.353
L499.64 311.859
L499.768 316.535
L500.023 317.314
L500.406 314.478
L500.534 314.665
L500.789 313.418
L500.917 313.73
L501.172 316.223
L501.555 312.171
L501.682 311.547
L502.065 316.099
L502.32 314.821
L502.448 315.257
L502.703 313.574
L502.831 315.132
L503.086 314.821
L503.214 313.885
L503.597 317.314
L503.852 317.003
L503.979 316.379
L504.235 375.451
L504.362 317.47
L504.617 375.451
L504.745 318.094
L504.873 316.535
L505.128 310.301
L505.383 375.451
L505.511 318.094
L505.766 317.158
L505.894 313.106
L506.277 310.924
L506.532 317.314
L506.659 317.314
L507.042 314.821
L507.297 314.197
L507.425 314.353
L507.68 312.327
L507.808 316.535
L508.063 316.535
L508.191 316.816
L508.446 315.6
L508.829 316.535
L509.212 375.451
L509.339 316.847
L509.595 318.281
L509.722 315.818
L509.977 314.353
L510.36 313.418
L510.488 314.821
L510.743 313.73
L510.871 317.158
L511.126 317.314
L511.509 318.25
L511.636 318.218
L511.892 375.451
L512.019 318.094
L512.274 318.094
L512.402 317.782
L512.657 315.912
L512.785 317.782
L513.04 317.47
L513.168 315.912
L513.423 317.314
L513.551 315.444
L513.806 314.821
L513.933 375.451
L514.189 316.067
L514.317 317.003
L514.954 316.067
L515.082 315.6
L515.337 317.314
L515.465 317.003
L515.72 375.451
L515.848 317.003
L516.103 317.938
L516.231 317.938
L516.486 315.444
L516.613 316.847
L516.869 317.158
L516.996 314.976
L517.251 315.6
L517.379 314.976
L517.634 296.741
L517.762 317.314
L518.017 297.52
L518.145 315.288
L518.4 313.885
L518.4 313.885" style="fill:none;stroke:#ff0000;stroke-linecap:square;"/>
   </g>
   <g id="line2d_2">
    <path clip-path="url(#pcb2bf987bf)" d="
M72 318.094
L72.1276 319.652
L72.7657 319.652
L72.8933 319.964
L73.5314 319.964
L73.659 319.652
L75.0628 319.559
L75.1904 319.403
L75.8285 319.403
L75.9561 318.998
L77.3599 318.998
L77.7429 319.902
L78.8915 319.995
L79.0189 319.746
L79.6569 319.746
L79.7846 319.309
L80.4226 319.309
L80.5503 318.779
L81.1885 318.779
L81.316 318.966
L81.9542 318.966
L82.0816 319.122
L82.7197 319.122
L82.8473 318.468
L83.4854 318.468
L83.613 318.811
L84.2511 318.811
L84.3787 319.309
L85.017 319.309
L85.1444 318.998
L85.7825 318.998
L85.9101 319.216
L86.5482 319.216
L86.6758 319.559
L87.3139 319.559
L87.4415 319.122
L88.0796 319.122
L88.2072 319.652
L88.8453 319.652
L88.8453 319.652
L88.9729 319.434
L89.611 319.434
L89.7386 319.59
L91.0148 319.559
L91.9081 318.998
L92.6738 319.309
L93.3118 319.185
L94.2051 319.621
L94.9708 318.873
L95.7365 319.309
L96.3746 319.652
L97.1403 318.904
L98.0336 319.403
L98.7993 319.309
L99.4374 319.559
L100.331 319.341
L100.969 319.247
L102.5 318.499
L103.393 318.998
L104.032 318.343
L104.797 319.154
L105.563 319.465
L106.329 319.559
L107.095 320.089
L108.626 320.151
L109.519 319.278
L110.285 319.341
L111.05 320.12
L111.816 320.182
L113.986 320.276
L114.879 319.185
L116.41 319.839
L117.048 319.029
L117.942 319.559
L118.707 319.029
L119.345 319.995
L120.111 319.528
L121.004 320.213
L121.643 319.621
L122.536 319.528
L123.174 319.902
L124.067 319.559
L124.705 319.59
L125.471 319.87
L126.237 320.432
L126.237 320.432
L126.365 320.432
L127.13 320.213
L127.13 320.213
L127.768 320.213
L128.661 320.432
L129.299 319.559
L130.831 319.777
L132.362 320.151
L132.362 320.151
L133.894 320.089
L134.149 319.341
L134.659 319.341
L136.318 320.057
L136.956 319.995
L137.722 319.652
L138.488 320.12
L139.381 320.12
L140.019 319.185
L140.785 319.683
L141.678 319.372
L142.316 319.341
L143.082 319.59
L143.975 320.12
L144.613 319.091
L145.507 319.496
L146.272 319.715
L147.038 319.403
L147.676 320.089
L149.335 319.808
L149.973 320.151
L150.867 318.842
L151.505 319.59
L153.164 319.528
L153.802 318.935
L154.567 319.122
L155.333 319.465
L156.099 319.309
L156.865 318.374
L157.758 318.374
L158.396 318.592
L159.927 319.808
L160.821 319.59
L162.224 318.281
L162.99 319.995
L163.118 319.995
L163.883 319.434
L164.649 319.403
L165.287 319.715
L166.053 319.839
L166.819 318.686
L167.584 320.245
L167.712 320.245
L168.35 320.432
L169.243 319.122
L169.881 319.777
L170.775 318.998
L171.413 319.216
L172.178 320.245
L173.072 320.026
L173.71 320.089
L174.603 319.87
L176.007 320.213
L176.9 319.216
L178.304 319.341
L179.07 320.057
L179.963 320.432
L180.729 319.59
L181.367 319.621
L182.26 319.216
L182.898 319.06
L183.791 319.808
L184.43 320.245
L187.492 320.525
L188.258 320.182
L189.151 320.12
L190.555 319.341
L191.321 320.151
L191.321 320.151
L192.852 319.777
L193.618 319.403
L195.277 318.998
L195.915 318.966
L196.681 319.715
L198.978 320.307
L200.509 320.276
L201.275 320.057
L202.04 319.995
L202.806 320.182
L203.699 320.525
L204.338 319.341
L205.231 320.245
L205.997 319.995
L206.124 319.496
L206.762 319.496
L207.4 320.525
L207.911 320.276
L208.166 320.276
L208.804 319.59
L209.825 319.528
L210.591 319.341
L210.846 319.528
L211.356 319.528
L211.484 318.717
L212.122 318.717
L212.25 319.341
L212.888 319.341
L213.398 319.839
L214.419 319.808
L214.547 320.057
L216.589 320.089
L216.589 320.089
L216.844 320.463
L217.482 320.463
L217.482 320.463
L217.61 320.619
L219.013 320.525
L219.396 320.494
L219.779 320.494
L219.907 320.743
L220.545 320.743
L220.672 320.525
L220.672 320.525
L221.31 320.525
L221.438 319.683
L222.076 319.683
L222.204 320.151
L222.842 320.151
L222.842 320.151
L223.352 320.307
L223.608 320.307
L223.735 319.964
L224.373 319.964
L224.501 319.715
L225.139 319.715
L225.267 320.026
L225.905 320.026
L225.905 320.026
L226.032 320.338
L226.032 320.338
L226.67 320.338
L226.798 319.995
L227.436 319.995
L227.436 319.995
L227.946 319.808
L228.202 319.808
L228.329 320.089
L228.967 320.089
L229.095 319.839
L230.499 319.808
L230.499 319.808
L230.882 318.998
L231.264 318.998
L231.264 318.998
L231.392 318.811
L232.03 318.811
L232.158 319.185
L232.796 319.185
L232.796 319.185
L232.924 318.468
L233.562 318.468
L233.689 318.779
L234.327 318.779
L234.327 318.779
L234.455 319.59
L235.093 319.59
L235.093 319.59
L235.221 320.556
L236.624 320.556
L236.752 320.4
L237.39 320.4
L237.518 319.403
L238.921 319.403
L239.049 320.525
L240.453 320.619
L240.453 320.619
L240.58 320.057
L241.984 319.995
L242.112 320.681
L242.75 320.681
L242.878 319.621
L243.516 319.621
L243.643 320.743
L244.281 320.743
L244.409 320.369
L245.047 320.369
L245.047 320.369
L245.175 320.089
L246.578 320.089
L246.578 320.089
L246.706 320.307
L247.344 320.307
L247.727 319.434
L247.855 319.434
L248.237 319.995
L248.876 319.995
L248.876 319.995
L249.003 319.746
L249.641 319.746
L249.641 319.746
L249.769 319.995
L250.407 319.995
L250.534 319.496
L251.938 319.59
L252.066 319.777
L252.704 319.777
L252.832 320.743
L253.47 320.743
L253.597 320.463
L255.767 320.525
L255.767 320.525
L255.894 319.808
L256.532 319.808
L256.66 320.369
L256.66 320.369
L257.298 320.369
L257.426 320.556
L258.064 320.556
L258.064 320.556
L258.574 321.024
L258.83 321.024
L258.957 320.65
L260.361 320.681
L260.489 320.12
L261.127 320.12
L261.254 320.961
L261.892 320.961
L262.02 320.4
L262.658 320.4
L262.786 320.12
L263.424 320.12
L263.424 320.12
L263.551 319.403
L264.189 319.403
L264.189 319.403
L264.317 318.873
L264.955 318.873
L264.955 318.873
L265.083 317.813
L265.593 317.813
L265.848 318.031
L266.486 318.031
L266.614 319.652
L267.252 319.652
L267.38 319.528
L268.018 319.528
L268.145 320.057
L268.784 320.057
L268.911 320.619
L269.549 320.619
L269.677 320.182
L270.315 320.182
L270.443 320.4
L271.081 320.4
L271.463 319.621
L271.846 319.621
L271.974 320.712
L272.612 320.712
L272.74 320.182
L273.378 320.182
L273.378 320.182
L273.506 319.933
L274.143 319.933
L274.271 319.777
L274.909 319.777
L274.909 319.777
L275.037 320.026
L275.675 320.026
L275.802 319.091
L276.441 319.091
L276.568 318.811
L277.972 318.811
L277.972 318.811
L278.099 320.712
L278.738 320.712
L278.865 320.369
L279.503 320.369
L279.631 320.494
L280.269 320.494
L280.269 320.494
L280.397 320.12
L281.035 320.12
L281.035 320.12
L281.162 320.463
L281.801 320.463
L282.311 320.587
L283.332 320.525
L283.459 319.902
L284.097 319.902
L284.225 320.556
L284.736 320.556
L285.246 319.465
L285.629 319.465
L285.756 320.276
L286.395 320.276
L286.522 319.715
L287.16 319.715
L287.288 319.372
L287.926 319.372
L288.054 319.839
L288.692 319.839
L288.819 320.619
L289.457 320.619
L289.585 320.12
L290.223 320.12
L290.351 320.245
L290.989 320.245
L291.116 320.619
L292.52 320.525
L292.52 320.525
L292.648 320.743
L294.051 320.65
L294.051 320.65
L294.179 320.868
L294.817 320.868
L294.817 320.868
L294.945 320.65
L295.583 320.65
L295.71 319.995
L297.114 320.057
L297.242 320.369
L297.88 320.369
L298.008 319.309
L298.646 319.309
L298.773 318.717
L299.411 318.717
L299.539 319.839
L300.177 319.839
L300.177 319.839
L300.305 320.307
L300.943 320.307
L301.07 320.556
L303.112 320.494
L303.368 320.213
L304.771 320.276
L304.899 319.434
L305.537 319.434
L305.664 320.245
L307.068 320.245
L307.068 320.245
L307.196 319.559
L307.834 319.559
L307.962 319.122
L308.6 319.122
L308.6 319.122
L308.727 320.432
L309.365 320.432
L309.493 319.839
L310.897 319.839
L311.024 318.904
L311.662 318.904
L311.79 319.621
L314.725 319.715
L314.853 320.026
L315.491 320.026
L315.619 320.587
L317.022 320.681
L317.15 319.933
L317.788 319.933
L317.916 320.307
L318.554 320.307
L318.554 320.307
L318.681 320.494
L319.319 320.494
L319.319 320.494
L319.447 320.307
L320.851 320.4
L320.851 320.4
L321.234 319.403
L321.616 319.403
L321.999 320.743
L322.127 320.743
L322.893 320.245
L324.679 320.276
L324.807 320.026
L326.211 320.026
L326.338 319.902
L326.976 319.902
L327.104 319.528
L327.742 319.528
L327.87 320.057
L328.508 320.057
L328.635 318.717
L329.273 318.717
L329.401 319.029
L330.039 319.029
L330.167 319.777
L330.805 319.777
L330.933 320.525
L331.57 320.525
L331.698 320.961
L333.102 320.961
L333.23 320.556
L333.868 320.556
L333.995 320.057
L334.633 320.057
L334.761 320.245
L335.399 320.245
L335.527 319.902
L336.165 319.902
L336.292 320.182
L336.93 320.182
L337.058 320.837
L337.696 320.837
L337.824 320.213
L338.462 320.213
L338.589 319.403
L339.227 319.403
L339.355 319.808
L339.866 319.808
L340.121 320.837
L340.504 320.837
L340.759 321.055
L340.886 320.057
L341.525 320.057
L341.652 319.528
L342.29 319.528
L342.418 320.026
L343.056 320.026
L343.184 319.403
L343.822 319.403
L343.822 319.403
L343.949 319.777
L344.588 319.777
L344.715 320.338
L346.884 320.338
L346.884 320.338
L347.012 321.491
L347.65 321.491
L347.778 320.213
L348.416 320.213
L348.543 319.528
L349.181 319.528
L349.309 320.525
L349.947 320.525
L350.075 321.149
L350.713 321.149
L350.84 320.712
L353.776 320.743
L353.776 320.743
L354.286 321.086
L354.541 321.086
L354.669 320.743
L355.307 320.743
L355.307 320.743
L355.435 320.432
L356.838 320.4
L356.966 319.559
L358.37 319.528
L358.37 319.528
L358.497 317.844
L359.136 317.844
L359.263 317.252
L359.901 317.252
L360.029 319.06
L360.667 319.06
L360.795 318.218
L361.433 318.218
L361.56 320.057
L362.198 320.057
L362.326 321.336
L362.964 321.336
L363.092 321.055
L363.73 321.055
L363.857 320.712
L364.495 320.712
L364.623 321.211
L365.261 321.211
L365.389 320.837
L366.027 320.837
L366.027 320.837
L366.155 320.276
L366.792 320.276
L366.92 320.774
L368.324 320.681
L368.451 321.242
L369.855 321.18
L369.983 320.65
L370.621 320.65
L370.749 321.18
L371.387 321.18
L371.514 320.961
L372.152 320.961
L372.28 321.086
L372.918 321.086
L373.046 320.276
L373.684 320.276
L373.684 320.276
L373.811 318.966
L375.215 318.966
L375.343 319.496
L375.981 319.496
L376.108 320.245
L376.746 320.245
L376.874 320.961
L377.512 320.961
L377.512 320.961
L377.64 320.151
L378.278 320.151
L378.405 320.432
L379.044 320.432
L379.171 319.746
L379.809 319.746
L379.937 320.556
L380.575 320.556
L380.703 320.712
L381.341 320.712
L381.468 320.12
L382.107 320.12
L382.234 320.712
L382.872 320.712
L383 321.18
L383.638 321.18
L384.021 320.276
L385.935 320.276
L386.062 319.746
L386.701 319.746
L386.828 320.806
L387.466 320.806
L387.594 320.089
L388.232 320.089
L388.232 320.089
L388.36 344.029
L388.998 344.029
L389.125 319.372
L389.763 319.372
L389.891 318.811
L390.529 318.811
L390.657 318.094
L391.295 318.094
L391.422 319.309
L392.06 319.309
L392.188 319.839
L392.826 319.839
L392.954 319.496
L393.592 319.496
L393.719 319.247
L394.102 319.247
L394.102 319.247
L394.74 319.372
L395.889 319.309
L396.016 319.091
L396.655 319.091
L396.782 319.465
L397.42 319.465
L397.548 317.595
L398.186 317.595
L398.314 317.938
L398.952 317.938
L399.079 319.715
L399.717 319.715
L399.845 318.53
L400.483 318.53
L400.611 318.748
L401.249 318.748
L401.376 319.496
L402.78 319.496
L402.908 319.746
L403.546 319.746
L403.673 319.528
L404.311 319.528
L404.439 319.902
L405.843 319.87
L405.97 320.057
L407.374 320.12
L407.502 320.276
L409.671 320.307
L409.799 319.808
L410.437 319.808
L410.565 319.933
L411.968 319.964
L412.096 318.561
L412.607 318.561
L412.989 319.528
L413.5 319.528
L413.627 319.715
L414.266 319.715
L414.393 319.029
L415.031 319.029
L415.159 319.59
L415.797 319.59
L415.925 319.465
L417.328 319.403
L417.456 319.309
L418.094 319.309
L418.222 319.621
L418.86 319.621
L418.987 320.338
L419.625 320.338
L419.753 319.278
L420.391 319.278
L420.519 319.839
L421.157 319.839
L421.284 319.496
L421.922 319.496
L422.05 319.902
L422.688 319.902
L422.816 319.403
L423.454 319.403
L423.581 320.369
L424.22 320.369
L424.347 319.621
L424.985 319.621
L425.113 319.403
L426.517 319.496
L426.644 320.245
L427.282 320.245
L427.41 320.432
L428.048 320.432
L428.176 319.964
L428.814 319.964
L428.941 320.899
L429.579 320.899
L429.707 320.494
L430.345 320.494
L430.473 319.185
L430.983 319.185
L431.238 320.182
L431.877 320.182
L432.004 320.525
L432.642 320.525
L432.642 320.525
L432.77 319.902
L433.408 319.902
L433.536 320.307
L434.174 320.307
L434.301 318.655
L434.939 318.655
L435.067 318.935
L435.705 318.935
L435.833 319.933
L436.471 319.933
L436.598 320.12
L438.002 320.12
L438.13 320.556
L438.768 320.556
L438.895 320.868
L439.533 320.868
L439.661 320.463
L440.299 320.463
L440.299 320.463
L440.427 320.307
L441.065 320.307
L441.192 319.808
L441.831 319.808
L441.831 319.808
L441.958 319.465
L442.596 319.465
L442.724 319.746
L443.362 319.746
L443.49 320.712
L444.128 320.712
L444.255 320.868
L444.893 320.868
L445.021 320.619
L445.659 320.619
L446.169 320.369
L446.425 320.369
L446.552 320.525
L447.956 320.587
L448.084 319.465
L448.722 319.465
L448.849 319.621
L450.126 319.528
L450.381 320.556
L451.785 320.619
L451.912 320.245
L454.082 320.213
L454.209 320.369
L454.847 320.369
L454.847 320.369
L454.975 320.587
L455.613 320.587
L455.741 320.151
L456.379 320.151
L456.506 320.556
L457.144 320.556
L457.272 319.59
L457.91 319.59
L458.038 319.839
L460.207 319.87
L460.335 320.65
L461.739 320.65
L461.866 320.12
L462.504 320.12
L462.632 321.055
L463.27 321.055
L463.398 320.494
L464.036 320.494
L464.163 319.964
L464.801 319.964
L464.929 320.151
L465.567 320.151
L465.567 320.151
L465.695 320.93
L467.098 320.868
L467.098 320.868
L467.226 320.307
L467.864 320.307
L467.992 320.837
L468.63 320.837
L468.757 320.712
L469.396 320.712
L469.523 320.587
L470.927 320.494
L471.055 320.151
L472.458 320.057
L472.586 320.806
L473.99 320.899
L474.118 320.993
L474.755 320.993
L474.883 320.65
L475.521 320.65
L475.649 320.837
L476.287 320.837
L476.414 320.307
L477.052 320.307
L477.18 320.961
L478.584 320.899
L478.711 320.681
L479.35 320.681
L479.477 320.899
L480.115 320.899
L480.243 320.619
L481.647 320.65
L481.774 321.055
L482.412 321.055
L482.54 319.839
L483.178 319.839
L483.306 320.743
L483.944 320.743
L484.071 320.432
L484.709 320.432
L484.837 320.556
L485.475 320.556
L485.858 319.496
L487.772 319.496
L487.9 320.12
L488.538 320.12
L488.666 319.715
L489.304 319.715
L489.431 319.154
L490.069 319.154
L490.197 320.432
L490.835 320.432
L490.963 319.902
L491.601 319.902
L491.728 319.528
L493.132 319.59
L493.26 320.213
L493.898 320.213
L494.026 320.587
L496.195 320.681
L496.322 320.057
L496.961 320.057
L497.088 319.372
L498.492 319.403
L498.62 318.374
L499.258 318.374
L499.258 318.374
L499.385 319.372
L500.023 319.372
L500.151 320.463
L500.789 320.463
L500.917 319.403
L501.555 319.403
L501.682 318.904
L502.32 318.904
L502.448 320.369
L503.086 320.369
L503.214 320.057
L503.852 320.057
L503.979 321.024
L506.149 321.055
L506.277 320.089
L506.915 320.089
L507.042 320.432
L507.68 320.432
L507.808 319.59
L508.446 319.59
L508.574 319.87
L509.212 319.87
L509.339 320.993
L509.977 320.993
L510.36 320.12
L510.743 320.12
L510.871 321.211
L511.509 321.211
L511.636 321.024
L513.04 321.055
L513.168 320.65
L513.806 320.65
L513.933 320.338
L514.572 320.338
L514.699 320.681
L515.337 320.681
L515.465 320.868
L516.103 320.868
L516.231 320.993
L516.869 320.993
L516.996 320.65
L518.4 320.587
L518.4 320.587" style="fill:none;stroke:#008000;stroke-linecap:square;"/>
   </g>
   <g id="patch_3">
    <path d="
M72 43.2
L518.4 43.2" style="fill:none;stroke:#000000;stroke-linecap:square;stroke-linejoin:miter;"/>
   </g>
   <g id="patch_4">
    <path d="
M518.4 345.6
L518.4 43.2" style="fill:none;stroke:#000000;stroke-linecap:square;stroke-linejoin:miter;"/>
   </g>
   <g id="patch_5">
    <path d="
M72 345.6
L518.4 345.6" style="fill:none;stroke:#000000;stroke-linecap:square;stroke-linejoin:miter;"/>
   </g>
   <g id="patch_6">
    <path d="
M72 345.6
L72 43.2" style="fill:none;stroke:#000000;stroke-linecap:square;stroke-linejoin:miter;"/>
   </g>
   <g id="matplotlib.axis_1">
    <g id="xtick_1">
     <g id="line2d_3">
      <defs>
       <path d="
M0 0
L0 -4" id="m93b0483c22" style="stroke:#000000;stroke-width:0.5;"/>
      </defs>
      <g>
       <use style="stroke:#000000;stroke-width:0.5;" x="117.941468267" xlink:href="#m93b0483c22" y="345.6"/>
      </g>
     </g>
     <g id="line2d_4">
      <defs>
       <path d="
M0 0
L0 4" id="m741efc42ff" style="stroke:#000000;stroke-width:0.5;"/>
      </defs>
      <g>
       <use style="stroke:#000000;stroke-width:0.5;" x="117.941468267" xlink:href="#m741efc42ff" y="43.2"/>
      </g>
     </g>
     <g id="text_1">
      <!-- Oct 13 2015 -->
      <defs>
       <path d="
M19.1875 8.29688
L53.6094 8.29688
L53.6094 0
L7.32812 0
L7.32812 8.29688
Q12.9375 14.1094 22.625 23.8906
Q32.3281 33.6875 34.8125 36.5312
Q39.5469 41.8438 41.4219 45.5312
Q43.3125 49.2188 43.3125 52.7812
Q43.3125 58.5938 39.2344 62.25
Q35.1562 65.9219 28.6094 65.9219
Q23.9688 65.9219 18.8125 64.3125
Q13.6719 62.7031 7.8125 59.4219
L7.8125 69.3906
Q13.7656 71.7812 18.9375 73
Q24.125 74.2188 28.4219 74.2188
Q39.75 74.2188 46.4844 68.5469
Q53.2188 62.8906 53.2188 53.4219
Q53.2188 48.9219 51.5312 44.8906
Q49.8594 40.875 45.4062 35.4062
Q44.1875 33.9844 37.6406 27.2188
Q31.1094 20.4531 19.1875 8.29688" id="BitstreamVeraSans-Roman-32"/>
       <path d="
M39.4062 66.2188
Q28.6562 66.2188 22.3281 58.2031
Q16.0156 50.2031 16.0156 36.375
Q16.0156 22.6094 22.3281 14.5938
Q28.6562 6.59375 39.4062 6.59375
Q50.1406 6.59375 56.4219 14.5938
Q62.7031 22.6094 62.7031 36.375
Q62.7031 50.2031 56.4219 58.2031
Q50.1406 66.2188 39.4062 66.2188
M39.4062 74.2188
Q54.7344 74.2188 63.9062 63.9375
Q73.0938 53.6562 73.0938 36.375
Q73.0938 19.1406 63.9062 8.85938
Q54.7344 -1.42188 39.4062 -1.42188
Q24.0312 -1.42188 14.8125 8.82812
Q5.60938 19.0938 5.60938 36.375
Q5.60938 53.6562 14.8125 63.9375
Q24.0312 74.2188 39.4062 74.2188" id="BitstreamVeraSans-Roman-4f"/>
       <path d="
M31.7812 66.4062
Q24.1719 66.4062 20.3281 58.9062
Q16.5 51.4219 16.5 36.375
Q16.5 21.3906 20.3281 13.8906
Q24.1719 6.39062 31.7812 6.39062
Q39.4531 6.39062 43.2812 13.8906
Q47.125 21.3906 47.125 36.375
Q47.125 51.4219 43.2812 58.9062
Q39.4531 66.4062 31.7812 66.4062
M31.7812 74.2188
Q44.0469 74.2188 50.5156 64.5156
Q56.9844 54.8281 56.9844 36.375
Q56.9844 17.9688 50.5156 8.26562
Q44.0469 -1.42188 31.7812 -1.42188
Q19.5312 -1.42188 13.0625 8.26562
Q6.59375 17.9688 6.59375 36.375
Q6.59375 54.8281 13.0625 64.5156
Q19.5312 74.2188 31.7812 74.2188" id="BitstreamVeraSans-Roman-30"/>
       <path d="
M12.4062 8.29688
L28.5156 8.29688
L28.5156 63.9219
L10.9844 60.4062
L10.9844 69.3906
L28.4219 72.9062
L38.2812 72.9062
L38.2812 8.29688
L54.3906 8.29688
L54.3906 0
L12.4062 0
z
" id="BitstreamVeraSans-Roman-31"/>
       <path d="
M40.5781 39.3125
Q47.6562 37.7969 51.625 33
Q55.6094 28.2188 55.6094 21.1875
Q55.6094 10.4062 48.1875 4.48438
Q40.7656 -1.42188 27.0938 -1.42188
Q22.5156 -1.42188 17.6562 -0.515625
Q12.7969 0.390625 7.625 2.20312
L7.625 11.7188
Q11.7188 9.32812 16.5938 8.10938
Q21.4844 6.89062 26.8125 6.89062
Q36.0781 6.89062 40.9375 10.5469
Q45.7969 14.2031 45.7969 21.1875
Q45.7969 27.6406 41.2812 31.2656
Q36.7656 34.9062 28.7188 34.9062
L20.2188 34.9062
L20.2188 43.0156
L29.1094 43.0156
Q36.375 43.0156 40.2344 45.9219
Q44.0938 48.8281 44.0938 54.2969
Q44.0938 59.9062 40.1094 62.9062
Q36.1406 65.9219 28.7188 65.9219
Q24.6562 65.9219 20.0156 65.0312
Q15.375 64.1562 9.8125 62.3125
L9.8125 71.0938
Q15.4375 72.6562 20.3438 73.4375
Q25.25 74.2188 29.5938 74.2188
Q40.8281 74.2188 47.3594 69.1094
Q53.9062 64.0156 53.9062 55.3281
Q53.9062 49.2656 50.4375 45.0938
Q46.9688 40.9219 40.5781 39.3125" id="BitstreamVeraSans-Roman-33"/>
       <path id="BitstreamVeraSans-Roman-20"/>
       <path d="
M10.7969 72.9062
L49.5156 72.9062
L49.5156 64.5938
L19.8281 64.5938
L19.8281 46.7344
Q21.9688 47.4688 24.1094 47.8281
Q26.2656 48.1875 28.4219 48.1875
Q40.625 48.1875 47.75 41.5
Q54.8906 34.8125 54.8906 23.3906
Q54.8906 11.625 47.5625 5.09375
Q40.2344 -1.42188 26.9062 -1.42188
Q22.3125 -1.42188 17.5469 -0.640625
Q12.7969 0.140625 7.71875 1.70312
L7.71875 11.625
Q12.1094 9.23438 16.7969 8.0625
Q21.4844 6.89062 26.7031 6.89062
Q35.1562 6.89062 40.0781 11.3281
Q45.0156 15.7656 45.0156 23.3906
Q45.0156 31 40.0781 35.4375
Q35.1562 39.8906 26.7031 39.8906
Q22.75 39.8906 18.8125 39.0156
Q14.8906 38.1406 10.7969 36.2812
z
" id="BitstreamVeraSans-Roman-35"/>
       <path d="
M18.3125 70.2188
L18.3125 54.6875
L36.8125 54.6875
L36.8125 47.7031
L18.3125 47.7031
L18.3125 18.0156
Q18.3125 11.3281 20.1406 9.42188
Q21.9688 7.51562 27.5938 7.51562
L36.8125 7.51562
L36.8125 0
L27.5938 0
Q17.1875 0 13.2344 3.875
Q9.28125 7.76562 9.28125 18.0156
L9.28125 47.7031
L2.6875 47.7031
L2.6875 54.6875
L9.28125 54.6875
L9.28125 70.2188
z
" id="BitstreamVeraSans-Roman-74"/>
       <path d="
M48.7812 52.5938
L48.7812 44.1875
Q44.9688 46.2969 41.1406 47.3438
Q37.3125 48.3906 33.4062 48.3906
Q24.6562 48.3906 19.8125 42.8438
Q14.9844 37.3125 14.9844 27.2969
Q14.9844 17.2812 19.8125 11.7344
Q24.6562 6.20312 33.4062 6.20312
Q37.3125 6.20312 41.1406 7.25
Q44.9688 8.29688 48.7812 10.4062
L48.7812 2.09375
Q45.0156 0.34375 40.9844 -0.53125
Q36.9688 -1.42188 32.4219 -1.42188
Q20.0625 -1.42188 12.7812 6.34375
Q5.51562 14.1094 5.51562 27.2969
Q5.51562 40.6719 12.8594 48.3281
Q20.2188 56 33.0156 56
Q37.1562 56 41.1094 55.1406
Q45.0625 54.2969 48.7812 52.5938" id="BitstreamVeraSans-Roman-63"/>
      </defs>
      <g transform="translate(53.3541815316 394.065590385)rotate(-30.0)scale(0.12 -0.12)">
       <use xlink:href="#BitstreamVeraSans-Roman-4f"/>
       <use x="78.7109375" xlink:href="#BitstreamVeraSans-Roman-63"/>
       <use x="133.69140625" xlink:href="#BitstreamVeraSans-Roman-74"/>
       <use x="172.900390625" xlink:href="#BitstreamVeraSans-Roman-20"/>
       <use x="204.6875" xlink:href="#BitstreamVeraSans-Roman-31"/>
       <use x="268.310546875" xlink:href="#BitstreamVeraSans-Roman-33"/>
       <use x="331.93359375" xlink:href="#BitstreamVeraSans-Roman-20"/>
       <use x="363.720703125" xlink:href="#BitstreamVeraSans-Roman-32"/>
       <use x="427.34375" xlink:href="#BitstreamVeraSans-Roman-30"/>
       <use x="490.966796875" xlink:href="#BitstreamVeraSans-Roman-31"/>
       <use x="554.58984375" xlink:href="#BitstreamVeraSans-Roman-35"/>
      </g>
     </g>
    </g>
    <g id="xtick_2">
     <g id="line2d_5">
      <g>
       <use style="stroke:#000000;stroke-width:0.5;" x="173.071485419" xlink:href="#m93b0483c22" y="345.6"/>
      </g>
     </g>
     <g id="line2d_6">
      <g>
       <use style="stroke:#000000;stroke-width:0.5;" x="173.071485419" xlink:href="#m741efc42ff" y="43.2"/>
      </g>
     </g>
     <g id="text_2">
      <!-- Oct 16 2015 -->
      <defs>
       <path d="
M33.0156 40.375
Q26.375 40.375 22.4844 35.8281
Q18.6094 31.2969 18.6094 23.3906
Q18.6094 15.5312 22.4844 10.9531
Q26.375 6.39062 33.0156 6.39062
Q39.6562 6.39062 43.5312 10.9531
Q47.4062 15.5312 47.4062 23.3906
Q47.4062 31.2969 43.5312 35.8281
Q39.6562 40.375 33.0156 40.375
M52.5938 71.2969
L52.5938 62.3125
Q48.875 64.0625 45.0938 64.9844
Q41.3125 65.9219 37.5938 65.9219
Q27.8281 65.9219 22.6719 59.3281
Q17.5312 52.7344 16.7969 39.4062
Q19.6719 43.6562 24.0156 45.9219
Q28.375 48.1875 33.5938 48.1875
Q44.5781 48.1875 50.9531 41.5156
Q57.3281 34.8594 57.3281 23.3906
Q57.3281 12.1562 50.6875 5.35938
Q44.0469 -1.42188 33.0156 -1.42188
Q20.3594 -1.42188 13.6719 8.26562
Q6.98438 17.9688 6.98438 36.375
Q6.98438 53.6562 15.1875 63.9375
Q23.3906 74.2188 37.2031 74.2188
Q40.9219 74.2188 44.7031 73.4844
Q48.4844 72.75 52.5938 71.2969" id="BitstreamVeraSans-Roman-36"/>
      </defs>
      <g transform="translate(108.484198684 394.065590385)rotate(-30.0)scale(0.12 -0.12)">
       <use xlink:href="#BitstreamVeraSans-Roman-4f"/>
       <use x="78.7109375" xlink:href="#BitstreamVeraSans-Roman-63"/>
       <use x="133.69140625" xlink:href="#BitstreamVeraSans-Roman-74"/>
       <use x="172.900390625" xlink:href="#BitstreamVeraSans-Roman-20"/>
       <use x="204.6875" xlink:href="#BitstreamVeraSans-Roman-31"/>
       <use x="268.310546875" xlink:href="#BitstreamVeraSans-Roman-36"/>
       <use x="331.93359375" xlink:href="#BitstreamVeraSans-Roman-20"/>
       <use x="363.720703125" xlink:href="#BitstreamVeraSans-Roman-32"/>
       <use x="427.34375" xlink:href="#BitstreamVeraSans-Roman-30"/>
       <use x="490.966796875" xlink:href="#BitstreamVeraSans-Roman-31"/>
       <use x="554.58984375" xlink:href="#BitstreamVeraSans-Roman-35"/>
      </g>
     </g>
    </g>
    <g id="xtick_3">
     <g id="line2d_7">
      <g>
       <use style="stroke:#000000;stroke-width:0.5;" x="228.201502573" xlink:href="#m93b0483c22" y="345.6"/>
      </g>
     </g>
     <g id="line2d_8">
      <g>
       <use style="stroke:#000000;stroke-width:0.5;" x="228.201502573" xlink:href="#m741efc42ff" y="43.2"/>
      </g>
     </g>
     <g id="text_3">
      <!-- Oct 19 2015 -->
      <defs>
       <path d="
M10.9844 1.51562
L10.9844 10.5
Q14.7031 8.73438 18.5 7.8125
Q22.3125 6.89062 25.9844 6.89062
Q35.75 6.89062 40.8906 13.4531
Q46.0469 20.0156 46.7812 33.4062
Q43.9531 29.2031 39.5938 26.9531
Q35.25 24.7031 29.9844 24.7031
Q19.0469 24.7031 12.6719 31.3125
Q6.29688 37.9375 6.29688 49.4219
Q6.29688 60.6406 12.9375 67.4219
Q19.5781 74.2188 30.6094 74.2188
Q43.2656 74.2188 49.9219 64.5156
Q56.5938 54.8281 56.5938 36.375
Q56.5938 19.1406 48.4062 8.85938
Q40.2344 -1.42188 26.4219 -1.42188
Q22.7031 -1.42188 18.8906 -0.6875
Q15.0938 0.046875 10.9844 1.51562
M30.6094 32.4219
Q37.25 32.4219 41.125 36.9531
Q45.0156 41.5 45.0156 49.4219
Q45.0156 57.2812 41.125 61.8438
Q37.25 66.4062 30.6094 66.4062
Q23.9688 66.4062 20.0938 61.8438
Q16.2188 57.2812 16.2188 49.4219
Q16.2188 41.5 20.0938 36.9531
Q23.9688 32.4219 30.6094 32.4219" id="BitstreamVeraSans-Roman-39"/>
      </defs>
      <g transform="translate(163.614215838 394.065590385)rotate(-30.0)scale(0.12 -0.12)">
       <use xlink:href="#BitstreamVeraSans-Roman-4f"/>
       <use x="78.7109375" xlink:href="#BitstreamVeraSans-Roman-63"/>
       <use x="133.69140625" xlink:href="#BitstreamVeraSans-Roman-74"/>
       <use x="172.900390625" xlink:href="#BitstreamVeraSans-Roman-20"/>
       <use x="204.6875" xlink:href="#BitstreamVeraSans-Roman-31"/>
       <use x="268.310546875" xlink:href="#BitstreamVeraSans-Roman-39"/>
       <use x="331.93359375" xlink:href="#BitstreamVeraSans-Roman-20"/>
       <use x="363.720703125" xlink:href="#BitstreamVeraSans-Roman-32"/>
       <use x="427.34375" xlink:href="#BitstreamVeraSans-Roman-30"/>
       <use x="490.966796875" xlink:href="#BitstreamVeraSans-Roman-31"/>
       <use x="554.58984375" xlink:href="#BitstreamVeraSans-Roman-35"/>
      </g>
     </g>
    </g>
    <g id="xtick_4">
     <g id="line2d_9">
      <g>
       <use style="stroke:#000000;stroke-width:0.5;" x="283.331519725" xlink:href="#m93b0483c22" y="345.6"/>
      </g>
     </g>
     <g id="line2d_10">
      <g>
       <use style="stroke:#000000;stroke-width:0.5;" x="283.331519725" xlink:href="#m741efc42ff" y="43.2"/>
      </g>
     </g>
     <g id="text_4">
      <!-- Oct 22 2015 -->
      <g transform="translate(218.74423299 394.065590385)rotate(-30.0)scale(0.12 -0.12)">
       <use xlink:href="#BitstreamVeraSans-Roman-4f"/>
       <use x="78.7109375" xlink:href="#BitstreamVeraSans-Roman-63"/>
       <use x="133.69140625" xlink:href="#BitstreamVeraSans-Roman-74"/>
       <use x="172.900390625" xlink:href="#BitstreamVeraSans-Roman-20"/>
       <use x="204.6875" xlink:href="#BitstreamVeraSans-Roman-32"/>
       <use x="268.310546875" xlink:href="#BitstreamVeraSans-Roman-32"/>
       <use x="331.93359375" xlink:href="#BitstreamVeraSans-Roman-20"/>
       <use x="363.720703125" xlink:href="#BitstreamVeraSans-Roman-32"/>
       <use x="427.34375" xlink:href="#BitstreamVeraSans-Roman-30"/>
       <use x="490.966796875" xlink:href="#BitstreamVeraSans-Roman-31"/>
       <use x="554.58984375" xlink:href="#BitstreamVeraSans-Roman-35"/>
      </g>
     </g>
    </g>
    <g id="xtick_5">
     <g id="line2d_11">
      <g>
       <use style="stroke:#000000;stroke-width:0.5;" x="338.461536877" xlink:href="#m93b0483c22" y="345.6"/>
      </g>
     </g>
     <g id="line2d_12">
      <g>
       <use style="stroke:#000000;stroke-width:0.5;" x="338.461536877" xlink:href="#m741efc42ff" y="43.2"/>
      </g>
     </g>
     <g id="text_5">
      <!-- Oct 25 2015 -->
      <g transform="translate(273.874250142 394.065590385)rotate(-30.0)scale(0.12 -0.12)">
       <use xlink:href="#BitstreamVeraSans-Roman-4f"/>
       <use x="78.7109375" xlink:href="#BitstreamVeraSans-Roman-63"/>
       <use x="133.69140625" xlink:href="#BitstreamVeraSans-Roman-74"/>
       <use x="172.900390625" xlink:href="#BitstreamVeraSans-Roman-20"/>
       <use x="204.6875" xlink:href="#BitstreamVeraSans-Roman-32"/>
       <use x="268.310546875" xlink:href="#BitstreamVeraSans-Roman-35"/>
       <use x="331.93359375" xlink:href="#BitstreamVeraSans-Roman-20"/>
       <use x="363.720703125" xlink:href="#BitstreamVeraSans-Roman-32"/>
       <use x="427.34375" xlink:href="#BitstreamVeraSans-Roman-30"/>
       <use x="490.966796875" xlink:href="#BitstreamVeraSans-Roman-31"/>
       <use x="554.58984375" xlink:href="#BitstreamVeraSans-Roman-35"/>
      </g>
     </g>
    </g>
    <g id="xtick_6">
     <g id="line2d_13">
      <g>
       <use style="stroke:#000000;stroke-width:0.5;" x="393.591554031" xlink:href="#m93b0483c22" y="345.6"/>
      </g>
     </g>
     <g id="line2d_14">
      <g>
       <use style="stroke:#000000;stroke-width:0.5;" x="393.591554031" xlink:href="#m741efc42ff" y="43.2"/>
      </g>
     </g>
     <g id="text_6">
      <!-- Oct 28 2015 -->
      <defs>
       <path d="
M31.7812 34.625
Q24.75 34.625 20.7188 30.8594
Q16.7031 27.0938 16.7031 20.5156
Q16.7031 13.9219 20.7188 10.1562
Q24.75 6.39062 31.7812 6.39062
Q38.8125 6.39062 42.8594 10.1719
Q46.9219 13.9688 46.9219 20.5156
Q46.9219 27.0938 42.8906 30.8594
Q38.875 34.625 31.7812 34.625
M21.9219 38.8125
Q15.5781 40.375 12.0312 44.7188
Q8.5 49.0781 8.5 55.3281
Q8.5 64.0625 14.7188 69.1406
Q20.9531 74.2188 31.7812 74.2188
Q42.6719 74.2188 48.875 69.1406
Q55.0781 64.0625 55.0781 55.3281
Q55.0781 49.0781 51.5312 44.7188
Q48 40.375 41.7031 38.8125
Q48.8281 37.1562 52.7969 32.3125
Q56.7812 27.4844 56.7812 20.5156
Q56.7812 9.90625 50.3125 4.23438
Q43.8438 -1.42188 31.7812 -1.42188
Q19.7344 -1.42188 13.25 4.23438
Q6.78125 9.90625 6.78125 20.5156
Q6.78125 27.4844 10.7812 32.3125
Q14.7969 37.1562 21.9219 38.8125
M18.3125 54.3906
Q18.3125 48.7344 21.8438 45.5625
Q25.3906 42.3906 31.7812 42.3906
Q38.1406 42.3906 41.7188 45.5625
Q45.3125 48.7344 45.3125 54.3906
Q45.3125 60.0625 41.7188 63.2344
Q38.1406 66.4062 31.7812 66.4062
Q25.3906 66.4062 21.8438 63.2344
Q18.3125 60.0625 18.3125 54.3906" id="BitstreamVeraSans-Roman-38"/>
      </defs>
      <g transform="translate(329.004267296 394.065590385)rotate(-30.0)scale(0.12 -0.12)">
       <use xlink:href="#BitstreamVeraSans-Roman-4f"/>
       <use x="78.7109375" xlink:href="#BitstreamVeraSans-Roman-63"/>
       <use x="133.69140625" xlink:href="#BitstreamVeraSans-Roman-74"/>
       <use x="172.900390625" xlink:href="#BitstreamVeraSans-Roman-20"/>
       <use x="204.6875" xlink:href="#BitstreamVeraSans-Roman-32"/>
       <use x="268.310546875" xlink:href="#BitstreamVeraSans-Roman-38"/>
       <use x="331.93359375" xlink:href="#BitstreamVeraSans-Roman-20"/>
       <use x="363.720703125" xlink:href="#BitstreamVeraSans-Roman-32"/>
       <use x="427.34375" xlink:href="#BitstreamVeraSans-Roman-30"/>
       <use x="490.966796875" xlink:href="#BitstreamVeraSans-Roman-31"/>
       <use x="554.58984375" xlink:href="#BitstreamVeraSans-Roman-35"/>
      </g>
     </g>
    </g>
    <g id="xtick_7">
     <g id="line2d_15">
      <g>
       <use style="stroke:#000000;stroke-width:0.5;" x="448.721571183" xlink:href="#m93b0483c22" y="345.6"/>
      </g>
     </g>
     <g id="line2d_16">
      <g>
       <use style="stroke:#000000;stroke-width:0.5;" x="448.721571183" xlink:href="#m741efc42ff" y="43.2"/>
      </g>
     </g>
     <g id="text_7">
      <!-- Oct 31 2015 -->
      <g transform="translate(384.134284448 394.065590385)rotate(-30.0)scale(0.12 -0.12)">
       <use xlink:href="#BitstreamVeraSans-Roman-4f"/>
       <use x="78.7109375" xlink:href="#BitstreamVeraSans-Roman-63"/>
       <use x="133.69140625" xlink:href="#BitstreamVeraSans-Roman-74"/>
       <use x="172.900390625" xlink:href="#BitstreamVeraSans-Roman-20"/>
       <use x="204.6875" xlink:href="#BitstreamVeraSans-Roman-33"/>
       <use x="268.310546875" xlink:href="#BitstreamVeraSans-Roman-31"/>
       <use x="331.93359375" xlink:href="#BitstreamVeraSans-Roman-20"/>
       <use x="363.720703125" xlink:href="#BitstreamVeraSans-Roman-32"/>
       <use x="427.34375" xlink:href="#BitstreamVeraSans-Roman-30"/>
       <use x="490.966796875" xlink:href="#BitstreamVeraSans-Roman-31"/>
       <use x="554.58984375" xlink:href="#BitstreamVeraSans-Roman-35"/>
      </g>
     </g>
    </g>
    <g id="xtick_8">
     <g id="line2d_17">
      <g>
       <use style="stroke:#000000;stroke-width:0.5;" x="503.851588335" xlink:href="#m93b0483c22" y="345.6"/>
      </g>
     </g>
     <g id="line2d_18">
      <g>
       <use style="stroke:#000000;stroke-width:0.5;" x="503.851588335" xlink:href="#m741efc42ff" y="43.2"/>
      </g>
     </g>
     <g id="text_8">
      <!-- Nov 03 2015 -->
      <defs>
       <path d="
M2.98438 54.6875
L12.5 54.6875
L29.5938 8.79688
L46.6875 54.6875
L56.2031 54.6875
L35.6875 0
L23.4844 0
z
" id="BitstreamVeraSans-Roman-76"/>
       <path d="
M9.8125 72.9062
L23.0938 72.9062
L55.4219 11.9219
L55.4219 72.9062
L64.9844 72.9062
L64.9844 0
L51.7031 0
L19.3906 60.9844
L19.3906 0
L9.8125 0
z
" id="BitstreamVeraSans-Roman-4e"/>
       <path d="
M30.6094 48.3906
Q23.3906 48.3906 19.1875 42.75
Q14.9844 37.1094 14.9844 27.2969
Q14.9844 17.4844 19.1562 11.8438
Q23.3438 6.20312 30.6094 6.20312
Q37.7969 6.20312 41.9844 11.8594
Q46.1875 17.5312 46.1875 27.2969
Q46.1875 37.0156 41.9844 42.7031
Q37.7969 48.3906 30.6094 48.3906
M30.6094 56
Q42.3281 56 49.0156 48.375
Q55.7188 40.7656 55.7188 27.2969
Q55.7188 13.875 49.0156 6.21875
Q42.3281 -1.42188 30.6094 -1.42188
Q18.8438 -1.42188 12.1719 6.21875
Q5.51562 13.875 5.51562 27.2969
Q5.51562 40.7656 12.1719 48.375
Q18.8438 56 30.6094 56" id="BitstreamVeraSans-Roman-6f"/>
      </defs>
      <g transform="translate(436.948766176 395.402465385)rotate(-30.0)scale(0.12 -0.12)">
       <use xlink:href="#BitstreamVeraSans-Roman-4e"/>
       <use x="74.8046875" xlink:href="#BitstreamVeraSans-Roman-6f"/>
       <use x="135.986328125" xlink:href="#BitstreamVeraSans-Roman-76"/>
       <use x="195.166015625" xlink:href="#BitstreamVeraSans-Roman-20"/>
       <use x="226.953125" xlink:href="#BitstreamVeraSans-Roman-30"/>
       <use x="290.576171875" xlink:href="#BitstreamVeraSans-Roman-33"/>
       <use x="354.19921875" xlink:href="#BitstreamVeraSans-Roman-20"/>
       <use x="385.986328125" xlink:href="#BitstreamVeraSans-Roman-32"/>
       <use x="449.609375" xlink:href="#BitstreamVeraSans-Roman-30"/>
       <use x="513.232421875" xlink:href="#BitstreamVeraSans-Roman-31"/>
       <use x="576.85546875" xlink:href="#BitstreamVeraSans-Roman-35"/>
      </g>
     </g>
    </g>
   </g>
   <g id="matplotlib.axis_2">
    <g id="ytick_1">
     <g id="line2d_19">
      <defs>
       <path d="
M0 0
L4 0" id="m728421d6d4" style="stroke:#000000;stroke-width:0.5;"/>
      </defs>
      <g>
       <use style="stroke:#000000;stroke-width:0.5;" x="72.0" xlink:href="#m728421d6d4" y="313.106093733"/>
      </g>
     </g>
     <g id="line2d_20">
      <defs>
       <path d="
M0 0
L-4 0" id="mcb0005524f" style="stroke:#000000;stroke-width:0.5;"/>
      </defs>
      <g>
       <use style="stroke:#000000;stroke-width:0.5;" x="518.4" xlink:href="#mcb0005524f" y="313.106093733"/>
      </g>
     </g>
     <g id="text_9">
      <!-- 2000 -->
      <g transform="translate(39.13625 316.417343733)scale(0.12 -0.12)">
       <use xlink:href="#BitstreamVeraSans-Roman-32"/>
       <use x="63.623046875" xlink:href="#BitstreamVeraSans-Roman-30"/>
       <use x="127.24609375" xlink:href="#BitstreamVeraSans-Roman-30"/>
       <use x="190.869140625" xlink:href="#BitstreamVeraSans-Roman-30"/>
      </g>
     </g>
    </g>
    <g id="ytick_2">
     <g id="line2d_21">
      <g>
       <use style="stroke:#000000;stroke-width:0.5;" x="72.0" xlink:href="#m728421d6d4" y="250.761684165"/>
      </g>
     </g>
     <g id="line2d_22">
      <g>
       <use style="stroke:#000000;stroke-width:0.5;" x="518.4" xlink:href="#mcb0005524f" y="250.761684165"/>
      </g>
     </g>
     <g id="text_10">
      <!-- 4000 -->
      <defs>
       <path d="
M37.7969 64.3125
L12.8906 25.3906
L37.7969 25.3906
z

M35.2031 72.9062
L47.6094 72.9062
L47.6094 25.3906
L58.0156 25.3906
L58.0156 17.1875
L47.6094 17.1875
L47.6094 0
L37.7969 0
L37.7969 17.1875
L4.89062 17.1875
L4.89062 26.7031
z
" id="BitstreamVeraSans-Roman-34"/>
      </defs>
      <g transform="translate(38.84375 254.072934165)scale(0.12 -0.12)">
       <use xlink:href="#BitstreamVeraSans-Roman-34"/>
       <use x="63.623046875" xlink:href="#BitstreamVeraSans-Roman-30"/>
       <use x="127.24609375" xlink:href="#BitstreamVeraSans-Roman-30"/>
       <use x="190.869140625" xlink:href="#BitstreamVeraSans-Roman-30"/>
      </g>
     </g>
    </g>
    <g id="ytick_3">
     <g id="line2d_23">
      <g>
       <use style="stroke:#000000;stroke-width:0.5;" x="72.0" xlink:href="#m728421d6d4" y="188.417274597"/>
      </g>
     </g>
     <g id="line2d_24">
      <g>
       <use style="stroke:#000000;stroke-width:0.5;" x="518.4" xlink:href="#mcb0005524f" y="188.417274597"/>
      </g>
     </g>
     <g id="text_11">
      <!-- 6000 -->
      <g transform="translate(39.095 191.728524597)scale(0.12 -0.12)">
       <use xlink:href="#BitstreamVeraSans-Roman-36"/>
       <use x="63.623046875" xlink:href="#BitstreamVeraSans-Roman-30"/>
       <use x="127.24609375" xlink:href="#BitstreamVeraSans-Roman-30"/>
       <use x="190.869140625" xlink:href="#BitstreamVeraSans-Roman-30"/>
      </g>
     </g>
    </g>
    <g id="ytick_4">
     <g id="line2d_25">
      <g>
       <use style="stroke:#000000;stroke-width:0.5;" x="72.0" xlink:href="#m728421d6d4" y="126.072865029"/>
      </g>
     </g>
     <g id="line2d_26">
      <g>
       <use style="stroke:#000000;stroke-width:0.5;" x="518.4" xlink:href="#mcb0005524f" y="126.072865029"/>
      </g>
     </g>
     <g id="text_12">
      <!-- 8000 -->
      <g transform="translate(39.070625 129.384115029)scale(0.12 -0.12)">
       <use xlink:href="#BitstreamVeraSans-Roman-38"/>
       <use x="63.623046875" xlink:href="#BitstreamVeraSans-Roman-30"/>
       <use x="127.24609375" xlink:href="#BitstreamVeraSans-Roman-30"/>
       <use x="190.869140625" xlink:href="#BitstreamVeraSans-Roman-30"/>
      </g>
     </g>
    </g>
    <g id="ytick_5">
     <g id="line2d_27">
      <g>
       <use style="stroke:#000000;stroke-width:0.5;" x="72.0" xlink:href="#m728421d6d4" y="63.7284554605"/>
      </g>
     </g>
     <g id="line2d_28">
      <g>
       <use style="stroke:#000000;stroke-width:0.5;" x="518.4" xlink:href="#mcb0005524f" y="63.7284554605"/>
      </g>
     </g>
     <g id="text_13">
      <!-- 10000 -->
      <g transform="translate(31.94 67.0397054605)scale(0.12 -0.12)">
       <use xlink:href="#BitstreamVeraSans-Roman-31"/>
       <use x="63.623046875" xlink:href="#BitstreamVeraSans-Roman-30"/>
       <use x="127.24609375" xlink:href="#BitstreamVeraSans-Roman-30"/>
       <use x="190.869140625" xlink:href="#BitstreamVeraSans-Roman-30"/>
       <use x="254.4921875" xlink:href="#BitstreamVeraSans-Roman-30"/>
      </g>
     </g>
    </g>
   </g>
   <g id="text_14">
    <!-- Kupferkies -->
    <defs>
     <path d="
M37.1094 75.9844
L37.1094 68.5
L28.5156 68.5
Q23.6875 68.5 21.7969 66.5469
Q19.9219 64.5938 19.9219 59.5156
L19.9219 54.6875
L34.7188 54.6875
L34.7188 47.7031
L19.9219 47.7031
L19.9219 0
L10.8906 0
L10.8906 47.7031
L2.29688 47.7031
L2.29688 54.6875
L10.8906 54.6875
L10.8906 58.5
Q10.8906 67.625 15.1406 71.7969
Q19.3906 75.9844 28.6094 75.9844
z
" id="BitstreamVeraSans-Roman-66"/>
     <path d="
M9.8125 72.9062
L19.6719 72.9062
L19.6719 42.0938
L52.3906 72.9062
L65.0938 72.9062
L28.9062 38.9219
L67.6719 0
L54.6875 0
L19.6719 35.1094
L19.6719 0
L9.8125 0
z
" id="BitstreamVeraSans-Roman-4b"/>
     <path d="
M9.07812 75.9844
L18.1094 75.9844
L18.1094 31.1094
L44.9219 54.6875
L56.3906 54.6875
L27.3906 29.1094
L57.625 0
L45.9062 0
L18.1094 26.7031
L18.1094 0
L9.07812 0
z
" id="BitstreamVeraSans-Roman-6b"/>
     <path d="
M9.42188 54.6875
L18.4062 54.6875
L18.4062 0
L9.42188 0
z

M9.42188 75.9844
L18.4062 75.9844
L18.4062 64.5938
L9.42188 64.5938
z
" id="BitstreamVeraSans-Roman-69"/>
     <path d="
M56.2031 29.5938
L56.2031 25.2031
L14.8906 25.2031
Q15.4844 15.9219 20.4844 11.0625
Q25.4844 6.20312 34.4219 6.20312
Q39.5938 6.20312 44.4531 7.46875
Q49.3125 8.73438 54.1094 11.2812
L54.1094 2.78125
Q49.2656 0.734375 44.1875 -0.34375
Q39.1094 -1.42188 33.8906 -1.42188
Q20.7969 -1.42188 13.1562 6.1875
Q5.51562 13.8125 5.51562 26.8125
Q5.51562 40.2344 12.7656 48.1094
Q20.0156 56 32.3281 56
Q43.3594 56 49.7812 48.8906
Q56.2031 41.7969 56.2031 29.5938
M47.2188 32.2344
Q47.125 39.5938 43.0938 43.9844
Q39.0625 48.3906 32.4219 48.3906
Q24.9062 48.3906 20.3906 44.1406
Q15.875 39.8906 15.1875 32.1719
z
" id="BitstreamVeraSans-Roman-65"/>
     <path d="
M8.5 21.5781
L8.5 54.6875
L17.4844 54.6875
L17.4844 21.9219
Q17.4844 14.1562 20.5 10.2656
Q23.5312 6.39062 29.5938 6.39062
Q36.8594 6.39062 41.0781 11.0312
Q45.3125 15.6719 45.3125 23.6875
L45.3125 54.6875
L54.2969 54.6875
L54.2969 0
L45.3125 0
L45.3125 8.40625
Q42.0469 3.42188 37.7188 1
Q33.4062 -1.42188 27.6875 -1.42188
Q18.2656 -1.42188 13.375 4.4375
Q8.5 10.2969 8.5 21.5781" id="BitstreamVeraSans-Roman-75"/>
     <path d="
M41.1094 46.2969
Q39.5938 47.1719 37.8125 47.5781
Q36.0312 48 33.8906 48
Q26.2656 48 22.1875 43.0469
Q18.1094 38.0938 18.1094 28.8125
L18.1094 0
L9.07812 0
L9.07812 54.6875
L18.1094 54.6875
L18.1094 46.1875
Q20.9531 51.1719 25.4844 53.5781
Q30.0312 56 36.5312 56
Q37.4531 56 38.5781 55.875
Q39.7031 55.7656 41.0625 55.5156
z
" id="BitstreamVeraSans-Roman-72"/>
     <path d="
M44.2812 53.0781
L44.2812 44.5781
Q40.4844 46.5312 36.375 47.5
Q32.2812 48.4844 27.875 48.4844
Q21.1875 48.4844 17.8438 46.4375
Q14.5 44.3906 14.5 40.2812
Q14.5 37.1562 16.8906 35.375
Q19.2812 33.5938 26.5156 31.9844
L29.5938 31.2969
Q39.1562 29.25 43.1875 25.5156
Q47.2188 21.7812 47.2188 15.0938
Q47.2188 7.46875 41.1875 3.01562
Q35.1562 -1.42188 24.6094 -1.42188
Q20.2188 -1.42188 15.4531 -0.5625
Q10.6875 0.296875 5.42188 2
L5.42188 11.2812
Q10.4062 8.6875 15.2344 7.39062
Q20.0625 6.10938 24.8125 6.10938
Q31.1562 6.10938 34.5625 8.28125
Q37.9844 10.4531 37.9844 14.4062
Q37.9844 18.0625 35.5156 20.0156
Q33.0625 21.9688 24.7031 23.7812
L21.5781 24.5156
Q13.2344 26.2656 9.51562 29.9062
Q5.8125 33.5469 5.8125 39.8906
Q5.8125 47.6094 11.2812 51.7969
Q16.75 56 26.8125 56
Q31.7812 56 36.1719 55.2656
Q40.5781 54.5469 44.2812 53.0781" id="BitstreamVeraSans-Roman-73"/>
     <path d="
M18.1094 8.20312
L18.1094 -20.7969
L9.07812 -20.7969
L9.07812 54.6875
L18.1094 54.6875
L18.1094 46.3906
Q20.9531 51.2656 25.2656 53.625
Q29.5938 56 35.5938 56
Q45.5625 56 51.7812 48.0938
Q58.0156 40.1875 58.0156 27.2969
Q58.0156 14.4062 51.7812 6.48438
Q45.5625 -1.42188 35.5938 -1.42188
Q29.5938 -1.42188 25.2656 0.953125
Q20.9531 3.32812 18.1094 8.20312
M48.6875 27.2969
Q48.6875 37.2031 44.6094 42.8438
Q40.5312 48.4844 33.4062 48.4844
Q26.2656 48.4844 22.1875 42.8438
Q18.1094 37.2031 18.1094 27.2969
Q18.1094 17.3906 22.1875 11.75
Q26.2656 6.10938 33.4062 6.10938
Q40.5312 6.10938 44.6094 11.75
Q48.6875 17.3906 48.6875 27.2969" id="BitstreamVeraSans-Roman-70"/>
    </defs>
    <g transform="translate(444.9735 38.2)scale(0.144 -0.144)">
     <use xlink:href="#BitstreamVeraSans-Roman-4b"/>
     <use x="60.576171875" xlink:href="#BitstreamVeraSans-Roman-75"/>
     <use x="123.955078125" xlink:href="#BitstreamVeraSans-Roman-70"/>
     <use x="187.431640625" xlink:href="#BitstreamVeraSans-Roman-66"/>
     <use x="222.63671875" xlink:href="#BitstreamVeraSans-Roman-65"/>
     <use x="284.16015625" xlink:href="#BitstreamVeraSans-Roman-72"/>
     <use x="325.2734375" xlink:href="#BitstreamVeraSans-Roman-6b"/>
     <use x="383.18359375" xlink:href="#BitstreamVeraSans-Roman-69"/>
     <use x="410.966796875" xlink:href="#BitstreamVeraSans-Roman-65"/>
     <use x="472.490234375" xlink:href="#BitstreamVeraSans-Roman-73"/>
    </g>
   </g>
   <g id="legend_1">
    <g id="patch_7">
     <path d="
M123.942 423.616
L466.458 423.616
L466.458 398.16
L123.942 398.16
z
" style="fill:#ffffff;stroke:#000000;stroke-linejoin:miter;"/>
    </g>
    <g id="line2d_29">
     <path d="
M134.022 409.822
L154.182 409.822" style="fill:none;stroke:#ff0000;stroke-linecap:square;"/>
    </g>
    <g id="line2d_30"/>
    <g id="text_15">
     <!-- Schwarzmarktpreis -->
     <defs>
      <path d="
M52 44.1875
Q55.375 50.25 60.0625 53.125
Q64.75 56 71.0938 56
Q79.6406 56 84.2812 50.0156
Q88.9219 44.0469 88.9219 33.0156
L88.9219 0
L79.8906 0
L79.8906 32.7188
Q79.8906 40.5781 77.0938 44.375
Q74.3125 48.1875 68.6094 48.1875
Q61.625 48.1875 57.5625 43.5469
Q53.5156 38.9219 53.5156 30.9062
L53.5156 0
L44.4844 0
L44.4844 32.7188
Q44.4844 40.625 41.7031 44.4062
Q38.9219 48.1875 33.1094 48.1875
Q26.2188 48.1875 22.1562 43.5312
Q18.1094 38.875 18.1094 30.9062
L18.1094 0
L9.07812 0
L9.07812 54.6875
L18.1094 54.6875
L18.1094 46.1875
Q21.1875 51.2188 25.4844 53.6094
Q29.7812 56 35.6875 56
Q41.6562 56 45.8281 52.9688
Q50 49.9531 52 44.1875" id="BitstreamVeraSans-Roman-6d"/>
      <path d="
M5.51562 54.6875
L48.1875 54.6875
L48.1875 46.4844
L14.4062 7.17188
L48.1875 7.17188
L48.1875 0
L4.29688 0
L4.29688 8.20312
L38.0938 47.5156
L5.51562 47.5156
z
" id="BitstreamVeraSans-Roman-7a"/>
      <path d="
M53.5156 70.5156
L53.5156 60.8906
Q47.9062 63.5781 42.9219 64.8906
Q37.9375 66.2188 33.2969 66.2188
Q25.25 66.2188 20.875 63.0938
Q16.5 59.9688 16.5 54.2031
Q16.5 49.3594 19.4062 46.8906
Q22.3125 44.4375 30.4219 42.9219
L36.375 41.7031
Q47.4062 39.5938 52.6562 34.2969
Q57.9062 29 57.9062 20.125
Q57.9062 9.51562 50.7969 4.04688
Q43.7031 -1.42188 29.9844 -1.42188
Q24.8125 -1.42188 18.9688 -0.25
Q13.1406 0.921875 6.89062 3.21875
L6.89062 13.375
Q12.8906 10.0156 18.6562 8.29688
Q24.4219 6.59375 29.9844 6.59375
Q38.4219 6.59375 43.0156 9.90625
Q47.6094 13.2344 47.6094 19.3906
Q47.6094 24.75 44.3125 27.7812
Q41.0156 30.8125 33.5 32.3281
L27.4844 33.5
Q16.4531 35.6875 11.5156 40.375
Q6.59375 45.0625 6.59375 53.4219
Q6.59375 63.0938 13.4062 68.6562
Q20.2188 74.2188 32.1719 74.2188
Q37.3125 74.2188 42.625 73.2812
Q47.9531 72.3594 53.5156 70.5156" id="BitstreamVeraSans-Roman-53"/>
      <path d="
M54.8906 33.0156
L54.8906 0
L45.9062 0
L45.9062 32.7188
Q45.9062 40.4844 42.875 44.3281
Q39.8438 48.1875 33.7969 48.1875
Q26.5156 48.1875 22.3125 43.5469
Q18.1094 38.9219 18.1094 30.9062
L18.1094 0
L9.07812 0
L9.07812 75.9844
L18.1094 75.9844
L18.1094 46.1875
Q21.3438 51.125 25.7031 53.5625
Q30.0781 56 35.7969 56
Q45.2188 56 50.0469 50.1719
Q54.8906 44.3438 54.8906 33.0156" id="BitstreamVeraSans-Roman-68"/>
      <path d="
M4.20312 54.6875
L13.1875 54.6875
L24.4219 12.0156
L35.5938 54.6875
L46.1875 54.6875
L57.4219 12.0156
L68.6094 54.6875
L77.5938 54.6875
L63.2812 0
L52.6875 0
L40.9219 44.8281
L29.1094 0
L18.5 0
z
" id="BitstreamVeraSans-Roman-77"/>
      <path d="
M34.2812 27.4844
Q23.3906 27.4844 19.1875 25
Q14.9844 22.5156 14.9844 16.5
Q14.9844 11.7188 18.1406 8.90625
Q21.2969 6.10938 26.7031 6.10938
Q34.1875 6.10938 38.7031 11.4062
Q43.2188 16.7031 43.2188 25.4844
L43.2188 27.4844
z

M52.2031 31.2031
L52.2031 0
L43.2188 0
L43.2188 8.29688
Q40.1406 3.32812 35.5469 0.953125
Q30.9531 -1.42188 24.3125 -1.42188
Q15.9219 -1.42188 10.9531 3.29688
Q6 8.01562 6 15.9219
Q6 25.1406 12.1719 29.8281
Q18.3594 34.5156 30.6094 34.5156
L43.2188 34.5156
L43.2188 35.4062
Q43.2188 41.6094 39.1406 45
Q35.0625 48.3906 27.6875 48.3906
Q23 48.3906 18.5469 47.2656
Q14.1094 46.1406 10.0156 43.8906
L10.0156 52.2031
Q14.9375 54.1094 19.5781 55.0469
Q24.2188 56 28.6094 56
Q40.4844 56 46.3438 49.8438
Q52.2031 43.7031 52.2031 31.2031" id="BitstreamVeraSans-Roman-61"/>
     </defs>
     <g transform="translate(170.022375 414.86175)scale(0.144 -0.144)">
      <use xlink:href="#BitstreamVeraSans-Roman-53"/>
      <use x="63.4765625" xlink:href="#BitstreamVeraSans-Roman-63"/>
      <use x="118.45703125" xlink:href="#BitstreamVeraSans-Roman-68"/>
      <use x="181.8359375" xlink:href="#BitstreamVeraSans-Roman-77"/>
      <use x="263.623046875" xlink:href="#BitstreamVeraSans-Roman-61"/>
      <use x="324.90234375" xlink:href="#BitstreamVeraSans-Roman-72"/>
      <use x="366.015625" xlink:href="#BitstreamVeraSans-Roman-7a"/>
      <use x="418.505859375" xlink:href="#BitstreamVeraSans-Roman-6d"/>
      <use x="515.91796875" xlink:href="#BitstreamVeraSans-Roman-61"/>
      <use x="577.197265625" xlink:href="#BitstreamVeraSans-Roman-72"/>
      <use x="618.310546875" xlink:href="#BitstreamVeraSans-Roman-6b"/>
      <use x="676.220703125" xlink:href="#BitstreamVeraSans-Roman-74"/>
      <use x="715.4296875" xlink:href="#BitstreamVeraSans-Roman-70"/>
      <use x="778.90625" xlink:href="#BitstreamVeraSans-Roman-72"/>
      <use x="817.76953125" xlink:href="#BitstreamVeraSans-Roman-65"/>
      <use x="879.29296875" xlink:href="#BitstreamVeraSans-Roman-69"/>
      <use x="907.076171875" xlink:href="#BitstreamVeraSans-Roman-73"/>
     </g>
    </g>
    <g id="line2d_31">
     <path d="
M339.609 409.822
L359.769 409.822" style="fill:none;stroke:#008000;stroke-linecap:square;"/>
    </g>
    <g id="line2d_32"/>
    <g id="text_16">
     <!-- Normalpreis -->
     <defs>
      <path d="
M9.42188 75.9844
L18.4062 75.9844
L18.4062 0
L9.42188 0
z
" id="BitstreamVeraSans-Roman-6c"/>
     </defs>
     <g transform="translate(375.609375 414.86175)scale(0.144 -0.144)">
      <use xlink:href="#BitstreamVeraSans-Roman-4e"/>
      <use x="74.8046875" xlink:href="#BitstreamVeraSans-Roman-6f"/>
      <use x="135.986328125" xlink:href="#BitstreamVeraSans-Roman-72"/>
      <use x="175.349609375" xlink:href="#BitstreamVeraSans-Roman-6d"/>
      <use x="272.76171875" xlink:href="#BitstreamVeraSans-Roman-61"/>
      <use x="334.041015625" xlink:href="#BitstreamVeraSans-Roman-6c"/>
      <use x="361.82421875" xlink:href="#BitstreamVeraSans-Roman-70"/>
      <use x="425.30078125" xlink:href="#BitstreamVeraSans-Roman-72"/>
      <use x="464.1640625" xlink:href="#BitstreamVeraSans-Roman-65"/>
      <use x="525.6875" xlink:href="#BitstreamVeraSans-Roman-69"/>
      <use x="553.470703125" xlink:href="#BitstreamVeraSans-Roman-73"/>
     </g>
    </g>
   </g>
  </g>
 </g>
 <defs>
  <clipPath id="pcb2bf987bf">
   <rect height="302.4" width="446.4" x="72.0" y="43.2"/>
  </clipPath>
 </defs>
</svg>
