<?xml version="1.0" encoding="utf-8" standalone="no"?>
<!DOCTYPE svg PUBLIC "-//W3C//DTD SVG 1.1//EN"
  "http://www.w3.org/Graphics/SVG/1.1/DTD/svg11.dtd">
<!-- Created with matplotlib (http://matplotlib.org/) -->
<svg height="432pt" version="1.1" viewBox="0 0 576 432" width="576pt" xmlns="http://www.w3.org/2000/svg" xmlns:xlink="http://www.w3.org/1999/xlink">
 <defs>
  <style type="text/css">
*{stroke-linecap:butt;stroke-linejoin:round;}
  </style>
 </defs>
 <g id="figure_1">
  <g id="patch_1">
   <path d="
M0 432
L576 432
L576 0
L0 0
z
" style="fill:#ffffff;"/>
  </g>
  <g id="axes_1">
   <g id="patch_2">
    <path d="
M72 345.6
L518.4 345.6
L518.4 43.2
L72 43.2
z
" style="fill:#ffffff;"/>
   </g>
   <g id="line2d_1">
    <path clip-path="url(#pcb2bf987bf)" d="
M72 229.333
L72.1276 329.391
L72.3828 328.89
L72.5105 328.89
L72.8933 323.387
L73.1485 324.388
L73.2762 329.191
L73.659 328.39
L73.9142 327.389
L74.0419 327.89
L74.2971 358.908
L74.4247 329.391
L75.0628 329.391
L75.5732 328.29
L75.8285 327.89
L75.9561 328.89
L76.2113 328.89
L76.3389 313.882
L76.5942 328.89
L76.7218 328.39
L76.9772 328.39
L77.3599 328.89
L77.7429 358.908
L77.8703 358.908
L78.1256 328.89
L78.1256 328.89
L78.5084 327.389
L78.636 328.39
L78.8915 358.908
L79.0189 327.89
L79.2741 328.89
L79.4017 327.389
L79.6569 327.89
L79.7846 327.89
L80.1674 329.09
L80.5503 328.89
L80.8055 327.89
L80.9331 327.89
L81.1885 358.908
L81.316 329.291
L81.5712 358.908
L81.9542 358.908
L82.0816 329.391
L82.3371 328.89
L82.4645 328.89
L82.7197 358.908
L82.8473 358.908
L83.1026 329.291
L83.2302 328.39
L83.4854 328.39
L83.613 328.89
L83.9959 329.291
L84.2511 328.89
L84.3787 328.39
L84.6342 329.291
L85.017 328.89
L85.1444 329.391
L85.3999 327.389
L85.5273 329.391
L85.7825 327.89
L85.9101 328.89
L86.1654 328.89
L86.293 323.887
L86.5482 358.908
L86.6758 327.389
L87.0587 329.09
L87.3139 358.908
L87.4415 327.89
L87.6967 328.89
L87.8244 328.39
L88.0796 328.29
L88.2072 329.291
L88.4624 326.889
L88.5901 328.99
L88.8453 327.289
L88.8453 327.289
L88.9729 327.389
L89.2281 358.908
L89.3557 328.89
L89.611 328.79
L89.9938 326.289
L89.9938 326.289
L90.2491 358.908
L91.0148 358.908
L91.9081 326.389
L92.5461 358.908
L92.6738 328.89
L93.3118 327.89
L94.0775 358.908
L94.2051 328.39
L94.9708 328.39
L95.6089 358.908
L95.7365 328.39
L96.3746 328.89
L97.1403 328.89
L97.906 323.887
L98.0336 327.89
L98.7993 328.89
L99.4374 327.389
L100.203 329.191
L100.331 329.191
L100.969 328.89
L101.862 329.391
L102.5 358.908
L103.393 358.908
L104.032 329.391
L104.797 358.908
L105.563 328.39
L106.329 327.89
L107.095 298.373
L107.86 328.89
L107.988 308.879
L108.626 327.79
L109.391 328.39
L109.519 327.89
L110.157 328.29
L110.285 327.89
L110.923 327.89
L111.05 329.09
L111.689 328.99
L111.816 288.867
L113.986 328.39
L114.879 327.89
L116.283 328.39
L116.41 328.89
L117.048 328.39
L117.814 329.391
L117.942 358.908
L118.58 328.89
L118.707 329.691
L119.345 328.39
L120.111 358.908
L121.004 328.39
L121.643 328.39
L122.408 329.491
L122.536 329.391
L123.174 358.908
L123.94 327.389
L124.067 358.908
L124.705 328.89
L125.471 328.89
L126.109 358.908
L126.237 325.889
L126.237 325.889
L126.365 329.191
L127.002 329.09
L127.13 328.89
L127.13 328.89
L128.534 328.89
L128.661 328.39
L129.299 328.89
L130.065 328.89
L130.193 326.389
L130.831 328.39
L131.597 329.09
L132.362 328.89
L132.362 328.89
L133.894 328.69
L134.149 327.289
L134.659 328.89
L135.425 358.908
L136.191 329.391
L136.318 329.491
L137.722 329.291
L138.488 328.89
L140.019 329.791
L140.785 329.391
L141.551 329.691
L141.678 358.908
L142.316 329.391
L143.082 328.89
L143.848 358.908
L143.975 328.89
L144.613 328.89
L145.379 308.879
L145.507 322.887
L146.145 328.79
L146.272 323.887
L147.038 328.89
L147.676 313.882
L148.442 358.908
L149.208 328.39
L149.335 358.908
L149.973 328.69
L150.739 358.908
L150.867 327.089
L151.505 328.39
L152.27 318.885
L153.036 358.908
L153.164 328.39
L153.802 328.39
L154.567 328.89
L155.333 328.39
L155.333 328.39
L156.099 329.391
L156.865 328.79
L157.63 327.389
L157.758 329.291
L158.396 328.39
L159.162 328.89
L159.927 328.89
L160.693 329.191
L160.821 328.89
L162.224 328.99
L162.99 328.39
L163.118 328.99
L163.756 358.908
L163.883 327.389
L164.521 327.79
L164.649 328.39
L165.287 328.39
L166.053 318.284
L166.819 328.29
L167.584 325.889
L167.712 326.389
L168.35 358.908
L169.116 358.908
L169.243 328.39
L169.881 327.89
L170.647 358.908
L170.775 328.39
L171.413 328.39
L172.178 358.908
L172.944 327.89
L173.072 328.39
L173.71 327.389
L174.603 328.39
L176.007 329.291
L176.773 358.908
L176.9 358.908
L177.538 329.291
L178.304 328.69
L179.07 358.908
L179.835 358.908
L179.963 328.39
L181.367 328.39
L182.132 358.908
L183.664 358.908
L183.791 328.39
L184.43 358.908
L185.195 327.389
L185.961 328.39
L186.727 328.39
L187.492 358.908
L188.258 327.89
L189.151 328.39
L190.555 328.39
L191.321 328.79
L191.321 328.79
L192.852 328.39
L193.618 323.887
L194.384 328.89
L195.149 329.09
L195.277 358.908
L195.915 329.09
L196.681 328.39
L198.212 358.908
L198.212 358.908
L198.978 328.79
L200.509 358.908
L201.275 328.39
L202.04 328.29
L202.806 327.89
L203.572 328.39
L203.699 358.908
L204.338 328.29
L205.103 328.49
L205.231 328.39
L205.869 328.29
L205.997 327.89
L206.124 328.39
L206.762 328.39
L207.4 327.89
L207.911 296.872
L208.166 328.39
L208.804 358.908
L209.059 328.39
L209.059 328.39
L209.57 328.39
L209.825 328.69
L210.591 328.79
L210.846 318.885
L211.356 358.908
L211.484 328.79
L211.739 326.889
L211.867 326.889
L212.122 328.39
L212.25 327.389
L212.505 358.908
L212.633 358.908
L212.888 328.39
L213.271 328.39
L213.398 328.89
L213.654 328.89
L213.654 328.89
L213.781 358.908
L214.036 328.89
L214.164 327.89
L214.419 328.99
L214.547 358.908
L214.802 358.908
L214.93 328.99
L216.078 328.89
L216.333 358.908
L216.461 328.39
L216.589 358.908
L216.589 358.908
L216.844 328.89
L217.099 328.39
L217.227 328.89
L217.865 328.89
L217.992 358.908
L218.248 358.908
L218.248 358.908
L218.375 328.79
L218.631 328.79
L219.013 327.89
L219.141 328.79
L219.396 326.889
L219.779 322.887
L219.907 358.908
L220.162 358.908
L220.417 302.875
L220.545 328.59
L220.672 328.39
L220.672 328.39
L220.928 323.887
L221.055 358.908
L221.31 358.908
L221.438 328.39
L221.693 358.908
L222.076 328.79
L222.204 358.908
L222.459 327.389
L222.587 327.389
L222.842 327.89
L222.842 327.89
L223.225 327.89
L223.352 326.389
L223.608 327.389
L223.735 318.384
L223.99 327.89
L224.118 327.389
L224.373 358.908
L224.501 323.887
L224.756 328.19
L224.884 327.389
L225.139 327.389
L225.267 328.49
L225.522 327.89
L225.649 328.59
L225.649 328.59
L225.777 325.889
L225.777 325.889
L225.905 328.59
L225.905 328.59
L226.032 328.39
L226.032 328.39
L226.16 325.889
L226.16 325.889
L226.288 325.889
L226.415 327.389
L226.415 327.389
L226.67 328.59
L226.798 328.39
L227.181 325.388
L227.436 328.19
L227.436 328.19
L227.819 328.39
L227.946 328.29
L228.202 326.389
L228.329 328.49
L228.585 328.79
L228.712 358.908
L228.967 322.887
L229.095 328.89
L229.35 326.789
L229.478 328.89
L229.733 328.89
L229.861 328.39
L230.116 328.89
L230.499 328.89
L230.499 328.89
L230.882 318.885
L231.009 328.39
L231.264 328.39
L231.264 328.39
L231.392 328.79
L231.647 329.09
L231.775 328.89
L232.03 326.889
L232.158 327.389
L232.413 329.09
L232.541 327.89
L232.796 358.908
L232.796 358.908
L232.924 328.89
L233.179 358.908
L233.306 328.39
L233.562 358.908
L233.689 328.89
L233.944 358.908
L234.072 328.99
L234.455 328.89
L234.71 328.59
L234.838 358.908
L235.093 358.908
L235.093 358.908
L235.221 323.087
L235.476 328.39
L235.603 327.89
L235.859 328.79
L235.859 328.79
L235.986 328.39
L236.242 328.39
L236.369 328.19
L236.624 318.885
L236.752 358.908
L237.135 358.908
L237.39 328.39
L237.518 327.89
L237.773 327.389
L237.901 358.908
L238.156 328.39
L238.539 328.39
L238.666 327.89
L238.921 328.39
L239.049 325.588
L239.304 328.39
L239.432 358.908
L239.687 318.885
L239.815 328.39
L240.07 358.908
L240.198 323.887
L240.453 358.908
L240.453 358.908
L240.58 323.887
L240.836 322.887
L240.963 327.89
L241.219 327.389
L241.346 328.49
L241.601 327.89
L241.729 327.89
L241.984 358.908
L242.112 358.908
L242.367 327.89
L242.495 326.989
L242.75 327.389
L242.878 328.19
L243.133 358.908
L243.26 327.389
L243.516 322.387
L243.643 327.89
L243.898 327.89
L244.026 328.39
L244.281 328.39
L244.409 328.79
L244.664 358.908
L244.792 328.39
L245.047 328.79
L245.047 328.79
L245.175 328.29
L245.43 327.89
L245.557 318.384
L245.813 328.99
L245.94 328.39
L246.196 326.389
L246.323 328.39
L246.706 328.89
L246.961 318.384
L247.089 328.29
L247.344 328.89
L247.727 358.908
L247.855 328.89
L248.237 325.889
L248.493 328.79
L248.62 328.89
L248.876 328.89
L248.876 328.89
L249.003 329.391
L249.258 328.39
L249.641 329.291
L249.641 329.291
L249.769 328.39
L250.024 358.908
L250.152 328.89
L250.407 329.291
L250.534 328.89
L250.917 329.191
L251.3 328.89
L251.555 328.89
L251.683 358.908
L251.938 329.191
L252.066 328.79
L252.321 328.89
L252.449 358.908
L252.704 328.79
L252.832 358.908
L253.087 328.99
L253.214 327.89
L253.47 358.908
L253.597 328.89
L253.852 358.908
L253.98 328.89
L254.235 328.39
L254.363 358.908
L254.618 328.39
L254.746 328.89
L254.746 328.89
L255.001 328.89
L255.129 328.29
L255.129 328.29
L255.511 328.39
L255.511 328.39
L255.767 328.39
L255.767 328.39
L255.894 358.908
L256.277 328.39
L256.532 358.908
L256.66 358.908
L256.66 358.908
L256.915 328.79
L257.043 327.389
L257.298 358.908
L257.426 326.889
L257.681 358.908
L257.809 358.908
L258.064 328.39
L258.064 328.39
L258.447 326.889
L258.574 328.39
L258.702 326.389
L258.83 358.908
L258.957 323.887
L259.212 328.29
L259.212 328.29
L259.34 358.908
L259.595 328.29
L259.595 328.29
L259.723 328.39
L260.106 328.49
L260.361 358.908
L260.744 358.908
L260.871 328.39
L261.127 358.908
L261.254 328.39
L261.509 358.908
L261.637 328.49
L261.892 326.889
L262.02 328.39
L262.403 328.39
L262.658 327.89
L262.786 327.89
L263.041 328.39
L263.168 327.79
L263.551 328.59
L263.807 328.39
L263.934 358.908
L264.189 358.908
L264.189 358.908
L264.572 258.85
L264.7 328.89
L264.955 316.183
L265.083 325.388
L265.338 328.29
L265.466 327.89
L265.593 328.79
L265.848 325.588
L266.231 328.89
L266.486 328.89
L266.614 327.389
L266.869 328.79
L266.997 328.29
L267.38 328.99
L267.635 327.89
L267.763 328.99
L268.018 358.908
L268.145 328.89
L268.528 329.191
L268.784 358.908
L268.911 329.191
L269.166 358.908
L269.549 358.908
L269.677 329.191
L269.932 358.908
L270.06 328.89
L270.315 358.908
L270.443 329.191
L270.825 328.89
L271.081 328.89
L271.463 358.908
L271.974 323.887
L272.229 328.89
L272.612 328.89
L272.74 325.388
L272.995 326.889
L273.122 325.889
L273.378 328.39
L273.378 328.39
L273.506 318.885
L273.761 358.908
L273.888 358.908
L274.143 328.39
L274.271 358.908
L274.526 328.39
L274.654 328.39
L274.909 358.908
L274.909 358.908
L275.037 328.39
L275.292 358.908
L275.675 318.885
L275.802 328.29
L276.058 322.887
L276.185 328.59
L276.441 328.39
L276.568 358.908
L276.823 328.39
L276.951 328.39
L277.206 327.89
L277.334 328.39
L277.589 328.39
L277.717 325.588
L277.972 328.39
L277.972 328.39
L278.482 328.29
L278.738 358.908
L278.865 323.387
L279.12 327.89
L279.248 358.908
L279.631 358.908
L279.886 328.39
L280.269 328.39
L280.269 328.39
L280.397 308.879
L280.652 328.39
L281.035 328.39
L281.035 328.39
L281.162 327.389
L281.417 327.89
L281.545 327.389
L281.801 328.39
L282.566 328.39
L282.694 326.389
L283.077 328.99
L283.332 358.908
L283.459 326.889
L283.715 358.908
L283.842 328.09
L284.097 358.908
L284.225 329.391
L284.48 328.39
L284.608 329.391
L284.736 358.908
L285.374 327.89
L285.629 327.389
L285.756 329.491
L286.012 328.89
L286.139 329.491
L286.395 328.89
L286.522 323.787
L286.777 329.291
L286.905 328.39
L287.16 329.491
L287.288 358.908
L287.543 358.908
L287.671 329.391
L287.926 329.291
L288.054 328.89
L288.309 328.89
L288.437 329.09
L288.819 328.89
L289.074 328.89
L289.202 326.889
L289.457 328.89
L289.84 328.79
L289.968 358.908
L290.223 328.89
L290.351 358.908
L290.606 358.908
L290.733 328.39
L290.861 328.79
L290.989 328.39
L291.116 358.908
L291.372 327.89
L291.499 358.908
L291.754 327.389
L292.137 328.59
L292.265 358.908
L292.52 328.39
L292.52 328.39
L292.648 328.59
L292.903 358.908
L293.031 328.39
L293.286 358.908
L293.286 358.908
L293.413 328.59
L293.669 358.908
L293.669 358.908
L293.796 325.388
L294.051 328.39
L294.051 328.39
L294.179 358.908
L294.945 358.908
L295.2 328.39
L295.328 358.908
L295.583 358.908
L295.71 328.39
L296.859 328.39
L297.114 358.908
L297.497 358.908
L297.625 328.39
L297.88 358.908
L298.008 328.39
L298.263 328.39
L298.39 358.908
L299.156 358.908
L299.411 328.29
L299.794 328.39
L299.922 308.879
L300.177 358.908
L300.177 358.908
L300.305 327.79
L300.56 358.908
L300.687 358.908
L300.943 328.29
L301.07 328.89
L301.326 328.79
L301.453 358.908
L301.708 358.908
L301.836 328.39
L302.091 328.89
L302.219 358.908
L302.474 328.89
L302.474 328.89
L302.857 329.291
L302.985 358.908
L303.75 358.908
L304.005 328.39
L304.005 328.39
L304.133 327.89
L304.388 326.389
L304.771 358.908
L304.899 329.391
L305.282 329.391
L305.537 358.908
L305.664 329.391
L305.92 358.908
L306.047 327.389
L306.303 358.908
L306.685 358.908
L306.813 329.391
L307.068 358.908
L307.068 358.908
L307.196 329.391
L307.451 358.908
L307.579 329.09
L307.962 329.191
L308.217 328.89
L308.344 326.889
L308.6 328.89
L308.6 328.89
L308.727 328.89
L308.983 328.39
L309.11 328.89
L309.365 358.908
L309.493 328.89
L309.876 328.89
L310.131 326.889
L310.131 326.889
L310.259 328.89
L310.514 328.89
L310.642 327.89
L310.897 358.908
L311.024 328.89
L311.28 327.89
L311.407 358.908
L311.662 358.908
L311.79 328.89
L312.173 328.89
L312.428 358.908
L312.556 328.39
L312.811 328.89
L313.577 328.79
L313.704 358.908
L313.96 318.784
L314.087 328.39
L314.342 322.887
L314.47 327.89
L314.725 358.908
L314.853 358.908
L315.108 318.384
L315.236 326.389
L315.619 328.69
L315.874 328.39
L316.257 328.39
L316.384 358.908
L316.767 318.885
L317.022 327.389
L317.405 328.79
L317.533 323.387
L317.916 327.89
L318.298 327.89
L318.554 328.39
L318.554 328.39
L318.681 305.877
L318.937 328.89
L319.064 328.89
L319.319 327.89
L319.319 327.89
L319.447 358.908
L319.702 328.89
L319.83 327.389
L320.213 329.191
L320.596 329.291
L320.851 322.887
L320.851 322.887
L321.234 358.908
L321.361 329.291
L321.999 328.39
L322.127 329.291
L322.765 328.79
L322.893 329.391
L323.148 329.491
L323.275 329.291
L323.658 329.391
L323.914 308.879
L323.914 308.879
L324.041 328.89
L324.296 329.391
L324.424 323.887
L324.807 329.391
L325.19 329.291
L325.445 358.908
L325.573 329.391
L325.828 328.39
L325.956 358.908
L326.211 328.89
L326.338 358.908
L326.593 329.391
L326.721 358.908
L326.976 328.89
L327.104 329.191
L327.359 328.39
L327.487 328.89
L327.742 328.89
L327.87 323.387
L328.125 328.89
L328.252 324.888
L328.508 328.19
L328.635 328.39
L328.891 327.89
L329.018 328.89
L329.273 258.85
L329.401 318.784
L329.656 358.908
L329.784 358.908
L330.167 325.889
L330.422 328.89
L330.55 328.89
L330.805 320.886
L330.933 327.89
L331.188 328.69
L331.315 308.879
L331.57 328.89
L331.698 328.39
L331.953 328.89
L332.081 358.908
L332.336 328.89
L332.464 328.39
L332.719 328.89
L332.847 358.908
L333.102 358.908
L333.23 328.79
L333.612 328.89
L333.868 328.89
L333.995 358.908
L334.25 328.39
L334.378 358.908
L334.633 326.889
L334.761 358.908
L335.016 327.79
L335.144 327.289
L335.399 323.387
L335.527 311.38
L335.782 328.89
L335.909 328.29
L336.292 328.89
L336.548 328.39
L336.675 328.99
L336.93 328.59
L337.058 328.89
L337.313 328.69
L337.441 328.39
L337.696 328.89
L337.824 328.89
L338.207 329.291
L338.462 328.39
L338.589 328.39
L338.845 327.89
L338.972 329.191
L339.227 328.79
L339.355 328.89
L339.61 328.79
L339.738 323.887
L339.866 328.39
L340.121 328.89
L340.376 358.908
L340.504 329.09
L340.759 328.89
L340.886 327.89
L341.142 323.887
L341.269 358.908
L341.525 358.908
L341.652 329.391
L341.907 326.889
L342.035 358.908
L342.29 328.89
L342.418 329.391
L343.439 329.391
L343.566 328.79
L343.822 329.291
L343.822 329.291
L344.204 328.99
L344.332 329.09
L344.588 328.79
L344.715 329.191
L344.97 328.29
L345.098 328.89
L345.353 328.89
L345.353 328.89
L345.481 329.09
L345.736 328.89
L346.119 327.389
L346.246 328.89
L346.884 328.89
L346.884 328.89
L347.012 358.908
L347.267 328.89
L347.395 358.908
L347.65 328.39
L347.778 329.191
L348.033 328.89
L348.161 329.09
L348.416 328.79
L348.543 326.389
L348.799 328.99
L348.926 328.89
L349.181 358.908
L349.309 328.79
L349.692 328.99
L349.947 328.89
L350.075 327.89
L350.33 328.99
L350.458 328.79
L350.713 328.89
L350.84 358.908
L351.096 328.89
L351.224 328.99
L351.606 327.89
L351.861 358.908
L351.989 358.908
L352.244 328.89
L352.372 328.99
L352.627 358.908
L352.755 325.889
L353.01 358.908
L353.138 328.89
L353.52 328.89
L353.776 328.39
L353.776 328.39
L354.158 327.389
L354.286 328.39
L354.541 328.89
L354.669 358.908
L354.924 358.908
L355.052 328.89
L355.307 328.79
L355.307 328.79
L355.435 329.291
L355.69 329.291
L355.817 328.99
L356.073 329.291
L356.073 329.291
L356.2 305.177
L356.583 328.79
L356.966 328.39
L357.221 329.391
L357.477 325.588
L357.732 329.391
L357.987 328.89
L358.115 328.89
L358.37 327.89
L358.37 327.89
L358.497 329.491
L358.753 328.89
L358.88 329.391
L359.646 329.391
L359.901 329.691
L360.029 329.391
L360.284 329.391
L360.412 323.887
L360.795 329.891
L361.05 328.89
L361.177 358.908
L361.433 358.908
L361.56 329.791
L361.816 329.691
L361.943 328.89
L362.198 329.791
L362.326 358.908
L362.581 358.908
L362.709 313.381
L362.964 329.391
L363.092 328.89
L363.347 358.908
L363.474 329.191
L363.857 329.291
L364.113 318.885
L364.24 329.191
L364.495 328.89
L364.623 358.908
L364.878 328.39
L365.006 358.908
L365.261 358.908
L365.389 329.191
L365.644 328.89
L365.772 358.908
L366.027 358.908
L366.027 358.908
L366.155 329.09
L366.41 358.908
L366.537 358.908
L366.792 328.89
L366.92 328.99
L367.175 358.908
L367.303 358.908
L367.558 328.89
L367.686 328.99
L367.941 358.908
L368.069 328.89
L368.324 358.908
L368.451 327.89
L368.707 358.908
L369.09 328.39
L369.472 328.79
L369.6 328.39
L369.855 358.908
L370.366 358.908
L370.621 328.89
L370.749 358.908
L371.004 328.89
L371.131 328.79
L371.387 328.79
L371.514 328.39
L371.769 326.889
L371.897 328.79
L372.152 328.89
L372.28 328.59
L372.535 358.908
L372.663 328.89
L372.918 358.908
L373.046 328.89
L373.301 358.908
L373.428 358.908
L373.811 323.887
L374.067 328.79
L374.194 328.99
L374.449 327.89
L374.577 328.39
L374.832 308.879
L374.96 328.29
L375.215 327.89
L375.343 328.99
L375.598 328.89
L375.726 358.908
L375.981 328.39
L376.108 328.39
L376.364 358.908
L376.491 329.391
L376.746 328.39
L376.874 328.39
L377.257 321.386
L377.512 328.39
L377.512 328.39
L377.64 326.389
L377.767 329.591
L378.023 329.391
L378.278 358.908
L378.405 358.908
L378.661 329.791
L378.788 328.39
L379.044 358.908
L379.171 358.908
L379.426 329.391
L379.809 329.391
L379.937 358.908
L380.192 358.908
L380.575 329.391
L380.958 329.391
L381.086 358.908
L381.341 327.89
L381.468 327.79
L381.723 329.391
L382.107 329.391
L382.234 328.89
L382.489 328.89
L382.617 329.09
L382.872 327.289
L383 327.89
L383.255 328.39
L383.383 329.391
L383.638 329.391
L384.021 358.908
L384.148 329.391
L384.403 329.391
L384.531 326.889
L384.786 329.291
L385.297 329.391
L385.552 328.89
L385.68 329.391
L385.935 329.391
L386.062 328.89
L386.318 328.89
L386.445 328.69
L386.701 58.734
L386.828 358.908
L387.083 328.99
L387.211 327.89
L387.466 358.908
L387.594 358.908
L387.849 328.89
L388.232 328.79
L388.232 328.79
L388.36 328.39
L388.615 333.293
L388.742 328.89
L388.998 341.398
L389.125 328.39
L389.38 328.39
L389.508 327.89
L389.763 328.39
L389.891 327.89
L390.274 327.89
L390.529 327.389
L390.657 327.89
L391.039 328.49
L391.295 343.899
L391.422 328.89
L391.678 327.389
L391.805 343.899
L392.06 344.199
L392.188 328.89
L392.443 328.79
L392.571 329.09
L392.954 328.89
L393.337 329.291
L393.592 344.199
L393.719 329.291
L394.102 328.89
L394.102 328.89
L394.485 344.199
L394.74 326.889
L394.868 328.09
L395.123 304.876
L395.251 326.889
L395.506 326.789
L395.634 326.889
L395.889 328.89
L396.016 328.89
L396.272 325.288
L396.399 344.199
L396.655 328.89
L396.782 328.79
L397.037 313.882
L397.165 329.09
L397.42 258.85
L397.548 328.89
L397.931 323.387
L398.186 328.29
L398.314 344.199
L398.569 328.79
L398.696 329.09
L398.952 328.89
L399.079 344.199
L399.335 344.199
L399.462 328.89
L399.717 318.885
L399.845 344.199
L400.1 358.908
L400.228 358.908
L400.483 328.89
L400.866 328.89
L400.993 328.39
L401.249 328.89
L401.376 328.89
L401.632 328.39
L401.759 320.886
L402.014 328.29
L402.142 308.879
L402.397 358.908
L402.525 328.89
L402.78 328.69
L402.908 328.79
L403.163 358.908
L403.291 358.908
L403.546 326.889
L403.673 358.908
L403.929 358.908
L404.056 328.79
L404.311 307.878
L404.439 328.99
L404.694 325.588
L404.822 328.79
L405.077 358.908
L405.205 358.908
L405.46 328.79
L405.588 358.908
L405.843 328.89
L405.97 328.39
L406.226 328.39
L406.353 318.384
L406.609 328.39
L406.736 328.39
L406.991 358.908
L407.119 328.39
L407.374 328.69
L407.502 328.39
L407.757 328.39
L407.885 327.89
L408.14 328.69
L408.268 358.908
L408.523 328.39
L408.65 328.39
L408.906 358.908
L409.033 328.29
L409.289 327.89
L409.416 358.908
L409.671 327.79
L409.799 328.79
L410.054 319.285
L410.182 358.908
L410.437 358.908
L410.565 328.89
L410.82 328.89
L410.948 329.291
L411.203 328.39
L411.33 329.291
L411.586 329.191
L411.713 328.89
L411.968 328.69
L412.096 328.89
L412.351 329.691
L412.479 328.89
L412.607 358.908
L412.989 328.89
L413.245 358.908
L413.5 329.791
L413.627 328.89
L413.883 358.908
L414.01 329.391
L414.266 329.391
L414.393 329.591
L414.776 329.391
L415.031 329.391
L415.159 358.908
L415.414 329.591
L415.542 328.89
L415.797 328.39
L415.925 327.89
L416.18 329.791
L416.307 358.908
L416.563 329.391
L416.69 329.391
L416.945 358.908
L417.073 329.391
L417.328 324.388
L417.456 329.691
L417.711 328.89
L417.839 328.99
L418.094 328.89
L418.222 329.191
L418.477 358.908
L418.604 358.908
L418.86 328.79
L418.987 328.39
L419.243 328.89
L419.625 328.89
L419.753 358.908
L420.008 328.89
L420.136 327.89
L420.391 328.79
L420.519 328.39
L420.902 329.09
L421.284 328.89
L421.54 358.908
L421.667 358.908
L421.922 328.69
L422.05 358.908
L422.305 328.89
L423.454 328.89
L423.581 328.39
L423.837 328.39
L423.964 358.908
L424.22 358.908
L424.347 328.89
L424.602 328.39
L424.73 327.89
L424.985 327.89
L425.113 328.79
L425.368 328.89
L425.496 323.387
L425.751 325.889
L425.879 328.39
L426.134 328.99
L426.261 328.99
L426.517 328.79
L426.644 328.89
L426.899 324.388
L427.282 327.89
L427.41 327.89
L427.793 328.89
L428.048 328.39
L428.176 329.09
L428.431 358.908
L428.558 329.09
L428.814 329.09
L428.941 328.39
L429.197 328.89
L429.707 328.89
L429.962 328.39
L430.09 328.89
L430.345 328.99
L430.473 358.908
L430.728 328.29
L430.983 329.391
L431.494 329.09
L431.621 329.391
L431.877 328.89
L432.004 329.391
L432.259 326.889
L432.387 328.79
L432.642 329.591
L432.77 329.391
L433.025 329.391
L433.153 329.191
L433.408 358.908
L433.536 328.39
L433.791 329.391
L433.918 328.79
L434.174 329.391
L434.301 327.89
L434.556 328.39
L434.684 327.389
L435.067 329.791
L435.322 328.79
L435.45 327.389
L435.833 329.691
L436.088 325.388
L436.215 328.89
L436.471 327.89
L436.598 329.791
L436.981 329.391
L437.236 329.391
L437.364 328.79
L437.619 358.908
L437.747 329.491
L438.13 329.291
L438.385 327.89
L438.513 329.391
L438.768 328.79
L439.151 329.191
L439.533 327.389
L439.661 329.291
L439.916 327.389
L440.044 358.908
L440.299 329.291
L440.299 329.291
L440.427 329.391
L440.682 328.89
L441.065 328.89
L441.192 358.908
L441.448 327.79
L441.575 329.291
L441.831 326.889
L441.831 326.889
L441.958 329.291
L442.341 328.89
L442.596 327.79
L442.724 328.89
L442.979 328.89
L443.107 318.885
L443.362 358.908
L443.49 329.191
L443.745 328.39
L443.872 328.89
L444.128 328.39
L444.255 329.191
L444.51 328.79
L444.638 328.89
L444.893 328.89
L445.021 327.89
L445.276 328.89
L445.404 326.389
L445.659 328.89
L446.042 329.291
L446.169 328.39
L446.425 328.89
L446.552 328.89
L446.935 329.391
L447.19 327.389
L447.318 358.908
L447.701 358.908
L447.956 329.491
L448.084 329.391
L448.339 329.391
L448.467 327.89
L448.849 317.884
L449.232 328.39
L449.487 329.791
L449.487 329.791
L449.615 329.291
L449.87 327.389
L449.998 329.891
L450.126 328.89
L450.381 329.891
L450.636 329.891
L450.764 329.591
L451.019 327.389
L451.146 327.89
L451.402 313.882
L451.529 323.887
L451.912 329.391
L452.167 329.891
L452.295 329.791
L452.55 323.887
L452.678 327.89
L452.933 329.891
L453.061 329.891
L453.316 358.908
L453.444 329.991
L453.699 329.891
L453.826 358.908
L454.082 328.89
L454.209 328.89
L454.465 329.391
L454.592 328.89
L454.847 329.791
L454.847 329.791
L454.975 358.908
L455.358 312.881
L455.613 329.391
L455.741 328.89
L455.996 328.39
L456.123 328.89
L456.379 327.89
L456.506 328.39
L456.762 328.39
L456.889 324.888
L457.144 328.89
L457.272 327.389
L457.655 329.791
L457.91 326.889
L458.038 328.39
L458.293 328.89
L458.421 328.89
L458.676 328.39
L458.803 358.908
L459.059 328.89
L459.186 329.191
L459.442 327.99
L459.569 328.89
L459.824 358.908
L459.952 328.79
L460.207 358.908
L460.335 328.89
L460.59 328.39
L460.718 329.191
L460.973 328.89
L461.101 358.908
L461.356 358.908
L461.484 328.89
L461.739 328.39
L461.866 328.79
L462.121 328.79
L462.249 329.291
L462.504 329.291
L462.632 328.79
L462.887 329.291
L463.015 328.89
L463.27 328.79
L463.398 328.39
L463.781 325.288
L464.163 328.39
L464.419 327.89
L464.546 326.889
L464.801 328.39
L464.929 328.29
L465.184 328.49
L465.312 318.885
L465.567 328.79
L465.567 328.79
L465.695 329.09
L465.95 327.89
L466.078 328.89
L466.333 328.79
L466.46 328.29
L466.716 328.89
L466.843 328.89
L467.098 358.908
L467.226 329.191
L467.481 328.89
L467.864 328.89
L467.992 329.491
L468.247 358.908
L468.63 329.391
L468.757 358.908
L469.013 328.89
L469.14 329.391
L469.396 325.388
L469.523 328.89
L469.906 328.89
L470.161 327.89
L470.289 358.908
L470.544 328.89
L470.672 328.39
L471.055 321.386
L471.31 322.887
L471.693 319.285
L471.82 303.876
L472.075 327.79
L472.203 303.876
L472.458 328.39
L472.841 329.391
L472.969 318.885
L473.224 329.691
L473.352 324.388
L473.607 358.908
L473.734 325.388
L473.99 329.391
L474.118 358.908
L474.373 329.391
L474.5 329.291
L474.755 328.89
L474.883 329.191
L475.138 358.908
L475.266 358.908
L475.521 328.89
L475.649 328.39
L475.904 328.39
L476.032 327.89
L476.287 328.89
L476.414 328.39
L476.67 328.89
L476.797 328.89
L477.052 327.389
L477.18 328.89
L477.435 328.29
L477.563 327.389
L477.818 323.887
L477.946 328.89
L478.584 328.89
L478.711 328.69
L478.967 323.887
L479.094 328.39
L479.35 328.89
L479.477 358.908
L479.732 329.291
L479.86 328.99
L480.115 329.191
L480.243 326.889
L480.498 328.89
L481.009 328.89
L481.264 358.908
L481.391 358.908
L481.774 323.887
L482.03 328.79
L482.157 328.39
L482.412 328.39
L482.54 328.89
L482.923 328.89
L483.178 329.191
L483.306 328.39
L483.561 358.908
L483.689 329.09
L483.944 358.908
L484.071 329.291
L484.327 329.491
L484.454 328.89
L484.709 329.491
L484.837 329.391
L485.092 329.391
L485.22 327.89
L485.475 327.389
L485.858 358.908
L485.986 329.391
L486.241 329.591
L486.241 329.591
L486.368 328.79
L486.624 328.89
L486.751 329.391
L487.007 328.89
L487.134 329.691
L487.517 329.891
L487.772 329.891
L487.9 329.391
L488.155 329.891
L488.283 329.791
L488.666 329.891
L488.921 329.391
L489.048 329.891
L489.304 329.891
L489.431 328.89
L489.686 329.991
L489.814 329.891
L490.069 323.887
L490.197 329.391
L490.835 329.391
L490.963 358.908
L491.218 329.691
L491.345 358.908
L491.601 328.89
L491.728 329.391
L491.984 329.691
L492.111 329.491
L492.366 329.391
L492.494 329.191
L492.749 327.389
L492.877 328.89
L493.132 329.391
L493.26 329.291
L493.515 329.391
L493.643 328.39
L493.898 329.791
L494.026 329.391
L494.281 329.391
L494.408 358.908
L494.663 358.908
L494.791 329.391
L495.046 358.908
L495.174 329.391
L495.429 329.491
L495.684 329.291
L495.812 328.39
L495.812 328.39
L495.94 328.39
L496.195 326.989
L496.322 323.887
L496.578 358.908
L496.705 328.89
L496.961 326.889
L497.088 358.908
L497.343 328.89
L497.471 327.89
L497.726 58.2337
L497.854 358.908
L498.109 328.89
L498.237 327.89
L498.492 358.908
L498.875 358.908
L499.002 327.89
L499.385 328.99
L499.768 328.89
L500.023 327.89
L500.151 328.29
L500.534 328.39
L500.789 328.89
L500.917 328.89
L501.172 328.39
L501.299 358.908
L501.555 328.39
L501.682 327.89
L501.938 358.908
L502.065 328.79
L502.32 328.89
L502.448 358.908
L502.703 358.908
L502.831 329.291
L503.214 328.29
L503.469 358.908
L503.597 328.89
L503.852 329.391
L503.979 328.89
L504.235 358.908
L504.362 329.291
L504.617 329.491
L504.745 358.908
L504.873 328.89
L505.128 329.391
L505.383 329.291
L505.511 327.79
L505.766 329.391
L506.149 329.391
L506.277 328.89
L506.659 328.79
L506.915 329.391
L507.042 328.89
L507.297 329.391
L507.425 283.864
L507.68 328.79
L507.808 329.291
L508.063 329.291
L508.191 358.908
L508.446 328.89
L508.574 358.908
L508.829 329.291
L509.212 328.89
L509.339 329.191
L509.595 326.889
L509.722 328.89
L509.977 329.09
L510.36 358.908
L510.743 358.908
L510.871 328.39
L511.126 328.89
L511.636 329.191
L512.019 328.79
L512.274 358.908
L512.402 358.908
L512.657 328.89
L512.785 358.908
L513.04 329.291
L513.168 329.191
L513.551 329.291
L513.806 328.89
L513.933 329.09
L514.189 328.89
L514.317 328.99
L515.337 328.89
L515.465 314.882
L515.72 328.89
L516.103 328.79
L516.231 358.908
L516.486 328.89
L517.251 328.89
L517.379 327.89
L517.634 328.99
L517.762 328.89
L518.017 328.39
L518.145 328.89
L518.4 328.89
L518.4 328.89" style="fill:none;stroke:#ff0000;stroke-linecap:square;"/>
   </g>
   <g id="line2d_2">
    <path clip-path="url(#pcb2bf987bf)" d="
M72 330.791
L72.7657 330.791
L72.8933 330.491
L73.5314 330.491
L73.659 330.691
L74.2971 330.691
L74.4247 330.891
L75.0628 330.891
L75.1904 330.691
L78.1256 330.691
L78.1256 330.691
L78.2532 330.491
L78.8915 330.491
L79.0189 330.691
L82.7197 330.791
L82.8473 330.891
L83.4854 330.891
L83.613 330.691
L84.2511 330.691
L84.3787 330.891
L85.7825 330.891
L85.9101 330.491
L86.5482 330.491
L86.6758 330.891
L88.0796 330.791
L88.2072 330.291
L89.611 330.291
L89.7386 330.591
L91.9081 330.491
L92.6738 330.291
L94.9708 330.391
L95.7365 330.491
L96.3746 330.391
L97.1403 330.691
L98.0336 330.791
L98.7993 330.691
L99.4374 330.891
L100.331 330.992
L100.969 330.891
L101.862 330.891
L102.5 331.192
L104.797 331.092
L106.329 330.591
L108.626 330.691
L109.519 330.391
L110.285 330.491
L111.05 330.391
L116.41 330.291
L117.942 330.891
L118.707 330.992
L119.345 330.992
L120.111 330.791
L121.004 330.891
L122.536 330.691
L126.365 330.591
L128.661 330.291
L130.193 330.491
L130.831 330.191
L131.597 330.191
L132.362 330.391
L132.362 330.391
L133.894 330.391
L134.149 330.591
L135.425 330.591
L136.956 331.092
L138.488 330.992
L140.019 331.092
L141.551 330.992
L142.316 330.891
L143.082 330.491
L144.613 330.391
L147.676 330.291
L149.973 330.091
L153.164 330.191
L153.802 330.491
L155.333 330.391
L155.333 330.391
L156.099 330.791
L157.758 330.791
L158.396 330.591
L160.821 330.491
L162.224 330.391
L163.118 330.191
L163.883 330.191
L164.649 329.991
L171.413 329.991
L173.71 330.691
L174.603 330.591
L176.773 330.791
L177.538 330.691
L178.304 330.591
L179.07 330.191
L181.367 329.991
L182.26 330.191
L183.791 330.091
L185.961 329.791
L186.727 329.791
L187.492 329.591
L190.555 329.891
L191.321 330.291
L191.321 330.291
L194.384 330.591
L198.212 330.191
L198.212 330.191
L198.978 330.191
L200.509 329.791
L201.275 329.991
L202.04 329.791
L208.166 329.891
L211.356 330.291
L219.013 330.191
L219.141 330.091
L222.842 330.091
L222.842 330.091
L223.352 329.791
L224.373 329.791
L224.501 330.091
L225.905 329.991
L225.905 329.991
L226.032 330.291
L226.032 330.291
L226.67 330.291
L226.798 330.091
L228.202 329.991
L228.329 330.391
L228.967 330.391
L229.095 330.591
L230.499 330.491
L230.499 330.491
L231.264 330.391
L231.264 330.391
L231.392 330.491
L234.327 330.391
L234.327 330.391
L234.455 330.291
L235.859 330.191
L235.859 330.191
L235.986 330.091
L236.624 330.091
L236.752 329.791
L238.921 329.891
L239.049 329.991
L240.453 329.891
L240.453 329.891
L240.58 329.791
L241.219 329.791
L241.346 329.591
L241.984 329.591
L242.112 329.791
L242.75 329.791
L242.878 329.591
L243.516 329.591
L243.643 329.891
L244.281 329.891
L244.409 330.191
L245.047 330.191
L245.047 330.191
L245.175 330.391
L246.578 330.391
L246.578 330.391
L246.706 330.591
L247.344 330.591
L247.855 330.791
L251.173 330.691
L251.3 330.591
L251.938 330.591
L252.066 330.391
L255.001 330.291
L255.129 330.191
L255.129 330.191
L258.064 330.191
L258.064 330.191
L258.574 329.991
L261.892 329.991
L262.02 329.791
L262.658 329.791
L262.786 329.991
L263.424 329.991
L263.424 329.991
L263.551 330.291
L264.189 330.291
L264.189 330.291
L264.317 330.591
L264.955 330.591
L264.955 330.591
L265.083 330.391
L268.018 330.491
L268.145 330.591
L271.081 330.491
L271.463 330.291
L273.378 330.191
L273.378 330.191
L273.506 330.091
L275.675 329.991
L275.802 329.891
L281.035 329.991
L281.035 329.991
L281.162 330.291
L282.566 330.191
L282.694 330.591
L284.097 330.691
L284.225 330.791
L287.926 330.791
L288.054 330.491
L289.457 330.391
L289.585 330.291
L290.989 330.191
L291.116 330.091
L294.051 329.991
L294.051 329.991
L294.179 329.891
L300.177 329.991
L300.177 329.991
L300.305 330.191
L301.708 330.291
L301.836 330.691
L307.834 330.591
L307.962 330.491
L310.131 330.391
L310.131 330.391
L310.259 330.291
L315.491 330.191
L315.619 330.091
L317.788 330.191
L317.916 330.291
L318.554 330.291
L318.554 330.291
L318.681 330.491
L319.319 330.491
L319.319 330.491
L319.447 330.691
L321.616 330.691
L322.127 330.891
L323.148 330.992
L323.275 330.891
L326.211 330.791
L326.338 330.691
L326.976 330.691
L327.104 330.491
L328.508 330.491
L328.635 330.291
L330.805 330.291
L330.933 330.491
L331.57 330.491
L331.698 330.291
L337.696 330.391
L337.824 330.691
L344.588 330.591
L344.715 330.491
L354.541 330.491
L354.669 330.691
L355.307 330.691
L355.307 330.691
L355.435 330.891
L357.477 330.891
L357.732 331.192
L358.37 331.192
L358.37 331.192
L358.497 330.992
L359.136 330.992
L359.263 331.292
L361.433 331.192
L361.56 331.092
L362.198 331.092
L362.326 330.891
L362.964 330.891
L363.092 330.691
L365.261 330.591
L365.389 330.491
L367.558 330.391
L367.686 330.291
L372.918 330.291
L373.046 330.491
L375.215 330.491
L375.343 330.691
L375.981 330.691
L376.108 330.992
L382.872 330.891
L383 330.791
L385.935 330.791
L386.062 330.491
L388.232 330.391
L388.232 330.391
L388.36 344.9
L388.998 344.9
L389.125 329.791
L391.295 329.891
L391.422 330.291
L392.06 330.291
L392.188 330.491
L392.826 330.491
L392.954 330.691
L395.123 330.691
L395.251 330.391
L396.655 330.491
L396.782 330.591
L397.42 330.591
L397.548 330.391
L402.014 330.391
L402.142 330.091
L402.78 330.091
L402.908 330.491
L404.311 330.391
L404.439 330.191
L408.906 330.191
L409.033 330.391
L410.437 330.291
L410.565 330.691
L411.968 330.591
L412.096 330.992
L417.328 330.992
L417.456 330.491
L426.517 330.391
L426.644 330.691
L427.282 330.691
L427.41 330.491
L428.814 330.491
L428.941 330.691
L429.579 330.691
L429.707 330.891
L433.408 330.992
L433.536 331.192
L434.939 331.092
L435.067 330.992
L438.002 330.891
L438.13 330.791
L441.831 330.691
L441.831 330.691
L441.958 330.291
L442.596 330.291
L442.724 330.591
L446.425 330.691
L446.552 330.791
L447.956 330.891
L448.084 331.092
L448.722 331.092
L448.849 330.791
L449.487 330.791
L449.487 330.791
L449.615 331.292
L451.019 331.292
L451.146 330.992
L452.55 331.092
L452.678 331.292
L454.082 331.292
L454.209 331.092
L455.613 331.092
L455.741 330.691
L456.379 330.691
L456.506 330.491
L460.973 330.591
L461.101 330.691
L462.504 330.691
L462.632 330.391
L464.801 330.491
L464.929 330.591
L466.333 330.491
L466.46 330.891
L471.693 330.891
L471.82 330.691
L473.224 330.791
L473.352 330.992
L474.755 330.891
L474.883 330.591
L483.178 330.591
L483.306 330.791
L484.709 330.891
L484.837 330.992
L485.475 330.992
L485.986 331.192
L487.007 331.192
L487.134 330.992
L487.772 330.992
L487.9 331.292
L490.069 331.292
L490.197 330.992
L495.429 330.891
L495.684 330.691
L497.726 330.691
L497.854 330.391
L500.023 330.291
L500.151 330.191
L500.789 330.191
L500.917 330.491
L502.32 330.391
L502.448 330.691
L503.852 330.791
L503.979 330.891
L507.68 330.891
L507.808 330.691
L513.04 330.691
L513.168 330.491
L516.103 330.391
L516.231 330.291
L518.4 330.291
L518.4 330.291" style="fill:none;stroke:#008000;stroke-linecap:square;"/>
   </g>
   <g id="patch_3">
    <path d="
M72 43.2
L518.4 43.2" style="fill:none;stroke:#000000;stroke-linecap:square;stroke-linejoin:miter;"/>
   </g>
   <g id="patch_4">
    <path d="
M518.4 345.6
L518.4 43.2" style="fill:none;stroke:#000000;stroke-linecap:square;stroke-linejoin:miter;"/>
   </g>
   <g id="patch_5">
    <path d="
M72 345.6
L518.4 345.6" style="fill:none;stroke:#000000;stroke-linecap:square;stroke-linejoin:miter;"/>
   </g>
   <g id="patch_6">
    <path d="
M72 345.6
L72 43.2" style="fill:none;stroke:#000000;stroke-linecap:square;stroke-linejoin:miter;"/>
   </g>
   <g id="matplotlib.axis_1">
    <g id="xtick_1">
     <g id="line2d_3">
      <defs>
       <path d="
M0 0
L0 -4" id="m93b0483c22" style="stroke:#000000;stroke-width:0.5;"/>
      </defs>
      <g>
       <use style="stroke:#000000;stroke-width:0.5;" x="117.941468267" xlink:href="#m93b0483c22" y="345.6"/>
      </g>
     </g>
     <g id="line2d_4">
      <defs>
       <path d="
M0 0
L0 4" id="m741efc42ff" style="stroke:#000000;stroke-width:0.5;"/>
      </defs>
      <g>
       <use style="stroke:#000000;stroke-width:0.5;" x="117.941468267" xlink:href="#m741efc42ff" y="43.2"/>
      </g>
     </g>
     <g id="text_1">
      <!-- Oct 13 2015 -->
      <defs>
       <path d="
M19.1875 8.29688
L53.6094 8.29688
L53.6094 0
L7.32812 0
L7.32812 8.29688
Q12.9375 14.1094 22.625 23.8906
Q32.3281 33.6875 34.8125 36.5312
Q39.5469 41.8438 41.4219 45.5312
Q43.3125 49.2188 43.3125 52.7812
Q43.3125 58.5938 39.2344 62.25
Q35.1562 65.9219 28.6094 65.9219
Q23.9688 65.9219 18.8125 64.3125
Q13.6719 62.7031 7.8125 59.4219
L7.8125 69.3906
Q13.7656 71.7812 18.9375 73
Q24.125 74.2188 28.4219 74.2188
Q39.75 74.2188 46.4844 68.5469
Q53.2188 62.8906 53.2188 53.4219
Q53.2188 48.9219 51.5312 44.8906
Q49.8594 40.875 45.4062 35.4062
Q44.1875 33.9844 37.6406 27.2188
Q31.1094 20.4531 19.1875 8.29688" id="BitstreamVeraSans-Roman-32"/>
       <path d="
M39.4062 66.2188
Q28.6562 66.2188 22.3281 58.2031
Q16.0156 50.2031 16.0156 36.375
Q16.0156 22.6094 22.3281 14.5938
Q28.6562 6.59375 39.4062 6.59375
Q50.1406 6.59375 56.4219 14.5938
Q62.7031 22.6094 62.7031 36.375
Q62.7031 50.2031 56.4219 58.2031
Q50.1406 66.2188 39.4062 66.2188
M39.4062 74.2188
Q54.7344 74.2188 63.9062 63.9375
Q73.0938 53.6562 73.0938 36.375
Q73.0938 19.1406 63.9062 8.85938
Q54.7344 -1.42188 39.4062 -1.42188
Q24.0312 -1.42188 14.8125 8.82812
Q5.60938 19.0938 5.60938 36.375
Q5.60938 53.6562 14.8125 63.9375
Q24.0312 74.2188 39.4062 74.2188" id="BitstreamVeraSans-Roman-4f"/>
       <path d="
M31.7812 66.4062
Q24.1719 66.4062 20.3281 58.9062
Q16.5 51.4219 16.5 36.375
Q16.5 21.3906 20.3281 13.8906
Q24.1719 6.39062 31.7812 6.39062
Q39.4531 6.39062 43.2812 13.8906
Q47.125 21.3906 47.125 36.375
Q47.125 51.4219 43.2812 58.9062
Q39.4531 66.4062 31.7812 66.4062
M31.7812 74.2188
Q44.0469 74.2188 50.5156 64.5156
Q56.9844 54.8281 56.9844 36.375
Q56.9844 17.9688 50.5156 8.26562
Q44.0469 -1.42188 31.7812 -1.42188
Q19.5312 -1.42188 13.0625 8.26562
Q6.59375 17.9688 6.59375 36.375
Q6.59375 54.8281 13.0625 64.5156
Q19.5312 74.2188 31.7812 74.2188" id="BitstreamVeraSans-Roman-30"/>
       <path d="
M12.4062 8.29688
L28.5156 8.29688
L28.5156 63.9219
L10.9844 60.4062
L10.9844 69.3906
L28.4219 72.9062
L38.2812 72.9062
L38.2812 8.29688
L54.3906 8.29688
L54.3906 0
L12.4062 0
z
" id="BitstreamVeraSans-Roman-31"/>
       <path d="
M40.5781 39.3125
Q47.6562 37.7969 51.625 33
Q55.6094 28.2188 55.6094 21.1875
Q55.6094 10.4062 48.1875 4.48438
Q40.7656 -1.42188 27.0938 -1.42188
Q22.5156 -1.42188 17.6562 -0.515625
Q12.7969 0.390625 7.625 2.20312
L7.625 11.7188
Q11.7188 9.32812 16.5938 8.10938
Q21.4844 6.89062 26.8125 6.89062
Q36.0781 6.89062 40.9375 10.5469
Q45.7969 14.2031 45.7969 21.1875
Q45.7969 27.6406 41.2812 31.2656
Q36.7656 34.9062 28.7188 34.9062
L20.2188 34.9062
L20.2188 43.0156
L29.1094 43.0156
Q36.375 43.0156 40.2344 45.9219
Q44.0938 48.8281 44.0938 54.2969
Q44.0938 59.9062 40.1094 62.9062
Q36.1406 65.9219 28.7188 65.9219
Q24.6562 65.9219 20.0156 65.0312
Q15.375 64.1562 9.8125 62.3125
L9.8125 71.0938
Q15.4375 72.6562 20.3438 73.4375
Q25.25 74.2188 29.5938 74.2188
Q40.8281 74.2188 47.3594 69.1094
Q53.9062 64.0156 53.9062 55.3281
Q53.9062 49.2656 50.4375 45.0938
Q46.9688 40.9219 40.5781 39.3125" id="BitstreamVeraSans-Roman-33"/>
       <path id="BitstreamVeraSans-Roman-20"/>
       <path d="
M10.7969 72.9062
L49.5156 72.9062
L49.5156 64.5938
L19.8281 64.5938
L19.8281 46.7344
Q21.9688 47.4688 24.1094 47.8281
Q26.2656 48.1875 28.4219 48.1875
Q40.625 48.1875 47.75 41.5
Q54.8906 34.8125 54.8906 23.3906
Q54.8906 11.625 47.5625 5.09375
Q40.2344 -1.42188 26.9062 -1.42188
Q22.3125 -1.42188 17.5469 -0.640625
Q12.7969 0.140625 7.71875 1.70312
L7.71875 11.625
Q12.1094 9.23438 16.7969 8.0625
Q21.4844 6.89062 26.7031 6.89062
Q35.1562 6.89062 40.0781 11.3281
Q45.0156 15.7656 45.0156 23.3906
Q45.0156 31 40.0781 35.4375
Q35.1562 39.8906 26.7031 39.8906
Q22.75 39.8906 18.8125 39.0156
Q14.8906 38.1406 10.7969 36.2812
z
" id="BitstreamVeraSans-Roman-35"/>
       <path d="
M18.3125 70.2188
L18.3125 54.6875
L36.8125 54.6875
L36.8125 47.7031
L18.3125 47.7031
L18.3125 18.0156
Q18.3125 11.3281 20.1406 9.42188
Q21.9688 7.51562 27.5938 7.51562
L36.8125 7.51562
L36.8125 0
L27.5938 0
Q17.1875 0 13.2344 3.875
Q9.28125 7.76562 9.28125 18.0156
L9.28125 47.7031
L2.6875 47.7031
L2.6875 54.6875
L9.28125 54.6875
L9.28125 70.2188
z
" id="BitstreamVeraSans-Roman-74"/>
       <path d="
M48.7812 52.5938
L48.7812 44.1875
Q44.9688 46.2969 41.1406 47.3438
Q37.3125 48.3906 33.4062 48.3906
Q24.6562 48.3906 19.8125 42.8438
Q14.9844 37.3125 14.9844 27.2969
Q14.9844 17.2812 19.8125 11.7344
Q24.6562 6.20312 33.4062 6.20312
Q37.3125 6.20312 41.1406 7.25
Q44.9688 8.29688 48.7812 10.4062
L48.7812 2.09375
Q45.0156 0.34375 40.9844 -0.53125
Q36.9688 -1.42188 32.4219 -1.42188
Q20.0625 -1.42188 12.7812 6.34375
Q5.51562 14.1094 5.51562 27.2969
Q5.51562 40.6719 12.8594 48.3281
Q20.2188 56 33.0156 56
Q37.1562 56 41.1094 55.1406
Q45.0625 54.2969 48.7812 52.5938" id="BitstreamVeraSans-Roman-63"/>
      </defs>
      <g transform="translate(53.3541815316 394.065590385)rotate(-30.0)scale(0.12 -0.12)">
       <use xlink:href="#BitstreamVeraSans-Roman-4f"/>
       <use x="78.7109375" xlink:href="#BitstreamVeraSans-Roman-63"/>
       <use x="133.69140625" xlink:href="#BitstreamVeraSans-Roman-74"/>
       <use x="172.900390625" xlink:href="#BitstreamVeraSans-Roman-20"/>
       <use x="204.6875" xlink:href="#BitstreamVeraSans-Roman-31"/>
       <use x="268.310546875" xlink:href="#BitstreamVeraSans-Roman-33"/>
       <use x="331.93359375" xlink:href="#BitstreamVeraSans-Roman-20"/>
       <use x="363.720703125" xlink:href="#BitstreamVeraSans-Roman-32"/>
       <use x="427.34375" xlink:href="#BitstreamVeraSans-Roman-30"/>
       <use x="490.966796875" xlink:href="#BitstreamVeraSans-Roman-31"/>
       <use x="554.58984375" xlink:href="#BitstreamVeraSans-Roman-35"/>
      </g>
     </g>
    </g>
    <g id="xtick_2">
     <g id="line2d_5">
      <g>
       <use style="stroke:#000000;stroke-width:0.5;" x="173.071485419" xlink:href="#m93b0483c22" y="345.6"/>
      </g>
     </g>
     <g id="line2d_6">
      <g>
       <use style="stroke:#000000;stroke-width:0.5;" x="173.071485419" xlink:href="#m741efc42ff" y="43.2"/>
      </g>
     </g>
     <g id="text_2">
      <!-- Oct 16 2015 -->
      <defs>
       <path d="
M33.0156 40.375
Q26.375 40.375 22.4844 35.8281
Q18.6094 31.2969 18.6094 23.3906
Q18.6094 15.5312 22.4844 10.9531
Q26.375 6.39062 33.0156 6.39062
Q39.6562 6.39062 43.5312 10.9531
Q47.4062 15.5312 47.4062 23.3906
Q47.4062 31.2969 43.5312 35.8281
Q39.6562 40.375 33.0156 40.375
M52.5938 71.2969
L52.5938 62.3125
Q48.875 64.0625 45.0938 64.9844
Q41.3125 65.9219 37.5938 65.9219
Q27.8281 65.9219 22.6719 59.3281
Q17.5312 52.7344 16.7969 39.4062
Q19.6719 43.6562 24.0156 45.9219
Q28.375 48.1875 33.5938 48.1875
Q44.5781 48.1875 50.9531 41.5156
Q57.3281 34.8594 57.3281 23.3906
Q57.3281 12.1562 50.6875 5.35938
Q44.0469 -1.42188 33.0156 -1.42188
Q20.3594 -1.42188 13.6719 8.26562
Q6.98438 17.9688 6.98438 36.375
Q6.98438 53.6562 15.1875 63.9375
Q23.3906 74.2188 37.2031 74.2188
Q40.9219 74.2188 44.7031 73.4844
Q48.4844 72.75 52.5938 71.2969" id="BitstreamVeraSans-Roman-36"/>
      </defs>
      <g transform="translate(108.484198684 394.065590385)rotate(-30.0)scale(0.12 -0.12)">
       <use xlink:href="#BitstreamVeraSans-Roman-4f"/>
       <use x="78.7109375" xlink:href="#BitstreamVeraSans-Roman-63"/>
       <use x="133.69140625" xlink:href="#BitstreamVeraSans-Roman-74"/>
       <use x="172.900390625" xlink:href="#BitstreamVeraSans-Roman-20"/>
       <use x="204.6875" xlink:href="#BitstreamVeraSans-Roman-31"/>
       <use x="268.310546875" xlink:href="#BitstreamVeraSans-Roman-36"/>
       <use x="331.93359375" xlink:href="#BitstreamVeraSans-Roman-20"/>
       <use x="363.720703125" xlink:href="#BitstreamVeraSans-Roman-32"/>
       <use x="427.34375" xlink:href="#BitstreamVeraSans-Roman-30"/>
       <use x="490.966796875" xlink:href="#BitstreamVeraSans-Roman-31"/>
       <use x="554.58984375" xlink:href="#BitstreamVeraSans-Roman-35"/>
      </g>
     </g>
    </g>
    <g id="xtick_3">
     <g id="line2d_7">
      <g>
       <use style="stroke:#000000;stroke-width:0.5;" x="228.201502573" xlink:href="#m93b0483c22" y="345.6"/>
      </g>
     </g>
     <g id="line2d_8">
      <g>
       <use style="stroke:#000000;stroke-width:0.5;" x="228.201502573" xlink:href="#m741efc42ff" y="43.2"/>
      </g>
     </g>
     <g id="text_3">
      <!-- Oct 19 2015 -->
      <defs>
       <path d="
M10.9844 1.51562
L10.9844 10.5
Q14.7031 8.73438 18.5 7.8125
Q22.3125 6.89062 25.9844 6.89062
Q35.75 6.89062 40.8906 13.4531
Q46.0469 20.0156 46.7812 33.4062
Q43.9531 29.2031 39.5938 26.9531
Q35.25 24.7031 29.9844 24.7031
Q19.0469 24.7031 12.6719 31.3125
Q6.29688 37.9375 6.29688 49.4219
Q6.29688 60.6406 12.9375 67.4219
Q19.5781 74.2188 30.6094 74.2188
Q43.2656 74.2188 49.9219 64.5156
Q56.5938 54.8281 56.5938 36.375
Q56.5938 19.1406 48.4062 8.85938
Q40.2344 -1.42188 26.4219 -1.42188
Q22.7031 -1.42188 18.8906 -0.6875
Q15.0938 0.046875 10.9844 1.51562
M30.6094 32.4219
Q37.25 32.4219 41.125 36.9531
Q45.0156 41.5 45.0156 49.4219
Q45.0156 57.2812 41.125 61.8438
Q37.25 66.4062 30.6094 66.4062
Q23.9688 66.4062 20.0938 61.8438
Q16.2188 57.2812 16.2188 49.4219
Q16.2188 41.5 20.0938 36.9531
Q23.9688 32.4219 30.6094 32.4219" id="BitstreamVeraSans-Roman-39"/>
      </defs>
      <g transform="translate(163.614215838 394.065590385)rotate(-30.0)scale(0.12 -0.12)">
       <use xlink:href="#BitstreamVeraSans-Roman-4f"/>
       <use x="78.7109375" xlink:href="#BitstreamVeraSans-Roman-63"/>
       <use x="133.69140625" xlink:href="#BitstreamVeraSans-Roman-74"/>
       <use x="172.900390625" xlink:href="#BitstreamVeraSans-Roman-20"/>
       <use x="204.6875" xlink:href="#BitstreamVeraSans-Roman-31"/>
       <use x="268.310546875" xlink:href="#BitstreamVeraSans-Roman-39"/>
       <use x="331.93359375" xlink:href="#BitstreamVeraSans-Roman-20"/>
       <use x="363.720703125" xlink:href="#BitstreamVeraSans-Roman-32"/>
       <use x="427.34375" xlink:href="#BitstreamVeraSans-Roman-30"/>
       <use x="490.966796875" xlink:href="#BitstreamVeraSans-Roman-31"/>
       <use x="554.58984375" xlink:href="#BitstreamVeraSans-Roman-35"/>
      </g>
     </g>
    </g>
    <g id="xtick_4">
     <g id="line2d_9">
      <g>
       <use style="stroke:#000000;stroke-width:0.5;" x="283.331519725" xlink:href="#m93b0483c22" y="345.6"/>
      </g>
     </g>
     <g id="line2d_10">
      <g>
       <use style="stroke:#000000;stroke-width:0.5;" x="283.331519725" xlink:href="#m741efc42ff" y="43.2"/>
      </g>
     </g>
     <g id="text_4">
      <!-- Oct 22 2015 -->
      <g transform="translate(218.74423299 394.065590385)rotate(-30.0)scale(0.12 -0.12)">
       <use xlink:href="#BitstreamVeraSans-Roman-4f"/>
       <use x="78.7109375" xlink:href="#BitstreamVeraSans-Roman-63"/>
       <use x="133.69140625" xlink:href="#BitstreamVeraSans-Roman-74"/>
       <use x="172.900390625" xlink:href="#BitstreamVeraSans-Roman-20"/>
       <use x="204.6875" xlink:href="#BitstreamVeraSans-Roman-32"/>
       <use x="268.310546875" xlink:href="#BitstreamVeraSans-Roman-32"/>
       <use x="331.93359375" xlink:href="#BitstreamVeraSans-Roman-20"/>
       <use x="363.720703125" xlink:href="#BitstreamVeraSans-Roman-32"/>
       <use x="427.34375" xlink:href="#BitstreamVeraSans-Roman-30"/>
       <use x="490.966796875" xlink:href="#BitstreamVeraSans-Roman-31"/>
       <use x="554.58984375" xlink:href="#BitstreamVeraSans-Roman-35"/>
      </g>
     </g>
    </g>
    <g id="xtick_5">
     <g id="line2d_11">
      <g>
       <use style="stroke:#000000;stroke-width:0.5;" x="338.461536877" xlink:href="#m93b0483c22" y="345.6"/>
      </g>
     </g>
     <g id="line2d_12">
      <g>
       <use style="stroke:#000000;stroke-width:0.5;" x="338.461536877" xlink:href="#m741efc42ff" y="43.2"/>
      </g>
     </g>
     <g id="text_5">
      <!-- Oct 25 2015 -->
      <g transform="translate(273.874250142 394.065590385)rotate(-30.0)scale(0.12 -0.12)">
       <use xlink:href="#BitstreamVeraSans-Roman-4f"/>
       <use x="78.7109375" xlink:href="#BitstreamVeraSans-Roman-63"/>
       <use x="133.69140625" xlink:href="#BitstreamVeraSans-Roman-74"/>
       <use x="172.900390625" xlink:href="#BitstreamVeraSans-Roman-20"/>
       <use x="204.6875" xlink:href="#BitstreamVeraSans-Roman-32"/>
       <use x="268.310546875" xlink:href="#BitstreamVeraSans-Roman-35"/>
       <use x="331.93359375" xlink:href="#BitstreamVeraSans-Roman-20"/>
       <use x="363.720703125" xlink:href="#BitstreamVeraSans-Roman-32"/>
       <use x="427.34375" xlink:href="#BitstreamVeraSans-Roman-30"/>
       <use x="490.966796875" xlink:href="#BitstreamVeraSans-Roman-31"/>
       <use x="554.58984375" xlink:href="#BitstreamVeraSans-Roman-35"/>
      </g>
     </g>
    </g>
    <g id="xtick_6">
     <g id="line2d_13">
      <g>
       <use style="stroke:#000000;stroke-width:0.5;" x="393.591554031" xlink:href="#m93b0483c22" y="345.6"/>
      </g>
     </g>
     <g id="line2d_14">
      <g>
       <use style="stroke:#000000;stroke-width:0.5;" x="393.591554031" xlink:href="#m741efc42ff" y="43.2"/>
      </g>
     </g>
     <g id="text_6">
      <!-- Oct 28 2015 -->
      <defs>
       <path d="
M31.7812 34.625
Q24.75 34.625 20.7188 30.8594
Q16.7031 27.0938 16.7031 20.5156
Q16.7031 13.9219 20.7188 10.1562
Q24.75 6.39062 31.7812 6.39062
Q38.8125 6.39062 42.8594 10.1719
Q46.9219 13.9688 46.9219 20.5156
Q46.9219 27.0938 42.8906 30.8594
Q38.875 34.625 31.7812 34.625
M21.9219 38.8125
Q15.5781 40.375 12.0312 44.7188
Q8.5 49.0781 8.5 55.3281
Q8.5 64.0625 14.7188 69.1406
Q20.9531 74.2188 31.7812 74.2188
Q42.6719 74.2188 48.875 69.1406
Q55.0781 64.0625 55.0781 55.3281
Q55.0781 49.0781 51.5312 44.7188
Q48 40.375 41.7031 38.8125
Q48.8281 37.1562 52.7969 32.3125
Q56.7812 27.4844 56.7812 20.5156
Q56.7812 9.90625 50.3125 4.23438
Q43.8438 -1.42188 31.7812 -1.42188
Q19.7344 -1.42188 13.25 4.23438
Q6.78125 9.90625 6.78125 20.5156
Q6.78125 27.4844 10.7812 32.3125
Q14.7969 37.1562 21.9219 38.8125
M18.3125 54.3906
Q18.3125 48.7344 21.8438 45.5625
Q25.3906 42.3906 31.7812 42.3906
Q38.1406 42.3906 41.7188 45.5625
Q45.3125 48.7344 45.3125 54.3906
Q45.3125 60.0625 41.7188 63.2344
Q38.1406 66.4062 31.7812 66.4062
Q25.3906 66.4062 21.8438 63.2344
Q18.3125 60.0625 18.3125 54.3906" id="BitstreamVeraSans-Roman-38"/>
      </defs>
      <g transform="translate(329.004267296 394.065590385)rotate(-30.0)scale(0.12 -0.12)">
       <use xlink:href="#BitstreamVeraSans-Roman-4f"/>
       <use x="78.7109375" xlink:href="#BitstreamVeraSans-Roman-63"/>
       <use x="133.69140625" xlink:href="#BitstreamVeraSans-Roman-74"/>
       <use x="172.900390625" xlink:href="#BitstreamVeraSans-Roman-20"/>
       <use x="204.6875" xlink:href="#BitstreamVeraSans-Roman-32"/>
       <use x="268.310546875" xlink:href="#BitstreamVeraSans-Roman-38"/>
       <use x="331.93359375" xlink:href="#BitstreamVeraSans-Roman-20"/>
       <use x="363.720703125" xlink:href="#BitstreamVeraSans-Roman-32"/>
       <use x="427.34375" xlink:href="#BitstreamVeraSans-Roman-30"/>
       <use x="490.966796875" xlink:href="#BitstreamVeraSans-Roman-31"/>
       <use x="554.58984375" xlink:href="#BitstreamVeraSans-Roman-35"/>
      </g>
     </g>
    </g>
    <g id="xtick_7">
     <g id="line2d_15">
      <g>
       <use style="stroke:#000000;stroke-width:0.5;" x="448.721571183" xlink:href="#m93b0483c22" y="345.6"/>
      </g>
     </g>
     <g id="line2d_16">
      <g>
       <use style="stroke:#000000;stroke-width:0.5;" x="448.721571183" xlink:href="#m741efc42ff" y="43.2"/>
      </g>
     </g>
     <g id="text_7">
      <!-- Oct 31 2015 -->
      <g transform="translate(384.134284448 394.065590385)rotate(-30.0)scale(0.12 -0.12)">
       <use xlink:href="#BitstreamVeraSans-Roman-4f"/>
       <use x="78.7109375" xlink:href="#BitstreamVeraSans-Roman-63"/>
       <use x="133.69140625" xlink:href="#BitstreamVeraSans-Roman-74"/>
       <use x="172.900390625" xlink:href="#BitstreamVeraSans-Roman-20"/>
       <use x="204.6875" xlink:href="#BitstreamVeraSans-Roman-33"/>
       <use x="268.310546875" xlink:href="#BitstreamVeraSans-Roman-31"/>
       <use x="331.93359375" xlink:href="#BitstreamVeraSans-Roman-20"/>
       <use x="363.720703125" xlink:href="#BitstreamVeraSans-Roman-32"/>
       <use x="427.34375" xlink:href="#BitstreamVeraSans-Roman-30"/>
       <use x="490.966796875" xlink:href="#BitstreamVeraSans-Roman-31"/>
       <use x="554.58984375" xlink:href="#BitstreamVeraSans-Roman-35"/>
      </g>
     </g>
    </g>
    <g id="xtick_8">
     <g id="line2d_17">
      <g>
       <use style="stroke:#000000;stroke-width:0.5;" x="503.851588335" xlink:href="#m93b0483c22" y="345.6"/>
      </g>
     </g>
     <g id="line2d_18">
      <g>
       <use style="stroke:#000000;stroke-width:0.5;" x="503.851588335" xlink:href="#m741efc42ff" y="43.2"/>
      </g>
     </g>
     <g id="text_8">
      <!-- Nov 03 2015 -->
      <defs>
       <path d="
M2.98438 54.6875
L12.5 54.6875
L29.5938 8.79688
L46.6875 54.6875
L56.2031 54.6875
L35.6875 0
L23.4844 0
z
" id="BitstreamVeraSans-Roman-76"/>
       <path d="
M9.8125 72.9062
L23.0938 72.9062
L55.4219 11.9219
L55.4219 72.9062
L64.9844 72.9062
L64.9844 0
L51.7031 0
L19.3906 60.9844
L19.3906 0
L9.8125 0
z
" id="BitstreamVeraSans-Roman-4e"/>
       <path d="
M30.6094 48.3906
Q23.3906 48.3906 19.1875 42.75
Q14.9844 37.1094 14.9844 27.2969
Q14.9844 17.4844 19.1562 11.8438
Q23.3438 6.20312 30.6094 6.20312
Q37.7969 6.20312 41.9844 11.8594
Q46.1875 17.5312 46.1875 27.2969
Q46.1875 37.0156 41.9844 42.7031
Q37.7969 48.3906 30.6094 48.3906
M30.6094 56
Q42.3281 56 49.0156 48.375
Q55.7188 40.7656 55.7188 27.2969
Q55.7188 13.875 49.0156 6.21875
Q42.3281 -1.42188 30.6094 -1.42188
Q18.8438 -1.42188 12.1719 6.21875
Q5.51562 13.875 5.51562 27.2969
Q5.51562 40.7656 12.1719 48.375
Q18.8438 56 30.6094 56" id="BitstreamVeraSans-Roman-6f"/>
      </defs>
      <g transform="translate(436.948766176 395.402465385)rotate(-30.0)scale(0.12 -0.12)">
       <use xlink:href="#BitstreamVeraSans-Roman-4e"/>
       <use x="74.8046875" xlink:href="#BitstreamVeraSans-Roman-6f"/>
       <use x="135.986328125" xlink:href="#BitstreamVeraSans-Roman-76"/>
       <use x="195.166015625" xlink:href="#BitstreamVeraSans-Roman-20"/>
       <use x="226.953125" xlink:href="#BitstreamVeraSans-Roman-30"/>
       <use x="290.576171875" xlink:href="#BitstreamVeraSans-Roman-33"/>
       <use x="354.19921875" xlink:href="#BitstreamVeraSans-Roman-20"/>
       <use x="385.986328125" xlink:href="#BitstreamVeraSans-Roman-32"/>
       <use x="449.609375" xlink:href="#BitstreamVeraSans-Roman-30"/>
       <use x="513.232421875" xlink:href="#BitstreamVeraSans-Roman-31"/>
       <use x="576.85546875" xlink:href="#BitstreamVeraSans-Roman-35"/>
      </g>
     </g>
    </g>
   </g>
   <g id="matplotlib.axis_2">
    <g id="ytick_1">
     <g id="line2d_19">
      <defs>
       <path d="
M0 0
L4 0" id="m728421d6d4" style="stroke:#000000;stroke-width:0.5;"/>
      </defs>
      <g>
       <use style="stroke:#000000;stroke-width:0.5;" x="72.0" xlink:href="#m728421d6d4" y="308.878749276"/>
      </g>
     </g>
     <g id="line2d_20">
      <defs>
       <path d="
M0 0
L-4 0" id="mcb0005524f" style="stroke:#000000;stroke-width:0.5;"/>
      </defs>
      <g>
       <use style="stroke:#000000;stroke-width:0.5;" x="518.4" xlink:href="#mcb0005524f" y="308.878749276"/>
      </g>
     </g>
     <g id="text_9">
      <!-- 500 -->
      <g transform="translate(46.818125 312.189999276)scale(0.12 -0.12)">
       <use xlink:href="#BitstreamVeraSans-Roman-35"/>
       <use x="63.623046875" xlink:href="#BitstreamVeraSans-Roman-30"/>
       <use x="127.24609375" xlink:href="#BitstreamVeraSans-Roman-30"/>
      </g>
     </g>
    </g>
    <g id="ytick_2">
     <g id="line2d_21">
      <g>
       <use style="stroke:#000000;stroke-width:0.5;" x="72.0" xlink:href="#m728421d6d4" y="258.849797336"/>
      </g>
     </g>
     <g id="line2d_22">
      <g>
       <use style="stroke:#000000;stroke-width:0.5;" x="518.4" xlink:href="#mcb0005524f" y="258.849797336"/>
      </g>
     </g>
     <g id="text_10">
      <!-- 1000 -->
      <g transform="translate(39.575 262.161047336)scale(0.12 -0.12)">
       <use xlink:href="#BitstreamVeraSans-Roman-31"/>
       <use x="63.623046875" xlink:href="#BitstreamVeraSans-Roman-30"/>
       <use x="127.24609375" xlink:href="#BitstreamVeraSans-Roman-30"/>
       <use x="190.869140625" xlink:href="#BitstreamVeraSans-Roman-30"/>
      </g>
     </g>
    </g>
    <g id="ytick_3">
     <g id="line2d_23">
      <g>
       <use style="stroke:#000000;stroke-width:0.5;" x="72.0" xlink:href="#m728421d6d4" y="208.820845397"/>
      </g>
     </g>
     <g id="line2d_24">
      <g>
       <use style="stroke:#000000;stroke-width:0.5;" x="518.4" xlink:href="#mcb0005524f" y="208.820845397"/>
      </g>
     </g>
     <g id="text_11">
      <!-- 1500 -->
      <g transform="translate(39.575 212.132095397)scale(0.12 -0.12)">
       <use xlink:href="#BitstreamVeraSans-Roman-31"/>
       <use x="63.623046875" xlink:href="#BitstreamVeraSans-Roman-35"/>
       <use x="127.24609375" xlink:href="#BitstreamVeraSans-Roman-30"/>
       <use x="190.869140625" xlink:href="#BitstreamVeraSans-Roman-30"/>
      </g>
     </g>
    </g>
    <g id="ytick_4">
     <g id="line2d_25">
      <g>
       <use style="stroke:#000000;stroke-width:0.5;" x="72.0" xlink:href="#m728421d6d4" y="158.791893457"/>
      </g>
     </g>
     <g id="line2d_26">
      <g>
       <use style="stroke:#000000;stroke-width:0.5;" x="518.4" xlink:href="#mcb0005524f" y="158.791893457"/>
      </g>
     </g>
     <g id="text_12">
      <!-- 2000 -->
      <g transform="translate(39.13625 162.103143457)scale(0.12 -0.12)">
       <use xlink:href="#BitstreamVeraSans-Roman-32"/>
       <use x="63.623046875" xlink:href="#BitstreamVeraSans-Roman-30"/>
       <use x="127.24609375" xlink:href="#BitstreamVeraSans-Roman-30"/>
       <use x="190.869140625" xlink:href="#BitstreamVeraSans-Roman-30"/>
      </g>
     </g>
    </g>
    <g id="ytick_5">
     <g id="line2d_27">
      <g>
       <use style="stroke:#000000;stroke-width:0.5;" x="72.0" xlink:href="#m728421d6d4" y="108.762941517"/>
      </g>
     </g>
     <g id="line2d_28">
      <g>
       <use style="stroke:#000000;stroke-width:0.5;" x="518.4" xlink:href="#mcb0005524f" y="108.762941517"/>
      </g>
     </g>
     <g id="text_13">
      <!-- 2500 -->
      <g transform="translate(39.13625 112.074191517)scale(0.12 -0.12)">
       <use xlink:href="#BitstreamVeraSans-Roman-32"/>
       <use x="63.623046875" xlink:href="#BitstreamVeraSans-Roman-35"/>
       <use x="127.24609375" xlink:href="#BitstreamVeraSans-Roman-30"/>
       <use x="190.869140625" xlink:href="#BitstreamVeraSans-Roman-30"/>
      </g>
     </g>
    </g>
    <g id="ytick_6">
     <g id="line2d_29">
      <g>
       <use style="stroke:#000000;stroke-width:0.5;" x="72.0" xlink:href="#m728421d6d4" y="58.7339895773"/>
      </g>
     </g>
     <g id="line2d_30">
      <g>
       <use style="stroke:#000000;stroke-width:0.5;" x="518.4" xlink:href="#mcb0005524f" y="58.7339895773"/>
      </g>
     </g>
     <g id="text_14">
      <!-- 3000 -->
      <g transform="translate(39.171875 62.0452395773)scale(0.12 -0.12)">
       <use xlink:href="#BitstreamVeraSans-Roman-33"/>
       <use x="63.623046875" xlink:href="#BitstreamVeraSans-Roman-30"/>
       <use x="127.24609375" xlink:href="#BitstreamVeraSans-Roman-30"/>
       <use x="190.869140625" xlink:href="#BitstreamVeraSans-Roman-30"/>
      </g>
     </g>
    </g>
   </g>
   <g id="text_15">
    <!-- Lehm -->
    <defs>
     <path d="
M56.2031 29.5938
L56.2031 25.2031
L14.8906 25.2031
Q15.4844 15.9219 20.4844 11.0625
Q25.4844 6.20312 34.4219 6.20312
Q39.5938 6.20312 44.4531 7.46875
Q49.3125 8.73438 54.1094 11.2812
L54.1094 2.78125
Q49.2656 0.734375 44.1875 -0.34375
Q39.1094 -1.42188 33.8906 -1.42188
Q20.7969 -1.42188 13.1562 6.1875
Q5.51562 13.8125 5.51562 26.8125
Q5.51562 40.2344 12.7656 48.1094
Q20.0156 56 32.3281 56
Q43.3594 56 49.7812 48.8906
Q56.2031 41.7969 56.2031 29.5938
M47.2188 32.2344
Q47.125 39.5938 43.0938 43.9844
Q39.0625 48.3906 32.4219 48.3906
Q24.9062 48.3906 20.3906 44.1406
Q15.875 39.8906 15.1875 32.1719
z
" id="BitstreamVeraSans-Roman-65"/>
     <path d="
M52 44.1875
Q55.375 50.25 60.0625 53.125
Q64.75 56 71.0938 56
Q79.6406 56 84.2812 50.0156
Q88.9219 44.0469 88.9219 33.0156
L88.9219 0
L79.8906 0
L79.8906 32.7188
Q79.8906 40.5781 77.0938 44.375
Q74.3125 48.1875 68.6094 48.1875
Q61.625 48.1875 57.5625 43.5469
Q53.5156 38.9219 53.5156 30.9062
L53.5156 0
L44.4844 0
L44.4844 32.7188
Q44.4844 40.625 41.7031 44.4062
Q38.9219 48.1875 33.1094 48.1875
Q26.2188 48.1875 22.1562 43.5312
Q18.1094 38.875 18.1094 30.9062
L18.1094 0
L9.07812 0
L9.07812 54.6875
L18.1094 54.6875
L18.1094 46.1875
Q21.1875 51.2188 25.4844 53.6094
Q29.7812 56 35.6875 56
Q41.6562 56 45.8281 52.9688
Q50 49.9531 52 44.1875" id="BitstreamVeraSans-Roman-6d"/>
     <path d="
M9.8125 72.9062
L19.6719 72.9062
L19.6719 8.29688
L55.1719 8.29688
L55.1719 0
L9.8125 0
z
" id="BitstreamVeraSans-Roman-4c"/>
     <path d="
M54.8906 33.0156
L54.8906 0
L45.9062 0
L45.9062 32.7188
Q45.9062 40.4844 42.875 44.3281
Q39.8438 48.1875 33.7969 48.1875
Q26.5156 48.1875 22.3125 43.5469
Q18.1094 38.9219 18.1094 30.9062
L18.1094 0
L9.07812 0
L9.07812 75.9844
L18.1094 75.9844
L18.1094 46.1875
Q21.3438 51.125 25.7031 53.5625
Q30.0781 56 35.7969 56
Q45.2188 56 50.0469 50.1719
Q54.8906 44.3438 54.8906 33.0156" id="BitstreamVeraSans-Roman-68"/>
    </defs>
    <g transform="translate(481.25025 38.2)scale(0.144 -0.144)">
     <use xlink:href="#BitstreamVeraSans-Roman-4c"/>
     <use x="53.962890625" xlink:href="#BitstreamVeraSans-Roman-65"/>
     <use x="115.486328125" xlink:href="#BitstreamVeraSans-Roman-68"/>
     <use x="178.865234375" xlink:href="#BitstreamVeraSans-Roman-6d"/>
    </g>
   </g>
   <g id="legend_1">
    <g id="patch_7">
     <path d="
M123.942 423.616
L466.458 423.616
L466.458 398.16
L123.942 398.16
z
" style="fill:#ffffff;stroke:#000000;stroke-linejoin:miter;"/>
    </g>
    <g id="line2d_31">
     <path d="
M134.022 409.822
L154.182 409.822" style="fill:none;stroke:#ff0000;stroke-linecap:square;"/>
    </g>
    <g id="line2d_32"/>
    <g id="text_16">
     <!-- Schwarzmarktpreis -->
     <defs>
      <path d="
M34.2812 27.4844
Q23.3906 27.4844 19.1875 25
Q14.9844 22.5156 14.9844 16.5
Q14.9844 11.7188 18.1406 8.90625
Q21.2969 6.10938 26.7031 6.10938
Q34.1875 6.10938 38.7031 11.4062
Q43.2188 16.7031 43.2188 25.4844
L43.2188 27.4844
z

M52.2031 31.2031
L52.2031 0
L43.2188 0
L43.2188 8.29688
Q40.1406 3.32812 35.5469 0.953125
Q30.9531 -1.42188 24.3125 -1.42188
Q15.9219 -1.42188 10.9531 3.29688
Q6 8.01562 6 15.9219
Q6 25.1406 12.1719 29.8281
Q18.3594 34.5156 30.6094 34.5156
L43.2188 34.5156
L43.2188 35.4062
Q43.2188 41.6094 39.1406 45
Q35.0625 48.3906 27.6875 48.3906
Q23 48.3906 18.5469 47.2656
Q14.1094 46.1406 10.0156 43.8906
L10.0156 52.2031
Q14.9375 54.1094 19.5781 55.0469
Q24.2188 56 28.6094 56
Q40.4844 56 46.3438 49.8438
Q52.2031 43.7031 52.2031 31.2031" id="BitstreamVeraSans-Roman-61"/>
      <path d="
M9.07812 75.9844
L18.1094 75.9844
L18.1094 31.1094
L44.9219 54.6875
L56.3906 54.6875
L27.3906 29.1094
L57.625 0
L45.9062 0
L18.1094 26.7031
L18.1094 0
L9.07812 0
z
" id="BitstreamVeraSans-Roman-6b"/>
      <path d="
M53.5156 70.5156
L53.5156 60.8906
Q47.9062 63.5781 42.9219 64.8906
Q37.9375 66.2188 33.2969 66.2188
Q25.25 66.2188 20.875 63.0938
Q16.5 59.9688 16.5 54.2031
Q16.5 49.3594 19.4062 46.8906
Q22.3125 44.4375 30.4219 42.9219
L36.375 41.7031
Q47.4062 39.5938 52.6562 34.2969
Q57.9062 29 57.9062 20.125
Q57.9062 9.51562 50.7969 4.04688
Q43.7031 -1.42188 29.9844 -1.42188
Q24.8125 -1.42188 18.9688 -0.25
Q13.1406 0.921875 6.89062 3.21875
L6.89062 13.375
Q12.8906 10.0156 18.6562 8.29688
Q24.4219 6.59375 29.9844 6.59375
Q38.4219 6.59375 43.0156 9.90625
Q47.6094 13.2344 47.6094 19.3906
Q47.6094 24.75 44.3125 27.7812
Q41.0156 30.8125 33.5 32.3281
L27.4844 33.5
Q16.4531 35.6875 11.5156 40.375
Q6.59375 45.0625 6.59375 53.4219
Q6.59375 63.0938 13.4062 68.6562
Q20.2188 74.2188 32.1719 74.2188
Q37.3125 74.2188 42.625 73.2812
Q47.9531 72.3594 53.5156 70.5156" id="BitstreamVeraSans-Roman-53"/>
      <path d="
M9.42188 54.6875
L18.4062 54.6875
L18.4062 0
L9.42188 0
z

M9.42188 75.9844
L18.4062 75.9844
L18.4062 64.5938
L9.42188 64.5938
z
" id="BitstreamVeraSans-Roman-69"/>
      <path d="
M4.20312 54.6875
L13.1875 54.6875
L24.4219 12.0156
L35.5938 54.6875
L46.1875 54.6875
L57.4219 12.0156
L68.6094 54.6875
L77.5938 54.6875
L63.2812 0
L52.6875 0
L40.9219 44.8281
L29.1094 0
L18.5 0
z
" id="BitstreamVeraSans-Roman-77"/>
      <path d="
M5.51562 54.6875
L48.1875 54.6875
L48.1875 46.4844
L14.4062 7.17188
L48.1875 7.17188
L48.1875 0
L4.29688 0
L4.29688 8.20312
L38.0938 47.5156
L5.51562 47.5156
z
" id="BitstreamVeraSans-Roman-7a"/>
      <path d="
M41.1094 46.2969
Q39.5938 47.1719 37.8125 47.5781
Q36.0312 48 33.8906 48
Q26.2656 48 22.1875 43.0469
Q18.1094 38.0938 18.1094 28.8125
L18.1094 0
L9.07812 0
L9.07812 54.6875
L18.1094 54.6875
L18.1094 46.1875
Q20.9531 51.1719 25.4844 53.5781
Q30.0312 56 36.5312 56
Q37.4531 56 38.5781 55.875
Q39.7031 55.7656 41.0625 55.5156
z
" id="BitstreamVeraSans-Roman-72"/>
      <path d="
M44.2812 53.0781
L44.2812 44.5781
Q40.4844 46.5312 36.375 47.5
Q32.2812 48.4844 27.875 48.4844
Q21.1875 48.4844 17.8438 46.4375
Q14.5 44.3906 14.5 40.2812
Q14.5 37.1562 16.8906 35.375
Q19.2812 33.5938 26.5156 31.9844
L29.5938 31.2969
Q39.1562 29.25 43.1875 25.5156
Q47.2188 21.7812 47.2188 15.0938
Q47.2188 7.46875 41.1875 3.01562
Q35.1562 -1.42188 24.6094 -1.42188
Q20.2188 -1.42188 15.4531 -0.5625
Q10.6875 0.296875 5.42188 2
L5.42188 11.2812
Q10.4062 8.6875 15.2344 7.39062
Q20.0625 6.10938 24.8125 6.10938
Q31.1562 6.10938 34.5625 8.28125
Q37.9844 10.4531 37.9844 14.4062
Q37.9844 18.0625 35.5156 20.0156
Q33.0625 21.9688 24.7031 23.7812
L21.5781 24.5156
Q13.2344 26.2656 9.51562 29.9062
Q5.8125 33.5469 5.8125 39.8906
Q5.8125 47.6094 11.2812 51.7969
Q16.75 56 26.8125 56
Q31.7812 56 36.1719 55.2656
Q40.5781 54.5469 44.2812 53.0781" id="BitstreamVeraSans-Roman-73"/>
      <path d="
M18.1094 8.20312
L18.1094 -20.7969
L9.07812 -20.7969
L9.07812 54.6875
L18.1094 54.6875
L18.1094 46.3906
Q20.9531 51.2656 25.2656 53.625
Q29.5938 56 35.5938 56
Q45.5625 56 51.7812 48.0938
Q58.0156 40.1875 58.0156 27.2969
Q58.0156 14.4062 51.7812 6.48438
Q45.5625 -1.42188 35.5938 -1.42188
Q29.5938 -1.42188 25.2656 0.953125
Q20.9531 3.32812 18.1094 8.20312
M48.6875 27.2969
Q48.6875 37.2031 44.6094 42.8438
Q40.5312 48.4844 33.4062 48.4844
Q26.2656 48.4844 22.1875 42.8438
Q18.1094 37.2031 18.1094 27.2969
Q18.1094 17.3906 22.1875 11.75
Q26.2656 6.10938 33.4062 6.10938
Q40.5312 6.10938 44.6094 11.75
Q48.6875 17.3906 48.6875 27.2969" id="BitstreamVeraSans-Roman-70"/>
     </defs>
     <g transform="translate(170.022375 414.86175)scale(0.144 -0.144)">
      <use xlink:href="#BitstreamVeraSans-Roman-53"/>
      <use x="63.4765625" xlink:href="#BitstreamVeraSans-Roman-63"/>
      <use x="118.45703125" xlink:href="#BitstreamVeraSans-Roman-68"/>
      <use x="181.8359375" xlink:href="#BitstreamVeraSans-Roman-77"/>
      <use x="263.623046875" xlink:href="#BitstreamVeraSans-Roman-61"/>
      <use x="324.90234375" xlink:href="#BitstreamVeraSans-Roman-72"/>
      <use x="366.015625" xlink:href="#BitstreamVeraSans-Roman-7a"/>
      <use x="418.505859375" xlink:href="#BitstreamVeraSans-Roman-6d"/>
      <use x="515.91796875" xlink:href="#BitstreamVeraSans-Roman-61"/>
      <use x="577.197265625" xlink:href="#BitstreamVeraSans-Roman-72"/>
      <use x="618.310546875" xlink:href="#BitstreamVeraSans-Roman-6b"/>
      <use x="676.220703125" xlink:href="#BitstreamVeraSans-Roman-74"/>
      <use x="715.4296875" xlink:href="#BitstreamVeraSans-Roman-70"/>
      <use x="778.90625" xlink:href="#BitstreamVeraSans-Roman-72"/>
      <use x="817.76953125" xlink:href="#BitstreamVeraSans-Roman-65"/>
      <use x="879.29296875" xlink:href="#BitstreamVeraSans-Roman-69"/>
      <use x="907.076171875" xlink:href="#BitstreamVeraSans-Roman-73"/>
     </g>
    </g>
    <g id="line2d_33">
     <path d="
M339.609 409.822
L359.769 409.822" style="fill:none;stroke:#008000;stroke-linecap:square;"/>
    </g>
    <g id="line2d_34"/>
    <g id="text_17">
     <!-- Normalpreis -->
     <defs>
      <path d="
M9.42188 75.9844
L18.4062 75.9844
L18.4062 0
L9.42188 0
z
" id="BitstreamVeraSans-Roman-6c"/>
     </defs>
     <g transform="translate(375.609375 414.86175)scale(0.144 -0.144)">
      <use xlink:href="#BitstreamVeraSans-Roman-4e"/>
      <use x="74.8046875" xlink:href="#BitstreamVeraSans-Roman-6f"/>
      <use x="135.986328125" xlink:href="#BitstreamVeraSans-Roman-72"/>
      <use x="175.349609375" xlink:href="#BitstreamVeraSans-Roman-6d"/>
      <use x="272.76171875" xlink:href="#BitstreamVeraSans-Roman-61"/>
      <use x="334.041015625" xlink:href="#BitstreamVeraSans-Roman-6c"/>
      <use x="361.82421875" xlink:href="#BitstreamVeraSans-Roman-70"/>
      <use x="425.30078125" xlink:href="#BitstreamVeraSans-Roman-72"/>
      <use x="464.1640625" xlink:href="#BitstreamVeraSans-Roman-65"/>
      <use x="525.6875" xlink:href="#BitstreamVeraSans-Roman-69"/>
      <use x="553.470703125" xlink:href="#BitstreamVeraSans-Roman-73"/>
     </g>
    </g>
   </g>
  </g>
 </g>
 <defs>
  <clipPath id="pcb2bf987bf">
   <rect height="302.4" width="446.4" x="72.0" y="43.2"/>
  </clipPath>
 </defs>
</svg>
