<?xml version="1.0" encoding="utf-8" standalone="no"?>
<!DOCTYPE svg PUBLIC "-//W3C//DTD SVG 1.1//EN"
  "http://www.w3.org/Graphics/SVG/1.1/DTD/svg11.dtd">
<!-- Created with matplotlib (http://matplotlib.org/) -->
<svg height="432pt" version="1.1" viewBox="0 0 576 432" width="576pt" xmlns="http://www.w3.org/2000/svg" xmlns:xlink="http://www.w3.org/1999/xlink">
 <defs>
  <style type="text/css">
*{stroke-linecap:butt;stroke-linejoin:round;}
  </style>
 </defs>
 <g id="figure_1">
  <g id="patch_1">
   <path d="
M0 432
L576 432
L576 0
L0 0
z
" style="fill:#ffffff;"/>
  </g>
  <g id="axes_1">
   <g id="patch_2">
    <path d="
M72 345.6
L518.4 345.6
L518.4 43.2
L72 43.2
z
" style="fill:#ffffff;"/>
   </g>
   <g id="line2d_1">
    <path clip-path="url(#pcb2bf987bf)" d="
M72 215.305
L72.1276 245.224
L72.3828 244.227
L72.5105 251.208
L72.8933 228.769
L73.1485 253.701
L73.2762 247.717
L73.5314 253.701
L73.659 249.712
L74.0419 245.722
L74.2971 254.698
L74.4247 252.703
L74.6799 230.763
L74.8075 244.725
L75.1904 232.758
L75.4456 238.642
L75.5732 237.744
L75.8285 238.243
L75.9561 230.763
L76.3389 247.218
L76.5942 158.959
L76.7218 251.208
L76.9772 247.218
L77.3599 254.698
L78.2532 236.747
L78.5084 246.221
L78.636 243.728
L78.8915 243.728
L79.0189 243.229
L79.2741 231.262
L79.4017 187.382
L79.6569 180.899
L79.7846 250.21
L80.0398 223.284
L80.1674 224.78
L80.4226 245.722
L80.5503 245.124
L80.8055 240.736
L80.9331 251.208
L81.1885 251.706
L81.316 251.208
L81.5712 257.191
L81.6988 248.216
L82.0816 148.986
L82.3371 235.65
L82.4645 235.251
L83.1026 227.771
L83.2302 229.267
L83.4854 234.752
L83.8683 233.256
L83.9959 220.791
L84.3787 234.254
L84.6342 239.24
L85.017 222.785
L85.1444 224.78
L85.3999 216.303
L85.5273 217.3
L85.7825 243.13
L86.1654 240.237
L86.293 238.742
L86.5482 190.872
L86.6758 240.237
L86.931 246.72
L87.0587 245.722
L87.6967 227.771
L87.8244 253.202
L88.0796 247.717
L88.2072 177.409
L88.4624 259.684
L88.5901 250.709
L88.8453 241.733
L88.8453 241.733
L88.9729 257.69
L89.2281 258.687
L89.3557 258.687
L89.9938 246.72
L89.9938 246.72
L90.2491 248.714
L90.3767 247.019
L91.0148 251.208
L91.7804 236.747
L91.9081 237.246
L92.5461 237.744
L92.6738 235.75
L93.3118 244.127
L94.2051 227.273
L94.8432 253.701
L94.9708 252.205
L95.6089 257.69
L96.3746 231.761
L97.1403 257.191
L97.906 243.728
L98.0336 244.725
L98.6717 246.72
L98.7993 253.701
L99.4374 234.254
L100.203 255.197
L100.331 252.703
L100.969 195.36
L101.734 218.297
L101.862 227.771
L102.5 248.714
L103.393 233.256
L104.032 235.75
L104.797 250.609
L105.563 241.235
L106.329 245.722
L107.095 247.218
L107.86 241.733
L107.988 238.742
L108.626 251.208
L109.391 243.229
L109.519 244.725
L110.157 242.132
L110.285 250.21
L110.923 258.687
L111.05 249.712
L111.689 233.256
L111.816 238.243
L113.986 241.235
L114.879 227.771
L116.283 232.259
L116.41 229.766
L117.048 250.709
L117.942 244.227
L118.58 257.191
L118.707 255.695
L119.345 249.712
L120.111 257.191
L121.004 246.221
L121.643 239.24
L122.408 246.72
L122.536 241.634
L123.174 225.278
L124.067 240.237
L124.705 236.747
L125.471 243.728
L126.109 246.221
L126.365 227.771
L127.002 227.273
L127.13 256.693
L127.13 256.693
L127.768 247.218
L128.534 252.703
L128.661 250.709
L129.299 232.758
L130.193 252.703
L130.831 243.229
L131.597 204.834
L132.362 230.763
L133.894 233.755
L134.149 247.218
L134.659 238.742
L135.425 232.758
L136.191 257.191
L136.318 255.596
L136.956 235.251
L137.722 247.218
L138.488 240.237
L139.254 248.814
L139.381 246.72
L140.019 242.731
L140.785 240.736
L141.678 214.308
L142.316 241.733
L143.082 235.65
L143.848 253.701
L143.975 248.714
L144.613 257.69
L145.379 244.725
L145.507 245.722
L146.145 243.229
L146.272 240.736
L147.038 221.788
L147.676 249.712
L148.442 228.769
L149.208 253.202
L149.335 253.202
L150.739 249.712
L150.867 252.205
L151.505 247.717
L152.27 244.725
L153.036 240.736
L153.164 228.27
L153.802 235.75
L154.567 242.731
L155.333 244.725
L155.333 244.725
L156.099 220.292
L156.865 235.75
L157.758 227.273
L158.396 230.763
L159.162 231.262
L160.693 241.733
L160.821 227.771
L162.224 248.216
L162.99 237.246
L163.118 240.736
L163.883 223.782
L164.521 252.205
L164.649 252.703
L165.287 247.218
L166.819 250.21
L167.584 248.216
L167.712 237.246
L168.35 245.224
L169.116 237.246
L169.243 228.769
L169.881 247.717
L170.647 252.205
L170.775 249.712
L171.413 242.232
L172.178 238.243
L172.944 252.604
L173.072 248.714
L173.71 245.224
L174.475 248.216
L174.603 239.739
L176.007 239.24
L176.773 238.742
L176.9 238.243
L177.538 244.227
L178.304 247.717
L179.07 238.243
L179.835 242.232
L179.963 238.243
L180.729 223.284
L181.367 245.224
L182.132 222.286
L182.26 242.232
L182.898 228.27
L183.664 248.116
L183.791 244.227
L184.43 255.596
L185.195 251.706
L185.961 229.766
L186.727 245.224
L187.492 248.714
L188.258 242.731
L189.024 222.286
L189.151 241.733
L190.555 249.213
L192.852 240.237
L193.618 228.769
L194.384 234.752
L195.149 234.254
L195.277 234.752
L195.915 228.769
L196.681 238.742
L198.212 238.243
L198.212 238.243
L198.978 246.72
L200.509 241.235
L201.275 249.213
L202.04 238.742
L202.806 240.237
L203.699 233.256
L204.338 243.728
L205.103 243.728
L205.231 234.752
L205.869 241.733
L206.124 229.766
L206.635 224.78
L206.635 224.78
L206.762 230.763
L207.4 247.218
L207.911 244.227
L208.166 240.636
L208.804 236.747
L209.059 247.218
L209.059 247.218
L209.442 247.218
L209.57 245.722
L209.825 250.709
L210.591 249.213
L210.846 237.744
L211.356 234.254
L211.484 234.752
L211.739 233.256
L211.867 231.262
L212.122 234.254
L212.25 231.761
L212.633 228.27
L212.888 233.256
L213.271 228.769
L213.398 246.72
L213.654 245.224
L213.654 245.224
L213.781 245.224
L214.036 249.213
L214.419 247.717
L214.547 246.72
L214.802 245.722
L214.93 246.72
L215.185 243.229
L215.185 243.229
L215.313 249.213
L215.695 245.124
L215.951 238.742
L215.951 238.742
L216.078 239.24
L216.333 258.687
L216.589 253.202
L216.589 253.202
L216.844 249.712
L217.099 225.278
L217.227 198.352
L217.482 247.218
L217.482 247.218
L217.61 247.218
L217.865 256.693
L218.248 249.213
L218.248 249.213
L218.375 249.213
L218.631 243.229
L218.758 236.248
L219.141 229.766
L219.396 238.742
L219.907 250.709
L220.29 252.703
L220.29 252.703
L220.417 252.703
L220.545 252.205
L220.672 224.78
L220.672 224.78
L220.928 252.703
L221.055 243.728
L221.31 243.728
L221.438 238.742
L221.693 244.725
L222.076 246.221
L222.204 254.698
L222.459 253.202
L222.842 241.235
L222.842 241.235
L223.225 247.717
L223.352 246.221
L223.608 147.989
L223.735 241.733
L224.118 221.788
L224.373 215.305
L224.501 233.755
L224.756 225.777
L224.884 239.24
L225.139 214.807
L225.267 213.311
L225.522 235.251
L225.777 231.761
L225.777 231.761
L225.905 231.262
L225.905 231.262
L226.032 233.256
L226.032 233.256
L226.288 222.286
L226.415 220.791
L226.415 220.791
L226.67 215.704
L226.798 215.804
L227.053 217.3
L227.436 240.237
L227.436 240.237
L227.946 222.286
L228.202 246.72
L228.329 247.717
L228.967 240.736
L229.095 232.259
L229.35 244.725
L229.478 228.769
L229.733 225.278
L229.861 225.577
L230.244 220.292
L230.499 223.284
L230.499 223.284
L230.882 215.804
L231.009 216.303
L231.264 216.303
L231.264 216.303
L231.392 235.75
L231.647 234.254
L231.775 234.254
L232.03 232.259
L232.158 230.265
L232.541 228.769
L232.796 223.782
L232.796 223.782
L232.924 212.812
L233.306 248.714
L233.562 248.216
L233.689 244.227
L234.072 239.739
L234.327 239.24
L234.327 239.24
L234.455 241.235
L234.71 247.218
L234.838 221.788
L235.093 246.72
L235.093 246.72
L235.221 244.227
L235.476 220.791
L235.603 221.289
L235.859 220.292
L235.859 220.292
L235.986 238.742
L236.242 252.703
L236.369 251.706
L236.752 245.722
L237.007 246.221
L237.135 234.752
L237.39 226.774
L237.773 247.218
L237.901 243.229
L238.156 241.733
L238.283 239.24
L238.539 239.24
L238.666 234.752
L239.049 229.267
L239.304 225.777
L239.432 211.316
L239.687 243.229
L239.815 238.243
L240.07 238.742
L240.198 247.717
L240.453 247.717
L240.453 247.717
L240.58 244.725
L240.836 242.731
L240.963 246.221
L241.346 226.774
L241.601 244.725
L241.729 243.229
L241.984 232.758
L242.112 253.701
L242.367 238.742
L242.495 248.714
L242.878 242.731
L243.133 253.202
L243.26 248.216
L243.643 241.733
L243.898 241.733
L244.026 238.742
L244.281 236.248
L244.409 233.256
L244.664 232.259
L244.792 220.791
L245.047 228.769
L245.047 228.769
L245.43 218.796
L245.557 248.714
L245.813 228.769
L245.94 235.75
L246.196 234.254
L246.323 228.27
L246.578 250.908
L246.578 250.908
L246.706 250.21
L246.961 241.733
L247.089 241.733
L247.344 238.742
L247.727 244.227
L247.855 228.769
L248.237 247.717
L248.493 245.722
L248.62 243.728
L249.003 229.766
L249.258 227.273
L249.641 224.78
L249.641 224.78
L249.769 221.788
L250.152 224.78
L250.534 241.235
L250.79 242.731
L250.917 241.733
L251.173 242.731
L251.3 238.742
L251.555 247.717
L251.683 194.363
L251.938 244.725
L252.066 244.227
L252.321 230.265
L252.704 248.714
L252.832 246.72
L253.087 246.221
L253.214 244.227
L253.47 205.333
L253.597 240.736
L253.852 236.248
L253.98 230.265
L254.235 249.712
L254.363 250.21
L254.618 248.216
L254.746 248.216
L254.746 248.216
L255.001 250.21
L255.129 207.327
L255.129 207.327
L255.384 247.717
L255.511 247.518
L255.511 247.518
L255.894 242.232
L256.277 251.706
L256.532 245.224
L256.66 228.769
L256.66 228.769
L256.915 228.769
L257.043 243.229
L257.298 240.636
L257.426 240.736
L257.681 242.232
L257.809 252.205
L258.064 247.717
L258.064 247.717
L258.447 228.27
L258.574 236.248
L258.83 225.777
L258.957 235.75
L259.212 241.733
L259.212 241.733
L259.34 240.237
L259.595 239.739
L259.595 239.739
L259.723 238.742
L260.106 229.267
L260.361 230.065
L260.489 147.989
L260.744 223.284
L260.871 225.278
L261.127 235.75
L261.254 232.758
L261.509 236.747
L261.892 221.289
L262.02 229.766
L262.275 227.771
L262.403 225.278
L262.658 230.763
L263.168 225.278
L263.424 227.771
L263.424 227.771
L263.551 254.698
L263.807 236.248
L263.934 245.722
L264.189 219.295
L264.189 219.295
L264.317 245.224
L264.572 198.352
L264.7 242.731
L264.955 246.72
L264.955 246.72
L265.083 255.197
L265.593 234.752
L266.231 230.265
L266.614 228.769
L266.869 230.763
L266.997 227.771
L267.252 225.278
L267.38 227.871
L267.763 224.281
L268.018 225.777
L268.401 220.292
L268.528 220.292
L268.784 219.295
L268.911 221.788
L269.166 207.826
L269.677 252.703
L270.698 239.24
L270.825 240.736
L271.081 246.221
L271.463 246.221
L271.846 245.722
L271.974 245.224
L272.229 241.733
L272.357 192.867
L272.612 273.646
L272.74 240.237
L272.995 235.75
L273.122 238.742
L273.378 239.739
L273.506 239.739
L273.761 238.742
L273.888 240.736
L274.143 220.791
L274.271 225.278
L274.526 226.276
L274.654 224.281
L274.909 228.27
L274.909 228.27
L275.037 272.051
L275.292 248.714
L275.675 250.21
L276.058 243.229
L276.185 222.286
L276.441 221.289
L276.823 247.218
L277.334 243.229
L277.717 233.755
L277.972 188.878
L277.972 188.878
L278.099 223.782
L278.355 249.213
L278.482 246.221
L278.738 237.246
L278.865 237.744
L279.12 237.246
L279.503 246.72
L279.631 245.722
L279.886 234.254
L280.014 246.221
L280.269 244.725
L280.269 244.725
L280.397 245.224
L280.652 226.276
L280.779 251.706
L281.162 238.243
L281.417 237.046
L281.801 240.237
L282.566 257.69
L282.694 254.199
L282.949 251.208
L283.077 255.695
L283.459 244.227
L283.842 223.782
L284.097 253.9
L284.225 246.62
L284.736 243.229
L285.246 236.747
L285.374 237.246
L285.629 191.371
L285.756 189.875
L286.012 234.653
L286.139 232.658
L286.395 223.284
L286.522 223.284
L286.777 227.273
L287.16 223.782
L287.288 225.278
L287.543 230.165
L287.671 225.278
L287.926 221.289
L288.054 230.265
L288.309 223.284
L288.437 229.267
L288.692 231.761
L288.819 230.265
L289.074 223.782
L289.202 229.267
L289.457 247.717
L289.585 247.218
L289.84 248.714
L289.968 198.85
L290.223 242.232
L290.351 244.227
L290.606 254.698
L290.733 249.213
L290.861 249.712
L290.989 201.842
L291.116 245.722
L291.372 248.216
L291.499 246.72
L291.754 247.218
L292.265 242.731
L292.52 236.248
L292.52 236.248
L292.648 236.747
L293.031 247.218
L293.286 245.224
L293.286 245.224
L293.413 232.758
L293.669 243.229
L293.669 243.229
L293.796 241.733
L294.051 233.755
L294.051 233.755
L294.179 246.72
L294.434 240.237
L294.562 186.883
L294.817 237.246
L294.817 237.246
L294.945 223.284
L295.2 237.246
L295.583 233.256
L295.71 234.752
L295.966 99.1224
L296.349 222.286
L296.476 218.796
L296.859 243.229
L297.242 247.218
L297.625 237.246
L297.88 241.733
L298.263 238.742
L298.39 228.27
L298.646 228.769
L298.773 231.262
L299.028 246.221
L299.156 240.237
L299.411 242.232
L299.539 239.24
L299.794 239.739
L299.922 226.276
L300.177 230.265
L300.177 230.265
L300.305 241.235
L300.687 213.81
L301.07 236.747
L301.326 246.221
L301.453 245.722
L301.708 240.237
L301.836 247.218
L302.091 234.254
L302.219 252.205
L302.857 239.739
L302.985 212.812
L303.112 213.311
L303.368 246.72
L304.005 239.739
L304.005 239.739
L304.133 237.744
L304.388 236.647
L304.899 219.295
L305.154 217.3
L305.282 215.305
L305.537 236.647
L305.664 236.647
L305.92 234.752
L306.047 213.81
L306.303 208.823
L306.43 238.243
L306.685 219.295
L306.813 231.262
L307.068 232.758
L307.068 232.758
L307.196 246.72
L307.451 246.72
L307.579 238.742
L307.962 252.205
L308.344 242.232
L308.6 241.733
L308.6 241.733
L308.727 240.736
L309.365 229.267
L309.493 231.262
L309.748 218.297
L309.876 228.769
L310.131 224.78
L310.131 224.78
L310.259 220.791
L310.514 235.75
L310.642 231.761
L311.024 252.703
L311.407 235.251
L311.662 229.766
L311.79 223.782
L312.045 218.297
L312.173 236.747
L312.428 234.752
L312.556 234.752
L312.811 234.254
L312.939 232.259
L313.321 245.224
L313.577 240.237
L313.704 198.85
L313.96 240.237
L314.087 238.742
L314.342 198.85
L314.47 237.744
L314.725 248.216
L314.853 248.615
L315.108 240.736
L315.236 233.256
L315.491 240.237
L315.619 247.717
L315.874 237.246
L316.257 246.72
L316.384 244.227
L316.767 247.218
L317.022 243.728
L317.15 222.785
L317.405 244.227
L317.788 238.742
L317.916 233.755
L318.171 245.623
L318.298 240.736
L318.554 223.284
L318.554 223.284
L318.681 161.452
L319.064 239.739
L319.319 246.221
L319.447 241.235
L319.702 226.276
L319.83 239.24
L320.085 227.771
L320.213 227.273
L320.596 246.121
L320.851 246.221
L320.851 246.221
L321.234 245.722
L321.616 240.138
L321.999 238.243
L322.127 235.75
L322.765 237.744
L322.893 239.24
L323.148 248.216
L323.275 246.72
L323.531 246.72
L324.041 239.739
L324.296 227.771
L324.424 227.273
L324.807 218.796
L325.062 195.36
L325.445 243.728
L325.573 241.733
L325.828 234.752
L325.956 240.237
L326.211 241.235
L326.593 235.75
L326.721 243.728
L326.976 241.235
L327.104 248.216
L327.359 245.224
L327.487 245.722
L327.742 239.739
L327.87 247.617
L328.125 255.197
L328.252 212.812
L328.508 244.725
L328.635 242.731
L328.891 233.256
L329.018 233.755
L329.401 246.72
L329.656 243.229
L329.784 245.224
L330.039 244.227
L330.167 244.227
L330.422 242.232
L330.55 247.218
L330.805 242.731
L330.933 245.722
L331.188 248.714
L331.315 237.744
L331.57 253.202
L331.698 253.202
L331.953 248.216
L332.081 248.714
L332.336 244.227
L332.464 249.113
L332.719 253.202
L332.847 238.243
L333.102 246.72
L333.485 242.731
L333.612 244.725
L333.868 244.227
L333.995 240.736
L334.25 241.235
L334.378 240.736
L334.633 232.758
L334.761 238.243
L335.016 230.763
L335.144 235.251
L335.399 224.78
L335.527 242.232
L335.782 245.722
L335.909 243.728
L336.165 247.717
L336.292 242.232
L336.675 247.218
L336.93 248.216
L337.058 250.709
L337.313 239.739
L337.441 239.24
L337.696 248.714
L337.824 245.722
L338.079 245.722
L338.207 243.229
L338.589 229.267
L338.845 250.21
L338.972 247.717
L339.227 150.981
L339.355 238.243
L339.61 234.752
L339.738 239.24
L339.866 232.259
L340.121 233.256
L340.376 233.256
L340.504 232.758
L340.886 224.78
L341.142 57.7353
L341.269 213.81
L341.525 212.812
L341.652 211.815
L341.907 210.718
L342.035 211.316
L342.29 218.796
L342.418 229.267
L342.673 229.267
L342.801 238.742
L343.056 238.243
L343.184 236.248
L343.439 223.284
L343.566 238.742
L343.822 248.216
L343.822 248.216
L343.949 247.717
L344.332 242.232
L344.588 250.21
L344.715 247.717
L344.97 253.202
L345.098 253.202
L345.481 246.72
L345.863 235.251
L346.119 234.752
L346.246 231.761
L346.502 237.246
L346.629 258.687
L346.884 236.747
L346.884 236.747
L347.012 258.687
L347.395 245.722
L347.65 238.742
L348.033 245.224
L348.161 258.587
L348.799 238.742
L348.926 251.706
L349.181 249.213
L349.309 245.224
L349.564 245.722
L349.947 233.256
L350.075 235.251
L350.33 237.246
L350.458 235.75
L350.713 236.248
L350.84 234.752
L351.096 247.218
L351.224 233.256
L351.606 244.227
L351.861 247.218
L351.989 243.628
L352.244 248.714
L352.372 258.188
L352.755 246.72
L353.01 247.119
L353.138 238.243
L353.393 237.246
L353.52 234.752
L353.776 202.341
L353.776 202.341
L354.158 240.038
L354.286 227.771
L354.541 238.243
L354.669 231.761
L354.924 238.742
L355.052 233.256
L355.307 228.27
L355.307 228.27
L355.435 240.237
L355.69 240.237
L355.817 236.747
L356.2 240.237
L356.838 226.774
L356.966 207.826
L357.221 230.763
L357.477 228.769
L357.732 228.769
L357.987 223.284
L358.115 224.281
L358.37 235.75
L358.37 235.75
L358.497 234.752
L358.753 248.216
L358.88 226.276
L359.136 80.1741
L359.263 220.292
L359.518 248.615
L359.646 246.72
L359.901 248.515
L360.029 237.744
L360.284 232.758
L360.412 248.216
L360.667 236.747
L360.795 244.725
L361.05 236.248
L361.177 237.246
L361.433 240.736
L361.56 247.717
L361.816 248.216
L361.943 246.221
L362.326 234.254
L362.709 252.205
L363.092 241.733
L363.347 248.714
L363.474 242.232
L363.73 221.289
L363.857 239.739
L364.113 243.628
L364.24 236.248
L364.495 241.434
L364.623 251.208
L364.878 249.213
L365.006 253.601
L365.389 249.712
L365.644 253.202
L365.772 232.758
L366.027 246.221
L366.027 246.221
L366.155 241.733
L366.41 241.235
L366.537 239.739
L366.792 235.251
L366.92 242.232
L367.175 244.227
L367.303 241.235
L367.686 245.224
L367.941 253.102
L368.069 250.709
L368.324 250.21
L368.451 248.714
L368.707 247.218
L369.09 242.731
L369.472 250.21
L369.6 249.213
L369.855 249.213
L369.983 248.714
L370.238 243.728
L370.366 249.213
L370.621 250.21
L370.749 230.763
L371.004 250.21
L371.131 247.218
L371.514 248.615
L371.769 181.897
L371.897 241.733
L372.152 243.728
L372.28 239.739
L372.663 244.725
L372.918 246.72
L373.428 230.763
L373.684 249.712
L373.684 249.712
L374.067 240.736
L374.194 248.216
L374.449 233.256
L374.577 248.216
L374.96 230.265
L375.215 235.75
L375.343 247.717
L375.598 249.213
L375.726 248.714
L375.981 247.218
L376.108 245.224
L376.491 241.733
L376.874 236.747
L377.129 235.75
L377.257 223.782
L377.512 232.259
L377.512 232.259
L377.64 231.761
L377.767 231.761
L378.023 198.85
L378.278 195.36
L378.405 229.267
L378.661 231.262
L378.788 229.766
L379.426 237.744
L379.554 223.284
L379.809 245.224
L380.192 237.246
L380.575 244.725
L380.703 236.747
L380.958 236.248
L381.086 246.72
L381.341 246.72
L381.468 251.108
L381.723 255.695
L382.234 255.695
L382.489 252.703
L382.617 246.72
L382.872 241.235
L383 242.232
L383.255 242.731
L383.383 241.733
L384.021 230.265
L384.148 223.782
L384.403 232.259
L384.531 228.27
L385.169 224.78
L385.297 225.278
L385.68 237.645
L385.935 246.221
L386.062 243.728
L386.318 255.197
L386.445 248.714
L386.701 248.714
L386.828 255.695
L387.211 248.714
L387.849 222.286
L387.977 220.292
L388.232 249.213
L388.232 249.213
L388.36 242.731
L388.615 246.72
L389.125 236.747
L389.38 248.216
L389.763 246.72
L389.891 247.218
L390.146 238.243
L390.274 248.216
L390.529 248.116
L390.657 236.747
L391.039 229.766
L391.422 221.289
L391.678 248.714
L391.805 219.793
L392.06 249.113
L392.188 243.728
L392.443 246.72
L392.571 255.197
L392.954 239.739
L393.209 244.227
L393.337 231.262
L393.592 246.72
L393.719 247.617
L393.975 244.227
L394.485 230.763
L394.74 226.276
L394.868 227.273
L395.123 226.276
L395.506 223.284
L395.634 224.78
L395.889 212.314
L396.399 249.113
L396.655 244.725
L396.782 245.124
L397.037 243.229
L397.165 233.755
L397.42 231.661
L397.548 249.113
L397.803 245.224
L397.931 247.717
L398.186 245.722
L398.314 243.229
L398.569 215.804
L398.696 248.216
L398.952 247.218
L399.079 248.216
L399.335 243.728
L399.462 254.698
L399.717 249.712
L399.845 219.295
L400.1 240.736
L400.228 239.739
L400.483 251.706
L400.611 238.742
L400.993 256.693
L401.249 248.216
L401.632 224.78
L401.759 233.755
L402.014 228.769
L402.142 237.744
L402.397 222.286
L402.525 231.761
L402.78 226.774
L403.163 242.232
L403.291 239.739
L403.546 238.243
L403.673 252.703
L403.929 251.208
L404.056 247.218
L404.311 243.728
L404.439 251.208
L404.694 250.21
L404.822 246.221
L405.205 243.229
L405.46 246.121
L405.588 244.227
L405.843 244.227
L406.353 240.237
L406.609 245.224
L406.736 243.728
L406.991 244.725
L407.374 240.237
L407.502 240.237
L407.757 243.229
L407.885 242.232
L408.268 227.771
L408.523 226.276
L408.65 234.254
L409.033 223.782
L409.289 250.21
L409.416 248.814
L409.799 241.235
L410.054 249.712
L410.182 245.722
L410.437 244.725
L410.565 241.733
L410.82 239.24
L410.948 253.701
L411.203 249.712
L411.33 245.722
L411.586 247.218
L411.713 245.722
L411.968 240.237
L412.096 252.703
L412.607 242.731
L412.989 245.722
L413.245 240.237
L413.5 237.246
L413.627 239.24
L413.883 227.771
L414.266 248.216
L414.393 247.717
L414.648 241.733
L414.776 226.774
L415.031 241.235
L415.159 241.733
L415.414 241.235
L415.542 223.782
L415.925 240.736
L416.18 239.24
L416.307 239.24
L416.563 223.782
L416.69 249.213
L416.945 227.771
L417.073 228.27
L417.328 243.728
L417.456 231.761
L417.839 252.703
L418.222 249.213
L418.477 248.714
L418.604 248.216
L418.86 247.717
L418.987 238.243
L419.37 258.188
L419.625 256.693
L420.008 248.714
L420.136 252.205
L420.391 227.273
L420.519 235.75
L420.902 243.229
L421.284 223.284
L421.54 242.631
L421.667 237.744
L421.922 235.75
L422.05 248.216
L422.305 245.722
L422.433 241.733
L422.688 250.21
L423.071 246.72
L423.199 249.612
L423.454 242.731
L423.581 252.205
L423.837 249.712
L423.964 244.725
L424.22 249.213
L424.347 248.216
L424.602 240.736
L424.73 241.235
L424.985 243.728
L425.113 241.733
L425.368 240.736
L425.496 239.739
L425.751 242.731
L425.879 247.218
L426.134 248.216
L426.261 246.221
L426.517 245.722
L426.644 235.251
L426.899 233.755
L427.282 245.224
L427.41 243.229
L427.665 233.256
L427.793 232.758
L428.176 251.706
L428.558 242.232
L428.814 242.232
L428.941 229.267
L429.197 241.235
L429.579 234.254
L429.707 251.606
L430.09 241.733
L430.345 242.731
L430.473 229.267
L430.728 218.297
L430.856 243.728
L430.983 147.49
L431.238 247.717
L431.494 246.72
L432.004 241.235
L432.387 247.717
L432.642 247.717
L432.642 247.717
L432.77 218.297
L433.025 242.731
L433.536 236.248
L433.791 195.36
L433.918 197.354
L434.174 229.866
L434.301 231.761
L434.556 231.262
L434.684 236.747
L434.939 154.471
L435.067 221.788
L435.322 235.75
L435.45 234.254
L435.833 253.701
L436.215 240.736
L436.598 248.714
L436.981 241.235
L437.236 239.24
L437.364 236.747
L437.619 238.243
L437.747 240.736
L438.002 223.782
L438.13 249.213
L438.385 245.722
L438.513 250.21
L438.768 253.701
L439.151 246.221
L439.661 233.755
L439.916 248.615
L440.044 248.216
L440.299 250.21
L440.299 250.21
L440.427 250.21
L440.682 248.216
L441.065 250.709
L441.192 249.213
L441.448 248.714
L441.575 248.216
L441.958 240.237
L442.596 249.712
L442.724 246.221
L442.979 247.218
L443.107 248.814
L443.362 243.229
L443.49 245.623
L443.745 247.717
L443.872 233.755
L444.128 243.728
L444.255 242.731
L444.51 248.216
L444.638 230.763
L444.893 229.766
L445.021 226.774
L445.276 243.229
L445.404 241.733
L445.659 240.736
L446.042 243.728
L446.169 222.785
L446.425 238.243
L446.552 237.744
L446.808 234.254
L446.935 228.769
L447.19 246.72
L447.318 245.722
L447.573 237.246
L447.701 224.281
L447.956 254.199
L448.084 245.722
L448.339 217.799
L448.467 234.752
L448.722 242.731
L448.849 238.742
L449.105 247.218
L449.232 225.278
L449.487 244.725
L449.487 244.725
L449.615 244.526
L449.87 249.213
L450.381 238.243
L450.636 243.229
L450.764 217.799
L451.019 215.305
L451.146 192.867
L451.402 245.722
L451.529 194.861
L451.785 248.216
L452.167 245.224
L452.295 243.229
L452.55 242.232
L452.678 240.736
L453.061 243.229
L453.444 236.747
L453.699 226.276
L453.826 245.224
L454.465 254.199
L454.847 237.246
L454.847 237.246
L454.975 252.205
L455.358 242.731
L455.613 250.21
L455.996 242.232
L456.379 240.736
L456.506 242.232
L456.762 248.116
L456.889 246.72
L457.144 227.771
L457.272 226.774
L457.527 257.191
L457.655 254.698
L457.91 246.221
L458.038 255.097
L458.293 237.744
L458.421 197.853
L458.676 251.706
L458.803 253.202
L459.059 247.218
L459.186 249.113
L459.442 255.197
L459.569 254.698
L459.824 252.703
L459.952 250.21
L460.207 257.69
L460.335 256.194
L460.59 248.216
L460.718 254.598
L460.973 246.221
L461.101 253.202
L461.356 249.712
L461.484 250.21
L461.739 249.113
L461.866 249.113
L462.249 239.24
L462.504 240.736
L462.632 245.722
L462.887 241.733
L463.015 243.229
L463.398 233.256
L463.653 234.752
L464.036 251.208
L464.163 251.706
L464.419 251.706
L464.546 249.213
L464.801 256.194
L464.929 247.218
L465.312 236.149
L465.567 235.251
L465.567 235.251
L465.95 217.3
L466.078 244.725
L466.333 251.706
L466.46 250.21
L466.716 222.286
L466.843 252.703
L467.226 246.221
L467.864 262.178
L467.992 256.693
L469.013 242.232
L469.14 234.852
L469.396 233.256
L469.523 231.262
L469.906 216.801
L470.161 205.831
L470.289 205.333
L470.544 229.267
L470.672 217.799
L470.927 213.311
L471.055 232.558
L471.437 246.221
L471.693 244.725
L471.82 241.733
L472.075 245.224
L472.586 240.237
L472.969 262.178
L473.607 262.178
L473.734 261.679
L474.373 249.213
L474.5 252.703
L474.755 251.208
L474.883 247.717
L475.138 244.725
L475.266 245.224
L475.521 258.687
L475.649 256.194
L475.904 256.693
L476.287 247.717
L476.414 254.698
L476.67 248.714
L476.797 258.188
L477.052 250.21
L477.18 253.701
L477.435 248.714
L477.563 250.709
L477.818 258.188
L477.946 250.709
L478.201 249.612
L478.711 257.291
L479.094 247.218
L479.35 244.725
L479.477 246.221
L479.732 278.034
L479.86 276.638
L480.243 263.175
L480.498 247.119
L480.626 256.194
L480.881 249.213
L481.009 254.698
L481.391 244.227
L481.647 257.69
L482.157 249.213
L482.412 251.208
L482.54 249.213
L482.795 248.216
L482.923 250.21
L483.178 251.706
L483.306 248.714
L483.561 248.216
L483.689 265.169
L483.944 247.218
L484.071 247.218
L484.454 253.601
L484.709 250.21
L484.837 227.771
L485.092 257.69
L485.22 255.197
L485.475 242.232
L485.858 252.703
L486.241 244.227
L486.241 244.227
L486.368 245.224
L486.624 246.221
L486.751 243.528
L487.007 225.278
L487.134 225.278
L487.389 261.18
L487.517 260.183
L488.666 246.72
L488.921 245.722
L489.048 246.72
L489.304 246.221
L489.431 251.706
L489.814 242.731
L490.069 190.872
L490.197 254.598
L490.452 249.712
L490.58 253.701
L490.835 245.722
L490.963 246.72
L491.345 266.665
L491.601 238.243
L491.728 256.194
L492.111 249.213
L492.366 254.199
L492.494 252.205
L492.749 232.259
L492.877 244.227
L493.26 236.747
L493.515 242.731
L493.643 242.731
L493.898 198.85
L494.026 228.27
L494.281 236.747
L494.408 266.167
L494.663 271.652
L494.791 269.159
L495.046 267.164
L495.174 236.248
L495.429 263.175
L495.557 261.18
L495.812 228.769
L495.812 228.769
L495.94 233.755
L496.195 239.24
L496.322 236.747
L496.578 248.714
L496.705 247.717
L496.961 247.717
L497.088 247.218
L497.343 244.227
L497.471 253.601
L497.726 249.712
L497.854 250.21
L498.109 198.352
L498.237 261.18
L498.492 243.728
L498.62 245.722
L498.875 258.188
L499.002 252.105
L499.258 250.809
L499.258 250.809
L499.385 249.113
L499.64 249.213
L499.768 257.69
L500.406 244.725
L500.534 250.709
L500.917 241.235
L501.172 248.615
L501.555 237.246
L501.682 252.703
L501.938 191.371
L502.065 252.604
L502.448 242.232
L502.703 246.221
L502.831 254.698
L503.086 253.701
L503.214 252.205
L503.469 261.679
L503.852 249.213
L503.979 247.218
L504.617 253.701
L504.873 247.717
L505.128 246.221
L505.383 245.722
L505.894 242.232
L506.149 240.736
L506.277 240.736
L506.532 240.237
L506.659 241.235
L506.915 251.706
L507.042 252.205
L507.425 248.714
L507.68 247.218
L507.808 245.224
L508.063 249.712
L508.446 244.227
L508.574 244.725
L508.829 236.647
L509.212 262.676
L509.339 248.714
L509.595 243.628
L509.977 258.188
L510.36 233.256
L510.488 238.243
L510.743 254.199
L510.871 250.709
L511.126 253.202
L511.509 249.712
L511.636 249.712
L511.892 247.717
L512.019 249.712
L512.274 246.221
L512.402 248.116
L512.785 215.804
L513.04 256.194
L513.168 253.701
L513.551 242.731
L513.806 242.232
L513.933 239.24
L514.317 251.208
L514.572 252.205
L514.699 247.218
L514.954 247.717
L515.082 253.501
L515.337 251.507
L515.465 248.216
L515.72 253.202
L515.848 252.703
L516.103 237.246
L516.231 237.744
L516.486 256.194
L516.613 253.202
L516.996 249.712
L517.251 247.218
L517.379 251.208
L517.634 248.714
L517.762 248.714
L518.017 247.717
L518.145 244.725
L518.4 219.295
L518.4 219.295" style="fill:none;stroke:#ff0000;stroke-linecap:square;"/>
   </g>
   <g id="line2d_2">
    <path clip-path="url(#pcb2bf987bf)" d="
M72 340.963
L72.1276 340.763
L77.3599 340.763
L77.8703 340.963
L78.1256 340.963
L78.1256 340.963
L78.2532 340.663
L79.6569 340.763
L79.7846 340.863
L81.1885 340.963
L81.316 341.062
L82.7197 340.963
L82.8473 340.763
L85.7825 340.763
L85.9101 340.963
L86.5482 340.963
L86.6758 340.763
L87.3139 340.763
L87.4415 340.963
L88.0796 340.963
L88.2072 341.162
L88.8453 341.162
L88.8453 341.162
L88.9729 340.963
L91.9081 340.963
L92.6738 341.162
L94.2051 340.963
L94.9708 341.162
L95.7365 341.062
L97.1403 340.963
L98.0336 341.362
L98.7993 341.262
L100.331 341.561
L101.862 341.162
L102.5 341.062
L103.393 341.262
L107.095 341.262
L107.988 341.461
L111.05 341.461
L111.816 341.262
L114.879 341.162
L116.41 341.062
L119.345 341.461
L120.111 341.262
L121.004 341.362
L122.536 340.963
L123.174 340.963
L124.067 341.262
L124.705 340.863
L126.365 340.963
L127.64 341.062
L127.64 341.062
L127.768 341.062
L129.299 340.763
L130.831 340.963
L131.597 340.863
L132.362 341.062
L132.362 341.062
L134.659 341.062
L135.425 341.262
L136.318 340.963
L136.956 341.461
L137.722 341.262
L139.254 341.362
L140.019 341.362
L141.551 341.062
L143.082 341.162
L144.613 341.461
L145.507 341.461
L146.272 341.262
L149.973 341.262
L150.867 341.062
L151.505 341.162
L153.036 341.062
L153.164 341.062
L153.802 340.863
L154.567 341.062
L156.099 341.062
L156.865 340.863
L159.927 340.763
L160.821 341.362
L162.224 340.963
L163.756 341.461
L163.883 341.461
L164.649 341.162
L165.287 341.262
L166.819 341.162
L172.178 341.062
L173.072 341.461
L173.71 341.262
L176.007 341.461
L176.9 341.262
L178.304 341.162
L180.601 340.963
L181.367 340.963
L182.26 341.162
L184.43 341.162
L185.195 341.362
L185.961 341.262
L186.727 341.362
L187.492 341.162
L188.258 341.262
L189.151 341.062
L191.321 341.262
L191.321 341.262
L193.618 341.461
L195.915 340.963
L198.978 341.262
L200.509 340.963
L203.699 340.963
L204.338 341.162
L205.231 340.863
L206.762 341.062
L207.4 341.062
L208.166 341.262
L209.059 341.162
L209.059 341.162
L209.57 341.362
L219.013 341.362
L219.141 341.062
L219.779 341.062
L219.907 341.262
L220.545 341.262
L220.672 341.461
L220.672 341.461
L222.842 341.461
L222.842 341.461
L223.352 341.062
L224.373 341.062
L224.501 340.763
L225.139 340.763
L225.267 341.062
L228.202 341.162
L228.329 341.461
L229.733 341.362
L229.861 341.262
L232.796 341.162
L232.796 341.162
L232.924 341.062
L233.562 341.062
L233.689 341.461
L234.327 341.461
L234.327 341.461
L234.455 341.162
L235.093 341.162
L235.093 341.162
L235.221 341.362
L237.39 341.362
L237.518 341.162
L239.687 341.062
L239.815 341.362
L241.219 341.362
L241.346 341.162
L241.984 341.162
L242.112 341.362
L246.578 341.262
L246.578 341.262
L246.706 341.86
L247.344 341.86
L247.855 341.461
L248.237 341.661
L249.641 341.561
L249.641 341.561
L249.769 341.461
L251.938 341.561
L252.066 341.76
L253.47 341.76
L253.597 341.561
L254.235 341.561
L254.363 341.76
L257.298 341.661
L257.426 341.561
L258.064 341.561
L258.064 341.561
L258.574 341.76
L258.83 341.76
L258.957 341.561
L263.424 341.561
L263.424 341.561
L263.551 341.76
L265.593 341.86
L265.848 341.561
L268.018 341.661
L268.145 341.76
L268.784 341.76
L268.911 341.561
L269.549 341.561
L269.677 341.86
L270.315 341.86
L270.443 341.661
L272.612 341.76
L272.74 341.86
L273.378 341.86
L273.378 341.86
L273.506 341.561
L277.972 341.561
L277.972 341.561
L278.099 341.262
L278.738 341.262
L278.865 341.461
L280.269 341.561
L280.269 341.561
L280.397 341.262
L282.566 341.262
L282.694 341.661
L286.395 341.561
L286.522 341.362
L287.926 341.362
L288.054 341.162
L288.692 341.162
L288.819 341.461
L289.457 341.461
L289.585 341.661
L290.989 341.561
L291.116 341.461
L296.349 341.362
L296.476 341.162
L297.114 341.162
L297.242 341.461
L298.646 341.362
L298.773 341.262
L302.474 341.362
L302.474 341.362
L302.985 341.561
L303.112 341.561
L303.368 341.362
L304.771 341.362
L304.899 341.162
L305.537 341.162
L305.664 341.362
L307.834 341.461
L307.962 341.661
L309.365 341.661
L309.493 341.362
L310.897 341.362
L311.024 341.76
L311.662 341.76
L311.79 341.461
L319.319 341.362
L319.319 341.362
L319.447 341.661
L322.127 341.661
L322.893 341.461
L323.148 341.461
L323.275 341.76
L324.679 341.76
L324.807 341.461
L326.211 341.461
L326.338 341.661
L334.633 341.561
L334.761 341.262
L335.399 341.262
L335.527 341.561
L336.165 341.561
L336.292 341.76
L339.227 341.661
L339.355 341.561
L341.525 341.461
L341.652 341.262
L342.29 341.262
L342.418 341.461
L344.588 341.561
L344.715 341.661
L348.416 341.561
L348.543 341.362
L349.181 341.362
L349.309 341.561
L349.947 341.561
L350.075 341.162
L350.713 341.162
L350.84 341.461
L362.198 341.362
L362.326 341.661
L362.964 341.661
L363.092 341.362
L364.495 341.461
L364.623 341.561
L366.792 341.561
L366.92 341.262
L367.558 341.262
L367.686 341.561
L369.09 341.461
L369.6 341.262
L369.855 341.262
L369.983 341.461
L372.152 341.362
L372.28 341.262
L373.684 341.362
L373.684 341.362
L373.811 341.561
L376.746 341.461
L376.874 341.362
L378.278 341.262
L378.405 341.162
L379.809 341.262
L379.937 341.461
L382.872 341.362
L383 341.062
L384.403 341.162
L384.531 341.262
L388.232 341.262
L388.232 341.262
L388.36 345.45
L388.998 345.45
L389.125 341.162
L389.763 341.162
L389.891 341.362
L391.295 341.362
L391.422 341.162
L392.06 341.162
L392.188 341.461
L394.102 341.362
L394.102 341.362
L394.868 341.262
L396.655 341.362
L396.782 341.461
L402.014 341.362
L402.142 341.262
L402.78 341.262
L402.908 341.461
L404.311 341.362
L404.439 341.262
L411.203 341.262
L411.33 341.461
L416.563 341.362
L416.69 341.262
L417.328 341.262
L417.456 341.461
L418.094 341.461
L418.222 341.262
L419.625 341.262
L419.753 341.561
L420.391 341.561
L420.519 341.362
L424.22 341.461
L424.347 341.561
L424.985 341.561
L425.113 341.262
L426.517 341.362
L426.644 341.461
L430.983 341.561
L431.494 341.661
L431.877 341.661
L432.004 341.461
L432.642 341.461
L432.642 341.461
L432.77 341.661
L434.174 341.561
L434.301 341.362
L435.705 341.362
L435.833 341.661
L443.362 341.661
L443.49 341.461
L447.19 341.561
L447.318 341.661
L448.722 341.661
L448.849 341.461
L451.785 341.561
L451.912 341.661
L453.316 341.561
L453.444 341.461
L454.082 341.461
L454.209 341.661
L457.144 341.561
L457.272 341.461
L464.801 341.561
L464.929 341.76
L468.63 341.76
L468.757 341.561
L469.396 341.561
L469.523 341.362
L473.224 341.461
L473.352 341.661
L473.99 341.661
L474.118 341.362
L478.584 341.461
L478.711 341.561
L480.881 341.561
L481.009 341.262
L487.772 341.362
L487.9 341.461
L488.538 341.461
L488.666 341.262
L490.835 341.262
L490.963 341.461
L496.195 341.362
L496.322 341.162
L503.086 341.262
L503.214 341.362
L504.617 341.362
L504.873 341.561
L506.149 341.461
L506.277 341.362
L506.915 341.362
L507.042 341.661
L508.446 341.561
L508.574 341.461
L509.212 341.461
L509.339 341.661
L511.509 341.561
L511.636 341.461
L513.04 341.561
L513.168 341.661
L513.806 341.661
L513.933 341.461
L518.4 341.561
L518.4 341.561" style="fill:none;stroke:#008000;stroke-linecap:square;"/>
   </g>
   <g id="patch_3">
    <path d="
M72 43.2
L518.4 43.2" style="fill:none;stroke:#000000;stroke-linecap:square;stroke-linejoin:miter;"/>
   </g>
   <g id="patch_4">
    <path d="
M518.4 345.6
L518.4 43.2" style="fill:none;stroke:#000000;stroke-linecap:square;stroke-linejoin:miter;"/>
   </g>
   <g id="patch_5">
    <path d="
M72 345.6
L518.4 345.6" style="fill:none;stroke:#000000;stroke-linecap:square;stroke-linejoin:miter;"/>
   </g>
   <g id="patch_6">
    <path d="
M72 345.6
L72 43.2" style="fill:none;stroke:#000000;stroke-linecap:square;stroke-linejoin:miter;"/>
   </g>
   <g id="matplotlib.axis_1">
    <g id="xtick_1">
     <g id="line2d_3">
      <defs>
       <path d="
M0 0
L0 -4" id="m93b0483c22" style="stroke:#000000;stroke-width:0.5;"/>
      </defs>
      <g>
       <use style="stroke:#000000;stroke-width:0.5;" x="117.941468267" xlink:href="#m93b0483c22" y="345.6"/>
      </g>
     </g>
     <g id="line2d_4">
      <defs>
       <path d="
M0 0
L0 4" id="m741efc42ff" style="stroke:#000000;stroke-width:0.5;"/>
      </defs>
      <g>
       <use style="stroke:#000000;stroke-width:0.5;" x="117.941468267" xlink:href="#m741efc42ff" y="43.2"/>
      </g>
     </g>
     <g id="text_1">
      <!-- Oct 13 2015 -->
      <defs>
       <path d="
M19.1875 8.29688
L53.6094 8.29688
L53.6094 0
L7.32812 0
L7.32812 8.29688
Q12.9375 14.1094 22.625 23.8906
Q32.3281 33.6875 34.8125 36.5312
Q39.5469 41.8438 41.4219 45.5312
Q43.3125 49.2188 43.3125 52.7812
Q43.3125 58.5938 39.2344 62.25
Q35.1562 65.9219 28.6094 65.9219
Q23.9688 65.9219 18.8125 64.3125
Q13.6719 62.7031 7.8125 59.4219
L7.8125 69.3906
Q13.7656 71.7812 18.9375 73
Q24.125 74.2188 28.4219 74.2188
Q39.75 74.2188 46.4844 68.5469
Q53.2188 62.8906 53.2188 53.4219
Q53.2188 48.9219 51.5312 44.8906
Q49.8594 40.875 45.4062 35.4062
Q44.1875 33.9844 37.6406 27.2188
Q31.1094 20.4531 19.1875 8.29688" id="BitstreamVeraSans-Roman-32"/>
       <path d="
M39.4062 66.2188
Q28.6562 66.2188 22.3281 58.2031
Q16.0156 50.2031 16.0156 36.375
Q16.0156 22.6094 22.3281 14.5938
Q28.6562 6.59375 39.4062 6.59375
Q50.1406 6.59375 56.4219 14.5938
Q62.7031 22.6094 62.7031 36.375
Q62.7031 50.2031 56.4219 58.2031
Q50.1406 66.2188 39.4062 66.2188
M39.4062 74.2188
Q54.7344 74.2188 63.9062 63.9375
Q73.0938 53.6562 73.0938 36.375
Q73.0938 19.1406 63.9062 8.85938
Q54.7344 -1.42188 39.4062 -1.42188
Q24.0312 -1.42188 14.8125 8.82812
Q5.60938 19.0938 5.60938 36.375
Q5.60938 53.6562 14.8125 63.9375
Q24.0312 74.2188 39.4062 74.2188" id="BitstreamVeraSans-Roman-4f"/>
       <path d="
M31.7812 66.4062
Q24.1719 66.4062 20.3281 58.9062
Q16.5 51.4219 16.5 36.375
Q16.5 21.3906 20.3281 13.8906
Q24.1719 6.39062 31.7812 6.39062
Q39.4531 6.39062 43.2812 13.8906
Q47.125 21.3906 47.125 36.375
Q47.125 51.4219 43.2812 58.9062
Q39.4531 66.4062 31.7812 66.4062
M31.7812 74.2188
Q44.0469 74.2188 50.5156 64.5156
Q56.9844 54.8281 56.9844 36.375
Q56.9844 17.9688 50.5156 8.26562
Q44.0469 -1.42188 31.7812 -1.42188
Q19.5312 -1.42188 13.0625 8.26562
Q6.59375 17.9688 6.59375 36.375
Q6.59375 54.8281 13.0625 64.5156
Q19.5312 74.2188 31.7812 74.2188" id="BitstreamVeraSans-Roman-30"/>
       <path d="
M12.4062 8.29688
L28.5156 8.29688
L28.5156 63.9219
L10.9844 60.4062
L10.9844 69.3906
L28.4219 72.9062
L38.2812 72.9062
L38.2812 8.29688
L54.3906 8.29688
L54.3906 0
L12.4062 0
z
" id="BitstreamVeraSans-Roman-31"/>
       <path d="
M40.5781 39.3125
Q47.6562 37.7969 51.625 33
Q55.6094 28.2188 55.6094 21.1875
Q55.6094 10.4062 48.1875 4.48438
Q40.7656 -1.42188 27.0938 -1.42188
Q22.5156 -1.42188 17.6562 -0.515625
Q12.7969 0.390625 7.625 2.20312
L7.625 11.7188
Q11.7188 9.32812 16.5938 8.10938
Q21.4844 6.89062 26.8125 6.89062
Q36.0781 6.89062 40.9375 10.5469
Q45.7969 14.2031 45.7969 21.1875
Q45.7969 27.6406 41.2812 31.2656
Q36.7656 34.9062 28.7188 34.9062
L20.2188 34.9062
L20.2188 43.0156
L29.1094 43.0156
Q36.375 43.0156 40.2344 45.9219
Q44.0938 48.8281 44.0938 54.2969
Q44.0938 59.9062 40.1094 62.9062
Q36.1406 65.9219 28.7188 65.9219
Q24.6562 65.9219 20.0156 65.0312
Q15.375 64.1562 9.8125 62.3125
L9.8125 71.0938
Q15.4375 72.6562 20.3438 73.4375
Q25.25 74.2188 29.5938 74.2188
Q40.8281 74.2188 47.3594 69.1094
Q53.9062 64.0156 53.9062 55.3281
Q53.9062 49.2656 50.4375 45.0938
Q46.9688 40.9219 40.5781 39.3125" id="BitstreamVeraSans-Roman-33"/>
       <path id="BitstreamVeraSans-Roman-20"/>
       <path d="
M10.7969 72.9062
L49.5156 72.9062
L49.5156 64.5938
L19.8281 64.5938
L19.8281 46.7344
Q21.9688 47.4688 24.1094 47.8281
Q26.2656 48.1875 28.4219 48.1875
Q40.625 48.1875 47.75 41.5
Q54.8906 34.8125 54.8906 23.3906
Q54.8906 11.625 47.5625 5.09375
Q40.2344 -1.42188 26.9062 -1.42188
Q22.3125 -1.42188 17.5469 -0.640625
Q12.7969 0.140625 7.71875 1.70312
L7.71875 11.625
Q12.1094 9.23438 16.7969 8.0625
Q21.4844 6.89062 26.7031 6.89062
Q35.1562 6.89062 40.0781 11.3281
Q45.0156 15.7656 45.0156 23.3906
Q45.0156 31 40.0781 35.4375
Q35.1562 39.8906 26.7031 39.8906
Q22.75 39.8906 18.8125 39.0156
Q14.8906 38.1406 10.7969 36.2812
z
" id="BitstreamVeraSans-Roman-35"/>
       <path d="
M18.3125 70.2188
L18.3125 54.6875
L36.8125 54.6875
L36.8125 47.7031
L18.3125 47.7031
L18.3125 18.0156
Q18.3125 11.3281 20.1406 9.42188
Q21.9688 7.51562 27.5938 7.51562
L36.8125 7.51562
L36.8125 0
L27.5938 0
Q17.1875 0 13.2344 3.875
Q9.28125 7.76562 9.28125 18.0156
L9.28125 47.7031
L2.6875 47.7031
L2.6875 54.6875
L9.28125 54.6875
L9.28125 70.2188
z
" id="BitstreamVeraSans-Roman-74"/>
       <path d="
M48.7812 52.5938
L48.7812 44.1875
Q44.9688 46.2969 41.1406 47.3438
Q37.3125 48.3906 33.4062 48.3906
Q24.6562 48.3906 19.8125 42.8438
Q14.9844 37.3125 14.9844 27.2969
Q14.9844 17.2812 19.8125 11.7344
Q24.6562 6.20312 33.4062 6.20312
Q37.3125 6.20312 41.1406 7.25
Q44.9688 8.29688 48.7812 10.4062
L48.7812 2.09375
Q45.0156 0.34375 40.9844 -0.53125
Q36.9688 -1.42188 32.4219 -1.42188
Q20.0625 -1.42188 12.7812 6.34375
Q5.51562 14.1094 5.51562 27.2969
Q5.51562 40.6719 12.8594 48.3281
Q20.2188 56 33.0156 56
Q37.1562 56 41.1094 55.1406
Q45.0625 54.2969 48.7812 52.5938" id="BitstreamVeraSans-Roman-63"/>
      </defs>
      <g transform="translate(53.3541815316 394.065590385)rotate(-30.0)scale(0.12 -0.12)">
       <use xlink:href="#BitstreamVeraSans-Roman-4f"/>
       <use x="78.7109375" xlink:href="#BitstreamVeraSans-Roman-63"/>
       <use x="133.69140625" xlink:href="#BitstreamVeraSans-Roman-74"/>
       <use x="172.900390625" xlink:href="#BitstreamVeraSans-Roman-20"/>
       <use x="204.6875" xlink:href="#BitstreamVeraSans-Roman-31"/>
       <use x="268.310546875" xlink:href="#BitstreamVeraSans-Roman-33"/>
       <use x="331.93359375" xlink:href="#BitstreamVeraSans-Roman-20"/>
       <use x="363.720703125" xlink:href="#BitstreamVeraSans-Roman-32"/>
       <use x="427.34375" xlink:href="#BitstreamVeraSans-Roman-30"/>
       <use x="490.966796875" xlink:href="#BitstreamVeraSans-Roman-31"/>
       <use x="554.58984375" xlink:href="#BitstreamVeraSans-Roman-35"/>
      </g>
     </g>
    </g>
    <g id="xtick_2">
     <g id="line2d_5">
      <g>
       <use style="stroke:#000000;stroke-width:0.5;" x="173.071485419" xlink:href="#m93b0483c22" y="345.6"/>
      </g>
     </g>
     <g id="line2d_6">
      <g>
       <use style="stroke:#000000;stroke-width:0.5;" x="173.071485419" xlink:href="#m741efc42ff" y="43.2"/>
      </g>
     </g>
     <g id="text_2">
      <!-- Oct 16 2015 -->
      <defs>
       <path d="
M33.0156 40.375
Q26.375 40.375 22.4844 35.8281
Q18.6094 31.2969 18.6094 23.3906
Q18.6094 15.5312 22.4844 10.9531
Q26.375 6.39062 33.0156 6.39062
Q39.6562 6.39062 43.5312 10.9531
Q47.4062 15.5312 47.4062 23.3906
Q47.4062 31.2969 43.5312 35.8281
Q39.6562 40.375 33.0156 40.375
M52.5938 71.2969
L52.5938 62.3125
Q48.875 64.0625 45.0938 64.9844
Q41.3125 65.9219 37.5938 65.9219
Q27.8281 65.9219 22.6719 59.3281
Q17.5312 52.7344 16.7969 39.4062
Q19.6719 43.6562 24.0156 45.9219
Q28.375 48.1875 33.5938 48.1875
Q44.5781 48.1875 50.9531 41.5156
Q57.3281 34.8594 57.3281 23.3906
Q57.3281 12.1562 50.6875 5.35938
Q44.0469 -1.42188 33.0156 -1.42188
Q20.3594 -1.42188 13.6719 8.26562
Q6.98438 17.9688 6.98438 36.375
Q6.98438 53.6562 15.1875 63.9375
Q23.3906 74.2188 37.2031 74.2188
Q40.9219 74.2188 44.7031 73.4844
Q48.4844 72.75 52.5938 71.2969" id="BitstreamVeraSans-Roman-36"/>
      </defs>
      <g transform="translate(108.484198684 394.065590385)rotate(-30.0)scale(0.12 -0.12)">
       <use xlink:href="#BitstreamVeraSans-Roman-4f"/>
       <use x="78.7109375" xlink:href="#BitstreamVeraSans-Roman-63"/>
       <use x="133.69140625" xlink:href="#BitstreamVeraSans-Roman-74"/>
       <use x="172.900390625" xlink:href="#BitstreamVeraSans-Roman-20"/>
       <use x="204.6875" xlink:href="#BitstreamVeraSans-Roman-31"/>
       <use x="268.310546875" xlink:href="#BitstreamVeraSans-Roman-36"/>
       <use x="331.93359375" xlink:href="#BitstreamVeraSans-Roman-20"/>
       <use x="363.720703125" xlink:href="#BitstreamVeraSans-Roman-32"/>
       <use x="427.34375" xlink:href="#BitstreamVeraSans-Roman-30"/>
       <use x="490.966796875" xlink:href="#BitstreamVeraSans-Roman-31"/>
       <use x="554.58984375" xlink:href="#BitstreamVeraSans-Roman-35"/>
      </g>
     </g>
    </g>
    <g id="xtick_3">
     <g id="line2d_7">
      <g>
       <use style="stroke:#000000;stroke-width:0.5;" x="228.201502573" xlink:href="#m93b0483c22" y="345.6"/>
      </g>
     </g>
     <g id="line2d_8">
      <g>
       <use style="stroke:#000000;stroke-width:0.5;" x="228.201502573" xlink:href="#m741efc42ff" y="43.2"/>
      </g>
     </g>
     <g id="text_3">
      <!-- Oct 19 2015 -->
      <defs>
       <path d="
M10.9844 1.51562
L10.9844 10.5
Q14.7031 8.73438 18.5 7.8125
Q22.3125 6.89062 25.9844 6.89062
Q35.75 6.89062 40.8906 13.4531
Q46.0469 20.0156 46.7812 33.4062
Q43.9531 29.2031 39.5938 26.9531
Q35.25 24.7031 29.9844 24.7031
Q19.0469 24.7031 12.6719 31.3125
Q6.29688 37.9375 6.29688 49.4219
Q6.29688 60.6406 12.9375 67.4219
Q19.5781 74.2188 30.6094 74.2188
Q43.2656 74.2188 49.9219 64.5156
Q56.5938 54.8281 56.5938 36.375
Q56.5938 19.1406 48.4062 8.85938
Q40.2344 -1.42188 26.4219 -1.42188
Q22.7031 -1.42188 18.8906 -0.6875
Q15.0938 0.046875 10.9844 1.51562
M30.6094 32.4219
Q37.25 32.4219 41.125 36.9531
Q45.0156 41.5 45.0156 49.4219
Q45.0156 57.2812 41.125 61.8438
Q37.25 66.4062 30.6094 66.4062
Q23.9688 66.4062 20.0938 61.8438
Q16.2188 57.2812 16.2188 49.4219
Q16.2188 41.5 20.0938 36.9531
Q23.9688 32.4219 30.6094 32.4219" id="BitstreamVeraSans-Roman-39"/>
      </defs>
      <g transform="translate(163.614215838 394.065590385)rotate(-30.0)scale(0.12 -0.12)">
       <use xlink:href="#BitstreamVeraSans-Roman-4f"/>
       <use x="78.7109375" xlink:href="#BitstreamVeraSans-Roman-63"/>
       <use x="133.69140625" xlink:href="#BitstreamVeraSans-Roman-74"/>
       <use x="172.900390625" xlink:href="#BitstreamVeraSans-Roman-20"/>
       <use x="204.6875" xlink:href="#BitstreamVeraSans-Roman-31"/>
       <use x="268.310546875" xlink:href="#BitstreamVeraSans-Roman-39"/>
       <use x="331.93359375" xlink:href="#BitstreamVeraSans-Roman-20"/>
       <use x="363.720703125" xlink:href="#BitstreamVeraSans-Roman-32"/>
       <use x="427.34375" xlink:href="#BitstreamVeraSans-Roman-30"/>
       <use x="490.966796875" xlink:href="#BitstreamVeraSans-Roman-31"/>
       <use x="554.58984375" xlink:href="#BitstreamVeraSans-Roman-35"/>
      </g>
     </g>
    </g>
    <g id="xtick_4">
     <g id="line2d_9">
      <g>
       <use style="stroke:#000000;stroke-width:0.5;" x="283.331519725" xlink:href="#m93b0483c22" y="345.6"/>
      </g>
     </g>
     <g id="line2d_10">
      <g>
       <use style="stroke:#000000;stroke-width:0.5;" x="283.331519725" xlink:href="#m741efc42ff" y="43.2"/>
      </g>
     </g>
     <g id="text_4">
      <!-- Oct 22 2015 -->
      <g transform="translate(218.74423299 394.065590385)rotate(-30.0)scale(0.12 -0.12)">
       <use xlink:href="#BitstreamVeraSans-Roman-4f"/>
       <use x="78.7109375" xlink:href="#BitstreamVeraSans-Roman-63"/>
       <use x="133.69140625" xlink:href="#BitstreamVeraSans-Roman-74"/>
       <use x="172.900390625" xlink:href="#BitstreamVeraSans-Roman-20"/>
       <use x="204.6875" xlink:href="#BitstreamVeraSans-Roman-32"/>
       <use x="268.310546875" xlink:href="#BitstreamVeraSans-Roman-32"/>
       <use x="331.93359375" xlink:href="#BitstreamVeraSans-Roman-20"/>
       <use x="363.720703125" xlink:href="#BitstreamVeraSans-Roman-32"/>
       <use x="427.34375" xlink:href="#BitstreamVeraSans-Roman-30"/>
       <use x="490.966796875" xlink:href="#BitstreamVeraSans-Roman-31"/>
       <use x="554.58984375" xlink:href="#BitstreamVeraSans-Roman-35"/>
      </g>
     </g>
    </g>
    <g id="xtick_5">
     <g id="line2d_11">
      <g>
       <use style="stroke:#000000;stroke-width:0.5;" x="338.461536877" xlink:href="#m93b0483c22" y="345.6"/>
      </g>
     </g>
     <g id="line2d_12">
      <g>
       <use style="stroke:#000000;stroke-width:0.5;" x="338.461536877" xlink:href="#m741efc42ff" y="43.2"/>
      </g>
     </g>
     <g id="text_5">
      <!-- Oct 25 2015 -->
      <g transform="translate(273.874250142 394.065590385)rotate(-30.0)scale(0.12 -0.12)">
       <use xlink:href="#BitstreamVeraSans-Roman-4f"/>
       <use x="78.7109375" xlink:href="#BitstreamVeraSans-Roman-63"/>
       <use x="133.69140625" xlink:href="#BitstreamVeraSans-Roman-74"/>
       <use x="172.900390625" xlink:href="#BitstreamVeraSans-Roman-20"/>
       <use x="204.6875" xlink:href="#BitstreamVeraSans-Roman-32"/>
       <use x="268.310546875" xlink:href="#BitstreamVeraSans-Roman-35"/>
       <use x="331.93359375" xlink:href="#BitstreamVeraSans-Roman-20"/>
       <use x="363.720703125" xlink:href="#BitstreamVeraSans-Roman-32"/>
       <use x="427.34375" xlink:href="#BitstreamVeraSans-Roman-30"/>
       <use x="490.966796875" xlink:href="#BitstreamVeraSans-Roman-31"/>
       <use x="554.58984375" xlink:href="#BitstreamVeraSans-Roman-35"/>
      </g>
     </g>
    </g>
    <g id="xtick_6">
     <g id="line2d_13">
      <g>
       <use style="stroke:#000000;stroke-width:0.5;" x="393.591554031" xlink:href="#m93b0483c22" y="345.6"/>
      </g>
     </g>
     <g id="line2d_14">
      <g>
       <use style="stroke:#000000;stroke-width:0.5;" x="393.591554031" xlink:href="#m741efc42ff" y="43.2"/>
      </g>
     </g>
     <g id="text_6">
      <!-- Oct 28 2015 -->
      <defs>
       <path d="
M31.7812 34.625
Q24.75 34.625 20.7188 30.8594
Q16.7031 27.0938 16.7031 20.5156
Q16.7031 13.9219 20.7188 10.1562
Q24.75 6.39062 31.7812 6.39062
Q38.8125 6.39062 42.8594 10.1719
Q46.9219 13.9688 46.9219 20.5156
Q46.9219 27.0938 42.8906 30.8594
Q38.875 34.625 31.7812 34.625
M21.9219 38.8125
Q15.5781 40.375 12.0312 44.7188
Q8.5 49.0781 8.5 55.3281
Q8.5 64.0625 14.7188 69.1406
Q20.9531 74.2188 31.7812 74.2188
Q42.6719 74.2188 48.875 69.1406
Q55.0781 64.0625 55.0781 55.3281
Q55.0781 49.0781 51.5312 44.7188
Q48 40.375 41.7031 38.8125
Q48.8281 37.1562 52.7969 32.3125
Q56.7812 27.4844 56.7812 20.5156
Q56.7812 9.90625 50.3125 4.23438
Q43.8438 -1.42188 31.7812 -1.42188
Q19.7344 -1.42188 13.25 4.23438
Q6.78125 9.90625 6.78125 20.5156
Q6.78125 27.4844 10.7812 32.3125
Q14.7969 37.1562 21.9219 38.8125
M18.3125 54.3906
Q18.3125 48.7344 21.8438 45.5625
Q25.3906 42.3906 31.7812 42.3906
Q38.1406 42.3906 41.7188 45.5625
Q45.3125 48.7344 45.3125 54.3906
Q45.3125 60.0625 41.7188 63.2344
Q38.1406 66.4062 31.7812 66.4062
Q25.3906 66.4062 21.8438 63.2344
Q18.3125 60.0625 18.3125 54.3906" id="BitstreamVeraSans-Roman-38"/>
      </defs>
      <g transform="translate(329.004267296 394.065590385)rotate(-30.0)scale(0.12 -0.12)">
       <use xlink:href="#BitstreamVeraSans-Roman-4f"/>
       <use x="78.7109375" xlink:href="#BitstreamVeraSans-Roman-63"/>
       <use x="133.69140625" xlink:href="#BitstreamVeraSans-Roman-74"/>
       <use x="172.900390625" xlink:href="#BitstreamVeraSans-Roman-20"/>
       <use x="204.6875" xlink:href="#BitstreamVeraSans-Roman-32"/>
       <use x="268.310546875" xlink:href="#BitstreamVeraSans-Roman-38"/>
       <use x="331.93359375" xlink:href="#BitstreamVeraSans-Roman-20"/>
       <use x="363.720703125" xlink:href="#BitstreamVeraSans-Roman-32"/>
       <use x="427.34375" xlink:href="#BitstreamVeraSans-Roman-30"/>
       <use x="490.966796875" xlink:href="#BitstreamVeraSans-Roman-31"/>
       <use x="554.58984375" xlink:href="#BitstreamVeraSans-Roman-35"/>
      </g>
     </g>
    </g>
    <g id="xtick_7">
     <g id="line2d_15">
      <g>
       <use style="stroke:#000000;stroke-width:0.5;" x="448.721571183" xlink:href="#m93b0483c22" y="345.6"/>
      </g>
     </g>
     <g id="line2d_16">
      <g>
       <use style="stroke:#000000;stroke-width:0.5;" x="448.721571183" xlink:href="#m741efc42ff" y="43.2"/>
      </g>
     </g>
     <g id="text_7">
      <!-- Oct 31 2015 -->
      <g transform="translate(384.134284448 394.065590385)rotate(-30.0)scale(0.12 -0.12)">
       <use xlink:href="#BitstreamVeraSans-Roman-4f"/>
       <use x="78.7109375" xlink:href="#BitstreamVeraSans-Roman-63"/>
       <use x="133.69140625" xlink:href="#BitstreamVeraSans-Roman-74"/>
       <use x="172.900390625" xlink:href="#BitstreamVeraSans-Roman-20"/>
       <use x="204.6875" xlink:href="#BitstreamVeraSans-Roman-33"/>
       <use x="268.310546875" xlink:href="#BitstreamVeraSans-Roman-31"/>
       <use x="331.93359375" xlink:href="#BitstreamVeraSans-Roman-20"/>
       <use x="363.720703125" xlink:href="#BitstreamVeraSans-Roman-32"/>
       <use x="427.34375" xlink:href="#BitstreamVeraSans-Roman-30"/>
       <use x="490.966796875" xlink:href="#BitstreamVeraSans-Roman-31"/>
       <use x="554.58984375" xlink:href="#BitstreamVeraSans-Roman-35"/>
      </g>
     </g>
    </g>
    <g id="xtick_8">
     <g id="line2d_17">
      <g>
       <use style="stroke:#000000;stroke-width:0.5;" x="503.851588335" xlink:href="#m93b0483c22" y="345.6"/>
      </g>
     </g>
     <g id="line2d_18">
      <g>
       <use style="stroke:#000000;stroke-width:0.5;" x="503.851588335" xlink:href="#m741efc42ff" y="43.2"/>
      </g>
     </g>
     <g id="text_8">
      <!-- Nov 03 2015 -->
      <defs>
       <path d="
M2.98438 54.6875
L12.5 54.6875
L29.5938 8.79688
L46.6875 54.6875
L56.2031 54.6875
L35.6875 0
L23.4844 0
z
" id="BitstreamVeraSans-Roman-76"/>
       <path d="
M9.8125 72.9062
L23.0938 72.9062
L55.4219 11.9219
L55.4219 72.9062
L64.9844 72.9062
L64.9844 0
L51.7031 0
L19.3906 60.9844
L19.3906 0
L9.8125 0
z
" id="BitstreamVeraSans-Roman-4e"/>
       <path d="
M30.6094 48.3906
Q23.3906 48.3906 19.1875 42.75
Q14.9844 37.1094 14.9844 27.2969
Q14.9844 17.4844 19.1562 11.8438
Q23.3438 6.20312 30.6094 6.20312
Q37.7969 6.20312 41.9844 11.8594
Q46.1875 17.5312 46.1875 27.2969
Q46.1875 37.0156 41.9844 42.7031
Q37.7969 48.3906 30.6094 48.3906
M30.6094 56
Q42.3281 56 49.0156 48.375
Q55.7188 40.7656 55.7188 27.2969
Q55.7188 13.875 49.0156 6.21875
Q42.3281 -1.42188 30.6094 -1.42188
Q18.8438 -1.42188 12.1719 6.21875
Q5.51562 13.875 5.51562 27.2969
Q5.51562 40.7656 12.1719 48.375
Q18.8438 56 30.6094 56" id="BitstreamVeraSans-Roman-6f"/>
      </defs>
      <g transform="translate(436.948766176 395.402465385)rotate(-30.0)scale(0.12 -0.12)">
       <use xlink:href="#BitstreamVeraSans-Roman-4e"/>
       <use x="74.8046875" xlink:href="#BitstreamVeraSans-Roman-6f"/>
       <use x="135.986328125" xlink:href="#BitstreamVeraSans-Roman-76"/>
       <use x="195.166015625" xlink:href="#BitstreamVeraSans-Roman-20"/>
       <use x="226.953125" xlink:href="#BitstreamVeraSans-Roman-30"/>
       <use x="290.576171875" xlink:href="#BitstreamVeraSans-Roman-33"/>
       <use x="354.19921875" xlink:href="#BitstreamVeraSans-Roman-20"/>
       <use x="385.986328125" xlink:href="#BitstreamVeraSans-Roman-32"/>
       <use x="449.609375" xlink:href="#BitstreamVeraSans-Roman-30"/>
       <use x="513.232421875" xlink:href="#BitstreamVeraSans-Roman-31"/>
       <use x="576.85546875" xlink:href="#BitstreamVeraSans-Roman-35"/>
      </g>
     </g>
    </g>
   </g>
   <g id="matplotlib.axis_2">
    <g id="ytick_1">
     <g id="line2d_19">
      <defs>
       <path d="
M0 0
L4 0" id="m728421d6d4" style="stroke:#000000;stroke-width:0.5;"/>
      </defs>
      <g>
       <use style="stroke:#000000;stroke-width:0.5;" x="72.0" xlink:href="#m728421d6d4" y="298.578283453"/>
      </g>
     </g>
     <g id="line2d_20">
      <defs>
       <path d="
M0 0
L-4 0" id="mcb0005524f" style="stroke:#000000;stroke-width:0.5;"/>
      </defs>
      <g>
       <use style="stroke:#000000;stroke-width:0.5;" x="518.4" xlink:href="#mcb0005524f" y="298.578283453"/>
      </g>
     </g>
     <g id="text_9">
      <!-- 500 -->
      <g transform="translate(46.818125 301.889533453)scale(0.12 -0.12)">
       <use xlink:href="#BitstreamVeraSans-Roman-35"/>
       <use x="63.623046875" xlink:href="#BitstreamVeraSans-Roman-30"/>
       <use x="127.24609375" xlink:href="#BitstreamVeraSans-Roman-30"/>
      </g>
     </g>
    </g>
    <g id="ytick_2">
     <g id="line2d_21">
      <g>
       <use style="stroke:#000000;stroke-width:0.5;" x="72.0" xlink:href="#m728421d6d4" y="248.714321049"/>
      </g>
     </g>
     <g id="line2d_22">
      <g>
       <use style="stroke:#000000;stroke-width:0.5;" x="518.4" xlink:href="#mcb0005524f" y="248.714321049"/>
      </g>
     </g>
     <g id="text_10">
      <!-- 1000 -->
      <g transform="translate(39.575 252.025571049)scale(0.12 -0.12)">
       <use xlink:href="#BitstreamVeraSans-Roman-31"/>
       <use x="63.623046875" xlink:href="#BitstreamVeraSans-Roman-30"/>
       <use x="127.24609375" xlink:href="#BitstreamVeraSans-Roman-30"/>
       <use x="190.869140625" xlink:href="#BitstreamVeraSans-Roman-30"/>
      </g>
     </g>
    </g>
    <g id="ytick_3">
     <g id="line2d_23">
      <g>
       <use style="stroke:#000000;stroke-width:0.5;" x="72.0" xlink:href="#m728421d6d4" y="198.850358645"/>
      </g>
     </g>
     <g id="line2d_24">
      <g>
       <use style="stroke:#000000;stroke-width:0.5;" x="518.4" xlink:href="#mcb0005524f" y="198.850358645"/>
      </g>
     </g>
     <g id="text_11">
      <!-- 1500 -->
      <g transform="translate(39.575 202.161608645)scale(0.12 -0.12)">
       <use xlink:href="#BitstreamVeraSans-Roman-31"/>
       <use x="63.623046875" xlink:href="#BitstreamVeraSans-Roman-35"/>
       <use x="127.24609375" xlink:href="#BitstreamVeraSans-Roman-30"/>
       <use x="190.869140625" xlink:href="#BitstreamVeraSans-Roman-30"/>
      </g>
     </g>
    </g>
    <g id="ytick_4">
     <g id="line2d_25">
      <g>
       <use style="stroke:#000000;stroke-width:0.5;" x="72.0" xlink:href="#m728421d6d4" y="148.98639624"/>
      </g>
     </g>
     <g id="line2d_26">
      <g>
       <use style="stroke:#000000;stroke-width:0.5;" x="518.4" xlink:href="#mcb0005524f" y="148.98639624"/>
      </g>
     </g>
     <g id="text_12">
      <!-- 2000 -->
      <g transform="translate(39.13625 152.29764624)scale(0.12 -0.12)">
       <use xlink:href="#BitstreamVeraSans-Roman-32"/>
       <use x="63.623046875" xlink:href="#BitstreamVeraSans-Roman-30"/>
       <use x="127.24609375" xlink:href="#BitstreamVeraSans-Roman-30"/>
       <use x="190.869140625" xlink:href="#BitstreamVeraSans-Roman-30"/>
      </g>
     </g>
    </g>
    <g id="ytick_5">
     <g id="line2d_27">
      <g>
       <use style="stroke:#000000;stroke-width:0.5;" x="72.0" xlink:href="#m728421d6d4" y="99.1224338363"/>
      </g>
     </g>
     <g id="line2d_28">
      <g>
       <use style="stroke:#000000;stroke-width:0.5;" x="518.4" xlink:href="#mcb0005524f" y="99.1224338363"/>
      </g>
     </g>
     <g id="text_13">
      <!-- 2500 -->
      <g transform="translate(39.13625 102.433683836)scale(0.12 -0.12)">
       <use xlink:href="#BitstreamVeraSans-Roman-32"/>
       <use x="63.623046875" xlink:href="#BitstreamVeraSans-Roman-35"/>
       <use x="127.24609375" xlink:href="#BitstreamVeraSans-Roman-30"/>
       <use x="190.869140625" xlink:href="#BitstreamVeraSans-Roman-30"/>
      </g>
     </g>
    </g>
    <g id="ytick_6">
     <g id="line2d_29">
      <g>
       <use style="stroke:#000000;stroke-width:0.5;" x="72.0" xlink:href="#m728421d6d4" y="49.2584714321"/>
      </g>
     </g>
     <g id="line2d_30">
      <g>
       <use style="stroke:#000000;stroke-width:0.5;" x="518.4" xlink:href="#mcb0005524f" y="49.2584714321"/>
      </g>
     </g>
     <g id="text_14">
      <!-- 3000 -->
      <g transform="translate(39.171875 52.5697214321)scale(0.12 -0.12)">
       <use xlink:href="#BitstreamVeraSans-Roman-33"/>
       <use x="63.623046875" xlink:href="#BitstreamVeraSans-Roman-30"/>
       <use x="127.24609375" xlink:href="#BitstreamVeraSans-Roman-30"/>
       <use x="190.869140625" xlink:href="#BitstreamVeraSans-Roman-30"/>
      </g>
     </g>
    </g>
   </g>
   <g id="text_15">
    <!-- Lithiumerz -->
    <defs>
     <path d="
M9.8125 72.9062
L19.6719 72.9062
L19.6719 8.29688
L55.1719 8.29688
L55.1719 0
L9.8125 0
z
" id="BitstreamVeraSans-Roman-4c"/>
     <path d="
M52 44.1875
Q55.375 50.25 60.0625 53.125
Q64.75 56 71.0938 56
Q79.6406 56 84.2812 50.0156
Q88.9219 44.0469 88.9219 33.0156
L88.9219 0
L79.8906 0
L79.8906 32.7188
Q79.8906 40.5781 77.0938 44.375
Q74.3125 48.1875 68.6094 48.1875
Q61.625 48.1875 57.5625 43.5469
Q53.5156 38.9219 53.5156 30.9062
L53.5156 0
L44.4844 0
L44.4844 32.7188
Q44.4844 40.625 41.7031 44.4062
Q38.9219 48.1875 33.1094 48.1875
Q26.2188 48.1875 22.1562 43.5312
Q18.1094 38.875 18.1094 30.9062
L18.1094 0
L9.07812 0
L9.07812 54.6875
L18.1094 54.6875
L18.1094 46.1875
Q21.1875 51.2188 25.4844 53.6094
Q29.7812 56 35.6875 56
Q41.6562 56 45.8281 52.9688
Q50 49.9531 52 44.1875" id="BitstreamVeraSans-Roman-6d"/>
     <path d="
M5.51562 54.6875
L48.1875 54.6875
L48.1875 46.4844
L14.4062 7.17188
L48.1875 7.17188
L48.1875 0
L4.29688 0
L4.29688 8.20312
L38.0938 47.5156
L5.51562 47.5156
z
" id="BitstreamVeraSans-Roman-7a"/>
     <path d="
M9.42188 54.6875
L18.4062 54.6875
L18.4062 0
L9.42188 0
z

M9.42188 75.9844
L18.4062 75.9844
L18.4062 64.5938
L9.42188 64.5938
z
" id="BitstreamVeraSans-Roman-69"/>
     <path d="
M54.8906 33.0156
L54.8906 0
L45.9062 0
L45.9062 32.7188
Q45.9062 40.4844 42.875 44.3281
Q39.8438 48.1875 33.7969 48.1875
Q26.5156 48.1875 22.3125 43.5469
Q18.1094 38.9219 18.1094 30.9062
L18.1094 0
L9.07812 0
L9.07812 75.9844
L18.1094 75.9844
L18.1094 46.1875
Q21.3438 51.125 25.7031 53.5625
Q30.0781 56 35.7969 56
Q45.2188 56 50.0469 50.1719
Q54.8906 44.3438 54.8906 33.0156" id="BitstreamVeraSans-Roman-68"/>
     <path d="
M56.2031 29.5938
L56.2031 25.2031
L14.8906 25.2031
Q15.4844 15.9219 20.4844 11.0625
Q25.4844 6.20312 34.4219 6.20312
Q39.5938 6.20312 44.4531 7.46875
Q49.3125 8.73438 54.1094 11.2812
L54.1094 2.78125
Q49.2656 0.734375 44.1875 -0.34375
Q39.1094 -1.42188 33.8906 -1.42188
Q20.7969 -1.42188 13.1562 6.1875
Q5.51562 13.8125 5.51562 26.8125
Q5.51562 40.2344 12.7656 48.1094
Q20.0156 56 32.3281 56
Q43.3594 56 49.7812 48.8906
Q56.2031 41.7969 56.2031 29.5938
M47.2188 32.2344
Q47.125 39.5938 43.0938 43.9844
Q39.0625 48.3906 32.4219 48.3906
Q24.9062 48.3906 20.3906 44.1406
Q15.875 39.8906 15.1875 32.1719
z
" id="BitstreamVeraSans-Roman-65"/>
     <path d="
M8.5 21.5781
L8.5 54.6875
L17.4844 54.6875
L17.4844 21.9219
Q17.4844 14.1562 20.5 10.2656
Q23.5312 6.39062 29.5938 6.39062
Q36.8594 6.39062 41.0781 11.0312
Q45.3125 15.6719 45.3125 23.6875
L45.3125 54.6875
L54.2969 54.6875
L54.2969 0
L45.3125 0
L45.3125 8.40625
Q42.0469 3.42188 37.7188 1
Q33.4062 -1.42188 27.6875 -1.42188
Q18.2656 -1.42188 13.375 4.4375
Q8.5 10.2969 8.5 21.5781" id="BitstreamVeraSans-Roman-75"/>
     <path d="
M41.1094 46.2969
Q39.5938 47.1719 37.8125 47.5781
Q36.0312 48 33.8906 48
Q26.2656 48 22.1875 43.0469
Q18.1094 38.0938 18.1094 28.8125
L18.1094 0
L9.07812 0
L9.07812 54.6875
L18.1094 54.6875
L18.1094 46.1875
Q20.9531 51.1719 25.4844 53.5781
Q30.0312 56 36.5312 56
Q37.4531 56 38.5781 55.875
Q39.7031 55.7656 41.0625 55.5156
z
" id="BitstreamVeraSans-Roman-72"/>
    </defs>
    <g transform="translate(444.1455 38.2)scale(0.144 -0.144)">
     <use xlink:href="#BitstreamVeraSans-Roman-4c"/>
     <use x="55.712890625" xlink:href="#BitstreamVeraSans-Roman-69"/>
     <use x="83.49609375" xlink:href="#BitstreamVeraSans-Roman-74"/>
     <use x="122.705078125" xlink:href="#BitstreamVeraSans-Roman-68"/>
     <use x="186.083984375" xlink:href="#BitstreamVeraSans-Roman-69"/>
     <use x="213.8671875" xlink:href="#BitstreamVeraSans-Roman-75"/>
     <use x="277.24609375" xlink:href="#BitstreamVeraSans-Roman-6d"/>
     <use x="374.658203125" xlink:href="#BitstreamVeraSans-Roman-65"/>
     <use x="436.181640625" xlink:href="#BitstreamVeraSans-Roman-72"/>
     <use x="477.294921875" xlink:href="#BitstreamVeraSans-Roman-7a"/>
    </g>
   </g>
   <g id="legend_1">
    <g id="patch_7">
     <path d="
M123.942 423.616
L466.458 423.616
L466.458 398.16
L123.942 398.16
z
" style="fill:#ffffff;stroke:#000000;stroke-linejoin:miter;"/>
    </g>
    <g id="line2d_31">
     <path d="
M134.022 409.822
L154.182 409.822" style="fill:none;stroke:#ff0000;stroke-linecap:square;"/>
    </g>
    <g id="line2d_32"/>
    <g id="text_16">
     <!-- Schwarzmarktpreis -->
     <defs>
      <path d="
M9.07812 75.9844
L18.1094 75.9844
L18.1094 31.1094
L44.9219 54.6875
L56.3906 54.6875
L27.3906 29.1094
L57.625 0
L45.9062 0
L18.1094 26.7031
L18.1094 0
L9.07812 0
z
" id="BitstreamVeraSans-Roman-6b"/>
      <path d="
M53.5156 70.5156
L53.5156 60.8906
Q47.9062 63.5781 42.9219 64.8906
Q37.9375 66.2188 33.2969 66.2188
Q25.25 66.2188 20.875 63.0938
Q16.5 59.9688 16.5 54.2031
Q16.5 49.3594 19.4062 46.8906
Q22.3125 44.4375 30.4219 42.9219
L36.375 41.7031
Q47.4062 39.5938 52.6562 34.2969
Q57.9062 29 57.9062 20.125
Q57.9062 9.51562 50.7969 4.04688
Q43.7031 -1.42188 29.9844 -1.42188
Q24.8125 -1.42188 18.9688 -0.25
Q13.1406 0.921875 6.89062 3.21875
L6.89062 13.375
Q12.8906 10.0156 18.6562 8.29688
Q24.4219 6.59375 29.9844 6.59375
Q38.4219 6.59375 43.0156 9.90625
Q47.6094 13.2344 47.6094 19.3906
Q47.6094 24.75 44.3125 27.7812
Q41.0156 30.8125 33.5 32.3281
L27.4844 33.5
Q16.4531 35.6875 11.5156 40.375
Q6.59375 45.0625 6.59375 53.4219
Q6.59375 63.0938 13.4062 68.6562
Q20.2188 74.2188 32.1719 74.2188
Q37.3125 74.2188 42.625 73.2812
Q47.9531 72.3594 53.5156 70.5156" id="BitstreamVeraSans-Roman-53"/>
      <path d="
M4.20312 54.6875
L13.1875 54.6875
L24.4219 12.0156
L35.5938 54.6875
L46.1875 54.6875
L57.4219 12.0156
L68.6094 54.6875
L77.5938 54.6875
L63.2812 0
L52.6875 0
L40.9219 44.8281
L29.1094 0
L18.5 0
z
" id="BitstreamVeraSans-Roman-77"/>
      <path d="
M34.2812 27.4844
Q23.3906 27.4844 19.1875 25
Q14.9844 22.5156 14.9844 16.5
Q14.9844 11.7188 18.1406 8.90625
Q21.2969 6.10938 26.7031 6.10938
Q34.1875 6.10938 38.7031 11.4062
Q43.2188 16.7031 43.2188 25.4844
L43.2188 27.4844
z

M52.2031 31.2031
L52.2031 0
L43.2188 0
L43.2188 8.29688
Q40.1406 3.32812 35.5469 0.953125
Q30.9531 -1.42188 24.3125 -1.42188
Q15.9219 -1.42188 10.9531 3.29688
Q6 8.01562 6 15.9219
Q6 25.1406 12.1719 29.8281
Q18.3594 34.5156 30.6094 34.5156
L43.2188 34.5156
L43.2188 35.4062
Q43.2188 41.6094 39.1406 45
Q35.0625 48.3906 27.6875 48.3906
Q23 48.3906 18.5469 47.2656
Q14.1094 46.1406 10.0156 43.8906
L10.0156 52.2031
Q14.9375 54.1094 19.5781 55.0469
Q24.2188 56 28.6094 56
Q40.4844 56 46.3438 49.8438
Q52.2031 43.7031 52.2031 31.2031" id="BitstreamVeraSans-Roman-61"/>
      <path d="
M44.2812 53.0781
L44.2812 44.5781
Q40.4844 46.5312 36.375 47.5
Q32.2812 48.4844 27.875 48.4844
Q21.1875 48.4844 17.8438 46.4375
Q14.5 44.3906 14.5 40.2812
Q14.5 37.1562 16.8906 35.375
Q19.2812 33.5938 26.5156 31.9844
L29.5938 31.2969
Q39.1562 29.25 43.1875 25.5156
Q47.2188 21.7812 47.2188 15.0938
Q47.2188 7.46875 41.1875 3.01562
Q35.1562 -1.42188 24.6094 -1.42188
Q20.2188 -1.42188 15.4531 -0.5625
Q10.6875 0.296875 5.42188 2
L5.42188 11.2812
Q10.4062 8.6875 15.2344 7.39062
Q20.0625 6.10938 24.8125 6.10938
Q31.1562 6.10938 34.5625 8.28125
Q37.9844 10.4531 37.9844 14.4062
Q37.9844 18.0625 35.5156 20.0156
Q33.0625 21.9688 24.7031 23.7812
L21.5781 24.5156
Q13.2344 26.2656 9.51562 29.9062
Q5.8125 33.5469 5.8125 39.8906
Q5.8125 47.6094 11.2812 51.7969
Q16.75 56 26.8125 56
Q31.7812 56 36.1719 55.2656
Q40.5781 54.5469 44.2812 53.0781" id="BitstreamVeraSans-Roman-73"/>
      <path d="
M18.1094 8.20312
L18.1094 -20.7969
L9.07812 -20.7969
L9.07812 54.6875
L18.1094 54.6875
L18.1094 46.3906
Q20.9531 51.2656 25.2656 53.625
Q29.5938 56 35.5938 56
Q45.5625 56 51.7812 48.0938
Q58.0156 40.1875 58.0156 27.2969
Q58.0156 14.4062 51.7812 6.48438
Q45.5625 -1.42188 35.5938 -1.42188
Q29.5938 -1.42188 25.2656 0.953125
Q20.9531 3.32812 18.1094 8.20312
M48.6875 27.2969
Q48.6875 37.2031 44.6094 42.8438
Q40.5312 48.4844 33.4062 48.4844
Q26.2656 48.4844 22.1875 42.8438
Q18.1094 37.2031 18.1094 27.2969
Q18.1094 17.3906 22.1875 11.75
Q26.2656 6.10938 33.4062 6.10938
Q40.5312 6.10938 44.6094 11.75
Q48.6875 17.3906 48.6875 27.2969" id="BitstreamVeraSans-Roman-70"/>
     </defs>
     <g transform="translate(170.022375 414.86175)scale(0.144 -0.144)">
      <use xlink:href="#BitstreamVeraSans-Roman-53"/>
      <use x="63.4765625" xlink:href="#BitstreamVeraSans-Roman-63"/>
      <use x="118.45703125" xlink:href="#BitstreamVeraSans-Roman-68"/>
      <use x="181.8359375" xlink:href="#BitstreamVeraSans-Roman-77"/>
      <use x="263.623046875" xlink:href="#BitstreamVeraSans-Roman-61"/>
      <use x="324.90234375" xlink:href="#BitstreamVeraSans-Roman-72"/>
      <use x="366.015625" xlink:href="#BitstreamVeraSans-Roman-7a"/>
      <use x="418.505859375" xlink:href="#BitstreamVeraSans-Roman-6d"/>
      <use x="515.91796875" xlink:href="#BitstreamVeraSans-Roman-61"/>
      <use x="577.197265625" xlink:href="#BitstreamVeraSans-Roman-72"/>
      <use x="618.310546875" xlink:href="#BitstreamVeraSans-Roman-6b"/>
      <use x="676.220703125" xlink:href="#BitstreamVeraSans-Roman-74"/>
      <use x="715.4296875" xlink:href="#BitstreamVeraSans-Roman-70"/>
      <use x="778.90625" xlink:href="#BitstreamVeraSans-Roman-72"/>
      <use x="817.76953125" xlink:href="#BitstreamVeraSans-Roman-65"/>
      <use x="879.29296875" xlink:href="#BitstreamVeraSans-Roman-69"/>
      <use x="907.076171875" xlink:href="#BitstreamVeraSans-Roman-73"/>
     </g>
    </g>
    <g id="line2d_33">
     <path d="
M339.609 409.822
L359.769 409.822" style="fill:none;stroke:#008000;stroke-linecap:square;"/>
    </g>
    <g id="line2d_34"/>
    <g id="text_17">
     <!-- Normalpreis -->
     <defs>
      <path d="
M9.42188 75.9844
L18.4062 75.9844
L18.4062 0
L9.42188 0
z
" id="BitstreamVeraSans-Roman-6c"/>
     </defs>
     <g transform="translate(375.609375 414.86175)scale(0.144 -0.144)">
      <use xlink:href="#BitstreamVeraSans-Roman-4e"/>
      <use x="74.8046875" xlink:href="#BitstreamVeraSans-Roman-6f"/>
      <use x="135.986328125" xlink:href="#BitstreamVeraSans-Roman-72"/>
      <use x="175.349609375" xlink:href="#BitstreamVeraSans-Roman-6d"/>
      <use x="272.76171875" xlink:href="#BitstreamVeraSans-Roman-61"/>
      <use x="334.041015625" xlink:href="#BitstreamVeraSans-Roman-6c"/>
      <use x="361.82421875" xlink:href="#BitstreamVeraSans-Roman-70"/>
      <use x="425.30078125" xlink:href="#BitstreamVeraSans-Roman-72"/>
      <use x="464.1640625" xlink:href="#BitstreamVeraSans-Roman-65"/>
      <use x="525.6875" xlink:href="#BitstreamVeraSans-Roman-69"/>
      <use x="553.470703125" xlink:href="#BitstreamVeraSans-Roman-73"/>
     </g>
    </g>
   </g>
  </g>
 </g>
 <defs>
  <clipPath id="pcb2bf987bf">
   <rect height="302.4" width="446.4" x="72.0" y="43.2"/>
  </clipPath>
 </defs>
</svg>
