<?xml version="1.0" encoding="utf-8" standalone="no"?>
<!DOCTYPE svg PUBLIC "-//W3C//DTD SVG 1.1//EN"
  "http://www.w3.org/Graphics/SVG/1.1/DTD/svg11.dtd">
<!-- Created with matplotlib (http://matplotlib.org/) -->
<svg height="432pt" version="1.1" viewBox="0 0 576 432" width="576pt" xmlns="http://www.w3.org/2000/svg" xmlns:xlink="http://www.w3.org/1999/xlink">
 <defs>
  <style type="text/css">
*{stroke-linecap:butt;stroke-linejoin:round;}
  </style>
 </defs>
 <g id="figure_1">
  <g id="patch_1">
   <path d="
M0 432
L576 432
L576 0
L0 0
z
" style="fill:#ffffff;"/>
  </g>
  <g id="axes_1">
   <g id="patch_2">
    <path d="
M72 345.6
L518.4 345.6
L518.4 43.2
L72 43.2
z
" style="fill:#ffffff;"/>
   </g>
   <g id="line2d_1">
    <path clip-path="url(#pcb2bf987bf)" d="
M73.415 433
L73.5314 123.797
L73.5896 433
M73.798 433
L73.9142 124.418
L73.9724 433
M76.8607 433
L76.9772 123.595
L77.1517 433
M77.8126 433
L77.8703 127.137
L77.986 433
M79.3435 433
L79.4017 123.875
L79.6569 122.508
L79.7153 433
M79.9237 433
L80.0398 125.108
L80.1674 125.108
L80.2835 433
M81.6408 433
L81.6988 125.546
L81.8149 433
M82.4063 433
L82.4645 122.498
L82.7197 117.412
L82.8473 124.195
L83.1026 124.198
L83.2302 108.837
L83.4854 112.286
L83.613 112.286
L83.7317 433
M84.8403 433
L85.017 116.713
L85.1444 116.713
L85.2623 433
M85.666 433
L85.7825 123.151
L85.8407 433
M87.0003 433
L87.0587 121.84
L87.1754 433
M87.3832 433
L87.4415 122.135
L87.6967 125.217
L87.7548 433
M88.7294 433
L88.8453 125.91
L88.8453 125.91
L88.8453 125.91
L88.9032 433
M90.1332 433
L90.2491 126.45
L90.3767 123.067
L91.0148 122.647
L91.3645 433
M93.7304 433
L94.0775 126.87
L94.2051 123.486
L94.4962 433
M96.0858 433
L96.3746 127.895
L97.1403 126.836
L97.4875 433
M97.9749 433
L98.0336 118.003
L98.3274 433
M98.741 433
L98.7993 122.865
L99.0907 433
M99.8488 433
L100.203 115.184
L100.262 433
M100.679 433
L100.969 125.344
L101.317 433
M102.21 433
L102.5 125.351
L103.266 114.081
L103.393 114.081
L103.689 433
M107.513 433
L107.86 126.513
L107.988 123.129
L108.279 433
M111.4 433
L111.689 128.367
L111.816 121.607
L113.986 125.568
L114.392 433
M117.467 433
L117.814 126.27
L117.942 125.351
L118.707 104.114
L119.345 123.067
L120.111 127.038
L120.458 433
M122.883 433
L123.174 124.589
L123.523 433
M124.415 433
L124.705 124.853
L125.054 433
M125.812 433
L126.109 112.41
L126.168 433
M128.603 433
L128.661 125.226
L129.299 128.588
L129.646 433
M130.135 433
L130.193 123.763
L130.484 433
M131.247 433
L131.597 123.368
L131.946 433
M134.033 433
L134.149 127.821
L134.38 433
M135.078 433
L135.425 127.821
L135.772 433
M142.025 433
L142.316 122.275
L143.082 127.33
L143.848 127.33
L143.975 128.023
L144.264 433
M145.031 433
L145.379 124.605
L145.437 433
M146.622 433
L146.91 127.637
L147.038 127.637
L147.327 433
M148.856 433
L149.208 120.255
L149.266 433
M149.682 433
L149.973 123.642
L150.322 433
M151.216 433
L151.505 129.026
L151.85 433
M152.682 433
L153.036 116.384
L153.095 433
M154.221 433
L154.567 128.743
L154.913 433
M157.699 433
L157.758 120.706
L158.05 433
M160.344 433
L160.693 124.683
L160.821 128.051
L161.456 433
M167.654 433
L167.712 127.507
L168.35 129.06
L168.696 433
M169.595 433
L169.881 133.429
L170.775 133.084
L171.061 433
M173.014 433
L173.072 126.78
L173.71 123.067
L174.059 433
M175.373 433
L176.007 129.421
L176.352 433
M177.249 433
L177.538 126.221
L177.886 433
M179.491 433
L179.835 131.229
L179.893 433
M181.08 433
L181.367 131.229
L181.711 433
M182.203 433
L182.26 131.077
L182.898 120.295
L183.249 433
M185.617 433
L185.961 132.17
L186.305 433
M188.68 433
L189.024 132.528
L189.151 135.852
L190.555 130.368
L190.9 433
M192.163 433
L192.852 130.943
L193.197 433
M194.803 433
L195.149 128.374
L195.277 125.009
L195.567 433
M202.464 433
L202.806 135.312
L203.148 433
M204.051 433
L204.338 131.549
L204.682 433
M206.067 433
L206.124 135.399
L206.295 433
M207.683 433
L207.911 134.78
L208.804 134.78
L208.918 433
M209.513 433
L209.57 134.855
L209.684 433
M211.127 433
L211.356 131.021
L211.484 131.021
L211.739 134.05
L211.867 125.164
L212.122 134.05
L212.25 124.885
L212.633 116.884
L212.888 125.04
L213.271 115.408
L213.398 134.355
L213.654 113.73
L213.654 113.73
L213.781 117.148
L214.036 120.069
L214.164 109.785
L214.419 120.069
L214.547 130.716
L214.662 433
M215.638 433
L215.695 136.039
L215.809 433
M216.532 433
L216.589 135.821
L216.589 135.821
L216.589 135.821
L216.703 433
M216.985 433
L217.099 136.135
L217.227 136.415
L217.482 136.415
L217.482 136.415
L217.539 433
M218.134 433
L218.248 136.415
L218.248 136.415
L218.248 136.415
L218.305 433
M218.898 433
L219.013 128.551
L219.141 126.081
L219.396 131.9
L219.779 129.188
L219.837 433
M220.049 433
L220.162 138.046
L220.417 138.046
L220.672 129.654
L220.672 129.654
L220.788 433
M221.195 433
L221.31 126.547
L221.368 433
M222.728 433
L222.842 136.287
L222.842 136.287
L222.842 136.287
L223.012 433
M223.294 433
L223.352 124.978
L223.608 131.707
L223.665 433
M223.876 433
L223.99 133.367
L224.118 133.367
L224.232 433
M224.641 433
L224.756 130.275
L224.884 124.465
L225.139 133.624
L225.196 433
M225.72 433
L225.777 132.435
L225.777 132.435
L225.777 132.435
L225.905 135.771
L225.905 135.771
L225.905 135.771
L226.032 135.184
L226.032 135.184
L226.032 135.184
L226.16 128.722
L226.16 128.722
L226.16 128.722
L226.288 132.077
L226.415 135.405
L226.529 433
M226.741 433
L226.798 132.077
L226.913 433
M227.322 433
L227.436 134.864
L227.436 134.864
L227.436 134.864
L227.607 433
M228.272 433
L228.329 133.982
L228.444 433
M229.038 433
L229.095 134.078
L229.478 134.075
L229.733 130.741
L229.861 130.741
L230.116 114.367
L230.244 130.741
L230.499 114.367
L230.499 114.367
L230.882 134.078
L231.009 117.788
L231.127 433
M231.718 433
L231.775 134.361
L232.03 134.383
L232.158 131.052
L232.273 433
M232.866 433
L232.924 129.387
L233.179 131.642
L233.236 433
M233.829 433
L233.944 127.836
L234.072 131.767
L234.187 433
M235.547 433
L235.603 136.284
L235.986 136.399
L236.369 135.976
L236.483 433
M236.893 433
L237.007 136.023
L237.39 127.836
L237.518 131.568
L237.773 128.225
L237.901 124.853
L238.017 433
M238.805 433
L238.921 124.853
L238.98 433
M239.374 433
L239.432 128.131
L239.547 433
M239.956 433
L240.07 136.946
L240.198 128.131
L240.313 433
M240.523 433
L240.58 133.615
L240.695 433
M241.289 433
L241.346 136.884
L241.46 433
M242.055 433
L242.112 136.884
L242.495 137.048
L242.608 433
M243.018 433
L243.133 129.467
L243.26 136.138
L243.516 132.807
L243.643 137.052
L243.898 112.304
L244.026 136.141
L244.14 433
M244.35 433
L244.409 112.304
L244.528 433
M245.118 433
L245.175 135.51
L245.289 433
M246.463 433
L246.578 129.874
L246.578 129.874
L246.578 129.874
L246.636 433
M247.031 433
L247.089 129.874
L247.204 433
M247.553 433
L247.727 126.547
L247.785 433
M248.066 433
L248.237 133.466
L248.493 130.12
L248.62 130.12
L248.876 133.466
L248.876 133.466
L248.933 433
M249.143 433
L249.258 130.058
L249.769 130.058
L250.024 113.606
L250.152 130.058
L250.267 433
M251.058 433
L251.173 133.047
L251.23 433
M251.822 433
L251.938 125.677
L251.996 433
M252.207 433
L252.321 135.358
L252.449 135.358
L252.563 433
M253.157 433
L253.214 132.683
L253.329 433
M253.54 433
L253.597 132.683
L253.712 433
M254.122 433
L254.235 136.113
L254.363 136.113
L254.618 130.943
L254.746 136.113
L254.86 433
M255.837 433
L255.894 132.636
L256.277 132.621
L256.392 433
M256.603 433
L256.66 135.964
L256.66 135.964
L256.66 135.964
L256.915 132.574
L257.043 127.588
L257.158 433
M257.95 433
L258.064 136.411
L258.064 136.411
L258.064 136.411
L258.234 433
M258.517 433
L258.574 134.6
L258.631 433
M259.098 433
L259.212 132.947
L259.212 132.947
L259.212 132.947
L259.595 132.947
L259.595 132.947
L259.652 433
M260.247 433
L260.361 136.272
L260.489 136.272
L260.744 126.652
L260.871 126.655
L260.987 433
M261.779 433
L261.892 137.536
L262.275 137.536
L262.332 433
M262.927 433
L263.041 136.635
L263.424 136.626
L263.424 136.626
L263.551 112.892
L263.807 135.604
L263.934 136.626
L264.189 136.632
L264.189 136.632
L264.317 116.325
L264.572 116.325
L264.7 112.394
L264.818 433
M265.224 433
L265.338 134.05
L265.466 134.407
L266.231 134.411
L266.486 106.056
L266.546 433
M267.322 433
L267.38 129.275
L267.635 134.333
L267.763 134.333
L268.018 130.99
L268.145 134.333
L269.166 134.333
L269.224 433
M269.432 433
L269.549 121.308
L269.677 130.415
L269.792 433
M270.003 433
L270.06 133.752
L270.174 433
M270.584 433
L270.698 134.855
L270.825 130.415
L271.081 134.852
L271.463 128.812
L271.636 433
M272.115 433
L272.229 135.479
L272.286 433
M272.881 433
L272.995 134.687
L273.122 127.588
L273.378 134.923
L273.378 134.923
L273.435 433
M274.029 433
L274.143 135.256
L274.2 433
M275.745 433
L275.802 134.796
L276.058 125.863
L276.185 135.604
L276.568 135.579
L276.951 135.921
L277.206 135.921
L277.334 124.527
L277.589 127.898
L277.717 127.836
L277.832 433
M278.042 433
L278.099 133.848
L278.214 433
M278.624 433
L278.738 137.173
L279.248 137.173
L279.503 127.417
L279.561 433
M279.957 433
L280.014 137.216
L280.269 137.219
L280.269 137.219
L280.326 433
M281.304 433
L281.417 136.297
L281.545 134.224
L281.659 433
M282.253 433
L282.311 128.464
L282.694 123.145
L282.81 433
M283.217 433
L283.332 130.26
L283.389 433
M284.365 433
L284.48 130.166
L284.538 433
M285.316 433
L285.374 132.214
L285.629 128.83
L285.756 132.186
L285.871 433
M286.847 433
L286.905 129.809
L287.02 433
M287.231 433
L287.288 133.155
L287.402 433
M287.614 433
L287.671 132.91
L287.785 433
M287.996 433
L288.054 132.91
L288.168 433
M288.762 433
L288.819 133.541
L288.934 433
M289.527 433
L289.585 127.836
L289.84 129.598
L289.898 433
M290.804 433
L290.861 134.091
L290.989 134.091
L291.046 433
M291.964 433
L292.137 127.075
L292.265 135.243
L292.52 131.906
L292.52 131.906
L292.648 135.013
L292.762 433
M293.554 433
L293.669 132.605
L293.669 132.605
L293.669 132.605
L293.796 132.605
L294.051 130.943
L294.179 135.939
L294.293 433
M294.505 433
L294.562 135.917
L294.676 433
M294.888 433
L294.945 135.765
L295.2 130.943
L295.328 132.435
L295.442 433
M295.653 433
L295.71 132.45
L295.825 433
M296.177 433
L296.349 132.45
L296.406 433
M297.184 433
L297.242 130.772
L297.497 133.646
L297.554 433
M298.531 433
L298.646 132.139
L298.773 135.479
L298.887 433
M300.247 433
L300.305 129.343
L300.42 433
M300.63 433
L300.687 125.972
L300.803 433
M301.977 433
L302.091 132.22
L302.149 433
M302.359 433
L302.474 131.369
L302.474 131.369
L302.474 131.369
L302.857 131.13
L302.985 124.015
L303.043 433
M303.253 433
L303.368 130.856
L303.482 433
M304.273 433
L304.388 127.261
L304.771 130.856
L304.899 130.626
L305.154 127.215
L305.212 433
M305.421 433
L305.537 127.355
L305.664 129.772
L305.92 130.704
L306.047 130.704
L306.162 433
M306.57 433
L306.685 129.772
L307.068 129.772
L307.068 129.772
L307.126 433
M308.102 433
L308.217 132.497
L308.344 132.565
L308.6 132.565
L308.6 132.565
L308.657 433
M309.25 433
L309.365 127.292
L309.493 130.648
L309.748 132.055
L309.806 433
M311.931 433
L312.045 132.161
L312.103 433
M312.499 433
L312.556 133.898
L313.194 133.898
L313.251 433
M313.647 433
L313.704 130.555
L313.819 433
M314.03 433
L314.087 134.178
L314.342 124.94
L314.4 433
M314.607 433
L314.725 114.74
L314.853 134.178
L314.967 433
M315.561 433
L315.619 134.535
L316.257 124.919
L316.384 133.618
L316.556 433
M317.475 433
L317.533 130.943
L317.648 433
M319.772 433
L319.83 129.234
L319.945 433
M321.057 433
L321.234 118.515
L321.361 131.537
L321.476 433
M321.827 433
L321.999 131.633
L322.057 433
M322.476 433
L322.765 127.056
L322.823 433
M323.984 433
L324.041 131.956
L324.156 433
M324.366 433
L324.424 128.613
L324.539 433
M324.749 433
L324.807 128.613
L325.062 126.298
L325.19 129.654
L325.445 129.654
L325.573 132.991
L325.828 132.991
L325.956 129.654
L326.071 433
M326.861 433
L326.976 130.943
L327.034 433
M327.429 433
L327.487 130.943
L327.742 91.8571
L327.803 433
M328.776 433
L328.891 131.238
L328.948 433
M329.727 433
L329.784 131.782
L329.899 433
M330.493 433
L330.55 134.886
L330.664 433
M331.072 433
L331.188 128.411
L331.315 134.035
L331.57 131.549
L331.698 132.015
L331.953 134.672
L332.081 114.15
L332.336 114.15
L332.464 110.717
L332.583 433
M333.172 433
L333.23 131.21
L333.485 133.537
L333.612 136.868
L333.726 433
M333.938 433
L333.995 133.537
L334.25 127.33
L334.378 127.308
L334.494 433
M335.284 433
L335.399 130.617
L335.456 433
M335.667 433
L335.782 132.497
L335.839 433
M337.198 433
L337.313 128.846
L337.441 134.473
L337.696 135.538
L337.753 433
M338.149 433
L338.207 130.592
L338.462 127.23
L338.52 433
M339.112 433
L339.227 127.743
L339.285 433
M340.262 433
L340.376 134.199
L340.504 134.199
L340.759 127.681
L340.886 131.033
L341.142 131.03
L341.269 124.546
L341.385 433
M342.361 433
L342.418 134.687
L342.673 134.361
L342.801 130.943
L343.056 131.083
L343.184 134.417
L343.298 433
M344.089 433
L344.204 129.629
L344.262 433
M344.658 433
L344.715 130.322
L344.83 433
M345.04 433
L345.098 130.418
L345.213 433
M345.424 433
L345.481 135.119
L345.736 135.044
L345.793 433
M346.387 433
L346.502 131.782
L346.629 134.982
L346.743 433
M348.104 433
L348.161 135.001
L348.275 433
M348.684 433
L348.799 130.073
L348.856 433
M349.066 433
L349.181 130.092
L349.239 433
M350.017 433
L350.075 130.061
L350.33 131.332
L350.387 433
M350.599 433
L350.713 134.675
L350.84 134.672
L350.955 433
M351.166 433
L351.224 131.077
L351.396 433
M351.747 433
L351.861 131.627
L351.989 134.97
L352.103 433
M352.896 433
L353.01 134.727
L353.067 433
M353.279 433
L353.393 134.936
L353.45 433
M353.662 433
L353.776 134.703
L353.776 134.703
L353.776 134.703
L353.947 433
M355.192 433
L355.307 132.45
L355.307 132.45
L355.307 132.45
L355.364 433
M355.574 433
L355.69 127.939
L355.817 127.936
L355.933 433
M356.143 433
L356.2 132.503
L356.372 433
M357.362 433
L357.477 131.67
L357.732 128.318
L357.987 127.541
L358.115 124.17
L358.37 127.525
L358.37 127.525
L358.428 433
M359.02 433
L359.136 125.574
L359.263 125.571
L359.518 130.316
L360.029 130.316
L360.144 433
M360.935 433
L361.05 130.154
L361.107 433
M361.316 433
L361.433 124.465
L361.491 433
M363.417 433
L363.474 131.304
L363.73 127.945
L363.787 433
M364.182 433
L364.24 123.797
L364.623 123.797
L364.878 122.725
L364.937 433
M365.331 433
L365.389 131.574
L365.644 128.225
L365.772 128.225
L366.027 131.577
L366.027 131.577
L366.155 130.971
L366.269 433
M366.48 433
L366.537 130.971
L366.792 127.619
L366.85 433
M367.826 433
L367.941 128.473
L367.999 433
M368.208 433
L368.324 128.473
L368.451 128.576
L368.567 433
M368.916 433
L369.09 128.576
L369.263 433
M369.925 433
L369.983 129.094
L370.366 128.83
L370.621 132.447
L370.749 132.447
L370.863 433
M371.456 433
L371.514 123.589
L371.631 433
M372.038 433
L372.152 132.155
L372.28 126.972
L372.535 126.969
L372.593 433
M372.802 433
L372.918 126.972
L372.976 433
M373.186 433
L373.301 130.738
L373.358 433
M373.569 433
L373.684 130.738
L373.684 130.738
L373.684 130.738
L373.811 130.738
L373.926 433
M375.285 433
L375.343 130.878
L375.598 126.966
L375.726 127.028
L375.981 130.865
L376.108 130.878
L376.364 111.754
L376.423 433
M376.628 433
L376.746 115.184
L376.806 433
M377.011 433
L377.129 116.325
L377.257 119.733
L377.64 119.733
L377.698 433
M378.731 433
L378.788 129.175
L378.904 433
M379.113 433
L379.171 125.941
L379.426 125.941
L379.554 129.3
L379.809 129.3
L379.867 433
M380.076 433
L380.192 125.894
L380.366 433
M380.645 433
L380.703 129.256
L380.958 130.53
L381.015 433
M381.992 433
L382.107 131.142
L382.164 433
M382.374 433
L382.489 131.527
L382.617 128.178
L382.732 433
M382.942 433
L383 131.527
L383.114 433
M383.325 433
L383.383 132.257
L383.497 433
M383.849 433
L384.021 132.195
L384.078 433
M384.289 433
L384.403 132.195
L384.461 433
M384.672 433
L384.786 131.9
L384.958 433
M385.239 433
L385.297 128.007
L385.412 433
M385.622 433
L385.68 131.9
L385.935 131.658
L385.992 433
M386.967 433
L387.083 122.688
L387.142 433
M387.734 433
L387.849 130.726
L387.977 130.726
L388.232 134.066
L388.232 134.066
L388.36 134.069
L388.615 276.956
L389.125 190.222
L389.38 79.3359
L389.508 183.84
L389.763 180.668
L389.891 180.668
L390.146 183.759
L390.274 190.222
L390.912 190.222
L391.039 84.9907
L391.295 190.222
L391.422 84.9876
L391.678 87.4452
L391.805 196.33
L392.06 196.33
L392.188 87.8211
L392.443 93.3392
L392.571 93.3392
L392.826 196.33
L392.954 196.33
L393.209 93.7679
L393.337 97.2944
L393.719 279.566
L393.975 96.6574
L394.102 93.7679
L394.102 93.7679
L394.485 279.566
L394.74 279.566
L394.868 99.4071
L395.123 104.338
L395.251 104.338
L395.506 97.5585
L395.634 101.06
L395.889 101.06
L396.016 97.5585
L396.272 297.553
L397.165 297.553
L397.42 110.042
L397.548 297.553
L398.186 297.553
L398.314 114.647
L398.569 111.214
L398.696 111.54
L398.952 297.553
L399.079 114.647
L399.462 118.708
L399.717 297.553
L399.845 124.046
L400.1 124.046
L400.228 297.553
L400.611 297.553
L400.866 121.203
L400.993 297.553
L401.249 117.521
L401.376 297.553
L401.632 124.592
L401.759 297.553
L402.142 297.553
L402.397 120.653
L402.525 120.653
L402.78 117.241
L402.908 297.553
L403.163 123.424
L403.291 297.553
L403.673 297.553
L403.929 118.608
L404.056 124.381
L404.311 124.381
L404.439 297.553
L405.205 297.553
L405.46 121.715
L405.588 121.715
L405.843 125.105
L406.226 118.857
L406.353 122.259
L406.609 125.105
L406.736 297.553
L406.991 119.805
L407.119 123.201
L407.374 123.176
L407.502 118.36
L407.757 125.139
L407.885 297.553
L408.523 297.553
L408.65 125.717
L408.906 297.553
L409.416 297.553
L409.671 122.337
L409.799 133.025
L410.054 133.034
L410.182 123.893
L410.437 117.101
L410.565 131.533
L410.82 131.63
L410.948 297.553
L411.203 297.553
L411.33 131.63
L411.586 297.553
L411.968 297.553
L412.096 128.924
L412.351 129.241
L412.479 297.553
L412.607 129.241
L412.989 297.553
L413.627 297.553
L413.883 131.033
L414.01 297.553
L414.393 297.553
L414.648 131.033
L414.776 127.476
L415.031 130.841
L415.159 130.841
L415.414 297.553
L415.797 297.553
L415.925 128.663
L416.18 131.027
L416.307 131.027
L416.563 297.553
L416.69 131.024
L416.945 297.553
L417.839 297.553
L418.094 128.24
L418.222 297.553
L421.284 297.553
L421.54 124.077
L421.667 127.292
L421.922 297.553
L422.05 297.553
L422.305 128.411
L422.433 130.806
L422.816 127.473
L423.071 131.518
L423.199 297.553
L424.602 297.553
L424.73 131.561
L424.985 297.553
L425.113 123.315
L425.368 297.553
L425.496 297.553
L425.751 127.432
L425.879 130.785
L426.134 131.108
L426.261 124.387
L426.378 433
M426.587 433
L426.644 136.862
L426.899 136.862
L427.07 433
M427.552 433
L427.665 136.589
L427.793 136.536
L428.431 136.589
L428.488 433
M430.23 433
L430.345 130.12
L430.473 127.79
L430.589 433
M431.124 433
L431.238 133.224
L431.494 129.887
L431.621 131.139
L431.877 130.897
L431.934 433
M432.145 433
L432.259 133.211
L432.642 133.211
L432.642 133.211
L432.699 433
M433.291 433
L433.408 122.43
L433.536 115.268
L433.791 129.188
L433.918 129.188
L434.034 433
M434.824 433
L434.939 128.644
L435.067 131.99
L435.182 433
M435.588 433
L435.705 120.951
L435.763 433
M436.738 433
L436.854 127.743
L436.981 127.743
L437.236 124.372
L437.364 131.095
L437.619 131.095
L437.677 433
M438.072 433
L438.13 130.943
L438.385 110.906
L438.513 133.426
L438.627 433
M439.604 433
L439.661 132.177
L439.916 134.504
L439.973 433
M440.369 433
L440.427 131.176
L440.542 433
M441.518 433
L441.575 134.283
L441.689 433
M441.901 433
L441.958 134.507
L442.341 134.637
L442.455 433
M442.667 433
L442.724 134.749
L442.838 433
M443.049 433
L443.107 131.409
L443.362 134.743
L443.49 134.749
L443.745 108.138
L443.872 111.587
L443.991 433
M445.162 433
L445.276 135.166
L445.659 135.184
L445.83 433
M447.459 433
L447.573 133.354
L447.956 133.354
L448.084 127.619
L448.339 130.98
L448.467 127.619
L448.582 433
M449.175 433
L449.232 132.86
L449.487 132.86
L449.487 132.86
L449.615 131.313
L449.87 131.316
L449.998 127.96
L450.126 132.86
L450.381 132.86
L450.495 433
M451.285 433
L451.402 121.094
L451.46 433
M451.67 433
L451.785 132.114
L451.912 132.114
L452.027 433
M453.201 433
L453.316 128.287
L453.374 433
M454.35 433
L454.465 132.236
L454.522 433
M454.917 433
L454.975 128.939
L455.23 132.295
L455.358 132.236
L455.613 128.939
L455.671 433
M456.066 433
L456.123 129.063
L456.239 433
M456.646 433
L456.762 128.473
L456.819 433
M457.412 433
L457.527 127.137
L457.655 127.137
L457.771 433
M459.895 433
L459.952 132.481
L460.067 433
M461.241 433
L461.356 132.22
L461.413 433
M462.389 433
L462.504 129.063
L462.562 433
M463.34 433
L463.398 131.487
L463.512 433
M464.106 433
L464.163 131.735
L464.546 131.748
L464.661 433
M465.637 433
L465.695 129.405
L465.81 433
M466.02 433
L466.078 126.05
L466.193 433
M466.403 433
L466.46 132.27
L466.716 132.27
L466.773 433
M466.984 433
L467.098 132.27
L467.098 132.27
L467.098 132.27
L467.156 433
M467.365 433
L467.481 121.793
L467.864 128.924
L467.992 125.177
L468.247 125.177
L468.63 128.504
L468.688 433
M469.279 433
L469.396 123.269
L469.454 433
M471.96 433
L472.075 127.23
L472.133 433
M472.528 433
L472.586 130.583
L472.701 433
M473.294 433
L473.352 127.432
L473.467 433
M475.591 433
L475.649 129.154
L475.904 130.909
L475.961 433
M477.32 433
L477.435 128.877
L477.563 128.877
L477.678 433
M478.469 433
L478.584 132.372
L478.641 433
M478.851 433
L478.967 127.836
L479.094 128.013
L479.21 433
M479.618 433
L479.732 132.745
L479.79 433
M480.951 433
L481.009 128.861
L481.124 433
M481.532 433
L481.647 131.881
L481.704 433
M482.482 433
L482.54 123.859
L482.795 130.583
L483.306 130.583
L483.421 433
M483.631 433
L483.689 126.41
L483.804 433
M484.013 433
L484.071 123.036
L484.327 130.943
L484.454 127.603
L484.57 433
M484.779 433
L484.837 127.603
L485.092 126.5
L485.15 433
M485.36 433
L485.475 129.862
L485.648 433
M485.928 433
L485.986 129.862
L486.101 433
M486.693 433
L486.751 125.071
L486.867 433
M487.076 433
L487.134 128.426
L487.517 128.439
L487.772 125.071
L487.9 128.442
L488.015 433
M488.224 433
L488.283 120.979
L488.538 120.979
L488.666 128.442
L488.781 433
M489.571 433
L489.686 128.212
L489.744 433
M490.337 433
L490.452 128.747
L490.51 433
M490.72 433
L490.835 128.212
L490.893 433
M491.671 433
L491.728 128.402
L491.844 433
M493.017 433
L493.132 129.542
L493.515 121.684
L493.573 433
M493.783 433
L493.898 129.542
L493.955 433
M494.35 433
L494.408 125.04
L494.524 433
M495.116 433
L495.174 129.502
L495.289 433
M495.499 433
L495.557 129.004
L495.684 129.004
L495.812 125.646
L495.812 125.646
L495.87 433
M497.228 433
L497.343 129.355
L497.401 433
M498.179 433
L498.237 124.543
L498.353 433
M498.759 433
L498.875 126.997
L498.933 433
M500.094 433
L500.151 131.835
L500.406 131.835
L500.534 128.489
L500.789 131.835
L501.172 131.835
L501.229 433
M501.44 433
L501.555 131.835
L501.612 433
M502.205 433
L502.32 130.763
L502.831 130.763
L502.946 433
M503.539 433
L503.597 130.157
L503.712 433
M504.304 433
L504.362 122.803
L504.479 433
M505.013 433
L505.128 129.554
L505.383 122.865
L505.441 433
M506.417 433
L506.532 129.554
L506.589 433
M506.799 433
L506.915 126.189
L506.973 433
M507.182 433
L507.297 129.346
L507.425 129.337
L507.54 433
M507.749 433
L507.808 118.531
L508.063 125.319
L508.121 433
M508.329 433
L508.446 121.933
L508.504 433
M508.713 433
L508.829 124.387
L509.003 433
M509.282 433
L509.339 128.023
L509.455 433
M509.665 433
L509.722 131.369
L509.977 131.254
L510.15 433
M510.628 433
L510.743 131.378
L510.871 131.378
L510.986 433
M511.579 433
L511.636 127.41
L511.752 433
M512.542 433
L512.657 131.064
L512.785 131.064
L512.9 433
M513.307 433
L513.423 124.418
L513.481 433
M513.69 433
L513.806 124.418
L513.933 127.793
L514.049 433
M514.456 433
L514.572 126.895
L514.699 125.925
L514.815 433
M515.222 433
L515.337 129.032
L515.465 125.661
L515.72 129.228
L515.848 129.188
L516.231 129.228
L516.346 433
M517.52 433
L517.634 132.124
L517.692 433
L517.692 433" style="fill:none;stroke:#ff0000;stroke-linecap:square;"/>
   </g>
   <g id="line2d_2">
    <path clip-path="url(#pcb2bf987bf)" d="
M72 159.866
L72.1276 159.742
L72.7657 159.742
L72.8933 159.304
L73.5314 159.304
L73.659 159.9
L74.2971 159.9
L74.4247 159.717
L75.8285 159.615
L75.9561 159.121
L76.5942 159.121
L76.7218 152.701
L77.3599 152.701
L77.7429 159.276
L78.8915 159.382
L79.0189 158.083
L79.6569 158.083
L79.7846 157.343
L80.4226 157.343
L80.5503 155.746
L81.1885 155.746
L81.316 157.76
L81.9542 157.76
L82.0816 156.476
L82.7197 156.476
L82.8473 145.13
L83.4854 145.13
L83.613 156.607
L84.2511 156.607
L84.3787 152.593
L85.017 152.593
L85.1444 155.479
L85.7825 155.479
L85.9101 151.418
L86.5482 151.418
L86.6758 157.446
L87.3139 157.446
L87.4415 157.729
L88.0796 157.729
L88.2072 158.105
L88.8453 158.105
L88.8453 158.105
L88.9729 158.282
L89.611 158.282
L89.7386 158.62
L90.3767 158.62
L91.0148 158.499
L91.9081 158.648
L92.5461 153.41
L92.6738 153.41
L93.3118 159.071
L94.2051 159.021
L94.8432 149.517
L94.9708 149.517
L95.6089 159.816
L95.7365 159.816
L96.3746 159.997
L97.1403 158.987
L97.906 153.817
L98.0336 153.817
L98.6717 158.428
L98.7993 158.428
L99.4374 147.892
L100.203 157.424
L100.331 157.424
L100.969 157.567
L101.862 157.573
L102.5 157.157
L103.266 146.842
L103.393 146.842
L104.032 152.484
L104.797 157.955
L106.329 159.543
L107.095 159.938
L107.988 158.679
L108.626 158.679
L109.391 160.817
L109.519 160.817
L110.285 160.289
L111.05 160.146
L111.816 160.447
L113.986 160.988
L114.879 156.156
L116.283 160.152
L116.41 160.152
L117.048 157.676
L117.942 158.449
L118.58 143.955
L118.707 143.955
L119.345 158.62
L120.111 159.18
L120.877 148.964
L121.004 148.964
L121.643 159.406
L122.408 154.317
L122.536 154.317
L123.174 160.062
L124.067 160.587
L124.705 160.553
L125.471 145.248
L126.109 161.044
L126.365 161.044
L127.13 160.805
L127.13 160.805
L128.661 160.655
L129.299 161.072
L130.065 156.06
L130.193 156.06
L130.831 155.684
L131.597 160.152
L132.362 156.188
L132.362 156.188
L133.894 155.342
L134.149 159.925
L134.659 159.925
L135.425 158.894
L136.956 157.819
L138.488 157.502
L139.381 157.517
L140.019 157.409
L141.678 157.893
L142.316 157.862
L143.082 159.459
L143.975 160.118
L144.613 157.62
L145.379 160.071
L145.507 160.071
L147.038 159.751
L147.676 159.385
L148.442 160.009
L149.208 155.951
L149.335 155.951
L149.973 160.581
L150.867 161.361
L151.505 161.075
L152.27 149.032
L153.164 149.032
L153.802 155.535
L154.567 160.805
L155.333 159.804
L155.333 159.804
L156.099 149.66
L156.865 159.583
L157.758 159.583
L158.396 151.198
L159.162 159.413
L159.927 159.872
L160.821 160.146
L162.224 159.872
L163.118 160.071
L163.883 160.469
L164.521 161.74
L164.649 161.74
L165.287 161.973
L166.053 156.458
L166.819 145.922
L167.584 159.627
L167.712 159.627
L168.35 161.106
L169.243 160.152
L169.881 165.266
L170.775 164.937
L171.413 155.134
L172.178 163.734
L172.944 162.134
L173.072 162.134
L173.71 156.265
L174.475 161.457
L176.007 161.451
L176.9 161.168
L177.538 161.597
L178.304 161.836
L179.07 161.386
L179.835 163.172
L179.963 163.172
L180.729 163.299
L181.367 163.116
L182.26 163.026
L182.898 152.757
L183.664 151.25
L183.791 151.25
L184.43 166.291
L185.195 166.997
L185.961 166.655
L186.727 166.615
L187.492 167.376
L188.258 167.028
L189.151 167.575
L190.555 165.536
L191.321 159.276
L191.321 159.276
L192.852 166.086
L193.618 165.54
L194.384 160.453
L195.149 164.965
L195.277 164.965
L195.915 160.015
L196.681 164.797
L198.212 151.263
L198.212 151.263
L198.978 160.814
L200.509 167.13
L202.04 166.928
L202.806 167.059
L203.572 162.308
L203.699 162.308
L204.338 166.658
L205.103 162.153
L205.231 162.153
L205.869 167.165
L207.4 167.261
L207.911 166.552
L208.166 166.552
L208.804 159.639
L209.059 159.639
L209.059 159.639
L209.442 166.624
L209.825 166.624
L210.591 165.536
L210.846 166.149
L211.356 166.149
L211.484 157.396
L212.122 157.396
L212.25 152.76
L212.888 152.76
L213.271 149.762
L213.654 149.762
L213.654 149.762
L213.781 155.768
L214.419 155.768
L214.547 162.684
L215.185 162.684
L215.185 162.684
L215.313 167.755
L216.589 167.845
L216.589 167.845
L216.844 168.109
L218.248 168.022
L218.248 168.022
L218.375 163.815
L219.013 163.815
L219.141 161.466
L219.779 161.466
L219.907 169.663
L220.545 169.663
L220.672 161.917
L220.672 161.917
L221.31 161.917
L221.438 163.765
L222.076 163.765
L222.204 167.988
L222.842 167.988
L222.842 167.988
L223.225 163.629
L223.608 163.629
L223.735 168.379
L224.373 168.379
L224.501 165.453
L225.139 165.453
L225.267 167.497
L225.905 167.497
L225.905 167.497
L226.032 167.149
L226.032 167.149
L226.67 167.149
L226.798 166.633
L227.436 166.633
L227.436 166.633
L227.819 155.777
L228.202 155.777
L228.329 165.794
L229.733 165.884
L229.861 150.371
L230.499 150.371
L230.499 150.371
L230.882 151.645
L231.264 151.645
L231.264 151.645
L231.392 166.177
L232.03 166.177
L232.158 161.417
L232.796 161.417
L232.796 161.417
L232.924 166.745
L233.562 166.745
L233.689 166.872
L234.327 166.872
L234.327 166.872
L234.455 167.985
L235.093 167.985
L235.093 167.985
L235.221 168.097
L236.624 168.143
L236.752 167.736
L237.39 167.736
L237.518 163.498
L239.687 163.408
L239.815 168.615
L240.453 168.615
L240.453 168.615
L240.58 164.02
L241.219 164.02
L241.346 168.556
L241.984 168.556
L242.112 168.718
L242.75 168.718
L242.878 167.851
L243.516 167.851
L243.643 145.148
L244.281 145.148
L244.409 167.457
L245.047 167.457
L245.047 167.457
L245.175 161.883
L246.578 161.883
L246.578 161.883
L246.706 155.417
L247.344 155.417
L247.727 165.098
L247.855 165.098
L248.237 165.303
L249.641 165.241
L249.641 165.241
L249.769 146.388
L250.407 146.388
L250.534 164.903
L251.173 164.903
L251.3 161.087
L251.938 161.087
L252.066 167.105
L252.704 167.105
L252.832 167.727
L254.235 167.823
L254.363 165.064
L255.001 165.064
L255.129 167.954
L255.129 167.954
L255.767 167.954
L255.767 167.954
L255.894 167.68
L257.298 167.624
L257.426 168.106
L258.064 168.106
L258.064 168.106
L258.447 166.382
L258.83 166.382
L258.957 167.979
L259.595 167.979
L259.595 167.979
L259.723 158.872
L261.127 158.816
L261.254 169.178
L261.892 169.178
L262.02 164.188
L262.658 164.188
L262.786 168.32
L263.424 168.32
L263.424 168.32
L263.551 148.976
L264.189 148.976
L264.189 148.976
L264.317 148.498
L264.955 148.498
L264.955 148.498
L265.083 166.201
L265.593 166.201
L265.848 142.495
L266.486 142.495
L266.614 161.311
L267.252 161.311
L267.38 166.127
L268.018 166.127
L268.145 144.527
L268.784 144.527
L268.911 153.724
L269.549 153.724
L269.677 165.574
L270.315 165.574
L270.443 166.624
L271.081 166.624
L271.463 160.87
L271.846 160.87
L271.974 167.239
L272.612 167.239
L272.74 166.689
L273.378 166.689
L273.378 166.689
L273.506 167.006
L274.143 167.006
L274.271 166.304
L274.909 166.304
L274.909 166.304
L275.037 166.789
L275.675 166.789
L275.802 167.64
L276.441 167.64
L276.568 160
L277.972 160
L277.972 160
L278.099 168.833
L278.738 168.833
L278.865 162.731
L279.503 162.731
L279.631 168.876
L280.269 168.876
L280.269 168.876
L280.397 166.024
L281.035 166.024
L281.035 166.024
L281.162 167.997
L281.801 167.997
L282.183 160.537
L282.566 160.537
L282.694 165.431
L283.332 165.431
L283.459 156.787
L284.097 156.787
L284.225 165.338
L284.736 165.338
L285.246 164.11
L285.629 164.11
L285.756 157.166
L286.395 157.166
L286.522 165.005
L287.16 165.005
L287.288 164.772
L288.692 164.716
L288.819 165.372
L289.457 165.372
L289.585 161.619
L290.223 161.619
L290.351 165.897
L290.989 165.897
L291.116 162.414
L291.754 162.414
L292.137 166.994
L292.52 166.994
L292.52 166.994
L292.648 157.67
L293.286 157.67
L293.286 157.67
L293.413 167.659
L294.817 167.637
L294.817 167.637
L294.945 167.491
L296.349 167.5
L296.476 162.737
L297.114 162.737
L297.242 165.474
L297.88 165.474
L298.008 167.22
L298.646 167.22
L298.773 155.324
L299.411 155.324
L299.539 166.062
L300.177 166.062
L300.177 166.062
L300.305 164.561
L300.943 164.561
L301.07 164.117
L301.708 164.117
L301.836 163.306
L302.474 163.306
L302.474 163.306
L302.985 162.712
L304.005 162.818
L304.005 162.818
L304.133 162.597
L305.537 162.672
L305.664 161.783
L307.068 161.783
L307.068 161.783
L307.196 163.417
L307.834 163.417
L307.962 164.443
L308.6 164.443
L308.6 164.443
L308.727 162.619
L309.365 162.619
L309.493 163.958
L310.131 163.958
L310.131 163.958
L310.259 164.374
L310.897 164.374
L311.024 159.997
L311.662 159.997
L311.79 164.061
L312.428 164.061
L312.556 165.714
L313.194 165.714
L313.321 157.182
L313.96 157.182
L314.087 165.981
L314.725 165.981
L314.853 157.163
L315.491 157.163
L315.619 166.319
L316.257 166.319
L316.384 165.446
L317.022 165.446
L317.15 165.751
L317.788 165.751
L317.916 163.271
L318.554 163.271
L318.554 163.271
L318.681 165.35
L319.319 165.35
L319.319 165.35
L319.447 164.465
L320.085 164.465
L320.213 163.803
L320.851 163.803
L320.851 163.803
L321.361 163.464
L322.127 163.557
L322.765 159.198
L323.148 159.198
L323.275 163.865
L324.679 163.865
L324.807 164.853
L326.211 164.853
L326.338 165.422
L326.976 165.422
L327.104 164.856
L327.742 164.856
L327.87 152.885
L328.508 152.885
L328.635 166.354
L329.273 166.354
L329.401 166.879
L330.039 166.879
L330.167 166.655
L330.805 166.655
L330.933 167.093
L331.57 167.093
L331.698 150.166
L332.336 150.166
L332.464 163.153
L333.102 163.153
L333.23 168.541
L333.868 168.541
L333.995 159.459
L334.633 159.459
L334.761 165.776
L335.399 165.776
L335.527 167.556
L336.165 167.556
L336.292 166.26
L336.93 166.26
L337.058 167.279
L337.696 167.279
L337.824 162.569
L338.462 162.569
L338.589 159.854
L339.227 159.854
L339.355 164.607
L339.866 164.607
L340.121 165.999
L340.504 165.999
L340.759 162.986
L340.886 156.806
L341.525 156.806
L341.652 166.465
L342.29 166.465
L342.418 166.208
L343.056 166.208
L343.184 161.647
L343.822 161.647
L343.822 161.647
L343.949 166.897
L344.588 166.897
L344.715 162.398
L345.353 162.398
L345.353 162.398
L345.481 166.876
L346.884 166.876
L346.884 166.876
L347.012 164.43
L347.65 164.43
L347.778 166.764
L348.416 166.764
L348.543 162.088
L349.947 162.06
L350.075 166.453
L350.713 166.453
L350.84 163.026
L351.224 163.026
L351.606 166.736
L352.244 166.736
L352.372 166.503
L353.01 166.503
L353.138 166.702
L353.776 166.702
L353.776 166.702
L354.158 164.334
L354.541 164.334
L354.669 165.505
L355.307 165.505
L355.307 165.505
L355.435 160.037
L356.073 160.037
L356.073 160.037
L356.2 164.384
L356.838 164.384
L356.966 163.591
L357.477 163.591
L357.732 162.852
L358.37 162.852
L358.37 162.852
L358.497 157.788
L359.136 157.788
L359.263 162.302
L359.901 162.302
L360.029 156.741
L360.667 156.741
L360.795 162.147
L361.433 162.147
L361.56 153.907
L362.198 153.907
L362.326 158.679
L362.964 158.679
L363.092 163.243
L363.73 163.243
L363.857 159.31
L364.495 159.31
L364.623 158.564
L365.261 158.564
L365.389 163.504
L366.027 163.504
L366.027 163.504
L366.155 162.927
L366.792 162.927
L366.92 159.027
L367.558 159.027
L367.686 163.734
L368.324 163.734
L368.451 160.646
L369.09 160.646
L369.472 159.583
L369.855 159.583
L369.983 164.331
L370.621 164.331
L370.749 155.899
L371.387 155.899
L371.514 164.073
L372.152 164.073
L372.28 159.117
L372.918 159.117
L373.046 162.703
L373.684 162.703
L373.684 162.703
L373.811 151.996
L375.215 151.996
L375.343 162.836
L375.981 162.836
L376.108 147.898
L376.746 147.898
L376.874 152.223
L377.512 152.223
L377.512 152.223
L377.64 156.312
L378.278 156.312
L378.405 161.215
L379.044 161.215
L379.171 161.333
L380.575 161.292
L380.703 162.507
L381.341 162.507
L381.468 163.088
L382.107 163.088
L382.234 163.455
L382.872 163.455
L383 164.151
L384.403 164.092
L384.531 163.812
L385.935 163.812
L386.062 155.038
L386.701 155.038
L386.828 165.086
L387.466 165.086
L387.594 165.875
L388.232 165.875
L388.232 165.875
L388.36 321.576
L388.998 321.576
L389.125 117.173
L389.763 117.173
L389.891 106.994
L390.529 106.994
L390.657 119.137
L391.295 119.137
L391.422 121.83
L392.06 121.83
L392.188 127.087
L392.826 127.087
L392.954 130.853
L393.592 130.853
L393.719 133.587
L394.102 133.587
L394.102 133.587
L394.485 137.561
L395.123 137.561
L395.251 134.439
L395.889 134.439
L396.016 134.709
L396.655 134.709
L396.782 142.995
L397.42 142.995
L397.548 140.593
L398.186 140.593
L398.314 150.642
L398.952 150.642
L399.079 151.247
L399.717 151.247
L399.845 156.33
L400.483 156.33
L400.611 156.852
L401.249 156.852
L401.376 145.186
L402.014 145.186
L402.142 153.099
L402.78 153.099
L402.908 155.74
L403.546 155.74
L403.673 156.65
L404.311 156.65
L404.439 152.897
L405.077 152.897
L405.205 157.34
L405.843 157.34
L405.97 154.628
L406.609 154.628
L406.736 155.526
L407.374 155.526
L407.502 157.371
L408.14 157.371
L408.268 157.921
L408.906 157.921
L409.033 164.89
L409.671 164.89
L409.799 156.184
L410.437 156.184
L410.565 163.554
L411.968 163.619
L412.096 161.277
L412.607 161.277
L412.989 162.986
L414.266 162.986
L414.393 162.802
L415.031 162.802
L415.159 160.727
L415.797 160.727
L415.925 162.979
L416.563 162.979
L416.69 158.996
L417.328 158.996
L417.456 163.52
L418.094 163.52
L418.222 161.96
L418.86 161.96
L418.987 163.371
L419.625 163.371
L419.753 162.777
L420.391 162.777
L420.519 162.613
L421.157 162.613
L421.284 162.768
L421.922 162.768
L422.05 163.678
L422.688 163.678
L422.816 159.593
L423.454 159.593
L423.581 163.489
L424.22 163.489
L424.347 158.847
L424.985 158.847
L425.113 162.749
L425.751 162.749
L425.879 163.057
L426.517 163.057
L426.644 168.538
L427.282 168.538
L427.41 168.277
L428.048 168.277
L428.176 163.203
L428.814 163.203
L428.941 166.177
L429.579 166.177
L429.707 165.294
L430.345 165.294
L430.473 163.085
L430.983 163.085
L431.238 165.07
L431.877 165.07
L432.004 164.517
L432.642 164.517
L432.642 164.517
L432.77 161.227
L433.408 161.227
L433.536 151.226
L434.174 151.226
L434.301 163.896
L434.939 163.896
L435.067 153.382
L435.705 153.382
L435.833 161.084
L436.471 161.084
L436.598 163.045
L437.236 163.045
L437.364 143.815
L438.002 143.815
L438.13 165.263
L438.768 165.263
L438.895 164.073
L439.533 164.073
L439.661 166.295
L441.831 166.295
L441.831 166.295
L441.958 166.419
L443.362 166.524
L443.49 147.74
L444.128 147.74
L444.255 166.922
L445.659 166.938
L446.042 165.726
L446.425 165.726
L446.552 165.505
L447.19 165.505
L447.318 165.195
L447.956 165.195
L448.084 162.936
L448.722 162.936
L448.849 164.726
L449.487 164.726
L449.487 164.726
L449.615 163.256
L450.126 163.256
L450.381 159.956
L451.019 159.956
L451.146 164.014
L451.785 164.014
L451.912 159.35
L452.55 159.35
L452.678 163.557
L453.316 163.557
L453.444 160.978
L454.082 160.978
L454.209 164.129
L455.613 164.188
L455.741 164.303
L456.379 164.303
L456.506 163.734
L457.144 163.734
L457.272 162.467
L457.91 162.467
L458.038 164.381
L458.676 164.381
L458.803 164.788
L459.442 164.788
L459.569 164.409
L460.973 164.421
L461.101 164.117
L461.739 164.117
L461.866 164.303
L462.504 164.303
L462.632 163.818
L463.27 163.818
L463.398 163.654
L464.801 163.666
L464.929 164.511
L465.567 164.511
L465.567 164.511
L465.695 164.626
L466.333 164.626
L466.46 164.163
L467.098 164.163
L467.098 164.163
L467.226 157.409
L467.864 157.409
L467.992 163.769
L468.63 163.769
L468.757 158.804
L469.396 158.804
L469.523 156.523
L470.161 156.523
L470.289 162.628
L472.458 162.557
L472.586 162.756
L473.224 162.756
L473.352 163.511
L473.99 163.511
L474.118 164.309
L475.521 164.381
L475.649 162.868
L476.287 162.868
L476.414 164.151
L478.584 164.259
L478.711 160.109
L479.35 160.109
L479.477 164.617
L480.115 164.617
L480.243 164.107
L480.881 164.107
L481.009 163.793
L482.412 163.728
L482.54 162.557
L483.178 162.557
L483.306 158.583
L483.944 158.583
L484.071 162.92
L484.709 162.92
L484.837 161.87
L485.475 161.87
L485.858 157.651
L486.241 157.651
L486.241 157.651
L486.368 160.519
L487.772 160.519
L487.9 153.41
L488.538 153.41
L488.666 154.886
L489.304 154.886
L489.431 160.298
L490.069 160.298
L490.197 160.808
L490.835 160.808
L490.963 160.481
L491.601 160.481
L491.728 153.469
L492.366 153.469
L492.494 161.566
L493.132 161.566
L493.26 157.297
L493.898 157.297
L494.026 157.517
L494.663 157.517
L494.791 161.525
L495.429 161.525
L495.557 161.053
L496.195 161.053
L496.322 161.354
L496.961 161.354
L497.088 161.584
L497.726 161.584
L497.854 160.012
L498.492 160.012
L498.62 162.346
L499.258 162.346
L499.258 162.346
L499.385 159.232
L500.023 159.232
L500.151 163.75
L500.789 163.75
L500.917 150.331
L501.555 150.331
L501.682 162.728
L502.32 162.728
L502.448 148.647
L503.086 148.647
L503.214 162.15
L503.852 162.15
L503.979 161.578
L505.383 161.634
L505.511 161.351
L506.149 161.351
L506.277 161.578
L506.915 161.578
L507.042 161.379
L507.68 161.379
L507.808 157.542
L508.446 157.542
L508.574 159.863
L509.212 159.863
L509.339 163.306
L510.743 163.315
L510.871 159.537
L511.509 159.537
L511.636 163.014
L512.274 163.014
L512.402 159.31
L513.04 159.31
L513.168 159.9
L513.806 159.9
L513.933 159.043
L514.572 159.043
L514.699 161.33
L516.103 161.267
L516.231 160.121
L516.869 160.121
L516.996 164.023
L517.634 164.023
L517.762 158.064
L518.4 158.064
L518.4 158.064" style="fill:none;stroke:#008000;stroke-linecap:square;"/>
   </g>
   <g id="patch_3">
    <path d="
M72 43.2
L518.4 43.2" style="fill:none;stroke:#000000;stroke-linecap:square;stroke-linejoin:miter;"/>
   </g>
   <g id="patch_4">
    <path d="
M518.4 345.6
L518.4 43.2" style="fill:none;stroke:#000000;stroke-linecap:square;stroke-linejoin:miter;"/>
   </g>
   <g id="patch_5">
    <path d="
M72 345.6
L518.4 345.6" style="fill:none;stroke:#000000;stroke-linecap:square;stroke-linejoin:miter;"/>
   </g>
   <g id="patch_6">
    <path d="
M72 345.6
L72 43.2" style="fill:none;stroke:#000000;stroke-linecap:square;stroke-linejoin:miter;"/>
   </g>
   <g id="matplotlib.axis_1">
    <g id="xtick_1">
     <g id="line2d_3">
      <defs>
       <path d="
M0 0
L0 -4" id="m93b0483c22" style="stroke:#000000;stroke-width:0.5;"/>
      </defs>
      <g>
       <use style="stroke:#000000;stroke-width:0.5;" x="117.941468267" xlink:href="#m93b0483c22" y="345.6"/>
      </g>
     </g>
     <g id="line2d_4">
      <defs>
       <path d="
M0 0
L0 4" id="m741efc42ff" style="stroke:#000000;stroke-width:0.5;"/>
      </defs>
      <g>
       <use style="stroke:#000000;stroke-width:0.5;" x="117.941468267" xlink:href="#m741efc42ff" y="43.2"/>
      </g>
     </g>
     <g id="text_1">
      <!-- Oct 13 2015 -->
      <defs>
       <path d="
M19.1875 8.29688
L53.6094 8.29688
L53.6094 0
L7.32812 0
L7.32812 8.29688
Q12.9375 14.1094 22.625 23.8906
Q32.3281 33.6875 34.8125 36.5312
Q39.5469 41.8438 41.4219 45.5312
Q43.3125 49.2188 43.3125 52.7812
Q43.3125 58.5938 39.2344 62.25
Q35.1562 65.9219 28.6094 65.9219
Q23.9688 65.9219 18.8125 64.3125
Q13.6719 62.7031 7.8125 59.4219
L7.8125 69.3906
Q13.7656 71.7812 18.9375 73
Q24.125 74.2188 28.4219 74.2188
Q39.75 74.2188 46.4844 68.5469
Q53.2188 62.8906 53.2188 53.4219
Q53.2188 48.9219 51.5312 44.8906
Q49.8594 40.875 45.4062 35.4062
Q44.1875 33.9844 37.6406 27.2188
Q31.1094 20.4531 19.1875 8.29688" id="BitstreamVeraSans-Roman-32"/>
       <path d="
M39.4062 66.2188
Q28.6562 66.2188 22.3281 58.2031
Q16.0156 50.2031 16.0156 36.375
Q16.0156 22.6094 22.3281 14.5938
Q28.6562 6.59375 39.4062 6.59375
Q50.1406 6.59375 56.4219 14.5938
Q62.7031 22.6094 62.7031 36.375
Q62.7031 50.2031 56.4219 58.2031
Q50.1406 66.2188 39.4062 66.2188
M39.4062 74.2188
Q54.7344 74.2188 63.9062 63.9375
Q73.0938 53.6562 73.0938 36.375
Q73.0938 19.1406 63.9062 8.85938
Q54.7344 -1.42188 39.4062 -1.42188
Q24.0312 -1.42188 14.8125 8.82812
Q5.60938 19.0938 5.60938 36.375
Q5.60938 53.6562 14.8125 63.9375
Q24.0312 74.2188 39.4062 74.2188" id="BitstreamVeraSans-Roman-4f"/>
       <path d="
M31.7812 66.4062
Q24.1719 66.4062 20.3281 58.9062
Q16.5 51.4219 16.5 36.375
Q16.5 21.3906 20.3281 13.8906
Q24.1719 6.39062 31.7812 6.39062
Q39.4531 6.39062 43.2812 13.8906
Q47.125 21.3906 47.125 36.375
Q47.125 51.4219 43.2812 58.9062
Q39.4531 66.4062 31.7812 66.4062
M31.7812 74.2188
Q44.0469 74.2188 50.5156 64.5156
Q56.9844 54.8281 56.9844 36.375
Q56.9844 17.9688 50.5156 8.26562
Q44.0469 -1.42188 31.7812 -1.42188
Q19.5312 -1.42188 13.0625 8.26562
Q6.59375 17.9688 6.59375 36.375
Q6.59375 54.8281 13.0625 64.5156
Q19.5312 74.2188 31.7812 74.2188" id="BitstreamVeraSans-Roman-30"/>
       <path d="
M12.4062 8.29688
L28.5156 8.29688
L28.5156 63.9219
L10.9844 60.4062
L10.9844 69.3906
L28.4219 72.9062
L38.2812 72.9062
L38.2812 8.29688
L54.3906 8.29688
L54.3906 0
L12.4062 0
z
" id="BitstreamVeraSans-Roman-31"/>
       <path d="
M40.5781 39.3125
Q47.6562 37.7969 51.625 33
Q55.6094 28.2188 55.6094 21.1875
Q55.6094 10.4062 48.1875 4.48438
Q40.7656 -1.42188 27.0938 -1.42188
Q22.5156 -1.42188 17.6562 -0.515625
Q12.7969 0.390625 7.625 2.20312
L7.625 11.7188
Q11.7188 9.32812 16.5938 8.10938
Q21.4844 6.89062 26.8125 6.89062
Q36.0781 6.89062 40.9375 10.5469
Q45.7969 14.2031 45.7969 21.1875
Q45.7969 27.6406 41.2812 31.2656
Q36.7656 34.9062 28.7188 34.9062
L20.2188 34.9062
L20.2188 43.0156
L29.1094 43.0156
Q36.375 43.0156 40.2344 45.9219
Q44.0938 48.8281 44.0938 54.2969
Q44.0938 59.9062 40.1094 62.9062
Q36.1406 65.9219 28.7188 65.9219
Q24.6562 65.9219 20.0156 65.0312
Q15.375 64.1562 9.8125 62.3125
L9.8125 71.0938
Q15.4375 72.6562 20.3438 73.4375
Q25.25 74.2188 29.5938 74.2188
Q40.8281 74.2188 47.3594 69.1094
Q53.9062 64.0156 53.9062 55.3281
Q53.9062 49.2656 50.4375 45.0938
Q46.9688 40.9219 40.5781 39.3125" id="BitstreamVeraSans-Roman-33"/>
       <path id="BitstreamVeraSans-Roman-20"/>
       <path d="
M10.7969 72.9062
L49.5156 72.9062
L49.5156 64.5938
L19.8281 64.5938
L19.8281 46.7344
Q21.9688 47.4688 24.1094 47.8281
Q26.2656 48.1875 28.4219 48.1875
Q40.625 48.1875 47.75 41.5
Q54.8906 34.8125 54.8906 23.3906
Q54.8906 11.625 47.5625 5.09375
Q40.2344 -1.42188 26.9062 -1.42188
Q22.3125 -1.42188 17.5469 -0.640625
Q12.7969 0.140625 7.71875 1.70312
L7.71875 11.625
Q12.1094 9.23438 16.7969 8.0625
Q21.4844 6.89062 26.7031 6.89062
Q35.1562 6.89062 40.0781 11.3281
Q45.0156 15.7656 45.0156 23.3906
Q45.0156 31 40.0781 35.4375
Q35.1562 39.8906 26.7031 39.8906
Q22.75 39.8906 18.8125 39.0156
Q14.8906 38.1406 10.7969 36.2812
z
" id="BitstreamVeraSans-Roman-35"/>
       <path d="
M18.3125 70.2188
L18.3125 54.6875
L36.8125 54.6875
L36.8125 47.7031
L18.3125 47.7031
L18.3125 18.0156
Q18.3125 11.3281 20.1406 9.42188
Q21.9688 7.51562 27.5938 7.51562
L36.8125 7.51562
L36.8125 0
L27.5938 0
Q17.1875 0 13.2344 3.875
Q9.28125 7.76562 9.28125 18.0156
L9.28125 47.7031
L2.6875 47.7031
L2.6875 54.6875
L9.28125 54.6875
L9.28125 70.2188
z
" id="BitstreamVeraSans-Roman-74"/>
       <path d="
M48.7812 52.5938
L48.7812 44.1875
Q44.9688 46.2969 41.1406 47.3438
Q37.3125 48.3906 33.4062 48.3906
Q24.6562 48.3906 19.8125 42.8438
Q14.9844 37.3125 14.9844 27.2969
Q14.9844 17.2812 19.8125 11.7344
Q24.6562 6.20312 33.4062 6.20312
Q37.3125 6.20312 41.1406 7.25
Q44.9688 8.29688 48.7812 10.4062
L48.7812 2.09375
Q45.0156 0.34375 40.9844 -0.53125
Q36.9688 -1.42188 32.4219 -1.42188
Q20.0625 -1.42188 12.7812 6.34375
Q5.51562 14.1094 5.51562 27.2969
Q5.51562 40.6719 12.8594 48.3281
Q20.2188 56 33.0156 56
Q37.1562 56 41.1094 55.1406
Q45.0625 54.2969 48.7812 52.5938" id="BitstreamVeraSans-Roman-63"/>
      </defs>
      <g transform="translate(53.3541815316 394.065590385)rotate(-30.0)scale(0.12 -0.12)">
       <use xlink:href="#BitstreamVeraSans-Roman-4f"/>
       <use x="78.7109375" xlink:href="#BitstreamVeraSans-Roman-63"/>
       <use x="133.69140625" xlink:href="#BitstreamVeraSans-Roman-74"/>
       <use x="172.900390625" xlink:href="#BitstreamVeraSans-Roman-20"/>
       <use x="204.6875" xlink:href="#BitstreamVeraSans-Roman-31"/>
       <use x="268.310546875" xlink:href="#BitstreamVeraSans-Roman-33"/>
       <use x="331.93359375" xlink:href="#BitstreamVeraSans-Roman-20"/>
       <use x="363.720703125" xlink:href="#BitstreamVeraSans-Roman-32"/>
       <use x="427.34375" xlink:href="#BitstreamVeraSans-Roman-30"/>
       <use x="490.966796875" xlink:href="#BitstreamVeraSans-Roman-31"/>
       <use x="554.58984375" xlink:href="#BitstreamVeraSans-Roman-35"/>
      </g>
     </g>
    </g>
    <g id="xtick_2">
     <g id="line2d_5">
      <g>
       <use style="stroke:#000000;stroke-width:0.5;" x="173.071485419" xlink:href="#m93b0483c22" y="345.6"/>
      </g>
     </g>
     <g id="line2d_6">
      <g>
       <use style="stroke:#000000;stroke-width:0.5;" x="173.071485419" xlink:href="#m741efc42ff" y="43.2"/>
      </g>
     </g>
     <g id="text_2">
      <!-- Oct 16 2015 -->
      <defs>
       <path d="
M33.0156 40.375
Q26.375 40.375 22.4844 35.8281
Q18.6094 31.2969 18.6094 23.3906
Q18.6094 15.5312 22.4844 10.9531
Q26.375 6.39062 33.0156 6.39062
Q39.6562 6.39062 43.5312 10.9531
Q47.4062 15.5312 47.4062 23.3906
Q47.4062 31.2969 43.5312 35.8281
Q39.6562 40.375 33.0156 40.375
M52.5938 71.2969
L52.5938 62.3125
Q48.875 64.0625 45.0938 64.9844
Q41.3125 65.9219 37.5938 65.9219
Q27.8281 65.9219 22.6719 59.3281
Q17.5312 52.7344 16.7969 39.4062
Q19.6719 43.6562 24.0156 45.9219
Q28.375 48.1875 33.5938 48.1875
Q44.5781 48.1875 50.9531 41.5156
Q57.3281 34.8594 57.3281 23.3906
Q57.3281 12.1562 50.6875 5.35938
Q44.0469 -1.42188 33.0156 -1.42188
Q20.3594 -1.42188 13.6719 8.26562
Q6.98438 17.9688 6.98438 36.375
Q6.98438 53.6562 15.1875 63.9375
Q23.3906 74.2188 37.2031 74.2188
Q40.9219 74.2188 44.7031 73.4844
Q48.4844 72.75 52.5938 71.2969" id="BitstreamVeraSans-Roman-36"/>
      </defs>
      <g transform="translate(108.484198684 394.065590385)rotate(-30.0)scale(0.12 -0.12)">
       <use xlink:href="#BitstreamVeraSans-Roman-4f"/>
       <use x="78.7109375" xlink:href="#BitstreamVeraSans-Roman-63"/>
       <use x="133.69140625" xlink:href="#BitstreamVeraSans-Roman-74"/>
       <use x="172.900390625" xlink:href="#BitstreamVeraSans-Roman-20"/>
       <use x="204.6875" xlink:href="#BitstreamVeraSans-Roman-31"/>
       <use x="268.310546875" xlink:href="#BitstreamVeraSans-Roman-36"/>
       <use x="331.93359375" xlink:href="#BitstreamVeraSans-Roman-20"/>
       <use x="363.720703125" xlink:href="#BitstreamVeraSans-Roman-32"/>
       <use x="427.34375" xlink:href="#BitstreamVeraSans-Roman-30"/>
       <use x="490.966796875" xlink:href="#BitstreamVeraSans-Roman-31"/>
       <use x="554.58984375" xlink:href="#BitstreamVeraSans-Roman-35"/>
      </g>
     </g>
    </g>
    <g id="xtick_3">
     <g id="line2d_7">
      <g>
       <use style="stroke:#000000;stroke-width:0.5;" x="228.201502573" xlink:href="#m93b0483c22" y="345.6"/>
      </g>
     </g>
     <g id="line2d_8">
      <g>
       <use style="stroke:#000000;stroke-width:0.5;" x="228.201502573" xlink:href="#m741efc42ff" y="43.2"/>
      </g>
     </g>
     <g id="text_3">
      <!-- Oct 19 2015 -->
      <defs>
       <path d="
M10.9844 1.51562
L10.9844 10.5
Q14.7031 8.73438 18.5 7.8125
Q22.3125 6.89062 25.9844 6.89062
Q35.75 6.89062 40.8906 13.4531
Q46.0469 20.0156 46.7812 33.4062
Q43.9531 29.2031 39.5938 26.9531
Q35.25 24.7031 29.9844 24.7031
Q19.0469 24.7031 12.6719 31.3125
Q6.29688 37.9375 6.29688 49.4219
Q6.29688 60.6406 12.9375 67.4219
Q19.5781 74.2188 30.6094 74.2188
Q43.2656 74.2188 49.9219 64.5156
Q56.5938 54.8281 56.5938 36.375
Q56.5938 19.1406 48.4062 8.85938
Q40.2344 -1.42188 26.4219 -1.42188
Q22.7031 -1.42188 18.8906 -0.6875
Q15.0938 0.046875 10.9844 1.51562
M30.6094 32.4219
Q37.25 32.4219 41.125 36.9531
Q45.0156 41.5 45.0156 49.4219
Q45.0156 57.2812 41.125 61.8438
Q37.25 66.4062 30.6094 66.4062
Q23.9688 66.4062 20.0938 61.8438
Q16.2188 57.2812 16.2188 49.4219
Q16.2188 41.5 20.0938 36.9531
Q23.9688 32.4219 30.6094 32.4219" id="BitstreamVeraSans-Roman-39"/>
      </defs>
      <g transform="translate(163.614215838 394.065590385)rotate(-30.0)scale(0.12 -0.12)">
       <use xlink:href="#BitstreamVeraSans-Roman-4f"/>
       <use x="78.7109375" xlink:href="#BitstreamVeraSans-Roman-63"/>
       <use x="133.69140625" xlink:href="#BitstreamVeraSans-Roman-74"/>
       <use x="172.900390625" xlink:href="#BitstreamVeraSans-Roman-20"/>
       <use x="204.6875" xlink:href="#BitstreamVeraSans-Roman-31"/>
       <use x="268.310546875" xlink:href="#BitstreamVeraSans-Roman-39"/>
       <use x="331.93359375" xlink:href="#BitstreamVeraSans-Roman-20"/>
       <use x="363.720703125" xlink:href="#BitstreamVeraSans-Roman-32"/>
       <use x="427.34375" xlink:href="#BitstreamVeraSans-Roman-30"/>
       <use x="490.966796875" xlink:href="#BitstreamVeraSans-Roman-31"/>
       <use x="554.58984375" xlink:href="#BitstreamVeraSans-Roman-35"/>
      </g>
     </g>
    </g>
    <g id="xtick_4">
     <g id="line2d_9">
      <g>
       <use style="stroke:#000000;stroke-width:0.5;" x="283.331519725" xlink:href="#m93b0483c22" y="345.6"/>
      </g>
     </g>
     <g id="line2d_10">
      <g>
       <use style="stroke:#000000;stroke-width:0.5;" x="283.331519725" xlink:href="#m741efc42ff" y="43.2"/>
      </g>
     </g>
     <g id="text_4">
      <!-- Oct 22 2015 -->
      <g transform="translate(218.74423299 394.065590385)rotate(-30.0)scale(0.12 -0.12)">
       <use xlink:href="#BitstreamVeraSans-Roman-4f"/>
       <use x="78.7109375" xlink:href="#BitstreamVeraSans-Roman-63"/>
       <use x="133.69140625" xlink:href="#BitstreamVeraSans-Roman-74"/>
       <use x="172.900390625" xlink:href="#BitstreamVeraSans-Roman-20"/>
       <use x="204.6875" xlink:href="#BitstreamVeraSans-Roman-32"/>
       <use x="268.310546875" xlink:href="#BitstreamVeraSans-Roman-32"/>
       <use x="331.93359375" xlink:href="#BitstreamVeraSans-Roman-20"/>
       <use x="363.720703125" xlink:href="#BitstreamVeraSans-Roman-32"/>
       <use x="427.34375" xlink:href="#BitstreamVeraSans-Roman-30"/>
       <use x="490.966796875" xlink:href="#BitstreamVeraSans-Roman-31"/>
       <use x="554.58984375" xlink:href="#BitstreamVeraSans-Roman-35"/>
      </g>
     </g>
    </g>
    <g id="xtick_5">
     <g id="line2d_11">
      <g>
       <use style="stroke:#000000;stroke-width:0.5;" x="338.461536877" xlink:href="#m93b0483c22" y="345.6"/>
      </g>
     </g>
     <g id="line2d_12">
      <g>
       <use style="stroke:#000000;stroke-width:0.5;" x="338.461536877" xlink:href="#m741efc42ff" y="43.2"/>
      </g>
     </g>
     <g id="text_5">
      <!-- Oct 25 2015 -->
      <g transform="translate(273.874250142 394.065590385)rotate(-30.0)scale(0.12 -0.12)">
       <use xlink:href="#BitstreamVeraSans-Roman-4f"/>
       <use x="78.7109375" xlink:href="#BitstreamVeraSans-Roman-63"/>
       <use x="133.69140625" xlink:href="#BitstreamVeraSans-Roman-74"/>
       <use x="172.900390625" xlink:href="#BitstreamVeraSans-Roman-20"/>
       <use x="204.6875" xlink:href="#BitstreamVeraSans-Roman-32"/>
       <use x="268.310546875" xlink:href="#BitstreamVeraSans-Roman-35"/>
       <use x="331.93359375" xlink:href="#BitstreamVeraSans-Roman-20"/>
       <use x="363.720703125" xlink:href="#BitstreamVeraSans-Roman-32"/>
       <use x="427.34375" xlink:href="#BitstreamVeraSans-Roman-30"/>
       <use x="490.966796875" xlink:href="#BitstreamVeraSans-Roman-31"/>
       <use x="554.58984375" xlink:href="#BitstreamVeraSans-Roman-35"/>
      </g>
     </g>
    </g>
    <g id="xtick_6">
     <g id="line2d_13">
      <g>
       <use style="stroke:#000000;stroke-width:0.5;" x="393.591554031" xlink:href="#m93b0483c22" y="345.6"/>
      </g>
     </g>
     <g id="line2d_14">
      <g>
       <use style="stroke:#000000;stroke-width:0.5;" x="393.591554031" xlink:href="#m741efc42ff" y="43.2"/>
      </g>
     </g>
     <g id="text_6">
      <!-- Oct 28 2015 -->
      <defs>
       <path d="
M31.7812 34.625
Q24.75 34.625 20.7188 30.8594
Q16.7031 27.0938 16.7031 20.5156
Q16.7031 13.9219 20.7188 10.1562
Q24.75 6.39062 31.7812 6.39062
Q38.8125 6.39062 42.8594 10.1719
Q46.9219 13.9688 46.9219 20.5156
Q46.9219 27.0938 42.8906 30.8594
Q38.875 34.625 31.7812 34.625
M21.9219 38.8125
Q15.5781 40.375 12.0312 44.7188
Q8.5 49.0781 8.5 55.3281
Q8.5 64.0625 14.7188 69.1406
Q20.9531 74.2188 31.7812 74.2188
Q42.6719 74.2188 48.875 69.1406
Q55.0781 64.0625 55.0781 55.3281
Q55.0781 49.0781 51.5312 44.7188
Q48 40.375 41.7031 38.8125
Q48.8281 37.1562 52.7969 32.3125
Q56.7812 27.4844 56.7812 20.5156
Q56.7812 9.90625 50.3125 4.23438
Q43.8438 -1.42188 31.7812 -1.42188
Q19.7344 -1.42188 13.25 4.23438
Q6.78125 9.90625 6.78125 20.5156
Q6.78125 27.4844 10.7812 32.3125
Q14.7969 37.1562 21.9219 38.8125
M18.3125 54.3906
Q18.3125 48.7344 21.8438 45.5625
Q25.3906 42.3906 31.7812 42.3906
Q38.1406 42.3906 41.7188 45.5625
Q45.3125 48.7344 45.3125 54.3906
Q45.3125 60.0625 41.7188 63.2344
Q38.1406 66.4062 31.7812 66.4062
Q25.3906 66.4062 21.8438 63.2344
Q18.3125 60.0625 18.3125 54.3906" id="BitstreamVeraSans-Roman-38"/>
      </defs>
      <g transform="translate(329.004267296 394.065590385)rotate(-30.0)scale(0.12 -0.12)">
       <use xlink:href="#BitstreamVeraSans-Roman-4f"/>
       <use x="78.7109375" xlink:href="#BitstreamVeraSans-Roman-63"/>
       <use x="133.69140625" xlink:href="#BitstreamVeraSans-Roman-74"/>
       <use x="172.900390625" xlink:href="#BitstreamVeraSans-Roman-20"/>
       <use x="204.6875" xlink:href="#BitstreamVeraSans-Roman-32"/>
       <use x="268.310546875" xlink:href="#BitstreamVeraSans-Roman-38"/>
       <use x="331.93359375" xlink:href="#BitstreamVeraSans-Roman-20"/>
       <use x="363.720703125" xlink:href="#BitstreamVeraSans-Roman-32"/>
       <use x="427.34375" xlink:href="#BitstreamVeraSans-Roman-30"/>
       <use x="490.966796875" xlink:href="#BitstreamVeraSans-Roman-31"/>
       <use x="554.58984375" xlink:href="#BitstreamVeraSans-Roman-35"/>
      </g>
     </g>
    </g>
    <g id="xtick_7">
     <g id="line2d_15">
      <g>
       <use style="stroke:#000000;stroke-width:0.5;" x="448.721571183" xlink:href="#m93b0483c22" y="345.6"/>
      </g>
     </g>
     <g id="line2d_16">
      <g>
       <use style="stroke:#000000;stroke-width:0.5;" x="448.721571183" xlink:href="#m741efc42ff" y="43.2"/>
      </g>
     </g>
     <g id="text_7">
      <!-- Oct 31 2015 -->
      <g transform="translate(384.134284448 394.065590385)rotate(-30.0)scale(0.12 -0.12)">
       <use xlink:href="#BitstreamVeraSans-Roman-4f"/>
       <use x="78.7109375" xlink:href="#BitstreamVeraSans-Roman-63"/>
       <use x="133.69140625" xlink:href="#BitstreamVeraSans-Roman-74"/>
       <use x="172.900390625" xlink:href="#BitstreamVeraSans-Roman-20"/>
       <use x="204.6875" xlink:href="#BitstreamVeraSans-Roman-33"/>
       <use x="268.310546875" xlink:href="#BitstreamVeraSans-Roman-31"/>
       <use x="331.93359375" xlink:href="#BitstreamVeraSans-Roman-20"/>
       <use x="363.720703125" xlink:href="#BitstreamVeraSans-Roman-32"/>
       <use x="427.34375" xlink:href="#BitstreamVeraSans-Roman-30"/>
       <use x="490.966796875" xlink:href="#BitstreamVeraSans-Roman-31"/>
       <use x="554.58984375" xlink:href="#BitstreamVeraSans-Roman-35"/>
      </g>
     </g>
    </g>
    <g id="xtick_8">
     <g id="line2d_17">
      <g>
       <use style="stroke:#000000;stroke-width:0.5;" x="503.851588335" xlink:href="#m93b0483c22" y="345.6"/>
      </g>
     </g>
     <g id="line2d_18">
      <g>
       <use style="stroke:#000000;stroke-width:0.5;" x="503.851588335" xlink:href="#m741efc42ff" y="43.2"/>
      </g>
     </g>
     <g id="text_8">
      <!-- Nov 03 2015 -->
      <defs>
       <path d="
M2.98438 54.6875
L12.5 54.6875
L29.5938 8.79688
L46.6875 54.6875
L56.2031 54.6875
L35.6875 0
L23.4844 0
z
" id="BitstreamVeraSans-Roman-76"/>
       <path d="
M9.8125 72.9062
L23.0938 72.9062
L55.4219 11.9219
L55.4219 72.9062
L64.9844 72.9062
L64.9844 0
L51.7031 0
L19.3906 60.9844
L19.3906 0
L9.8125 0
z
" id="BitstreamVeraSans-Roman-4e"/>
       <path d="
M30.6094 48.3906
Q23.3906 48.3906 19.1875 42.75
Q14.9844 37.1094 14.9844 27.2969
Q14.9844 17.4844 19.1562 11.8438
Q23.3438 6.20312 30.6094 6.20312
Q37.7969 6.20312 41.9844 11.8594
Q46.1875 17.5312 46.1875 27.2969
Q46.1875 37.0156 41.9844 42.7031
Q37.7969 48.3906 30.6094 48.3906
M30.6094 56
Q42.3281 56 49.0156 48.375
Q55.7188 40.7656 55.7188 27.2969
Q55.7188 13.875 49.0156 6.21875
Q42.3281 -1.42188 30.6094 -1.42188
Q18.8438 -1.42188 12.1719 6.21875
Q5.51562 13.875 5.51562 27.2969
Q5.51562 40.7656 12.1719 48.375
Q18.8438 56 30.6094 56" id="BitstreamVeraSans-Roman-6f"/>
      </defs>
      <g transform="translate(436.948766176 395.402465385)rotate(-30.0)scale(0.12 -0.12)">
       <use xlink:href="#BitstreamVeraSans-Roman-4e"/>
       <use x="74.8046875" xlink:href="#BitstreamVeraSans-Roman-6f"/>
       <use x="135.986328125" xlink:href="#BitstreamVeraSans-Roman-76"/>
       <use x="195.166015625" xlink:href="#BitstreamVeraSans-Roman-20"/>
       <use x="226.953125" xlink:href="#BitstreamVeraSans-Roman-30"/>
       <use x="290.576171875" xlink:href="#BitstreamVeraSans-Roman-33"/>
       <use x="354.19921875" xlink:href="#BitstreamVeraSans-Roman-20"/>
       <use x="385.986328125" xlink:href="#BitstreamVeraSans-Roman-32"/>
       <use x="449.609375" xlink:href="#BitstreamVeraSans-Roman-30"/>
       <use x="513.232421875" xlink:href="#BitstreamVeraSans-Roman-31"/>
       <use x="576.85546875" xlink:href="#BitstreamVeraSans-Roman-35"/>
      </g>
     </g>
    </g>
   </g>
   <g id="matplotlib.axis_2">
    <g id="ytick_1">
     <g id="line2d_19">
      <defs>
       <path d="
M0 0
L4 0" id="m728421d6d4" style="stroke:#000000;stroke-width:0.5;"/>
      </defs>
      <g>
       <use style="stroke:#000000;stroke-width:0.5;" x="72.0" xlink:href="#m728421d6d4" y="304.934999029"/>
      </g>
     </g>
     <g id="line2d_20">
      <defs>
       <path d="
M0 0
L-4 0" id="mcb0005524f" style="stroke:#000000;stroke-width:0.5;"/>
      </defs>
      <g>
       <use style="stroke:#000000;stroke-width:0.5;" x="518.4" xlink:href="#mcb0005524f" y="304.934999029"/>
      </g>
     </g>
     <g id="text_9">
      <!-- 160000 -->
      <g transform="translate(24.305 308.246249029)scale(0.12 -0.12)">
       <use xlink:href="#BitstreamVeraSans-Roman-31"/>
       <use x="63.623046875" xlink:href="#BitstreamVeraSans-Roman-36"/>
       <use x="127.24609375" xlink:href="#BitstreamVeraSans-Roman-30"/>
       <use x="190.869140625" xlink:href="#BitstreamVeraSans-Roman-30"/>
       <use x="254.4921875" xlink:href="#BitstreamVeraSans-Roman-30"/>
       <use x="318.115234375" xlink:href="#BitstreamVeraSans-Roman-30"/>
      </g>
     </g>
    </g>
    <g id="ytick_2">
     <g id="line2d_21">
      <g>
       <use style="stroke:#000000;stroke-width:0.5;" x="72.0" xlink:href="#m728421d6d4" y="242.795054696"/>
      </g>
     </g>
     <g id="line2d_22">
      <g>
       <use style="stroke:#000000;stroke-width:0.5;" x="518.4" xlink:href="#mcb0005524f" y="242.795054696"/>
      </g>
     </g>
     <g id="text_10">
      <!-- 180000 -->
      <g transform="translate(24.305 246.106304696)scale(0.12 -0.12)">
       <use xlink:href="#BitstreamVeraSans-Roman-31"/>
       <use x="63.623046875" xlink:href="#BitstreamVeraSans-Roman-38"/>
       <use x="127.24609375" xlink:href="#BitstreamVeraSans-Roman-30"/>
       <use x="190.869140625" xlink:href="#BitstreamVeraSans-Roman-30"/>
       <use x="254.4921875" xlink:href="#BitstreamVeraSans-Roman-30"/>
       <use x="318.115234375" xlink:href="#BitstreamVeraSans-Roman-30"/>
      </g>
     </g>
    </g>
    <g id="ytick_3">
     <g id="line2d_23">
      <g>
       <use style="stroke:#000000;stroke-width:0.5;" x="72.0" xlink:href="#m728421d6d4" y="180.655110363"/>
      </g>
     </g>
     <g id="line2d_24">
      <g>
       <use style="stroke:#000000;stroke-width:0.5;" x="518.4" xlink:href="#mcb0005524f" y="180.655110363"/>
      </g>
     </g>
     <g id="text_11">
      <!-- 200000 -->
      <g transform="translate(23.86625 183.966360363)scale(0.12 -0.12)">
       <use xlink:href="#BitstreamVeraSans-Roman-32"/>
       <use x="63.623046875" xlink:href="#BitstreamVeraSans-Roman-30"/>
       <use x="127.24609375" xlink:href="#BitstreamVeraSans-Roman-30"/>
       <use x="190.869140625" xlink:href="#BitstreamVeraSans-Roman-30"/>
       <use x="254.4921875" xlink:href="#BitstreamVeraSans-Roman-30"/>
       <use x="318.115234375" xlink:href="#BitstreamVeraSans-Roman-30"/>
      </g>
     </g>
    </g>
    <g id="ytick_4">
     <g id="line2d_25">
      <g>
       <use style="stroke:#000000;stroke-width:0.5;" x="72.0" xlink:href="#m728421d6d4" y="118.51516603"/>
      </g>
     </g>
     <g id="line2d_26">
      <g>
       <use style="stroke:#000000;stroke-width:0.5;" x="518.4" xlink:href="#mcb0005524f" y="118.51516603"/>
      </g>
     </g>
     <g id="text_12">
      <!-- 220000 -->
      <g transform="translate(23.86625 121.82641603)scale(0.12 -0.12)">
       <use xlink:href="#BitstreamVeraSans-Roman-32"/>
       <use x="63.623046875" xlink:href="#BitstreamVeraSans-Roman-32"/>
       <use x="127.24609375" xlink:href="#BitstreamVeraSans-Roman-30"/>
       <use x="190.869140625" xlink:href="#BitstreamVeraSans-Roman-30"/>
       <use x="254.4921875" xlink:href="#BitstreamVeraSans-Roman-30"/>
       <use x="318.115234375" xlink:href="#BitstreamVeraSans-Roman-30"/>
      </g>
     </g>
    </g>
    <g id="ytick_5">
     <g id="line2d_27">
      <g>
       <use style="stroke:#000000;stroke-width:0.5;" x="72.0" xlink:href="#m728421d6d4" y="56.3752216972"/>
      </g>
     </g>
     <g id="line2d_28">
      <g>
       <use style="stroke:#000000;stroke-width:0.5;" x="518.4" xlink:href="#mcb0005524f" y="56.3752216972"/>
      </g>
     </g>
     <g id="text_13">
      <!-- 240000 -->
      <defs>
       <path d="
M37.7969 64.3125
L12.8906 25.3906
L37.7969 25.3906
z

M35.2031 72.9062
L47.6094 72.9062
L47.6094 25.3906
L58.0156 25.3906
L58.0156 17.1875
L47.6094 17.1875
L47.6094 0
L37.7969 0
L37.7969 17.1875
L4.89062 17.1875
L4.89062 26.7031
z
" id="BitstreamVeraSans-Roman-34"/>
      </defs>
      <g transform="translate(23.86625 59.6864716972)scale(0.12 -0.12)">
       <use xlink:href="#BitstreamVeraSans-Roman-32"/>
       <use x="63.623046875" xlink:href="#BitstreamVeraSans-Roman-34"/>
       <use x="127.24609375" xlink:href="#BitstreamVeraSans-Roman-30"/>
       <use x="190.869140625" xlink:href="#BitstreamVeraSans-Roman-30"/>
       <use x="254.4921875" xlink:href="#BitstreamVeraSans-Roman-30"/>
       <use x="318.115234375" xlink:href="#BitstreamVeraSans-Roman-30"/>
      </g>
     </g>
    </g>
   </g>
   <g id="text_14">
    <!-- Medizintechnik -->
    <defs>
     <path d="
M9.8125 72.9062
L24.5156 72.9062
L43.1094 23.2969
L61.8125 72.9062
L76.5156 72.9062
L76.5156 0
L66.8906 0
L66.8906 64.0156
L48.0938 14.0156
L38.1875 14.0156
L19.3906 64.0156
L19.3906 0
L9.8125 0
z
" id="BitstreamVeraSans-Roman-4d"/>
     <path d="
M54.8906 33.0156
L54.8906 0
L45.9062 0
L45.9062 32.7188
Q45.9062 40.4844 42.875 44.3281
Q39.8438 48.1875 33.7969 48.1875
Q26.5156 48.1875 22.3125 43.5469
Q18.1094 38.9219 18.1094 30.9062
L18.1094 0
L9.07812 0
L9.07812 54.6875
L18.1094 54.6875
L18.1094 46.1875
Q21.3438 51.125 25.7031 53.5625
Q30.0781 56 35.7969 56
Q45.2188 56 50.0469 50.1719
Q54.8906 44.3438 54.8906 33.0156" id="BitstreamVeraSans-Roman-6e"/>
     <path d="
M5.51562 54.6875
L48.1875 54.6875
L48.1875 46.4844
L14.4062 7.17188
L48.1875 7.17188
L48.1875 0
L4.29688 0
L4.29688 8.20312
L38.0938 47.5156
L5.51562 47.5156
z
" id="BitstreamVeraSans-Roman-7a"/>
     <path d="
M9.42188 54.6875
L18.4062 54.6875
L18.4062 0
L9.42188 0
z

M9.42188 75.9844
L18.4062 75.9844
L18.4062 64.5938
L9.42188 64.5938
z
" id="BitstreamVeraSans-Roman-69"/>
     <path d="
M54.8906 33.0156
L54.8906 0
L45.9062 0
L45.9062 32.7188
Q45.9062 40.4844 42.875 44.3281
Q39.8438 48.1875 33.7969 48.1875
Q26.5156 48.1875 22.3125 43.5469
Q18.1094 38.9219 18.1094 30.9062
L18.1094 0
L9.07812 0
L9.07812 75.9844
L18.1094 75.9844
L18.1094 46.1875
Q21.3438 51.125 25.7031 53.5625
Q30.0781 56 35.7969 56
Q45.2188 56 50.0469 50.1719
Q54.8906 44.3438 54.8906 33.0156" id="BitstreamVeraSans-Roman-68"/>
     <path d="
M56.2031 29.5938
L56.2031 25.2031
L14.8906 25.2031
Q15.4844 15.9219 20.4844 11.0625
Q25.4844 6.20312 34.4219 6.20312
Q39.5938 6.20312 44.4531 7.46875
Q49.3125 8.73438 54.1094 11.2812
L54.1094 2.78125
Q49.2656 0.734375 44.1875 -0.34375
Q39.1094 -1.42188 33.8906 -1.42188
Q20.7969 -1.42188 13.1562 6.1875
Q5.51562 13.8125 5.51562 26.8125
Q5.51562 40.2344 12.7656 48.1094
Q20.0156 56 32.3281 56
Q43.3594 56 49.7812 48.8906
Q56.2031 41.7969 56.2031 29.5938
M47.2188 32.2344
Q47.125 39.5938 43.0938 43.9844
Q39.0625 48.3906 32.4219 48.3906
Q24.9062 48.3906 20.3906 44.1406
Q15.875 39.8906 15.1875 32.1719
z
" id="BitstreamVeraSans-Roman-65"/>
     <path d="
M45.4062 46.3906
L45.4062 75.9844
L54.3906 75.9844
L54.3906 0
L45.4062 0
L45.4062 8.20312
Q42.5781 3.32812 38.25 0.953125
Q33.9375 -1.42188 27.875 -1.42188
Q17.9688 -1.42188 11.7344 6.48438
Q5.51562 14.4062 5.51562 27.2969
Q5.51562 40.1875 11.7344 48.0938
Q17.9688 56 27.875 56
Q33.9375 56 38.25 53.625
Q42.5781 51.2656 45.4062 46.3906
M14.7969 27.2969
Q14.7969 17.3906 18.875 11.75
Q22.9531 6.10938 30.0781 6.10938
Q37.2031 6.10938 41.2969 11.75
Q45.4062 17.3906 45.4062 27.2969
Q45.4062 37.2031 41.2969 42.8438
Q37.2031 48.4844 30.0781 48.4844
Q22.9531 48.4844 18.875 42.8438
Q14.7969 37.2031 14.7969 27.2969" id="BitstreamVeraSans-Roman-64"/>
     <path d="
M9.07812 75.9844
L18.1094 75.9844
L18.1094 31.1094
L44.9219 54.6875
L56.3906 54.6875
L27.3906 29.1094
L57.625 0
L45.9062 0
L18.1094 26.7031
L18.1094 0
L9.07812 0
z
" id="BitstreamVeraSans-Roman-6b"/>
    </defs>
    <g transform="translate(411.7275 38.2)scale(0.144 -0.144)">
     <use xlink:href="#BitstreamVeraSans-Roman-4d"/>
     <use x="86.279296875" xlink:href="#BitstreamVeraSans-Roman-65"/>
     <use x="147.802734375" xlink:href="#BitstreamVeraSans-Roman-64"/>
     <use x="211.279296875" xlink:href="#BitstreamVeraSans-Roman-69"/>
     <use x="239.0625" xlink:href="#BitstreamVeraSans-Roman-7a"/>
     <use x="291.552734375" xlink:href="#BitstreamVeraSans-Roman-69"/>
     <use x="319.3359375" xlink:href="#BitstreamVeraSans-Roman-6e"/>
     <use x="382.71484375" xlink:href="#BitstreamVeraSans-Roman-74"/>
     <use x="421.923828125" xlink:href="#BitstreamVeraSans-Roman-65"/>
     <use x="483.447265625" xlink:href="#BitstreamVeraSans-Roman-63"/>
     <use x="538.427734375" xlink:href="#BitstreamVeraSans-Roman-68"/>
     <use x="601.806640625" xlink:href="#BitstreamVeraSans-Roman-6e"/>
     <use x="665.185546875" xlink:href="#BitstreamVeraSans-Roman-69"/>
     <use x="692.96875" xlink:href="#BitstreamVeraSans-Roman-6b"/>
    </g>
   </g>
   <g id="legend_1">
    <g id="patch_7">
     <path d="
M123.942 423.616
L466.458 423.616
L466.458 398.16
L123.942 398.16
z
" style="fill:#ffffff;stroke:#000000;stroke-linejoin:miter;"/>
    </g>
    <g id="line2d_29">
     <path d="
M134.022 409.822
L154.182 409.822" style="fill:none;stroke:#ff0000;stroke-linecap:square;"/>
    </g>
    <g id="line2d_30"/>
    <g id="text_15">
     <!-- Schwarzmarktpreis -->
     <defs>
      <path d="
M34.2812 27.4844
Q23.3906 27.4844 19.1875 25
Q14.9844 22.5156 14.9844 16.5
Q14.9844 11.7188 18.1406 8.90625
Q21.2969 6.10938 26.7031 6.10938
Q34.1875 6.10938 38.7031 11.4062
Q43.2188 16.7031 43.2188 25.4844
L43.2188 27.4844
z

M52.2031 31.2031
L52.2031 0
L43.2188 0
L43.2188 8.29688
Q40.1406 3.32812 35.5469 0.953125
Q30.9531 -1.42188 24.3125 -1.42188
Q15.9219 -1.42188 10.9531 3.29688
Q6 8.01562 6 15.9219
Q6 25.1406 12.1719 29.8281
Q18.3594 34.5156 30.6094 34.5156
L43.2188 34.5156
L43.2188 35.4062
Q43.2188 41.6094 39.1406 45
Q35.0625 48.3906 27.6875 48.3906
Q23 48.3906 18.5469 47.2656
Q14.1094 46.1406 10.0156 43.8906
L10.0156 52.2031
Q14.9375 54.1094 19.5781 55.0469
Q24.2188 56 28.6094 56
Q40.4844 56 46.3438 49.8438
Q52.2031 43.7031 52.2031 31.2031" id="BitstreamVeraSans-Roman-61"/>
      <path d="
M53.5156 70.5156
L53.5156 60.8906
Q47.9062 63.5781 42.9219 64.8906
Q37.9375 66.2188 33.2969 66.2188
Q25.25 66.2188 20.875 63.0938
Q16.5 59.9688 16.5 54.2031
Q16.5 49.3594 19.4062 46.8906
Q22.3125 44.4375 30.4219 42.9219
L36.375 41.7031
Q47.4062 39.5938 52.6562 34.2969
Q57.9062 29 57.9062 20.125
Q57.9062 9.51562 50.7969 4.04688
Q43.7031 -1.42188 29.9844 -1.42188
Q24.8125 -1.42188 18.9688 -0.25
Q13.1406 0.921875 6.89062 3.21875
L6.89062 13.375
Q12.8906 10.0156 18.6562 8.29688
Q24.4219 6.59375 29.9844 6.59375
Q38.4219 6.59375 43.0156 9.90625
Q47.6094 13.2344 47.6094 19.3906
Q47.6094 24.75 44.3125 27.7812
Q41.0156 30.8125 33.5 32.3281
L27.4844 33.5
Q16.4531 35.6875 11.5156 40.375
Q6.59375 45.0625 6.59375 53.4219
Q6.59375 63.0938 13.4062 68.6562
Q20.2188 74.2188 32.1719 74.2188
Q37.3125 74.2188 42.625 73.2812
Q47.9531 72.3594 53.5156 70.5156" id="BitstreamVeraSans-Roman-53"/>
      <path d="
M52 44.1875
Q55.375 50.25 60.0625 53.125
Q64.75 56 71.0938 56
Q79.6406 56 84.2812 50.0156
Q88.9219 44.0469 88.9219 33.0156
L88.9219 0
L79.8906 0
L79.8906 32.7188
Q79.8906 40.5781 77.0938 44.375
Q74.3125 48.1875 68.6094 48.1875
Q61.625 48.1875 57.5625 43.5469
Q53.5156 38.9219 53.5156 30.9062
L53.5156 0
L44.4844 0
L44.4844 32.7188
Q44.4844 40.625 41.7031 44.4062
Q38.9219 48.1875 33.1094 48.1875
Q26.2188 48.1875 22.1562 43.5312
Q18.1094 38.875 18.1094 30.9062
L18.1094 0
L9.07812 0
L9.07812 54.6875
L18.1094 54.6875
L18.1094 46.1875
Q21.1875 51.2188 25.4844 53.6094
Q29.7812 56 35.6875 56
Q41.6562 56 45.8281 52.9688
Q50 49.9531 52 44.1875" id="BitstreamVeraSans-Roman-6d"/>
      <path d="
M4.20312 54.6875
L13.1875 54.6875
L24.4219 12.0156
L35.5938 54.6875
L46.1875 54.6875
L57.4219 12.0156
L68.6094 54.6875
L77.5938 54.6875
L63.2812 0
L52.6875 0
L40.9219 44.8281
L29.1094 0
L18.5 0
z
" id="BitstreamVeraSans-Roman-77"/>
      <path d="
M41.1094 46.2969
Q39.5938 47.1719 37.8125 47.5781
Q36.0312 48 33.8906 48
Q26.2656 48 22.1875 43.0469
Q18.1094 38.0938 18.1094 28.8125
L18.1094 0
L9.07812 0
L9.07812 54.6875
L18.1094 54.6875
L18.1094 46.1875
Q20.9531 51.1719 25.4844 53.5781
Q30.0312 56 36.5312 56
Q37.4531 56 38.5781 55.875
Q39.7031 55.7656 41.0625 55.5156
z
" id="BitstreamVeraSans-Roman-72"/>
      <path d="
M44.2812 53.0781
L44.2812 44.5781
Q40.4844 46.5312 36.375 47.5
Q32.2812 48.4844 27.875 48.4844
Q21.1875 48.4844 17.8438 46.4375
Q14.5 44.3906 14.5 40.2812
Q14.5 37.1562 16.8906 35.375
Q19.2812 33.5938 26.5156 31.9844
L29.5938 31.2969
Q39.1562 29.25 43.1875 25.5156
Q47.2188 21.7812 47.2188 15.0938
Q47.2188 7.46875 41.1875 3.01562
Q35.1562 -1.42188 24.6094 -1.42188
Q20.2188 -1.42188 15.4531 -0.5625
Q10.6875 0.296875 5.42188 2
L5.42188 11.2812
Q10.4062 8.6875 15.2344 7.39062
Q20.0625 6.10938 24.8125 6.10938
Q31.1562 6.10938 34.5625 8.28125
Q37.9844 10.4531 37.9844 14.4062
Q37.9844 18.0625 35.5156 20.0156
Q33.0625 21.9688 24.7031 23.7812
L21.5781 24.5156
Q13.2344 26.2656 9.51562 29.9062
Q5.8125 33.5469 5.8125 39.8906
Q5.8125 47.6094 11.2812 51.7969
Q16.75 56 26.8125 56
Q31.7812 56 36.1719 55.2656
Q40.5781 54.5469 44.2812 53.0781" id="BitstreamVeraSans-Roman-73"/>
      <path d="
M18.1094 8.20312
L18.1094 -20.7969
L9.07812 -20.7969
L9.07812 54.6875
L18.1094 54.6875
L18.1094 46.3906
Q20.9531 51.2656 25.2656 53.625
Q29.5938 56 35.5938 56
Q45.5625 56 51.7812 48.0938
Q58.0156 40.1875 58.0156 27.2969
Q58.0156 14.4062 51.7812 6.48438
Q45.5625 -1.42188 35.5938 -1.42188
Q29.5938 -1.42188 25.2656 0.953125
Q20.9531 3.32812 18.1094 8.20312
M48.6875 27.2969
Q48.6875 37.2031 44.6094 42.8438
Q40.5312 48.4844 33.4062 48.4844
Q26.2656 48.4844 22.1875 42.8438
Q18.1094 37.2031 18.1094 27.2969
Q18.1094 17.3906 22.1875 11.75
Q26.2656 6.10938 33.4062 6.10938
Q40.5312 6.10938 44.6094 11.75
Q48.6875 17.3906 48.6875 27.2969" id="BitstreamVeraSans-Roman-70"/>
     </defs>
     <g transform="translate(170.022375 414.86175)scale(0.144 -0.144)">
      <use xlink:href="#BitstreamVeraSans-Roman-53"/>
      <use x="63.4765625" xlink:href="#BitstreamVeraSans-Roman-63"/>
      <use x="118.45703125" xlink:href="#BitstreamVeraSans-Roman-68"/>
      <use x="181.8359375" xlink:href="#BitstreamVeraSans-Roman-77"/>
      <use x="263.623046875" xlink:href="#BitstreamVeraSans-Roman-61"/>
      <use x="324.90234375" xlink:href="#BitstreamVeraSans-Roman-72"/>
      <use x="366.015625" xlink:href="#BitstreamVeraSans-Roman-7a"/>
      <use x="418.505859375" xlink:href="#BitstreamVeraSans-Roman-6d"/>
      <use x="515.91796875" xlink:href="#BitstreamVeraSans-Roman-61"/>
      <use x="577.197265625" xlink:href="#BitstreamVeraSans-Roman-72"/>
      <use x="618.310546875" xlink:href="#BitstreamVeraSans-Roman-6b"/>
      <use x="676.220703125" xlink:href="#BitstreamVeraSans-Roman-74"/>
      <use x="715.4296875" xlink:href="#BitstreamVeraSans-Roman-70"/>
      <use x="778.90625" xlink:href="#BitstreamVeraSans-Roman-72"/>
      <use x="817.76953125" xlink:href="#BitstreamVeraSans-Roman-65"/>
      <use x="879.29296875" xlink:href="#BitstreamVeraSans-Roman-69"/>
      <use x="907.076171875" xlink:href="#BitstreamVeraSans-Roman-73"/>
     </g>
    </g>
    <g id="line2d_31">
     <path d="
M339.609 409.822
L359.769 409.822" style="fill:none;stroke:#008000;stroke-linecap:square;"/>
    </g>
    <g id="line2d_32"/>
    <g id="text_16">
     <!-- Normalpreis -->
     <defs>
      <path d="
M9.42188 75.9844
L18.4062 75.9844
L18.4062 0
L9.42188 0
z
" id="BitstreamVeraSans-Roman-6c"/>
     </defs>
     <g transform="translate(375.609375 414.86175)scale(0.144 -0.144)">
      <use xlink:href="#BitstreamVeraSans-Roman-4e"/>
      <use x="74.8046875" xlink:href="#BitstreamVeraSans-Roman-6f"/>
      <use x="135.986328125" xlink:href="#BitstreamVeraSans-Roman-72"/>
      <use x="175.349609375" xlink:href="#BitstreamVeraSans-Roman-6d"/>
      <use x="272.76171875" xlink:href="#BitstreamVeraSans-Roman-61"/>
      <use x="334.041015625" xlink:href="#BitstreamVeraSans-Roman-6c"/>
      <use x="361.82421875" xlink:href="#BitstreamVeraSans-Roman-70"/>
      <use x="425.30078125" xlink:href="#BitstreamVeraSans-Roman-72"/>
      <use x="464.1640625" xlink:href="#BitstreamVeraSans-Roman-65"/>
      <use x="525.6875" xlink:href="#BitstreamVeraSans-Roman-69"/>
      <use x="553.470703125" xlink:href="#BitstreamVeraSans-Roman-73"/>
     </g>
    </g>
   </g>
  </g>
 </g>
 <defs>
  <clipPath id="pcb2bf987bf">
   <rect height="302.4" width="446.4" x="72.0" y="43.2"/>
  </clipPath>
 </defs>
</svg>
