<?xml version="1.0" encoding="utf-8" standalone="no"?>
<!DOCTYPE svg PUBLIC "-//W3C//DTD SVG 1.1//EN"
  "http://www.w3.org/Graphics/SVG/1.1/DTD/svg11.dtd">
<!-- Created with matplotlib (http://matplotlib.org/) -->
<svg height="432pt" version="1.1" viewBox="0 0 576 432" width="576pt" xmlns="http://www.w3.org/2000/svg" xmlns:xlink="http://www.w3.org/1999/xlink">
 <defs>
  <style type="text/css">
*{stroke-linecap:butt;stroke-linejoin:round;}
  </style>
 </defs>
 <g id="figure_1">
  <g id="patch_1">
   <path d="
M0 432
L576 432
L576 0
L0 0
z
" style="fill:#ffffff;"/>
  </g>
  <g id="axes_1">
   <g id="patch_2">
    <path d="
M72 345.6
L518.4 345.6
L518.4 43.2
L72 43.2
z
" style="fill:#ffffff;"/>
   </g>
   <g id="line2d_1">
    <path clip-path="url(#pcb2bf987bf)" d="
M72 332.15
L79.0189 332.15
L79.2741 335.973
L79.4017 335.973
L79.6569 335.365
L79.7846 336.392
L81.6988 336.392
L82.4645 335.762
L83.2302 335.762
L83.613 335.549
L86.931 335.549
L87.0587 335.336
L87.4415 335.549
L87.6967 335.336
L87.8244 335.549
L91.9081 335.549
L92.5461 335.336
L92.6738 335.122
L93.3118 335.122
L94.2051 334.69
L96.3746 334.69
L97.1403 334.472
L98.0336 334.472
L98.7993 333.813
L99.4374 333.59
L100.331 333.59
L100.969 333.367
L104.032 333.367
L104.797 332.464
L105.563 332.464
L106.329 332.005
L107.095 332.005
L107.988 331.774
L108.626 331.774
L109.391 331.308
L109.519 331.074
L110.285 330.838
L111.05 331.308
L111.816 330.838
L113.986 330.838
L114.879 330.601
L116.283 330.363
L116.41 330.124
L117.048 330.363
L117.814 330.124
L117.942 329.883
L118.58 329.883
L118.707 330.124
L121.643 330.124
L122.536 329.883
L123.174 329.883
L124.067 330.124
L124.705 330.124
L125.471 329.399
L127.002 328.909
L127.13 328.909
L127.13 328.909
L127.768 329.155
L128.534 328.663
L128.661 328.909
L129.299 329.155
L130.065 321.384
L130.193 321.384
L130.831 321.1
L131.597 329.399
L132.362 328.38
L132.362 328.38
L133.894 321.1
L134.149 330.838
L134.659 333.143
L135.425 338.632
L136.318 338.293
L136.956 337.893
L139.381 337.285
L140.019 337.488
L140.785 337.488
L141.678 337.077
L142.316 336.303
L143.082 336.093
L143.848 332.977
L143.975 332.977
L144.613 336.093
L145.507 335.883
L146.272 335.883
L147.038 335.03
L147.676 334.597
L148.442 334.597
L149.335 333.718
L149.973 333.047
L150.867 334.379
L153.802 333.217
L154.567 333.217
L155.333 332.992
L155.333 332.992
L156.865 333.441
L157.758 333.217
L160.821 333.217
L162.224 332.992
L163.118 332.31
L164.649 332.31
L165.287 331.846
L166.053 329.181
L166.819 329.181
L167.584 328.689
L167.712 328.439
L168.35 327.594
L169.243 327.594
L169.881 328.689
L171.413 328.689
L172.178 328.193
L173.072 328.689
L173.71 327.068
L174.603 327.322
L176.9 327.322
L177.538 326.812
L179.07 326.812
L179.963 326.555
L180.601 326.555
L180.729 327.322
L184.43 327.322
L185.195 326.812
L185.961 328.689
L186.727 328.442
L188.258 328.442
L189.024 331.846
L189.151 331.846
L190.555 331.563
L191.321 331.614
L191.321 331.614
L192.852 331.147
L194.384 331.147
L195.277 330.912
L196.681 330.912
L198.212 330.608
L198.212 330.608
L200.509 331.614
L202.806 330.912
L203.572 331.147
L203.699 330.675
L205.103 330.675
L205.231 330.912
L205.869 331.846
L205.997 331.614
L206.124 331.614
L206.635 331.381
L206.635 331.381
L207.4 331.381
L207.911 330.912
L208.166 330.912
L208.804 341.6
L209.059 341.42
L209.059 341.42
L209.57 341.603
L209.825 341.42
L210.591 341.091
L210.846 340.707
L211.867 340.703
L212.25 340.515
L214.164 340.515
L214.547 340.327
L215.951 340.327
L215.951 340.327
L216.078 338.632
L216.461 338.632
L216.589 338.235
L216.589 338.235
L216.844 338.235
L217.482 337.834
L217.482 337.834
L218.375 337.834
L218.758 337.633
L219.779 337.633
L219.907 337.43
L220.162 337.43
L220.545 337.021
L221.438 337.021
L221.693 336.815
L222.587 336.815
L222.842 335.805
L222.842 335.805
L223.225 335.805
L223.352 335.593
L224.501 335.521
L224.756 332.48
L224.884 332.48
L225.139 335.521
L225.522 335.093
L227.181 335.093
L227.436 334.877
L227.436 334.877
L227.946 334.877
L228.329 335.093
L228.967 334.66
L229.35 334.66
L229.478 334.877
L232.158 334.877
L232.796 334.443
L232.796 334.443
L233.689 334.443
L234.072 334.224
L235.603 334.224
L235.986 334.004
L236.242 334.004
L236.369 333.783
L236.752 334.224
L237.901 334.224
L238.283 334.004
L238.666 334.004
L238.921 329.366
L239.049 334.224
L241.346 334.222
L241.729 334.002
L242.112 334.222
L242.75 333.781
L244.026 333.781
L244.409 333.559
L246.196 333.559
L246.323 333.336
L246.706 333.559
L248.62 333.559
L249.003 333.336
L249.258 333.559
L250.152 333.559
L250.534 333.336
L250.79 333.336
L250.917 333.558
L251.555 333.11
L253.214 333.11
L253.597 332.885
L255.129 332.885
L255.129 332.885
L255.511 333.11
L255.511 333.11
L255.767 333.11
L255.767 333.11
L255.894 332.885
L256.277 332.885
L256.66 332.658
L256.66 332.658
L257.043 332.658
L257.298 332.202
L258.447 332.202
L258.574 331.971
L258.957 331.971
L259.34 332.202
L259.595 332.202
L259.595 332.202
L259.978 331.74
L260.106 331.971
L260.744 331.508
L260.871 331.971
L261.254 331.971
L261.637 332.201
L261.892 332.201
L262.02 331.971
L262.275 321.667
L262.403 321.1
L262.658 332.658
L262.786 332.658
L263.168 332.2
L263.807 331.738
L263.934 332.658
L264.189 332.658
L264.189 332.658
L264.317 332.412
L264.572 332.183
L264.7 332.412
L265.083 332.183
L265.338 332.183
L265.466 332.412
L266.231 332.412
L266.869 331.952
L267.763 331.952
L268.018 332.412
L269.677 332.412
L270.06 332.183
L270.315 332.183
L270.443 331.952
L271.081 331.952
L271.463 332.183
L271.974 331.721
L272.357 331.721
L272.74 331.489
L272.995 331.489
L273.122 331.255
L274.909 331.255
L274.909 331.255
L275.037 331.02
L275.292 331.02
L275.802 330.784
L276.185 330.784
L276.441 332.183
L276.568 332.183
L276.823 331.489
L277.206 331.489
L277.334 331.255
L277.589 331.489
L277.972 331.046
L277.972 331.046
L279.248 331.046
L279.631 330.095
L280.014 329.37
L280.397 329.37
L280.652 328.88
L280.779 328.386
L281.162 327.886
L281.417 327.382
L281.545 327.382
L281.801 328.137
L282.311 327.886
L282.694 328.137
L283.077 318.56
L283.332 318.56
L283.459 321.67
L283.715 321.67
L283.842 321.951
L284.097 328.137
L284.736 328.137
L285.374 327.886
L285.629 327.41
L285.756 327.663
L286.012 327.663
L286.139 327.41
L286.522 327.41
L286.905 327.156
L288.054 327.156
L288.437 327.41
L288.819 327.41
L289.074 326.901
L289.457 326.901
L289.585 327.156
L289.968 326.901
L290.351 326.901
L290.606 327.863
L290.733 327.862
L290.861 327.322
L290.989 327.862
L291.116 327.61
L291.499 327.61
L291.754 327.357
L292.265 327.61
L292.903 327.61
L293.031 327.862
L293.413 327.863
L293.796 327.104
L294.434 326.591
L294.562 326.591
L294.817 328.88
L294.817 328.88
L295.328 328.88
L295.583 328.386
L295.966 328.386
L296.476 328.137
L296.731 328.137
L296.859 327.886
L297.242 327.634
L297.625 327.605
L298.008 327.352
L300.56 327.352
L300.687 327.098
L300.943 327.098
L301.07 326.842
L302.091 326.842
L302.219 326.585
L304.771 326.585
L304.899 327.352
L305.282 327.098
L305.664 327.098
L306.047 326.842
L306.303 326.842
L306.43 327.098
L306.685 330.81
L315.874 330.81
L316.257 336.913
L316.384 336.913
L316.767 336.706
L317.15 336.706
L317.533 336.29
L317.916 336.499
L318.554 336.081
L318.554 336.081
L318.681 336.081
L319.064 335.87
L319.447 335.87
L320.085 335.445
L320.851 335.445
L320.851 335.445
L321.234 332.97
L321.361 332.97
L321.616 332.743
L322.127 332.97
L322.765 332.97
L322.893 335.445
L324.424 335.445
L324.807 335.017
L325.445 335.017
L325.573 334.801
L325.956 334.801
L326.338 334.584
L326.593 335.017
L326.721 334.801
L326.976 334.801
L327.104 335.017
L327.487 334.801
L327.87 334.801
L328.125 328.736
L328.252 328.736
L328.508 334.583
L329.018 334.583
L329.656 334.146
L329.784 334.146
L330.039 333.926
L330.167 325.443
L330.422 334.583
L331.698 334.583
L332.336 334.143
L333.102 334.146
L333.23 333.926
L334.378 333.926
L334.761 333.704
L335.782 333.704
L335.909 333.926
L336.165 333.926
L336.292 334.799
L336.675 334.582
L337.058 334.799
L337.441 334.582
L337.696 334.582
L337.824 328.736
L338.207 328.736
L338.462 328.488
L338.589 328.736
L338.845 334.582
L341.142 334.582
L341.269 334.364
L341.652 334.364
L342.035 334.145
L342.29 334.145
L342.418 334.582
L342.801 334.145
L343.949 334.145
L344.588 334.582
L345.481 334.562
L345.736 334.108
L346.246 334.108
L346.629 333.666
L347.012 333.888
L347.267 333.666
L347.395 333.888
L348.543 333.888
L348.926 333.666
L349.692 333.666
L350.33 333.219
L350.458 333.666
L350.84 333.666
L351.224 333.443
L351.606 333.219
L351.989 333.219
L352.372 333.443
L352.755 333.219
L353.01 333.219
L353.138 332.994
L353.776 332.994
L353.776 332.994
L354.669 332.083
L355.052 332.083
L355.307 332.768
L355.307 332.768
L355.435 332.541
L355.817 332.541
L356.073 332.083
L356.2 332.313
L356.583 332.083
L359.518 332.083
L359.646 331.852
L360.795 331.852
L361.177 331.621
L361.943 331.621
L362.326 331.388
L363.092 331.388
L363.474 331.153
L363.73 331.153
L363.857 331.388
L364.113 331.046
L364.24 331.388
L364.878 331.388
L365.006 331.153
L365.389 331.153
L365.644 330.682
L365.772 330.682
L366.155 330.444
L366.92 330.444
L367.303 330.193
L367.558 330.682
L367.941 330.682
L368.069 330.205
L368.451 330.205
L368.707 329.965
L369.09 329.238
L369.6 322.788
L369.855 329.238
L370.621 329.238
L371.004 328.499
L371.897 328.499
L372.28 328.251
L372.663 328.251
L373.046 328.001
L373.301 327.244
L373.684 328.001
L373.684 328.001
L374.449 328.001
L374.577 327.497
L374.832 326.989
L374.96 327.497
L375.343 327.244
L375.981 327.244
L376.108 327.497
L376.491 327.322
L380.192 327.244
L380.703 326.989
L380.958 326.989
L381.086 326.733
L381.468 326.733
L381.851 326.475
L382.107 326.475
L382.234 326.217
L382.489 326.217
L382.617 325.957
L383.383 325.957
L384.021 325.433
L384.786 325.433
L385.169 325.695
L385.297 325.433
L385.68 325.169
L386.062 325.169
L386.445 324.903
L386.828 324.903
L387.083 304.844
L387.211 304.844
L387.466 324.903
L387.594 324.227
L387.849 323.957
L387.977 324.495
L388.232 323.685
L388.232 323.685
L388.36 323.685
L388.742 323.412
L389.125 323.412
L389.763 322.863
L389.891 322.863
L390.146 322.028
L390.274 322.028
L390.529 321.735
L390.657 208.567
L390.912 321.453
L391.039 321.735
L391.422 321.735
L392.06 321.169
L392.188 321.169
L392.826 321.747
L392.954 322.586
L393.209 322.586
L393.337 322.855
L395.123 322.855
L395.251 322.578
L395.634 322.578
L396.016 322.863
L397.548 322.863
L397.803 323.956
L398.314 323.956
L398.569 324.495
L398.696 324.495
L398.952 323.956
L399.079 323.956
L399.335 323.685
L399.462 323.956
L399.845 323.956
L400.1 324.495
L400.228 324.495
L400.866 323.686
L400.993 323.413
L401.759 323.413
L402.142 323.139
L402.397 323.139
L402.525 322.864
L402.908 322.864
L403.163 322.309
L403.291 322.587
L403.546 322.587
L403.673 322.309
L404.311 322.309
L404.439 322.029
L404.822 322.029
L405.077 323.139
L405.588 323.139
L405.97 322.864
L406.353 321.748
L406.609 323.686
L406.991 323.686
L407.119 323.413
L407.502 323.686
L407.757 323.139
L408.523 323.139
L408.65 323.413
L408.906 323.139
L409.033 322.587
L409.416 322.309
L409.671 322.309
L410.054 321.667
L410.565 321.653
L410.82 321.384
L410.948 321.667
L412.479 321.667
L412.607 321.384
L414.01 321.384
L414.393 321.1
L415.159 321.1
L415.542 321.384
L416.307 321.384
L416.69 321.1
L416.945 321.1
L417.073 320.815
L417.456 320.815
L417.711 321.667
L418.094 321.667
L418.222 321.384
L418.477 321.384
L418.604 321.667
L418.987 321.667
L419.625 321.1
L420.136 321.1
L420.391 320.528
L420.902 320.528
L421.157 318.84
L421.284 318.84
L421.922 318.259
L422.688 318.259
L422.816 318.557
L423.199 318.84
L423.581 318.84
L423.837 318.244
L423.964 318.543
L424.347 318.543
L424.73 317.643
L424.985 317.643
L425.113 317.945
L425.496 317.643
L425.879 317.643
L426.261 317.945
L426.899 317.945
L427.665 316.111
L428.048 316.111
L428.176 315.801
L428.431 59.1532
L428.558 316.111
L428.814 316.111
L428.941 315.489
L429.324 315.489
L429.579 334.518
L429.707 334.518
L430.345 334.08
L431.238 334.08
L431.621 333.859
L432.004 334.08
L432.387 334.08
L432.77 333.859
L435.45 333.859
L435.833 334.08
L436.215 333.859
L436.471 333.859
L436.598 333.637
L437.236 333.637
L437.619 332.965
L437.747 333.637
L438.002 333.19
L438.13 333.637
L439.151 333.637
L439.661 333.414
L441.192 333.411
L441.831 332.962
L441.831 332.962
L441.958 332.962
L442.341 329.908
L442.724 329.908
L442.979 332.962
L443.49 332.962
L443.745 331.478
L444.128 331.478
L444.255 332.962
L444.51 332.962
L444.638 332.735
L444.893 332.735
L445.021 332.05
L445.404 331.819
L445.659 328.759
L446.042 332.049
L447.318 332.044
L447.701 330.762
L447.956 261.823
L448.084 261.823
L448.339 331.813
L448.467 331.813
L448.722 331.348
L449.87 331.348
L449.998 330.641
L450.126 330.641
L450.381 330.404
L452.295 330.404
L452.678 330.164
L453.444 330.164
L453.699 330.404
L454.209 329.683
L454.592 329.924
L454.847 329.924
L454.847 329.924
L454.975 329.683
L455.358 329.44
L456.889 329.44
L457.144 329.196
L457.272 329.44
L457.527 329.196
L457.655 329.44
L457.91 329.44
L458.038 329.197
L458.421 329.44
L458.676 329.196
L458.803 321.667
L459.059 329.44
L459.952 329.44
L460.59 328.951
L460.718 328.951
L460.973 328.457
L461.866 328.457
L462.504 327.707
L462.632 328.208
L463.015 327.958
L463.27 327.958
L463.398 328.208
L463.781 328.208
L464.036 327.958
L464.163 328.208
L465.567 328.208
L465.567 328.208
L465.695 327.958
L466.46 327.958
L466.716 327.454
L467.098 327.454
L467.098 327.454
L467.226 327.201
L467.864 327.201
L467.992 327.454
L468.757 327.454
L469.013 327.707
L469.14 328.208
L470.289 328.208
L470.927 327.706
L474.373 327.702
L474.5 327.449
L474.883 327.196
L475.266 327.196
L475.904 327.707
L476.032 327.707
L476.287 328.457
L476.797 328.457
L477.052 327.707
L477.563 327.707
L477.818 327.201
L477.946 327.454
L478.329 326.946
L478.711 326.173
L479.094 326.173
L479.477 326.432
L479.732 325.908
L482.412 325.908
L482.54 325.647
L485.092 325.626
L485.22 325.363
L486.624 325.363
L486.751 325.098
L487.007 325.098
L487.134 324.833
L487.389 324.028
L490.58 324.028
L490.963 323.757
L491.728 323.757
L491.984 323.211
L492.494 323.211
L492.877 322.936
L493.643 322.936
L494.026 321.384
L494.281 320.815
L494.408 320.239
L494.791 320.239
L495.557 319.354
L495.684 318.543
L495.812 318.543
L495.812 318.543
L495.94 315.701
L496.578 315.671
L496.705 312.561
L496.961 311.571
L497.343 311.571
L497.471 311.238
L497.726 311.186
L498.109 310.175
L498.62 310.175
L498.875 309.493
L499.002 309.493
L499.385 308.457
L499.768 308.804
L500.023 307.53
L500.406 307.459
L500.534 307.105
L500.789 306.75
L500.917 307.105
L501.172 307.105
L501.299 306.392
L501.555 307.105
L501.938 307.105
L502.065 307.459
L503.086 307.459
L503.214 309.493
L503.469 308.804
L503.852 308.804
L503.979 308.457
L505.128 308.457
L505.383 308.804
L505.511 308.457
L506.277 308.457
L506.659 308.804
L507.297 308.804
L507.425 308.457
L507.808 308.457
L508.191 308.804
L509.339 308.804
L509.595 308.108
L509.722 308.108
L509.977 307.758
L510.871 307.758
L511.126 307.406
L511.509 307.728
L511.636 307.318
L512.019 307.318
L512.274 301.875
L512.785 301.875
L513.168 301.493
L513.551 297.882
L513.933 297.882
L514.189 307.671
L515.082 307.671
L515.465 306.964
L515.72 305.889
L516.231 305.889
L516.613 305.528
L516.869 305.889
L516.996 306.607
L517.379 306.963
L518.4 306.963
L518.4 306.963" style="fill:none;stroke:#ff0000;stroke-linecap:square;"/>
   </g>
   <g id="line2d_2">
    <path clip-path="url(#pcb2bf987bf)" d="
M72 342.827
L82.4645 342.897
L108.626 343.006
L153.164 343.157
L160.821 343.169
L196.681 343.301
L216.589 343.267
L216.589 343.267
L217.482 343.242
L217.482 343.242
L217.865 343.284
L246.578 343.392
L246.578 343.392
L250.917 343.419
L284.097 343.529
L287.288 343.53
L316.257 343.631
L317.533 343.643
L352.244 343.741
L353.01 343.76
L357.221 343.764
L388.232 343.829
L388.232 343.829
L388.615 343.883
L429.579 343.804
L429.962 343.754
L518.4 343.822
L518.4 343.822" style="fill:none;stroke:#008000;stroke-linecap:square;"/>
   </g>
   <g id="patch_3">
    <path d="
M72 43.2
L518.4 43.2" style="fill:none;stroke:#000000;stroke-linecap:square;stroke-linejoin:miter;"/>
   </g>
   <g id="patch_4">
    <path d="
M518.4 345.6
L518.4 43.2" style="fill:none;stroke:#000000;stroke-linecap:square;stroke-linejoin:miter;"/>
   </g>
   <g id="patch_5">
    <path d="
M72 345.6
L518.4 345.6" style="fill:none;stroke:#000000;stroke-linecap:square;stroke-linejoin:miter;"/>
   </g>
   <g id="patch_6">
    <path d="
M72 345.6
L72 43.2" style="fill:none;stroke:#000000;stroke-linecap:square;stroke-linejoin:miter;"/>
   </g>
   <g id="matplotlib.axis_1">
    <g id="xtick_1">
     <g id="line2d_3">
      <defs>
       <path d="
M0 0
L0 -4" id="m93b0483c22" style="stroke:#000000;stroke-width:0.5;"/>
      </defs>
      <g>
       <use style="stroke:#000000;stroke-width:0.5;" x="117.941468267" xlink:href="#m93b0483c22" y="345.6"/>
      </g>
     </g>
     <g id="line2d_4">
      <defs>
       <path d="
M0 0
L0 4" id="m741efc42ff" style="stroke:#000000;stroke-width:0.5;"/>
      </defs>
      <g>
       <use style="stroke:#000000;stroke-width:0.5;" x="117.941468267" xlink:href="#m741efc42ff" y="43.2"/>
      </g>
     </g>
     <g id="text_1">
      <!-- Oct 13 2015 -->
      <defs>
       <path d="
M19.1875 8.29688
L53.6094 8.29688
L53.6094 0
L7.32812 0
L7.32812 8.29688
Q12.9375 14.1094 22.625 23.8906
Q32.3281 33.6875 34.8125 36.5312
Q39.5469 41.8438 41.4219 45.5312
Q43.3125 49.2188 43.3125 52.7812
Q43.3125 58.5938 39.2344 62.25
Q35.1562 65.9219 28.6094 65.9219
Q23.9688 65.9219 18.8125 64.3125
Q13.6719 62.7031 7.8125 59.4219
L7.8125 69.3906
Q13.7656 71.7812 18.9375 73
Q24.125 74.2188 28.4219 74.2188
Q39.75 74.2188 46.4844 68.5469
Q53.2188 62.8906 53.2188 53.4219
Q53.2188 48.9219 51.5312 44.8906
Q49.8594 40.875 45.4062 35.4062
Q44.1875 33.9844 37.6406 27.2188
Q31.1094 20.4531 19.1875 8.29688" id="BitstreamVeraSans-Roman-32"/>
       <path d="
M39.4062 66.2188
Q28.6562 66.2188 22.3281 58.2031
Q16.0156 50.2031 16.0156 36.375
Q16.0156 22.6094 22.3281 14.5938
Q28.6562 6.59375 39.4062 6.59375
Q50.1406 6.59375 56.4219 14.5938
Q62.7031 22.6094 62.7031 36.375
Q62.7031 50.2031 56.4219 58.2031
Q50.1406 66.2188 39.4062 66.2188
M39.4062 74.2188
Q54.7344 74.2188 63.9062 63.9375
Q73.0938 53.6562 73.0938 36.375
Q73.0938 19.1406 63.9062 8.85938
Q54.7344 -1.42188 39.4062 -1.42188
Q24.0312 -1.42188 14.8125 8.82812
Q5.60938 19.0938 5.60938 36.375
Q5.60938 53.6562 14.8125 63.9375
Q24.0312 74.2188 39.4062 74.2188" id="BitstreamVeraSans-Roman-4f"/>
       <path d="
M31.7812 66.4062
Q24.1719 66.4062 20.3281 58.9062
Q16.5 51.4219 16.5 36.375
Q16.5 21.3906 20.3281 13.8906
Q24.1719 6.39062 31.7812 6.39062
Q39.4531 6.39062 43.2812 13.8906
Q47.125 21.3906 47.125 36.375
Q47.125 51.4219 43.2812 58.9062
Q39.4531 66.4062 31.7812 66.4062
M31.7812 74.2188
Q44.0469 74.2188 50.5156 64.5156
Q56.9844 54.8281 56.9844 36.375
Q56.9844 17.9688 50.5156 8.26562
Q44.0469 -1.42188 31.7812 -1.42188
Q19.5312 -1.42188 13.0625 8.26562
Q6.59375 17.9688 6.59375 36.375
Q6.59375 54.8281 13.0625 64.5156
Q19.5312 74.2188 31.7812 74.2188" id="BitstreamVeraSans-Roman-30"/>
       <path d="
M12.4062 8.29688
L28.5156 8.29688
L28.5156 63.9219
L10.9844 60.4062
L10.9844 69.3906
L28.4219 72.9062
L38.2812 72.9062
L38.2812 8.29688
L54.3906 8.29688
L54.3906 0
L12.4062 0
z
" id="BitstreamVeraSans-Roman-31"/>
       <path d="
M40.5781 39.3125
Q47.6562 37.7969 51.625 33
Q55.6094 28.2188 55.6094 21.1875
Q55.6094 10.4062 48.1875 4.48438
Q40.7656 -1.42188 27.0938 -1.42188
Q22.5156 -1.42188 17.6562 -0.515625
Q12.7969 0.390625 7.625 2.20312
L7.625 11.7188
Q11.7188 9.32812 16.5938 8.10938
Q21.4844 6.89062 26.8125 6.89062
Q36.0781 6.89062 40.9375 10.5469
Q45.7969 14.2031 45.7969 21.1875
Q45.7969 27.6406 41.2812 31.2656
Q36.7656 34.9062 28.7188 34.9062
L20.2188 34.9062
L20.2188 43.0156
L29.1094 43.0156
Q36.375 43.0156 40.2344 45.9219
Q44.0938 48.8281 44.0938 54.2969
Q44.0938 59.9062 40.1094 62.9062
Q36.1406 65.9219 28.7188 65.9219
Q24.6562 65.9219 20.0156 65.0312
Q15.375 64.1562 9.8125 62.3125
L9.8125 71.0938
Q15.4375 72.6562 20.3438 73.4375
Q25.25 74.2188 29.5938 74.2188
Q40.8281 74.2188 47.3594 69.1094
Q53.9062 64.0156 53.9062 55.3281
Q53.9062 49.2656 50.4375 45.0938
Q46.9688 40.9219 40.5781 39.3125" id="BitstreamVeraSans-Roman-33"/>
       <path id="BitstreamVeraSans-Roman-20"/>
       <path d="
M10.7969 72.9062
L49.5156 72.9062
L49.5156 64.5938
L19.8281 64.5938
L19.8281 46.7344
Q21.9688 47.4688 24.1094 47.8281
Q26.2656 48.1875 28.4219 48.1875
Q40.625 48.1875 47.75 41.5
Q54.8906 34.8125 54.8906 23.3906
Q54.8906 11.625 47.5625 5.09375
Q40.2344 -1.42188 26.9062 -1.42188
Q22.3125 -1.42188 17.5469 -0.640625
Q12.7969 0.140625 7.71875 1.70312
L7.71875 11.625
Q12.1094 9.23438 16.7969 8.0625
Q21.4844 6.89062 26.7031 6.89062
Q35.1562 6.89062 40.0781 11.3281
Q45.0156 15.7656 45.0156 23.3906
Q45.0156 31 40.0781 35.4375
Q35.1562 39.8906 26.7031 39.8906
Q22.75 39.8906 18.8125 39.0156
Q14.8906 38.1406 10.7969 36.2812
z
" id="BitstreamVeraSans-Roman-35"/>
       <path d="
M18.3125 70.2188
L18.3125 54.6875
L36.8125 54.6875
L36.8125 47.7031
L18.3125 47.7031
L18.3125 18.0156
Q18.3125 11.3281 20.1406 9.42188
Q21.9688 7.51562 27.5938 7.51562
L36.8125 7.51562
L36.8125 0
L27.5938 0
Q17.1875 0 13.2344 3.875
Q9.28125 7.76562 9.28125 18.0156
L9.28125 47.7031
L2.6875 47.7031
L2.6875 54.6875
L9.28125 54.6875
L9.28125 70.2188
z
" id="BitstreamVeraSans-Roman-74"/>
       <path d="
M48.7812 52.5938
L48.7812 44.1875
Q44.9688 46.2969 41.1406 47.3438
Q37.3125 48.3906 33.4062 48.3906
Q24.6562 48.3906 19.8125 42.8438
Q14.9844 37.3125 14.9844 27.2969
Q14.9844 17.2812 19.8125 11.7344
Q24.6562 6.20312 33.4062 6.20312
Q37.3125 6.20312 41.1406 7.25
Q44.9688 8.29688 48.7812 10.4062
L48.7812 2.09375
Q45.0156 0.34375 40.9844 -0.53125
Q36.9688 -1.42188 32.4219 -1.42188
Q20.0625 -1.42188 12.7812 6.34375
Q5.51562 14.1094 5.51562 27.2969
Q5.51562 40.6719 12.8594 48.3281
Q20.2188 56 33.0156 56
Q37.1562 56 41.1094 55.1406
Q45.0625 54.2969 48.7812 52.5938" id="BitstreamVeraSans-Roman-63"/>
      </defs>
      <g transform="translate(53.3541815316 394.065590385)rotate(-30.0)scale(0.12 -0.12)">
       <use xlink:href="#BitstreamVeraSans-Roman-4f"/>
       <use x="78.7109375" xlink:href="#BitstreamVeraSans-Roman-63"/>
       <use x="133.69140625" xlink:href="#BitstreamVeraSans-Roman-74"/>
       <use x="172.900390625" xlink:href="#BitstreamVeraSans-Roman-20"/>
       <use x="204.6875" xlink:href="#BitstreamVeraSans-Roman-31"/>
       <use x="268.310546875" xlink:href="#BitstreamVeraSans-Roman-33"/>
       <use x="331.93359375" xlink:href="#BitstreamVeraSans-Roman-20"/>
       <use x="363.720703125" xlink:href="#BitstreamVeraSans-Roman-32"/>
       <use x="427.34375" xlink:href="#BitstreamVeraSans-Roman-30"/>
       <use x="490.966796875" xlink:href="#BitstreamVeraSans-Roman-31"/>
       <use x="554.58984375" xlink:href="#BitstreamVeraSans-Roman-35"/>
      </g>
     </g>
    </g>
    <g id="xtick_2">
     <g id="line2d_5">
      <g>
       <use style="stroke:#000000;stroke-width:0.5;" x="173.071485419" xlink:href="#m93b0483c22" y="345.6"/>
      </g>
     </g>
     <g id="line2d_6">
      <g>
       <use style="stroke:#000000;stroke-width:0.5;" x="173.071485419" xlink:href="#m741efc42ff" y="43.2"/>
      </g>
     </g>
     <g id="text_2">
      <!-- Oct 16 2015 -->
      <defs>
       <path d="
M33.0156 40.375
Q26.375 40.375 22.4844 35.8281
Q18.6094 31.2969 18.6094 23.3906
Q18.6094 15.5312 22.4844 10.9531
Q26.375 6.39062 33.0156 6.39062
Q39.6562 6.39062 43.5312 10.9531
Q47.4062 15.5312 47.4062 23.3906
Q47.4062 31.2969 43.5312 35.8281
Q39.6562 40.375 33.0156 40.375
M52.5938 71.2969
L52.5938 62.3125
Q48.875 64.0625 45.0938 64.9844
Q41.3125 65.9219 37.5938 65.9219
Q27.8281 65.9219 22.6719 59.3281
Q17.5312 52.7344 16.7969 39.4062
Q19.6719 43.6562 24.0156 45.9219
Q28.375 48.1875 33.5938 48.1875
Q44.5781 48.1875 50.9531 41.5156
Q57.3281 34.8594 57.3281 23.3906
Q57.3281 12.1562 50.6875 5.35938
Q44.0469 -1.42188 33.0156 -1.42188
Q20.3594 -1.42188 13.6719 8.26562
Q6.98438 17.9688 6.98438 36.375
Q6.98438 53.6562 15.1875 63.9375
Q23.3906 74.2188 37.2031 74.2188
Q40.9219 74.2188 44.7031 73.4844
Q48.4844 72.75 52.5938 71.2969" id="BitstreamVeraSans-Roman-36"/>
      </defs>
      <g transform="translate(108.484198684 394.065590385)rotate(-30.0)scale(0.12 -0.12)">
       <use xlink:href="#BitstreamVeraSans-Roman-4f"/>
       <use x="78.7109375" xlink:href="#BitstreamVeraSans-Roman-63"/>
       <use x="133.69140625" xlink:href="#BitstreamVeraSans-Roman-74"/>
       <use x="172.900390625" xlink:href="#BitstreamVeraSans-Roman-20"/>
       <use x="204.6875" xlink:href="#BitstreamVeraSans-Roman-31"/>
       <use x="268.310546875" xlink:href="#BitstreamVeraSans-Roman-36"/>
       <use x="331.93359375" xlink:href="#BitstreamVeraSans-Roman-20"/>
       <use x="363.720703125" xlink:href="#BitstreamVeraSans-Roman-32"/>
       <use x="427.34375" xlink:href="#BitstreamVeraSans-Roman-30"/>
       <use x="490.966796875" xlink:href="#BitstreamVeraSans-Roman-31"/>
       <use x="554.58984375" xlink:href="#BitstreamVeraSans-Roman-35"/>
      </g>
     </g>
    </g>
    <g id="xtick_3">
     <g id="line2d_7">
      <g>
       <use style="stroke:#000000;stroke-width:0.5;" x="228.201502573" xlink:href="#m93b0483c22" y="345.6"/>
      </g>
     </g>
     <g id="line2d_8">
      <g>
       <use style="stroke:#000000;stroke-width:0.5;" x="228.201502573" xlink:href="#m741efc42ff" y="43.2"/>
      </g>
     </g>
     <g id="text_3">
      <!-- Oct 19 2015 -->
      <defs>
       <path d="
M10.9844 1.51562
L10.9844 10.5
Q14.7031 8.73438 18.5 7.8125
Q22.3125 6.89062 25.9844 6.89062
Q35.75 6.89062 40.8906 13.4531
Q46.0469 20.0156 46.7812 33.4062
Q43.9531 29.2031 39.5938 26.9531
Q35.25 24.7031 29.9844 24.7031
Q19.0469 24.7031 12.6719 31.3125
Q6.29688 37.9375 6.29688 49.4219
Q6.29688 60.6406 12.9375 67.4219
Q19.5781 74.2188 30.6094 74.2188
Q43.2656 74.2188 49.9219 64.5156
Q56.5938 54.8281 56.5938 36.375
Q56.5938 19.1406 48.4062 8.85938
Q40.2344 -1.42188 26.4219 -1.42188
Q22.7031 -1.42188 18.8906 -0.6875
Q15.0938 0.046875 10.9844 1.51562
M30.6094 32.4219
Q37.25 32.4219 41.125 36.9531
Q45.0156 41.5 45.0156 49.4219
Q45.0156 57.2812 41.125 61.8438
Q37.25 66.4062 30.6094 66.4062
Q23.9688 66.4062 20.0938 61.8438
Q16.2188 57.2812 16.2188 49.4219
Q16.2188 41.5 20.0938 36.9531
Q23.9688 32.4219 30.6094 32.4219" id="BitstreamVeraSans-Roman-39"/>
      </defs>
      <g transform="translate(163.614215838 394.065590385)rotate(-30.0)scale(0.12 -0.12)">
       <use xlink:href="#BitstreamVeraSans-Roman-4f"/>
       <use x="78.7109375" xlink:href="#BitstreamVeraSans-Roman-63"/>
       <use x="133.69140625" xlink:href="#BitstreamVeraSans-Roman-74"/>
       <use x="172.900390625" xlink:href="#BitstreamVeraSans-Roman-20"/>
       <use x="204.6875" xlink:href="#BitstreamVeraSans-Roman-31"/>
       <use x="268.310546875" xlink:href="#BitstreamVeraSans-Roman-39"/>
       <use x="331.93359375" xlink:href="#BitstreamVeraSans-Roman-20"/>
       <use x="363.720703125" xlink:href="#BitstreamVeraSans-Roman-32"/>
       <use x="427.34375" xlink:href="#BitstreamVeraSans-Roman-30"/>
       <use x="490.966796875" xlink:href="#BitstreamVeraSans-Roman-31"/>
       <use x="554.58984375" xlink:href="#BitstreamVeraSans-Roman-35"/>
      </g>
     </g>
    </g>
    <g id="xtick_4">
     <g id="line2d_9">
      <g>
       <use style="stroke:#000000;stroke-width:0.5;" x="283.331519725" xlink:href="#m93b0483c22" y="345.6"/>
      </g>
     </g>
     <g id="line2d_10">
      <g>
       <use style="stroke:#000000;stroke-width:0.5;" x="283.331519725" xlink:href="#m741efc42ff" y="43.2"/>
      </g>
     </g>
     <g id="text_4">
      <!-- Oct 22 2015 -->
      <g transform="translate(218.74423299 394.065590385)rotate(-30.0)scale(0.12 -0.12)">
       <use xlink:href="#BitstreamVeraSans-Roman-4f"/>
       <use x="78.7109375" xlink:href="#BitstreamVeraSans-Roman-63"/>
       <use x="133.69140625" xlink:href="#BitstreamVeraSans-Roman-74"/>
       <use x="172.900390625" xlink:href="#BitstreamVeraSans-Roman-20"/>
       <use x="204.6875" xlink:href="#BitstreamVeraSans-Roman-32"/>
       <use x="268.310546875" xlink:href="#BitstreamVeraSans-Roman-32"/>
       <use x="331.93359375" xlink:href="#BitstreamVeraSans-Roman-20"/>
       <use x="363.720703125" xlink:href="#BitstreamVeraSans-Roman-32"/>
       <use x="427.34375" xlink:href="#BitstreamVeraSans-Roman-30"/>
       <use x="490.966796875" xlink:href="#BitstreamVeraSans-Roman-31"/>
       <use x="554.58984375" xlink:href="#BitstreamVeraSans-Roman-35"/>
      </g>
     </g>
    </g>
    <g id="xtick_5">
     <g id="line2d_11">
      <g>
       <use style="stroke:#000000;stroke-width:0.5;" x="338.461536877" xlink:href="#m93b0483c22" y="345.6"/>
      </g>
     </g>
     <g id="line2d_12">
      <g>
       <use style="stroke:#000000;stroke-width:0.5;" x="338.461536877" xlink:href="#m741efc42ff" y="43.2"/>
      </g>
     </g>
     <g id="text_5">
      <!-- Oct 25 2015 -->
      <g transform="translate(273.874250142 394.065590385)rotate(-30.0)scale(0.12 -0.12)">
       <use xlink:href="#BitstreamVeraSans-Roman-4f"/>
       <use x="78.7109375" xlink:href="#BitstreamVeraSans-Roman-63"/>
       <use x="133.69140625" xlink:href="#BitstreamVeraSans-Roman-74"/>
       <use x="172.900390625" xlink:href="#BitstreamVeraSans-Roman-20"/>
       <use x="204.6875" xlink:href="#BitstreamVeraSans-Roman-32"/>
       <use x="268.310546875" xlink:href="#BitstreamVeraSans-Roman-35"/>
       <use x="331.93359375" xlink:href="#BitstreamVeraSans-Roman-20"/>
       <use x="363.720703125" xlink:href="#BitstreamVeraSans-Roman-32"/>
       <use x="427.34375" xlink:href="#BitstreamVeraSans-Roman-30"/>
       <use x="490.966796875" xlink:href="#BitstreamVeraSans-Roman-31"/>
       <use x="554.58984375" xlink:href="#BitstreamVeraSans-Roman-35"/>
      </g>
     </g>
    </g>
    <g id="xtick_6">
     <g id="line2d_13">
      <g>
       <use style="stroke:#000000;stroke-width:0.5;" x="393.591554031" xlink:href="#m93b0483c22" y="345.6"/>
      </g>
     </g>
     <g id="line2d_14">
      <g>
       <use style="stroke:#000000;stroke-width:0.5;" x="393.591554031" xlink:href="#m741efc42ff" y="43.2"/>
      </g>
     </g>
     <g id="text_6">
      <!-- Oct 28 2015 -->
      <defs>
       <path d="
M31.7812 34.625
Q24.75 34.625 20.7188 30.8594
Q16.7031 27.0938 16.7031 20.5156
Q16.7031 13.9219 20.7188 10.1562
Q24.75 6.39062 31.7812 6.39062
Q38.8125 6.39062 42.8594 10.1719
Q46.9219 13.9688 46.9219 20.5156
Q46.9219 27.0938 42.8906 30.8594
Q38.875 34.625 31.7812 34.625
M21.9219 38.8125
Q15.5781 40.375 12.0312 44.7188
Q8.5 49.0781 8.5 55.3281
Q8.5 64.0625 14.7188 69.1406
Q20.9531 74.2188 31.7812 74.2188
Q42.6719 74.2188 48.875 69.1406
Q55.0781 64.0625 55.0781 55.3281
Q55.0781 49.0781 51.5312 44.7188
Q48 40.375 41.7031 38.8125
Q48.8281 37.1562 52.7969 32.3125
Q56.7812 27.4844 56.7812 20.5156
Q56.7812 9.90625 50.3125 4.23438
Q43.8438 -1.42188 31.7812 -1.42188
Q19.7344 -1.42188 13.25 4.23438
Q6.78125 9.90625 6.78125 20.5156
Q6.78125 27.4844 10.7812 32.3125
Q14.7969 37.1562 21.9219 38.8125
M18.3125 54.3906
Q18.3125 48.7344 21.8438 45.5625
Q25.3906 42.3906 31.7812 42.3906
Q38.1406 42.3906 41.7188 45.5625
Q45.3125 48.7344 45.3125 54.3906
Q45.3125 60.0625 41.7188 63.2344
Q38.1406 66.4062 31.7812 66.4062
Q25.3906 66.4062 21.8438 63.2344
Q18.3125 60.0625 18.3125 54.3906" id="BitstreamVeraSans-Roman-38"/>
      </defs>
      <g transform="translate(329.004267296 394.065590385)rotate(-30.0)scale(0.12 -0.12)">
       <use xlink:href="#BitstreamVeraSans-Roman-4f"/>
       <use x="78.7109375" xlink:href="#BitstreamVeraSans-Roman-63"/>
       <use x="133.69140625" xlink:href="#BitstreamVeraSans-Roman-74"/>
       <use x="172.900390625" xlink:href="#BitstreamVeraSans-Roman-20"/>
       <use x="204.6875" xlink:href="#BitstreamVeraSans-Roman-32"/>
       <use x="268.310546875" xlink:href="#BitstreamVeraSans-Roman-38"/>
       <use x="331.93359375" xlink:href="#BitstreamVeraSans-Roman-20"/>
       <use x="363.720703125" xlink:href="#BitstreamVeraSans-Roman-32"/>
       <use x="427.34375" xlink:href="#BitstreamVeraSans-Roman-30"/>
       <use x="490.966796875" xlink:href="#BitstreamVeraSans-Roman-31"/>
       <use x="554.58984375" xlink:href="#BitstreamVeraSans-Roman-35"/>
      </g>
     </g>
    </g>
    <g id="xtick_7">
     <g id="line2d_15">
      <g>
       <use style="stroke:#000000;stroke-width:0.5;" x="448.721571183" xlink:href="#m93b0483c22" y="345.6"/>
      </g>
     </g>
     <g id="line2d_16">
      <g>
       <use style="stroke:#000000;stroke-width:0.5;" x="448.721571183" xlink:href="#m741efc42ff" y="43.2"/>
      </g>
     </g>
     <g id="text_7">
      <!-- Oct 31 2015 -->
      <g transform="translate(384.134284448 394.065590385)rotate(-30.0)scale(0.12 -0.12)">
       <use xlink:href="#BitstreamVeraSans-Roman-4f"/>
       <use x="78.7109375" xlink:href="#BitstreamVeraSans-Roman-63"/>
       <use x="133.69140625" xlink:href="#BitstreamVeraSans-Roman-74"/>
       <use x="172.900390625" xlink:href="#BitstreamVeraSans-Roman-20"/>
       <use x="204.6875" xlink:href="#BitstreamVeraSans-Roman-33"/>
       <use x="268.310546875" xlink:href="#BitstreamVeraSans-Roman-31"/>
       <use x="331.93359375" xlink:href="#BitstreamVeraSans-Roman-20"/>
       <use x="363.720703125" xlink:href="#BitstreamVeraSans-Roman-32"/>
       <use x="427.34375" xlink:href="#BitstreamVeraSans-Roman-30"/>
       <use x="490.966796875" xlink:href="#BitstreamVeraSans-Roman-31"/>
       <use x="554.58984375" xlink:href="#BitstreamVeraSans-Roman-35"/>
      </g>
     </g>
    </g>
    <g id="xtick_8">
     <g id="line2d_17">
      <g>
       <use style="stroke:#000000;stroke-width:0.5;" x="503.851588335" xlink:href="#m93b0483c22" y="345.6"/>
      </g>
     </g>
     <g id="line2d_18">
      <g>
       <use style="stroke:#000000;stroke-width:0.5;" x="503.851588335" xlink:href="#m741efc42ff" y="43.2"/>
      </g>
     </g>
     <g id="text_8">
      <!-- Nov 03 2015 -->
      <defs>
       <path d="
M2.98438 54.6875
L12.5 54.6875
L29.5938 8.79688
L46.6875 54.6875
L56.2031 54.6875
L35.6875 0
L23.4844 0
z
" id="BitstreamVeraSans-Roman-76"/>
       <path d="
M9.8125 72.9062
L23.0938 72.9062
L55.4219 11.9219
L55.4219 72.9062
L64.9844 72.9062
L64.9844 0
L51.7031 0
L19.3906 60.9844
L19.3906 0
L9.8125 0
z
" id="BitstreamVeraSans-Roman-4e"/>
       <path d="
M30.6094 48.3906
Q23.3906 48.3906 19.1875 42.75
Q14.9844 37.1094 14.9844 27.2969
Q14.9844 17.4844 19.1562 11.8438
Q23.3438 6.20312 30.6094 6.20312
Q37.7969 6.20312 41.9844 11.8594
Q46.1875 17.5312 46.1875 27.2969
Q46.1875 37.0156 41.9844 42.7031
Q37.7969 48.3906 30.6094 48.3906
M30.6094 56
Q42.3281 56 49.0156 48.375
Q55.7188 40.7656 55.7188 27.2969
Q55.7188 13.875 49.0156 6.21875
Q42.3281 -1.42188 30.6094 -1.42188
Q18.8438 -1.42188 12.1719 6.21875
Q5.51562 13.875 5.51562 27.2969
Q5.51562 40.7656 12.1719 48.375
Q18.8438 56 30.6094 56" id="BitstreamVeraSans-Roman-6f"/>
      </defs>
      <g transform="translate(436.948766176 395.402465385)rotate(-30.0)scale(0.12 -0.12)">
       <use xlink:href="#BitstreamVeraSans-Roman-4e"/>
       <use x="74.8046875" xlink:href="#BitstreamVeraSans-Roman-6f"/>
       <use x="135.986328125" xlink:href="#BitstreamVeraSans-Roman-76"/>
       <use x="195.166015625" xlink:href="#BitstreamVeraSans-Roman-20"/>
       <use x="226.953125" xlink:href="#BitstreamVeraSans-Roman-30"/>
       <use x="290.576171875" xlink:href="#BitstreamVeraSans-Roman-33"/>
       <use x="354.19921875" xlink:href="#BitstreamVeraSans-Roman-20"/>
       <use x="385.986328125" xlink:href="#BitstreamVeraSans-Roman-32"/>
       <use x="449.609375" xlink:href="#BitstreamVeraSans-Roman-30"/>
       <use x="513.232421875" xlink:href="#BitstreamVeraSans-Roman-31"/>
       <use x="576.85546875" xlink:href="#BitstreamVeraSans-Roman-35"/>
      </g>
     </g>
    </g>
   </g>
   <g id="matplotlib.axis_2">
    <g id="ytick_1">
     <g id="line2d_19">
      <defs>
       <path d="
M0 0
L4 0" id="m728421d6d4" style="stroke:#000000;stroke-width:0.5;"/>
      </defs>
      <g>
       <use style="stroke:#000000;stroke-width:0.5;" x="72.0" xlink:href="#m728421d6d4" y="321.667144889"/>
      </g>
     </g>
     <g id="line2d_20">
      <defs>
       <path d="
M0 0
L-4 0" id="mcb0005524f" style="stroke:#000000;stroke-width:0.5;"/>
      </defs>
      <g>
       <use style="stroke:#000000;stroke-width:0.5;" x="518.4" xlink:href="#mcb0005524f" y="321.667144889"/>
      </g>
     </g>
     <g id="text_9">
      <!-- 0.2 -->
      <defs>
       <path d="
M10.6875 12.4062
L21 12.4062
L21 0
L10.6875 0
z
" id="BitstreamVeraSans-Roman-2e"/>
      </defs>
      <g transform="translate(50.909375 324.978394889)scale(0.12 -0.12)">
       <use xlink:href="#BitstreamVeraSans-Roman-30"/>
       <use x="63.623046875" xlink:href="#BitstreamVeraSans-Roman-2e"/>
       <use x="95.41015625" xlink:href="#BitstreamVeraSans-Roman-32"/>
      </g>
     </g>
    </g>
    <g id="ytick_2">
     <g id="line2d_21">
      <g>
       <use style="stroke:#000000;stroke-width:0.5;" x="72.0" xlink:href="#m728421d6d4" y="265.117256973"/>
      </g>
     </g>
     <g id="line2d_22">
      <g>
       <use style="stroke:#000000;stroke-width:0.5;" x="518.4" xlink:href="#mcb0005524f" y="265.117256973"/>
      </g>
     </g>
     <g id="text_10">
      <!-- 0.4 -->
      <defs>
       <path d="
M37.7969 64.3125
L12.8906 25.3906
L37.7969 25.3906
z

M35.2031 72.9062
L47.6094 72.9062
L47.6094 25.3906
L58.0156 25.3906
L58.0156 17.1875
L47.6094 17.1875
L47.6094 0
L37.7969 0
L37.7969 17.1875
L4.89062 17.1875
L4.89062 26.7031
z
" id="BitstreamVeraSans-Roman-34"/>
      </defs>
      <g transform="translate(50.380625 268.428506973)scale(0.12 -0.12)">
       <use xlink:href="#BitstreamVeraSans-Roman-30"/>
       <use x="63.623046875" xlink:href="#BitstreamVeraSans-Roman-2e"/>
       <use x="95.41015625" xlink:href="#BitstreamVeraSans-Roman-34"/>
      </g>
     </g>
    </g>
    <g id="ytick_3">
     <g id="line2d_23">
      <g>
       <use style="stroke:#000000;stroke-width:0.5;" x="72.0" xlink:href="#m728421d6d4" y="208.567369057"/>
      </g>
     </g>
     <g id="line2d_24">
      <g>
       <use style="stroke:#000000;stroke-width:0.5;" x="518.4" xlink:href="#mcb0005524f" y="208.567369057"/>
      </g>
     </g>
     <g id="text_11">
      <!-- 0.6 -->
      <g transform="translate(50.463125 211.878619057)scale(0.12 -0.12)">
       <use xlink:href="#BitstreamVeraSans-Roman-30"/>
       <use x="63.623046875" xlink:href="#BitstreamVeraSans-Roman-2e"/>
       <use x="95.41015625" xlink:href="#BitstreamVeraSans-Roman-36"/>
      </g>
     </g>
    </g>
    <g id="ytick_4">
     <g id="line2d_25">
      <g>
       <use style="stroke:#000000;stroke-width:0.5;" x="72.0" xlink:href="#m728421d6d4" y="152.01748114"/>
      </g>
     </g>
     <g id="line2d_26">
      <g>
       <use style="stroke:#000000;stroke-width:0.5;" x="518.4" xlink:href="#mcb0005524f" y="152.01748114"/>
      </g>
     </g>
     <g id="text_12">
      <!-- 0.8 -->
      <g transform="translate(50.52875 155.32873114)scale(0.12 -0.12)">
       <use xlink:href="#BitstreamVeraSans-Roman-30"/>
       <use x="63.623046875" xlink:href="#BitstreamVeraSans-Roman-2e"/>
       <use x="95.41015625" xlink:href="#BitstreamVeraSans-Roman-38"/>
      </g>
     </g>
    </g>
    <g id="ytick_5">
     <g id="line2d_27">
      <g>
       <use style="stroke:#000000;stroke-width:0.5;" x="72.0" xlink:href="#m728421d6d4" y="95.4675932244"/>
      </g>
     </g>
     <g id="line2d_28">
      <g>
       <use style="stroke:#000000;stroke-width:0.5;" x="518.4" xlink:href="#mcb0005524f" y="95.4675932244"/>
      </g>
     </g>
     <g id="text_13">
      <!-- 1.0 -->
      <g transform="translate(51.03125 98.7788432244)scale(0.12 -0.12)">
       <use xlink:href="#BitstreamVeraSans-Roman-31"/>
       <use x="63.623046875" xlink:href="#BitstreamVeraSans-Roman-2e"/>
       <use x="95.41015625" xlink:href="#BitstreamVeraSans-Roman-30"/>
      </g>
     </g>
    </g>
    <g id="text_14">
     <!-- 1e8 -->
     <defs>
      <path d="
M56.2031 29.5938
L56.2031 25.2031
L14.8906 25.2031
Q15.4844 15.9219 20.4844 11.0625
Q25.4844 6.20312 34.4219 6.20312
Q39.5938 6.20312 44.4531 7.46875
Q49.3125 8.73438 54.1094 11.2812
L54.1094 2.78125
Q49.2656 0.734375 44.1875 -0.34375
Q39.1094 -1.42188 33.8906 -1.42188
Q20.7969 -1.42188 13.1562 6.1875
Q5.51562 13.8125 5.51562 26.8125
Q5.51562 40.2344 12.7656 48.1094
Q20.0156 56 32.3281 56
Q43.3594 56 49.7812 48.8906
Q56.2031 41.7969 56.2031 29.5938
M47.2188 32.2344
Q47.125 39.5938 43.0938 43.9844
Q39.0625 48.3906 32.4219 48.3906
Q24.9062 48.3906 20.3906 44.1406
Q15.875 39.8906 15.1875 32.1719
z
" id="BitstreamVeraSans-Roman-65"/>
     </defs>
     <g transform="translate(72.0 40.2)scale(0.12 -0.12)">
      <use xlink:href="#BitstreamVeraSans-Roman-31"/>
      <use x="63.623046875" xlink:href="#BitstreamVeraSans-Roman-65"/>
      <use x="125.146484375" xlink:href="#BitstreamVeraSans-Roman-38"/>
     </g>
    </g>
   </g>
   <g id="text_15">
    <!-- Privatarmee -->
    <defs>
     <path d="
M19.6719 64.7969
L19.6719 37.4062
L32.0781 37.4062
Q38.9688 37.4062 42.7188 40.9688
Q46.4844 44.5312 46.4844 51.125
Q46.4844 57.6719 42.7188 61.2344
Q38.9688 64.7969 32.0781 64.7969
z

M9.8125 72.9062
L32.0781 72.9062
Q44.3438 72.9062 50.6094 67.3594
Q56.8906 61.8125 56.8906 51.125
Q56.8906 40.3281 50.6094 34.8125
Q44.3438 29.2969 32.0781 29.2969
L19.6719 29.2969
L19.6719 0
L9.8125 0
z
" id="BitstreamVeraSans-Roman-50"/>
     <path d="
M9.42188 54.6875
L18.4062 54.6875
L18.4062 0
L9.42188 0
z

M9.42188 75.9844
L18.4062 75.9844
L18.4062 64.5938
L9.42188 64.5938
z
" id="BitstreamVeraSans-Roman-69"/>
     <path d="
M34.2812 27.4844
Q23.3906 27.4844 19.1875 25
Q14.9844 22.5156 14.9844 16.5
Q14.9844 11.7188 18.1406 8.90625
Q21.2969 6.10938 26.7031 6.10938
Q34.1875 6.10938 38.7031 11.4062
Q43.2188 16.7031 43.2188 25.4844
L43.2188 27.4844
z

M52.2031 31.2031
L52.2031 0
L43.2188 0
L43.2188 8.29688
Q40.1406 3.32812 35.5469 0.953125
Q30.9531 -1.42188 24.3125 -1.42188
Q15.9219 -1.42188 10.9531 3.29688
Q6 8.01562 6 15.9219
Q6 25.1406 12.1719 29.8281
Q18.3594 34.5156 30.6094 34.5156
L43.2188 34.5156
L43.2188 35.4062
Q43.2188 41.6094 39.1406 45
Q35.0625 48.3906 27.6875 48.3906
Q23 48.3906 18.5469 47.2656
Q14.1094 46.1406 10.0156 43.8906
L10.0156 52.2031
Q14.9375 54.1094 19.5781 55.0469
Q24.2188 56 28.6094 56
Q40.4844 56 46.3438 49.8438
Q52.2031 43.7031 52.2031 31.2031" id="BitstreamVeraSans-Roman-61"/>
     <path d="
M41.1094 46.2969
Q39.5938 47.1719 37.8125 47.5781
Q36.0312 48 33.8906 48
Q26.2656 48 22.1875 43.0469
Q18.1094 38.0938 18.1094 28.8125
L18.1094 0
L9.07812 0
L9.07812 54.6875
L18.1094 54.6875
L18.1094 46.1875
Q20.9531 51.1719 25.4844 53.5781
Q30.0312 56 36.5312 56
Q37.4531 56 38.5781 55.875
Q39.7031 55.7656 41.0625 55.5156
z
" id="BitstreamVeraSans-Roman-72"/>
     <path d="
M52 44.1875
Q55.375 50.25 60.0625 53.125
Q64.75 56 71.0938 56
Q79.6406 56 84.2812 50.0156
Q88.9219 44.0469 88.9219 33.0156
L88.9219 0
L79.8906 0
L79.8906 32.7188
Q79.8906 40.5781 77.0938 44.375
Q74.3125 48.1875 68.6094 48.1875
Q61.625 48.1875 57.5625 43.5469
Q53.5156 38.9219 53.5156 30.9062
L53.5156 0
L44.4844 0
L44.4844 32.7188
Q44.4844 40.625 41.7031 44.4062
Q38.9219 48.1875 33.1094 48.1875
Q26.2188 48.1875 22.1562 43.5312
Q18.1094 38.875 18.1094 30.9062
L18.1094 0
L9.07812 0
L9.07812 54.6875
L18.1094 54.6875
L18.1094 46.1875
Q21.1875 51.2188 25.4844 53.6094
Q29.7812 56 35.6875 56
Q41.6562 56 45.8281 52.9688
Q50 49.9531 52 44.1875" id="BitstreamVeraSans-Roman-6d"/>
    </defs>
    <g transform="translate(432.99675 38.2)scale(0.144 -0.144)">
     <use xlink:href="#BitstreamVeraSans-Roman-50"/>
     <use x="58.552734375" xlink:href="#BitstreamVeraSans-Roman-72"/>
     <use x="99.666015625" xlink:href="#BitstreamVeraSans-Roman-69"/>
     <use x="127.44921875" xlink:href="#BitstreamVeraSans-Roman-76"/>
     <use x="186.62890625" xlink:href="#BitstreamVeraSans-Roman-61"/>
     <use x="247.908203125" xlink:href="#BitstreamVeraSans-Roman-74"/>
     <use x="287.1171875" xlink:href="#BitstreamVeraSans-Roman-61"/>
     <use x="348.396484375" xlink:href="#BitstreamVeraSans-Roman-72"/>
     <use x="387.759765625" xlink:href="#BitstreamVeraSans-Roman-6d"/>
     <use x="485.171875" xlink:href="#BitstreamVeraSans-Roman-65"/>
     <use x="546.6953125" xlink:href="#BitstreamVeraSans-Roman-65"/>
    </g>
   </g>
   <g id="legend_1">
    <g id="patch_7">
     <path d="
M123.942 423.616
L466.458 423.616
L466.458 398.16
L123.942 398.16
z
" style="fill:#ffffff;stroke:#000000;stroke-linejoin:miter;"/>
    </g>
    <g id="line2d_29">
     <path d="
M134.022 409.822
L154.182 409.822" style="fill:none;stroke:#ff0000;stroke-linecap:square;"/>
    </g>
    <g id="line2d_30"/>
    <g id="text_16">
     <!-- Schwarzmarktpreis -->
     <defs>
      <path d="
M9.07812 75.9844
L18.1094 75.9844
L18.1094 31.1094
L44.9219 54.6875
L56.3906 54.6875
L27.3906 29.1094
L57.625 0
L45.9062 0
L18.1094 26.7031
L18.1094 0
L9.07812 0
z
" id="BitstreamVeraSans-Roman-6b"/>
      <path d="
M53.5156 70.5156
L53.5156 60.8906
Q47.9062 63.5781 42.9219 64.8906
Q37.9375 66.2188 33.2969 66.2188
Q25.25 66.2188 20.875 63.0938
Q16.5 59.9688 16.5 54.2031
Q16.5 49.3594 19.4062 46.8906
Q22.3125 44.4375 30.4219 42.9219
L36.375 41.7031
Q47.4062 39.5938 52.6562 34.2969
Q57.9062 29 57.9062 20.125
Q57.9062 9.51562 50.7969 4.04688
Q43.7031 -1.42188 29.9844 -1.42188
Q24.8125 -1.42188 18.9688 -0.25
Q13.1406 0.921875 6.89062 3.21875
L6.89062 13.375
Q12.8906 10.0156 18.6562 8.29688
Q24.4219 6.59375 29.9844 6.59375
Q38.4219 6.59375 43.0156 9.90625
Q47.6094 13.2344 47.6094 19.3906
Q47.6094 24.75 44.3125 27.7812
Q41.0156 30.8125 33.5 32.3281
L27.4844 33.5
Q16.4531 35.6875 11.5156 40.375
Q6.59375 45.0625 6.59375 53.4219
Q6.59375 63.0938 13.4062 68.6562
Q20.2188 74.2188 32.1719 74.2188
Q37.3125 74.2188 42.625 73.2812
Q47.9531 72.3594 53.5156 70.5156" id="BitstreamVeraSans-Roman-53"/>
      <path d="
M54.8906 33.0156
L54.8906 0
L45.9062 0
L45.9062 32.7188
Q45.9062 40.4844 42.875 44.3281
Q39.8438 48.1875 33.7969 48.1875
Q26.5156 48.1875 22.3125 43.5469
Q18.1094 38.9219 18.1094 30.9062
L18.1094 0
L9.07812 0
L9.07812 75.9844
L18.1094 75.9844
L18.1094 46.1875
Q21.3438 51.125 25.7031 53.5625
Q30.0781 56 35.7969 56
Q45.2188 56 50.0469 50.1719
Q54.8906 44.3438 54.8906 33.0156" id="BitstreamVeraSans-Roman-68"/>
      <path d="
M4.20312 54.6875
L13.1875 54.6875
L24.4219 12.0156
L35.5938 54.6875
L46.1875 54.6875
L57.4219 12.0156
L68.6094 54.6875
L77.5938 54.6875
L63.2812 0
L52.6875 0
L40.9219 44.8281
L29.1094 0
L18.5 0
z
" id="BitstreamVeraSans-Roman-77"/>
      <path d="
M5.51562 54.6875
L48.1875 54.6875
L48.1875 46.4844
L14.4062 7.17188
L48.1875 7.17188
L48.1875 0
L4.29688 0
L4.29688 8.20312
L38.0938 47.5156
L5.51562 47.5156
z
" id="BitstreamVeraSans-Roman-7a"/>
      <path d="
M44.2812 53.0781
L44.2812 44.5781
Q40.4844 46.5312 36.375 47.5
Q32.2812 48.4844 27.875 48.4844
Q21.1875 48.4844 17.8438 46.4375
Q14.5 44.3906 14.5 40.2812
Q14.5 37.1562 16.8906 35.375
Q19.2812 33.5938 26.5156 31.9844
L29.5938 31.2969
Q39.1562 29.25 43.1875 25.5156
Q47.2188 21.7812 47.2188 15.0938
Q47.2188 7.46875 41.1875 3.01562
Q35.1562 -1.42188 24.6094 -1.42188
Q20.2188 -1.42188 15.4531 -0.5625
Q10.6875 0.296875 5.42188 2
L5.42188 11.2812
Q10.4062 8.6875 15.2344 7.39062
Q20.0625 6.10938 24.8125 6.10938
Q31.1562 6.10938 34.5625 8.28125
Q37.9844 10.4531 37.9844 14.4062
Q37.9844 18.0625 35.5156 20.0156
Q33.0625 21.9688 24.7031 23.7812
L21.5781 24.5156
Q13.2344 26.2656 9.51562 29.9062
Q5.8125 33.5469 5.8125 39.8906
Q5.8125 47.6094 11.2812 51.7969
Q16.75 56 26.8125 56
Q31.7812 56 36.1719 55.2656
Q40.5781 54.5469 44.2812 53.0781" id="BitstreamVeraSans-Roman-73"/>
      <path d="
M18.1094 8.20312
L18.1094 -20.7969
L9.07812 -20.7969
L9.07812 54.6875
L18.1094 54.6875
L18.1094 46.3906
Q20.9531 51.2656 25.2656 53.625
Q29.5938 56 35.5938 56
Q45.5625 56 51.7812 48.0938
Q58.0156 40.1875 58.0156 27.2969
Q58.0156 14.4062 51.7812 6.48438
Q45.5625 -1.42188 35.5938 -1.42188
Q29.5938 -1.42188 25.2656 0.953125
Q20.9531 3.32812 18.1094 8.20312
M48.6875 27.2969
Q48.6875 37.2031 44.6094 42.8438
Q40.5312 48.4844 33.4062 48.4844
Q26.2656 48.4844 22.1875 42.8438
Q18.1094 37.2031 18.1094 27.2969
Q18.1094 17.3906 22.1875 11.75
Q26.2656 6.10938 33.4062 6.10938
Q40.5312 6.10938 44.6094 11.75
Q48.6875 17.3906 48.6875 27.2969" id="BitstreamVeraSans-Roman-70"/>
     </defs>
     <g transform="translate(170.022375 414.86175)scale(0.144 -0.144)">
      <use xlink:href="#BitstreamVeraSans-Roman-53"/>
      <use x="63.4765625" xlink:href="#BitstreamVeraSans-Roman-63"/>
      <use x="118.45703125" xlink:href="#BitstreamVeraSans-Roman-68"/>
      <use x="181.8359375" xlink:href="#BitstreamVeraSans-Roman-77"/>
      <use x="263.623046875" xlink:href="#BitstreamVeraSans-Roman-61"/>
      <use x="324.90234375" xlink:href="#BitstreamVeraSans-Roman-72"/>
      <use x="366.015625" xlink:href="#BitstreamVeraSans-Roman-7a"/>
      <use x="418.505859375" xlink:href="#BitstreamVeraSans-Roman-6d"/>
      <use x="515.91796875" xlink:href="#BitstreamVeraSans-Roman-61"/>
      <use x="577.197265625" xlink:href="#BitstreamVeraSans-Roman-72"/>
      <use x="618.310546875" xlink:href="#BitstreamVeraSans-Roman-6b"/>
      <use x="676.220703125" xlink:href="#BitstreamVeraSans-Roman-74"/>
      <use x="715.4296875" xlink:href="#BitstreamVeraSans-Roman-70"/>
      <use x="778.90625" xlink:href="#BitstreamVeraSans-Roman-72"/>
      <use x="817.76953125" xlink:href="#BitstreamVeraSans-Roman-65"/>
      <use x="879.29296875" xlink:href="#BitstreamVeraSans-Roman-69"/>
      <use x="907.076171875" xlink:href="#BitstreamVeraSans-Roman-73"/>
     </g>
    </g>
    <g id="line2d_31">
     <path d="
M339.609 409.822
L359.769 409.822" style="fill:none;stroke:#008000;stroke-linecap:square;"/>
    </g>
    <g id="line2d_32"/>
    <g id="text_17">
     <!-- Normalpreis -->
     <defs>
      <path d="
M9.42188 75.9844
L18.4062 75.9844
L18.4062 0
L9.42188 0
z
" id="BitstreamVeraSans-Roman-6c"/>
     </defs>
     <g transform="translate(375.609375 414.86175)scale(0.144 -0.144)">
      <use xlink:href="#BitstreamVeraSans-Roman-4e"/>
      <use x="74.8046875" xlink:href="#BitstreamVeraSans-Roman-6f"/>
      <use x="135.986328125" xlink:href="#BitstreamVeraSans-Roman-72"/>
      <use x="175.349609375" xlink:href="#BitstreamVeraSans-Roman-6d"/>
      <use x="272.76171875" xlink:href="#BitstreamVeraSans-Roman-61"/>
      <use x="334.041015625" xlink:href="#BitstreamVeraSans-Roman-6c"/>
      <use x="361.82421875" xlink:href="#BitstreamVeraSans-Roman-70"/>
      <use x="425.30078125" xlink:href="#BitstreamVeraSans-Roman-72"/>
      <use x="464.1640625" xlink:href="#BitstreamVeraSans-Roman-65"/>
      <use x="525.6875" xlink:href="#BitstreamVeraSans-Roman-69"/>
      <use x="553.470703125" xlink:href="#BitstreamVeraSans-Roman-73"/>
     </g>
    </g>
   </g>
  </g>
 </g>
 <defs>
  <clipPath id="pcb2bf987bf">
   <rect height="302.4" width="446.4" x="72.0" y="43.2"/>
  </clipPath>
 </defs>
</svg>
