<?xml version="1.0" encoding="utf-8" standalone="no"?>
<!DOCTYPE svg PUBLIC "-//W3C//DTD SVG 1.1//EN"
  "http://www.w3.org/Graphics/SVG/1.1/DTD/svg11.dtd">
<!-- Created with matplotlib (http://matplotlib.org/) -->
<svg height="432pt" version="1.1" viewBox="0 0 576 432" width="576pt" xmlns="http://www.w3.org/2000/svg" xmlns:xlink="http://www.w3.org/1999/xlink">
 <defs>
  <style type="text/css">
*{stroke-linecap:butt;stroke-linejoin:round;}
  </style>
 </defs>
 <g id="figure_1">
  <g id="patch_1">
   <path d="
M0 432
L576 432
L576 0
L0 0
z
" style="fill:#ffffff;"/>
  </g>
  <g id="axes_1">
   <g id="patch_2">
    <path d="
M72 345.6
L518.4 345.6
L518.4 43.2
L72 43.2
z
" style="fill:#ffffff;"/>
   </g>
   <g id="line2d_1">
    <path clip-path="url(#pcb2bf987bf)" d="
M72 256.387
L72.2551 254.361
L72.3826 257.38
L72.7653 255.887
L73.0203 257.924
L73.1479 257.413
L73.403 257.924
L73.7856 257.924
L74.1682 255.915
L74.2958 257.924
L74.6784 256.387
L74.9335 255.887
L75.061 257.413
L75.3161 257.413
L75.4437 256.409
L75.8263 257.929
L76.0814 257.935
L76.2089 257.441
L76.464 253.168
L76.5915 254.222
L76.8466 257.546
L76.9742 255.499
L77.2295 253.418
L77.6119 251.309
L78.1221 257.541
L78.5047 257.546
L78.7598 257.053
L78.8873 257.546
L79.1426 256.553
L79.2699 257.053
L79.525 257.546
L79.6526 257.546
L79.9077 255.055
L80.0352 257.053
L80.2903 256.664
L80.4178 258.384
L80.6729 258.878
L81.0555 256.387
L81.1831 253.723
L81.8208 257.885
L81.9483 257.885
L82.2036 259.517
L82.331 259.272
L82.5863 256.636
L82.7136 256.636
L82.9687 255.637
L83.0962 256.636
L83.3513 255.554
L83.4789 258.051
L83.7339 259.272
L83.8615 257.774
L84.1166 257.774
L84.2441 255.776
L84.4992 254.222
L84.882 255.776
L85.392 253.196
L85.6473 252.585
L86.1573 245.288
L86.4123 252.668
L86.5399 251.059
L86.795 254.25
L86.9225 253.723
L87.1776 254.25
L87.3051 253.168
L87.5602 253.168
L87.6878 253.723
L87.9429 252.668
L88.0704 254.25
L88.3255 259.517
L88.453 258.773
L88.7081 258.745
L88.8357 256.747
L89.0907 256.997
L89.0907 256.997
L89.2183 259.517
L89.4734 259.517
L89.6009 259.272
L89.9835 254.611
L90.2386 255.193
L90.2386 255.193
L90.4937 256.192
L90.6213 255.193
L91.259 251.753
L92.0242 259.517
L92.1518 258.051
L92.7895 256.553
L92.917 251.697
L93.5547 254.472
L94.32 255.882
L94.4475 255.882
L95.0853 254.888
L95.2128 257.108
L95.8505 257.608
L95.9781 256.054
L96.6158 259.517
L97.381 257.524
L98.1463 256.942
L98.2738 257.413
L98.9115 244.733
L99.0391 257.413
L99.6768 249.283
L100.442 256.387
L100.57 254.361
L101.207 253.223
L102.1 252.613
L102.738 257.247
L103.503 254.361
L103.631 254.361
L104.268 254.888
L105.034 257.774
L105.799 258.44
L106.564 255.055
L107.33 252.946
L108.095 258.046
L108.222 258.046
L108.86 244.344
L109.625 258.04
L109.753 258.051
L110.518 257.552
L111.156 257.963
L111.283 257.524
L111.921 257.025
L112.048 257.524
L114.217 254.777
L115.109 257.524
L116.512 255.998
L116.64 257.019
L117.278 258.035
L118.043 257.552
L118.171 257.996
L118.808 244.344
L118.936 255.943
L119.573 255.443
L120.339 257.408
L121.104 253.862
L121.232 253.862
L121.869 255.998
L122.762 257.524
L123.4 257.524
L124.165 255.027
L124.293 250.893
L124.93 256.525
L125.696 257.552
L126.333 257.58
L126.589 253.834
L127.226 254.833
L127.354 257.552
L127.354 257.552
L127.864 256.054
L127.864 256.054
L127.991 256.553
L128.757 253.723
L128.884 258.046
L129.522 258.107
L130.287 256.331
L130.415 256.831
L131.052 255.332
L131.818 255.332
L132.583 258.162
L132.583 258.162
L134.369 258.051
L134.879 259.522
L135.644 254.389
L136.409 255.499
L136.537 254.472
L137.174 254.472
L137.94 256.525
L138.705 257.019
L139.47 253.39
L139.598 254.444
L140.235 258.024
L141.001 258.051
L141.766 260.044
L141.893 258.051
L142.531 256.22
L143.296 252.585
L144.062 253.667
L144.189 246.953
L144.827 256.997
L145.592 256.442
L145.72 255.443
L146.357 256.414
L146.485 254.777
L147.123 252.663
L147.25 254.772
L147.888 248.784
L148.653 252.668
L149.419 253.362
L150.184 257.996
L150.949 258.046
L151.077 257.552
L151.714 258.551
L152.48 257.552
L153.245 258.079
L153.372 256.498
L154.01 258.046
L154.775 257.552
L155.541 258.046
L155.541 258.046
L156.306 258.046
L157.071 254.727
L157.837 257.552
L157.964 256.553
L158.602 255.887
L159.367 258.035
L160.132 254.944
L160.897 256.026
L161.025 256.525
L162.428 256.026
L163.193 255.998
L163.321 249.478
L163.958 258.035
L164.086 258.024
L164.851 253.973
L165.489 251.281
L166.254 250.804
L167.912 257.752
L168.55 257.774
L169.315 255.776
L169.443 255.776
L170.08 254.777
L170.846 256.775
L170.973 250.698
L171.611 257.774
L172.376 257.546
L173.141 254.528
L173.269 251.808
L173.907 257.053
L174.672 257.053
L174.8 256.553
L176.203 256.553
L176.968 246.953
L177.095 257.546
L177.733 257.546
L178.498 257.053
L179.264 257.546
L180.029 257.552
L180.156 258.046
L180.794 257.025
L180.922 257.552
L182.325 256.553
L182.452 255.554
L183.09 258.051
L183.855 257.552
L183.983 256.054
L184.62 252.918
L185.386 258.107
L186.151 258.884
L186.916 258.884
L187.681 253.196
L188.447 258.051
L189.339 247.813
L190.742 254.528
L191.508 255.388
L193.038 255.804
L193.803 257.025
L194.569 257.025
L195.334 253.751
L195.461 249.727
L196.099 249.2
L196.864 253.168
L198.395 254.472
L198.395 254.472
L199.16 256.997
L200.691 258.884
L201.456 262.491
L202.221 259.716
L202.987 259.838
L203.752 255.138
L203.879 257.358
L204.517 258.357
L205.282 256.359
L206.048 256.359
L206.175 252.502
L206.303 254.361
L206.685 258.035
L206.813 257.524
L206.813 257.524
L206.94 257.524
L207.578 253.362
L208.088 252.835
L208.343 256.442
L208.981 258.035
L209.236 257.524
L209.236 257.524
L209.619 258.029
L209.746 257.524
L210.001 256.026
L210.767 246.953
L211.022 250.421
L211.532 248.312
L211.659 254.417
L211.915 258.051
L212.297 256.997
L212.425 255.055
L212.807 258.051
L213.062 252.89
L213.445 256.553
L213.573 255.499
L213.828 258.046
L213.828 258.046
L214.338 258.04
L214.976 254.528
L215.103 254.528
L215.358 246.953
L215.358 246.953
L215.486 258.046
L215.741 257.552
L215.868 258.035
L216.123 257.524
L216.123 257.524
L216.251 257.524
L216.506 257.025
L216.634 256.525
L216.761 256.664
L216.761 256.664
L217.016 255.166
L217.271 255.604
L217.654 254.639
L217.654 254.639
L217.781 255.166
L218.037 255.166
L218.164 252.974
L218.419 255.16
L218.419 255.16
L218.547 254.639
L219.184 254.722
L219.312 255.166
L219.567 250.116
L219.95 246.814
L220.077 256.165
L220.46 253.057
L220.46 253.057
L220.715 253.057
L220.843 252.53
L220.843 252.53
L221.098 254.106
L221.225 256.165
L221.48 258.024
L221.863 255.027
L222.245 256.387
L222.373 256.054
L222.628 256.054
L222.756 255.554
L223.011 257.552
L223.011 257.552
L223.393 257.219
L223.776 257.99
L223.904 256.498
L224.159 257.99
L224.286 258.046
L224.541 257.053
L224.669 258.04
L224.924 257.552
L225.051 256.054
L225.307 258.04
L225.434 257.053
L225.817 258.046
L225.817 258.046
L225.944 258.357
L225.944 258.357
L226.072 262.485
L226.072 262.485
L226.199 256.464
L226.199 256.464
L226.327 260.821
L226.327 260.821
L226.582 258.828
L226.582 258.828
L226.837 258.107
L226.965 259.322
L227.347 258.273
L227.602 258.606
L227.602 258.606
L227.985 258.051
L228.368 256.442
L228.75 256.442
L228.878 255.943
L229.133 251.253
L229.26 258.162
L229.515 258.667
L229.643 258.162
L230.281 253.584
L230.408 253.057
L230.663 256.664
L230.663 256.664
L231.046 258.667
L231.173 257.663
L231.429 258.051
L231.556 258.024
L231.811 257.552
L231.939 256.054
L232.194 257.053
L232.321 258.035
L232.704 255.526
L232.959 256.026
L233.087 253.973
L233.469 257.524
L233.724 257.025
L233.852 257.519
L234.617 257.519
L234.872 256.525
L235 257.519
L235.255 257.025
L235.255 257.025
L235.383 257.025
L235.637 257.519
L236.02 256.026
L236.02 256.026
L236.148 256.026
L236.403 255.526
L236.53 257.691
L236.785 258.018
L236.913 257.524
L237.168 255.277
L237.296 257.524
L237.551 257.996
L237.678 256.276
L237.933 257.275
L238.316 257.275
L238.443 256.775
L238.699 257.774
L238.826 256.276
L239.081 257.774
L239.209 256.165
L239.464 255.665
L239.591 257.774
L239.846 256.775
L239.974 256.775
L240.229 257.269
L240.357 255.776
L240.612 256.77
L240.612 256.77
L240.739 256.764
L240.994 257.768
L241.377 255.249
L241.76 257.497
L241.887 255.943
L242.142 257.768
L242.27 257.768
L242.653 256.276
L242.907 257.275
L243.035 254.666
L243.29 254.111
L243.418 257.774
L243.673 253.723
L243.8 254.25
L244.055 257.275
L244.183 256.775
L244.438 257.275
L244.565 256.276
L244.821 257.275
L244.948 256.276
L245.203 257.275
L245.203 257.275
L245.331 257.275
L245.586 257.491
L245.713 257.752
L245.968 257.497
L246.096 257.768
L246.734 257.774
L246.734 257.774
L247.116 256.276
L247.244 255.277
L247.499 257.774
L247.882 258.007
L248.009 257.497
L248.392 245.898
L248.774 256.498
L249.03 255.97
L249.03 255.97
L249.157 258.013
L249.412 257.524
L249.922 246.398
L250.177 245.843
L250.305 263.534
L250.688 263.523
L251.07 257.608
L251.325 257.608
L251.453 251.559
L251.708 257.602
L252.091 257.602
L252.218 257.108
L252.473 261.631
L252.601 261.631
L252.856 262.48
L252.983 261.992
L253.238 258.579
L253.366 259.566
L253.621 257.497
L253.749 258.573
L254.004 258.074
L254.131 258.074
L254.386 257.08
L254.514 258.579
L254.769 258.051
L254.896 257.053
L254.896 257.053
L255.152 258.051
L255.279 258.051
L255.279 258.051
L255.534 257.552
L255.662 258.051
L255.662 258.051
L255.917 256.525
L255.917 256.525
L256.044 258.079
L256.427 257.574
L256.682 254
L256.81 253.995
L256.81 253.995
L257.192 258.051
L257.447 257.552
L257.575 257.053
L257.83 257.053
L257.957 258.051
L258.213 255.055
L258.213 255.055
L258.723 254.999
L258.978 257.552
L259.105 252.585
L259.36 258.046
L259.36 258.046
L259.488 258.046
L259.743 254.772
L259.743 254.772
L259.871 249.727
L260.126 258.035
L260.253 257.053
L260.508 257.552
L260.636 256.997
L260.891 253.889
L261.019 253.889
L261.274 260.965
L261.401 260.354
L261.656 260.826
L261.784 260.826
L262.039 260.266
L262.166 258.051
L262.421 258.268
L262.549 257.275
L262.804 258.273
L262.932 258.273
L263.187 257.275
L263.314 259.827
L263.569 259.855
L263.569 259.855
L263.697 260.354
L263.952 260.821
L264.08 259.855
L264.462 260.349
L264.717 260.343
L264.845 259.855
L265.227 259.827
L265.483 260.349
L265.61 259.356
L265.738 260.354
L266.375 260.299
L266.63 259.8
L266.758 261.048
L267.013 260.049
L267.141 260.049
L267.396 260.549
L267.523 235.854
L267.778 261.992
L267.906 261.936
L268.161 261.464
L268.288 260.465
L268.671 259.96
L268.926 258.662
L269.054 259.467
L269.691 259.411
L269.819 257.913
L270.074 258.906
L270.202 258.412
L270.457 258.906
L270.839 256.387
L270.967 257.402
L271.222 256.387
L271.605 259.4
L272.115 257.913
L272.37 256.414
L272.497 251.364
L272.752 258.912
L272.88 258.051
L273.135 259.4
L273.263 257.635
L273.518 256.137
L273.518 256.137
L273.645 257.635
L273.9 257.635
L274.028 257.136
L274.283 257.635
L274.666 255.97
L274.793 258.057
L275.048 255.998
L275.048 255.998
L275.176 256.997
L275.431 259.966
L275.813 260.46
L275.941 259.966
L276.196 259.994
L276.579 257.718
L276.706 258.495
L276.961 253.64
L277.089 253.64
L277.344 252.03
L277.472 252.502
L277.727 259.15
L277.854 259.156
L278.109 253.334
L278.109 253.334
L278.237 255.665
L278.492 254.639
L278.619 246.953
L278.875 258.606
L279.002 258.107
L279.257 256.581
L279.385 258.579
L279.64 258.273
L279.767 258.329
L280.15 258.107
L280.405 257.108
L280.405 257.108
L280.533 257.441
L280.788 259.433
L280.915 257.552
L281.17 258.412
L281.17 258.412
L281.298 256.248
L281.553 259.411
L281.68 259.428
L281.936 256.331
L282.446 257.94
L282.701 257.913
L282.828 256.914
L283.083 259.428
L283.211 259.428
L283.466 246.925
L283.849 257.608
L283.976 257.608
L284.614 258.595
L284.869 256.997
L285.379 256.22
L285.507 257.219
L285.762 254.167
L285.889 254.167
L286.144 251.004
L286.272 251.004
L286.527 257.219
L286.655 257.219
L286.91 256.22
L287.037 249.727
L287.292 247.535
L287.42 247.535
L287.675 244.4
L288.058 257.608
L288.185 257.108
L288.568 258.595
L288.823 260.216
L288.95 260.238
L289.333 256.054
L289.588 257.552
L289.716 257.053
L289.971 257.053
L290.098 260.216
L290.353 260.133
L290.736 260.26
L290.864 255.277
L290.991 260.26
L291.119 258.051
L291.246 258.051
L291.501 260.26
L291.629 259.772
L291.884 260.266
L292.267 260.266
L292.394 258.273
L292.649 258.773
L292.777 258.273
L293.032 258.939
L293.159 256.942
L293.414 255.443
L293.414 255.443
L293.542 255.443
L293.797 256.997
L293.797 256.997
L293.925 259.938
L294.18 259.772
L294.18 259.772
L294.307 252.197
L294.69 260.266
L294.945 252.502
L294.945 252.502
L295.072 260.266
L295.328 259.161
L295.455 259.661
L295.71 259.272
L295.838 259.772
L296.093 258.773
L296.603 260.271
L297.241 260.266
L297.368 258.268
L297.623 260.454
L297.751 259.716
L298.006 257.191
L298.133 259.966
L298.389 246.953
L298.516 256.054
L298.771 257.552
L298.899 254.722
L299.154 253.723
L299.281 255.277
L299.536 253.14
L299.664 258.107
L299.919 260.271
L300.047 260.271
L300.302 259.272
L300.429 260.266
L300.812 258.162
L301.067 260.271
L301.195 259.772
L301.45 256.553
L301.577 260.271
L301.832 259.689
L301.96 256.692
L302.215 260.216
L302.342 260.266
L302.597 259.938
L302.597 259.938
L303.108 260.46
L303.745 260.46
L304.256 257.829
L304.511 257.33
L304.893 258.329
L305.021 259.322
L305.276 258.329
L305.403 258.823
L305.659 258.823
L305.786 260.826
L306.169 260.826
L306.424 249.145
L306.551 260.826
L306.806 261.742
L307.189 260.271
L307.189 260.271
L307.317 261.27
L307.572 260.299
L307.954 257.802
L308.082 259.711
L308.337 259.766
L308.464 260.299
L308.72 258.801
L308.72 258.801
L308.847 259.772
L309.102 259.772
L309.23 260.26
L309.995 255.776
L310.25 258.268
L310.25 258.268
L310.633 255.554
L310.76 256.548
L311.015 255.055
L311.143 253.473
L311.398 254.522
L311.525 252.946
L311.781 255.055
L311.908 253.418
L312.163 257.552
L312.291 257.552
L312.546 258.051
L312.673 254.777
L312.928 259.439
L313.056 259.428
L313.311 258.44
L313.439 259.933
L313.694 255.887
L313.821 259.933
L314.204 258.051
L314.587 258.051
L314.969 258.412
L315.224 256.914
L315.352 256.886
L315.607 255.915
L315.734 253.834
L315.989 259.827
L316.372 258.828
L316.5 259.328
L316.882 256.442
L317.137 58.1877
L317.265 260.266
L317.648 265.898
L317.903 265.127
L318.03 263.212
L318.413 263.046
L318.795 260.133
L319.178 258.101
L319.433 260.604
L319.433 260.604
L319.561 258.051
L319.816 260.077
L319.943 258.551
L320.198 258.551
L320.326 257.053
L320.709 258.051
L320.964 259.05
L320.964 259.05
L321.346 257.552
L321.474 258.051
L321.729 257.552
L322.112 256.553
L322.239 258.051
L322.877 258.579
L323.004 259.578
L323.387 257.58
L323.642 257.497
L323.77 259.578
L324.025 256.98
L324.025 256.98
L324.152 256.997
L324.535 259.578
L324.917 259.572
L325.173 260.077
L325.3 259.578
L325.683 261.881
L325.938 260.882
L326.066 260.876
L326.32 258.384
L327.086 258.379
L327.213 258.884
L327.596 258.379
L327.851 257.885
L327.979 258.384
L328.234 260.871
L328.361 259.938
L328.616 259.938
L328.744 251.448
L329.126 261.409
L329.509 258.773
L329.764 258.273
L329.892 258.773
L330.147 257.275
L330.529 258.717
L330.657 261.881
L330.912 259.966
L331.04 259.966
L331.295 261.881
L331.677 261.881
L331.805 258.995
L332.06 257.996
L332.187 257.996
L332.443 256.942
L332.57 256.942
L332.953 258.051
L333.208 259.489
L333.335 254.972
L333.718 257.497
L333.973 250.227
L334.101 258.995
L334.866 258.939
L335.121 262.879
L335.248 261.936
L335.504 254.389
L335.631 262.879
L335.886 261.931
L336.014 258.051
L336.396 261.437
L336.651 260.909
L336.779 261.381
L337.034 260.882
L337.162 261.376
L337.417 261.376
L337.544 258.912
L337.927 261.353
L338.182 260.965
L338.309 260.41
L338.565 260.493
L338.692 259.994
L338.947 262.879
L339.075 261.936
L339.457 257.497
L339.712 258.939
L339.84 261.936
L340.605 261.908
L340.86 253.14
L340.988 265.127
L341.626 265.127
L342.136 258.69
L342.391 258.69
L342.518 259.184
L342.773 257.663
L342.901 258.651
L343.156 257.646
L343.284 258.162
L343.539 259.689
L343.666 263.018
L343.921 262.519
L344.049 246.953
L344.304 261.076
L344.432 260.604
L344.687 259.106
L345.069 262.535
L345.197 261.575
L345.452 257.302
L345.452 257.302
L345.579 261.57
L345.835 262.53
L345.962 259.134
L346.345 241.847
L346.6 247.785
L346.727 254.805
L346.982 252.696
L346.982 252.696
L347.11 247.147
L347.365 252.696
L347.493 251.115
L347.748 253.745
L347.875 253.223
L348.13 262.43
L348.64 262.43
L348.896 262.019
L349.023 261.07
L349.406 262.019
L349.661 262.019
L349.788 261.542
L350.043 257.552
L350.171 260.049
L350.426 258.495
L350.554 259.55
L350.809 258.051
L350.936 259.356
L351.191 256.47
L351.319 262.463
L351.957 262.485
L352.084 255.471
L352.339 262.48
L352.849 260.882
L353.104 262.019
L353.232 261.992
L353.487 260.077
L353.615 260.077
L353.87 258.079
L353.87 258.079
L354.38 260.576
L354.635 257.469
L354.763 259.994
L355.018 260.493
L355.145 259.938
L355.4 260.493
L355.4 260.493
L355.528 258.495
L355.783 257.913
L355.91 235.854
L356.165 260.465
L356.165 260.465
L356.293 258.939
L356.676 257.857
L356.931 258.357
L357.058 257.857
L357.568 251.975
L357.824 253.806
L358.079 253.279
L358.206 252.752
L358.461 255.36
L358.461 255.36
L358.589 255.354
L358.844 135.963
L358.971 255.36
L359.227 260.438
L359.609 260.438
L359.737 260.937
L360.374 258.468
L360.502 258.462
L360.757 257.968
L360.885 258.468
L361.14 260.837
L361.267 260.354
L361.905 260.349
L362.032 257.053
L362.415 260.271
L362.67 259.272
L362.798 260.266
L363.053 259.716
L363.18 260.271
L363.563 260.271
L363.818 259.272
L363.946 260.266
L364.328 258.773
L364.583 258.662
L364.711 256.664
L364.966 259.15
L365.476 259.272
L365.731 259.772
L366.114 255.277
L366.114 255.277
L366.242 254.777
L366.496 257.774
L366.624 257.774
L367.007 255.776
L367.262 257.774
L367.389 257.269
L367.644 257.774
L367.772 258.939
L368.027 257.552
L368.155 258.051
L368.41 260.266
L368.792 258.273
L369.175 260.271
L369.557 259.272
L369.685 257.774
L369.94 258.773
L370.068 258.273
L370.323 257.774
L370.45 257.275
L370.833 258.767
L371.216 257.275
L371.471 257.774
L371.598 258.273
L371.853 258.767
L372.236 258.773
L372.363 258.384
L372.619 253.196
L372.746 259.772
L373.001 259.272
L373.129 260.271
L373.384 259.161
L373.511 259.772
L373.894 254.111
L374.149 258.051
L374.277 252.502
L374.659 259.716
L374.914 259.272
L375.042 260.271
L375.297 258.218
L375.424 254.167
L375.68 262.469
L375.807 262.469
L376.062 262.186
L376.19 255.61
L376.445 262.469
L381.164 262.469
L381.547 262.125
L381.802 261.131
L381.929 261.131
L382.312 259.106
L382.949 261.62
L383.077 258.051
L383.332 260.66
L383.46 260.66
L383.715 259.156
L384.097 259.661
L384.225 261.659
L384.48 262.125
L384.608 263.573
L384.863 262.108
L385.245 262.463
L385.373 261.631
L385.628 261.631
L385.755 262.569
L386.011 263.074
L386.138 263.068
L386.393 263.545
L386.521 263.074
L386.776 263.601
L386.903 262.186
L387.158 262.658
L387.286 263.129
L387.541 262.658
L387.669 263.601
L388.051 263.24
L388.306 263.296
L388.306 263.296
L388.434 261.409
L388.689 260.438
L388.816 253.889
L389.072 251.753
L389.199 249.089
L389.454 255.943
L389.582 255.277
L389.837 248.534
L389.964 254.25
L390.219 250.027
L390.347 253.723
L390.602 253.196
L390.73 253.196
L390.985 242.097
L391.112 255.998
L391.367 256.054
L391.495 250.726
L391.75 252.447
L391.878 256.553
L392.133 256.542
L392.515 258.04
L393.025 258.051
L393.28 255.554
L393.408 257.552
L393.791 257.552
L394.173 242.152
L394.173 242.152
L394.556 240.82
L394.811 258.046
L394.939 258.051
L395.194 246.448
L395.576 246.453
L395.704 241.403
L395.959 257.552
L396.086 256.553
L396.469 258.046
L396.724 257.552
L396.852 258.046
L397.107 257.552
L397.234 261.403
L397.617 258.051
L397.872 259.383
L398 259.406
L398.382 257.552
L398.637 258.912
L398.765 260.821
L399.403 256.553
L399.785 260.821
L399.913 258.773
L400.295 258.606
L400.55 259.827
L400.678 259.328
L400.933 259.827
L401.061 260.826
L401.316 261.381
L401.443 260.909
L401.826 257.275
L402.081 255.859
L402.208 260.909
L402.464 257.94
L402.591 260.438
L402.846 260.937
L402.974 260.438
L403.229 260.438
L403.356 259.883
L403.611 259.383
L403.739 259.383
L403.994 260.438
L404.122 260.438
L404.377 258.44
L404.504 258.44
L404.759 259.933
L404.887 259.439
L405.142 256.664
L405.269 258.057
L405.525 256.054
L405.652 258.057
L405.907 259.933
L406.035 259.439
L406.29 259.927
L406.672 256.942
L406.8 258.939
L407.055 255.943
L407.183 256.414
L407.438 256.442
L407.565 255.443
L407.82 256.942
L407.948 246.398
L408.203 256.414
L408.331 255.915
L408.586 255.859
L408.713 258.44
L408.968 259.922
L409.351 257.053
L409.478 258.04
L409.733 256.553
L409.861 257.968
L410.116 257.968
L410.244 255.471
L410.499 255.832
L410.626 248.284
L410.881 258.046
L411.009 257.552
L411.264 257.053
L411.392 257.053
L411.647 256.553
L411.774 257.552
L412.029 258.051
L412.157 257.552
L412.412 258.051
L412.539 257.053
L412.667 258.051
L413.05 259.217
L413.305 258.107
L413.56 257.608
L413.687 257.108
L414.07 257.608
L414.325 257.608
L414.453 256.609
L414.708 257.108
L414.835 257.108
L415.09 256.609
L415.218 257.108
L415.473 246.953
L415.6 255.937
L415.856 255.415
L416.366 257.108
L416.748 255.61
L417.003 256.109
L417.131 257.108
L417.386 257.58
L417.514 256.581
L417.896 258.046
L418.151 257.053
L418.279 257.552
L418.534 256.553
L418.917 256.553
L419.044 255.055
L419.299 257.552
L419.427 256.054
L419.682 257.053
L419.809 257.047
L420.192 253.612
L420.447 255.554
L420.575 257.552
L420.957 257.053
L421.34 254
L421.595 252.946
L421.723 254.528
L421.978 254
L422.105 258.046
L422.36 257.552
L422.488 256.553
L422.87 257.497
L423.125 257.497
L423.253 255.499
L423.508 255.499
L423.636 256.498
L423.891 251.975
L424.018 245.898
L424.401 255.499
L424.656 256.054
L424.784 255.554
L425.039 254
L425.421 257.053
L425.549 257.053
L425.804 249.422
L425.931 257.829
L426.187 256.775
L426.314 249.589
L426.569 259.7
L426.697 259.189
L426.952 259.217
L427.462 257.552
L427.717 256.387
L427.845 259.661
L428.227 256.553
L428.482 253.995
L428.865 258.051
L428.992 256.997
L429.248 257.053
L429.375 258.051
L429.63 257.053
L429.758 256.054
L430.013 258.046
L430.14 255.277
L430.395 258.046
L430.524 252.003
L430.778 251.475
L431.033 251.475
L431.288 257.053
L431.543 257.053
L431.671 258.051
L432.053 258.051
L432.309 256.553
L432.691 256.553
L432.691 256.553
L432.819 256.997
L433.201 254.944
L433.456 254.417
L433.839 257.552
L433.967 256.054
L434.222 258.046
L434.349 258.046
L434.604 257.552
L434.732 257.053
L434.987 256.553
L435.115 256.553
L435.37 255.526
L435.497 258.046
L435.752 257.552
L435.88 258.046
L436.135 258.046
L436.262 257.053
L436.517 257.552
L436.645 257.053
L436.9 258.051
L437.028 257.552
L437.283 255.832
L437.41 257.053
L437.665 256.553
L437.793 257.108
L438.048 259.15
L438.176 257.108
L438.431 258.107
L438.558 257.608
L438.813 258.107
L439.196 258.101
L439.706 257.608
L439.961 256.609
L440.089 256.609
L440.344 257.608
L440.344 257.608
L440.471 257.608
L440.726 259.134
L441.109 259.134
L441.237 258.135
L441.492 258.634
L441.619 259.15
L441.874 258.051
L441.874 258.051
L442.002 256.997
L442.384 259.05
L442.64 257.053
L442.767 258.49
L443.022 257.996
L443.15 258.49
L443.405 258.495
L443.915 255.277
L444.17 257.497
L444.298 256.997
L444.553 256.498
L444.68 256.997
L444.935 256.498
L445.063 256.997
L445.318 256.72
L445.445 252.502
L445.701 257.219
L446.083 254.028
L446.211 254.028
L446.593 257.497
L446.976 257.497
L447.231 254.999
L447.359 257.497
L447.614 255.998
L447.741 257.497
L447.996 256.997
L448.124 252.502
L448.379 256.997
L448.507 255.998
L448.762 257.497
L448.889 257.497
L449.144 257.996
L449.272 257.996
L449.527 257.497
L449.654 256.498
L449.909 257.497
L450.037 255.993
L450.165 255.998
L450.42 259.156
L451.057 259.156
L451.185 258.69
L451.44 258.69
L451.568 258.19
L451.823 259.156
L454.884 259.156
L454.884 259.156
L455.011 258.717
L455.394 259.156
L455.649 258.357
L455.776 259.156
L456.542 259.156
L456.797 247.064
L456.924 259.156
L457.179 259.05
L457.307 258.051
L457.562 218.512
L457.69 257.552
L457.945 259.156
L458.072 259.156
L458.327 258.551
L458.455 259.156
L458.71 256.054
L458.837 256.553
L459.093 255.055
L459.22 255.216
L459.475 256.553
L459.603 256.553
L459.858 259.156
L461.516 259.156
L461.771 257.413
L461.899 258.412
L462.154 254.944
L462.281 258.412
L462.664 255.388
L462.919 256.498
L463.046 252.502
L463.301 255.998
L463.429 255.499
L463.684 256.498
L463.812 252.502
L464.449 258.412
L464.577 258.412
L464.832 258.767
L465.215 257.275
L465.725 257.275
L465.98 259.156
L466.107 259.156
L466.363 260.715
L466.49 266.237
L466.873 263.379
L467.128 261.492
L467.128 261.492
L467.256 261.492
L467.51 260.521
L467.893 261.464
L468.021 260.521
L468.276 260.521
L468.658 259.966
L468.786 260.993
L469.041 260.987
L469.168 260.521
L469.424 261.464
L469.551 260.993
L469.806 261.431
L470.316 257.497
L470.571 257.441
L470.699 258.024
L470.954 257.025
L471.082 257.025
L471.337 258.024
L471.464 260.882
L471.847 256.581
L472.102 260.41
L472.229 259.911
L472.485 260.41
L472.612 260.909
L472.867 259.383
L472.995 259.883
L473.377 253.862
L473.632 254.389
L473.76 259.883
L474.015 261.409
L474.525 261.437
L474.78 260.46
L474.908 260.46
L475.163 261.154
L475.291 258.773
L475.546 258.162
L475.673 258.662
L475.928 258.69
L476.438 256.442
L476.693 257.497
L476.821 254.417
L477.076 257.497
L477.204 255.998
L477.459 256.997
L477.586 256.969
L477.841 255.415
L477.969 257.497
L478.224 259.716
L478.352 258.218
L478.607 245.843
L478.734 258.717
L478.989 256.72
L479.117 256.72
L479.372 254.583
L479.499 246.953
L479.755 253.001
L479.882 253.001
L480.137 256.72
L480.52 256.72
L480.647 255.721
L480.902 255.721
L481.03 255.221
L481.285 252.53
L481.413 254.777
L481.668 256.72
L481.795 256.22
L482.05 256.72
L482.178 256.72
L482.433 257.713
L482.56 257.718
L482.816 256.72
L482.943 257.718
L483.198 258.218
L483.326 260.16
L483.581 260.349
L483.708 259.844
L483.963 246.925
L484.346 260.493
L484.474 260.493
L484.729 254.944
L484.856 260.965
L485.111 260.687
L485.239 256.692
L485.494 255.693
L485.877 259.689
L486.004 259.189
L486.387 259.189
L486.642 260.182
L486.769 258.19
L487.024 260.66
L487.535 260.882
L487.79 261.381
L487.917 260.41
L488.172 255.277
L488.683 255.277
L488.938 254.777
L489.065 255.277
L489.32 260.41
L489.448 259.911
L489.703 260.404
L490.085 260.404
L490.213 259.411
L490.468 259.411
L490.596 258.912
L490.851 260.404
L490.978 259.911
L491.233 260.404
L491.361 259.356
L491.616 260.404
L491.744 259.911
L491.999 260.404
L492.381 258.051
L492.509 260.41
L492.764 248.701
L492.891 257.885
L493.147 257.857
L493.274 258.412
L493.657 258.412
L493.912 255.388
L494.04 255.388
L494.294 257.413
L494.422 252.863
L494.677 258.379
L494.805 258.384
L495.06 259.905
L495.187 259.905
L495.442 258.912
L495.57 259.883
L495.697 259.877
L495.825 257.885
L495.825 257.885
L496.335 257.885
L496.59 255.887
L496.718 258.384
L497.1 258.384
L497.355 257.885
L497.483 258.384
L497.738 256.886
L497.866 258.051
L498.121 253.723
L498.248 257.552
L498.503 257.552
L498.631 258.051
L498.886 257.053
L499.013 257.552
L499.269 257.053
L499.269 257.053
L499.396 258.051
L499.651 258.051
L499.779 259.161
L500.034 257.663
L500.161 257.663
L500.416 259.383
L500.544 258.357
L500.799 250.92
L500.927 257.358
L501.182 259.328
L501.564 257.608
L501.692 256.331
L501.947 259.356
L502.075 257.857
L502.33 256.442
L502.457 256.442
L502.712 258.051
L502.84 258.051
L503.095 257.552
L503.222 258.051
L503.605 255.554
L503.86 256.553
L503.988 258.051
L504.243 258.717
L504.37 258.218
L504.625 258.856
L504.881 256.054
L505.136 257.552
L505.391 257.552
L505.518 256.553
L505.773 256.054
L505.901 252.363
L506.156 253.418
L506.283 253.418
L506.666 257.857
L506.921 257.358
L507.049 256.359
L507.431 259.855
L507.686 258.828
L507.814 246.731
L508.069 261.353
L508.197 261.353
L508.452 260.41
L508.579 260.882
L509.344 260.882
L509.6 260.354
L509.727 261.37
L509.982 261.37
L510.365 260.882
L510.492 261.376
L511.13 261.376
L511.64 259.411
L511.895 259.411
L512.023 258.051
L512.278 257.053
L512.405 257.219
L512.661 256.054
L512.788 258.051
L513.171 258.046
L513.553 254.722
L513.808 257.552
L513.936 257.552
L514.191 256.442
L514.319 257.053
L514.574 256.453
L514.701 255.499
L515.339 255.471
L515.722 252.502
L515.849 249.422
L516.104 257.053
L516.232 255.554
L516.487 257.552
L516.614 256.553
L516.869 258.046
L516.997 256.054
L517.635 254
L517.762 258.046
L518.017 246.953
L518.145 257.025
L518.4 257.552
L518.4 257.552" style="fill:none;stroke:#ff0000;stroke-linecap:square;"/>
   </g>
   <g id="line2d_2">
    <path clip-path="url(#pcb2bf987bf)" d="
M72 339.484
L73.0203 339.401
L73.1479 339.601
L76.8466 339.684
L76.9742 339.767
L79.9077 339.723
L80.0352 339.64
L80.6729 339.64
L80.8005 339.795
L82.9687 339.751
L83.0962 339.573
L83.7339 339.573
L83.8615 339.69
L86.0297 339.651
L86.1573 339.545
L86.795 339.545
L86.9225 339.69
L90.6213 339.745
L91.259 339.906
L93.5547 339.85
L95.2128 339.834
L97.381 339.9
L98.2738 339.573
L99.0391 339.468
L99.6768 339.495
L101.207 339.423
L102.738 339.362
L103.631 339.495
L104.268 339.384
L105.799 339.623
L108.095 339.529
L109.753 339.612
L110.518 339.695
L111.921 339.506
L115.109 339.556
L116.64 339.262
L117.278 339.456
L118.171 339.379
L118.936 339.612
L120.339 339.351
L121.232 339.423
L121.869 339.312
L123.4 339.468
L124.293 339.329
L127.354 339.329
L127.354 339.329
L127.991 339.667
L128.884 339.54
L129.522 339.739
L130.415 339.69
L131.052 339.778
L131.818 339.684
L132.583 339.745
L132.583 339.745
L134.879 339.629
L135.644 339.762
L136.537 339.468
L137.94 339.312
L141.001 339.412
L141.893 339.651
L146.485 339.701
L147.25 339.545
L147.888 339.573
L148.653 339.479
L151.077 339.728
L153.372 339.784
L154.01 339.495
L160.132 339.484
L161.025 339.379
L164.086 339.384
L164.851 339.579
L165.489 339.407
L166.254 339.551
L167.019 339.468
L167.912 339.701
L170.08 339.601
L170.973 339.501
L171.611 339.623
L172.376 339.579
L173.269 339.651
L173.907 339.506
L174.8 339.606
L179.264 339.734
L180.156 339.906
L181.559 339.873
L182.452 339.745
L186.916 340.089
L187.681 339.767
L188.447 340.095
L189.339 339.917
L191.508 339.801
L191.508 339.801
L193.038 339.928
L193.803 339.789
L194.569 339.828
L196.099 339.717
L198.395 339.845
L198.395 339.845
L199.16 339.789
L200.691 339.862
L201.456 340.045
L202.987 339.728
L205.41 339.823
L206.303 339.789
L209.236 339.823
L209.236 339.823
L210.001 339.934
L211.659 339.906
L212.297 339.906
L212.425 340.023
L214.593 339.917
L214.976 339.873
L221.48 339.834
L221.608 340.039
L226.837 340.039
L226.965 339.9
L228.368 339.934
L228.495 339.762
L233.724 339.767
L233.852 339.878
L239.081 339.978
L239.464 340.034
L243.673 340.006
L243.8 339.895
L245.203 339.95
L245.203 339.95
L245.331 339.756
L247.499 339.85
L249.03 339.878
L249.03 339.878
L249.157 339.801
L249.795 339.801
L249.795 339.801
L249.922 339.967
L253.621 339.884
L253.749 339.606
L258.213 339.706
L258.213 339.706
L258.723 339.923
L260.508 339.956
L260.636 340.183
L261.274 340.183
L261.401 340.023
L266.63 339.961
L266.758 339.823
L267.396 339.823
L267.523 339.956
L269.691 339.867
L269.819 339.751
L272.752 339.839
L273.135 339.895
L275.048 339.845
L275.048 339.845
L275.176 340.023
L275.813 340.023
L275.941 340.222
L276.579 340.222
L276.706 340.05
L278.109 340.05
L278.109 340.05
L278.237 339.823
L278.875 339.823
L279.002 339.95
L280.405 339.989
L280.405 339.989
L280.533 340.117
L281.936 340.067
L282.446 339.845
L283.466 339.878
L283.594 340.05
L284.231 340.05
L284.359 339.906
L287.292 339.856
L287.42 339.734
L288.058 339.734
L288.185 339.945
L288.823 339.945
L288.95 340.1
L294.18 340.05
L294.18 340.05
L294.307 340.217
L299.536 340.117
L299.919 340.067
L304.128 340.011
L304.128 340.011
L304.256 339.812
L308.72 339.873
L308.72 339.873
L309.102 339.928
L311.015 339.845
L311.143 339.617
L312.546 339.64
L312.673 339.745
L314.842 339.756
L314.969 339.906
L318.668 339.989
L318.668 339.989
L318.795 339.745
L320.198 339.762
L320.326 339.573
L324.79 339.662
L324.917 339.839
L331.677 339.912
L331.805 340.011
L332.443 340.011
L332.57 339.889
L334.738 339.928
L334.866 340.039
L340.605 340.117
L340.988 340.233
L341.626 340.233
L341.753 339.917
L346.982 339.884
L346.982 339.884
L347.11 339.778
L353.104 339.823
L353.232 339.917
L353.87 339.917
L353.87 339.917
L354.38 339.762
L354.635 339.762
L354.763 339.595
L357.568 339.495
L358.079 339.401
L359.992 339.495
L360.119 339.562
L366.114 339.595
L366.114 339.595
L366.242 339.684
L368.41 339.723
L368.537 339.823
L372.236 339.906
L372.619 339.95
L377.593 339.984
L377.593 339.984
L377.848 339.834
L379.888 339.906
L380.016 339.973
L381.419 340.011
L381.547 339.823
L384.48 339.784
L384.608 339.939
L388.306 340.017
L388.306 340.017
L388.434 344.95
L389.072 344.95
L389.199 339.69
L389.837 339.69
L389.964 339.873
L394.173 339.795
L394.173 339.795
L394.811 339.617
L395.194 339.617
L395.321 339.773
L399.02 339.862
L399.147 339.95
L402.846 339.978
L402.974 340.1
L403.611 340.1
L403.739 339.934
L407.438 339.939
L407.565 339.789
L408.968 339.717
L409.096 339.917
L409.733 339.917
L409.861 339.789
L426.569 339.823
L426.697 339.939
L432.691 339.867
L432.691 339.867
L432.819 339.795
L435.752 339.839
L435.88 339.934
L437.283 339.956
L437.41 340.056
L445.701 340.045
L446.466 339.939
L447.741 339.823
L454.118 339.845
L454.246 339.939
L458.71 339.906
L458.837 339.823
L460.24 339.878
L460.368 340.15
L461.771 340.1
L461.899 339.884
L466.363 339.9
L466.49 340.039
L467.128 340.039
L467.128 340.039
L467.256 339.801
L467.893 339.801
L468.021 339.634
L471.719 339.551
L471.847 339.473
L472.485 339.473
L472.612 339.651
L474.015 339.706
L474.143 339.856
L475.546 339.778
L475.673 339.612
L478.607 339.667
L478.734 339.767
L483.198 339.828
L483.326 339.895
L486.259 339.85
L486.259 339.85
L486.387 339.751
L498.503 339.85
L499.269 339.867
L499.269 339.867
L499.651 339.817
L501.564 339.739
L501.947 339.701
L503.095 339.778
L503.222 339.845
L506.156 339.767
L506.283 339.662
L506.921 339.662
L507.049 339.795
L509.217 339.862
L509.344 339.984
L517.635 339.878
L517.762 339.812
L518.4 339.812
L518.4 339.812" style="fill:none;stroke:#008000;stroke-linecap:square;"/>
   </g>
   <g id="patch_3">
    <path d="
M72 43.2
L518.4 43.2" style="fill:none;stroke:#000000;stroke-linecap:square;stroke-linejoin:miter;"/>
   </g>
   <g id="patch_4">
    <path d="
M518.4 345.6
L518.4 43.2" style="fill:none;stroke:#000000;stroke-linecap:square;stroke-linejoin:miter;"/>
   </g>
   <g id="patch_5">
    <path d="
M72 345.6
L518.4 345.6" style="fill:none;stroke:#000000;stroke-linecap:square;stroke-linejoin:miter;"/>
   </g>
   <g id="patch_6">
    <path d="
M72 345.6
L72 43.2" style="fill:none;stroke:#000000;stroke-linecap:square;stroke-linejoin:miter;"/>
   </g>
   <g id="matplotlib.axis_1">
    <g id="xtick_1">
     <g id="line2d_3">
      <defs>
       <path d="
M0 0
L0 -4" id="m93b0483c22" style="stroke:#000000;stroke-width:0.5;"/>
      </defs>
      <g>
       <use style="stroke:#000000;stroke-width:0.5;" x="118.170301715" xlink:href="#m93b0483c22" y="345.6"/>
      </g>
     </g>
     <g id="line2d_4">
      <defs>
       <path d="
M0 0
L0 4" id="m741efc42ff" style="stroke:#000000;stroke-width:0.5;"/>
      </defs>
      <g>
       <use style="stroke:#000000;stroke-width:0.5;" x="118.170301715" xlink:href="#m741efc42ff" y="43.2"/>
      </g>
     </g>
     <g id="text_1">
      <!-- Oct 13 2015 -->
      <defs>
       <path d="
M19.1875 8.29688
L53.6094 8.29688
L53.6094 0
L7.32812 0
L7.32812 8.29688
Q12.9375 14.1094 22.625 23.8906
Q32.3281 33.6875 34.8125 36.5312
Q39.5469 41.8438 41.4219 45.5312
Q43.3125 49.2188 43.3125 52.7812
Q43.3125 58.5938 39.2344 62.25
Q35.1562 65.9219 28.6094 65.9219
Q23.9688 65.9219 18.8125 64.3125
Q13.6719 62.7031 7.8125 59.4219
L7.8125 69.3906
Q13.7656 71.7812 18.9375 73
Q24.125 74.2188 28.4219 74.2188
Q39.75 74.2188 46.4844 68.5469
Q53.2188 62.8906 53.2188 53.4219
Q53.2188 48.9219 51.5312 44.8906
Q49.8594 40.875 45.4062 35.4062
Q44.1875 33.9844 37.6406 27.2188
Q31.1094 20.4531 19.1875 8.29688" id="BitstreamVeraSans-Roman-32"/>
       <path d="
M39.4062 66.2188
Q28.6562 66.2188 22.3281 58.2031
Q16.0156 50.2031 16.0156 36.375
Q16.0156 22.6094 22.3281 14.5938
Q28.6562 6.59375 39.4062 6.59375
Q50.1406 6.59375 56.4219 14.5938
Q62.7031 22.6094 62.7031 36.375
Q62.7031 50.2031 56.4219 58.2031
Q50.1406 66.2188 39.4062 66.2188
M39.4062 74.2188
Q54.7344 74.2188 63.9062 63.9375
Q73.0938 53.6562 73.0938 36.375
Q73.0938 19.1406 63.9062 8.85938
Q54.7344 -1.42188 39.4062 -1.42188
Q24.0312 -1.42188 14.8125 8.82812
Q5.60938 19.0938 5.60938 36.375
Q5.60938 53.6562 14.8125 63.9375
Q24.0312 74.2188 39.4062 74.2188" id="BitstreamVeraSans-Roman-4f"/>
       <path d="
M31.7812 66.4062
Q24.1719 66.4062 20.3281 58.9062
Q16.5 51.4219 16.5 36.375
Q16.5 21.3906 20.3281 13.8906
Q24.1719 6.39062 31.7812 6.39062
Q39.4531 6.39062 43.2812 13.8906
Q47.125 21.3906 47.125 36.375
Q47.125 51.4219 43.2812 58.9062
Q39.4531 66.4062 31.7812 66.4062
M31.7812 74.2188
Q44.0469 74.2188 50.5156 64.5156
Q56.9844 54.8281 56.9844 36.375
Q56.9844 17.9688 50.5156 8.26562
Q44.0469 -1.42188 31.7812 -1.42188
Q19.5312 -1.42188 13.0625 8.26562
Q6.59375 17.9688 6.59375 36.375
Q6.59375 54.8281 13.0625 64.5156
Q19.5312 74.2188 31.7812 74.2188" id="BitstreamVeraSans-Roman-30"/>
       <path d="
M12.4062 8.29688
L28.5156 8.29688
L28.5156 63.9219
L10.9844 60.4062
L10.9844 69.3906
L28.4219 72.9062
L38.2812 72.9062
L38.2812 8.29688
L54.3906 8.29688
L54.3906 0
L12.4062 0
z
" id="BitstreamVeraSans-Roman-31"/>
       <path d="
M40.5781 39.3125
Q47.6562 37.7969 51.625 33
Q55.6094 28.2188 55.6094 21.1875
Q55.6094 10.4062 48.1875 4.48438
Q40.7656 -1.42188 27.0938 -1.42188
Q22.5156 -1.42188 17.6562 -0.515625
Q12.7969 0.390625 7.625 2.20312
L7.625 11.7188
Q11.7188 9.32812 16.5938 8.10938
Q21.4844 6.89062 26.8125 6.89062
Q36.0781 6.89062 40.9375 10.5469
Q45.7969 14.2031 45.7969 21.1875
Q45.7969 27.6406 41.2812 31.2656
Q36.7656 34.9062 28.7188 34.9062
L20.2188 34.9062
L20.2188 43.0156
L29.1094 43.0156
Q36.375 43.0156 40.2344 45.9219
Q44.0938 48.8281 44.0938 54.2969
Q44.0938 59.9062 40.1094 62.9062
Q36.1406 65.9219 28.7188 65.9219
Q24.6562 65.9219 20.0156 65.0312
Q15.375 64.1562 9.8125 62.3125
L9.8125 71.0938
Q15.4375 72.6562 20.3438 73.4375
Q25.25 74.2188 29.5938 74.2188
Q40.8281 74.2188 47.3594 69.1094
Q53.9062 64.0156 53.9062 55.3281
Q53.9062 49.2656 50.4375 45.0938
Q46.9688 40.9219 40.5781 39.3125" id="BitstreamVeraSans-Roman-33"/>
       <path id="BitstreamVeraSans-Roman-20"/>
       <path d="
M10.7969 72.9062
L49.5156 72.9062
L49.5156 64.5938
L19.8281 64.5938
L19.8281 46.7344
Q21.9688 47.4688 24.1094 47.8281
Q26.2656 48.1875 28.4219 48.1875
Q40.625 48.1875 47.75 41.5
Q54.8906 34.8125 54.8906 23.3906
Q54.8906 11.625 47.5625 5.09375
Q40.2344 -1.42188 26.9062 -1.42188
Q22.3125 -1.42188 17.5469 -0.640625
Q12.7969 0.140625 7.71875 1.70312
L7.71875 11.625
Q12.1094 9.23438 16.7969 8.0625
Q21.4844 6.89062 26.7031 6.89062
Q35.1562 6.89062 40.0781 11.3281
Q45.0156 15.7656 45.0156 23.3906
Q45.0156 31 40.0781 35.4375
Q35.1562 39.8906 26.7031 39.8906
Q22.75 39.8906 18.8125 39.0156
Q14.8906 38.1406 10.7969 36.2812
z
" id="BitstreamVeraSans-Roman-35"/>
       <path d="
M18.3125 70.2188
L18.3125 54.6875
L36.8125 54.6875
L36.8125 47.7031
L18.3125 47.7031
L18.3125 18.0156
Q18.3125 11.3281 20.1406 9.42188
Q21.9688 7.51562 27.5938 7.51562
L36.8125 7.51562
L36.8125 0
L27.5938 0
Q17.1875 0 13.2344 3.875
Q9.28125 7.76562 9.28125 18.0156
L9.28125 47.7031
L2.6875 47.7031
L2.6875 54.6875
L9.28125 54.6875
L9.28125 70.2188
z
" id="BitstreamVeraSans-Roman-74"/>
       <path d="
M48.7812 52.5938
L48.7812 44.1875
Q44.9688 46.2969 41.1406 47.3438
Q37.3125 48.3906 33.4062 48.3906
Q24.6562 48.3906 19.8125 42.8438
Q14.9844 37.3125 14.9844 27.2969
Q14.9844 17.2812 19.8125 11.7344
Q24.6562 6.20312 33.4062 6.20312
Q37.3125 6.20312 41.1406 7.25
Q44.9688 8.29688 48.7812 10.4062
L48.7812 2.09375
Q45.0156 0.34375 40.9844 -0.53125
Q36.9688 -1.42188 32.4219 -1.42188
Q20.0625 -1.42188 12.7812 6.34375
Q5.51562 14.1094 5.51562 27.2969
Q5.51562 40.6719 12.8594 48.3281
Q20.2188 56 33.0156 56
Q37.1562 56 41.1094 55.1406
Q45.0625 54.2969 48.7812 52.5938" id="BitstreamVeraSans-Roman-63"/>
      </defs>
      <g transform="translate(53.5830149798 394.065590385)rotate(-30.0)scale(0.12 -0.12)">
       <use xlink:href="#BitstreamVeraSans-Roman-4f"/>
       <use x="78.7109375" xlink:href="#BitstreamVeraSans-Roman-63"/>
       <use x="133.69140625" xlink:href="#BitstreamVeraSans-Roman-74"/>
       <use x="172.900390625" xlink:href="#BitstreamVeraSans-Roman-20"/>
       <use x="204.6875" xlink:href="#BitstreamVeraSans-Roman-31"/>
       <use x="268.310546875" xlink:href="#BitstreamVeraSans-Roman-33"/>
       <use x="331.93359375" xlink:href="#BitstreamVeraSans-Roman-20"/>
       <use x="363.720703125" xlink:href="#BitstreamVeraSans-Roman-32"/>
       <use x="427.34375" xlink:href="#BitstreamVeraSans-Roman-30"/>
       <use x="490.966796875" xlink:href="#BitstreamVeraSans-Roman-31"/>
       <use x="554.58984375" xlink:href="#BitstreamVeraSans-Roman-35"/>
      </g>
     </g>
    </g>
    <g id="xtick_2">
     <g id="line2d_5">
      <g>
       <use style="stroke:#000000;stroke-width:0.5;" x="173.268816" xlink:href="#m93b0483c22" y="345.6"/>
      </g>
     </g>
     <g id="line2d_6">
      <g>
       <use style="stroke:#000000;stroke-width:0.5;" x="173.268816" xlink:href="#m741efc42ff" y="43.2"/>
      </g>
     </g>
     <g id="text_2">
      <!-- Oct 16 2015 -->
      <defs>
       <path d="
M33.0156 40.375
Q26.375 40.375 22.4844 35.8281
Q18.6094 31.2969 18.6094 23.3906
Q18.6094 15.5312 22.4844 10.9531
Q26.375 6.39062 33.0156 6.39062
Q39.6562 6.39062 43.5312 10.9531
Q47.4062 15.5312 47.4062 23.3906
Q47.4062 31.2969 43.5312 35.8281
Q39.6562 40.375 33.0156 40.375
M52.5938 71.2969
L52.5938 62.3125
Q48.875 64.0625 45.0938 64.9844
Q41.3125 65.9219 37.5938 65.9219
Q27.8281 65.9219 22.6719 59.3281
Q17.5312 52.7344 16.7969 39.4062
Q19.6719 43.6562 24.0156 45.9219
Q28.375 48.1875 33.5938 48.1875
Q44.5781 48.1875 50.9531 41.5156
Q57.3281 34.8594 57.3281 23.3906
Q57.3281 12.1562 50.6875 5.35938
Q44.0469 -1.42188 33.0156 -1.42188
Q20.3594 -1.42188 13.6719 8.26562
Q6.98438 17.9688 6.98438 36.375
Q6.98438 53.6562 15.1875 63.9375
Q23.3906 74.2188 37.2031 74.2188
Q40.9219 74.2188 44.7031 73.4844
Q48.4844 72.75 52.5938 71.2969" id="BitstreamVeraSans-Roman-36"/>
      </defs>
      <g transform="translate(108.681529265 394.065590385)rotate(-30.0)scale(0.12 -0.12)">
       <use xlink:href="#BitstreamVeraSans-Roman-4f"/>
       <use x="78.7109375" xlink:href="#BitstreamVeraSans-Roman-63"/>
       <use x="133.69140625" xlink:href="#BitstreamVeraSans-Roman-74"/>
       <use x="172.900390625" xlink:href="#BitstreamVeraSans-Roman-20"/>
       <use x="204.6875" xlink:href="#BitstreamVeraSans-Roman-31"/>
       <use x="268.310546875" xlink:href="#BitstreamVeraSans-Roman-36"/>
       <use x="331.93359375" xlink:href="#BitstreamVeraSans-Roman-20"/>
       <use x="363.720703125" xlink:href="#BitstreamVeraSans-Roman-32"/>
       <use x="427.34375" xlink:href="#BitstreamVeraSans-Roman-30"/>
       <use x="490.966796875" xlink:href="#BitstreamVeraSans-Roman-31"/>
       <use x="554.58984375" xlink:href="#BitstreamVeraSans-Roman-35"/>
      </g>
     </g>
    </g>
    <g id="xtick_3">
     <g id="line2d_7">
      <g>
       <use style="stroke:#000000;stroke-width:0.5;" x="228.367330285" xlink:href="#m93b0483c22" y="345.6"/>
      </g>
     </g>
     <g id="line2d_8">
      <g>
       <use style="stroke:#000000;stroke-width:0.5;" x="228.367330285" xlink:href="#m741efc42ff" y="43.2"/>
      </g>
     </g>
     <g id="text_3">
      <!-- Oct 19 2015 -->
      <defs>
       <path d="
M10.9844 1.51562
L10.9844 10.5
Q14.7031 8.73438 18.5 7.8125
Q22.3125 6.89062 25.9844 6.89062
Q35.75 6.89062 40.8906 13.4531
Q46.0469 20.0156 46.7812 33.4062
Q43.9531 29.2031 39.5938 26.9531
Q35.25 24.7031 29.9844 24.7031
Q19.0469 24.7031 12.6719 31.3125
Q6.29688 37.9375 6.29688 49.4219
Q6.29688 60.6406 12.9375 67.4219
Q19.5781 74.2188 30.6094 74.2188
Q43.2656 74.2188 49.9219 64.5156
Q56.5938 54.8281 56.5938 36.375
Q56.5938 19.1406 48.4062 8.85938
Q40.2344 -1.42188 26.4219 -1.42188
Q22.7031 -1.42188 18.8906 -0.6875
Q15.0938 0.046875 10.9844 1.51562
M30.6094 32.4219
Q37.25 32.4219 41.125 36.9531
Q45.0156 41.5 45.0156 49.4219
Q45.0156 57.2812 41.125 61.8438
Q37.25 66.4062 30.6094 66.4062
Q23.9688 66.4062 20.0938 61.8438
Q16.2188 57.2812 16.2188 49.4219
Q16.2188 41.5 20.0938 36.9531
Q23.9688 32.4219 30.6094 32.4219" id="BitstreamVeraSans-Roman-39"/>
      </defs>
      <g transform="translate(163.78004355 394.065590385)rotate(-30.0)scale(0.12 -0.12)">
       <use xlink:href="#BitstreamVeraSans-Roman-4f"/>
       <use x="78.7109375" xlink:href="#BitstreamVeraSans-Roman-63"/>
       <use x="133.69140625" xlink:href="#BitstreamVeraSans-Roman-74"/>
       <use x="172.900390625" xlink:href="#BitstreamVeraSans-Roman-20"/>
       <use x="204.6875" xlink:href="#BitstreamVeraSans-Roman-31"/>
       <use x="268.310546875" xlink:href="#BitstreamVeraSans-Roman-39"/>
       <use x="331.93359375" xlink:href="#BitstreamVeraSans-Roman-20"/>
       <use x="363.720703125" xlink:href="#BitstreamVeraSans-Roman-32"/>
       <use x="427.34375" xlink:href="#BitstreamVeraSans-Roman-30"/>
       <use x="490.966796875" xlink:href="#BitstreamVeraSans-Roman-31"/>
       <use x="554.58984375" xlink:href="#BitstreamVeraSans-Roman-35"/>
      </g>
     </g>
    </g>
    <g id="xtick_4">
     <g id="line2d_9">
      <g>
       <use style="stroke:#000000;stroke-width:0.5;" x="283.465844572" xlink:href="#m93b0483c22" y="345.6"/>
      </g>
     </g>
     <g id="line2d_10">
      <g>
       <use style="stroke:#000000;stroke-width:0.5;" x="283.465844572" xlink:href="#m741efc42ff" y="43.2"/>
      </g>
     </g>
     <g id="text_4">
      <!-- Oct 22 2015 -->
      <g transform="translate(218.878557836 394.065590385)rotate(-30.0)scale(0.12 -0.12)">
       <use xlink:href="#BitstreamVeraSans-Roman-4f"/>
       <use x="78.7109375" xlink:href="#BitstreamVeraSans-Roman-63"/>
       <use x="133.69140625" xlink:href="#BitstreamVeraSans-Roman-74"/>
       <use x="172.900390625" xlink:href="#BitstreamVeraSans-Roman-20"/>
       <use x="204.6875" xlink:href="#BitstreamVeraSans-Roman-32"/>
       <use x="268.310546875" xlink:href="#BitstreamVeraSans-Roman-32"/>
       <use x="331.93359375" xlink:href="#BitstreamVeraSans-Roman-20"/>
       <use x="363.720703125" xlink:href="#BitstreamVeraSans-Roman-32"/>
       <use x="427.34375" xlink:href="#BitstreamVeraSans-Roman-30"/>
       <use x="490.966796875" xlink:href="#BitstreamVeraSans-Roman-31"/>
       <use x="554.58984375" xlink:href="#BitstreamVeraSans-Roman-35"/>
      </g>
     </g>
    </g>
    <g id="xtick_5">
     <g id="line2d_11">
      <g>
       <use style="stroke:#000000;stroke-width:0.5;" x="338.564358857" xlink:href="#m93b0483c22" y="345.6"/>
      </g>
     </g>
     <g id="line2d_12">
      <g>
       <use style="stroke:#000000;stroke-width:0.5;" x="338.564358857" xlink:href="#m741efc42ff" y="43.2"/>
      </g>
     </g>
     <g id="text_5">
      <!-- Oct 25 2015 -->
      <g transform="translate(273.977072121 394.065590385)rotate(-30.0)scale(0.12 -0.12)">
       <use xlink:href="#BitstreamVeraSans-Roman-4f"/>
       <use x="78.7109375" xlink:href="#BitstreamVeraSans-Roman-63"/>
       <use x="133.69140625" xlink:href="#BitstreamVeraSans-Roman-74"/>
       <use x="172.900390625" xlink:href="#BitstreamVeraSans-Roman-20"/>
       <use x="204.6875" xlink:href="#BitstreamVeraSans-Roman-32"/>
       <use x="268.310546875" xlink:href="#BitstreamVeraSans-Roman-35"/>
       <use x="331.93359375" xlink:href="#BitstreamVeraSans-Roman-20"/>
       <use x="363.720703125" xlink:href="#BitstreamVeraSans-Roman-32"/>
       <use x="427.34375" xlink:href="#BitstreamVeraSans-Roman-30"/>
       <use x="490.966796875" xlink:href="#BitstreamVeraSans-Roman-31"/>
       <use x="554.58984375" xlink:href="#BitstreamVeraSans-Roman-35"/>
      </g>
     </g>
    </g>
    <g id="xtick_6">
     <g id="line2d_13">
      <g>
       <use style="stroke:#000000;stroke-width:0.5;" x="393.662873141" xlink:href="#m93b0483c22" y="345.6"/>
      </g>
     </g>
     <g id="line2d_14">
      <g>
       <use style="stroke:#000000;stroke-width:0.5;" x="393.662873141" xlink:href="#m741efc42ff" y="43.2"/>
      </g>
     </g>
     <g id="text_6">
      <!-- Oct 28 2015 -->
      <defs>
       <path d="
M31.7812 34.625
Q24.75 34.625 20.7188 30.8594
Q16.7031 27.0938 16.7031 20.5156
Q16.7031 13.9219 20.7188 10.1562
Q24.75 6.39062 31.7812 6.39062
Q38.8125 6.39062 42.8594 10.1719
Q46.9219 13.9688 46.9219 20.5156
Q46.9219 27.0938 42.8906 30.8594
Q38.875 34.625 31.7812 34.625
M21.9219 38.8125
Q15.5781 40.375 12.0312 44.7188
Q8.5 49.0781 8.5 55.3281
Q8.5 64.0625 14.7188 69.1406
Q20.9531 74.2188 31.7812 74.2188
Q42.6719 74.2188 48.875 69.1406
Q55.0781 64.0625 55.0781 55.3281
Q55.0781 49.0781 51.5312 44.7188
Q48 40.375 41.7031 38.8125
Q48.8281 37.1562 52.7969 32.3125
Q56.7812 27.4844 56.7812 20.5156
Q56.7812 9.90625 50.3125 4.23438
Q43.8438 -1.42188 31.7812 -1.42188
Q19.7344 -1.42188 13.25 4.23438
Q6.78125 9.90625 6.78125 20.5156
Q6.78125 27.4844 10.7812 32.3125
Q14.7969 37.1562 21.9219 38.8125
M18.3125 54.3906
Q18.3125 48.7344 21.8438 45.5625
Q25.3906 42.3906 31.7812 42.3906
Q38.1406 42.3906 41.7188 45.5625
Q45.3125 48.7344 45.3125 54.3906
Q45.3125 60.0625 41.7188 63.2344
Q38.1406 66.4062 31.7812 66.4062
Q25.3906 66.4062 21.8438 63.2344
Q18.3125 60.0625 18.3125 54.3906" id="BitstreamVeraSans-Roman-38"/>
      </defs>
      <g transform="translate(329.075586406 394.065590385)rotate(-30.0)scale(0.12 -0.12)">
       <use xlink:href="#BitstreamVeraSans-Roman-4f"/>
       <use x="78.7109375" xlink:href="#BitstreamVeraSans-Roman-63"/>
       <use x="133.69140625" xlink:href="#BitstreamVeraSans-Roman-74"/>
       <use x="172.900390625" xlink:href="#BitstreamVeraSans-Roman-20"/>
       <use x="204.6875" xlink:href="#BitstreamVeraSans-Roman-32"/>
       <use x="268.310546875" xlink:href="#BitstreamVeraSans-Roman-38"/>
       <use x="331.93359375" xlink:href="#BitstreamVeraSans-Roman-20"/>
       <use x="363.720703125" xlink:href="#BitstreamVeraSans-Roman-32"/>
       <use x="427.34375" xlink:href="#BitstreamVeraSans-Roman-30"/>
       <use x="490.966796875" xlink:href="#BitstreamVeraSans-Roman-31"/>
       <use x="554.58984375" xlink:href="#BitstreamVeraSans-Roman-35"/>
      </g>
     </g>
    </g>
    <g id="xtick_7">
     <g id="line2d_15">
      <g>
       <use style="stroke:#000000;stroke-width:0.5;" x="448.761387428" xlink:href="#m93b0483c22" y="345.6"/>
      </g>
     </g>
     <g id="line2d_16">
      <g>
       <use style="stroke:#000000;stroke-width:0.5;" x="448.761387428" xlink:href="#m741efc42ff" y="43.2"/>
      </g>
     </g>
     <g id="text_7">
      <!-- Oct 31 2015 -->
      <g transform="translate(384.174100693 394.065590385)rotate(-30.0)scale(0.12 -0.12)">
       <use xlink:href="#BitstreamVeraSans-Roman-4f"/>
       <use x="78.7109375" xlink:href="#BitstreamVeraSans-Roman-63"/>
       <use x="133.69140625" xlink:href="#BitstreamVeraSans-Roman-74"/>
       <use x="172.900390625" xlink:href="#BitstreamVeraSans-Roman-20"/>
       <use x="204.6875" xlink:href="#BitstreamVeraSans-Roman-33"/>
       <use x="268.310546875" xlink:href="#BitstreamVeraSans-Roman-31"/>
       <use x="331.93359375" xlink:href="#BitstreamVeraSans-Roman-20"/>
       <use x="363.720703125" xlink:href="#BitstreamVeraSans-Roman-32"/>
       <use x="427.34375" xlink:href="#BitstreamVeraSans-Roman-30"/>
       <use x="490.966796875" xlink:href="#BitstreamVeraSans-Roman-31"/>
       <use x="554.58984375" xlink:href="#BitstreamVeraSans-Roman-35"/>
      </g>
     </g>
    </g>
    <g id="xtick_8">
     <g id="line2d_17">
      <g>
       <use style="stroke:#000000;stroke-width:0.5;" x="503.859901713" xlink:href="#m93b0483c22" y="345.6"/>
      </g>
     </g>
     <g id="line2d_18">
      <g>
       <use style="stroke:#000000;stroke-width:0.5;" x="503.859901713" xlink:href="#m741efc42ff" y="43.2"/>
      </g>
     </g>
     <g id="text_8">
      <!-- Nov 03 2015 -->
      <defs>
       <path d="
M2.98438 54.6875
L12.5 54.6875
L29.5938 8.79688
L46.6875 54.6875
L56.2031 54.6875
L35.6875 0
L23.4844 0
z
" id="BitstreamVeraSans-Roman-76"/>
       <path d="
M9.8125 72.9062
L23.0938 72.9062
L55.4219 11.9219
L55.4219 72.9062
L64.9844 72.9062
L64.9844 0
L51.7031 0
L19.3906 60.9844
L19.3906 0
L9.8125 0
z
" id="BitstreamVeraSans-Roman-4e"/>
       <path d="
M30.6094 48.3906
Q23.3906 48.3906 19.1875 42.75
Q14.9844 37.1094 14.9844 27.2969
Q14.9844 17.4844 19.1562 11.8438
Q23.3438 6.20312 30.6094 6.20312
Q37.7969 6.20312 41.9844 11.8594
Q46.1875 17.5312 46.1875 27.2969
Q46.1875 37.0156 41.9844 42.7031
Q37.7969 48.3906 30.6094 48.3906
M30.6094 56
Q42.3281 56 49.0156 48.375
Q55.7188 40.7656 55.7188 27.2969
Q55.7188 13.875 49.0156 6.21875
Q42.3281 -1.42188 30.6094 -1.42188
Q18.8438 -1.42188 12.1719 6.21875
Q5.51562 13.875 5.51562 27.2969
Q5.51562 40.7656 12.1719 48.375
Q18.8438 56 30.6094 56" id="BitstreamVeraSans-Roman-6f"/>
      </defs>
      <g transform="translate(436.957079555 395.402465385)rotate(-30.0)scale(0.12 -0.12)">
       <use xlink:href="#BitstreamVeraSans-Roman-4e"/>
       <use x="74.8046875" xlink:href="#BitstreamVeraSans-Roman-6f"/>
       <use x="135.986328125" xlink:href="#BitstreamVeraSans-Roman-76"/>
       <use x="195.166015625" xlink:href="#BitstreamVeraSans-Roman-20"/>
       <use x="226.953125" xlink:href="#BitstreamVeraSans-Roman-30"/>
       <use x="290.576171875" xlink:href="#BitstreamVeraSans-Roman-33"/>
       <use x="354.19921875" xlink:href="#BitstreamVeraSans-Roman-20"/>
       <use x="385.986328125" xlink:href="#BitstreamVeraSans-Roman-32"/>
       <use x="449.609375" xlink:href="#BitstreamVeraSans-Roman-30"/>
       <use x="513.232421875" xlink:href="#BitstreamVeraSans-Roman-31"/>
       <use x="576.85546875" xlink:href="#BitstreamVeraSans-Roman-35"/>
      </g>
     </g>
    </g>
   </g>
   <g id="matplotlib.axis_2">
    <g id="ytick_1">
     <g id="line2d_19">
      <defs>
       <path d="
M0 0
L4 0" id="m728421d6d4" style="stroke:#000000;stroke-width:0.5;"/>
      </defs>
      <g>
       <use style="stroke:#000000;stroke-width:0.5;" x="72.0" xlink:href="#m728421d6d4" y="302.447130761"/>
      </g>
     </g>
     <g id="line2d_20">
      <defs>
       <path d="
M0 0
L-4 0" id="mcb0005524f" style="stroke:#000000;stroke-width:0.5;"/>
      </defs>
      <g>
       <use style="stroke:#000000;stroke-width:0.5;" x="518.4" xlink:href="#mcb0005524f" y="302.447130761"/>
      </g>
     </g>
     <g id="text_9">
      <!-- 10000 -->
      <g transform="translate(31.94 305.758380761)scale(0.12 -0.12)">
       <use xlink:href="#BitstreamVeraSans-Roman-31"/>
       <use x="63.623046875" xlink:href="#BitstreamVeraSans-Roman-30"/>
       <use x="127.24609375" xlink:href="#BitstreamVeraSans-Roman-30"/>
       <use x="190.869140625" xlink:href="#BitstreamVeraSans-Roman-30"/>
       <use x="254.4921875" xlink:href="#BitstreamVeraSans-Roman-30"/>
      </g>
     </g>
    </g>
    <g id="ytick_2">
     <g id="line2d_21">
      <g>
       <use style="stroke:#000000;stroke-width:0.5;" x="72.0" xlink:href="#m728421d6d4" y="246.952542584"/>
      </g>
     </g>
     <g id="line2d_22">
      <g>
       <use style="stroke:#000000;stroke-width:0.5;" x="518.4" xlink:href="#mcb0005524f" y="246.952542584"/>
      </g>
     </g>
     <g id="text_10">
      <!-- 20000 -->
      <g transform="translate(31.50125 250.263792584)scale(0.12 -0.12)">
       <use xlink:href="#BitstreamVeraSans-Roman-32"/>
       <use x="63.623046875" xlink:href="#BitstreamVeraSans-Roman-30"/>
       <use x="127.24609375" xlink:href="#BitstreamVeraSans-Roman-30"/>
       <use x="190.869140625" xlink:href="#BitstreamVeraSans-Roman-30"/>
       <use x="254.4921875" xlink:href="#BitstreamVeraSans-Roman-30"/>
      </g>
     </g>
    </g>
    <g id="ytick_3">
     <g id="line2d_23">
      <g>
       <use style="stroke:#000000;stroke-width:0.5;" x="72.0" xlink:href="#m728421d6d4" y="191.457954408"/>
      </g>
     </g>
     <g id="line2d_24">
      <g>
       <use style="stroke:#000000;stroke-width:0.5;" x="518.4" xlink:href="#mcb0005524f" y="191.457954408"/>
      </g>
     </g>
     <g id="text_11">
      <!-- 30000 -->
      <g transform="translate(31.536875 194.769204408)scale(0.12 -0.12)">
       <use xlink:href="#BitstreamVeraSans-Roman-33"/>
       <use x="63.623046875" xlink:href="#BitstreamVeraSans-Roman-30"/>
       <use x="127.24609375" xlink:href="#BitstreamVeraSans-Roman-30"/>
       <use x="190.869140625" xlink:href="#BitstreamVeraSans-Roman-30"/>
       <use x="254.4921875" xlink:href="#BitstreamVeraSans-Roman-30"/>
      </g>
     </g>
    </g>
    <g id="ytick_4">
     <g id="line2d_25">
      <g>
       <use style="stroke:#000000;stroke-width:0.5;" x="72.0" xlink:href="#m728421d6d4" y="135.963366231"/>
      </g>
     </g>
     <g id="line2d_26">
      <g>
       <use style="stroke:#000000;stroke-width:0.5;" x="518.4" xlink:href="#mcb0005524f" y="135.963366231"/>
      </g>
     </g>
     <g id="text_12">
      <!-- 40000 -->
      <defs>
       <path d="
M37.7969 64.3125
L12.8906 25.3906
L37.7969 25.3906
z

M35.2031 72.9062
L47.6094 72.9062
L47.6094 25.3906
L58.0156 25.3906
L58.0156 17.1875
L47.6094 17.1875
L47.6094 0
L37.7969 0
L37.7969 17.1875
L4.89062 17.1875
L4.89062 26.7031
z
" id="BitstreamVeraSans-Roman-34"/>
      </defs>
      <g transform="translate(31.20875 139.274616231)scale(0.12 -0.12)">
       <use xlink:href="#BitstreamVeraSans-Roman-34"/>
       <use x="63.623046875" xlink:href="#BitstreamVeraSans-Roman-30"/>
       <use x="127.24609375" xlink:href="#BitstreamVeraSans-Roman-30"/>
       <use x="190.869140625" xlink:href="#BitstreamVeraSans-Roman-30"/>
       <use x="254.4921875" xlink:href="#BitstreamVeraSans-Roman-30"/>
      </g>
     </g>
    </g>
    <g id="ytick_5">
     <g id="line2d_27">
      <g>
       <use style="stroke:#000000;stroke-width:0.5;" x="72.0" xlink:href="#m728421d6d4" y="80.4687780547"/>
      </g>
     </g>
     <g id="line2d_28">
      <g>
       <use style="stroke:#000000;stroke-width:0.5;" x="518.4" xlink:href="#mcb0005524f" y="80.4687780547"/>
      </g>
     </g>
     <g id="text_13">
      <!-- 50000 -->
      <g transform="translate(31.548125 83.7800280547)scale(0.12 -0.12)">
       <use xlink:href="#BitstreamVeraSans-Roman-35"/>
       <use x="63.623046875" xlink:href="#BitstreamVeraSans-Roman-30"/>
       <use x="127.24609375" xlink:href="#BitstreamVeraSans-Roman-30"/>
       <use x="190.869140625" xlink:href="#BitstreamVeraSans-Roman-30"/>
       <use x="254.4921875" xlink:href="#BitstreamVeraSans-Roman-30"/>
      </g>
     </g>
    </g>
   </g>
   <g id="text_14">
    <!-- Rmische Mnzen -->
    <defs>
     <path d="
M9.8125 72.9062
L24.5156 72.9062
L43.1094 23.2969
L61.8125 72.9062
L76.5156 72.9062
L76.5156 0
L66.8906 0
L66.8906 64.0156
L48.0938 14.0156
L38.1875 14.0156
L19.3906 64.0156
L19.3906 0
L9.8125 0
z
" id="BitstreamVeraSans-Roman-4d"/>
     <path d="
M54.8906 33.0156
L54.8906 0
L45.9062 0
L45.9062 32.7188
Q45.9062 40.4844 42.875 44.3281
Q39.8438 48.1875 33.7969 48.1875
Q26.5156 48.1875 22.3125 43.5469
Q18.1094 38.9219 18.1094 30.9062
L18.1094 0
L9.07812 0
L9.07812 54.6875
L18.1094 54.6875
L18.1094 46.1875
Q21.3438 51.125 25.7031 53.5625
Q30.0781 56 35.7969 56
Q45.2188 56 50.0469 50.1719
Q54.8906 44.3438 54.8906 33.0156" id="BitstreamVeraSans-Roman-6e"/>
     <path d="
M52 44.1875
Q55.375 50.25 60.0625 53.125
Q64.75 56 71.0938 56
Q79.6406 56 84.2812 50.0156
Q88.9219 44.0469 88.9219 33.0156
L88.9219 0
L79.8906 0
L79.8906 32.7188
Q79.8906 40.5781 77.0938 44.375
Q74.3125 48.1875 68.6094 48.1875
Q61.625 48.1875 57.5625 43.5469
Q53.5156 38.9219 53.5156 30.9062
L53.5156 0
L44.4844 0
L44.4844 32.7188
Q44.4844 40.625 41.7031 44.4062
Q38.9219 48.1875 33.1094 48.1875
Q26.2188 48.1875 22.1562 43.5312
Q18.1094 38.875 18.1094 30.9062
L18.1094 0
L9.07812 0
L9.07812 54.6875
L18.1094 54.6875
L18.1094 46.1875
Q21.1875 51.2188 25.4844 53.6094
Q29.7812 56 35.6875 56
Q41.6562 56 45.8281 52.9688
Q50 49.9531 52 44.1875" id="BitstreamVeraSans-Roman-6d"/>
     <path d="
M30.6094 48.3906
Q23.3906 48.3906 19.1875 42.75
Q14.9844 37.1094 14.9844 27.2969
Q14.9844 17.4844 19.1562 11.8438
Q23.3438 6.20312 30.6094 6.20312
Q37.7969 6.20312 41.9844 11.8594
Q46.1875 17.5312 46.1875 27.2969
Q46.1875 37.0156 41.9844 42.7031
Q37.7969 48.3906 30.6094 48.3906
M30.6094 56
Q42.3281 56 49.0156 48.375
Q55.7188 40.7656 55.7188 27.2969
Q55.7188 13.875 49.0156 6.21875
Q42.3281 -1.42188 30.6094 -1.42188
Q18.8438 -1.42188 12.1719 6.21875
Q5.51562 13.875 5.51562 27.2969
Q5.51562 40.7656 12.1719 48.375
Q18.8438 56 30.6094 56
M35.2188 75.7812
L45.125 75.7812
L45.125 65.9219
L35.2188 65.9219
z

M16.125 75.7812
L26.0312 75.7812
L26.0312 65.9219
L16.125 65.9219
z
" id="BitstreamVeraSans-Roman-f6"/>
     <path d="
M5.51562 54.6875
L48.1875 54.6875
L48.1875 46.4844
L14.4062 7.17188
L48.1875 7.17188
L48.1875 0
L4.29688 0
L4.29688 8.20312
L38.0938 47.5156
L5.51562 47.5156
z
" id="BitstreamVeraSans-Roman-7a"/>
     <path d="
M44.3906 34.1875
Q47.5625 33.1094 50.5625 29.5938
Q53.5625 26.0781 56.5938 19.9219
L66.6094 0
L56 0
L46.6875 18.7031
Q43.0625 26.0312 39.6719 28.4219
Q36.2812 30.8125 30.4219 30.8125
L19.6719 30.8125
L19.6719 0
L9.8125 0
L9.8125 72.9062
L32.0781 72.9062
Q44.5781 72.9062 50.7344 67.6719
Q56.8906 62.4531 56.8906 51.9062
Q56.8906 45.0156 53.6875 40.4688
Q50.4844 35.9375 44.3906 34.1875
M19.6719 64.7969
L19.6719 38.9219
L32.0781 38.9219
Q39.2031 38.9219 42.8438 42.2188
Q46.4844 45.5156 46.4844 51.9062
Q46.4844 58.2969 42.8438 61.5469
Q39.2031 64.7969 32.0781 64.7969
z
" id="BitstreamVeraSans-Roman-52"/>
     <path d="
M9.42188 54.6875
L18.4062 54.6875
L18.4062 0
L9.42188 0
z

M9.42188 75.9844
L18.4062 75.9844
L18.4062 64.5938
L9.42188 64.5938
z
" id="BitstreamVeraSans-Roman-69"/>
     <path d="
M54.8906 33.0156
L54.8906 0
L45.9062 0
L45.9062 32.7188
Q45.9062 40.4844 42.875 44.3281
Q39.8438 48.1875 33.7969 48.1875
Q26.5156 48.1875 22.3125 43.5469
Q18.1094 38.9219 18.1094 30.9062
L18.1094 0
L9.07812 0
L9.07812 75.9844
L18.1094 75.9844
L18.1094 46.1875
Q21.3438 51.125 25.7031 53.5625
Q30.0781 56 35.7969 56
Q45.2188 56 50.0469 50.1719
Q54.8906 44.3438 54.8906 33.0156" id="BitstreamVeraSans-Roman-68"/>
     <path d="
M56.2031 29.5938
L56.2031 25.2031
L14.8906 25.2031
Q15.4844 15.9219 20.4844 11.0625
Q25.4844 6.20312 34.4219 6.20312
Q39.5938 6.20312 44.4531 7.46875
Q49.3125 8.73438 54.1094 11.2812
L54.1094 2.78125
Q49.2656 0.734375 44.1875 -0.34375
Q39.1094 -1.42188 33.8906 -1.42188
Q20.7969 -1.42188 13.1562 6.1875
Q5.51562 13.8125 5.51562 26.8125
Q5.51562 40.2344 12.7656 48.1094
Q20.0156 56 32.3281 56
Q43.3594 56 49.7812 48.8906
Q56.2031 41.7969 56.2031 29.5938
M47.2188 32.2344
Q47.125 39.5938 43.0938 43.9844
Q39.0625 48.3906 32.4219 48.3906
Q24.9062 48.3906 20.3906 44.1406
Q15.875 39.8906 15.1875 32.1719
z
" id="BitstreamVeraSans-Roman-65"/>
     <path d="
M44.2812 53.0781
L44.2812 44.5781
Q40.4844 46.5312 36.375 47.5
Q32.2812 48.4844 27.875 48.4844
Q21.1875 48.4844 17.8438 46.4375
Q14.5 44.3906 14.5 40.2812
Q14.5 37.1562 16.8906 35.375
Q19.2812 33.5938 26.5156 31.9844
L29.5938 31.2969
Q39.1562 29.25 43.1875 25.5156
Q47.2188 21.7812 47.2188 15.0938
Q47.2188 7.46875 41.1875 3.01562
Q35.1562 -1.42188 24.6094 -1.42188
Q20.2188 -1.42188 15.4531 -0.5625
Q10.6875 0.296875 5.42188 2
L5.42188 11.2812
Q10.4062 8.6875 15.2344 7.39062
Q20.0625 6.10938 24.8125 6.10938
Q31.1562 6.10938 34.5625 8.28125
Q37.9844 10.4531 37.9844 14.4062
Q37.9844 18.0625 35.5156 20.0156
Q33.0625 21.9688 24.7031 23.7812
L21.5781 24.5156
Q13.2344 26.2656 9.51562 29.9062
Q5.8125 33.5469 5.8125 39.8906
Q5.8125 47.6094 11.2812 51.7969
Q16.75 56 26.8125 56
Q31.7812 56 36.1719 55.2656
Q40.5781 54.5469 44.2812 53.0781" id="BitstreamVeraSans-Roman-73"/>
     <path d="
M8.5 21.5781
L8.5 54.6875
L17.4844 54.6875
L17.4844 21.9219
Q17.4844 14.1562 20.5 10.2656
Q23.5312 6.39062 29.5938 6.39062
Q36.8594 6.39062 41.0781 11.0312
Q45.3125 15.6719 45.3125 23.6875
L45.3125 54.6875
L54.2969 54.6875
L54.2969 0
L45.3125 0
L45.3125 8.40625
Q42.0469 3.42188 37.7188 1
Q33.4062 -1.42188 27.6875 -1.42188
Q18.2656 -1.42188 13.375 4.4375
Q8.5 10.2969 8.5 21.5781
M35.5938 75.7812
L45.5 75.7812
L45.5 65.9219
L35.5938 65.9219
z

M16.5 75.7812
L26.4062 75.7812
L26.4062 65.9219
L16.5 65.9219
z
" id="BitstreamVeraSans-Roman-fc"/>
    </defs>
    <g transform="translate(389.223 38.2)scale(0.144 -0.144)">
     <use xlink:href="#BitstreamVeraSans-Roman-52"/>
     <use x="64.982421875" xlink:href="#BitstreamVeraSans-Roman-f6"/>
     <use x="126.1640625" xlink:href="#BitstreamVeraSans-Roman-6d"/>
     <use x="223.576171875" xlink:href="#BitstreamVeraSans-Roman-69"/>
     <use x="251.359375" xlink:href="#BitstreamVeraSans-Roman-73"/>
     <use x="303.458984375" xlink:href="#BitstreamVeraSans-Roman-63"/>
     <use x="358.439453125" xlink:href="#BitstreamVeraSans-Roman-68"/>
     <use x="421.818359375" xlink:href="#BitstreamVeraSans-Roman-65"/>
     <use x="483.341796875" xlink:href="#BitstreamVeraSans-Roman-20"/>
     <use x="515.12890625" xlink:href="#BitstreamVeraSans-Roman-4d"/>
     <use x="601.408203125" xlink:href="#BitstreamVeraSans-Roman-fc"/>
     <use x="664.787109375" xlink:href="#BitstreamVeraSans-Roman-6e"/>
     <use x="728.166015625" xlink:href="#BitstreamVeraSans-Roman-7a"/>
     <use x="780.65625" xlink:href="#BitstreamVeraSans-Roman-65"/>
     <use x="842.1796875" xlink:href="#BitstreamVeraSans-Roman-6e"/>
    </g>
   </g>
   <g id="legend_1">
    <g id="patch_7">
     <path d="
M123.942 423.616
L466.458 423.616
L466.458 398.16
L123.942 398.16
z
" style="fill:#ffffff;stroke:#000000;stroke-linejoin:miter;"/>
    </g>
    <g id="line2d_29">
     <path d="
M134.022 409.822
L154.182 409.822" style="fill:none;stroke:#ff0000;stroke-linecap:square;"/>
    </g>
    <g id="line2d_30"/>
    <g id="text_15">
     <!-- Schwarzmarktpreis -->
     <defs>
      <path d="
M34.2812 27.4844
Q23.3906 27.4844 19.1875 25
Q14.9844 22.5156 14.9844 16.5
Q14.9844 11.7188 18.1406 8.90625
Q21.2969 6.10938 26.7031 6.10938
Q34.1875 6.10938 38.7031 11.4062
Q43.2188 16.7031 43.2188 25.4844
L43.2188 27.4844
z

M52.2031 31.2031
L52.2031 0
L43.2188 0
L43.2188 8.29688
Q40.1406 3.32812 35.5469 0.953125
Q30.9531 -1.42188 24.3125 -1.42188
Q15.9219 -1.42188 10.9531 3.29688
Q6 8.01562 6 15.9219
Q6 25.1406 12.1719 29.8281
Q18.3594 34.5156 30.6094 34.5156
L43.2188 34.5156
L43.2188 35.4062
Q43.2188 41.6094 39.1406 45
Q35.0625 48.3906 27.6875 48.3906
Q23 48.3906 18.5469 47.2656
Q14.1094 46.1406 10.0156 43.8906
L10.0156 52.2031
Q14.9375 54.1094 19.5781 55.0469
Q24.2188 56 28.6094 56
Q40.4844 56 46.3438 49.8438
Q52.2031 43.7031 52.2031 31.2031" id="BitstreamVeraSans-Roman-61"/>
      <path d="
M9.07812 75.9844
L18.1094 75.9844
L18.1094 31.1094
L44.9219 54.6875
L56.3906 54.6875
L27.3906 29.1094
L57.625 0
L45.9062 0
L18.1094 26.7031
L18.1094 0
L9.07812 0
z
" id="BitstreamVeraSans-Roman-6b"/>
      <path d="
M53.5156 70.5156
L53.5156 60.8906
Q47.9062 63.5781 42.9219 64.8906
Q37.9375 66.2188 33.2969 66.2188
Q25.25 66.2188 20.875 63.0938
Q16.5 59.9688 16.5 54.2031
Q16.5 49.3594 19.4062 46.8906
Q22.3125 44.4375 30.4219 42.9219
L36.375 41.7031
Q47.4062 39.5938 52.6562 34.2969
Q57.9062 29 57.9062 20.125
Q57.9062 9.51562 50.7969 4.04688
Q43.7031 -1.42188 29.9844 -1.42188
Q24.8125 -1.42188 18.9688 -0.25
Q13.1406 0.921875 6.89062 3.21875
L6.89062 13.375
Q12.8906 10.0156 18.6562 8.29688
Q24.4219 6.59375 29.9844 6.59375
Q38.4219 6.59375 43.0156 9.90625
Q47.6094 13.2344 47.6094 19.3906
Q47.6094 24.75 44.3125 27.7812
Q41.0156 30.8125 33.5 32.3281
L27.4844 33.5
Q16.4531 35.6875 11.5156 40.375
Q6.59375 45.0625 6.59375 53.4219
Q6.59375 63.0938 13.4062 68.6562
Q20.2188 74.2188 32.1719 74.2188
Q37.3125 74.2188 42.625 73.2812
Q47.9531 72.3594 53.5156 70.5156" id="BitstreamVeraSans-Roman-53"/>
      <path d="
M4.20312 54.6875
L13.1875 54.6875
L24.4219 12.0156
L35.5938 54.6875
L46.1875 54.6875
L57.4219 12.0156
L68.6094 54.6875
L77.5938 54.6875
L63.2812 0
L52.6875 0
L40.9219 44.8281
L29.1094 0
L18.5 0
z
" id="BitstreamVeraSans-Roman-77"/>
      <path d="
M41.1094 46.2969
Q39.5938 47.1719 37.8125 47.5781
Q36.0312 48 33.8906 48
Q26.2656 48 22.1875 43.0469
Q18.1094 38.0938 18.1094 28.8125
L18.1094 0
L9.07812 0
L9.07812 54.6875
L18.1094 54.6875
L18.1094 46.1875
Q20.9531 51.1719 25.4844 53.5781
Q30.0312 56 36.5312 56
Q37.4531 56 38.5781 55.875
Q39.7031 55.7656 41.0625 55.5156
z
" id="BitstreamVeraSans-Roman-72"/>
      <path d="
M18.1094 8.20312
L18.1094 -20.7969
L9.07812 -20.7969
L9.07812 54.6875
L18.1094 54.6875
L18.1094 46.3906
Q20.9531 51.2656 25.2656 53.625
Q29.5938 56 35.5938 56
Q45.5625 56 51.7812 48.0938
Q58.0156 40.1875 58.0156 27.2969
Q58.0156 14.4062 51.7812 6.48438
Q45.5625 -1.42188 35.5938 -1.42188
Q29.5938 -1.42188 25.2656 0.953125
Q20.9531 3.32812 18.1094 8.20312
M48.6875 27.2969
Q48.6875 37.2031 44.6094 42.8438
Q40.5312 48.4844 33.4062 48.4844
Q26.2656 48.4844 22.1875 42.8438
Q18.1094 37.2031 18.1094 27.2969
Q18.1094 17.3906 22.1875 11.75
Q26.2656 6.10938 33.4062 6.10938
Q40.5312 6.10938 44.6094 11.75
Q48.6875 17.3906 48.6875 27.2969" id="BitstreamVeraSans-Roman-70"/>
     </defs>
     <g transform="translate(170.022375 414.86175)scale(0.144 -0.144)">
      <use xlink:href="#BitstreamVeraSans-Roman-53"/>
      <use x="63.4765625" xlink:href="#BitstreamVeraSans-Roman-63"/>
      <use x="118.45703125" xlink:href="#BitstreamVeraSans-Roman-68"/>
      <use x="181.8359375" xlink:href="#BitstreamVeraSans-Roman-77"/>
      <use x="263.623046875" xlink:href="#BitstreamVeraSans-Roman-61"/>
      <use x="324.90234375" xlink:href="#BitstreamVeraSans-Roman-72"/>
      <use x="366.015625" xlink:href="#BitstreamVeraSans-Roman-7a"/>
      <use x="418.505859375" xlink:href="#BitstreamVeraSans-Roman-6d"/>
      <use x="515.91796875" xlink:href="#BitstreamVeraSans-Roman-61"/>
      <use x="577.197265625" xlink:href="#BitstreamVeraSans-Roman-72"/>
      <use x="618.310546875" xlink:href="#BitstreamVeraSans-Roman-6b"/>
      <use x="676.220703125" xlink:href="#BitstreamVeraSans-Roman-74"/>
      <use x="715.4296875" xlink:href="#BitstreamVeraSans-Roman-70"/>
      <use x="778.90625" xlink:href="#BitstreamVeraSans-Roman-72"/>
      <use x="817.76953125" xlink:href="#BitstreamVeraSans-Roman-65"/>
      <use x="879.29296875" xlink:href="#BitstreamVeraSans-Roman-69"/>
      <use x="907.076171875" xlink:href="#BitstreamVeraSans-Roman-73"/>
     </g>
    </g>
    <g id="line2d_31">
     <path d="
M339.609 409.822
L359.769 409.822" style="fill:none;stroke:#008000;stroke-linecap:square;"/>
    </g>
    <g id="line2d_32"/>
    <g id="text_16">
     <!-- Normalpreis -->
     <defs>
      <path d="
M9.42188 75.9844
L18.4062 75.9844
L18.4062 0
L9.42188 0
z
" id="BitstreamVeraSans-Roman-6c"/>
     </defs>
     <g transform="translate(375.609375 414.86175)scale(0.144 -0.144)">
      <use xlink:href="#BitstreamVeraSans-Roman-4e"/>
      <use x="74.8046875" xlink:href="#BitstreamVeraSans-Roman-6f"/>
      <use x="135.986328125" xlink:href="#BitstreamVeraSans-Roman-72"/>
      <use x="175.349609375" xlink:href="#BitstreamVeraSans-Roman-6d"/>
      <use x="272.76171875" xlink:href="#BitstreamVeraSans-Roman-61"/>
      <use x="334.041015625" xlink:href="#BitstreamVeraSans-Roman-6c"/>
      <use x="361.82421875" xlink:href="#BitstreamVeraSans-Roman-70"/>
      <use x="425.30078125" xlink:href="#BitstreamVeraSans-Roman-72"/>
      <use x="464.1640625" xlink:href="#BitstreamVeraSans-Roman-65"/>
      <use x="525.6875" xlink:href="#BitstreamVeraSans-Roman-69"/>
      <use x="553.470703125" xlink:href="#BitstreamVeraSans-Roman-73"/>
     </g>
    </g>
   </g>
  </g>
 </g>
 <defs>
  <clipPath id="pcb2bf987bf">
   <rect height="302.4" width="446.4" x="72.0" y="43.2"/>
  </clipPath>
 </defs>
</svg>
