<?xml version="1.0" encoding="utf-8" standalone="no"?>
<!DOCTYPE svg PUBLIC "-//W3C//DTD SVG 1.1//EN"
  "http://www.w3.org/Graphics/SVG/1.1/DTD/svg11.dtd">
<!-- Created with matplotlib (http://matplotlib.org/) -->
<svg height="432pt" version="1.1" viewBox="0 0 576 432" width="576pt" xmlns="http://www.w3.org/2000/svg" xmlns:xlink="http://www.w3.org/1999/xlink">
 <defs>
  <style type="text/css">
*{stroke-linecap:butt;stroke-linejoin:round;}
  </style>
 </defs>
 <g id="figure_1">
  <g id="patch_1">
   <path d="
M0 432
L576 432
L576 0
L0 0
z
" style="fill:#ffffff;"/>
  </g>
  <g id="axes_1">
   <g id="patch_2">
    <path d="
M72 345.6
L518.4 345.6
L518.4 43.2
L72 43.2
z
" style="fill:#ffffff;"/>
   </g>
   <g id="line2d_1">
    <path clip-path="url(#pcb2bf987bf)" d="
M72 243.402
L72.2551 247.522
L72.3826 247.522
L72.6377 243.402
L72.7653 245.467
L73.0203 245.467
L73.1479 247.522
L73.7856 247.453
L73.9131 234.479
L74.1682 236.589
L74.9335 225.564
L75.061 225.564
L75.4437 236.588
L75.6987 236.588
L75.8263 247.453
L76.2089 241.251
L76.5915 249.498
L76.8466 247.453
L76.9742 243.332
L77.2295 239.169
L77.6119 250.961
L77.9947 250.961
L78.1221 242.449
L78.3771 238.897
L78.3771 238.897
L78.5047 238.897
L78.7598 250.654
L78.8873 248.614
L79.1426 246.552
L79.2699 242.449
L79.525 246.552
L79.6526 251.533
L80.0352 248.31
L80.2903 244.197
L80.4178 248.31
L80.6729 261.984
L80.8005 261.984
L81.0555 265.89
L81.1831 254.17
L81.5657 248.074
L81.8208 261.332
L81.9483 261.332
L82.331 259.346
L82.5863 257.35
L82.7136 259.346
L82.9687 259.346
L83.0962 261.332
L83.3513 259.117
L83.4789 261.105
L83.7339 261.332
L83.8615 260.03
L84.2441 249.692
L84.4992 247.647
L84.6267 247.647
L84.882 243.528
L85.2647 245.592
L85.7746 237.271
L86.4123 237.175
L86.5399 235.068
L86.795 232.951
L86.9225 235.068
L87.1776 243.527
L87.6878 243.527
L87.9429 241.452
L88.0704 241.452
L88.3255 243.527
L88.453 243.527
L88.7081 245.555
L88.8357 245.497
L89.0907 241.356
L89.0907 241.356
L89.2183 245.555
L89.4734 223.834
L89.6009 245.552
L89.856 251.24
L89.9835 249.203
L90.6213 249.189
L91.259 247.142
L92.0242 240.641
L92.1518 248.896
L92.7895 244.197
L92.917 244.197
L93.5547 248.31
L94.4475 248.896
L95.0853 246.847
L95.2128 248.89
L95.8505 246.842
L96.6158 246.847
L97.381 249.189
L98.1463 249.189
L98.2738 247.142
L98.9115 249.189
L99.0391 249.189
L99.6768 246.259
L100.57 246.259
L101.207 249.189
L101.973 243.018
L102.738 243.018
L103.503 247.142
L103.631 247.142
L104.268 245.085
L105.034 247.693
L105.799 242.119
L106.564 239.78
L107.33 247.019
L108.095 228.59
L108.222 228.59
L108.86 249.189
L109.625 249.189
L109.753 240.954
L110.518 249.189
L111.156 242.126
L111.283 241.981
L111.921 239.519
L112.048 244.197
L114.217 240.94
L115.109 243.018
L116.512 247.142
L116.64 245.085
L117.278 243.018
L118.171 248.896
L118.808 240.94
L118.936 240.94
L119.573 249.189
L120.339 244.789
L121.104 248.896
L121.232 244.789
L121.869 246.847
L122.635 247.142
L122.762 243.017
L123.4 249.189
L124.165 249.189
L124.293 233.364
L124.93 238.852
L125.696 249.13
L126.333 244.492
L126.461 249.13
L126.461 249.13
L126.589 247.142
L127.354 227.416
L127.354 227.416
L127.864 248.31
L127.864 248.31
L127.991 246.259
L128.757 240.043
L128.884 240.043
L129.522 235.848
L130.287 242.126
L130.415 242.126
L131.052 243.018
L131.818 246.843
L132.583 238.852
L132.583 238.852
L134.113 241.52
L134.369 244.19
L134.879 248.307
L135.644 277.61
L136.537 264.425
L137.174 264.663
L137.94 264.663
L138.705 262.694
L139.598 262.694
L140.235 238.308
L141.001 250.116
L141.766 248.31
L141.893 252.696
L142.531 250.667
L143.296 252.695
L144.189 252.696
L144.827 248.593
L145.592 254.825
L145.72 252.806
L146.357 230.723
L146.485 246.259
L147.123 265.887
L147.25 261.95
L147.888 254.797
L148.653 249.203
L149.419 240.955
L149.546 243.033
L150.184 262.385
L150.949 289.332
L151.077 285.63
L151.714 256.331
L152.48 229.73
L153.245 266.09
L153.372 265.886
L154.01 260.174
L154.775 260.116
L155.541 260.174
L155.541 260.174
L156.306 254.498
L157.071 258.005
L157.837 252.147
L157.964 252.147
L158.602 258.155
L159.367 252.12
L160.897 252.12
L161.025 250.088
L162.428 248.045
L163.193 250.087
L163.321 248.045
L163.958 243.929
L164.086 239.773
L164.724 252.119
L164.851 250.087
L165.489 252.12
L166.254 248.045
L167.019 252.119
L167.785 260.147
L167.912 258.155
L168.55 258.155
L169.315 260.147
L170.08 260.174
L170.846 280.009
L170.973 270.872
L171.611 259.054
L172.376 267.873
L173.141 281.713
L173.269 275.706
L173.907 254.258
L174.672 275.699
L174.8 275.699
L176.203 271.861
L176.968 275.853
L177.095 275.853
L177.733 273.939
L179.264 262.257
L180.029 265.89
L180.156 270.084
L180.794 271.751
L180.922 271.751
L181.559 265.89
L182.325 260.03
L182.452 260.03
L183.09 247.304
L183.855 270.084
L183.983 270.084
L184.62 275.852
L185.386 275.853
L186.151 272.017
L186.916 283.764
L187.681 281.89
L188.447 255.591
L189.212 288.746
L189.339 288.746
L190.742 283.179
L191.508 270.944
L191.508 270.944
L193.038 259.971
L193.803 259.971
L194.569 253.962
L195.334 257.978
L195.461 261.954
L196.099 259.971
L199.16 259.971
L200.691 252.148
L201.456 255.122
L202.221 262.96
L202.987 262.957
L203.752 260.982
L203.879 258.995
L204.517 254.989
L205.41 265.89
L206.048 263.927
L206.175 259.971
L206.303 263.927
L206.685 271.751
L206.813 271.751
L206.813 271.751
L206.94 269.817
L207.578 271.861
L208.088 283.068
L208.343 283.068
L209.236 264.063
L209.236 264.063
L210.001 279.304
L210.767 281.191
L211.022 273.588
L211.532 277.408
L211.659 281.191
L211.915 279.304
L212.042 277.408
L212.297 279.304
L212.425 279.304
L212.68 281.191
L212.807 281.191
L213.955 272.997
L214.21 274.915
L214.338 274.915
L214.593 281.191
L214.976 281.191
L215.103 279.304
L215.358 281.191
L215.358 281.191
L215.868 273.588
L216.123 281.191
L216.123 281.191
L216.251 279.299
L216.634 279.304
L216.761 277.611
L216.761 277.611
L217.016 269.935
L217.271 277.611
L217.399 275.706
L217.654 273.792
L217.654 273.792
L217.781 271.751
L218.037 271.751
L218.164 269.817
L218.419 244.432
L218.419 244.432
L218.547 263.927
L218.802 259.971
L218.929 251.94
L219.184 249.903
L219.312 247.86
L219.567 259.971
L220.077 259.971
L220.332 241.656
L220.587 259.971
L220.843 259.971
L220.843 259.971
L221.225 253.963
L221.48 253.963
L221.608 263.957
L221.863 261.984
L222.245 265.92
L222.756 265.92
L223.011 263.957
L223.011 263.957
L223.393 263.927
L223.521 259.971
L223.776 261.954
L223.904 261.954
L224.159 258.038
L224.286 252
L224.541 257.1
L224.669 257.1
L224.924 256.035
L225.051 258.038
L225.307 258.038
L225.434 256.045
L225.944 256.035
L225.944 256.035
L226.327 265.89
L226.327 265.89
L226.455 265.92
L226.582 269.817
L226.582 269.817
L226.965 269.817
L227.347 263.957
L227.602 267.873
L227.602 267.873
L227.985 271.751
L228.112 271.751
L228.368 269.817
L228.495 265.92
L228.75 263.957
L228.878 261.954
L229.26 272.762
L229.643 277.611
L230.026 277.611
L230.281 275.706
L230.408 275.706
L230.663 277.025
L230.663 277.025
L231.173 271.869
L231.429 277.611
L231.429 277.611
L231.556 275.706
L232.321 275.706
L232.576 277.611
L232.704 277.611
L232.959 281.191
L232.959 281.191
L233.087 281.191
L233.342 258.4
L233.469 281.191
L233.724 281.191
L233.852 280.541
L234.107 246.405
L234.235 277.611
L234.49 273.763
L234.49 273.763
L234.617 273.763
L235 267.963
L235.255 273.763
L235.255 273.763
L235.383 273.763
L235.637 268.821
L236.02 268.82
L236.02 268.82
L236.148 264.913
L236.403 260.967
L236.53 254.974
L236.785 248.31
L236.913 262.945
L237.168 255.107
L237.551 273.763
L237.678 273.598
L238.061 261.904
L238.316 265.841
L238.443 265.644
L238.699 273.763
L238.826 271.839
L239.081 273.763
L239.209 273.763
L239.464 273.598
L239.591 271.819
L239.846 273.763
L239.974 273.763
L240.229 271.751
L240.357 269.817
L240.739 269.729
L240.994 269.729
L241.122 248.31
L241.377 261.894
L241.504 257.918
L241.76 261.894
L241.887 274.681
L242.142 273.763
L242.27 240.605
L242.525 271.839
L242.653 273.763
L242.907 271.839
L243.035 271.839
L243.29 273.763
L243.418 271.751
L243.673 263.957
L243.8 273.763
L244.055 265.979
L244.183 265.979
L244.438 271.839
L244.565 271.839
L244.821 269.906
L244.948 271.839
L245.203 273.763
L245.203 273.763
L245.331 291.382
L245.713 280.244
L245.968 278.353
L246.096 278.353
L246.351 264.106
L246.479 269.483
L246.734 273.344
L246.734 273.344
L246.861 273.344
L247.116 268.721
L247.244 272.59
L247.499 254.085
L247.882 252.063
L248.009 254.085
L248.392 271.418
L248.774 279.342
L249.03 277.446
L249.03 277.446
L249.412 277.446
L249.795 279.076
L249.922 279.076
L250.177 278.49
L250.305 278.49
L250.56 274.68
L250.688 276.59
L250.943 274.68
L251.07 278.49
L251.325 278.484
L251.453 270.4
L251.708 268.459
L251.835 264.549
L252.218 264.549
L252.473 262.536
L252.601 277.611
L252.983 277.611
L253.238 275.706
L253.366 271.751
L253.621 267.844
L254.004 267.844
L254.131 263.927
L254.386 267.844
L254.514 265.89
L254.769 267.844
L255.152 267.844
L255.534 261.954
L255.662 277.582
L255.662 277.582
L255.917 271.839
L255.917 271.839
L256.044 262.074
L256.427 275.677
L256.682 277.558
L256.81 275.653
L256.81 275.653
L257.192 275.653
L257.447 269.881
L257.575 275.653
L257.83 273.733
L257.957 275.653
L258.213 277.558
L258.213 277.558
L258.595 275.636
L258.723 273.717
L258.85 248.352
L258.978 273.717
L259.105 273.717
L259.36 271.793
L259.36 271.793
L259.488 271.747
L259.743 267.859
L259.743 267.859
L260.891 267.916
L261.019 275.636
L261.274 275.547
L261.656 265.89
L261.784 263.927
L262.039 261.948
L262.166 261.948
L262.421 261.817
L262.549 261.948
L262.804 257.1
L262.932 269.708
L263.187 267.764
L263.314 265.81
L263.697 267.764
L263.952 263.847
L264.08 271.671
L264.335 273.626
L264.335 273.626
L264.462 275.547
L264.717 277.541
L264.845 275.636
L265.1 275.636
L265.1 275.636
L265.227 277.541
L265.738 277.541
L265.993 271.797
L266.248 277.541
L266.63 277.541
L266.758 275.636
L267.013 277.541
L267.141 275.636
L267.396 277.541
L267.523 273.721
L267.778 273.721
L267.906 275.636
L268.161 275.636
L268.288 277.541
L268.544 277.541
L268.671 275.636
L268.926 277.541
L269.054 277.541
L269.309 271.797
L269.691 271.797
L269.819 269.864
L270.202 277.025
L270.457 275.636
L270.584 275.636
L270.839 277.541
L270.967 246.364
L271.222 269.805
L271.605 265.908
L271.987 271.739
L272.115 269.805
L272.497 269.758
L272.752 271.739
L273.263 271.733
L273.518 269.799
L273.518 269.799
L273.645 269.799
L273.9 271.733
L274.283 265.902
L274.411 271.739
L274.666 269.805
L274.793 269.805
L275.176 259.989
L275.431 267.862
L275.813 266.872
L275.941 266.872
L276.196 264.914
L276.324 246.741
L276.579 264.322
L276.706 264.322
L276.961 266.872
L277.089 262.946
L277.344 264.914
L277.472 264.914
L277.727 262.946
L277.854 260.968
L278.237 268.821
L278.492 268.821
L278.875 265.89
L279.002 261.954
L279.257 266.872
L279.385 264.914
L279.64 263.15
L279.767 263.15
L280.022 269.805
L280.15 265.908
L280.405 269.805
L280.405 269.805
L280.533 269.805
L280.915 263.945
L281.17 262.96
L281.17 262.96
L281.298 260.909
L281.553 271.739
L281.68 271.739
L281.936 267.092
L282.318 269.465
L282.446 271.739
L282.701 271.739
L282.828 267.862
L283.083 269.805
L283.211 269.805
L283.466 271.739
L283.594 269.805
L283.849 269.805
L283.976 271.739
L284.231 277.541
L284.359 277.541
L284.614 273.721
L284.741 273.721
L284.869 271.797
L285.379 273.721
L285.507 273.721
L285.762 275.636
L285.889 277.541
L286.272 277.541
L286.527 271.739
L286.655 271.739
L286.91 267.862
L287.037 269.805
L287.292 271.739
L287.42 271.739
L287.675 265.908
L287.803 213.457
L288.058 265.908
L288.185 261.972
L288.44 259.989
L288.568 269.805
L288.823 269.805
L288.95 271.739
L289.333 271.739
L289.588 269.805
L290.098 277.482
L290.736 268.286
L290.864 270.228
L291.119 277.482
L291.246 271.738
L291.501 277.482
L291.629 254.17
L291.884 275.577
L292.267 275.577
L292.394 273.662
L292.777 261.971
L293.032 277.482
L293.542 277.482
L293.797 271.737
L293.797 271.737
L293.925 271.737
L294.307 263.764
L294.562 271.561
L294.69 269.627
L294.945 248.31
L294.945 248.31
L295.072 277.482
L295.455 277.482
L295.71 275.429
L295.838 275.429
L296.093 277.335
L296.475 275.429
L296.603 277.335
L296.858 273.662
L296.986 273.662
L297.241 275.576
L297.368 273.662
L297.623 273.662
L297.751 275.576
L298.006 277.523
L298.133 277.523
L298.389 273.704
L298.516 277.523
L298.771 277.517
L298.899 275.612
L299.281 267.896
L299.536 265.89
L299.664 277.482
L299.919 275.459
L300.812 275.459
L301.067 274.095
L301.195 272.762
L301.45 277.025
L301.577 277.025
L301.832 277.482
L301.96 277.025
L302.215 275.117
L302.342 275.117
L302.597 277.025
L302.597 277.025
L302.98 277.482
L303.108 275.577
L303.745 275.577
L303.873 277.482
L304.128 275.636
L304.128 275.636
L304.256 277.541
L307.317 277.541
L307.699 295.192
L307.954 253.428
L308.082 177.245
L308.337 284.88
L308.464 281.134
L308.72 277.35
L308.72 277.35
L308.847 286.396
L309.102 283.471
L309.23 284.532
L309.485 273.159
L309.612 286.739
L309.867 283.011
L309.995 282.879
L310.378 267.337
L310.633 267.337
L310.76 281.003
L311.015 283.011
L311.143 283.011
L311.398 280.541
L311.525 274.843
L311.908 284.638
L312.546 275.706
L312.673 277.096
L312.928 286.75
L313.056 286.75
L313.311 284.892
L313.439 284.892
L313.694 283.471
L313.821 277.817
L314.076 277.768
L314.204 275.864
L314.459 277.768
L314.587 275.117
L314.842 275.706
L314.969 269.699
L315.224 267.755
L315.352 267.755
L315.989 277.768
L316.372 256.997
L316.5 258.995
L316.882 272.028
L317.137 286.75
L317.52 275.914
L317.648 277.611
L317.903 283.471
L318.03 281.596
L318.285 283.471
L318.413 281.596
L318.668 283.471
L318.668 283.471
L318.795 283.471
L319.051 281.596
L319.178 281.596
L319.561 266.812
L319.816 283.471
L319.943 281.596
L320.198 286.75
L320.326 284.892
L320.709 284.892
L320.964 286.75
L320.964 286.75
L321.346 287.486
L321.474 287.483
L321.729 285.041
L322.112 283.763
L322.239 281.889
L322.877 72.5014
L323.004 281.889
L323.259 281.889
L323.387 278.113
L323.77 278.113
L324.025 283.763
L324.025 283.763
L324.535 283.763
L324.79 285.627
L324.917 283.471
L325.173 283.471
L325.3 287.483
L325.555 283.763
L325.683 289.918
L326.066 289.918
L326.32 288.075
L326.448 289.332
L326.703 301.04
L327.086 295.651
L327.213 295.651
L327.468 292.013
L327.596 292.013
L327.851 290.18
L327.979 292.015
L328.234 286.49
L328.361 299.252
L328.616 297.456
L328.744 292.013
L328.999 290.096
L329.126 284.542
L329.381 284.542
L329.509 286.403
L329.764 282.672
L329.892 290.096
L330.147 295.651
L330.274 293.836
L330.657 285.624
L330.912 299.252
L331.295 293.771
L331.422 293.771
L331.677 296.494
L332.187 296.489
L332.443 295.192
L332.57 295.192
L332.825 293.375
L332.953 291.549
L333.208 295.192
L333.335 295.192
L333.59 294.606
L333.973 279.711
L334.101 279.711
L334.483 275.706
L334.738 275.706
L334.866 275.914
L335.121 270.146
L335.248 275.914
L335.504 295.13
L336.014 295.13
L336.269 293.313
L336.396 289.652
L336.651 287.808
L336.779 287.808
L337.034 291.487
L337.162 291.484
L337.417 287.486
L337.544 289.329
L337.799 287.486
L337.927 287.486
L338.182 289.332
L338.309 289.332
L338.565 291.485
L339.33 291.487
L339.457 289.652
L339.712 289.652
L339.84 287.808
L340.478 287.808
L340.605 289.652
L340.86 299.252
L340.988 299.253
L341.243 297.457
L341.371 295.651
L341.753 295.651
L342.008 292.013
L342.391 292.013
L342.518 297.457
L342.773 297.457
L342.901 295.651
L343.156 293.837
L343.284 292.013
L343.539 297.454
L343.666 297.457
L343.921 305.154
L343.921 305.154
L344.049 305.154
L344.304 306.318
L344.814 306.317
L345.069 304.556
L345.197 302.224
L345.452 300.442
L345.452 300.442
L345.835 261.202
L345.962 292.98
L346.345 292.844
L346.6 294.803
L346.727 292.984
L346.982 293.375
L346.982 293.375
L347.11 295.192
L347.365 293.375
L347.493 293.375
L347.748 283.766
L347.875 295.192
L348.13 294.606
L348.258 289.12
L348.513 285.416
L348.64 292.724
L348.896 294.544
L349.023 294.544
L349.278 236.589
L349.406 234.479
L349.661 294.014
L350.043 294.02
L350.171 294.544
L350.426 292.555
L350.554 248.31
L350.809 290.895
L350.936 289.057
L351.319 279.711
L351.702 285.353
L351.957 294.544
L352.467 294.544
L352.722 289.057
L352.849 289.057
L353.104 290.895
L353.232 253.895
L353.615 295.192
L353.87 306.317
L353.87 306.317
L354.635 299.22
L354.763 299.22
L355.018 297.424
L355.145 293.804
L355.4 295.618
L355.4 295.618
L355.528 291.98
L355.783 299.152
L355.91 295.549
L356.165 300.94
L356.165 300.94
L356.293 300.906
L357.058 293.699
L357.313 300.876
L357.568 297.291
L357.824 295.485
L358.206 295.466
L358.461 293.651
L358.461 293.651
L358.589 295.466
L359.227 295.466
L359.354 293.651
L359.609 295.466
L359.737 295.466
L359.992 291.826
L360.119 286.298
L360.374 286.298
L360.502 288.15
L360.757 286.298
L360.885 286.298
L361.14 284.437
L361.267 284.437
L361.522 282.567
L361.65 280.687
L361.905 295.192
L362.032 295.466
L362.288 277.611
L362.415 287.391
L362.67 265.886
L362.798 285.528
L363.053 281.596
L363.18 283.471
L363.435 300.894
L363.563 300.894
L363.818 299.106
L363.946 300.894
L364.328 287.486
L364.583 283.559
L364.711 287.28
L364.966 287.486
L365.093 280.009
L365.349 281.892
L365.476 287.486
L366.242 287.486
L366.624 284.057
L366.879 293.375
L367.007 293.307
L367.262 299.106
L367.389 297.309
L367.644 300.894
L368.155 300.9
L368.537 295.514
L368.792 300.906
L369.175 285.907
L369.557 280.29
L369.685 282.172
L369.94 280.29
L370.068 278.399
L370.323 276.498
L370.45 291.441
L370.705 289.605
L371.088 282.274
L371.216 285.423
L371.471 287.279
L371.598 283.557
L371.853 300.94
L371.981 300.94
L372.236 291.91
L372.363 291.91
L372.619 290.077
L372.746 288.141
L373.129 288.235
L373.384 293.375
L373.511 300.94
L373.766 301.052
L373.766 301.052
L373.894 299.265
L374.149 299.265
L374.277 293.375
L374.914 284.154
L375.042 301.046
L375.297 296.841
L375.424 301.046
L375.807 301.052
L376.062 297.439
L376.19 301.052
L378.103 301.052
L378.741 294.509
L378.868 294.509
L379.123 301.052
L379.506 301.052
L379.633 297.468
L379.888 301.052
L380.016 301.052
L380.271 293.849
L380.654 301.052
L380.781 295.659
L381.164 290.012
L381.419 301.052
L381.547 301.052
L381.802 293.404
L381.929 301.052
L382.184 295.631
L382.312 297.439
L382.567 292.641
L382.694 292.641
L382.949 297.439
L383.077 297.439
L383.332 301.052
L383.46 301.052
L383.715 298.658
L384.225 291.406
L384.48 293.233
L384.608 298.658
L384.863 298.655
L385.245 295.048
L385.628 282.133
L385.755 284.006
L386.011 285.815
L386.393 285.815
L386.521 283.952
L386.776 282.079
L386.903 285.815
L387.669 285.869
L388.434 285.869
L388.689 295.048
L388.816 295.048
L389.072 289.568
L389.199 296.9
L389.454 293.274
L389.582 289.613
L389.837 291.448
L389.964 293.274
L390.219 291.448
L390.347 291.448
L390.602 293.274
L390.985 293.274
L391.112 271.944
L391.367 273.867
L391.495 273.867
L391.75 271.944
L391.878 271.944
L392.133 295.092
L392.26 295.092
L392.515 291.448
L392.643 291.448
L392.898 287.768
L393.025 287.768
L393.28 285.914
L393.408 287.749
L394.046 287.743
L394.173 284.026
L394.173 284.026
L394.556 287.573
L394.811 285.719
L394.939 285.719
L395.194 281.981
L395.321 281.981
L395.576 280.098
L395.704 278.206
L395.959 281.979
L396.086 281.979
L396.341 280.096
L396.852 280.096
L397.107 276.302
L397.234 276.302
L397.489 274.391
L397.617 248.31
L397.872 283.855
L398 219.008
L398.255 285.719
L398.637 285.719
L398.765 281.981
L399.02 280.098
L399.147 281.981
L399.403 281.981
L400.168 240.638
L400.295 280.098
L400.55 272.762
L400.678 126.255
L402.464 126.255
L402.591 242.449
L402.846 262.96
L402.974 260.982
L403.229 260.03
L403.356 258.038
L403.611 258.038
L403.739 260.909
L403.994 262.887
L404.122 249.188
L404.377 254.17
L404.504 243.367
L404.887 258.68
L405.269 256.43
L405.652 258.92
L405.907 246.259
L406.035 258.92
L406.29 256.86
L406.417 258.858
L407.055 258.92
L407.183 256.917
L407.565 265.885
L407.82 263.921
L407.948 261.948
L408.203 259.942
L408.331 245.991
L408.586 249.877
L408.713 243.716
L409.096 239.403
L409.351 249.877
L409.478 245.779
L409.733 251.91
L409.861 247.834
L410.116 251.91
L410.244 249.877
L410.626 249.877
L410.881 225.645
L411.009 251.905
L411.264 257.949
L411.392 251.91
L411.647 257.949
L411.774 255.944
L412.029 257.949
L412.157 253.933
L412.412 255.946
L412.539 257.949
L412.667 257.949
L413.05 255.946
L413.305 257.949
L413.56 255.946
L413.687 255.946
L413.942 253.668
L414.07 259.936
L414.325 257.943
L414.708 257.943
L414.835 259.936
L415.09 255.941
L415.218 255.941
L415.473 253.928
L415.6 253.928
L415.856 259.936
L415.983 257.943
L416.366 257.943
L416.621 259.936
L416.748 259.936
L417.003 257.943
L417.131 257.943
L417.386 261.925
L417.514 259.939
L417.769 259.333
L417.896 257.337
L418.151 261.319
L418.534 261.314
L419.044 247.182
L419.427 247.182
L419.682 249.228
L419.809 249.228
L420.192 260.982
L420.447 256.995
L420.575 256.995
L420.957 250.942
L421.212 244.783
L421.34 248.896
L421.595 252.97
L421.723 248.904
L421.978 250.942
L422.105 250.942
L422.36 252.97
L422.488 248.904
L422.743 250.942
L422.87 250.942
L423.253 266.476
L423.508 271.751
L423.636 271.75
L423.891 267.873
L424.018 263.956
L424.273 269.816
L424.401 267.872
L424.656 271.75
L424.784 271.75
L425.039 269.816
L425.166 267.873
L425.421 246.258
L425.549 246.258
L425.931 269.7
L426.187 269.816
L426.314 267.844
L426.569 269.816
L426.697 262.96
L426.952 268.821
L427.334 264.914
L427.462 264.914
L427.717 258.98
L427.845 260.968
L428.1 247.259
L428.227 260.968
L428.482 258.978
L428.61 265.89
L428.865 264.712
L428.992 264.712
L429.248 266.672
L429.375 264.712
L429.758 267.873
L430.013 267.879
L430.14 269.816
L430.395 265.802
L430.524 269.816
L430.778 261.983
L430.906 265.919
L431.033 263.956
L431.288 269.816
L432.053 269.816
L432.309 267.873
L432.691 267.873
L432.691 267.873
L432.819 269.816
L433.201 269.816
L433.456 267.873
L433.584 269.816
L433.967 263.742
L434.222 269.816
L434.987 269.816
L435.37 260.001
L435.497 258.008
L435.752 258.008
L435.88 261.983
L436.135 261.983
L436.262 248.339
L436.517 261.788
L436.645 259.216
L436.9 259.805
L437.283 247.692
L437.41 255.807
L437.665 260.03
L437.793 260.03
L438.048 261.759
L438.176 260.03
L438.431 260.03
L438.558 258.038
L438.941 249.968
L439.196 237.556
L439.579 247.925
L439.706 257.1
L440.089 244.906
L440.344 242.693
L440.344 242.693
L440.471 240.614
L440.726 233.659
L441.109 251.048
L441.237 231.535
L441.619 255.093
L442.002 255.093
L442.384 254.17
L442.64 253.032
L442.767 246.259
L443.022 244.197
L443.15 248.28
L443.405 246.259
L443.533 251.004
L443.787 251.004
L443.915 248.31
L444.17 253.032
L444.298 253.032
L444.553 251.048
L444.68 260.03
L444.935 260.03
L445.063 258.038
L445.318 260.03
L445.445 265.89
L445.701 262.749
L446.211 265.89
L446.466 265.89
L446.593 263.927
L446.848 265.89
L446.976 263.927
L447.359 263.927
L447.614 261.788
L447.741 263.927
L447.996 263.927
L448.124 261.954
L448.379 263.927
L448.507 265.89
L448.762 263.927
L448.889 261.788
L449.144 263.927
L449.909 263.921
L450.037 261.948
L450.165 265.885
L451.185 265.89
L451.44 259.971
L451.568 259.971
L451.823 261.954
L451.95 259.971
L452.205 265.89
L453.353 265.89
L453.736 261.202
L453.863 261.954
L454.118 244.373
L454.246 265.099
L454.501 263.132
L454.629 261.153
L454.884 259.166
L454.884 259.166
L455.011 263.13
L455.394 263.041
L455.649 269.816
L456.414 269.816
L456.542 265.889
L456.797 265.304
L456.924 265.889
L457.179 248.25
L457.307 259.97
L457.562 253.921
L457.69 253.921
L458.072 265.89
L458.327 261.788
L458.71 261.788
L458.837 246.869
L459.093 259.51
L459.22 257.508
L459.475 261.788
L459.603 259.805
L459.858 261.782
L459.985 261.788
L460.24 269.816
L460.368 269.816
L460.623 262.007
L460.751 269.811
L461.006 269.816
L461.133 256.065
L461.388 252.03
L461.516 254.053
L461.771 254.053
L461.899 247.955
L462.154 251.821
L462.664 265.89
L462.919 269.816
L463.046 269.816
L463.301 257.549
L463.429 257.549
L463.684 267.868
L463.812 265.89
L464.067 268.821
L464.194 265.89
L464.449 263.927
L464.832 263.917
L464.96 255.966
L465.215 255.928
L465.342 253.915
L465.597 255.966
L465.597 255.966
L465.725 257.969
L465.98 263.917
L466.107 261.944
L466.363 259.961
L466.49 257.969
L466.745 257.969
L466.873 258.858
L467.256 254.17
L467.51 252.148
L467.893 252.148
L468.021 254.851
L469.041 254.851
L469.168 256.694
L469.424 258.693
L469.551 255.966
L469.934 263.917
L470.189 261.944
L470.571 261.944
L470.699 263.917
L470.954 261.944
L471.082 259.961
L471.337 259.961
L471.464 263.917
L472.102 263.917
L472.229 261.944
L472.485 259.961
L472.612 259.961
L472.867 257.969
L472.995 257.969
L473.25 256.035
L473.377 254.023
L473.76 254.023
L474.015 263.546
L474.143 189.707
L474.398 261.571
L474.525 261.571
L474.78 255.587
L474.908 257.591
L475.291 257.591
L475.546 253.572
L475.928 261.169
L476.056 259.182
L476.311 251.135
L476.438 261.571
L476.693 261.571
L476.821 261.788
L477.204 263.917
L477.459 256.035
L477.586 258.038
L477.841 256.035
L477.969 254.023
L478.224 255.093
L478.352 257.1
L478.607 258.038
L478.989 243.734
L479.117 254.019
L479.372 258.038
L479.499 258.038
L479.755 254.023
L479.882 258.038
L480.265 252
L480.52 258.038
L480.647 258.038
L480.902 256.035
L481.03 247.901
L481.413 258.038
L481.668 260.03
L481.795 261.944
L482.05 259.961
L482.178 263.917
L482.433 257.969
L482.56 259.961
L482.816 257.969
L482.943 255.966
L483.198 259.961
L483.326 255.966
L483.581 259.961
L483.708 263.868
L483.963 265.89
L484.091 263.927
L484.346 263.839
L484.474 267.842
L484.856 267.842
L485.111 261.952
L485.239 261.952
L485.494 259.969
L485.877 261.952
L486.004 257.977
L486.259 253.961
L486.259 253.961
L486.387 253.961
L486.642 249.905
L486.769 253.961
L487.024 251.938
L487.152 253.961
L487.407 251.938
L487.535 249.905
L487.79 251.559
L487.917 263.924
L488.172 259.968
L488.3 259.968
L488.555 257.976
L488.938 257.976
L489.065 255.973
L489.32 265.888
L489.703 265.888
L489.83 267.842
L490.085 265.888
L490.213 263.925
L490.468 263.925
L490.596 259.969
L490.978 265.89
L491.233 267.842
L491.361 265.888
L491.616 265.888
L491.744 263.921
L491.999 265.89
L492.126 261.954
L492.381 259.735
L492.764 253.571
L492.891 255.586
L493.147 255.586
L493.274 253.571
L493.657 253.571
L493.912 267.649
L494.294 267.649
L494.422 265.694
L494.677 267.844
L494.805 265.89
L495.06 263.927
L495.187 259.971
L495.442 255.976
L495.57 255.976
L495.697 253.963
L495.825 247.864
L495.825 247.864
L495.952 257.979
L496.208 255.976
L496.335 263.927
L496.59 263.927
L496.718 267.814
L496.973 265.89
L497.355 265.89
L497.483 267.844
L497.738 263.927
L497.866 267.844
L498.248 267.844
L498.503 264.021
L498.631 260.03
L499.013 260.066
L499.269 264.021
L499.269 264.021
L499.396 267.844
L499.651 265.889
L499.779 267.844
L500.034 264.015
L500.161 264.015
L500.416 261.332
L500.544 261.332
L500.799 258.038
L500.927 251.726
L501.309 256.035
L501.564 256.035
L501.692 254.023
L501.947 260.03
L502.075 260.03
L502.457 256.035
L502.712 260.024
L502.84 254.023
L503.095 256.035
L503.222 256.035
L503.477 251.421
L503.605 254.023
L503.86 252
L504.243 252
L504.37 249.968
L504.625 254.023
L504.753 254.023
L504.881 252
L505.136 254.023
L505.391 252
L505.518 254.023
L505.773 254.023
L505.901 252
L506.156 249.968
L506.283 249.968
L506.539 254.023
L506.666 249.968
L506.921 254.023
L507.049 252
L507.304 256.035
L507.431 256.035
L507.686 261.331
L508.069 261.331
L508.197 261.202
L508.452 259.977
L508.579 255.982
L508.834 259.977
L509.217 257.985
L509.344 255.982
L509.6 261.202
L509.727 259.216
L509.982 261.331
L510.365 259.107
L510.492 256.86
L510.747 259.345
L510.875 257.349
L511.13 236.589
L511.513 255.092
L511.64 255.092
L511.895 253.075
L512.023 255.092
L512.405 250.777
L512.661 254.798
L512.788 248.712
L513.043 250.751
L513.171 248.712
L513.426 234.506
L513.553 236.615
L513.808 248.31
L513.936 248.712
L514.191 255.092
L514.319 255.092
L514.574 249.01
L514.701 257.349
L514.956 255.094
L515.084 255.094
L515.339 257.349
L515.467 255.343
L515.849 244.784
L516.104 240.636
L516.232 242.715
L516.487 248.89
L516.614 248.89
L516.869 246.842
L516.997 248.89
L517.252 248.89
L517.38 243.752
L517.762 261.331
L518.145 261.332
L518.4 265.597
L518.4 265.597" style="fill:none;stroke:#ff0000;stroke-linecap:square;"/>
   </g>
   <g id="line2d_2">
    <path clip-path="url(#pcb2bf987bf)" d="
M72 319.778
L72.2551 319.778
L72.3826 320.173
L84.4992 320.276
L85.7746 320.293
L88.3255 320.361
L88.7081 320.411
L92.1518 320.454
L93.5547 320.536
L96.6158 320.64
L105.799 320.958
L109.753 321.103
L112.048 321.204
L135.644 321.961
L136.537 321.794
L139.47 321.869
L143.296 321.973
L144.189 321.995
L144.827 322.219
L151.077 322.462
L152.48 322.411
L156.306 322.514
L191.508 323.605
L191.508 323.605
L193.803 323.495
L216.123 324.293
L216.123 324.293
L216.251 324.133
L221.48 324.242
L224.286 324.332
L226.837 324.417
L227.22 324.461
L230.663 324.549
L230.663 324.549
L232.704 324.627
L239.081 324.72
L239.209 324.783
L243.673 324.869
L244.183 324.899
L245.203 324.925
L245.203 324.925
L245.331 325.041
L255.152 325.131
L255.662 325.154
L255.662 325.154
L256.682 325.161
L256.81 325.023
L256.81 325.023
L260.508 325.116
L261.019 325.14
L264.335 325.213
L264.335 325.213
L264.462 325.404
L267.396 325.513
L267.906 325.539
L271.987 325.639
L272.497 325.666
L275.813 325.766
L276.961 325.803
L280.405 325.89
L280.405 325.89
L280.915 325.927
L282.701 325.954
L282.828 326.04
L284.231 326.117
L284.359 326.188
L289.588 326.284
L290.098 326.31
L294.18 326.411
L294.18 326.411
L296.093 326.497
L301.067 326.576
L301.45 326.637
L307.189 326.724
L307.189 326.724
L307.699 326.75
L307.954 326.75
L308.082 326.876
L311.781 326.971
L312.673 327.014
L316.372 327.102
L316.5 327.171
L320.198 327.264
L320.709 327.3
L324.79 327.382
L325.173 327.43
L329.381 327.537
L330.274 327.58
L335.504 327.673
L335.631 327.749
L339.968 327.857
L343.666 328.021
L344.687 328.053
L344.814 327.869
L350.809 327.967
L351.191 328.022
L353.87 328.105
L353.87 328.105
L354.635 328.165
L355.018 328.117
L359.992 328.193
L360.502 328.23
L365.349 328.324
L365.859 328.355
L368.41 328.452
L368.792 328.5
L372.236 328.606
L373.129 328.643
L376.827 328.746
L378.358 328.78
L378.868 328.756
L388.306 328.771
L388.306 328.771
L388.434 329.13
L389.072 329.13
L389.199 328.782
L401.316 328.674
L401.443 328.149
L402.081 328.149
L402.208 328.304
L402.846 328.304
L402.974 328.482
L423.508 328.585
L423.891 328.632
L425.039 328.607
L425.166 328.297
L438.048 328.333
L438.176 328.644
L460.24 328.544
L460.751 328.506
L477.076 328.51
L477.204 328.688
L485.494 328.725
L486.004 328.565
L497.738 328.659
L498.503 328.68
L499.396 328.645
L518.4 328.612
L518.4 328.612" style="fill:none;stroke:#008000;stroke-linecap:square;"/>
   </g>
   <g id="patch_3">
    <path d="
M72 43.2
L518.4 43.2" style="fill:none;stroke:#000000;stroke-linecap:square;stroke-linejoin:miter;"/>
   </g>
   <g id="patch_4">
    <path d="
M518.4 345.6
L518.4 43.2" style="fill:none;stroke:#000000;stroke-linecap:square;stroke-linejoin:miter;"/>
   </g>
   <g id="patch_5">
    <path d="
M72 345.6
L518.4 345.6" style="fill:none;stroke:#000000;stroke-linecap:square;stroke-linejoin:miter;"/>
   </g>
   <g id="patch_6">
    <path d="
M72 345.6
L72 43.2" style="fill:none;stroke:#000000;stroke-linecap:square;stroke-linejoin:miter;"/>
   </g>
   <g id="matplotlib.axis_1">
    <g id="xtick_1">
     <g id="line2d_3">
      <defs>
       <path d="
M0 0
L0 -4" id="m93b0483c22" style="stroke:#000000;stroke-width:0.5;"/>
      </defs>
      <g>
       <use style="stroke:#000000;stroke-width:0.5;" x="118.170301715" xlink:href="#m93b0483c22" y="345.6"/>
      </g>
     </g>
     <g id="line2d_4">
      <defs>
       <path d="
M0 0
L0 4" id="m741efc42ff" style="stroke:#000000;stroke-width:0.5;"/>
      </defs>
      <g>
       <use style="stroke:#000000;stroke-width:0.5;" x="118.170301715" xlink:href="#m741efc42ff" y="43.2"/>
      </g>
     </g>
     <g id="text_1">
      <!-- Oct 13 2015 -->
      <defs>
       <path d="
M19.1875 8.29688
L53.6094 8.29688
L53.6094 0
L7.32812 0
L7.32812 8.29688
Q12.9375 14.1094 22.625 23.8906
Q32.3281 33.6875 34.8125 36.5312
Q39.5469 41.8438 41.4219 45.5312
Q43.3125 49.2188 43.3125 52.7812
Q43.3125 58.5938 39.2344 62.25
Q35.1562 65.9219 28.6094 65.9219
Q23.9688 65.9219 18.8125 64.3125
Q13.6719 62.7031 7.8125 59.4219
L7.8125 69.3906
Q13.7656 71.7812 18.9375 73
Q24.125 74.2188 28.4219 74.2188
Q39.75 74.2188 46.4844 68.5469
Q53.2188 62.8906 53.2188 53.4219
Q53.2188 48.9219 51.5312 44.8906
Q49.8594 40.875 45.4062 35.4062
Q44.1875 33.9844 37.6406 27.2188
Q31.1094 20.4531 19.1875 8.29688" id="BitstreamVeraSans-Roman-32"/>
       <path d="
M39.4062 66.2188
Q28.6562 66.2188 22.3281 58.2031
Q16.0156 50.2031 16.0156 36.375
Q16.0156 22.6094 22.3281 14.5938
Q28.6562 6.59375 39.4062 6.59375
Q50.1406 6.59375 56.4219 14.5938
Q62.7031 22.6094 62.7031 36.375
Q62.7031 50.2031 56.4219 58.2031
Q50.1406 66.2188 39.4062 66.2188
M39.4062 74.2188
Q54.7344 74.2188 63.9062 63.9375
Q73.0938 53.6562 73.0938 36.375
Q73.0938 19.1406 63.9062 8.85938
Q54.7344 -1.42188 39.4062 -1.42188
Q24.0312 -1.42188 14.8125 8.82812
Q5.60938 19.0938 5.60938 36.375
Q5.60938 53.6562 14.8125 63.9375
Q24.0312 74.2188 39.4062 74.2188" id="BitstreamVeraSans-Roman-4f"/>
       <path d="
M31.7812 66.4062
Q24.1719 66.4062 20.3281 58.9062
Q16.5 51.4219 16.5 36.375
Q16.5 21.3906 20.3281 13.8906
Q24.1719 6.39062 31.7812 6.39062
Q39.4531 6.39062 43.2812 13.8906
Q47.125 21.3906 47.125 36.375
Q47.125 51.4219 43.2812 58.9062
Q39.4531 66.4062 31.7812 66.4062
M31.7812 74.2188
Q44.0469 74.2188 50.5156 64.5156
Q56.9844 54.8281 56.9844 36.375
Q56.9844 17.9688 50.5156 8.26562
Q44.0469 -1.42188 31.7812 -1.42188
Q19.5312 -1.42188 13.0625 8.26562
Q6.59375 17.9688 6.59375 36.375
Q6.59375 54.8281 13.0625 64.5156
Q19.5312 74.2188 31.7812 74.2188" id="BitstreamVeraSans-Roman-30"/>
       <path d="
M12.4062 8.29688
L28.5156 8.29688
L28.5156 63.9219
L10.9844 60.4062
L10.9844 69.3906
L28.4219 72.9062
L38.2812 72.9062
L38.2812 8.29688
L54.3906 8.29688
L54.3906 0
L12.4062 0
z
" id="BitstreamVeraSans-Roman-31"/>
       <path d="
M40.5781 39.3125
Q47.6562 37.7969 51.625 33
Q55.6094 28.2188 55.6094 21.1875
Q55.6094 10.4062 48.1875 4.48438
Q40.7656 -1.42188 27.0938 -1.42188
Q22.5156 -1.42188 17.6562 -0.515625
Q12.7969 0.390625 7.625 2.20312
L7.625 11.7188
Q11.7188 9.32812 16.5938 8.10938
Q21.4844 6.89062 26.8125 6.89062
Q36.0781 6.89062 40.9375 10.5469
Q45.7969 14.2031 45.7969 21.1875
Q45.7969 27.6406 41.2812 31.2656
Q36.7656 34.9062 28.7188 34.9062
L20.2188 34.9062
L20.2188 43.0156
L29.1094 43.0156
Q36.375 43.0156 40.2344 45.9219
Q44.0938 48.8281 44.0938 54.2969
Q44.0938 59.9062 40.1094 62.9062
Q36.1406 65.9219 28.7188 65.9219
Q24.6562 65.9219 20.0156 65.0312
Q15.375 64.1562 9.8125 62.3125
L9.8125 71.0938
Q15.4375 72.6562 20.3438 73.4375
Q25.25 74.2188 29.5938 74.2188
Q40.8281 74.2188 47.3594 69.1094
Q53.9062 64.0156 53.9062 55.3281
Q53.9062 49.2656 50.4375 45.0938
Q46.9688 40.9219 40.5781 39.3125" id="BitstreamVeraSans-Roman-33"/>
       <path id="BitstreamVeraSans-Roman-20"/>
       <path d="
M10.7969 72.9062
L49.5156 72.9062
L49.5156 64.5938
L19.8281 64.5938
L19.8281 46.7344
Q21.9688 47.4688 24.1094 47.8281
Q26.2656 48.1875 28.4219 48.1875
Q40.625 48.1875 47.75 41.5
Q54.8906 34.8125 54.8906 23.3906
Q54.8906 11.625 47.5625 5.09375
Q40.2344 -1.42188 26.9062 -1.42188
Q22.3125 -1.42188 17.5469 -0.640625
Q12.7969 0.140625 7.71875 1.70312
L7.71875 11.625
Q12.1094 9.23438 16.7969 8.0625
Q21.4844 6.89062 26.7031 6.89062
Q35.1562 6.89062 40.0781 11.3281
Q45.0156 15.7656 45.0156 23.3906
Q45.0156 31 40.0781 35.4375
Q35.1562 39.8906 26.7031 39.8906
Q22.75 39.8906 18.8125 39.0156
Q14.8906 38.1406 10.7969 36.2812
z
" id="BitstreamVeraSans-Roman-35"/>
       <path d="
M18.3125 70.2188
L18.3125 54.6875
L36.8125 54.6875
L36.8125 47.7031
L18.3125 47.7031
L18.3125 18.0156
Q18.3125 11.3281 20.1406 9.42188
Q21.9688 7.51562 27.5938 7.51562
L36.8125 7.51562
L36.8125 0
L27.5938 0
Q17.1875 0 13.2344 3.875
Q9.28125 7.76562 9.28125 18.0156
L9.28125 47.7031
L2.6875 47.7031
L2.6875 54.6875
L9.28125 54.6875
L9.28125 70.2188
z
" id="BitstreamVeraSans-Roman-74"/>
       <path d="
M48.7812 52.5938
L48.7812 44.1875
Q44.9688 46.2969 41.1406 47.3438
Q37.3125 48.3906 33.4062 48.3906
Q24.6562 48.3906 19.8125 42.8438
Q14.9844 37.3125 14.9844 27.2969
Q14.9844 17.2812 19.8125 11.7344
Q24.6562 6.20312 33.4062 6.20312
Q37.3125 6.20312 41.1406 7.25
Q44.9688 8.29688 48.7812 10.4062
L48.7812 2.09375
Q45.0156 0.34375 40.9844 -0.53125
Q36.9688 -1.42188 32.4219 -1.42188
Q20.0625 -1.42188 12.7812 6.34375
Q5.51562 14.1094 5.51562 27.2969
Q5.51562 40.6719 12.8594 48.3281
Q20.2188 56 33.0156 56
Q37.1562 56 41.1094 55.1406
Q45.0625 54.2969 48.7812 52.5938" id="BitstreamVeraSans-Roman-63"/>
      </defs>
      <g transform="translate(53.5830149798 394.065590385)rotate(-30.0)scale(0.12 -0.12)">
       <use xlink:href="#BitstreamVeraSans-Roman-4f"/>
       <use x="78.7109375" xlink:href="#BitstreamVeraSans-Roman-63"/>
       <use x="133.69140625" xlink:href="#BitstreamVeraSans-Roman-74"/>
       <use x="172.900390625" xlink:href="#BitstreamVeraSans-Roman-20"/>
       <use x="204.6875" xlink:href="#BitstreamVeraSans-Roman-31"/>
       <use x="268.310546875" xlink:href="#BitstreamVeraSans-Roman-33"/>
       <use x="331.93359375" xlink:href="#BitstreamVeraSans-Roman-20"/>
       <use x="363.720703125" xlink:href="#BitstreamVeraSans-Roman-32"/>
       <use x="427.34375" xlink:href="#BitstreamVeraSans-Roman-30"/>
       <use x="490.966796875" xlink:href="#BitstreamVeraSans-Roman-31"/>
       <use x="554.58984375" xlink:href="#BitstreamVeraSans-Roman-35"/>
      </g>
     </g>
    </g>
    <g id="xtick_2">
     <g id="line2d_5">
      <g>
       <use style="stroke:#000000;stroke-width:0.5;" x="173.268816" xlink:href="#m93b0483c22" y="345.6"/>
      </g>
     </g>
     <g id="line2d_6">
      <g>
       <use style="stroke:#000000;stroke-width:0.5;" x="173.268816" xlink:href="#m741efc42ff" y="43.2"/>
      </g>
     </g>
     <g id="text_2">
      <!-- Oct 16 2015 -->
      <defs>
       <path d="
M33.0156 40.375
Q26.375 40.375 22.4844 35.8281
Q18.6094 31.2969 18.6094 23.3906
Q18.6094 15.5312 22.4844 10.9531
Q26.375 6.39062 33.0156 6.39062
Q39.6562 6.39062 43.5312 10.9531
Q47.4062 15.5312 47.4062 23.3906
Q47.4062 31.2969 43.5312 35.8281
Q39.6562 40.375 33.0156 40.375
M52.5938 71.2969
L52.5938 62.3125
Q48.875 64.0625 45.0938 64.9844
Q41.3125 65.9219 37.5938 65.9219
Q27.8281 65.9219 22.6719 59.3281
Q17.5312 52.7344 16.7969 39.4062
Q19.6719 43.6562 24.0156 45.9219
Q28.375 48.1875 33.5938 48.1875
Q44.5781 48.1875 50.9531 41.5156
Q57.3281 34.8594 57.3281 23.3906
Q57.3281 12.1562 50.6875 5.35938
Q44.0469 -1.42188 33.0156 -1.42188
Q20.3594 -1.42188 13.6719 8.26562
Q6.98438 17.9688 6.98438 36.375
Q6.98438 53.6562 15.1875 63.9375
Q23.3906 74.2188 37.2031 74.2188
Q40.9219 74.2188 44.7031 73.4844
Q48.4844 72.75 52.5938 71.2969" id="BitstreamVeraSans-Roman-36"/>
      </defs>
      <g transform="translate(108.681529265 394.065590385)rotate(-30.0)scale(0.12 -0.12)">
       <use xlink:href="#BitstreamVeraSans-Roman-4f"/>
       <use x="78.7109375" xlink:href="#BitstreamVeraSans-Roman-63"/>
       <use x="133.69140625" xlink:href="#BitstreamVeraSans-Roman-74"/>
       <use x="172.900390625" xlink:href="#BitstreamVeraSans-Roman-20"/>
       <use x="204.6875" xlink:href="#BitstreamVeraSans-Roman-31"/>
       <use x="268.310546875" xlink:href="#BitstreamVeraSans-Roman-36"/>
       <use x="331.93359375" xlink:href="#BitstreamVeraSans-Roman-20"/>
       <use x="363.720703125" xlink:href="#BitstreamVeraSans-Roman-32"/>
       <use x="427.34375" xlink:href="#BitstreamVeraSans-Roman-30"/>
       <use x="490.966796875" xlink:href="#BitstreamVeraSans-Roman-31"/>
       <use x="554.58984375" xlink:href="#BitstreamVeraSans-Roman-35"/>
      </g>
     </g>
    </g>
    <g id="xtick_3">
     <g id="line2d_7">
      <g>
       <use style="stroke:#000000;stroke-width:0.5;" x="228.367330285" xlink:href="#m93b0483c22" y="345.6"/>
      </g>
     </g>
     <g id="line2d_8">
      <g>
       <use style="stroke:#000000;stroke-width:0.5;" x="228.367330285" xlink:href="#m741efc42ff" y="43.2"/>
      </g>
     </g>
     <g id="text_3">
      <!-- Oct 19 2015 -->
      <defs>
       <path d="
M10.9844 1.51562
L10.9844 10.5
Q14.7031 8.73438 18.5 7.8125
Q22.3125 6.89062 25.9844 6.89062
Q35.75 6.89062 40.8906 13.4531
Q46.0469 20.0156 46.7812 33.4062
Q43.9531 29.2031 39.5938 26.9531
Q35.25 24.7031 29.9844 24.7031
Q19.0469 24.7031 12.6719 31.3125
Q6.29688 37.9375 6.29688 49.4219
Q6.29688 60.6406 12.9375 67.4219
Q19.5781 74.2188 30.6094 74.2188
Q43.2656 74.2188 49.9219 64.5156
Q56.5938 54.8281 56.5938 36.375
Q56.5938 19.1406 48.4062 8.85938
Q40.2344 -1.42188 26.4219 -1.42188
Q22.7031 -1.42188 18.8906 -0.6875
Q15.0938 0.046875 10.9844 1.51562
M30.6094 32.4219
Q37.25 32.4219 41.125 36.9531
Q45.0156 41.5 45.0156 49.4219
Q45.0156 57.2812 41.125 61.8438
Q37.25 66.4062 30.6094 66.4062
Q23.9688 66.4062 20.0938 61.8438
Q16.2188 57.2812 16.2188 49.4219
Q16.2188 41.5 20.0938 36.9531
Q23.9688 32.4219 30.6094 32.4219" id="BitstreamVeraSans-Roman-39"/>
      </defs>
      <g transform="translate(163.78004355 394.065590385)rotate(-30.0)scale(0.12 -0.12)">
       <use xlink:href="#BitstreamVeraSans-Roman-4f"/>
       <use x="78.7109375" xlink:href="#BitstreamVeraSans-Roman-63"/>
       <use x="133.69140625" xlink:href="#BitstreamVeraSans-Roman-74"/>
       <use x="172.900390625" xlink:href="#BitstreamVeraSans-Roman-20"/>
       <use x="204.6875" xlink:href="#BitstreamVeraSans-Roman-31"/>
       <use x="268.310546875" xlink:href="#BitstreamVeraSans-Roman-39"/>
       <use x="331.93359375" xlink:href="#BitstreamVeraSans-Roman-20"/>
       <use x="363.720703125" xlink:href="#BitstreamVeraSans-Roman-32"/>
       <use x="427.34375" xlink:href="#BitstreamVeraSans-Roman-30"/>
       <use x="490.966796875" xlink:href="#BitstreamVeraSans-Roman-31"/>
       <use x="554.58984375" xlink:href="#BitstreamVeraSans-Roman-35"/>
      </g>
     </g>
    </g>
    <g id="xtick_4">
     <g id="line2d_9">
      <g>
       <use style="stroke:#000000;stroke-width:0.5;" x="283.465844572" xlink:href="#m93b0483c22" y="345.6"/>
      </g>
     </g>
     <g id="line2d_10">
      <g>
       <use style="stroke:#000000;stroke-width:0.5;" x="283.465844572" xlink:href="#m741efc42ff" y="43.2"/>
      </g>
     </g>
     <g id="text_4">
      <!-- Oct 22 2015 -->
      <g transform="translate(218.878557836 394.065590385)rotate(-30.0)scale(0.12 -0.12)">
       <use xlink:href="#BitstreamVeraSans-Roman-4f"/>
       <use x="78.7109375" xlink:href="#BitstreamVeraSans-Roman-63"/>
       <use x="133.69140625" xlink:href="#BitstreamVeraSans-Roman-74"/>
       <use x="172.900390625" xlink:href="#BitstreamVeraSans-Roman-20"/>
       <use x="204.6875" xlink:href="#BitstreamVeraSans-Roman-32"/>
       <use x="268.310546875" xlink:href="#BitstreamVeraSans-Roman-32"/>
       <use x="331.93359375" xlink:href="#BitstreamVeraSans-Roman-20"/>
       <use x="363.720703125" xlink:href="#BitstreamVeraSans-Roman-32"/>
       <use x="427.34375" xlink:href="#BitstreamVeraSans-Roman-30"/>
       <use x="490.966796875" xlink:href="#BitstreamVeraSans-Roman-31"/>
       <use x="554.58984375" xlink:href="#BitstreamVeraSans-Roman-35"/>
      </g>
     </g>
    </g>
    <g id="xtick_5">
     <g id="line2d_11">
      <g>
       <use style="stroke:#000000;stroke-width:0.5;" x="338.564358857" xlink:href="#m93b0483c22" y="345.6"/>
      </g>
     </g>
     <g id="line2d_12">
      <g>
       <use style="stroke:#000000;stroke-width:0.5;" x="338.564358857" xlink:href="#m741efc42ff" y="43.2"/>
      </g>
     </g>
     <g id="text_5">
      <!-- Oct 25 2015 -->
      <g transform="translate(273.977072121 394.065590385)rotate(-30.0)scale(0.12 -0.12)">
       <use xlink:href="#BitstreamVeraSans-Roman-4f"/>
       <use x="78.7109375" xlink:href="#BitstreamVeraSans-Roman-63"/>
       <use x="133.69140625" xlink:href="#BitstreamVeraSans-Roman-74"/>
       <use x="172.900390625" xlink:href="#BitstreamVeraSans-Roman-20"/>
       <use x="204.6875" xlink:href="#BitstreamVeraSans-Roman-32"/>
       <use x="268.310546875" xlink:href="#BitstreamVeraSans-Roman-35"/>
       <use x="331.93359375" xlink:href="#BitstreamVeraSans-Roman-20"/>
       <use x="363.720703125" xlink:href="#BitstreamVeraSans-Roman-32"/>
       <use x="427.34375" xlink:href="#BitstreamVeraSans-Roman-30"/>
       <use x="490.966796875" xlink:href="#BitstreamVeraSans-Roman-31"/>
       <use x="554.58984375" xlink:href="#BitstreamVeraSans-Roman-35"/>
      </g>
     </g>
    </g>
    <g id="xtick_6">
     <g id="line2d_13">
      <g>
       <use style="stroke:#000000;stroke-width:0.5;" x="393.662873141" xlink:href="#m93b0483c22" y="345.6"/>
      </g>
     </g>
     <g id="line2d_14">
      <g>
       <use style="stroke:#000000;stroke-width:0.5;" x="393.662873141" xlink:href="#m741efc42ff" y="43.2"/>
      </g>
     </g>
     <g id="text_6">
      <!-- Oct 28 2015 -->
      <defs>
       <path d="
M31.7812 34.625
Q24.75 34.625 20.7188 30.8594
Q16.7031 27.0938 16.7031 20.5156
Q16.7031 13.9219 20.7188 10.1562
Q24.75 6.39062 31.7812 6.39062
Q38.8125 6.39062 42.8594 10.1719
Q46.9219 13.9688 46.9219 20.5156
Q46.9219 27.0938 42.8906 30.8594
Q38.875 34.625 31.7812 34.625
M21.9219 38.8125
Q15.5781 40.375 12.0312 44.7188
Q8.5 49.0781 8.5 55.3281
Q8.5 64.0625 14.7188 69.1406
Q20.9531 74.2188 31.7812 74.2188
Q42.6719 74.2188 48.875 69.1406
Q55.0781 64.0625 55.0781 55.3281
Q55.0781 49.0781 51.5312 44.7188
Q48 40.375 41.7031 38.8125
Q48.8281 37.1562 52.7969 32.3125
Q56.7812 27.4844 56.7812 20.5156
Q56.7812 9.90625 50.3125 4.23438
Q43.8438 -1.42188 31.7812 -1.42188
Q19.7344 -1.42188 13.25 4.23438
Q6.78125 9.90625 6.78125 20.5156
Q6.78125 27.4844 10.7812 32.3125
Q14.7969 37.1562 21.9219 38.8125
M18.3125 54.3906
Q18.3125 48.7344 21.8438 45.5625
Q25.3906 42.3906 31.7812 42.3906
Q38.1406 42.3906 41.7188 45.5625
Q45.3125 48.7344 45.3125 54.3906
Q45.3125 60.0625 41.7188 63.2344
Q38.1406 66.4062 31.7812 66.4062
Q25.3906 66.4062 21.8438 63.2344
Q18.3125 60.0625 18.3125 54.3906" id="BitstreamVeraSans-Roman-38"/>
      </defs>
      <g transform="translate(329.075586406 394.065590385)rotate(-30.0)scale(0.12 -0.12)">
       <use xlink:href="#BitstreamVeraSans-Roman-4f"/>
       <use x="78.7109375" xlink:href="#BitstreamVeraSans-Roman-63"/>
       <use x="133.69140625" xlink:href="#BitstreamVeraSans-Roman-74"/>
       <use x="172.900390625" xlink:href="#BitstreamVeraSans-Roman-20"/>
       <use x="204.6875" xlink:href="#BitstreamVeraSans-Roman-32"/>
       <use x="268.310546875" xlink:href="#BitstreamVeraSans-Roman-38"/>
       <use x="331.93359375" xlink:href="#BitstreamVeraSans-Roman-20"/>
       <use x="363.720703125" xlink:href="#BitstreamVeraSans-Roman-32"/>
       <use x="427.34375" xlink:href="#BitstreamVeraSans-Roman-30"/>
       <use x="490.966796875" xlink:href="#BitstreamVeraSans-Roman-31"/>
       <use x="554.58984375" xlink:href="#BitstreamVeraSans-Roman-35"/>
      </g>
     </g>
    </g>
    <g id="xtick_7">
     <g id="line2d_15">
      <g>
       <use style="stroke:#000000;stroke-width:0.5;" x="448.761387428" xlink:href="#m93b0483c22" y="345.6"/>
      </g>
     </g>
     <g id="line2d_16">
      <g>
       <use style="stroke:#000000;stroke-width:0.5;" x="448.761387428" xlink:href="#m741efc42ff" y="43.2"/>
      </g>
     </g>
     <g id="text_7">
      <!-- Oct 31 2015 -->
      <g transform="translate(384.174100693 394.065590385)rotate(-30.0)scale(0.12 -0.12)">
       <use xlink:href="#BitstreamVeraSans-Roman-4f"/>
       <use x="78.7109375" xlink:href="#BitstreamVeraSans-Roman-63"/>
       <use x="133.69140625" xlink:href="#BitstreamVeraSans-Roman-74"/>
       <use x="172.900390625" xlink:href="#BitstreamVeraSans-Roman-20"/>
       <use x="204.6875" xlink:href="#BitstreamVeraSans-Roman-33"/>
       <use x="268.310546875" xlink:href="#BitstreamVeraSans-Roman-31"/>
       <use x="331.93359375" xlink:href="#BitstreamVeraSans-Roman-20"/>
       <use x="363.720703125" xlink:href="#BitstreamVeraSans-Roman-32"/>
       <use x="427.34375" xlink:href="#BitstreamVeraSans-Roman-30"/>
       <use x="490.966796875" xlink:href="#BitstreamVeraSans-Roman-31"/>
       <use x="554.58984375" xlink:href="#BitstreamVeraSans-Roman-35"/>
      </g>
     </g>
    </g>
    <g id="xtick_8">
     <g id="line2d_17">
      <g>
       <use style="stroke:#000000;stroke-width:0.5;" x="503.859901713" xlink:href="#m93b0483c22" y="345.6"/>
      </g>
     </g>
     <g id="line2d_18">
      <g>
       <use style="stroke:#000000;stroke-width:0.5;" x="503.859901713" xlink:href="#m741efc42ff" y="43.2"/>
      </g>
     </g>
     <g id="text_8">
      <!-- Nov 03 2015 -->
      <defs>
       <path d="
M2.98438 54.6875
L12.5 54.6875
L29.5938 8.79688
L46.6875 54.6875
L56.2031 54.6875
L35.6875 0
L23.4844 0
z
" id="BitstreamVeraSans-Roman-76"/>
       <path d="
M9.8125 72.9062
L23.0938 72.9062
L55.4219 11.9219
L55.4219 72.9062
L64.9844 72.9062
L64.9844 0
L51.7031 0
L19.3906 60.9844
L19.3906 0
L9.8125 0
z
" id="BitstreamVeraSans-Roman-4e"/>
       <path d="
M30.6094 48.3906
Q23.3906 48.3906 19.1875 42.75
Q14.9844 37.1094 14.9844 27.2969
Q14.9844 17.4844 19.1562 11.8438
Q23.3438 6.20312 30.6094 6.20312
Q37.7969 6.20312 41.9844 11.8594
Q46.1875 17.5312 46.1875 27.2969
Q46.1875 37.0156 41.9844 42.7031
Q37.7969 48.3906 30.6094 48.3906
M30.6094 56
Q42.3281 56 49.0156 48.375
Q55.7188 40.7656 55.7188 27.2969
Q55.7188 13.875 49.0156 6.21875
Q42.3281 -1.42188 30.6094 -1.42188
Q18.8438 -1.42188 12.1719 6.21875
Q5.51562 13.875 5.51562 27.2969
Q5.51562 40.7656 12.1719 48.375
Q18.8438 56 30.6094 56" id="BitstreamVeraSans-Roman-6f"/>
      </defs>
      <g transform="translate(436.957079555 395.402465385)rotate(-30.0)scale(0.12 -0.12)">
       <use xlink:href="#BitstreamVeraSans-Roman-4e"/>
       <use x="74.8046875" xlink:href="#BitstreamVeraSans-Roman-6f"/>
       <use x="135.986328125" xlink:href="#BitstreamVeraSans-Roman-76"/>
       <use x="195.166015625" xlink:href="#BitstreamVeraSans-Roman-20"/>
       <use x="226.953125" xlink:href="#BitstreamVeraSans-Roman-30"/>
       <use x="290.576171875" xlink:href="#BitstreamVeraSans-Roman-33"/>
       <use x="354.19921875" xlink:href="#BitstreamVeraSans-Roman-20"/>
       <use x="385.986328125" xlink:href="#BitstreamVeraSans-Roman-32"/>
       <use x="449.609375" xlink:href="#BitstreamVeraSans-Roman-30"/>
       <use x="513.232421875" xlink:href="#BitstreamVeraSans-Roman-31"/>
       <use x="576.85546875" xlink:href="#BitstreamVeraSans-Roman-35"/>
      </g>
     </g>
    </g>
   </g>
   <g id="matplotlib.axis_2">
    <g id="ytick_1">
     <g id="line2d_19">
      <defs>
       <path d="
M0 0
L4 0" id="m728421d6d4" style="stroke:#000000;stroke-width:0.5;"/>
      </defs>
      <g>
       <use style="stroke:#000000;stroke-width:0.5;" x="72.0" xlink:href="#m728421d6d4" y="306.91236418"/>
      </g>
     </g>
     <g id="line2d_20">
      <defs>
       <path d="
M0 0
L-4 0" id="mcb0005524f" style="stroke:#000000;stroke-width:0.5;"/>
      </defs>
      <g>
       <use style="stroke:#000000;stroke-width:0.5;" x="518.4" xlink:href="#mcb0005524f" y="306.91236418"/>
      </g>
     </g>
     <g id="text_9">
      <!-- 0.6 -->
      <defs>
       <path d="
M10.6875 12.4062
L21 12.4062
L21 0
L10.6875 0
z
" id="BitstreamVeraSans-Roman-2e"/>
      </defs>
      <g transform="translate(50.463125 310.22361418)scale(0.12 -0.12)">
       <use xlink:href="#BitstreamVeraSans-Roman-30"/>
       <use x="63.623046875" xlink:href="#BitstreamVeraSans-Roman-2e"/>
       <use x="95.41015625" xlink:href="#BitstreamVeraSans-Roman-36"/>
      </g>
     </g>
    </g>
    <g id="ytick_2">
     <g id="line2d_21">
      <g>
       <use style="stroke:#000000;stroke-width:0.5;" x="72.0" xlink:href="#m728421d6d4" y="248.309616585"/>
      </g>
     </g>
     <g id="line2d_22">
      <g>
       <use style="stroke:#000000;stroke-width:0.5;" x="518.4" xlink:href="#mcb0005524f" y="248.309616585"/>
      </g>
     </g>
     <g id="text_10">
      <!-- 0.7 -->
      <defs>
       <path d="
M8.20312 72.9062
L55.0781 72.9062
L55.0781 68.7031
L28.6094 0
L18.3125 0
L43.2188 64.5938
L8.20312 64.5938
z
" id="BitstreamVeraSans-Roman-37"/>
      </defs>
      <g transform="translate(50.733125 251.620866585)scale(0.12 -0.12)">
       <use xlink:href="#BitstreamVeraSans-Roman-30"/>
       <use x="63.623046875" xlink:href="#BitstreamVeraSans-Roman-2e"/>
       <use x="95.41015625" xlink:href="#BitstreamVeraSans-Roman-37"/>
      </g>
     </g>
    </g>
    <g id="ytick_3">
     <g id="line2d_23">
      <g>
       <use style="stroke:#000000;stroke-width:0.5;" x="72.0" xlink:href="#m728421d6d4" y="189.706868989"/>
      </g>
     </g>
     <g id="line2d_24">
      <g>
       <use style="stroke:#000000;stroke-width:0.5;" x="518.4" xlink:href="#mcb0005524f" y="189.706868989"/>
      </g>
     </g>
     <g id="text_11">
      <!-- 0.8 -->
      <g transform="translate(50.52875 193.018118989)scale(0.12 -0.12)">
       <use xlink:href="#BitstreamVeraSans-Roman-30"/>
       <use x="63.623046875" xlink:href="#BitstreamVeraSans-Roman-2e"/>
       <use x="95.41015625" xlink:href="#BitstreamVeraSans-Roman-38"/>
      </g>
     </g>
    </g>
    <g id="ytick_4">
     <g id="line2d_25">
      <g>
       <use style="stroke:#000000;stroke-width:0.5;" x="72.0" xlink:href="#m728421d6d4" y="131.104121393"/>
      </g>
     </g>
     <g id="line2d_26">
      <g>
       <use style="stroke:#000000;stroke-width:0.5;" x="518.4" xlink:href="#mcb0005524f" y="131.104121393"/>
      </g>
     </g>
     <g id="text_12">
      <!-- 0.9 -->
      <g transform="translate(50.55125 134.415371393)scale(0.12 -0.12)">
       <use xlink:href="#BitstreamVeraSans-Roman-30"/>
       <use x="63.623046875" xlink:href="#BitstreamVeraSans-Roman-2e"/>
       <use x="95.41015625" xlink:href="#BitstreamVeraSans-Roman-39"/>
      </g>
     </g>
    </g>
    <g id="ytick_5">
     <g id="line2d_27">
      <g>
       <use style="stroke:#000000;stroke-width:0.5;" x="72.0" xlink:href="#m728421d6d4" y="72.5013737978"/>
      </g>
     </g>
     <g id="line2d_28">
      <g>
       <use style="stroke:#000000;stroke-width:0.5;" x="518.4" xlink:href="#mcb0005524f" y="72.5013737978"/>
      </g>
     </g>
     <g id="text_13">
      <!-- 1.0 -->
      <g transform="translate(51.03125 75.8126237978)scale(0.12 -0.12)">
       <use xlink:href="#BitstreamVeraSans-Roman-31"/>
       <use x="63.623046875" xlink:href="#BitstreamVeraSans-Roman-2e"/>
       <use x="95.41015625" xlink:href="#BitstreamVeraSans-Roman-30"/>
      </g>
     </g>
    </g>
    <g id="text_14">
     <!-- 1e8 -->
     <defs>
      <path d="
M56.2031 29.5938
L56.2031 25.2031
L14.8906 25.2031
Q15.4844 15.9219 20.4844 11.0625
Q25.4844 6.20312 34.4219 6.20312
Q39.5938 6.20312 44.4531 7.46875
Q49.3125 8.73438 54.1094 11.2812
L54.1094 2.78125
Q49.2656 0.734375 44.1875 -0.34375
Q39.1094 -1.42188 33.8906 -1.42188
Q20.7969 -1.42188 13.1562 6.1875
Q5.51562 13.8125 5.51562 26.8125
Q5.51562 40.2344 12.7656 48.1094
Q20.0156 56 32.3281 56
Q43.3594 56 49.7812 48.8906
Q56.2031 41.7969 56.2031 29.5938
M47.2188 32.2344
Q47.125 39.5938 43.0938 43.9844
Q39.0625 48.3906 32.4219 48.3906
Q24.9062 48.3906 20.3906 44.1406
Q15.875 39.8906 15.1875 32.1719
z
" id="BitstreamVeraSans-Roman-65"/>
     </defs>
     <g transform="translate(72.0 40.2)scale(0.12 -0.12)">
      <use xlink:href="#BitstreamVeraSans-Roman-31"/>
      <use x="63.623046875" xlink:href="#BitstreamVeraSans-Roman-65"/>
      <use x="125.146484375" xlink:href="#BitstreamVeraSans-Roman-38"/>
     </g>
    </g>
   </g>
   <g id="text_15">
    <!-- Scandrohne -->
    <defs>
     <path d="
M54.8906 33.0156
L54.8906 0
L45.9062 0
L45.9062 32.7188
Q45.9062 40.4844 42.875 44.3281
Q39.8438 48.1875 33.7969 48.1875
Q26.5156 48.1875 22.3125 43.5469
Q18.1094 38.9219 18.1094 30.9062
L18.1094 0
L9.07812 0
L9.07812 54.6875
L18.1094 54.6875
L18.1094 46.1875
Q21.3438 51.125 25.7031 53.5625
Q30.0781 56 35.7969 56
Q45.2188 56 50.0469 50.1719
Q54.8906 44.3438 54.8906 33.0156" id="BitstreamVeraSans-Roman-6e"/>
     <path d="
M41.1094 46.2969
Q39.5938 47.1719 37.8125 47.5781
Q36.0312 48 33.8906 48
Q26.2656 48 22.1875 43.0469
Q18.1094 38.0938 18.1094 28.8125
L18.1094 0
L9.07812 0
L9.07812 54.6875
L18.1094 54.6875
L18.1094 46.1875
Q20.9531 51.1719 25.4844 53.5781
Q30.0312 56 36.5312 56
Q37.4531 56 38.5781 55.875
Q39.7031 55.7656 41.0625 55.5156
z
" id="BitstreamVeraSans-Roman-72"/>
     <path d="
M53.5156 70.5156
L53.5156 60.8906
Q47.9062 63.5781 42.9219 64.8906
Q37.9375 66.2188 33.2969 66.2188
Q25.25 66.2188 20.875 63.0938
Q16.5 59.9688 16.5 54.2031
Q16.5 49.3594 19.4062 46.8906
Q22.3125 44.4375 30.4219 42.9219
L36.375 41.7031
Q47.4062 39.5938 52.6562 34.2969
Q57.9062 29 57.9062 20.125
Q57.9062 9.51562 50.7969 4.04688
Q43.7031 -1.42188 29.9844 -1.42188
Q24.8125 -1.42188 18.9688 -0.25
Q13.1406 0.921875 6.89062 3.21875
L6.89062 13.375
Q12.8906 10.0156 18.6562 8.29688
Q24.4219 6.59375 29.9844 6.59375
Q38.4219 6.59375 43.0156 9.90625
Q47.6094 13.2344 47.6094 19.3906
Q47.6094 24.75 44.3125 27.7812
Q41.0156 30.8125 33.5 32.3281
L27.4844 33.5
Q16.4531 35.6875 11.5156 40.375
Q6.59375 45.0625 6.59375 53.4219
Q6.59375 63.0938 13.4062 68.6562
Q20.2188 74.2188 32.1719 74.2188
Q37.3125 74.2188 42.625 73.2812
Q47.9531 72.3594 53.5156 70.5156" id="BitstreamVeraSans-Roman-53"/>
     <path d="
M54.8906 33.0156
L54.8906 0
L45.9062 0
L45.9062 32.7188
Q45.9062 40.4844 42.875 44.3281
Q39.8438 48.1875 33.7969 48.1875
Q26.5156 48.1875 22.3125 43.5469
Q18.1094 38.9219 18.1094 30.9062
L18.1094 0
L9.07812 0
L9.07812 75.9844
L18.1094 75.9844
L18.1094 46.1875
Q21.3438 51.125 25.7031 53.5625
Q30.0781 56 35.7969 56
Q45.2188 56 50.0469 50.1719
Q54.8906 44.3438 54.8906 33.0156" id="BitstreamVeraSans-Roman-68"/>
     <path d="
M45.4062 46.3906
L45.4062 75.9844
L54.3906 75.9844
L54.3906 0
L45.4062 0
L45.4062 8.20312
Q42.5781 3.32812 38.25 0.953125
Q33.9375 -1.42188 27.875 -1.42188
Q17.9688 -1.42188 11.7344 6.48438
Q5.51562 14.4062 5.51562 27.2969
Q5.51562 40.1875 11.7344 48.0938
Q17.9688 56 27.875 56
Q33.9375 56 38.25 53.625
Q42.5781 51.2656 45.4062 46.3906
M14.7969 27.2969
Q14.7969 17.3906 18.875 11.75
Q22.9531 6.10938 30.0781 6.10938
Q37.2031 6.10938 41.2969 11.75
Q45.4062 17.3906 45.4062 27.2969
Q45.4062 37.2031 41.2969 42.8438
Q37.2031 48.4844 30.0781 48.4844
Q22.9531 48.4844 18.875 42.8438
Q14.7969 37.2031 14.7969 27.2969" id="BitstreamVeraSans-Roman-64"/>
     <path d="
M34.2812 27.4844
Q23.3906 27.4844 19.1875 25
Q14.9844 22.5156 14.9844 16.5
Q14.9844 11.7188 18.1406 8.90625
Q21.2969 6.10938 26.7031 6.10938
Q34.1875 6.10938 38.7031 11.4062
Q43.2188 16.7031 43.2188 25.4844
L43.2188 27.4844
z

M52.2031 31.2031
L52.2031 0
L43.2188 0
L43.2188 8.29688
Q40.1406 3.32812 35.5469 0.953125
Q30.9531 -1.42188 24.3125 -1.42188
Q15.9219 -1.42188 10.9531 3.29688
Q6 8.01562 6 15.9219
Q6 25.1406 12.1719 29.8281
Q18.3594 34.5156 30.6094 34.5156
L43.2188 34.5156
L43.2188 35.4062
Q43.2188 41.6094 39.1406 45
Q35.0625 48.3906 27.6875 48.3906
Q23 48.3906 18.5469 47.2656
Q14.1094 46.1406 10.0156 43.8906
L10.0156 52.2031
Q14.9375 54.1094 19.5781 55.0469
Q24.2188 56 28.6094 56
Q40.4844 56 46.3438 49.8438
Q52.2031 43.7031 52.2031 31.2031" id="BitstreamVeraSans-Roman-61"/>
    </defs>
    <g transform="translate(434.44575 38.2)scale(0.144 -0.144)">
     <use xlink:href="#BitstreamVeraSans-Roman-53"/>
     <use x="63.4765625" xlink:href="#BitstreamVeraSans-Roman-63"/>
     <use x="118.45703125" xlink:href="#BitstreamVeraSans-Roman-61"/>
     <use x="179.736328125" xlink:href="#BitstreamVeraSans-Roman-6e"/>
     <use x="243.115234375" xlink:href="#BitstreamVeraSans-Roman-64"/>
     <use x="306.591796875" xlink:href="#BitstreamVeraSans-Roman-72"/>
     <use x="345.455078125" xlink:href="#BitstreamVeraSans-Roman-6f"/>
     <use x="406.63671875" xlink:href="#BitstreamVeraSans-Roman-68"/>
     <use x="470.015625" xlink:href="#BitstreamVeraSans-Roman-6e"/>
     <use x="533.39453125" xlink:href="#BitstreamVeraSans-Roman-65"/>
    </g>
   </g>
   <g id="legend_1">
    <g id="patch_7">
     <path d="
M123.942 423.616
L466.458 423.616
L466.458 398.16
L123.942 398.16
z
" style="fill:#ffffff;stroke:#000000;stroke-linejoin:miter;"/>
    </g>
    <g id="line2d_29">
     <path d="
M134.022 409.822
L154.182 409.822" style="fill:none;stroke:#ff0000;stroke-linecap:square;"/>
    </g>
    <g id="line2d_30"/>
    <g id="text_16">
     <!-- Schwarzmarktpreis -->
     <defs>
      <path d="
M52 44.1875
Q55.375 50.25 60.0625 53.125
Q64.75 56 71.0938 56
Q79.6406 56 84.2812 50.0156
Q88.9219 44.0469 88.9219 33.0156
L88.9219 0
L79.8906 0
L79.8906 32.7188
Q79.8906 40.5781 77.0938 44.375
Q74.3125 48.1875 68.6094 48.1875
Q61.625 48.1875 57.5625 43.5469
Q53.5156 38.9219 53.5156 30.9062
L53.5156 0
L44.4844 0
L44.4844 32.7188
Q44.4844 40.625 41.7031 44.4062
Q38.9219 48.1875 33.1094 48.1875
Q26.2188 48.1875 22.1562 43.5312
Q18.1094 38.875 18.1094 30.9062
L18.1094 0
L9.07812 0
L9.07812 54.6875
L18.1094 54.6875
L18.1094 46.1875
Q21.1875 51.2188 25.4844 53.6094
Q29.7812 56 35.6875 56
Q41.6562 56 45.8281 52.9688
Q50 49.9531 52 44.1875" id="BitstreamVeraSans-Roman-6d"/>
      <path d="
M9.07812 75.9844
L18.1094 75.9844
L18.1094 31.1094
L44.9219 54.6875
L56.3906 54.6875
L27.3906 29.1094
L57.625 0
L45.9062 0
L18.1094 26.7031
L18.1094 0
L9.07812 0
z
" id="BitstreamVeraSans-Roman-6b"/>
      <path d="
M9.42188 54.6875
L18.4062 54.6875
L18.4062 0
L9.42188 0
z

M9.42188 75.9844
L18.4062 75.9844
L18.4062 64.5938
L9.42188 64.5938
z
" id="BitstreamVeraSans-Roman-69"/>
      <path d="
M4.20312 54.6875
L13.1875 54.6875
L24.4219 12.0156
L35.5938 54.6875
L46.1875 54.6875
L57.4219 12.0156
L68.6094 54.6875
L77.5938 54.6875
L63.2812 0
L52.6875 0
L40.9219 44.8281
L29.1094 0
L18.5 0
z
" id="BitstreamVeraSans-Roman-77"/>
      <path d="
M5.51562 54.6875
L48.1875 54.6875
L48.1875 46.4844
L14.4062 7.17188
L48.1875 7.17188
L48.1875 0
L4.29688 0
L4.29688 8.20312
L38.0938 47.5156
L5.51562 47.5156
z
" id="BitstreamVeraSans-Roman-7a"/>
      <path d="
M44.2812 53.0781
L44.2812 44.5781
Q40.4844 46.5312 36.375 47.5
Q32.2812 48.4844 27.875 48.4844
Q21.1875 48.4844 17.8438 46.4375
Q14.5 44.3906 14.5 40.2812
Q14.5 37.1562 16.8906 35.375
Q19.2812 33.5938 26.5156 31.9844
L29.5938 31.2969
Q39.1562 29.25 43.1875 25.5156
Q47.2188 21.7812 47.2188 15.0938
Q47.2188 7.46875 41.1875 3.01562
Q35.1562 -1.42188 24.6094 -1.42188
Q20.2188 -1.42188 15.4531 -0.5625
Q10.6875 0.296875 5.42188 2
L5.42188 11.2812
Q10.4062 8.6875 15.2344 7.39062
Q20.0625 6.10938 24.8125 6.10938
Q31.1562 6.10938 34.5625 8.28125
Q37.9844 10.4531 37.9844 14.4062
Q37.9844 18.0625 35.5156 20.0156
Q33.0625 21.9688 24.7031 23.7812
L21.5781 24.5156
Q13.2344 26.2656 9.51562 29.9062
Q5.8125 33.5469 5.8125 39.8906
Q5.8125 47.6094 11.2812 51.7969
Q16.75 56 26.8125 56
Q31.7812 56 36.1719 55.2656
Q40.5781 54.5469 44.2812 53.0781" id="BitstreamVeraSans-Roman-73"/>
      <path d="
M18.1094 8.20312
L18.1094 -20.7969
L9.07812 -20.7969
L9.07812 54.6875
L18.1094 54.6875
L18.1094 46.3906
Q20.9531 51.2656 25.2656 53.625
Q29.5938 56 35.5938 56
Q45.5625 56 51.7812 48.0938
Q58.0156 40.1875 58.0156 27.2969
Q58.0156 14.4062 51.7812 6.48438
Q45.5625 -1.42188 35.5938 -1.42188
Q29.5938 -1.42188 25.2656 0.953125
Q20.9531 3.32812 18.1094 8.20312
M48.6875 27.2969
Q48.6875 37.2031 44.6094 42.8438
Q40.5312 48.4844 33.4062 48.4844
Q26.2656 48.4844 22.1875 42.8438
Q18.1094 37.2031 18.1094 27.2969
Q18.1094 17.3906 22.1875 11.75
Q26.2656 6.10938 33.4062 6.10938
Q40.5312 6.10938 44.6094 11.75
Q48.6875 17.3906 48.6875 27.2969" id="BitstreamVeraSans-Roman-70"/>
     </defs>
     <g transform="translate(170.022375 414.86175)scale(0.144 -0.144)">
      <use xlink:href="#BitstreamVeraSans-Roman-53"/>
      <use x="63.4765625" xlink:href="#BitstreamVeraSans-Roman-63"/>
      <use x="118.45703125" xlink:href="#BitstreamVeraSans-Roman-68"/>
      <use x="181.8359375" xlink:href="#BitstreamVeraSans-Roman-77"/>
      <use x="263.623046875" xlink:href="#BitstreamVeraSans-Roman-61"/>
      <use x="324.90234375" xlink:href="#BitstreamVeraSans-Roman-72"/>
      <use x="366.015625" xlink:href="#BitstreamVeraSans-Roman-7a"/>
      <use x="418.505859375" xlink:href="#BitstreamVeraSans-Roman-6d"/>
      <use x="515.91796875" xlink:href="#BitstreamVeraSans-Roman-61"/>
      <use x="577.197265625" xlink:href="#BitstreamVeraSans-Roman-72"/>
      <use x="618.310546875" xlink:href="#BitstreamVeraSans-Roman-6b"/>
      <use x="676.220703125" xlink:href="#BitstreamVeraSans-Roman-74"/>
      <use x="715.4296875" xlink:href="#BitstreamVeraSans-Roman-70"/>
      <use x="778.90625" xlink:href="#BitstreamVeraSans-Roman-72"/>
      <use x="817.76953125" xlink:href="#BitstreamVeraSans-Roman-65"/>
      <use x="879.29296875" xlink:href="#BitstreamVeraSans-Roman-69"/>
      <use x="907.076171875" xlink:href="#BitstreamVeraSans-Roman-73"/>
     </g>
    </g>
    <g id="line2d_31">
     <path d="
M339.609 409.822
L359.769 409.822" style="fill:none;stroke:#008000;stroke-linecap:square;"/>
    </g>
    <g id="line2d_32"/>
    <g id="text_17">
     <!-- Normalpreis -->
     <defs>
      <path d="
M9.42188 75.9844
L18.4062 75.9844
L18.4062 0
L9.42188 0
z
" id="BitstreamVeraSans-Roman-6c"/>
     </defs>
     <g transform="translate(375.609375 414.86175)scale(0.144 -0.144)">
      <use xlink:href="#BitstreamVeraSans-Roman-4e"/>
      <use x="74.8046875" xlink:href="#BitstreamVeraSans-Roman-6f"/>
      <use x="135.986328125" xlink:href="#BitstreamVeraSans-Roman-72"/>
      <use x="175.349609375" xlink:href="#BitstreamVeraSans-Roman-6d"/>
      <use x="272.76171875" xlink:href="#BitstreamVeraSans-Roman-61"/>
      <use x="334.041015625" xlink:href="#BitstreamVeraSans-Roman-6c"/>
      <use x="361.82421875" xlink:href="#BitstreamVeraSans-Roman-70"/>
      <use x="425.30078125" xlink:href="#BitstreamVeraSans-Roman-72"/>
      <use x="464.1640625" xlink:href="#BitstreamVeraSans-Roman-65"/>
      <use x="525.6875" xlink:href="#BitstreamVeraSans-Roman-69"/>
      <use x="553.470703125" xlink:href="#BitstreamVeraSans-Roman-73"/>
     </g>
    </g>
   </g>
  </g>
 </g>
 <defs>
  <clipPath id="pcb2bf987bf">
   <rect height="302.4" width="446.4" x="72.0" y="43.2"/>
  </clipPath>
 </defs>
</svg>
