<?xml version="1.0" encoding="utf-8" standalone="no"?>
<!DOCTYPE svg PUBLIC "-//W3C//DTD SVG 1.1//EN"
  "http://www.w3.org/Graphics/SVG/1.1/DTD/svg11.dtd">
<!-- Created with matplotlib (http://matplotlib.org/) -->
<svg height="432pt" version="1.1" viewBox="0 0 576 432" width="576pt" xmlns="http://www.w3.org/2000/svg" xmlns:xlink="http://www.w3.org/1999/xlink">
 <defs>
  <style type="text/css">
*{stroke-linecap:butt;stroke-linejoin:round;}
  </style>
 </defs>
 <g id="figure_1">
  <g id="patch_1">
   <path d="
M0 432
L576 432
L576 0
L0 0
z
" style="fill:#ffffff;"/>
  </g>
  <g id="axes_1">
   <g id="patch_2">
    <path d="
M72 345.6
L518.4 345.6
L518.4 43.2
L72 43.2
z
" style="fill:#ffffff;"/>
   </g>
   <g id="line2d_1">
    <path clip-path="url(#pcb2bf987bf)" d="
M72 229.894
L72.2551 230.518
L72.3826 229.922
L72.6377 229.324
L73.1479 229.293
L73.403 229.457
L73.7856 227.709
L73.9131 224.901
L74.1682 229.878
L74.2958 226.141
L74.5509 226.016
L74.6784 227.725
L74.9335 227.444
L75.061 226.219
L75.3161 225.384
L75.4437 224.135
L75.6987 224.898
L75.8263 224.9
L76.0814 225.368
L76.2089 224.12
L76.464 226.834
L76.5915 226.834
L76.8466 225.594
L76.9742 229.278
L77.2295 226.804
L77.6119 229.769
L77.9947 231.116
L78.1221 230.948
L78.3771 229.925
L78.3771 229.925
L78.5047 231.113
L78.7598 229.324
L78.8873 227.452
L79.1426 228.06
L79.2699 225.282
L79.525 227.452
L79.6526 227.452
L80.0352 231.111
L80.4178 228.271
L80.6729 229.457
L80.8005 230.673
L81.0555 228.87
L81.1831 228.87
L81.4384 228.716
L81.5657 228.87
L81.8208 227.959
L81.9483 226.695
L82.2036 228.271
L82.331 228.263
L82.5863 227.655
L82.7136 228.263
L83.0962 228.263
L83.3513 228.87
L83.4789 226.429
L83.8615 223.316
L84.1166 228.87
L84.2441 228.263
L84.4992 230.901
L84.882 229.8
L85.2647 229.582
L85.392 230.386
L85.6473 230.976
L86.0297 227.974
L86.4123 227.974
L86.5399 228.583
L86.795 227.974
L86.9225 228.583
L87.1776 227.974
L87.3051 230.963
L87.5602 230.37
L87.6878 229.777
L87.9429 227.413
L88.0704 227.413
L88.3255 229.574
L88.453 228.575
L88.7081 228.513
L88.8357 230.955
L89.0907 228.021
L89.0907 228.021
L89.2183 229.176
L89.4734 227.967
L89.6009 225.493
L89.856 230.829
L89.9835 230.23
L90.2386 230.706
L90.2386 230.706
L90.4937 229.036
L90.6213 229.637
L91.259 230.362
L92.0242 230.968
L92.1518 230.237
L92.7895 229.715
L92.917 227.296
L93.5547 229.448
L94.32 221.139
L94.4475 229.448
L95.0853 230.955
L95.2128 229.777
L95.8505 229.582
L96.6158 226
L97.381 227.661
L98.1463 227.054
L98.2738 228.958
L98.9115 226.461
L99.0391 229.738
L99.6768 229.736
L100.442 229.582
L100.57 228.981
L101.207 229.58
L102.1 229.582
L102.738 228.38
L103.631 229.58
L104.268 225.298
L105.034 228.981
L105.799 227.413
L106.564 229.409
L107.33 225.571
L108.095 223.698
L108.222 223.066
L108.86 228.021
L109.753 228.98
L110.518 228.379
L111.156 228.825
L111.283 228.38
L111.921 225.313
L112.048 226.546
L114.217 229.407
L115.109 229.395
L116.512 226.468
L116.64 227.085
L118.043 228.497
L118.171 227.889
L118.936 227.576
L119.573 228.021
L120.339 228.021
L121.869 223.971
L122.635 225.841
L122.762 229.395
L123.4 229.407
L124.293 228.825
L124.93 228.021
L125.696 229.707
L127.991 229.738
L128.884 229.738
L129.522 229.582
L130.287 227.553
L130.415 229.738
L131.052 229.348
L131.818 229.738
L132.583 228.02
L132.583 228.02
L134.113 227.756
L134.369 228.333
L134.879 228.369
L135.644 226.515
L136.409 228.177
L136.537 227.552
L137.174 226.859
L137.94 229.262
L138.705 229.161
L139.598 230.359
L140.235 230.362
L141.001 230.674
L141.766 231.751
L141.893 230.565
L142.531 226.648
L143.296 230.55
L144.062 229.309
L144.189 228.099
L144.827 231.728
L145.592 228.755
L145.72 227.537
L146.357 224.4
L146.485 224.9
L147.123 230.55
L147.25 229.293
L147.888 231.141
L148.653 230.55
L149.419 230.55
L149.546 229.955
L150.184 229.946
L150.949 221.779
L151.077 230.503
L151.714 229.699
L152.48 227.85
L153.245 225.61
L153.372 230.55
L154.01 230.534
L154.775 227.522
L155.541 228.692
L155.541 228.692
L156.306 228.02
L157.071 228.724
L157.837 228.739
L157.964 229.936
L158.602 229.332
L159.367 229.936
L160.897 227.155
L161.025 228.084
L162.428 227.959
L163.193 230.531
L163.321 229.34
L163.958 228.084
L164.086 226.865
L164.724 229.886
L164.851 228.683
L165.489 226.859
L166.254 227.94
L167.019 227.428
L167.785 226.156
L167.912 223.339
L168.55 223.011
L169.443 228.685
L170.08 227.748
L170.973 227.764
L171.611 229.885
L172.376 226.312
L173.141 228.817
L173.269 228.068
L173.907 227.428
L174.8 228.029
L176.203 224.9
L176.968 229.27
L177.733 225.243
L178.498 229.278
L179.264 227.147
L180.029 226.804
L180.156 228.052
L180.794 228.388
L180.922 229.571
L181.559 226.484
L182.325 228.021
L182.452 228.021
L183.09 229.106
L183.855 227.413
L183.983 229.462
L185.386 228.263
L186.151 226.367
L188.447 226.102
L189.212 227.022
L189.339 227.826
L190.742 224.728
L191.508 227.811
L191.508 227.811
L193.038 227.085
L193.803 224.9
L194.569 225.329
L195.334 225.329
L195.461 224.081
L196.099 227.82
L196.864 227.194
L198.395 227.241
L198.395 227.241
L199.16 226.89
L200.691 218.907
L201.456 226.266
L202.221 227.475
L202.987 227.498
L203.752 226.89
L204.517 227.647
L205.282 224.9
L205.41 228.02
L206.048 226.796
L206.175 225.563
L206.303 226.788
L206.685 226.788
L206.813 223.683
L206.813 223.683
L206.94 225.555
L207.578 227.085
L208.088 226.801
L208.343 226.187
L208.981 224.947
L209.746 224.937
L210.001 224.165
L210.767 225.415
L211.022 226.773
L212.042 224.229
L212.297 224.229
L212.425 222.972
L212.807 224.916
L213.062 222.403
L213.445 226.305
L213.573 224.44
L213.828 224.767
L213.828 224.767
L213.955 224.276
L214.338 227.241
L214.593 226.632
L214.72 227.085
L215.103 224.603
L215.358 223.971
L215.358 223.971
L215.486 222.083
L215.741 225.992
L215.868 226
L216.123 227.085
L216.123 227.085
L216.251 226.632
L216.634 226.617
L216.761 226.461
L216.761 226.461
L217.016 226.606
L217.271 226.453
L217.399 227.065
L217.654 227.241
L217.654 227.241
L217.781 226.016
L218.037 225.992
L218.164 225.392
L218.419 226.624
L218.419 226.624
L218.547 226.008
L218.802 227.233
L218.929 226
L219.184 227.228
L219.312 227.228
L219.567 223.651
L220.077 227.232
L220.332 226.617
L220.46 226.606
L220.46 226.606
L220.715 224.9
L220.843 227.232
L220.843 227.232
L221.098 226.617
L221.225 225.384
L221.48 224.758
L221.608 224.135
L221.863 224.758
L222.245 226.617
L222.373 224.12
L222.628 227.083
L222.756 226.609
L223.011 226.632
L223.011 226.632
L223.393 226.016
L223.521 225.399
L223.776 227.241
L223.904 226.788
L224.286 223.527
L224.669 227.94
L225.051 228.332
L225.307 226.461
L225.434 227.647
L225.944 223.308
L225.944 223.308
L226.072 228.251
L226.072 228.251
L226.199 228.254
L226.199 228.254
L226.455 225.804
L226.582 225.804
L226.582 225.804
L226.837 227.491
L226.965 223.651
L227.22 223.019
L227.347 226.879
L227.602 227.645
L227.602 227.645
L227.985 225.805
L228.112 225.797
L228.368 223.3
L228.495 224.557
L228.75 228.193
L228.878 227.584
L229.133 226.976
L229.26 228.177
L229.515 228.171
L229.643 226.952
L230.026 227.6
L230.281 226.991
L230.408 227.6
L230.663 228.021
L230.663 228.021
L231.046 227.857
L231.173 225.407
L231.429 227.335
L231.429 227.335
L231.811 227.6
L231.939 228.209
L232.194 226.383
L232.321 226.991
L232.576 227.608
L232.704 226.383
L232.959 228.193
L232.959 228.193
L233.342 228.179
L233.469 227.567
L233.724 227.567
L233.852 228.176
L234.107 228.174
L234.872 224.486
L235 225.111
L235.255 227.569
L235.255 227.569
L235.383 226.344
L235.637 226.344
L235.765 227.569
L236.02 225.062
L236.02 225.062
L236.148 221.779
L236.403 223.391
L236.53 222.598
L236.785 219.125
L236.913 223.815
L237.168 223.815
L237.296 224.276
L237.551 224.276
L237.678 224.901
L237.933 224.135
L238.061 224.135
L238.316 224.759
L238.443 222.707
L238.699 224.12
L239.081 222.387
L239.591 227.553
L239.846 225.571
L239.974 225.571
L240.229 226.187
L240.612 228.159
L240.612 228.159
L240.739 226.328
L241.122 228.099
L241.377 228.159
L241.504 226.944
L241.76 226.328
L241.887 226.944
L242.142 225.095
L242.27 227.553
L242.653 227.397
L242.907 227.413
L243.035 226.187
L243.29 228.02
L243.418 226.617
L243.673 225.384
L243.8 223.651
L244.055 226.937
L244.183 225.54
L244.438 227.545
L244.821 225.727
L244.948 224.166
L245.203 226.498
L245.203 226.498
L245.331 226.498
L245.586 228.489
L245.713 220.951
L246.096 227.881
L246.479 227.762
L246.734 227.155
L246.734 227.155
L246.861 226.539
L247.499 224.611
L247.882 226.476
L248.009 226.476
L248.392 225.86
L248.647 225.228
L248.774 226.461
L249.03 225.86
L249.03 225.86
L249.157 225.86
L249.412 227.764
L249.795 227.413
L249.795 227.413
L249.922 226.804
L250.177 227.413
L250.305 227.411
L250.56 228.369
L250.943 227.413
L251.07 227.444
L251.325 226.219
L251.453 224.354
L251.708 226.219
L251.835 225.602
L252.091 217.253
L252.218 224.12
L252.601 221.583
L252.856 222.862
L252.983 221.583
L253.238 222.862
L253.366 222.223
L253.621 226.748
L253.749 226.133
L254.004 226.832
L254.386 223.035
L254.514 227.444
L254.769 225.321
L254.896 221.779
L254.896 221.779
L255.279 227.553
L255.279 227.553
L255.662 223.519
L255.662 223.519
L255.917 225.228
L255.917 225.228
L256.044 225.228
L256.427 223.441
L256.682 224.603
L256.81 224.603
L256.81 224.603
L257.065 226
L257.192 224.759
L257.447 226
L257.575 224.135
L257.83 224.12
L257.957 222.091
L258.213 221.779
L258.213 221.779
L258.595 222.231
L258.723 222.863
L258.85 225.991
L258.978 225.064
L259.105 225.68
L259.488 222.075
L259.871 224.9
L260.126 225.064
L260.253 226
L260.508 226.623
L260.636 226.623
L260.891 222.863
L261.019 222.863
L261.274 220.998
L261.401 220.998
L261.656 220.351
L261.784 225.843
L262.039 225.228
L262.166 222.715
L262.421 225.516
L262.549 225.516
L262.804 227.364
L262.932 227.363
L263.187 221.1
L263.314 226.07
L263.569 225.516
L263.569 225.516
L263.952 225.516
L264.08 226.131
L264.335 226.131
L264.335 226.131
L264.845 223.495
L265.1 226.726
L265.1 226.726
L265.227 226.632
L265.738 223.314
L265.993 224.572
L266.248 225.193
L266.375 223.316
L266.758 223.316
L267.013 222.684
L267.141 225.193
L267.396 227.335
L267.523 227.364
L267.778 226.133
L267.906 226.141
L268.161 225.524
L268.288 224.276
L268.544 227.358
L268.926 227.364
L269.054 226.771
L269.437 227.366
L269.691 226.937
L269.819 227.257
L270.074 226.617
L270.457 221.107
L270.584 226.632
L270.967 226.635
L271.222 220.304
L271.605 224.742
L271.987 224.775
L272.115 226.016
L272.37 222.894
L272.497 222.893
L272.752 219.687
L272.88 219.687
L273.135 220.335
L273.263 224.774
L273.518 225.399
L273.518 225.399
L273.645 225.368
L273.9 224.744
L274.028 224.742
L274.283 222.862
L274.411 224.12
L274.666 224.728
L274.793 224.744
L275.048 224.118
L275.048 224.118
L275.176 222.855
L275.431 224.118
L275.813 224.898
L276.196 223.019
L276.324 224.898
L276.579 223.48
L276.706 221.568
L276.961 224.12
L277.854 224.118
L278.109 222.223
L278.109 222.223
L278.237 224.115
L278.492 218.002
L278.619 219.968
L278.875 221.271
L279.257 224.775
L279.385 224.744
L279.767 219.656
L280.15 224.744
L280.405 223.495
L280.405 223.495
L280.533 225.367
L280.788 224.744
L280.915 224.135
L281.17 224.759
L281.17 224.759
L281.298 224.759
L281.553 225.381
L281.936 225.367
L282.318 223.324
L282.446 216.16
L282.701 224.9
L283.083 221.896
L283.211 225.379
L283.466 219.203
L283.594 222.559
L283.849 224.978
L283.976 219.453
L284.231 225.373
L284.359 225.37
L284.614 224.752
L284.741 224.752
L284.869 225.374
L285.379 225.374
L285.507 224.9
L285.762 224.759
L285.889 224.9
L286.144 224.898
L286.272 223.651
L286.527 225.368
L286.655 223.964
L286.91 225.381
L287.037 225.381
L287.42 223.495
L287.675 225.357
L287.803 225.353
L288.058 223.807
L288.185 224.432
L288.44 224.268
L288.568 223.792
L288.823 224.276
L288.95 225.351
L289.205 224.627
L289.333 224.728
L289.588 224.728
L289.716 225.351
L289.971 224.276
L290.098 224.9
L290.481 224.588
L290.736 223.027
L290.864 225.351
L291.246 224.266
L291.884 218.923
L292.267 219.851
L292.394 223.636
L292.649 224.266
L292.649 224.266
L292.777 222.372
L293.032 225.368
L293.159 224.744
L293.414 220.811
L293.414 220.811
L293.542 223.495
L293.797 225.367
L293.797 225.367
L293.925 225.363
L294.18 224.744
L294.18 224.744
L294.307 225.367
L294.562 223.495
L294.69 220.95
L294.945 224.744
L294.945 224.744
L295.072 224.744
L295.328 225.365
L295.455 224.744
L295.71 225.367
L295.838 225.365
L296.093 224.12
L296.858 225.274
L296.986 224.65
L297.241 224.276
L297.368 224.9
L297.623 225.365
L297.751 224.588
L298.006 219.836
L298.133 220.483
L298.516 224.588
L298.899 224.274
L299.281 225.367
L299.536 223.964
L299.664 223.948
L300.047 225.363
L300.302 217.69
L300.302 217.69
L300.429 218.345
L300.684 224.736
L301.067 222.846
L301.195 224.733
L301.45 219.679
L301.832 224.588
L301.96 223.885
L302.215 222.621
L302.342 223.558
L302.597 224.588
L302.597 224.588
L303.235 224.588
L303.49 225.212
L305.021 225.181
L305.403 224.9
L305.786 225.212
L306.169 225.274
L306.424 225.362
L306.551 224.744
L306.806 225.367
L306.934 225.365
L307.189 224.733
L307.189 224.733
L307.317 224.736
L307.572 225.359
L307.699 224.034
L307.954 224.032
L308.464 219.016
L308.72 219.016
L308.72 219.016
L309.102 223.331
L309.23 222.059
L309.485 222.692
L309.612 222.559
L309.995 222.696
L310.25 221.42
L310.25 221.42
L310.378 221.42
L310.76 218.727
L311.398 223.962
L311.525 223.964
L311.781 224.588
L311.908 223.019
L312.163 223.175
L312.291 223.495
L312.546 223.168
L312.673 221.919
L312.928 223.011
L313.056 222.372
L313.311 223.175
L313.439 222.528
L313.821 223.962
L314.076 223.011
L314.204 219.523
L314.459 223.964
L314.587 222.699
L314.842 224.713
L314.969 224.088
L315.224 224.102
L315.352 223.456
L315.607 220.936
L315.734 223.409
L315.989 221.927
L316.5 221.426
L316.882 221.423
L317.137 220.132
L317.265 220.777
L317.52 219.484
L317.648 221.424
L317.903 220.788
L318.03 221.31
L318.413 221.424
L318.668 220.132
L318.668 220.132
L318.795 220.132
L319.051 217.097
L319.178 220.132
L319.561 218.181
L319.816 218.837
L319.943 218.181
L320.198 221.426
L320.326 221.426
L320.709 220.14
L320.964 221.426
L320.964 221.426
L321.346 219.492
L321.474 219.492
L321.729 220.788
L322.112 223.495
L322.239 222.863
L322.877 224.432
L323.004 223.807
L323.259 223.807
L323.387 224.432
L324.152 224.432
L324.407 223.807
L324.535 224.51
L325.3 220.749
L325.555 223.339
L325.683 223.253
L325.938 224.51
L326.066 224.508
L326.32 222.559
L326.448 223.495
L326.703 223.885
L326.831 223.175
L327.213 219.812
L327.468 220.218
L327.596 218.626
L327.851 220.218
L327.979 219.57
L328.234 220.374
L328.361 219.079
L328.616 219.57
L328.744 217.612
L328.999 220.216
L329.126 219.804
L329.381 220.452
L329.509 219.804
L329.764 221.097
L329.892 219.157
L330.147 222.075
L330.274 220.148
L330.657 222.067
L330.912 222.075
L331.04 216.433
L331.295 215.341
L331.422 218.002
L331.805 221.396
L332.57 221.41
L332.825 220.764
L332.953 220.109
L333.208 220.104
L333.335 219.453
L333.59 220.104
L333.718 220.764
L333.973 223.339
L334.101 222.707
L334.356 222.707
L334.483 222.855
L334.738 222.231
L334.866 220.304
L335.121 220.304
L335.248 221.576
L335.504 221.576
L335.631 219.508
L335.886 221.574
L336.014 219.64
L336.269 219.64
L336.396 220.934
L336.651 218.727
L336.779 215.856
L337.034 219.57
L337.162 218.267
L337.417 220.928
L337.544 220.928
L337.799 214.568
L337.927 215.005
L338.182 221.31
L338.309 220.023
L338.565 220.788
L338.692 220.14
L338.947 222.223
L339.075 221.779
L339.33 222.859
L339.457 222.863
L339.712 222.707
L339.84 223.339
L340.223 222.231
L340.478 222.863
L340.605 222.863
L340.86 223.339
L340.988 223.011
L341.371 224.419
L341.753 224.421
L342.008 223.792
L342.136 223.792
L342.391 222.395
L342.518 222.395
L342.773 221.755
L342.901 220.475
L343.156 221.755
L343.284 221.115
L343.666 221.115
L344.049 222.528
L344.304 223.339
L344.432 223.01
L344.687 221.432
L345.069 217.018
L345.197 220.171
L345.579 219.492
L345.835 219.491
L345.962 218.826
L346.217 219.434
L346.345 216.855
L346.727 220.127
L346.982 218.821
L346.982 218.821
L347.11 218.821
L347.365 218.166
L347.748 216.184
L347.875 217.51
L348.258 218.002
L348.64 219.477
L348.896 219.477
L349.023 218.759
L349.278 218.173
L349.406 216.855
L349.661 218.166
L349.788 214.17
L350.043 210.745
L350.171 218.821
L350.426 214.826
L350.554 219.475
L350.809 220.126
L350.936 218.829
L351.191 218.173
L351.319 218.813
L351.702 219.281
L351.957 220.06
L352.084 218.759
L352.339 220.046
L352.467 220.06
L352.722 219.399
L352.849 219.399
L353.104 220.062
L353.232 219.414
L353.487 219.414
L353.615 217.448
L354.252 219.492
L354.38 218.189
L354.635 219.492
L354.763 219.484
L355.018 213.179
L355.145 220.116
L355.4 220.116
L355.4 220.116
L355.528 218.844
L355.783 220.138
L356.165 220.115
L356.165 220.115
L356.293 217.097
L356.676 217.526
L357.058 215.411
L357.568 209.941
L358.206 214.74
L358.461 215.411
L358.461 215.411
L358.589 219.352
L358.971 214.553
L359.227 218.688
L359.354 218.033
L359.737 214.709
L359.992 214.709
L360.119 215.38
L360.374 215.38
L360.502 216.051
L360.757 215.38
L360.885 216.051
L361.14 216.714
L361.267 219.999
L361.522 218.189
L361.65 220.138
L361.905 216.87
L362.032 217.534
L362.288 216.87
L362.415 216.87
L362.798 216.308
L363.053 215.653
L363.18 216.87
L363.435 216.207
L363.563 215.536
L363.818 217.097
L363.946 214.865
L364.328 218.603
L364.583 217.097
L364.711 213.975
L365.093 219.414
L365.859 219.413
L366.114 218.759
L366.114 218.759
L366.242 217.448
L366.496 216.784
L366.624 217.095
L366.879 217.097
L367.007 217.448
L367.262 217.143
L367.389 217.807
L367.644 211.244
L367.772 217.807
L368.155 217.97
L368.41 215.224
L368.537 217.875
L368.792 217.097
L369.175 217.861
L369.557 217.86
L369.685 219.742
L369.94 219.094
L370.068 214.451
L370.323 215.099
L370.705 215.099
L370.833 215.767
L371.216 216.121
L371.471 210.885
L371.598 214.553
L371.981 212.516
L372.236 209.597
L372.363 213.195
L372.619 214.553
L372.746 214.17
L373.001 212.805
L373.129 213.491
L373.384 213.488
L373.511 216.611
L373.766 216.418
L373.766 216.418
L373.894 215.753
L374.149 209.449
L374.277 213.585
L374.532 213.507
L374.659 210.76
L374.914 215.722
L375.042 212.336
L375.297 215.722
L375.424 215.722
L375.68 214.381
L375.807 214.381
L376.062 213.694
L376.19 213.702
L376.445 216.315
L376.572 214.365
L376.827 216.16
L376.955 216.16
L377.593 212.266
L377.593 212.266
L377.848 212.266
L378.103 209.498
L378.358 208.794
L378.741 212.251
L379.251 212.243
L379.506 212.414
L379.633 214.311
L379.888 214.982
L380.016 214.982
L380.271 214.311
L380.654 213.632
L380.781 214.309
L381.036 212.414
L381.164 212.5
L381.419 212.5
L381.547 214.752
L381.802 214.754
L381.929 214.077
L382.312 213.991
L382.567 213.296
L382.694 214.077
L383.077 214.912
L383.332 214.084
L383.46 212.67
L383.715 211.728
L384.097 211.416
L384.225 212.336
L384.48 211.829
L384.608 211.985
L384.863 211.299
L385.245 212.649
L385.628 207.888
L385.755 214.752
L386.011 214.754
L386.138 210.651
L386.393 214.754
L386.521 213.398
L386.776 209.254
L386.903 209.956
L387.158 208.513
L387.286 209.924
L387.669 209.956
L387.924 214.74
L388.051 212.703
L388.306 214.716
L388.306 214.716
L388.434 214.061
L388.689 214.982
L388.816 212.953
L389.072 213.71
L389.199 213.71
L389.582 216.939
L389.837 213.975
L389.964 209.855
L390.219 208.45
L390.602 203.728
L390.73 209.292
L390.985 209.292
L391.112 210.69
L391.367 211.928
L391.495 216.276
L391.75 213.975
L391.878 213.974
L392.133 209.754
L392.26 214.192
L392.515 213.515
L392.643 214.192
L392.898 211.431
L393.025 207.935
L393.28 206.172
L393.408 209.332
L393.663 209.34
L393.791 210.038
L394.046 209.293
L394.173 213.975
L394.173 213.975
L394.811 214.13
L394.939 208.068
L395.194 207.358
L395.321 208.77
L395.704 208.77
L395.959 208.045
L396.086 208.068
L396.341 207.358
L396.469 214.131
L396.724 214.13
L396.852 213.452
L397.107 209.293
L397.234 209.293
L397.489 208.591
L397.617 209.293
L397.872 200.085
L398 200.085
L398.255 213.452
L398.637 213.452
L398.765 212.414
L399.02 213.897
L399.147 213.14
L399.403 208.372
L399.53 209.075
L399.913 208.201
L400.168 207.491
L400.295 209.075
L400.55 209.075
L400.678 208.903
L400.933 213.218
L401.061 212.539
L401.316 210.425
L401.443 212.516
L401.698 211.845
L401.826 209.769
L402.081 209.065
L402.208 209.065
L402.464 209.769
L402.591 209.769
L402.846 212.836
L403.356 209.324
L403.739 212.836
L403.994 211.033
L404.122 211.634
L404.377 211.634
L404.504 210.253
L404.759 211.633
L404.887 210.94
L405.142 211.633
L405.525 209.558
L405.652 210.947
L405.907 211.728
L406.035 211.728
L406.672 208.591
L406.8 213.974
L407.055 212.614
L407.183 212.613
L407.438 210.854
L407.565 211.915
L407.82 209.426
L407.948 209.652
L408.331 211.728
L408.586 211.041
L408.713 212.414
L408.968 209.652
L409.096 212.6
L409.351 209.777
L409.478 206.273
L409.733 212.571
L409.861 209.8
L410.116 208.396
L410.244 208.591
L410.499 212.563
L410.881 211.029
L411.009 210.932
L411.264 213.693
L411.647 211.915
L411.774 211.915
L412.029 211.603
L412.157 210.908
L412.539 210.665
L412.667 210.891
L413.05 209.285
L413.305 212.288
L413.56 209.293
L413.687 211.603
L413.942 211.603
L414.07 210.908
L414.325 212.29
L414.453 211.603
L414.835 212.414
L415.09 212.414
L415.218 212.976
L415.856 212.976
L415.983 209.465
L416.238 212.976
L416.366 212.976
L416.621 213.69
L416.748 213.691
L417.003 208.919
L417.131 211.166
L417.386 212.538
L417.514 211.853
L417.769 212.536
L417.896 211.166
L418.151 213.663
L418.534 213.691
L418.661 213.015
L418.917 213.905
L419.044 215.53
L419.299 215.52
L419.427 214.748
L419.682 208.77
L419.809 209.293
L420.064 213.491
L420.192 213.491
L420.447 214.849
L420.575 212.516
L420.957 214.178
L421.212 212.134
L421.34 213.498
L421.595 213.499
L421.723 213.975
L421.978 212.812
L422.105 213.498
L422.36 212.812
L422.488 210.159
L422.743 210.854
L422.87 210.158
L423.125 210.158
L423.253 209.293
L423.508 212.126
L423.636 210.05
L423.891 212.126
L424.018 214.323
L424.273 212.969
L424.401 214.323
L424.656 215.516
L424.784 215.516
L425.039 214.178
L425.421 209.004
L425.804 214.467
L426.187 212.727
L426.314 209.963
L426.569 210.003
L426.697 210.626
L426.952 215.456
L427.334 213.437
L427.462 210.69
L427.717 212.056
L427.845 212.071
L428.1 210.69
L428.482 213.632
L428.61 207.334
L428.865 213.435
L428.992 213.296
L429.248 213.232
L429.375 211.166
L429.758 214.108
L430.013 213.413
L430.14 214.083
L430.395 213.295
L430.524 211.923
L430.778 213.374
L430.906 212.695
L431.033 212.695
L431.288 211.32
L431.543 214.112
L431.671 212.758
L431.926 214.693
L432.053 214.693
L432.309 215.363
L432.436 213.335
L432.691 213.273
L432.691 213.273
L432.819 211.962
L433.074 211.962
L433.201 211.274
L434.349 211.275
L434.604 211.962
L434.732 214.014
L435.115 208.942
L435.37 209.293
L435.497 210.588
L435.752 211.281
L435.88 215.224
L436.135 214.553
L436.517 214.496
L436.645 213.296
L436.9 209.691
L437.028 214.496
L437.41 210.183
L437.665 211.572
L437.793 210.159
L438.048 204.091
L438.431 210.183
L438.558 210.151
L438.813 209.379
L438.941 207.967
L439.196 209.223
L439.579 207.748
L439.706 209.37
L439.961 205.821
L440.089 207.967
L440.726 207.967
L441.237 208.513
L441.492 207.888
L441.619 207.178
L441.874 209.916
L441.874 209.916
L442.002 208.669
L442.384 200.124
L442.767 210.852
L443.022 210.854
L443.15 213.967
L443.405 213.295
L443.533 212.61
L443.787 212.391
L443.915 213.195
L444.17 210.542
L444.298 213.287
L444.553 213.835
L444.68 214.507
L444.935 213.874
L445.063 215.221
L445.318 213.187
L445.445 57.7978
L445.701 211.143
L446.083 214.549
L446.211 213.195
L446.466 213.195
L446.593 214.553
L446.848 213.952
L446.976 213.975
L447.231 214.707
L447.359 213.351
L447.614 215.52
L447.996 215.534
L448.124 214.857
L448.379 215.53
L448.507 214.857
L448.889 214.848
L449.272 211.103
L449.527 212.787
L449.527 212.787
L449.654 212.787
L449.909 215.528
L450.42 215.531
L450.675 214.865
L450.802 216.394
L451.185 216.72
L451.568 216.72
L451.823 215.668
L451.95 214.092
L452.205 214.763
L452.333 213.351
L452.588 213.818
L452.715 213.818
L452.971 211.58
L453.098 213.819
L453.353 213.14
L453.481 213.14
L453.736 210.386
L453.863 210.339
L454.118 211.759
L454.246 211.759
L454.501 210.37
L454.629 210.784
L454.884 207.28
L455.011 211.029
L455.266 208.591
L455.394 208.747
L455.649 210.947
L455.776 210.946
L456.032 209.527
L456.159 208.123
L456.414 208.825
L456.542 209.526
L456.924 209.524
L457.179 209.387
L457.307 208.684
L457.562 208.684
L457.69 211.751
L457.945 214.752
L458.072 214.755
L458.327 213.402
L458.455 214.081
L458.837 210.549
L459.093 211.931
L459.22 211.931
L459.475 211.236
L459.603 209.293
L459.858 211.242
L459.985 210.549
L460.24 211.931
L460.368 209.293
L460.623 211.244
L460.751 211.244
L461.006 211.853
L461.133 212.539
L461.388 208.201
L462.154 213.195
L462.664 210.354
L462.919 212.453
L463.046 209.629
L463.301 210.378
L463.429 207.874
L463.812 211.079
L464.067 208.833
L464.194 204.001
L464.449 210.386
L464.577 209.995
L464.832 209.613
L465.215 207.888
L465.342 206.172
L465.597 205.454
L465.597 205.454
L465.725 208.997
L465.98 206.874
L466.107 208.185
L466.363 209.223
L466.49 210.392
L466.745 209.699
L466.873 208.294
L467.128 211.085
L467.128 211.085
L467.256 210.393
L467.51 212.493
L467.893 212.414
L468.021 211.041
L468.276 211.041
L468.658 212.414
L468.786 210.347
L469.041 212.414
L469.168 210.159
L469.424 208.762
L469.551 211.868
L469.934 211.728
L470.189 212.414
L470.316 211.728
L470.571 212.493
L470.699 211.119
L470.954 211.806
L471.337 211.806
L471.464 210.425
L471.847 208.325
L472.102 213.175
L472.229 213.173
L472.612 209.73
L472.867 211.119
L472.995 209.73
L473.25 210.386
L473.377 208.989
L473.632 210.378
L473.76 210.3
L474.015 209.028
L474.143 209.729
L474.398 208.325
L474.525 209.026
L474.78 209.023
L474.908 208.318
L475.291 205.454
L475.546 207.608
L475.673 203.862
L475.928 207.608
L476.056 198.86
L476.311 208.319
L476.438 205.469
L476.693 208.319
L476.821 207.569
L477.076 207.567
L477.204 203.831
L477.459 209.023
L477.841 204.018
L477.969 204.018
L478.224 208.318
L478.352 206.18
L478.734 208.591
L478.989 209.028
L479.117 209.73
L479.372 210.425
L479.499 211.119
L479.755 211.631
L480.137 208.138
L480.265 209.541
L480.52 206.718
L480.647 201.49
L480.902 209.293
L481.03 208.045
L481.285 208.841
L481.413 208.841
L481.668 210.852
L481.795 209.543
L482.05 209.551
L482.178 210.245
L482.433 209.543
L482.56 210.932
L482.816 210.214
L482.943 211.6
L483.708 205.025
L483.963 208.119
L484.091 208.045
L484.346 207.412
L484.474 207.412
L484.729 208.119
L484.856 207.412
L485.111 209.91
L485.239 209.91
L485.494 210.089
L485.877 210.073
L486.004 207.974
L486.259 211.477
L486.387 210.784
L486.642 211.478
L486.769 211.477
L487.024 211.617
L487.152 210.924
L487.407 196.035
L487.535 209.293
L487.917 210.932
L488.3 210.932
L488.555 210.167
L488.683 210.167
L488.938 209.473
L489.065 211.556
L489.32 210.862
L489.448 211.556
L489.703 211.556
L489.83 210.159
L490.085 211.555
L490.213 209.473
L490.468 209.293
L490.596 208.591
L490.851 206.468
L490.978 208.591
L491.233 207.888
L491.361 206.468
L491.616 208.591
L491.744 206.17
L491.999 207.178
L492.126 206.467
L492.381 207.178
L492.509 207.178
L492.764 203.581
L492.891 204.299
L493.147 204.304
L493.274 203.581
L493.529 202.847
L493.657 209.292
L493.912 208.435
L494.04 209.449
L494.422 205.828
L494.677 205.828
L494.805 206.546
L495.06 205.883
L495.187 202.98
L495.57 207.313
L495.697 206.601
L495.825 203.16
L495.825 203.16
L495.952 203.16
L496.335 210.081
L496.59 210.835
L496.718 210.144
L496.973 210.144
L497.1 209.449
L497.355 210.854
L497.483 210.854
L497.738 210.097
L497.866 210.679
L498.121 210.097
L498.248 210.159
L498.503 209.379
L498.631 209.465
L498.886 210.862
L499.013 209.473
L499.269 209.473
L499.269 209.473
L499.396 206.57
L499.651 204.408
L499.779 207.319
L500.161 208.583
L500.416 208.747
L500.544 208.045
L500.927 210.167
L501.182 210.167
L501.309 211.625
L501.564 210.94
L501.692 209.551
L501.947 210.721
L502.075 215.146
L502.33 215.754
L502.457 212.274
L502.712 209.153
L502.84 212.274
L503.095 211.533
L503.222 212.219
L503.605 211.475
L503.86 209.285
L503.988 210.706
L504.243 208.606
L504.37 210.782
L504.881 210.784
L505.136 208.045
L505.391 211.531
L505.518 211.531
L505.773 210.83
L506.156 210.83
L506.283 211.525
L506.666 211.53
L506.921 210.144
L507.431 210.144
L507.686 209.448
L507.814 210.144
L508.197 210.142
L508.452 208.045
L508.579 203.503
L508.834 210.073
L509.217 208.669
L509.344 210.141
L509.6 206.617
L509.727 208.029
L509.982 209.441
L510.365 208.037
L510.492 206.617
L510.747 206.617
L511.13 208.575
L511.513 208.591
L511.64 210.141
L511.895 209.441
L512.023 208.739
L512.278 208.037
L512.405 206.523
L512.661 199.75
L513.043 205.797
L513.171 204.354
L513.426 208.739
L513.553 208.037
L513.808 208.037
L513.936 208.731
L514.191 208.029
L514.319 206.554
L514.574 205.835
L514.701 205.048
L515.084 206.481
L515.339 202.863
L515.467 191.189
L515.722 207.732
L515.849 207.178
L516.104 207.803
L516.232 207.093
L516.487 207.093
L516.614 206.382
L516.869 205.618
L516.997 207.887
L517.252 205.75
L517.38 205.75
L517.635 206.796
L517.762 206.148
L518.017 207.639
L518.4 205.493
L518.4 205.493" style="fill:none;stroke:#ff0000;stroke-linecap:square;"/>
   </g>
   <g id="line2d_2">
    <path clip-path="url(#pcb2bf987bf)" d="
M72 343.552
L78.3771 343.654
L78.3771 343.654
L78.5047 343.757
L82.9687 343.649
L83.4789 343.613
L90.6213 343.647
L91.259 343.732
L92.917 343.593
L95.2128 343.608
L95.9781 343.733
L97.381 343.532
L99.0391 343.551
L99.6768 343.672
L103.503 343.612
L116.64 343.519
L117.278 343.459
L119.573 343.555
L122.762 343.549
L124.293 343.647
L127.991 343.705
L129.522 343.652
L131.052 343.608
L134.879 343.601
L136.537 343.622
L137.94 343.618
L139.598 343.682
L150.184 343.652
L154.775 343.543
L157.964 343.429
L158.602 343.574
L160.897 343.566
L162.428 343.669
L164.851 343.702
L167.019 343.637
L167.912 343.658
L169.443 343.504
L170.08 343.661
L170.973 343.601
L171.611 343.683
L178.498 343.576
L180.156 343.566
L183.09 343.546
L183.983 343.64
L187.681 343.487
L188.447 343.616
L189.339 343.49
L195.461 343.499
L196.864 343.587
L199.16 343.704
L201.456 343.535
L202.987 343.711
L205.41 343.782
L207.578 343.624
L208.343 343.683
L213.062 343.558
L213.828 343.624
L213.828 343.624
L214.338 343.588
L223.011 343.672
L223.011 343.672
L223.904 343.711
L240.612 343.794
L240.612 343.794
L240.739 343.866
L252.091 343.764
L252.218 343.699
L281.936 343.657
L282.828 343.529
L307.189 343.596
L307.189 343.596
L307.317 343.674
L310.25 343.63
L310.25 343.63
L310.378 343.505
L314.842 343.588
L314.969 343.658
L319.433 343.566
L319.433 343.566
L319.816 343.519
L337.799 343.446
L337.927 343.37
L339.968 343.445
L341.243 343.582
L345.452 343.496
L345.452 343.496
L345.835 343.452
L363.053 343.452
L363.18 343.334
L376.827 343.387
L376.955 343.462
L388.306 343.488
L388.306 343.488
L388.434 345.381
L389.072 345.381
L389.199 343.554
L390.602 343.565
L390.73 343.421
L391.367 343.421
L391.495 343.582
L392.898 343.562
L393.025 343.457
L401.316 343.513
L401.698 343.574
L402.846 343.563
L402.974 343.755
L412.029 343.685
L412.157 343.608
L425.039 343.666
L425.166 343.732
L428.1 343.693
L428.227 343.607
L431.926 343.622
L432.053 343.752
L440.344 343.68
L440.344 343.68
L440.726 343.629
L441.874 343.63
L441.874 343.63
L442.002 343.749
L450.165 343.81
L450.802 343.877
L453.353 343.788
L453.736 343.74
L477.076 343.643
L477.459 343.585
L478.607 343.615
L478.734 343.697
L479.372 343.697
L479.499 343.81
L483.963 343.757
L484.091 343.683
L490.085 343.772
L490.468 343.828
L490.851 343.828
L490.978 343.713
L501.564 343.791
L501.947 343.85
L506.156 343.786
L506.283 343.715
L515.339 343.691
L515.467 343.601
L516.869 343.697
L517.635 343.715
L518.145 343.691
L518.4 343.691
L518.4 343.691" style="fill:none;stroke:#008000;stroke-linecap:square;"/>
   </g>
   <g id="patch_3">
    <path d="
M72 43.2
L518.4 43.2" style="fill:none;stroke:#000000;stroke-linecap:square;stroke-linejoin:miter;"/>
   </g>
   <g id="patch_4">
    <path d="
M518.4 345.6
L518.4 43.2" style="fill:none;stroke:#000000;stroke-linecap:square;stroke-linejoin:miter;"/>
   </g>
   <g id="patch_5">
    <path d="
M72 345.6
L518.4 345.6" style="fill:none;stroke:#000000;stroke-linecap:square;stroke-linejoin:miter;"/>
   </g>
   <g id="patch_6">
    <path d="
M72 345.6
L72 43.2" style="fill:none;stroke:#000000;stroke-linecap:square;stroke-linejoin:miter;"/>
   </g>
   <g id="matplotlib.axis_1">
    <g id="xtick_1">
     <g id="line2d_3">
      <defs>
       <path d="
M0 0
L0 -4" id="m93b0483c22" style="stroke:#000000;stroke-width:0.5;"/>
      </defs>
      <g>
       <use style="stroke:#000000;stroke-width:0.5;" x="118.170301715" xlink:href="#m93b0483c22" y="345.6"/>
      </g>
     </g>
     <g id="line2d_4">
      <defs>
       <path d="
M0 0
L0 4" id="m741efc42ff" style="stroke:#000000;stroke-width:0.5;"/>
      </defs>
      <g>
       <use style="stroke:#000000;stroke-width:0.5;" x="118.170301715" xlink:href="#m741efc42ff" y="43.2"/>
      </g>
     </g>
     <g id="text_1">
      <!-- Oct 13 2015 -->
      <defs>
       <path d="
M19.1875 8.29688
L53.6094 8.29688
L53.6094 0
L7.32812 0
L7.32812 8.29688
Q12.9375 14.1094 22.625 23.8906
Q32.3281 33.6875 34.8125 36.5312
Q39.5469 41.8438 41.4219 45.5312
Q43.3125 49.2188 43.3125 52.7812
Q43.3125 58.5938 39.2344 62.25
Q35.1562 65.9219 28.6094 65.9219
Q23.9688 65.9219 18.8125 64.3125
Q13.6719 62.7031 7.8125 59.4219
L7.8125 69.3906
Q13.7656 71.7812 18.9375 73
Q24.125 74.2188 28.4219 74.2188
Q39.75 74.2188 46.4844 68.5469
Q53.2188 62.8906 53.2188 53.4219
Q53.2188 48.9219 51.5312 44.8906
Q49.8594 40.875 45.4062 35.4062
Q44.1875 33.9844 37.6406 27.2188
Q31.1094 20.4531 19.1875 8.29688" id="BitstreamVeraSans-Roman-32"/>
       <path d="
M39.4062 66.2188
Q28.6562 66.2188 22.3281 58.2031
Q16.0156 50.2031 16.0156 36.375
Q16.0156 22.6094 22.3281 14.5938
Q28.6562 6.59375 39.4062 6.59375
Q50.1406 6.59375 56.4219 14.5938
Q62.7031 22.6094 62.7031 36.375
Q62.7031 50.2031 56.4219 58.2031
Q50.1406 66.2188 39.4062 66.2188
M39.4062 74.2188
Q54.7344 74.2188 63.9062 63.9375
Q73.0938 53.6562 73.0938 36.375
Q73.0938 19.1406 63.9062 8.85938
Q54.7344 -1.42188 39.4062 -1.42188
Q24.0312 -1.42188 14.8125 8.82812
Q5.60938 19.0938 5.60938 36.375
Q5.60938 53.6562 14.8125 63.9375
Q24.0312 74.2188 39.4062 74.2188" id="BitstreamVeraSans-Roman-4f"/>
       <path d="
M31.7812 66.4062
Q24.1719 66.4062 20.3281 58.9062
Q16.5 51.4219 16.5 36.375
Q16.5 21.3906 20.3281 13.8906
Q24.1719 6.39062 31.7812 6.39062
Q39.4531 6.39062 43.2812 13.8906
Q47.125 21.3906 47.125 36.375
Q47.125 51.4219 43.2812 58.9062
Q39.4531 66.4062 31.7812 66.4062
M31.7812 74.2188
Q44.0469 74.2188 50.5156 64.5156
Q56.9844 54.8281 56.9844 36.375
Q56.9844 17.9688 50.5156 8.26562
Q44.0469 -1.42188 31.7812 -1.42188
Q19.5312 -1.42188 13.0625 8.26562
Q6.59375 17.9688 6.59375 36.375
Q6.59375 54.8281 13.0625 64.5156
Q19.5312 74.2188 31.7812 74.2188" id="BitstreamVeraSans-Roman-30"/>
       <path d="
M12.4062 8.29688
L28.5156 8.29688
L28.5156 63.9219
L10.9844 60.4062
L10.9844 69.3906
L28.4219 72.9062
L38.2812 72.9062
L38.2812 8.29688
L54.3906 8.29688
L54.3906 0
L12.4062 0
z
" id="BitstreamVeraSans-Roman-31"/>
       <path d="
M40.5781 39.3125
Q47.6562 37.7969 51.625 33
Q55.6094 28.2188 55.6094 21.1875
Q55.6094 10.4062 48.1875 4.48438
Q40.7656 -1.42188 27.0938 -1.42188
Q22.5156 -1.42188 17.6562 -0.515625
Q12.7969 0.390625 7.625 2.20312
L7.625 11.7188
Q11.7188 9.32812 16.5938 8.10938
Q21.4844 6.89062 26.8125 6.89062
Q36.0781 6.89062 40.9375 10.5469
Q45.7969 14.2031 45.7969 21.1875
Q45.7969 27.6406 41.2812 31.2656
Q36.7656 34.9062 28.7188 34.9062
L20.2188 34.9062
L20.2188 43.0156
L29.1094 43.0156
Q36.375 43.0156 40.2344 45.9219
Q44.0938 48.8281 44.0938 54.2969
Q44.0938 59.9062 40.1094 62.9062
Q36.1406 65.9219 28.7188 65.9219
Q24.6562 65.9219 20.0156 65.0312
Q15.375 64.1562 9.8125 62.3125
L9.8125 71.0938
Q15.4375 72.6562 20.3438 73.4375
Q25.25 74.2188 29.5938 74.2188
Q40.8281 74.2188 47.3594 69.1094
Q53.9062 64.0156 53.9062 55.3281
Q53.9062 49.2656 50.4375 45.0938
Q46.9688 40.9219 40.5781 39.3125" id="BitstreamVeraSans-Roman-33"/>
       <path id="BitstreamVeraSans-Roman-20"/>
       <path d="
M10.7969 72.9062
L49.5156 72.9062
L49.5156 64.5938
L19.8281 64.5938
L19.8281 46.7344
Q21.9688 47.4688 24.1094 47.8281
Q26.2656 48.1875 28.4219 48.1875
Q40.625 48.1875 47.75 41.5
Q54.8906 34.8125 54.8906 23.3906
Q54.8906 11.625 47.5625 5.09375
Q40.2344 -1.42188 26.9062 -1.42188
Q22.3125 -1.42188 17.5469 -0.640625
Q12.7969 0.140625 7.71875 1.70312
L7.71875 11.625
Q12.1094 9.23438 16.7969 8.0625
Q21.4844 6.89062 26.7031 6.89062
Q35.1562 6.89062 40.0781 11.3281
Q45.0156 15.7656 45.0156 23.3906
Q45.0156 31 40.0781 35.4375
Q35.1562 39.8906 26.7031 39.8906
Q22.75 39.8906 18.8125 39.0156
Q14.8906 38.1406 10.7969 36.2812
z
" id="BitstreamVeraSans-Roman-35"/>
       <path d="
M18.3125 70.2188
L18.3125 54.6875
L36.8125 54.6875
L36.8125 47.7031
L18.3125 47.7031
L18.3125 18.0156
Q18.3125 11.3281 20.1406 9.42188
Q21.9688 7.51562 27.5938 7.51562
L36.8125 7.51562
L36.8125 0
L27.5938 0
Q17.1875 0 13.2344 3.875
Q9.28125 7.76562 9.28125 18.0156
L9.28125 47.7031
L2.6875 47.7031
L2.6875 54.6875
L9.28125 54.6875
L9.28125 70.2188
z
" id="BitstreamVeraSans-Roman-74"/>
       <path d="
M48.7812 52.5938
L48.7812 44.1875
Q44.9688 46.2969 41.1406 47.3438
Q37.3125 48.3906 33.4062 48.3906
Q24.6562 48.3906 19.8125 42.8438
Q14.9844 37.3125 14.9844 27.2969
Q14.9844 17.2812 19.8125 11.7344
Q24.6562 6.20312 33.4062 6.20312
Q37.3125 6.20312 41.1406 7.25
Q44.9688 8.29688 48.7812 10.4062
L48.7812 2.09375
Q45.0156 0.34375 40.9844 -0.53125
Q36.9688 -1.42188 32.4219 -1.42188
Q20.0625 -1.42188 12.7812 6.34375
Q5.51562 14.1094 5.51562 27.2969
Q5.51562 40.6719 12.8594 48.3281
Q20.2188 56 33.0156 56
Q37.1562 56 41.1094 55.1406
Q45.0625 54.2969 48.7812 52.5938" id="BitstreamVeraSans-Roman-63"/>
      </defs>
      <g transform="translate(53.5830149798 394.065590385)rotate(-30.0)scale(0.12 -0.12)">
       <use xlink:href="#BitstreamVeraSans-Roman-4f"/>
       <use x="78.7109375" xlink:href="#BitstreamVeraSans-Roman-63"/>
       <use x="133.69140625" xlink:href="#BitstreamVeraSans-Roman-74"/>
       <use x="172.900390625" xlink:href="#BitstreamVeraSans-Roman-20"/>
       <use x="204.6875" xlink:href="#BitstreamVeraSans-Roman-31"/>
       <use x="268.310546875" xlink:href="#BitstreamVeraSans-Roman-33"/>
       <use x="331.93359375" xlink:href="#BitstreamVeraSans-Roman-20"/>
       <use x="363.720703125" xlink:href="#BitstreamVeraSans-Roman-32"/>
       <use x="427.34375" xlink:href="#BitstreamVeraSans-Roman-30"/>
       <use x="490.966796875" xlink:href="#BitstreamVeraSans-Roman-31"/>
       <use x="554.58984375" xlink:href="#BitstreamVeraSans-Roman-35"/>
      </g>
     </g>
    </g>
    <g id="xtick_2">
     <g id="line2d_5">
      <g>
       <use style="stroke:#000000;stroke-width:0.5;" x="173.268816" xlink:href="#m93b0483c22" y="345.6"/>
      </g>
     </g>
     <g id="line2d_6">
      <g>
       <use style="stroke:#000000;stroke-width:0.5;" x="173.268816" xlink:href="#m741efc42ff" y="43.2"/>
      </g>
     </g>
     <g id="text_2">
      <!-- Oct 16 2015 -->
      <defs>
       <path d="
M33.0156 40.375
Q26.375 40.375 22.4844 35.8281
Q18.6094 31.2969 18.6094 23.3906
Q18.6094 15.5312 22.4844 10.9531
Q26.375 6.39062 33.0156 6.39062
Q39.6562 6.39062 43.5312 10.9531
Q47.4062 15.5312 47.4062 23.3906
Q47.4062 31.2969 43.5312 35.8281
Q39.6562 40.375 33.0156 40.375
M52.5938 71.2969
L52.5938 62.3125
Q48.875 64.0625 45.0938 64.9844
Q41.3125 65.9219 37.5938 65.9219
Q27.8281 65.9219 22.6719 59.3281
Q17.5312 52.7344 16.7969 39.4062
Q19.6719 43.6562 24.0156 45.9219
Q28.375 48.1875 33.5938 48.1875
Q44.5781 48.1875 50.9531 41.5156
Q57.3281 34.8594 57.3281 23.3906
Q57.3281 12.1562 50.6875 5.35938
Q44.0469 -1.42188 33.0156 -1.42188
Q20.3594 -1.42188 13.6719 8.26562
Q6.98438 17.9688 6.98438 36.375
Q6.98438 53.6562 15.1875 63.9375
Q23.3906 74.2188 37.2031 74.2188
Q40.9219 74.2188 44.7031 73.4844
Q48.4844 72.75 52.5938 71.2969" id="BitstreamVeraSans-Roman-36"/>
      </defs>
      <g transform="translate(108.681529265 394.065590385)rotate(-30.0)scale(0.12 -0.12)">
       <use xlink:href="#BitstreamVeraSans-Roman-4f"/>
       <use x="78.7109375" xlink:href="#BitstreamVeraSans-Roman-63"/>
       <use x="133.69140625" xlink:href="#BitstreamVeraSans-Roman-74"/>
       <use x="172.900390625" xlink:href="#BitstreamVeraSans-Roman-20"/>
       <use x="204.6875" xlink:href="#BitstreamVeraSans-Roman-31"/>
       <use x="268.310546875" xlink:href="#BitstreamVeraSans-Roman-36"/>
       <use x="331.93359375" xlink:href="#BitstreamVeraSans-Roman-20"/>
       <use x="363.720703125" xlink:href="#BitstreamVeraSans-Roman-32"/>
       <use x="427.34375" xlink:href="#BitstreamVeraSans-Roman-30"/>
       <use x="490.966796875" xlink:href="#BitstreamVeraSans-Roman-31"/>
       <use x="554.58984375" xlink:href="#BitstreamVeraSans-Roman-35"/>
      </g>
     </g>
    </g>
    <g id="xtick_3">
     <g id="line2d_7">
      <g>
       <use style="stroke:#000000;stroke-width:0.5;" x="228.367330285" xlink:href="#m93b0483c22" y="345.6"/>
      </g>
     </g>
     <g id="line2d_8">
      <g>
       <use style="stroke:#000000;stroke-width:0.5;" x="228.367330285" xlink:href="#m741efc42ff" y="43.2"/>
      </g>
     </g>
     <g id="text_3">
      <!-- Oct 19 2015 -->
      <defs>
       <path d="
M10.9844 1.51562
L10.9844 10.5
Q14.7031 8.73438 18.5 7.8125
Q22.3125 6.89062 25.9844 6.89062
Q35.75 6.89062 40.8906 13.4531
Q46.0469 20.0156 46.7812 33.4062
Q43.9531 29.2031 39.5938 26.9531
Q35.25 24.7031 29.9844 24.7031
Q19.0469 24.7031 12.6719 31.3125
Q6.29688 37.9375 6.29688 49.4219
Q6.29688 60.6406 12.9375 67.4219
Q19.5781 74.2188 30.6094 74.2188
Q43.2656 74.2188 49.9219 64.5156
Q56.5938 54.8281 56.5938 36.375
Q56.5938 19.1406 48.4062 8.85938
Q40.2344 -1.42188 26.4219 -1.42188
Q22.7031 -1.42188 18.8906 -0.6875
Q15.0938 0.046875 10.9844 1.51562
M30.6094 32.4219
Q37.25 32.4219 41.125 36.9531
Q45.0156 41.5 45.0156 49.4219
Q45.0156 57.2812 41.125 61.8438
Q37.25 66.4062 30.6094 66.4062
Q23.9688 66.4062 20.0938 61.8438
Q16.2188 57.2812 16.2188 49.4219
Q16.2188 41.5 20.0938 36.9531
Q23.9688 32.4219 30.6094 32.4219" id="BitstreamVeraSans-Roman-39"/>
      </defs>
      <g transform="translate(163.78004355 394.065590385)rotate(-30.0)scale(0.12 -0.12)">
       <use xlink:href="#BitstreamVeraSans-Roman-4f"/>
       <use x="78.7109375" xlink:href="#BitstreamVeraSans-Roman-63"/>
       <use x="133.69140625" xlink:href="#BitstreamVeraSans-Roman-74"/>
       <use x="172.900390625" xlink:href="#BitstreamVeraSans-Roman-20"/>
       <use x="204.6875" xlink:href="#BitstreamVeraSans-Roman-31"/>
       <use x="268.310546875" xlink:href="#BitstreamVeraSans-Roman-39"/>
       <use x="331.93359375" xlink:href="#BitstreamVeraSans-Roman-20"/>
       <use x="363.720703125" xlink:href="#BitstreamVeraSans-Roman-32"/>
       <use x="427.34375" xlink:href="#BitstreamVeraSans-Roman-30"/>
       <use x="490.966796875" xlink:href="#BitstreamVeraSans-Roman-31"/>
       <use x="554.58984375" xlink:href="#BitstreamVeraSans-Roman-35"/>
      </g>
     </g>
    </g>
    <g id="xtick_4">
     <g id="line2d_9">
      <g>
       <use style="stroke:#000000;stroke-width:0.5;" x="283.465844572" xlink:href="#m93b0483c22" y="345.6"/>
      </g>
     </g>
     <g id="line2d_10">
      <g>
       <use style="stroke:#000000;stroke-width:0.5;" x="283.465844572" xlink:href="#m741efc42ff" y="43.2"/>
      </g>
     </g>
     <g id="text_4">
      <!-- Oct 22 2015 -->
      <g transform="translate(218.878557836 394.065590385)rotate(-30.0)scale(0.12 -0.12)">
       <use xlink:href="#BitstreamVeraSans-Roman-4f"/>
       <use x="78.7109375" xlink:href="#BitstreamVeraSans-Roman-63"/>
       <use x="133.69140625" xlink:href="#BitstreamVeraSans-Roman-74"/>
       <use x="172.900390625" xlink:href="#BitstreamVeraSans-Roman-20"/>
       <use x="204.6875" xlink:href="#BitstreamVeraSans-Roman-32"/>
       <use x="268.310546875" xlink:href="#BitstreamVeraSans-Roman-32"/>
       <use x="331.93359375" xlink:href="#BitstreamVeraSans-Roman-20"/>
       <use x="363.720703125" xlink:href="#BitstreamVeraSans-Roman-32"/>
       <use x="427.34375" xlink:href="#BitstreamVeraSans-Roman-30"/>
       <use x="490.966796875" xlink:href="#BitstreamVeraSans-Roman-31"/>
       <use x="554.58984375" xlink:href="#BitstreamVeraSans-Roman-35"/>
      </g>
     </g>
    </g>
    <g id="xtick_5">
     <g id="line2d_11">
      <g>
       <use style="stroke:#000000;stroke-width:0.5;" x="338.564358857" xlink:href="#m93b0483c22" y="345.6"/>
      </g>
     </g>
     <g id="line2d_12">
      <g>
       <use style="stroke:#000000;stroke-width:0.5;" x="338.564358857" xlink:href="#m741efc42ff" y="43.2"/>
      </g>
     </g>
     <g id="text_5">
      <!-- Oct 25 2015 -->
      <g transform="translate(273.977072121 394.065590385)rotate(-30.0)scale(0.12 -0.12)">
       <use xlink:href="#BitstreamVeraSans-Roman-4f"/>
       <use x="78.7109375" xlink:href="#BitstreamVeraSans-Roman-63"/>
       <use x="133.69140625" xlink:href="#BitstreamVeraSans-Roman-74"/>
       <use x="172.900390625" xlink:href="#BitstreamVeraSans-Roman-20"/>
       <use x="204.6875" xlink:href="#BitstreamVeraSans-Roman-32"/>
       <use x="268.310546875" xlink:href="#BitstreamVeraSans-Roman-35"/>
       <use x="331.93359375" xlink:href="#BitstreamVeraSans-Roman-20"/>
       <use x="363.720703125" xlink:href="#BitstreamVeraSans-Roman-32"/>
       <use x="427.34375" xlink:href="#BitstreamVeraSans-Roman-30"/>
       <use x="490.966796875" xlink:href="#BitstreamVeraSans-Roman-31"/>
       <use x="554.58984375" xlink:href="#BitstreamVeraSans-Roman-35"/>
      </g>
     </g>
    </g>
    <g id="xtick_6">
     <g id="line2d_13">
      <g>
       <use style="stroke:#000000;stroke-width:0.5;" x="393.662873141" xlink:href="#m93b0483c22" y="345.6"/>
      </g>
     </g>
     <g id="line2d_14">
      <g>
       <use style="stroke:#000000;stroke-width:0.5;" x="393.662873141" xlink:href="#m741efc42ff" y="43.2"/>
      </g>
     </g>
     <g id="text_6">
      <!-- Oct 28 2015 -->
      <defs>
       <path d="
M31.7812 34.625
Q24.75 34.625 20.7188 30.8594
Q16.7031 27.0938 16.7031 20.5156
Q16.7031 13.9219 20.7188 10.1562
Q24.75 6.39062 31.7812 6.39062
Q38.8125 6.39062 42.8594 10.1719
Q46.9219 13.9688 46.9219 20.5156
Q46.9219 27.0938 42.8906 30.8594
Q38.875 34.625 31.7812 34.625
M21.9219 38.8125
Q15.5781 40.375 12.0312 44.7188
Q8.5 49.0781 8.5 55.3281
Q8.5 64.0625 14.7188 69.1406
Q20.9531 74.2188 31.7812 74.2188
Q42.6719 74.2188 48.875 69.1406
Q55.0781 64.0625 55.0781 55.3281
Q55.0781 49.0781 51.5312 44.7188
Q48 40.375 41.7031 38.8125
Q48.8281 37.1562 52.7969 32.3125
Q56.7812 27.4844 56.7812 20.5156
Q56.7812 9.90625 50.3125 4.23438
Q43.8438 -1.42188 31.7812 -1.42188
Q19.7344 -1.42188 13.25 4.23438
Q6.78125 9.90625 6.78125 20.5156
Q6.78125 27.4844 10.7812 32.3125
Q14.7969 37.1562 21.9219 38.8125
M18.3125 54.3906
Q18.3125 48.7344 21.8438 45.5625
Q25.3906 42.3906 31.7812 42.3906
Q38.1406 42.3906 41.7188 45.5625
Q45.3125 48.7344 45.3125 54.3906
Q45.3125 60.0625 41.7188 63.2344
Q38.1406 66.4062 31.7812 66.4062
Q25.3906 66.4062 21.8438 63.2344
Q18.3125 60.0625 18.3125 54.3906" id="BitstreamVeraSans-Roman-38"/>
      </defs>
      <g transform="translate(329.075586406 394.065590385)rotate(-30.0)scale(0.12 -0.12)">
       <use xlink:href="#BitstreamVeraSans-Roman-4f"/>
       <use x="78.7109375" xlink:href="#BitstreamVeraSans-Roman-63"/>
       <use x="133.69140625" xlink:href="#BitstreamVeraSans-Roman-74"/>
       <use x="172.900390625" xlink:href="#BitstreamVeraSans-Roman-20"/>
       <use x="204.6875" xlink:href="#BitstreamVeraSans-Roman-32"/>
       <use x="268.310546875" xlink:href="#BitstreamVeraSans-Roman-38"/>
       <use x="331.93359375" xlink:href="#BitstreamVeraSans-Roman-20"/>
       <use x="363.720703125" xlink:href="#BitstreamVeraSans-Roman-32"/>
       <use x="427.34375" xlink:href="#BitstreamVeraSans-Roman-30"/>
       <use x="490.966796875" xlink:href="#BitstreamVeraSans-Roman-31"/>
       <use x="554.58984375" xlink:href="#BitstreamVeraSans-Roman-35"/>
      </g>
     </g>
    </g>
    <g id="xtick_7">
     <g id="line2d_15">
      <g>
       <use style="stroke:#000000;stroke-width:0.5;" x="448.761387428" xlink:href="#m93b0483c22" y="345.6"/>
      </g>
     </g>
     <g id="line2d_16">
      <g>
       <use style="stroke:#000000;stroke-width:0.5;" x="448.761387428" xlink:href="#m741efc42ff" y="43.2"/>
      </g>
     </g>
     <g id="text_7">
      <!-- Oct 31 2015 -->
      <g transform="translate(384.174100693 394.065590385)rotate(-30.0)scale(0.12 -0.12)">
       <use xlink:href="#BitstreamVeraSans-Roman-4f"/>
       <use x="78.7109375" xlink:href="#BitstreamVeraSans-Roman-63"/>
       <use x="133.69140625" xlink:href="#BitstreamVeraSans-Roman-74"/>
       <use x="172.900390625" xlink:href="#BitstreamVeraSans-Roman-20"/>
       <use x="204.6875" xlink:href="#BitstreamVeraSans-Roman-33"/>
       <use x="268.310546875" xlink:href="#BitstreamVeraSans-Roman-31"/>
       <use x="331.93359375" xlink:href="#BitstreamVeraSans-Roman-20"/>
       <use x="363.720703125" xlink:href="#BitstreamVeraSans-Roman-32"/>
       <use x="427.34375" xlink:href="#BitstreamVeraSans-Roman-30"/>
       <use x="490.966796875" xlink:href="#BitstreamVeraSans-Roman-31"/>
       <use x="554.58984375" xlink:href="#BitstreamVeraSans-Roman-35"/>
      </g>
     </g>
    </g>
    <g id="xtick_8">
     <g id="line2d_17">
      <g>
       <use style="stroke:#000000;stroke-width:0.5;" x="503.859901713" xlink:href="#m93b0483c22" y="345.6"/>
      </g>
     </g>
     <g id="line2d_18">
      <g>
       <use style="stroke:#000000;stroke-width:0.5;" x="503.859901713" xlink:href="#m741efc42ff" y="43.2"/>
      </g>
     </g>
     <g id="text_8">
      <!-- Nov 03 2015 -->
      <defs>
       <path d="
M2.98438 54.6875
L12.5 54.6875
L29.5938 8.79688
L46.6875 54.6875
L56.2031 54.6875
L35.6875 0
L23.4844 0
z
" id="BitstreamVeraSans-Roman-76"/>
       <path d="
M9.8125 72.9062
L23.0938 72.9062
L55.4219 11.9219
L55.4219 72.9062
L64.9844 72.9062
L64.9844 0
L51.7031 0
L19.3906 60.9844
L19.3906 0
L9.8125 0
z
" id="BitstreamVeraSans-Roman-4e"/>
       <path d="
M30.6094 48.3906
Q23.3906 48.3906 19.1875 42.75
Q14.9844 37.1094 14.9844 27.2969
Q14.9844 17.4844 19.1562 11.8438
Q23.3438 6.20312 30.6094 6.20312
Q37.7969 6.20312 41.9844 11.8594
Q46.1875 17.5312 46.1875 27.2969
Q46.1875 37.0156 41.9844 42.7031
Q37.7969 48.3906 30.6094 48.3906
M30.6094 56
Q42.3281 56 49.0156 48.375
Q55.7188 40.7656 55.7188 27.2969
Q55.7188 13.875 49.0156 6.21875
Q42.3281 -1.42188 30.6094 -1.42188
Q18.8438 -1.42188 12.1719 6.21875
Q5.51562 13.875 5.51562 27.2969
Q5.51562 40.7656 12.1719 48.375
Q18.8438 56 30.6094 56" id="BitstreamVeraSans-Roman-6f"/>
      </defs>
      <g transform="translate(436.957079555 395.402465385)rotate(-30.0)scale(0.12 -0.12)">
       <use xlink:href="#BitstreamVeraSans-Roman-4e"/>
       <use x="74.8046875" xlink:href="#BitstreamVeraSans-Roman-6f"/>
       <use x="135.986328125" xlink:href="#BitstreamVeraSans-Roman-76"/>
       <use x="195.166015625" xlink:href="#BitstreamVeraSans-Roman-20"/>
       <use x="226.953125" xlink:href="#BitstreamVeraSans-Roman-30"/>
       <use x="290.576171875" xlink:href="#BitstreamVeraSans-Roman-33"/>
       <use x="354.19921875" xlink:href="#BitstreamVeraSans-Roman-20"/>
       <use x="385.986328125" xlink:href="#BitstreamVeraSans-Roman-32"/>
       <use x="449.609375" xlink:href="#BitstreamVeraSans-Roman-30"/>
       <use x="513.232421875" xlink:href="#BitstreamVeraSans-Roman-31"/>
       <use x="576.85546875" xlink:href="#BitstreamVeraSans-Roman-35"/>
      </g>
     </g>
    </g>
   </g>
   <g id="matplotlib.axis_2">
    <g id="ytick_1">
     <g id="line2d_19">
      <defs>
       <path d="
M0 0
L4 0" id="m728421d6d4" style="stroke:#000000;stroke-width:0.5;"/>
      </defs>
      <g>
       <use style="stroke:#000000;stroke-width:0.5;" x="72.0" xlink:href="#m728421d6d4" y="271.720338395"/>
      </g>
     </g>
     <g id="line2d_20">
      <defs>
       <path d="
M0 0
L-4 0" id="mcb0005524f" style="stroke:#000000;stroke-width:0.5;"/>
      </defs>
      <g>
       <use style="stroke:#000000;stroke-width:0.5;" x="518.4" xlink:href="#mcb0005524f" y="271.720338395"/>
      </g>
     </g>
     <g id="text_9">
      <!-- 50000 -->
      <g transform="translate(31.548125 275.031588395)scale(0.12 -0.12)">
       <use xlink:href="#BitstreamVeraSans-Roman-35"/>
       <use x="63.623046875" xlink:href="#BitstreamVeraSans-Roman-30"/>
       <use x="127.24609375" xlink:href="#BitstreamVeraSans-Roman-30"/>
       <use x="190.869140625" xlink:href="#BitstreamVeraSans-Roman-30"/>
       <use x="254.4921875" xlink:href="#BitstreamVeraSans-Roman-30"/>
      </g>
     </g>
    </g>
    <g id="ytick_2">
     <g id="line2d_21">
      <g>
       <use style="stroke:#000000;stroke-width:0.5;" x="72.0" xlink:href="#m728421d6d4" y="193.686300691"/>
      </g>
     </g>
     <g id="line2d_22">
      <g>
       <use style="stroke:#000000;stroke-width:0.5;" x="518.4" xlink:href="#mcb0005524f" y="193.686300691"/>
      </g>
     </g>
     <g id="text_10">
      <!-- 100000 -->
      <g transform="translate(24.305 196.997550691)scale(0.12 -0.12)">
       <use xlink:href="#BitstreamVeraSans-Roman-31"/>
       <use x="63.623046875" xlink:href="#BitstreamVeraSans-Roman-30"/>
       <use x="127.24609375" xlink:href="#BitstreamVeraSans-Roman-30"/>
       <use x="190.869140625" xlink:href="#BitstreamVeraSans-Roman-30"/>
       <use x="254.4921875" xlink:href="#BitstreamVeraSans-Roman-30"/>
       <use x="318.115234375" xlink:href="#BitstreamVeraSans-Roman-30"/>
      </g>
     </g>
    </g>
    <g id="ytick_3">
     <g id="line2d_23">
      <g>
       <use style="stroke:#000000;stroke-width:0.5;" x="72.0" xlink:href="#m728421d6d4" y="115.652262987"/>
      </g>
     </g>
     <g id="line2d_24">
      <g>
       <use style="stroke:#000000;stroke-width:0.5;" x="518.4" xlink:href="#mcb0005524f" y="115.652262987"/>
      </g>
     </g>
     <g id="text_11">
      <!-- 150000 -->
      <g transform="translate(24.305 118.963512987)scale(0.12 -0.12)">
       <use xlink:href="#BitstreamVeraSans-Roman-31"/>
       <use x="63.623046875" xlink:href="#BitstreamVeraSans-Roman-35"/>
       <use x="127.24609375" xlink:href="#BitstreamVeraSans-Roman-30"/>
       <use x="190.869140625" xlink:href="#BitstreamVeraSans-Roman-30"/>
       <use x="254.4921875" xlink:href="#BitstreamVeraSans-Roman-30"/>
       <use x="318.115234375" xlink:href="#BitstreamVeraSans-Roman-30"/>
      </g>
     </g>
    </g>
   </g>
   <g id="text_12">
    <!-- Stahl -->
    <defs>
     <path d="
M53.5156 70.5156
L53.5156 60.8906
Q47.9062 63.5781 42.9219 64.8906
Q37.9375 66.2188 33.2969 66.2188
Q25.25 66.2188 20.875 63.0938
Q16.5 59.9688 16.5 54.2031
Q16.5 49.3594 19.4062 46.8906
Q22.3125 44.4375 30.4219 42.9219
L36.375 41.7031
Q47.4062 39.5938 52.6562 34.2969
Q57.9062 29 57.9062 20.125
Q57.9062 9.51562 50.7969 4.04688
Q43.7031 -1.42188 29.9844 -1.42188
Q24.8125 -1.42188 18.9688 -0.25
Q13.1406 0.921875 6.89062 3.21875
L6.89062 13.375
Q12.8906 10.0156 18.6562 8.29688
Q24.4219 6.59375 29.9844 6.59375
Q38.4219 6.59375 43.0156 9.90625
Q47.6094 13.2344 47.6094 19.3906
Q47.6094 24.75 44.3125 27.7812
Q41.0156 30.8125 33.5 32.3281
L27.4844 33.5
Q16.4531 35.6875 11.5156 40.375
Q6.59375 45.0625 6.59375 53.4219
Q6.59375 63.0938 13.4062 68.6562
Q20.2188 74.2188 32.1719 74.2188
Q37.3125 74.2188 42.625 73.2812
Q47.9531 72.3594 53.5156 70.5156" id="BitstreamVeraSans-Roman-53"/>
     <path d="
M34.2812 27.4844
Q23.3906 27.4844 19.1875 25
Q14.9844 22.5156 14.9844 16.5
Q14.9844 11.7188 18.1406 8.90625
Q21.2969 6.10938 26.7031 6.10938
Q34.1875 6.10938 38.7031 11.4062
Q43.2188 16.7031 43.2188 25.4844
L43.2188 27.4844
z

M52.2031 31.2031
L52.2031 0
L43.2188 0
L43.2188 8.29688
Q40.1406 3.32812 35.5469 0.953125
Q30.9531 -1.42188 24.3125 -1.42188
Q15.9219 -1.42188 10.9531 3.29688
Q6 8.01562 6 15.9219
Q6 25.1406 12.1719 29.8281
Q18.3594 34.5156 30.6094 34.5156
L43.2188 34.5156
L43.2188 35.4062
Q43.2188 41.6094 39.1406 45
Q35.0625 48.3906 27.6875 48.3906
Q23 48.3906 18.5469 47.2656
Q14.1094 46.1406 10.0156 43.8906
L10.0156 52.2031
Q14.9375 54.1094 19.5781 55.0469
Q24.2188 56 28.6094 56
Q40.4844 56 46.3438 49.8438
Q52.2031 43.7031 52.2031 31.2031" id="BitstreamVeraSans-Roman-61"/>
     <path d="
M54.8906 33.0156
L54.8906 0
L45.9062 0
L45.9062 32.7188
Q45.9062 40.4844 42.875 44.3281
Q39.8438 48.1875 33.7969 48.1875
Q26.5156 48.1875 22.3125 43.5469
Q18.1094 38.9219 18.1094 30.9062
L18.1094 0
L9.07812 0
L9.07812 75.9844
L18.1094 75.9844
L18.1094 46.1875
Q21.3438 51.125 25.7031 53.5625
Q30.0781 56 35.7969 56
Q45.2188 56 50.0469 50.1719
Q54.8906 44.3438 54.8906 33.0156" id="BitstreamVeraSans-Roman-68"/>
     <path d="
M9.42188 75.9844
L18.4062 75.9844
L18.4062 0
L9.42188 0
z
" id="BitstreamVeraSans-Roman-6c"/>
    </defs>
    <g transform="translate(483.9615 38.2)scale(0.144 -0.144)">
     <use xlink:href="#BitstreamVeraSans-Roman-53"/>
     <use x="63.4765625" xlink:href="#BitstreamVeraSans-Roman-74"/>
     <use x="102.685546875" xlink:href="#BitstreamVeraSans-Roman-61"/>
     <use x="163.96484375" xlink:href="#BitstreamVeraSans-Roman-68"/>
     <use x="227.34375" xlink:href="#BitstreamVeraSans-Roman-6c"/>
    </g>
   </g>
   <g id="legend_1">
    <g id="patch_7">
     <path d="
M123.942 423.616
L466.458 423.616
L466.458 398.16
L123.942 398.16
z
" style="fill:#ffffff;stroke:#000000;stroke-linejoin:miter;"/>
    </g>
    <g id="line2d_25">
     <path d="
M134.022 409.822
L154.182 409.822" style="fill:none;stroke:#ff0000;stroke-linecap:square;"/>
    </g>
    <g id="line2d_26"/>
    <g id="text_13">
     <!-- Schwarzmarktpreis -->
     <defs>
      <path d="
M52 44.1875
Q55.375 50.25 60.0625 53.125
Q64.75 56 71.0938 56
Q79.6406 56 84.2812 50.0156
Q88.9219 44.0469 88.9219 33.0156
L88.9219 0
L79.8906 0
L79.8906 32.7188
Q79.8906 40.5781 77.0938 44.375
Q74.3125 48.1875 68.6094 48.1875
Q61.625 48.1875 57.5625 43.5469
Q53.5156 38.9219 53.5156 30.9062
L53.5156 0
L44.4844 0
L44.4844 32.7188
Q44.4844 40.625 41.7031 44.4062
Q38.9219 48.1875 33.1094 48.1875
Q26.2188 48.1875 22.1562 43.5312
Q18.1094 38.875 18.1094 30.9062
L18.1094 0
L9.07812 0
L9.07812 54.6875
L18.1094 54.6875
L18.1094 46.1875
Q21.1875 51.2188 25.4844 53.6094
Q29.7812 56 35.6875 56
Q41.6562 56 45.8281 52.9688
Q50 49.9531 52 44.1875" id="BitstreamVeraSans-Roman-6d"/>
      <path d="
M9.07812 75.9844
L18.1094 75.9844
L18.1094 31.1094
L44.9219 54.6875
L56.3906 54.6875
L27.3906 29.1094
L57.625 0
L45.9062 0
L18.1094 26.7031
L18.1094 0
L9.07812 0
z
" id="BitstreamVeraSans-Roman-6b"/>
      <path d="
M9.42188 54.6875
L18.4062 54.6875
L18.4062 0
L9.42188 0
z

M9.42188 75.9844
L18.4062 75.9844
L18.4062 64.5938
L9.42188 64.5938
z
" id="BitstreamVeraSans-Roman-69"/>
      <path d="
M56.2031 29.5938
L56.2031 25.2031
L14.8906 25.2031
Q15.4844 15.9219 20.4844 11.0625
Q25.4844 6.20312 34.4219 6.20312
Q39.5938 6.20312 44.4531 7.46875
Q49.3125 8.73438 54.1094 11.2812
L54.1094 2.78125
Q49.2656 0.734375 44.1875 -0.34375
Q39.1094 -1.42188 33.8906 -1.42188
Q20.7969 -1.42188 13.1562 6.1875
Q5.51562 13.8125 5.51562 26.8125
Q5.51562 40.2344 12.7656 48.1094
Q20.0156 56 32.3281 56
Q43.3594 56 49.7812 48.8906
Q56.2031 41.7969 56.2031 29.5938
M47.2188 32.2344
Q47.125 39.5938 43.0938 43.9844
Q39.0625 48.3906 32.4219 48.3906
Q24.9062 48.3906 20.3906 44.1406
Q15.875 39.8906 15.1875 32.1719
z
" id="BitstreamVeraSans-Roman-65"/>
      <path d="
M4.20312 54.6875
L13.1875 54.6875
L24.4219 12.0156
L35.5938 54.6875
L46.1875 54.6875
L57.4219 12.0156
L68.6094 54.6875
L77.5938 54.6875
L63.2812 0
L52.6875 0
L40.9219 44.8281
L29.1094 0
L18.5 0
z
" id="BitstreamVeraSans-Roman-77"/>
      <path d="
M5.51562 54.6875
L48.1875 54.6875
L48.1875 46.4844
L14.4062 7.17188
L48.1875 7.17188
L48.1875 0
L4.29688 0
L4.29688 8.20312
L38.0938 47.5156
L5.51562 47.5156
z
" id="BitstreamVeraSans-Roman-7a"/>
      <path d="
M41.1094 46.2969
Q39.5938 47.1719 37.8125 47.5781
Q36.0312 48 33.8906 48
Q26.2656 48 22.1875 43.0469
Q18.1094 38.0938 18.1094 28.8125
L18.1094 0
L9.07812 0
L9.07812 54.6875
L18.1094 54.6875
L18.1094 46.1875
Q20.9531 51.1719 25.4844 53.5781
Q30.0312 56 36.5312 56
Q37.4531 56 38.5781 55.875
Q39.7031 55.7656 41.0625 55.5156
z
" id="BitstreamVeraSans-Roman-72"/>
      <path d="
M44.2812 53.0781
L44.2812 44.5781
Q40.4844 46.5312 36.375 47.5
Q32.2812 48.4844 27.875 48.4844
Q21.1875 48.4844 17.8438 46.4375
Q14.5 44.3906 14.5 40.2812
Q14.5 37.1562 16.8906 35.375
Q19.2812 33.5938 26.5156 31.9844
L29.5938 31.2969
Q39.1562 29.25 43.1875 25.5156
Q47.2188 21.7812 47.2188 15.0938
Q47.2188 7.46875 41.1875 3.01562
Q35.1562 -1.42188 24.6094 -1.42188
Q20.2188 -1.42188 15.4531 -0.5625
Q10.6875 0.296875 5.42188 2
L5.42188 11.2812
Q10.4062 8.6875 15.2344 7.39062
Q20.0625 6.10938 24.8125 6.10938
Q31.1562 6.10938 34.5625 8.28125
Q37.9844 10.4531 37.9844 14.4062
Q37.9844 18.0625 35.5156 20.0156
Q33.0625 21.9688 24.7031 23.7812
L21.5781 24.5156
Q13.2344 26.2656 9.51562 29.9062
Q5.8125 33.5469 5.8125 39.8906
Q5.8125 47.6094 11.2812 51.7969
Q16.75 56 26.8125 56
Q31.7812 56 36.1719 55.2656
Q40.5781 54.5469 44.2812 53.0781" id="BitstreamVeraSans-Roman-73"/>
      <path d="
M18.1094 8.20312
L18.1094 -20.7969
L9.07812 -20.7969
L9.07812 54.6875
L18.1094 54.6875
L18.1094 46.3906
Q20.9531 51.2656 25.2656 53.625
Q29.5938 56 35.5938 56
Q45.5625 56 51.7812 48.0938
Q58.0156 40.1875 58.0156 27.2969
Q58.0156 14.4062 51.7812 6.48438
Q45.5625 -1.42188 35.5938 -1.42188
Q29.5938 -1.42188 25.2656 0.953125
Q20.9531 3.32812 18.1094 8.20312
M48.6875 27.2969
Q48.6875 37.2031 44.6094 42.8438
Q40.5312 48.4844 33.4062 48.4844
Q26.2656 48.4844 22.1875 42.8438
Q18.1094 37.2031 18.1094 27.2969
Q18.1094 17.3906 22.1875 11.75
Q26.2656 6.10938 33.4062 6.10938
Q40.5312 6.10938 44.6094 11.75
Q48.6875 17.3906 48.6875 27.2969" id="BitstreamVeraSans-Roman-70"/>
     </defs>
     <g transform="translate(170.022375 414.86175)scale(0.144 -0.144)">
      <use xlink:href="#BitstreamVeraSans-Roman-53"/>
      <use x="63.4765625" xlink:href="#BitstreamVeraSans-Roman-63"/>
      <use x="118.45703125" xlink:href="#BitstreamVeraSans-Roman-68"/>
      <use x="181.8359375" xlink:href="#BitstreamVeraSans-Roman-77"/>
      <use x="263.623046875" xlink:href="#BitstreamVeraSans-Roman-61"/>
      <use x="324.90234375" xlink:href="#BitstreamVeraSans-Roman-72"/>
      <use x="366.015625" xlink:href="#BitstreamVeraSans-Roman-7a"/>
      <use x="418.505859375" xlink:href="#BitstreamVeraSans-Roman-6d"/>
      <use x="515.91796875" xlink:href="#BitstreamVeraSans-Roman-61"/>
      <use x="577.197265625" xlink:href="#BitstreamVeraSans-Roman-72"/>
      <use x="618.310546875" xlink:href="#BitstreamVeraSans-Roman-6b"/>
      <use x="676.220703125" xlink:href="#BitstreamVeraSans-Roman-74"/>
      <use x="715.4296875" xlink:href="#BitstreamVeraSans-Roman-70"/>
      <use x="778.90625" xlink:href="#BitstreamVeraSans-Roman-72"/>
      <use x="817.76953125" xlink:href="#BitstreamVeraSans-Roman-65"/>
      <use x="879.29296875" xlink:href="#BitstreamVeraSans-Roman-69"/>
      <use x="907.076171875" xlink:href="#BitstreamVeraSans-Roman-73"/>
     </g>
    </g>
    <g id="line2d_27">
     <path d="
M339.609 409.822
L359.769 409.822" style="fill:none;stroke:#008000;stroke-linecap:square;"/>
    </g>
    <g id="line2d_28"/>
    <g id="text_14">
     <!-- Normalpreis -->
     <g transform="translate(375.609375 414.86175)scale(0.144 -0.144)">
      <use xlink:href="#BitstreamVeraSans-Roman-4e"/>
      <use x="74.8046875" xlink:href="#BitstreamVeraSans-Roman-6f"/>
      <use x="135.986328125" xlink:href="#BitstreamVeraSans-Roman-72"/>
      <use x="175.349609375" xlink:href="#BitstreamVeraSans-Roman-6d"/>
      <use x="272.76171875" xlink:href="#BitstreamVeraSans-Roman-61"/>
      <use x="334.041015625" xlink:href="#BitstreamVeraSans-Roman-6c"/>
      <use x="361.82421875" xlink:href="#BitstreamVeraSans-Roman-70"/>
      <use x="425.30078125" xlink:href="#BitstreamVeraSans-Roman-72"/>
      <use x="464.1640625" xlink:href="#BitstreamVeraSans-Roman-65"/>
      <use x="525.6875" xlink:href="#BitstreamVeraSans-Roman-69"/>
      <use x="553.470703125" xlink:href="#BitstreamVeraSans-Roman-73"/>
     </g>
    </g>
   </g>
  </g>
 </g>
 <defs>
  <clipPath id="pcb2bf987bf">
   <rect height="302.4" width="446.4" x="72.0" y="43.2"/>
  </clipPath>
 </defs>
</svg>
