<?xml version="1.0" encoding="utf-8" standalone="no"?>
<!DOCTYPE svg PUBLIC "-//W3C//DTD SVG 1.1//EN"
  "http://www.w3.org/Graphics/SVG/1.1/DTD/svg11.dtd">
<!-- Created with matplotlib (http://matplotlib.org/) -->
<svg height="432pt" version="1.1" viewBox="0 0 576 432" width="576pt" xmlns="http://www.w3.org/2000/svg" xmlns:xlink="http://www.w3.org/1999/xlink">
 <defs>
  <style type="text/css">
*{stroke-linecap:butt;stroke-linejoin:round;}
  </style>
 </defs>
 <g id="figure_1">
  <g id="patch_1">
   <path d="
M0 432
L576 432
L576 0
L0 0
z
" style="fill:#ffffff;"/>
  </g>
  <g id="axes_1">
   <g id="patch_2">
    <path d="
M72 345.6
L518.4 345.6
L518.4 43.2
L72 43.2
z
" style="fill:#ffffff;"/>
   </g>
   <g id="line2d_1">
    <path clip-path="url(#pcb2bf987bf)" d="
M72 121.057
L72.2551 119.895
L72.3826 119.895
L72.6377 118.728
L72.7653 121.057
L73.1479 121.057
L73.403 119.895
L73.5305 119.895
L73.7856 119.759
L73.9131 120.921
L74.1682 119.759
L74.2958 119.759
L74.5509 121.057
L74.6784 119.895
L75.3161 119.895
L75.4437 118.727
L75.6987 119.895
L75.8263 118.728
L76.0814 104.082
L76.2089 104.082
L76.464 119.895
L77.2295 119.895
L77.6119 121.057
L77.9947 119.895
L78.1221 119.895
L78.3771 121.057
L78.3771 121.057
L78.8873 121.057
L79.1426 119.895
L79.2699 118.728
L79.6526 118.728
L79.9077 119.895
L80.0352 124.327
L80.2903 123.181
L80.4178 119.712
L80.6729 116.19
L80.8005 116.19
L81.0555 117.37
L81.1831 116.19
L81.4384 116.19
L81.5657 117.37
L81.8208 111.413
L81.9483 111.413
L82.2036 112.616
L82.331 112.616
L82.5863 106.745
L82.7136 109.614
L82.9687 112.616
L83.0962 111.412
L83.3513 112.614
L83.8615 112.616
L84.1166 125.466
L85.392 125.466
L85.6473 124.327
L85.7746 123.182
L86.0297 124.327
L86.1573 124.327
L86.4123 123.182
L86.5399 123.182
L86.795 122.031
L86.9225 122.031
L87.1776 120.875
L87.3051 120.875
L87.5602 124.813
L87.6878 123.671
L88.0704 123.671
L88.3255 122.841
L88.7081 122.841
L88.8357 121.689
L89.0907 124.813
L89.0907 124.813
L89.2183 123.671
L89.4734 122.523
L89.6009 122.523
L89.856 123.671
L90.2386 123.671
L90.2386 123.671
L90.4937 122.523
L90.6213 123.671
L91.259 124.327
L93.5547 124.327
L94.32 114.856
L94.4475 114.856
L95.2128 125.632
L95.8505 124.447
L95.9781 124.447
L96.6158 125.439
L97.381 122.004
L98.1463 120.847
L98.2738 118.517
L98.9115 114.978
L99.0391 116.163
L99.6768 120.847
L101.207 118.517
L101.973 120.847
L102.1 118.443
L102.738 119.612
L103.503 117.269
L103.631 117.269
L104.268 124.447
L105.799 124.447
L106.564 125.586
L107.33 124.447
L108.222 124.447
L108.86 133.409
L109.625 131.205
L109.753 130.004
L110.518 128.887
L111.156 124.365
L111.283 124.365
L111.921 123.22
L112.048 122.07
L114.217 132.31
L115.109 130.001
L116.512 123.218
L116.64 123.218
L118.043 126.591
L118.171 125.457
L118.936 125.457
L119.573 126.635
L121.232 124.363
L121.869 127.763
L122.635 118.956
L122.762 118.956
L123.4 119.417
L124.293 119.417
L124.93 127.763
L125.696 126.635
L126.333 122.067
L127.354 121.995
L127.354 121.995
L127.864 120.412
L127.864 120.412
L127.991 120.412
L128.757 116.901
L128.884 116.901
L129.522 119.247
L130.287 119.247
L130.415 118.077
L131.052 119.247
L131.818 115.719
L132.583 119.247
L132.583 119.247
L134.113 106.281
L134.369 118.077
L134.879 118.077
L135.644 116.901
L136.537 116.027
L137.94 113.647
L138.705 111.244
L139.598 112.449
L140.235 114.841
L141.001 114.841
L141.766 111.245
L141.893 111.633
L142.531 112.45
L144.827 112.45
L145.592 113.648
L145.72 114.782
L146.357 118.077
L146.485 118.077
L147.123 138.904
L147.25 138.904
L147.888 134.767
L148.653 117.038
L149.546 104.956
L150.184 99.9516
L150.949 120.421
L151.077 120.421
L151.714 122.857
L152.48 120.547
L153.245 120.547
L153.372 119.266
L154.01 117.038
L154.775 119.383
L155.541 118.214
L155.541 118.214
L156.306 120.547
L157.071 117.478
L157.837 116.299
L157.964 103.396
L159.367 130.291
L160.132 125.779
L161.025 118.148
L162.428 122.793
L163.321 116.759
L163.958 116.972
L164.086 119.318
L164.851 113.41
L165.489 121.64
L166.254 127.702
L167.019 114.931
L167.785 127.702
L167.912 127.702
L168.55 127.317
L169.315 124.987
L169.443 128.378
L170.08 127.253
L170.846 131.406
L170.973 131.406
L172.376 123.522
L173.141 120.729
L173.269 118.397
L173.907 116.042
L174.672 119.566
L174.8 118.397
L176.203 116.042
L176.968 113.664
L177.095 113.664
L177.733 111.261
L178.498 118.397
L179.264 119.566
L180.029 119.566
L180.156 116.042
L180.794 112.465
L181.559 112.465
L182.325 114.856
L182.452 114.856
L183.09 123.522
L183.855 122.373
L183.983 121.219
L184.62 118.645
L185.386 117.173
L186.151 124.665
L186.916 122.373
L187.681 124.665
L188.447 159.789
L189.339 143.838
L190.742 136.508
L191.508 134.334
L191.508 134.334
L193.038 131.166
L193.803 133.132
L194.569 129.813
L195.334 133.132
L195.461 133.132
L196.099 132.031
L196.864 132.031
L198.395 128.673
L198.395 128.673
L199.16 125.144
L200.691 133.116
L201.456 132.015
L202.221 132.015
L202.987 134.211
L203.752 134.211
L203.879 135.301
L204.517 135.08
L205.282 130.682
L205.41 127.327
L206.048 125.061
L206.175 120.462
L206.303 120.462
L206.685 118.128
L206.813 115.77
L206.813 115.77
L206.94 115.77
L207.578 119.298
L208.088 113.389
L208.343 113.389
L208.981 132.504
L209.236 132.504
L209.236 132.504
L209.619 131.4
L209.746 130.291
L210.001 131.4
L210.767 132.504
L211.022 131.4
L211.532 135.081
L212.042 135.067
L212.297 132.88
L213.955 132.88
L214.21 131.778
L214.593 131.778
L214.72 130.67
L214.976 130.67
L215.103 131.778
L215.358 130.67
L215.358 130.67
L215.741 130.67
L215.868 131.778
L216.251 131.778
L216.506 130.67
L216.634 129.557
L216.761 129.557
L216.761 129.557
L217.016 128.438
L217.271 125.048
L217.399 120.449
L217.654 121.607
L217.654 121.607
L217.781 121.607
L218.037 119.27
L218.164 120.434
L218.547 127.314
L218.802 127.314
L218.929 126.184
L219.567 126.184
L219.95 127.314
L220.077 126.184
L220.332 127.314
L220.46 127.314
L220.46 127.314
L220.587 126.184
L220.715 126.184
L220.843 130.67
L220.843 130.67
L221.098 128.438
L221.225 131.778
L221.48 131.778
L221.608 130.67
L221.863 127.314
L222.245 127.314
L222.373 126.184
L222.756 121.607
L223.011 127.314
L223.011 127.314
L223.393 121.222
L223.521 121.222
L223.776 118.895
L223.904 118.895
L224.159 120.061
L224.286 118.895
L224.541 120.061
L224.924 120.061
L225.051 117.723
L225.434 135.081
L225.689 135.081
L225.817 133.99
L225.817 133.99
L226.072 133.99
L226.072 133.99
L226.199 130.684
L226.199 130.684
L226.327 117.821
L226.327 117.821
L226.455 117.821
L226.582 116.644
L226.582 116.644
L226.837 111.633
L226.965 95.7051
L227.22 94.4171
L227.347 94.4171
L227.602 128.452
L227.602 128.452
L228.112 128.452
L228.368 129.477
L228.495 129.477
L228.75 128.358
L228.878 129.477
L229.643 129.477
L229.898 128.358
L230.026 128.358
L230.408 124.967
L230.663 124.967
L230.663 124.967
L231.046 123.826
L231.556 123.826
L231.811 122.678
L232.321 122.678
L232.576 121.525
L232.704 120.366
L232.959 121.525
L232.959 121.525
L233.087 122.678
L234.235 122.676
L234.49 121.523
L234.49 121.523
L234.872 121.523
L235 120.364
L235.383 120.364
L235.637 119.199
L235.765 119.199
L236.02 118.029
L236.02 118.029
L236.148 116.754
L236.403 119.199
L236.785 119.199
L236.913 118.029
L237.168 119.199
L237.551 119.199
L237.678 118.029
L237.933 119.199
L239.081 119.199
L239.209 118.029
L239.464 118.956
L239.591 118.956
L239.846 116.607
L239.974 117.785
L240.357 117.785
L240.739 114.234
L240.994 114.234
L241.122 119.199
L241.504 115.67
L241.76 116.853
L241.887 115.67
L242.142 114.482
L242.27 115.67
L242.653 109.21
L242.907 116.853
L243.035 116.853
L243.29 120.364
L243.418 120.364
L243.673 119.199
L243.8 118.029
L244.055 118.029
L244.183 96.9867
L244.438 120.364
L244.565 118.029
L244.821 115.67
L244.948 115.67
L245.203 116.853
L245.203 116.853
L245.331 116.853
L245.586 115.67
L245.713 114.482
L245.968 115.67
L246.861 115.67
L247.116 114.482
L247.244 120.364
L247.499 120.364
L247.882 119.199
L248.009 119.199
L248.392 118.029
L248.647 121.523
L248.774 120.364
L249.03 122.676
L249.03 122.676
L249.157 122.676
L249.412 126.103
L249.922 126.103
L250.177 124.967
L250.305 88.0673
L250.56 126.103
L250.688 126.103
L250.943 124.327
L251.07 125.466
L251.453 125.466
L251.708 123.182
L251.835 123.182
L252.091 124.327
L252.218 124.327
L252.473 123.182
L252.601 123.182
L252.856 122.031
L252.983 122.031
L253.238 120.875
L253.621 120.875
L253.749 122.031
L254.131 122.031
L254.386 120.875
L255.152 120.875
L255.279 119.713
L255.279 119.713
L255.534 125.401
L255.662 125.401
L255.662 125.401
L255.917 124.261
L255.917 124.261
L256.044 125.401
L256.427 125.401
L256.682 124.261
L256.81 124.261
L256.81 124.261
L257.065 125.401
L257.192 124.815
L257.447 125.466
L257.83 125.466
L257.957 124.327
L258.213 125.466
L258.213 125.466
L258.595 124.18
L259.105 124.18
L259.36 123.035
L259.36 123.035
L259.488 124.18
L259.743 123.035
L259.743 123.035
L259.871 119.993
L260.126 117.654
L260.253 121.153
L260.636 124.18
L260.891 124.18
L261.019 121.883
L261.274 123.035
L261.401 121.883
L261.656 123.035
L261.784 118.641
L262.166 121.883
L262.421 132.504
L262.804 132.352
L262.932 130.217
L263.187 130.217
L263.569 125.389
L263.569 125.389
L263.697 125.389
L263.952 124.25
L264.08 124.25
L264.335 121.953
L264.335 121.953
L264.462 121.953
L264.717 131.327
L264.845 131.327
L265.1 133.603
L265.1 133.603
L265.483 133.603
L265.61 131.4
L265.738 131.4
L265.993 130.291
L267.013 130.276
L267.141 131.4
L267.396 130.291
L267.906 130.291
L268.161 129.173
L268.288 129.173
L268.544 130.288
L269.054 130.288
L269.309 129.173
L269.437 130.288
L269.819 130.288
L270.074 129.173
L270.457 129.173
L270.584 128.053
L270.967 128.053
L271.222 124.657
L271.605 124.657
L271.987 126.926
L272.115 126.926
L272.37 125.794
L272.497 111.475
L272.88 111.475
L273.263 111.633
L273.518 103.065
L273.518 103.065
L273.645 123.514
L273.9 122.365
L274.028 125.794
L274.283 124.657
L274.666 124.657
L274.793 123.514
L275.048 126.759
L275.048 126.759
L275.176 126.759
L275.431 129.165
L275.941 118.89
L276.324 118.89
L276.579 129.658
L276.961 124.011
L277.089 122.865
L277.344 119.37
L277.472 115.844
L277.727 115.844
L277.854 114.657
L278.109 115.844
L278.109 115.844
L278.237 120.534
L278.492 119.37
L278.619 127.416
L278.875 129.658
L279.002 128.54
L279.385 128.54
L279.64 127.416
L279.767 129.658
L280.022 128.54
L280.15 129.658
L280.405 130.291
L280.405 130.291
L280.533 131.4
L280.915 131.4
L281.17 133.603
L281.17 133.603
L281.553 133.603
L281.936 130.814
L282.318 132.504
L282.446 133.603
L282.701 130.291
L282.828 130.291
L283.083 125.797
L283.211 126.929
L283.594 123.511
L283.849 122.362
L283.976 122.362
L284.231 123.511
L284.359 123.511
L284.614 124.66
L284.869 124.66
L285.379 123.516
L285.507 122.367
L285.762 121.213
L285.889 121.213
L286.144 120.051
L286.527 120.051
L286.655 121.213
L287.037 121.213
L287.292 120.052
L287.42 117.714
L288.185 117.714
L288.44 118.886
L288.568 120.052
L288.823 118.886
L288.95 118.886
L289.333 122.367
L289.588 120.729
L289.716 120.729
L289.971 119.566
L290.098 119.566
L290.353 118.397
L290.736 118.397
L290.864 117.223
L290.991 117.223
L291.119 118.397
L291.246 117.223
L291.501 119.566
L291.629 119.566
L292.267 113.039
L292.394 105.979
L293.032 105.979
L293.159 111.838
L293.414 113.039
L293.414 113.039
L293.542 113.039
L293.797 118.956
L293.797 118.956
L294.307 118.956
L294.562 117.785
L294.69 117.785
L294.945 116.607
L294.945 116.607
L295.072 117.77
L295.455 117.77
L295.71 115.409
L296.093 115.409
L296.475 118.956
L296.603 118.956
L296.858 91.421
L296.986 90.1116
L297.241 118.956
L297.368 116.607
L297.623 115.424
L298.006 111.838
L298.516 111.838
L298.771 109.417
L298.899 110.63
L299.154 110.63
L299.281 114.233
L299.664 114.234
L299.919 122.367
L300.302 122.367
L300.302 122.367
L300.429 130.291
L300.812 126.929
L301.067 128.055
L301.195 125.797
L301.577 125.797
L301.832 126.929
L302.597 126.929
L302.597 126.929
L302.98 129.176
L303.108 129.176
L303.235 128.055
L304.511 128.055
L304.893 126.929
L305.403 126.928
L305.659 128.055
L305.786 129.176
L306.041 128.055
L306.169 130.291
L311.525 130.291
L311.781 128.498
L311.908 129.616
L312.673 126.127
L312.928 126.127
L313.056 126.273
L313.311 129.502
L313.439 60.505
L313.694 130.049
L313.821 130.291
L315.989 130.291
L316.372 128.854
L316.882 124.228
L317.137 125.367
L317.265 124.228
L317.648 124.228
L317.903 121.931
L318.03 121.931
L318.285 120.774
L318.413 120.774
L318.668 120.417
L318.795 120.774
L319.178 118.736
L319.433 117.269
L319.433 117.269
L319.561 117.269
L319.816 118.443
L319.943 119.612
L320.326 119.612
L320.709 116.089
L320.964 114.903
L320.964 114.903
L321.346 116.089
L321.474 114.903
L321.729 113.711
L322.112 112.513
L322.239 112.513
L322.877 119.612
L323.77 119.612
L324.025 117.269
L324.025 117.269
L324.152 117.269
L324.407 119.612
L324.79 119.612
L324.917 118.443
L326.066 118.443
L326.32 120.774
L326.448 120.774
L326.703 119.612
L326.831 119.612
L327.086 120.774
L327.213 120.774
L327.468 119.612
L327.979 119.542
L328.234 118.373
L328.361 118.373
L328.744 119.612
L328.999 117.269
L329.381 117.269
L329.509 114.903
L329.764 113.711
L329.892 116.089
L330.147 116.089
L330.274 113.711
L330.529 116.089
L330.657 118.443
L331.04 114.903
L331.295 114.903
L331.422 116.089
L331.677 124.815
L331.805 123.672
L332.06 127.63
L332.187 126.501
L332.443 126.501
L332.57 124.228
L332.825 123.082
L332.953 124.228
L333.208 123.082
L333.335 120.774
L333.59 123.082
L333.718 123.082
L333.973 121.931
L334.101 124.228
L334.483 120.774
L334.866 110.168
L335.121 123.082
L335.248 123.082
L335.504 120.774
L335.631 124.228
L335.886 123.082
L336.014 123.082
L336.269 120.774
L336.651 120.774
L336.779 121.931
L337.034 120.773
L337.162 120.773
L337.417 123.082
L337.544 120.729
L337.799 123.082
L337.927 126.28
L338.182 123.996
L338.309 123.996
L338.692 120.14
L338.947 123.996
L339.075 123.996
L339.33 122.618
L339.457 122.618
L339.712 121.465
L339.84 121.465
L339.968 120.305
L340.223 119.14
L340.478 119.14
L340.605 121.465
L340.86 116.793
L340.988 116.793
L341.243 114.422
L341.371 114.422
L341.626 113.228
L341.753 113.228
L342.008 114.422
L342.518 114.422
L342.773 113.228
L342.901 113.228
L343.156 91.4197
L343.284 90.1103
L343.539 116.793
L343.921 113.228
L343.921 113.228
L344.049 113.228
L344.304 112.027
L344.432 110.821
L344.687 113.228
L344.814 113.228
L345.069 116.793
L345.197 116.793
L345.452 120.305
L345.452 120.305
L345.579 115.295
L345.835 125.137
L346.217 118.056
L346.345 118.056
L346.6 121.55
L346.727 120.244
L347.11 120.391
L347.365 122.703
L347.493 121.55
L347.748 120.391
L347.875 123.672
L348.13 122.524
L348.258 123.672
L348.513 122.524
L348.896 122.524
L349.023 119.045
L349.278 124.815
L349.788 124.815
L350.043 125.137
L350.171 123.996
L350.426 123.996
L350.554 127.598
L350.809 127.63
L350.936 126.469
L351.191 127.598
L351.319 126.469
L351.702 118.41
L351.957 121.898
L352.084 121.898
L352.467 117.236
L352.722 116.055
L352.849 114.869
L353.104 121.898
L353.487 121.898
L353.615 124.195
L353.87 121.898
L353.87 121.898
L354.252 124.195
L354.38 124.195
L354.635 123.05
L354.763 121.898
L355.018 120.741
L355.145 120.741
L355.4 119.579
L355.4 119.579
L355.528 125.335
L355.783 125.335
L355.91 124.195
L356.165 126.28
L356.165 126.28
L356.293 128.721
L356.676 115.653
L356.931 114.465
L357.313 107.21
L357.568 110.864
L357.824 110.864
L358.079 109.652
L358.589 109.652
L358.844 107.21
L358.971 107.21
L359.227 105.979
L359.354 112.071
L359.737 112.071
L359.992 113.271
L360.119 113.271
L360.374 124.815
L360.885 124.815
L361.14 123.672
L361.267 123.672
L361.522 124.815
L361.65 124.815
L361.905 133.603
L362.032 132.504
L362.288 133.603
L362.798 129.174
L363.053 133.603
L363.18 133.603
L363.435 132.504
L363.563 131.4
L363.818 130.291
L364.201 130.291
L364.328 129.176
L364.583 128.055
L365.349 128.055
L365.476 126.929
L365.731 130.291
L366.624 130.291
L366.879 128.055
L367.007 129.176
L367.262 128.055
L367.389 129.176
L367.772 129.176
L368.027 126.28
L368.155 126.28
L368.41 130.291
L368.792 130.291
L369.175 129.176
L369.557 129.135
L369.685 126.887
L369.94 125.755
L370.068 124.618
L370.323 123.474
L370.45 120.01
L370.705 121.17
L370.833 124.618
L371.216 124.618
L371.471 125.144
L371.981 125.144
L372.236 122.857
L372.746 122.857
L373.001 121.705
L373.129 122.857
L373.384 121.705
L373.511 121.705
L374.149 111.633
L374.277 114.67
L374.532 115.857
L375.424 115.857
L375.68 114.67
L375.807 114.67
L376.062 113.477
L376.19 113.477
L376.445 114.67
L376.827 114.67
L376.955 113.477
L377.21 114.67
L377.338 114.67
L377.593 113.477
L377.593 113.477
L377.848 113.477
L378.103 112.277
L378.741 112.277
L378.868 113.477
L379.123 112.277
L380.016 112.277
L380.271 113.477
L380.781 113.477
L381.036 120.547
L381.419 120.547
L381.547 124.815
L381.802 123.672
L381.929 122.524
L382.184 123.672
L382.312 127.744
L382.567 126.616
L382.694 126.616
L382.949 127.744
L383.077 127.744
L383.332 130.291
L383.46 130.291
L383.715 129.176
L384.097 129.176
L384.225 128.055
L384.48 126.928
L384.608 126.928
L384.863 124.658
L385.245 123.516
L385.373 123.516
L385.628 120.052
L385.755 120.052
L386.011 118.886
L386.138 120.052
L386.393 118.956
L386.521 118.956
L386.776 122.367
L386.903 122.367
L387.158 124.66
L387.286 123.516
L388.051 123.516
L388.306 122.362
L388.306 122.362
L388.434 122.362
L388.689 121.207
L388.816 121.207
L389.072 89.6635
L389.199 120.421
L389.454 119.257
L389.582 119.257
L389.837 120.421
L389.964 119.257
L390.219 120.421
L390.347 120.046
L390.602 117.708
L391.495 117.643
L391.75 115.127
L391.878 116.312
L392.133 117.491
L392.26 117.491
L392.515 115.294
L392.643 112.908
L392.898 111.706
L393.28 111.706
L393.408 110.498
L393.663 111.706
L394.046 108.064
L394.173 108.064
L394.173 108.064
L394.556 109.283
L394.811 109.283
L394.939 108.063
L395.194 106.836
L395.321 106.836
L395.576 115.294
L396.086 115.294
L396.341 130.291
L399.02 130.291
L399.53 127.493
L399.785 127.012
L400.295 119.508
L400.55 119.508
L400.678 117.487
L400.933 120.123
L401.061 120.123
L401.316 118.957
L401.443 116.608
L401.698 118.957
L401.826 117.785
L402.208 117.785
L402.464 114.841
L402.591 116.027
L402.846 112.45
L402.974 114.841
L403.356 111.245
L403.739 111.245
L403.994 112.45
L404.122 112.45
L404.377 114.841
L404.504 113.648
L404.759 113.648
L404.887 116.027
L405.142 117.785
L405.269 116.608
L405.525 118.957
L405.652 118.957
L405.907 117.785
L406.035 118.957
L406.29 117.785
L406.417 122.437
L406.672 121.283
L407.055 121.283
L407.183 122.437
L407.438 122.437
L407.565 123.672
L408.331 123.672
L408.586 120.071
L408.713 120.071
L408.968 118.904
L409.096 120.071
L409.351 118.904
L409.478 118.904
L409.733 121.37
L409.861 119.045
L410.499 119.045
L410.626 124.815
L410.881 124.815
L411.009 122.524
L411.264 123.672
L411.647 120.211
L411.774 120.211
L412.029 119.045
L412.157 119.045
L412.412 122.524
L412.667 120.211
L413.05 122.524
L413.305 121.37
L413.56 122.524
L413.687 122.524
L413.942 123.672
L414.453 123.672
L414.708 122.524
L414.835 121.37
L415.6 121.37
L415.856 119.045
L416.621 119.044
L416.748 117.329
L417.003 116.149
L417.131 116.149
L417.386 113.772
L417.514 119.045
L417.769 119.045
L417.896 120.211
L418.661 120.211
L418.917 119.045
L419.044 119.045
L419.299 121.37
L419.682 121.37
L419.809 120.211
L420.064 120.211
L420.192 117.874
L420.447 119.045
L420.575 119.045
L420.957 117.874
L421.212 117.874
L421.34 116.697
L421.595 115.514
L421.723 116.697
L421.978 115.514
L422.105 113.369
L422.488 113.369
L422.743 112.169
L422.87 109.752
L423.253 114.562
L423.508 114.562
L423.636 112.169
L423.891 117.492
L424.273 117.492
L424.401 116.313
L424.784 116.313
L425.039 116.697
L425.166 115.514
L425.421 117.874
L425.549 117.874
L425.804 119.045
L425.931 117.492
L426.187 117.492
L426.569 116.313
L426.697 119.045
L426.952 118.956
L427.334 119.045
L427.462 116.697
L427.717 119.045
L427.845 117.874
L428.1 119.045
L428.227 115.295
L428.482 112.884
L428.61 121.37
L428.992 121.37
L429.248 120.211
L429.375 120.211
L429.63 103.228
L429.758 119.045
L430.14 118.956
L430.524 124.815
L430.778 122.524
L430.906 123.672
L431.033 122.524
L431.288 117.699
L432.436 117.699
L432.691 118.956
L432.691 118.956
L432.819 118.956
L433.074 122.524
L433.201 122.524
L433.456 121.37
L433.584 124.815
L434.349 124.815
L434.604 123.672
L435.115 123.672
L435.497 103.857
L435.752 103.857
L435.88 102.609
L436.135 102.609
L436.262 123.672
L436.517 124.815
L436.645 124.815
L436.9 129.209
L437.028 129.209
L437.283 118.956
L437.41 118.956
L437.665 129.209
L437.793 129.209
L438.048 129.847
L438.176 128.73
L438.431 127.607
L438.558 127.607
L438.941 123.059
L439.196 121.908
L439.579 124.205
L439.706 124.205
L439.961 123.059
L440.344 123.059
L440.344 123.059
L440.471 120.751
L440.726 124.205
L441.109 123.059
L441.237 121.886
L441.492 120.729
L441.619 123.059
L441.874 120.443
L441.874 120.443
L442.002 120.443
L442.64 124.205
L442.767 124.205
L443.022 123.672
L443.15 123.672
L443.405 122.524
L443.533 123.672
L443.787 122.524
L443.915 121.37
L444.17 122.524
L444.298 122.396
L444.553 123.672
L444.68 123.672
L445.063 125.345
L445.318 125.345
L445.445 124.205
L445.701 124.205
L446.083 125.345
L446.211 124.205
L446.466 124.205
L446.593 124.083
L446.848 122.936
L447.359 122.936
L447.614 120.627
L447.741 120.627
L447.996 118.956
L448.124 118.956
L448.379 124.808
L448.507 135.001
L448.889 132.662
L449.144 132.662
L449.527 129.336
L449.527 129.336
L450.037 129.336
L450.165 130.45
L450.42 130.45
L450.802 136.295
L451.057 135.154
L451.185 135.154
L451.44 134.063
L451.568 131.865
L451.823 136.239
L451.95 135.153
L452.205 135.067
L452.333 133.976
L452.588 133.976
L452.715 135.001
L452.971 135.001
L453.098 133.91
L453.353 133.91
L453.481 133.603
L454.118 133.603
L454.246 132.504
L454.501 132.504
L454.629 133.53
L454.884 131.384
L454.884 131.384
L455.011 131.384
L455.266 111.633
L455.394 131.384
L455.649 130.274
L455.776 131.384
L456.414 131.299
L456.542 129.074
L456.797 129.074
L456.924 131.299
L457.179 118.956
L457.307 130.274
L457.562 128.038
L457.69 128.038
L457.945 123.499
L458.327 123.499
L458.455 123.672
L458.71 112.583
L458.837 123.672
L459.093 121.37
L459.22 121.37
L459.475 128.038
L459.603 126.912
L459.985 126.912
L460.24 128.038
L460.623 128.038
L460.751 127.351
L461.771 127.291
L461.899 125.025
L462.281 125.025
L462.536 123.884
L462.664 123.884
L463.046 120.301
L463.301 123.884
L463.429 122.736
L463.684 122.736
L463.812 121.584
L464.449 121.584
L464.577 126.161
L464.96 126.161
L465.342 128.038
L465.597 126.912
L465.597 126.912
L465.725 126.912
L465.98 128.038
L466.745 128.038
L466.873 125.447
L467.128 123.163
L467.128 123.163
L467.256 124.308
L467.51 123.163
L467.893 128.038
L468.276 128.038
L468.658 126.912
L468.786 128.038
L469.041 126.912
L469.168 124.642
L469.806 121.046
L469.934 119.885
L470.189 121.046
L470.316 121.046
L470.571 123.351
L470.699 123.351
L470.954 124.642
L471.082 124.522
L471.464 124.522
L471.719 123.378
L471.847 125.78
L472.102 124.642
L472.485 124.642
L472.867 128.038
L472.995 128.038
L473.25 126.912
L473.377 126.912
L473.632 125.78
L473.76 124.642
L474.015 128.038
L474.143 96.9867
L474.398 130.875
L474.525 128.645
L474.78 130.875
L475.163 130.875
L475.291 128.645
L475.546 126.393
L475.673 126.393
L475.928 127.522
L476.056 128.645
L476.311 123.672
L477.076 123.672
L477.204 121.37
L477.586 121.37
L477.841 120.211
L477.969 119.045
L478.224 122.524
L478.607 122.523
L478.734 119.257
L478.989 118.086
L479.117 118.086
L479.372 118.955
L479.499 104.754
L479.755 117.484
L479.882 116.891
L480.137 117.484
L480.265 118.955
L480.52 114.233
L480.647 114.233
L480.902 118.086
L481.285 118.086
L481.413 119.257
L482.05 119.257
L482.178 118.086
L482.433 119.257
L482.816 119.257
L482.943 123.672
L483.198 123.672
L483.326 122.524
L483.581 122.524
L483.708 123.672
L483.963 122.524
L484.091 121.37
L484.346 125.439
L484.474 125.439
L484.729 124.3
L484.856 123.155
L485.111 122.004
L485.239 120.847
L485.494 114.978
L485.877 116.163
L486.387 116.163
L486.642 120.847
L486.769 120.847
L487.024 118.517
L487.535 118.517
L487.79 117.343
L487.917 117.343
L488.172 116.163
L488.3 116.163
L488.555 114.978
L489.448 114.978
L489.703 113.786
L489.83 116.163
L490.085 118.517
L490.468 118.517
L490.596 117.343
L490.978 117.343
L491.233 118.517
L491.616 118.517
L491.744 117.052
L492.126 117.052
L492.509 113.212
L492.764 117.052
L492.891 115.871
L493.274 115.871
L493.529 117.052
L493.657 117.052
L493.912 114.684
L494.04 114.977
L494.294 117.052
L494.422 117.052
L494.677 115.871
L494.805 114.684
L495.06 115.871
L495.825 115.871
L495.825 115.871
L495.952 114.684
L496.208 115.871
L496.335 112.292
L496.59 111.087
L496.973 117.343
L497.1 114.978
L497.355 113.786
L497.738 117.316
L497.866 117.316
L498.121 116.136
L499.013 116.136
L499.269 117.316
L499.269 117.316
L499.396 113.207
L499.651 114.95
L499.779 113.758
L500.034 110.147
L500.161 117.316
L500.416 116.136
L500.544 114.95
L500.799 116.136
L500.927 116.136
L501.182 118.517
L501.309 118.517
L501.564 116.163
L501.692 118.517
L501.947 117.343
L502.075 117.343
L502.33 116.163
L502.457 116.163
L502.712 114.978
L502.84 114.978
L503.222 110.693
L503.477 110.693
L503.605 109.48
L503.86 110.693
L505.136 110.693
L505.391 118.517
L506.283 118.517
L506.539 117.343
L506.666 116.163
L506.921 114.978
L507.049 114.978
L507.304 118.517
L507.431 118.517
L507.686 117.343
L507.814 118.517
L509.344 118.517
L509.6 117.343
L509.982 117.343
L510.365 114.978
L510.492 118.517
L510.747 118.517
L510.875 117.343
L511.13 116.163
L511.513 113.786
L511.64 117.343
L511.895 118.517
L512.023 118.517
L512.405 110.425
L512.661 111.633
L512.788 111.633
L513.043 117.343
L513.171 117.343
L513.426 118.222
L513.553 117.046
L513.808 118.517
L513.936 118.517
L514.191 96.9867
L514.574 96.9867
L514.701 95.7051
L514.956 59.4359
L515.084 57.9666
L515.339 95.7051
L515.722 95.7051
L515.849 93.1227
L516.104 115.148
L516.487 115.148
L516.614 117.343
L516.869 116.163
L516.997 116.163
L517.252 114.978
L517.38 114.978
L517.635 116.163
L517.762 116.163
L518.017 117.343
L518.145 117.343
L518.4 118.517
L518.4 118.517" style="fill:none;stroke:#ff0000;stroke-linecap:square;"/>
   </g>
   <g id="line2d_2">
    <path clip-path="url(#pcb2bf987bf)" d="
M72 345.073
L196.864 345.175
L207.578 345.179
L208.343 345.102
L213.573 345.107
L388.306 345.184
L388.306 345.184
L388.434 339.591
L389.072 339.591
L389.199 345.18
L518.4 345.145
L518.4 345.145" style="fill:none;stroke:#008000;stroke-linecap:square;"/>
   </g>
   <g id="patch_3">
    <path d="
M72 43.2
L518.4 43.2" style="fill:none;stroke:#000000;stroke-linecap:square;stroke-linejoin:miter;"/>
   </g>
   <g id="patch_4">
    <path d="
M518.4 345.6
L518.4 43.2" style="fill:none;stroke:#000000;stroke-linecap:square;stroke-linejoin:miter;"/>
   </g>
   <g id="patch_5">
    <path d="
M72 345.6
L518.4 345.6" style="fill:none;stroke:#000000;stroke-linecap:square;stroke-linejoin:miter;"/>
   </g>
   <g id="patch_6">
    <path d="
M72 345.6
L72 43.2" style="fill:none;stroke:#000000;stroke-linecap:square;stroke-linejoin:miter;"/>
   </g>
   <g id="matplotlib.axis_1">
    <g id="xtick_1">
     <g id="line2d_3">
      <defs>
       <path d="
M0 0
L0 -4" id="m93b0483c22" style="stroke:#000000;stroke-width:0.5;"/>
      </defs>
      <g>
       <use style="stroke:#000000;stroke-width:0.5;" x="118.170301715" xlink:href="#m93b0483c22" y="345.6"/>
      </g>
     </g>
     <g id="line2d_4">
      <defs>
       <path d="
M0 0
L0 4" id="m741efc42ff" style="stroke:#000000;stroke-width:0.5;"/>
      </defs>
      <g>
       <use style="stroke:#000000;stroke-width:0.5;" x="118.170301715" xlink:href="#m741efc42ff" y="43.2"/>
      </g>
     </g>
     <g id="text_1">
      <!-- Oct 13 2015 -->
      <defs>
       <path d="
M19.1875 8.29688
L53.6094 8.29688
L53.6094 0
L7.32812 0
L7.32812 8.29688
Q12.9375 14.1094 22.625 23.8906
Q32.3281 33.6875 34.8125 36.5312
Q39.5469 41.8438 41.4219 45.5312
Q43.3125 49.2188 43.3125 52.7812
Q43.3125 58.5938 39.2344 62.25
Q35.1562 65.9219 28.6094 65.9219
Q23.9688 65.9219 18.8125 64.3125
Q13.6719 62.7031 7.8125 59.4219
L7.8125 69.3906
Q13.7656 71.7812 18.9375 73
Q24.125 74.2188 28.4219 74.2188
Q39.75 74.2188 46.4844 68.5469
Q53.2188 62.8906 53.2188 53.4219
Q53.2188 48.9219 51.5312 44.8906
Q49.8594 40.875 45.4062 35.4062
Q44.1875 33.9844 37.6406 27.2188
Q31.1094 20.4531 19.1875 8.29688" id="BitstreamVeraSans-Roman-32"/>
       <path d="
M39.4062 66.2188
Q28.6562 66.2188 22.3281 58.2031
Q16.0156 50.2031 16.0156 36.375
Q16.0156 22.6094 22.3281 14.5938
Q28.6562 6.59375 39.4062 6.59375
Q50.1406 6.59375 56.4219 14.5938
Q62.7031 22.6094 62.7031 36.375
Q62.7031 50.2031 56.4219 58.2031
Q50.1406 66.2188 39.4062 66.2188
M39.4062 74.2188
Q54.7344 74.2188 63.9062 63.9375
Q73.0938 53.6562 73.0938 36.375
Q73.0938 19.1406 63.9062 8.85938
Q54.7344 -1.42188 39.4062 -1.42188
Q24.0312 -1.42188 14.8125 8.82812
Q5.60938 19.0938 5.60938 36.375
Q5.60938 53.6562 14.8125 63.9375
Q24.0312 74.2188 39.4062 74.2188" id="BitstreamVeraSans-Roman-4f"/>
       <path d="
M31.7812 66.4062
Q24.1719 66.4062 20.3281 58.9062
Q16.5 51.4219 16.5 36.375
Q16.5 21.3906 20.3281 13.8906
Q24.1719 6.39062 31.7812 6.39062
Q39.4531 6.39062 43.2812 13.8906
Q47.125 21.3906 47.125 36.375
Q47.125 51.4219 43.2812 58.9062
Q39.4531 66.4062 31.7812 66.4062
M31.7812 74.2188
Q44.0469 74.2188 50.5156 64.5156
Q56.9844 54.8281 56.9844 36.375
Q56.9844 17.9688 50.5156 8.26562
Q44.0469 -1.42188 31.7812 -1.42188
Q19.5312 -1.42188 13.0625 8.26562
Q6.59375 17.9688 6.59375 36.375
Q6.59375 54.8281 13.0625 64.5156
Q19.5312 74.2188 31.7812 74.2188" id="BitstreamVeraSans-Roman-30"/>
       <path d="
M12.4062 8.29688
L28.5156 8.29688
L28.5156 63.9219
L10.9844 60.4062
L10.9844 69.3906
L28.4219 72.9062
L38.2812 72.9062
L38.2812 8.29688
L54.3906 8.29688
L54.3906 0
L12.4062 0
z
" id="BitstreamVeraSans-Roman-31"/>
       <path d="
M40.5781 39.3125
Q47.6562 37.7969 51.625 33
Q55.6094 28.2188 55.6094 21.1875
Q55.6094 10.4062 48.1875 4.48438
Q40.7656 -1.42188 27.0938 -1.42188
Q22.5156 -1.42188 17.6562 -0.515625
Q12.7969 0.390625 7.625 2.20312
L7.625 11.7188
Q11.7188 9.32812 16.5938 8.10938
Q21.4844 6.89062 26.8125 6.89062
Q36.0781 6.89062 40.9375 10.5469
Q45.7969 14.2031 45.7969 21.1875
Q45.7969 27.6406 41.2812 31.2656
Q36.7656 34.9062 28.7188 34.9062
L20.2188 34.9062
L20.2188 43.0156
L29.1094 43.0156
Q36.375 43.0156 40.2344 45.9219
Q44.0938 48.8281 44.0938 54.2969
Q44.0938 59.9062 40.1094 62.9062
Q36.1406 65.9219 28.7188 65.9219
Q24.6562 65.9219 20.0156 65.0312
Q15.375 64.1562 9.8125 62.3125
L9.8125 71.0938
Q15.4375 72.6562 20.3438 73.4375
Q25.25 74.2188 29.5938 74.2188
Q40.8281 74.2188 47.3594 69.1094
Q53.9062 64.0156 53.9062 55.3281
Q53.9062 49.2656 50.4375 45.0938
Q46.9688 40.9219 40.5781 39.3125" id="BitstreamVeraSans-Roman-33"/>
       <path id="BitstreamVeraSans-Roman-20"/>
       <path d="
M10.7969 72.9062
L49.5156 72.9062
L49.5156 64.5938
L19.8281 64.5938
L19.8281 46.7344
Q21.9688 47.4688 24.1094 47.8281
Q26.2656 48.1875 28.4219 48.1875
Q40.625 48.1875 47.75 41.5
Q54.8906 34.8125 54.8906 23.3906
Q54.8906 11.625 47.5625 5.09375
Q40.2344 -1.42188 26.9062 -1.42188
Q22.3125 -1.42188 17.5469 -0.640625
Q12.7969 0.140625 7.71875 1.70312
L7.71875 11.625
Q12.1094 9.23438 16.7969 8.0625
Q21.4844 6.89062 26.7031 6.89062
Q35.1562 6.89062 40.0781 11.3281
Q45.0156 15.7656 45.0156 23.3906
Q45.0156 31 40.0781 35.4375
Q35.1562 39.8906 26.7031 39.8906
Q22.75 39.8906 18.8125 39.0156
Q14.8906 38.1406 10.7969 36.2812
z
" id="BitstreamVeraSans-Roman-35"/>
       <path d="
M18.3125 70.2188
L18.3125 54.6875
L36.8125 54.6875
L36.8125 47.7031
L18.3125 47.7031
L18.3125 18.0156
Q18.3125 11.3281 20.1406 9.42188
Q21.9688 7.51562 27.5938 7.51562
L36.8125 7.51562
L36.8125 0
L27.5938 0
Q17.1875 0 13.2344 3.875
Q9.28125 7.76562 9.28125 18.0156
L9.28125 47.7031
L2.6875 47.7031
L2.6875 54.6875
L9.28125 54.6875
L9.28125 70.2188
z
" id="BitstreamVeraSans-Roman-74"/>
       <path d="
M48.7812 52.5938
L48.7812 44.1875
Q44.9688 46.2969 41.1406 47.3438
Q37.3125 48.3906 33.4062 48.3906
Q24.6562 48.3906 19.8125 42.8438
Q14.9844 37.3125 14.9844 27.2969
Q14.9844 17.2812 19.8125 11.7344
Q24.6562 6.20312 33.4062 6.20312
Q37.3125 6.20312 41.1406 7.25
Q44.9688 8.29688 48.7812 10.4062
L48.7812 2.09375
Q45.0156 0.34375 40.9844 -0.53125
Q36.9688 -1.42188 32.4219 -1.42188
Q20.0625 -1.42188 12.7812 6.34375
Q5.51562 14.1094 5.51562 27.2969
Q5.51562 40.6719 12.8594 48.3281
Q20.2188 56 33.0156 56
Q37.1562 56 41.1094 55.1406
Q45.0625 54.2969 48.7812 52.5938" id="BitstreamVeraSans-Roman-63"/>
      </defs>
      <g transform="translate(53.5830149798 394.065590385)rotate(-30.0)scale(0.12 -0.12)">
       <use xlink:href="#BitstreamVeraSans-Roman-4f"/>
       <use x="78.7109375" xlink:href="#BitstreamVeraSans-Roman-63"/>
       <use x="133.69140625" xlink:href="#BitstreamVeraSans-Roman-74"/>
       <use x="172.900390625" xlink:href="#BitstreamVeraSans-Roman-20"/>
       <use x="204.6875" xlink:href="#BitstreamVeraSans-Roman-31"/>
       <use x="268.310546875" xlink:href="#BitstreamVeraSans-Roman-33"/>
       <use x="331.93359375" xlink:href="#BitstreamVeraSans-Roman-20"/>
       <use x="363.720703125" xlink:href="#BitstreamVeraSans-Roman-32"/>
       <use x="427.34375" xlink:href="#BitstreamVeraSans-Roman-30"/>
       <use x="490.966796875" xlink:href="#BitstreamVeraSans-Roman-31"/>
       <use x="554.58984375" xlink:href="#BitstreamVeraSans-Roman-35"/>
      </g>
     </g>
    </g>
    <g id="xtick_2">
     <g id="line2d_5">
      <g>
       <use style="stroke:#000000;stroke-width:0.5;" x="173.268816" xlink:href="#m93b0483c22" y="345.6"/>
      </g>
     </g>
     <g id="line2d_6">
      <g>
       <use style="stroke:#000000;stroke-width:0.5;" x="173.268816" xlink:href="#m741efc42ff" y="43.2"/>
      </g>
     </g>
     <g id="text_2">
      <!-- Oct 16 2015 -->
      <defs>
       <path d="
M33.0156 40.375
Q26.375 40.375 22.4844 35.8281
Q18.6094 31.2969 18.6094 23.3906
Q18.6094 15.5312 22.4844 10.9531
Q26.375 6.39062 33.0156 6.39062
Q39.6562 6.39062 43.5312 10.9531
Q47.4062 15.5312 47.4062 23.3906
Q47.4062 31.2969 43.5312 35.8281
Q39.6562 40.375 33.0156 40.375
M52.5938 71.2969
L52.5938 62.3125
Q48.875 64.0625 45.0938 64.9844
Q41.3125 65.9219 37.5938 65.9219
Q27.8281 65.9219 22.6719 59.3281
Q17.5312 52.7344 16.7969 39.4062
Q19.6719 43.6562 24.0156 45.9219
Q28.375 48.1875 33.5938 48.1875
Q44.5781 48.1875 50.9531 41.5156
Q57.3281 34.8594 57.3281 23.3906
Q57.3281 12.1562 50.6875 5.35938
Q44.0469 -1.42188 33.0156 -1.42188
Q20.3594 -1.42188 13.6719 8.26562
Q6.98438 17.9688 6.98438 36.375
Q6.98438 53.6562 15.1875 63.9375
Q23.3906 74.2188 37.2031 74.2188
Q40.9219 74.2188 44.7031 73.4844
Q48.4844 72.75 52.5938 71.2969" id="BitstreamVeraSans-Roman-36"/>
      </defs>
      <g transform="translate(108.681529265 394.065590385)rotate(-30.0)scale(0.12 -0.12)">
       <use xlink:href="#BitstreamVeraSans-Roman-4f"/>
       <use x="78.7109375" xlink:href="#BitstreamVeraSans-Roman-63"/>
       <use x="133.69140625" xlink:href="#BitstreamVeraSans-Roman-74"/>
       <use x="172.900390625" xlink:href="#BitstreamVeraSans-Roman-20"/>
       <use x="204.6875" xlink:href="#BitstreamVeraSans-Roman-31"/>
       <use x="268.310546875" xlink:href="#BitstreamVeraSans-Roman-36"/>
       <use x="331.93359375" xlink:href="#BitstreamVeraSans-Roman-20"/>
       <use x="363.720703125" xlink:href="#BitstreamVeraSans-Roman-32"/>
       <use x="427.34375" xlink:href="#BitstreamVeraSans-Roman-30"/>
       <use x="490.966796875" xlink:href="#BitstreamVeraSans-Roman-31"/>
       <use x="554.58984375" xlink:href="#BitstreamVeraSans-Roman-35"/>
      </g>
     </g>
    </g>
    <g id="xtick_3">
     <g id="line2d_7">
      <g>
       <use style="stroke:#000000;stroke-width:0.5;" x="228.367330285" xlink:href="#m93b0483c22" y="345.6"/>
      </g>
     </g>
     <g id="line2d_8">
      <g>
       <use style="stroke:#000000;stroke-width:0.5;" x="228.367330285" xlink:href="#m741efc42ff" y="43.2"/>
      </g>
     </g>
     <g id="text_3">
      <!-- Oct 19 2015 -->
      <defs>
       <path d="
M10.9844 1.51562
L10.9844 10.5
Q14.7031 8.73438 18.5 7.8125
Q22.3125 6.89062 25.9844 6.89062
Q35.75 6.89062 40.8906 13.4531
Q46.0469 20.0156 46.7812 33.4062
Q43.9531 29.2031 39.5938 26.9531
Q35.25 24.7031 29.9844 24.7031
Q19.0469 24.7031 12.6719 31.3125
Q6.29688 37.9375 6.29688 49.4219
Q6.29688 60.6406 12.9375 67.4219
Q19.5781 74.2188 30.6094 74.2188
Q43.2656 74.2188 49.9219 64.5156
Q56.5938 54.8281 56.5938 36.375
Q56.5938 19.1406 48.4062 8.85938
Q40.2344 -1.42188 26.4219 -1.42188
Q22.7031 -1.42188 18.8906 -0.6875
Q15.0938 0.046875 10.9844 1.51562
M30.6094 32.4219
Q37.25 32.4219 41.125 36.9531
Q45.0156 41.5 45.0156 49.4219
Q45.0156 57.2812 41.125 61.8438
Q37.25 66.4062 30.6094 66.4062
Q23.9688 66.4062 20.0938 61.8438
Q16.2188 57.2812 16.2188 49.4219
Q16.2188 41.5 20.0938 36.9531
Q23.9688 32.4219 30.6094 32.4219" id="BitstreamVeraSans-Roman-39"/>
      </defs>
      <g transform="translate(163.78004355 394.065590385)rotate(-30.0)scale(0.12 -0.12)">
       <use xlink:href="#BitstreamVeraSans-Roman-4f"/>
       <use x="78.7109375" xlink:href="#BitstreamVeraSans-Roman-63"/>
       <use x="133.69140625" xlink:href="#BitstreamVeraSans-Roman-74"/>
       <use x="172.900390625" xlink:href="#BitstreamVeraSans-Roman-20"/>
       <use x="204.6875" xlink:href="#BitstreamVeraSans-Roman-31"/>
       <use x="268.310546875" xlink:href="#BitstreamVeraSans-Roman-39"/>
       <use x="331.93359375" xlink:href="#BitstreamVeraSans-Roman-20"/>
       <use x="363.720703125" xlink:href="#BitstreamVeraSans-Roman-32"/>
       <use x="427.34375" xlink:href="#BitstreamVeraSans-Roman-30"/>
       <use x="490.966796875" xlink:href="#BitstreamVeraSans-Roman-31"/>
       <use x="554.58984375" xlink:href="#BitstreamVeraSans-Roman-35"/>
      </g>
     </g>
    </g>
    <g id="xtick_4">
     <g id="line2d_9">
      <g>
       <use style="stroke:#000000;stroke-width:0.5;" x="283.465844572" xlink:href="#m93b0483c22" y="345.6"/>
      </g>
     </g>
     <g id="line2d_10">
      <g>
       <use style="stroke:#000000;stroke-width:0.5;" x="283.465844572" xlink:href="#m741efc42ff" y="43.2"/>
      </g>
     </g>
     <g id="text_4">
      <!-- Oct 22 2015 -->
      <g transform="translate(218.878557836 394.065590385)rotate(-30.0)scale(0.12 -0.12)">
       <use xlink:href="#BitstreamVeraSans-Roman-4f"/>
       <use x="78.7109375" xlink:href="#BitstreamVeraSans-Roman-63"/>
       <use x="133.69140625" xlink:href="#BitstreamVeraSans-Roman-74"/>
       <use x="172.900390625" xlink:href="#BitstreamVeraSans-Roman-20"/>
       <use x="204.6875" xlink:href="#BitstreamVeraSans-Roman-32"/>
       <use x="268.310546875" xlink:href="#BitstreamVeraSans-Roman-32"/>
       <use x="331.93359375" xlink:href="#BitstreamVeraSans-Roman-20"/>
       <use x="363.720703125" xlink:href="#BitstreamVeraSans-Roman-32"/>
       <use x="427.34375" xlink:href="#BitstreamVeraSans-Roman-30"/>
       <use x="490.966796875" xlink:href="#BitstreamVeraSans-Roman-31"/>
       <use x="554.58984375" xlink:href="#BitstreamVeraSans-Roman-35"/>
      </g>
     </g>
    </g>
    <g id="xtick_5">
     <g id="line2d_11">
      <g>
       <use style="stroke:#000000;stroke-width:0.5;" x="338.564358857" xlink:href="#m93b0483c22" y="345.6"/>
      </g>
     </g>
     <g id="line2d_12">
      <g>
       <use style="stroke:#000000;stroke-width:0.5;" x="338.564358857" xlink:href="#m741efc42ff" y="43.2"/>
      </g>
     </g>
     <g id="text_5">
      <!-- Oct 25 2015 -->
      <g transform="translate(273.977072121 394.065590385)rotate(-30.0)scale(0.12 -0.12)">
       <use xlink:href="#BitstreamVeraSans-Roman-4f"/>
       <use x="78.7109375" xlink:href="#BitstreamVeraSans-Roman-63"/>
       <use x="133.69140625" xlink:href="#BitstreamVeraSans-Roman-74"/>
       <use x="172.900390625" xlink:href="#BitstreamVeraSans-Roman-20"/>
       <use x="204.6875" xlink:href="#BitstreamVeraSans-Roman-32"/>
       <use x="268.310546875" xlink:href="#BitstreamVeraSans-Roman-35"/>
       <use x="331.93359375" xlink:href="#BitstreamVeraSans-Roman-20"/>
       <use x="363.720703125" xlink:href="#BitstreamVeraSans-Roman-32"/>
       <use x="427.34375" xlink:href="#BitstreamVeraSans-Roman-30"/>
       <use x="490.966796875" xlink:href="#BitstreamVeraSans-Roman-31"/>
       <use x="554.58984375" xlink:href="#BitstreamVeraSans-Roman-35"/>
      </g>
     </g>
    </g>
    <g id="xtick_6">
     <g id="line2d_13">
      <g>
       <use style="stroke:#000000;stroke-width:0.5;" x="393.662873141" xlink:href="#m93b0483c22" y="345.6"/>
      </g>
     </g>
     <g id="line2d_14">
      <g>
       <use style="stroke:#000000;stroke-width:0.5;" x="393.662873141" xlink:href="#m741efc42ff" y="43.2"/>
      </g>
     </g>
     <g id="text_6">
      <!-- Oct 28 2015 -->
      <defs>
       <path d="
M31.7812 34.625
Q24.75 34.625 20.7188 30.8594
Q16.7031 27.0938 16.7031 20.5156
Q16.7031 13.9219 20.7188 10.1562
Q24.75 6.39062 31.7812 6.39062
Q38.8125 6.39062 42.8594 10.1719
Q46.9219 13.9688 46.9219 20.5156
Q46.9219 27.0938 42.8906 30.8594
Q38.875 34.625 31.7812 34.625
M21.9219 38.8125
Q15.5781 40.375 12.0312 44.7188
Q8.5 49.0781 8.5 55.3281
Q8.5 64.0625 14.7188 69.1406
Q20.9531 74.2188 31.7812 74.2188
Q42.6719 74.2188 48.875 69.1406
Q55.0781 64.0625 55.0781 55.3281
Q55.0781 49.0781 51.5312 44.7188
Q48 40.375 41.7031 38.8125
Q48.8281 37.1562 52.7969 32.3125
Q56.7812 27.4844 56.7812 20.5156
Q56.7812 9.90625 50.3125 4.23438
Q43.8438 -1.42188 31.7812 -1.42188
Q19.7344 -1.42188 13.25 4.23438
Q6.78125 9.90625 6.78125 20.5156
Q6.78125 27.4844 10.7812 32.3125
Q14.7969 37.1562 21.9219 38.8125
M18.3125 54.3906
Q18.3125 48.7344 21.8438 45.5625
Q25.3906 42.3906 31.7812 42.3906
Q38.1406 42.3906 41.7188 45.5625
Q45.3125 48.7344 45.3125 54.3906
Q45.3125 60.0625 41.7188 63.2344
Q38.1406 66.4062 31.7812 66.4062
Q25.3906 66.4062 21.8438 63.2344
Q18.3125 60.0625 18.3125 54.3906" id="BitstreamVeraSans-Roman-38"/>
      </defs>
      <g transform="translate(329.075586406 394.065590385)rotate(-30.0)scale(0.12 -0.12)">
       <use xlink:href="#BitstreamVeraSans-Roman-4f"/>
       <use x="78.7109375" xlink:href="#BitstreamVeraSans-Roman-63"/>
       <use x="133.69140625" xlink:href="#BitstreamVeraSans-Roman-74"/>
       <use x="172.900390625" xlink:href="#BitstreamVeraSans-Roman-20"/>
       <use x="204.6875" xlink:href="#BitstreamVeraSans-Roman-32"/>
       <use x="268.310546875" xlink:href="#BitstreamVeraSans-Roman-38"/>
       <use x="331.93359375" xlink:href="#BitstreamVeraSans-Roman-20"/>
       <use x="363.720703125" xlink:href="#BitstreamVeraSans-Roman-32"/>
       <use x="427.34375" xlink:href="#BitstreamVeraSans-Roman-30"/>
       <use x="490.966796875" xlink:href="#BitstreamVeraSans-Roman-31"/>
       <use x="554.58984375" xlink:href="#BitstreamVeraSans-Roman-35"/>
      </g>
     </g>
    </g>
    <g id="xtick_7">
     <g id="line2d_15">
      <g>
       <use style="stroke:#000000;stroke-width:0.5;" x="448.761387428" xlink:href="#m93b0483c22" y="345.6"/>
      </g>
     </g>
     <g id="line2d_16">
      <g>
       <use style="stroke:#000000;stroke-width:0.5;" x="448.761387428" xlink:href="#m741efc42ff" y="43.2"/>
      </g>
     </g>
     <g id="text_7">
      <!-- Oct 31 2015 -->
      <g transform="translate(384.174100693 394.065590385)rotate(-30.0)scale(0.12 -0.12)">
       <use xlink:href="#BitstreamVeraSans-Roman-4f"/>
       <use x="78.7109375" xlink:href="#BitstreamVeraSans-Roman-63"/>
       <use x="133.69140625" xlink:href="#BitstreamVeraSans-Roman-74"/>
       <use x="172.900390625" xlink:href="#BitstreamVeraSans-Roman-20"/>
       <use x="204.6875" xlink:href="#BitstreamVeraSans-Roman-33"/>
       <use x="268.310546875" xlink:href="#BitstreamVeraSans-Roman-31"/>
       <use x="331.93359375" xlink:href="#BitstreamVeraSans-Roman-20"/>
       <use x="363.720703125" xlink:href="#BitstreamVeraSans-Roman-32"/>
       <use x="427.34375" xlink:href="#BitstreamVeraSans-Roman-30"/>
       <use x="490.966796875" xlink:href="#BitstreamVeraSans-Roman-31"/>
       <use x="554.58984375" xlink:href="#BitstreamVeraSans-Roman-35"/>
      </g>
     </g>
    </g>
    <g id="xtick_8">
     <g id="line2d_17">
      <g>
       <use style="stroke:#000000;stroke-width:0.5;" x="503.859901713" xlink:href="#m93b0483c22" y="345.6"/>
      </g>
     </g>
     <g id="line2d_18">
      <g>
       <use style="stroke:#000000;stroke-width:0.5;" x="503.859901713" xlink:href="#m741efc42ff" y="43.2"/>
      </g>
     </g>
     <g id="text_8">
      <!-- Nov 03 2015 -->
      <defs>
       <path d="
M2.98438 54.6875
L12.5 54.6875
L29.5938 8.79688
L46.6875 54.6875
L56.2031 54.6875
L35.6875 0
L23.4844 0
z
" id="BitstreamVeraSans-Roman-76"/>
       <path d="
M9.8125 72.9062
L23.0938 72.9062
L55.4219 11.9219
L55.4219 72.9062
L64.9844 72.9062
L64.9844 0
L51.7031 0
L19.3906 60.9844
L19.3906 0
L9.8125 0
z
" id="BitstreamVeraSans-Roman-4e"/>
       <path d="
M30.6094 48.3906
Q23.3906 48.3906 19.1875 42.75
Q14.9844 37.1094 14.9844 27.2969
Q14.9844 17.4844 19.1562 11.8438
Q23.3438 6.20312 30.6094 6.20312
Q37.7969 6.20312 41.9844 11.8594
Q46.1875 17.5312 46.1875 27.2969
Q46.1875 37.0156 41.9844 42.7031
Q37.7969 48.3906 30.6094 48.3906
M30.6094 56
Q42.3281 56 49.0156 48.375
Q55.7188 40.7656 55.7188 27.2969
Q55.7188 13.875 49.0156 6.21875
Q42.3281 -1.42188 30.6094 -1.42188
Q18.8438 -1.42188 12.1719 6.21875
Q5.51562 13.875 5.51562 27.2969
Q5.51562 40.7656 12.1719 48.375
Q18.8438 56 30.6094 56" id="BitstreamVeraSans-Roman-6f"/>
      </defs>
      <g transform="translate(436.957079555 395.402465385)rotate(-30.0)scale(0.12 -0.12)">
       <use xlink:href="#BitstreamVeraSans-Roman-4e"/>
       <use x="74.8046875" xlink:href="#BitstreamVeraSans-Roman-6f"/>
       <use x="135.986328125" xlink:href="#BitstreamVeraSans-Roman-76"/>
       <use x="195.166015625" xlink:href="#BitstreamVeraSans-Roman-20"/>
       <use x="226.953125" xlink:href="#BitstreamVeraSans-Roman-30"/>
       <use x="290.576171875" xlink:href="#BitstreamVeraSans-Roman-33"/>
       <use x="354.19921875" xlink:href="#BitstreamVeraSans-Roman-20"/>
       <use x="385.986328125" xlink:href="#BitstreamVeraSans-Roman-32"/>
       <use x="449.609375" xlink:href="#BitstreamVeraSans-Roman-30"/>
       <use x="513.232421875" xlink:href="#BitstreamVeraSans-Roman-31"/>
       <use x="576.85546875" xlink:href="#BitstreamVeraSans-Roman-35"/>
      </g>
     </g>
    </g>
   </g>
   <g id="matplotlib.axis_2">
    <g id="ytick_1">
     <g id="line2d_19">
      <defs>
       <path d="
M0 0
L4 0" id="m728421d6d4" style="stroke:#000000;stroke-width:0.5;"/>
      </defs>
      <g>
       <use style="stroke:#000000;stroke-width:0.5;" x="72.0" xlink:href="#m728421d6d4" y="280.067079683"/>
      </g>
     </g>
     <g id="line2d_20">
      <defs>
       <path d="
M0 0
L-4 0" id="mcb0005524f" style="stroke:#000000;stroke-width:0.5;"/>
      </defs>
      <g>
       <use style="stroke:#000000;stroke-width:0.5;" x="518.4" xlink:href="#mcb0005524f" y="280.067079683"/>
      </g>
     </g>
     <g id="text_9">
      <!-- 0.5 -->
      <defs>
       <path d="
M10.6875 12.4062
L21 12.4062
L21 0
L10.6875 0
z
" id="BitstreamVeraSans-Roman-2e"/>
      </defs>
      <g transform="translate(50.755625 283.378329683)scale(0.12 -0.12)">
       <use xlink:href="#BitstreamVeraSans-Roman-30"/>
       <use x="63.623046875" xlink:href="#BitstreamVeraSans-Roman-2e"/>
       <use x="95.41015625" xlink:href="#BitstreamVeraSans-Roman-35"/>
      </g>
     </g>
    </g>
    <g id="ytick_2">
     <g id="line2d_21">
      <g>
       <use style="stroke:#000000;stroke-width:0.5;" x="72.0" xlink:href="#m728421d6d4" y="206.834919983"/>
      </g>
     </g>
     <g id="line2d_22">
      <g>
       <use style="stroke:#000000;stroke-width:0.5;" x="518.4" xlink:href="#mcb0005524f" y="206.834919983"/>
      </g>
     </g>
     <g id="text_10">
      <!-- 1.0 -->
      <g transform="translate(51.03125 210.146169983)scale(0.12 -0.12)">
       <use xlink:href="#BitstreamVeraSans-Roman-31"/>
       <use x="63.623046875" xlink:href="#BitstreamVeraSans-Roman-2e"/>
       <use x="95.41015625" xlink:href="#BitstreamVeraSans-Roman-30"/>
      </g>
     </g>
    </g>
    <g id="ytick_3">
     <g id="line2d_23">
      <g>
       <use style="stroke:#000000;stroke-width:0.5;" x="72.0" xlink:href="#m728421d6d4" y="133.602760283"/>
      </g>
     </g>
     <g id="line2d_24">
      <g>
       <use style="stroke:#000000;stroke-width:0.5;" x="518.4" xlink:href="#mcb0005524f" y="133.602760283"/>
      </g>
     </g>
     <g id="text_11">
      <!-- 1.5 -->
      <g transform="translate(51.2825 136.914010283)scale(0.12 -0.12)">
       <use xlink:href="#BitstreamVeraSans-Roman-31"/>
       <use x="63.623046875" xlink:href="#BitstreamVeraSans-Roman-2e"/>
       <use x="95.41015625" xlink:href="#BitstreamVeraSans-Roman-35"/>
      </g>
     </g>
    </g>
    <g id="ytick_4">
     <g id="line2d_25">
      <g>
       <use style="stroke:#000000;stroke-width:0.5;" x="72.0" xlink:href="#m728421d6d4" y="60.3706005836"/>
      </g>
     </g>
     <g id="line2d_26">
      <g>
       <use style="stroke:#000000;stroke-width:0.5;" x="518.4" xlink:href="#mcb0005524f" y="60.3706005836"/>
      </g>
     </g>
     <g id="text_12">
      <!-- 2.0 -->
      <g transform="translate(50.5925 63.6818505836)scale(0.12 -0.12)">
       <use xlink:href="#BitstreamVeraSans-Roman-32"/>
       <use x="63.623046875" xlink:href="#BitstreamVeraSans-Roman-2e"/>
       <use x="95.41015625" xlink:href="#BitstreamVeraSans-Roman-30"/>
      </g>
     </g>
    </g>
    <g id="text_13">
     <!-- 1e8 -->
     <defs>
      <path d="
M56.2031 29.5938
L56.2031 25.2031
L14.8906 25.2031
Q15.4844 15.9219 20.4844 11.0625
Q25.4844 6.20312 34.4219 6.20312
Q39.5938 6.20312 44.4531 7.46875
Q49.3125 8.73438 54.1094 11.2812
L54.1094 2.78125
Q49.2656 0.734375 44.1875 -0.34375
Q39.1094 -1.42188 33.8906 -1.42188
Q20.7969 -1.42188 13.1562 6.1875
Q5.51562 13.8125 5.51562 26.8125
Q5.51562 40.2344 12.7656 48.1094
Q20.0156 56 32.3281 56
Q43.3594 56 49.7812 48.8906
Q56.2031 41.7969 56.2031 29.5938
M47.2188 32.2344
Q47.125 39.5938 43.0938 43.9844
Q39.0625 48.3906 32.4219 48.3906
Q24.9062 48.3906 20.3906 44.1406
Q15.875 39.8906 15.1875 32.1719
z
" id="BitstreamVeraSans-Roman-65"/>
     </defs>
     <g transform="translate(72.0 40.2)scale(0.12 -0.12)">
      <use xlink:href="#BitstreamVeraSans-Roman-31"/>
      <use x="63.623046875" xlink:href="#BitstreamVeraSans-Roman-65"/>
      <use x="125.146484375" xlink:href="#BitstreamVeraSans-Roman-38"/>
     </g>
    </g>
   </g>
   <g id="text_14">
    <!-- Techupgrade 3 -->
    <defs>
     <path d="
M34.2812 27.4844
Q23.3906 27.4844 19.1875 25
Q14.9844 22.5156 14.9844 16.5
Q14.9844 11.7188 18.1406 8.90625
Q21.2969 6.10938 26.7031 6.10938
Q34.1875 6.10938 38.7031 11.4062
Q43.2188 16.7031 43.2188 25.4844
L43.2188 27.4844
z

M52.2031 31.2031
L52.2031 0
L43.2188 0
L43.2188 8.29688
Q40.1406 3.32812 35.5469 0.953125
Q30.9531 -1.42188 24.3125 -1.42188
Q15.9219 -1.42188 10.9531 3.29688
Q6 8.01562 6 15.9219
Q6 25.1406 12.1719 29.8281
Q18.3594 34.5156 30.6094 34.5156
L43.2188 34.5156
L43.2188 35.4062
Q43.2188 41.6094 39.1406 45
Q35.0625 48.3906 27.6875 48.3906
Q23 48.3906 18.5469 47.2656
Q14.1094 46.1406 10.0156 43.8906
L10.0156 52.2031
Q14.9375 54.1094 19.5781 55.0469
Q24.2188 56 28.6094 56
Q40.4844 56 46.3438 49.8438
Q52.2031 43.7031 52.2031 31.2031" id="BitstreamVeraSans-Roman-61"/>
     <path d="
M-0.296875 72.9062
L61.375 72.9062
L61.375 64.5938
L35.5 64.5938
L35.5 0
L25.5938 0
L25.5938 64.5938
L-0.296875 64.5938
z
" id="BitstreamVeraSans-Roman-54"/>
     <path d="
M54.8906 33.0156
L54.8906 0
L45.9062 0
L45.9062 32.7188
Q45.9062 40.4844 42.875 44.3281
Q39.8438 48.1875 33.7969 48.1875
Q26.5156 48.1875 22.3125 43.5469
Q18.1094 38.9219 18.1094 30.9062
L18.1094 0
L9.07812 0
L9.07812 75.9844
L18.1094 75.9844
L18.1094 46.1875
Q21.3438 51.125 25.7031 53.5625
Q30.0781 56 35.7969 56
Q45.2188 56 50.0469 50.1719
Q54.8906 44.3438 54.8906 33.0156" id="BitstreamVeraSans-Roman-68"/>
     <path d="
M45.4062 46.3906
L45.4062 75.9844
L54.3906 75.9844
L54.3906 0
L45.4062 0
L45.4062 8.20312
Q42.5781 3.32812 38.25 0.953125
Q33.9375 -1.42188 27.875 -1.42188
Q17.9688 -1.42188 11.7344 6.48438
Q5.51562 14.4062 5.51562 27.2969
Q5.51562 40.1875 11.7344 48.0938
Q17.9688 56 27.875 56
Q33.9375 56 38.25 53.625
Q42.5781 51.2656 45.4062 46.3906
M14.7969 27.2969
Q14.7969 17.3906 18.875 11.75
Q22.9531 6.10938 30.0781 6.10938
Q37.2031 6.10938 41.2969 11.75
Q45.4062 17.3906 45.4062 27.2969
Q45.4062 37.2031 41.2969 42.8438
Q37.2031 48.4844 30.0781 48.4844
Q22.9531 48.4844 18.875 42.8438
Q14.7969 37.2031 14.7969 27.2969" id="BitstreamVeraSans-Roman-64"/>
     <path d="
M45.4062 27.9844
Q45.4062 37.75 41.375 43.1094
Q37.3594 48.4844 30.0781 48.4844
Q22.8594 48.4844 18.8281 43.1094
Q14.7969 37.75 14.7969 27.9844
Q14.7969 18.2656 18.8281 12.8906
Q22.8594 7.51562 30.0781 7.51562
Q37.3594 7.51562 41.375 12.8906
Q45.4062 18.2656 45.4062 27.9844
M54.3906 6.78125
Q54.3906 -7.17188 48.1875 -13.9844
Q42 -20.7969 29.2031 -20.7969
Q24.4688 -20.7969 20.2656 -20.0938
Q16.0625 -19.3906 12.1094 -17.9219
L12.1094 -9.1875
Q16.0625 -11.3281 19.9219 -12.3438
Q23.7812 -13.375 27.7812 -13.375
Q36.625 -13.375 41.0156 -8.76562
Q45.4062 -4.15625 45.4062 5.17188
L45.4062 9.625
Q42.625 4.78125 38.2812 2.39062
Q33.9375 0 27.875 0
Q17.8281 0 11.6719 7.65625
Q5.51562 15.3281 5.51562 27.9844
Q5.51562 40.6719 11.6719 48.3281
Q17.8281 56 27.875 56
Q33.9375 56 38.2812 53.6094
Q42.625 51.2188 45.4062 46.3906
L45.4062 54.6875
L54.3906 54.6875
z
" id="BitstreamVeraSans-Roman-67"/>
     <path d="
M8.5 21.5781
L8.5 54.6875
L17.4844 54.6875
L17.4844 21.9219
Q17.4844 14.1562 20.5 10.2656
Q23.5312 6.39062 29.5938 6.39062
Q36.8594 6.39062 41.0781 11.0312
Q45.3125 15.6719 45.3125 23.6875
L45.3125 54.6875
L54.2969 54.6875
L54.2969 0
L45.3125 0
L45.3125 8.40625
Q42.0469 3.42188 37.7188 1
Q33.4062 -1.42188 27.6875 -1.42188
Q18.2656 -1.42188 13.375 4.4375
Q8.5 10.2969 8.5 21.5781" id="BitstreamVeraSans-Roman-75"/>
     <path d="
M41.1094 46.2969
Q39.5938 47.1719 37.8125 47.5781
Q36.0312 48 33.8906 48
Q26.2656 48 22.1875 43.0469
Q18.1094 38.0938 18.1094 28.8125
L18.1094 0
L9.07812 0
L9.07812 54.6875
L18.1094 54.6875
L18.1094 46.1875
Q20.9531 51.1719 25.4844 53.5781
Q30.0312 56 36.5312 56
Q37.4531 56 38.5781 55.875
Q39.7031 55.7656 41.0625 55.5156
z
" id="BitstreamVeraSans-Roman-72"/>
     <path d="
M18.1094 8.20312
L18.1094 -20.7969
L9.07812 -20.7969
L9.07812 54.6875
L18.1094 54.6875
L18.1094 46.3906
Q20.9531 51.2656 25.2656 53.625
Q29.5938 56 35.5938 56
Q45.5625 56 51.7812 48.0938
Q58.0156 40.1875 58.0156 27.2969
Q58.0156 14.4062 51.7812 6.48438
Q45.5625 -1.42188 35.5938 -1.42188
Q29.5938 -1.42188 25.2656 0.953125
Q20.9531 3.32812 18.1094 8.20312
M48.6875 27.2969
Q48.6875 37.2031 44.6094 42.8438
Q40.5312 48.4844 33.4062 48.4844
Q26.2656 48.4844 22.1875 42.8438
Q18.1094 37.2031 18.1094 27.2969
Q18.1094 17.3906 22.1875 11.75
Q26.2656 6.10938 33.4062 6.10938
Q40.5312 6.10938 44.6094 11.75
Q48.6875 17.3906 48.6875 27.2969" id="BitstreamVeraSans-Roman-70"/>
    </defs>
    <g transform="translate(413.3655 38.2)scale(0.144 -0.144)">
     <use xlink:href="#BitstreamVeraSans-Roman-54"/>
     <use x="44.083984375" xlink:href="#BitstreamVeraSans-Roman-65"/>
     <use x="105.607421875" xlink:href="#BitstreamVeraSans-Roman-63"/>
     <use x="160.587890625" xlink:href="#BitstreamVeraSans-Roman-68"/>
     <use x="223.966796875" xlink:href="#BitstreamVeraSans-Roman-75"/>
     <use x="287.345703125" xlink:href="#BitstreamVeraSans-Roman-70"/>
     <use x="350.822265625" xlink:href="#BitstreamVeraSans-Roman-67"/>
     <use x="414.298828125" xlink:href="#BitstreamVeraSans-Roman-72"/>
     <use x="455.412109375" xlink:href="#BitstreamVeraSans-Roman-61"/>
     <use x="516.69140625" xlink:href="#BitstreamVeraSans-Roman-64"/>
     <use x="580.16796875" xlink:href="#BitstreamVeraSans-Roman-65"/>
     <use x="641.69140625" xlink:href="#BitstreamVeraSans-Roman-20"/>
     <use x="673.478515625" xlink:href="#BitstreamVeraSans-Roman-33"/>
    </g>
   </g>
   <g id="legend_1">
    <g id="patch_7">
     <path d="
M123.942 423.616
L466.458 423.616
L466.458 398.16
L123.942 398.16
z
" style="fill:#ffffff;stroke:#000000;stroke-linejoin:miter;"/>
    </g>
    <g id="line2d_27">
     <path d="
M134.022 409.822
L154.182 409.822" style="fill:none;stroke:#ff0000;stroke-linecap:square;"/>
    </g>
    <g id="line2d_28"/>
    <g id="text_15">
     <!-- Schwarzmarktpreis -->
     <defs>
      <path d="
M52 44.1875
Q55.375 50.25 60.0625 53.125
Q64.75 56 71.0938 56
Q79.6406 56 84.2812 50.0156
Q88.9219 44.0469 88.9219 33.0156
L88.9219 0
L79.8906 0
L79.8906 32.7188
Q79.8906 40.5781 77.0938 44.375
Q74.3125 48.1875 68.6094 48.1875
Q61.625 48.1875 57.5625 43.5469
Q53.5156 38.9219 53.5156 30.9062
L53.5156 0
L44.4844 0
L44.4844 32.7188
Q44.4844 40.625 41.7031 44.4062
Q38.9219 48.1875 33.1094 48.1875
Q26.2188 48.1875 22.1562 43.5312
Q18.1094 38.875 18.1094 30.9062
L18.1094 0
L9.07812 0
L9.07812 54.6875
L18.1094 54.6875
L18.1094 46.1875
Q21.1875 51.2188 25.4844 53.6094
Q29.7812 56 35.6875 56
Q41.6562 56 45.8281 52.9688
Q50 49.9531 52 44.1875" id="BitstreamVeraSans-Roman-6d"/>
      <path d="
M9.07812 75.9844
L18.1094 75.9844
L18.1094 31.1094
L44.9219 54.6875
L56.3906 54.6875
L27.3906 29.1094
L57.625 0
L45.9062 0
L18.1094 26.7031
L18.1094 0
L9.07812 0
z
" id="BitstreamVeraSans-Roman-6b"/>
      <path d="
M53.5156 70.5156
L53.5156 60.8906
Q47.9062 63.5781 42.9219 64.8906
Q37.9375 66.2188 33.2969 66.2188
Q25.25 66.2188 20.875 63.0938
Q16.5 59.9688 16.5 54.2031
Q16.5 49.3594 19.4062 46.8906
Q22.3125 44.4375 30.4219 42.9219
L36.375 41.7031
Q47.4062 39.5938 52.6562 34.2969
Q57.9062 29 57.9062 20.125
Q57.9062 9.51562 50.7969 4.04688
Q43.7031 -1.42188 29.9844 -1.42188
Q24.8125 -1.42188 18.9688 -0.25
Q13.1406 0.921875 6.89062 3.21875
L6.89062 13.375
Q12.8906 10.0156 18.6562 8.29688
Q24.4219 6.59375 29.9844 6.59375
Q38.4219 6.59375 43.0156 9.90625
Q47.6094 13.2344 47.6094 19.3906
Q47.6094 24.75 44.3125 27.7812
Q41.0156 30.8125 33.5 32.3281
L27.4844 33.5
Q16.4531 35.6875 11.5156 40.375
Q6.59375 45.0625 6.59375 53.4219
Q6.59375 63.0938 13.4062 68.6562
Q20.2188 74.2188 32.1719 74.2188
Q37.3125 74.2188 42.625 73.2812
Q47.9531 72.3594 53.5156 70.5156" id="BitstreamVeraSans-Roman-53"/>
      <path d="
M9.42188 54.6875
L18.4062 54.6875
L18.4062 0
L9.42188 0
z

M9.42188 75.9844
L18.4062 75.9844
L18.4062 64.5938
L9.42188 64.5938
z
" id="BitstreamVeraSans-Roman-69"/>
      <path d="
M4.20312 54.6875
L13.1875 54.6875
L24.4219 12.0156
L35.5938 54.6875
L46.1875 54.6875
L57.4219 12.0156
L68.6094 54.6875
L77.5938 54.6875
L63.2812 0
L52.6875 0
L40.9219 44.8281
L29.1094 0
L18.5 0
z
" id="BitstreamVeraSans-Roman-77"/>
      <path d="
M5.51562 54.6875
L48.1875 54.6875
L48.1875 46.4844
L14.4062 7.17188
L48.1875 7.17188
L48.1875 0
L4.29688 0
L4.29688 8.20312
L38.0938 47.5156
L5.51562 47.5156
z
" id="BitstreamVeraSans-Roman-7a"/>
      <path d="
M44.2812 53.0781
L44.2812 44.5781
Q40.4844 46.5312 36.375 47.5
Q32.2812 48.4844 27.875 48.4844
Q21.1875 48.4844 17.8438 46.4375
Q14.5 44.3906 14.5 40.2812
Q14.5 37.1562 16.8906 35.375
Q19.2812 33.5938 26.5156 31.9844
L29.5938 31.2969
Q39.1562 29.25 43.1875 25.5156
Q47.2188 21.7812 47.2188 15.0938
Q47.2188 7.46875 41.1875 3.01562
Q35.1562 -1.42188 24.6094 -1.42188
Q20.2188 -1.42188 15.4531 -0.5625
Q10.6875 0.296875 5.42188 2
L5.42188 11.2812
Q10.4062 8.6875 15.2344 7.39062
Q20.0625 6.10938 24.8125 6.10938
Q31.1562 6.10938 34.5625 8.28125
Q37.9844 10.4531 37.9844 14.4062
Q37.9844 18.0625 35.5156 20.0156
Q33.0625 21.9688 24.7031 23.7812
L21.5781 24.5156
Q13.2344 26.2656 9.51562 29.9062
Q5.8125 33.5469 5.8125 39.8906
Q5.8125 47.6094 11.2812 51.7969
Q16.75 56 26.8125 56
Q31.7812 56 36.1719 55.2656
Q40.5781 54.5469 44.2812 53.0781" id="BitstreamVeraSans-Roman-73"/>
     </defs>
     <g transform="translate(170.022375 414.86175)scale(0.144 -0.144)">
      <use xlink:href="#BitstreamVeraSans-Roman-53"/>
      <use x="63.4765625" xlink:href="#BitstreamVeraSans-Roman-63"/>
      <use x="118.45703125" xlink:href="#BitstreamVeraSans-Roman-68"/>
      <use x="181.8359375" xlink:href="#BitstreamVeraSans-Roman-77"/>
      <use x="263.623046875" xlink:href="#BitstreamVeraSans-Roman-61"/>
      <use x="324.90234375" xlink:href="#BitstreamVeraSans-Roman-72"/>
      <use x="366.015625" xlink:href="#BitstreamVeraSans-Roman-7a"/>
      <use x="418.505859375" xlink:href="#BitstreamVeraSans-Roman-6d"/>
      <use x="515.91796875" xlink:href="#BitstreamVeraSans-Roman-61"/>
      <use x="577.197265625" xlink:href="#BitstreamVeraSans-Roman-72"/>
      <use x="618.310546875" xlink:href="#BitstreamVeraSans-Roman-6b"/>
      <use x="676.220703125" xlink:href="#BitstreamVeraSans-Roman-74"/>
      <use x="715.4296875" xlink:href="#BitstreamVeraSans-Roman-70"/>
      <use x="778.90625" xlink:href="#BitstreamVeraSans-Roman-72"/>
      <use x="817.76953125" xlink:href="#BitstreamVeraSans-Roman-65"/>
      <use x="879.29296875" xlink:href="#BitstreamVeraSans-Roman-69"/>
      <use x="907.076171875" xlink:href="#BitstreamVeraSans-Roman-73"/>
     </g>
    </g>
    <g id="line2d_29">
     <path d="
M339.609 409.822
L359.769 409.822" style="fill:none;stroke:#008000;stroke-linecap:square;"/>
    </g>
    <g id="line2d_30"/>
    <g id="text_16">
     <!-- Normalpreis -->
     <defs>
      <path d="
M9.42188 75.9844
L18.4062 75.9844
L18.4062 0
L9.42188 0
z
" id="BitstreamVeraSans-Roman-6c"/>
     </defs>
     <g transform="translate(375.609375 414.86175)scale(0.144 -0.144)">
      <use xlink:href="#BitstreamVeraSans-Roman-4e"/>
      <use x="74.8046875" xlink:href="#BitstreamVeraSans-Roman-6f"/>
      <use x="135.986328125" xlink:href="#BitstreamVeraSans-Roman-72"/>
      <use x="175.349609375" xlink:href="#BitstreamVeraSans-Roman-6d"/>
      <use x="272.76171875" xlink:href="#BitstreamVeraSans-Roman-61"/>
      <use x="334.041015625" xlink:href="#BitstreamVeraSans-Roman-6c"/>
      <use x="361.82421875" xlink:href="#BitstreamVeraSans-Roman-70"/>
      <use x="425.30078125" xlink:href="#BitstreamVeraSans-Roman-72"/>
      <use x="464.1640625" xlink:href="#BitstreamVeraSans-Roman-65"/>
      <use x="525.6875" xlink:href="#BitstreamVeraSans-Roman-69"/>
      <use x="553.470703125" xlink:href="#BitstreamVeraSans-Roman-73"/>
     </g>
    </g>
   </g>
  </g>
 </g>
 <defs>
  <clipPath id="pcb2bf987bf">
   <rect height="302.4" width="446.4" x="72.0" y="43.2"/>
  </clipPath>
 </defs>
</svg>
