<?xml version="1.0" encoding="utf-8" standalone="no"?>
<!DOCTYPE svg PUBLIC "-//W3C//DTD SVG 1.1//EN"
  "http://www.w3.org/Graphics/SVG/1.1/DTD/svg11.dtd">
<!-- Created with matplotlib (http://matplotlib.org/) -->
<svg height="432pt" version="1.1" viewBox="0 0 576 432" width="576pt" xmlns="http://www.w3.org/2000/svg" xmlns:xlink="http://www.w3.org/1999/xlink">
 <defs>
  <style type="text/css">
*{stroke-linecap:butt;stroke-linejoin:round;}
  </style>
 </defs>
 <g id="figure_1">
  <g id="patch_1">
   <path d="
M0 432
L576 432
L576 0
L0 0
z
" style="fill:#ffffff;"/>
  </g>
  <g id="axes_1">
   <g id="patch_2">
    <path d="
M72 345.6
L518.4 345.6
L518.4 43.2
L72 43.2
z
" style="fill:#ffffff;"/>
   </g>
   <g id="line2d_1">
    <path clip-path="url(#pcb2bf987bf)" d="
M72 123.436
L73.9131 123.333
L74.1682 122.037
L74.2958 122.037
L74.5509 120.888
L74.6784 120.888
L74.9335 122.037
L75.3161 122.037
L75.4437 119.724
L75.8263 117.147
L76.0814 115.968
L76.2089 115.968
L76.464 119.724
L76.5915 119.724
L76.8466 119.503
L77.2295 117.397
L77.6119 119.724
L77.9947 118.561
L78.1221 115.674
L78.3771 123.186
L78.3771 123.186
L78.5047 120.888
L78.7598 119.724
L78.8873 118.561
L79.1426 122.037
L79.2699 120.888
L79.525 119.724
L79.6526 118.561
L80.0352 118.561
L80.2903 119.724
L80.6729 119.724
L80.8005 122.744
L81.0555 119.282
L81.1831 119.282
L81.4384 115.762
L81.8208 115.762
L81.9483 89.365
L82.2036 115.762
L82.5863 115.762
L82.7136 116.94
L83.0962 116.94
L83.3513 115.762
L83.4789 115.762
L83.7339 114.787
L83.8615 114.787
L84.1166 113.597
L84.2441 114.787
L84.4992 114.787
L84.6267 114.495
L84.882 116.057
L85.2647 114.878
L85.392 113.685
L85.6473 114.878
L86.795 114.875
L86.9225 114.495
L87.3051 114.495
L87.5602 111.299
L87.6878 118.119
L87.9429 116.94
L88.3255 116.94
L88.8357 112.197
L89.0907 116.852
L89.0907 116.852
L89.4734 110.901
L89.6009 109.693
L89.856 108.485
L89.9835 110.901
L90.2386 108.485
L90.2386 108.485
L90.4937 87.3912
L90.6213 87.3912
L91.259 112.109
L92.0242 109.074
L92.1518 110.282
L92.7895 113.302
L92.917 112.109
L93.5547 116.852
L94.32 121.138
L94.4475 119.813
L95.2128 119.813
L95.8505 118.649
L95.9781 115.674
L96.6158 116.852
L97.381 106.791
L98.2738 102.122
L99.0391 116.852
L99.6768 109.398
L100.442 109.398
L100.57 110.606
L101.207 111.814
L101.973 111.24
L102.1 110.975
L103.503 110.975
L103.631 109.767
L104.268 110.975
L105.034 110.975
L105.799 104.876
L106.564 107.115
L107.33 110.96
L108.095 107.601
L108.222 106.379
L108.86 106.364
L109.625 111.237
L109.753 111.24
L110.39 110.032
L110.518 108.824
L111.156 110.96
L111.283 109.752
L111.921 108.544
L112.048 108.544
L114.217 113.007
L116.64 121.595
L117.278 111.894
L118.043 104.567
L118.171 102.077
L118.808 114.274
L120.339 114.271
L121.232 113.081
L121.869 114.274
L122.635 114.289
L122.762 113.096
L123.4 111.903
L124.165 104.537
L124.293 102.048
L124.93 100.796
L125.696 114.289
L126.333 113.007
L126.461 113.007
L126.461 113.007
L126.589 109.398
L127.226 113.935
L127.864 108.279
L127.864 108.279
L127.991 104.596
L128.757 112.713
L128.884 112.713
L129.522 113.007
L130.287 115.379
L130.415 116.263
L131.052 116.263
L131.818 118.631
L132.583 124.556
L132.583 124.556
L134.113 124.55
L134.369 116.94
L134.879 112.433
L135.644 115.674
L136.409 124.479
L136.537 124.476
L137.174 116.366
L137.94 115.187
L138.705 117.544
L139.47 116.366
L139.598 117.544
L140.235 117.544
L141.001 124.473
L141.766 116.277
L141.893 117.441
L142.531 107.572
L144.189 119.798
L144.827 123.327
L145.592 118.634
L145.72 118.634
L146.357 119.857
L146.485 119.857
L147.123 121.021
L147.25 121.021
L147.888 122.184
L148.653 122.184
L149.419 120.446
L149.546 118.119
L150.184 119.268
L151.077 119.209
L151.714 116.867
L152.48 121.89
L153.245 118.384
L153.372 111.593
L154.01 114.79
L154.775 117.176
L155.541 112.433
L155.541 112.433
L156.306 117.161
L157.071 113.611
L157.837 116.855
L157.964 116.855
L158.602 119.503
L159.367 119.503
L160.132 117.441
L161.025 116.852
L162.428 110.267
L163.193 116.852
L163.321 116.852
L164.086 111.358
L164.724 113.744
L164.851 113.744
L165.489 115.674
L166.254 110.901
L167.019 108.485
L167.785 116.852
L167.912 116.852
L168.55 114.495
L169.315 87.3912
L169.443 105.613
L170.08 116.852
L170.846 112.109
L170.973 112.109
L171.611 115.084
L172.376 105.436
L173.141 102.961
L173.269 102.961
L173.907 105.436
L174.672 101.694
L174.8 102.946
L176.203 101.694
L176.968 112.698
L177.095 112.698
L177.733 106.644
L178.498 106.644
L179.264 104.184
L180.029 102.946
L180.156 100.442
L180.794 110.282
L180.922 106.629
L181.559 105.403
L182.325 99.1607
L182.452 99.1607
L183.09 110.297
L183.855 106.641
L183.983 102.932
L184.62 105.406
L185.386 102.917
L186.151 109.089
L186.916 112.094
L187.681 114.474
L188.447 109.634
L189.212 107.183
L189.339 105.951
L190.742 100.97
L191.508 95.8906
L191.508 95.8906
L193.038 113.272
L193.803 115.674
L194.569 114.472
L195.461 114.495
L196.099 116.852
L196.864 115.674
L198.395 114.183
L198.395 114.183
L200.691 114.174
L201.456 119.503
L202.221 117.161
L202.987 119.518
L203.752 117.191
L203.879 117.191
L204.517 121.271
L205.282 115.467
L205.41 115.467
L206.175 121.242
L206.303 120.776
L206.813 121.242
L206.813 121.242
L206.94 120.976
L207.578 117.114
L208.088 115.968
L208.343 117.147
L208.981 117.147
L209.746 110.954
L210.001 113.906
L210.767 117.147
L211.659 117.147
L211.915 114.79
L212.042 114.79
L212.425 109.988
L212.68 107.557
L212.807 113.597
L213.062 114.775
L213.445 111.033
L213.828 111.048
L213.828 111.048
L213.955 112.286
L214.21 115.953
L214.72 115.968
L214.976 118.296
L215.486 118.322
L215.868 118.322
L216.123 121.595
L216.123 121.595
L216.506 121.563
L216.761 115.659
L216.761 115.659
L217.016 116.822
L217.271 115.644
L217.654 118.322
L217.654 118.322
L217.781 117.147
L218.164 117.147
L218.547 116.837
L218.802 115.659
L218.929 115.659
L219.184 118.296
L219.312 118.322
L219.567 108.573
L219.95 110.871
L220.077 115.644
L220.332 119.798
L220.587 119.798
L220.715 118.634
L220.843 120.417
L220.843 120.417
L221.098 119.253
L221.225 118.089
L221.48 118.089
L221.608 116.911
L221.863 116.908
L222.373 113.361
L222.628 114.554
L222.756 113.361
L223.011 118.089
L223.011 118.089
L223.393 113.361
L223.521 113.361
L223.776 114.554
L223.904 114.554
L224.159 115.732
L224.286 114.554
L224.541 115.732
L224.669 114.536
L225.051 118.089
L225.307 119.253
L225.434 118.075
L226.072 118.03
L226.072 118.03
L226.199 120.417
L226.199 120.417
L226.455 114.2
L226.582 119.798
L226.582 119.798
L226.837 113.906
L226.965 113.903
L227.22 111.52
L227.347 111.52
L227.602 112.713
L227.602 112.713
L228.112 107.866
L228.368 107.866
L228.75 104.154
L228.878 105.392
L229.898 105.421
L230.026 104.184
L230.281 105.421
L230.663 105.421
L230.663 105.421
L231.046 107.866
L231.173 107.866
L231.429 106.644
L231.429 106.644
L231.556 109.089
L231.811 109.089
L231.939 107.866
L232.194 106.629
L232.959 106.629
L232.959 106.629
L233.087 107.866
L233.342 104.773
L233.469 105.068
L233.724 101.37
L233.852 109.089
L234.107 110.96
L234.235 110.96
L234.49 107.321
L234.49 107.321
L234.617 108.544
L234.872 107.321
L235 104.861
L235.255 105.789
L235.255 105.789
L235.383 104.552
L235.637 100.369
L235.765 94.9331
L236.02 94.9302
L236.02 94.9302
L236.148 87.3912
L236.403 86.0654
L236.53 81.499
L236.785 84.7367
L236.913 104.847
L237.168 106.081
L237.296 104.844
L237.551 104.844
L237.678 106.081
L238.699 106.081
L238.826 104.847
L239.209 106.541
L239.464 104.066
L239.591 105.297
L239.846 105.297
L239.974 103.595
L240.357 103.595
L240.612 105.297
L240.739 105.297
L240.994 109.752
L241.122 107.321
L241.377 108.014
L241.504 107.321
L241.76 108.541
L242.142 101.135
L242.27 101.12
L242.653 97.3342
L242.907 98.601
L243.035 98.601
L243.29 108.485
L243.418 87.3912
L243.673 83.3992
L243.8 86.0654
L244.183 111.49
L244.438 111.49
L244.565 109.071
L244.821 112.677
L244.948 112.68
L245.203 119.179
L245.203 119.179
L245.586 117.471
L245.713 116.289
L245.968 115.022
L246.351 110.901
L246.479 112.109
L246.861 105.907
L247.116 107.13
L247.244 108.394
L248.009 108.456
L248.392 105.068
L248.647 105.937
L249.03 103.801
L249.03 103.801
L249.412 103.816
L249.795 105.937
L249.795 105.937
L249.922 105.937
L250.688 117.471
L251.07 117.456
L251.325 116.275
L251.453 117.426
L252.091 117.353
L252.473 113.007
L252.601 113.007
L252.983 113.302
L253.238 111.814
L253.749 111.814
L254.131 108.176
L254.386 117.353
L254.514 117.335
L254.769 114.966
L254.896 116.145
L254.896 116.145
L255.152 113.903
L255.534 113.903
L255.917 107.719
L255.917 107.719
L256.044 107.719
L256.427 105.068
L257.065 105.068
L257.192 110.309
L257.447 109.104
L257.575 109.104
L257.83 106.364
L257.957 106.364
L258.213 109.104
L258.213 109.104
L258.595 109.104
L258.85 108.014
L258.978 108.276
L259.105 108.279
L259.36 105.834
L259.36 105.834
L259.488 107.056
L260.253 107.053
L260.508 108.264
L260.636 107.056
L260.891 99.4406
L261.019 109.487
L261.274 108.014
L261.401 109.484
L261.784 114.937
L262.039 115.379
L262.166 116.852
L262.421 116.849
L262.549 116.174
L262.804 116.174
L262.932 115.674
L263.314 112.109
L263.569 111.048
L263.569 111.048
L263.697 112.256
L263.952 112.256
L264.08 116.705
L264.335 116.705
L264.335 116.705
L264.462 116.174
L264.717 116.171
L264.845 117.35
L265.1 116.749
L265.1 116.749
L265.227 115.57
L265.61 115.57
L265.738 114.392
L267.013 114.392
L267.141 115.57
L267.396 114.392
L268.926 114.389
L269.054 113.199
L269.309 114.392
L270.074 114.392
L270.202 115.57
L270.584 112.006
L270.839 111.549
L270.967 114.392
L271.222 117.323
L271.605 117.335
L271.987 115.821
L272.115 116.16
L272.37 117.471
L273.135 117.471
L273.263 114.819
L273.518 113.449
L273.518 113.449
L273.645 114.642
L273.9 112.256
L274.283 112.256
L274.411 114.819
L274.666 113.626
L274.793 117.471
L275.048 117.471
L275.048 117.471
L275.176 116.852
L275.431 117.471
L276.579 117.471
L276.706 118.62
L279.767 118.634
L280.022 116.602
L280.15 118.634
L280.533 115.423
L280.788 117.677
L280.915 116.498
L281.17 118.634
L281.17 118.634
L281.553 118.634
L281.936 113.037
L282.318 120.119
L282.701 115.674
L282.828 115.674
L283.083 119.798
L283.211 118.634
L283.466 133.247
L283.594 128.636
L283.976 122.626
L284.231 121.477
L284.359 121.477
L285.379 113.007
L285.762 112.996
L285.889 111.796
L286.144 110.592
L286.272 111.796
L286.655 111.796
L286.91 110.592
L287.037 113.302
L287.292 113.169
L287.42 113.302
L287.803 113.302
L288.058 116.852
L288.44 116.852
L288.568 121.271
L288.823 116.587
L288.95 117.759
L289.333 117.736
L289.716 114.2
L289.971 114.2
L290.098 116.557
L290.353 116.554
L290.481 115.379
L290.736 115.674
L290.864 116.852
L290.991 116.852
L291.119 121.471
L291.501 121.474
L291.629 121.271
L291.884 120.122
L292.267 121.474
L292.777 121.477
L293.032 116.822
L293.159 118.001
L293.414 119.165
L293.414 119.165
L293.542 118.001
L293.797 116.822
L293.797 116.822
L293.925 120.325
L294.18 115.644
L294.18 115.644
L294.307 116.822
L294.69 116.822
L294.945 120.325
L294.945 120.325
L295.072 120.325
L295.328 119.165
L295.455 120.328
L295.71 124.907
L296.603 124.909
L296.858 122.626
L296.986 118.522
L297.241 114.996
L297.368 111.461
L297.751 123.775
L298.006 121.271
L298.133 121.477
L298.389 120.314
L298.516 119.147
L298.771 117.986
L298.899 122.623
L299.281 118.001
L299.536 121.477
L299.664 118.001
L299.919 115.629
L300.047 116.808
L300.302 116.808
L300.302 116.808
L300.684 113.243
L300.812 114.436
L301.067 118.001
L301.195 116.82
L301.45 115.644
L301.577 116.817
L301.832 114.451
L302.215 114.463
L302.342 112.079
L302.597 116.817
L302.597 116.817
L303.235 116.808
L303.49 119.503
L303.873 119.724
L306.041 119.733
L306.169 118.575
L306.424 118.575
L306.551 117.412
L306.806 118.575
L306.934 108.014
L307.317 118.516
L307.572 118.575
L307.699 119.736
L307.954 118.296
L308.082 119.795
L308.337 119.798
L308.847 114.996
L309.102 118.325
L309.23 121.595
L309.485 122.744
L309.612 122.738
L310.25 120.122
L310.25 120.122
L310.378 120.122
L310.633 115.114
L310.76 116.292
L311.015 116.292
L311.143 117.471
L311.525 113.906
L311.781 115.099
L311.908 113.906
L312.163 116.852
L312.673 116.808
L312.928 113.258
L313.056 116.808
L313.311 115.629
L313.439 114.451
L313.694 114.451
L313.821 116.808
L314.076 117.471
L314.204 117.471
L314.459 125.69
L314.587 125.69
L314.842 124.556
L314.969 122.273
L315.224 124.217
L315.607 121.271
L315.734 121.271
L315.989 121.592
L316.372 121.595
L316.5 120.446
L316.882 125.687
L317.137 125.396
L317.265 130.254
L317.52 130.251
L318.03 123.775
L318.285 124.909
L318.668 131.285
L318.668 131.285
L318.795 132.142
L319.051 193.347
L319.178 159.11
L319.561 130.478
L319.816 131.332
L319.943 131.288
L320.198 129.078
L320.326 129.078
L320.709 127.959
L320.964 126.839
L320.964 126.839
L321.346 125.702
L321.729 125.69
L322.239 125.396
L322.877 121.595
L323.004 119.282
L323.259 121.595
L323.77 116.881
L324.025 116.881
L324.025 116.881
L324.152 120.431
L324.535 125.393
L324.79 125.396
L324.917 124.261
L325.555 124.258
L325.683 123.127
L325.938 123.127
L326.066 124.261
L326.32 123.127
L326.448 125.69
L326.703 125.705
L326.831 126.839
L327.086 127.959
L327.468 131.329
L327.596 130.227
L327.851 136.178
L327.979 136.178
L328.234 135.103
L328.361 130.475
L328.616 128.239
L328.744 129.358
L328.999 130.475
L329.126 134.469
L329.381 124.895
L329.509 124.895
L329.764 127.841
L329.892 127.841
L330.147 131.185
L330.274 134.882
L330.529 132.702
L330.657 128.636
L330.912 127.517
L331.04 134.528
L331.295 132.054
L331.422 134.882
L331.677 136.178
L331.805 57.9304
L332.06 135.088
L332.187 135.088
L332.443 138.323
L332.57 138.323
L332.825 136.381
L332.953 136.381
L333.208 137.472
L333.335 137.472
L333.59 134.528
L333.718 128.253
L333.973 128.253
L334.101 126.412
L334.356 128.636
L334.483 127.517
L334.738 127.517
L334.866 125.257
L335.121 124.111
L335.886 124.114
L336.269 118.34
L336.651 118.34
L336.779 117.176
L337.034 118.34
L337.162 117.176
L337.417 118.325
L337.544 119.492
L337.799 118.325
L337.927 117.161
L338.182 125.263
L338.309 136.384
L338.692 136.384
L338.947 137.463
L339.075 137.18
L339.33 132.849
L339.457 135.029
L339.712 135
L339.968 134.817
L340.605 134.794
L340.86 133.715
L342.008 133.718
L342.136 132.628
L342.391 132.625
L342.518 131.523
L342.773 130.416
L342.901 129.225
L343.156 130.416
L343.666 130.416
L343.921 129.296
L343.921 129.296
L344.049 128.18
L344.304 129.293
L344.432 129.293
L344.687 128.177
L344.814 128.177
L345.069 127.06
L345.197 125.926
L345.452 124.792
L345.452 124.792
L345.579 124.792
L345.835 125.923
L345.962 124.792
L346.217 127.054
L346.345 127.054
L346.727 130.404
L346.982 131.523
L346.982 131.523
L347.11 130.419
L347.365 129.299
L347.493 129.296
L347.748 128.18
L347.875 127.06
L348.13 130.419
L348.258 129.284
L348.513 134.817
L348.64 133.733
L348.896 120.166
L349.023 132.643
L349.788 132.634
L350.043 131.538
L350.171 132.637
L350.936 132.613
L351.191 127.06
L351.319 121.168
L351.702 126.397
L351.957 123.967
L352.084 124.129
L352.339 127.517
L352.467 125.263
L352.722 125.263
L352.849 125.69
L353.232 125.263
L353.487 127.281
L353.615 125.69
L353.87 125.44
L353.87 125.44
L354.252 122.891
L354.38 119.43
L354.635 123.171
L354.763 119.71
L355.018 125.44
L355.145 125.44
L355.4 125.687
L355.4 125.687
L355.528 130.109
L355.91 126.765
L356.165 127.879
L356.165 127.879
L356.293 127.652
L356.676 127.455
L357.824 127.458
L358.079 122.744
L358.206 116.852
L358.589 122.921
L359.354 122.921
L359.609 125.201
L359.737 124.07
L359.992 127.163
L360.374 127.163
L360.502 126.044
L360.757 127.882
L360.885 127.882
L361.14 126.765
L361.267 129.005
L361.522 127.885
L361.65 128.636
L361.905 127.517
L362.032 126.397
L362.288 126.394
L362.415 125.263
L362.67 124.217
L362.798 124.217
L363.053 123.083
L363.18 121.934
L363.435 132.463
L363.563 131.361
L363.818 127.428
L363.946 127.428
L364.201 128.633
L364.328 126.397
L364.583 126.397
L364.711 125.263
L364.966 128.633
L365.093 132.46
L365.476 132.466
L365.859 121.816
L366.114 133.733
L366.114 133.733
L366.496 133.733
L366.624 132.643
L366.879 133.733
L367.007 133.733
L367.262 131.538
L367.772 131.538
L368.027 130.433
L368.155 129.329
L368.41 129.326
L368.537 126.928
L368.792 134.823
L369.175 137.472
L370.833 137.472
L371.088 136.399
L371.598 132.024
L371.853 132.039
L372.236 135.309
L372.363 134.204
L372.619 134.198
L372.746 133.1
L373.129 133.1
L373.384 132.024
L373.511 127.885
L373.766 132.007
L373.766 132.007
L373.894 132.024
L374.149 133.114
L374.277 134.201
L374.532 134.198
L374.659 133.129
L374.914 150.729
L375.042 150.567
L375.297 144.84
L375.424 149.406
L375.68 146.313
L376.445 146.298
L376.572 146.165
L376.955 146.295
L378.485 146.313
L378.741 149.111
L378.868 147.079
L379.123 148.095
L379.251 148.092
L379.633 147.933
L379.888 146.917
L380.016 147.933
L380.654 142.763
L380.781 139.596
L381.547 139.596
L381.802 138.535
L381.929 137.46
L382.184 138.535
L382.567 138.535
L382.694 139.596
L382.949 138.535
L383.077 139.596
L383.332 140.656
L383.715 140.656
L384.097 138.535
L384.225 140.656
L384.48 136.384
L384.608 137.46
L384.863 137.46
L385.245 147.933
L385.373 141.113
L385.755 141.113
L386.011 146.475
L386.393 146.475
L386.521 145.282
L386.903 145.282
L387.158 146.46
L387.286 148.095
L387.541 171.944
L387.669 170.986
L387.924 170.765
L388.051 163.046
L388.306 158.094
L388.306 158.094
L388.816 158.065
L389.199 155.443
L389.837 152.882
L389.964 148.522
L390.219 147.491
L390.347 147.491
L390.73 144.25
L391.112 144.248
L391.367 151.613
L391.75 133.866
L391.878 146.637
L392.133 146.283
L392.26 145.282
L392.898 145.282
L393.025 144.25
L393.28 138.992
L393.408 149.583
L393.663 147.55
L393.791 147.55
L394.046 151.486
L394.173 151.486
L394.173 151.486
L394.556 149.465
L394.811 149.465
L394.939 148.449
L395.194 148.449
L395.576 146.271
L395.704 147.429
L396.086 144.339
L396.469 144.339
L396.724 146.313
L396.852 146.401
L397.617 146.401
L397.872 147.432
L398 147.432
L398.255 146.401
L398.382 139.478
L398.765 139.478
L399.02 137.342
L399.147 137.342
L399.403 138.329
L399.53 131.582
L399.913 135.082
L400.168 133.995
L400.295 133.939
L400.55 130.183
L400.678 131.361
L400.933 138.064
L401.061 138.388
L401.316 135.368
L401.443 145.282
L401.826 139.36
L402.081 137.474
L402.208 140.421
L402.464 139.36
L402.591 136.929
L402.846 147.344
L402.974 147.344
L403.229 146.313
L403.356 144.236
L403.611 146.298
L403.739 134.307
L403.994 146.283
L404.122 146.313
L404.377 145.252
L404.504 145.252
L404.759 147.341
L404.887 147.432
L405.269 144.309
L405.652 147.432
L406.035 147.432
L406.29 145.37
L406.417 145.37
L406.672 146.395
L407.055 156.123
L407.183 156.12
L407.438 154.562
L407.565 158.068
L407.82 158.065
L407.948 156.123
L408.203 154.09
L408.331 152.087
L408.586 151.026
L408.713 152.087
L408.968 166.199
L409.351 163.341
L409.733 163.341
L409.861 159.526
L410.116 159.275
L410.244 160.483
L410.499 155.166
L410.626 157.125
L411.009 148.11
L411.264 148.11
L411.392 152.143
L411.647 152.116
L411.774 150.113
L412.029 151.115
L412.157 151.115
L412.412 148.375
L412.539 152.143
L413.05 148.375
L413.305 149.259
L413.56 152.175
L413.687 151.174
L413.942 150.172
L414.325 150.172
L414.453 149.156
L414.835 149.156
L415.09 149.023
L415.218 150.172
L415.473 149.156
L415.983 149.156
L416.238 147.123
L416.366 147.123
L416.621 148.136
L417.131 148.136
L417.386 150.143
L417.514 150.14
L417.769 149.126
L417.896 148.11
L418.151 150.128
L418.279 148.095
L418.534 150.143
L419.044 145.282
L419.299 146.31
L419.427 144.248
L419.809 144.25
L420.064 146.283
L420.192 146.283
L420.447 149.123
L420.575 149.123
L420.957 148.11
L421.212 148.11
L421.34 141.201
L421.595 150.14
L422.105 150.143
L422.36 151.174
L422.488 152.17
L423.125 152.202
L423.253 151.91
L423.508 152.205
L423.636 150.791
L423.891 155.121
L424.018 155.121
L424.273 158.091
L424.401 158.091
L424.656 157.125
L424.784 157.125
L425.039 158.094
L425.166 158.097
L425.421 136.105
L425.549 155.136
L425.804 157.125
L425.931 156.135
L426.314 156.032
L426.569 153.958
L426.697 153.958
L426.952 152.971
L427.334 153.973
L427.462 153.869
L427.845 149.388
L428.1 149.391
L428.227 149.259
L428.61 143.19
L428.865 146.313
L428.992 145.282
L429.248 147.344
L429.375 147.344
L429.63 149.642
L429.758 148.478
L430.013 149.492
L430.14 149.492
L430.395 149.259
L430.524 146.298
L430.906 146.298
L431.288 143.19
L431.543 145.724
L431.671 145.724
L431.926 148.478
L432.053 147.462
L432.309 148.475
L432.436 148.475
L432.691 149.259
L432.691 149.259
L433.074 149.256
L433.201 146.313
L433.456 149.627
L433.584 148.611
L433.839 147.594
L433.967 148.608
L435.115 148.605
L435.37 146.548
L435.497 146.548
L435.752 147.58
L435.88 146.548
L436.135 147.491
L436.262 146.46
L436.645 139.139
L437.283 147.223
L437.41 147.223
L437.665 143.072
L437.793 146.177
L438.048 138.196
L438.176 130.478
L438.431 145.131
L438.558 144.088
L438.813 143.043
L438.941 143.043
L439.196 137.474
L439.579 145.105
L439.706 145.134
L439.961 144.118
L440.344 144.118
L440.344 144.118
L440.471 145.164
L440.726 143.087
L441.109 145.134
L441.237 144.088
L441.492 146.136
L441.619 145.105
L441.874 147.197
L441.874 147.197
L442.002 147.194
L442.384 122.111
L442.64 140.966
L442.767 142.011
L443.022 142.011
L443.15 139.905
L443.533 139.905
L443.787 138.005
L443.915 139.905
L444.17 141.982
L444.298 141.982
L444.553 140.948
L444.935 140.936
L445.063 142.011
L445.318 140.789
L445.445 140.78
L445.701 137.592
L446.083 120.255
L446.211 121.404
L446.466 128.445
L446.593 135.707
L446.848 140.421
L446.976 139.065
L447.359 139.36
L447.614 140.715
L447.996 140.715
L448.124 135.324
L448.379 140.421
L448.762 137.519
L448.889 138.503
L449.144 134.19
L449.272 137.43
L449.527 137.43
L449.527 137.43
L449.654 142.011
L449.909 142.011
L450.165 149.642
L455.011 149.642
L455.266 148.11
L455.394 148.11
L455.649 147.093
L455.776 147.093
L456.032 149.642
L458.072 149.642
L458.455 133.645
L458.837 149.642
L459.093 149.642
L459.22 146.092
L459.475 142.984
L459.603 138.992
L460.24 149.167
L460.368 149.17
L460.623 148.242
L460.751 148.242
L461.006 143.367
L461.133 143.367
L461.388 149.642
L461.516 149.156
L461.899 149.141
L462.154 149.642
L462.281 149.642
L462.536 149.141
L462.664 144.604
L462.919 142.509
L463.046 142.512
L463.301 146.077
L463.429 140.421
L463.684 135.957
L463.812 149.642
L464.194 149.642
L464.577 147.093
L464.96 139.802
L465.215 149.642
L466.363 149.642
L466.49 152.573
L466.873 152.573
L467.256 149.539
L467.51 148.522
L467.893 146.475
L468.021 149.553
L468.276 147.521
L468.658 148.287
L469.168 148.287
L469.424 147.27
L469.551 146.239
L469.934 146.239
L470.189 148.287
L470.316 148.287
L470.571 149.297
L470.954 149.3
L471.082 147.27
L471.337 138.948
L471.464 138.948
L471.719 137.887
L471.847 136.812
L472.102 136.812
L472.229 137.887
L472.612 137.887
L472.867 138.771
L472.995 137.695
L473.25 132.584
L473.377 132.584
L473.632 131.479
L473.76 137.695
L474.015 133.365
L474.525 117.5
L474.78 122.14
L474.908 120.991
L475.163 120.976
L475.291 137.887
L475.546 146.027
L475.673 142.409
L475.928 146.03
L476.056 145.002
L476.311 146.018
L476.438 146.033
L476.693 140.995
L476.821 144.984
L477.076 144.84
L477.204 143.809
L477.459 146.033
L477.586 145.149
L477.969 147.211
L478.224 147.27
L478.352 143.131
L478.607 150.57
L478.734 146.313
L478.989 145.282
L479.117 143.19
L479.372 142.141
L479.499 142.135
L480.265 150.564
L480.52 147.521
L480.647 147.521
L480.902 148.537
L481.03 147.521
L481.285 148.39
L481.413 149.55
L481.795 149.553
L482.178 145.282
L482.433 145.282
L482.56 145.128
L482.816 143.043
L482.943 148.537
L483.198 145.429
L483.326 145.429
L483.581 143.352
L483.963 152.202
L484.091 151.203
L484.346 150.187
L484.474 151.2
L484.729 150.187
L484.856 150.184
L485.111 149.17
L485.239 149.17
L485.494 148.154
L486.004 152.205
L486.387 152.205
L486.642 150.199
L486.769 150.199
L487.024 146.121
L487.152 146.121
L487.407 145.09
L487.535 147.149
L487.79 146.121
L488.172 146.121
L488.3 147.146
L488.683 147.149
L488.938 146.121
L489.32 146.121
L489.448 145.09
L489.83 145.09
L490.085 137.474
L490.213 146.118
L490.468 145.09
L490.596 116.852
L490.851 145.09
L490.978 144.059
L491.233 143.941
L491.361 142.895
L491.616 141.849
L491.744 146.115
L491.999 144.943
L492.126 146.269
L492.509 146.121
L492.764 145.09
L493.274 153.572
L493.529 149.259
L494.04 149.259
L494.294 148.242
L494.422 147.226
L494.805 140.995
L495.06 138.874
L495.187 139.934
L495.697 146.31
L495.825 145.282
L495.825 145.282
L495.952 145.282
L496.208 142.159
L496.59 144.245
L496.973 144.245
L497.1 143.205
L497.355 143.205
L497.483 144.245
L497.866 141.113
L498.121 141.113
L498.248 144.242
L498.503 145.276
L498.886 145.279
L499.396 149.259
L499.651 148.11
L499.779 149.126
L500.034 146.313
L500.161 146.313
L500.416 149.126
L500.544 161.04
L500.927 158.068
L501.182 158.068
L501.309 157.051
L501.564 156.032
L501.692 155.048
L501.947 154.061
L502.075 155.048
L502.33 154.945
L502.457 155.048
L502.712 152.971
L502.84 149.966
L503.095 148.949
L503.222 153.958
L503.477 153.958
L503.605 150.968
L503.86 149.848
L503.988 149.848
L504.243 149.966
L504.37 150.968
L504.625 149.966
L504.753 148.949
L504.881 148.949
L505.136 149.966
L505.391 148.949
L505.518 149.966
L505.901 149.966
L506.156 148.949
L507.049 148.949
L507.431 139.89
L507.814 153.869
L508.452 145.62
L508.579 143.543
L508.834 144.589
L509.217 142.498
L509.344 142.498
L509.6 140.362
L509.727 143.543
L509.982 141.452
L510.365 142.498
L510.492 149.259
L510.747 147.815
L511.13 147.786
L511.513 148.832
L511.64 148.829
L511.895 144.398
L512.023 146.607
L512.278 145.576
L512.405 146.607
L512.661 146.313
L512.788 145.282
L513.043 144.25
L513.426 144.25
L513.553 143.205
L513.808 144.236
L513.936 142.144
L514.319 138.977
L514.574 140.038
L514.701 140.038
L514.956 138.977
L515.084 140.038
L515.339 138.977
L515.467 138.977
L515.722 135.766
L515.849 136.016
L516.232 143.19
L516.487 142.141
L516.614 146.313
L516.869 146.165
L516.997 145.134
L517.252 147.311
L517.38 147.311
L517.762 143.175
L518.017 141.083
L518.145 150.202
L518.4 148.169
L518.4 148.169" style="fill:none;stroke:#ff0000;stroke-linecap:square;"/>
   </g>
   <g id="line2d_2">
    <path clip-path="url(#pcb2bf987bf)" d="
M72 341.293
L73.7856 341.231
L73.9131 341.116
L76.0814 341.219
L76.2089 340.857
L76.8466 340.857
L76.9742 341.299
L78.3771 341.231
L78.3771 341.231
L78.5047 341.482
L79.9077 341.402
L80.0352 341.081
L82.9687 341.175
L83.0962 341.272
L83.7339 341.272
L83.8615 341.122
L85.2647 341.205
L85.7746 341.234
L89.856 341.202
L89.9835 340.939
L90.6213 340.939
L91.259 340.68
L92.1518 340.99
L92.917 340.942
L93.5547 341.016
L94.4475 341.29
L95.2128 341.317
L95.9781 341.47
L97.381 341.337
L98.2738 341.031
L99.0391 341.01
L99.6768 341.367
L100.57 341.043
L101.207 341.04
L102.1 341.293
L103.503 341.24
L105.799 341.178
L107.33 341.037
L108.222 341.42
L109.753 341.405
L110.518 341.655
L114.217 341.806
L115.109 341.92
L116.64 342.265
L117.278 341.891
L118.936 341.552
L119.573 341.652
L121.869 341.591
L122.762 341.826
L124.293 341.747
L125.696 341.072
L126.461 341.809
L126.461 341.809
L126.589 341.809
L127.354 341.629
L127.354 341.629
L129.522 341.679
L130.415 341.655
L131.052 341.841
L131.818 341.797
L132.583 342.2
L132.583 342.2
L134.113 341.803
L134.369 341.308
L134.879 341.308
L135.644 340.987
L136.537 341.311
L137.174 341.511
L137.94 341.205
L138.705 341.099
L139.598 341.252
L141.001 341.258
L141.893 341.405
L142.531 341.261
L143.296 341.228
L145.592 341.649
L145.72 341.649
L146.485 341.375
L148.653 341.744
L149.546 341.817
L150.184 341.47
L153.372 341.426
L154.01 341.856
L154.775 341.343
L155.541 341.564
L155.541 341.564
L156.306 341.582
L157.071 341.42
L158.602 341.52
L159.367 341.738
L160.132 341.758
L162.428 341.517
L163.321 341.514
L164.086 341.756
L164.851 341.505
L165.489 341.658
L166.254 341.688
L167.019 341.49
L167.912 341.502
L168.55 341.732
L170.08 341.582
L170.973 341.988
L172.376 341.667
L173.907 341.149
L174.8 341.278
L176.203 341.337
L177.095 341.555
L177.733 341.411
L180.922 341.128
L181.559 341.387
L183.09 341.013
L183.983 341.429
L184.62 341.066
L185.386 341.255
L186.151 341.11
L186.916 341.726
L187.681 341.452
L188.447 341.673
L189.339 341.37
L190.742 341.193
L193.803 341.932
L195.461 341.811
L196.864 341.926
L198.395 341.753
L198.395 341.753
L199.16 341.785
L200.691 341.529
L201.456 341.564
L202.221 341.738
L202.987 341.629
L205.41 342.032
L206.175 341.903
L206.303 342.103
L207.578 342.015
L208.343 341.809
L209.236 341.944
L209.236 341.944
L209.746 341.785
L210.001 341.785
L211.659 341.985
L212.297 341.985
L212.425 341.862
L214.593 341.882
L214.72 341.974
L215.358 341.974
L215.358 341.974
L215.486 342.127
L216.761 342.212
L216.761 342.212
L217.016 341.862
L220.715 341.82
L220.843 342.038
L220.843 342.038
L222.245 342.006
L222.373 341.608
L223.011 341.608
L223.011 341.608
L223.521 342.006
L224.541 341.932
L224.669 341.791
L225.307 341.791
L225.434 342.035
L226.072 342.035
L226.072 342.035
L226.327 341.897
L226.327 341.897
L227.602 341.841
L227.602 341.841
L228.112 341.473
L228.368 341.473
L228.495 341.264
L229.898 341.205
L230.281 341.152
L230.663 341.152
L230.663 341.152
L231.429 341.266
L231.429 341.266
L231.556 341.149
L234.49 341.225
L234.49 341.225
L234.617 341.552
L235.255 341.552
L235.255 341.552
L235.383 341.29
L236.02 341.29
L236.02 341.29
L236.148 341.172
L239.081 341.281
L239.209 341.405
L243.673 341.473
L243.8 341.596
L244.438 341.596
L244.565 341.732
L245.203 341.732
L245.203 341.732
L245.331 342.112
L246.734 342.112
L246.734 342.112
L246.861 341.47
L249.795 341.431
L249.795 341.431
L249.922 341.626
L250.56 341.626
L250.688 341.929
L252.856 341.953
L252.983 341.794
L254.386 341.741
L254.514 342.027
L255.152 342.027
L255.279 341.593
L255.279 341.593
L256.682 341.511
L256.81 341.443
L256.81 341.443
L257.447 341.443
L257.575 341.617
L258.978 341.638
L259.105 341.791
L261.274 341.844
L261.401 341.664
L262.039 341.664
L262.166 342.085
L263.569 342.053
L263.569 342.053
L263.697 341.862
L265.1 341.935
L265.1 341.935
L265.227 342.006
L266.63 341.938
L266.758 341.853
L271.987 341.959
L272.497 341.991
L273.518 341.947
L273.518 341.947
L273.645 341.605
L275.813 341.702
L276.196 341.753
L278.109 341.782
L278.109 341.782
L278.237 341.87
L279.64 341.876
L279.767 341.991
L281.936 341.897
L282.446 341.567
L282.701 341.567
L282.828 341.956
L283.466 341.956
L283.594 342.174
L284.231 342.174
L284.359 341.605
L284.869 341.605
L285.507 341.213
L288.058 341.193
L288.185 341.458
L291.119 341.487
L291.246 341.823
L294.18 341.779
L294.18 341.779
L294.307 341.635
L294.945 341.635
L294.945 341.635
L295.072 341.85
L301.832 341.761
L301.96 341.411
L302.597 341.411
L302.597 341.411
L303.108 341.599
L303.235 341.599
L303.49 341.803
L307.954 341.782
L308.082 342.174
L309.485 342.162
L309.612 342.286
L311.015 342.18
L311.143 342.097
L312.546 342.091
L312.673 342.227
L317.137 342.18
L317.265 342.112
L317.903 342.112
L318.03 341.823
L318.668 341.823
L318.668 341.823
L318.795 342.359
L319.433 342.359
L319.433 342.359
L319.561 341.729
L320.198 341.729
L320.326 341.535
L321.729 341.458
L322.877 341.364
L323.259 341.364
L323.387 341.243
L327.086 341.296
L327.213 341.694
L328.616 341.726
L328.744 341.319
L330.147 341.375
L330.274 341.511
L331.677 341.405
L331.805 341.729
L333.973 341.705
L334.101 341.588
L334.738 341.588
L334.866 341.476
L335.504 341.476
L335.631 341.299
L338.565 341.337
L338.692 341.523
L340.86 341.487
L340.988 341.317
L343.156 341.255
L343.284 341.134
L343.921 341.134
L343.921 341.134
L344.049 341.013
L346.982 341.096
L346.982 341.096
L347.11 341.588
L347.748 341.588
L347.875 341.296
L348.513 341.296
L348.64 341.711
L351.319 341.608
L351.957 341.473
L353.87 341.417
L353.87 341.417
L354.763 341.322
L355.4 341.322
L355.4 341.322
L355.528 341.523
L360.757 341.573
L360.885 341.72
L362.288 341.814
L362.415 341.567
L363.818 341.62
L363.946 341.756
L365.349 341.803
L365.476 342.174
L366.114 342.174
L366.114 342.174
L366.242 342.301
L367.644 342.303
L367.772 342.124
L369.94 342.141
L370.068 341.482
L370.705 341.482
L370.833 341.096
L372.236 341.104
L372.363 341.305
L373.001 341.305
L373.129 341.146
L373.766 341.146
L373.766 341.146
L373.894 341.384
L375.297 341.384
L375.424 341.652
L376.062 341.652
L376.19 341.455
L379.123 341.558
L379.888 341.579
L380.016 341.434
L380.654 341.434
L380.781 341.196
L381.419 341.196
L381.547 341.49
L386.011 341.487
L386.138 341.702
L387.541 341.647
L387.669 342.227
L388.306 342.227
L388.306 342.227
L388.434 345.235
L389.072 345.235
L389.199 341.782
L389.837 341.782
L389.964 341.476
L399.02 341.464
L399.147 341.34
L399.785 341.34
L399.913 341.213
L400.55 341.213
L400.678 341.361
L401.316 341.361
L401.443 341.673
L402.846 341.697
L402.974 341.87
L405.907 341.92
L406.035 342.1
L409.733 342.109
L409.861 341.829
L411.264 341.735
L411.392 341.187
L415.856 341.087
L416.238 341.043
L417.386 341.051
L417.514 341.228
L419.682 341.216
L419.809 341.057
L420.447 341.057
L420.575 341.29
L421.978 341.255
L422.105 341.552
L422.743 341.552
L422.87 341.702
L424.273 341.809
L424.656 341.865
L425.804 341.974
L426.187 342.032
L426.569 342.032
L426.697 341.673
L428.1 341.75
L428.227 341.517
L430.395 341.482
L430.524 341.381
L436.517 341.367
L436.645 341.237
L437.283 341.237
L437.41 341.564
L438.048 341.564
L438.176 341.261
L439.579 341.352
L439.706 341.502
L440.344 341.502
L440.344 341.502
L440.471 341.717
L441.874 341.702
L441.874 341.702
L442.002 341.894
L442.64 341.894
L442.767 341.546
L443.405 341.546
L443.533 341.367
L445.701 341.319
L447.231 341.063
L447.359 341.21
L447.996 341.21
L448.124 341.429
L448.762 341.429
L448.889 341.593
L449.527 341.593
L449.527 341.593
L449.654 341.82
L451.057 341.738
L451.185 341.423
L454.118 341.387
L454.246 341.302
L455.649 341.399
L455.776 341.16
L457.945 341.269
L458.072 341.44
L458.71 341.44
L458.837 341.281
L459.475 341.281
L459.603 341.004
L460.24 341.004
L460.368 341.219
L461.771 341.163
L461.899 340.942
L464.067 340.942
L464.194 341.231
L464.832 341.231
L464.96 341.01
L465.597 341.01
L465.597 341.01
L465.725 341.417
L467.128 341.467
L467.128 341.467
L467.256 341.558
L467.893 341.558
L468.021 341.146
L469.424 341.252
L469.934 341.278
L471.719 341.296
L471.847 341.063
L474.015 341.019
L474.143 340.901
L475.546 340.878
L475.673 341.269
L477.841 341.213
L477.969 341.399
L478.607 341.399
L478.734 341.685
L479.372 341.685
L479.499 341.42
L480.137 341.42
L480.265 341.635
L482.433 341.723
L482.56 341.396
L483.963 341.467
L484.091 341.797
L487.024 341.809
L487.152 341.529
L488.555 341.555
L488.683 341.682
L490.085 341.588
L490.978 341.549
L492.381 341.464
L492.509 341.832
L494.677 341.894
L494.805 341.673
L498.503 341.767
L498.631 341.941
L499.269 341.941
L499.269 341.941
L499.396 342.177
L500.034 342.177
L500.161 341.994
L500.799 341.994
L500.927 341.811
L501.564 341.811
L501.692 341.667
L503.095 341.593
L503.222 341.284
L504.625 341.334
L504.881 341.526
L508.452 341.523
L508.579 341.213
L509.982 341.293
L510.492 341.452
L512.278 341.375
L512.405 341.261
L513.808 341.317
L513.936 341.408
L514.574 341.408
L514.701 341.526
L515.339 341.526
L515.467 341.414
L516.869 341.493
L516.997 341.661
L518.4 341.649
L518.4 341.649" style="fill:none;stroke:#008000;stroke-linecap:square;"/>
   </g>
   <g id="patch_3">
    <path d="
M72 43.2
L518.4 43.2" style="fill:none;stroke:#000000;stroke-linecap:square;stroke-linejoin:miter;"/>
   </g>
   <g id="patch_4">
    <path d="
M518.4 345.6
L518.4 43.2" style="fill:none;stroke:#000000;stroke-linecap:square;stroke-linejoin:miter;"/>
   </g>
   <g id="patch_5">
    <path d="
M72 345.6
L518.4 345.6" style="fill:none;stroke:#000000;stroke-linecap:square;stroke-linejoin:miter;"/>
   </g>
   <g id="patch_6">
    <path d="
M72 345.6
L72 43.2" style="fill:none;stroke:#000000;stroke-linecap:square;stroke-linejoin:miter;"/>
   </g>
   <g id="matplotlib.axis_1">
    <g id="xtick_1">
     <g id="line2d_3">
      <defs>
       <path d="
M0 0
L0 -4" id="m93b0483c22" style="stroke:#000000;stroke-width:0.5;"/>
      </defs>
      <g>
       <use style="stroke:#000000;stroke-width:0.5;" x="118.170301715" xlink:href="#m93b0483c22" y="345.6"/>
      </g>
     </g>
     <g id="line2d_4">
      <defs>
       <path d="
M0 0
L0 4" id="m741efc42ff" style="stroke:#000000;stroke-width:0.5;"/>
      </defs>
      <g>
       <use style="stroke:#000000;stroke-width:0.5;" x="118.170301715" xlink:href="#m741efc42ff" y="43.2"/>
      </g>
     </g>
     <g id="text_1">
      <!-- Oct 13 2015 -->
      <defs>
       <path d="
M19.1875 8.29688
L53.6094 8.29688
L53.6094 0
L7.32812 0
L7.32812 8.29688
Q12.9375 14.1094 22.625 23.8906
Q32.3281 33.6875 34.8125 36.5312
Q39.5469 41.8438 41.4219 45.5312
Q43.3125 49.2188 43.3125 52.7812
Q43.3125 58.5938 39.2344 62.25
Q35.1562 65.9219 28.6094 65.9219
Q23.9688 65.9219 18.8125 64.3125
Q13.6719 62.7031 7.8125 59.4219
L7.8125 69.3906
Q13.7656 71.7812 18.9375 73
Q24.125 74.2188 28.4219 74.2188
Q39.75 74.2188 46.4844 68.5469
Q53.2188 62.8906 53.2188 53.4219
Q53.2188 48.9219 51.5312 44.8906
Q49.8594 40.875 45.4062 35.4062
Q44.1875 33.9844 37.6406 27.2188
Q31.1094 20.4531 19.1875 8.29688" id="BitstreamVeraSans-Roman-32"/>
       <path d="
M39.4062 66.2188
Q28.6562 66.2188 22.3281 58.2031
Q16.0156 50.2031 16.0156 36.375
Q16.0156 22.6094 22.3281 14.5938
Q28.6562 6.59375 39.4062 6.59375
Q50.1406 6.59375 56.4219 14.5938
Q62.7031 22.6094 62.7031 36.375
Q62.7031 50.2031 56.4219 58.2031
Q50.1406 66.2188 39.4062 66.2188
M39.4062 74.2188
Q54.7344 74.2188 63.9062 63.9375
Q73.0938 53.6562 73.0938 36.375
Q73.0938 19.1406 63.9062 8.85938
Q54.7344 -1.42188 39.4062 -1.42188
Q24.0312 -1.42188 14.8125 8.82812
Q5.60938 19.0938 5.60938 36.375
Q5.60938 53.6562 14.8125 63.9375
Q24.0312 74.2188 39.4062 74.2188" id="BitstreamVeraSans-Roman-4f"/>
       <path d="
M31.7812 66.4062
Q24.1719 66.4062 20.3281 58.9062
Q16.5 51.4219 16.5 36.375
Q16.5 21.3906 20.3281 13.8906
Q24.1719 6.39062 31.7812 6.39062
Q39.4531 6.39062 43.2812 13.8906
Q47.125 21.3906 47.125 36.375
Q47.125 51.4219 43.2812 58.9062
Q39.4531 66.4062 31.7812 66.4062
M31.7812 74.2188
Q44.0469 74.2188 50.5156 64.5156
Q56.9844 54.8281 56.9844 36.375
Q56.9844 17.9688 50.5156 8.26562
Q44.0469 -1.42188 31.7812 -1.42188
Q19.5312 -1.42188 13.0625 8.26562
Q6.59375 17.9688 6.59375 36.375
Q6.59375 54.8281 13.0625 64.5156
Q19.5312 74.2188 31.7812 74.2188" id="BitstreamVeraSans-Roman-30"/>
       <path d="
M12.4062 8.29688
L28.5156 8.29688
L28.5156 63.9219
L10.9844 60.4062
L10.9844 69.3906
L28.4219 72.9062
L38.2812 72.9062
L38.2812 8.29688
L54.3906 8.29688
L54.3906 0
L12.4062 0
z
" id="BitstreamVeraSans-Roman-31"/>
       <path d="
M40.5781 39.3125
Q47.6562 37.7969 51.625 33
Q55.6094 28.2188 55.6094 21.1875
Q55.6094 10.4062 48.1875 4.48438
Q40.7656 -1.42188 27.0938 -1.42188
Q22.5156 -1.42188 17.6562 -0.515625
Q12.7969 0.390625 7.625 2.20312
L7.625 11.7188
Q11.7188 9.32812 16.5938 8.10938
Q21.4844 6.89062 26.8125 6.89062
Q36.0781 6.89062 40.9375 10.5469
Q45.7969 14.2031 45.7969 21.1875
Q45.7969 27.6406 41.2812 31.2656
Q36.7656 34.9062 28.7188 34.9062
L20.2188 34.9062
L20.2188 43.0156
L29.1094 43.0156
Q36.375 43.0156 40.2344 45.9219
Q44.0938 48.8281 44.0938 54.2969
Q44.0938 59.9062 40.1094 62.9062
Q36.1406 65.9219 28.7188 65.9219
Q24.6562 65.9219 20.0156 65.0312
Q15.375 64.1562 9.8125 62.3125
L9.8125 71.0938
Q15.4375 72.6562 20.3438 73.4375
Q25.25 74.2188 29.5938 74.2188
Q40.8281 74.2188 47.3594 69.1094
Q53.9062 64.0156 53.9062 55.3281
Q53.9062 49.2656 50.4375 45.0938
Q46.9688 40.9219 40.5781 39.3125" id="BitstreamVeraSans-Roman-33"/>
       <path id="BitstreamVeraSans-Roman-20"/>
       <path d="
M10.7969 72.9062
L49.5156 72.9062
L49.5156 64.5938
L19.8281 64.5938
L19.8281 46.7344
Q21.9688 47.4688 24.1094 47.8281
Q26.2656 48.1875 28.4219 48.1875
Q40.625 48.1875 47.75 41.5
Q54.8906 34.8125 54.8906 23.3906
Q54.8906 11.625 47.5625 5.09375
Q40.2344 -1.42188 26.9062 -1.42188
Q22.3125 -1.42188 17.5469 -0.640625
Q12.7969 0.140625 7.71875 1.70312
L7.71875 11.625
Q12.1094 9.23438 16.7969 8.0625
Q21.4844 6.89062 26.7031 6.89062
Q35.1562 6.89062 40.0781 11.3281
Q45.0156 15.7656 45.0156 23.3906
Q45.0156 31 40.0781 35.4375
Q35.1562 39.8906 26.7031 39.8906
Q22.75 39.8906 18.8125 39.0156
Q14.8906 38.1406 10.7969 36.2812
z
" id="BitstreamVeraSans-Roman-35"/>
       <path d="
M18.3125 70.2188
L18.3125 54.6875
L36.8125 54.6875
L36.8125 47.7031
L18.3125 47.7031
L18.3125 18.0156
Q18.3125 11.3281 20.1406 9.42188
Q21.9688 7.51562 27.5938 7.51562
L36.8125 7.51562
L36.8125 0
L27.5938 0
Q17.1875 0 13.2344 3.875
Q9.28125 7.76562 9.28125 18.0156
L9.28125 47.7031
L2.6875 47.7031
L2.6875 54.6875
L9.28125 54.6875
L9.28125 70.2188
z
" id="BitstreamVeraSans-Roman-74"/>
       <path d="
M48.7812 52.5938
L48.7812 44.1875
Q44.9688 46.2969 41.1406 47.3438
Q37.3125 48.3906 33.4062 48.3906
Q24.6562 48.3906 19.8125 42.8438
Q14.9844 37.3125 14.9844 27.2969
Q14.9844 17.2812 19.8125 11.7344
Q24.6562 6.20312 33.4062 6.20312
Q37.3125 6.20312 41.1406 7.25
Q44.9688 8.29688 48.7812 10.4062
L48.7812 2.09375
Q45.0156 0.34375 40.9844 -0.53125
Q36.9688 -1.42188 32.4219 -1.42188
Q20.0625 -1.42188 12.7812 6.34375
Q5.51562 14.1094 5.51562 27.2969
Q5.51562 40.6719 12.8594 48.3281
Q20.2188 56 33.0156 56
Q37.1562 56 41.1094 55.1406
Q45.0625 54.2969 48.7812 52.5938" id="BitstreamVeraSans-Roman-63"/>
      </defs>
      <g transform="translate(53.5830149798 394.065590385)rotate(-30.0)scale(0.12 -0.12)">
       <use xlink:href="#BitstreamVeraSans-Roman-4f"/>
       <use x="78.7109375" xlink:href="#BitstreamVeraSans-Roman-63"/>
       <use x="133.69140625" xlink:href="#BitstreamVeraSans-Roman-74"/>
       <use x="172.900390625" xlink:href="#BitstreamVeraSans-Roman-20"/>
       <use x="204.6875" xlink:href="#BitstreamVeraSans-Roman-31"/>
       <use x="268.310546875" xlink:href="#BitstreamVeraSans-Roman-33"/>
       <use x="331.93359375" xlink:href="#BitstreamVeraSans-Roman-20"/>
       <use x="363.720703125" xlink:href="#BitstreamVeraSans-Roman-32"/>
       <use x="427.34375" xlink:href="#BitstreamVeraSans-Roman-30"/>
       <use x="490.966796875" xlink:href="#BitstreamVeraSans-Roman-31"/>
       <use x="554.58984375" xlink:href="#BitstreamVeraSans-Roman-35"/>
      </g>
     </g>
    </g>
    <g id="xtick_2">
     <g id="line2d_5">
      <g>
       <use style="stroke:#000000;stroke-width:0.5;" x="173.268816" xlink:href="#m93b0483c22" y="345.6"/>
      </g>
     </g>
     <g id="line2d_6">
      <g>
       <use style="stroke:#000000;stroke-width:0.5;" x="173.268816" xlink:href="#m741efc42ff" y="43.2"/>
      </g>
     </g>
     <g id="text_2">
      <!-- Oct 16 2015 -->
      <defs>
       <path d="
M33.0156 40.375
Q26.375 40.375 22.4844 35.8281
Q18.6094 31.2969 18.6094 23.3906
Q18.6094 15.5312 22.4844 10.9531
Q26.375 6.39062 33.0156 6.39062
Q39.6562 6.39062 43.5312 10.9531
Q47.4062 15.5312 47.4062 23.3906
Q47.4062 31.2969 43.5312 35.8281
Q39.6562 40.375 33.0156 40.375
M52.5938 71.2969
L52.5938 62.3125
Q48.875 64.0625 45.0938 64.9844
Q41.3125 65.9219 37.5938 65.9219
Q27.8281 65.9219 22.6719 59.3281
Q17.5312 52.7344 16.7969 39.4062
Q19.6719 43.6562 24.0156 45.9219
Q28.375 48.1875 33.5938 48.1875
Q44.5781 48.1875 50.9531 41.5156
Q57.3281 34.8594 57.3281 23.3906
Q57.3281 12.1562 50.6875 5.35938
Q44.0469 -1.42188 33.0156 -1.42188
Q20.3594 -1.42188 13.6719 8.26562
Q6.98438 17.9688 6.98438 36.375
Q6.98438 53.6562 15.1875 63.9375
Q23.3906 74.2188 37.2031 74.2188
Q40.9219 74.2188 44.7031 73.4844
Q48.4844 72.75 52.5938 71.2969" id="BitstreamVeraSans-Roman-36"/>
      </defs>
      <g transform="translate(108.681529265 394.065590385)rotate(-30.0)scale(0.12 -0.12)">
       <use xlink:href="#BitstreamVeraSans-Roman-4f"/>
       <use x="78.7109375" xlink:href="#BitstreamVeraSans-Roman-63"/>
       <use x="133.69140625" xlink:href="#BitstreamVeraSans-Roman-74"/>
       <use x="172.900390625" xlink:href="#BitstreamVeraSans-Roman-20"/>
       <use x="204.6875" xlink:href="#BitstreamVeraSans-Roman-31"/>
       <use x="268.310546875" xlink:href="#BitstreamVeraSans-Roman-36"/>
       <use x="331.93359375" xlink:href="#BitstreamVeraSans-Roman-20"/>
       <use x="363.720703125" xlink:href="#BitstreamVeraSans-Roman-32"/>
       <use x="427.34375" xlink:href="#BitstreamVeraSans-Roman-30"/>
       <use x="490.966796875" xlink:href="#BitstreamVeraSans-Roman-31"/>
       <use x="554.58984375" xlink:href="#BitstreamVeraSans-Roman-35"/>
      </g>
     </g>
    </g>
    <g id="xtick_3">
     <g id="line2d_7">
      <g>
       <use style="stroke:#000000;stroke-width:0.5;" x="228.367330285" xlink:href="#m93b0483c22" y="345.6"/>
      </g>
     </g>
     <g id="line2d_8">
      <g>
       <use style="stroke:#000000;stroke-width:0.5;" x="228.367330285" xlink:href="#m741efc42ff" y="43.2"/>
      </g>
     </g>
     <g id="text_3">
      <!-- Oct 19 2015 -->
      <defs>
       <path d="
M10.9844 1.51562
L10.9844 10.5
Q14.7031 8.73438 18.5 7.8125
Q22.3125 6.89062 25.9844 6.89062
Q35.75 6.89062 40.8906 13.4531
Q46.0469 20.0156 46.7812 33.4062
Q43.9531 29.2031 39.5938 26.9531
Q35.25 24.7031 29.9844 24.7031
Q19.0469 24.7031 12.6719 31.3125
Q6.29688 37.9375 6.29688 49.4219
Q6.29688 60.6406 12.9375 67.4219
Q19.5781 74.2188 30.6094 74.2188
Q43.2656 74.2188 49.9219 64.5156
Q56.5938 54.8281 56.5938 36.375
Q56.5938 19.1406 48.4062 8.85938
Q40.2344 -1.42188 26.4219 -1.42188
Q22.7031 -1.42188 18.8906 -0.6875
Q15.0938 0.046875 10.9844 1.51562
M30.6094 32.4219
Q37.25 32.4219 41.125 36.9531
Q45.0156 41.5 45.0156 49.4219
Q45.0156 57.2812 41.125 61.8438
Q37.25 66.4062 30.6094 66.4062
Q23.9688 66.4062 20.0938 61.8438
Q16.2188 57.2812 16.2188 49.4219
Q16.2188 41.5 20.0938 36.9531
Q23.9688 32.4219 30.6094 32.4219" id="BitstreamVeraSans-Roman-39"/>
      </defs>
      <g transform="translate(163.78004355 394.065590385)rotate(-30.0)scale(0.12 -0.12)">
       <use xlink:href="#BitstreamVeraSans-Roman-4f"/>
       <use x="78.7109375" xlink:href="#BitstreamVeraSans-Roman-63"/>
       <use x="133.69140625" xlink:href="#BitstreamVeraSans-Roman-74"/>
       <use x="172.900390625" xlink:href="#BitstreamVeraSans-Roman-20"/>
       <use x="204.6875" xlink:href="#BitstreamVeraSans-Roman-31"/>
       <use x="268.310546875" xlink:href="#BitstreamVeraSans-Roman-39"/>
       <use x="331.93359375" xlink:href="#BitstreamVeraSans-Roman-20"/>
       <use x="363.720703125" xlink:href="#BitstreamVeraSans-Roman-32"/>
       <use x="427.34375" xlink:href="#BitstreamVeraSans-Roman-30"/>
       <use x="490.966796875" xlink:href="#BitstreamVeraSans-Roman-31"/>
       <use x="554.58984375" xlink:href="#BitstreamVeraSans-Roman-35"/>
      </g>
     </g>
    </g>
    <g id="xtick_4">
     <g id="line2d_9">
      <g>
       <use style="stroke:#000000;stroke-width:0.5;" x="283.465844572" xlink:href="#m93b0483c22" y="345.6"/>
      </g>
     </g>
     <g id="line2d_10">
      <g>
       <use style="stroke:#000000;stroke-width:0.5;" x="283.465844572" xlink:href="#m741efc42ff" y="43.2"/>
      </g>
     </g>
     <g id="text_4">
      <!-- Oct 22 2015 -->
      <g transform="translate(218.878557836 394.065590385)rotate(-30.0)scale(0.12 -0.12)">
       <use xlink:href="#BitstreamVeraSans-Roman-4f"/>
       <use x="78.7109375" xlink:href="#BitstreamVeraSans-Roman-63"/>
       <use x="133.69140625" xlink:href="#BitstreamVeraSans-Roman-74"/>
       <use x="172.900390625" xlink:href="#BitstreamVeraSans-Roman-20"/>
       <use x="204.6875" xlink:href="#BitstreamVeraSans-Roman-32"/>
       <use x="268.310546875" xlink:href="#BitstreamVeraSans-Roman-32"/>
       <use x="331.93359375" xlink:href="#BitstreamVeraSans-Roman-20"/>
       <use x="363.720703125" xlink:href="#BitstreamVeraSans-Roman-32"/>
       <use x="427.34375" xlink:href="#BitstreamVeraSans-Roman-30"/>
       <use x="490.966796875" xlink:href="#BitstreamVeraSans-Roman-31"/>
       <use x="554.58984375" xlink:href="#BitstreamVeraSans-Roman-35"/>
      </g>
     </g>
    </g>
    <g id="xtick_5">
     <g id="line2d_11">
      <g>
       <use style="stroke:#000000;stroke-width:0.5;" x="338.564358857" xlink:href="#m93b0483c22" y="345.6"/>
      </g>
     </g>
     <g id="line2d_12">
      <g>
       <use style="stroke:#000000;stroke-width:0.5;" x="338.564358857" xlink:href="#m741efc42ff" y="43.2"/>
      </g>
     </g>
     <g id="text_5">
      <!-- Oct 25 2015 -->
      <g transform="translate(273.977072121 394.065590385)rotate(-30.0)scale(0.12 -0.12)">
       <use xlink:href="#BitstreamVeraSans-Roman-4f"/>
       <use x="78.7109375" xlink:href="#BitstreamVeraSans-Roman-63"/>
       <use x="133.69140625" xlink:href="#BitstreamVeraSans-Roman-74"/>
       <use x="172.900390625" xlink:href="#BitstreamVeraSans-Roman-20"/>
       <use x="204.6875" xlink:href="#BitstreamVeraSans-Roman-32"/>
       <use x="268.310546875" xlink:href="#BitstreamVeraSans-Roman-35"/>
       <use x="331.93359375" xlink:href="#BitstreamVeraSans-Roman-20"/>
       <use x="363.720703125" xlink:href="#BitstreamVeraSans-Roman-32"/>
       <use x="427.34375" xlink:href="#BitstreamVeraSans-Roman-30"/>
       <use x="490.966796875" xlink:href="#BitstreamVeraSans-Roman-31"/>
       <use x="554.58984375" xlink:href="#BitstreamVeraSans-Roman-35"/>
      </g>
     </g>
    </g>
    <g id="xtick_6">
     <g id="line2d_13">
      <g>
       <use style="stroke:#000000;stroke-width:0.5;" x="393.662873141" xlink:href="#m93b0483c22" y="345.6"/>
      </g>
     </g>
     <g id="line2d_14">
      <g>
       <use style="stroke:#000000;stroke-width:0.5;" x="393.662873141" xlink:href="#m741efc42ff" y="43.2"/>
      </g>
     </g>
     <g id="text_6">
      <!-- Oct 28 2015 -->
      <defs>
       <path d="
M31.7812 34.625
Q24.75 34.625 20.7188 30.8594
Q16.7031 27.0938 16.7031 20.5156
Q16.7031 13.9219 20.7188 10.1562
Q24.75 6.39062 31.7812 6.39062
Q38.8125 6.39062 42.8594 10.1719
Q46.9219 13.9688 46.9219 20.5156
Q46.9219 27.0938 42.8906 30.8594
Q38.875 34.625 31.7812 34.625
M21.9219 38.8125
Q15.5781 40.375 12.0312 44.7188
Q8.5 49.0781 8.5 55.3281
Q8.5 64.0625 14.7188 69.1406
Q20.9531 74.2188 31.7812 74.2188
Q42.6719 74.2188 48.875 69.1406
Q55.0781 64.0625 55.0781 55.3281
Q55.0781 49.0781 51.5312 44.7188
Q48 40.375 41.7031 38.8125
Q48.8281 37.1562 52.7969 32.3125
Q56.7812 27.4844 56.7812 20.5156
Q56.7812 9.90625 50.3125 4.23438
Q43.8438 -1.42188 31.7812 -1.42188
Q19.7344 -1.42188 13.25 4.23438
Q6.78125 9.90625 6.78125 20.5156
Q6.78125 27.4844 10.7812 32.3125
Q14.7969 37.1562 21.9219 38.8125
M18.3125 54.3906
Q18.3125 48.7344 21.8438 45.5625
Q25.3906 42.3906 31.7812 42.3906
Q38.1406 42.3906 41.7188 45.5625
Q45.3125 48.7344 45.3125 54.3906
Q45.3125 60.0625 41.7188 63.2344
Q38.1406 66.4062 31.7812 66.4062
Q25.3906 66.4062 21.8438 63.2344
Q18.3125 60.0625 18.3125 54.3906" id="BitstreamVeraSans-Roman-38"/>
      </defs>
      <g transform="translate(329.075586406 394.065590385)rotate(-30.0)scale(0.12 -0.12)">
       <use xlink:href="#BitstreamVeraSans-Roman-4f"/>
       <use x="78.7109375" xlink:href="#BitstreamVeraSans-Roman-63"/>
       <use x="133.69140625" xlink:href="#BitstreamVeraSans-Roman-74"/>
       <use x="172.900390625" xlink:href="#BitstreamVeraSans-Roman-20"/>
       <use x="204.6875" xlink:href="#BitstreamVeraSans-Roman-32"/>
       <use x="268.310546875" xlink:href="#BitstreamVeraSans-Roman-38"/>
       <use x="331.93359375" xlink:href="#BitstreamVeraSans-Roman-20"/>
       <use x="363.720703125" xlink:href="#BitstreamVeraSans-Roman-32"/>
       <use x="427.34375" xlink:href="#BitstreamVeraSans-Roman-30"/>
       <use x="490.966796875" xlink:href="#BitstreamVeraSans-Roman-31"/>
       <use x="554.58984375" xlink:href="#BitstreamVeraSans-Roman-35"/>
      </g>
     </g>
    </g>
    <g id="xtick_7">
     <g id="line2d_15">
      <g>
       <use style="stroke:#000000;stroke-width:0.5;" x="448.761387428" xlink:href="#m93b0483c22" y="345.6"/>
      </g>
     </g>
     <g id="line2d_16">
      <g>
       <use style="stroke:#000000;stroke-width:0.5;" x="448.761387428" xlink:href="#m741efc42ff" y="43.2"/>
      </g>
     </g>
     <g id="text_7">
      <!-- Oct 31 2015 -->
      <g transform="translate(384.174100693 394.065590385)rotate(-30.0)scale(0.12 -0.12)">
       <use xlink:href="#BitstreamVeraSans-Roman-4f"/>
       <use x="78.7109375" xlink:href="#BitstreamVeraSans-Roman-63"/>
       <use x="133.69140625" xlink:href="#BitstreamVeraSans-Roman-74"/>
       <use x="172.900390625" xlink:href="#BitstreamVeraSans-Roman-20"/>
       <use x="204.6875" xlink:href="#BitstreamVeraSans-Roman-33"/>
       <use x="268.310546875" xlink:href="#BitstreamVeraSans-Roman-31"/>
       <use x="331.93359375" xlink:href="#BitstreamVeraSans-Roman-20"/>
       <use x="363.720703125" xlink:href="#BitstreamVeraSans-Roman-32"/>
       <use x="427.34375" xlink:href="#BitstreamVeraSans-Roman-30"/>
       <use x="490.966796875" xlink:href="#BitstreamVeraSans-Roman-31"/>
       <use x="554.58984375" xlink:href="#BitstreamVeraSans-Roman-35"/>
      </g>
     </g>
    </g>
    <g id="xtick_8">
     <g id="line2d_17">
      <g>
       <use style="stroke:#000000;stroke-width:0.5;" x="503.859901713" xlink:href="#m93b0483c22" y="345.6"/>
      </g>
     </g>
     <g id="line2d_18">
      <g>
       <use style="stroke:#000000;stroke-width:0.5;" x="503.859901713" xlink:href="#m741efc42ff" y="43.2"/>
      </g>
     </g>
     <g id="text_8">
      <!-- Nov 03 2015 -->
      <defs>
       <path d="
M2.98438 54.6875
L12.5 54.6875
L29.5938 8.79688
L46.6875 54.6875
L56.2031 54.6875
L35.6875 0
L23.4844 0
z
" id="BitstreamVeraSans-Roman-76"/>
       <path d="
M9.8125 72.9062
L23.0938 72.9062
L55.4219 11.9219
L55.4219 72.9062
L64.9844 72.9062
L64.9844 0
L51.7031 0
L19.3906 60.9844
L19.3906 0
L9.8125 0
z
" id="BitstreamVeraSans-Roman-4e"/>
       <path d="
M30.6094 48.3906
Q23.3906 48.3906 19.1875 42.75
Q14.9844 37.1094 14.9844 27.2969
Q14.9844 17.4844 19.1562 11.8438
Q23.3438 6.20312 30.6094 6.20312
Q37.7969 6.20312 41.9844 11.8594
Q46.1875 17.5312 46.1875 27.2969
Q46.1875 37.0156 41.9844 42.7031
Q37.7969 48.3906 30.6094 48.3906
M30.6094 56
Q42.3281 56 49.0156 48.375
Q55.7188 40.7656 55.7188 27.2969
Q55.7188 13.875 49.0156 6.21875
Q42.3281 -1.42188 30.6094 -1.42188
Q18.8438 -1.42188 12.1719 6.21875
Q5.51562 13.875 5.51562 27.2969
Q5.51562 40.7656 12.1719 48.375
Q18.8438 56 30.6094 56" id="BitstreamVeraSans-Roman-6f"/>
      </defs>
      <g transform="translate(436.957079555 395.402465385)rotate(-30.0)scale(0.12 -0.12)">
       <use xlink:href="#BitstreamVeraSans-Roman-4e"/>
       <use x="74.8046875" xlink:href="#BitstreamVeraSans-Roman-6f"/>
       <use x="135.986328125" xlink:href="#BitstreamVeraSans-Roman-76"/>
       <use x="195.166015625" xlink:href="#BitstreamVeraSans-Roman-20"/>
       <use x="226.953125" xlink:href="#BitstreamVeraSans-Roman-30"/>
       <use x="290.576171875" xlink:href="#BitstreamVeraSans-Roman-33"/>
       <use x="354.19921875" xlink:href="#BitstreamVeraSans-Roman-20"/>
       <use x="385.986328125" xlink:href="#BitstreamVeraSans-Roman-32"/>
       <use x="449.609375" xlink:href="#BitstreamVeraSans-Roman-30"/>
       <use x="513.232421875" xlink:href="#BitstreamVeraSans-Roman-31"/>
       <use x="576.85546875" xlink:href="#BitstreamVeraSans-Roman-35"/>
      </g>
     </g>
    </g>
   </g>
   <g id="matplotlib.axis_2">
    <g id="ytick_1">
     <g id="line2d_19">
      <defs>
       <path d="
M0 0
L4 0" id="m728421d6d4" style="stroke:#000000;stroke-width:0.5;"/>
      </defs>
      <g>
       <use style="stroke:#000000;stroke-width:0.5;" x="72.0" xlink:href="#m728421d6d4" y="293.61660598"/>
      </g>
     </g>
     <g id="line2d_20">
      <defs>
       <path d="
M0 0
L-4 0" id="mcb0005524f" style="stroke:#000000;stroke-width:0.5;"/>
      </defs>
      <g>
       <use style="stroke:#000000;stroke-width:0.5;" x="518.4" xlink:href="#mcb0005524f" y="293.61660598"/>
      </g>
     </g>
     <g id="text_9">
      <!-- 20000 -->
      <g transform="translate(31.50125 296.92785598)scale(0.12 -0.12)">
       <use xlink:href="#BitstreamVeraSans-Roman-32"/>
       <use x="63.623046875" xlink:href="#BitstreamVeraSans-Roman-30"/>
       <use x="127.24609375" xlink:href="#BitstreamVeraSans-Roman-30"/>
       <use x="190.869140625" xlink:href="#BitstreamVeraSans-Roman-30"/>
       <use x="254.4921875" xlink:href="#BitstreamVeraSans-Roman-30"/>
      </g>
     </g>
    </g>
    <g id="ytick_2">
     <g id="line2d_21">
      <g>
       <use style="stroke:#000000;stroke-width:0.5;" x="72.0" xlink:href="#m728421d6d4" y="234.695051632"/>
      </g>
     </g>
     <g id="line2d_22">
      <g>
       <use style="stroke:#000000;stroke-width:0.5;" x="518.4" xlink:href="#mcb0005524f" y="234.695051632"/>
      </g>
     </g>
     <g id="text_10">
      <!-- 40000 -->
      <defs>
       <path d="
M37.7969 64.3125
L12.8906 25.3906
L37.7969 25.3906
z

M35.2031 72.9062
L47.6094 72.9062
L47.6094 25.3906
L58.0156 25.3906
L58.0156 17.1875
L47.6094 17.1875
L47.6094 0
L37.7969 0
L37.7969 17.1875
L4.89062 17.1875
L4.89062 26.7031
z
" id="BitstreamVeraSans-Roman-34"/>
      </defs>
      <g transform="translate(31.20875 238.006301632)scale(0.12 -0.12)">
       <use xlink:href="#BitstreamVeraSans-Roman-34"/>
       <use x="63.623046875" xlink:href="#BitstreamVeraSans-Roman-30"/>
       <use x="127.24609375" xlink:href="#BitstreamVeraSans-Roman-30"/>
       <use x="190.869140625" xlink:href="#BitstreamVeraSans-Roman-30"/>
       <use x="254.4921875" xlink:href="#BitstreamVeraSans-Roman-30"/>
      </g>
     </g>
    </g>
    <g id="ytick_3">
     <g id="line2d_23">
      <g>
       <use style="stroke:#000000;stroke-width:0.5;" x="72.0" xlink:href="#m728421d6d4" y="175.773497284"/>
      </g>
     </g>
     <g id="line2d_24">
      <g>
       <use style="stroke:#000000;stroke-width:0.5;" x="518.4" xlink:href="#mcb0005524f" y="175.773497284"/>
      </g>
     </g>
     <g id="text_11">
      <!-- 60000 -->
      <g transform="translate(31.46 179.084747284)scale(0.12 -0.12)">
       <use xlink:href="#BitstreamVeraSans-Roman-36"/>
       <use x="63.623046875" xlink:href="#BitstreamVeraSans-Roman-30"/>
       <use x="127.24609375" xlink:href="#BitstreamVeraSans-Roman-30"/>
       <use x="190.869140625" xlink:href="#BitstreamVeraSans-Roman-30"/>
       <use x="254.4921875" xlink:href="#BitstreamVeraSans-Roman-30"/>
      </g>
     </g>
    </g>
    <g id="ytick_4">
     <g id="line2d_25">
      <g>
       <use style="stroke:#000000;stroke-width:0.5;" x="72.0" xlink:href="#m728421d6d4" y="116.851942935"/>
      </g>
     </g>
     <g id="line2d_26">
      <g>
       <use style="stroke:#000000;stroke-width:0.5;" x="518.4" xlink:href="#mcb0005524f" y="116.851942935"/>
      </g>
     </g>
     <g id="text_12">
      <!-- 80000 -->
      <g transform="translate(31.435625 120.163192935)scale(0.12 -0.12)">
       <use xlink:href="#BitstreamVeraSans-Roman-38"/>
       <use x="63.623046875" xlink:href="#BitstreamVeraSans-Roman-30"/>
       <use x="127.24609375" xlink:href="#BitstreamVeraSans-Roman-30"/>
       <use x="190.869140625" xlink:href="#BitstreamVeraSans-Roman-30"/>
       <use x="254.4921875" xlink:href="#BitstreamVeraSans-Roman-30"/>
      </g>
     </g>
    </g>
    <g id="ytick_5">
     <g id="line2d_27">
      <g>
       <use style="stroke:#000000;stroke-width:0.5;" x="72.0" xlink:href="#m728421d6d4" y="57.9303885871"/>
      </g>
     </g>
     <g id="line2d_28">
      <g>
       <use style="stroke:#000000;stroke-width:0.5;" x="518.4" xlink:href="#mcb0005524f" y="57.9303885871"/>
      </g>
     </g>
     <g id="text_13">
      <!-- 100000 -->
      <g transform="translate(24.305 61.2416385871)scale(0.12 -0.12)">
       <use xlink:href="#BitstreamVeraSans-Roman-31"/>
       <use x="63.623046875" xlink:href="#BitstreamVeraSans-Roman-30"/>
       <use x="127.24609375" xlink:href="#BitstreamVeraSans-Roman-30"/>
       <use x="190.869140625" xlink:href="#BitstreamVeraSans-Roman-30"/>
       <use x="254.4921875" xlink:href="#BitstreamVeraSans-Roman-30"/>
       <use x="318.115234375" xlink:href="#BitstreamVeraSans-Roman-30"/>
      </g>
     </g>
    </g>
   </g>
   <g id="text_14">
    <!-- Titan -->
    <defs>
     <path d="
M54.8906 33.0156
L54.8906 0
L45.9062 0
L45.9062 32.7188
Q45.9062 40.4844 42.875 44.3281
Q39.8438 48.1875 33.7969 48.1875
Q26.5156 48.1875 22.3125 43.5469
Q18.1094 38.9219 18.1094 30.9062
L18.1094 0
L9.07812 0
L9.07812 54.6875
L18.1094 54.6875
L18.1094 46.1875
Q21.3438 51.125 25.7031 53.5625
Q30.0781 56 35.7969 56
Q45.2188 56 50.0469 50.1719
Q54.8906 44.3438 54.8906 33.0156" id="BitstreamVeraSans-Roman-6e"/>
     <path d="
M9.42188 54.6875
L18.4062 54.6875
L18.4062 0
L9.42188 0
z

M9.42188 75.9844
L18.4062 75.9844
L18.4062 64.5938
L9.42188 64.5938
z
" id="BitstreamVeraSans-Roman-69"/>
     <path d="
M34.2812 27.4844
Q23.3906 27.4844 19.1875 25
Q14.9844 22.5156 14.9844 16.5
Q14.9844 11.7188 18.1406 8.90625
Q21.2969 6.10938 26.7031 6.10938
Q34.1875 6.10938 38.7031 11.4062
Q43.2188 16.7031 43.2188 25.4844
L43.2188 27.4844
z

M52.2031 31.2031
L52.2031 0
L43.2188 0
L43.2188 8.29688
Q40.1406 3.32812 35.5469 0.953125
Q30.9531 -1.42188 24.3125 -1.42188
Q15.9219 -1.42188 10.9531 3.29688
Q6 8.01562 6 15.9219
Q6 25.1406 12.1719 29.8281
Q18.3594 34.5156 30.6094 34.5156
L43.2188 34.5156
L43.2188 35.4062
Q43.2188 41.6094 39.1406 45
Q35.0625 48.3906 27.6875 48.3906
Q23 48.3906 18.5469 47.2656
Q14.1094 46.1406 10.0156 43.8906
L10.0156 52.2031
Q14.9375 54.1094 19.5781 55.0469
Q24.2188 56 28.6094 56
Q40.4844 56 46.3438 49.8438
Q52.2031 43.7031 52.2031 31.2031" id="BitstreamVeraSans-Roman-61"/>
     <path d="
M-0.296875 72.9062
L61.375 72.9062
L61.375 64.5938
L35.5 64.5938
L35.5 0
L25.5938 0
L25.5938 64.5938
L-0.296875 64.5938
z
" id="BitstreamVeraSans-Roman-54"/>
    </defs>
    <g transform="translate(483.6375 38.2)scale(0.144 -0.144)">
     <use xlink:href="#BitstreamVeraSans-Roman-54"/>
     <use x="57.958984375" xlink:href="#BitstreamVeraSans-Roman-69"/>
     <use x="85.7421875" xlink:href="#BitstreamVeraSans-Roman-74"/>
     <use x="124.951171875" xlink:href="#BitstreamVeraSans-Roman-61"/>
     <use x="186.23046875" xlink:href="#BitstreamVeraSans-Roman-6e"/>
    </g>
   </g>
   <g id="legend_1">
    <g id="patch_7">
     <path d="
M123.942 423.616
L466.458 423.616
L466.458 398.16
L123.942 398.16
z
" style="fill:#ffffff;stroke:#000000;stroke-linejoin:miter;"/>
    </g>
    <g id="line2d_29">
     <path d="
M134.022 409.822
L154.182 409.822" style="fill:none;stroke:#ff0000;stroke-linecap:square;"/>
    </g>
    <g id="line2d_30"/>
    <g id="text_15">
     <!-- Schwarzmarktpreis -->
     <defs>
      <path d="
M52 44.1875
Q55.375 50.25 60.0625 53.125
Q64.75 56 71.0938 56
Q79.6406 56 84.2812 50.0156
Q88.9219 44.0469 88.9219 33.0156
L88.9219 0
L79.8906 0
L79.8906 32.7188
Q79.8906 40.5781 77.0938 44.375
Q74.3125 48.1875 68.6094 48.1875
Q61.625 48.1875 57.5625 43.5469
Q53.5156 38.9219 53.5156 30.9062
L53.5156 0
L44.4844 0
L44.4844 32.7188
Q44.4844 40.625 41.7031 44.4062
Q38.9219 48.1875 33.1094 48.1875
Q26.2188 48.1875 22.1562 43.5312
Q18.1094 38.875 18.1094 30.9062
L18.1094 0
L9.07812 0
L9.07812 54.6875
L18.1094 54.6875
L18.1094 46.1875
Q21.1875 51.2188 25.4844 53.6094
Q29.7812 56 35.6875 56
Q41.6562 56 45.8281 52.9688
Q50 49.9531 52 44.1875" id="BitstreamVeraSans-Roman-6d"/>
      <path d="
M5.51562 54.6875
L48.1875 54.6875
L48.1875 46.4844
L14.4062 7.17188
L48.1875 7.17188
L48.1875 0
L4.29688 0
L4.29688 8.20312
L38.0938 47.5156
L5.51562 47.5156
z
" id="BitstreamVeraSans-Roman-7a"/>
      <path d="
M53.5156 70.5156
L53.5156 60.8906
Q47.9062 63.5781 42.9219 64.8906
Q37.9375 66.2188 33.2969 66.2188
Q25.25 66.2188 20.875 63.0938
Q16.5 59.9688 16.5 54.2031
Q16.5 49.3594 19.4062 46.8906
Q22.3125 44.4375 30.4219 42.9219
L36.375 41.7031
Q47.4062 39.5938 52.6562 34.2969
Q57.9062 29 57.9062 20.125
Q57.9062 9.51562 50.7969 4.04688
Q43.7031 -1.42188 29.9844 -1.42188
Q24.8125 -1.42188 18.9688 -0.25
Q13.1406 0.921875 6.89062 3.21875
L6.89062 13.375
Q12.8906 10.0156 18.6562 8.29688
Q24.4219 6.59375 29.9844 6.59375
Q38.4219 6.59375 43.0156 9.90625
Q47.6094 13.2344 47.6094 19.3906
Q47.6094 24.75 44.3125 27.7812
Q41.0156 30.8125 33.5 32.3281
L27.4844 33.5
Q16.4531 35.6875 11.5156 40.375
Q6.59375 45.0625 6.59375 53.4219
Q6.59375 63.0938 13.4062 68.6562
Q20.2188 74.2188 32.1719 74.2188
Q37.3125 74.2188 42.625 73.2812
Q47.9531 72.3594 53.5156 70.5156" id="BitstreamVeraSans-Roman-53"/>
      <path d="
M54.8906 33.0156
L54.8906 0
L45.9062 0
L45.9062 32.7188
Q45.9062 40.4844 42.875 44.3281
Q39.8438 48.1875 33.7969 48.1875
Q26.5156 48.1875 22.3125 43.5469
Q18.1094 38.9219 18.1094 30.9062
L18.1094 0
L9.07812 0
L9.07812 75.9844
L18.1094 75.9844
L18.1094 46.1875
Q21.3438 51.125 25.7031 53.5625
Q30.0781 56 35.7969 56
Q45.2188 56 50.0469 50.1719
Q54.8906 44.3438 54.8906 33.0156" id="BitstreamVeraSans-Roman-68"/>
      <path d="
M56.2031 29.5938
L56.2031 25.2031
L14.8906 25.2031
Q15.4844 15.9219 20.4844 11.0625
Q25.4844 6.20312 34.4219 6.20312
Q39.5938 6.20312 44.4531 7.46875
Q49.3125 8.73438 54.1094 11.2812
L54.1094 2.78125
Q49.2656 0.734375 44.1875 -0.34375
Q39.1094 -1.42188 33.8906 -1.42188
Q20.7969 -1.42188 13.1562 6.1875
Q5.51562 13.8125 5.51562 26.8125
Q5.51562 40.2344 12.7656 48.1094
Q20.0156 56 32.3281 56
Q43.3594 56 49.7812 48.8906
Q56.2031 41.7969 56.2031 29.5938
M47.2188 32.2344
Q47.125 39.5938 43.0938 43.9844
Q39.0625 48.3906 32.4219 48.3906
Q24.9062 48.3906 20.3906 44.1406
Q15.875 39.8906 15.1875 32.1719
z
" id="BitstreamVeraSans-Roman-65"/>
      <path d="
M4.20312 54.6875
L13.1875 54.6875
L24.4219 12.0156
L35.5938 54.6875
L46.1875 54.6875
L57.4219 12.0156
L68.6094 54.6875
L77.5938 54.6875
L63.2812 0
L52.6875 0
L40.9219 44.8281
L29.1094 0
L18.5 0
z
" id="BitstreamVeraSans-Roman-77"/>
      <path d="
M9.07812 75.9844
L18.1094 75.9844
L18.1094 31.1094
L44.9219 54.6875
L56.3906 54.6875
L27.3906 29.1094
L57.625 0
L45.9062 0
L18.1094 26.7031
L18.1094 0
L9.07812 0
z
" id="BitstreamVeraSans-Roman-6b"/>
      <path d="
M41.1094 46.2969
Q39.5938 47.1719 37.8125 47.5781
Q36.0312 48 33.8906 48
Q26.2656 48 22.1875 43.0469
Q18.1094 38.0938 18.1094 28.8125
L18.1094 0
L9.07812 0
L9.07812 54.6875
L18.1094 54.6875
L18.1094 46.1875
Q20.9531 51.1719 25.4844 53.5781
Q30.0312 56 36.5312 56
Q37.4531 56 38.5781 55.875
Q39.7031 55.7656 41.0625 55.5156
z
" id="BitstreamVeraSans-Roman-72"/>
      <path d="
M44.2812 53.0781
L44.2812 44.5781
Q40.4844 46.5312 36.375 47.5
Q32.2812 48.4844 27.875 48.4844
Q21.1875 48.4844 17.8438 46.4375
Q14.5 44.3906 14.5 40.2812
Q14.5 37.1562 16.8906 35.375
Q19.2812 33.5938 26.5156 31.9844
L29.5938 31.2969
Q39.1562 29.25 43.1875 25.5156
Q47.2188 21.7812 47.2188 15.0938
Q47.2188 7.46875 41.1875 3.01562
Q35.1562 -1.42188 24.6094 -1.42188
Q20.2188 -1.42188 15.4531 -0.5625
Q10.6875 0.296875 5.42188 2
L5.42188 11.2812
Q10.4062 8.6875 15.2344 7.39062
Q20.0625 6.10938 24.8125 6.10938
Q31.1562 6.10938 34.5625 8.28125
Q37.9844 10.4531 37.9844 14.4062
Q37.9844 18.0625 35.5156 20.0156
Q33.0625 21.9688 24.7031 23.7812
L21.5781 24.5156
Q13.2344 26.2656 9.51562 29.9062
Q5.8125 33.5469 5.8125 39.8906
Q5.8125 47.6094 11.2812 51.7969
Q16.75 56 26.8125 56
Q31.7812 56 36.1719 55.2656
Q40.5781 54.5469 44.2812 53.0781" id="BitstreamVeraSans-Roman-73"/>
      <path d="
M18.1094 8.20312
L18.1094 -20.7969
L9.07812 -20.7969
L9.07812 54.6875
L18.1094 54.6875
L18.1094 46.3906
Q20.9531 51.2656 25.2656 53.625
Q29.5938 56 35.5938 56
Q45.5625 56 51.7812 48.0938
Q58.0156 40.1875 58.0156 27.2969
Q58.0156 14.4062 51.7812 6.48438
Q45.5625 -1.42188 35.5938 -1.42188
Q29.5938 -1.42188 25.2656 0.953125
Q20.9531 3.32812 18.1094 8.20312
M48.6875 27.2969
Q48.6875 37.2031 44.6094 42.8438
Q40.5312 48.4844 33.4062 48.4844
Q26.2656 48.4844 22.1875 42.8438
Q18.1094 37.2031 18.1094 27.2969
Q18.1094 17.3906 22.1875 11.75
Q26.2656 6.10938 33.4062 6.10938
Q40.5312 6.10938 44.6094 11.75
Q48.6875 17.3906 48.6875 27.2969" id="BitstreamVeraSans-Roman-70"/>
     </defs>
     <g transform="translate(170.022375 414.86175)scale(0.144 -0.144)">
      <use xlink:href="#BitstreamVeraSans-Roman-53"/>
      <use x="63.4765625" xlink:href="#BitstreamVeraSans-Roman-63"/>
      <use x="118.45703125" xlink:href="#BitstreamVeraSans-Roman-68"/>
      <use x="181.8359375" xlink:href="#BitstreamVeraSans-Roman-77"/>
      <use x="263.623046875" xlink:href="#BitstreamVeraSans-Roman-61"/>
      <use x="324.90234375" xlink:href="#BitstreamVeraSans-Roman-72"/>
      <use x="366.015625" xlink:href="#BitstreamVeraSans-Roman-7a"/>
      <use x="418.505859375" xlink:href="#BitstreamVeraSans-Roman-6d"/>
      <use x="515.91796875" xlink:href="#BitstreamVeraSans-Roman-61"/>
      <use x="577.197265625" xlink:href="#BitstreamVeraSans-Roman-72"/>
      <use x="618.310546875" xlink:href="#BitstreamVeraSans-Roman-6b"/>
      <use x="676.220703125" xlink:href="#BitstreamVeraSans-Roman-74"/>
      <use x="715.4296875" xlink:href="#BitstreamVeraSans-Roman-70"/>
      <use x="778.90625" xlink:href="#BitstreamVeraSans-Roman-72"/>
      <use x="817.76953125" xlink:href="#BitstreamVeraSans-Roman-65"/>
      <use x="879.29296875" xlink:href="#BitstreamVeraSans-Roman-69"/>
      <use x="907.076171875" xlink:href="#BitstreamVeraSans-Roman-73"/>
     </g>
    </g>
    <g id="line2d_31">
     <path d="
M339.609 409.822
L359.769 409.822" style="fill:none;stroke:#008000;stroke-linecap:square;"/>
    </g>
    <g id="line2d_32"/>
    <g id="text_16">
     <!-- Normalpreis -->
     <defs>
      <path d="
M9.42188 75.9844
L18.4062 75.9844
L18.4062 0
L9.42188 0
z
" id="BitstreamVeraSans-Roman-6c"/>
     </defs>
     <g transform="translate(375.609375 414.86175)scale(0.144 -0.144)">
      <use xlink:href="#BitstreamVeraSans-Roman-4e"/>
      <use x="74.8046875" xlink:href="#BitstreamVeraSans-Roman-6f"/>
      <use x="135.986328125" xlink:href="#BitstreamVeraSans-Roman-72"/>
      <use x="175.349609375" xlink:href="#BitstreamVeraSans-Roman-6d"/>
      <use x="272.76171875" xlink:href="#BitstreamVeraSans-Roman-61"/>
      <use x="334.041015625" xlink:href="#BitstreamVeraSans-Roman-6c"/>
      <use x="361.82421875" xlink:href="#BitstreamVeraSans-Roman-70"/>
      <use x="425.30078125" xlink:href="#BitstreamVeraSans-Roman-72"/>
      <use x="464.1640625" xlink:href="#BitstreamVeraSans-Roman-65"/>
      <use x="525.6875" xlink:href="#BitstreamVeraSans-Roman-69"/>
      <use x="553.470703125" xlink:href="#BitstreamVeraSans-Roman-73"/>
     </g>
    </g>
   </g>
  </g>
 </g>
 <defs>
  <clipPath id="pcb2bf987bf">
   <rect height="302.4" width="446.4" x="72.0" y="43.2"/>
  </clipPath>
 </defs>
</svg>
