<?xml version="1.0" encoding="utf-8" standalone="no"?>
<!DOCTYPE svg PUBLIC "-//W3C//DTD SVG 1.1//EN"
  "http://www.w3.org/Graphics/SVG/1.1/DTD/svg11.dtd">
<!-- Created with matplotlib (http://matplotlib.org/) -->
<svg height="432pt" version="1.1" viewBox="0 0 576 432" width="576pt" xmlns="http://www.w3.org/2000/svg" xmlns:xlink="http://www.w3.org/1999/xlink">
 <defs>
  <style type="text/css">
*{stroke-linecap:butt;stroke-linejoin:round;}
  </style>
 </defs>
 <g id="figure_1">
  <g id="patch_1">
   <path d="
M0 432
L576 432
L576 0
L0 0
z
" style="fill:#ffffff;"/>
  </g>
  <g id="axes_1">
   <g id="patch_2">
    <path d="
M72 345.6
L518.4 345.6
L518.4 43.2
L72 43.2
z
" style="fill:#ffffff;"/>
   </g>
   <g id="line2d_1">
    <path clip-path="url(#pcb2bf987bf)" d="
M72 265.286
L72.2551 265.286
L72.7653 255.641
L73.0203 258.108
L73.403 258.108
L73.5305 256.646
L73.7856 257.137
L73.9131 258.108
L74.1682 265.235
L74.2958 265.235
L74.6784 264.784
L75.061 265.235
L76.5915 265.228
L76.8466 263.419
L76.9742 264.777
L77.2295 264.778
L77.6119 264.327
L77.9947 257.925
L78.1221 263.876
L78.5047 264.327
L78.7598 264.327
L78.8873 263.876
L79.1426 263.419
L79.2699 263.419
L79.525 263.876
L79.6526 262.037
L79.9077 261.106
L80.0352 260.164
L80.2903 262.951
L80.6729 261.346
L80.8005 262.026
L81.1831 262.026
L81.4384 261.095
L81.5657 262.026
L82.5863 262.026
L82.7136 262.488
L82.9687 262.026
L83.0962 261.352
L83.4789 261.563
L84.2441 261.563
L84.4992 262.026
L84.6267 262.488
L84.882 261.563
L85.2647 249.93
L86.4123 249.93
L86.5399 261.557
L86.9225 261.557
L87.1776 262.026
L87.3051 261.563
L87.5602 262.488
L87.6878 263.408
L87.9429 263.864
L88.453 263.807
L88.7081 262.894
L88.8357 263.807
L89.4734 263.75
L90.4937 263.807
L90.6213 263.875
L91.259 263.864
L92.7895 262.962
L92.917 263.419
L93.5547 262.962
L95.2128 262.951
L95.8505 262.488
L95.9781 262.026
L96.6158 261.923
L97.381 262.026
L98.1463 261.095
L98.2738 262.026
L98.9115 263.876
L99.0391 263.876
L99.6768 262.494
L100.57 262.5
L101.207 262.962
L103.631 262.951
L104.268 261.563
L105.034 261.095
L105.799 261.095
L106.564 261.562
L108.222 261.563
L108.86 262.951
L109.753 262.026
L110.518 262.488
L111.921 261.563
L112.048 262.026
L114.217 258.56
L115.109 262.368
L116.64 262.837
L117.278 262.373
L118.171 262.837
L118.936 261.911
L119.573 262.837
L120.339 262.031
L121.232 262.837
L122.762 262.837
L123.4 262.488
L124.165 262.374
L124.293 262.837
L124.93 262.951
L125.696 263.635
L126.333 267.072
L126.589 267.062
L127.226 264.835
L127.864 264.834
L127.864 264.834
L127.991 263.933
L128.757 264.384
L128.884 263.933
L129.522 263.933
L130.415 261.632
L131.818 261.632
L132.583 261.163
L132.583 261.163
L134.113 259.273
L134.369 259.747
L134.879 260.221
L135.644 263.019
L136.409 262.54
L136.537 262.071
L137.174 262.066
L137.94 260.192
L138.705 262.066
L141.766 262.066
L141.893 261.603
L142.531 261.603
L143.296 260.666
L144.062 259.244
L144.189 259.244
L144.827 259.718
L146.357 258.765
L146.485 259.244
L147.123 259.244
L147.25 259.718
L147.888 259.718
L148.653 258.765
L149.419 258.765
L149.546 258.285
L150.184 258.285
L150.949 258.765
L151.077 258.285
L151.714 259.244
L152.48 259.244
L153.245 261.603
L153.372 261.603
L154.01 260.663
L154.775 261.603
L155.541 260.883
L155.541 260.883
L156.306 260.901
L157.071 261.603
L157.837 261.603
L157.964 262.066
L158.602 261.603
L159.367 261.603
L160.132 262.962
L162.428 261.563
L163.321 260.626
L164.086 261.095
L165.489 261.089
L166.254 261.557
L167.019 260.621
L167.785 260.621
L167.912 260.147
L168.55 260.147
L169.315 261.557
L170.08 261.557
L170.846 261.095
L170.973 260.152
L171.611 261.095
L172.376 262.026
L173.269 261.563
L174.8 261.557
L176.968 261.352
L177.095 260.883
L177.733 260.415
L178.498 261.557
L179.264 261.089
L180.029 257.742
L180.156 258.228
L180.794 261.425
L180.922 261.426
L181.559 260.01
L182.452 259.536
L183.09 262.482
L183.855 261.552
L183.983 261.083
L185.386 262.014
L186.151 262.02
L186.916 261.352
L187.681 262.471
L188.447 261.889
L189.212 261.546
L189.339 262.471
L190.742 261.546
L191.508 262.471
L191.508 262.471
L208.343 262.488
L208.981 268.325
L209.236 268.227
L209.236 268.227
L209.746 268.09
L210.001 267.062
L210.767 262.665
L213.062 262.665
L213.573 262.665
L213.828 262.494
L213.828 262.494
L213.955 267.062
L216.761 267.062
L216.761 267.062
L217.016 266.537
L217.271 265.206
L217.399 265.54
L218.802 265.538
L218.929 265.092
L219.312 265.538
L219.567 265.092
L220.077 265.538
L220.715 265.539
L220.843 265.092
L220.843 265.092
L221.225 265.007
L221.48 263.647
L221.863 263.647
L222.245 264.554
L222.373 264.104
L222.628 264.104
L222.756 264.554
L223.521 264.554
L223.904 264.104
L224.541 265.007
L224.669 265.007
L225.051 264.778
L225.307 264.778
L225.434 265.092
L225.817 265.092
L225.817 265.092
L225.944 264.641
L225.944 264.641
L226.199 264.641
L226.199 264.641
L226.327 265.092
L226.327 265.092
L226.837 265.092
L226.965 264.641
L227.347 265.092
L228.495 265.092
L228.75 264.19
L228.878 264.641
L229.26 264.641
L229.515 263.733
L230.281 263.733
L230.408 264.641
L230.663 264.641
L230.663 264.641
L231.046 263.276
L231.173 264.19
L232.321 264.19
L232.704 264.076
L233.342 264.076
L233.469 263.619
L233.724 264.076
L233.852 263.505
L234.617 263.505
L234.872 263.048
L235.255 263.048
L235.255 263.048
L235.383 262.123
L235.637 262.123
L235.765 262.585
L236.403 262.585
L236.53 262.123
L237.296 262.123
L237.551 262.585
L237.678 262.123
L237.933 262.123
L238.061 261.66
L238.316 261.66
L238.443 260.724
L238.699 261.66
L238.826 260.25
L239.081 261.66
L239.591 261.66
L239.846 259.302
L239.974 261.66
L240.229 260.724
L240.357 260.724
L240.612 261.66
L240.612 261.66
L240.994 261.66
L241.122 261.191
L241.377 261.192
L241.504 261.66
L241.76 261.66
L241.887 261.192
L242.653 261.192
L242.907 257.8
L243.035 260.666
L243.29 260.666
L243.418 259.964
L243.673 260.666
L243.8 260.666
L244.055 261.66
L244.183 261.66
L244.438 257.925
L244.565 261.66
L244.821 262.123
L244.948 262.123
L245.203 263.042
L245.203 263.042
L245.331 257.925
L245.586 262.494
L246.096 262.494
L246.351 261.437
L246.861 263.042
L247.116 262.58
L247.244 262.58
L247.499 262.117
L247.882 263.042
L249.157 263.042
L249.412 262.58
L249.922 263.042
L250.305 263.042
L250.56 262.58
L250.688 263.042
L251.325 263.031
L251.453 262.568
L251.835 262.494
L252.091 261.352
L252.218 261.352
L252.473 260.882
L253.366 260.882
L253.621 259.935
L253.749 259.935
L254.004 260.882
L254.386 260.882
L254.514 261.346
L254.769 260.883
L254.896 261.352
L254.896 261.352
L255.279 261.352
L255.279 261.352
L255.534 257.457
L256.044 257.457
L256.427 261.351
L257.065 261.351
L257.192 260.312
L257.447 260.781
L258.213 260.781
L258.213 260.781
L258.723 260.415
L258.85 261.352
L259.105 261.352
L259.36 260.883
L259.488 260.415
L259.871 260.838
L260.126 260.883
L260.253 261.122
L260.508 261.122
L260.636 260.181
L260.891 261.121
L261.019 261.121
L261.401 261.009
L262.549 261.003
L262.804 260.535
L263.187 260.535
L263.314 261.003
L263.697 261.003
L263.952 260.535
L264.08 261.003
L264.335 261.003
L264.335 261.003
L264.462 260.535
L264.717 261.122
L264.845 260.655
L265.1 260.655
L265.1 260.655
L265.227 261.122
L265.483 264.664
L265.993 264.664
L266.248 264.213
L266.375 262.848
L266.63 262.848
L266.758 263.762
L267.396 262.837
L267.523 263.293
L269.437 263.271
L269.691 262.814
L269.819 262.814
L270.074 262.351
L270.202 261.889
L270.457 261.415
L271.222 261.413
L271.987 260.478
L272.115 261.413
L272.497 261.237
L272.752 260.769
L272.88 260.769
L273.135 260.295
L273.263 260.295
L273.518 260.763
L273.518 260.763
L273.9 260.763
L274.028 260.289
L274.283 260.763
L274.793 260.763
L275.048 260.289
L275.048 260.289
L275.176 259.815
L275.431 260.762
L276.961 260.762
L277.089 260.289
L277.344 255.915
L277.472 255.915
L277.727 254.921
L278.109 254.921
L278.109 254.921
L278.237 255.915
L278.619 255.915
L278.875 255.373
L279.002 255.869
L279.257 255.869
L279.385 255.369
L279.64 251.072
L279.767 255.327
L280.022 255.371
L280.15 254.876
L280.405 255.371
L280.405 255.371
L280.533 254.876
L280.788 254.876
L281.298 251.077
L281.553 251.078
L281.68 250.958
L281.936 249.702
L282.446 249.702
L282.701 248.645
L283.466 248.645
L283.594 245.83
L283.976 249.702
L286.91 249.702
L287.037 249.176
L287.292 249.702
L287.675 249.702
L287.803 249.176
L288.185 249.176
L288.44 248.645
L288.568 248.645
L288.823 249.176
L288.95 249.176
L289.205 248.645
L289.333 248.645
L289.588 249.175
L290.098 249.175
L290.353 248.645
L290.481 249.175
L290.736 247.075
L291.119 247.018
L291.884 247.018
L292.394 245.39
L292.649 247.018
L292.649 247.018
L292.777 246.475
L293.032 245.961
L293.414 245.961
L293.414 245.961
L293.542 246.504
L294.307 246.504
L294.562 245.961
L294.69 246.504
L294.945 245.961
L294.945 245.961
L295.072 245.419
L295.328 244.87
L295.455 245.419
L295.71 244.87
L295.838 244.87
L296.093 247.018
L296.603 247.075
L296.858 249.175
L296.986 249.175
L297.241 248.714
L297.368 248.765
L297.623 251.078
L297.751 250.958
L298.006 250.039
L298.133 250.558
L298.389 250.558
L298.516 250.039
L298.771 250.558
L298.899 250.558
L299.154 251.078
L299.281 250.558
L299.536 250.039
L299.664 247.001
L300.047 259.638
L300.302 259.58
L300.302 259.58
L300.429 259.102
L300.684 258.622
L300.812 259.102
L301.195 259.067
L301.45 257.621
L301.577 257.623
L301.832 258.097
L301.96 257.61
L302.215 257.61
L302.342 257.126
L302.597 257.611
L302.597 257.611
L303.108 257.125
L303.235 257.125
L303.49 256.635
L304.128 256.635
L304.128 256.635
L304.256 256.143
L304.511 256.097
L304.893 253.357
L305.021 253.3
L305.276 252.214
L305.403 252.786
L305.659 254.496
L306.169 254.496
L306.806 253.482
L307.317 253.494
L307.572 252.471
L307.699 252.983
L307.954 252.471
L308.082 252.984
L308.337 251.443
L308.464 247.663
L308.72 248.731
L308.72 248.731
L309.102 248.673
L309.23 248.673
L309.485 249.262
L309.867 249.262
L309.995 248.731
L310.25 248.2
L310.25 248.2
L310.378 248.731
L311.015 248.731
L311.143 248.2
L311.398 249.262
L311.525 248.731
L311.781 249.245
L311.908 248.714
L312.291 248.713
L312.673 246.03
L312.928 247.109
L313.056 246.03
L313.311 246.03
L313.439 248.183
L313.694 249.262
L313.821 248.2
L314.076 251.586
L314.204 251.586
L314.459 252.043
L314.969 250.027
L315.352 252.984
L315.607 252.984
L315.734 251.957
L315.989 250.924
L316.5 250.924
L316.882 252.983
L317.903 252.983
L318.03 252.471
L319.178 252.469
L319.433 251.957
L319.433 251.957
L320.198 251.957
L320.326 251.443
L320.709 252.47
L320.964 251.957
L320.964 251.957
L321.346 251.952
L321.474 251.438
L321.729 251.438
L322.239 251.952
L322.877 251.952
L323.004 251.438
L324.407 251.438
L324.535 250.912
L324.917 250.918
L325.173 251.438
L327.086 251.437
L327.213 250.918
L327.468 250.398
L327.596 247.589
L327.979 247.589
L328.234 247.052
L328.361 247.589
L329.509 247.481
L329.764 247.052
L329.892 247.589
L330.529 247.532
L330.657 247.532
L330.912 246.995
L331.04 247.532
L331.295 247.532
L331.422 244.71
L331.805 244.762
L332.06 245.31
L332.57 245.31
L332.825 244.762
L332.953 244.762
L333.208 244.219
L333.335 243.111
L333.59 242.552
L334.356 242.551
L334.483 241.986
L334.738 241.986
L334.866 242.551
L335.121 242.551
L335.248 241.986
L335.504 241.421
L335.631 242.551
L336.779 242.55
L337.034 241.986
L337.927 241.986
L338.182 242.55
L338.309 241.421
L338.565 240.856
L338.692 240.856
L338.947 241.421
L339.075 241.986
L339.457 241.986
L339.712 242.552
L339.84 241.992
L339.968 242.506
L341.626 242.506
L341.753 241.946
L342.136 241.946
L342.391 241.381
L343.284 241.381
L343.539 240.816
L343.666 240.816
L343.921 241.381
L343.921 241.381
L344.049 241.381
L344.304 241.946
L344.432 242.506
L344.687 242.063
L344.814 242.552
L345.069 240.793
L345.197 242.552
L345.452 251.107
L345.452 251.107
L345.579 251.107
L345.835 249.359
L345.962 249.359
L346.217 251.107
L346.345 251.107
L346.6 250.587
L346.982 250.587
L346.982 250.587
L347.11 249.93
L347.365 249.929
L347.493 248.879
L347.748 249.291
L347.875 249.816
L348.13 249.816
L348.258 249.291
L348.513 249.747
L348.64 249.291
L348.896 249.291
L349.023 249.816
L349.278 247.155
L349.406 247.692
L349.661 247.697
L349.788 247.16
L350.043 248.759
L350.809 248.759
L350.936 248.228
L351.191 248.759
L351.319 248.759
L351.702 249.816
L351.957 249.702
L352.084 249.816
L352.339 249.291
L352.849 249.291
L353.104 249.816
L353.615 249.816
L353.87 249.011
L353.87 249.011
L354.252 249.279
L354.38 249.803
L354.763 248.21
L355.018 247.674
L355.145 247.674
L355.4 247.138
L355.4 247.138
L355.528 249.802
L355.783 249.273
L355.91 249.815
L356.165 249.81
L356.165 249.81
L356.293 245.961
L356.676 246.504
L356.931 249.814
L357.313 248.103
L357.568 248.103
L357.824 247.566
L358.079 247.566
L358.206 248.103
L358.844 248.103
L358.971 247.566
L359.354 247.566
L359.609 247.029
L360.119 247.029
L360.374 247.566
L361.267 247.486
L361.522 246.949
L361.65 247.486
L361.905 246.949
L362.032 247.566
L362.415 247.566
L362.67 243.077
L362.798 243.077
L363.053 247.565
L363.18 247.029
L363.435 247.029
L363.563 247.565
L364.711 247.532
L364.966 246.995
L365.093 246.452
L365.349 246.995
L365.476 247.532
L365.859 247.417
L366.242 247.417
L366.496 246.881
L366.624 246.881
L366.879 247.416
L367.007 247.417
L367.262 246.881
L367.389 247.417
L368.027 247.417
L368.155 246.881
L368.41 246.881
L368.537 246.338
L368.792 247.303
L369.175 247.53
L369.685 246.995
L369.94 245.91
L371.598 245.897
L371.853 245.35
L371.981 244.802
L372.363 246.451
L372.746 246.451
L373.001 245.362
L373.129 245.362
L373.384 244.813
L373.511 245.91
L373.766 245.362
L373.766 245.362
L374.149 245.362
L374.277 244.813
L374.532 242.038
L374.914 242.038
L375.042 243.077
L377.21 243.019
L377.338 242.46
L378.103 242.46
L378.358 241.895
L378.741 241.895
L378.868 242.46
L379.506 242.46
L379.633 241.895
L379.888 242.46
L380.271 242.46
L380.781 242.063
L381.036 242.062
L381.164 241.495
L381.547 241.495
L381.802 240.359
L381.929 240.793
L382.312 240.793
L382.567 235.082
L383.077 235.082
L383.332 240.793
L384.225 240.793
L384.608 240.93
L384.863 241.495
L385.373 241.495
L385.628 240.359
L385.755 240.93
L386.138 240.93
L386.393 240.359
L386.521 239.788
L386.776 239.788
L386.903 239.211
L387.158 240.794
L387.541 240.794
L387.669 240.222
L387.924 240.794
L388.689 240.794
L388.816 239.765
L389.072 240.222
L389.837 240.222
L389.964 240.794
L390.219 240.222
L390.73 238.377
L390.985 238.96
L391.112 238.96
L391.367 237.795
L391.878 237.795
L392.133 236.618
L392.643 236.618
L392.898 237.795
L393.025 237.207
L393.28 236.618
L393.408 236.618
L393.663 236.024
L394.046 235.996
L394.173 235.402
L394.173 235.402
L394.556 235.996
L394.811 235.402
L394.939 235.401
L395.194 234.802
L395.321 234.802
L395.576 235.082
L395.704 234.482
L395.959 233.877
L396.469 233.877
L396.724 234.481
L399.147 234.482
L399.403 234.802
L399.53 236.024
L399.785 237.207
L399.913 239.645
L400.168 239.645
L400.295 239.068
L400.55 240.221
L400.678 239.645
L400.933 239.645
L401.061 239.068
L401.316 239.068
L401.443 239.645
L402.591 239.535
L402.846 230.342
L402.974 238.96
L403.229 238.96
L403.356 238.377
L403.611 237.795
L403.739 238.377
L404.377 238.376
L404.504 237.795
L405.269 237.794
L405.525 237.207
L405.652 237.794
L406.035 237.794
L406.417 234.482
L406.672 235.082
L406.8 235.082
L407.055 233.94
L407.565 233.94
L407.82 228.132
L407.948 228.765
L408.203 228.766
L408.331 228.132
L408.586 227.497
L408.968 227.497
L409.096 226.859
L409.351 233.939
L409.478 233.94
L409.733 234.075
L409.861 233.472
L410.116 233.466
L410.244 234.072
L411.009 234.072
L411.264 233.466
L411.392 228.823
L411.647 233.465
L412.539 233.466
L412.667 234.072
L413.05 234.072
L413.305 233.466
L413.56 234.072
L414.325 234.072
L414.453 232.861
L414.708 233.466
L415.09 233.466
L415.218 232.861
L415.473 232.248
L415.6 231.633
L416.748 231.633
L417.003 232.248
L417.514 232.227
L417.769 233.466
L417.896 232.764
L418.151 232.764
L418.279 232.152
L418.661 232.25
L418.917 230.376
L419.044 230.376
L419.299 230.999
L419.427 230.999
L419.682 230.376
L420.447 230.376
L420.575 229.126
L420.957 221.679
L421.212 222.341
L421.34 217.95
L421.595 216.573
L421.723 216.808
L422.105 216.808
L422.36 216.117
L422.488 215.42
L422.87 211.525
L423.125 212.239
L423.253 211.525
L424.018 211.525
L424.273 213.318
L424.401 213.313
L424.656 215.42
L424.784 214.723
L425.039 216.688
L425.166 216.688
L425.421 216.808
L425.549 215.773
L425.804 215.773
L425.931 216.808
L426.187 216.117
L426.569 216.117
L426.697 215.42
L426.952 215.42
L427.334 214.723
L427.845 214.722
L428.1 213.861
L428.227 213.838
L428.482 213.13
L428.61 213.861
L428.865 213.153
L428.992 212.445
L429.248 212.445
L429.375 212.239
L429.63 212.239
L429.758 211.525
L430.013 212.239
L430.14 212.239
L430.524 212.443
L431.288 212.445
L431.543 213.152
L431.671 213.152
L431.926 211.731
L432.819 211.728
L433.074 210.292
L433.967 210.292
L434.222 209.566
L434.349 209.566
L434.604 210.292
L435.115 210.292
L435.37 211.011
L436.262 210.868
L436.9 210.977
L437.028 210.149
L438.176 210.149
L438.431 209.424
L438.558 210.149
L438.813 209.424
L438.941 210.149
L439.196 210.149
L439.706 209.766
L439.961 209.041
L440.089 206.842
L440.344 206.842
L440.344 206.842
L440.471 206.1
L440.726 206.443
L441.109 205.7
L441.237 200.817
L441.492 198.493
L441.619 198.493
L441.874 195.341
L441.874 195.341
L442.002 198.487
L442.767 195.335
L443.15 195.335
L443.405 193.736
L443.533 195.335
L443.915 195.335
L444.17 194.541
L444.298 194.541
L444.553 195.335
L444.935 195.335
L445.318 196.129
L445.445 196.129
L445.701 194.536
L446.083 198.47
L446.466 198.493
L446.593 197.711
L446.848 197.711
L446.976 196.923
L447.231 194.541
L447.359 194.541
L447.614 191.309
L447.741 191.309
L447.996 193.742
L448.124 192.937
L448.379 193.736
L448.507 193.736
L448.762 192.937
L448.889 193.742
L449.272 193.741
L449.527 192.937
L449.527 192.937
L449.654 192.937
L449.909 193.742
L450.165 192.126
L450.802 192.126
L451.057 188.842
L451.568 188.842
L451.823 188.014
L451.95 188.014
L452.205 189.396
L453.098 189.396
L453.353 188.568
L453.736 188.568
L454.118 186.061
L454.246 186.061
L454.501 188.568
L454.629 188.568
L454.884 187.734
L454.884 187.734
L455.011 188.568
L455.266 187.683
L455.394 187.734
L455.649 185.969
L455.776 186.009
L456.032 186.9
L456.159 183.628
L456.542 171.978
L456.797 171.978
L456.924 187.734
L457.179 187.734
L457.307 186.9
L457.69 187.734
L457.945 187.492
L458.072 187.112
L458.327 187.734
L458.71 187.734
L458.837 186.895
L459.093 187.682
L459.22 186.004
L459.475 186.004
L459.603 186.843
L459.858 186.004
L459.985 186.843
L460.24 186.899
L460.368 185.216
L460.623 185.216
L460.751 182.657
L461.006 180.927
L461.133 177.974
L461.388 178.306
L461.516 187.734
L461.771 186.9
L461.899 187.734
L462.154 187.734
L462.281 188.568
L462.664 188.568
L462.919 183.685
L463.046 188.568
L463.301 187.734
L463.429 188.568
L463.812 188.568
L464.067 187.734
L464.194 186.9
L464.449 187.683
L464.577 186.849
L464.832 185.929
L465.215 185.929
L465.342 185.084
L465.725 175.89
L466.745 175.889
L466.873 148.724
L467.256 176.781
L467.51 175.176
L467.893 171.35
L468.276 176.07
L468.658 172.264
L468.786 175.176
L469.168 175.176
L469.424 174.279
L469.551 176.604
L469.806 175.713
L469.934 176.604
L470.189 175.713
L470.316 175.713
L470.571 176.604
L472.229 176.603
L472.485 175.713
L472.867 175.713
L472.995 174.816
L473.25 173.914
L473.377 173.006
L473.76 172.835
L474.015 171.927
L474.143 171.013
L474.398 172.835
L474.525 172.262
L474.908 172.259
L475.163 171.344
L475.291 172.259
L475.546 171.344
L475.673 171.344
L475.928 170.425
L476.056 170.425
L476.311 169.5
L476.693 169.408
L476.821 168.483
L477.076 167.552
L477.204 168.482
L477.459 169.293
L477.586 169.292
L477.841 168.573
L479.372 168.568
L479.755 165.759
L480.137 165.753
L480.265 155.131
L480.52 165.752
L480.647 164.805
L480.902 163.852
L481.03 163.852
L481.413 161.767
L481.668 162.727
L481.795 162.728
L482.178 159.831
L482.433 156.884
L482.56 156.884
L482.943 153.886
L483.198 154.789
L483.326 153.789
L483.581 152.783
L483.708 152.783
L483.963 151.773
L484.091 151.773
L484.346 151.591
L484.474 150.448
L484.729 149.306
L484.856 147.136
L485.239 130.261
L485.494 130.261
L485.877 126.869
L486.004 124.287
L486.259 124.27
L486.259 124.27
L486.387 120.764
L486.769 116.138
L487.152 116.138
L487.407 114.939
L487.535 116.136
L487.79 114.859
L487.917 114.858
L488.172 113.654
L488.3 114.858
L488.683 114.859
L488.938 113.66
L490.085 113.66
L490.213 114.858
L490.468 114.858
L490.596 114.271
L490.851 114.471
L490.978 113.208
L491.233 112.539
L491.361 113.744
L491.744 113.443
L492.891 113.42
L493.147 112.169
L494.422 112.168
L494.677 110.952
L495.187 110.986
L495.442 109.445
L495.57 109.444
L495.697 102.478
L495.825 105.744
L495.825 105.744
L495.952 103.249
L496.208 101.992
L496.335 103.249
L496.59 103.249
L496.718 101.992
L496.973 103.249
L497.1 101.992
L497.355 103.249
L497.483 101.992
L497.738 101.45
L498.121 97.6294
L498.248 98.9086
L498.503 100.181
L498.886 96.3445
L499.013 91.1306
L499.396 91.1306
L499.651 89.8114
L500.161 89.8114
L500.416 91.1306
L500.799 91.1306
L500.927 85.807
L501.309 89.8114
L501.947 89.7999
L502.33 85.494
L502.457 86.8361
L503.605 86.8303
L503.86 85.4883
L505.136 85.4883
L505.391 84.1406
L505.518 85.4883
L506.156 85.4883
L506.283 84.1406
L506.539 88.2009
L508.452 88.2009
L508.579 88.475
L509.6 88.4294
L509.727 85.7167
L509.982 85.5911
L510.365 85.2542
L510.492 85.4598
L510.747 85.253
L511.13 81.1881
L511.513 81.1881
L511.64 82.553
L512.023 82.553
L512.278 82.0333
L512.661 82.0333
L512.788 58.048
L513.043 58.048
L513.171 82.0333
L513.426 80.6684
L513.553 80.6684
L513.808 81.5502
L513.936 81.5502
L514.191 82.0333
L514.701 82.0333
L514.956 79.5205
L515.084 79.5205
L515.339 78.1442
L515.467 78.1442
L515.722 77.4647
L515.849 77.4647
L516.232 73.8612
L516.487 75.1781
L516.614 78.0357
L516.997 64.3013
L517.252 78.0392
L517.38 78.1442
L517.635 78.1442
L517.762 80.8854
L518.145 80.8911
L518.4 79.5205
L518.4 79.5205" style="fill:none;stroke:#ff0000;stroke-linecap:square;"/>
   </g>
   <g id="line2d_2">
    <path clip-path="url(#pcb2bf987bf)" d="
M72 342.158
L76.8466 342.212
L76.9742 341.989
L79.1426 342.054
L79.2699 341.873
L83.7339 341.858
L83.8615 341.758
L87.5602 341.822
L87.6878 342.02
L89.856 342.052
L89.9835 342.144
L93.5547 342.185
L94.4475 342.008
L95.2128 341.982
L95.9781 342.136
L97.381 341.931
L99.0391 342.317
L99.6768 342.337
L100.57 342.045
L101.973 342.224
L106.564 342.329
L108.86 342.469
L109.753 342.52
L110.518 342.429
L127.354 342.594
L127.354 342.594
L127.991 342.4
L128.884 342.47
L129.522 342.32
L130.415 342.407
L131.052 342.123
L132.583 342.132
L132.583 342.132
L134.879 342.098
L135.644 342.429
L136.537 342.219
L138.705 342.231
L140.235 342.375
L141.893 342.389
L144.189 342.376
L144.827 342.201
L146.485 342.135
L147.888 342.382
L151.077 342.262
L152.48 342.431
L153.372 342.431
L154.01 342.656
L154.775 342.546
L155.541 342.645
L155.541 342.645
L156.306 342.534
L157.837 342.64
L158.602 342.553
L159.367 342.489
L160.132 342.54
L163.958 342.215
L164.851 342.251
L166.254 342.329
L168.55 342.237
L173.907 342.406
L174.8 342.252
L177.095 342.378
L177.733 342.295
L179.264 342.458
L180.922 342.243
L181.559 342.399
L182.452 342.203
L183.09 342.257
L183.983 342.588
L184.62 342.432
L186.151 342.45
L186.916 342.647
L187.681 342.656
L188.447 342.519
L196.864 342.551
L199.16 342.835
L200.691 342.552
L202.221 342.651
L209.236 342.573
L209.236 342.573
L209.746 342.447
L210.001 342.447
L211.022 342.054
L212.297 342.072
L212.425 342.273
L214.593 342.223
L214.72 342.414
L217.654 342.434
L217.654 342.434
L217.781 342.287
L220.715 342.374
L220.843 342.461
L220.843 342.461
L221.48 342.461
L221.608 342.248
L224.541 342.317
L224.669 342.541
L227.602 342.627
L227.602 342.627
L228.368 342.695
L228.495 342.597
L235.255 342.493
L235.255 342.493
L235.383 342.421
L237.551 342.47
L237.678 342.565
L242.142 342.456
L242.27 342.384
L245.203 342.472
L245.203 342.472
L245.331 342.618
L251.325 342.696
L251.708 342.751
L252.856 342.691
L252.983 342.6
L254.386 342.6
L254.514 342.776
L262.804 342.741
L262.932 342.581
L264.335 342.65
L264.335 342.65
L264.717 342.709
L266.63 342.767
L266.758 342.56
L269.691 342.452
L270.967 342.348
L272.752 342.262
L272.88 342.076
L275.048 342.003
L275.048 342.003
L275.176 341.883
L275.813 341.883
L275.941 342.095
L278.109 342.112
L278.109 342.112
L278.237 341.939
L280.405 341.934
L280.405 341.934
L280.533 342.055
L281.17 342.055
L281.17 342.055
L281.298 341.935
L281.936 341.935
L282.446 342.141
L284.231 342.191
L284.359 342.273
L288.823 342.203
L289.205 342.161
L293.414 342.271
L293.414 342.271
L293.542 342.416
L294.945 342.449
L294.945 342.449
L295.072 342.533
L296.475 342.608
L296.603 342.718
L298.006 342.818
L298.133 342.937
L299.536 342.913
L299.664 342.792
L301.067 342.849
L301.195 342.601
L301.832 342.601
L301.96 342.422
L303.235 342.413
L303.49 342.141
L310.25 342.108
L310.25 342.108
L310.378 341.983
L312.546 341.99
L312.673 341.869
L313.311 341.869
L313.439 342.046
L314.076 342.046
L314.204 342.434
L314.842 342.434
L314.969 342.747
L316.372 342.798
L316.5 342.623
L317.137 342.623
L317.265 342.789
L321.729 342.769
L322.239 342.677
L323.77 342.619
L335.504 342.517
L335.631 342.404
L339.33 342.485
L339.457 342.565
L339.968 342.565
L340.223 342.73
L342.391 342.767
L342.518 342.594
L344.687 342.697
L345.069 342.752
L347.748 342.822
L347.875 342.609
L349.278 342.665
L349.406 342.412
L350.043 342.412
L350.171 342.554
L353.104 342.64
L353.232 342.752
L355.4 342.648
L355.4 342.648
L355.783 342.589
L357.568 342.669
L357.824 342.339
L362.288 342.309
L362.415 342.488
L364.583 342.599
L364.966 342.646
L369.94 342.685
L370.068 342.519
L382.949 342.513
L383.077 342.654
L383.715 342.654
L384.225 342.471
L386.776 342.457
L386.903 342.323
L388.306 342.396
L388.306 342.396
L388.434 345.105
L389.072 345.105
L389.199 342.413
L393.663 342.511
L393.791 342.2
L395.194 342.265
L395.576 342.321
L397.489 342.22
L397.617 342.152
L399.02 342.209
L399.147 342.329
L399.785 342.329
L399.913 342.864
L402.846 342.895
L402.974 342.746
L405.142 342.656
L405.269 342.526
L409.733 342.533
L409.861 342.661
L413.56 342.685
L413.687 342.8
L415.856 342.79
L415.983 342.495
L416.621 342.495
L416.748 342.615
L417.386 342.615
L417.514 342.805
L418.917 342.787
L419.044 342.494
L420.447 342.554
L420.575 342.746
L421.978 342.646
L422.105 342.54
L426.569 342.634
L426.697 342.753
L428.1 342.71
L428.227 342.505
L428.865 342.505
L428.992 342.79
L429.63 342.79
L429.758 342.577
L435.752 342.661
L435.88 342.86
L441.109 342.81
L441.237 342.746
L450.165 342.646
L451.057 342.627
L451.185 342.704
L454.118 342.632
L454.246 342.462
L454.884 342.462
L454.884 342.462
L455.011 342.618
L455.649 342.618
L455.776 342.458
L456.414 342.458
L456.542 342.582
L458.71 342.633
L458.837 342.725
L459.475 342.725
L459.603 342.549
L460.24 342.549
L460.368 342.669
L461.006 342.669
L461.133 342.509
L461.771 342.509
L461.899 342.833
L464.067 342.875
L464.194 342.681
L465.597 342.651
L465.597 342.651
L465.725 342.55
L469.424 342.651
L469.551 342.721
L472.485 342.802
L472.612 342.867
L473.25 342.867
L473.377 342.686
L478.607 342.768
L478.734 342.919
L480.137 342.952
L480.265 342.799
L480.902 342.799
L481.03 342.627
L483.198 342.534
L483.326 342.327
L486.259 342.321
L486.259 342.321
L486.387 342.153
L487.79 342.086
L487.917 341.925
L488.555 341.925
L488.683 342.11
L490.851 342.112
L490.978 342.32
L493.147 342.391
L493.274 342.481
L493.912 342.481
L494.04 342.718
L496.973 342.701
L497.1 342.85
L500.034 342.75
L500.161 342.686
L503.86 342.58
L506.156 342.541
L509.982 342.72
L510.492 342.524
L510.747 342.524
L510.875 342.68
L517.635 342.637
L517.762 342.878
L518.4 342.878
L518.4 342.878" style="fill:none;stroke:#008000;stroke-linecap:square;"/>
   </g>
   <g id="patch_3">
    <path d="
M72 43.2
L518.4 43.2" style="fill:none;stroke:#000000;stroke-linecap:square;stroke-linejoin:miter;"/>
   </g>
   <g id="patch_4">
    <path d="
M518.4 345.6
L518.4 43.2" style="fill:none;stroke:#000000;stroke-linecap:square;stroke-linejoin:miter;"/>
   </g>
   <g id="patch_5">
    <path d="
M72 345.6
L518.4 345.6" style="fill:none;stroke:#000000;stroke-linecap:square;stroke-linejoin:miter;"/>
   </g>
   <g id="patch_6">
    <path d="
M72 345.6
L72 43.2" style="fill:none;stroke:#000000;stroke-linecap:square;stroke-linejoin:miter;"/>
   </g>
   <g id="matplotlib.axis_1">
    <g id="xtick_1">
     <g id="line2d_3">
      <defs>
       <path d="
M0 0
L0 -4" id="m93b0483c22" style="stroke:#000000;stroke-width:0.5;"/>
      </defs>
      <g>
       <use style="stroke:#000000;stroke-width:0.5;" x="118.170301715" xlink:href="#m93b0483c22" y="345.6"/>
      </g>
     </g>
     <g id="line2d_4">
      <defs>
       <path d="
M0 0
L0 4" id="m741efc42ff" style="stroke:#000000;stroke-width:0.5;"/>
      </defs>
      <g>
       <use style="stroke:#000000;stroke-width:0.5;" x="118.170301715" xlink:href="#m741efc42ff" y="43.2"/>
      </g>
     </g>
     <g id="text_1">
      <!-- Oct 13 2015 -->
      <defs>
       <path d="
M19.1875 8.29688
L53.6094 8.29688
L53.6094 0
L7.32812 0
L7.32812 8.29688
Q12.9375 14.1094 22.625 23.8906
Q32.3281 33.6875 34.8125 36.5312
Q39.5469 41.8438 41.4219 45.5312
Q43.3125 49.2188 43.3125 52.7812
Q43.3125 58.5938 39.2344 62.25
Q35.1562 65.9219 28.6094 65.9219
Q23.9688 65.9219 18.8125 64.3125
Q13.6719 62.7031 7.8125 59.4219
L7.8125 69.3906
Q13.7656 71.7812 18.9375 73
Q24.125 74.2188 28.4219 74.2188
Q39.75 74.2188 46.4844 68.5469
Q53.2188 62.8906 53.2188 53.4219
Q53.2188 48.9219 51.5312 44.8906
Q49.8594 40.875 45.4062 35.4062
Q44.1875 33.9844 37.6406 27.2188
Q31.1094 20.4531 19.1875 8.29688" id="BitstreamVeraSans-Roman-32"/>
       <path d="
M39.4062 66.2188
Q28.6562 66.2188 22.3281 58.2031
Q16.0156 50.2031 16.0156 36.375
Q16.0156 22.6094 22.3281 14.5938
Q28.6562 6.59375 39.4062 6.59375
Q50.1406 6.59375 56.4219 14.5938
Q62.7031 22.6094 62.7031 36.375
Q62.7031 50.2031 56.4219 58.2031
Q50.1406 66.2188 39.4062 66.2188
M39.4062 74.2188
Q54.7344 74.2188 63.9062 63.9375
Q73.0938 53.6562 73.0938 36.375
Q73.0938 19.1406 63.9062 8.85938
Q54.7344 -1.42188 39.4062 -1.42188
Q24.0312 -1.42188 14.8125 8.82812
Q5.60938 19.0938 5.60938 36.375
Q5.60938 53.6562 14.8125 63.9375
Q24.0312 74.2188 39.4062 74.2188" id="BitstreamVeraSans-Roman-4f"/>
       <path d="
M31.7812 66.4062
Q24.1719 66.4062 20.3281 58.9062
Q16.5 51.4219 16.5 36.375
Q16.5 21.3906 20.3281 13.8906
Q24.1719 6.39062 31.7812 6.39062
Q39.4531 6.39062 43.2812 13.8906
Q47.125 21.3906 47.125 36.375
Q47.125 51.4219 43.2812 58.9062
Q39.4531 66.4062 31.7812 66.4062
M31.7812 74.2188
Q44.0469 74.2188 50.5156 64.5156
Q56.9844 54.8281 56.9844 36.375
Q56.9844 17.9688 50.5156 8.26562
Q44.0469 -1.42188 31.7812 -1.42188
Q19.5312 -1.42188 13.0625 8.26562
Q6.59375 17.9688 6.59375 36.375
Q6.59375 54.8281 13.0625 64.5156
Q19.5312 74.2188 31.7812 74.2188" id="BitstreamVeraSans-Roman-30"/>
       <path d="
M12.4062 8.29688
L28.5156 8.29688
L28.5156 63.9219
L10.9844 60.4062
L10.9844 69.3906
L28.4219 72.9062
L38.2812 72.9062
L38.2812 8.29688
L54.3906 8.29688
L54.3906 0
L12.4062 0
z
" id="BitstreamVeraSans-Roman-31"/>
       <path d="
M40.5781 39.3125
Q47.6562 37.7969 51.625 33
Q55.6094 28.2188 55.6094 21.1875
Q55.6094 10.4062 48.1875 4.48438
Q40.7656 -1.42188 27.0938 -1.42188
Q22.5156 -1.42188 17.6562 -0.515625
Q12.7969 0.390625 7.625 2.20312
L7.625 11.7188
Q11.7188 9.32812 16.5938 8.10938
Q21.4844 6.89062 26.8125 6.89062
Q36.0781 6.89062 40.9375 10.5469
Q45.7969 14.2031 45.7969 21.1875
Q45.7969 27.6406 41.2812 31.2656
Q36.7656 34.9062 28.7188 34.9062
L20.2188 34.9062
L20.2188 43.0156
L29.1094 43.0156
Q36.375 43.0156 40.2344 45.9219
Q44.0938 48.8281 44.0938 54.2969
Q44.0938 59.9062 40.1094 62.9062
Q36.1406 65.9219 28.7188 65.9219
Q24.6562 65.9219 20.0156 65.0312
Q15.375 64.1562 9.8125 62.3125
L9.8125 71.0938
Q15.4375 72.6562 20.3438 73.4375
Q25.25 74.2188 29.5938 74.2188
Q40.8281 74.2188 47.3594 69.1094
Q53.9062 64.0156 53.9062 55.3281
Q53.9062 49.2656 50.4375 45.0938
Q46.9688 40.9219 40.5781 39.3125" id="BitstreamVeraSans-Roman-33"/>
       <path id="BitstreamVeraSans-Roman-20"/>
       <path d="
M10.7969 72.9062
L49.5156 72.9062
L49.5156 64.5938
L19.8281 64.5938
L19.8281 46.7344
Q21.9688 47.4688 24.1094 47.8281
Q26.2656 48.1875 28.4219 48.1875
Q40.625 48.1875 47.75 41.5
Q54.8906 34.8125 54.8906 23.3906
Q54.8906 11.625 47.5625 5.09375
Q40.2344 -1.42188 26.9062 -1.42188
Q22.3125 -1.42188 17.5469 -0.640625
Q12.7969 0.140625 7.71875 1.70312
L7.71875 11.625
Q12.1094 9.23438 16.7969 8.0625
Q21.4844 6.89062 26.7031 6.89062
Q35.1562 6.89062 40.0781 11.3281
Q45.0156 15.7656 45.0156 23.3906
Q45.0156 31 40.0781 35.4375
Q35.1562 39.8906 26.7031 39.8906
Q22.75 39.8906 18.8125 39.0156
Q14.8906 38.1406 10.7969 36.2812
z
" id="BitstreamVeraSans-Roman-35"/>
       <path d="
M18.3125 70.2188
L18.3125 54.6875
L36.8125 54.6875
L36.8125 47.7031
L18.3125 47.7031
L18.3125 18.0156
Q18.3125 11.3281 20.1406 9.42188
Q21.9688 7.51562 27.5938 7.51562
L36.8125 7.51562
L36.8125 0
L27.5938 0
Q17.1875 0 13.2344 3.875
Q9.28125 7.76562 9.28125 18.0156
L9.28125 47.7031
L2.6875 47.7031
L2.6875 54.6875
L9.28125 54.6875
L9.28125 70.2188
z
" id="BitstreamVeraSans-Roman-74"/>
       <path d="
M48.7812 52.5938
L48.7812 44.1875
Q44.9688 46.2969 41.1406 47.3438
Q37.3125 48.3906 33.4062 48.3906
Q24.6562 48.3906 19.8125 42.8438
Q14.9844 37.3125 14.9844 27.2969
Q14.9844 17.2812 19.8125 11.7344
Q24.6562 6.20312 33.4062 6.20312
Q37.3125 6.20312 41.1406 7.25
Q44.9688 8.29688 48.7812 10.4062
L48.7812 2.09375
Q45.0156 0.34375 40.9844 -0.53125
Q36.9688 -1.42188 32.4219 -1.42188
Q20.0625 -1.42188 12.7812 6.34375
Q5.51562 14.1094 5.51562 27.2969
Q5.51562 40.6719 12.8594 48.3281
Q20.2188 56 33.0156 56
Q37.1562 56 41.1094 55.1406
Q45.0625 54.2969 48.7812 52.5938" id="BitstreamVeraSans-Roman-63"/>
      </defs>
      <g transform="translate(53.5830149798 394.065590385)rotate(-30.0)scale(0.12 -0.12)">
       <use xlink:href="#BitstreamVeraSans-Roman-4f"/>
       <use x="78.7109375" xlink:href="#BitstreamVeraSans-Roman-63"/>
       <use x="133.69140625" xlink:href="#BitstreamVeraSans-Roman-74"/>
       <use x="172.900390625" xlink:href="#BitstreamVeraSans-Roman-20"/>
       <use x="204.6875" xlink:href="#BitstreamVeraSans-Roman-31"/>
       <use x="268.310546875" xlink:href="#BitstreamVeraSans-Roman-33"/>
       <use x="331.93359375" xlink:href="#BitstreamVeraSans-Roman-20"/>
       <use x="363.720703125" xlink:href="#BitstreamVeraSans-Roman-32"/>
       <use x="427.34375" xlink:href="#BitstreamVeraSans-Roman-30"/>
       <use x="490.966796875" xlink:href="#BitstreamVeraSans-Roman-31"/>
       <use x="554.58984375" xlink:href="#BitstreamVeraSans-Roman-35"/>
      </g>
     </g>
    </g>
    <g id="xtick_2">
     <g id="line2d_5">
      <g>
       <use style="stroke:#000000;stroke-width:0.5;" x="173.268816" xlink:href="#m93b0483c22" y="345.6"/>
      </g>
     </g>
     <g id="line2d_6">
      <g>
       <use style="stroke:#000000;stroke-width:0.5;" x="173.268816" xlink:href="#m741efc42ff" y="43.2"/>
      </g>
     </g>
     <g id="text_2">
      <!-- Oct 16 2015 -->
      <defs>
       <path d="
M33.0156 40.375
Q26.375 40.375 22.4844 35.8281
Q18.6094 31.2969 18.6094 23.3906
Q18.6094 15.5312 22.4844 10.9531
Q26.375 6.39062 33.0156 6.39062
Q39.6562 6.39062 43.5312 10.9531
Q47.4062 15.5312 47.4062 23.3906
Q47.4062 31.2969 43.5312 35.8281
Q39.6562 40.375 33.0156 40.375
M52.5938 71.2969
L52.5938 62.3125
Q48.875 64.0625 45.0938 64.9844
Q41.3125 65.9219 37.5938 65.9219
Q27.8281 65.9219 22.6719 59.3281
Q17.5312 52.7344 16.7969 39.4062
Q19.6719 43.6562 24.0156 45.9219
Q28.375 48.1875 33.5938 48.1875
Q44.5781 48.1875 50.9531 41.5156
Q57.3281 34.8594 57.3281 23.3906
Q57.3281 12.1562 50.6875 5.35938
Q44.0469 -1.42188 33.0156 -1.42188
Q20.3594 -1.42188 13.6719 8.26562
Q6.98438 17.9688 6.98438 36.375
Q6.98438 53.6562 15.1875 63.9375
Q23.3906 74.2188 37.2031 74.2188
Q40.9219 74.2188 44.7031 73.4844
Q48.4844 72.75 52.5938 71.2969" id="BitstreamVeraSans-Roman-36"/>
      </defs>
      <g transform="translate(108.681529265 394.065590385)rotate(-30.0)scale(0.12 -0.12)">
       <use xlink:href="#BitstreamVeraSans-Roman-4f"/>
       <use x="78.7109375" xlink:href="#BitstreamVeraSans-Roman-63"/>
       <use x="133.69140625" xlink:href="#BitstreamVeraSans-Roman-74"/>
       <use x="172.900390625" xlink:href="#BitstreamVeraSans-Roman-20"/>
       <use x="204.6875" xlink:href="#BitstreamVeraSans-Roman-31"/>
       <use x="268.310546875" xlink:href="#BitstreamVeraSans-Roman-36"/>
       <use x="331.93359375" xlink:href="#BitstreamVeraSans-Roman-20"/>
       <use x="363.720703125" xlink:href="#BitstreamVeraSans-Roman-32"/>
       <use x="427.34375" xlink:href="#BitstreamVeraSans-Roman-30"/>
       <use x="490.966796875" xlink:href="#BitstreamVeraSans-Roman-31"/>
       <use x="554.58984375" xlink:href="#BitstreamVeraSans-Roman-35"/>
      </g>
     </g>
    </g>
    <g id="xtick_3">
     <g id="line2d_7">
      <g>
       <use style="stroke:#000000;stroke-width:0.5;" x="228.367330285" xlink:href="#m93b0483c22" y="345.6"/>
      </g>
     </g>
     <g id="line2d_8">
      <g>
       <use style="stroke:#000000;stroke-width:0.5;" x="228.367330285" xlink:href="#m741efc42ff" y="43.2"/>
      </g>
     </g>
     <g id="text_3">
      <!-- Oct 19 2015 -->
      <defs>
       <path d="
M10.9844 1.51562
L10.9844 10.5
Q14.7031 8.73438 18.5 7.8125
Q22.3125 6.89062 25.9844 6.89062
Q35.75 6.89062 40.8906 13.4531
Q46.0469 20.0156 46.7812 33.4062
Q43.9531 29.2031 39.5938 26.9531
Q35.25 24.7031 29.9844 24.7031
Q19.0469 24.7031 12.6719 31.3125
Q6.29688 37.9375 6.29688 49.4219
Q6.29688 60.6406 12.9375 67.4219
Q19.5781 74.2188 30.6094 74.2188
Q43.2656 74.2188 49.9219 64.5156
Q56.5938 54.8281 56.5938 36.375
Q56.5938 19.1406 48.4062 8.85938
Q40.2344 -1.42188 26.4219 -1.42188
Q22.7031 -1.42188 18.8906 -0.6875
Q15.0938 0.046875 10.9844 1.51562
M30.6094 32.4219
Q37.25 32.4219 41.125 36.9531
Q45.0156 41.5 45.0156 49.4219
Q45.0156 57.2812 41.125 61.8438
Q37.25 66.4062 30.6094 66.4062
Q23.9688 66.4062 20.0938 61.8438
Q16.2188 57.2812 16.2188 49.4219
Q16.2188 41.5 20.0938 36.9531
Q23.9688 32.4219 30.6094 32.4219" id="BitstreamVeraSans-Roman-39"/>
      </defs>
      <g transform="translate(163.78004355 394.065590385)rotate(-30.0)scale(0.12 -0.12)">
       <use xlink:href="#BitstreamVeraSans-Roman-4f"/>
       <use x="78.7109375" xlink:href="#BitstreamVeraSans-Roman-63"/>
       <use x="133.69140625" xlink:href="#BitstreamVeraSans-Roman-74"/>
       <use x="172.900390625" xlink:href="#BitstreamVeraSans-Roman-20"/>
       <use x="204.6875" xlink:href="#BitstreamVeraSans-Roman-31"/>
       <use x="268.310546875" xlink:href="#BitstreamVeraSans-Roman-39"/>
       <use x="331.93359375" xlink:href="#BitstreamVeraSans-Roman-20"/>
       <use x="363.720703125" xlink:href="#BitstreamVeraSans-Roman-32"/>
       <use x="427.34375" xlink:href="#BitstreamVeraSans-Roman-30"/>
       <use x="490.966796875" xlink:href="#BitstreamVeraSans-Roman-31"/>
       <use x="554.58984375" xlink:href="#BitstreamVeraSans-Roman-35"/>
      </g>
     </g>
    </g>
    <g id="xtick_4">
     <g id="line2d_9">
      <g>
       <use style="stroke:#000000;stroke-width:0.5;" x="283.465844572" xlink:href="#m93b0483c22" y="345.6"/>
      </g>
     </g>
     <g id="line2d_10">
      <g>
       <use style="stroke:#000000;stroke-width:0.5;" x="283.465844572" xlink:href="#m741efc42ff" y="43.2"/>
      </g>
     </g>
     <g id="text_4">
      <!-- Oct 22 2015 -->
      <g transform="translate(218.878557836 394.065590385)rotate(-30.0)scale(0.12 -0.12)">
       <use xlink:href="#BitstreamVeraSans-Roman-4f"/>
       <use x="78.7109375" xlink:href="#BitstreamVeraSans-Roman-63"/>
       <use x="133.69140625" xlink:href="#BitstreamVeraSans-Roman-74"/>
       <use x="172.900390625" xlink:href="#BitstreamVeraSans-Roman-20"/>
       <use x="204.6875" xlink:href="#BitstreamVeraSans-Roman-32"/>
       <use x="268.310546875" xlink:href="#BitstreamVeraSans-Roman-32"/>
       <use x="331.93359375" xlink:href="#BitstreamVeraSans-Roman-20"/>
       <use x="363.720703125" xlink:href="#BitstreamVeraSans-Roman-32"/>
       <use x="427.34375" xlink:href="#BitstreamVeraSans-Roman-30"/>
       <use x="490.966796875" xlink:href="#BitstreamVeraSans-Roman-31"/>
       <use x="554.58984375" xlink:href="#BitstreamVeraSans-Roman-35"/>
      </g>
     </g>
    </g>
    <g id="xtick_5">
     <g id="line2d_11">
      <g>
       <use style="stroke:#000000;stroke-width:0.5;" x="338.564358857" xlink:href="#m93b0483c22" y="345.6"/>
      </g>
     </g>
     <g id="line2d_12">
      <g>
       <use style="stroke:#000000;stroke-width:0.5;" x="338.564358857" xlink:href="#m741efc42ff" y="43.2"/>
      </g>
     </g>
     <g id="text_5">
      <!-- Oct 25 2015 -->
      <g transform="translate(273.977072121 394.065590385)rotate(-30.0)scale(0.12 -0.12)">
       <use xlink:href="#BitstreamVeraSans-Roman-4f"/>
       <use x="78.7109375" xlink:href="#BitstreamVeraSans-Roman-63"/>
       <use x="133.69140625" xlink:href="#BitstreamVeraSans-Roman-74"/>
       <use x="172.900390625" xlink:href="#BitstreamVeraSans-Roman-20"/>
       <use x="204.6875" xlink:href="#BitstreamVeraSans-Roman-32"/>
       <use x="268.310546875" xlink:href="#BitstreamVeraSans-Roman-35"/>
       <use x="331.93359375" xlink:href="#BitstreamVeraSans-Roman-20"/>
       <use x="363.720703125" xlink:href="#BitstreamVeraSans-Roman-32"/>
       <use x="427.34375" xlink:href="#BitstreamVeraSans-Roman-30"/>
       <use x="490.966796875" xlink:href="#BitstreamVeraSans-Roman-31"/>
       <use x="554.58984375" xlink:href="#BitstreamVeraSans-Roman-35"/>
      </g>
     </g>
    </g>
    <g id="xtick_6">
     <g id="line2d_13">
      <g>
       <use style="stroke:#000000;stroke-width:0.5;" x="393.662873141" xlink:href="#m93b0483c22" y="345.6"/>
      </g>
     </g>
     <g id="line2d_14">
      <g>
       <use style="stroke:#000000;stroke-width:0.5;" x="393.662873141" xlink:href="#m741efc42ff" y="43.2"/>
      </g>
     </g>
     <g id="text_6">
      <!-- Oct 28 2015 -->
      <defs>
       <path d="
M31.7812 34.625
Q24.75 34.625 20.7188 30.8594
Q16.7031 27.0938 16.7031 20.5156
Q16.7031 13.9219 20.7188 10.1562
Q24.75 6.39062 31.7812 6.39062
Q38.8125 6.39062 42.8594 10.1719
Q46.9219 13.9688 46.9219 20.5156
Q46.9219 27.0938 42.8906 30.8594
Q38.875 34.625 31.7812 34.625
M21.9219 38.8125
Q15.5781 40.375 12.0312 44.7188
Q8.5 49.0781 8.5 55.3281
Q8.5 64.0625 14.7188 69.1406
Q20.9531 74.2188 31.7812 74.2188
Q42.6719 74.2188 48.875 69.1406
Q55.0781 64.0625 55.0781 55.3281
Q55.0781 49.0781 51.5312 44.7188
Q48 40.375 41.7031 38.8125
Q48.8281 37.1562 52.7969 32.3125
Q56.7812 27.4844 56.7812 20.5156
Q56.7812 9.90625 50.3125 4.23438
Q43.8438 -1.42188 31.7812 -1.42188
Q19.7344 -1.42188 13.25 4.23438
Q6.78125 9.90625 6.78125 20.5156
Q6.78125 27.4844 10.7812 32.3125
Q14.7969 37.1562 21.9219 38.8125
M18.3125 54.3906
Q18.3125 48.7344 21.8438 45.5625
Q25.3906 42.3906 31.7812 42.3906
Q38.1406 42.3906 41.7188 45.5625
Q45.3125 48.7344 45.3125 54.3906
Q45.3125 60.0625 41.7188 63.2344
Q38.1406 66.4062 31.7812 66.4062
Q25.3906 66.4062 21.8438 63.2344
Q18.3125 60.0625 18.3125 54.3906" id="BitstreamVeraSans-Roman-38"/>
      </defs>
      <g transform="translate(329.075586406 394.065590385)rotate(-30.0)scale(0.12 -0.12)">
       <use xlink:href="#BitstreamVeraSans-Roman-4f"/>
       <use x="78.7109375" xlink:href="#BitstreamVeraSans-Roman-63"/>
       <use x="133.69140625" xlink:href="#BitstreamVeraSans-Roman-74"/>
       <use x="172.900390625" xlink:href="#BitstreamVeraSans-Roman-20"/>
       <use x="204.6875" xlink:href="#BitstreamVeraSans-Roman-32"/>
       <use x="268.310546875" xlink:href="#BitstreamVeraSans-Roman-38"/>
       <use x="331.93359375" xlink:href="#BitstreamVeraSans-Roman-20"/>
       <use x="363.720703125" xlink:href="#BitstreamVeraSans-Roman-32"/>
       <use x="427.34375" xlink:href="#BitstreamVeraSans-Roman-30"/>
       <use x="490.966796875" xlink:href="#BitstreamVeraSans-Roman-31"/>
       <use x="554.58984375" xlink:href="#BitstreamVeraSans-Roman-35"/>
      </g>
     </g>
    </g>
    <g id="xtick_7">
     <g id="line2d_15">
      <g>
       <use style="stroke:#000000;stroke-width:0.5;" x="448.761387428" xlink:href="#m93b0483c22" y="345.6"/>
      </g>
     </g>
     <g id="line2d_16">
      <g>
       <use style="stroke:#000000;stroke-width:0.5;" x="448.761387428" xlink:href="#m741efc42ff" y="43.2"/>
      </g>
     </g>
     <g id="text_7">
      <!-- Oct 31 2015 -->
      <g transform="translate(384.174100693 394.065590385)rotate(-30.0)scale(0.12 -0.12)">
       <use xlink:href="#BitstreamVeraSans-Roman-4f"/>
       <use x="78.7109375" xlink:href="#BitstreamVeraSans-Roman-63"/>
       <use x="133.69140625" xlink:href="#BitstreamVeraSans-Roman-74"/>
       <use x="172.900390625" xlink:href="#BitstreamVeraSans-Roman-20"/>
       <use x="204.6875" xlink:href="#BitstreamVeraSans-Roman-33"/>
       <use x="268.310546875" xlink:href="#BitstreamVeraSans-Roman-31"/>
       <use x="331.93359375" xlink:href="#BitstreamVeraSans-Roman-20"/>
       <use x="363.720703125" xlink:href="#BitstreamVeraSans-Roman-32"/>
       <use x="427.34375" xlink:href="#BitstreamVeraSans-Roman-30"/>
       <use x="490.966796875" xlink:href="#BitstreamVeraSans-Roman-31"/>
       <use x="554.58984375" xlink:href="#BitstreamVeraSans-Roman-35"/>
      </g>
     </g>
    </g>
    <g id="xtick_8">
     <g id="line2d_17">
      <g>
       <use style="stroke:#000000;stroke-width:0.5;" x="503.859901713" xlink:href="#m93b0483c22" y="345.6"/>
      </g>
     </g>
     <g id="line2d_18">
      <g>
       <use style="stroke:#000000;stroke-width:0.5;" x="503.859901713" xlink:href="#m741efc42ff" y="43.2"/>
      </g>
     </g>
     <g id="text_8">
      <!-- Nov 03 2015 -->
      <defs>
       <path d="
M2.98438 54.6875
L12.5 54.6875
L29.5938 8.79688
L46.6875 54.6875
L56.2031 54.6875
L35.6875 0
L23.4844 0
z
" id="BitstreamVeraSans-Roman-76"/>
       <path d="
M9.8125 72.9062
L23.0938 72.9062
L55.4219 11.9219
L55.4219 72.9062
L64.9844 72.9062
L64.9844 0
L51.7031 0
L19.3906 60.9844
L19.3906 0
L9.8125 0
z
" id="BitstreamVeraSans-Roman-4e"/>
       <path d="
M30.6094 48.3906
Q23.3906 48.3906 19.1875 42.75
Q14.9844 37.1094 14.9844 27.2969
Q14.9844 17.4844 19.1562 11.8438
Q23.3438 6.20312 30.6094 6.20312
Q37.7969 6.20312 41.9844 11.8594
Q46.1875 17.5312 46.1875 27.2969
Q46.1875 37.0156 41.9844 42.7031
Q37.7969 48.3906 30.6094 48.3906
M30.6094 56
Q42.3281 56 49.0156 48.375
Q55.7188 40.7656 55.7188 27.2969
Q55.7188 13.875 49.0156 6.21875
Q42.3281 -1.42188 30.6094 -1.42188
Q18.8438 -1.42188 12.1719 6.21875
Q5.51562 13.875 5.51562 27.2969
Q5.51562 40.7656 12.1719 48.375
Q18.8438 56 30.6094 56" id="BitstreamVeraSans-Roman-6f"/>
      </defs>
      <g transform="translate(436.957079555 395.402465385)rotate(-30.0)scale(0.12 -0.12)">
       <use xlink:href="#BitstreamVeraSans-Roman-4e"/>
       <use x="74.8046875" xlink:href="#BitstreamVeraSans-Roman-6f"/>
       <use x="135.986328125" xlink:href="#BitstreamVeraSans-Roman-76"/>
       <use x="195.166015625" xlink:href="#BitstreamVeraSans-Roman-20"/>
       <use x="226.953125" xlink:href="#BitstreamVeraSans-Roman-30"/>
       <use x="290.576171875" xlink:href="#BitstreamVeraSans-Roman-33"/>
       <use x="354.19921875" xlink:href="#BitstreamVeraSans-Roman-20"/>
       <use x="385.986328125" xlink:href="#BitstreamVeraSans-Roman-32"/>
       <use x="449.609375" xlink:href="#BitstreamVeraSans-Roman-30"/>
       <use x="513.232421875" xlink:href="#BitstreamVeraSans-Roman-31"/>
       <use x="576.85546875" xlink:href="#BitstreamVeraSans-Roman-35"/>
      </g>
     </g>
    </g>
   </g>
   <g id="matplotlib.axis_2">
    <g id="ytick_1">
     <g id="line2d_19">
      <defs>
       <path d="
M0 0
L4 0" id="m728421d6d4" style="stroke:#000000;stroke-width:0.5;"/>
      </defs>
      <g>
       <use style="stroke:#000000;stroke-width:0.5;" x="72.0" xlink:href="#m728421d6d4" y="297.900674246"/>
      </g>
     </g>
     <g id="line2d_20">
      <defs>
       <path d="
M0 0
L-4 0" id="mcb0005524f" style="stroke:#000000;stroke-width:0.5;"/>
      </defs>
      <g>
       <use style="stroke:#000000;stroke-width:0.5;" x="518.4" xlink:href="#mcb0005524f" y="297.900674246"/>
      </g>
     </g>
     <g id="text_9">
      <!-- 50000 -->
      <g transform="translate(31.548125 301.211924246)scale(0.12 -0.12)">
       <use xlink:href="#BitstreamVeraSans-Roman-35"/>
       <use x="63.623046875" xlink:href="#BitstreamVeraSans-Roman-30"/>
       <use x="127.24609375" xlink:href="#BitstreamVeraSans-Roman-30"/>
       <use x="190.869140625" xlink:href="#BitstreamVeraSans-Roman-30"/>
       <use x="254.4921875" xlink:href="#BitstreamVeraSans-Roman-30"/>
      </g>
     </g>
    </g>
    <g id="ytick_2">
     <g id="line2d_21">
      <g>
       <use style="stroke:#000000;stroke-width:0.5;" x="72.0" xlink:href="#m728421d6d4" y="240.792899751"/>
      </g>
     </g>
     <g id="line2d_22">
      <g>
       <use style="stroke:#000000;stroke-width:0.5;" x="518.4" xlink:href="#mcb0005524f" y="240.792899751"/>
      </g>
     </g>
     <g id="text_10">
      <!-- 100000 -->
      <g transform="translate(24.305 244.104149751)scale(0.12 -0.12)">
       <use xlink:href="#BitstreamVeraSans-Roman-31"/>
       <use x="63.623046875" xlink:href="#BitstreamVeraSans-Roman-30"/>
       <use x="127.24609375" xlink:href="#BitstreamVeraSans-Roman-30"/>
       <use x="190.869140625" xlink:href="#BitstreamVeraSans-Roman-30"/>
       <use x="254.4921875" xlink:href="#BitstreamVeraSans-Roman-30"/>
       <use x="318.115234375" xlink:href="#BitstreamVeraSans-Roman-30"/>
      </g>
     </g>
    </g>
    <g id="ytick_3">
     <g id="line2d_23">
      <g>
       <use style="stroke:#000000;stroke-width:0.5;" x="72.0" xlink:href="#m728421d6d4" y="183.685125257"/>
      </g>
     </g>
     <g id="line2d_24">
      <g>
       <use style="stroke:#000000;stroke-width:0.5;" x="518.4" xlink:href="#mcb0005524f" y="183.685125257"/>
      </g>
     </g>
     <g id="text_11">
      <!-- 150000 -->
      <g transform="translate(24.305 186.996375257)scale(0.12 -0.12)">
       <use xlink:href="#BitstreamVeraSans-Roman-31"/>
       <use x="63.623046875" xlink:href="#BitstreamVeraSans-Roman-35"/>
       <use x="127.24609375" xlink:href="#BitstreamVeraSans-Roman-30"/>
       <use x="190.869140625" xlink:href="#BitstreamVeraSans-Roman-30"/>
       <use x="254.4921875" xlink:href="#BitstreamVeraSans-Roman-30"/>
       <use x="318.115234375" xlink:href="#BitstreamVeraSans-Roman-30"/>
      </g>
     </g>
    </g>
    <g id="ytick_4">
     <g id="line2d_25">
      <g>
       <use style="stroke:#000000;stroke-width:0.5;" x="72.0" xlink:href="#m728421d6d4" y="126.577350762"/>
      </g>
     </g>
     <g id="line2d_26">
      <g>
       <use style="stroke:#000000;stroke-width:0.5;" x="518.4" xlink:href="#mcb0005524f" y="126.577350762"/>
      </g>
     </g>
     <g id="text_12">
      <!-- 200000 -->
      <g transform="translate(23.86625 129.888600762)scale(0.12 -0.12)">
       <use xlink:href="#BitstreamVeraSans-Roman-32"/>
       <use x="63.623046875" xlink:href="#BitstreamVeraSans-Roman-30"/>
       <use x="127.24609375" xlink:href="#BitstreamVeraSans-Roman-30"/>
       <use x="190.869140625" xlink:href="#BitstreamVeraSans-Roman-30"/>
       <use x="254.4921875" xlink:href="#BitstreamVeraSans-Roman-30"/>
       <use x="318.115234375" xlink:href="#BitstreamVeraSans-Roman-30"/>
      </g>
     </g>
    </g>
    <g id="ytick_5">
     <g id="line2d_27">
      <g>
       <use style="stroke:#000000;stroke-width:0.5;" x="72.0" xlink:href="#m728421d6d4" y="69.4695762675"/>
      </g>
     </g>
     <g id="line2d_28">
      <g>
       <use style="stroke:#000000;stroke-width:0.5;" x="518.4" xlink:href="#mcb0005524f" y="69.4695762675"/>
      </g>
     </g>
     <g id="text_13">
      <!-- 250000 -->
      <g transform="translate(23.86625 72.7808262675)scale(0.12 -0.12)">
       <use xlink:href="#BitstreamVeraSans-Roman-32"/>
       <use x="63.623046875" xlink:href="#BitstreamVeraSans-Roman-35"/>
       <use x="127.24609375" xlink:href="#BitstreamVeraSans-Roman-30"/>
       <use x="190.869140625" xlink:href="#BitstreamVeraSans-Roman-30"/>
       <use x="254.4921875" xlink:href="#BitstreamVeraSans-Roman-30"/>
       <use x="318.115234375" xlink:href="#BitstreamVeraSans-Roman-30"/>
      </g>
     </g>
    </g>
   </g>
   <g id="text_14">
    <!-- Waffen -->
    <defs>
     <path d="
M56.2031 29.5938
L56.2031 25.2031
L14.8906 25.2031
Q15.4844 15.9219 20.4844 11.0625
Q25.4844 6.20312 34.4219 6.20312
Q39.5938 6.20312 44.4531 7.46875
Q49.3125 8.73438 54.1094 11.2812
L54.1094 2.78125
Q49.2656 0.734375 44.1875 -0.34375
Q39.1094 -1.42188 33.8906 -1.42188
Q20.7969 -1.42188 13.1562 6.1875
Q5.51562 13.8125 5.51562 26.8125
Q5.51562 40.2344 12.7656 48.1094
Q20.0156 56 32.3281 56
Q43.3594 56 49.7812 48.8906
Q56.2031 41.7969 56.2031 29.5938
M47.2188 32.2344
Q47.125 39.5938 43.0938 43.9844
Q39.0625 48.3906 32.4219 48.3906
Q24.9062 48.3906 20.3906 44.1406
Q15.875 39.8906 15.1875 32.1719
z
" id="BitstreamVeraSans-Roman-65"/>
     <path d="
M54.8906 33.0156
L54.8906 0
L45.9062 0
L45.9062 32.7188
Q45.9062 40.4844 42.875 44.3281
Q39.8438 48.1875 33.7969 48.1875
Q26.5156 48.1875 22.3125 43.5469
Q18.1094 38.9219 18.1094 30.9062
L18.1094 0
L9.07812 0
L9.07812 54.6875
L18.1094 54.6875
L18.1094 46.1875
Q21.3438 51.125 25.7031 53.5625
Q30.0781 56 35.7969 56
Q45.2188 56 50.0469 50.1719
Q54.8906 44.3438 54.8906 33.0156" id="BitstreamVeraSans-Roman-6e"/>
     <path d="
M37.1094 75.9844
L37.1094 68.5
L28.5156 68.5
Q23.6875 68.5 21.7969 66.5469
Q19.9219 64.5938 19.9219 59.5156
L19.9219 54.6875
L34.7188 54.6875
L34.7188 47.7031
L19.9219 47.7031
L19.9219 0
L10.8906 0
L10.8906 47.7031
L2.29688 47.7031
L2.29688 54.6875
L10.8906 54.6875
L10.8906 58.5
Q10.8906 67.625 15.1406 71.7969
Q19.3906 75.9844 28.6094 75.9844
z
" id="BitstreamVeraSans-Roman-66"/>
     <path d="
M34.2812 27.4844
Q23.3906 27.4844 19.1875 25
Q14.9844 22.5156 14.9844 16.5
Q14.9844 11.7188 18.1406 8.90625
Q21.2969 6.10938 26.7031 6.10938
Q34.1875 6.10938 38.7031 11.4062
Q43.2188 16.7031 43.2188 25.4844
L43.2188 27.4844
z

M52.2031 31.2031
L52.2031 0
L43.2188 0
L43.2188 8.29688
Q40.1406 3.32812 35.5469 0.953125
Q30.9531 -1.42188 24.3125 -1.42188
Q15.9219 -1.42188 10.9531 3.29688
Q6 8.01562 6 15.9219
Q6 25.1406 12.1719 29.8281
Q18.3594 34.5156 30.6094 34.5156
L43.2188 34.5156
L43.2188 35.4062
Q43.2188 41.6094 39.1406 45
Q35.0625 48.3906 27.6875 48.3906
Q23 48.3906 18.5469 47.2656
Q14.1094 46.1406 10.0156 43.8906
L10.0156 52.2031
Q14.9375 54.1094 19.5781 55.0469
Q24.2188 56 28.6094 56
Q40.4844 56 46.3438 49.8438
Q52.2031 43.7031 52.2031 31.2031" id="BitstreamVeraSans-Roman-61"/>
     <path d="
M3.32812 72.9062
L13.2812 72.9062
L28.6094 11.2812
L43.8906 72.9062
L54.9844 72.9062
L70.3125 11.2812
L85.5938 72.9062
L95.6094 72.9062
L77.2969 0
L64.8906 0
L49.5156 63.2812
L33.9844 0
L21.5781 0
z
" id="BitstreamVeraSans-Roman-57"/>
    </defs>
    <g transform="translate(469.8315 38.2)scale(0.144 -0.144)">
     <use xlink:href="#BitstreamVeraSans-Roman-57"/>
     <use x="92.501953125" xlink:href="#BitstreamVeraSans-Roman-61"/>
     <use x="153.78125" xlink:href="#BitstreamVeraSans-Roman-66"/>
     <use x="188.986328125" xlink:href="#BitstreamVeraSans-Roman-66"/>
     <use x="224.19140625" xlink:href="#BitstreamVeraSans-Roman-65"/>
     <use x="285.71484375" xlink:href="#BitstreamVeraSans-Roman-6e"/>
    </g>
   </g>
   <g id="legend_1">
    <g id="patch_7">
     <path d="
M123.942 423.616
L466.458 423.616
L466.458 398.16
L123.942 398.16
z
" style="fill:#ffffff;stroke:#000000;stroke-linejoin:miter;"/>
    </g>
    <g id="line2d_29">
     <path d="
M134.022 409.822
L154.182 409.822" style="fill:none;stroke:#ff0000;stroke-linecap:square;"/>
    </g>
    <g id="line2d_30"/>
    <g id="text_15">
     <!-- Schwarzmarktpreis -->
     <defs>
      <path d="
M52 44.1875
Q55.375 50.25 60.0625 53.125
Q64.75 56 71.0938 56
Q79.6406 56 84.2812 50.0156
Q88.9219 44.0469 88.9219 33.0156
L88.9219 0
L79.8906 0
L79.8906 32.7188
Q79.8906 40.5781 77.0938 44.375
Q74.3125 48.1875 68.6094 48.1875
Q61.625 48.1875 57.5625 43.5469
Q53.5156 38.9219 53.5156 30.9062
L53.5156 0
L44.4844 0
L44.4844 32.7188
Q44.4844 40.625 41.7031 44.4062
Q38.9219 48.1875 33.1094 48.1875
Q26.2188 48.1875 22.1562 43.5312
Q18.1094 38.875 18.1094 30.9062
L18.1094 0
L9.07812 0
L9.07812 54.6875
L18.1094 54.6875
L18.1094 46.1875
Q21.1875 51.2188 25.4844 53.6094
Q29.7812 56 35.6875 56
Q41.6562 56 45.8281 52.9688
Q50 49.9531 52 44.1875" id="BitstreamVeraSans-Roman-6d"/>
      <path d="
M5.51562 54.6875
L48.1875 54.6875
L48.1875 46.4844
L14.4062 7.17188
L48.1875 7.17188
L48.1875 0
L4.29688 0
L4.29688 8.20312
L38.0938 47.5156
L5.51562 47.5156
z
" id="BitstreamVeraSans-Roman-7a"/>
      <path d="
M53.5156 70.5156
L53.5156 60.8906
Q47.9062 63.5781 42.9219 64.8906
Q37.9375 66.2188 33.2969 66.2188
Q25.25 66.2188 20.875 63.0938
Q16.5 59.9688 16.5 54.2031
Q16.5 49.3594 19.4062 46.8906
Q22.3125 44.4375 30.4219 42.9219
L36.375 41.7031
Q47.4062 39.5938 52.6562 34.2969
Q57.9062 29 57.9062 20.125
Q57.9062 9.51562 50.7969 4.04688
Q43.7031 -1.42188 29.9844 -1.42188
Q24.8125 -1.42188 18.9688 -0.25
Q13.1406 0.921875 6.89062 3.21875
L6.89062 13.375
Q12.8906 10.0156 18.6562 8.29688
Q24.4219 6.59375 29.9844 6.59375
Q38.4219 6.59375 43.0156 9.90625
Q47.6094 13.2344 47.6094 19.3906
Q47.6094 24.75 44.3125 27.7812
Q41.0156 30.8125 33.5 32.3281
L27.4844 33.5
Q16.4531 35.6875 11.5156 40.375
Q6.59375 45.0625 6.59375 53.4219
Q6.59375 63.0938 13.4062 68.6562
Q20.2188 74.2188 32.1719 74.2188
Q37.3125 74.2188 42.625 73.2812
Q47.9531 72.3594 53.5156 70.5156" id="BitstreamVeraSans-Roman-53"/>
      <path d="
M9.42188 54.6875
L18.4062 54.6875
L18.4062 0
L9.42188 0
z

M9.42188 75.9844
L18.4062 75.9844
L18.4062 64.5938
L9.42188 64.5938
z
" id="BitstreamVeraSans-Roman-69"/>
      <path d="
M54.8906 33.0156
L54.8906 0
L45.9062 0
L45.9062 32.7188
Q45.9062 40.4844 42.875 44.3281
Q39.8438 48.1875 33.7969 48.1875
Q26.5156 48.1875 22.3125 43.5469
Q18.1094 38.9219 18.1094 30.9062
L18.1094 0
L9.07812 0
L9.07812 75.9844
L18.1094 75.9844
L18.1094 46.1875
Q21.3438 51.125 25.7031 53.5625
Q30.0781 56 35.7969 56
Q45.2188 56 50.0469 50.1719
Q54.8906 44.3438 54.8906 33.0156" id="BitstreamVeraSans-Roman-68"/>
      <path d="
M4.20312 54.6875
L13.1875 54.6875
L24.4219 12.0156
L35.5938 54.6875
L46.1875 54.6875
L57.4219 12.0156
L68.6094 54.6875
L77.5938 54.6875
L63.2812 0
L52.6875 0
L40.9219 44.8281
L29.1094 0
L18.5 0
z
" id="BitstreamVeraSans-Roman-77"/>
      <path d="
M9.07812 75.9844
L18.1094 75.9844
L18.1094 31.1094
L44.9219 54.6875
L56.3906 54.6875
L27.3906 29.1094
L57.625 0
L45.9062 0
L18.1094 26.7031
L18.1094 0
L9.07812 0
z
" id="BitstreamVeraSans-Roman-6b"/>
      <path d="
M41.1094 46.2969
Q39.5938 47.1719 37.8125 47.5781
Q36.0312 48 33.8906 48
Q26.2656 48 22.1875 43.0469
Q18.1094 38.0938 18.1094 28.8125
L18.1094 0
L9.07812 0
L9.07812 54.6875
L18.1094 54.6875
L18.1094 46.1875
Q20.9531 51.1719 25.4844 53.5781
Q30.0312 56 36.5312 56
Q37.4531 56 38.5781 55.875
Q39.7031 55.7656 41.0625 55.5156
z
" id="BitstreamVeraSans-Roman-72"/>
      <path d="
M44.2812 53.0781
L44.2812 44.5781
Q40.4844 46.5312 36.375 47.5
Q32.2812 48.4844 27.875 48.4844
Q21.1875 48.4844 17.8438 46.4375
Q14.5 44.3906 14.5 40.2812
Q14.5 37.1562 16.8906 35.375
Q19.2812 33.5938 26.5156 31.9844
L29.5938 31.2969
Q39.1562 29.25 43.1875 25.5156
Q47.2188 21.7812 47.2188 15.0938
Q47.2188 7.46875 41.1875 3.01562
Q35.1562 -1.42188 24.6094 -1.42188
Q20.2188 -1.42188 15.4531 -0.5625
Q10.6875 0.296875 5.42188 2
L5.42188 11.2812
Q10.4062 8.6875 15.2344 7.39062
Q20.0625 6.10938 24.8125 6.10938
Q31.1562 6.10938 34.5625 8.28125
Q37.9844 10.4531 37.9844 14.4062
Q37.9844 18.0625 35.5156 20.0156
Q33.0625 21.9688 24.7031 23.7812
L21.5781 24.5156
Q13.2344 26.2656 9.51562 29.9062
Q5.8125 33.5469 5.8125 39.8906
Q5.8125 47.6094 11.2812 51.7969
Q16.75 56 26.8125 56
Q31.7812 56 36.1719 55.2656
Q40.5781 54.5469 44.2812 53.0781" id="BitstreamVeraSans-Roman-73"/>
      <path d="
M18.1094 8.20312
L18.1094 -20.7969
L9.07812 -20.7969
L9.07812 54.6875
L18.1094 54.6875
L18.1094 46.3906
Q20.9531 51.2656 25.2656 53.625
Q29.5938 56 35.5938 56
Q45.5625 56 51.7812 48.0938
Q58.0156 40.1875 58.0156 27.2969
Q58.0156 14.4062 51.7812 6.48438
Q45.5625 -1.42188 35.5938 -1.42188
Q29.5938 -1.42188 25.2656 0.953125
Q20.9531 3.32812 18.1094 8.20312
M48.6875 27.2969
Q48.6875 37.2031 44.6094 42.8438
Q40.5312 48.4844 33.4062 48.4844
Q26.2656 48.4844 22.1875 42.8438
Q18.1094 37.2031 18.1094 27.2969
Q18.1094 17.3906 22.1875 11.75
Q26.2656 6.10938 33.4062 6.10938
Q40.5312 6.10938 44.6094 11.75
Q48.6875 17.3906 48.6875 27.2969" id="BitstreamVeraSans-Roman-70"/>
     </defs>
     <g transform="translate(170.022375 414.86175)scale(0.144 -0.144)">
      <use xlink:href="#BitstreamVeraSans-Roman-53"/>
      <use x="63.4765625" xlink:href="#BitstreamVeraSans-Roman-63"/>
      <use x="118.45703125" xlink:href="#BitstreamVeraSans-Roman-68"/>
      <use x="181.8359375" xlink:href="#BitstreamVeraSans-Roman-77"/>
      <use x="263.623046875" xlink:href="#BitstreamVeraSans-Roman-61"/>
      <use x="324.90234375" xlink:href="#BitstreamVeraSans-Roman-72"/>
      <use x="366.015625" xlink:href="#BitstreamVeraSans-Roman-7a"/>
      <use x="418.505859375" xlink:href="#BitstreamVeraSans-Roman-6d"/>
      <use x="515.91796875" xlink:href="#BitstreamVeraSans-Roman-61"/>
      <use x="577.197265625" xlink:href="#BitstreamVeraSans-Roman-72"/>
      <use x="618.310546875" xlink:href="#BitstreamVeraSans-Roman-6b"/>
      <use x="676.220703125" xlink:href="#BitstreamVeraSans-Roman-74"/>
      <use x="715.4296875" xlink:href="#BitstreamVeraSans-Roman-70"/>
      <use x="778.90625" xlink:href="#BitstreamVeraSans-Roman-72"/>
      <use x="817.76953125" xlink:href="#BitstreamVeraSans-Roman-65"/>
      <use x="879.29296875" xlink:href="#BitstreamVeraSans-Roman-69"/>
      <use x="907.076171875" xlink:href="#BitstreamVeraSans-Roman-73"/>
     </g>
    </g>
    <g id="line2d_31">
     <path d="
M339.609 409.822
L359.769 409.822" style="fill:none;stroke:#008000;stroke-linecap:square;"/>
    </g>
    <g id="line2d_32"/>
    <g id="text_16">
     <!-- Normalpreis -->
     <defs>
      <path d="
M9.42188 75.9844
L18.4062 75.9844
L18.4062 0
L9.42188 0
z
" id="BitstreamVeraSans-Roman-6c"/>
     </defs>
     <g transform="translate(375.609375 414.86175)scale(0.144 -0.144)">
      <use xlink:href="#BitstreamVeraSans-Roman-4e"/>
      <use x="74.8046875" xlink:href="#BitstreamVeraSans-Roman-6f"/>
      <use x="135.986328125" xlink:href="#BitstreamVeraSans-Roman-72"/>
      <use x="175.349609375" xlink:href="#BitstreamVeraSans-Roman-6d"/>
      <use x="272.76171875" xlink:href="#BitstreamVeraSans-Roman-61"/>
      <use x="334.041015625" xlink:href="#BitstreamVeraSans-Roman-6c"/>
      <use x="361.82421875" xlink:href="#BitstreamVeraSans-Roman-70"/>
      <use x="425.30078125" xlink:href="#BitstreamVeraSans-Roman-72"/>
      <use x="464.1640625" xlink:href="#BitstreamVeraSans-Roman-65"/>
      <use x="525.6875" xlink:href="#BitstreamVeraSans-Roman-69"/>
      <use x="553.470703125" xlink:href="#BitstreamVeraSans-Roman-73"/>
     </g>
    </g>
   </g>
  </g>
 </g>
 <defs>
  <clipPath id="pcb2bf987bf">
   <rect height="302.4" width="446.4" x="72.0" y="43.2"/>
  </clipPath>
 </defs>
</svg>
