<?xml version="1.0" encoding="utf-8" standalone="no"?>
<!DOCTYPE svg PUBLIC "-//W3C//DTD SVG 1.1//EN"
  "http://www.w3.org/Graphics/SVG/1.1/DTD/svg11.dtd">
<!-- Created with matplotlib (http://matplotlib.org/) -->
<svg height="432pt" version="1.1" viewBox="0 0 576 432" width="576pt" xmlns="http://www.w3.org/2000/svg" xmlns:xlink="http://www.w3.org/1999/xlink">
 <defs>
  <style type="text/css">
*{stroke-linecap:butt;stroke-linejoin:round;}
  </style>
 </defs>
 <g id="figure_1">
  <g id="patch_1">
   <path d="
M0 432
L576 432
L576 0
L0 0
z
" style="fill:#ffffff;"/>
  </g>
  <g id="axes_1">
   <g id="patch_2">
    <path d="
M72 345.6
L518.4 345.6
L518.4 43.2
L72 43.2
z
" style="fill:#ffffff;"/>
   </g>
   <g id="line2d_1">
    <path clip-path="url(#pcb2bf987bf)" d="
M72 257.177
L72.2551 257.177
L72.3826 259.815
L72.6377 257.177
L72.7653 254.539
L73.0203 257.177
L73.1479 257.177
L73.403 247.286
L73.5305 236.735
L73.7856 243.923
L73.9131 243.989
L74.1682 242.67
L74.2958 240.032
L74.5509 243.33
L74.6784 243.264
L74.9335 243.989
L75.061 243.33
L75.4437 246.561
L75.8263 231.131
L76.0814 215.635
L76.2089 157.607
L76.8466 227.174
L76.9742 226.515
L77.2295 244.978
L77.6119 220.91
L77.9947 221.899
L78.1221 241.351
L78.5047 244.319
L78.7598 244.319
L78.8873 244.978
L79.1426 259.485
L79.525 259.485
L79.6526 261.463
L80.0352 261.463
L80.2903 261.331
L80.4178 265.617
L80.6729 265.354
L81.1831 259.485
L81.4384 260.144
L81.5657 265.42
L81.8208 265.947
L81.9483 266.672
L82.5863 262.123
L82.7136 262.452
L82.9687 266.541
L83.0962 266.672
L83.3513 242.34
L83.4789 243.659
L83.7339 237.791
L83.8615 237.791
L84.1166 189.588
L84.2441 243.593
L84.4992 266.672
L84.6267 266.079
L84.882 263.112
L85.392 239.703
L85.6473 239.043
L85.7746 239.703
L86.0297 224.405
L86.1573 254.21
L86.4123 256.847
L86.5399 256.847
L86.795 256.188
L87.1776 260.804
L87.3051 263.705
L87.5602 261.793
L87.6878 222.888
L88.0704 265.42
L88.3255 262.057
L88.453 262.057
L88.7081 261.463
L88.8357 261.463
L89.0907 256.188
L89.0907 256.188
L89.2183 261.463
L89.4734 262.123
L89.6009 260.804
L89.856 266.541
L89.9835 264.43
L90.2386 266.475
L90.2386 266.475
L90.6213 260.144
L91.259 257.507
L92.0242 267.266
L92.7895 256.122
L92.917 250.913
L93.5547 265.354
L94.32 267.398
L94.4475 264.76
L95.2128 266.87
L95.8505 255.529
L95.9781 263.771
L96.6158 264.43
L97.381 261.793
L98.1463 265.354
L98.9115 261.793
L99.0391 259.815
L99.6768 264.43
L100.442 249.594
L100.57 221.899
L101.207 264.43
L102.1 267.464
L102.738 389.388
L103.503 389.388
L103.631 267.398
L104.268 389.388
L105.034 266.079
L105.799 261.793
L106.564 259.155
L107.33 258.43
L108.095 259.815
L108.222 260.474
L108.86 259.155
L109.625 267.728
L109.753 267.068
L110.39 266.738
L110.518 268.057
L111.156 268.387
L111.283 389.388
L112.048 260.804
L114.217 267.728
L115.109 263.441
L116.512 261.463
L116.64 268.585
L117.278 267.728
L118.043 267.728
L118.171 265.749
L118.808 261.793
L118.936 261.793
L119.573 264.101
L120.339 264.101
L121.104 267.728
L121.232 266.738
L121.869 198.82
L122.635 268.387
L122.762 267.991
L123.4 389.388
L124.165 266.079
L124.293 389.388
L124.93 264.101
L125.696 265.42
L126.461 256.518
L126.461 256.518
L126.589 257.507
L127.354 267.068
L127.354 267.068
L127.864 260.144
L127.864 260.144
L127.991 260.738
L128.884 267.793
L129.522 265.024
L130.287 268.057
L130.415 267.728
L131.052 260.078
L131.818 265.749
L132.583 267.068
L132.583 267.068
L134.113 249.594
L134.369 262.782
L135.644 257.507
L136.409 264.101
L136.537 264.101
L137.174 266.409
L137.94 265.42
L138.705 268.255
L139.47 267.2
L139.598 265.42
L140.235 264.299
L141.001 267.398
L141.766 267.398
L141.893 265.09
L142.531 267.662
L143.296 267.002
L144.062 265.749
L144.189 264.76
L144.827 389.388
L145.592 267.068
L145.72 266.079
L146.357 266.079
L146.485 264.101
L147.123 266.738
L147.25 266.079
L147.888 267.398
L148.653 264.101
L149.419 260.144
L149.546 262.123
L150.184 257.507
L150.949 258.826
L151.077 261.463
L151.714 256.847
L152.48 265.749
L153.245 266.079
L153.372 266.409
L154.01 255.199
L154.775 262.782
L155.541 265.42
L155.541 265.42
L156.306 260.144
L157.071 267.793
L157.837 389.388
L157.964 389.388
L158.602 266.804
L159.367 265.42
L160.132 389.388
L160.897 261.463
L161.025 262.782
L162.428 264.958
L163.193 252.231
L163.321 263.112
L164.086 266.079
L164.724 266.409
L164.851 389.388
L165.489 266.343
L166.254 266.343
L167.019 265.09
L167.912 266.079
L168.55 389.388
L169.315 257.507
L169.443 257.507
L170.08 266.87
L170.973 266.409
L171.611 389.388
L172.376 265.42
L173.141 264.101
L173.269 265.42
L173.907 265.947
L174.672 265.617
L174.8 262.452
L176.203 262.123
L176.968 264.76
L177.095 264.76
L177.733 265.42
L178.498 263.441
L179.264 389.388
L180.029 389.388
L180.156 265.881
L180.794 222.888
L180.922 255.529
L181.559 264.43
L182.325 263.441
L182.452 265.42
L183.09 389.388
L183.855 389.388
L183.983 265.09
L184.62 265.749
L185.386 389.388
L186.151 389.388
L186.916 265.09
L187.681 265.749
L188.447 265.09
L189.212 266.541
L189.339 389.388
L190.742 263.771
L191.508 261.463
L193.038 264.43
L193.803 265.024
L194.569 262.452
L195.334 264.43
L195.461 263.771
L196.099 261.793
L196.864 263.441
L198.395 389.388
L198.395 389.388
L199.16 389.388
L200.691 264.43
L201.456 263.441
L202.221 389.388
L202.987 261.133
L203.752 264.43
L203.879 265.617
L204.517 265.09
L205.282 389.388
L205.41 265.09
L206.175 264.101
L206.303 389.388
L206.813 389.388
L206.813 389.388
L206.94 263.112
L207.578 265.09
L208.088 389.388
L208.343 389.388
L209.236 198.16
L209.236 198.16
L209.619 265.42
L209.746 389.388
L210.001 258.166
L210.767 264.101
L211.022 254.21
L211.532 389.388
L211.659 257.836
L211.915 389.388
L212.042 265.486
L212.297 264.43
L212.425 265.486
L212.68 264.43
L212.807 389.388
L213.062 389.388
L213.445 265.288
L213.573 263.441
L213.828 264.43
L213.955 389.388
L214.21 389.388
L214.338 264.76
L214.593 389.388
L215.358 389.388
L215.358 389.388
L215.486 263.771
L215.741 389.388
L215.868 264.43
L216.123 389.388
L216.123 389.388
L216.251 264.76
L216.506 389.388
L216.634 389.388
L216.761 265.222
L216.761 265.222
L217.016 132.22
L217.399 389.388
L217.654 263.441
L217.654 263.441
L217.781 389.388
L218.037 263.771
L218.164 264.43
L218.419 264.43
L218.419 264.43
L218.547 263.112
L218.802 264.101
L218.929 389.388
L219.312 389.388
L219.567 264.76
L219.95 256.847
L220.077 260.804
L220.332 261.793
L220.46 264.299
L220.46 264.299
L220.587 263.705
L220.715 264.233
L220.843 263.046
L220.843 263.046
L221.098 261.793
L221.48 264.958
L221.608 265.024
L221.863 389.388
L222.245 265.024
L222.373 265.024
L222.628 264.43
L222.756 265.09
L223.011 389.388
L223.011 389.388
L223.393 389.388
L223.521 264.76
L223.776 389.388
L224.159 389.388
L224.286 264.43
L224.541 389.388
L224.669 129.912
L224.924 262.716
L225.051 261.463
L225.307 389.388
L225.434 262.452
L225.689 257.177
L225.817 389.388
L225.817 389.388
L225.944 264.628
L225.944 264.628
L226.072 264.628
L226.072 264.628
L226.327 263.112
L226.327 263.112
L226.455 264.628
L226.582 264.628
L226.582 264.628
L226.837 389.388
L227.602 389.388
L227.602 389.388
L227.985 257.507
L228.112 389.388
L228.368 389.388
L228.495 263.771
L228.75 389.388
L228.878 263.771
L229.133 263.112
L229.26 263.112
L229.643 263.441
L229.898 389.388
L230.026 389.388
L230.281 264.035
L230.408 389.388
L230.663 389.388
L230.663 389.388
L231.046 264.035
L231.173 389.388
L231.429 263.112
L231.429 263.112
L231.556 262.782
L231.811 389.388
L232.194 389.388
L232.321 263.112
L232.576 389.388
L232.704 263.969
L232.959 389.388
L232.959 389.388
L233.087 389.388
L233.342 263.441
L233.469 389.388
L233.724 261.463
L233.852 389.388
L234.107 389.388
L234.235 263.903
L234.49 260.474
L234.49 260.474
L234.617 262.386
L234.872 261.397
L235.255 263.837
L235.255 263.837
L235.383 263.112
L235.637 263.112
L235.765 262.452
L236.02 261.793
L236.02 261.793
L236.148 262.452
L236.403 389.388
L236.53 263.441
L236.785 262.123
L236.913 389.388
L237.168 263.112
L237.296 389.388
L237.678 389.388
L237.933 263.771
L238.061 389.388
L238.699 389.388
L238.826 263.771
L239.081 389.388
L239.209 389.388
L239.464 264.101
L239.591 389.388
L239.974 389.388
L240.229 264.101
L240.357 389.388
L240.612 389.388
L240.612 389.388
L240.739 264.101
L240.994 389.388
L241.122 262.782
L241.504 264.76
L241.76 262.123
L241.887 264.101
L242.142 259.485
L242.27 263.441
L242.525 264.562
L242.653 263.771
L242.907 389.388
L243.035 264.101
L243.29 389.388
L244.183 389.388
L244.438 263.771
L244.565 389.388
L244.821 263.112
L244.948 389.388
L245.203 223.877
L245.203 223.877
L245.331 264.035
L245.586 263.112
L245.713 261.793
L245.968 389.388
L246.096 389.388
L246.351 263.771
L246.479 389.388
L246.734 263.771
L246.734 263.771
L246.861 389.388
L247.116 263.771
L247.244 263.771
L247.499 262.386
L247.882 389.388
L248.009 389.388
L248.392 264.167
L248.774 262.782
L249.03 389.388
L249.03 389.388
L249.157 389.388
L249.412 263.441
L249.795 263.441
L249.795 263.441
L249.922 389.388
L250.177 263.441
L250.305 389.388
L251.325 389.388
L251.453 262.452
L251.708 263.441
L251.835 389.388
L252.218 389.388
L252.473 263.771
L252.601 389.388
L252.983 389.388
L253.238 264.101
L253.366 389.388
L253.749 389.388
L254.004 263.771
L254.131 263.771
L254.386 389.388
L254.896 389.388
L254.896 389.388
L255.152 263.112
L255.279 389.388
L255.279 389.388
L255.534 263.441
L255.662 261.463
L255.662 261.463
L255.917 263.441
L255.917 263.441
L256.044 263.441
L256.427 263.771
L256.682 389.388
L256.81 263.771
L256.81 263.771
L257.065 389.388
L257.447 389.388
L257.575 263.441
L257.957 263.441
L258.213 389.388
L258.213 389.388
L258.595 263.441
L258.723 262.782
L258.85 389.388
L258.978 263.441
L259.105 260.804
L259.36 389.388
L259.36 389.388
L260.126 389.388
L260.253 263.771
L260.508 264.101
L260.636 389.388
L261.274 389.388
L261.401 264.562
L261.656 262.452
L261.784 264.43
L262.039 389.388
L263.314 389.388
L263.569 263.441
L263.569 263.441
L263.697 261.793
L263.952 263.112
L264.335 263.112
L264.335 263.112
L264.462 262.452
L264.717 389.388
L265.227 389.388
L265.483 262.123
L265.61 263.573
L265.738 389.388
L266.248 389.388
L266.375 256.847
L266.63 261.463
L266.758 389.388
L267.013 389.388
L267.141 262.782
L267.396 389.388
L268.161 389.388
L268.288 262.782
L268.544 389.388
L268.671 262.123
L268.926 389.388
L269.054 262.123
L269.309 263.573
L269.437 389.388
L269.819 389.388
L270.074 262.782
L270.202 389.388
L270.839 389.388
L270.967 263.507
L271.222 262.782
L271.605 262.452
L271.987 389.388
L272.497 389.388
L272.752 263.178
L272.88 262.452
L273.135 389.388
L273.263 389.388
L273.518 262.452
L273.518 262.452
L273.645 389.388
L273.9 262.452
L274.028 389.388
L274.283 389.388
L274.411 262.782
L274.666 260.144
L274.793 263.244
L275.048 262.782
L275.176 389.388
L275.431 389.388
L275.813 263.375
L275.941 263.112
L276.196 261.793
L276.324 263.573
L276.579 262.123
L276.706 389.388
L276.961 263.375
L277.089 389.388
L277.344 263.375
L277.472 389.388
L277.727 263.112
L277.854 262.782
L278.237 258.166
L278.492 389.388
L278.619 261.793
L278.875 224.536
L279.002 263.112
L279.257 389.388
L279.385 389.388
L279.64 263.441
L279.767 263.441
L280.022 389.388
L280.15 389.388
L280.405 263.441
L280.405 263.441
L280.533 263.771
L280.788 263.441
L280.915 262.123
L281.17 263.441
L281.17 263.441
L281.298 263.441
L281.553 389.388
L281.936 389.388
L282.318 262.452
L282.446 389.388
L282.828 389.388
L283.083 263.112
L283.211 389.388
L283.466 262.782
L283.594 262.123
L283.849 262.123
L283.976 389.388
L284.359 389.388
L284.614 261.463
L284.741 263.639
L284.869 389.388
L285.379 263.573
L285.507 263.507
L285.762 389.388
L285.889 389.388
L286.144 261.133
L286.272 259.485
L286.527 263.244
L286.655 389.388
L287.037 389.388
L287.292 262.452
L287.42 261.793
L287.675 389.388
L288.058 389.388
L288.185 262.782
L288.44 389.388
L288.568 262.782
L288.823 389.388
L288.95 263.112
L289.205 389.388
L289.333 257.507
L289.588 250.913
L289.716 389.388
L290.736 389.388
L290.864 257.507
L290.991 263.112
L291.246 263.112
L291.501 389.388
L291.629 263.112
L291.884 389.388
L292.267 262.782
L292.394 389.388
L293.414 389.388
L293.414 389.388
L293.542 263.375
L293.797 389.388
L293.797 389.388
L293.925 389.388
L294.18 263.507
L294.18 263.507
L294.307 389.388
L294.562 261.463
L294.69 262.123
L294.945 262.123
L294.945 262.123
L295.072 389.388
L295.71 389.388
L295.838 262.123
L296.093 262.782
L296.475 261.463
L296.603 389.388
L296.858 389.388
L296.986 263.112
L297.241 389.388
L298.389 389.388
L298.516 263.441
L298.771 389.388
L298.899 389.388
L299.154 261.793
L299.281 389.388
L299.536 263.771
L299.664 389.388
L301.067 389.388
L301.195 263.112
L301.45 389.388
L301.577 261.463
L301.832 389.388
L301.96 262.782
L302.215 263.375
L302.342 263.375
L302.597 262.123
L302.597 262.123
L302.98 389.388
L303.108 262.914
L303.235 389.388
L303.873 389.388
L304.128 262.452
L304.128 262.452
L304.256 389.388
L304.511 389.388
L304.893 262.98
L305.021 389.388
L305.659 389.388
L305.786 262.452
L306.041 389.388
L306.169 263.046
L306.424 389.388
L306.551 389.388
L306.806 261.793
L306.934 263.046
L307.189 262.452
L307.189 262.452
L307.317 389.388
L307.572 261.793
L307.699 261.727
L307.954 389.388
L308.082 389.388
L308.337 259.155
L308.464 260.408
L308.72 389.388
L308.72 389.388
L308.847 389.388
L309.102 262.452
L309.23 389.388
L309.612 389.388
L309.867 263.178
L309.995 389.388
L310.25 262.452
L310.25 262.452
L310.378 389.388
L310.633 261.463
L310.76 263.178
L311.015 261.463
L311.143 261.463
L311.398 389.388
L311.781 389.388
L311.908 263.244
L312.163 262.452
L312.291 262.452
L312.546 261.793
L312.673 263.244
L313.311 263.244
L313.439 389.388
L313.694 262.452
L313.821 389.388
L314.076 262.452
L314.204 389.388
L314.459 389.388
L314.587 262.782
L314.842 389.388
L314.969 263.375
L315.224 263.375
L315.352 389.388
L315.607 389.388
L315.734 262.452
L315.989 243.989
L316.372 263.112
L316.5 389.388
L316.882 249.264
L317.137 389.388
L317.52 389.388
L317.648 262.123
L317.903 263.046
L318.03 261.463
L318.285 389.388
L318.413 260.804
L318.668 261.463
L318.668 261.463
L318.795 261.397
L319.051 261.463
L319.178 389.388
L319.433 262.123
L319.433 262.123
L319.561 262.123
L319.816 389.388
L319.943 262.123
L320.198 389.388
L320.326 262.123
L320.709 389.388
L320.964 261.463
L320.964 261.463
L321.346 262.123
L321.474 389.388
L322.239 389.388
L322.877 262.123
L323.004 262.716
L323.259 262.123
L323.387 262.716
L323.642 262.123
L323.77 262.123
L324.152 258.826
L324.79 252.561
L324.917 252.561
L325.173 261.793
L325.3 389.388
L326.066 389.388
L326.32 261.793
L326.448 389.388
L327.213 389.388
L327.468 262.452
L327.596 262.452
L327.851 261.133
L327.979 263.178
L328.361 262.123
L328.616 262.452
L328.744 263.178
L329.381 263.112
L329.509 261.793
L329.764 389.388
L329.892 262.452
L330.147 263.112
L330.274 263.771
L330.529 262.782
L330.657 389.388
L330.912 262.123
L331.295 260.144
L331.422 260.144
L331.805 263.573
L332.06 263.573
L332.187 389.388
L332.443 389.388
L332.57 263.112
L332.825 263.112
L332.953 389.388
L333.208 258.496
L333.335 263.441
L333.59 262.782
L333.718 263.441
L333.973 389.388
L334.101 389.388
L334.356 262.123
L334.483 262.057
L334.866 257.507
L335.248 262.123
L335.504 263.573
L335.631 263.573
L335.886 389.388
L336.014 389.388
L336.269 263.112
L336.396 389.388
L336.651 259.485
L336.779 262.782
L337.034 262.782
L337.162 389.388
L337.927 389.388
L338.182 261.133
L338.309 262.452
L338.565 261.793
L338.692 389.388
L338.947 262.386
L339.457 260.474
L339.968 261.859
L340.223 260.804
L340.478 261.793
L340.605 261.793
L340.86 389.388
L340.988 389.388
L341.243 261.793
L341.371 261.133
L341.626 262.452
L341.753 262.452
L342.008 389.388
L342.773 389.388
L342.901 262.452
L343.156 389.388
L343.284 389.388
L343.539 262.452
L343.666 389.388
L343.921 263.046
L343.921 263.046
L344.049 262.452
L344.304 389.388
L344.432 389.388
L344.687 250.913
L344.814 262.782
L345.069 389.388
L345.197 262.782
L345.452 389.388
L345.452 389.388
L345.579 263.112
L345.835 263.112
L345.962 389.388
L346.217 389.388
L346.345 263.771
L346.6 263.112
L346.727 262.452
L346.982 389.388
L346.982 389.388
L347.11 260.804
L347.365 389.388
L347.493 262.452
L347.748 263.112
L347.875 389.388
L348.13 389.388
L348.258 263.771
L348.513 389.388
L348.64 389.388
L348.896 263.441
L349.023 263.375
L349.278 263.441
L349.406 389.388
L349.788 249.264
L350.043 263.112
L350.171 263.705
L350.426 263.112
L350.554 263.112
L350.809 389.388
L350.936 263.112
L351.191 262.452
L351.319 389.388
L351.702 260.804
L351.957 389.388
L352.084 263.112
L352.339 389.388
L352.722 389.388
L352.849 263.441
L353.104 263.969
L353.232 389.388
L353.487 263.441
L353.87 261.793
L353.87 261.793
L354.252 262.386
L354.635 256.847
L354.763 389.388
L355.018 389.388
L355.145 263.375
L355.4 258.826
L355.4 258.826
L355.528 262.123
L355.783 262.782
L355.91 389.388
L356.165 262.123
L356.165 262.123
L356.293 263.375
L356.676 262.782
L356.931 260.804
L357.058 262.782
L357.313 262.782
L357.568 389.388
L357.824 260.804
L358.079 389.388
L358.206 389.388
L358.461 262.782
L358.589 262.782
L358.844 262.452
L358.971 261.793
L359.227 262.452
L359.992 262.452
L360.119 261.133
L360.374 262.452
L360.502 262.452
L360.757 262.98
L360.885 262.452
L361.14 389.388
L361.267 389.388
L361.522 261.793
L361.65 262.452
L361.905 261.793
L362.032 262.452
L362.288 389.388
L362.415 389.388
L362.67 263.178
L362.798 389.388
L363.053 262.452
L363.18 389.388
L363.818 389.388
L363.946 262.782
L364.201 263.244
L364.328 389.388
L364.711 389.388
L364.966 262.452
L365.093 389.388
L366.114 389.388
L366.114 389.388
L366.242 261.133
L366.496 389.388
L366.624 263.112
L366.879 262.452
L367.007 263.112
L367.389 260.474
L367.644 261.793
L367.772 389.388
L368.027 263.112
L368.155 389.388
L368.41 389.388
L368.537 262.452
L368.792 389.388
L369.175 261.133
L369.685 262.782
L369.94 389.388
L370.068 263.441
L370.323 389.388
L370.45 263.837
L370.705 389.388
L370.833 263.837
L371.088 389.388
L371.216 261.133
L371.471 263.112
L371.598 263.046
L371.853 263.771
L371.981 262.452
L372.236 389.388
L372.619 389.388
L372.746 263.441
L373.001 263.441
L373.129 263.969
L373.384 256.847
L373.511 256.847
L373.766 263.441
L373.894 389.388
L374.149 263.375
L374.277 262.716
L374.532 389.388
L374.659 389.388
L374.914 262.782
L375.042 261.463
L375.297 263.31
L375.424 262.782
L375.68 389.388
L376.19 389.388
L376.445 262.452
L376.572 389.388
L376.827 389.388
L376.955 262.452
L377.21 389.388
L377.338 262.98
L377.593 261.793
L377.593 261.793
L377.848 262.452
L378.103 389.388
L378.741 389.388
L378.868 262.848
L379.123 389.388
L379.251 389.388
L379.506 262.123
L379.633 262.123
L379.888 262.914
L380.016 262.123
L380.271 389.388
L380.654 262.914
L380.781 389.388
L381.036 389.388
L381.164 262.123
L381.419 389.388
L381.547 389.388
L381.802 259.155
L381.929 262.452
L382.184 261.793
L382.312 262.452
L382.567 259.815
L382.694 261.793
L382.949 261.793
L383.077 389.388
L383.332 258.826
L383.46 261.463
L383.715 262.848
L384.097 389.388
L384.48 389.388
L384.608 262.452
L384.863 262.057
L385.245 258.826
L385.373 262.98
L385.755 262.914
L386.011 389.388
L386.138 389.388
L386.393 261.133
L386.521 263.112
L386.776 263.112
L386.903 389.388
L387.158 389.388
L387.286 257.573
L387.541 263.507
L387.669 263.441
L387.924 389.388
L388.306 389.388
L388.306 389.388
L388.434 263.112
L388.689 323.447
L388.816 323.447
L389.199 316.524
L389.454 262.914
L389.837 261.793
L389.964 257.507
L390.219 261.133
L390.347 261.133
L390.602 313.226
L390.73 313.556
L390.985 313.556
L391.112 243
L391.367 261.463
L391.495 313.556
L391.75 319.161
L391.878 319.161
L392.133 262.386
L392.26 261.793
L392.515 261.793
L392.643 319.161
L392.898 262.32
L393.025 261.793
L393.28 319.161
L393.408 262.452
L393.663 333.338
L393.791 262.848
L394.046 333.338
L394.556 333.338
L394.811 261.793
L394.939 262.848
L395.194 333.338
L395.321 333.338
L395.576 262.123
L395.704 333.338
L395.959 262.123
L396.086 261.463
L396.341 333.338
L396.469 262.123
L396.724 261.133
L397.107 262.123
L397.234 333.338
L397.489 244.319
L397.617 333.338
L397.872 333.338
L398 244.319
L398.255 261.133
L398.382 261.793
L398.637 333.338
L398.765 261.793
L399.02 261.793
L399.147 341.053
L399.403 262.782
L399.53 262.782
L399.785 341.053
L400.168 341.053
L400.295 261.793
L400.55 263.112
L400.678 341.053
L400.933 262.123
L401.061 263.573
L401.316 262.123
L401.443 341.053
L401.698 261.463
L401.826 341.053
L402.081 262.452
L402.208 263.705
L402.846 263.639
L402.974 341.053
L403.229 260.804
L403.356 341.053
L403.611 263.771
L403.739 263.441
L403.994 263.112
L404.122 262.452
L404.377 263.441
L404.504 341.053
L405.525 341.053
L405.652 257.507
L405.907 263.441
L406.035 263.112
L406.29 263.903
L406.417 263.903
L406.672 261.793
L406.8 341.053
L407.055 263.903
L407.183 263.112
L407.438 262.452
L407.565 263.112
L407.82 224.536
L407.948 263.441
L408.203 263.441
L408.331 255.529
L408.586 263.441
L408.713 263.441
L408.968 389.388
L409.096 389.388
L409.351 257.507
L409.478 263.771
L409.861 263.705
L410.116 389.388
L410.244 389.388
L410.499 263.112
L410.626 261.133
L410.881 262.452
L411.009 258.826
L411.264 258.166
L411.392 258.166
L411.647 258.826
L412.157 262.716
L412.412 262.123
L412.539 263.375
L412.667 389.388
L413.05 262.452
L413.305 261.133
L413.56 261.793
L413.687 261.793
L413.942 389.388
L414.325 389.388
L414.453 262.782
L414.708 260.144
L414.835 262.782
L415.09 389.388
L415.218 389.388
L415.473 262.782
L415.6 389.388
L415.983 389.388
L416.238 262.782
L416.621 262.782
L416.748 389.388
L417.003 389.388
L417.131 262.782
L417.386 263.31
L417.514 257.507
L417.769 263.112
L418.151 261.133
L418.279 263.112
L418.661 263.112
L418.917 389.388
L419.044 389.388
L419.299 263.771
L419.427 389.388
L419.682 263.112
L419.809 389.388
L420.064 264.035
L420.192 264.035
L420.447 261.463
L420.575 262.123
L420.957 257.507
L421.212 260.804
L421.34 389.388
L421.723 389.388
L421.978 262.386
L422.105 261.793
L422.36 262.452
L422.488 246.956
L422.743 263.771
L422.87 264.101
L423.125 263.441
L423.253 264.167
L423.508 262.452
L423.636 264.958
L423.891 389.388
L424.018 259.485
L424.273 263.771
L424.401 389.388
L424.656 264.101
L424.784 389.388
L425.039 389.388
L425.166 264.101
L425.421 263.375
L425.804 265.09
L425.931 389.388
L426.187 263.441
L426.314 264.101
L426.569 257.507
L426.697 389.388
L426.952 260.804
L427.462 264.035
L427.717 389.388
L427.845 389.388
L428.1 264.496
L428.482 264.43
L428.61 260.144
L428.865 263.441
L428.992 262.782
L429.375 264.496
L429.63 389.388
L429.758 389.388
L430.013 263.771
L430.395 264.76
L430.778 261.793
L430.906 264.76
L431.033 243.33
L431.288 262.782
L431.543 263.441
L431.671 264.43
L431.926 264.496
L432.053 263.441
L432.309 59.6851
L432.436 263.441
L432.691 262.716
L432.691 262.716
L432.819 263.441
L433.074 263.441
L433.201 262.782
L433.456 263.441
L433.584 262.123
L433.839 262.123
L433.967 262.65
L434.222 389.388
L434.349 263.441
L434.604 263.441
L434.732 264.101
L434.987 389.388
L435.115 389.388
L435.37 264.101
L435.497 389.388
L435.752 389.388
L435.88 264.628
L436.135 257.507
L436.262 262.782
L436.517 389.388
L436.645 389.388
L436.9 262.782
L437.028 264.496
L437.283 264.496
L437.41 389.388
L438.176 389.388
L438.431 263.112
L438.558 264.43
L438.813 263.441
L438.941 264.101
L439.196 263.112
L439.579 389.388
L439.961 389.388
L440.089 264.43
L440.344 263.771
L440.344 263.771
L440.726 260.474
L441.109 208.051
L441.237 256.847
L441.492 249.924
L441.619 257.836
L442.002 264.43
L442.384 261.793
L442.64 264.628
L442.767 264.101
L443.022 264.101
L443.15 265.09
L443.405 263.441
L443.533 263.441
L443.787 262.123
L444.17 264.101
L444.298 263.771
L444.553 263.771
L444.68 389.388
L444.935 265.09
L445.063 265.09
L445.318 264.43
L445.445 263.375
L445.701 265.09
L446.083 265.288
L446.211 264.76
L446.466 264.694
L446.593 190.577
L446.848 261.463
L446.976 389.388
L447.231 265.156
L447.359 264.43
L447.614 265.42
L447.741 265.42
L447.996 264.76
L448.124 264.76
L448.379 265.42
L448.507 265.42
L448.762 265.09
L448.889 263.441
L449.144 264.76
L449.272 264.101
L449.527 389.388
L449.527 389.388
L449.654 265.42
L449.909 389.388
L450.037 389.388
L450.165 264.76
L450.675 263.441
L450.802 265.354
L451.057 389.388
L451.185 264.694
L451.44 265.486
L451.568 264.76
L451.823 265.551
L451.95 389.388
L452.333 250.583
L452.588 389.388
L452.715 265.288
L452.971 264.43
L453.353 249.594
L453.481 264.101
L453.736 265.288
L453.863 264.101
L454.118 250.253
L454.246 264.76
L454.501 264.76
L454.629 264.101
L454.884 389.388
L454.884 389.388
L455.011 389.388
L455.266 264.101
L455.394 265.42
L455.776 265.947
L456.032 265.09
L456.159 265.09
L456.414 389.388
L456.542 265.815
L456.797 389.388
L456.924 264.43
L457.179 265.09
L457.307 265.09
L457.562 264.43
L457.69 266.475
L457.945 389.388
L458.072 266.738
L458.455 266.738
L458.71 266.079
L458.837 389.388
L459.093 266.738
L459.22 266.738
L459.475 266.079
L459.603 266.738
L459.858 389.388
L459.985 266.738
L460.24 262.782
L460.368 266.738
L460.623 389.388
L460.751 265.749
L461.006 389.388
L461.133 266.343
L461.388 266.475
L461.516 265.749
L461.771 265.09
L461.899 389.388
L462.154 266.541
L462.664 266.541
L462.919 389.388
L463.046 257.507
L463.301 266.541
L463.429 266.607
L463.684 256.847
L463.812 263.441
L464.194 266.079
L464.449 266.541
L464.577 265.42
L464.832 264.76
L464.96 266.079
L465.215 265.683
L465.342 389.388
L465.597 265.749
L465.597 265.749
L465.725 389.388
L465.98 264.101
L466.107 265.749
L466.363 266.343
L466.49 389.388
L466.745 264.76
L466.873 263.441
L467.128 265.354
L467.128 265.354
L467.256 265.42
L467.51 265.42
L467.893 389.388
L468.021 389.388
L468.276 265.42
L468.658 265.42
L468.786 264.76
L469.041 265.815
L469.168 389.388
L469.934 389.388
L470.189 264.43
L470.316 389.388
L470.571 389.388
L470.699 265.354
L470.954 389.388
L471.082 264.43
L471.337 389.388
L471.464 264.101
L471.719 389.388
L472.102 389.388
L472.229 265.486
L472.485 264.76
L472.612 265.486
L472.867 389.388
L473.377 389.388
L473.632 265.551
L473.76 265.09
L474.015 389.388
L474.398 389.388
L474.525 264.892
L474.78 264.694
L474.908 264.76
L475.163 389.388
L475.291 264.76
L475.546 389.388
L475.673 264.43
L475.928 264.101
L476.056 250.253
L476.311 264.101
L476.438 263.771
L476.693 265.551
L476.821 265.551
L477.076 264.101
L477.204 264.101
L477.459 389.388
L477.586 257.836
L477.841 264.76
L477.969 264.76
L478.224 265.486
L478.352 265.42
L478.607 265.42
L478.734 389.388
L479.117 389.388
L479.372 266.145
L479.755 261.133
L479.882 266.343
L480.137 389.388
L480.265 389.388
L480.52 265.749
L480.647 265.749
L480.902 264.892
L481.03 265.09
L481.285 265.749
L481.413 265.42
L481.668 265.42
L481.795 264.101
L482.05 264.76
L482.178 389.388
L482.433 264.76
L482.56 262.65
L482.816 265.42
L482.943 265.42
L483.581 261.133
L483.708 255.858
L483.963 257.507
L484.091 259.485
L484.346 258.1
L484.474 258.166
L484.729 257.507
L484.856 262.123
L485.239 265.749
L485.494 265.881
L485.877 263.441
L486.004 264.101
L486.259 264.76
L486.259 264.76
L486.387 248.934
L486.769 259.485
L487.024 259.485
L487.152 262.452
L487.535 262.782
L487.79 263.771
L487.917 263.771
L488.172 263.441
L488.3 264.628
L488.555 250.253
L488.938 264.101
L489.065 263.441
L489.32 261.463
L489.448 261.463
L489.703 262.123
L489.83 264.694
L490.085 264.101
L490.213 264.101
L490.468 264.76
L490.596 264.694
L490.851 266.409
L490.978 264.76
L491.361 261.727
L491.616 261.595
L491.744 261.661
L491.999 261.133
L492.126 261.133
L492.381 262.782
L492.509 261.793
L492.764 261.463
L492.891 262.782
L493.274 261.133
L493.657 257.177
L493.912 256.518
L494.04 257.771
L494.294 258.496
L494.422 258.496
L494.677 259.155
L494.805 258.496
L495.442 249.594
L495.952 260.144
L496.208 260.804
L496.335 259.881
L496.59 263.441
L496.718 262.123
L496.973 263.441
L497.1 260.144
L497.355 259.485
L497.738 264.101
L497.866 263.441
L498.121 263.771
L498.248 264.43
L498.503 263.771
L498.631 264.101
L498.886 262.782
L499.013 264.299
L499.269 265.486
L499.269 265.486
L499.396 265.486
L499.651 265.947
L499.779 389.388
L500.034 265.09
L500.161 260.804
L500.416 265.09
L500.544 389.388
L500.799 266.079
L500.927 266.079
L501.182 266.738
L501.309 266.079
L501.564 256.847
L501.692 263.771
L501.947 263.112
L502.075 264.958
L502.33 265.486
L502.457 265.486
L502.712 257.507
L502.84 259.419
L503.095 256.188
L503.222 232.12
L503.477 257.507
L503.605 258.034
L503.86 257.375
L503.988 257.441
L504.243 257.441
L504.37 259.485
L504.625 257.507
L504.881 265.09
L505.136 265.354
L505.391 264.101
L505.518 265.354
L505.773 263.441
L505.901 260.144
L506.156 265.354
L506.283 265.288
L506.539 265.354
L506.666 264.101
L506.921 263.441
L507.049 264.76
L507.304 264.101
L507.431 264.101
L507.686 265.354
L507.814 264.43
L508.069 265.881
L508.197 265.881
L508.452 265.09
L508.579 265.42
L508.834 265.42
L509.217 263.441
L509.344 265.42
L509.6 389.388
L509.727 265.947
L510.492 265.947
L510.875 263.441
L511.13 256.188
L511.513 257.441
L511.64 264.035
L512.023 265.947
L512.405 265.947
L512.661 264.76
L512.788 263.441
L513.043 263.112
L513.426 265.42
L513.553 261.463
L513.808 261.463
L513.936 263.441
L514.191 251.572
L514.319 260.144
L514.574 261.463
L514.956 265.749
L515.084 263.112
L515.339 265.024
L515.467 265.024
L516.104 261.133
L516.232 259.155
L516.487 265.024
L516.614 264.958
L516.997 259.155
L517.252 258.496
L517.762 265.09
L518.017 264.43
L518.4 237.725
L518.4 237.725" style="fill:none;stroke:#ff0000;stroke-linecap:square;"/>
   </g>
   <g id="line2d_2">
    <path clip-path="url(#pcb2bf987bf)" d="
M72 273.464
L72.2551 273.464
L72.3826 273.728
L73.0203 273.728
L73.1479 273.398
L73.7856 273.398
L73.9131 272.805
L74.5509 272.805
L74.6784 273.201
L75.3161 273.201
L75.4437 273.662
L76.0814 273.662
L76.2089 273.003
L76.8466 273.003
L76.9742 273.135
L77.6119 273.135
L77.9947 272.409
L79.1426 272.475
L79.2699 273.069
L79.9077 273.069
L80.0352 272.937
L80.6729 272.937
L80.8005 273.135
L81.4384 273.135
L81.5657 272.937
L82.2036 272.937
L82.331 273.464
L83.7339 273.53
L83.8615 273.662
L84.4992 273.662
L84.6267 273.992
L85.2647 273.992
L85.392 273.596
L86.0297 273.596
L86.1573 273.332
L86.795 273.332
L86.9225 273.794
L87.5602 273.794
L87.6878 273.53
L89.0907 273.596
L89.0907 273.596
L89.2183 273.135
L89.856 273.135
L89.9835 273.992
L90.6213 273.992
L91.259 273.398
L92.917 273.926
L93.5547 273.728
L94.4475 273.267
L95.2128 274.124
L95.9781 274.585
L96.6158 273.86
L97.381 273.332
L99.0391 272.937
L99.6768 272.937
L100.57 273.794
L101.207 273.398
L102.1 273.267
L102.738 273.794
L105.034 273.992
L105.799 273.464
L106.564 273.596
L108.86 273.596
L109.753 274.058
L111.156 274.519
L112.048 274.519
L114.217 274.651
L115.109 274.058
L116.64 274.322
L118.043 274.124
L118.171 274.124
L118.936 273.464
L119.573 273.069
L121.232 273.135
L121.869 273.464
L122.762 273.728
L123.4 273.662
L124.293 273.728
L124.93 273.926
L125.696 273.794
L126.461 273.267
L126.461 273.267
L127.354 273.332
L127.354 273.332
L127.991 273.728
L128.884 273.53
L129.522 274.388
L130.415 273.992
L131.052 274.256
L131.818 273.794
L132.583 273.86
L132.583 273.86
L134.113 273.86
L134.369 273.992
L134.879 273.992
L135.644 273.596
L136.537 272.805
L138.705 273.069
L139.598 273.662
L140.235 273.201
L141.893 273.53
L142.531 273.464
L143.296 273.926
L144.189 274.256
L144.827 273.596
L145.72 273.596
L146.485 273.86
L147.25 273.201
L147.888 273.464
L148.653 273.596
L149.546 273.596
L150.184 273.926
L151.077 273.992
L151.714 273.662
L152.48 273.398
L154.01 273.398
L154.775 272.475
L155.541 271.882
L155.541 271.882
L156.306 272.409
L157.071 272.146
L157.964 272.146
L158.602 272.673
L159.367 272.409
L161.025 272.607
L162.428 272.08
L163.321 272.541
L164.086 272.409
L164.851 272.739
L165.489 272.937
L166.254 272.673
L168.55 273.201
L169.443 273.069
L170.08 272.673
L170.973 273.267
L171.611 272.937
L173.141 272.014
L173.269 272.014
L174.8 271.486
L177.095 271.948
L177.733 271.816
L178.498 271.882
L179.264 271.75
L180.156 272.146
L181.559 271.156
L182.452 271.75
L183.09 271.486
L184.62 271.882
L185.386 271.75
L186.151 272.277
L186.916 272.146
L188.447 272.08
L189.339 272.343
L190.742 271.552
L191.508 271.948
L193.038 271.288
L193.803 271.156
L194.569 271.42
L196.099 270.629
L196.864 270.695
L198.395 271.156
L198.395 271.156
L199.16 271.75
L201.456 271.354
L202.221 271.486
L203.879 271.552
L204.517 271.684
L205.41 271.684
L206.175 271.816
L206.303 271.42
L207.578 271.42
L208.088 270.959
L208.343 270.959
L208.981 271.288
L209.236 271.288
L209.236 271.288
L209.746 271.156
L210.001 271.156
L211.022 270.827
L211.532 270.827
L211.659 271.354
L212.297 271.354
L212.425 270.893
L213.062 270.893
L213.573 271.156
L213.828 271.156
L213.828 271.156
L213.955 271.025
L216.761 271.09
L216.761 271.09
L217.016 270.695
L217.654 270.695
L217.654 270.695
L217.781 270.959
L218.419 270.959
L218.419 270.959
L218.547 270.695
L219.184 270.695
L219.312 271.09
L219.95 271.09
L220.077 270.233
L220.715 270.233
L220.843 270.893
L220.843 270.893
L223.011 270.959
L223.011 270.959
L223.521 271.09
L223.776 271.09
L223.904 270.827
L225.307 270.761
L225.434 270.563
L226.072 270.563
L226.072 270.563
L226.199 270.233
L226.199 270.233
L226.837 270.233
L226.965 270.629
L228.368 270.563
L228.495 270.233
L229.133 270.233
L229.26 269.97
L229.898 269.97
L230.026 269.838
L230.663 269.838
L230.663 269.838
L231.173 269.97
L231.429 269.97
L231.429 269.97
L231.556 269.706
L232.194 269.706
L232.321 269.904
L232.959 269.904
L232.959 269.904
L233.087 270.035
L233.724 270.035
L233.852 269.838
L236.02 269.772
L236.02 269.772
L236.148 270.035
L236.785 270.035
L236.913 270.167
L237.551 270.167
L237.678 270.431
L239.081 270.431
L239.209 270.629
L241.377 270.695
L241.504 270.497
L242.142 270.497
L242.27 270.299
L242.907 270.299
L243.035 270.629
L243.673 270.629
L243.8 270.365
L244.438 270.365
L244.565 269.97
L245.203 269.97
L245.203 269.97
L245.331 269.706
L246.734 269.706
L246.734 269.706
L246.861 270.233
L247.499 270.233
L248.392 269.97
L250.56 269.97
L250.688 269.838
L251.325 269.838
L251.453 270.101
L252.091 270.101
L252.218 270.233
L252.856 270.233
L252.983 270.563
L253.621 270.563
L253.749 270.233
L255.152 270.167
L255.279 270.101
L255.279 270.101
L255.917 270.101
L255.917 270.101
L256.044 270.233
L257.447 270.167
L257.575 270.035
L258.978 270.101
L259.105 270.233
L259.743 270.233
L259.743 270.233
L259.871 270.431
L262.039 270.365
L262.166 270.299
L262.804 270.299
L262.932 269.97
L263.569 269.97
L263.569 269.97
L263.697 269.574
L264.335 269.574
L264.335 269.574
L264.462 269.244
L265.1 269.244
L265.1 269.244
L265.227 269.508
L265.738 269.508
L265.993 269.31
L267.396 269.31
L267.523 269.442
L268.926 269.508
L269.054 269.244
L269.691 269.244
L269.819 269.442
L271.222 269.442
L271.605 269.112
L271.987 269.112
L272.115 269.244
L272.752 269.244
L272.88 269.046
L273.518 269.046
L273.518 269.046
L273.645 269.244
L274.283 269.244
L274.411 269.376
L275.813 269.31
L275.941 269.508
L276.579 269.508
L276.706 269.376
L278.109 269.376
L278.109 269.376
L278.237 269.574
L278.875 269.574
L279.002 269.904
L279.64 269.904
L279.767 270.299
L280.405 270.299
L280.405 270.299
L280.533 270.035
L281.17 270.035
L281.17 270.035
L281.298 270.365
L281.936 270.365
L282.446 270.167
L282.701 270.167
L282.828 269.904
L283.466 269.904
L283.594 269.442
L284.231 269.442
L284.359 269.574
L285.762 269.508
L285.889 269.244
L287.292 269.244
L287.42 269.112
L288.058 269.112
L288.185 269.376
L288.823 269.376
L288.95 269.706
L291.884 269.64
L292.394 269.442
L294.945 269.376
L294.945 269.376
L295.072 269.772
L295.71 269.772
L295.838 269.904
L296.475 269.904
L296.603 269.772
L297.241 269.772
L297.368 270.101
L298.006 270.101
L298.133 270.365
L298.771 270.365
L298.899 270.167
L299.536 270.167
L299.664 269.838
L301.067 269.772
L301.195 269.31
L302.597 269.376
L302.597 269.376
L303.108 268.914
L303.235 268.914
L303.49 269.178
L304.128 269.178
L304.128 269.178
L304.256 268.98
L307.189 269.046
L307.189 269.046
L307.317 269.178
L310.25 269.178
L310.25 269.178
L310.378 269.376
L311.015 269.376
L311.143 269.244
L312.546 269.244
L312.673 269.112
L314.076 269.178
L314.204 269.376
L315.607 269.31
L315.734 269.112
L317.137 269.046
L317.265 268.849
L318.668 268.783
L318.668 268.783
L318.795 268.717
L320.198 268.651
L320.326 268.849
L320.964 268.849
L320.964 268.849
L321.474 268.717
L324.79 268.717
L324.917 268.519
L326.32 268.519
L326.448 268.98
L327.086 268.98
L327.213 269.178
L328.616 269.178
L328.744 269.64
L330.147 269.706
L330.274 269.442
L331.677 269.508
L331.805 269.706
L332.443 269.706
L332.57 269.97
L333.208 269.97
L333.335 269.508
L333.973 269.508
L334.101 269.97
L334.738 269.97
L334.866 269.508
L335.504 269.508
L335.631 269.772
L336.269 269.772
L336.396 269.31
L339.33 269.244
L339.457 268.717
L339.968 268.717
L340.223 268.914
L340.605 268.914
L340.988 269.046
L342.391 269.112
L342.518 269.178
L344.687 269.244
L344.814 269.508
L345.452 269.508
L345.452 269.508
L345.579 269.706
L347.748 269.706
L347.875 270.035
L348.513 270.035
L348.64 269.904
L349.278 269.904
L349.406 269.64
L352.339 269.64
L352.467 269.904
L353.104 269.904
L353.232 269.574
L353.87 269.574
L353.87 269.574
L354.38 270.101
L354.635 270.101
L354.763 269.508
L355.4 269.508
L355.4 269.508
L355.528 269.376
L356.165 269.376
L356.165 269.376
L356.293 269.508
L356.931 269.508
L357.058 269.31
L357.568 269.31
L357.824 269.178
L359.992 269.244
L360.119 269.046
L360.757 269.046
L360.885 269.178
L362.288 269.178
L362.415 269.508
L363.053 269.508
L363.18 269.31
L363.818 269.31
L363.946 269.178
L364.583 269.178
L364.711 268.98
L365.349 268.98
L365.476 269.112
L366.879 269.112
L367.007 269.244
L367.644 269.244
L367.772 269.112
L369.175 269.178
L369.685 269.508
L369.94 269.508
L370.068 269.772
L372.236 269.772
L372.363 269.904
L373.766 269.904
L373.766 269.904
L373.894 269.376
L375.297 269.376
L375.424 269.178
L376.827 269.112
L376.955 268.98
L377.593 268.98
L377.593 268.98
L377.848 268.783
L379.123 268.849
L379.251 268.914
L382.184 268.98
L382.312 269.178
L382.949 269.178
L383.077 268.849
L383.715 268.849
L384.225 269.178
L384.48 269.178
L384.608 268.98
L386.011 268.98
L386.138 269.574
L386.776 269.574
L386.903 269.442
L387.541 269.442
L387.669 269.706
L388.306 269.706
L388.306 269.706
L388.434 343.295
L389.072 343.295
L389.199 268.98
L389.837 268.98
L389.964 268.387
L390.602 268.387
L390.73 268.651
L391.367 268.651
L391.495 268.453
L392.133 268.453
L392.26 268.321
L392.898 268.321
L393.025 268.453
L393.663 268.453
L393.791 268.849
L394.173 268.849
L394.173 268.849
L394.556 268.585
L397.489 268.651
L397.617 268.453
L399.02 268.519
L399.147 269.376
L399.785 269.376
L399.913 269.772
L400.55 269.772
L400.678 269.508
L401.316 269.508
L401.443 269.64
L402.846 269.706
L402.974 269.904
L403.611 269.904
L403.739 269.64
L404.377 269.64
L404.504 269.838
L405.142 269.838
L405.269 269.97
L405.907 269.97
L406.035 269.838
L407.438 269.838
L407.565 270.035
L408.968 269.97
L409.096 270.167
L409.733 270.167
L409.861 269.772
L410.499 269.772
L410.626 269.244
L411.264 269.244
L411.392 268.717
L412.029 268.717
L412.157 269.376
L412.667 269.376
L413.05 268.98
L413.56 268.98
L413.687 269.178
L414.325 269.178
L414.453 269.442
L416.621 269.442
L416.748 269.31
L417.386 269.31
L417.514 269.706
L418.151 269.706
L418.279 269.574
L418.917 269.574
L419.044 270.233
L419.682 270.233
L419.809 269.97
L421.212 270.035
L421.34 270.299
L421.978 270.299
L422.105 270.101
L422.743 270.101
L422.87 270.365
L423.508 270.365
L423.636 270.827
L424.273 270.827
L424.401 270.695
L425.039 270.695
L425.166 270.959
L425.804 270.959
L425.931 270.695
L426.569 270.695
L426.697 270.431
L427.334 270.431
L427.462 270.233
L428.1 270.233
L428.227 270.365
L428.865 270.365
L428.992 270.167
L429.63 270.167
L429.758 270.695
L430.395 270.695
L430.524 270.431
L431.033 270.431
L431.288 270.035
L431.926 270.035
L432.053 270.233
L433.456 270.167
L433.584 270.101
L434.222 270.101
L434.349 270.497
L438.048 270.563
L438.176 270.761
L438.813 270.761
L438.941 270.299
L439.579 270.299
L439.706 270.761
L441.109 270.695
L441.237 270.365
L441.874 270.365
L441.874 270.365
L442.002 270.695
L442.64 270.695
L442.767 270.959
L444.935 270.959
L445.063 271.552
L445.701 271.552
L446.211 271.156
L446.466 271.156
L446.593 271.025
L447.231 271.025
L447.359 271.288
L447.996 271.288
L448.124 271.42
L448.762 271.42
L448.889 271.288
L451.057 271.222
L451.185 271.42
L451.823 271.42
L451.95 271.156
L452.588 271.156
L452.715 271.486
L453.353 271.486
L453.481 271.025
L454.884 271.09
L454.884 271.09
L455.011 271.816
L455.649 271.816
L455.776 271.684
L456.414 271.684
L456.542 272.146
L457.179 272.146
L457.307 272.277
L457.945 272.277
L458.072 272.541
L460.24 272.541
L460.368 272.146
L461.006 272.146
L461.133 272.277
L462.536 272.343
L462.664 272.409
L464.067 272.343
L464.194 272.541
L464.832 272.541
L464.96 272.08
L466.363 272.146
L466.49 271.816
L468.658 271.882
L468.786 271.684
L469.424 271.684
L469.551 271.42
L470.189 271.42
L470.316 271.222
L470.954 271.222
L471.082 271.354
L472.485 271.354
L472.612 271.09
L473.25 271.09
L473.377 271.42
L474.78 271.486
L474.908 271.09
L475.546 271.09
L475.673 271.42
L476.311 271.42
L476.438 271.222
L477.076 271.222
L477.204 271.42
L478.607 271.42
L478.734 272.014
L479.372 272.014
L479.499 272.146
L480.137 272.146
L480.265 272.277
L480.902 272.277
L481.03 271.948
L481.668 271.948
L481.795 272.211
L482.433 272.211
L482.56 271.75
L483.198 271.75
L483.326 272.146
L483.963 272.146
L484.091 271.552
L484.729 271.552
L484.856 270.563
L485.494 270.563
L485.877 271.354
L486.259 271.354
L486.259 271.354
L486.387 270.959
L487.024 270.959
L487.152 270.629
L490.085 270.629
L490.213 271.222
L490.851 271.222
L490.978 271.882
L491.616 271.882
L491.744 271.354
L492.381 271.354
L492.509 271.222
L493.147 271.222
L493.274 270.959
L493.912 270.959
L494.04 270.761
L494.677 270.761
L494.805 270.959
L495.442 270.959
L495.57 270.299
L496.208 270.299
L496.335 271.618
L496.973 271.618
L497.1 271.816
L497.738 271.816
L497.866 271.684
L498.503 271.684
L498.631 272.211
L500.034 272.211
L500.161 272.541
L501.564 272.475
L501.692 271.354
L502.33 271.354
L502.457 271.75
L503.095 271.75
L503.222 270.827
L503.86 270.827
L503.988 270.959
L504.625 270.959
L504.753 271.222
L505.391 271.222
L505.518 271.354
L506.921 271.354
L507.049 271.222
L507.686 271.222
L507.814 271.552
L508.452 271.552
L508.579 271.948
L509.982 271.882
L510.492 272.343
L510.747 272.343
L510.875 272.211
L511.513 272.211
L511.64 271.618
L512.278 271.618
L512.405 271.948
L513.043 271.948
L513.171 271.75
L513.808 271.75
L513.936 271.42
L515.339 271.42
L515.467 272.211
L516.104 272.211
L516.232 271.42
L517.635 271.354
L517.762 271.552
L518.4 271.552
L518.4 271.552" style="fill:none;stroke:#008000;stroke-linecap:square;"/>
   </g>
   <g id="patch_3">
    <path d="
M72 43.2
L518.4 43.2" style="fill:none;stroke:#000000;stroke-linecap:square;stroke-linejoin:miter;"/>
   </g>
   <g id="patch_4">
    <path d="
M518.4 345.6
L518.4 43.2" style="fill:none;stroke:#000000;stroke-linecap:square;stroke-linejoin:miter;"/>
   </g>
   <g id="patch_5">
    <path d="
M72 345.6
L518.4 345.6" style="fill:none;stroke:#000000;stroke-linecap:square;stroke-linejoin:miter;"/>
   </g>
   <g id="patch_6">
    <path d="
M72 345.6
L72 43.2" style="fill:none;stroke:#000000;stroke-linecap:square;stroke-linejoin:miter;"/>
   </g>
   <g id="matplotlib.axis_1">
    <g id="xtick_1">
     <g id="line2d_3">
      <defs>
       <path d="
M0 0
L0 -4" id="m93b0483c22" style="stroke:#000000;stroke-width:0.5;"/>
      </defs>
      <g>
       <use style="stroke:#000000;stroke-width:0.5;" x="118.170301715" xlink:href="#m93b0483c22" y="345.6"/>
      </g>
     </g>
     <g id="line2d_4">
      <defs>
       <path d="
M0 0
L0 4" id="m741efc42ff" style="stroke:#000000;stroke-width:0.5;"/>
      </defs>
      <g>
       <use style="stroke:#000000;stroke-width:0.5;" x="118.170301715" xlink:href="#m741efc42ff" y="43.2"/>
      </g>
     </g>
     <g id="text_1">
      <!-- Oct 13 2015 -->
      <defs>
       <path d="
M19.1875 8.29688
L53.6094 8.29688
L53.6094 0
L7.32812 0
L7.32812 8.29688
Q12.9375 14.1094 22.625 23.8906
Q32.3281 33.6875 34.8125 36.5312
Q39.5469 41.8438 41.4219 45.5312
Q43.3125 49.2188 43.3125 52.7812
Q43.3125 58.5938 39.2344 62.25
Q35.1562 65.9219 28.6094 65.9219
Q23.9688 65.9219 18.8125 64.3125
Q13.6719 62.7031 7.8125 59.4219
L7.8125 69.3906
Q13.7656 71.7812 18.9375 73
Q24.125 74.2188 28.4219 74.2188
Q39.75 74.2188 46.4844 68.5469
Q53.2188 62.8906 53.2188 53.4219
Q53.2188 48.9219 51.5312 44.8906
Q49.8594 40.875 45.4062 35.4062
Q44.1875 33.9844 37.6406 27.2188
Q31.1094 20.4531 19.1875 8.29688" id="BitstreamVeraSans-Roman-32"/>
       <path d="
M39.4062 66.2188
Q28.6562 66.2188 22.3281 58.2031
Q16.0156 50.2031 16.0156 36.375
Q16.0156 22.6094 22.3281 14.5938
Q28.6562 6.59375 39.4062 6.59375
Q50.1406 6.59375 56.4219 14.5938
Q62.7031 22.6094 62.7031 36.375
Q62.7031 50.2031 56.4219 58.2031
Q50.1406 66.2188 39.4062 66.2188
M39.4062 74.2188
Q54.7344 74.2188 63.9062 63.9375
Q73.0938 53.6562 73.0938 36.375
Q73.0938 19.1406 63.9062 8.85938
Q54.7344 -1.42188 39.4062 -1.42188
Q24.0312 -1.42188 14.8125 8.82812
Q5.60938 19.0938 5.60938 36.375
Q5.60938 53.6562 14.8125 63.9375
Q24.0312 74.2188 39.4062 74.2188" id="BitstreamVeraSans-Roman-4f"/>
       <path d="
M31.7812 66.4062
Q24.1719 66.4062 20.3281 58.9062
Q16.5 51.4219 16.5 36.375
Q16.5 21.3906 20.3281 13.8906
Q24.1719 6.39062 31.7812 6.39062
Q39.4531 6.39062 43.2812 13.8906
Q47.125 21.3906 47.125 36.375
Q47.125 51.4219 43.2812 58.9062
Q39.4531 66.4062 31.7812 66.4062
M31.7812 74.2188
Q44.0469 74.2188 50.5156 64.5156
Q56.9844 54.8281 56.9844 36.375
Q56.9844 17.9688 50.5156 8.26562
Q44.0469 -1.42188 31.7812 -1.42188
Q19.5312 -1.42188 13.0625 8.26562
Q6.59375 17.9688 6.59375 36.375
Q6.59375 54.8281 13.0625 64.5156
Q19.5312 74.2188 31.7812 74.2188" id="BitstreamVeraSans-Roman-30"/>
       <path d="
M12.4062 8.29688
L28.5156 8.29688
L28.5156 63.9219
L10.9844 60.4062
L10.9844 69.3906
L28.4219 72.9062
L38.2812 72.9062
L38.2812 8.29688
L54.3906 8.29688
L54.3906 0
L12.4062 0
z
" id="BitstreamVeraSans-Roman-31"/>
       <path d="
M40.5781 39.3125
Q47.6562 37.7969 51.625 33
Q55.6094 28.2188 55.6094 21.1875
Q55.6094 10.4062 48.1875 4.48438
Q40.7656 -1.42188 27.0938 -1.42188
Q22.5156 -1.42188 17.6562 -0.515625
Q12.7969 0.390625 7.625 2.20312
L7.625 11.7188
Q11.7188 9.32812 16.5938 8.10938
Q21.4844 6.89062 26.8125 6.89062
Q36.0781 6.89062 40.9375 10.5469
Q45.7969 14.2031 45.7969 21.1875
Q45.7969 27.6406 41.2812 31.2656
Q36.7656 34.9062 28.7188 34.9062
L20.2188 34.9062
L20.2188 43.0156
L29.1094 43.0156
Q36.375 43.0156 40.2344 45.9219
Q44.0938 48.8281 44.0938 54.2969
Q44.0938 59.9062 40.1094 62.9062
Q36.1406 65.9219 28.7188 65.9219
Q24.6562 65.9219 20.0156 65.0312
Q15.375 64.1562 9.8125 62.3125
L9.8125 71.0938
Q15.4375 72.6562 20.3438 73.4375
Q25.25 74.2188 29.5938 74.2188
Q40.8281 74.2188 47.3594 69.1094
Q53.9062 64.0156 53.9062 55.3281
Q53.9062 49.2656 50.4375 45.0938
Q46.9688 40.9219 40.5781 39.3125" id="BitstreamVeraSans-Roman-33"/>
       <path id="BitstreamVeraSans-Roman-20"/>
       <path d="
M10.7969 72.9062
L49.5156 72.9062
L49.5156 64.5938
L19.8281 64.5938
L19.8281 46.7344
Q21.9688 47.4688 24.1094 47.8281
Q26.2656 48.1875 28.4219 48.1875
Q40.625 48.1875 47.75 41.5
Q54.8906 34.8125 54.8906 23.3906
Q54.8906 11.625 47.5625 5.09375
Q40.2344 -1.42188 26.9062 -1.42188
Q22.3125 -1.42188 17.5469 -0.640625
Q12.7969 0.140625 7.71875 1.70312
L7.71875 11.625
Q12.1094 9.23438 16.7969 8.0625
Q21.4844 6.89062 26.7031 6.89062
Q35.1562 6.89062 40.0781 11.3281
Q45.0156 15.7656 45.0156 23.3906
Q45.0156 31 40.0781 35.4375
Q35.1562 39.8906 26.7031 39.8906
Q22.75 39.8906 18.8125 39.0156
Q14.8906 38.1406 10.7969 36.2812
z
" id="BitstreamVeraSans-Roman-35"/>
       <path d="
M18.3125 70.2188
L18.3125 54.6875
L36.8125 54.6875
L36.8125 47.7031
L18.3125 47.7031
L18.3125 18.0156
Q18.3125 11.3281 20.1406 9.42188
Q21.9688 7.51562 27.5938 7.51562
L36.8125 7.51562
L36.8125 0
L27.5938 0
Q17.1875 0 13.2344 3.875
Q9.28125 7.76562 9.28125 18.0156
L9.28125 47.7031
L2.6875 47.7031
L2.6875 54.6875
L9.28125 54.6875
L9.28125 70.2188
z
" id="BitstreamVeraSans-Roman-74"/>
       <path d="
M48.7812 52.5938
L48.7812 44.1875
Q44.9688 46.2969 41.1406 47.3438
Q37.3125 48.3906 33.4062 48.3906
Q24.6562 48.3906 19.8125 42.8438
Q14.9844 37.3125 14.9844 27.2969
Q14.9844 17.2812 19.8125 11.7344
Q24.6562 6.20312 33.4062 6.20312
Q37.3125 6.20312 41.1406 7.25
Q44.9688 8.29688 48.7812 10.4062
L48.7812 2.09375
Q45.0156 0.34375 40.9844 -0.53125
Q36.9688 -1.42188 32.4219 -1.42188
Q20.0625 -1.42188 12.7812 6.34375
Q5.51562 14.1094 5.51562 27.2969
Q5.51562 40.6719 12.8594 48.3281
Q20.2188 56 33.0156 56
Q37.1562 56 41.1094 55.1406
Q45.0625 54.2969 48.7812 52.5938" id="BitstreamVeraSans-Roman-63"/>
      </defs>
      <g transform="translate(53.5830149798 394.065590385)rotate(-30.0)scale(0.12 -0.12)">
       <use xlink:href="#BitstreamVeraSans-Roman-4f"/>
       <use x="78.7109375" xlink:href="#BitstreamVeraSans-Roman-63"/>
       <use x="133.69140625" xlink:href="#BitstreamVeraSans-Roman-74"/>
       <use x="172.900390625" xlink:href="#BitstreamVeraSans-Roman-20"/>
       <use x="204.6875" xlink:href="#BitstreamVeraSans-Roman-31"/>
       <use x="268.310546875" xlink:href="#BitstreamVeraSans-Roman-33"/>
       <use x="331.93359375" xlink:href="#BitstreamVeraSans-Roman-20"/>
       <use x="363.720703125" xlink:href="#BitstreamVeraSans-Roman-32"/>
       <use x="427.34375" xlink:href="#BitstreamVeraSans-Roman-30"/>
       <use x="490.966796875" xlink:href="#BitstreamVeraSans-Roman-31"/>
       <use x="554.58984375" xlink:href="#BitstreamVeraSans-Roman-35"/>
      </g>
     </g>
    </g>
    <g id="xtick_2">
     <g id="line2d_5">
      <g>
       <use style="stroke:#000000;stroke-width:0.5;" x="173.268816" xlink:href="#m93b0483c22" y="345.6"/>
      </g>
     </g>
     <g id="line2d_6">
      <g>
       <use style="stroke:#000000;stroke-width:0.5;" x="173.268816" xlink:href="#m741efc42ff" y="43.2"/>
      </g>
     </g>
     <g id="text_2">
      <!-- Oct 16 2015 -->
      <defs>
       <path d="
M33.0156 40.375
Q26.375 40.375 22.4844 35.8281
Q18.6094 31.2969 18.6094 23.3906
Q18.6094 15.5312 22.4844 10.9531
Q26.375 6.39062 33.0156 6.39062
Q39.6562 6.39062 43.5312 10.9531
Q47.4062 15.5312 47.4062 23.3906
Q47.4062 31.2969 43.5312 35.8281
Q39.6562 40.375 33.0156 40.375
M52.5938 71.2969
L52.5938 62.3125
Q48.875 64.0625 45.0938 64.9844
Q41.3125 65.9219 37.5938 65.9219
Q27.8281 65.9219 22.6719 59.3281
Q17.5312 52.7344 16.7969 39.4062
Q19.6719 43.6562 24.0156 45.9219
Q28.375 48.1875 33.5938 48.1875
Q44.5781 48.1875 50.9531 41.5156
Q57.3281 34.8594 57.3281 23.3906
Q57.3281 12.1562 50.6875 5.35938
Q44.0469 -1.42188 33.0156 -1.42188
Q20.3594 -1.42188 13.6719 8.26562
Q6.98438 17.9688 6.98438 36.375
Q6.98438 53.6562 15.1875 63.9375
Q23.3906 74.2188 37.2031 74.2188
Q40.9219 74.2188 44.7031 73.4844
Q48.4844 72.75 52.5938 71.2969" id="BitstreamVeraSans-Roman-36"/>
      </defs>
      <g transform="translate(108.681529265 394.065590385)rotate(-30.0)scale(0.12 -0.12)">
       <use xlink:href="#BitstreamVeraSans-Roman-4f"/>
       <use x="78.7109375" xlink:href="#BitstreamVeraSans-Roman-63"/>
       <use x="133.69140625" xlink:href="#BitstreamVeraSans-Roman-74"/>
       <use x="172.900390625" xlink:href="#BitstreamVeraSans-Roman-20"/>
       <use x="204.6875" xlink:href="#BitstreamVeraSans-Roman-31"/>
       <use x="268.310546875" xlink:href="#BitstreamVeraSans-Roman-36"/>
       <use x="331.93359375" xlink:href="#BitstreamVeraSans-Roman-20"/>
       <use x="363.720703125" xlink:href="#BitstreamVeraSans-Roman-32"/>
       <use x="427.34375" xlink:href="#BitstreamVeraSans-Roman-30"/>
       <use x="490.966796875" xlink:href="#BitstreamVeraSans-Roman-31"/>
       <use x="554.58984375" xlink:href="#BitstreamVeraSans-Roman-35"/>
      </g>
     </g>
    </g>
    <g id="xtick_3">
     <g id="line2d_7">
      <g>
       <use style="stroke:#000000;stroke-width:0.5;" x="228.367330285" xlink:href="#m93b0483c22" y="345.6"/>
      </g>
     </g>
     <g id="line2d_8">
      <g>
       <use style="stroke:#000000;stroke-width:0.5;" x="228.367330285" xlink:href="#m741efc42ff" y="43.2"/>
      </g>
     </g>
     <g id="text_3">
      <!-- Oct 19 2015 -->
      <defs>
       <path d="
M10.9844 1.51562
L10.9844 10.5
Q14.7031 8.73438 18.5 7.8125
Q22.3125 6.89062 25.9844 6.89062
Q35.75 6.89062 40.8906 13.4531
Q46.0469 20.0156 46.7812 33.4062
Q43.9531 29.2031 39.5938 26.9531
Q35.25 24.7031 29.9844 24.7031
Q19.0469 24.7031 12.6719 31.3125
Q6.29688 37.9375 6.29688 49.4219
Q6.29688 60.6406 12.9375 67.4219
Q19.5781 74.2188 30.6094 74.2188
Q43.2656 74.2188 49.9219 64.5156
Q56.5938 54.8281 56.5938 36.375
Q56.5938 19.1406 48.4062 8.85938
Q40.2344 -1.42188 26.4219 -1.42188
Q22.7031 -1.42188 18.8906 -0.6875
Q15.0938 0.046875 10.9844 1.51562
M30.6094 32.4219
Q37.25 32.4219 41.125 36.9531
Q45.0156 41.5 45.0156 49.4219
Q45.0156 57.2812 41.125 61.8438
Q37.25 66.4062 30.6094 66.4062
Q23.9688 66.4062 20.0938 61.8438
Q16.2188 57.2812 16.2188 49.4219
Q16.2188 41.5 20.0938 36.9531
Q23.9688 32.4219 30.6094 32.4219" id="BitstreamVeraSans-Roman-39"/>
      </defs>
      <g transform="translate(163.78004355 394.065590385)rotate(-30.0)scale(0.12 -0.12)">
       <use xlink:href="#BitstreamVeraSans-Roman-4f"/>
       <use x="78.7109375" xlink:href="#BitstreamVeraSans-Roman-63"/>
       <use x="133.69140625" xlink:href="#BitstreamVeraSans-Roman-74"/>
       <use x="172.900390625" xlink:href="#BitstreamVeraSans-Roman-20"/>
       <use x="204.6875" xlink:href="#BitstreamVeraSans-Roman-31"/>
       <use x="268.310546875" xlink:href="#BitstreamVeraSans-Roman-39"/>
       <use x="331.93359375" xlink:href="#BitstreamVeraSans-Roman-20"/>
       <use x="363.720703125" xlink:href="#BitstreamVeraSans-Roman-32"/>
       <use x="427.34375" xlink:href="#BitstreamVeraSans-Roman-30"/>
       <use x="490.966796875" xlink:href="#BitstreamVeraSans-Roman-31"/>
       <use x="554.58984375" xlink:href="#BitstreamVeraSans-Roman-35"/>
      </g>
     </g>
    </g>
    <g id="xtick_4">
     <g id="line2d_9">
      <g>
       <use style="stroke:#000000;stroke-width:0.5;" x="283.465844572" xlink:href="#m93b0483c22" y="345.6"/>
      </g>
     </g>
     <g id="line2d_10">
      <g>
       <use style="stroke:#000000;stroke-width:0.5;" x="283.465844572" xlink:href="#m741efc42ff" y="43.2"/>
      </g>
     </g>
     <g id="text_4">
      <!-- Oct 22 2015 -->
      <g transform="translate(218.878557836 394.065590385)rotate(-30.0)scale(0.12 -0.12)">
       <use xlink:href="#BitstreamVeraSans-Roman-4f"/>
       <use x="78.7109375" xlink:href="#BitstreamVeraSans-Roman-63"/>
       <use x="133.69140625" xlink:href="#BitstreamVeraSans-Roman-74"/>
       <use x="172.900390625" xlink:href="#BitstreamVeraSans-Roman-20"/>
       <use x="204.6875" xlink:href="#BitstreamVeraSans-Roman-32"/>
       <use x="268.310546875" xlink:href="#BitstreamVeraSans-Roman-32"/>
       <use x="331.93359375" xlink:href="#BitstreamVeraSans-Roman-20"/>
       <use x="363.720703125" xlink:href="#BitstreamVeraSans-Roman-32"/>
       <use x="427.34375" xlink:href="#BitstreamVeraSans-Roman-30"/>
       <use x="490.966796875" xlink:href="#BitstreamVeraSans-Roman-31"/>
       <use x="554.58984375" xlink:href="#BitstreamVeraSans-Roman-35"/>
      </g>
     </g>
    </g>
    <g id="xtick_5">
     <g id="line2d_11">
      <g>
       <use style="stroke:#000000;stroke-width:0.5;" x="338.564358857" xlink:href="#m93b0483c22" y="345.6"/>
      </g>
     </g>
     <g id="line2d_12">
      <g>
       <use style="stroke:#000000;stroke-width:0.5;" x="338.564358857" xlink:href="#m741efc42ff" y="43.2"/>
      </g>
     </g>
     <g id="text_5">
      <!-- Oct 25 2015 -->
      <g transform="translate(273.977072121 394.065590385)rotate(-30.0)scale(0.12 -0.12)">
       <use xlink:href="#BitstreamVeraSans-Roman-4f"/>
       <use x="78.7109375" xlink:href="#BitstreamVeraSans-Roman-63"/>
       <use x="133.69140625" xlink:href="#BitstreamVeraSans-Roman-74"/>
       <use x="172.900390625" xlink:href="#BitstreamVeraSans-Roman-20"/>
       <use x="204.6875" xlink:href="#BitstreamVeraSans-Roman-32"/>
       <use x="268.310546875" xlink:href="#BitstreamVeraSans-Roman-35"/>
       <use x="331.93359375" xlink:href="#BitstreamVeraSans-Roman-20"/>
       <use x="363.720703125" xlink:href="#BitstreamVeraSans-Roman-32"/>
       <use x="427.34375" xlink:href="#BitstreamVeraSans-Roman-30"/>
       <use x="490.966796875" xlink:href="#BitstreamVeraSans-Roman-31"/>
       <use x="554.58984375" xlink:href="#BitstreamVeraSans-Roman-35"/>
      </g>
     </g>
    </g>
    <g id="xtick_6">
     <g id="line2d_13">
      <g>
       <use style="stroke:#000000;stroke-width:0.5;" x="393.662873141" xlink:href="#m93b0483c22" y="345.6"/>
      </g>
     </g>
     <g id="line2d_14">
      <g>
       <use style="stroke:#000000;stroke-width:0.5;" x="393.662873141" xlink:href="#m741efc42ff" y="43.2"/>
      </g>
     </g>
     <g id="text_6">
      <!-- Oct 28 2015 -->
      <defs>
       <path d="
M31.7812 34.625
Q24.75 34.625 20.7188 30.8594
Q16.7031 27.0938 16.7031 20.5156
Q16.7031 13.9219 20.7188 10.1562
Q24.75 6.39062 31.7812 6.39062
Q38.8125 6.39062 42.8594 10.1719
Q46.9219 13.9688 46.9219 20.5156
Q46.9219 27.0938 42.8906 30.8594
Q38.875 34.625 31.7812 34.625
M21.9219 38.8125
Q15.5781 40.375 12.0312 44.7188
Q8.5 49.0781 8.5 55.3281
Q8.5 64.0625 14.7188 69.1406
Q20.9531 74.2188 31.7812 74.2188
Q42.6719 74.2188 48.875 69.1406
Q55.0781 64.0625 55.0781 55.3281
Q55.0781 49.0781 51.5312 44.7188
Q48 40.375 41.7031 38.8125
Q48.8281 37.1562 52.7969 32.3125
Q56.7812 27.4844 56.7812 20.5156
Q56.7812 9.90625 50.3125 4.23438
Q43.8438 -1.42188 31.7812 -1.42188
Q19.7344 -1.42188 13.25 4.23438
Q6.78125 9.90625 6.78125 20.5156
Q6.78125 27.4844 10.7812 32.3125
Q14.7969 37.1562 21.9219 38.8125
M18.3125 54.3906
Q18.3125 48.7344 21.8438 45.5625
Q25.3906 42.3906 31.7812 42.3906
Q38.1406 42.3906 41.7188 45.5625
Q45.3125 48.7344 45.3125 54.3906
Q45.3125 60.0625 41.7188 63.2344
Q38.1406 66.4062 31.7812 66.4062
Q25.3906 66.4062 21.8438 63.2344
Q18.3125 60.0625 18.3125 54.3906" id="BitstreamVeraSans-Roman-38"/>
      </defs>
      <g transform="translate(329.075586406 394.065590385)rotate(-30.0)scale(0.12 -0.12)">
       <use xlink:href="#BitstreamVeraSans-Roman-4f"/>
       <use x="78.7109375" xlink:href="#BitstreamVeraSans-Roman-63"/>
       <use x="133.69140625" xlink:href="#BitstreamVeraSans-Roman-74"/>
       <use x="172.900390625" xlink:href="#BitstreamVeraSans-Roman-20"/>
       <use x="204.6875" xlink:href="#BitstreamVeraSans-Roman-32"/>
       <use x="268.310546875" xlink:href="#BitstreamVeraSans-Roman-38"/>
       <use x="331.93359375" xlink:href="#BitstreamVeraSans-Roman-20"/>
       <use x="363.720703125" xlink:href="#BitstreamVeraSans-Roman-32"/>
       <use x="427.34375" xlink:href="#BitstreamVeraSans-Roman-30"/>
       <use x="490.966796875" xlink:href="#BitstreamVeraSans-Roman-31"/>
       <use x="554.58984375" xlink:href="#BitstreamVeraSans-Roman-35"/>
      </g>
     </g>
    </g>
    <g id="xtick_7">
     <g id="line2d_15">
      <g>
       <use style="stroke:#000000;stroke-width:0.5;" x="448.761387428" xlink:href="#m93b0483c22" y="345.6"/>
      </g>
     </g>
     <g id="line2d_16">
      <g>
       <use style="stroke:#000000;stroke-width:0.5;" x="448.761387428" xlink:href="#m741efc42ff" y="43.2"/>
      </g>
     </g>
     <g id="text_7">
      <!-- Oct 31 2015 -->
      <g transform="translate(384.174100693 394.065590385)rotate(-30.0)scale(0.12 -0.12)">
       <use xlink:href="#BitstreamVeraSans-Roman-4f"/>
       <use x="78.7109375" xlink:href="#BitstreamVeraSans-Roman-63"/>
       <use x="133.69140625" xlink:href="#BitstreamVeraSans-Roman-74"/>
       <use x="172.900390625" xlink:href="#BitstreamVeraSans-Roman-20"/>
       <use x="204.6875" xlink:href="#BitstreamVeraSans-Roman-33"/>
       <use x="268.310546875" xlink:href="#BitstreamVeraSans-Roman-31"/>
       <use x="331.93359375" xlink:href="#BitstreamVeraSans-Roman-20"/>
       <use x="363.720703125" xlink:href="#BitstreamVeraSans-Roman-32"/>
       <use x="427.34375" xlink:href="#BitstreamVeraSans-Roman-30"/>
       <use x="490.966796875" xlink:href="#BitstreamVeraSans-Roman-31"/>
       <use x="554.58984375" xlink:href="#BitstreamVeraSans-Roman-35"/>
      </g>
     </g>
    </g>
    <g id="xtick_8">
     <g id="line2d_17">
      <g>
       <use style="stroke:#000000;stroke-width:0.5;" x="503.859901713" xlink:href="#m93b0483c22" y="345.6"/>
      </g>
     </g>
     <g id="line2d_18">
      <g>
       <use style="stroke:#000000;stroke-width:0.5;" x="503.859901713" xlink:href="#m741efc42ff" y="43.2"/>
      </g>
     </g>
     <g id="text_8">
      <!-- Nov 03 2015 -->
      <defs>
       <path d="
M2.98438 54.6875
L12.5 54.6875
L29.5938 8.79688
L46.6875 54.6875
L56.2031 54.6875
L35.6875 0
L23.4844 0
z
" id="BitstreamVeraSans-Roman-76"/>
       <path d="
M9.8125 72.9062
L23.0938 72.9062
L55.4219 11.9219
L55.4219 72.9062
L64.9844 72.9062
L64.9844 0
L51.7031 0
L19.3906 60.9844
L19.3906 0
L9.8125 0
z
" id="BitstreamVeraSans-Roman-4e"/>
       <path d="
M30.6094 48.3906
Q23.3906 48.3906 19.1875 42.75
Q14.9844 37.1094 14.9844 27.2969
Q14.9844 17.4844 19.1562 11.8438
Q23.3438 6.20312 30.6094 6.20312
Q37.7969 6.20312 41.9844 11.8594
Q46.1875 17.5312 46.1875 27.2969
Q46.1875 37.0156 41.9844 42.7031
Q37.7969 48.3906 30.6094 48.3906
M30.6094 56
Q42.3281 56 49.0156 48.375
Q55.7188 40.7656 55.7188 27.2969
Q55.7188 13.875 49.0156 6.21875
Q42.3281 -1.42188 30.6094 -1.42188
Q18.8438 -1.42188 12.1719 6.21875
Q5.51562 13.875 5.51562 27.2969
Q5.51562 40.7656 12.1719 48.375
Q18.8438 56 30.6094 56" id="BitstreamVeraSans-Roman-6f"/>
      </defs>
      <g transform="translate(436.957079555 395.402465385)rotate(-30.0)scale(0.12 -0.12)">
       <use xlink:href="#BitstreamVeraSans-Roman-4e"/>
       <use x="74.8046875" xlink:href="#BitstreamVeraSans-Roman-6f"/>
       <use x="135.986328125" xlink:href="#BitstreamVeraSans-Roman-76"/>
       <use x="195.166015625" xlink:href="#BitstreamVeraSans-Roman-20"/>
       <use x="226.953125" xlink:href="#BitstreamVeraSans-Roman-30"/>
       <use x="290.576171875" xlink:href="#BitstreamVeraSans-Roman-33"/>
       <use x="354.19921875" xlink:href="#BitstreamVeraSans-Roman-20"/>
       <use x="385.986328125" xlink:href="#BitstreamVeraSans-Roman-32"/>
       <use x="449.609375" xlink:href="#BitstreamVeraSans-Roman-30"/>
       <use x="513.232421875" xlink:href="#BitstreamVeraSans-Roman-31"/>
       <use x="576.85546875" xlink:href="#BitstreamVeraSans-Roman-35"/>
      </g>
     </g>
    </g>
   </g>
   <g id="matplotlib.axis_2">
    <g id="ytick_1">
     <g id="line2d_19">
      <defs>
       <path d="
M0 0
L4 0" id="m728421d6d4" style="stroke:#000000;stroke-width:0.5;"/>
      </defs>
      <g>
       <use style="stroke:#000000;stroke-width:0.5;" x="72.0" xlink:href="#m728421d6d4" y="323.447277009"/>
      </g>
     </g>
     <g id="line2d_20">
      <defs>
       <path d="
M0 0
L-4 0" id="mcb0005524f" style="stroke:#000000;stroke-width:0.5;"/>
      </defs>
      <g>
       <use style="stroke:#000000;stroke-width:0.5;" x="518.4" xlink:href="#mcb0005524f" y="323.447277009"/>
      </g>
     </g>
     <g id="text_9">
      <!-- 1000 -->
      <g transform="translate(39.575 326.758527009)scale(0.12 -0.12)">
       <use xlink:href="#BitstreamVeraSans-Roman-31"/>
       <use x="63.623046875" xlink:href="#BitstreamVeraSans-Roman-30"/>
       <use x="127.24609375" xlink:href="#BitstreamVeraSans-Roman-30"/>
       <use x="190.869140625" xlink:href="#BitstreamVeraSans-Roman-30"/>
      </g>
     </g>
    </g>
    <g id="ytick_2">
     <g id="line2d_21">
      <g>
       <use style="stroke:#000000;stroke-width:0.5;" x="72.0" xlink:href="#m728421d6d4" y="257.506741242"/>
      </g>
     </g>
     <g id="line2d_22">
      <g>
       <use style="stroke:#000000;stroke-width:0.5;" x="518.4" xlink:href="#mcb0005524f" y="257.506741242"/>
      </g>
     </g>
     <g id="text_10">
      <!-- 2000 -->
      <g transform="translate(39.13625 260.817991242)scale(0.12 -0.12)">
       <use xlink:href="#BitstreamVeraSans-Roman-32"/>
       <use x="63.623046875" xlink:href="#BitstreamVeraSans-Roman-30"/>
       <use x="127.24609375" xlink:href="#BitstreamVeraSans-Roman-30"/>
       <use x="190.869140625" xlink:href="#BitstreamVeraSans-Roman-30"/>
      </g>
     </g>
    </g>
    <g id="ytick_3">
     <g id="line2d_23">
      <g>
       <use style="stroke:#000000;stroke-width:0.5;" x="72.0" xlink:href="#m728421d6d4" y="191.566205475"/>
      </g>
     </g>
     <g id="line2d_24">
      <g>
       <use style="stroke:#000000;stroke-width:0.5;" x="518.4" xlink:href="#mcb0005524f" y="191.566205475"/>
      </g>
     </g>
     <g id="text_11">
      <!-- 3000 -->
      <g transform="translate(39.171875 194.877455475)scale(0.12 -0.12)">
       <use xlink:href="#BitstreamVeraSans-Roman-33"/>
       <use x="63.623046875" xlink:href="#BitstreamVeraSans-Roman-30"/>
       <use x="127.24609375" xlink:href="#BitstreamVeraSans-Roman-30"/>
       <use x="190.869140625" xlink:href="#BitstreamVeraSans-Roman-30"/>
      </g>
     </g>
    </g>
    <g id="ytick_4">
     <g id="line2d_25">
      <g>
       <use style="stroke:#000000;stroke-width:0.5;" x="72.0" xlink:href="#m728421d6d4" y="125.625669709"/>
      </g>
     </g>
     <g id="line2d_26">
      <g>
       <use style="stroke:#000000;stroke-width:0.5;" x="518.4" xlink:href="#mcb0005524f" y="125.625669709"/>
      </g>
     </g>
     <g id="text_12">
      <!-- 4000 -->
      <defs>
       <path d="
M37.7969 64.3125
L12.8906 25.3906
L37.7969 25.3906
z

M35.2031 72.9062
L47.6094 72.9062
L47.6094 25.3906
L58.0156 25.3906
L58.0156 17.1875
L47.6094 17.1875
L47.6094 0
L37.7969 0
L37.7969 17.1875
L4.89062 17.1875
L4.89062 26.7031
z
" id="BitstreamVeraSans-Roman-34"/>
      </defs>
      <g transform="translate(38.84375 128.936919709)scale(0.12 -0.12)">
       <use xlink:href="#BitstreamVeraSans-Roman-34"/>
       <use x="63.623046875" xlink:href="#BitstreamVeraSans-Roman-30"/>
       <use x="127.24609375" xlink:href="#BitstreamVeraSans-Roman-30"/>
       <use x="190.869140625" xlink:href="#BitstreamVeraSans-Roman-30"/>
      </g>
     </g>
    </g>
    <g id="ytick_5">
     <g id="line2d_27">
      <g>
       <use style="stroke:#000000;stroke-width:0.5;" x="72.0" xlink:href="#m728421d6d4" y="59.6851339417"/>
      </g>
     </g>
     <g id="line2d_28">
      <g>
       <use style="stroke:#000000;stroke-width:0.5;" x="518.4" xlink:href="#mcb0005524f" y="59.6851339417"/>
      </g>
     </g>
     <g id="text_13">
      <!-- 5000 -->
      <g transform="translate(39.183125 62.9963839417)scale(0.12 -0.12)">
       <use xlink:href="#BitstreamVeraSans-Roman-35"/>
       <use x="63.623046875" xlink:href="#BitstreamVeraSans-Roman-30"/>
       <use x="127.24609375" xlink:href="#BitstreamVeraSans-Roman-30"/>
       <use x="190.869140625" xlink:href="#BitstreamVeraSans-Roman-30"/>
      </g>
     </g>
    </g>
   </g>
   <g id="text_14">
    <!-- Ziegel -->
    <defs>
     <path d="
M56.2031 29.5938
L56.2031 25.2031
L14.8906 25.2031
Q15.4844 15.9219 20.4844 11.0625
Q25.4844 6.20312 34.4219 6.20312
Q39.5938 6.20312 44.4531 7.46875
Q49.3125 8.73438 54.1094 11.2812
L54.1094 2.78125
Q49.2656 0.734375 44.1875 -0.34375
Q39.1094 -1.42188 33.8906 -1.42188
Q20.7969 -1.42188 13.1562 6.1875
Q5.51562 13.8125 5.51562 26.8125
Q5.51562 40.2344 12.7656 48.1094
Q20.0156 56 32.3281 56
Q43.3594 56 49.7812 48.8906
Q56.2031 41.7969 56.2031 29.5938
M47.2188 32.2344
Q47.125 39.5938 43.0938 43.9844
Q39.0625 48.3906 32.4219 48.3906
Q24.9062 48.3906 20.3906 44.1406
Q15.875 39.8906 15.1875 32.1719
z
" id="BitstreamVeraSans-Roman-65"/>
     <path d="
M5.60938 72.9062
L62.8906 72.9062
L62.8906 65.375
L16.7969 8.29688
L64.0156 8.29688
L64.0156 0
L4.5 0
L4.5 7.51562
L50.5938 64.5938
L5.60938 64.5938
z
" id="BitstreamVeraSans-Roman-5a"/>
     <path d="
M45.4062 27.9844
Q45.4062 37.75 41.375 43.1094
Q37.3594 48.4844 30.0781 48.4844
Q22.8594 48.4844 18.8281 43.1094
Q14.7969 37.75 14.7969 27.9844
Q14.7969 18.2656 18.8281 12.8906
Q22.8594 7.51562 30.0781 7.51562
Q37.3594 7.51562 41.375 12.8906
Q45.4062 18.2656 45.4062 27.9844
M54.3906 6.78125
Q54.3906 -7.17188 48.1875 -13.9844
Q42 -20.7969 29.2031 -20.7969
Q24.4688 -20.7969 20.2656 -20.0938
Q16.0625 -19.3906 12.1094 -17.9219
L12.1094 -9.1875
Q16.0625 -11.3281 19.9219 -12.3438
Q23.7812 -13.375 27.7812 -13.375
Q36.625 -13.375 41.0156 -8.76562
Q45.4062 -4.15625 45.4062 5.17188
L45.4062 9.625
Q42.625 4.78125 38.2812 2.39062
Q33.9375 0 27.875 0
Q17.8281 0 11.6719 7.65625
Q5.51562 15.3281 5.51562 27.9844
Q5.51562 40.6719 11.6719 48.3281
Q17.8281 56 27.875 56
Q33.9375 56 38.2812 53.6094
Q42.625 51.2188 45.4062 46.3906
L45.4062 54.6875
L54.3906 54.6875
z
" id="BitstreamVeraSans-Roman-67"/>
     <path d="
M9.42188 54.6875
L18.4062 54.6875
L18.4062 0
L9.42188 0
z

M9.42188 75.9844
L18.4062 75.9844
L18.4062 64.5938
L9.42188 64.5938
z
" id="BitstreamVeraSans-Roman-69"/>
     <path d="
M9.42188 75.9844
L18.4062 75.9844
L18.4062 0
L9.42188 0
z
" id="BitstreamVeraSans-Roman-6c"/>
    </defs>
    <g transform="translate(475.67025 38.2)scale(0.144 -0.144)">
     <use xlink:href="#BitstreamVeraSans-Roman-5a"/>
     <use x="68.505859375" xlink:href="#BitstreamVeraSans-Roman-69"/>
     <use x="96.2890625" xlink:href="#BitstreamVeraSans-Roman-65"/>
     <use x="157.8125" xlink:href="#BitstreamVeraSans-Roman-67"/>
     <use x="221.2890625" xlink:href="#BitstreamVeraSans-Roman-65"/>
     <use x="282.8125" xlink:href="#BitstreamVeraSans-Roman-6c"/>
    </g>
   </g>
   <g id="legend_1">
    <g id="patch_7">
     <path d="
M123.942 423.616
L466.458 423.616
L466.458 398.16
L123.942 398.16
z
" style="fill:#ffffff;stroke:#000000;stroke-linejoin:miter;"/>
    </g>
    <g id="line2d_29">
     <path d="
M134.022 409.822
L154.182 409.822" style="fill:none;stroke:#ff0000;stroke-linecap:square;"/>
    </g>
    <g id="line2d_30"/>
    <g id="text_15">
     <!-- Schwarzmarktpreis -->
     <defs>
      <path d="
M34.2812 27.4844
Q23.3906 27.4844 19.1875 25
Q14.9844 22.5156 14.9844 16.5
Q14.9844 11.7188 18.1406 8.90625
Q21.2969 6.10938 26.7031 6.10938
Q34.1875 6.10938 38.7031 11.4062
Q43.2188 16.7031 43.2188 25.4844
L43.2188 27.4844
z

M52.2031 31.2031
L52.2031 0
L43.2188 0
L43.2188 8.29688
Q40.1406 3.32812 35.5469 0.953125
Q30.9531 -1.42188 24.3125 -1.42188
Q15.9219 -1.42188 10.9531 3.29688
Q6 8.01562 6 15.9219
Q6 25.1406 12.1719 29.8281
Q18.3594 34.5156 30.6094 34.5156
L43.2188 34.5156
L43.2188 35.4062
Q43.2188 41.6094 39.1406 45
Q35.0625 48.3906 27.6875 48.3906
Q23 48.3906 18.5469 47.2656
Q14.1094 46.1406 10.0156 43.8906
L10.0156 52.2031
Q14.9375 54.1094 19.5781 55.0469
Q24.2188 56 28.6094 56
Q40.4844 56 46.3438 49.8438
Q52.2031 43.7031 52.2031 31.2031" id="BitstreamVeraSans-Roman-61"/>
      <path d="
M5.51562 54.6875
L48.1875 54.6875
L48.1875 46.4844
L14.4062 7.17188
L48.1875 7.17188
L48.1875 0
L4.29688 0
L4.29688 8.20312
L38.0938 47.5156
L5.51562 47.5156
z
" id="BitstreamVeraSans-Roman-7a"/>
      <path d="
M53.5156 70.5156
L53.5156 60.8906
Q47.9062 63.5781 42.9219 64.8906
Q37.9375 66.2188 33.2969 66.2188
Q25.25 66.2188 20.875 63.0938
Q16.5 59.9688 16.5 54.2031
Q16.5 49.3594 19.4062 46.8906
Q22.3125 44.4375 30.4219 42.9219
L36.375 41.7031
Q47.4062 39.5938 52.6562 34.2969
Q57.9062 29 57.9062 20.125
Q57.9062 9.51562 50.7969 4.04688
Q43.7031 -1.42188 29.9844 -1.42188
Q24.8125 -1.42188 18.9688 -0.25
Q13.1406 0.921875 6.89062 3.21875
L6.89062 13.375
Q12.8906 10.0156 18.6562 8.29688
Q24.4219 6.59375 29.9844 6.59375
Q38.4219 6.59375 43.0156 9.90625
Q47.6094 13.2344 47.6094 19.3906
Q47.6094 24.75 44.3125 27.7812
Q41.0156 30.8125 33.5 32.3281
L27.4844 33.5
Q16.4531 35.6875 11.5156 40.375
Q6.59375 45.0625 6.59375 53.4219
Q6.59375 63.0938 13.4062 68.6562
Q20.2188 74.2188 32.1719 74.2188
Q37.3125 74.2188 42.625 73.2812
Q47.9531 72.3594 53.5156 70.5156" id="BitstreamVeraSans-Roman-53"/>
      <path d="
M54.8906 33.0156
L54.8906 0
L45.9062 0
L45.9062 32.7188
Q45.9062 40.4844 42.875 44.3281
Q39.8438 48.1875 33.7969 48.1875
Q26.5156 48.1875 22.3125 43.5469
Q18.1094 38.9219 18.1094 30.9062
L18.1094 0
L9.07812 0
L9.07812 75.9844
L18.1094 75.9844
L18.1094 46.1875
Q21.3438 51.125 25.7031 53.5625
Q30.0781 56 35.7969 56
Q45.2188 56 50.0469 50.1719
Q54.8906 44.3438 54.8906 33.0156" id="BitstreamVeraSans-Roman-68"/>
      <path d="
M52 44.1875
Q55.375 50.25 60.0625 53.125
Q64.75 56 71.0938 56
Q79.6406 56 84.2812 50.0156
Q88.9219 44.0469 88.9219 33.0156
L88.9219 0
L79.8906 0
L79.8906 32.7188
Q79.8906 40.5781 77.0938 44.375
Q74.3125 48.1875 68.6094 48.1875
Q61.625 48.1875 57.5625 43.5469
Q53.5156 38.9219 53.5156 30.9062
L53.5156 0
L44.4844 0
L44.4844 32.7188
Q44.4844 40.625 41.7031 44.4062
Q38.9219 48.1875 33.1094 48.1875
Q26.2188 48.1875 22.1562 43.5312
Q18.1094 38.875 18.1094 30.9062
L18.1094 0
L9.07812 0
L9.07812 54.6875
L18.1094 54.6875
L18.1094 46.1875
Q21.1875 51.2188 25.4844 53.6094
Q29.7812 56 35.6875 56
Q41.6562 56 45.8281 52.9688
Q50 49.9531 52 44.1875" id="BitstreamVeraSans-Roman-6d"/>
      <path d="
M4.20312 54.6875
L13.1875 54.6875
L24.4219 12.0156
L35.5938 54.6875
L46.1875 54.6875
L57.4219 12.0156
L68.6094 54.6875
L77.5938 54.6875
L63.2812 0
L52.6875 0
L40.9219 44.8281
L29.1094 0
L18.5 0
z
" id="BitstreamVeraSans-Roman-77"/>
      <path d="
M9.07812 75.9844
L18.1094 75.9844
L18.1094 31.1094
L44.9219 54.6875
L56.3906 54.6875
L27.3906 29.1094
L57.625 0
L45.9062 0
L18.1094 26.7031
L18.1094 0
L9.07812 0
z
" id="BitstreamVeraSans-Roman-6b"/>
      <path d="
M41.1094 46.2969
Q39.5938 47.1719 37.8125 47.5781
Q36.0312 48 33.8906 48
Q26.2656 48 22.1875 43.0469
Q18.1094 38.0938 18.1094 28.8125
L18.1094 0
L9.07812 0
L9.07812 54.6875
L18.1094 54.6875
L18.1094 46.1875
Q20.9531 51.1719 25.4844 53.5781
Q30.0312 56 36.5312 56
Q37.4531 56 38.5781 55.875
Q39.7031 55.7656 41.0625 55.5156
z
" id="BitstreamVeraSans-Roman-72"/>
      <path d="
M44.2812 53.0781
L44.2812 44.5781
Q40.4844 46.5312 36.375 47.5
Q32.2812 48.4844 27.875 48.4844
Q21.1875 48.4844 17.8438 46.4375
Q14.5 44.3906 14.5 40.2812
Q14.5 37.1562 16.8906 35.375
Q19.2812 33.5938 26.5156 31.9844
L29.5938 31.2969
Q39.1562 29.25 43.1875 25.5156
Q47.2188 21.7812 47.2188 15.0938
Q47.2188 7.46875 41.1875 3.01562
Q35.1562 -1.42188 24.6094 -1.42188
Q20.2188 -1.42188 15.4531 -0.5625
Q10.6875 0.296875 5.42188 2
L5.42188 11.2812
Q10.4062 8.6875 15.2344 7.39062
Q20.0625 6.10938 24.8125 6.10938
Q31.1562 6.10938 34.5625 8.28125
Q37.9844 10.4531 37.9844 14.4062
Q37.9844 18.0625 35.5156 20.0156
Q33.0625 21.9688 24.7031 23.7812
L21.5781 24.5156
Q13.2344 26.2656 9.51562 29.9062
Q5.8125 33.5469 5.8125 39.8906
Q5.8125 47.6094 11.2812 51.7969
Q16.75 56 26.8125 56
Q31.7812 56 36.1719 55.2656
Q40.5781 54.5469 44.2812 53.0781" id="BitstreamVeraSans-Roman-73"/>
      <path d="
M18.1094 8.20312
L18.1094 -20.7969
L9.07812 -20.7969
L9.07812 54.6875
L18.1094 54.6875
L18.1094 46.3906
Q20.9531 51.2656 25.2656 53.625
Q29.5938 56 35.5938 56
Q45.5625 56 51.7812 48.0938
Q58.0156 40.1875 58.0156 27.2969
Q58.0156 14.4062 51.7812 6.48438
Q45.5625 -1.42188 35.5938 -1.42188
Q29.5938 -1.42188 25.2656 0.953125
Q20.9531 3.32812 18.1094 8.20312
M48.6875 27.2969
Q48.6875 37.2031 44.6094 42.8438
Q40.5312 48.4844 33.4062 48.4844
Q26.2656 48.4844 22.1875 42.8438
Q18.1094 37.2031 18.1094 27.2969
Q18.1094 17.3906 22.1875 11.75
Q26.2656 6.10938 33.4062 6.10938
Q40.5312 6.10938 44.6094 11.75
Q48.6875 17.3906 48.6875 27.2969" id="BitstreamVeraSans-Roman-70"/>
     </defs>
     <g transform="translate(170.022375 414.86175)scale(0.144 -0.144)">
      <use xlink:href="#BitstreamVeraSans-Roman-53"/>
      <use x="63.4765625" xlink:href="#BitstreamVeraSans-Roman-63"/>
      <use x="118.45703125" xlink:href="#BitstreamVeraSans-Roman-68"/>
      <use x="181.8359375" xlink:href="#BitstreamVeraSans-Roman-77"/>
      <use x="263.623046875" xlink:href="#BitstreamVeraSans-Roman-61"/>
      <use x="324.90234375" xlink:href="#BitstreamVeraSans-Roman-72"/>
      <use x="366.015625" xlink:href="#BitstreamVeraSans-Roman-7a"/>
      <use x="418.505859375" xlink:href="#BitstreamVeraSans-Roman-6d"/>
      <use x="515.91796875" xlink:href="#BitstreamVeraSans-Roman-61"/>
      <use x="577.197265625" xlink:href="#BitstreamVeraSans-Roman-72"/>
      <use x="618.310546875" xlink:href="#BitstreamVeraSans-Roman-6b"/>
      <use x="676.220703125" xlink:href="#BitstreamVeraSans-Roman-74"/>
      <use x="715.4296875" xlink:href="#BitstreamVeraSans-Roman-70"/>
      <use x="778.90625" xlink:href="#BitstreamVeraSans-Roman-72"/>
      <use x="817.76953125" xlink:href="#BitstreamVeraSans-Roman-65"/>
      <use x="879.29296875" xlink:href="#BitstreamVeraSans-Roman-69"/>
      <use x="907.076171875" xlink:href="#BitstreamVeraSans-Roman-73"/>
     </g>
    </g>
    <g id="line2d_31">
     <path d="
M339.609 409.822
L359.769 409.822" style="fill:none;stroke:#008000;stroke-linecap:square;"/>
    </g>
    <g id="line2d_32"/>
    <g id="text_16">
     <!-- Normalpreis -->
     <g transform="translate(375.609375 414.86175)scale(0.144 -0.144)">
      <use xlink:href="#BitstreamVeraSans-Roman-4e"/>
      <use x="74.8046875" xlink:href="#BitstreamVeraSans-Roman-6f"/>
      <use x="135.986328125" xlink:href="#BitstreamVeraSans-Roman-72"/>
      <use x="175.349609375" xlink:href="#BitstreamVeraSans-Roman-6d"/>
      <use x="272.76171875" xlink:href="#BitstreamVeraSans-Roman-61"/>
      <use x="334.041015625" xlink:href="#BitstreamVeraSans-Roman-6c"/>
      <use x="361.82421875" xlink:href="#BitstreamVeraSans-Roman-70"/>
      <use x="425.30078125" xlink:href="#BitstreamVeraSans-Roman-72"/>
      <use x="464.1640625" xlink:href="#BitstreamVeraSans-Roman-65"/>
      <use x="525.6875" xlink:href="#BitstreamVeraSans-Roman-69"/>
      <use x="553.470703125" xlink:href="#BitstreamVeraSans-Roman-73"/>
     </g>
    </g>
   </g>
  </g>
 </g>
 <defs>
  <clipPath id="pcb2bf987bf">
   <rect height="302.4" width="446.4" x="72.0" y="43.2"/>
  </clipPath>
 </defs>
</svg>
