<?xml version="1.0" encoding="utf-8" standalone="no"?>
<!DOCTYPE svg PUBLIC "-//W3C//DTD SVG 1.1//EN"
  "http://www.w3.org/Graphics/SVG/1.1/DTD/svg11.dtd">
<!-- Created with matplotlib (http://matplotlib.org/) -->
<svg height="432pt" version="1.1" viewBox="0 0 576 432" width="576pt" xmlns="http://www.w3.org/2000/svg" xmlns:xlink="http://www.w3.org/1999/xlink">
 <defs>
  <style type="text/css">
*{stroke-linecap:butt;stroke-linejoin:round;}
  </style>
 </defs>
 <g id="figure_1">
  <g id="patch_1">
   <path d="
M0 432
L576 432
L576 0
L0 0
z
" style="fill:#ffffff;"/>
  </g>
  <g id="axes_1">
   <g id="patch_2">
    <path d="
M72 345.6
L518.4 345.6
L518.4 43.2
L72 43.2
z
" style="fill:#ffffff;"/>
   </g>
   <g id="line2d_1">
    <path clip-path="url(#pcb2bf987bf)" d="
M72 238.78
L72.1276 187.495
L72.3828 185.886
L72.5105 237.654
L72.7657 238.78
L73.1485 238.78
L73.2762 239.303
L73.5314 238.74
L73.659 237.613
L73.9142 238.176
L74.0419 236.889
L74.4247 237.05
L74.6799 235.924
L74.8075 237.613
L75.0628 237.613
L75.1904 237.05
L75.4456 237.05
L75.5732 235.924
L75.8285 227.718
L75.9561 186.69
L76.2113 235.924
L76.3389 226.19
L76.5942 235.763
L76.7218 226.512
L76.9772 235.361
L77.3599 238.74
L77.7429 236.527
L77.8703 241.958
L78.1256 241.435
L78.1256 241.435
L78.2532 245.216
L78.636 245.216
L78.8915 246.261
L79.0189 246.261
L79.2741 245.296
L79.4017 245.296
L79.6569 246.382
L79.7846 243.808
L80.0398 245.698
L80.1674 245.698
L80.4226 245.175
L80.5503 226.512
L80.8055 244.653
L80.9331 244.653
L81.1885 244.13
L81.316 243.607
L81.5712 57.7328
L81.6988 224.621
L81.9542 240.349
L82.3371 236.487
L82.7197 235.2
L82.8473 234.959
L83.1026 234.959
L83.2302 235.192
L83.613 235.119
L83.8683 244.13
L83.9959 244.089
L84.2511 243.566
L84.3787 244.13
L85.3999 244.13
L85.5273 243.607
L85.7825 244.13
L85.9101 244.13
L86.1654 244.653
L86.293 244.13
L86.5482 244.653
L86.6758 244.13
L86.931 244.653
L87.0587 244.13
L87.3139 246.366
L87.4415 246.358
L87.6967 245.859
L87.8244 246.358
L88.2072 246.302
L88.8453 244.21
L88.8453 244.21
L89.2281 244.21
L89.3557 244.725
L89.7386 244.733
L89.9938 246.221
L89.9938 246.221
L90.3767 244.813
L91.0148 245.859
L91.7804 246.374
L91.9081 245.859
L92.5461 241.797
L92.6738 242.842
L93.3118 243.245
L94.0775 244.813
L94.2051 242.722
L94.8432 239.021
L94.9708 239.021
L95.7365 244.612
L96.3746 244.813
L97.1403 244.733
L97.906 244.773
L98.0336 243.687
L98.6717 245.859
L98.7993 245.698
L99.4374 244.089
L100.331 243.566
L100.969 245.658
L101.862 246.382
L110.923 246.382
L111.05 231.097
L111.689 246.382
L111.816 246.382
L113.986 232.344
L114.879 234.033
L116.283 243.566
L116.41 243.044
L117.048 242.48
L117.942 245.899
L118.58 253.703
L118.707 253.695
L119.345 251.845
L120.111 250.405
L120.877 248.232
L121.004 248.232
L121.643 247.227
L122.408 248.232
L122.536 247.75
L123.174 247.508
L124.067 248.434
L124.705 244.854
L125.471 245.055
L126.109 242.239
L126.237 243.285
L126.237 243.285
L126.365 242.762
L127.002 244.009
L127.13 245.055
L127.13 245.055
L127.64 242.963
L127.64 242.963
L127.768 242.963
L128.534 248.434
L128.661 247.468
L129.299 221.524
L130.065 248.916
L130.193 248.916
L130.831 241.676
L131.597 248.94
L132.362 240.389
L132.362 240.389
L133.894 248.94
L134.149 248.94
L134.659 234.637
L135.425 248.434
L136.191 251.289
L136.318 251.322
L136.956 251.828
L137.722 243.084
L138.488 243.084
L139.254 252.536
L139.381 252.536
L140.019 251.684
L140.785 251.684
L141.551 251.209
L141.678 250.726
L142.316 250.244
L143.082 250.067
L143.848 249.077
L143.975 249.56
L145.379 246.543
L145.507 247.589
L146.145 250.067
L146.272 246.221
L146.91 246.221
L147.038 250.042
L147.676 249.56
L148.442 249.56
L149.208 249.68
L149.335 249.841
L149.973 246.342
L150.739 239.785
L150.867 246.334
L151.505 245.256
L152.27 244.765
L153.036 248.353
L153.164 249.841
L153.802 250.702
L154.567 250.163
L155.333 244.813
L155.333 244.813
L156.099 243.245
L156.865 249.198
L157.758 241.475
L158.396 241.998
L159.162 241.998
L159.927 247.83
L160.821 246.8
L162.224 246.221
L162.99 245.69
L163.118 245.175
L163.756 241.716
L163.883 239.625
L164.649 234.556
L165.287 241.716
L166.053 240.147
L166.819 227.718
L167.584 233.752
L167.712 227.718
L168.35 237.774
L169.116 238.498
L169.243 244.612
L169.881 244.894
L170.647 246.302
L170.775 246.809
L171.413 245.779
L172.178 245.216
L172.944 245.779
L173.072 246.221
L173.71 245.256
L174.603 245.248
L176.007 246.809
L176.773 246.302
L176.9 205.555
L177.538 246.809
L178.304 246.302
L179.07 246.817
L179.835 246.809
L180.729 243.285
L181.367 243.808
L182.132 243.124
L182.26 242.601
L182.898 250.203
L183.791 250.203
L184.43 214.485
L185.195 252.697
L185.961 250.767
L186.727 249.922
L187.492 247.911
L188.258 250.887
L189.024 246.543
L189.151 243.928
L190.555 245.497
L191.321 245.208
L191.321 245.208
L192.852 251.37
L193.618 251.764
L195.277 251.684
L196.681 251.668
L198.212 248.755
L198.212 248.755
L198.978 248.916
L200.509 241.515
L201.275 240.992
L202.04 244.492
L202.806 246.382
L203.572 246.382
L203.699 235.763
L204.338 245.891
L205.231 250.195
L205.997 249.23
L206.124 249.238
L206.507 247.991
L206.762 246.495
L207.4 245.417
L207.911 249.431
L208.166 243.808
L208.804 248.192
L209.059 248.675
L209.059 248.675
L209.57 248.635
L209.825 247.951
L210.591 249.431
L210.846 247.348
L211.356 245.779
L211.484 245.779
L211.867 249.721
L212.122 249.64
L212.25 249.721
L212.505 251.853
L213.654 251.853
L213.654 251.853
L213.781 224.34
L214.036 223.133
L214.164 223.736
L214.419 251.853
L217.992 251.853
L218.375 246.825
L218.631 246.302
L218.758 244.733
L219.013 251.853
L219.779 251.853
L219.907 251.37
L220.162 250.887
L220.29 251.289
L220.29 251.289
L220.417 246.503
L220.545 247.026
L220.672 246.495
L220.672 246.495
L221.055 246.487
L221.31 247.026
L221.438 249.841
L221.693 243.808
L222.076 243.285
L222.204 251.853
L223.352 251.853
L223.608 227.718
L223.735 251.853
L224.884 251.853
L225.139 250.646
L225.267 251.129
L225.522 253.534
L225.649 251.37
L225.649 251.37
L225.777 245.658
L225.777 245.658
L225.905 251.37
L225.905 251.37
L226.032 250.887
L226.032 250.887
L226.16 250.887
L226.16 250.887
L226.288 249.439
L226.415 250.405
L226.415 250.405
L226.67 253.534
L226.798 253.534
L227.053 252.577
L227.181 253.059
L227.436 253.059
L227.436 253.059
L227.819 250.163
L227.946 250.606
L228.202 250.123
L228.329 250.123
L228.585 251.41
L228.712 250.606
L229.095 250.606
L229.35 251.088
L229.478 251.088
L229.733 251.571
L229.861 251.571
L230.116 250.244
L230.244 251.611
L230.499 251.845
L230.499 251.845
L230.882 250.324
L231.009 247.911
L231.264 248.393
L231.264 248.393
L231.392 248.393
L231.775 245.859
L232.158 253.059
L232.413 252.577
L232.541 251.611
L232.796 252.577
L232.796 252.577
L232.924 251.611
L233.179 251.611
L233.306 251.129
L233.562 252.094
L233.689 252.086
L233.944 251.129
L234.072 251.129
L234.327 252.086
L234.327 252.086
L234.455 251.611
L234.71 251.129
L234.838 250.646
L235.093 251.603
L235.093 251.603
L235.603 251.603
L235.859 250.646
L235.859 250.646
L235.986 250.646
L236.242 247.348
L236.369 250.155
L236.624 249.68
L236.752 249.198
L237.135 250.155
L237.39 249.64
L237.518 249.68
L237.773 249.198
L237.901 248.715
L238.156 249.198
L238.283 248.715
L238.539 249.198
L238.666 248.715
L238.921 248.715
L239.049 247.75
L239.304 247.227
L239.432 248.715
L239.687 220.84
L239.815 247.75
L240.07 249.198
L240.198 248.707
L240.58 248.627
L240.836 243.808
L240.963 248.112
L241.219 246.583
L241.346 250.155
L241.601 248.232
L241.729 250.155
L242.112 250.155
L242.495 247.227
L242.75 247.742
L242.878 246.704
L243.133 241.998
L243.26 244.089
L243.516 242.521
L243.643 240.952
L243.898 244.612
L244.026 244.089
L244.281 244.089
L244.409 242.521
L244.664 243.044
L244.792 245.417
L245.047 247.726
L245.047 247.726
L245.175 247.219
L245.43 247.219
L245.557 246.181
L245.813 246.704
L245.94 246.704
L246.196 247.219
L246.323 247.219
L246.578 244.29
L246.578 244.29
L246.706 247.227
L246.961 246.181
L247.344 249.552
L247.727 250.059
L247.855 248.594
L248.237 248.112
L248.493 248.112
L248.876 245.537
L248.876 245.537
L249.003 245.015
L249.258 245.015
L249.641 250.051
L249.641 250.051
L249.769 250.051
L250.152 248.997
L250.407 249.479
L250.534 248.514
L250.79 249.479
L250.917 249.479
L251.173 250.034
L251.3 249.077
L251.555 250.018
L251.683 250.018
L251.938 249.56
L252.066 250.034
L252.321 250.026
L252.449 249.037
L252.832 248.916
L253.087 247.951
L253.214 246.945
L253.597 247.339
L253.852 248.916
L253.98 227.718
L254.235 248.916
L254.363 249.399
L254.618 249.399
L254.746 248.434
L254.746 248.434
L255.001 249.52
L255.129 249.52
L255.129 249.52
L255.384 248.554
L255.511 247.589
L255.767 248.072
L255.767 248.072
L255.894 246.543
L256.277 244.451
L256.532 244.451
L256.915 247.066
L257.043 247.066
L257.298 246.543
L257.426 244.974
L257.681 243.285
L257.809 243.808
L258.064 247.589
L258.064 247.589
L258.447 249.512
L258.574 248.997
L258.702 249.503
L258.83 215.772
L258.957 249.037
L259.212 227.115
L259.212 227.115
L259.34 247.549
L259.595 247.026
L259.595 247.026
L259.723 250.026
L259.978 240.952
L260.106 250.067
L260.361 250.163
L260.489 254.958
L262.02 254.958
L262.275 259.004
L262.403 258.562
L263.041 253.703
L263.168 251.772
L263.424 250.807
L263.424 250.807
L263.551 251.281
L263.807 250.228
L263.934 235.28
L264.189 237.332
L264.189 237.332
L264.317 237.332
L264.572 236.608
L264.7 236.608
L264.955 245.175
L264.955 245.175
L265.083 245.698
L265.338 250.163
L265.466 249.68
L265.593 250.163
L265.848 249.68
L266.104 250.155
L266.231 249.198
L266.486 248.192
L266.614 248.192
L266.997 246.503
L267.252 248.675
L267.38 247.71
L267.763 246.141
L268.401 240.389
L268.528 241.958
L268.784 241.958
L269.294 245.618
L269.549 244.572
L269.677 246.141
L269.932 247.187
L270.06 245.497
L270.698 219.674
L270.825 232.947
L271.081 232.947
L271.463 233.511
L271.846 231.821
L271.974 242.118
L272.229 247.187
L272.357 236.97
L272.612 236.407
L272.74 235.28
L272.995 249.174
L273.378 244.572
L273.378 244.572
L273.506 246.133
L273.888 246.133
L274.143 245.618
L274.271 246.141
L274.526 239.222
L274.909 249.166
L274.909 249.166
L275.037 248.627
L275.292 249.174
L275.802 248.675
L276.058 248.635
L276.441 245.98
L276.568 246.503
L276.823 246.503
L276.951 245.457
L277.206 244.934
L277.334 244.934
L277.589 245.98
L277.717 247.146
L277.972 246.623
L277.972 246.623
L278.099 247.138
L278.355 249.158
L278.482 248.675
L278.738 247.187
L278.865 247.187
L279.12 248.675
L279.248 239.625
L279.503 247.669
L280.014 236.648
L280.269 238.901
L280.269 238.901
L280.397 236.648
L280.652 245.578
L280.779 246.02
L281.035 249.133
L281.035 249.133
L281.417 249.125
L281.545 247.428
L281.801 249.037
L282.183 247.669
L282.311 246.101
L282.566 245.015
L282.694 246.615
L282.949 246.101
L283.077 246.101
L283.332 246.615
L283.459 243.808
L283.715 246.615
L284.225 246.615
L284.48 245.578
L284.608 245.578
L284.736 236.946
L285.246 236.004
L285.374 236.559
L285.629 236.559
L285.756 186.69
L286.012 236.004
L286.522 236.004
L286.777 219.674
L287.16 235.16
L287.543 232.264
L287.671 227.115
L287.926 249.117
L288.437 249.109
L288.692 248.586
L288.819 247.066
L289.074 246.543
L289.202 246.543
L289.457 245.497
L289.585 244.451
L289.968 247.026
L290.223 246.503
L290.351 246.503
L291.116 242.32
L291.372 243.888
L291.499 245.449
L291.754 244.934
L292.137 247.026
L292.265 245.98
L292.52 245.457
L292.52 245.457
L292.648 246.503
L292.903 244.894
L293.031 239.785
L293.413 246.503
L293.796 246.503
L294.051 247.018
L294.051 247.018
L294.179 245.98
L294.434 245.457
L294.562 244.411
L294.817 218.99
L294.945 219.633
L295.328 246.503
L295.71 244.854
L295.966 247.018
L296.349 245.98
L296.476 247.018
L296.859 247.018
L297.242 246.302
L297.497 247.018
L297.625 245.457
L297.88 246.825
L298.008 221.524
L298.263 246.422
L298.646 246.422
L298.773 245.899
L299.028 243.808
L299.156 245.899
L299.411 244.854
L299.539 244.854
L299.794 246.921
L299.922 246.913
L300.305 246.43
L300.56 245.377
L300.687 245.377
L300.943 244.854
L301.07 245.899
L301.326 246.422
L301.453 243.808
L301.708 246.221
L301.836 245.698
L302.091 245.175
L302.219 244.653
L302.474 240.992
L302.474 240.992
L302.857 240.992
L302.985 240.469
L303.112 241.515
L303.368 239.423
L303.623 239.423
L303.75 238.86
L304.005 239.423
L304.005 239.423
L304.133 238.289
L304.388 239.423
L304.771 245.698
L305.537 245.698
L305.664 246.422
L306.43 246.422
L306.685 245.859
L306.813 246.374
L307.068 245.899
L307.068 245.899
L307.196 246.414
L307.579 246.535
L307.834 246.543
L307.962 246.02
L308.217 246.543
L308.344 245.497
L308.6 245.497
L308.6 245.497
L308.983 243.365
L309.11 242.32
L309.365 242.842
L309.493 241.193
L309.748 242.32
L310.131 240.751
L310.131 240.751
L310.259 242.834
L310.514 239.705
L310.642 241.797
L310.897 242.834
L311.024 242.32
L311.28 241.797
L311.407 241.274
L311.662 241.789
L311.79 241.789
L312.045 242.883
L312.173 242.883
L312.428 242.36
L312.556 241.314
L312.811 242.36
L312.939 243.389
L313.194 243.398
L313.321 242.36
L313.704 238.78
L313.96 243.76
L314.47 243.76
L314.725 242.722
L314.853 241.676
L315.108 241.797
L315.236 243.76
L315.491 243.76
L315.619 244.918
L317.15 244.934
L317.405 249.841
L317.533 248.876
L317.788 248.353
L317.916 248.868
L318.298 247.87
L318.681 244.854
L319.064 247.87
L319.319 248.353
L319.319 248.353
L319.702 245.296
L319.83 246.221
L320.085 244.089
L320.213 244.089
L320.596 241.394
L320.851 241.386
L320.851 241.386
L321.234 244.612
L321.361 244.089
L321.616 246.213
L321.999 247.388
L322.127 246.342
L322.765 248.313
L322.893 248.313
L323.148 223.253
L323.275 247.87
L323.531 247.38
L323.658 246.865
L323.914 246.342
L323.914 246.342
L324.041 243.727
L324.424 248.353
L324.807 248.353
L325.062 248.86
L325.19 248.86
L325.445 247.87
L325.573 248.353
L325.828 247.87
L325.956 247.87
L326.338 245.779
L326.593 245.779
L326.721 245.256
L326.976 245.256
L327.104 243.164
L327.487 240.389
L327.742 231.178
L327.87 231.741
L328.125 240.389
L328.252 240.389
L328.508 241.475
L328.635 226.512
L328.891 241.475
L329.018 239.906
L329.401 243.285
L329.656 248.353
L329.784 248.353
L330.039 245.819
L330.167 246.857
L330.55 246.825
L330.805 246.302
L330.933 246.825
L331.188 248.353
L331.315 248.353
L331.57 248.868
L331.698 247.83
L332.081 244.21
L332.847 239.504
L333.23 239.504
L333.485 238.378
L333.612 242.118
L333.995 245.256
L334.378 245.175
L334.633 244.644
L334.761 244.636
L335.016 244.13
L335.144 243.084
L335.399 243.607
L335.527 244.636
L335.782 238.619
L335.909 244.636
L336.165 244.122
L336.292 243.607
L336.548 243.808
L336.675 243.607
L336.93 241.475
L337.058 241.998
L337.313 242.561
L337.441 242.561
L337.696 244.653
L337.824 242.561
L338.079 243.084
L338.207 241.515
L338.462 241.515
L338.589 242.038
L338.845 242.561
L338.972 243.084
L339.227 243.084
L339.355 243.607
L339.61 245.175
L339.738 245.175
L339.866 244.13
L340.121 244.653
L340.376 244.653
L340.504 245.698
L340.759 246.205
L340.886 246.205
L341.269 244.653
L341.525 244.13
L341.652 243.607
L341.907 227.718
L342.035 227.115
L342.29 187.495
L342.418 187.487
L342.673 185.886
L342.801 245.698
L343.056 245.69
L343.184 244.653
L343.566 243.607
L343.822 219.472
L343.822 219.472
L343.949 244.114
L344.204 243.607
L344.715 238.297
L344.97 236.407
L345.098 236.407
L345.353 235.844
L345.353 235.844
L345.481 233.752
L345.736 241.917
L345.863 240.349
L346.246 246.213
L346.502 247.83
L346.629 247.83
L347.012 246.221
L347.267 235.763
L347.395 245.417
L347.65 244.612
L347.778 243.566
L348.033 243.566
L348.161 243.003
L348.416 187.776
L348.543 242.762
L348.799 242.239
L348.926 241.716
L349.309 241.716
L349.692 248.313
L350.33 245.175
L350.458 244.653
L350.713 244.13
L350.84 244.13
L351.096 242.561
L351.224 243.084
L351.606 243.558
L351.861 246.817
L352.372 246.817
L352.627 244.21
L352.755 244.21
L353.01 243.808
L353.393 246.817
L353.776 246.817
L353.776 246.817
L354.158 246.302
L354.286 245.256
L354.541 244.21
L354.669 244.21
L354.924 244.733
L355.052 243.687
L355.307 243.687
L355.307 243.687
L355.435 244.725
L355.69 243.808
L355.817 244.21
L356.2 246.302
L356.583 246.8
L356.838 245.771
L356.966 244.725
L357.221 246.809
L357.477 246.02
L357.732 236.648
L357.987 235.522
L358.115 234.154
L358.37 236.648
L358.37 236.648
L358.497 236.648
L358.753 236.085
L358.88 237.452
L359.136 245.497
L359.263 245.497
L359.518 244.451
L359.646 246.02
L359.901 244.974
L360.029 244.974
L360.412 244.709
L360.667 244.709
L360.795 244.21
L361.05 244.709
L361.177 243.687
L361.56 243.687
L361.816 243.164
L362.198 244.974
L362.326 243.285
L362.581 187.495
L363.092 246.012
L363.347 245.497
L363.474 244.371
L363.73 243.848
L363.857 243.848
L364.113 244.371
L364.24 243.325
L364.495 245.497
L364.623 245.497
L364.878 246.302
L365.006 246.302
L365.261 245.256
L365.389 244.21
L365.644 243.164
L365.772 239.785
L366.027 241.596
L366.027 241.596
L366.155 243.687
L366.537 246.302
L366.792 244.733
L366.92 244.733
L367.175 246.302
L367.303 246.302
L367.558 244.21
L367.686 245.779
L367.941 246.825
L368.069 246.302
L368.707 246.302
L369.09 246.825
L369.472 244.21
L369.6 244.21
L369.855 246.825
L369.983 246.825
L370.366 243.164
L370.621 243.687
L370.749 243.687
L371.004 245.256
L371.131 247.331
L371.387 244.733
L371.769 244.717
L371.897 244.21
L372.152 243.687
L372.28 244.21
L372.663 244.717
L372.918 243.164
L373.046 244.21
L373.301 244.717
L373.428 244.21
L373.684 243.687
L373.684 243.687
L373.811 244.21
L374.194 241.596
L374.449 238.901
L374.577 239.464
L374.832 235.763
L374.96 238.933
L375.215 237.251
L375.343 227.718
L375.726 243.687
L375.981 243.687
L376.108 244.21
L376.364 244.725
L376.491 244.725
L376.746 239.785
L376.874 244.21
L377.257 244.21
L377.512 242.641
L377.512 242.641
L377.64 243.164
L378.023 246.825
L378.278 247.339
L381.086 247.243
L381.341 245.175
L381.468 245.698
L381.851 245.151
L382.107 244.089
L382.234 243.044
L382.489 243.566
L382.872 243.566
L383 244.089
L383.255 243.044
L383.383 244.612
L383.638 244.089
L384.021 243.566
L384.148 244.604
L384.403 244.604
L384.531 243.566
L384.786 234.637
L385.169 243.044
L385.297 243.036
L385.552 244.073
L385.68 243.486
L385.935 242.923
L386.062 242.955
L386.445 243.406
L386.828 243.446
L387.083 242.36
L387.211 237.726
L387.466 237.726
L387.594 237.09
L387.849 237.171
L387.977 236.045
L388.232 240.791
L388.232 240.791
L388.36 240.268
L388.615 243.566
L389.125 237.372
L389.38 244.089
L389.508 244.089
L389.763 242.802
L390.274 236.165
L390.529 236.157
L390.912 234.154
L391.039 235.546
L391.295 234.999
L391.422 343.442
L391.678 248.257
L391.805 242.762
L392.06 249.713
L392.188 248.715
L392.443 239.665
L392.571 248.184
L392.826 246.623
L392.954 248.699
L393.209 248.192
L393.337 245.618
L393.592 214.163
L393.719 245.618
L393.975 195.016
L394.102 225.627
L394.102 225.627
L394.485 242.199
L394.868 223.776
L395.123 223.173
L395.251 239.785
L395.506 243.003
L395.634 246.648
L395.889 246.141
L396.016 246.648
L396.272 246.141
L396.655 246.141
L396.782 245.618
L397.037 246.133
L397.165 246.133
L397.42 245.618
L397.548 246.133
L397.803 243.808
L397.931 244.612
L398.314 240.147
L398.696 246.656
L399.335 246.656
L399.462 243.808
L399.717 245.618
L399.845 245.087
L400.228 246.101
L400.483 220.8
L400.611 221.443
L400.866 218.869
L400.993 220.156
L401.249 221.443
L401.376 246.615
L401.632 246.615
L401.759 244.532
L402.014 244.532
L402.142 243.486
L402.397 244.009
L402.525 244.009
L402.78 242.963
L402.908 240.349
L403.163 238.74
L403.291 237.05
L403.546 223.857
L403.673 233.671
L403.929 241.917
L404.311 238.579
L404.439 239.142
L404.694 241.475
L404.822 241.475
L405.077 241.998
L405.205 240.188
L405.46 243.036
L405.588 243.044
L405.843 241.998
L405.97 232.827
L406.226 241.998
L406.353 241.998
L406.609 246.101
L406.991 245.98
L407.119 244.371
L407.374 246.487
L407.502 244.934
L407.757 245.449
L407.885 245.98
L408.14 245.457
L408.268 244.934
L408.523 244.934
L408.65 245.457
L408.906 245.441
L409.033 244.934
L409.289 243.365
L409.416 243.357
L409.799 239.343
L410.182 238.136
L410.437 235.763
L410.565 242.553
L410.948 241.998
L411.203 241.797
L411.586 237.855
L411.713 238.418
L411.968 236.728
L412.096 237.855
L412.351 236.688
L412.479 235.562
L412.607 239.496
L412.989 242.842
L413.245 243.357
L413.627 243.325
L413.883 242.802
L414.393 242.802
L414.648 235.763
L414.776 242.279
L415.031 242.279
L415.159 241.233
L415.414 241.756
L415.542 242.802
L415.797 241.233
L415.925 241.233
L416.18 242.802
L417.073 242.802
L417.456 233.913
L417.711 227.718
L417.839 243.269
L418.094 242.738
L418.477 242.762
L418.604 243.285
L418.86 243.285
L419.243 241.676
L419.37 242.199
L419.625 241.716
L419.753 242.762
L420.136 242.754
L420.391 243.349
L420.519 242.32
L420.902 242.802
L421.157 246.575
L421.284 246.575
L421.54 245.98
L421.667 243.888
L421.922 246.463
L422.05 246.02
L422.305 245.537
L422.816 245.537
L423.071 245.015
L423.199 245.537
L423.581 244.492
L423.837 243.406
L423.964 243.406
L424.22 242.923
L424.347 245.006
L424.602 245.015
L424.73 244.693
L424.985 244.492
L425.113 245.537
L425.496 244.009
L425.751 227.718
L425.879 243.486
L426.134 244.009
L426.644 242.239
L426.899 242.762
L427.41 242.183
L427.793 242.175
L428.048 227.718
L428.176 240.55
L428.431 241.081
L428.558 241.057
L428.814 238.86
L428.941 238.86
L429.197 241.057
L429.324 239.987
L429.579 239.987
L429.707 239.464
L429.962 241.057
L430.345 241.057
L430.473 239.987
L430.728 238.941
L430.856 239.504
L430.983 239.504
L431.238 241.081
L431.494 240.55
L431.621 240.542
L431.877 241.081
L432.004 238.176
L432.259 240.55
L432.387 240.55
L432.642 241.081
L432.642 241.081
L432.77 240.55
L433.025 240.55
L433.153 241.081
L433.408 240.067
L433.536 240.067
L433.791 239.544
L433.918 238.981
L434.174 239.544
L434.301 239.544
L434.684 240.188
L434.939 239.665
L435.067 239.665
L435.705 241.113
L435.833 243.245
L436.088 242.722
L436.215 241.676
L436.471 242.199
L436.598 242.722
L436.854 242.199
L436.981 242.722
L437.236 246.455
L437.364 246.446
L437.747 244.089
L438.13 243.003
L438.385 240.349
L438.513 235.763
L438.768 238.981
L438.895 239.102
L439.151 234.951
L439.533 239.785
L439.661 239.785
L439.916 240.332
L440.044 239.263
L440.299 239.785
L440.299 239.785
L440.682 241.958
L441.065 243.808
L441.575 242.167
L441.958 234.637
L442.341 242.762
L442.596 242.239
L442.724 239.785
L443.107 242.762
L443.362 242.239
L443.49 242.762
L443.745 241.716
L443.872 242.762
L444.128 243.808
L444.51 242.239
L444.893 243.816
L445.021 243.285
L445.276 246.43
L445.404 245.417
L445.659 244.894
L446.042 243.848
L446.552 247.814
L446.808 243.8
L447.19 243.808
L447.318 242.762
L447.573 243.808
L447.701 247.299
L447.956 245.739
L448.084 245.731
L448.339 247.275
L448.467 247.275
L448.722 246.784
L448.849 246.784
L449.487 240.67
L449.487 240.67
L449.615 240.67
L449.87 242.762
L449.998 242.239
L450.126 242.762
L450.764 240.067
L451.146 242.762
L451.402 243.285
L451.529 238.74
L451.785 243.285
L452.295 243.277
L452.55 241.233
L452.678 241.756
L452.933 242.271
L453.061 241.756
L453.316 241.756
L453.444 242.802
L453.699 243.325
L454.082 243.325
L454.209 242.802
L454.465 242.802
L454.592 247.307
L454.847 245.015
L454.847 245.015
L454.975 247.822
L455.23 246.261
L455.358 223.253
L455.613 245.015
L455.741 245.015
L455.996 246.623
L456.123 246.623
L456.889 238.86
L457.272 234.959
L457.527 234.959
L457.655 243.204
L457.91 240.067
L458.293 240.067
L458.421 244.29
L458.676 243.245
L458.803 243.768
L459.059 244.29
L459.186 243.768
L459.569 243.768
L459.824 244.25
L459.952 244.773
L460.207 244.773
L460.335 246.784
L460.59 245.216
L460.718 242.601
L460.973 247.307
L461.101 258.98
L461.484 251.611
L461.739 245.739
L461.866 245.739
L462.504 243.044
L462.632 239.263
L463.015 241.998
L463.27 217.341
L463.398 216.053
L463.653 246.776
L463.781 245.739
L464.036 247.806
L464.163 247.798
L464.546 247.026
L464.801 245.98
L464.929 246.495
L465.184 246.43
L465.312 243.808
L465.695 243.792
L465.95 243.325
L466.078 244.894
L466.333 246.406
L466.46 245.377
L466.716 245.899
L466.843 245.899
L467.098 245.377
L467.098 245.377
L467.226 245.899
L467.481 245.377
L467.864 246.342
L467.992 244.25
L468.247 244.773
L468.757 244.653
L469.14 244.653
L469.396 244.13
L469.523 244.13
L469.778 243.607
L469.906 244.653
L470.161 244.653
L470.289 243.888
L470.544 244.13
L470.672 244.653
L471.055 244.653
L471.437 226.512
L471.693 185.081
L471.82 244.653
L472.075 244.17
L472.458 244.17
L472.586 244.693
L472.841 244.685
L472.969 243.647
L473.224 243.623
L473.607 242.038
L473.734 243.003
L473.99 243.084
L474.118 243.623
L474.373 243.631
L474.755 242.561
L474.883 243.124
L475.138 241.555
L475.266 242.561
L475.521 239.946
L475.649 239.946
L476.032 237.171
L476.414 143.651
L476.67 235.763
L476.797 232.787
L477.052 235.763
L477.18 233.511
L477.435 236.045
L477.563 234.918
L477.946 239.785
L478.201 242.561
L478.329 242.022
L478.711 240.912
L478.967 241.459
L479.094 242.038
L479.477 236.97
L479.732 237.05
L479.86 238.257
L480.498 228.241
L480.626 218.386
L480.881 239.906
L481.009 206.44
L481.264 239.89
L481.391 236.527
L481.774 235.361
L482.03 234.235
L482.157 229.319
L482.412 232.223
L482.54 231.057
L482.795 223.696
L483.306 237.654
L483.561 239.383
L483.689 237.131
L483.944 238.257
L484.071 239.906
L484.327 227.075
L484.454 227.075
L484.709 237.131
L484.837 231.741
L485.092 236.93
L485.22 224.702
L485.475 226.512
L485.858 245.698
L485.986 245.175
L486.241 246.213
L486.241 246.213
L486.368 245.167
L486.624 244.612
L486.751 245.674
L487.007 244.13
L487.134 244.13
L487.389 244.653
L487.517 244.653
L487.9 223.978
L488.155 226.994
L488.283 244.894
L488.538 244.87
L488.666 245.328
L488.921 242.802
L489.048 226.19
L489.304 243.325
L489.431 242.802
L489.686 243.317
L489.814 242.802
L490.069 241.233
L490.197 242.271
L490.452 241.748
L490.835 241.756
L490.963 240.188
L491.218 242.271
L491.345 241.233
L491.728 233.591
L491.984 233.591
L492.111 231.902
L492.366 231.821
L492.494 232.465
L492.749 231.338
L492.877 231.902
L493.132 231.338
L493.26 232.465
L493.515 231.902
L493.643 229.528
L493.898 231.861
L494.026 231.741
L494.281 231.178
L494.408 231.178
L494.663 230.574
L494.791 229.367
L495.046 229.367
L495.174 229.971
L495.429 228.161
L495.557 228.161
L495.94 233.591
L496.195 233.591
L496.322 233.028
L496.578 233.028
L496.705 240.992
L497.088 240.976
L497.343 240.429
L497.471 223.817
L497.726 240.59
L497.854 240.59
L498.109 240.349
L498.237 238.74
L498.492 237.935
L498.62 239.303
L498.875 238.74
L499.002 238.176
L499.258 235.28
L499.258 235.28
L499.385 237.042
L499.64 238.74
L500.023 231.821
L500.151 235.2
L500.406 227.718
L500.534 233.269
L500.789 234.074
L500.917 239.303
L501.299 240.389
L501.682 240.389
L501.938 239.785
L502.065 240.381
L502.32 245.698
L502.703 244.13
L502.831 244.644
L503.086 244.105
L503.214 243.55
L503.469 242.987
L503.852 240.992
L503.979 242.062
L504.235 239.263
L504.362 240.067
L504.617 240.067
L504.745 239.504
L504.873 240.067
L505.128 240.067
L505.383 242.07
L505.766 240.509
L505.894 240.509
L506.149 239.962
L506.532 239.987
L506.659 240.509
L507.042 239.383
L507.297 240.501
L507.425 239.946
L507.68 240.501
L507.808 240.501
L508.063 235.763
L508.191 235.763
L508.446 219.674
L508.574 227.115
L508.829 182.949
L509.212 238.659
L509.339 238.659
L509.595 187.495
L509.722 239.785
L509.977 238.096
L510.488 239.777
L510.743 239.777
L510.871 238.659
L511.126 239.222
L511.509 237.533
L511.892 240.501
L512.019 239.987
L512.274 239.423
L512.402 239.946
L512.657 230.252
L512.785 240.501
L513.423 238.86
L513.551 237.171
L513.806 240.509
L513.933 223.374
L514.189 239.979
L514.317 239.987
L514.572 237.774
L514.699 237.774
L514.954 239.785
L515.082 238.176
L515.465 238.096
L515.72 237.557
L515.848 237.557
L516.231 234.074
L516.486 234.637
L516.613 230.614
L516.869 235.2
L516.996 234.637
L517.251 235.2
L517.379 237.613
L517.634 239.987
L517.762 235.763
L518.017 243.406
L518.145 243.727
L518.4 240.952
L518.4 240.952" style="fill:none;stroke:#ff0000;stroke-linecap:square;"/>
   </g>
   <g id="line2d_2">
    <path clip-path="url(#pcb2bf987bf)" d="
M72 343.852
L72.7657 343.836
L73.2762 343.86
L82.7197 343.772
L83.1026 343.724
L87.3139 343.82
L87.8244 343.852
L105.563 343.764
L110.285 343.724
L121.004 343.764
L123.174 343.764
L124.705 343.804
L128.661 343.78
L130.831 343.844
L134.659 343.828
L144.613 343.836
L149.335 343.884
L153.164 343.876
L163.883 343.788
L167.712 343.748
L170.775 343.844
L174.603 343.788
L181.367 343.804
L185.961 343.852
L191.321 343.788
L191.321 343.788
L194.384 343.78
L198.978 343.74
L260.361 343.828
L260.489 343.901
L263.424 343.804
L263.424 343.804
L263.807 343.764
L385.935 343.667
L386.445 343.643
L388.232 343.699
L388.232 343.699
L388.36 345.453
L388.998 345.453
L389.125 343.74
L468.63 343.659
L469.14 343.627
L496.961 343.716
L497.343 343.756
L518.4 343.844
L518.4 343.844" style="fill:none;stroke:#008000;stroke-linecap:square;"/>
   </g>
   <g id="patch_3">
    <path d="
M72 43.2
L518.4 43.2" style="fill:none;stroke:#000000;stroke-linecap:square;stroke-linejoin:miter;"/>
   </g>
   <g id="patch_4">
    <path d="
M518.4 345.6
L518.4 43.2" style="fill:none;stroke:#000000;stroke-linecap:square;stroke-linejoin:miter;"/>
   </g>
   <g id="patch_5">
    <path d="
M72 345.6
L518.4 345.6" style="fill:none;stroke:#000000;stroke-linecap:square;stroke-linejoin:miter;"/>
   </g>
   <g id="patch_6">
    <path d="
M72 345.6
L72 43.2" style="fill:none;stroke:#000000;stroke-linecap:square;stroke-linejoin:miter;"/>
   </g>
   <g id="matplotlib.axis_1">
    <g id="xtick_1">
     <g id="line2d_3">
      <defs>
       <path d="
M0 0
L0 -4" id="m93b0483c22" style="stroke:#000000;stroke-width:0.5;"/>
      </defs>
      <g>
       <use style="stroke:#000000;stroke-width:0.5;" x="117.941468267" xlink:href="#m93b0483c22" y="345.6"/>
      </g>
     </g>
     <g id="line2d_4">
      <defs>
       <path d="
M0 0
L0 4" id="m741efc42ff" style="stroke:#000000;stroke-width:0.5;"/>
      </defs>
      <g>
       <use style="stroke:#000000;stroke-width:0.5;" x="117.941468267" xlink:href="#m741efc42ff" y="43.2"/>
      </g>
     </g>
     <g id="text_1">
      <!-- Oct 13 2015 -->
      <defs>
       <path d="
M19.1875 8.29688
L53.6094 8.29688
L53.6094 0
L7.32812 0
L7.32812 8.29688
Q12.9375 14.1094 22.625 23.8906
Q32.3281 33.6875 34.8125 36.5312
Q39.5469 41.8438 41.4219 45.5312
Q43.3125 49.2188 43.3125 52.7812
Q43.3125 58.5938 39.2344 62.25
Q35.1562 65.9219 28.6094 65.9219
Q23.9688 65.9219 18.8125 64.3125
Q13.6719 62.7031 7.8125 59.4219
L7.8125 69.3906
Q13.7656 71.7812 18.9375 73
Q24.125 74.2188 28.4219 74.2188
Q39.75 74.2188 46.4844 68.5469
Q53.2188 62.8906 53.2188 53.4219
Q53.2188 48.9219 51.5312 44.8906
Q49.8594 40.875 45.4062 35.4062
Q44.1875 33.9844 37.6406 27.2188
Q31.1094 20.4531 19.1875 8.29688" id="BitstreamVeraSans-Roman-32"/>
       <path d="
M39.4062 66.2188
Q28.6562 66.2188 22.3281 58.2031
Q16.0156 50.2031 16.0156 36.375
Q16.0156 22.6094 22.3281 14.5938
Q28.6562 6.59375 39.4062 6.59375
Q50.1406 6.59375 56.4219 14.5938
Q62.7031 22.6094 62.7031 36.375
Q62.7031 50.2031 56.4219 58.2031
Q50.1406 66.2188 39.4062 66.2188
M39.4062 74.2188
Q54.7344 74.2188 63.9062 63.9375
Q73.0938 53.6562 73.0938 36.375
Q73.0938 19.1406 63.9062 8.85938
Q54.7344 -1.42188 39.4062 -1.42188
Q24.0312 -1.42188 14.8125 8.82812
Q5.60938 19.0938 5.60938 36.375
Q5.60938 53.6562 14.8125 63.9375
Q24.0312 74.2188 39.4062 74.2188" id="BitstreamVeraSans-Roman-4f"/>
       <path d="
M31.7812 66.4062
Q24.1719 66.4062 20.3281 58.9062
Q16.5 51.4219 16.5 36.375
Q16.5 21.3906 20.3281 13.8906
Q24.1719 6.39062 31.7812 6.39062
Q39.4531 6.39062 43.2812 13.8906
Q47.125 21.3906 47.125 36.375
Q47.125 51.4219 43.2812 58.9062
Q39.4531 66.4062 31.7812 66.4062
M31.7812 74.2188
Q44.0469 74.2188 50.5156 64.5156
Q56.9844 54.8281 56.9844 36.375
Q56.9844 17.9688 50.5156 8.26562
Q44.0469 -1.42188 31.7812 -1.42188
Q19.5312 -1.42188 13.0625 8.26562
Q6.59375 17.9688 6.59375 36.375
Q6.59375 54.8281 13.0625 64.5156
Q19.5312 74.2188 31.7812 74.2188" id="BitstreamVeraSans-Roman-30"/>
       <path d="
M12.4062 8.29688
L28.5156 8.29688
L28.5156 63.9219
L10.9844 60.4062
L10.9844 69.3906
L28.4219 72.9062
L38.2812 72.9062
L38.2812 8.29688
L54.3906 8.29688
L54.3906 0
L12.4062 0
z
" id="BitstreamVeraSans-Roman-31"/>
       <path d="
M40.5781 39.3125
Q47.6562 37.7969 51.625 33
Q55.6094 28.2188 55.6094 21.1875
Q55.6094 10.4062 48.1875 4.48438
Q40.7656 -1.42188 27.0938 -1.42188
Q22.5156 -1.42188 17.6562 -0.515625
Q12.7969 0.390625 7.625 2.20312
L7.625 11.7188
Q11.7188 9.32812 16.5938 8.10938
Q21.4844 6.89062 26.8125 6.89062
Q36.0781 6.89062 40.9375 10.5469
Q45.7969 14.2031 45.7969 21.1875
Q45.7969 27.6406 41.2812 31.2656
Q36.7656 34.9062 28.7188 34.9062
L20.2188 34.9062
L20.2188 43.0156
L29.1094 43.0156
Q36.375 43.0156 40.2344 45.9219
Q44.0938 48.8281 44.0938 54.2969
Q44.0938 59.9062 40.1094 62.9062
Q36.1406 65.9219 28.7188 65.9219
Q24.6562 65.9219 20.0156 65.0312
Q15.375 64.1562 9.8125 62.3125
L9.8125 71.0938
Q15.4375 72.6562 20.3438 73.4375
Q25.25 74.2188 29.5938 74.2188
Q40.8281 74.2188 47.3594 69.1094
Q53.9062 64.0156 53.9062 55.3281
Q53.9062 49.2656 50.4375 45.0938
Q46.9688 40.9219 40.5781 39.3125" id="BitstreamVeraSans-Roman-33"/>
       <path id="BitstreamVeraSans-Roman-20"/>
       <path d="
M10.7969 72.9062
L49.5156 72.9062
L49.5156 64.5938
L19.8281 64.5938
L19.8281 46.7344
Q21.9688 47.4688 24.1094 47.8281
Q26.2656 48.1875 28.4219 48.1875
Q40.625 48.1875 47.75 41.5
Q54.8906 34.8125 54.8906 23.3906
Q54.8906 11.625 47.5625 5.09375
Q40.2344 -1.42188 26.9062 -1.42188
Q22.3125 -1.42188 17.5469 -0.640625
Q12.7969 0.140625 7.71875 1.70312
L7.71875 11.625
Q12.1094 9.23438 16.7969 8.0625
Q21.4844 6.89062 26.7031 6.89062
Q35.1562 6.89062 40.0781 11.3281
Q45.0156 15.7656 45.0156 23.3906
Q45.0156 31 40.0781 35.4375
Q35.1562 39.8906 26.7031 39.8906
Q22.75 39.8906 18.8125 39.0156
Q14.8906 38.1406 10.7969 36.2812
z
" id="BitstreamVeraSans-Roman-35"/>
       <path d="
M18.3125 70.2188
L18.3125 54.6875
L36.8125 54.6875
L36.8125 47.7031
L18.3125 47.7031
L18.3125 18.0156
Q18.3125 11.3281 20.1406 9.42188
Q21.9688 7.51562 27.5938 7.51562
L36.8125 7.51562
L36.8125 0
L27.5938 0
Q17.1875 0 13.2344 3.875
Q9.28125 7.76562 9.28125 18.0156
L9.28125 47.7031
L2.6875 47.7031
L2.6875 54.6875
L9.28125 54.6875
L9.28125 70.2188
z
" id="BitstreamVeraSans-Roman-74"/>
       <path d="
M48.7812 52.5938
L48.7812 44.1875
Q44.9688 46.2969 41.1406 47.3438
Q37.3125 48.3906 33.4062 48.3906
Q24.6562 48.3906 19.8125 42.8438
Q14.9844 37.3125 14.9844 27.2969
Q14.9844 17.2812 19.8125 11.7344
Q24.6562 6.20312 33.4062 6.20312
Q37.3125 6.20312 41.1406 7.25
Q44.9688 8.29688 48.7812 10.4062
L48.7812 2.09375
Q45.0156 0.34375 40.9844 -0.53125
Q36.9688 -1.42188 32.4219 -1.42188
Q20.0625 -1.42188 12.7812 6.34375
Q5.51562 14.1094 5.51562 27.2969
Q5.51562 40.6719 12.8594 48.3281
Q20.2188 56 33.0156 56
Q37.1562 56 41.1094 55.1406
Q45.0625 54.2969 48.7812 52.5938" id="BitstreamVeraSans-Roman-63"/>
      </defs>
      <g transform="translate(53.3541815316 394.065590385)rotate(-30.0)scale(0.12 -0.12)">
       <use xlink:href="#BitstreamVeraSans-Roman-4f"/>
       <use x="78.7109375" xlink:href="#BitstreamVeraSans-Roman-63"/>
       <use x="133.69140625" xlink:href="#BitstreamVeraSans-Roman-74"/>
       <use x="172.900390625" xlink:href="#BitstreamVeraSans-Roman-20"/>
       <use x="204.6875" xlink:href="#BitstreamVeraSans-Roman-31"/>
       <use x="268.310546875" xlink:href="#BitstreamVeraSans-Roman-33"/>
       <use x="331.93359375" xlink:href="#BitstreamVeraSans-Roman-20"/>
       <use x="363.720703125" xlink:href="#BitstreamVeraSans-Roman-32"/>
       <use x="427.34375" xlink:href="#BitstreamVeraSans-Roman-30"/>
       <use x="490.966796875" xlink:href="#BitstreamVeraSans-Roman-31"/>
       <use x="554.58984375" xlink:href="#BitstreamVeraSans-Roman-35"/>
      </g>
     </g>
    </g>
    <g id="xtick_2">
     <g id="line2d_5">
      <g>
       <use style="stroke:#000000;stroke-width:0.5;" x="173.071485419" xlink:href="#m93b0483c22" y="345.6"/>
      </g>
     </g>
     <g id="line2d_6">
      <g>
       <use style="stroke:#000000;stroke-width:0.5;" x="173.071485419" xlink:href="#m741efc42ff" y="43.2"/>
      </g>
     </g>
     <g id="text_2">
      <!-- Oct 16 2015 -->
      <defs>
       <path d="
M33.0156 40.375
Q26.375 40.375 22.4844 35.8281
Q18.6094 31.2969 18.6094 23.3906
Q18.6094 15.5312 22.4844 10.9531
Q26.375 6.39062 33.0156 6.39062
Q39.6562 6.39062 43.5312 10.9531
Q47.4062 15.5312 47.4062 23.3906
Q47.4062 31.2969 43.5312 35.8281
Q39.6562 40.375 33.0156 40.375
M52.5938 71.2969
L52.5938 62.3125
Q48.875 64.0625 45.0938 64.9844
Q41.3125 65.9219 37.5938 65.9219
Q27.8281 65.9219 22.6719 59.3281
Q17.5312 52.7344 16.7969 39.4062
Q19.6719 43.6562 24.0156 45.9219
Q28.375 48.1875 33.5938 48.1875
Q44.5781 48.1875 50.9531 41.5156
Q57.3281 34.8594 57.3281 23.3906
Q57.3281 12.1562 50.6875 5.35938
Q44.0469 -1.42188 33.0156 -1.42188
Q20.3594 -1.42188 13.6719 8.26562
Q6.98438 17.9688 6.98438 36.375
Q6.98438 53.6562 15.1875 63.9375
Q23.3906 74.2188 37.2031 74.2188
Q40.9219 74.2188 44.7031 73.4844
Q48.4844 72.75 52.5938 71.2969" id="BitstreamVeraSans-Roman-36"/>
      </defs>
      <g transform="translate(108.484198684 394.065590385)rotate(-30.0)scale(0.12 -0.12)">
       <use xlink:href="#BitstreamVeraSans-Roman-4f"/>
       <use x="78.7109375" xlink:href="#BitstreamVeraSans-Roman-63"/>
       <use x="133.69140625" xlink:href="#BitstreamVeraSans-Roman-74"/>
       <use x="172.900390625" xlink:href="#BitstreamVeraSans-Roman-20"/>
       <use x="204.6875" xlink:href="#BitstreamVeraSans-Roman-31"/>
       <use x="268.310546875" xlink:href="#BitstreamVeraSans-Roman-36"/>
       <use x="331.93359375" xlink:href="#BitstreamVeraSans-Roman-20"/>
       <use x="363.720703125" xlink:href="#BitstreamVeraSans-Roman-32"/>
       <use x="427.34375" xlink:href="#BitstreamVeraSans-Roman-30"/>
       <use x="490.966796875" xlink:href="#BitstreamVeraSans-Roman-31"/>
       <use x="554.58984375" xlink:href="#BitstreamVeraSans-Roman-35"/>
      </g>
     </g>
    </g>
    <g id="xtick_3">
     <g id="line2d_7">
      <g>
       <use style="stroke:#000000;stroke-width:0.5;" x="228.201502573" xlink:href="#m93b0483c22" y="345.6"/>
      </g>
     </g>
     <g id="line2d_8">
      <g>
       <use style="stroke:#000000;stroke-width:0.5;" x="228.201502573" xlink:href="#m741efc42ff" y="43.2"/>
      </g>
     </g>
     <g id="text_3">
      <!-- Oct 19 2015 -->
      <defs>
       <path d="
M10.9844 1.51562
L10.9844 10.5
Q14.7031 8.73438 18.5 7.8125
Q22.3125 6.89062 25.9844 6.89062
Q35.75 6.89062 40.8906 13.4531
Q46.0469 20.0156 46.7812 33.4062
Q43.9531 29.2031 39.5938 26.9531
Q35.25 24.7031 29.9844 24.7031
Q19.0469 24.7031 12.6719 31.3125
Q6.29688 37.9375 6.29688 49.4219
Q6.29688 60.6406 12.9375 67.4219
Q19.5781 74.2188 30.6094 74.2188
Q43.2656 74.2188 49.9219 64.5156
Q56.5938 54.8281 56.5938 36.375
Q56.5938 19.1406 48.4062 8.85938
Q40.2344 -1.42188 26.4219 -1.42188
Q22.7031 -1.42188 18.8906 -0.6875
Q15.0938 0.046875 10.9844 1.51562
M30.6094 32.4219
Q37.25 32.4219 41.125 36.9531
Q45.0156 41.5 45.0156 49.4219
Q45.0156 57.2812 41.125 61.8438
Q37.25 66.4062 30.6094 66.4062
Q23.9688 66.4062 20.0938 61.8438
Q16.2188 57.2812 16.2188 49.4219
Q16.2188 41.5 20.0938 36.9531
Q23.9688 32.4219 30.6094 32.4219" id="BitstreamVeraSans-Roman-39"/>
      </defs>
      <g transform="translate(163.614215838 394.065590385)rotate(-30.0)scale(0.12 -0.12)">
       <use xlink:href="#BitstreamVeraSans-Roman-4f"/>
       <use x="78.7109375" xlink:href="#BitstreamVeraSans-Roman-63"/>
       <use x="133.69140625" xlink:href="#BitstreamVeraSans-Roman-74"/>
       <use x="172.900390625" xlink:href="#BitstreamVeraSans-Roman-20"/>
       <use x="204.6875" xlink:href="#BitstreamVeraSans-Roman-31"/>
       <use x="268.310546875" xlink:href="#BitstreamVeraSans-Roman-39"/>
       <use x="331.93359375" xlink:href="#BitstreamVeraSans-Roman-20"/>
       <use x="363.720703125" xlink:href="#BitstreamVeraSans-Roman-32"/>
       <use x="427.34375" xlink:href="#BitstreamVeraSans-Roman-30"/>
       <use x="490.966796875" xlink:href="#BitstreamVeraSans-Roman-31"/>
       <use x="554.58984375" xlink:href="#BitstreamVeraSans-Roman-35"/>
      </g>
     </g>
    </g>
    <g id="xtick_4">
     <g id="line2d_9">
      <g>
       <use style="stroke:#000000;stroke-width:0.5;" x="283.331519725" xlink:href="#m93b0483c22" y="345.6"/>
      </g>
     </g>
     <g id="line2d_10">
      <g>
       <use style="stroke:#000000;stroke-width:0.5;" x="283.331519725" xlink:href="#m741efc42ff" y="43.2"/>
      </g>
     </g>
     <g id="text_4">
      <!-- Oct 22 2015 -->
      <g transform="translate(218.74423299 394.065590385)rotate(-30.0)scale(0.12 -0.12)">
       <use xlink:href="#BitstreamVeraSans-Roman-4f"/>
       <use x="78.7109375" xlink:href="#BitstreamVeraSans-Roman-63"/>
       <use x="133.69140625" xlink:href="#BitstreamVeraSans-Roman-74"/>
       <use x="172.900390625" xlink:href="#BitstreamVeraSans-Roman-20"/>
       <use x="204.6875" xlink:href="#BitstreamVeraSans-Roman-32"/>
       <use x="268.310546875" xlink:href="#BitstreamVeraSans-Roman-32"/>
       <use x="331.93359375" xlink:href="#BitstreamVeraSans-Roman-20"/>
       <use x="363.720703125" xlink:href="#BitstreamVeraSans-Roman-32"/>
       <use x="427.34375" xlink:href="#BitstreamVeraSans-Roman-30"/>
       <use x="490.966796875" xlink:href="#BitstreamVeraSans-Roman-31"/>
       <use x="554.58984375" xlink:href="#BitstreamVeraSans-Roman-35"/>
      </g>
     </g>
    </g>
    <g id="xtick_5">
     <g id="line2d_11">
      <g>
       <use style="stroke:#000000;stroke-width:0.5;" x="338.461536877" xlink:href="#m93b0483c22" y="345.6"/>
      </g>
     </g>
     <g id="line2d_12">
      <g>
       <use style="stroke:#000000;stroke-width:0.5;" x="338.461536877" xlink:href="#m741efc42ff" y="43.2"/>
      </g>
     </g>
     <g id="text_5">
      <!-- Oct 25 2015 -->
      <g transform="translate(273.874250142 394.065590385)rotate(-30.0)scale(0.12 -0.12)">
       <use xlink:href="#BitstreamVeraSans-Roman-4f"/>
       <use x="78.7109375" xlink:href="#BitstreamVeraSans-Roman-63"/>
       <use x="133.69140625" xlink:href="#BitstreamVeraSans-Roman-74"/>
       <use x="172.900390625" xlink:href="#BitstreamVeraSans-Roman-20"/>
       <use x="204.6875" xlink:href="#BitstreamVeraSans-Roman-32"/>
       <use x="268.310546875" xlink:href="#BitstreamVeraSans-Roman-35"/>
       <use x="331.93359375" xlink:href="#BitstreamVeraSans-Roman-20"/>
       <use x="363.720703125" xlink:href="#BitstreamVeraSans-Roman-32"/>
       <use x="427.34375" xlink:href="#BitstreamVeraSans-Roman-30"/>
       <use x="490.966796875" xlink:href="#BitstreamVeraSans-Roman-31"/>
       <use x="554.58984375" xlink:href="#BitstreamVeraSans-Roman-35"/>
      </g>
     </g>
    </g>
    <g id="xtick_6">
     <g id="line2d_13">
      <g>
       <use style="stroke:#000000;stroke-width:0.5;" x="393.591554031" xlink:href="#m93b0483c22" y="345.6"/>
      </g>
     </g>
     <g id="line2d_14">
      <g>
       <use style="stroke:#000000;stroke-width:0.5;" x="393.591554031" xlink:href="#m741efc42ff" y="43.2"/>
      </g>
     </g>
     <g id="text_6">
      <!-- Oct 28 2015 -->
      <defs>
       <path d="
M31.7812 34.625
Q24.75 34.625 20.7188 30.8594
Q16.7031 27.0938 16.7031 20.5156
Q16.7031 13.9219 20.7188 10.1562
Q24.75 6.39062 31.7812 6.39062
Q38.8125 6.39062 42.8594 10.1719
Q46.9219 13.9688 46.9219 20.5156
Q46.9219 27.0938 42.8906 30.8594
Q38.875 34.625 31.7812 34.625
M21.9219 38.8125
Q15.5781 40.375 12.0312 44.7188
Q8.5 49.0781 8.5 55.3281
Q8.5 64.0625 14.7188 69.1406
Q20.9531 74.2188 31.7812 74.2188
Q42.6719 74.2188 48.875 69.1406
Q55.0781 64.0625 55.0781 55.3281
Q55.0781 49.0781 51.5312 44.7188
Q48 40.375 41.7031 38.8125
Q48.8281 37.1562 52.7969 32.3125
Q56.7812 27.4844 56.7812 20.5156
Q56.7812 9.90625 50.3125 4.23438
Q43.8438 -1.42188 31.7812 -1.42188
Q19.7344 -1.42188 13.25 4.23438
Q6.78125 9.90625 6.78125 20.5156
Q6.78125 27.4844 10.7812 32.3125
Q14.7969 37.1562 21.9219 38.8125
M18.3125 54.3906
Q18.3125 48.7344 21.8438 45.5625
Q25.3906 42.3906 31.7812 42.3906
Q38.1406 42.3906 41.7188 45.5625
Q45.3125 48.7344 45.3125 54.3906
Q45.3125 60.0625 41.7188 63.2344
Q38.1406 66.4062 31.7812 66.4062
Q25.3906 66.4062 21.8438 63.2344
Q18.3125 60.0625 18.3125 54.3906" id="BitstreamVeraSans-Roman-38"/>
      </defs>
      <g transform="translate(329.004267296 394.065590385)rotate(-30.0)scale(0.12 -0.12)">
       <use xlink:href="#BitstreamVeraSans-Roman-4f"/>
       <use x="78.7109375" xlink:href="#BitstreamVeraSans-Roman-63"/>
       <use x="133.69140625" xlink:href="#BitstreamVeraSans-Roman-74"/>
       <use x="172.900390625" xlink:href="#BitstreamVeraSans-Roman-20"/>
       <use x="204.6875" xlink:href="#BitstreamVeraSans-Roman-32"/>
       <use x="268.310546875" xlink:href="#BitstreamVeraSans-Roman-38"/>
       <use x="331.93359375" xlink:href="#BitstreamVeraSans-Roman-20"/>
       <use x="363.720703125" xlink:href="#BitstreamVeraSans-Roman-32"/>
       <use x="427.34375" xlink:href="#BitstreamVeraSans-Roman-30"/>
       <use x="490.966796875" xlink:href="#BitstreamVeraSans-Roman-31"/>
       <use x="554.58984375" xlink:href="#BitstreamVeraSans-Roman-35"/>
      </g>
     </g>
    </g>
    <g id="xtick_7">
     <g id="line2d_15">
      <g>
       <use style="stroke:#000000;stroke-width:0.5;" x="448.721571183" xlink:href="#m93b0483c22" y="345.6"/>
      </g>
     </g>
     <g id="line2d_16">
      <g>
       <use style="stroke:#000000;stroke-width:0.5;" x="448.721571183" xlink:href="#m741efc42ff" y="43.2"/>
      </g>
     </g>
     <g id="text_7">
      <!-- Oct 31 2015 -->
      <g transform="translate(384.134284448 394.065590385)rotate(-30.0)scale(0.12 -0.12)">
       <use xlink:href="#BitstreamVeraSans-Roman-4f"/>
       <use x="78.7109375" xlink:href="#BitstreamVeraSans-Roman-63"/>
       <use x="133.69140625" xlink:href="#BitstreamVeraSans-Roman-74"/>
       <use x="172.900390625" xlink:href="#BitstreamVeraSans-Roman-20"/>
       <use x="204.6875" xlink:href="#BitstreamVeraSans-Roman-33"/>
       <use x="268.310546875" xlink:href="#BitstreamVeraSans-Roman-31"/>
       <use x="331.93359375" xlink:href="#BitstreamVeraSans-Roman-20"/>
       <use x="363.720703125" xlink:href="#BitstreamVeraSans-Roman-32"/>
       <use x="427.34375" xlink:href="#BitstreamVeraSans-Roman-30"/>
       <use x="490.966796875" xlink:href="#BitstreamVeraSans-Roman-31"/>
       <use x="554.58984375" xlink:href="#BitstreamVeraSans-Roman-35"/>
      </g>
     </g>
    </g>
    <g id="xtick_8">
     <g id="line2d_17">
      <g>
       <use style="stroke:#000000;stroke-width:0.5;" x="503.851588335" xlink:href="#m93b0483c22" y="345.6"/>
      </g>
     </g>
     <g id="line2d_18">
      <g>
       <use style="stroke:#000000;stroke-width:0.5;" x="503.851588335" xlink:href="#m741efc42ff" y="43.2"/>
      </g>
     </g>
     <g id="text_8">
      <!-- Nov 03 2015 -->
      <defs>
       <path d="
M2.98438 54.6875
L12.5 54.6875
L29.5938 8.79688
L46.6875 54.6875
L56.2031 54.6875
L35.6875 0
L23.4844 0
z
" id="BitstreamVeraSans-Roman-76"/>
       <path d="
M9.8125 72.9062
L23.0938 72.9062
L55.4219 11.9219
L55.4219 72.9062
L64.9844 72.9062
L64.9844 0
L51.7031 0
L19.3906 60.9844
L19.3906 0
L9.8125 0
z
" id="BitstreamVeraSans-Roman-4e"/>
       <path d="
M30.6094 48.3906
Q23.3906 48.3906 19.1875 42.75
Q14.9844 37.1094 14.9844 27.2969
Q14.9844 17.4844 19.1562 11.8438
Q23.3438 6.20312 30.6094 6.20312
Q37.7969 6.20312 41.9844 11.8594
Q46.1875 17.5312 46.1875 27.2969
Q46.1875 37.0156 41.9844 42.7031
Q37.7969 48.3906 30.6094 48.3906
M30.6094 56
Q42.3281 56 49.0156 48.375
Q55.7188 40.7656 55.7188 27.2969
Q55.7188 13.875 49.0156 6.21875
Q42.3281 -1.42188 30.6094 -1.42188
Q18.8438 -1.42188 12.1719 6.21875
Q5.51562 13.875 5.51562 27.2969
Q5.51562 40.7656 12.1719 48.375
Q18.8438 56 30.6094 56" id="BitstreamVeraSans-Roman-6f"/>
      </defs>
      <g transform="translate(436.948766176 395.402465385)rotate(-30.0)scale(0.12 -0.12)">
       <use xlink:href="#BitstreamVeraSans-Roman-4e"/>
       <use x="74.8046875" xlink:href="#BitstreamVeraSans-Roman-6f"/>
       <use x="135.986328125" xlink:href="#BitstreamVeraSans-Roman-76"/>
       <use x="195.166015625" xlink:href="#BitstreamVeraSans-Roman-20"/>
       <use x="226.953125" xlink:href="#BitstreamVeraSans-Roman-30"/>
       <use x="290.576171875" xlink:href="#BitstreamVeraSans-Roman-33"/>
       <use x="354.19921875" xlink:href="#BitstreamVeraSans-Roman-20"/>
       <use x="385.986328125" xlink:href="#BitstreamVeraSans-Roman-32"/>
       <use x="449.609375" xlink:href="#BitstreamVeraSans-Roman-30"/>
       <use x="513.232421875" xlink:href="#BitstreamVeraSans-Roman-31"/>
       <use x="576.85546875" xlink:href="#BitstreamVeraSans-Roman-35"/>
      </g>
     </g>
    </g>
   </g>
   <g id="matplotlib.axis_2">
    <g id="ytick_1">
     <g id="line2d_19">
      <defs>
       <path d="
M0 0
L4 0" id="m728421d6d4" style="stroke:#000000;stroke-width:0.5;"/>
      </defs>
      <g>
       <use style="stroke:#000000;stroke-width:0.5;" x="72.0" xlink:href="#m728421d6d4" y="308.165784556"/>
      </g>
     </g>
     <g id="line2d_20">
      <defs>
       <path d="
M0 0
L-4 0" id="mcb0005524f" style="stroke:#000000;stroke-width:0.5;"/>
      </defs>
      <g>
       <use style="stroke:#000000;stroke-width:0.5;" x="518.4" xlink:href="#mcb0005524f" y="308.165784556"/>
      </g>
     </g>
     <g id="text_9">
      <!-- 5000 -->
      <g transform="translate(39.183125 311.477034556)scale(0.12 -0.12)">
       <use xlink:href="#BitstreamVeraSans-Roman-35"/>
       <use x="63.623046875" xlink:href="#BitstreamVeraSans-Roman-30"/>
       <use x="127.24609375" xlink:href="#BitstreamVeraSans-Roman-30"/>
       <use x="190.869140625" xlink:href="#BitstreamVeraSans-Roman-30"/>
      </g>
     </g>
    </g>
    <g id="ytick_2">
     <g id="line2d_21">
      <g>
       <use style="stroke:#000000;stroke-width:0.5;" x="72.0" xlink:href="#m728421d6d4" y="267.942053352"/>
      </g>
     </g>
     <g id="line2d_22">
      <g>
       <use style="stroke:#000000;stroke-width:0.5;" x="518.4" xlink:href="#mcb0005524f" y="267.942053352"/>
      </g>
     </g>
     <g id="text_10">
      <!-- 10000 -->
      <g transform="translate(31.94 271.253303352)scale(0.12 -0.12)">
       <use xlink:href="#BitstreamVeraSans-Roman-31"/>
       <use x="63.623046875" xlink:href="#BitstreamVeraSans-Roman-30"/>
       <use x="127.24609375" xlink:href="#BitstreamVeraSans-Roman-30"/>
       <use x="190.869140625" xlink:href="#BitstreamVeraSans-Roman-30"/>
       <use x="254.4921875" xlink:href="#BitstreamVeraSans-Roman-30"/>
      </g>
     </g>
    </g>
    <g id="ytick_3">
     <g id="line2d_23">
      <g>
       <use style="stroke:#000000;stroke-width:0.5;" x="72.0" xlink:href="#m728421d6d4" y="227.718322149"/>
      </g>
     </g>
     <g id="line2d_24">
      <g>
       <use style="stroke:#000000;stroke-width:0.5;" x="518.4" xlink:href="#mcb0005524f" y="227.718322149"/>
      </g>
     </g>
     <g id="text_11">
      <!-- 15000 -->
      <g transform="translate(31.94 231.029572149)scale(0.12 -0.12)">
       <use xlink:href="#BitstreamVeraSans-Roman-31"/>
       <use x="63.623046875" xlink:href="#BitstreamVeraSans-Roman-35"/>
       <use x="127.24609375" xlink:href="#BitstreamVeraSans-Roman-30"/>
       <use x="190.869140625" xlink:href="#BitstreamVeraSans-Roman-30"/>
       <use x="254.4921875" xlink:href="#BitstreamVeraSans-Roman-30"/>
      </g>
     </g>
    </g>
    <g id="ytick_4">
     <g id="line2d_25">
      <g>
       <use style="stroke:#000000;stroke-width:0.5;" x="72.0" xlink:href="#m728421d6d4" y="187.494590946"/>
      </g>
     </g>
     <g id="line2d_26">
      <g>
       <use style="stroke:#000000;stroke-width:0.5;" x="518.4" xlink:href="#mcb0005524f" y="187.494590946"/>
      </g>
     </g>
     <g id="text_12">
      <!-- 20000 -->
      <g transform="translate(31.50125 190.805840946)scale(0.12 -0.12)">
       <use xlink:href="#BitstreamVeraSans-Roman-32"/>
       <use x="63.623046875" xlink:href="#BitstreamVeraSans-Roman-30"/>
       <use x="127.24609375" xlink:href="#BitstreamVeraSans-Roman-30"/>
       <use x="190.869140625" xlink:href="#BitstreamVeraSans-Roman-30"/>
       <use x="254.4921875" xlink:href="#BitstreamVeraSans-Roman-30"/>
      </g>
     </g>
    </g>
    <g id="ytick_5">
     <g id="line2d_27">
      <g>
       <use style="stroke:#000000;stroke-width:0.5;" x="72.0" xlink:href="#m728421d6d4" y="147.270859742"/>
      </g>
     </g>
     <g id="line2d_28">
      <g>
       <use style="stroke:#000000;stroke-width:0.5;" x="518.4" xlink:href="#mcb0005524f" y="147.270859742"/>
      </g>
     </g>
     <g id="text_13">
      <!-- 25000 -->
      <g transform="translate(31.50125 150.582109742)scale(0.12 -0.12)">
       <use xlink:href="#BitstreamVeraSans-Roman-32"/>
       <use x="63.623046875" xlink:href="#BitstreamVeraSans-Roman-35"/>
       <use x="127.24609375" xlink:href="#BitstreamVeraSans-Roman-30"/>
       <use x="190.869140625" xlink:href="#BitstreamVeraSans-Roman-30"/>
       <use x="254.4921875" xlink:href="#BitstreamVeraSans-Roman-30"/>
      </g>
     </g>
    </g>
    <g id="ytick_6">
     <g id="line2d_29">
      <g>
       <use style="stroke:#000000;stroke-width:0.5;" x="72.0" xlink:href="#m728421d6d4" y="107.047128539"/>
      </g>
     </g>
     <g id="line2d_30">
      <g>
       <use style="stroke:#000000;stroke-width:0.5;" x="518.4" xlink:href="#mcb0005524f" y="107.047128539"/>
      </g>
     </g>
     <g id="text_14">
      <!-- 30000 -->
      <g transform="translate(31.536875 110.358378539)scale(0.12 -0.12)">
       <use xlink:href="#BitstreamVeraSans-Roman-33"/>
       <use x="63.623046875" xlink:href="#BitstreamVeraSans-Roman-30"/>
       <use x="127.24609375" xlink:href="#BitstreamVeraSans-Roman-30"/>
       <use x="190.869140625" xlink:href="#BitstreamVeraSans-Roman-30"/>
       <use x="254.4921875" xlink:href="#BitstreamVeraSans-Roman-30"/>
      </g>
     </g>
    </g>
    <g id="ytick_7">
     <g id="line2d_31">
      <g>
       <use style="stroke:#000000;stroke-width:0.5;" x="72.0" xlink:href="#m728421d6d4" y="66.8233973357"/>
      </g>
     </g>
     <g id="line2d_32">
      <g>
       <use style="stroke:#000000;stroke-width:0.5;" x="518.4" xlink:href="#mcb0005524f" y="66.8233973357"/>
      </g>
     </g>
     <g id="text_15">
      <!-- 35000 -->
      <g transform="translate(31.536875 70.1346473357)scale(0.12 -0.12)">
       <use xlink:href="#BitstreamVeraSans-Roman-33"/>
       <use x="63.623046875" xlink:href="#BitstreamVeraSans-Roman-35"/>
       <use x="127.24609375" xlink:href="#BitstreamVeraSans-Roman-30"/>
       <use x="190.869140625" xlink:href="#BitstreamVeraSans-Roman-30"/>
       <use x="254.4921875" xlink:href="#BitstreamVeraSans-Roman-30"/>
      </g>
     </g>
    </g>
   </g>
   <g id="text_16">
    <!-- Alte Reifen -->
    <defs>
     <path d="
M54.8906 33.0156
L54.8906 0
L45.9062 0
L45.9062 32.7188
Q45.9062 40.4844 42.875 44.3281
Q39.8438 48.1875 33.7969 48.1875
Q26.5156 48.1875 22.3125 43.5469
Q18.1094 38.9219 18.1094 30.9062
L18.1094 0
L9.07812 0
L9.07812 54.6875
L18.1094 54.6875
L18.1094 46.1875
Q21.3438 51.125 25.7031 53.5625
Q30.0781 56 35.7969 56
Q45.2188 56 50.0469 50.1719
Q54.8906 44.3438 54.8906 33.0156" id="BitstreamVeraSans-Roman-6e"/>
     <path d="
M9.42188 75.9844
L18.4062 75.9844
L18.4062 0
L9.42188 0
z
" id="BitstreamVeraSans-Roman-6c"/>
     <path d="
M44.3906 34.1875
Q47.5625 33.1094 50.5625 29.5938
Q53.5625 26.0781 56.5938 19.9219
L66.6094 0
L56 0
L46.6875 18.7031
Q43.0625 26.0312 39.6719 28.4219
Q36.2812 30.8125 30.4219 30.8125
L19.6719 30.8125
L19.6719 0
L9.8125 0
L9.8125 72.9062
L32.0781 72.9062
Q44.5781 72.9062 50.7344 67.6719
Q56.8906 62.4531 56.8906 51.9062
Q56.8906 45.0156 53.6875 40.4688
Q50.4844 35.9375 44.3906 34.1875
M19.6719 64.7969
L19.6719 38.9219
L32.0781 38.9219
Q39.2031 38.9219 42.8438 42.2188
Q46.4844 45.5156 46.4844 51.9062
Q46.4844 58.2969 42.8438 61.5469
Q39.2031 64.7969 32.0781 64.7969
z
" id="BitstreamVeraSans-Roman-52"/>
     <path d="
M9.42188 54.6875
L18.4062 54.6875
L18.4062 0
L9.42188 0
z

M9.42188 75.9844
L18.4062 75.9844
L18.4062 64.5938
L9.42188 64.5938
z
" id="BitstreamVeraSans-Roman-69"/>
     <path d="
M34.1875 63.1875
L20.7969 26.9062
L47.6094 26.9062
z

M28.6094 72.9062
L39.7969 72.9062
L67.5781 0
L57.3281 0
L50.6875 18.7031
L17.8281 18.7031
L11.1875 0
L0.78125 0
z
" id="BitstreamVeraSans-Roman-41"/>
     <path d="
M56.2031 29.5938
L56.2031 25.2031
L14.8906 25.2031
Q15.4844 15.9219 20.4844 11.0625
Q25.4844 6.20312 34.4219 6.20312
Q39.5938 6.20312 44.4531 7.46875
Q49.3125 8.73438 54.1094 11.2812
L54.1094 2.78125
Q49.2656 0.734375 44.1875 -0.34375
Q39.1094 -1.42188 33.8906 -1.42188
Q20.7969 -1.42188 13.1562 6.1875
Q5.51562 13.8125 5.51562 26.8125
Q5.51562 40.2344 12.7656 48.1094
Q20.0156 56 32.3281 56
Q43.3594 56 49.7812 48.8906
Q56.2031 41.7969 56.2031 29.5938
M47.2188 32.2344
Q47.125 39.5938 43.0938 43.9844
Q39.0625 48.3906 32.4219 48.3906
Q24.9062 48.3906 20.3906 44.1406
Q15.875 39.8906 15.1875 32.1719
z
" id="BitstreamVeraSans-Roman-65"/>
     <path d="
M37.1094 75.9844
L37.1094 68.5
L28.5156 68.5
Q23.6875 68.5 21.7969 66.5469
Q19.9219 64.5938 19.9219 59.5156
L19.9219 54.6875
L34.7188 54.6875
L34.7188 47.7031
L19.9219 47.7031
L19.9219 0
L10.8906 0
L10.8906 47.7031
L2.29688 47.7031
L2.29688 54.6875
L10.8906 54.6875
L10.8906 58.5
Q10.8906 67.625 15.1406 71.7969
Q19.3906 75.9844 28.6094 75.9844
z
" id="BitstreamVeraSans-Roman-66"/>
    </defs>
    <g transform="translate(441.414 38.2)scale(0.144 -0.144)">
     <use xlink:href="#BitstreamVeraSans-Roman-41"/>
     <use x="68.408203125" xlink:href="#BitstreamVeraSans-Roman-6c"/>
     <use x="96.19140625" xlink:href="#BitstreamVeraSans-Roman-74"/>
     <use x="135.400390625" xlink:href="#BitstreamVeraSans-Roman-65"/>
     <use x="196.923828125" xlink:href="#BitstreamVeraSans-Roman-20"/>
     <use x="228.7109375" xlink:href="#BitstreamVeraSans-Roman-52"/>
     <use x="293.693359375" xlink:href="#BitstreamVeraSans-Roman-65"/>
     <use x="355.216796875" xlink:href="#BitstreamVeraSans-Roman-69"/>
     <use x="383.0" xlink:href="#BitstreamVeraSans-Roman-66"/>
     <use x="418.205078125" xlink:href="#BitstreamVeraSans-Roman-65"/>
     <use x="479.728515625" xlink:href="#BitstreamVeraSans-Roman-6e"/>
    </g>
   </g>
   <g id="legend_1">
    <g id="patch_7">
     <path d="
M123.942 423.616
L466.458 423.616
L466.458 398.16
L123.942 398.16
z
" style="fill:#ffffff;stroke:#000000;stroke-linejoin:miter;"/>
    </g>
    <g id="line2d_33">
     <path d="
M134.022 409.822
L154.182 409.822" style="fill:none;stroke:#ff0000;stroke-linecap:square;"/>
    </g>
    <g id="line2d_34"/>
    <g id="text_17">
     <!-- Schwarzmarktpreis -->
     <defs>
      <path d="
M34.2812 27.4844
Q23.3906 27.4844 19.1875 25
Q14.9844 22.5156 14.9844 16.5
Q14.9844 11.7188 18.1406 8.90625
Q21.2969 6.10938 26.7031 6.10938
Q34.1875 6.10938 38.7031 11.4062
Q43.2188 16.7031 43.2188 25.4844
L43.2188 27.4844
z

M52.2031 31.2031
L52.2031 0
L43.2188 0
L43.2188 8.29688
Q40.1406 3.32812 35.5469 0.953125
Q30.9531 -1.42188 24.3125 -1.42188
Q15.9219 -1.42188 10.9531 3.29688
Q6 8.01562 6 15.9219
Q6 25.1406 12.1719 29.8281
Q18.3594 34.5156 30.6094 34.5156
L43.2188 34.5156
L43.2188 35.4062
Q43.2188 41.6094 39.1406 45
Q35.0625 48.3906 27.6875 48.3906
Q23 48.3906 18.5469 47.2656
Q14.1094 46.1406 10.0156 43.8906
L10.0156 52.2031
Q14.9375 54.1094 19.5781 55.0469
Q24.2188 56 28.6094 56
Q40.4844 56 46.3438 49.8438
Q52.2031 43.7031 52.2031 31.2031" id="BitstreamVeraSans-Roman-61"/>
      <path d="
M5.51562 54.6875
L48.1875 54.6875
L48.1875 46.4844
L14.4062 7.17188
L48.1875 7.17188
L48.1875 0
L4.29688 0
L4.29688 8.20312
L38.0938 47.5156
L5.51562 47.5156
z
" id="BitstreamVeraSans-Roman-7a"/>
      <path d="
M53.5156 70.5156
L53.5156 60.8906
Q47.9062 63.5781 42.9219 64.8906
Q37.9375 66.2188 33.2969 66.2188
Q25.25 66.2188 20.875 63.0938
Q16.5 59.9688 16.5 54.2031
Q16.5 49.3594 19.4062 46.8906
Q22.3125 44.4375 30.4219 42.9219
L36.375 41.7031
Q47.4062 39.5938 52.6562 34.2969
Q57.9062 29 57.9062 20.125
Q57.9062 9.51562 50.7969 4.04688
Q43.7031 -1.42188 29.9844 -1.42188
Q24.8125 -1.42188 18.9688 -0.25
Q13.1406 0.921875 6.89062 3.21875
L6.89062 13.375
Q12.8906 10.0156 18.6562 8.29688
Q24.4219 6.59375 29.9844 6.59375
Q38.4219 6.59375 43.0156 9.90625
Q47.6094 13.2344 47.6094 19.3906
Q47.6094 24.75 44.3125 27.7812
Q41.0156 30.8125 33.5 32.3281
L27.4844 33.5
Q16.4531 35.6875 11.5156 40.375
Q6.59375 45.0625 6.59375 53.4219
Q6.59375 63.0938 13.4062 68.6562
Q20.2188 74.2188 32.1719 74.2188
Q37.3125 74.2188 42.625 73.2812
Q47.9531 72.3594 53.5156 70.5156" id="BitstreamVeraSans-Roman-53"/>
      <path d="
M54.8906 33.0156
L54.8906 0
L45.9062 0
L45.9062 32.7188
Q45.9062 40.4844 42.875 44.3281
Q39.8438 48.1875 33.7969 48.1875
Q26.5156 48.1875 22.3125 43.5469
Q18.1094 38.9219 18.1094 30.9062
L18.1094 0
L9.07812 0
L9.07812 75.9844
L18.1094 75.9844
L18.1094 46.1875
Q21.3438 51.125 25.7031 53.5625
Q30.0781 56 35.7969 56
Q45.2188 56 50.0469 50.1719
Q54.8906 44.3438 54.8906 33.0156" id="BitstreamVeraSans-Roman-68"/>
      <path d="
M52 44.1875
Q55.375 50.25 60.0625 53.125
Q64.75 56 71.0938 56
Q79.6406 56 84.2812 50.0156
Q88.9219 44.0469 88.9219 33.0156
L88.9219 0
L79.8906 0
L79.8906 32.7188
Q79.8906 40.5781 77.0938 44.375
Q74.3125 48.1875 68.6094 48.1875
Q61.625 48.1875 57.5625 43.5469
Q53.5156 38.9219 53.5156 30.9062
L53.5156 0
L44.4844 0
L44.4844 32.7188
Q44.4844 40.625 41.7031 44.4062
Q38.9219 48.1875 33.1094 48.1875
Q26.2188 48.1875 22.1562 43.5312
Q18.1094 38.875 18.1094 30.9062
L18.1094 0
L9.07812 0
L9.07812 54.6875
L18.1094 54.6875
L18.1094 46.1875
Q21.1875 51.2188 25.4844 53.6094
Q29.7812 56 35.6875 56
Q41.6562 56 45.8281 52.9688
Q50 49.9531 52 44.1875" id="BitstreamVeraSans-Roman-6d"/>
      <path d="
M4.20312 54.6875
L13.1875 54.6875
L24.4219 12.0156
L35.5938 54.6875
L46.1875 54.6875
L57.4219 12.0156
L68.6094 54.6875
L77.5938 54.6875
L63.2812 0
L52.6875 0
L40.9219 44.8281
L29.1094 0
L18.5 0
z
" id="BitstreamVeraSans-Roman-77"/>
      <path d="
M9.07812 75.9844
L18.1094 75.9844
L18.1094 31.1094
L44.9219 54.6875
L56.3906 54.6875
L27.3906 29.1094
L57.625 0
L45.9062 0
L18.1094 26.7031
L18.1094 0
L9.07812 0
z
" id="BitstreamVeraSans-Roman-6b"/>
      <path d="
M41.1094 46.2969
Q39.5938 47.1719 37.8125 47.5781
Q36.0312 48 33.8906 48
Q26.2656 48 22.1875 43.0469
Q18.1094 38.0938 18.1094 28.8125
L18.1094 0
L9.07812 0
L9.07812 54.6875
L18.1094 54.6875
L18.1094 46.1875
Q20.9531 51.1719 25.4844 53.5781
Q30.0312 56 36.5312 56
Q37.4531 56 38.5781 55.875
Q39.7031 55.7656 41.0625 55.5156
z
" id="BitstreamVeraSans-Roman-72"/>
      <path d="
M44.2812 53.0781
L44.2812 44.5781
Q40.4844 46.5312 36.375 47.5
Q32.2812 48.4844 27.875 48.4844
Q21.1875 48.4844 17.8438 46.4375
Q14.5 44.3906 14.5 40.2812
Q14.5 37.1562 16.8906 35.375
Q19.2812 33.5938 26.5156 31.9844
L29.5938 31.2969
Q39.1562 29.25 43.1875 25.5156
Q47.2188 21.7812 47.2188 15.0938
Q47.2188 7.46875 41.1875 3.01562
Q35.1562 -1.42188 24.6094 -1.42188
Q20.2188 -1.42188 15.4531 -0.5625
Q10.6875 0.296875 5.42188 2
L5.42188 11.2812
Q10.4062 8.6875 15.2344 7.39062
Q20.0625 6.10938 24.8125 6.10938
Q31.1562 6.10938 34.5625 8.28125
Q37.9844 10.4531 37.9844 14.4062
Q37.9844 18.0625 35.5156 20.0156
Q33.0625 21.9688 24.7031 23.7812
L21.5781 24.5156
Q13.2344 26.2656 9.51562 29.9062
Q5.8125 33.5469 5.8125 39.8906
Q5.8125 47.6094 11.2812 51.7969
Q16.75 56 26.8125 56
Q31.7812 56 36.1719 55.2656
Q40.5781 54.5469 44.2812 53.0781" id="BitstreamVeraSans-Roman-73"/>
      <path d="
M18.1094 8.20312
L18.1094 -20.7969
L9.07812 -20.7969
L9.07812 54.6875
L18.1094 54.6875
L18.1094 46.3906
Q20.9531 51.2656 25.2656 53.625
Q29.5938 56 35.5938 56
Q45.5625 56 51.7812 48.0938
Q58.0156 40.1875 58.0156 27.2969
Q58.0156 14.4062 51.7812 6.48438
Q45.5625 -1.42188 35.5938 -1.42188
Q29.5938 -1.42188 25.2656 0.953125
Q20.9531 3.32812 18.1094 8.20312
M48.6875 27.2969
Q48.6875 37.2031 44.6094 42.8438
Q40.5312 48.4844 33.4062 48.4844
Q26.2656 48.4844 22.1875 42.8438
Q18.1094 37.2031 18.1094 27.2969
Q18.1094 17.3906 22.1875 11.75
Q26.2656 6.10938 33.4062 6.10938
Q40.5312 6.10938 44.6094 11.75
Q48.6875 17.3906 48.6875 27.2969" id="BitstreamVeraSans-Roman-70"/>
     </defs>
     <g transform="translate(170.022375 414.86175)scale(0.144 -0.144)">
      <use xlink:href="#BitstreamVeraSans-Roman-53"/>
      <use x="63.4765625" xlink:href="#BitstreamVeraSans-Roman-63"/>
      <use x="118.45703125" xlink:href="#BitstreamVeraSans-Roman-68"/>
      <use x="181.8359375" xlink:href="#BitstreamVeraSans-Roman-77"/>
      <use x="263.623046875" xlink:href="#BitstreamVeraSans-Roman-61"/>
      <use x="324.90234375" xlink:href="#BitstreamVeraSans-Roman-72"/>
      <use x="366.015625" xlink:href="#BitstreamVeraSans-Roman-7a"/>
      <use x="418.505859375" xlink:href="#BitstreamVeraSans-Roman-6d"/>
      <use x="515.91796875" xlink:href="#BitstreamVeraSans-Roman-61"/>
      <use x="577.197265625" xlink:href="#BitstreamVeraSans-Roman-72"/>
      <use x="618.310546875" xlink:href="#BitstreamVeraSans-Roman-6b"/>
      <use x="676.220703125" xlink:href="#BitstreamVeraSans-Roman-74"/>
      <use x="715.4296875" xlink:href="#BitstreamVeraSans-Roman-70"/>
      <use x="778.90625" xlink:href="#BitstreamVeraSans-Roman-72"/>
      <use x="817.76953125" xlink:href="#BitstreamVeraSans-Roman-65"/>
      <use x="879.29296875" xlink:href="#BitstreamVeraSans-Roman-69"/>
      <use x="907.076171875" xlink:href="#BitstreamVeraSans-Roman-73"/>
     </g>
    </g>
    <g id="line2d_35">
     <path d="
M339.609 409.822
L359.769 409.822" style="fill:none;stroke:#008000;stroke-linecap:square;"/>
    </g>
    <g id="line2d_36"/>
    <g id="text_18">
     <!-- Normalpreis -->
     <g transform="translate(375.609375 414.86175)scale(0.144 -0.144)">
      <use xlink:href="#BitstreamVeraSans-Roman-4e"/>
      <use x="74.8046875" xlink:href="#BitstreamVeraSans-Roman-6f"/>
      <use x="135.986328125" xlink:href="#BitstreamVeraSans-Roman-72"/>
      <use x="175.349609375" xlink:href="#BitstreamVeraSans-Roman-6d"/>
      <use x="272.76171875" xlink:href="#BitstreamVeraSans-Roman-61"/>
      <use x="334.041015625" xlink:href="#BitstreamVeraSans-Roman-6c"/>
      <use x="361.82421875" xlink:href="#BitstreamVeraSans-Roman-70"/>
      <use x="425.30078125" xlink:href="#BitstreamVeraSans-Roman-72"/>
      <use x="464.1640625" xlink:href="#BitstreamVeraSans-Roman-65"/>
      <use x="525.6875" xlink:href="#BitstreamVeraSans-Roman-69"/>
      <use x="553.470703125" xlink:href="#BitstreamVeraSans-Roman-73"/>
     </g>
    </g>
   </g>
  </g>
 </g>
 <defs>
  <clipPath id="pcb2bf987bf">
   <rect height="302.4" width="446.4" x="72.0" y="43.2"/>
  </clipPath>
 </defs>
</svg>
