<?xml version="1.0" encoding="utf-8" standalone="no"?>
<!DOCTYPE svg PUBLIC "-//W3C//DTD SVG 1.1//EN"
  "http://www.w3.org/Graphics/SVG/1.1/DTD/svg11.dtd">
<!-- Created with matplotlib (http://matplotlib.org/) -->
<svg height="432pt" version="1.1" viewBox="0 0 576 432" width="576pt" xmlns="http://www.w3.org/2000/svg" xmlns:xlink="http://www.w3.org/1999/xlink">
 <defs>
  <style type="text/css">
*{stroke-linecap:butt;stroke-linejoin:round;}
  </style>
 </defs>
 <g id="figure_1">
  <g id="patch_1">
   <path d="
M0 432
L576 432
L576 0
L0 0
z
" style="fill:#ffffff;"/>
  </g>
  <g id="axes_1">
   <g id="patch_2">
    <path d="
M72 345.6
L518.4 345.6
L518.4 43.2
L72 43.2
z
" style="fill:#ffffff;"/>
   </g>
   <g id="line2d_1">
    <path clip-path="url(#pcb2bf987bf)" d="
M72 75.4112
L72.1276 75.4112
L72.3828 85.3901
L72.7657 82.3662
L72.8933 84.0942
L73.1485 84.0942
L73.2762 82.755
L73.5314 82.755
L73.659 80.9839
L73.9142 82.323
L74.0419 80.9839
L74.2971 82.755
L74.4247 82.755
L74.8075 78.0463
L75.1904 78.0463
L75.4456 75.368
L75.5732 75.368
L75.8285 73.9856
L75.9561 80.1112
L76.3389 80.1199
L76.5942 70.1409
L76.7218 80.1199
L76.9772 80.1199
L77.3599 79.7743
L77.7429 78.4351
L77.8703 80.1199
L78.1256 80.1199
L78.1256 80.1199
L78.2532 78.7807
L78.5084 78.7807
L78.636 77.4416
L79.0189 72.0417
L79.2741 70.6593
L79.4017 72.0417
L79.6569 70.6593
L79.7846 72.0417
L80.0398 69.2338
L80.4226 69.2338
L80.5503 67.8514
L80.8055 69.2338
L80.9331 69.2338
L81.1885 67.8514
L81.5712 63.7043
L81.6988 67.8428
L81.9542 67.8428
L82.0816 65.0867
L82.3371 67.8514
L82.7197 60.8532
L83.2302 60.8532
L83.4854 59.4276
L83.8683 59.3844
L83.9959 58.0021
L84.2511 67.8514
L84.6342 67.8514
L85.017 69.2338
L85.5273 69.2338
L85.7825 67.8514
L85.9101 66.469
L86.1654 65.0867
L86.293 65.0867
L86.5482 66.469
L86.6758 66.469
L86.931 69.2338
L87.4415 69.2338
L87.6967 67.8514
L87.8244 67.8514
L88.0796 66.469
L88.2072 67.8514
L88.9729 67.8514
L89.2281 66.469
L89.3557 67.8514
L89.611 73.4241
L89.7386 70.6593
L89.9938 67.886
L89.9938 67.886
L90.2491 66.5036
L91.0148 66.5122
L91.7804 65.1299
L91.9081 66.5122
L92.5461 66.5122
L92.6738 64.8275
L93.3118 64.8189
L94.0775 84.051
L94.2051 101.374
L94.8432 86.1677
L94.9708 91.2565
L95.6089 84.6126
L95.7365 81.9774
L96.3746 57.6133
L97.1403 57.6133
L97.906 76.1456
L98.0336 76.1456
L98.7993 75.368
L99.4374 75.368
L100.203 76.7072
L100.331 73.7265
L100.969 78.0463
L101.734 75.368
L101.862 74.0288
L102.5 76.6208
L104.032 76.7072
L104.797 75.7568
L105.563 86.6775
L106.329 81.4504
L107.86 78.7807
L107.988 78.7807
L108.626 80.1112
L109.391 78.0377
L109.519 78.0377
L110.157 74.0202
L110.285 76.7072
L110.923 81.5022
L111.05 78.8239
L111.689 77.4847
L111.816 78.8239
L114.879 107.854
L116.41 99.1274
L117.048 95.2395
L117.814 92.7339
L117.942 92.7253
L118.58 84.0855
L119.345 84.0942
L120.111 82.7982
L120.877 77.4847
L121.004 77.4847
L121.643 82.7982
L122.536 81.5022
L123.174 82.7982
L123.94 81.4936
L124.067 80.1631
L124.705 76.1456
L125.471 80.1631
L126.109 80.1544
L126.237 78.8239
L126.237 78.8239
L126.365 78.8153
L127.002 76.1456
L127.13 77.4847
L127.13 77.4847
L127.64 91.9564
L127.768 88.1117
L129.299 88.1117
L130.065 86.8157
L130.193 88.1117
L132.362 88.1117
L132.362 88.1117
L133.894 84.9581
L134.149 83.2302
L134.659 64.6547
L135.425 103.966
L136.191 120.122
L137.722 109.711
L138.488 110.687
L139.381 109.486
L140.019 105.694
L140.785 105.953
L141.551 114.42
L141.678 113.253
L142.316 114.42
L143.082 112.087
L143.848 106.851
L143.975 103.966
L144.613 98.9114
L145.379 91.2652
L145.507 87.4205
L146.145 84.9581
L146.272 84.9581
L146.91 83.6622
L147.038 81.0703
L147.676 82.3662
L148.442 82.3576
L149.208 78.3919
L149.335 79.7311
L149.973 77.0528
L150.739 78.3919
L150.867 77.0528
L151.505 77.0096
L153.036 79.6015
L153.802 79.6879
L154.567 82.2798
L155.333 79.6015
L155.333 79.6015
L156.099 72.9057
L156.865 74.2448
L157.63 71.5233
L157.758 68.7586
L158.396 70.1409
L159.162 82.2798
L159.927 82.2798
L160.693 81.0703
L160.821 120.381
L167.584 120.381
L167.712 115.197
L168.35 95.6715
L169.116 115.145
L169.243 115.145
L169.881 103.793
L170.647 107.681
L170.775 106.471
L171.413 107.681
L172.178 104.441
L172.944 106.851
L173.71 106.851
L174.475 105.253
L174.603 105.253
L176.007 105.65
L176.9 105.65
L177.538 106.86
L178.304 104.441
L179.07 103.223
L179.963 103.231
L180.601 99.6025
L180.729 100.812
L181.367 100.812
L182.132 98.3498
L182.26 98.3498
L182.898 101.892
L183.791 100.683
L184.43 98.2202
L185.195 102.022
L185.961 104.441
L187.492 104.441
L188.258 133.298
L189.024 153.307
L189.151 153.307
L191.321 142.845
L191.321 142.845
L192.852 133.989
L193.618 133.989
L194.384 141.937
L195.149 141.937
L195.277 140.901
L195.915 141.937
L196.681 148.547
L198.212 146.776
L198.212 146.776
L198.978 146.776
L200.509 150.232
L201.275 135.414
L202.04 130.015
L202.806 135.285
L203.572 133.211
L203.699 134.248
L204.338 131.051
L205.103 134.248
L205.231 123.448
L205.869 149.238
L205.997 147.804
L206.124 148.244
L206.507 149.091
L206.762 149.091
L207.4 142.283
L207.911 141.246
L208.166 136.062
L209.059 141.246
L209.059 141.246
L209.442 140.209
L209.57 142.283
L209.825 142.283
L210.591 140.209
L210.846 140.209
L211.356 139.173
L211.739 139.173
L211.867 140.123
L212.122 139.173
L212.25 140.209
L212.888 140.209
L213.271 138.136
L213.398 139.173
L213.654 135.026
L213.654 135.026
L213.781 138.136
L214.036 137.099
L214.164 137.099
L214.419 135.026
L214.547 137.099
L214.802 139.173
L214.93 139.173
L215.185 140.209
L215.185 140.209
L216.078 140.201
L216.333 139.173
L216.589 139.173
L216.589 139.173
L216.844 140.209
L217.099 138.127
L217.227 140.209
L217.482 141.808
L217.482 141.808
L217.61 141.808
L217.865 151.225
L219.779 151.225
L219.907 147.164
L220.162 151.225
L220.417 147.164
L220.545 148.46
L220.672 151.225
L220.672 151.225
L221.055 151.225
L221.31 150.534
L221.438 150.534
L221.693 148.547
L222.076 147.553
L222.204 148.547
L222.459 145.177
L222.587 146.041
L222.842 145.005
L222.842 145.005
L223.225 144.011
L223.735 144.011
L223.99 142.974
L224.756 142.974
L224.884 141.981
L225.139 150.62
L225.649 150.577
L225.649 150.577
L225.905 147.588
L225.905 147.588
L226.16 145.609
L226.16 145.609
L226.415 146.603
L226.415 146.603
L226.67 145.566
L226.798 146.56
L227.436 146.603
L227.436 146.603
L227.819 150.534
L227.946 148.504
L228.202 146.508
L228.585 146.516
L228.712 149.497
L229.095 149.411
L229.35 151.398
L229.733 151.398
L229.861 150.404
L230.116 150.188
L230.244 151.398
L230.499 151.398
L230.499 151.398
L230.882 150.534
L231.009 150.534
L231.264 151.484
L231.264 151.484
L231.775 151.484
L232.03 166.345
L232.158 165.438
L232.924 165.438
L233.306 162.716
L233.689 162.716
L233.944 161.809
L234.072 161.809
L234.327 162.716
L234.327 162.716
L234.71 162.716
L234.838 161.809
L235.093 162.716
L235.093 162.716
L235.221 162.716
L235.476 163.494
L235.603 164.401
L235.859 164.444
L235.859 164.444
L235.986 163.537
L236.242 163.537
L236.369 164.401
L236.624 164.401
L236.752 163.494
L237.135 163.494
L237.39 164.401
L237.901 164.444
L238.156 165.438
L238.283 165.438
L238.539 163.623
L238.666 165.429
L238.921 166.345
L239.049 166.345
L239.304 227.471
L239.687 221.89
L239.815 220.17
L240.07 197.491
L240.198 196.757
L240.453 194.51
L240.453 194.51
L240.58 192.178
L240.836 192.178
L240.963 190.363
L241.219 192.178
L241.346 190.363
L241.601 189.586
L241.729 192.178
L241.984 190.622
L242.112 190.579
L242.367 187.469
L242.495 189.024
L242.75 188.247
L243.133 188.247
L243.643 183.192
L244.026 185.655
L244.281 184.834
L244.409 184.834
L244.664 183.97
L244.792 182.328
L245.047 183.149
L245.047 183.149
L245.175 183.97
L245.43 172.22
L245.557 183.883
L245.813 182.587
L245.94 180.946
L246.196 183.045
L246.706 183.019
L246.961 183.019
L247.089 182.199
L247.344 181.378
L247.727 182.199
L248.237 182.242
L248.493 180.86
L248.62 182.242
L248.876 180.6
L249.258 183.037
L249.641 183.037
L249.641 183.037
L249.769 182.242
L250.024 182.233
L250.152 183.045
L250.534 183.054
L250.79 182.242
L250.917 183.054
L251.173 182.242
L251.3 182.233
L251.555 181.421
L251.683 182.156
L251.938 178.829
L252.066 178.829
L252.321 173.075
L252.449 172.868
L252.704 170.924
L253.214 170.924
L253.47 170.492
L253.597 173.075
L253.852 172.22
L253.98 173.075
L254.363 182.156
L254.618 173.041
L254.746 173.041
L254.746 173.041
L255.129 182.242
L255.129 182.242
L255.384 181.412
L255.511 181.412
L255.511 181.412
L255.767 180.6
L255.767 180.6
L255.894 179.78
L256.277 180.6
L256.532 179.78
L256.66 181.412
L256.66 181.412
L256.915 181.412
L257.043 180.039
L257.298 180.03
L257.426 179.218
L257.681 179.218
L257.809 180.03
L258.447 180.03
L258.574 179.218
L258.702 180.03
L258.957 180.03
L259.212 182.242
L259.212 182.242
L259.34 181.421
L259.595 182.242
L259.595 182.242
L259.723 182.242
L259.978 181.421
L260.106 181.421
L260.361 182.233
L260.744 182.233
L260.871 181.421
L261.127 181.421
L261.254 180.6
L261.509 181.421
L261.637 182.242
L261.892 181.421
L262.02 187.901
L262.275 217.138
L262.403 216.49
L262.658 216.283
L263.424 212.343
L263.424 212.343
L263.551 212.351
L263.807 211.315
L263.934 209.932
L264.189 209.906
L264.189 209.906
L264.317 122.152
L264.572 208.55
L264.7 207.859
L264.955 204.403
L264.955 204.403
L265.083 204.403
L265.338 205.094
L265.466 204.36
L265.593 189.586
L265.848 207.124
L266.104 207.124
L266.231 206.433
L266.614 202.977
L266.869 201.509
L267.252 203.669
L267.38 202.977
L267.635 192.869
L267.763 192.869
L268.018 192.091
L268.145 190.536
L268.401 192.091
L268.528 180.298
L268.911 171.356
L269.294 171.356
L269.549 190.536
L270.06 190.536
L270.315 189.759
L270.443 188.203
L270.825 202.243
L271.081 200.774
L271.463 202.243
L272.612 202.2
L272.995 200.688
L273.122 202.243
L273.378 199.997
L273.378 199.997
L273.888 202.977
L274.271 195.634
L274.526 192.61
L274.654 189.499
L274.909 190.277
L274.909 190.277
L275.037 180.808
L275.292 195.634
L275.675 195.634
L275.802 194.986
L276.058 195.634
L276.185 194.899
L276.441 194.165
L276.568 194.899
L276.823 195.634
L276.951 195.634
L277.206 194.165
L277.334 194.165
L277.589 194.683
L277.717 195.634
L278.482 195.634
L278.865 188.808
L279.12 193.387
L279.248 179.866
L279.503 194.683
L279.631 193.387
L279.886 189.327
L280.014 205.137
L280.269 205.828
L280.269 205.828
L280.397 205.137
L280.652 205.137
L280.779 203.66
L281.035 205.137
L281.035 205.137
L281.162 203.755
L281.417 205.137
L281.545 205.137
L281.801 204.437
L282.183 202.157
L282.311 198.269
L282.694 203.539
L282.949 204.256
L283.077 203.539
L283.459 192.653
L283.842 192.653
L284.097 193.43
L284.48 193.43
L284.608 192.61
L284.736 185.568
L285.246 203.496
L285.374 199.478
L285.629 203.496
L285.756 173.084
L286.012 203.496
L286.139 203.496
L286.395 204.187
L286.522 204.187
L286.777 203.539
L286.905 203.539
L287.16 202.718
L287.288 191.789
L287.543 190.363
L287.671 200.515
L288.054 200.515
L288.309 201.249
L288.437 201.249
L288.819 199.046
L289.074 201.249
L289.202 201.249
L289.457 199.046
L289.585 199.046
L289.84 201.249
L289.968 199.003
L290.223 201.249
L290.351 200.515
L290.606 199.781
L290.861 199.781
L291.116 198.312
L291.372 201.163
L291.499 200.515
L291.754 201.249
L292.137 201.249
L292.265 203.539
L292.52 203.496
L292.52 203.496
L292.903 201.293
L293.031 202.805
L293.286 202.07
L293.286 202.07
L293.413 203.323
L293.796 203.021
L294.179 203.021
L294.562 201.163
L294.945 173.732
L295.2 202.113
L295.328 202.113
L295.71 199.91
L295.966 190.363
L296.349 200.731
L296.476 200.722
L296.731 199.997
L296.859 199.988
L297.114 198.528
L297.242 199.262
L297.497 199.003
L297.625 199.262
L297.88 198.528
L298.008 197.793
L298.263 198.528
L298.39 198.528
L298.646 201.889
L298.773 201.163
L299.028 201.077
L299.156 201.889
L299.411 200.429
L299.794 200.429
L299.922 199.694
L300.177 200.42
L300.177 200.42
L300.687 200.429
L300.943 198.96
L301.07 199.003
L301.326 200.429
L301.708 200.429
L301.836 201.889
L302.091 202.113
L302.219 202.848
L302.474 201.336
L302.474 201.336
L302.857 201.336
L303.112 199.867
L303.368 197.664
L303.623 196.93
L303.75 196.195
L304.005 195.461
L304.005 195.461
L304.133 194.726
L304.388 196.195
L304.899 202.796
L305.282 202.848
L305.537 200.645
L306.047 200.645
L306.303 199.176
L306.43 199.176
L306.685 198.441
L306.813 199.159
L307.962 199.176
L308.217 198.441
L308.6 196.886
L308.6 196.886
L308.727 199.176
L308.983 199.176
L309.11 198.441
L309.365 199.176
L309.493 196.973
L309.748 199.176
L309.876 197.707
L310.259 204.265
L315.108 204.265
L315.236 171.356
L315.491 204.265
L317.15 204.265
L317.405 241.338
L317.533 241.329
L317.788 240.811
L317.916 240.82
L318.171 241.252
L318.298 240.733
L318.937 233.346
L319.064 233.908
L319.447 228.81
L319.702 222.762
L319.83 222.719
L320.085 222.071
L320.213 220.862
L320.851 217.665
L320.851 217.665
L321.234 222.071
L321.361 221.458
L321.999 221.466
L322.127 220.862
L322.765 222.676
L322.893 221.466
L323.148 221.466
L323.275 220.257
L323.531 220.862
L323.658 223.367
L323.914 222.754
L323.914 222.754
L324.424 222.754
L324.679 222.59
L324.807 223.367
L325.062 223.367
L325.19 216.283
L325.573 224.318
L325.828 223.713
L326.211 227.601
L326.338 229.977
L326.593 229.406
L326.721 229.406
L326.976 229.968
L327.104 229.968
L327.359 229.709
L327.487 228.482
L327.742 227.903
L327.87 228.482
L328.125 227.903
L328.252 227.298
L328.508 228.465
L328.891 228.465
L329.401 224.231
L329.656 222.417
L330.167 216.317
L330.422 220.602
L330.55 219.911
L330.805 219.255
L330.933 219.255
L331.188 218.615
L331.315 217.233
L331.57 216.283
L331.698 217.276
L331.953 217.276
L332.336 215.332
L332.847 215.332
L333.23 214.641
L333.485 215.332
L333.612 221.086
L334.25 219.609
L334.378 219.6
L334.633 218.961
L334.761 218.952
L335.144 217.017
L335.399 216.369
L335.782 216.369
L335.909 215.721
L336.165 215.712
L336.292 216.369
L336.548 216.369
L336.675 215.073
L337.058 217.017
L337.313 216.369
L337.441 216.369
L337.696 215.721
L337.824 215.721
L338.079 216.369
L338.207 207.643
L338.462 216.369
L338.589 215.721
L338.845 215.721
L338.972 216.36
L339.355 216.283
L339.61 216.283
L339.738 214.339
L339.866 214.339
L340.121 212.395
L340.376 213.043
L340.504 215.635
L340.759 216.283
L341.269 216.283
L341.525 215.635
L341.652 216.283
L343.056 216.343
L344.204 216.369
L344.332 215.721
L344.588 215.635
L344.715 216.369
L345.353 216.36
L345.353 216.36
L345.481 215.721
L345.736 215.073
L345.863 215.073
L346.119 215.721
L346.246 216.36
L346.629 216.36
L346.884 215.073
L346.884 215.073
L347.012 216.36
L347.267 199.003
L347.395 215.03
L347.778 212.179
L348.033 216.283
L348.161 215.419
L348.416 216.283
L348.926 216.283
L349.181 215.721
L350.075 215.721
L350.33 215.073
L350.458 214.425
L350.713 193.603
L350.84 192.826
L351.096 213.129
L351.224 211.142
L351.606 212.481
L351.861 211.833
L351.989 212.481
L352.244 212.481
L352.372 211.142
L352.755 211.142
L353.138 189.37
L353.52 216.352
L353.776 193.249
L353.776 193.249
L354.158 219.592
L354.541 219.6
L354.669 218.875
L355.307 218.883
L355.307 218.883
L355.435 219.522
L355.69 218.875
L355.817 218.875
L356.073 193.249
L356.073 193.249
L356.2 218.227
L356.583 218.218
L356.838 218.849
L356.966 216.931
L357.221 218.227
L357.477 218.227
L357.732 208.032
L357.987 205.094
L358.115 218.227
L358.37 218.227
L358.37 218.227
L358.497 217.492
L358.753 217.579
L358.88 216.931
L359.136 218.227
L359.263 218.218
L359.518 217.579
L359.646 218.849
L360.029 218.849
L360.284 216.887
L360.667 216.931
L360.795 217.579
L361.05 218.227
L361.177 217.579
L361.56 217.579
L361.816 218.227
L361.943 218.857
L362.198 218.227
L362.326 216.283
L362.709 218.849
L362.964 218.227
L363.092 219.522
L363.347 218.227
L363.474 218.875
L363.857 216.283
L364.113 217.579
L364.24 216.283
L364.495 215.635
L364.623 216.283
L364.878 215.635
L365.006 214.943
L365.261 214.295
L365.389 214.295
L365.644 218.011
L366.155 218.011
L366.41 217.363
L366.537 218.011
L366.792 216.715
L366.92 218.011
L367.175 216.715
L367.303 218.011
L367.686 215.635
L367.941 218.002
L368.451 218.011
L368.707 217.363
L369.09 220.257
L370.749 220.257
L371.004 245.831
L371.131 246.306
L371.387 245.226
L371.514 245.736
L371.769 245.226
L372.152 239.48
L372.28 238.435
L372.535 237.839
L372.663 237.83
L372.918 237.018
L373.046 237.018
L373.428 234.901
L373.684 237.839
L373.684 237.839
L373.811 236.586
L374.067 153.903
L374.194 223.799
L374.449 238.4
L374.577 238.383
L374.832 237.882
L374.96 236.802
L375.215 236.24
L375.343 229.242
L375.726 238.435
L375.981 238.426
L376.108 237.364
L376.746 237.364
L376.874 236.24
L377.129 235.679
L377.257 235.679
L377.512 235.117
L377.512 235.117
L377.767 235.117
L378.023 236.24
L378.278 235.679
L378.405 235.117
L378.661 233.433
L378.788 234.556
L379.044 233.994
L379.171 235.117
L379.426 234.556
L379.809 234.556
L379.937 235.117
L380.575 235.117
L380.703 234.556
L380.958 233.994
L381.086 234.556
L381.341 232.871
L381.468 233.994
L381.723 234.556
L381.851 235.117
L382.107 235.117
L382.234 233.994
L382.489 234.469
L382.617 234.469
L382.872 235.109
L383 234.512
L383.383 234.512
L383.638 233.951
L384.021 231.661
L384.148 231.661
L384.403 232.223
L384.531 232.223
L384.786 233.346
L385.169 233.346
L385.297 232.223
L385.552 233.303
L385.68 233.294
L385.935 231.618
L386.062 229.933
L386.318 217.622
L386.445 218.918
L386.828 216.499
L387.083 216.283
L387.466 200.731
L387.594 233.277
L387.849 235.117
L387.977 235.117
L388.232 234.556
L388.232 234.556
L388.36 235.109
L389.125 235.091
L389.38 234.556
L389.763 234.556
L389.891 233.994
L390.146 233.985
L390.274 234.556
L390.657 234.556
L390.912 232.871
L391.039 233.994
L391.295 234.556
L391.422 234.556
L391.678 232.439
L391.805 196.584
L392.06 233.562
L392.188 234.201
L392.443 233.562
L392.826 233.553
L392.954 234.538
L393.209 233.994
L393.337 234.556
L393.592 233.433
L393.719 233.433
L393.975 232.871
L394.102 233.424
L394.102 233.424
L394.74 233.363
L394.868 232.785
L395.123 229.242
L395.506 229.242
L395.634 230.685
L395.889 231.653
L396.399 231.653
L396.655 216.283
L397.931 216.283
L398.314 213.691
L398.696 213.691
L398.952 231.635
L399.079 231.635
L399.335 230.495
L399.462 231.644
L399.717 231.013
L399.845 231.653
L400.483 231.644
L400.866 229.933
L400.993 230.495
L401.376 230.486
L401.632 229.329
L401.759 224.318
L402.142 222.33
L402.397 223.108
L402.908 223.065
L403.163 222.46
L403.291 216.887
L403.546 223.108
L403.929 223.065
L404.056 223.065
L404.311 221.898
L404.439 222.495
L404.694 222.46
L404.822 223.065
L405.077 215.635
L405.205 223.065
L405.97 223.065
L406.226 222.503
L406.353 223.099
L406.609 207.643
L406.736 222.503
L406.991 223.108
L407.119 223.108
L407.374 221.294
L407.502 216.283
L407.885 223.099
L408.14 223.108
L408.268 220.689
L408.523 221.294
L408.65 223.099
L409.033 223.082
L409.289 221.726
L409.416 221.726
L409.671 222.374
L409.799 221.855
L410.054 221.855
L410.182 215.635
L410.437 223.082
L410.565 222.443
L411.203 222.451
L411.33 223.073
L411.968 223.056
L412.096 221.812
L412.351 223.056
L412.607 223.048
L412.989 222.46
L413.245 223.056
L413.627 223.065
L414.01 220.386
L414.266 220.386
L414.393 215.635
L414.648 215.635
L414.776 220.991
L415.031 223.056
L415.542 223.065
L415.797 221.855
L415.925 221.855
L416.18 223.073
L416.945 223.108
L417.073 222.503
L417.328 223.108
L417.839 223.108
L418.094 222.503
L418.222 223.108
L418.477 222.495
L418.604 223.108
L418.86 222.503
L418.987 231.644
L419.37 231.618
L419.753 231.618
L420.008 231.057
L420.136 231.048
L420.519 229.329
L421.157 228.119
L421.284 228.724
L421.54 229.242
L421.667 229.242
L421.922 228.637
L422.05 229.242
L422.433 226.814
L422.688 226.192
L423.199 226.175
L423.454 224.343
L423.581 224.361
L423.837 222.546
L424.22 222.538
L424.347 223.143
L424.602 223.143
L424.73 222.503
L424.985 223.134
L425.751 223.143
L425.879 222.546
L426.134 222.538
L426.261 221.942
L426.517 222.538
L426.644 221.942
L426.899 222.546
L427.282 221.924
L427.41 219.782
L427.665 221.916
L427.793 221.294
L428.048 220.689
L428.176 220.689
L428.431 221.294
L428.558 220.075
L428.814 221.285
L429.197 218.011
L430.345 218.002
L430.473 217.363
L430.728 218.011
L430.856 217.363
L430.983 210.624
L431.238 216.715
L431.494 217.363
L431.621 217.319
L431.877 216.671
L432.259 216.671
L432.387 216.023
L432.642 216.663
L432.642 216.663
L432.77 215.375
L433.025 216.023
L433.153 216.023
L433.408 216.671
L433.536 215.375
L433.791 216.023
L435.322 216.023
L435.45 215.419
L435.705 215.419
L435.833 216.023
L436.088 215.419
L436.854 215.375
L436.981 216.023
L437.236 216.015
L437.364 215.375
L437.619 216.015
L438.002 216.006
L438.13 173.084
L438.385 216.006
L438.513 215.375
L438.768 212.783
L438.895 214.071
L439.151 214.062
L439.533 212.74
L439.661 213.388
L439.916 212.049
L440.044 212.049
L440.299 211.358
L440.299 211.358
L440.427 211.358
L440.682 210.667
L441.065 213.388
L441.192 212.827
L441.448 213.388
L441.575 213.38
L441.958 211.66
L442.341 211.66
L442.596 210.969
L442.724 209.587
L442.979 208.896
L443.107 208.896
L443.362 210.278
L443.49 210.278
L443.745 210.969
L443.872 212.343
L444.128 211.704
L444.255 212.351
L444.51 212.308
L444.638 211.66
L444.893 212.351
L445.021 213.336
L445.404 213.302
L445.659 212.006
L446.169 211.963
L446.425 213.336
L447.318 213.388
L447.573 212.688
L447.701 213.345
L447.956 211.401
L448.084 212.688
L448.339 213.388
L448.849 213.319
L449.105 212.697
L450.126 212.645
L450.381 211.954
L450.636 210.58
L450.764 208.671
L451.019 210.58
L451.146 210.572
L451.402 209.889
L451.529 209.889
L451.785 210.58
L451.912 210.58
L452.167 211.963
L452.295 211.954
L452.55 210.58
L452.678 212.628
L452.933 212.619
L453.061 211.954
L453.316 211.954
L453.444 212.619
L454.592 212.628
L455.358 212.559
L455.613 211.185
L455.741 199.003
L455.996 212.542
L456.123 211.876
L457.144 211.842
L457.272 211.142
L457.655 211.185
L457.91 209.803
L458.038 211.842
L458.293 211.185
L458.421 211.85
L458.676 210.494
L458.803 192.523
L459.059 210.235
L459.186 194.683
L459.442 193.128
L459.569 162.802
L459.824 211.85
L459.952 211.185
L460.335 211.185
L460.59 209.63
L461.101 212.542
L461.356 198.925
L461.484 211.315
L461.739 210.494
L461.866 210.494
L462.121 211.09
L462.632 211.09
L462.887 211.66
L463.015 211.66
L463.27 212.395
L463.398 211.704
L463.653 212.542
L464.036 212.516
L464.163 211.833
L464.546 211.773
L464.801 211.09
L464.929 211.09
L465.184 210.399
L465.312 209.025
L465.567 209.708
L465.567 209.708
L465.695 209.708
L465.95 207.634
L466.078 211.781
L466.333 211.773
L466.46 210.408
L466.716 209.716
L466.843 211.773
L467.098 211.09
L467.098 211.09
L467.226 211.09
L467.481 210.399
L467.992 210.399
L468.247 209.716
L468.63 209.025
L468.757 209.716
L469.013 210.399
L469.396 210.399
L469.523 209.716
L469.778 210.399
L470.161 210.399
L470.672 207.643
L470.927 206.952
L471.055 208.334
L471.31 209.716
L471.82 209.716
L472.075 209.025
L472.203 209.025
L472.458 210.399
L472.841 210.408
L472.969 209.716
L473.352 209.716
L473.607 210.408
L474.755 210.382
L474.883 209.716
L475.138 209.716
L475.266 210.382
L475.649 210.382
L475.904 209.716
L476.032 208.334
L476.287 209.716
L476.414 208.153
L476.67 199.435
L476.797 209.025
L477.052 209.025
L477.435 205.915
L477.563 206.908
L477.818 201.293
L477.946 204.576
L478.201 207.6
L478.329 207.6
L478.711 205.526
L478.967 206.908
L479.094 206.908
L479.35 206.174
L479.477 205.44
L479.732 206.174
L480.115 210.235
L480.243 210.235
L480.626 207.427
L481.009 206.986
L481.264 205.578
L481.391 205.535
L481.774 203.453
L482.03 203.496
L482.157 204.878
L482.54 206.908
L482.795 206.217
L482.923 205.526
L483.178 202.589
L483.306 208.161
L483.561 208.161
L483.689 208.852
L483.944 206.779
L484.071 206.779
L484.327 206.088
L484.454 205.396
L484.709 208.161
L485.092 208.075
L485.475 202.589
L485.858 202.373
L485.986 203.928
L486.241 203.755
L486.241 203.755
L486.368 201.595
L486.624 203.919
L486.751 203.237
L487.134 203.237
L487.389 203.928
L487.517 203.928
L487.9 200.299
L488.155 200.299
L488.283 205.31
L488.666 205.31
L488.921 203.928
L489.048 203.928
L489.304 205.31
L489.431 205.31
L489.686 204.619
L489.814 204.619
L490.069 208.118
L490.197 208.118
L490.452 207.384
L490.58 210.235
L490.835 210.235
L490.963 210.382
L491.218 210.382
L491.345 209.716
L491.601 209.708
L491.728 209.025
L491.984 209.017
L492.111 206.952
L492.366 204.878
L492.494 208.334
L492.749 209.025
L493.132 208.939
L493.26 207.556
L493.515 208.93
L493.643 208.93
L494.026 209.699
L494.281 209.025
L494.663 212.507
L494.791 212.481
L495.046 211.833
L495.429 211.833
L495.557 212.395
L495.94 212.395
L496.195 211.747
L496.322 211.747
L496.578 212.507
L497.471 212.507
L497.726 211.142
L497.854 211.824
L498.109 233.389
L498.237 232.828
L498.492 230.564
L498.62 226.434
L499.002 229.959
L499.258 229.372
L499.258 229.372
L499.385 228.205
L499.768 226.391
L500.151 223.367
L500.406 222.754
L500.534 222.754
L500.789 220.775
L500.917 222.158
L501.172 220.43
L501.299 220.386
L501.555 215.635
L501.682 220.378
L502.065 219.704
L502.32 220.386
L502.448 219.738
L502.703 217.786
L502.831 219.091
L503.086 220.369
L503.469 220.412
L503.597 220.412
L503.852 220.248
L503.979 218.961
L504.362 218.961
L504.617 219.566
L504.745 218.918
L505.128 218.875
L505.383 219.557
L505.511 218.918
L505.766 215.678
L505.894 215.678
L506.149 215.03
L506.277 215.03
L506.532 215.635
L506.659 214.987
L506.915 215.635
L507.042 214.987
L507.297 214.339
L507.68 216.326
L507.808 216.283
L508.191 218.261
L508.446 211.963
L508.574 216.974
L508.829 218.261
L509.212 219.557
L509.722 219.54
L510.36 218.175
L510.488 218.011
L510.743 216.067
L510.871 216.067
L511.126 218.011
L511.636 217.579
L511.892 218.183
L512.019 218.183
L512.274 217.579
L512.402 218.218
L512.657 208.982
L512.785 219.134
L513.04 218.486
L513.168 217.19
L513.423 218.486
L513.551 217.838
L513.806 219.557
L513.933 218.918
L514.189 219.54
L514.317 219.54
L514.572 218.909
L514.699 217.622
L514.954 218.27
L515.082 218.909
L515.337 218.909
L515.465 219.557
L516.103 218.486
L516.231 219.125
L516.486 219.782
L516.613 216.758
L516.996 220.404
L517.251 219.091
L517.379 217.147
L517.634 215.842
L518.017 215.833
L518.145 219.782
L518.4 218.486
L518.4 218.486" style="fill:none;stroke:#ff0000;stroke-linecap:square;"/>
   </g>
   <g id="line2d_2">
    <path clip-path="url(#pcb2bf987bf)" d="
M72 345.378
L388.232 345.404
L388.232 345.404
L388.36 345.585
L388.998 345.585
L389.125 345.413
L518.4 345.413
L518.4 345.413" style="fill:none;stroke:#008000;stroke-linecap:square;"/>
   </g>
   <g id="patch_3">
    <path d="
M72 43.2
L518.4 43.2" style="fill:none;stroke:#000000;stroke-linecap:square;stroke-linejoin:miter;"/>
   </g>
   <g id="patch_4">
    <path d="
M518.4 345.6
L518.4 43.2" style="fill:none;stroke:#000000;stroke-linecap:square;stroke-linejoin:miter;"/>
   </g>
   <g id="patch_5">
    <path d="
M72 345.6
L518.4 345.6" style="fill:none;stroke:#000000;stroke-linecap:square;stroke-linejoin:miter;"/>
   </g>
   <g id="patch_6">
    <path d="
M72 345.6
L72 43.2" style="fill:none;stroke:#000000;stroke-linecap:square;stroke-linejoin:miter;"/>
   </g>
   <g id="matplotlib.axis_1">
    <g id="xtick_1">
     <g id="line2d_3">
      <defs>
       <path d="
M0 0
L0 -4" id="m93b0483c22" style="stroke:#000000;stroke-width:0.5;"/>
      </defs>
      <g>
       <use style="stroke:#000000;stroke-width:0.5;" x="117.941468267" xlink:href="#m93b0483c22" y="345.6"/>
      </g>
     </g>
     <g id="line2d_4">
      <defs>
       <path d="
M0 0
L0 4" id="m741efc42ff" style="stroke:#000000;stroke-width:0.5;"/>
      </defs>
      <g>
       <use style="stroke:#000000;stroke-width:0.5;" x="117.941468267" xlink:href="#m741efc42ff" y="43.2"/>
      </g>
     </g>
     <g id="text_1">
      <!-- Oct 13 2015 -->
      <defs>
       <path d="
M19.1875 8.29688
L53.6094 8.29688
L53.6094 0
L7.32812 0
L7.32812 8.29688
Q12.9375 14.1094 22.625 23.8906
Q32.3281 33.6875 34.8125 36.5312
Q39.5469 41.8438 41.4219 45.5312
Q43.3125 49.2188 43.3125 52.7812
Q43.3125 58.5938 39.2344 62.25
Q35.1562 65.9219 28.6094 65.9219
Q23.9688 65.9219 18.8125 64.3125
Q13.6719 62.7031 7.8125 59.4219
L7.8125 69.3906
Q13.7656 71.7812 18.9375 73
Q24.125 74.2188 28.4219 74.2188
Q39.75 74.2188 46.4844 68.5469
Q53.2188 62.8906 53.2188 53.4219
Q53.2188 48.9219 51.5312 44.8906
Q49.8594 40.875 45.4062 35.4062
Q44.1875 33.9844 37.6406 27.2188
Q31.1094 20.4531 19.1875 8.29688" id="BitstreamVeraSans-Roman-32"/>
       <path d="
M39.4062 66.2188
Q28.6562 66.2188 22.3281 58.2031
Q16.0156 50.2031 16.0156 36.375
Q16.0156 22.6094 22.3281 14.5938
Q28.6562 6.59375 39.4062 6.59375
Q50.1406 6.59375 56.4219 14.5938
Q62.7031 22.6094 62.7031 36.375
Q62.7031 50.2031 56.4219 58.2031
Q50.1406 66.2188 39.4062 66.2188
M39.4062 74.2188
Q54.7344 74.2188 63.9062 63.9375
Q73.0938 53.6562 73.0938 36.375
Q73.0938 19.1406 63.9062 8.85938
Q54.7344 -1.42188 39.4062 -1.42188
Q24.0312 -1.42188 14.8125 8.82812
Q5.60938 19.0938 5.60938 36.375
Q5.60938 53.6562 14.8125 63.9375
Q24.0312 74.2188 39.4062 74.2188" id="BitstreamVeraSans-Roman-4f"/>
       <path d="
M31.7812 66.4062
Q24.1719 66.4062 20.3281 58.9062
Q16.5 51.4219 16.5 36.375
Q16.5 21.3906 20.3281 13.8906
Q24.1719 6.39062 31.7812 6.39062
Q39.4531 6.39062 43.2812 13.8906
Q47.125 21.3906 47.125 36.375
Q47.125 51.4219 43.2812 58.9062
Q39.4531 66.4062 31.7812 66.4062
M31.7812 74.2188
Q44.0469 74.2188 50.5156 64.5156
Q56.9844 54.8281 56.9844 36.375
Q56.9844 17.9688 50.5156 8.26562
Q44.0469 -1.42188 31.7812 -1.42188
Q19.5312 -1.42188 13.0625 8.26562
Q6.59375 17.9688 6.59375 36.375
Q6.59375 54.8281 13.0625 64.5156
Q19.5312 74.2188 31.7812 74.2188" id="BitstreamVeraSans-Roman-30"/>
       <path d="
M12.4062 8.29688
L28.5156 8.29688
L28.5156 63.9219
L10.9844 60.4062
L10.9844 69.3906
L28.4219 72.9062
L38.2812 72.9062
L38.2812 8.29688
L54.3906 8.29688
L54.3906 0
L12.4062 0
z
" id="BitstreamVeraSans-Roman-31"/>
       <path d="
M40.5781 39.3125
Q47.6562 37.7969 51.625 33
Q55.6094 28.2188 55.6094 21.1875
Q55.6094 10.4062 48.1875 4.48438
Q40.7656 -1.42188 27.0938 -1.42188
Q22.5156 -1.42188 17.6562 -0.515625
Q12.7969 0.390625 7.625 2.20312
L7.625 11.7188
Q11.7188 9.32812 16.5938 8.10938
Q21.4844 6.89062 26.8125 6.89062
Q36.0781 6.89062 40.9375 10.5469
Q45.7969 14.2031 45.7969 21.1875
Q45.7969 27.6406 41.2812 31.2656
Q36.7656 34.9062 28.7188 34.9062
L20.2188 34.9062
L20.2188 43.0156
L29.1094 43.0156
Q36.375 43.0156 40.2344 45.9219
Q44.0938 48.8281 44.0938 54.2969
Q44.0938 59.9062 40.1094 62.9062
Q36.1406 65.9219 28.7188 65.9219
Q24.6562 65.9219 20.0156 65.0312
Q15.375 64.1562 9.8125 62.3125
L9.8125 71.0938
Q15.4375 72.6562 20.3438 73.4375
Q25.25 74.2188 29.5938 74.2188
Q40.8281 74.2188 47.3594 69.1094
Q53.9062 64.0156 53.9062 55.3281
Q53.9062 49.2656 50.4375 45.0938
Q46.9688 40.9219 40.5781 39.3125" id="BitstreamVeraSans-Roman-33"/>
       <path id="BitstreamVeraSans-Roman-20"/>
       <path d="
M10.7969 72.9062
L49.5156 72.9062
L49.5156 64.5938
L19.8281 64.5938
L19.8281 46.7344
Q21.9688 47.4688 24.1094 47.8281
Q26.2656 48.1875 28.4219 48.1875
Q40.625 48.1875 47.75 41.5
Q54.8906 34.8125 54.8906 23.3906
Q54.8906 11.625 47.5625 5.09375
Q40.2344 -1.42188 26.9062 -1.42188
Q22.3125 -1.42188 17.5469 -0.640625
Q12.7969 0.140625 7.71875 1.70312
L7.71875 11.625
Q12.1094 9.23438 16.7969 8.0625
Q21.4844 6.89062 26.7031 6.89062
Q35.1562 6.89062 40.0781 11.3281
Q45.0156 15.7656 45.0156 23.3906
Q45.0156 31 40.0781 35.4375
Q35.1562 39.8906 26.7031 39.8906
Q22.75 39.8906 18.8125 39.0156
Q14.8906 38.1406 10.7969 36.2812
z
" id="BitstreamVeraSans-Roman-35"/>
       <path d="
M18.3125 70.2188
L18.3125 54.6875
L36.8125 54.6875
L36.8125 47.7031
L18.3125 47.7031
L18.3125 18.0156
Q18.3125 11.3281 20.1406 9.42188
Q21.9688 7.51562 27.5938 7.51562
L36.8125 7.51562
L36.8125 0
L27.5938 0
Q17.1875 0 13.2344 3.875
Q9.28125 7.76562 9.28125 18.0156
L9.28125 47.7031
L2.6875 47.7031
L2.6875 54.6875
L9.28125 54.6875
L9.28125 70.2188
z
" id="BitstreamVeraSans-Roman-74"/>
       <path d="
M48.7812 52.5938
L48.7812 44.1875
Q44.9688 46.2969 41.1406 47.3438
Q37.3125 48.3906 33.4062 48.3906
Q24.6562 48.3906 19.8125 42.8438
Q14.9844 37.3125 14.9844 27.2969
Q14.9844 17.2812 19.8125 11.7344
Q24.6562 6.20312 33.4062 6.20312
Q37.3125 6.20312 41.1406 7.25
Q44.9688 8.29688 48.7812 10.4062
L48.7812 2.09375
Q45.0156 0.34375 40.9844 -0.53125
Q36.9688 -1.42188 32.4219 -1.42188
Q20.0625 -1.42188 12.7812 6.34375
Q5.51562 14.1094 5.51562 27.2969
Q5.51562 40.6719 12.8594 48.3281
Q20.2188 56 33.0156 56
Q37.1562 56 41.1094 55.1406
Q45.0625 54.2969 48.7812 52.5938" id="BitstreamVeraSans-Roman-63"/>
      </defs>
      <g transform="translate(53.3541815316 394.065590385)rotate(-30.0)scale(0.12 -0.12)">
       <use xlink:href="#BitstreamVeraSans-Roman-4f"/>
       <use x="78.7109375" xlink:href="#BitstreamVeraSans-Roman-63"/>
       <use x="133.69140625" xlink:href="#BitstreamVeraSans-Roman-74"/>
       <use x="172.900390625" xlink:href="#BitstreamVeraSans-Roman-20"/>
       <use x="204.6875" xlink:href="#BitstreamVeraSans-Roman-31"/>
       <use x="268.310546875" xlink:href="#BitstreamVeraSans-Roman-33"/>
       <use x="331.93359375" xlink:href="#BitstreamVeraSans-Roman-20"/>
       <use x="363.720703125" xlink:href="#BitstreamVeraSans-Roman-32"/>
       <use x="427.34375" xlink:href="#BitstreamVeraSans-Roman-30"/>
       <use x="490.966796875" xlink:href="#BitstreamVeraSans-Roman-31"/>
       <use x="554.58984375" xlink:href="#BitstreamVeraSans-Roman-35"/>
      </g>
     </g>
    </g>
    <g id="xtick_2">
     <g id="line2d_5">
      <g>
       <use style="stroke:#000000;stroke-width:0.5;" x="173.071485419" xlink:href="#m93b0483c22" y="345.6"/>
      </g>
     </g>
     <g id="line2d_6">
      <g>
       <use style="stroke:#000000;stroke-width:0.5;" x="173.071485419" xlink:href="#m741efc42ff" y="43.2"/>
      </g>
     </g>
     <g id="text_2">
      <!-- Oct 16 2015 -->
      <defs>
       <path d="
M33.0156 40.375
Q26.375 40.375 22.4844 35.8281
Q18.6094 31.2969 18.6094 23.3906
Q18.6094 15.5312 22.4844 10.9531
Q26.375 6.39062 33.0156 6.39062
Q39.6562 6.39062 43.5312 10.9531
Q47.4062 15.5312 47.4062 23.3906
Q47.4062 31.2969 43.5312 35.8281
Q39.6562 40.375 33.0156 40.375
M52.5938 71.2969
L52.5938 62.3125
Q48.875 64.0625 45.0938 64.9844
Q41.3125 65.9219 37.5938 65.9219
Q27.8281 65.9219 22.6719 59.3281
Q17.5312 52.7344 16.7969 39.4062
Q19.6719 43.6562 24.0156 45.9219
Q28.375 48.1875 33.5938 48.1875
Q44.5781 48.1875 50.9531 41.5156
Q57.3281 34.8594 57.3281 23.3906
Q57.3281 12.1562 50.6875 5.35938
Q44.0469 -1.42188 33.0156 -1.42188
Q20.3594 -1.42188 13.6719 8.26562
Q6.98438 17.9688 6.98438 36.375
Q6.98438 53.6562 15.1875 63.9375
Q23.3906 74.2188 37.2031 74.2188
Q40.9219 74.2188 44.7031 73.4844
Q48.4844 72.75 52.5938 71.2969" id="BitstreamVeraSans-Roman-36"/>
      </defs>
      <g transform="translate(108.484198684 394.065590385)rotate(-30.0)scale(0.12 -0.12)">
       <use xlink:href="#BitstreamVeraSans-Roman-4f"/>
       <use x="78.7109375" xlink:href="#BitstreamVeraSans-Roman-63"/>
       <use x="133.69140625" xlink:href="#BitstreamVeraSans-Roman-74"/>
       <use x="172.900390625" xlink:href="#BitstreamVeraSans-Roman-20"/>
       <use x="204.6875" xlink:href="#BitstreamVeraSans-Roman-31"/>
       <use x="268.310546875" xlink:href="#BitstreamVeraSans-Roman-36"/>
       <use x="331.93359375" xlink:href="#BitstreamVeraSans-Roman-20"/>
       <use x="363.720703125" xlink:href="#BitstreamVeraSans-Roman-32"/>
       <use x="427.34375" xlink:href="#BitstreamVeraSans-Roman-30"/>
       <use x="490.966796875" xlink:href="#BitstreamVeraSans-Roman-31"/>
       <use x="554.58984375" xlink:href="#BitstreamVeraSans-Roman-35"/>
      </g>
     </g>
    </g>
    <g id="xtick_3">
     <g id="line2d_7">
      <g>
       <use style="stroke:#000000;stroke-width:0.5;" x="228.201502573" xlink:href="#m93b0483c22" y="345.6"/>
      </g>
     </g>
     <g id="line2d_8">
      <g>
       <use style="stroke:#000000;stroke-width:0.5;" x="228.201502573" xlink:href="#m741efc42ff" y="43.2"/>
      </g>
     </g>
     <g id="text_3">
      <!-- Oct 19 2015 -->
      <defs>
       <path d="
M10.9844 1.51562
L10.9844 10.5
Q14.7031 8.73438 18.5 7.8125
Q22.3125 6.89062 25.9844 6.89062
Q35.75 6.89062 40.8906 13.4531
Q46.0469 20.0156 46.7812 33.4062
Q43.9531 29.2031 39.5938 26.9531
Q35.25 24.7031 29.9844 24.7031
Q19.0469 24.7031 12.6719 31.3125
Q6.29688 37.9375 6.29688 49.4219
Q6.29688 60.6406 12.9375 67.4219
Q19.5781 74.2188 30.6094 74.2188
Q43.2656 74.2188 49.9219 64.5156
Q56.5938 54.8281 56.5938 36.375
Q56.5938 19.1406 48.4062 8.85938
Q40.2344 -1.42188 26.4219 -1.42188
Q22.7031 -1.42188 18.8906 -0.6875
Q15.0938 0.046875 10.9844 1.51562
M30.6094 32.4219
Q37.25 32.4219 41.125 36.9531
Q45.0156 41.5 45.0156 49.4219
Q45.0156 57.2812 41.125 61.8438
Q37.25 66.4062 30.6094 66.4062
Q23.9688 66.4062 20.0938 61.8438
Q16.2188 57.2812 16.2188 49.4219
Q16.2188 41.5 20.0938 36.9531
Q23.9688 32.4219 30.6094 32.4219" id="BitstreamVeraSans-Roman-39"/>
      </defs>
      <g transform="translate(163.614215838 394.065590385)rotate(-30.0)scale(0.12 -0.12)">
       <use xlink:href="#BitstreamVeraSans-Roman-4f"/>
       <use x="78.7109375" xlink:href="#BitstreamVeraSans-Roman-63"/>
       <use x="133.69140625" xlink:href="#BitstreamVeraSans-Roman-74"/>
       <use x="172.900390625" xlink:href="#BitstreamVeraSans-Roman-20"/>
       <use x="204.6875" xlink:href="#BitstreamVeraSans-Roman-31"/>
       <use x="268.310546875" xlink:href="#BitstreamVeraSans-Roman-39"/>
       <use x="331.93359375" xlink:href="#BitstreamVeraSans-Roman-20"/>
       <use x="363.720703125" xlink:href="#BitstreamVeraSans-Roman-32"/>
       <use x="427.34375" xlink:href="#BitstreamVeraSans-Roman-30"/>
       <use x="490.966796875" xlink:href="#BitstreamVeraSans-Roman-31"/>
       <use x="554.58984375" xlink:href="#BitstreamVeraSans-Roman-35"/>
      </g>
     </g>
    </g>
    <g id="xtick_4">
     <g id="line2d_9">
      <g>
       <use style="stroke:#000000;stroke-width:0.5;" x="283.331519725" xlink:href="#m93b0483c22" y="345.6"/>
      </g>
     </g>
     <g id="line2d_10">
      <g>
       <use style="stroke:#000000;stroke-width:0.5;" x="283.331519725" xlink:href="#m741efc42ff" y="43.2"/>
      </g>
     </g>
     <g id="text_4">
      <!-- Oct 22 2015 -->
      <g transform="translate(218.74423299 394.065590385)rotate(-30.0)scale(0.12 -0.12)">
       <use xlink:href="#BitstreamVeraSans-Roman-4f"/>
       <use x="78.7109375" xlink:href="#BitstreamVeraSans-Roman-63"/>
       <use x="133.69140625" xlink:href="#BitstreamVeraSans-Roman-74"/>
       <use x="172.900390625" xlink:href="#BitstreamVeraSans-Roman-20"/>
       <use x="204.6875" xlink:href="#BitstreamVeraSans-Roman-32"/>
       <use x="268.310546875" xlink:href="#BitstreamVeraSans-Roman-32"/>
       <use x="331.93359375" xlink:href="#BitstreamVeraSans-Roman-20"/>
       <use x="363.720703125" xlink:href="#BitstreamVeraSans-Roman-32"/>
       <use x="427.34375" xlink:href="#BitstreamVeraSans-Roman-30"/>
       <use x="490.966796875" xlink:href="#BitstreamVeraSans-Roman-31"/>
       <use x="554.58984375" xlink:href="#BitstreamVeraSans-Roman-35"/>
      </g>
     </g>
    </g>
    <g id="xtick_5">
     <g id="line2d_11">
      <g>
       <use style="stroke:#000000;stroke-width:0.5;" x="338.461536877" xlink:href="#m93b0483c22" y="345.6"/>
      </g>
     </g>
     <g id="line2d_12">
      <g>
       <use style="stroke:#000000;stroke-width:0.5;" x="338.461536877" xlink:href="#m741efc42ff" y="43.2"/>
      </g>
     </g>
     <g id="text_5">
      <!-- Oct 25 2015 -->
      <g transform="translate(273.874250142 394.065590385)rotate(-30.0)scale(0.12 -0.12)">
       <use xlink:href="#BitstreamVeraSans-Roman-4f"/>
       <use x="78.7109375" xlink:href="#BitstreamVeraSans-Roman-63"/>
       <use x="133.69140625" xlink:href="#BitstreamVeraSans-Roman-74"/>
       <use x="172.900390625" xlink:href="#BitstreamVeraSans-Roman-20"/>
       <use x="204.6875" xlink:href="#BitstreamVeraSans-Roman-32"/>
       <use x="268.310546875" xlink:href="#BitstreamVeraSans-Roman-35"/>
       <use x="331.93359375" xlink:href="#BitstreamVeraSans-Roman-20"/>
       <use x="363.720703125" xlink:href="#BitstreamVeraSans-Roman-32"/>
       <use x="427.34375" xlink:href="#BitstreamVeraSans-Roman-30"/>
       <use x="490.966796875" xlink:href="#BitstreamVeraSans-Roman-31"/>
       <use x="554.58984375" xlink:href="#BitstreamVeraSans-Roman-35"/>
      </g>
     </g>
    </g>
    <g id="xtick_6">
     <g id="line2d_13">
      <g>
       <use style="stroke:#000000;stroke-width:0.5;" x="393.591554031" xlink:href="#m93b0483c22" y="345.6"/>
      </g>
     </g>
     <g id="line2d_14">
      <g>
       <use style="stroke:#000000;stroke-width:0.5;" x="393.591554031" xlink:href="#m741efc42ff" y="43.2"/>
      </g>
     </g>
     <g id="text_6">
      <!-- Oct 28 2015 -->
      <defs>
       <path d="
M31.7812 34.625
Q24.75 34.625 20.7188 30.8594
Q16.7031 27.0938 16.7031 20.5156
Q16.7031 13.9219 20.7188 10.1562
Q24.75 6.39062 31.7812 6.39062
Q38.8125 6.39062 42.8594 10.1719
Q46.9219 13.9688 46.9219 20.5156
Q46.9219 27.0938 42.8906 30.8594
Q38.875 34.625 31.7812 34.625
M21.9219 38.8125
Q15.5781 40.375 12.0312 44.7188
Q8.5 49.0781 8.5 55.3281
Q8.5 64.0625 14.7188 69.1406
Q20.9531 74.2188 31.7812 74.2188
Q42.6719 74.2188 48.875 69.1406
Q55.0781 64.0625 55.0781 55.3281
Q55.0781 49.0781 51.5312 44.7188
Q48 40.375 41.7031 38.8125
Q48.8281 37.1562 52.7969 32.3125
Q56.7812 27.4844 56.7812 20.5156
Q56.7812 9.90625 50.3125 4.23438
Q43.8438 -1.42188 31.7812 -1.42188
Q19.7344 -1.42188 13.25 4.23438
Q6.78125 9.90625 6.78125 20.5156
Q6.78125 27.4844 10.7812 32.3125
Q14.7969 37.1562 21.9219 38.8125
M18.3125 54.3906
Q18.3125 48.7344 21.8438 45.5625
Q25.3906 42.3906 31.7812 42.3906
Q38.1406 42.3906 41.7188 45.5625
Q45.3125 48.7344 45.3125 54.3906
Q45.3125 60.0625 41.7188 63.2344
Q38.1406 66.4062 31.7812 66.4062
Q25.3906 66.4062 21.8438 63.2344
Q18.3125 60.0625 18.3125 54.3906" id="BitstreamVeraSans-Roman-38"/>
      </defs>
      <g transform="translate(329.004267296 394.065590385)rotate(-30.0)scale(0.12 -0.12)">
       <use xlink:href="#BitstreamVeraSans-Roman-4f"/>
       <use x="78.7109375" xlink:href="#BitstreamVeraSans-Roman-63"/>
       <use x="133.69140625" xlink:href="#BitstreamVeraSans-Roman-74"/>
       <use x="172.900390625" xlink:href="#BitstreamVeraSans-Roman-20"/>
       <use x="204.6875" xlink:href="#BitstreamVeraSans-Roman-32"/>
       <use x="268.310546875" xlink:href="#BitstreamVeraSans-Roman-38"/>
       <use x="331.93359375" xlink:href="#BitstreamVeraSans-Roman-20"/>
       <use x="363.720703125" xlink:href="#BitstreamVeraSans-Roman-32"/>
       <use x="427.34375" xlink:href="#BitstreamVeraSans-Roman-30"/>
       <use x="490.966796875" xlink:href="#BitstreamVeraSans-Roman-31"/>
       <use x="554.58984375" xlink:href="#BitstreamVeraSans-Roman-35"/>
      </g>
     </g>
    </g>
    <g id="xtick_7">
     <g id="line2d_15">
      <g>
       <use style="stroke:#000000;stroke-width:0.5;" x="448.721571183" xlink:href="#m93b0483c22" y="345.6"/>
      </g>
     </g>
     <g id="line2d_16">
      <g>
       <use style="stroke:#000000;stroke-width:0.5;" x="448.721571183" xlink:href="#m741efc42ff" y="43.2"/>
      </g>
     </g>
     <g id="text_7">
      <!-- Oct 31 2015 -->
      <g transform="translate(384.134284448 394.065590385)rotate(-30.0)scale(0.12 -0.12)">
       <use xlink:href="#BitstreamVeraSans-Roman-4f"/>
       <use x="78.7109375" xlink:href="#BitstreamVeraSans-Roman-63"/>
       <use x="133.69140625" xlink:href="#BitstreamVeraSans-Roman-74"/>
       <use x="172.900390625" xlink:href="#BitstreamVeraSans-Roman-20"/>
       <use x="204.6875" xlink:href="#BitstreamVeraSans-Roman-33"/>
       <use x="268.310546875" xlink:href="#BitstreamVeraSans-Roman-31"/>
       <use x="331.93359375" xlink:href="#BitstreamVeraSans-Roman-20"/>
       <use x="363.720703125" xlink:href="#BitstreamVeraSans-Roman-32"/>
       <use x="427.34375" xlink:href="#BitstreamVeraSans-Roman-30"/>
       <use x="490.966796875" xlink:href="#BitstreamVeraSans-Roman-31"/>
       <use x="554.58984375" xlink:href="#BitstreamVeraSans-Roman-35"/>
      </g>
     </g>
    </g>
    <g id="xtick_8">
     <g id="line2d_17">
      <g>
       <use style="stroke:#000000;stroke-width:0.5;" x="503.851588335" xlink:href="#m93b0483c22" y="345.6"/>
      </g>
     </g>
     <g id="line2d_18">
      <g>
       <use style="stroke:#000000;stroke-width:0.5;" x="503.851588335" xlink:href="#m741efc42ff" y="43.2"/>
      </g>
     </g>
     <g id="text_8">
      <!-- Nov 03 2015 -->
      <defs>
       <path d="
M2.98438 54.6875
L12.5 54.6875
L29.5938 8.79688
L46.6875 54.6875
L56.2031 54.6875
L35.6875 0
L23.4844 0
z
" id="BitstreamVeraSans-Roman-76"/>
       <path d="
M9.8125 72.9062
L23.0938 72.9062
L55.4219 11.9219
L55.4219 72.9062
L64.9844 72.9062
L64.9844 0
L51.7031 0
L19.3906 60.9844
L19.3906 0
L9.8125 0
z
" id="BitstreamVeraSans-Roman-4e"/>
       <path d="
M30.6094 48.3906
Q23.3906 48.3906 19.1875 42.75
Q14.9844 37.1094 14.9844 27.2969
Q14.9844 17.4844 19.1562 11.8438
Q23.3438 6.20312 30.6094 6.20312
Q37.7969 6.20312 41.9844 11.8594
Q46.1875 17.5312 46.1875 27.2969
Q46.1875 37.0156 41.9844 42.7031
Q37.7969 48.3906 30.6094 48.3906
M30.6094 56
Q42.3281 56 49.0156 48.375
Q55.7188 40.7656 55.7188 27.2969
Q55.7188 13.875 49.0156 6.21875
Q42.3281 -1.42188 30.6094 -1.42188
Q18.8438 -1.42188 12.1719 6.21875
Q5.51562 13.875 5.51562 27.2969
Q5.51562 40.7656 12.1719 48.375
Q18.8438 56 30.6094 56" id="BitstreamVeraSans-Roman-6f"/>
      </defs>
      <g transform="translate(436.948766176 395.402465385)rotate(-30.0)scale(0.12 -0.12)">
       <use xlink:href="#BitstreamVeraSans-Roman-4e"/>
       <use x="74.8046875" xlink:href="#BitstreamVeraSans-Roman-6f"/>
       <use x="135.986328125" xlink:href="#BitstreamVeraSans-Roman-76"/>
       <use x="195.166015625" xlink:href="#BitstreamVeraSans-Roman-20"/>
       <use x="226.953125" xlink:href="#BitstreamVeraSans-Roman-30"/>
       <use x="290.576171875" xlink:href="#BitstreamVeraSans-Roman-33"/>
       <use x="354.19921875" xlink:href="#BitstreamVeraSans-Roman-20"/>
       <use x="385.986328125" xlink:href="#BitstreamVeraSans-Roman-32"/>
       <use x="449.609375" xlink:href="#BitstreamVeraSans-Roman-30"/>
       <use x="513.232421875" xlink:href="#BitstreamVeraSans-Roman-31"/>
       <use x="576.85546875" xlink:href="#BitstreamVeraSans-Roman-35"/>
      </g>
     </g>
    </g>
   </g>
   <g id="matplotlib.axis_2">
    <g id="ytick_1">
     <g id="text_9">
      <!-- 0 -->
      <g transform="translate(61.953125 349.190314425)scale(0.12 -0.12)">
       <use xlink:href="#BitstreamVeraSans-Roman-30"/>
      </g>
     </g>
    </g>
    <g id="ytick_2">
     <g id="line2d_19">
      <defs>
       <path d="
M0 0
L4 0" id="m728421d6d4" style="stroke:#000000;stroke-width:0.5;"/>
      </defs>
      <g>
       <use style="stroke:#000000;stroke-width:0.5;" x="72.0" xlink:href="#m728421d6d4" y="302.680236965"/>
      </g>
     </g>
     <g id="line2d_20">
      <defs>
       <path d="
M0 0
L-4 0" id="mcb0005524f" style="stroke:#000000;stroke-width:0.5;"/>
      </defs>
      <g>
       <use style="stroke:#000000;stroke-width:0.5;" x="518.4" xlink:href="#mcb0005524f" y="302.680236965"/>
      </g>
     </g>
     <g id="text_10">
      <!-- 5000 -->
      <g transform="translate(39.183125 305.991486965)scale(0.12 -0.12)">
       <use xlink:href="#BitstreamVeraSans-Roman-35"/>
       <use x="63.623046875" xlink:href="#BitstreamVeraSans-Roman-30"/>
       <use x="127.24609375" xlink:href="#BitstreamVeraSans-Roman-30"/>
       <use x="190.869140625" xlink:href="#BitstreamVeraSans-Roman-30"/>
      </g>
     </g>
    </g>
    <g id="ytick_3">
     <g id="line2d_21">
      <g>
       <use style="stroke:#000000;stroke-width:0.5;" x="72.0" xlink:href="#m728421d6d4" y="259.481409505"/>
      </g>
     </g>
     <g id="line2d_22">
      <g>
       <use style="stroke:#000000;stroke-width:0.5;" x="518.4" xlink:href="#mcb0005524f" y="259.481409505"/>
      </g>
     </g>
     <g id="text_11">
      <!-- 10000 -->
      <g transform="translate(31.94 262.792659505)scale(0.12 -0.12)">
       <use xlink:href="#BitstreamVeraSans-Roman-31"/>
       <use x="63.623046875" xlink:href="#BitstreamVeraSans-Roman-30"/>
       <use x="127.24609375" xlink:href="#BitstreamVeraSans-Roman-30"/>
       <use x="190.869140625" xlink:href="#BitstreamVeraSans-Roman-30"/>
       <use x="254.4921875" xlink:href="#BitstreamVeraSans-Roman-30"/>
      </g>
     </g>
    </g>
    <g id="ytick_4">
     <g id="line2d_23">
      <g>
       <use style="stroke:#000000;stroke-width:0.5;" x="72.0" xlink:href="#m728421d6d4" y="216.282582044"/>
      </g>
     </g>
     <g id="line2d_24">
      <g>
       <use style="stroke:#000000;stroke-width:0.5;" x="518.4" xlink:href="#mcb0005524f" y="216.282582044"/>
      </g>
     </g>
     <g id="text_12">
      <!-- 15000 -->
      <g transform="translate(31.94 219.593832044)scale(0.12 -0.12)">
       <use xlink:href="#BitstreamVeraSans-Roman-31"/>
       <use x="63.623046875" xlink:href="#BitstreamVeraSans-Roman-35"/>
       <use x="127.24609375" xlink:href="#BitstreamVeraSans-Roman-30"/>
       <use x="190.869140625" xlink:href="#BitstreamVeraSans-Roman-30"/>
       <use x="254.4921875" xlink:href="#BitstreamVeraSans-Roman-30"/>
      </g>
     </g>
    </g>
    <g id="ytick_5">
     <g id="line2d_25">
      <g>
       <use style="stroke:#000000;stroke-width:0.5;" x="72.0" xlink:href="#m728421d6d4" y="173.083754584"/>
      </g>
     </g>
     <g id="line2d_26">
      <g>
       <use style="stroke:#000000;stroke-width:0.5;" x="518.4" xlink:href="#mcb0005524f" y="173.083754584"/>
      </g>
     </g>
     <g id="text_13">
      <!-- 20000 -->
      <g transform="translate(31.50125 176.395004584)scale(0.12 -0.12)">
       <use xlink:href="#BitstreamVeraSans-Roman-32"/>
       <use x="63.623046875" xlink:href="#BitstreamVeraSans-Roman-30"/>
       <use x="127.24609375" xlink:href="#BitstreamVeraSans-Roman-30"/>
       <use x="190.869140625" xlink:href="#BitstreamVeraSans-Roman-30"/>
       <use x="254.4921875" xlink:href="#BitstreamVeraSans-Roman-30"/>
      </g>
     </g>
    </g>
    <g id="ytick_6">
     <g id="line2d_27">
      <g>
       <use style="stroke:#000000;stroke-width:0.5;" x="72.0" xlink:href="#m728421d6d4" y="129.884927123"/>
      </g>
     </g>
     <g id="line2d_28">
      <g>
       <use style="stroke:#000000;stroke-width:0.5;" x="518.4" xlink:href="#mcb0005524f" y="129.884927123"/>
      </g>
     </g>
     <g id="text_14">
      <!-- 25000 -->
      <g transform="translate(31.50125 133.196177123)scale(0.12 -0.12)">
       <use xlink:href="#BitstreamVeraSans-Roman-32"/>
       <use x="63.623046875" xlink:href="#BitstreamVeraSans-Roman-35"/>
       <use x="127.24609375" xlink:href="#BitstreamVeraSans-Roman-30"/>
       <use x="190.869140625" xlink:href="#BitstreamVeraSans-Roman-30"/>
       <use x="254.4921875" xlink:href="#BitstreamVeraSans-Roman-30"/>
      </g>
     </g>
    </g>
    <g id="ytick_7">
     <g id="line2d_29">
      <g>
       <use style="stroke:#000000;stroke-width:0.5;" x="72.0" xlink:href="#m728421d6d4" y="86.686099663"/>
      </g>
     </g>
     <g id="line2d_30">
      <g>
       <use style="stroke:#000000;stroke-width:0.5;" x="518.4" xlink:href="#mcb0005524f" y="86.686099663"/>
      </g>
     </g>
     <g id="text_15">
      <!-- 30000 -->
      <g transform="translate(31.536875 89.997349663)scale(0.12 -0.12)">
       <use xlink:href="#BitstreamVeraSans-Roman-33"/>
       <use x="63.623046875" xlink:href="#BitstreamVeraSans-Roman-30"/>
       <use x="127.24609375" xlink:href="#BitstreamVeraSans-Roman-30"/>
       <use x="190.869140625" xlink:href="#BitstreamVeraSans-Roman-30"/>
       <use x="254.4921875" xlink:href="#BitstreamVeraSans-Roman-30"/>
      </g>
     </g>
    </g>
    <g id="ytick_8">
     <g id="line2d_31">
      <g>
       <use style="stroke:#000000;stroke-width:0.5;" x="72.0" xlink:href="#m728421d6d4" y="43.4872722026"/>
      </g>
     </g>
     <g id="line2d_32">
      <g>
       <use style="stroke:#000000;stroke-width:0.5;" x="518.4" xlink:href="#mcb0005524f" y="43.4872722026"/>
      </g>
     </g>
     <g id="text_16">
      <!-- 35000 -->
      <g transform="translate(31.536875 46.7985222026)scale(0.12 -0.12)">
       <use xlink:href="#BitstreamVeraSans-Roman-33"/>
       <use x="63.623046875" xlink:href="#BitstreamVeraSans-Roman-35"/>
       <use x="127.24609375" xlink:href="#BitstreamVeraSans-Roman-30"/>
       <use x="190.869140625" xlink:href="#BitstreamVeraSans-Roman-30"/>
       <use x="254.4921875" xlink:href="#BitstreamVeraSans-Roman-30"/>
      </g>
     </g>
    </g>
   </g>
   <g id="text_17">
    <!-- Altglas -->
    <defs>
     <path d="
M45.4062 27.9844
Q45.4062 37.75 41.375 43.1094
Q37.3594 48.4844 30.0781 48.4844
Q22.8594 48.4844 18.8281 43.1094
Q14.7969 37.75 14.7969 27.9844
Q14.7969 18.2656 18.8281 12.8906
Q22.8594 7.51562 30.0781 7.51562
Q37.3594 7.51562 41.375 12.8906
Q45.4062 18.2656 45.4062 27.9844
M54.3906 6.78125
Q54.3906 -7.17188 48.1875 -13.9844
Q42 -20.7969 29.2031 -20.7969
Q24.4688 -20.7969 20.2656 -20.0938
Q16.0625 -19.3906 12.1094 -17.9219
L12.1094 -9.1875
Q16.0625 -11.3281 19.9219 -12.3438
Q23.7812 -13.375 27.7812 -13.375
Q36.625 -13.375 41.0156 -8.76562
Q45.4062 -4.15625 45.4062 5.17188
L45.4062 9.625
Q42.625 4.78125 38.2812 2.39062
Q33.9375 0 27.875 0
Q17.8281 0 11.6719 7.65625
Q5.51562 15.3281 5.51562 27.9844
Q5.51562 40.6719 11.6719 48.3281
Q17.8281 56 27.875 56
Q33.9375 56 38.2812 53.6094
Q42.625 51.2188 45.4062 46.3906
L45.4062 54.6875
L54.3906 54.6875
z
" id="BitstreamVeraSans-Roman-67"/>
     <path d="
M34.2812 27.4844
Q23.3906 27.4844 19.1875 25
Q14.9844 22.5156 14.9844 16.5
Q14.9844 11.7188 18.1406 8.90625
Q21.2969 6.10938 26.7031 6.10938
Q34.1875 6.10938 38.7031 11.4062
Q43.2188 16.7031 43.2188 25.4844
L43.2188 27.4844
z

M52.2031 31.2031
L52.2031 0
L43.2188 0
L43.2188 8.29688
Q40.1406 3.32812 35.5469 0.953125
Q30.9531 -1.42188 24.3125 -1.42188
Q15.9219 -1.42188 10.9531 3.29688
Q6 8.01562 6 15.9219
Q6 25.1406 12.1719 29.8281
Q18.3594 34.5156 30.6094 34.5156
L43.2188 34.5156
L43.2188 35.4062
Q43.2188 41.6094 39.1406 45
Q35.0625 48.3906 27.6875 48.3906
Q23 48.3906 18.5469 47.2656
Q14.1094 46.1406 10.0156 43.8906
L10.0156 52.2031
Q14.9375 54.1094 19.5781 55.0469
Q24.2188 56 28.6094 56
Q40.4844 56 46.3438 49.8438
Q52.2031 43.7031 52.2031 31.2031" id="BitstreamVeraSans-Roman-61"/>
     <path d="
M9.42188 75.9844
L18.4062 75.9844
L18.4062 0
L9.42188 0
z
" id="BitstreamVeraSans-Roman-6c"/>
     <path d="
M34.1875 63.1875
L20.7969 26.9062
L47.6094 26.9062
z

M28.6094 72.9062
L39.7969 72.9062
L67.5781 0
L57.3281 0
L50.6875 18.7031
L17.8281 18.7031
L11.1875 0
L0.78125 0
z
" id="BitstreamVeraSans-Roman-41"/>
     <path d="
M44.2812 53.0781
L44.2812 44.5781
Q40.4844 46.5312 36.375 47.5
Q32.2812 48.4844 27.875 48.4844
Q21.1875 48.4844 17.8438 46.4375
Q14.5 44.3906 14.5 40.2812
Q14.5 37.1562 16.8906 35.375
Q19.2812 33.5938 26.5156 31.9844
L29.5938 31.2969
Q39.1562 29.25 43.1875 25.5156
Q47.2188 21.7812 47.2188 15.0938
Q47.2188 7.46875 41.1875 3.01562
Q35.1562 -1.42188 24.6094 -1.42188
Q20.2188 -1.42188 15.4531 -0.5625
Q10.6875 0.296875 5.42188 2
L5.42188 11.2812
Q10.4062 8.6875 15.2344 7.39062
Q20.0625 6.10938 24.8125 6.10938
Q31.1562 6.10938 34.5625 8.28125
Q37.9844 10.4531 37.9844 14.4062
Q37.9844 18.0625 35.5156 20.0156
Q33.0625 21.9688 24.7031 23.7812
L21.5781 24.5156
Q13.2344 26.2656 9.51562 29.9062
Q5.8125 33.5469 5.8125 39.8906
Q5.8125 47.6094 11.2812 51.7969
Q16.75 56 26.8125 56
Q31.7812 56 36.1719 55.2656
Q40.5781 54.5469 44.2812 53.0781" id="BitstreamVeraSans-Roman-73"/>
    </defs>
    <g transform="translate(470.25 38.2)scale(0.144 -0.144)">
     <use xlink:href="#BitstreamVeraSans-Roman-41"/>
     <use x="68.408203125" xlink:href="#BitstreamVeraSans-Roman-6c"/>
     <use x="96.19140625" xlink:href="#BitstreamVeraSans-Roman-74"/>
     <use x="135.400390625" xlink:href="#BitstreamVeraSans-Roman-67"/>
     <use x="198.876953125" xlink:href="#BitstreamVeraSans-Roman-6c"/>
     <use x="226.66015625" xlink:href="#BitstreamVeraSans-Roman-61"/>
     <use x="287.939453125" xlink:href="#BitstreamVeraSans-Roman-73"/>
    </g>
   </g>
   <g id="legend_1">
    <g id="patch_7">
     <path d="
M123.942 423.616
L466.458 423.616
L466.458 398.16
L123.942 398.16
z
" style="fill:#ffffff;stroke:#000000;stroke-linejoin:miter;"/>
    </g>
    <g id="line2d_33">
     <path d="
M134.022 409.822
L154.182 409.822" style="fill:none;stroke:#ff0000;stroke-linecap:square;"/>
    </g>
    <g id="line2d_34"/>
    <g id="text_18">
     <!-- Schwarzmarktpreis -->
     <defs>
      <path d="
M52 44.1875
Q55.375 50.25 60.0625 53.125
Q64.75 56 71.0938 56
Q79.6406 56 84.2812 50.0156
Q88.9219 44.0469 88.9219 33.0156
L88.9219 0
L79.8906 0
L79.8906 32.7188
Q79.8906 40.5781 77.0938 44.375
Q74.3125 48.1875 68.6094 48.1875
Q61.625 48.1875 57.5625 43.5469
Q53.5156 38.9219 53.5156 30.9062
L53.5156 0
L44.4844 0
L44.4844 32.7188
Q44.4844 40.625 41.7031 44.4062
Q38.9219 48.1875 33.1094 48.1875
Q26.2188 48.1875 22.1562 43.5312
Q18.1094 38.875 18.1094 30.9062
L18.1094 0
L9.07812 0
L9.07812 54.6875
L18.1094 54.6875
L18.1094 46.1875
Q21.1875 51.2188 25.4844 53.6094
Q29.7812 56 35.6875 56
Q41.6562 56 45.8281 52.9688
Q50 49.9531 52 44.1875" id="BitstreamVeraSans-Roman-6d"/>
      <path d="
M5.51562 54.6875
L48.1875 54.6875
L48.1875 46.4844
L14.4062 7.17188
L48.1875 7.17188
L48.1875 0
L4.29688 0
L4.29688 8.20312
L38.0938 47.5156
L5.51562 47.5156
z
" id="BitstreamVeraSans-Roman-7a"/>
      <path d="
M53.5156 70.5156
L53.5156 60.8906
Q47.9062 63.5781 42.9219 64.8906
Q37.9375 66.2188 33.2969 66.2188
Q25.25 66.2188 20.875 63.0938
Q16.5 59.9688 16.5 54.2031
Q16.5 49.3594 19.4062 46.8906
Q22.3125 44.4375 30.4219 42.9219
L36.375 41.7031
Q47.4062 39.5938 52.6562 34.2969
Q57.9062 29 57.9062 20.125
Q57.9062 9.51562 50.7969 4.04688
Q43.7031 -1.42188 29.9844 -1.42188
Q24.8125 -1.42188 18.9688 -0.25
Q13.1406 0.921875 6.89062 3.21875
L6.89062 13.375
Q12.8906 10.0156 18.6562 8.29688
Q24.4219 6.59375 29.9844 6.59375
Q38.4219 6.59375 43.0156 9.90625
Q47.6094 13.2344 47.6094 19.3906
Q47.6094 24.75 44.3125 27.7812
Q41.0156 30.8125 33.5 32.3281
L27.4844 33.5
Q16.4531 35.6875 11.5156 40.375
Q6.59375 45.0625 6.59375 53.4219
Q6.59375 63.0938 13.4062 68.6562
Q20.2188 74.2188 32.1719 74.2188
Q37.3125 74.2188 42.625 73.2812
Q47.9531 72.3594 53.5156 70.5156" id="BitstreamVeraSans-Roman-53"/>
      <path d="
M9.42188 54.6875
L18.4062 54.6875
L18.4062 0
L9.42188 0
z

M9.42188 75.9844
L18.4062 75.9844
L18.4062 64.5938
L9.42188 64.5938
z
" id="BitstreamVeraSans-Roman-69"/>
      <path d="
M54.8906 33.0156
L54.8906 0
L45.9062 0
L45.9062 32.7188
Q45.9062 40.4844 42.875 44.3281
Q39.8438 48.1875 33.7969 48.1875
Q26.5156 48.1875 22.3125 43.5469
Q18.1094 38.9219 18.1094 30.9062
L18.1094 0
L9.07812 0
L9.07812 75.9844
L18.1094 75.9844
L18.1094 46.1875
Q21.3438 51.125 25.7031 53.5625
Q30.0781 56 35.7969 56
Q45.2188 56 50.0469 50.1719
Q54.8906 44.3438 54.8906 33.0156" id="BitstreamVeraSans-Roman-68"/>
      <path d="
M56.2031 29.5938
L56.2031 25.2031
L14.8906 25.2031
Q15.4844 15.9219 20.4844 11.0625
Q25.4844 6.20312 34.4219 6.20312
Q39.5938 6.20312 44.4531 7.46875
Q49.3125 8.73438 54.1094 11.2812
L54.1094 2.78125
Q49.2656 0.734375 44.1875 -0.34375
Q39.1094 -1.42188 33.8906 -1.42188
Q20.7969 -1.42188 13.1562 6.1875
Q5.51562 13.8125 5.51562 26.8125
Q5.51562 40.2344 12.7656 48.1094
Q20.0156 56 32.3281 56
Q43.3594 56 49.7812 48.8906
Q56.2031 41.7969 56.2031 29.5938
M47.2188 32.2344
Q47.125 39.5938 43.0938 43.9844
Q39.0625 48.3906 32.4219 48.3906
Q24.9062 48.3906 20.3906 44.1406
Q15.875 39.8906 15.1875 32.1719
z
" id="BitstreamVeraSans-Roman-65"/>
      <path d="
M4.20312 54.6875
L13.1875 54.6875
L24.4219 12.0156
L35.5938 54.6875
L46.1875 54.6875
L57.4219 12.0156
L68.6094 54.6875
L77.5938 54.6875
L63.2812 0
L52.6875 0
L40.9219 44.8281
L29.1094 0
L18.5 0
z
" id="BitstreamVeraSans-Roman-77"/>
      <path d="
M9.07812 75.9844
L18.1094 75.9844
L18.1094 31.1094
L44.9219 54.6875
L56.3906 54.6875
L27.3906 29.1094
L57.625 0
L45.9062 0
L18.1094 26.7031
L18.1094 0
L9.07812 0
z
" id="BitstreamVeraSans-Roman-6b"/>
      <path d="
M41.1094 46.2969
Q39.5938 47.1719 37.8125 47.5781
Q36.0312 48 33.8906 48
Q26.2656 48 22.1875 43.0469
Q18.1094 38.0938 18.1094 28.8125
L18.1094 0
L9.07812 0
L9.07812 54.6875
L18.1094 54.6875
L18.1094 46.1875
Q20.9531 51.1719 25.4844 53.5781
Q30.0312 56 36.5312 56
Q37.4531 56 38.5781 55.875
Q39.7031 55.7656 41.0625 55.5156
z
" id="BitstreamVeraSans-Roman-72"/>
      <path d="
M18.1094 8.20312
L18.1094 -20.7969
L9.07812 -20.7969
L9.07812 54.6875
L18.1094 54.6875
L18.1094 46.3906
Q20.9531 51.2656 25.2656 53.625
Q29.5938 56 35.5938 56
Q45.5625 56 51.7812 48.0938
Q58.0156 40.1875 58.0156 27.2969
Q58.0156 14.4062 51.7812 6.48438
Q45.5625 -1.42188 35.5938 -1.42188
Q29.5938 -1.42188 25.2656 0.953125
Q20.9531 3.32812 18.1094 8.20312
M48.6875 27.2969
Q48.6875 37.2031 44.6094 42.8438
Q40.5312 48.4844 33.4062 48.4844
Q26.2656 48.4844 22.1875 42.8438
Q18.1094 37.2031 18.1094 27.2969
Q18.1094 17.3906 22.1875 11.75
Q26.2656 6.10938 33.4062 6.10938
Q40.5312 6.10938 44.6094 11.75
Q48.6875 17.3906 48.6875 27.2969" id="BitstreamVeraSans-Roman-70"/>
     </defs>
     <g transform="translate(170.022375 414.86175)scale(0.144 -0.144)">
      <use xlink:href="#BitstreamVeraSans-Roman-53"/>
      <use x="63.4765625" xlink:href="#BitstreamVeraSans-Roman-63"/>
      <use x="118.45703125" xlink:href="#BitstreamVeraSans-Roman-68"/>
      <use x="181.8359375" xlink:href="#BitstreamVeraSans-Roman-77"/>
      <use x="263.623046875" xlink:href="#BitstreamVeraSans-Roman-61"/>
      <use x="324.90234375" xlink:href="#BitstreamVeraSans-Roman-72"/>
      <use x="366.015625" xlink:href="#BitstreamVeraSans-Roman-7a"/>
      <use x="418.505859375" xlink:href="#BitstreamVeraSans-Roman-6d"/>
      <use x="515.91796875" xlink:href="#BitstreamVeraSans-Roman-61"/>
      <use x="577.197265625" xlink:href="#BitstreamVeraSans-Roman-72"/>
      <use x="618.310546875" xlink:href="#BitstreamVeraSans-Roman-6b"/>
      <use x="676.220703125" xlink:href="#BitstreamVeraSans-Roman-74"/>
      <use x="715.4296875" xlink:href="#BitstreamVeraSans-Roman-70"/>
      <use x="778.90625" xlink:href="#BitstreamVeraSans-Roman-72"/>
      <use x="817.76953125" xlink:href="#BitstreamVeraSans-Roman-65"/>
      <use x="879.29296875" xlink:href="#BitstreamVeraSans-Roman-69"/>
      <use x="907.076171875" xlink:href="#BitstreamVeraSans-Roman-73"/>
     </g>
    </g>
    <g id="line2d_35">
     <path d="
M339.609 409.822
L359.769 409.822" style="fill:none;stroke:#008000;stroke-linecap:square;"/>
    </g>
    <g id="line2d_36"/>
    <g id="text_19">
     <!-- Normalpreis -->
     <g transform="translate(375.609375 414.86175)scale(0.144 -0.144)">
      <use xlink:href="#BitstreamVeraSans-Roman-4e"/>
      <use x="74.8046875" xlink:href="#BitstreamVeraSans-Roman-6f"/>
      <use x="135.986328125" xlink:href="#BitstreamVeraSans-Roman-72"/>
      <use x="175.349609375" xlink:href="#BitstreamVeraSans-Roman-6d"/>
      <use x="272.76171875" xlink:href="#BitstreamVeraSans-Roman-61"/>
      <use x="334.041015625" xlink:href="#BitstreamVeraSans-Roman-6c"/>
      <use x="361.82421875" xlink:href="#BitstreamVeraSans-Roman-70"/>
      <use x="425.30078125" xlink:href="#BitstreamVeraSans-Roman-72"/>
      <use x="464.1640625" xlink:href="#BitstreamVeraSans-Roman-65"/>
      <use x="525.6875" xlink:href="#BitstreamVeraSans-Roman-69"/>
      <use x="553.470703125" xlink:href="#BitstreamVeraSans-Roman-73"/>
     </g>
    </g>
   </g>
  </g>
 </g>
 <defs>
  <clipPath id="pcb2bf987bf">
   <rect height="302.4" width="446.4" x="72.0" y="43.2"/>
  </clipPath>
 </defs>
</svg>
