<?xml version="1.0" encoding="utf-8" standalone="no"?>
<!DOCTYPE svg PUBLIC "-//W3C//DTD SVG 1.1//EN"
  "http://www.w3.org/Graphics/SVG/1.1/DTD/svg11.dtd">
<!-- Created with matplotlib (http://matplotlib.org/) -->
<svg height="432pt" version="1.1" viewBox="0 0 576 432" width="576pt" xmlns="http://www.w3.org/2000/svg" xmlns:xlink="http://www.w3.org/1999/xlink">
 <defs>
  <style type="text/css">
*{stroke-linecap:butt;stroke-linejoin:round;}
  </style>
 </defs>
 <g id="figure_1">
  <g id="patch_1">
   <path d="
M0 432
L576 432
L576 0
L0 0
z
" style="fill:#ffffff;"/>
  </g>
  <g id="axes_1">
   <g id="patch_2">
    <path d="
M72 345.6
L518.4 345.6
L518.4 43.2
L72 43.2
z
" style="fill:#ffffff;"/>
   </g>
   <g id="line2d_1">
    <path clip-path="url(#pcb2bf987bf)" d="
M72 198.679
L72.1276 198.679
L72.3828 187.656
L72.5105 193.195
L72.8933 184.458
L73.5314 193.192
L73.659 198.862
L73.9142 198.862
L74.0419 196.118
L74.2971 201.589
L75.9561 201.582
L76.2113 195.889
L76.3389 200.495
L76.5942 198.862
L76.7218 198.862
L76.9772 188.214
L77.7429 198.862
L77.8703 196.118
L78.1256 201.582
L78.1256 201.582
L78.2532 201.582
L78.5084 198.862
L78.636 201.582
L78.8915 187.561
L79.0189 187.561
L79.2741 201.582
L79.4017 201.582
L79.6569 194.42
L79.7846 210.26
L80.0398 201.915
L80.1674 210.257
L80.5503 188.214
L80.9331 188.214
L81.316 173.549
L81.5712 190.994
L81.6988 185.422
L81.9542 181.649
L82.0816 204.055
L82.3371 201.328
L82.8473 201.328
L83.1026 198.6
L83.2302 195.857
L84.6342 195.854
L85.017 198.617
L85.1444 195.873
L85.9101 195.873
L86.1654 201.328
L86.293 201.337
L86.5482 198.617
L86.6758 195.873
L86.931 201.337
L87.0587 201.328
L87.3139 198.617
L87.4415 198.617
L87.6967 200.789
L87.8244 198.061
L88.0796 187.006
L88.2072 187.006
L88.4624 178.024
L88.5901 187.006
L88.8453 195.236
L88.8453 195.236
L88.9729 192.558
L89.2281 195.236
L89.611 184.213
L89.9938 184.213
L89.9938 184.213
L90.3767 207.546
L91.0148 204.868
L91.7804 204.871
L91.9081 201.344
L92.6738 201.344
L93.3118 183.348
L94.2051 201.344
L94.8432 202.16
L94.9708 208.725
L95.6089 206.014
L95.7365 203.3
L96.3746 203.294
L97.1403 200.576
L97.906 185.422
L98.0336 204.626
L98.6717 188.214
L98.7993 207.314
L99.4374 207.311
L100.331 185.356
L100.969 185.356
L101.734 193.571
L101.862 190.99
L103.266 196.314
L103.393 198.96
L104.032 196.314
L104.797 204.626
L105.563 208.722
L106.329 197.898
L107.095 203.565
L107.86 200.527
L107.988 200.527
L108.626 205.149
L109.519 205.149
L110.157 199.727
L110.285 194.256
L110.923 204.055
L111.05 202.438
L111.689 199.727
L111.816 197
L113.986 210.776
L114.879 212.364
L116.41 212.364
L117.048 210.93
L117.814 211.403
L117.942 206.031
L118.58 198.581
L118.707 198.584
L119.345 208.725
L120.111 204.675
L120.877 197.049
L121.004 197.049
L121.643 199.368
L122.408 199.711
L122.536 202.422
L123.174 192.999
L123.94 199.711
L124.067 199.711
L124.705 204.055
L125.471 201.768
L126.109 196.706
L126.237 196.706
L126.237 196.706
L126.365 202.144
L127.002 199.417
L127.13 199.417
L127.13 199.417
L127.64 202.288
L127.64 202.288
L127.768 202.258
L128.661 202.258
L129.299 201.311
L130.065 195.873
L130.193 190.353
L130.831 167.736
L131.597 192.64
L132.362 189.913
L132.362 189.913
L133.894 203.516
L134.149 203.418
L134.659 192.329
L135.425 190.99
L136.191 201.344
L136.318 195.873
L136.956 201.344
L137.722 204.61
L138.488 204.626
L139.254 201.915
L139.381 199.188
L140.019 188.182
L140.785 188.182
L141.551 204.055
L141.678 198.617
L142.316 182.613
L143.082 195.71
L143.848 192.705
L144.613 192.705
L145.379 206.994
L145.507 206.994
L146.145 204.626
L146.272 204.626
L146.91 196.461
L147.038 199.188
L147.676 204.055
L148.442 204.626
L149.208 204.626
L149.335 201.605
L149.973 201.883
L150.739 205.573
L150.867 202.863
L151.505 199.123
L152.27 201.964
L153.036 195.889
L153.164 199.237
L153.802 201.964
L154.567 196.425
L155.333 201.85
L155.333 201.85
L156.099 201.964
L156.865 201.964
L157.63 201.442
L157.758 201.964
L158.396 198.486
L159.162 211.158
L159.927 214
L162.224 214
L162.99 204.038
L163.118 206.743
L163.756 214
L163.883 211.191
L164.521 214
L165.287 203.695
L166.053 208.951
L166.819 200.854
L167.584 208.954
L167.712 209.068
L168.35 198.633
L169.116 190.905
L169.243 190.909
L169.881 194.123
L170.647 191.366
L170.775 194.126
L171.413 210.486
L172.178 204.071
L173.072 204.071
L173.71 204.626
L174.475 212.119
L174.603 212.119
L176.007 200.789
L176.773 206.864
L177.538 206.864
L178.304 212.171
L179.07 206.831
L179.835 199.156
L179.963 208.889
L180.601 212.089
L180.729 214.748
L181.367 214.748
L182.26 198.698
L182.898 200.455
L183.664 182.629
L183.791 185.552
L184.43 188.368
L185.195 171.397
L185.961 184.915
L186.727 190.572
L187.492 183.331
L188.258 183.328
L189.151 182.107
L190.555 187.479
L191.321 120.476
L191.321 120.476
L192.852 182.626
L193.618 182.107
L194.384 178.367
L195.149 138.978
L195.277 184.997
L195.915 184.148
L196.681 184.141
L198.212 179.804
L198.212 179.804
L198.978 178.367
L200.509 160.779
L201.275 155.39
L202.04 155.096
L202.806 155.684
L203.572 185.431
L203.699 185.431
L204.338 188.959
L205.231 189.622
L205.869 183.789
L205.997 186.581
L206.124 186.581
L206.507 183.021
L206.635 180.212
L206.635 180.212
L206.762 183.266
L207.4 169.108
L207.911 165.662
L208.166 165.237
L208.804 172.031
L209.57 152.777
L209.825 152.777
L210.591 153.414
L210.846 153.101
L211.484 153.414
L211.739 156.37
L211.867 156.37
L212.122 148.058
L212.25 151.03
L212.633 151.03
L212.888 149.266
L213.398 152.274
L213.654 152.274
L213.654 152.274
L213.781 150.752
L214.164 153.414
L214.802 153.411
L214.93 156.37
L215.185 153.414
L215.185 153.414
L215.313 153.414
L215.568 156.37
L216.078 156.367
L216.333 153.414
L216.461 144.135
L216.589 150.442
L216.589 150.442
L216.844 132.315
L217.099 158.963
L217.227 158.963
L217.482 161.596
L217.482 161.596
L217.61 155.733
L217.865 155.39
L218.248 163.31
L218.248 163.31
L218.375 157.088
L218.631 162.935
L218.758 158.33
L219.013 169.104
L219.141 166.217
L219.396 172.031
L219.779 140.399
L219.907 175.31
L220.162 160.91
L220.29 172.455
L220.29 172.455
L220.417 166.691
L220.545 166.691
L220.672 175.313
L220.672 175.313
L221.055 175.382
L221.31 171.394
L221.438 175.313
L221.693 174.333
L222.076 175.545
L222.204 169.81
L222.459 171.802
L222.587 174.66
L222.842 169.402
L222.842 169.402
L223.225 169.375
L223.352 175.134
L223.608 180.8
L223.735 177.975
L223.99 183.609
L224.118 183.609
L224.373 177.959
L224.756 177.959
L224.884 174.66
L225.139 171.802
L225.267 172.259
L225.649 161.596
L225.649 161.596
L225.777 162.837
L225.777 162.837
L225.905 159.914
L225.905 159.914
L226.16 136.055
L226.16 136.055
L226.415 159.914
L226.415 159.914
L226.67 166.478
L226.798 166.165
L227.053 172.047
L227.181 169.173
L227.436 169.173
L227.436 169.173
L227.819 173.892
L227.946 173.892
L228.202 179.67
L228.329 179.657
L228.712 165.352
L228.967 182.466
L229.478 171.476
L229.733 177.172
L229.861 177.172
L230.116 174.333
L230.244 179.824
L230.499 176.995
L230.499 176.995
L230.882 176.995
L231.009 182.466
L231.392 182.466
L231.647 179.641
L231.775 179.641
L232.03 176.816
L232.158 179.641
L232.541 179.559
L232.796 182.45
L232.796 182.45
L232.924 179.624
L233.179 179.559
L233.306 182.492
L233.562 173.451
L233.689 158.999
L234.072 182.492
L234.327 176.848
L234.327 176.848
L234.455 176.848
L234.71 174.007
L234.838 168.275
L235.093 174.003
L235.093 174.003
L235.221 179.788
L235.476 166.478
L235.603 152.434
L235.859 155.39
L235.859 155.39
L235.986 168.128
L236.242 172.227
L236.369 172.227
L236.624 177.942
L236.752 177.926
L237.007 174.66
L237.135 174.66
L237.518 183.573
L237.773 180.702
L237.901 177.874
L238.156 175.036
L238.283 177.874
L238.539 175.036
L238.921 175.036
L239.049 169.173
L239.304 163.372
L239.432 163.369
L239.687 177.877
L239.815 171.116
L240.07 180.702
L240.198 180.751
L240.453 180.016
L240.453 180.016
L240.58 180
L240.836 174.333
L240.963 180
L241.219 177.175
L241.346 177.175
L241.601 156.941
L241.729 174.333
L241.984 162.804
L242.112 177.175
L242.367 171.476
L242.495 174.33
L242.75 165.711
L243.133 165.711
L243.26 168.601
L243.516 168.601
L243.643 174.33
L244.026 165.695
L244.281 166.364
L244.409 163.457
L244.792 160.289
L245.047 160.544
L245.047 160.544
L245.175 157.627
L245.43 149.038
L245.557 158.33
L245.813 160.828
L245.94 167.004
L246.196 164.11
L246.578 172.129
L246.578 172.129
L246.706 171.867
L246.961 172.047
L247.089 168.781
L247.344 174.66
L247.727 178.367
L247.855 178.367
L248.237 181.192
L248.62 182.237
L248.876 182.237
L248.876 182.237
L249.003 183.348
L249.258 183.341
L249.769 183.148
L250.024 174.611
L250.152 174.611
L250.407 180.317
L250.534 180.327
L250.79 183.148
L251.683 183.145
L251.938 177.191
L252.066 182.825
L252.321 180.016
L252.449 168.128
L252.704 180.016
L252.832 177.191
L253.087 180
L253.214 182.822
L253.47 179.886
L253.597 179.886
L253.852 177.175
L253.98 180
L254.235 182.988
L254.618 183.145
L254.746 183.145
L254.746 183.145
L255.001 171.378
L255.511 180.327
L255.511 180.327
L255.894 180.327
L256.277 177.498
L256.532 183.142
L256.66 183.142
L256.66 183.142
L257.043 174.66
L258.064 174.66
L258.064 174.66
L258.447 180.327
L258.574 180.18
L258.702 183.139
L258.957 177.501
L259.212 180.327
L259.212 180.327
L259.34 183.142
L259.723 183.142
L259.978 180.327
L260.106 171.378
L260.361 174.66
L260.489 183.152
L260.744 183.148
L260.871 182.972
L261.127 177.338
L261.254 182.972
L261.637 183.152
L261.892 182.613
L262.02 183.145
L262.275 183.148
L262.403 177.061
L262.658 175.101
L262.786 181.192
L263.041 177.926
L263.168 178.364
L263.424 178.364
L263.424 178.364
L263.551 183.148
L263.807 183.148
L263.934 180.016
L264.189 183.113
L264.189 183.113
L264.317 174.513
L264.572 174.513
L264.7 168.781
L264.955 182.985
L264.955 182.985
L265.083 168.765
L265.338 174.48
L265.593 183.145
L265.848 183.145
L266.104 177.501
L266.231 177.501
L266.486 183.135
L266.614 180.327
L266.869 183.132
L266.997 180.31
L267.38 180.307
L267.635 177.482
L267.763 174.644
L268.401 174.644
L268.528 183.152
L268.784 183.152
L268.911 180.343
L269.166 183.148
L269.677 183.148
L269.932 180.323
L270.06 180.327
L270.315 180.016
L270.443 183.152
L270.825 171.818
L271.081 177.91
L271.463 168.52
L271.974 183.148
L272.229 180.343
L272.357 183.152
L272.612 174.676
L272.74 174.676
L273.122 183.665
L273.378 181.159
L273.378 181.159
L273.506 178.22
L273.761 183.994
L273.888 183.994
L274.271 165.678
L274.654 177.926
L275.037 178.334
L275.292 178.331
L275.675 180.866
L275.802 175.525
L276.058 172.472
L276.185 181.176
L276.441 181.47
L276.568 166.772
L276.951 184.393
L277.206 172.374
L277.334 183.805
L277.717 171.753
L277.972 181.306
L277.972 181.306
L278.099 178.481
L278.355 181.192
L278.482 183.854
L278.738 180.996
L278.865 178.171
L279.12 178.171
L279.248 180.986
L279.503 180.996
L279.631 184.393
L279.886 175.525
L280.014 175.525
L280.269 166.887
L280.269 166.887
L280.397 166.887
L280.652 161.073
L280.779 163.882
L281.162 177.923
L281.545 166.054
L281.801 175.248
L282.566 180.866
L282.694 176.195
L282.949 180.866
L283.077 173.337
L283.332 176.293
L283.459 180.862
L283.715 174.66
L283.842 174.66
L284.097 172.112
L284.225 169.235
L284.48 176.466
L284.608 170.757
L284.736 171.394
L285.246 176.466
L285.374 176.466
L285.629 174.771
L285.756 175.3
L286.139 175.3
L286.395 179.559
L286.522 175.3
L286.777 175.297
L286.905 166.674
L287.16 169.565
L287.288 166.674
L287.671 174.66
L287.926 175.297
L288.054 175.297
L288.309 162.722
L288.437 165.629
L288.692 175.297
L288.819 175.117
L289.074 174.48
L289.202 168.748
L289.457 93.0078
L289.585 180.131
L289.968 179.987
L290.223 174.464
L290.351 168.732
L290.606 180.144
L290.733 176.767
L290.861 179.543
L290.989 176.718
L291.116 176.714
L291.372 168.111
L291.499 168.108
L291.754 180.866
L292.137 173.84
L292.265 181.179
L292.52 173.84
L292.52 173.84
L292.648 178.253
L292.903 172.112
L293.031 180.64
L293.413 180.634
L293.669 177.792
L293.669 177.792
L293.796 177.789
L294.179 178.138
L294.434 178.138
L294.562 175.183
L294.817 175.183
L294.817 175.183
L294.945 160.763
L295.2 178.027
L295.328 172.325
L295.583 175.183
L295.71 178.027
L295.966 157.836
L296.349 157.84
L296.476 160.759
L296.731 174.147
L296.859 174.66
L297.114 180.947
L297.242 181.189
L297.497 164.862
L297.625 174.66
L297.88 178.266
L298.008 178.269
L298.263 182.365
L298.646 173.86
L299.028 182.296
L299.156 177.926
L299.411 179.347
L299.539 179.314
L299.794 171.802
L299.922 179.51
L300.177 179.51
L300.177 179.51
L300.305 157.497
L300.56 181.192
L300.687 182.365
L300.943 178.824
L301.07 184.452
L301.326 184.452
L301.453 181.976
L301.708 184.448
L301.836 181.519
L302.091 181.633
L302.219 184.409
L302.474 175.934
L302.474 175.934
L302.857 178.775
L302.985 177.926
L303.112 172.227
L303.368 182.495
L304.133 182.495
L304.388 184.39
L304.771 184.39
L304.899 184.132
L305.154 178.53
L305.282 181.192
L305.537 175.525
L305.664 181.192
L306.047 177.273
L306.303 177.616
L306.43 174.774
L306.685 174.771
L306.813 169.039
L307.068 184.132
L307.068 184.132
L307.196 184.128
L307.579 176.718
L307.834 181.306
L307.962 178.481
L308.217 181.306
L308.6 164.143
L308.6 164.143
L308.727 164.143
L308.983 163.229
L309.11 184.125
L309.365 169.026
L309.493 184.125
L309.748 178.481
L309.876 169.908
L310.131 175.623
L310.131 175.623
L310.259 175.375
L310.514 184.109
L310.642 181.29
L310.897 169.793
L311.024 158.199
L311.28 184.128
L311.407 182.335
L311.79 182.41
L312.173 171.802
L312.428 171.799
L312.556 181.842
L312.811 173.321
L312.939 173.109
L313.194 170.332
L313.321 173.203
L313.577 144.547
L313.704 173.19
L314.087 182.41
L314.342 181.584
L314.47 181.584
L314.725 184.393
L314.853 171.394
L315.236 181.633
L315.491 181.63
L315.619 184.132
L315.874 184.422
L316.384 184.419
L316.767 186.255
L317.022 181.355
L317.15 172.831
L317.405 169.957
L317.533 167.083
L317.916 186.545
L318.298 186.519
L318.554 183.785
L318.554 183.785
L318.681 183.785
L318.937 174.66
L319.064 183.789
L319.702 174.954
L319.83 177.795
L320.085 177.599
L320.213 174.954
L320.596 186.483
L321.234 186.477
L321.361 183.671
L321.616 186.418
L321.999 182.956
L322.127 185.765
L322.893 186.418
L323.148 181.316
L323.275 181.316
L323.531 178.302
L323.658 181.316
L324.041 181.12
L324.296 178.302
L324.424 175.46
L324.679 172.599
L324.807 172.602
L325.062 168.242
L325.19 155.178
L325.445 186.418
L325.573 186.418
L325.828 165.352
L325.956 168.242
L326.211 186.516
L326.338 183.723
L326.593 183.527
L326.721 167.964
L326.976 170.839
L327.104 183.155
L327.359 183.155
L327.487 177.518
L327.742 186.506
L327.87 183.155
L328.125 180.343
L328.252 183.495
L328.508 183.152
L328.635 180.8
L328.891 186.483
L329.018 186.483
L329.273 183.707
L329.656 183.642
L329.784 180.833
L330.039 183.707
L330.167 180.898
L330.422 183.707
L330.55 183.707
L330.805 186.503
L330.933 186.506
L331.188 178.073
L331.57 187.721
L331.698 187.545
L331.953 188.587
L332.081 187.721
L332.464 188.58
L332.719 185.582
L332.847 188.378
L333.102 190.99
L338.462 190.99
L338.589 183.658
L338.845 196.915
L338.972 194.175
L339.227 199.659
L339.61 194.779
L339.738 172.325
L339.866 189.243
L340.504 189.243
L340.759 199.629
L340.886 199.629
L341.142 196.902
L341.525 196.902
L341.907 206.419
L342.035 206.341
L342.418 206.338
L342.673 176.505
L342.801 179.347
L343.056 203.63
L343.184 200.903
L343.439 192.672
L343.566 192.623
L343.822 189.864
L343.822 189.864
L343.949 192.607
L344.715 192.591
L344.97 191.807
L345.098 186.238
L345.353 185.422
L345.353 185.422
L345.481 185.422
L345.736 188.211
L345.863 186.14
L346.119 191.706
L346.884 191.706
L346.884 191.706
L347.012 188.933
L347.267 205.358
L347.395 202.65
L347.65 205.358
L348.033 205.361
L348.161 199.939
L348.416 202.65
L348.543 205.361
L348.799 205.361
L348.926 202.65
L349.309 206.318
L349.564 213.775
L349.692 213.069
L349.947 205.704
L350.075 208.399
L350.33 211.074
L350.458 211.074
L350.713 202.944
L350.84 210.93
L351.096 206.116
L351.224 200.625
L351.606 195.236
L351.989 203.418
L352.244 203.418
L352.372 211.031
L352.627 211.031
L352.755 207.86
L353.138 194.779
L353.52 187.695
L353.776 194.779
L353.776 194.779
L354.158 195.563
L354.286 181.78
L354.669 197.523
L354.924 195.873
L355.052 193.113
L355.307 191.48
L355.307 191.48
L355.435 191.48
L355.69 193.12
L355.817 163.229
L356.2 192.623
L356.583 180.229
L356.838 193.113
L357.221 193.113
L357.477 177.403
L357.732 193.113
L357.987 183.772
L358.115 193.113
L358.37 183.772
L358.37 183.772
L358.497 193.113
L358.753 187.708
L358.88 187.708
L359.136 193.113
L359.263 190.494
L359.518 187.705
L360.029 187.701
L360.284 184.915
L360.412 182.107
L360.667 184.915
L361.05 193.45
L361.177 190.68
L361.433 192.623
L361.56 189.864
L361.816 202.454
L361.943 198.127
L362.198 193.45
L362.326 200.857
L362.581 190.987
L362.709 198.124
L362.964 202.454
L363.092 194.273
L363.347 207.301
L363.474 207.285
L363.73 206.994
L363.857 188.214
L364.113 190.987
L364.24 201.279
L364.623 201.246
L364.878 198.522
L365.261 198.525
L365.389 205.064
L366.027 183.609
L366.027 183.609
L366.41 191.931
L366.537 186.369
L366.792 189.161
L366.92 189.161
L367.303 173.549
L367.558 179.232
L367.686 204.708
L368.069 204.022
L368.451 198.061
L368.707 201.213
L369.09 184.899
L369.472 197.751
L369.6 194.91
L369.855 194.91
L369.983 189.374
L370.238 183.299
L370.366 183.609
L370.621 187.084
L370.749 191.967
L371.131 168.961
L371.387 192.248
L371.514 192.241
L371.769 189.472
L371.897 183.789
L372.152 191.366
L372.28 188.374
L372.663 205.064
L373.301 205.061
L373.428 208.742
L373.684 211.416
L373.684 211.416
L373.811 206.047
L374.194 206.008
L374.449 211.42
L374.577 211.42
L375.215 191.317
L375.343 204.496
L375.726 204.496
L375.981 185.569
L376.108 207.909
L376.364 177.11
L376.491 185.569
L376.746 191.748
L376.874 188.982
L377.257 188.965
L377.64 180.555
L378.278 180.572
L378.405 191.748
L378.661 186.189
L378.788 189.746
L379.044 202.242
L379.171 184.164
L379.426 193.963
L379.554 186.953
L379.809 184.164
L379.937 184.164
L380.192 186.728
L380.575 184.164
L380.703 181.813
L380.958 189.798
L381.086 189.798
L381.341 194.475
L381.468 189.798
L381.851 207.667
L382.107 201.605
L382.234 201.736
L382.489 207.321
L383 207.314
L383.383 206.867
L383.638 204.169
L384.148 206.87
L384.403 206.668
L384.531 206.723
L384.786 206.534
L385.169 198.404
L385.297 206.723
L385.552 203.839
L385.68 203.839
L385.935 206.534
L386.062 206.534
L386.318 204.626
L386.445 207.311
L386.701 201.132
L386.828 193.081
L387.083 195.831
L387.466 195.827
L387.594 198.055
L387.849 195.831
L387.977 198.055
L388.232 195.318
L388.232 195.318
L388.36 192.558
L388.615 207.318
L388.742 198.061
L388.998 207.318
L389.125 171.802
L389.38 203.728
L389.508 203.202
L389.763 208.235
L389.891 202.732
L390.146 208.235
L390.274 205.198
L390.657 205.008
L391.039 193.848
L391.678 193.848
L391.805 194.126
L392.06 194.126
L392.188 192.852
L392.443 193.799
L392.571 196.582
L392.826 196.546
L392.954 188.263
L393.209 182.384
L393.337 193.505
L393.592 193.277
L393.719 183.903
L394.102 176.946
L394.102 176.946
L394.485 186.042
L394.74 186.042
L394.868 183.233
L395.251 183.233
L395.506 180.425
L395.634 180.425
L395.889 180.18
L396.016 136.12
L396.399 170.741
L396.782 170.741
L397.037 167.866
L397.165 167.866
L397.42 170.741
L397.548 174.513
L397.803 185.804
L397.931 177.077
L398.186 174.235
L398.314 171.378
L398.569 177.501
L398.696 186.967
L398.952 184.164
L399.079 186.967
L399.335 178.53
L399.462 194.256
L399.717 188.72
L399.845 76.6774
L400.1 182.401
L400.228 182.401
L400.483 185.111
L400.611 169.777
L400.866 181.173
L400.993 194.256
L401.249 194.256
L401.376 191.497
L401.632 191.023
L401.759 181.176
L402.014 178.351
L402.142 194.906
L402.397 194.583
L402.525 204.051
L402.78 204.708
L403.163 196.543
L403.291 196.543
L403.546 193.146
L403.673 199.384
L403.929 196.771
L404.311 204.708
L404.439 191.268
L404.694 186.875
L404.822 204.545
L405.077 207.318
L405.205 204.626
L405.46 201.915
L405.588 201.915
L405.843 183.805
L405.97 199.156
L406.226 201.879
L406.609 201.896
L406.736 196.445
L406.991 201.899
L407.119 188.214
L407.374 188.214
L407.502 197.506
L407.757 198.617
L407.885 201.341
L408.14 204.055
L408.268 201.344
L408.523 202.324
L408.65 196.869
L408.906 199.597
L409.033 206.276
L409.289 198.143
L409.416 200.867
L409.671 216.466
L409.799 213.82
L410.182 213.654
L410.437 212.71
L410.565 210.028
L410.82 212.824
L410.948 190.06
L411.203 187.117
L411.586 215.486
L411.713 203.614
L412.096 203.614
L412.351 207.958
L412.479 202.552
L412.607 210.59
L412.989 210.58
L413.245 192.378
L413.5 192.313
L413.627 194.991
L414.01 194.991
L414.266 181.11
L414.393 181.11
L414.648 174.546
L414.776 177.583
L415.031 195.132
L415.542 195.132
L415.797 180.408
L415.925 183.609
L416.307 189.187
L416.563 210.587
L416.69 199.662
L416.945 194.289
L417.073 199.76
L417.456 199.776
L417.839 185.079
L418.094 188.198
L418.222 193.407
L418.477 190.647
L418.86 210.669
L419.37 190.762
L419.625 204.443
L419.753 204.055
L420.008 189.044
L420.136 189.031
L420.391 188.276
L420.519 178.4
L420.902 169.826
L421.157 166.949
L421.284 169.826
L421.54 182.322
L421.922 178.367
L422.05 182.172
L422.305 199.08
L422.433 196.343
L422.688 193.6
L422.816 190.843
L423.071 196.343
L423.199 187.724
L423.581 204.447
L423.837 201.85
L423.964 201.85
L424.22 196.363
L424.347 196.396
L424.602 188.198
L424.73 196.477
L424.985 201.857
L425.113 193.734
L425.368 203.904
L425.496 203.888
L425.751 190.174
L425.879 201.197
L426.134 183.609
L426.261 200.785
L426.517 200.789
L426.644 194.462
L426.899 194.452
L427.282 191.693
L427.41 201.87
L427.665 201.605
L428.048 201.866
L428.558 201.768
L428.814 192.085
L428.941 192.081
L429.197 201.768
L429.324 194.207
L429.579 196.869
L429.707 194.256
L429.962 192.623
L430.09 183.429
L430.345 184.279
L430.473 181.47
L430.728 184.279
L430.856 183.299
L430.983 183.292
L431.238 182.022
L431.494 183.299
L432.004 179.2
L432.259 179.2
L432.387 176.358
L432.642 176.358
L432.642 176.358
L432.77 187.068
L433.153 187.068
L433.408 191.252
L433.918 191.252
L434.174 186.173
L434.301 180.506
L434.556 183.282
L434.684 180.474
L434.939 191.951
L435.067 191.951
L435.322 189.864
L435.705 189.766
L435.833 196.869
L436.088 196.739
L436.215 193.995
L436.471 194.077
L436.598 189.423
L436.854 189.357
L436.981 194.952
L437.236 196.706
L437.364 194.952
L437.747 196.869
L438.002 197.767
L438.13 184.932
L438.513 198.999
L438.768 196.259
L438.895 193.505
L439.151 196.259
L439.533 196.252
L439.661 183.054
L440.044 201.768
L440.299 183.054
L440.299 183.054
L440.427 201.768
L440.682 203.705
L441.065 201.001
L441.448 190.99
L441.575 203.614
L441.831 203.705
L441.831 203.705
L441.958 201.001
L442.341 198.274
L442.596 203.401
L442.724 197.816
L442.979 194.779
L443.107 197.196
L443.362 194.616
L443.49 197.869
L443.872 189.341
L444.128 192.117
L444.255 192.117
L444.51 200.789
L444.638 192.117
L444.893 192.558
L445.021 200.952
L445.276 203.709
L446.042 203.705
L446.169 198.257
L446.425 203.705
L446.552 198.257
L446.808 197.588
L446.935 200.295
L447.701 200.279
L447.956 192.052
L448.339 200.295
L448.467 193.228
L448.722 190.468
L448.849 190.468
L449.105 202.396
L449.487 202.392
L449.487 202.392
L449.615 201.961
L449.87 191.007
L449.998 193.767
L450.636 193.731
L450.764 190.974
L451.146 190.974
L451.402 188.198
L451.529 188.198
L451.785 185.405
L452.295 185.405
L452.55 182.597
L452.678 182.597
L452.933 185.494
L453.061 190.974
L453.444 190.974
L453.699 185.405
L453.826 196.51
L454.082 193.767
L454.209 193.763
L454.465 191.007
L454.592 193.767
L454.847 196.494
L454.847 196.494
L454.975 196.51
L455.358 202.324
L455.613 199.107
L455.741 199.156
L455.996 196.412
L456.123 199.139
L456.379 196.412
L456.506 201.879
L456.762 199.678
L456.889 202.095
L457.272 192.672
L457.527 200.789
L457.655 195.236
L457.91 192.672
L458.038 198.493
L458.293 192.672
L458.421 197.519
L458.803 197.513
L459.059 196.722
L459.186 196.722
L459.442 202.402
L459.569 196.726
L459.824 205.038
L459.952 169.679
L460.207 205.028
L460.335 202.324
L460.59 199.564
L460.718 202.291
L460.973 205.021
L461.866 205.012
L462.121 196.788
L462.504 205.018
L462.887 194.256
L463.015 204.381
L463.781 204.365
L464.036 205.018
L464.163 205.015
L464.546 208.304
L464.801 208.301
L464.929 205.606
L465.184 207.971
L465.312 205.573
L465.567 207.971
L465.567 207.971
L465.695 207.971
L465.95 193.375
L466.078 207.971
L466.46 190.631
L466.843 190.612
L467.098 193.388
L467.098 193.388
L467.226 160.727
L467.481 189.439
L467.864 190.974
L467.992 198.865
L468.247 194.011
L468.63 189.439
L468.757 204.169
L469.013 185.226
L469.14 207.321
L469.396 208.304
L469.523 207.318
L469.906 207.318
L470.289 188.018
L470.544 190.794
L470.672 207.311
L470.927 199.936
L471.055 199.933
L471.31 206.276
L471.82 206.276
L472.203 200.233
L472.458 202.951
L472.586 202.954
L472.969 192.199
L473.224 194.955
L473.734 194.959
L473.99 189.419
L474.118 183.805
L474.5 206.279
L474.755 198.989
L474.883 198.979
L475.138 201.083
L475.521 201.194
L475.649 187.43
L476.032 206.21
L476.414 206.21
L476.67 201.357
L476.797 206.194
L477.052 201.344
L477.18 195.873
L477.435 198.617
L477.563 202.422
L477.818 188.786
L477.946 204.051
L478.201 204.048
L478.329 204.198
L478.584 201.445
L478.711 201.445
L478.967 204.195
L479.094 195.677
L479.35 192.917
L479.477 190.109
L479.732 190.158
L479.86 195.671
L480.115 195.674
L480.243 194.779
L480.498 199.819
L480.626 199.819
L480.881 186.01
L481.009 171.394
L481.264 184.034
L481.391 199.809
L481.647 195.56
L481.774 195.56
L482.03 200.792
L482.412 192.509
L482.54 200.753
L483.178 200.743
L483.306 195.896
L483.561 200.018
L483.944 200.132
L484.327 190.386
L484.454 195.53
L484.709 200.132
L484.837 200.132
L485.092 194.55
L485.22 188.688
L485.475 188.214
L485.858 200.305
L485.986 200.309
L486.368 182.597
L486.624 147.845
L486.751 150.818
L487.007 184.05
L487.134 183.805
L487.389 178.171
L487.517 180.993
L487.9 180.866
L488.155 183.805
L488.538 183.805
L488.666 182.175
L488.921 190.977
L489.048 179.363
L489.304 194.338
L489.431 176.522
L489.686 182.178
L489.814 174.66
L490.069 179.363
L490.197 188.051
L490.452 169.042
L490.58 183.936
L490.835 200.312
L490.963 177.126
L491.345 200.312
L491.728 200.749
L491.984 200.462
L492.111 200.792
L492.366 197.732
L492.494 191.317
L492.749 191.307
L492.877 190.99
L493.132 186.075
L493.26 189.357
L493.515 184.36
L493.898 184.36
L494.026 194.991
L494.281 194.991
L494.408 180.261
L494.663 214.712
L495.557 214.712
L495.812 200.397
L495.812 200.397
L495.94 203.108
L496.195 205.815
L496.322 214.712
L496.705 214.712
L496.961 203.104
L497.088 203.075
L497.343 199.874
L497.471 202.585
L497.726 200.364
L497.854 188.018
L498.109 200.361
L498.237 193.564
L498.492 203.072
L498.875 203.055
L499.258 187.038
L499.258 187.038
L499.768 205.355
L500.023 206.125
L500.151 206.125
L500.406 191.97
L500.534 192.326
L500.789 192.166
L500.917 192.297
L501.299 176.669
L501.555 204.055
L501.682 179.51
L501.938 179.51
L502.065 182.335
L502.32 185.34
L502.448 177.746
L502.831 177.746
L503.086 206.129
L503.214 206.129
L503.469 192.395
L503.597 210.224
L503.852 195.184
L504.235 195.181
L504.362 192.427
L504.617 199.874
L504.745 199.874
L504.873 183.037
L505.128 204.626
L505.383 185.84
L505.511 185.84
L505.894 186.251
L506.149 183.446
L506.532 208.007
L506.915 208.007
L507.042 188.704
L507.297 188.214
L507.425 200.789
L507.68 198.029
L507.808 200.789
L508.063 185.422
L508.191 188.214
L508.446 185.422
L508.574 187.724
L508.829 208.013
L509.212 208.013
L509.595 202.098
L509.722 205.377
L510.36 205.381
L510.743 197.245
L510.871 189.57
L511.126 192.333
L511.509 188.214
L511.636 181.904
L511.892 179.085
L512.274 179.085
L512.402 176.244
L512.785 176.244
L513.04 177.926
L513.168 175.085
L513.423 164.878
L513.551 168.748
L513.806 169.026
L513.933 168.748
L514.189 174.32
L514.317 171.459
L514.572 171.211
L514.699 174.072
L514.954 174.327
L515.082 177.55
L515.337 179.337
L515.465 202.585
L515.72 183.56
L515.848 183.56
L516.231 210.228
L516.486 185.095
L516.613 185.095
L516.996 206.913
L517.251 190.582
L517.379 193.352
L517.634 190.99
L517.762 187.786
L518.017 187.721
L518.145 193.767
L518.4 193.77
L518.4 193.77" style="fill:none;stroke:#ff0000;stroke-linecap:square;"/>
   </g>
   <g id="line2d_2">
    <path clip-path="url(#pcb2bf987bf)" d="
M72 241.977
L72.1276 238.669
L72.7657 238.669
L72.8933 236.918
L73.5314 236.918
L73.659 239.185
L74.2971 239.185
L74.4247 248.549
L75.0628 248.549
L75.1904 250.665
L75.8285 250.665
L75.9561 248.526
L76.5942 248.526
L76.7218 243.026
L77.3599 243.026
L77.7429 236.271
L78.1256 236.271
L78.1256 236.271
L78.2532 251.377
L78.8915 251.377
L79.0189 235.932
L79.6569 235.932
L79.7846 248.483
L80.4226 248.483
L80.5503 243.855
L81.1885 243.855
L81.316 242.092
L81.9542 242.092
L82.0816 238.411
L82.7197 238.411
L82.8473 247.392
L83.4854 247.392
L83.613 236.523
L84.2511 236.523
L84.3787 239.978
L85.017 239.978
L85.1444 242.738
L85.7825 242.738
L85.9101 245.825
L86.5482 245.825
L86.6758 243.16
L87.3139 243.16
L87.4415 250.988
L88.0796 250.988
L88.2072 235.298
L88.8453 235.298
L88.8453 235.298
L88.9729 238.855
L89.611 238.855
L89.7386 231.898
L90.3767 231.898
L91.0148 254.085
L91.7804 249.577
L91.9081 249.577
L92.5461 248.101
L92.6738 248.101
L93.3118 248.872
L94.0775 238.385
L94.2051 238.385
L94.8432 252.55
L94.9708 252.55
L95.6089 249.937
L95.7365 249.937
L96.3746 242.934
L97.1403 241.059
L98.0336 240.266
L98.6717 252.945
L98.7993 252.945
L99.4374 252.827
L100.203 248.895
L100.331 248.895
L100.969 234.988
L101.734 243.702
L101.862 243.702
L103.266 230.824
L103.393 230.824
L104.032 239.198
L104.797 247.572
L105.563 257.648
L106.329 258.69
L107.095 256.077
L107.86 252.928
L109.519 252.84
L110.157 254.506
L110.285 254.506
L110.923 247.654
L111.05 247.654
L111.689 252.158
L111.816 252.158
L113.986 264.043
L114.879 252.687
L116.283 256.73
L116.41 256.73
L117.048 243.427
L117.814 241.128
L117.942 241.128
L118.58 227.26
L118.707 227.26
L119.345 228.42
L120.111 233.025
L120.877 225.807
L121.004 225.807
L121.643 228.315
L122.408 224.667
L122.536 224.667
L123.174 231.865
L124.067 232.675
L124.705 235.468
L125.471 233.982
L126.109 229.929
L126.365 229.929
L127.002 228.234
L127.13 228.234
L127.13 228.234
L127.64 229.484
L127.64 229.484
L127.768 229.484
L128.534 231.905
L128.661 231.905
L129.299 235.458
L130.065 237.643
L130.193 237.643
L130.831 234.047
L131.597 231.931
L132.362 231.111
L132.362 231.111
L133.894 241.762
L134.149 242.666
L134.659 242.666
L135.425 241.869
L136.191 249.666
L136.318 249.666
L136.956 246.88
L137.722 245.207
L138.488 245.397
L139.254 244.019
L139.381 244.019
L140.019 237.885
L140.785 224.174
L141.551 235.099
L141.678 235.099
L142.316 234.596
L143.082 242.337
L143.848 221.688
L143.975 221.688
L144.613 244.502
L145.507 243.525
L146.145 245.586
L146.272 245.586
L146.91 248.552
L147.038 248.552
L148.442 236.173
L149.208 240.622
L149.335 240.622
L149.973 240.419
L150.739 244.339
L150.867 244.339
L151.505 239.59
L152.27 239.178
L153.164 239.178
L153.802 244.949
L154.567 242.768
L155.333 232.313
L155.333 232.313
L156.099 232.914
L156.865 239.057
L157.758 239.057
L158.396 247.843
L159.162 247.464
L159.927 255.963
L160.693 265.856
L160.821 265.856
L162.224 246.132
L163.118 245.116
L163.756 241.419
L163.883 241.419
L164.521 246.641
L164.649 246.641
L165.287 248.336
L166.053 246.667
L166.819 244.133
L167.584 240.089
L167.712 240.089
L168.35 246.435
L169.116 234.73
L169.243 234.73
L169.881 235.997
L170.647 233.071
L170.775 233.071
L171.413 240.357
L172.178 245.668
L172.944 227.009
L173.072 227.009
L173.71 237.973
L174.475 235.586
L174.603 235.586
L176.007 242.444
L176.773 237.085
L176.9 237.085
L177.538 237.45
L178.304 246.739
L179.07 237.61
L179.835 251.253
L179.963 251.253
L180.601 247.526
L180.729 247.526
L181.367 252.876
L182.26 251.952
L182.898 226.447
L183.664 229.974
L183.791 229.974
L184.43 215.153
L185.195 224.262
L185.961 227.002
L186.727 217.034
L187.492 227.11
L188.258 231.451
L189.024 218.22
L189.151 218.22
L190.555 195.406
L191.321 202.634
L191.321 202.634
L192.852 212.275
L193.618 221.074
L194.384 217.426
L195.149 212.533
L195.277 212.533
L195.915 219.529
L196.681 216.387
L198.212 217.259
L198.212 217.259
L198.978 220.352
L200.509 205.1
L201.275 199.316
L202.04 186.627
L202.806 210.538
L203.572 222.018
L203.699 222.018
L204.338 224.007
L205.103 229.128
L205.231 229.128
L205.869 223.752
L205.997 223.752
L206.124 215.172
L206.762 215.172
L207.4 206.517
L207.911 196.059
L208.166 196.059
L208.804 206.844
L209.059 206.844
L209.059 206.844
L209.442 197.523
L209.825 197.523
L210.591 190.03
L210.846 188.717
L211.356 188.717
L211.484 182.192
L212.122 182.192
L212.25 180.555
L212.888 180.555
L213.271 179.118
L213.654 179.118
L213.654 179.118
L213.781 185.17
L214.419 185.17
L214.547 184.478
L215.185 184.478
L215.185 184.478
L215.313 188.168
L215.951 188.168
L215.951 188.168
L216.078 190.38
L216.589 190.38
L216.589 190.38
L216.844 189.583
L217.482 189.583
L217.482 189.583
L217.61 202.719
L218.248 202.719
L218.248 202.719
L218.375 202.562
L219.013 202.562
L219.141 207.641
L219.779 207.641
L219.907 210.848
L220.545 210.848
L220.672 213.615
L220.672 213.615
L221.31 213.615
L221.438 223.06
L222.076 223.06
L222.204 225.751
L222.842 225.751
L222.842 225.751
L223.225 217.717
L223.608 217.717
L223.735 227.838
L224.373 227.838
L224.501 220.349
L225.139 220.349
L225.267 218.733
L225.905 218.733
L225.905 218.733
L226.032 216.335
L226.032 216.335
L226.67 216.335
L226.798 218.452
L227.436 218.452
L227.436 218.452
L227.819 213.706
L228.202 213.706
L228.329 213.376
L228.967 213.376
L229.095 204.267
L229.733 204.267
L229.861 206.795
L230.499 206.795
L230.499 206.795
L230.882 209.049
L231.264 209.049
L231.264 209.049
L231.392 213.987
L232.03 213.987
L232.158 211.276
L232.796 211.276
L232.796 211.276
L232.924 213.285
L233.562 213.285
L233.689 217.978
L234.327 217.978
L234.327 217.978
L234.455 217.632
L235.093 217.632
L235.093 217.632
L235.221 226.829
L235.859 226.829
L235.859 226.829
L235.986 214.095
L236.624 214.095
L236.752 223.197
L237.39 223.197
L237.518 224.945
L238.921 224.945
L239.049 201.23
L239.687 201.23
L239.815 212.413
L240.453 212.413
L240.453 212.413
L240.58 212.001
L241.219 212.001
L241.346 214.856
L241.984 214.856
L242.112 217.632
L242.75 217.632
L242.878 210.329
L243.516 210.329
L243.643 211.759
L244.281 211.759
L244.409 213.007
L245.047 213.007
L245.047 213.007
L245.175 194.593
L246.578 194.593
L246.578 194.593
L246.706 210.205
L247.344 210.205
L247.727 217.08
L247.855 217.08
L248.237 218.906
L248.876 218.906
L248.876 218.906
L249.003 224.399
L249.641 224.399
L249.641 224.399
L249.769 211.495
L250.407 211.495
L250.534 212.024
L251.173 212.024
L251.3 214.813
L251.938 214.813
L252.066 211.537
L252.704 211.537
L252.832 213.592
L253.47 213.592
L253.597 210.767
L254.235 210.767
L254.363 220.741
L255.001 220.741
L255.129 211.697
L255.129 211.697
L255.767 211.697
L255.767 211.697
L255.894 219.147
L256.532 219.147
L256.66 222.374
L257.298 222.374
L257.426 209.62
L258.064 209.62
L258.064 209.62
L258.574 210.208
L258.83 210.208
L258.957 217.632
L259.595 217.632
L259.595 217.632
L259.723 226.225
L260.361 226.225
L260.489 225.755
L261.127 225.755
L261.254 228.789
L261.892 228.789
L262.02 225.124
L262.658 225.124
L262.786 227.45
L263.424 227.45
L263.424 227.45
L263.551 227.62
L264.189 227.62
L264.189 227.62
L264.317 224.422
L264.955 224.422
L264.955 224.422
L265.083 223.766
L265.593 223.766
L265.848 227.966
L266.486 227.966
L266.614 225.108
L267.252 225.108
L267.38 217.651
L268.784 217.678
L268.911 228.985
L269.549 228.985
L269.677 225.673
L270.315 225.673
L270.443 229.269
L271.081 229.269
L271.463 221.819
L271.846 221.819
L271.974 223.997
L272.612 223.997
L272.74 227.322
L273.378 227.322
L273.378 227.322
L273.506 226.297
L274.143 226.297
L274.271 229.987
L274.909 229.987
L274.909 229.987
L275.037 218.755
L275.675 218.755
L275.802 222.75
L276.441 222.75
L276.568 225.353
L277.972 225.353
L277.972 225.353
L278.099 224.409
L278.738 224.409
L278.865 212.821
L279.503 212.821
L279.631 209.222
L280.269 209.222
L280.269 209.222
L280.397 211.234
L281.035 211.234
L281.035 211.234
L281.162 209.153
L281.801 209.153
L282.183 206.031
L282.566 206.031
L282.694 219.373
L283.332 219.373
L283.459 214.02
L284.097 214.02
L284.225 203.597
L284.736 203.597
L285.246 201.981
L285.629 201.981
L285.756 202.487
L286.395 202.487
L286.522 210.048
L287.16 210.048
L287.288 205.031
L287.926 205.031
L288.054 207.716
L288.692 207.716
L288.819 207.102
L289.457 207.102
L289.585 209.476
L290.223 209.476
L290.351 206.579
L290.989 206.579
L291.116 201.096
L291.754 201.096
L292.137 220.016
L292.52 220.016
L292.52 220.016
L292.648 218.318
L293.286 218.318
L293.286 218.318
L293.413 211.874
L294.051 211.874
L294.051 211.874
L294.179 215.44
L294.817 215.44
L294.817 215.44
L294.945 215.659
L295.583 215.659
L295.71 213.784
L296.349 213.784
L296.476 201.386
L297.114 201.386
L297.242 219.967
L297.88 219.967
L298.008 224.771
L298.646 224.771
L298.773 229.478
L299.411 229.478
L299.539 223.57
L300.177 223.57
L300.177 223.57
L300.305 220.032
L300.943 220.032
L301.07 230.85
L301.708 230.85
L301.836 228.782
L302.474 228.782
L302.474 228.782
L302.857 209.493
L303.112 209.493
L303.368 200.263
L304.005 200.263
L304.005 200.263
L304.133 211.769
L304.771 211.769
L304.899 215.143
L305.537 215.143
L305.664 207.38
L307.068 207.38
L307.068 207.38
L307.196 217.351
L307.834 217.351
L307.962 215.698
L308.6 215.698
L308.6 215.698
L308.727 201.974
L309.365 201.974
L309.493 224.546
L310.131 224.546
L310.131 224.546
L310.259 218.262
L310.897 218.262
L311.024 209.264
L311.662 209.264
L311.79 223.318
L312.428 223.318
L312.556 223.57
L313.194 223.57
L313.321 215.956
L313.96 215.956
L314.087 220.728
L314.725 220.728
L314.853 232.293
L315.491 232.293
L315.619 231.905
L316.257 231.905
L316.384 227.326
L317.022 227.326
L317.15 213.242
L317.788 213.242
L317.916 220.578
L318.554 220.578
L318.554 220.578
L318.681 212.547
L319.319 212.547
L319.319 212.547
L319.447 207.559
L320.085 207.559
L320.213 219.164
L320.851 219.164
L320.851 219.164
L321.234 217.896
L321.616 217.896
L321.999 214.555
L322.127 214.555
L322.765 208.216
L323.148 208.216
L323.275 208.03
L324.679 208.03
L324.807 198.496
L326.211 198.496
L326.338 223.596
L326.976 223.596
L327.104 209.966
L327.742 209.966
L327.87 218.912
L328.508 218.912
L328.635 215.956
L329.273 215.956
L329.401 219.03
L330.039 219.03
L330.167 218.439
L330.805 218.439
L330.933 222.567
L331.57 222.567
L331.698 232.561
L332.336 232.561
L332.464 233.77
L333.102 233.77
L333.23 241.768
L333.868 241.768
L333.995 247.004
L334.633 247.004
L334.761 233.747
L335.399 233.747
L335.527 227.845
L336.165 227.845
L336.292 228.021
L336.93 228.021
L337.058 230.709
L337.696 230.709
L337.824 227.711
L338.462 227.711
L338.589 228.217
L339.227 228.217
L339.355 230.726
L339.866 230.726
L340.121 227.368
L340.504 227.368
L340.759 227.92
L340.886 232.532
L341.525 232.532
L341.652 232.123
L342.29 232.123
L342.418 247.546
L343.056 247.546
L343.184 240.641
L343.822 240.641
L343.822 240.641
L343.949 228.465
L344.588 228.465
L344.715 225.049
L345.353 225.049
L345.353 225.049
L345.481 218.109
L346.884 218.109
L346.884 218.109
L347.012 231.114
L347.65 231.114
L347.778 236.023
L348.416 236.023
L348.543 232.499
L349.181 232.499
L349.309 239.129
L349.947 239.129
L350.075 239.825
L350.713 239.825
L350.84 231.833
L351.224 231.833
L351.606 236.892
L352.244 236.892
L352.372 236.111
L353.01 236.111
L353.138 221.972
L353.776 221.972
L353.776 221.972
L354.158 213.99
L354.541 213.99
L354.669 223.135
L355.307 223.135
L355.307 223.135
L355.435 219.461
L356.073 219.461
L356.073 219.461
L356.2 209.865
L356.838 209.865
L356.966 217.064
L357.477 217.064
L357.732 213.223
L358.37 213.223
L358.37 213.223
L358.497 216.956
L359.136 216.956
L359.263 221.688
L359.901 221.688
L360.029 221.564
L360.667 221.564
L360.795 219.771
L361.433 219.771
L361.56 226.826
L362.198 226.826
L362.326 236.108
L362.964 236.108
L363.092 240.132
L363.73 240.132
L363.857 229.778
L364.495 229.778
L364.623 224.605
L365.261 224.605
L365.389 230.833
L366.027 230.833
L366.027 230.833
L366.155 218.324
L366.792 218.324
L366.92 235.579
L367.558 235.579
L367.686 231.947
L368.324 231.947
L368.451 219.569
L369.09 219.569
L369.472 229.047
L369.855 229.047
L369.983 222.665
L370.621 222.665
L370.749 226.555
L371.387 226.555
L371.514 228.469
L372.152 228.469
L372.28 223.305
L372.918 223.305
L373.046 242.474
L373.684 242.474
L373.684 242.474
L373.811 236.36
L375.215 236.36
L375.343 214.914
L375.981 214.914
L376.108 218.151
L376.746 218.151
L376.874 233.312
L377.512 233.312
L377.512 233.312
L377.64 219.32
L378.278 219.32
L378.405 216.244
L379.044 216.244
L379.171 225.474
L379.809 225.474
L379.937 220.748
L380.575 220.748
L380.703 218.938
L381.341 218.938
L381.468 227.789
L382.107 227.789
L382.234 235.311
L382.872 235.311
L383 232.551
L383.638 232.551
L384.148 232.414
L384.403 232.414
L384.531 232.231
L385.935 232.231
L386.062 236.19
L386.701 236.19
L386.828 222.038
L387.466 222.038
L387.594 224.157
L388.232 224.157
L388.232 224.157
L388.36 324.514
L388.998 324.514
L389.125 238.77
L389.763 238.77
L389.891 235.618
L390.529 235.618
L390.657 222.773
L391.295 222.773
L391.422 224.941
L392.06 224.941
L392.188 222.756
L392.826 222.756
L392.954 222.466
L393.592 222.466
L393.719 213.343
L394.102 213.343
L394.102 213.343
L394.485 215.368
L395.123 215.368
L395.251 212.488
L395.889 212.488
L396.016 210.293
L396.655 210.293
L396.782 205.995
L397.42 205.995
L397.548 206.877
L398.186 206.877
L398.314 213.595
L398.952 213.595
L399.079 226.535
L399.717 226.535
L399.845 211.929
L400.483 211.929
L400.611 208.082
L401.249 208.082
L401.376 226.516
L402.014 226.516
L402.142 231.258
L402.78 231.258
L402.908 236.738
L403.546 236.738
L403.673 225.546
L404.311 225.546
L404.439 248.686
L405.077 248.686
L405.205 244.744
L405.843 244.744
L405.97 231.986
L406.609 231.986
L406.736 226.336
L407.374 226.336
L407.502 230.85
L408.14 230.85
L408.268 241.749
L408.906 241.749
L409.033 241.98
L409.671 241.98
L409.799 246.128
L410.437 246.128
L410.565 224.409
L411.203 224.409
L411.33 229.455
L411.968 229.455
L412.096 236.177
L412.607 236.177
L412.989 221.371
L413.5 221.371
L413.627 210.698
L414.266 210.698
L414.393 207.35
L415.031 207.35
L415.159 215.711
L415.797 215.711
L415.925 216.273
L416.563 216.273
L416.69 225.807
L417.328 225.807
L417.456 219.735
L418.094 219.735
L418.222 223.089
L418.86 223.089
L418.987 232.849
L419.625 232.849
L419.753 218.226
L420.391 218.226
L420.519 208.124
L421.157 208.124
L421.284 209.173
L421.922 209.173
L422.05 225.141
L422.688 225.141
L422.816 223.38
L423.454 223.38
L423.581 227.776
L424.22 227.776
L424.347 222.658
L424.985 222.658
L425.113 229.733
L425.751 229.733
L425.879 213.063
L426.517 213.063
L426.644 220.735
L427.282 220.735
L427.41 227.789
L428.048 227.789
L428.176 226.329
L428.814 226.329
L428.941 223.112
L429.579 223.112
L429.707 219.017
L430.345 219.017
L430.473 210.29
L430.983 210.29
L431.238 208.889
L431.877 208.889
L432.004 212.488
L432.642 212.488
L432.642 212.488
L432.77 218.344
L433.408 218.344
L433.536 218.765
L434.174 218.765
L434.301 217.635
L434.939 217.635
L435.067 221.933
L435.705 221.933
L435.833 222.982
L436.471 222.982
L436.598 221.202
L437.236 221.202
L437.364 225.062
L438.002 225.062
L438.13 228.06
L438.768 228.06
L438.895 214.914
L439.533 214.914
L439.661 212.547
L440.299 212.547
L440.299 212.547
L440.427 229.54
L441.065 229.54
L441.192 231.209
L441.831 231.209
L441.831 231.209
L441.958 232.199
L442.596 232.199
L442.724 223.988
L443.362 223.988
L443.49 221.12
L444.128 221.12
L444.255 230.549
L444.893 230.549
L445.021 225.768
L445.659 225.768
L446.042 232.241
L446.425 232.241
L446.552 228.897
L447.956 228.903
L448.084 219.559
L448.722 219.559
L448.849 228.302
L449.487 228.302
L449.487 228.302
L449.615 235.092
L450.126 235.092
L450.381 225.389
L451.019 225.389
L451.146 222.639
L451.785 222.639
L451.912 215.074
L452.55 215.074
L452.678 212.334
L453.316 212.334
L453.444 227.6
L454.082 227.6
L454.209 229.321
L454.847 229.321
L454.847 229.321
L454.975 230.81
L455.613 230.81
L455.741 228.119
L456.379 228.119
L456.506 228.639
L457.144 228.639
L457.272 221.656
L457.91 221.656
L458.038 224.572
L458.676 224.572
L458.803 222.89
L459.442 222.89
L459.569 235.181
L460.207 235.181
L460.335 240.021
L460.973 240.021
L461.101 232.63
L461.739 232.63
L461.866 225.562
L462.504 225.562
L462.632 230.268
L463.27 230.268
L463.398 225.111
L464.036 225.111
L464.163 233.917
L464.801 233.917
L464.929 239.642
L465.567 239.642
L465.567 239.642
L465.695 224.928
L466.333 224.928
L466.46 237.264
L467.098 237.264
L467.098 237.264
L467.226 218.592
L467.864 218.592
L467.992 220.307
L468.63 220.307
L468.757 219.872
L469.396 219.872
L469.523 238.629
L470.161 238.629
L470.289 225.951
L470.927 225.951
L471.055 231.99
L471.693 231.99
L471.82 228.821
L472.458 228.821
L472.586 221.208
L473.224 221.208
L473.352 228.919
L473.99 228.919
L474.118 230.229
L474.755 230.229
L474.883 227.146
L475.521 227.146
L475.649 232.208
L476.287 232.208
L476.414 229.883
L477.052 229.883
L477.18 215.499
L477.818 215.499
L477.946 230.007
L478.584 230.007
L478.711 224.5
L479.35 224.5
L479.477 226.767
L480.115 226.767
L480.243 225.836
L480.881 225.836
L481.009 224.677
L481.647 224.677
L481.774 226.81
L482.412 226.81
L482.54 229.204
L483.178 229.204
L483.306 222.1
L483.944 222.1
L484.071 223.122
L484.709 223.122
L484.837 226.307
L485.475 226.307
L485.858 217.416
L486.241 217.416
L486.241 217.416
L486.368 220.617
L487.007 220.617
L487.134 211.103
L487.772 211.103
L487.9 205.074
L488.538 205.074
L488.666 209.035
L489.304 209.035
L489.431 217.279
L490.069 217.279
L490.197 220.134
L490.835 220.134
L490.963 218.586
L491.601 218.586
L491.728 232.208
L492.366 232.208
L492.494 220.375
L493.132 220.375
L493.26 213.781
L493.898 213.781
L494.026 209.894
L494.663 209.894
L494.791 246.119
L495.429 246.119
L495.557 231.549
L496.195 231.549
L496.322 231.885
L496.961 231.885
L497.088 232.6
L497.726 232.6
L497.854 219.879
L498.492 219.879
L498.62 235.752
L499.258 235.752
L499.258 235.752
L499.385 205.358
L500.023 205.358
L500.151 218.7
L500.789 218.7
L500.917 211.851
L501.555 211.851
L501.682 217.651
L502.32 217.651
L502.448 207.51
L503.086 207.51
L503.214 221.424
L503.852 221.424
L503.979 233.652
L504.617 233.652
L504.745 212.524
L505.383 212.524
L505.511 212.916
L506.149 212.916
L506.277 217.89
L506.915 217.89
L507.042 226.796
L507.68 226.796
L507.808 224.03
L508.446 224.03
L508.574 215.355
L509.212 215.355
L509.339 231.134
L509.977 231.134
L510.36 228.57
L510.743 228.57
L510.871 218.706
L511.509 218.706
L511.636 208.774
L512.274 208.774
L512.402 207.703
L513.04 207.703
L513.168 205.377
L513.806 205.377
L513.933 201.563
L514.572 201.563
L514.699 213.02
L515.337 213.02
L515.465 214.474
L516.103 214.474
L516.231 242.095
L516.869 242.095
L516.996 219.676
L517.634 219.676
L517.762 220.075
L518.4 220.075
L518.4 220.075" style="fill:none;stroke:#008000;stroke-linecap:square;"/>
   </g>
   <g id="patch_3">
    <path d="
M72 43.2
L518.4 43.2" style="fill:none;stroke:#000000;stroke-linecap:square;stroke-linejoin:miter;"/>
   </g>
   <g id="patch_4">
    <path d="
M518.4 345.6
L518.4 43.2" style="fill:none;stroke:#000000;stroke-linecap:square;stroke-linejoin:miter;"/>
   </g>
   <g id="patch_5">
    <path d="
M72 345.6
L518.4 345.6" style="fill:none;stroke:#000000;stroke-linecap:square;stroke-linejoin:miter;"/>
   </g>
   <g id="patch_6">
    <path d="
M72 345.6
L72 43.2" style="fill:none;stroke:#000000;stroke-linecap:square;stroke-linejoin:miter;"/>
   </g>
   <g id="matplotlib.axis_1">
    <g id="xtick_1">
     <g id="line2d_3">
      <defs>
       <path d="
M0 0
L0 -4" id="m93b0483c22" style="stroke:#000000;stroke-width:0.5;"/>
      </defs>
      <g>
       <use style="stroke:#000000;stroke-width:0.5;" x="117.941468267" xlink:href="#m93b0483c22" y="345.6"/>
      </g>
     </g>
     <g id="line2d_4">
      <defs>
       <path d="
M0 0
L0 4" id="m741efc42ff" style="stroke:#000000;stroke-width:0.5;"/>
      </defs>
      <g>
       <use style="stroke:#000000;stroke-width:0.5;" x="117.941468267" xlink:href="#m741efc42ff" y="43.2"/>
      </g>
     </g>
     <g id="text_1">
      <!-- Oct 13 2015 -->
      <defs>
       <path d="
M19.1875 8.29688
L53.6094 8.29688
L53.6094 0
L7.32812 0
L7.32812 8.29688
Q12.9375 14.1094 22.625 23.8906
Q32.3281 33.6875 34.8125 36.5312
Q39.5469 41.8438 41.4219 45.5312
Q43.3125 49.2188 43.3125 52.7812
Q43.3125 58.5938 39.2344 62.25
Q35.1562 65.9219 28.6094 65.9219
Q23.9688 65.9219 18.8125 64.3125
Q13.6719 62.7031 7.8125 59.4219
L7.8125 69.3906
Q13.7656 71.7812 18.9375 73
Q24.125 74.2188 28.4219 74.2188
Q39.75 74.2188 46.4844 68.5469
Q53.2188 62.8906 53.2188 53.4219
Q53.2188 48.9219 51.5312 44.8906
Q49.8594 40.875 45.4062 35.4062
Q44.1875 33.9844 37.6406 27.2188
Q31.1094 20.4531 19.1875 8.29688" id="BitstreamVeraSans-Roman-32"/>
       <path d="
M39.4062 66.2188
Q28.6562 66.2188 22.3281 58.2031
Q16.0156 50.2031 16.0156 36.375
Q16.0156 22.6094 22.3281 14.5938
Q28.6562 6.59375 39.4062 6.59375
Q50.1406 6.59375 56.4219 14.5938
Q62.7031 22.6094 62.7031 36.375
Q62.7031 50.2031 56.4219 58.2031
Q50.1406 66.2188 39.4062 66.2188
M39.4062 74.2188
Q54.7344 74.2188 63.9062 63.9375
Q73.0938 53.6562 73.0938 36.375
Q73.0938 19.1406 63.9062 8.85938
Q54.7344 -1.42188 39.4062 -1.42188
Q24.0312 -1.42188 14.8125 8.82812
Q5.60938 19.0938 5.60938 36.375
Q5.60938 53.6562 14.8125 63.9375
Q24.0312 74.2188 39.4062 74.2188" id="BitstreamVeraSans-Roman-4f"/>
       <path d="
M31.7812 66.4062
Q24.1719 66.4062 20.3281 58.9062
Q16.5 51.4219 16.5 36.375
Q16.5 21.3906 20.3281 13.8906
Q24.1719 6.39062 31.7812 6.39062
Q39.4531 6.39062 43.2812 13.8906
Q47.125 21.3906 47.125 36.375
Q47.125 51.4219 43.2812 58.9062
Q39.4531 66.4062 31.7812 66.4062
M31.7812 74.2188
Q44.0469 74.2188 50.5156 64.5156
Q56.9844 54.8281 56.9844 36.375
Q56.9844 17.9688 50.5156 8.26562
Q44.0469 -1.42188 31.7812 -1.42188
Q19.5312 -1.42188 13.0625 8.26562
Q6.59375 17.9688 6.59375 36.375
Q6.59375 54.8281 13.0625 64.5156
Q19.5312 74.2188 31.7812 74.2188" id="BitstreamVeraSans-Roman-30"/>
       <path d="
M12.4062 8.29688
L28.5156 8.29688
L28.5156 63.9219
L10.9844 60.4062
L10.9844 69.3906
L28.4219 72.9062
L38.2812 72.9062
L38.2812 8.29688
L54.3906 8.29688
L54.3906 0
L12.4062 0
z
" id="BitstreamVeraSans-Roman-31"/>
       <path d="
M40.5781 39.3125
Q47.6562 37.7969 51.625 33
Q55.6094 28.2188 55.6094 21.1875
Q55.6094 10.4062 48.1875 4.48438
Q40.7656 -1.42188 27.0938 -1.42188
Q22.5156 -1.42188 17.6562 -0.515625
Q12.7969 0.390625 7.625 2.20312
L7.625 11.7188
Q11.7188 9.32812 16.5938 8.10938
Q21.4844 6.89062 26.8125 6.89062
Q36.0781 6.89062 40.9375 10.5469
Q45.7969 14.2031 45.7969 21.1875
Q45.7969 27.6406 41.2812 31.2656
Q36.7656 34.9062 28.7188 34.9062
L20.2188 34.9062
L20.2188 43.0156
L29.1094 43.0156
Q36.375 43.0156 40.2344 45.9219
Q44.0938 48.8281 44.0938 54.2969
Q44.0938 59.9062 40.1094 62.9062
Q36.1406 65.9219 28.7188 65.9219
Q24.6562 65.9219 20.0156 65.0312
Q15.375 64.1562 9.8125 62.3125
L9.8125 71.0938
Q15.4375 72.6562 20.3438 73.4375
Q25.25 74.2188 29.5938 74.2188
Q40.8281 74.2188 47.3594 69.1094
Q53.9062 64.0156 53.9062 55.3281
Q53.9062 49.2656 50.4375 45.0938
Q46.9688 40.9219 40.5781 39.3125" id="BitstreamVeraSans-Roman-33"/>
       <path id="BitstreamVeraSans-Roman-20"/>
       <path d="
M10.7969 72.9062
L49.5156 72.9062
L49.5156 64.5938
L19.8281 64.5938
L19.8281 46.7344
Q21.9688 47.4688 24.1094 47.8281
Q26.2656 48.1875 28.4219 48.1875
Q40.625 48.1875 47.75 41.5
Q54.8906 34.8125 54.8906 23.3906
Q54.8906 11.625 47.5625 5.09375
Q40.2344 -1.42188 26.9062 -1.42188
Q22.3125 -1.42188 17.5469 -0.640625
Q12.7969 0.140625 7.71875 1.70312
L7.71875 11.625
Q12.1094 9.23438 16.7969 8.0625
Q21.4844 6.89062 26.7031 6.89062
Q35.1562 6.89062 40.0781 11.3281
Q45.0156 15.7656 45.0156 23.3906
Q45.0156 31 40.0781 35.4375
Q35.1562 39.8906 26.7031 39.8906
Q22.75 39.8906 18.8125 39.0156
Q14.8906 38.1406 10.7969 36.2812
z
" id="BitstreamVeraSans-Roman-35"/>
       <path d="
M18.3125 70.2188
L18.3125 54.6875
L36.8125 54.6875
L36.8125 47.7031
L18.3125 47.7031
L18.3125 18.0156
Q18.3125 11.3281 20.1406 9.42188
Q21.9688 7.51562 27.5938 7.51562
L36.8125 7.51562
L36.8125 0
L27.5938 0
Q17.1875 0 13.2344 3.875
Q9.28125 7.76562 9.28125 18.0156
L9.28125 47.7031
L2.6875 47.7031
L2.6875 54.6875
L9.28125 54.6875
L9.28125 70.2188
z
" id="BitstreamVeraSans-Roman-74"/>
       <path d="
M48.7812 52.5938
L48.7812 44.1875
Q44.9688 46.2969 41.1406 47.3438
Q37.3125 48.3906 33.4062 48.3906
Q24.6562 48.3906 19.8125 42.8438
Q14.9844 37.3125 14.9844 27.2969
Q14.9844 17.2812 19.8125 11.7344
Q24.6562 6.20312 33.4062 6.20312
Q37.3125 6.20312 41.1406 7.25
Q44.9688 8.29688 48.7812 10.4062
L48.7812 2.09375
Q45.0156 0.34375 40.9844 -0.53125
Q36.9688 -1.42188 32.4219 -1.42188
Q20.0625 -1.42188 12.7812 6.34375
Q5.51562 14.1094 5.51562 27.2969
Q5.51562 40.6719 12.8594 48.3281
Q20.2188 56 33.0156 56
Q37.1562 56 41.1094 55.1406
Q45.0625 54.2969 48.7812 52.5938" id="BitstreamVeraSans-Roman-63"/>
      </defs>
      <g transform="translate(53.3541815316 394.065590385)rotate(-30.0)scale(0.12 -0.12)">
       <use xlink:href="#BitstreamVeraSans-Roman-4f"/>
       <use x="78.7109375" xlink:href="#BitstreamVeraSans-Roman-63"/>
       <use x="133.69140625" xlink:href="#BitstreamVeraSans-Roman-74"/>
       <use x="172.900390625" xlink:href="#BitstreamVeraSans-Roman-20"/>
       <use x="204.6875" xlink:href="#BitstreamVeraSans-Roman-31"/>
       <use x="268.310546875" xlink:href="#BitstreamVeraSans-Roman-33"/>
       <use x="331.93359375" xlink:href="#BitstreamVeraSans-Roman-20"/>
       <use x="363.720703125" xlink:href="#BitstreamVeraSans-Roman-32"/>
       <use x="427.34375" xlink:href="#BitstreamVeraSans-Roman-30"/>
       <use x="490.966796875" xlink:href="#BitstreamVeraSans-Roman-31"/>
       <use x="554.58984375" xlink:href="#BitstreamVeraSans-Roman-35"/>
      </g>
     </g>
    </g>
    <g id="xtick_2">
     <g id="line2d_5">
      <g>
       <use style="stroke:#000000;stroke-width:0.5;" x="173.071485419" xlink:href="#m93b0483c22" y="345.6"/>
      </g>
     </g>
     <g id="line2d_6">
      <g>
       <use style="stroke:#000000;stroke-width:0.5;" x="173.071485419" xlink:href="#m741efc42ff" y="43.2"/>
      </g>
     </g>
     <g id="text_2">
      <!-- Oct 16 2015 -->
      <defs>
       <path d="
M33.0156 40.375
Q26.375 40.375 22.4844 35.8281
Q18.6094 31.2969 18.6094 23.3906
Q18.6094 15.5312 22.4844 10.9531
Q26.375 6.39062 33.0156 6.39062
Q39.6562 6.39062 43.5312 10.9531
Q47.4062 15.5312 47.4062 23.3906
Q47.4062 31.2969 43.5312 35.8281
Q39.6562 40.375 33.0156 40.375
M52.5938 71.2969
L52.5938 62.3125
Q48.875 64.0625 45.0938 64.9844
Q41.3125 65.9219 37.5938 65.9219
Q27.8281 65.9219 22.6719 59.3281
Q17.5312 52.7344 16.7969 39.4062
Q19.6719 43.6562 24.0156 45.9219
Q28.375 48.1875 33.5938 48.1875
Q44.5781 48.1875 50.9531 41.5156
Q57.3281 34.8594 57.3281 23.3906
Q57.3281 12.1562 50.6875 5.35938
Q44.0469 -1.42188 33.0156 -1.42188
Q20.3594 -1.42188 13.6719 8.26562
Q6.98438 17.9688 6.98438 36.375
Q6.98438 53.6562 15.1875 63.9375
Q23.3906 74.2188 37.2031 74.2188
Q40.9219 74.2188 44.7031 73.4844
Q48.4844 72.75 52.5938 71.2969" id="BitstreamVeraSans-Roman-36"/>
      </defs>
      <g transform="translate(108.484198684 394.065590385)rotate(-30.0)scale(0.12 -0.12)">
       <use xlink:href="#BitstreamVeraSans-Roman-4f"/>
       <use x="78.7109375" xlink:href="#BitstreamVeraSans-Roman-63"/>
       <use x="133.69140625" xlink:href="#BitstreamVeraSans-Roman-74"/>
       <use x="172.900390625" xlink:href="#BitstreamVeraSans-Roman-20"/>
       <use x="204.6875" xlink:href="#BitstreamVeraSans-Roman-31"/>
       <use x="268.310546875" xlink:href="#BitstreamVeraSans-Roman-36"/>
       <use x="331.93359375" xlink:href="#BitstreamVeraSans-Roman-20"/>
       <use x="363.720703125" xlink:href="#BitstreamVeraSans-Roman-32"/>
       <use x="427.34375" xlink:href="#BitstreamVeraSans-Roman-30"/>
       <use x="490.966796875" xlink:href="#BitstreamVeraSans-Roman-31"/>
       <use x="554.58984375" xlink:href="#BitstreamVeraSans-Roman-35"/>
      </g>
     </g>
    </g>
    <g id="xtick_3">
     <g id="line2d_7">
      <g>
       <use style="stroke:#000000;stroke-width:0.5;" x="228.201502573" xlink:href="#m93b0483c22" y="345.6"/>
      </g>
     </g>
     <g id="line2d_8">
      <g>
       <use style="stroke:#000000;stroke-width:0.5;" x="228.201502573" xlink:href="#m741efc42ff" y="43.2"/>
      </g>
     </g>
     <g id="text_3">
      <!-- Oct 19 2015 -->
      <defs>
       <path d="
M10.9844 1.51562
L10.9844 10.5
Q14.7031 8.73438 18.5 7.8125
Q22.3125 6.89062 25.9844 6.89062
Q35.75 6.89062 40.8906 13.4531
Q46.0469 20.0156 46.7812 33.4062
Q43.9531 29.2031 39.5938 26.9531
Q35.25 24.7031 29.9844 24.7031
Q19.0469 24.7031 12.6719 31.3125
Q6.29688 37.9375 6.29688 49.4219
Q6.29688 60.6406 12.9375 67.4219
Q19.5781 74.2188 30.6094 74.2188
Q43.2656 74.2188 49.9219 64.5156
Q56.5938 54.8281 56.5938 36.375
Q56.5938 19.1406 48.4062 8.85938
Q40.2344 -1.42188 26.4219 -1.42188
Q22.7031 -1.42188 18.8906 -0.6875
Q15.0938 0.046875 10.9844 1.51562
M30.6094 32.4219
Q37.25 32.4219 41.125 36.9531
Q45.0156 41.5 45.0156 49.4219
Q45.0156 57.2812 41.125 61.8438
Q37.25 66.4062 30.6094 66.4062
Q23.9688 66.4062 20.0938 61.8438
Q16.2188 57.2812 16.2188 49.4219
Q16.2188 41.5 20.0938 36.9531
Q23.9688 32.4219 30.6094 32.4219" id="BitstreamVeraSans-Roman-39"/>
      </defs>
      <g transform="translate(163.614215838 394.065590385)rotate(-30.0)scale(0.12 -0.12)">
       <use xlink:href="#BitstreamVeraSans-Roman-4f"/>
       <use x="78.7109375" xlink:href="#BitstreamVeraSans-Roman-63"/>
       <use x="133.69140625" xlink:href="#BitstreamVeraSans-Roman-74"/>
       <use x="172.900390625" xlink:href="#BitstreamVeraSans-Roman-20"/>
       <use x="204.6875" xlink:href="#BitstreamVeraSans-Roman-31"/>
       <use x="268.310546875" xlink:href="#BitstreamVeraSans-Roman-39"/>
       <use x="331.93359375" xlink:href="#BitstreamVeraSans-Roman-20"/>
       <use x="363.720703125" xlink:href="#BitstreamVeraSans-Roman-32"/>
       <use x="427.34375" xlink:href="#BitstreamVeraSans-Roman-30"/>
       <use x="490.966796875" xlink:href="#BitstreamVeraSans-Roman-31"/>
       <use x="554.58984375" xlink:href="#BitstreamVeraSans-Roman-35"/>
      </g>
     </g>
    </g>
    <g id="xtick_4">
     <g id="line2d_9">
      <g>
       <use style="stroke:#000000;stroke-width:0.5;" x="283.331519725" xlink:href="#m93b0483c22" y="345.6"/>
      </g>
     </g>
     <g id="line2d_10">
      <g>
       <use style="stroke:#000000;stroke-width:0.5;" x="283.331519725" xlink:href="#m741efc42ff" y="43.2"/>
      </g>
     </g>
     <g id="text_4">
      <!-- Oct 22 2015 -->
      <g transform="translate(218.74423299 394.065590385)rotate(-30.0)scale(0.12 -0.12)">
       <use xlink:href="#BitstreamVeraSans-Roman-4f"/>
       <use x="78.7109375" xlink:href="#BitstreamVeraSans-Roman-63"/>
       <use x="133.69140625" xlink:href="#BitstreamVeraSans-Roman-74"/>
       <use x="172.900390625" xlink:href="#BitstreamVeraSans-Roman-20"/>
       <use x="204.6875" xlink:href="#BitstreamVeraSans-Roman-32"/>
       <use x="268.310546875" xlink:href="#BitstreamVeraSans-Roman-32"/>
       <use x="331.93359375" xlink:href="#BitstreamVeraSans-Roman-20"/>
       <use x="363.720703125" xlink:href="#BitstreamVeraSans-Roman-32"/>
       <use x="427.34375" xlink:href="#BitstreamVeraSans-Roman-30"/>
       <use x="490.966796875" xlink:href="#BitstreamVeraSans-Roman-31"/>
       <use x="554.58984375" xlink:href="#BitstreamVeraSans-Roman-35"/>
      </g>
     </g>
    </g>
    <g id="xtick_5">
     <g id="line2d_11">
      <g>
       <use style="stroke:#000000;stroke-width:0.5;" x="338.461536877" xlink:href="#m93b0483c22" y="345.6"/>
      </g>
     </g>
     <g id="line2d_12">
      <g>
       <use style="stroke:#000000;stroke-width:0.5;" x="338.461536877" xlink:href="#m741efc42ff" y="43.2"/>
      </g>
     </g>
     <g id="text_5">
      <!-- Oct 25 2015 -->
      <g transform="translate(273.874250142 394.065590385)rotate(-30.0)scale(0.12 -0.12)">
       <use xlink:href="#BitstreamVeraSans-Roman-4f"/>
       <use x="78.7109375" xlink:href="#BitstreamVeraSans-Roman-63"/>
       <use x="133.69140625" xlink:href="#BitstreamVeraSans-Roman-74"/>
       <use x="172.900390625" xlink:href="#BitstreamVeraSans-Roman-20"/>
       <use x="204.6875" xlink:href="#BitstreamVeraSans-Roman-32"/>
       <use x="268.310546875" xlink:href="#BitstreamVeraSans-Roman-35"/>
       <use x="331.93359375" xlink:href="#BitstreamVeraSans-Roman-20"/>
       <use x="363.720703125" xlink:href="#BitstreamVeraSans-Roman-32"/>
       <use x="427.34375" xlink:href="#BitstreamVeraSans-Roman-30"/>
       <use x="490.966796875" xlink:href="#BitstreamVeraSans-Roman-31"/>
       <use x="554.58984375" xlink:href="#BitstreamVeraSans-Roman-35"/>
      </g>
     </g>
    </g>
    <g id="xtick_6">
     <g id="line2d_13">
      <g>
       <use style="stroke:#000000;stroke-width:0.5;" x="393.591554031" xlink:href="#m93b0483c22" y="345.6"/>
      </g>
     </g>
     <g id="line2d_14">
      <g>
       <use style="stroke:#000000;stroke-width:0.5;" x="393.591554031" xlink:href="#m741efc42ff" y="43.2"/>
      </g>
     </g>
     <g id="text_6">
      <!-- Oct 28 2015 -->
      <defs>
       <path d="
M31.7812 34.625
Q24.75 34.625 20.7188 30.8594
Q16.7031 27.0938 16.7031 20.5156
Q16.7031 13.9219 20.7188 10.1562
Q24.75 6.39062 31.7812 6.39062
Q38.8125 6.39062 42.8594 10.1719
Q46.9219 13.9688 46.9219 20.5156
Q46.9219 27.0938 42.8906 30.8594
Q38.875 34.625 31.7812 34.625
M21.9219 38.8125
Q15.5781 40.375 12.0312 44.7188
Q8.5 49.0781 8.5 55.3281
Q8.5 64.0625 14.7188 69.1406
Q20.9531 74.2188 31.7812 74.2188
Q42.6719 74.2188 48.875 69.1406
Q55.0781 64.0625 55.0781 55.3281
Q55.0781 49.0781 51.5312 44.7188
Q48 40.375 41.7031 38.8125
Q48.8281 37.1562 52.7969 32.3125
Q56.7812 27.4844 56.7812 20.5156
Q56.7812 9.90625 50.3125 4.23438
Q43.8438 -1.42188 31.7812 -1.42188
Q19.7344 -1.42188 13.25 4.23438
Q6.78125 9.90625 6.78125 20.5156
Q6.78125 27.4844 10.7812 32.3125
Q14.7969 37.1562 21.9219 38.8125
M18.3125 54.3906
Q18.3125 48.7344 21.8438 45.5625
Q25.3906 42.3906 31.7812 42.3906
Q38.1406 42.3906 41.7188 45.5625
Q45.3125 48.7344 45.3125 54.3906
Q45.3125 60.0625 41.7188 63.2344
Q38.1406 66.4062 31.7812 66.4062
Q25.3906 66.4062 21.8438 63.2344
Q18.3125 60.0625 18.3125 54.3906" id="BitstreamVeraSans-Roman-38"/>
      </defs>
      <g transform="translate(329.004267296 394.065590385)rotate(-30.0)scale(0.12 -0.12)">
       <use xlink:href="#BitstreamVeraSans-Roman-4f"/>
       <use x="78.7109375" xlink:href="#BitstreamVeraSans-Roman-63"/>
       <use x="133.69140625" xlink:href="#BitstreamVeraSans-Roman-74"/>
       <use x="172.900390625" xlink:href="#BitstreamVeraSans-Roman-20"/>
       <use x="204.6875" xlink:href="#BitstreamVeraSans-Roman-32"/>
       <use x="268.310546875" xlink:href="#BitstreamVeraSans-Roman-38"/>
       <use x="331.93359375" xlink:href="#BitstreamVeraSans-Roman-20"/>
       <use x="363.720703125" xlink:href="#BitstreamVeraSans-Roman-32"/>
       <use x="427.34375" xlink:href="#BitstreamVeraSans-Roman-30"/>
       <use x="490.966796875" xlink:href="#BitstreamVeraSans-Roman-31"/>
       <use x="554.58984375" xlink:href="#BitstreamVeraSans-Roman-35"/>
      </g>
     </g>
    </g>
    <g id="xtick_7">
     <g id="line2d_15">
      <g>
       <use style="stroke:#000000;stroke-width:0.5;" x="448.721571183" xlink:href="#m93b0483c22" y="345.6"/>
      </g>
     </g>
     <g id="line2d_16">
      <g>
       <use style="stroke:#000000;stroke-width:0.5;" x="448.721571183" xlink:href="#m741efc42ff" y="43.2"/>
      </g>
     </g>
     <g id="text_7">
      <!-- Oct 31 2015 -->
      <g transform="translate(384.134284448 394.065590385)rotate(-30.0)scale(0.12 -0.12)">
       <use xlink:href="#BitstreamVeraSans-Roman-4f"/>
       <use x="78.7109375" xlink:href="#BitstreamVeraSans-Roman-63"/>
       <use x="133.69140625" xlink:href="#BitstreamVeraSans-Roman-74"/>
       <use x="172.900390625" xlink:href="#BitstreamVeraSans-Roman-20"/>
       <use x="204.6875" xlink:href="#BitstreamVeraSans-Roman-33"/>
       <use x="268.310546875" xlink:href="#BitstreamVeraSans-Roman-31"/>
       <use x="331.93359375" xlink:href="#BitstreamVeraSans-Roman-20"/>
       <use x="363.720703125" xlink:href="#BitstreamVeraSans-Roman-32"/>
       <use x="427.34375" xlink:href="#BitstreamVeraSans-Roman-30"/>
       <use x="490.966796875" xlink:href="#BitstreamVeraSans-Roman-31"/>
       <use x="554.58984375" xlink:href="#BitstreamVeraSans-Roman-35"/>
      </g>
     </g>
    </g>
    <g id="xtick_8">
     <g id="line2d_17">
      <g>
       <use style="stroke:#000000;stroke-width:0.5;" x="503.851588335" xlink:href="#m93b0483c22" y="345.6"/>
      </g>
     </g>
     <g id="line2d_18">
      <g>
       <use style="stroke:#000000;stroke-width:0.5;" x="503.851588335" xlink:href="#m741efc42ff" y="43.2"/>
      </g>
     </g>
     <g id="text_8">
      <!-- Nov 03 2015 -->
      <defs>
       <path d="
M2.98438 54.6875
L12.5 54.6875
L29.5938 8.79688
L46.6875 54.6875
L56.2031 54.6875
L35.6875 0
L23.4844 0
z
" id="BitstreamVeraSans-Roman-76"/>
       <path d="
M9.8125 72.9062
L23.0938 72.9062
L55.4219 11.9219
L55.4219 72.9062
L64.9844 72.9062
L64.9844 0
L51.7031 0
L19.3906 60.9844
L19.3906 0
L9.8125 0
z
" id="BitstreamVeraSans-Roman-4e"/>
       <path d="
M30.6094 48.3906
Q23.3906 48.3906 19.1875 42.75
Q14.9844 37.1094 14.9844 27.2969
Q14.9844 17.4844 19.1562 11.8438
Q23.3438 6.20312 30.6094 6.20312
Q37.7969 6.20312 41.9844 11.8594
Q46.1875 17.5312 46.1875 27.2969
Q46.1875 37.0156 41.9844 42.7031
Q37.7969 48.3906 30.6094 48.3906
M30.6094 56
Q42.3281 56 49.0156 48.375
Q55.7188 40.7656 55.7188 27.2969
Q55.7188 13.875 49.0156 6.21875
Q42.3281 -1.42188 30.6094 -1.42188
Q18.8438 -1.42188 12.1719 6.21875
Q5.51562 13.875 5.51562 27.2969
Q5.51562 40.7656 12.1719 48.375
Q18.8438 56 30.6094 56" id="BitstreamVeraSans-Roman-6f"/>
      </defs>
      <g transform="translate(436.948766176 395.402465385)rotate(-30.0)scale(0.12 -0.12)">
       <use xlink:href="#BitstreamVeraSans-Roman-4e"/>
       <use x="74.8046875" xlink:href="#BitstreamVeraSans-Roman-6f"/>
       <use x="135.986328125" xlink:href="#BitstreamVeraSans-Roman-76"/>
       <use x="195.166015625" xlink:href="#BitstreamVeraSans-Roman-20"/>
       <use x="226.953125" xlink:href="#BitstreamVeraSans-Roman-30"/>
       <use x="290.576171875" xlink:href="#BitstreamVeraSans-Roman-33"/>
       <use x="354.19921875" xlink:href="#BitstreamVeraSans-Roman-20"/>
       <use x="385.986328125" xlink:href="#BitstreamVeraSans-Roman-32"/>
       <use x="449.609375" xlink:href="#BitstreamVeraSans-Roman-30"/>
       <use x="513.232421875" xlink:href="#BitstreamVeraSans-Roman-31"/>
       <use x="576.85546875" xlink:href="#BitstreamVeraSans-Roman-35"/>
      </g>
     </g>
    </g>
   </g>
   <g id="matplotlib.axis_2">
    <g id="ytick_1">
     <g id="line2d_19">
      <defs>
       <path d="
M0 0
L4 0" id="m728421d6d4" style="stroke:#000000;stroke-width:0.5;"/>
      </defs>
      <g>
       <use style="stroke:#000000;stroke-width:0.5;" x="72.0" xlink:href="#m728421d6d4" y="288.972935772"/>
      </g>
     </g>
     <g id="line2d_20">
      <defs>
       <path d="
M0 0
L-4 0" id="mcb0005524f" style="stroke:#000000;stroke-width:0.5;"/>
      </defs>
      <g>
       <use style="stroke:#000000;stroke-width:0.5;" x="518.4" xlink:href="#mcb0005524f" y="288.972935772"/>
      </g>
     </g>
     <g id="text_9">
      <!-- 140000 -->
      <defs>
       <path d="
M37.7969 64.3125
L12.8906 25.3906
L37.7969 25.3906
z

M35.2031 72.9062
L47.6094 72.9062
L47.6094 25.3906
L58.0156 25.3906
L58.0156 17.1875
L47.6094 17.1875
L47.6094 0
L37.7969 0
L37.7969 17.1875
L4.89062 17.1875
L4.89062 26.7031
z
" id="BitstreamVeraSans-Roman-34"/>
      </defs>
      <g transform="translate(24.305 292.284185772)scale(0.12 -0.12)">
       <use xlink:href="#BitstreamVeraSans-Roman-31"/>
       <use x="63.623046875" xlink:href="#BitstreamVeraSans-Roman-34"/>
       <use x="127.24609375" xlink:href="#BitstreamVeraSans-Roman-30"/>
       <use x="190.869140625" xlink:href="#BitstreamVeraSans-Roman-30"/>
       <use x="254.4921875" xlink:href="#BitstreamVeraSans-Roman-30"/>
       <use x="318.115234375" xlink:href="#BitstreamVeraSans-Roman-30"/>
      </g>
     </g>
    </g>
    <g id="ytick_2">
     <g id="line2d_21">
      <g>
       <use style="stroke:#000000;stroke-width:0.5;" x="72.0" xlink:href="#m728421d6d4" y="223.651225268"/>
      </g>
     </g>
     <g id="line2d_22">
      <g>
       <use style="stroke:#000000;stroke-width:0.5;" x="518.4" xlink:href="#mcb0005524f" y="223.651225268"/>
      </g>
     </g>
     <g id="text_10">
      <!-- 160000 -->
      <g transform="translate(24.305 226.962475268)scale(0.12 -0.12)">
       <use xlink:href="#BitstreamVeraSans-Roman-31"/>
       <use x="63.623046875" xlink:href="#BitstreamVeraSans-Roman-36"/>
       <use x="127.24609375" xlink:href="#BitstreamVeraSans-Roman-30"/>
       <use x="190.869140625" xlink:href="#BitstreamVeraSans-Roman-30"/>
       <use x="254.4921875" xlink:href="#BitstreamVeraSans-Roman-30"/>
       <use x="318.115234375" xlink:href="#BitstreamVeraSans-Roman-30"/>
      </g>
     </g>
    </g>
    <g id="ytick_3">
     <g id="line2d_23">
      <g>
       <use style="stroke:#000000;stroke-width:0.5;" x="72.0" xlink:href="#m728421d6d4" y="158.329514764"/>
      </g>
     </g>
     <g id="line2d_24">
      <g>
       <use style="stroke:#000000;stroke-width:0.5;" x="518.4" xlink:href="#mcb0005524f" y="158.329514764"/>
      </g>
     </g>
     <g id="text_11">
      <!-- 180000 -->
      <g transform="translate(24.305 161.640764764)scale(0.12 -0.12)">
       <use xlink:href="#BitstreamVeraSans-Roman-31"/>
       <use x="63.623046875" xlink:href="#BitstreamVeraSans-Roman-38"/>
       <use x="127.24609375" xlink:href="#BitstreamVeraSans-Roman-30"/>
       <use x="190.869140625" xlink:href="#BitstreamVeraSans-Roman-30"/>
       <use x="254.4921875" xlink:href="#BitstreamVeraSans-Roman-30"/>
       <use x="318.115234375" xlink:href="#BitstreamVeraSans-Roman-30"/>
      </g>
     </g>
    </g>
    <g id="ytick_4">
     <g id="line2d_25">
      <g>
       <use style="stroke:#000000;stroke-width:0.5;" x="72.0" xlink:href="#m728421d6d4" y="93.0078042595"/>
      </g>
     </g>
     <g id="line2d_26">
      <g>
       <use style="stroke:#000000;stroke-width:0.5;" x="518.4" xlink:href="#mcb0005524f" y="93.0078042595"/>
      </g>
     </g>
     <g id="text_12">
      <!-- 200000 -->
      <g transform="translate(23.86625 96.3190542595)scale(0.12 -0.12)">
       <use xlink:href="#BitstreamVeraSans-Roman-32"/>
       <use x="63.623046875" xlink:href="#BitstreamVeraSans-Roman-30"/>
       <use x="127.24609375" xlink:href="#BitstreamVeraSans-Roman-30"/>
       <use x="190.869140625" xlink:href="#BitstreamVeraSans-Roman-30"/>
       <use x="254.4921875" xlink:href="#BitstreamVeraSans-Roman-30"/>
       <use x="318.115234375" xlink:href="#BitstreamVeraSans-Roman-30"/>
      </g>
     </g>
    </g>
   </g>
   <g id="text_13">
    <!-- Batterien -->
    <defs>
     <path d="
M54.8906 33.0156
L54.8906 0
L45.9062 0
L45.9062 32.7188
Q45.9062 40.4844 42.875 44.3281
Q39.8438 48.1875 33.7969 48.1875
Q26.5156 48.1875 22.3125 43.5469
Q18.1094 38.9219 18.1094 30.9062
L18.1094 0
L9.07812 0
L9.07812 54.6875
L18.1094 54.6875
L18.1094 46.1875
Q21.3438 51.125 25.7031 53.5625
Q30.0781 56 35.7969 56
Q45.2188 56 50.0469 50.1719
Q54.8906 44.3438 54.8906 33.0156" id="BitstreamVeraSans-Roman-6e"/>
     <path d="
M34.2812 27.4844
Q23.3906 27.4844 19.1875 25
Q14.9844 22.5156 14.9844 16.5
Q14.9844 11.7188 18.1406 8.90625
Q21.2969 6.10938 26.7031 6.10938
Q34.1875 6.10938 38.7031 11.4062
Q43.2188 16.7031 43.2188 25.4844
L43.2188 27.4844
z

M52.2031 31.2031
L52.2031 0
L43.2188 0
L43.2188 8.29688
Q40.1406 3.32812 35.5469 0.953125
Q30.9531 -1.42188 24.3125 -1.42188
Q15.9219 -1.42188 10.9531 3.29688
Q6 8.01562 6 15.9219
Q6 25.1406 12.1719 29.8281
Q18.3594 34.5156 30.6094 34.5156
L43.2188 34.5156
L43.2188 35.4062
Q43.2188 41.6094 39.1406 45
Q35.0625 48.3906 27.6875 48.3906
Q23 48.3906 18.5469 47.2656
Q14.1094 46.1406 10.0156 43.8906
L10.0156 52.2031
Q14.9375 54.1094 19.5781 55.0469
Q24.2188 56 28.6094 56
Q40.4844 56 46.3438 49.8438
Q52.2031 43.7031 52.2031 31.2031" id="BitstreamVeraSans-Roman-61"/>
     <path d="
M9.42188 54.6875
L18.4062 54.6875
L18.4062 0
L9.42188 0
z

M9.42188 75.9844
L18.4062 75.9844
L18.4062 64.5938
L9.42188 64.5938
z
" id="BitstreamVeraSans-Roman-69"/>
     <path d="
M19.6719 34.8125
L19.6719 8.10938
L35.5 8.10938
Q43.4531 8.10938 47.2812 11.4062
Q51.125 14.7031 51.125 21.4844
Q51.125 28.3281 47.2812 31.5625
Q43.4531 34.8125 35.5 34.8125
z

M19.6719 64.7969
L19.6719 42.8281
L34.2812 42.8281
Q41.5 42.8281 45.0312 45.5312
Q48.5781 48.25 48.5781 53.8125
Q48.5781 59.3281 45.0312 62.0625
Q41.5 64.7969 34.2812 64.7969
z

M9.8125 72.9062
L35.0156 72.9062
Q46.2969 72.9062 52.3906 68.2188
Q58.5 63.5312 58.5 54.8906
Q58.5 48.1875 55.375 44.2344
Q52.25 40.2812 46.1875 39.3125
Q53.4688 37.75 57.5 32.7812
Q61.5312 27.8281 61.5312 20.4062
Q61.5312 10.6406 54.8906 5.3125
Q48.25 0 35.9844 0
L9.8125 0
z
" id="BitstreamVeraSans-Roman-42"/>
     <path d="
M56.2031 29.5938
L56.2031 25.2031
L14.8906 25.2031
Q15.4844 15.9219 20.4844 11.0625
Q25.4844 6.20312 34.4219 6.20312
Q39.5938 6.20312 44.4531 7.46875
Q49.3125 8.73438 54.1094 11.2812
L54.1094 2.78125
Q49.2656 0.734375 44.1875 -0.34375
Q39.1094 -1.42188 33.8906 -1.42188
Q20.7969 -1.42188 13.1562 6.1875
Q5.51562 13.8125 5.51562 26.8125
Q5.51562 40.2344 12.7656 48.1094
Q20.0156 56 32.3281 56
Q43.3594 56 49.7812 48.8906
Q56.2031 41.7969 56.2031 29.5938
M47.2188 32.2344
Q47.125 39.5938 43.0938 43.9844
Q39.0625 48.3906 32.4219 48.3906
Q24.9062 48.3906 20.3906 44.1406
Q15.875 39.8906 15.1875 32.1719
z
" id="BitstreamVeraSans-Roman-65"/>
     <path d="
M41.1094 46.2969
Q39.5938 47.1719 37.8125 47.5781
Q36.0312 48 33.8906 48
Q26.2656 48 22.1875 43.0469
Q18.1094 38.0938 18.1094 28.8125
L18.1094 0
L9.07812 0
L9.07812 54.6875
L18.1094 54.6875
L18.1094 46.1875
Q20.9531 51.1719 25.4844 53.5781
Q30.0312 56 36.5312 56
Q37.4531 56 38.5781 55.875
Q39.7031 55.7656 41.0625 55.5156
z
" id="BitstreamVeraSans-Roman-72"/>
    </defs>
    <g transform="translate(454.27275 38.2)scale(0.144 -0.144)">
     <use xlink:href="#BitstreamVeraSans-Roman-42"/>
     <use x="68.603515625" xlink:href="#BitstreamVeraSans-Roman-61"/>
     <use x="129.8828125" xlink:href="#BitstreamVeraSans-Roman-74"/>
     <use x="169.091796875" xlink:href="#BitstreamVeraSans-Roman-74"/>
     <use x="208.30078125" xlink:href="#BitstreamVeraSans-Roman-65"/>
     <use x="269.82421875" xlink:href="#BitstreamVeraSans-Roman-72"/>
     <use x="310.9375" xlink:href="#BitstreamVeraSans-Roman-69"/>
     <use x="338.720703125" xlink:href="#BitstreamVeraSans-Roman-65"/>
     <use x="400.244140625" xlink:href="#BitstreamVeraSans-Roman-6e"/>
    </g>
   </g>
   <g id="legend_1">
    <g id="patch_7">
     <path d="
M123.942 423.616
L466.458 423.616
L466.458 398.16
L123.942 398.16
z
" style="fill:#ffffff;stroke:#000000;stroke-linejoin:miter;"/>
    </g>
    <g id="line2d_27">
     <path d="
M134.022 409.822
L154.182 409.822" style="fill:none;stroke:#ff0000;stroke-linecap:square;"/>
    </g>
    <g id="line2d_28"/>
    <g id="text_14">
     <!-- Schwarzmarktpreis -->
     <defs>
      <path d="
M52 44.1875
Q55.375 50.25 60.0625 53.125
Q64.75 56 71.0938 56
Q79.6406 56 84.2812 50.0156
Q88.9219 44.0469 88.9219 33.0156
L88.9219 0
L79.8906 0
L79.8906 32.7188
Q79.8906 40.5781 77.0938 44.375
Q74.3125 48.1875 68.6094 48.1875
Q61.625 48.1875 57.5625 43.5469
Q53.5156 38.9219 53.5156 30.9062
L53.5156 0
L44.4844 0
L44.4844 32.7188
Q44.4844 40.625 41.7031 44.4062
Q38.9219 48.1875 33.1094 48.1875
Q26.2188 48.1875 22.1562 43.5312
Q18.1094 38.875 18.1094 30.9062
L18.1094 0
L9.07812 0
L9.07812 54.6875
L18.1094 54.6875
L18.1094 46.1875
Q21.1875 51.2188 25.4844 53.6094
Q29.7812 56 35.6875 56
Q41.6562 56 45.8281 52.9688
Q50 49.9531 52 44.1875" id="BitstreamVeraSans-Roman-6d"/>
      <path d="
M9.07812 75.9844
L18.1094 75.9844
L18.1094 31.1094
L44.9219 54.6875
L56.3906 54.6875
L27.3906 29.1094
L57.625 0
L45.9062 0
L18.1094 26.7031
L18.1094 0
L9.07812 0
z
" id="BitstreamVeraSans-Roman-6b"/>
      <path d="
M53.5156 70.5156
L53.5156 60.8906
Q47.9062 63.5781 42.9219 64.8906
Q37.9375 66.2188 33.2969 66.2188
Q25.25 66.2188 20.875 63.0938
Q16.5 59.9688 16.5 54.2031
Q16.5 49.3594 19.4062 46.8906
Q22.3125 44.4375 30.4219 42.9219
L36.375 41.7031
Q47.4062 39.5938 52.6562 34.2969
Q57.9062 29 57.9062 20.125
Q57.9062 9.51562 50.7969 4.04688
Q43.7031 -1.42188 29.9844 -1.42188
Q24.8125 -1.42188 18.9688 -0.25
Q13.1406 0.921875 6.89062 3.21875
L6.89062 13.375
Q12.8906 10.0156 18.6562 8.29688
Q24.4219 6.59375 29.9844 6.59375
Q38.4219 6.59375 43.0156 9.90625
Q47.6094 13.2344 47.6094 19.3906
Q47.6094 24.75 44.3125 27.7812
Q41.0156 30.8125 33.5 32.3281
L27.4844 33.5
Q16.4531 35.6875 11.5156 40.375
Q6.59375 45.0625 6.59375 53.4219
Q6.59375 63.0938 13.4062 68.6562
Q20.2188 74.2188 32.1719 74.2188
Q37.3125 74.2188 42.625 73.2812
Q47.9531 72.3594 53.5156 70.5156" id="BitstreamVeraSans-Roman-53"/>
      <path d="
M54.8906 33.0156
L54.8906 0
L45.9062 0
L45.9062 32.7188
Q45.9062 40.4844 42.875 44.3281
Q39.8438 48.1875 33.7969 48.1875
Q26.5156 48.1875 22.3125 43.5469
Q18.1094 38.9219 18.1094 30.9062
L18.1094 0
L9.07812 0
L9.07812 75.9844
L18.1094 75.9844
L18.1094 46.1875
Q21.3438 51.125 25.7031 53.5625
Q30.0781 56 35.7969 56
Q45.2188 56 50.0469 50.1719
Q54.8906 44.3438 54.8906 33.0156" id="BitstreamVeraSans-Roman-68"/>
      <path d="
M4.20312 54.6875
L13.1875 54.6875
L24.4219 12.0156
L35.5938 54.6875
L46.1875 54.6875
L57.4219 12.0156
L68.6094 54.6875
L77.5938 54.6875
L63.2812 0
L52.6875 0
L40.9219 44.8281
L29.1094 0
L18.5 0
z
" id="BitstreamVeraSans-Roman-77"/>
      <path d="
M5.51562 54.6875
L48.1875 54.6875
L48.1875 46.4844
L14.4062 7.17188
L48.1875 7.17188
L48.1875 0
L4.29688 0
L4.29688 8.20312
L38.0938 47.5156
L5.51562 47.5156
z
" id="BitstreamVeraSans-Roman-7a"/>
      <path d="
M44.2812 53.0781
L44.2812 44.5781
Q40.4844 46.5312 36.375 47.5
Q32.2812 48.4844 27.875 48.4844
Q21.1875 48.4844 17.8438 46.4375
Q14.5 44.3906 14.5 40.2812
Q14.5 37.1562 16.8906 35.375
Q19.2812 33.5938 26.5156 31.9844
L29.5938 31.2969
Q39.1562 29.25 43.1875 25.5156
Q47.2188 21.7812 47.2188 15.0938
Q47.2188 7.46875 41.1875 3.01562
Q35.1562 -1.42188 24.6094 -1.42188
Q20.2188 -1.42188 15.4531 -0.5625
Q10.6875 0.296875 5.42188 2
L5.42188 11.2812
Q10.4062 8.6875 15.2344 7.39062
Q20.0625 6.10938 24.8125 6.10938
Q31.1562 6.10938 34.5625 8.28125
Q37.9844 10.4531 37.9844 14.4062
Q37.9844 18.0625 35.5156 20.0156
Q33.0625 21.9688 24.7031 23.7812
L21.5781 24.5156
Q13.2344 26.2656 9.51562 29.9062
Q5.8125 33.5469 5.8125 39.8906
Q5.8125 47.6094 11.2812 51.7969
Q16.75 56 26.8125 56
Q31.7812 56 36.1719 55.2656
Q40.5781 54.5469 44.2812 53.0781" id="BitstreamVeraSans-Roman-73"/>
      <path d="
M18.1094 8.20312
L18.1094 -20.7969
L9.07812 -20.7969
L9.07812 54.6875
L18.1094 54.6875
L18.1094 46.3906
Q20.9531 51.2656 25.2656 53.625
Q29.5938 56 35.5938 56
Q45.5625 56 51.7812 48.0938
Q58.0156 40.1875 58.0156 27.2969
Q58.0156 14.4062 51.7812 6.48438
Q45.5625 -1.42188 35.5938 -1.42188
Q29.5938 -1.42188 25.2656 0.953125
Q20.9531 3.32812 18.1094 8.20312
M48.6875 27.2969
Q48.6875 37.2031 44.6094 42.8438
Q40.5312 48.4844 33.4062 48.4844
Q26.2656 48.4844 22.1875 42.8438
Q18.1094 37.2031 18.1094 27.2969
Q18.1094 17.3906 22.1875 11.75
Q26.2656 6.10938 33.4062 6.10938
Q40.5312 6.10938 44.6094 11.75
Q48.6875 17.3906 48.6875 27.2969" id="BitstreamVeraSans-Roman-70"/>
     </defs>
     <g transform="translate(170.022375 414.86175)scale(0.144 -0.144)">
      <use xlink:href="#BitstreamVeraSans-Roman-53"/>
      <use x="63.4765625" xlink:href="#BitstreamVeraSans-Roman-63"/>
      <use x="118.45703125" xlink:href="#BitstreamVeraSans-Roman-68"/>
      <use x="181.8359375" xlink:href="#BitstreamVeraSans-Roman-77"/>
      <use x="263.623046875" xlink:href="#BitstreamVeraSans-Roman-61"/>
      <use x="324.90234375" xlink:href="#BitstreamVeraSans-Roman-72"/>
      <use x="366.015625" xlink:href="#BitstreamVeraSans-Roman-7a"/>
      <use x="418.505859375" xlink:href="#BitstreamVeraSans-Roman-6d"/>
      <use x="515.91796875" xlink:href="#BitstreamVeraSans-Roman-61"/>
      <use x="577.197265625" xlink:href="#BitstreamVeraSans-Roman-72"/>
      <use x="618.310546875" xlink:href="#BitstreamVeraSans-Roman-6b"/>
      <use x="676.220703125" xlink:href="#BitstreamVeraSans-Roman-74"/>
      <use x="715.4296875" xlink:href="#BitstreamVeraSans-Roman-70"/>
      <use x="778.90625" xlink:href="#BitstreamVeraSans-Roman-72"/>
      <use x="817.76953125" xlink:href="#BitstreamVeraSans-Roman-65"/>
      <use x="879.29296875" xlink:href="#BitstreamVeraSans-Roman-69"/>
      <use x="907.076171875" xlink:href="#BitstreamVeraSans-Roman-73"/>
     </g>
    </g>
    <g id="line2d_29">
     <path d="
M339.609 409.822
L359.769 409.822" style="fill:none;stroke:#008000;stroke-linecap:square;"/>
    </g>
    <g id="line2d_30"/>
    <g id="text_15">
     <!-- Normalpreis -->
     <defs>
      <path d="
M9.42188 75.9844
L18.4062 75.9844
L18.4062 0
L9.42188 0
z
" id="BitstreamVeraSans-Roman-6c"/>
     </defs>
     <g transform="translate(375.609375 414.86175)scale(0.144 -0.144)">
      <use xlink:href="#BitstreamVeraSans-Roman-4e"/>
      <use x="74.8046875" xlink:href="#BitstreamVeraSans-Roman-6f"/>
      <use x="135.986328125" xlink:href="#BitstreamVeraSans-Roman-72"/>
      <use x="175.349609375" xlink:href="#BitstreamVeraSans-Roman-6d"/>
      <use x="272.76171875" xlink:href="#BitstreamVeraSans-Roman-61"/>
      <use x="334.041015625" xlink:href="#BitstreamVeraSans-Roman-6c"/>
      <use x="361.82421875" xlink:href="#BitstreamVeraSans-Roman-70"/>
      <use x="425.30078125" xlink:href="#BitstreamVeraSans-Roman-72"/>
      <use x="464.1640625" xlink:href="#BitstreamVeraSans-Roman-65"/>
      <use x="525.6875" xlink:href="#BitstreamVeraSans-Roman-69"/>
      <use x="553.470703125" xlink:href="#BitstreamVeraSans-Roman-73"/>
     </g>
    </g>
   </g>
  </g>
 </g>
 <defs>
  <clipPath id="pcb2bf987bf">
   <rect height="302.4" width="446.4" x="72.0" y="43.2"/>
  </clipPath>
 </defs>
</svg>
