<?xml version="1.0" encoding="utf-8" standalone="no"?>
<!DOCTYPE svg PUBLIC "-//W3C//DTD SVG 1.1//EN"
  "http://www.w3.org/Graphics/SVG/1.1/DTD/svg11.dtd">
<!-- Created with matplotlib (http://matplotlib.org/) -->
<svg height="432pt" version="1.1" viewBox="0 0 576 432" width="576pt" xmlns="http://www.w3.org/2000/svg" xmlns:xlink="http://www.w3.org/1999/xlink">
 <defs>
  <style type="text/css">
*{stroke-linecap:butt;stroke-linejoin:round;}
  </style>
 </defs>
 <g id="figure_1">
  <g id="patch_1">
   <path d="
M0 432
L576 432
L576 0
L0 0
z
" style="fill:#ffffff;"/>
  </g>
  <g id="axes_1">
   <g id="patch_2">
    <path d="
M72 345.6
L518.4 345.6
L518.4 43.2
L72 43.2
z
" style="fill:#ffffff;"/>
   </g>
   <g id="line2d_1">
    <path clip-path="url(#pcb2bf987bf)" d="
M72 185.938
L72.1276 193.141
L72.3828 195.302
L72.5105 193.141
L72.7657 181.616
L72.8933 191.652
L73.5314 167.69
L73.659 176.334
L73.9142 181.616
L74.0419 166.25
L74.2971 157.606
L74.4247 180.656
L74.8075 193.621
L75.4456 184.737
L75.5732 174.173
L75.8285 175.133
L75.9561 185.698
L76.2113 166.25
L76.3389 171.052
L76.5942 165.289
L76.7218 166.25
L76.9772 167.21
L77.3599 183.057
L77.7429 182.817
L77.8703 174.173
L78.1256 173.213
L78.1256 173.213
L78.2532 179.935
L78.5084 182.817
L78.636 186.658
L78.8915 174.173
L79.0189 189.059
L79.2741 182.336
L79.4017 189.539
L79.6569 169.131
L79.7846 186.418
L80.0398 188.099
L80.1674 184.017
L80.4226 180.416
L80.5503 176.574
L80.8055 183.009
L80.9331 179.215
L81.1885 175.373
L81.316 175.373
L81.5712 172.492
L81.6988 184.737
L81.9542 167.21
L82.0816 166.25
L82.3371 173.213
L82.4645 166.49
L82.7197 175.854
L82.8473 191.22
L83.1026 185.938
L83.2302 193.141
L83.4854 184.497
L83.613 188.579
L83.8683 183.537
L83.9959 188.099
L84.2511 179.455
L84.3787 188.099
L84.6342 196.502
L85.1444 187.859
L85.3999 171.532
L85.5273 170.572
L85.7825 126.394
L85.9101 163.849
L86.1654 160.968
L86.293 161.928
L86.5482 162.408
L86.6758 168.651
L86.931 192.66
L87.0587 190.5
L87.3139 196.022
L87.4415 201.784
L87.6967 198.903
L87.8244 188.819
L88.0796 198.279
L88.2072 190.74
L88.4624 186.658
L88.5901 176.094
L88.9729 201.784
L89.2281 194.341
L89.3557 187.138
L89.611 183.297
L89.7386 198.855
L90.2491 191.94
L90.3767 170.091
L91.0148 182.096
L91.7804 181.136
L91.9081 185.458
L92.5461 192.132
L92.6738 189.779
L93.3118 190.019
L94.0775 178.255
L94.2051 190.26
L94.8432 192.901
L94.9708 192.18
L95.6089 183.297
L95.7365 169.131
L97.1403 195.782
L97.906 179.695
L98.0336 118.23
L98.6717 185.698
L98.7993 183.777
L99.4374 171.532
L100.203 159.527
L100.331 173.693
L100.969 188.819
L101.862 152.324
L102.5 149.443
L103.266 165.289
L103.393 163.369
L104.032 190.74
L104.797 178.255
L106.329 201.304
L107.095 199.863
L107.988 179.935
L108.626 190.019
L109.391 161.208
L109.519 163.129
L110.157 160.487
L110.285 167.21
L110.923 178.495
L111.05 176.574
L111.689 184.257
L111.816 187.138
L113.986 194.101
L114.879 184.689
L116.283 192.18
L116.41 179.455
L117.048 174.173
L117.814 160.487
L117.942 169.131
L118.58 165.241
L118.707 166.25
L119.345 165.289
L120.111 175.373
L120.877 196.262
L121.004 194.581
L121.643 189.779
L122.536 180.368
L123.174 186.898
L123.94 175.854
L124.067 170.091
L124.705 192.42
L125.471 174.893
L126.237 167.21
L126.237 167.21
L126.365 140.079
L127.002 172.012
L127.13 165.289
L127.13 165.289
L127.64 164.329
L127.64 164.329
L127.768 166.202
L128.534 165.77
L128.661 175.373
L130.065 152.324
L130.193 159.047
L130.831 166.25
L131.597 151.844
L132.362 163.849
L132.362 163.849
L133.894 180.656
L134.149 173.933
L134.659 171.772
L135.425 147.042
L136.191 187.138
L136.318 180.656
L136.956 179.455
L137.722 158.087
L138.488 162.408
L139.254 157.606
L139.381 146.082
L140.019 142.24
L140.785 144.881
L141.551 167.21
L141.678 175.373
L142.316 181.136
L143.082 184.257
L143.848 180.416
L143.975 77.4138
L144.613 182.096
L145.507 164.281
L146.145 164.329
L146.272 164.809
L147.038 148.002
L147.676 179.455
L148.442 156.646
L149.208 158.807
L149.335 147.282
L149.973 178.495
L150.739 181.136
L150.867 177.294
L151.505 182.096
L152.27 169.131
L153.164 148.483
L153.802 168.171
L154.567 175.854
L155.333 132.876
L155.333 132.876
L156.099 143.441
L156.865 166.202
L157.758 129.035
L158.396 166.25
L159.162 157.558
L159.927 184.497
L160.693 166.25
L160.821 155.686
L162.224 172.973
L163.118 188.339
L163.883 156.646
L164.521 180.656
L164.649 163.369
L165.287 163.369
L166.053 160.007
L166.819 161.928
L167.584 179.935
L167.712 174.173
L168.35 170.572
L169.116 182.096
L169.243 176.814
L169.881 176.334
L170.647 168.651
L170.775 171.292
L171.413 181.376
L172.178 156.646
L173.072 182.336
L173.71 154.485
L174.475 164.329
L174.603 164.329
L176.007 155.926
L176.773 146.562
L176.9 147.522
L178.304 176.814
L179.07 152.804
L179.835 182.576
L179.963 176.814
L182.132 150.403
L182.26 159.047
L182.898 132.876
L183.791 171.004
L184.43 156.646
L185.195 156.646
L185.961 160.487
L186.727 149.683
L187.492 174.893
L188.258 175.614
L189.024 157.606
L189.151 135.277
L190.555 182.576
L191.321 161.928
L191.321 161.928
L192.852 180.175
L193.618 170.572
L194.384 158.087
L195.149 152.324
L195.277 148.483
L195.915 148.483
L196.681 151.844
L198.212 149.971
L198.212 149.971
L198.978 162.408
L200.509 172.492
L201.275 170.572
L202.04 157.126
L202.806 154.485
L203.572 146.562
L203.699 141.76
L204.338 149.203
L205.103 171.532
L205.231 166.73
L205.869 148.002
L205.997 174.413
L206.124 172.492
L206.507 178.255
L206.635 178.255
L206.635 178.255
L206.762 162.408
L207.4 157.366
L207.911 180.175
L208.166 185.41
L209.059 160.968
L209.059 160.968
L209.442 164.809
L209.57 161.928
L209.825 170.572
L210.591 172.492
L210.846 160.007
L211.356 141.28
L211.739 111.268
L211.867 135.277
L212.122 134.077
L212.25 154.005
L212.505 161.448
L212.633 169.611
L212.888 164.809
L213.398 158.567
L213.654 177.294
L213.654 177.294
L213.781 172.492
L214.036 148.243
L214.164 154.725
L214.419 135.277
L214.547 152.804
L214.93 149.683
L215.185 150.884
L215.185 150.884
L215.313 180.656
L215.568 171.052
L215.695 173.453
L215.951 175.373
L215.951 175.373
L216.078 183.537
L216.589 153.765
L216.589 153.765
L216.844 163.849
L217.099 182.288
L217.227 164.329
L217.482 158.567
L217.482 158.567
L217.61 150.884
L217.865 172.732
L217.992 173.933
L218.248 174.413
L218.248 174.413
L218.375 172.492
L218.758 158.567
L219.013 155.686
L219.141 156.646
L219.396 157.606
L219.779 166.25
L219.907 159.527
L220.162 174.413
L220.29 164.329
L220.29 164.329
L220.417 142.24
L220.672 162.408
L220.672 162.408
L220.928 160.007
L221.31 117.03
L221.438 132.156
L222.076 157.606
L222.204 155.686
L222.459 172.252
L222.587 162.888
L223.225 147.282
L223.352 172.732
L223.608 166.73
L223.735 166.73
L223.99 163.849
L224.118 143.681
L224.373 151.364
L224.501 141.28
L224.884 154.245
L225.139 147.522
L225.267 147.522
L225.522 129.035
L225.777 138.639
L225.777 138.639
L225.905 136.958
L225.905 136.958
L226.032 148.483
L226.032 148.483
L226.16 144.593
L226.16 144.593
L226.288 144.641
L226.415 155.205
L226.415 155.205
L226.67 149.443
L226.798 174.893
L227.053 165.289
L227.181 169.851
L227.436 165.049
L227.436 165.049
L227.819 172.973
L227.946 160.968
L228.202 171.964
L228.329 170.091
L229.095 148.002
L229.35 166.25
L229.733 163.129
L230.116 151.604
L230.244 166.97
L230.499 160.968
L230.499 160.968
L230.882 154.725
L231.009 148.002
L231.264 163.369
L231.264 163.369
L231.392 161.448
L231.647 160.247
L231.775 157.366
L232.03 134.077
L232.158 153.525
L232.413 146.802
L232.541 149.683
L232.924 144.065
L233.179 165.962
L233.306 165.962
L233.562 154.245
L233.689 154.485
L233.944 165.962
L234.072 165.049
L234.327 157.126
L234.327 157.126
L234.455 161.448
L234.71 151.364
L234.838 166.25
L235.221 178.015
L235.476 177.294
L235.603 173.453
L235.859 177.774
L235.859 177.774
L235.986 164.329
L236.369 180.896
L236.752 163.609
L237.007 175.854
L237.135 167.93
L237.39 166.25
L237.518 159.527
L237.773 155.926
L237.901 58.2061
L238.283 157.846
L238.539 153.044
L238.666 157.846
L238.921 175.133
L239.049 170.091
L239.432 165.53
L239.687 164.569
L239.815 166.73
L240.07 163.849
L240.198 160.007
L240.836 151.316
L240.963 134.077
L241.346 165.289
L241.601 167.45
L241.729 163.609
L241.984 159.527
L242.112 166.25
L242.367 164.329
L242.495 164.329
L242.75 168.411
L242.878 165.53
L243.133 182.096
L243.26 171.052
L243.516 117.99
L243.643 154.005
L243.898 156.406
L244.026 159.287
L244.409 142.72
L244.664 175.373
L245.047 158.999
L245.047 158.999
L245.175 172.492
L245.43 174.893
L245.557 162.648
L245.813 158.567
L245.94 179.455
L246.196 171.052
L246.323 161.448
L246.578 172.973
L246.578 172.973
L246.706 169.131
L246.961 170.572
L247.089 166.73
L247.344 163.849
L247.727 171.052
L247.855 169.131
L248.237 170.572
L249.003 154.245
L249.258 137.678
L249.641 165.289
L249.641 165.289
L249.769 163.369
L250.024 106.226
L250.152 103.825
L250.407 156.646
L250.534 154.725
L250.79 160.487
L250.917 155.686
L251.173 155.686
L251.3 167.69
L251.555 172.973
L251.683 164.089
L251.938 167.69
L252.066 163.849
L252.321 163.849
L252.449 111.268
L252.832 162.888
L253.087 158.567
L253.214 175.614
L253.47 175.133
L253.852 159.527
L253.98 163.369
L254.235 151.844
L254.363 166.298
L254.746 161.208
L254.746 161.208
L255.001 170.331
L255.129 165.53
L255.129 165.53
L255.384 161.928
L255.511 155.445
L255.767 153.285
L255.767 153.285
L255.894 149.443
L256.277 159.767
L256.532 161.688
L256.66 160.487
L256.66 160.487
L257.043 168.411
L257.298 165.53
L257.426 154.965
L257.681 158.087
L257.809 165.53
L258.064 157.846
L258.064 157.846
L258.447 168.651
L258.574 157.606
L258.702 118.23
L258.83 148.723
L258.957 149.683
L259.212 167.69
L259.212 167.69
L259.34 164.809
L259.595 161.688
L259.595 161.688
L259.723 142.24
L259.978 153.285
L260.361 72.3238
L260.489 118.23
L260.744 165.049
L260.871 160.487
L261.127 169.371
L261.509 161.208
L261.637 165.289
L261.892 160.728
L262.403 126.634
L262.658 157.846
L262.786 159.767
L263.551 131.436
L263.807 163.849
L263.934 156.166
L264.317 140.559
L264.7 167.69
L264.955 172.492
L264.955 172.492
L265.083 166.73
L265.338 129.995
L265.466 139.359
L265.593 165.53
L265.848 162.648
L266.104 171.532
L266.231 171.532
L266.486 141.28
L266.614 162.408
L266.869 158.807
L266.997 152.084
L267.252 145.361
L267.38 145.361
L267.635 141.28
L267.763 159.047
L268.018 172.973
L268.145 166.25
L268.401 164.329
L268.528 161.448
L268.911 164.329
L269.166 151.844
L269.294 155.686
L269.549 171.052
L269.677 168.027
L269.932 172.973
L270.06 169.131
L270.443 152.804
L270.698 164.089
L270.825 161.208
L271.081 160.247
L271.463 166.298
L271.846 163.369
L271.974 176.814
L272.229 169.131
L272.357 169.131
L272.612 168.891
L272.995 161.88
L273.122 165.049
L273.506 151.844
L273.761 160.247
L273.888 154.485
L274.143 137.918
L274.271 166.25
L274.526 165.289
L274.909 150.884
L274.909 150.884
L275.037 163.849
L275.292 140.079
L275.675 173.453
L275.802 170.812
L276.058 163.129
L276.185 142.24
L276.568 162.168
L276.823 164.089
L276.951 167.93
L277.206 160.487
L277.334 174.893
L277.717 166.25
L277.972 161.208
L277.972 161.208
L278.099 154.485
L278.355 167.21
L278.482 164.809
L278.738 165.77
L278.865 159.047
L279.12 160.968
L279.248 157.078
L279.503 159.047
L279.631 167.69
L279.886 168.171
L280.014 160.487
L280.269 156.646
L280.269 156.646
L280.397 152.804
L280.779 166.01
L281.035 163.369
L281.035 163.369
L281.162 159.527
L281.417 157.126
L281.545 157.606
L281.801 160.487
L282.183 148.243
L282.311 167.93
L282.566 136.238
L282.949 171.052
L283.332 158.087
L283.459 159.047
L283.715 142.72
L283.842 145.601
L284.097 173.933
L284.225 162.408
L284.48 171.628
L284.736 157.126
L285.246 151.364
L285.374 132.636
L285.629 118.47
L285.756 151.364
L286.012 147.522
L286.139 148.483
L286.395 157.126
L286.522 142.72
L286.777 156.166
L286.905 151.364
L287.16 150.403
L287.288 143.681
L287.543 142.672
L287.671 142.72
L287.926 146.082
L288.054 144.161
L288.309 149.443
L288.437 144.641
L288.819 158.807
L289.074 170.812
L289.457 158.327
L289.585 158.327
L289.84 164.329
L289.968 171.052
L290.351 167.45
L290.733 155.926
L290.861 164.569
L290.989 162.648
L291.116 156.886
L291.372 151.124
L291.499 173.597
L291.754 163.609
L292.265 155.926
L292.52 169.131
L292.648 168.171
L293.031 158.567
L293.286 153.285
L293.286 153.285
L293.413 162.408
L293.669 160.487
L293.796 156.646
L294.051 152.804
L294.051 152.804
L294.179 159.047
L294.434 163.369
L294.562 159.047
L294.817 137.918
L294.817 137.918
L294.945 142.48
L295.328 137.918
L295.583 148.002
L295.71 134.077
L295.966 138.879
L296.476 160.007
L296.859 151.844
L297.242 158.567
L297.497 155.686
L297.625 170.091
L297.88 164.809
L298.008 156.166
L298.263 168.651
L298.39 164.809
L298.646 160.487
L298.773 155.686
L299.028 155.686
L299.156 166.25
L299.922 147.522
L300.177 163.369
L300.177 163.369
L300.305 164.329
L300.56 160.487
L300.687 154.725
L300.943 156.646
L301.07 167.69
L301.326 172.973
L301.453 154.725
L301.708 155.686
L301.836 149.923
L302.091 151.124
L302.219 147.282
L302.474 135.517
L302.474 135.517
L302.985 118.711
L303.368 130.715
L303.623 134.317
L303.75 133.116
L304.005 136.478
L304.005 136.478
L304.133 130.475
L304.388 171.532
L304.899 163.849
L305.154 168.651
L305.282 167.69
L305.664 157.126
L306.047 146.082
L306.303 133.597
L306.43 147.474
L306.813 158.087
L307.068 165.289
L307.068 165.289
L307.196 141.28
L307.451 171.052
L307.579 168.363
L307.834 169.323
L308.344 157.606
L308.6 170.331
L308.727 170.331
L308.983 168.171
L309.11 171.052
L309.365 156.646
L309.493 158.567
L309.748 156.646
L309.876 172.252
L310.131 161.928
L310.131 161.928
L310.259 138.158
L310.514 161.928
L310.642 139.359
L310.897 160.487
L311.024 143.2
L311.28 173.069
L311.407 170.091
L311.662 172.012
L311.79 159.047
L312.173 170.043
L312.556 149.443
L312.811 169.131
L312.939 166.25
L313.194 153.765
L313.321 168.171
L313.704 156.118
L313.96 160.343
L314.087 140.559
L314.725 169.131
L314.853 170.091
L315.236 153.765
L315.491 155.686
L315.619 152.804
L315.874 166.202
L316.384 145.121
L316.767 159.287
L317.022 161.208
L317.15 164.329
L317.405 152.084
L317.533 155.157
L317.788 154.245
L317.916 159.047
L318.171 138.879
L318.298 159.767
L318.554 153.044
L318.554 153.044
L318.681 131.916
L318.937 150.163
L319.064 148.723
L319.319 149.203
L319.319 149.203
L319.447 143.441
L319.702 158.038
L319.83 158.087
L320.085 163.609
L320.213 142.24
L320.596 125.433
L320.851 121.784
L320.851 121.784
L321.234 163.129
L321.616 143.681
L321.999 141.76
L322.127 136.958
L322.765 130.715
L322.893 127.114
L323.148 133.116
L323.275 123.272
L323.531 125.913
L323.658 124.713
L323.914 124.713
L323.914 124.713
L324.041 158.327
L324.424 163.129
L324.679 150.884
L324.807 138.879
L325.062 154.725
L325.19 152.804
L325.573 113.188
L325.956 102.624
L326.338 140.559
L326.593 145.842
L326.721 159.287
L326.976 149.923
L327.104 163.849
L327.359 162.168
L327.742 153.285
L327.87 161.208
L328.125 162.168
L328.252 158.327
L328.508 157.366
L328.635 154.005
L328.891 160.007
L329.018 156.166
L329.273 160.007
L329.401 155.686
L329.656 161.928
L329.784 161.88
L330.167 151.844
L330.422 143.2
L330.55 153.765
L330.805 157.366
L330.933 155.445
L331.315 155.445
L331.57 159.287
L331.698 158.807
L331.953 147.282
L332.081 152.084
L332.336 149.923
L332.464 151.844
L332.719 148.002
L332.847 157.846
L333.102 158.567
L333.23 151.604
L333.485 158.087
L333.612 151.844
L333.868 148.963
L334.25 125.433
L334.378 148.002
L334.633 144.161
L334.761 164.809
L335.016 156.166
L335.144 161.448
L335.527 146.562
L335.782 165.626
L335.909 161.448
L336.165 161.448
L336.292 153.765
L336.548 152.564
L336.675 152.564
L336.93 163.849
L337.058 161.928
L337.313 152.324
L337.441 163.849
L337.696 161.688
L337.824 165.674
L338.079 151.364
L338.207 160.007
L338.462 165.289
L338.589 151.844
L338.845 160.968
L338.972 158.567
L339.227 158.567
L339.355 155.638
L339.61 159.527
L339.738 138.879
L339.866 161.448
L340.121 161.208
L340.504 161.208
L340.886 134.077
L341.142 116.79
L341.269 125.673
L341.525 118.23
L341.652 118.23
L341.907 118.47
L342.035 127.834
L342.29 132.876
L342.418 142.24
L342.673 141.28
L342.801 156.742
L343.184 142
L343.439 142.192
L343.566 157.606
L343.822 156.886
L343.822 156.886
L343.949 152.084
L344.204 149.443
L344.332 146.322
L344.588 167.21
L344.715 163.129
L344.97 146.802
L345.098 149.683
L345.481 161.928
L345.736 151.604
L345.863 160.247
L346.119 150.643
L346.246 168.171
L346.502 155.205
L346.629 168.171
L346.884 164.809
L346.884 164.809
L347.012 157.126
L347.395 146.562
L347.65 150.355
L347.778 160.968
L348.161 152.324
L348.416 135.757
L348.543 135.757
L348.799 160.968
L348.926 156.166
L349.181 155.205
L349.564 155.205
L349.692 149.923
L349.947 147.138
L350.075 148.723
L350.33 149.155
L350.713 142.24
L350.84 157.606
L351.224 144.161
L351.606 157.366
L351.861 152.324
L351.989 144.641
L352.244 157.558
L352.627 131.676
L352.755 156.646
L353.01 137.198
L353.138 149.923
L353.52 137.198
L353.776 141.76
L353.776 141.76
L354.158 136.958
L354.286 153.285
L354.541 157.366
L354.669 145.121
L355.052 154.485
L355.307 146.322
L355.307 146.322
L355.435 160.968
L355.69 158.567
L355.817 146.802
L356.073 135.757
L356.073 135.757
L356.2 135.757
L356.583 127.786
L356.838 137.678
L356.966 132.396
L357.221 138.879
L357.477 135.998
L357.732 120.391
L357.987 140.8
L358.37 121.592
L358.37 121.592
L358.497 115.589
L358.753 125.433
L358.88 134.797
L359.136 133.549
L359.263 144.881
L359.646 132.396
L359.901 133.837
L360.029 132.396
L360.412 116.79
L360.667 137.198
L360.795 113.188
L361.05 112.468
L361.177 108.867
L361.433 144.929
L361.56 144.929
L361.816 123.993
L361.943 141.76
L362.326 118.951
L362.581 120.631
L362.709 137.198
L362.964 142.96
L363.092 143.2
L363.474 135.037
L363.73 144.929
L363.857 143.921
L364.113 147.474
L364.24 144.401
L364.495 152.804
L365.006 137.678
L365.261 118.47
L365.389 142.192
L365.644 150.643
L365.772 150.643
L366.027 157.126
L366.027 157.126
L366.155 152.324
L366.537 157.126
L366.792 151.364
L366.92 115.829
L367.175 148.243
L367.303 147.282
L367.558 158.087
L367.686 154.725
L367.941 151.844
L368.069 148.002
L368.324 154.245
L368.707 146.322
L369.09 125.193
L369.472 139.599
L369.855 119.911
L369.983 138.399
L370.238 148.963
L370.366 136.238
L370.749 130.956
L371.004 118.23
L371.131 154.485
L371.514 151.364
L371.769 140.559
L371.897 124.953
L372.152 138.158
L372.28 136.238
L372.663 158.087
L373.046 112.708
L373.301 154.245
L373.684 133.597
L373.684 133.597
L373.811 146.082
L374.067 144.881
L374.194 142.96
L374.449 149.443
L374.577 148.435
L374.832 152.084
L375.215 129.275
L375.343 155.686
L375.598 152.804
L375.726 147.762
L375.981 145.842
L376.108 150.403
L376.364 148.483
L376.491 157.798
L376.874 146.322
L377.129 145.842
L377.512 128.555
L377.512 128.555
L377.767 121.352
L378.023 115.589
L378.278 125.385
L378.405 123.032
L379.044 155.878
L379.171 121.832
L379.554 142.24
L379.809 137.678
L379.937 137.678
L380.192 162.888
L380.575 156.646
L380.703 151.844
L380.958 162.888
L381.086 162.888
L381.468 148.002
L381.723 162.888
L381.851 152.324
L382.107 162.888
L382.234 160.487
L382.489 138.879
L382.617 141.28
L382.872 156.646
L383 150.884
L383.255 152.564
L384.021 137.918
L384.148 134.317
L384.531 88.6984
L384.786 118.711
L385.169 135.277
L385.297 135.277
L385.552 138.158
L385.68 146.562
L385.935 136.958
L386.062 147.474
L386.318 143.441
L386.445 144.641
L386.701 156.598
L386.828 154.725
L387.211 145.553
L387.466 153.525
L387.594 149.443
L387.849 151.556
L387.977 148.243
L388.232 146.082
L388.232 146.082
L388.36 147.042
L388.615 156.646
L388.998 140.559
L389.125 161.928
L389.38 145.601
L389.508 158.567
L389.891 144.161
L390.146 118.47
L390.274 134.077
L390.529 147.474
L390.657 118.951
L391.039 151.556
L391.295 145.121
L391.422 137.678
L391.678 137.918
L391.805 151.364
L392.06 151.364
L392.188 137.438
L392.571 141.232
L392.826 135.709
L392.954 135.709
L393.209 142.48
L393.337 142.48
L393.592 147.042
L393.719 143.2
L393.975 152.564
L394.102 150.643
L394.102 150.643
L394.485 150.643
L394.74 141.28
L394.868 145.361
L395.123 115.829
L395.251 144.401
L395.506 138.879
L395.634 140.079
L396.016 125.673
L396.272 124.425
L396.399 128.026
L396.782 134.077
L397.165 121.832
L397.42 70.2109
L397.548 138.879
L397.803 132.156
L397.931 122.072
L398.186 141.28
L398.314 136.478
L398.569 142.48
L398.696 151.604
L398.952 141.28
L399.079 150.403
L399.335 148.483
L399.717 150.403
L399.845 148.483
L400.1 151.556
L400.228 149.443
L400.483 149.683
L400.866 161.208
L400.993 161.208
L401.249 156.406
L401.376 161.208
L401.759 149.443
L402.014 152.324
L402.142 161.928
L402.525 154.245
L402.78 153.044
L402.908 150.163
L403.291 150.163
L403.546 145.121
L403.673 120.631
L404.056 142.72
L404.311 140.079
L404.439 149.923
L404.694 157.126
L404.822 139.119
L405.077 158.807
L405.205 154.725
L405.46 154.965
L405.588 153.765
L405.843 149.443
L405.97 149.443
L406.226 148.483
L406.609 143.681
L406.736 144.641
L406.991 142.24
L407.119 155.157
L407.374 144.641
L407.502 130.235
L407.757 137.198
L408.14 156.166
L408.268 149.443
L408.523 145.601
L408.65 138.158
L408.906 156.166
L409.033 149.923
L409.416 148.243
L409.671 131.436
L409.799 158.567
L410.054 156.646
L410.182 148.483
L410.437 151.844
L410.82 123.272
L410.948 147.042
L411.713 119.191
L411.968 127.354
L412.096 145.361
L412.351 148.002
L412.607 131.436
L412.989 142.24
L413.245 146.082
L413.5 145.601
L413.627 144.641
L414.01 120.391
L414.266 137.438
L414.393 135.037
L414.648 135.517
L414.776 93.0202
L415.031 146.562
L415.414 139.359
L415.797 127.354
L415.925 153.525
L416.18 142.24
L416.307 146.562
L416.69 121.832
L416.945 151.316
L417.073 127.594
L417.456 139.839
L417.839 133.837
L418.222 154.581
L418.477 151.844
L418.604 146.802
L418.86 145.842
L419.243 135.757
L419.37 143.921
L419.625 140.8
L419.753 137.198
L420.008 149.443
L420.136 147.522
L420.391 149.443
L420.519 149.443
L420.902 142.48
L421.157 153.285
L421.284 140.079
L421.54 136.478
L421.667 150.884
L422.05 137.918
L422.305 134.269
L422.433 136.958
L422.688 135.757
L422.816 130.956
L423.071 148.002
L423.199 147.042
L423.454 161.112
L423.581 157.126
L423.964 144.161
L424.22 135.277
L424.347 149.443
L424.602 149.443
L424.73 145.601
L424.985 148.483
L425.113 140.319
L425.368 142.96
L425.496 129.035
L425.751 156.646
L426.134 139.359
L426.261 151.844
L426.517 154.965
L426.644 148.963
L426.899 113.428
L427.41 146.082
L427.793 139.599
L428.176 149.443
L428.431 147.522
L428.558 150.643
L428.814 144.641
L428.941 152.804
L429.324 141.28
L429.579 149.443
L429.962 138.639
L430.09 138.399
L430.473 158.087
L430.728 139.599
L430.856 157.126
L431.238 138.879
L431.494 155.205
L431.877 152.564
L432.004 150.643
L432.259 144.833
L432.387 139.359
L432.642 136.958
L432.642 136.958
L432.77 138.158
L433.025 143.633
L433.153 140.319
L433.408 142.48
L433.536 142.48
L433.791 151.604
L433.918 150.643
L434.174 147.762
L434.301 144.881
L434.556 152.804
L434.684 152.804
L435.067 144.161
L435.45 146.562
L435.705 149.875
L435.833 117.99
L436.088 151.844
L436.215 148.963
L436.471 139.119
L436.598 143.2
L436.854 139.599
L436.981 139.599
L437.236 134.797
L437.364 134.797
L437.747 150.643
L438.002 147.762
L438.13 144.881
L438.385 150.403
L438.513 147.522
L438.768 150.884
L438.895 148.963
L439.151 153.765
L439.533 148.002
L439.661 144.161
L440.044 139.119
L440.299 146.082
L440.299 146.082
L440.427 144.161
L440.682 158.327
L441.065 159.527
L441.192 158.087
L441.448 158.087
L441.575 152.324
L441.958 114.869
L442.341 118.47
L442.596 154.725
L442.724 149.923
L442.979 145.121
L443.107 138.879
L443.362 156.646
L443.745 151.796
L443.872 146.562
L444.128 152.804
L444.255 148.963
L444.51 146.802
L444.638 139.599
L444.893 139.599
L445.021 145.842
L445.404 143.2
L445.659 70.2109
L446.042 148.483
L446.169 144.641
L446.425 115.829
L446.552 141.76
L446.935 119.431
L447.19 156.598
L447.573 148.915
L447.701 141.76
L447.956 154.725
L448.084 151.844
L448.339 150.643
L448.467 157.606
L448.722 155.686
L448.849 150.643
L449.105 151.844
L449.232 139.359
L449.615 149.923
L449.87 146.082
L449.998 118.182
L450.126 115.829
L450.636 162.408
L450.764 161.448
L451.019 157.606
L451.146 136.238
L451.402 151.844
L451.785 146.082
L451.912 148.915
L452.295 140.079
L452.55 154.725
L452.933 149.923
L453.061 150.884
L453.316 147.042
L453.444 117.03
L453.699 150.884
L454.082 147.762
L454.209 141.28
L454.465 162.408
L454.975 144.641
L455.23 150.884
L455.358 148.723
L455.613 139.599
L455.741 148.483
L456.123 137.678
L456.379 136.478
L456.506 137.678
L456.889 124.473
L457.144 136.718
L457.272 129.275
L457.655 144.401
L457.91 125.673
L458.038 143.441
L458.293 143.441
L458.421 135.517
L458.803 148.483
L459.059 142.24
L459.186 148.483
L459.442 147.522
L459.569 144.929
L459.824 156.886
L459.952 156.886
L460.59 137.918
L460.718 124.233
L461.101 160.487
L461.356 152.804
L461.484 143.2
L461.739 136.478
L461.866 122.072
L462.121 159.527
L462.249 155.638
L462.632 137.678
L462.887 143.152
L463.015 140.8
L463.27 144.641
L463.398 135.517
L463.653 134.797
L463.781 127.834
L464.036 142
L464.163 139.599
L464.419 143.921
L464.546 125.193
L464.801 138.399
L464.929 135.998
L465.184 135.757
L465.567 120.871
L465.567 120.871
L465.695 139.551
L465.95 120.631
L466.078 137.438
L466.333 127.834
L466.46 142.192
L466.716 141.76
L466.843 142
L467.226 129.275
L467.481 141.28
L467.864 142.96
L467.992 144.881
L468.247 141.76
L468.63 144.401
L468.757 143.921
L469.013 141.76
L469.396 129.035
L469.523 133.837
L469.778 137.678
L469.906 136.478
L470.161 137.63
L470.289 135.181
L470.544 125.433
L470.672 125.433
L470.927 131.916
L471.693 112.708
L472.075 125.193
L472.203 121.592
L472.458 125.913
L472.586 117.03
L472.841 124.713
L472.969 116.31
L473.224 142.96
L473.607 117.03
L473.99 127.594
L474.118 143.2
L474.373 134.077
L474.5 146.034
L474.883 124.953
L475.138 153.237
L475.266 150.259
L475.521 148.963
L475.649 139.119
L475.904 149.203
L476.032 138.399
L476.287 137.918
L476.414 130.427
L476.67 136.718
L477.18 120.871
L477.435 152.804
L477.563 138.158
L477.818 156.55
L477.946 138.399
L478.201 138.879
L478.329 130.475
L478.584 136.478
L478.711 134.077
L478.967 124.473
L479.094 114.629
L479.35 124.473
L479.477 123.272
L479.732 127.834
L479.86 125.193
L480.115 151.316
L480.243 129.035
L480.498 125.433
L480.626 127.786
L480.881 137.438
L481.009 131.436
L481.264 129.035
L481.391 137.438
L481.647 120.631
L482.03 137.438
L482.157 127.594
L482.54 139.599
L482.795 135.037
L482.923 129.035
L483.306 149.443
L483.689 133.116
L483.944 143.633
L484.071 142.96
L484.454 124.953
L484.837 142.96
L485.092 138.639
L485.22 138.399
L485.475 141.76
L485.858 142.72
L485.986 136.958
L486.368 130.956
L486.624 130.715
L486.751 125.433
L487.007 130.956
L487.134 143.681
L487.389 146.562
L487.772 145.121
L487.9 145.361
L488.155 141.52
L488.283 135.517
L488.538 134.317
L488.921 125.913
L489.048 121.112
L489.304 127.114
L489.431 133.116
L489.686 114.629
L489.814 114.629
L490.069 123.032
L490.197 134.989
L490.452 143.441
L490.58 143.441
L490.835 133.02
L491.345 144.161
L491.601 136.478
L491.728 137.63
L491.984 125.673
L492.111 132.876
L492.494 129.035
L492.877 138.399
L493.132 146.034
L493.26 142.24
L493.515 142.96
L493.898 123.08
L494.026 142.24
L494.281 144.881
L494.408 144.881
L494.663 145.938
L494.791 132.396
L495.046 131.196
L495.174 132.396
L495.429 137.198
L495.557 144.929
L495.684 142.96
L495.94 131.196
L496.195 134.797
L496.322 142
L496.578 143.681
L496.705 139.119
L496.961 144.593
L497.726 120.391
L497.854 141.52
L498.109 144.641
L498.237 141.76
L498.492 120.151
L498.62 140.559
L498.875 142.72
L499.002 144.929
L499.258 119.431
L499.258 119.431
L499.385 138.158
L499.64 126.634
L499.768 138.158
L500.023 146.178
L500.151 127.834
L500.406 115.829
L500.534 133.356
L500.789 115.829
L500.917 121.112
L501.172 142
L501.299 142.96
L501.555 134.797
L501.682 135.037
L501.938 116.934
L502.065 138.158
L502.32 141.76
L502.448 129.755
L502.703 129.755
L502.831 127.354
L503.086 129.515
L503.214 143.921
L503.469 138.399
L503.597 127.594
L503.852 119.143
L503.979 142
L504.362 126.394
L504.617 126.346
L504.745 138.399
L504.873 135.95
L505.383 132.156
L505.511 128.555
L505.766 115.829
L505.894 129.755
L506.149 127.354
L506.277 124.953
L506.532 130.956
L506.915 127.354
L507.042 120.151
L507.425 117.03
L507.68 113.38
L507.808 123.753
L508.063 120.151
L508.191 115.349
L508.446 124.953
L508.574 120.151
L508.829 132.108
L509.212 135.998
L509.339 132.396
L509.595 139.359
L509.722 139.599
L509.977 140.8
L510.36 125.193
L510.488 133.597
L510.743 135.757
L510.871 131.196
L511.126 142.24
L511.509 119.191
L511.636 119.191
L511.892 123.993
L512.019 123.993
L512.274 121.352
L512.402 117.75
L512.657 143.441
L512.785 134.797
L513.04 136.478
L513.168 127.834
L513.423 136.478
L513.551 134.077
L513.806 124.473
L513.933 125.673
L514.189 132.876
L514.317 130.235
L514.572 119.191
L514.699 105.025
L514.954 117.99
L515.082 117.99
L515.465 143.2
L515.72 148.483
L515.848 144.641
L516.231 108.626
L516.486 140.8
L516.613 118.23
L516.869 117.03
L516.996 130.475
L517.251 126.634
L517.379 126.586
L517.634 128.555
L517.762 124.953
L518.017 113.428
L518.145 71.8916
L518.4 126.154
L518.4 126.154" style="fill:none;stroke:#ff0000;stroke-linecap:square;"/>
   </g>
   <g id="line2d_2">
    <path clip-path="url(#pcb2bf987bf)" d="
M72 335.134
L72.1276 333.742
L72.7657 333.742
L72.8933 333.261
L73.5314 333.261
L73.659 333.117
L74.2971 333.117
L74.4247 332.781
L75.0628 332.781
L75.1904 333.742
L75.8285 333.742
L75.9561 333.886
L76.5942 333.886
L76.7218 332.973
L77.3599 332.973
L77.8703 333.117
L78.1256 333.117
L78.1256 333.117
L78.2532 332.589
L78.8915 332.589
L79.0189 333.309
L79.6569 333.309
L79.7846 333.646
L80.4226 333.646
L80.5503 333.309
L81.9542 333.357
L82.0816 332.973
L83.4854 332.877
L83.613 333.742
L84.2511 333.742
L84.3787 334.366
L85.017 334.366
L85.1444 334.078
L85.7825 334.078
L85.9101 333.453
L87.3139 333.357
L87.4415 334.51
L88.0796 334.51
L88.2072 334.654
L89.611 334.75
L89.7386 334.222
L90.3767 334.222
L91.9081 333.694
L93.3118 334.222
L94.2051 333.838
L94.9708 334.222
L95.7365 334.414
L96.3746 334.894
L97.1403 335.23
L98.0336 334.798
L98.6717 333.069
L98.7993 333.069
L99.4374 333.646
L100.331 333.646
L100.969 333.838
L101.862 334.366
L102.5 333.694
L103.393 333.79
L104.032 334.078
L104.797 334.078
L105.563 334.27
L106.329 333.357
L107.095 334.318
L107.988 334.462
L108.626 334.462
L109.519 333.934
L110.285 332.829
L111.05 332.877
L111.816 333.405
L113.986 334.126
L114.879 334.03
L116.41 333.117
L117.048 333.117
L117.942 333.694
L118.707 333.213
L119.345 333.117
L120.111 333.117
L121.004 333.934
L121.643 333.838
L122.536 333.165
L123.174 332.925
L124.067 333.405
L124.705 332.637
L125.471 333.742
L126.237 333.357
L126.237 333.357
L126.365 333.357
L127.13 332.925
L127.13 332.925
L127.768 332.877
L128.661 333.021
L129.299 334.03
L130.831 333.886
L131.597 334.27
L132.362 333.405
L134.149 333.982
L134.659 333.982
L135.425 334.174
L136.318 333.838
L136.956 334.222
L137.722 333.261
L138.488 333.165
L140.019 332.493
L140.785 332.733
L141.678 332.637
L142.316 333.213
L143.082 333.357
L143.975 333.021
L144.613 333.261
L145.507 333.117
L146.272 332.061
L147.038 332.541
L147.676 332.925
L148.442 332.925
L149.335 332.253
L149.973 332.685
L150.867 332.973
L151.505 332.589
L152.27 333.405
L153.164 333.405
L153.802 332.205
L154.567 333.453
L156.099 332.301
L156.865 331.677
L157.758 331.677
L158.396 332.589
L159.162 333.165
L159.927 333.309
L160.821 334.174
L162.224 333.453
L163.118 334.126
L163.756 335.422
L163.883 335.422
L164.521 334.27
L164.649 334.27
L166.053 334.51
L166.819 333.982
L169.243 334.75
L169.881 335.23
L170.775 335.422
L171.413 334.894
L172.178 335.134
L173.072 334.654
L173.71 335.182
L174.603 335.182
L176.007 334.366
L178.304 333.742
L179.963 334.462
L180.729 334.414
L181.367 333.982
L182.26 334.126
L182.898 334.078
L183.791 333.79
L184.43 334.174
L185.195 333.646
L185.961 333.934
L186.727 333.79
L187.492 333.453
L188.258 334.558
L189.151 334.126
L190.555 334.798
L192.852 334.174
L193.618 334.414
L194.384 334.126
L195.277 333.261
L195.915 333.357
L196.681 333.694
L198.212 333.598
L198.212 333.598
L198.978 333.213
L200.509 334.654
L201.275 333.502
L202.04 333.598
L203.699 332.877
L204.338 332.301
L205.231 333.117
L205.997 333.502
L206.124 334.222
L207.4 334.126
L207.911 333.453
L208.166 333.453
L208.804 334.846
L209.059 334.846
L209.059 334.846
L209.442 333.79
L209.825 333.79
L210.591 334.75
L210.846 334.654
L211.356 334.654
L211.484 333.405
L212.888 333.357
L213.398 333.838
L213.654 333.838
L213.654 333.838
L213.781 334.654
L215.185 334.606
L215.185 334.606
L215.313 334.846
L215.951 334.846
L215.951 334.846
L216.078 334.462
L217.482 334.462
L217.482 334.462
L217.61 334.174
L219.013 334.222
L219.141 333.117
L219.779 333.117
L219.907 333.934
L220.545 333.934
L220.672 334.174
L220.672 334.174
L221.31 334.174
L221.438 332.781
L222.076 332.781
L222.204 333.598
L222.842 333.598
L222.842 333.598
L223.352 333.838
L223.608 333.838
L223.735 334.174
L224.373 334.174
L224.501 333.646
L225.905 333.646
L225.905 333.646
L226.032 332.829
L226.032 332.829
L226.67 332.829
L226.798 333.357
L227.436 333.357
L227.436 333.357
L227.819 334.078
L228.202 334.078
L228.329 333.79
L228.967 333.79
L229.095 332.925
L229.733 332.925
L229.861 333.502
L230.499 333.502
L230.499 333.502
L231.009 333.165
L232.03 333.117
L232.158 332.205
L233.562 332.109
L233.689 332.541
L234.327 332.541
L234.327 332.541
L234.455 332.733
L235.093 332.733
L235.093 332.733
L235.221 334.606
L236.624 334.558
L236.752 334.75
L237.39 334.75
L237.518 334.414
L239.687 334.414
L239.815 333.79
L240.453 333.79
L240.453 333.79
L240.58 333.405
L241.219 333.405
L241.346 333.165
L241.984 333.165
L242.112 334.462
L242.75 334.462
L242.878 334.606
L243.516 334.606
L243.643 333.694
L244.281 333.694
L244.409 333.117
L245.047 333.117
L245.047 333.117
L245.175 333.694
L246.578 333.694
L246.578 333.694
L246.706 333.838
L247.344 333.838
L247.855 333.357
L248.237 333.838
L248.876 333.838
L248.876 333.838
L249.003 333.646
L249.641 333.646
L249.641 333.646
L249.769 333.838
L250.407 333.838
L250.534 333.646
L251.938 333.598
L252.066 334.126
L252.704 334.126
L252.832 333.838
L253.47 333.838
L253.597 334.942
L255.767 334.894
L255.767 334.894
L255.894 334.798
L257.298 334.702
L257.426 335.086
L258.83 335.134
L258.957 334.366
L259.595 334.366
L259.595 334.366
L259.723 334.558
L260.361 334.558
L260.489 333.598
L261.127 333.598
L261.254 334.894
L261.892 334.894
L262.02 334.462
L262.658 334.462
L262.786 333.838
L263.424 333.838
L263.424 333.838
L263.551 333.982
L264.189 333.982
L264.189 333.982
L264.317 334.126
L264.955 334.126
L264.955 334.126
L265.083 334.846
L265.593 334.846
L265.848 334.126
L266.486 334.126
L266.614 334.51
L267.252 334.51
L267.38 333.79
L268.018 333.79
L268.145 334.654
L268.784 334.654
L268.911 334.222
L269.549 334.222
L269.677 334.606
L270.315 334.606
L270.443 334.126
L271.081 334.126
L271.463 333.79
L271.846 333.79
L271.974 334.27
L273.378 334.27
L273.378 334.27
L273.506 333.838
L274.143 333.838
L274.271 333.982
L274.909 333.982
L274.909 333.982
L275.037 334.222
L275.675 334.222
L275.802 334.414
L276.441 334.414
L276.568 333.742
L277.972 333.742
L277.972 333.742
L278.099 334.75
L278.738 334.75
L278.865 334.414
L280.269 334.414
L280.269 334.414
L280.397 334.174
L281.035 334.174
L281.035 334.174
L281.162 334.414
L282.566 334.414
L282.694 334.27
L283.332 334.27
L283.459 334.414
L284.097 334.414
L284.225 336.239
L284.736 336.239
L285.374 335.806
L285.629 335.806
L285.756 335.182
L286.395 335.182
L286.522 335.422
L287.926 335.326
L288.054 334.846
L288.692 334.846
L288.819 334.99
L289.457 334.99
L289.585 334.846
L290.223 334.846
L290.351 335.086
L290.989 335.086
L291.116 334.942
L292.52 334.99
L292.52 334.99
L292.648 335.422
L293.286 335.422
L293.286 335.422
L293.413 334.51
L294.051 334.51
L294.051 334.51
L294.179 334.846
L294.817 334.846
L294.817 334.846
L294.945 334.462
L296.349 334.462
L296.476 334.75
L297.114 334.75
L297.242 334.894
L299.411 334.942
L299.539 334.702
L300.177 334.702
L300.177 334.702
L300.305 334.366
L300.943 334.366
L301.07 334.222
L301.708 334.222
L301.836 334.51
L302.474 334.51
L302.474 334.51
L302.857 333.502
L303.112 333.502
L303.368 333.357
L304.005 333.357
L304.005 333.357
L304.133 333.742
L304.771 333.742
L304.899 334.174
L307.834 334.078
L307.962 334.318
L308.6 334.318
L308.6 334.318
L308.727 334.75
L309.365 334.75
L309.493 334.03
L310.131 334.03
L310.131 334.03
L310.259 334.174
L310.897 334.174
L311.024 333.934
L311.662 333.934
L311.79 334.318
L312.428 334.318
L312.556 333.838
L313.194 333.838
L313.321 334.03
L313.96 334.03
L314.087 333.694
L314.725 333.694
L314.853 333.934
L315.491 333.934
L315.619 333.357
L316.257 333.357
L316.384 332.589
L317.022 332.589
L317.15 333.261
L317.788 333.261
L317.916 333.069
L319.319 333.021
L319.319 333.021
L319.447 332.589
L320.085 332.589
L320.213 333.213
L320.851 333.213
L320.851 333.213
L321.234 332.493
L321.616 332.493
L322.127 332.829
L322.893 332.493
L323.148 332.493
L323.275 332.637
L324.679 332.637
L324.807 332.973
L326.211 332.973
L326.338 332.589
L326.976 332.589
L327.104 332.925
L327.742 332.925
L327.87 333.502
L331.57 333.405
L331.698 333.838
L332.336 333.838
L332.464 333.117
L333.102 333.117
L333.23 333.405
L333.868 333.405
L333.995 333.165
L334.633 333.165
L334.761 333.694
L335.399 333.694
L335.527 333.069
L336.165 333.069
L336.292 334.222
L336.93 334.222
L337.058 334.558
L337.696 334.558
L337.824 333.982
L338.462 333.982
L338.589 334.75
L340.759 334.654
L340.886 333.886
L341.525 333.886
L341.652 333.165
L342.29 333.165
L342.418 333.646
L343.822 333.742
L343.822 333.742
L343.949 334.27
L344.588 334.27
L344.715 334.942
L345.353 334.942
L345.353 334.942
L345.481 334.414
L346.884 334.414
L346.884 334.414
L347.012 335.374
L347.65 335.374
L347.778 335.182
L348.416 335.182
L348.543 334.654
L349.181 334.654
L349.309 335.278
L349.947 335.278
L350.075 334.846
L350.713 334.846
L350.84 335.086
L353.01 335.086
L353.138 334.75
L353.776 334.75
L353.776 334.75
L354.286 334.51
L354.541 334.51
L354.669 334.702
L355.307 334.702
L355.307 334.702
L355.435 334.51
L356.073 334.51
L356.073 334.51
L356.2 333.309
L358.37 333.309
L358.37 333.309
L358.497 332.973
L359.136 332.973
L359.263 333.357
L359.901 333.357
L360.029 332.973
L360.667 332.973
L360.795 333.213
L361.433 333.213
L361.56 333.502
L362.198 333.502
L362.326 333.021
L362.964 333.021
L363.092 333.79
L363.73 333.79
L363.857 334.078
L364.495 334.078
L364.623 334.27
L366.027 334.174
L366.027 334.174
L366.155 334.702
L366.792 334.702
L366.92 334.414
L369.09 334.414
L369.6 333.886
L369.855 333.886
L369.983 334.03
L370.621 334.03
L370.749 334.222
L371.387 334.222
L371.514 334.606
L372.152 334.606
L372.28 334.174
L372.918 334.174
L373.046 333.982
L373.684 333.982
L373.684 333.982
L373.811 333.838
L375.215 333.838
L375.343 334.414
L375.981 334.414
L376.108 334.03
L376.746 334.03
L376.874 334.27
L377.512 334.27
L377.512 334.27
L377.64 333.838
L378.278 333.838
L378.405 333.598
L379.044 333.598
L379.171 334.606
L380.575 334.558
L380.703 334.75
L381.341 334.75
L381.468 334.462
L382.107 334.462
L382.234 334.942
L382.872 334.942
L383 334.75
L383.638 334.75
L384.148 334.126
L384.403 334.126
L384.531 333.117
L385.935 333.117
L386.062 333.934
L386.701 333.934
L386.828 334.894
L387.466 334.894
L387.594 334.414
L388.232 334.414
L388.232 334.414
L388.36 344.93
L388.998 344.93
L389.125 334.99
L389.763 334.99
L389.891 334.462
L390.529 334.462
L390.657 334.318
L391.295 334.318
L391.422 334.078
L392.06 334.078
L392.188 334.654
L392.826 334.654
L392.954 334.126
L393.592 334.126
L393.719 334.51
L395.123 334.558
L395.251 333.934
L395.889 333.934
L396.016 333.694
L397.42 333.694
L397.548 333.502
L398.186 333.502
L398.314 333.79
L398.952 333.79
L399.079 334.174
L399.717 334.174
L399.845 334.414
L401.249 334.414
L401.376 334.846
L402.014 334.846
L402.142 335.182
L402.78 335.182
L402.908 334.51
L405.077 334.462
L405.205 334.654
L405.843 334.654
L405.97 334.27
L406.609 334.27
L406.736 333.934
L407.374 333.934
L407.502 334.126
L408.14 334.126
L408.268 334.27
L410.437 334.27
L410.565 333.934
L412.607 334.03
L412.989 333.357
L413.5 333.357
L413.627 333.742
L414.266 333.742
L414.393 333.165
L415.031 333.165
L415.159 333.886
L415.797 333.886
L415.925 333.357
L416.563 333.357
L416.69 333.165
L418.094 333.165
L418.222 333.646
L418.86 333.646
L418.987 334.126
L420.391 334.222
L420.519 334.366
L421.157 334.366
L421.284 334.654
L421.922 334.654
L422.05 334.126
L422.688 334.126
L422.816 334.318
L423.454 334.318
L423.581 334.942
L424.22 334.942
L424.347 334.366
L424.985 334.366
L425.113 334.75
L425.751 334.75
L425.879 334.606
L427.282 334.654
L427.41 334.174
L428.048 334.174
L428.176 333.886
L428.814 333.886
L428.941 334.558
L429.579 334.558
L429.707 334.414
L430.345 334.414
L430.473 334.942
L430.983 334.942
L431.238 334.75
L432.642 334.75
L432.642 334.75
L432.77 334.174
L434.174 334.27
L434.301 334.558
L434.939 334.558
L435.067 334.27
L435.705 334.27
L435.833 334.798
L436.471 334.798
L436.598 333.982
L437.236 333.982
L437.364 334.654
L438.768 334.654
L438.895 334.894
L439.533 334.894
L439.661 334.702
L441.065 334.654
L441.192 335.518
L441.831 335.518
L441.831 335.518
L441.958 334.558
L442.596 334.558
L442.724 335.326
L444.128 335.278
L444.255 334.942
L444.893 334.942
L445.021 334.366
L445.659 334.366
L446.169 334.798
L446.425 334.798
L446.552 334.51
L447.19 334.51
L447.318 335.278
L447.956 335.278
L448.084 335.566
L448.722 335.566
L448.849 335.326
L449.487 335.326
L449.487 335.326
L449.615 335.086
L450.126 335.086
L450.381 335.47
L451.019 335.47
L451.146 335.662
L451.785 335.662
L451.912 335.23
L452.55 335.23
L452.678 335.71
L453.316 335.71
L453.444 335.278
L454.082 335.278
L454.209 335.758
L454.847 335.758
L454.847 335.758
L454.975 335.23
L455.613 335.23
L455.741 334.702
L457.144 334.654
L457.272 334.51
L457.91 334.51
L458.038 334.75
L458.676 334.75
L458.803 334.99
L459.442 334.99
L459.569 335.134
L460.207 335.134
L460.335 335.278
L461.739 335.374
L461.866 335.518
L462.504 335.518
L462.632 334.75
L464.801 334.798
L464.929 334.51
L465.567 334.51
L465.567 334.51
L465.695 334.03
L467.098 333.982
L467.098 333.982
L467.226 334.318
L467.864 334.318
L467.992 334.702
L469.396 334.75
L469.523 334.318
L470.161 334.318
L470.289 334.51
L471.693 334.414
L471.82 333.934
L473.224 333.934
L473.352 334.51
L473.99 334.51
L474.118 335.182
L474.755 335.182
L474.883 334.798
L475.521 334.798
L475.649 335.182
L476.287 335.182
L476.414 334.798
L477.052 334.798
L477.18 334.462
L477.818 334.462
L477.946 335.95
L478.584 335.95
L478.711 335.758
L480.115 335.71
L480.243 335.614
L480.881 335.614
L481.009 335.038
L481.647 335.038
L481.774 334.798
L482.412 334.798
L482.54 335.182
L483.178 335.182
L483.306 335.326
L483.944 335.326
L484.071 334.942
L484.709 334.942
L484.837 334.654
L485.475 334.654
L485.986 334.318
L487.007 334.414
L487.134 334.894
L488.538 334.798
L488.666 334.222
L489.304 334.222
L489.431 334.03
L490.069 334.03
L490.197 333.646
L490.835 333.646
L490.963 334.078
L491.601 334.078
L491.728 334.318
L492.366 334.318
L492.494 334.654
L493.132 334.654
L493.26 335.086
L493.898 335.086
L494.026 334.222
L494.663 334.222
L494.791 334.894
L495.429 334.894
L495.557 334.558
L496.961 334.51
L497.088 335.038
L498.492 335.038
L498.62 334.318
L499.258 334.318
L499.258 334.318
L499.385 334.846
L500.023 334.846
L500.151 335.614
L500.789 335.614
L500.917 334.606
L501.555 334.606
L501.682 334.798
L502.32 334.798
L502.448 335.182
L503.086 335.182
L503.214 334.894
L503.852 334.894
L503.979 333.982
L504.617 333.982
L504.745 334.654
L505.383 334.654
L505.511 334.318
L506.915 334.414
L507.042 334.558
L507.68 334.558
L507.808 334.27
L509.212 334.318
L509.339 334.51
L509.977 334.51
L510.488 334.702
L510.743 334.702
L510.871 334.942
L511.509 334.942
L511.636 334.414
L512.274 334.414
L512.402 334.606
L513.04 334.606
L513.168 334.75
L513.806 334.75
L513.933 334.174
L515.337 334.174
L515.465 335.086
L516.103 335.086
L516.231 335.566
L516.869 335.566
L516.996 335.038
L517.634 335.038
L517.762 334.846
L518.4 334.846
L518.4 334.846" style="fill:none;stroke:#008000;stroke-linecap:square;"/>
   </g>
   <g id="patch_3">
    <path d="
M72 43.2
L518.4 43.2" style="fill:none;stroke:#000000;stroke-linecap:square;stroke-linejoin:miter;"/>
   </g>
   <g id="patch_4">
    <path d="
M518.4 345.6
L518.4 43.2" style="fill:none;stroke:#000000;stroke-linecap:square;stroke-linejoin:miter;"/>
   </g>
   <g id="patch_5">
    <path d="
M72 345.6
L518.4 345.6" style="fill:none;stroke:#000000;stroke-linecap:square;stroke-linejoin:miter;"/>
   </g>
   <g id="patch_6">
    <path d="
M72 345.6
L72 43.2" style="fill:none;stroke:#000000;stroke-linecap:square;stroke-linejoin:miter;"/>
   </g>
   <g id="matplotlib.axis_1">
    <g id="xtick_1">
     <g id="line2d_3">
      <defs>
       <path d="
M0 0
L0 -4" id="m93b0483c22" style="stroke:#000000;stroke-width:0.5;"/>
      </defs>
      <g>
       <use style="stroke:#000000;stroke-width:0.5;" x="117.941468267" xlink:href="#m93b0483c22" y="345.6"/>
      </g>
     </g>
     <g id="line2d_4">
      <defs>
       <path d="
M0 0
L0 4" id="m741efc42ff" style="stroke:#000000;stroke-width:0.5;"/>
      </defs>
      <g>
       <use style="stroke:#000000;stroke-width:0.5;" x="117.941468267" xlink:href="#m741efc42ff" y="43.2"/>
      </g>
     </g>
     <g id="text_1">
      <!-- Oct 13 2015 -->
      <defs>
       <path d="
M19.1875 8.29688
L53.6094 8.29688
L53.6094 0
L7.32812 0
L7.32812 8.29688
Q12.9375 14.1094 22.625 23.8906
Q32.3281 33.6875 34.8125 36.5312
Q39.5469 41.8438 41.4219 45.5312
Q43.3125 49.2188 43.3125 52.7812
Q43.3125 58.5938 39.2344 62.25
Q35.1562 65.9219 28.6094 65.9219
Q23.9688 65.9219 18.8125 64.3125
Q13.6719 62.7031 7.8125 59.4219
L7.8125 69.3906
Q13.7656 71.7812 18.9375 73
Q24.125 74.2188 28.4219 74.2188
Q39.75 74.2188 46.4844 68.5469
Q53.2188 62.8906 53.2188 53.4219
Q53.2188 48.9219 51.5312 44.8906
Q49.8594 40.875 45.4062 35.4062
Q44.1875 33.9844 37.6406 27.2188
Q31.1094 20.4531 19.1875 8.29688" id="BitstreamVeraSans-Roman-32"/>
       <path d="
M39.4062 66.2188
Q28.6562 66.2188 22.3281 58.2031
Q16.0156 50.2031 16.0156 36.375
Q16.0156 22.6094 22.3281 14.5938
Q28.6562 6.59375 39.4062 6.59375
Q50.1406 6.59375 56.4219 14.5938
Q62.7031 22.6094 62.7031 36.375
Q62.7031 50.2031 56.4219 58.2031
Q50.1406 66.2188 39.4062 66.2188
M39.4062 74.2188
Q54.7344 74.2188 63.9062 63.9375
Q73.0938 53.6562 73.0938 36.375
Q73.0938 19.1406 63.9062 8.85938
Q54.7344 -1.42188 39.4062 -1.42188
Q24.0312 -1.42188 14.8125 8.82812
Q5.60938 19.0938 5.60938 36.375
Q5.60938 53.6562 14.8125 63.9375
Q24.0312 74.2188 39.4062 74.2188" id="BitstreamVeraSans-Roman-4f"/>
       <path d="
M31.7812 66.4062
Q24.1719 66.4062 20.3281 58.9062
Q16.5 51.4219 16.5 36.375
Q16.5 21.3906 20.3281 13.8906
Q24.1719 6.39062 31.7812 6.39062
Q39.4531 6.39062 43.2812 13.8906
Q47.125 21.3906 47.125 36.375
Q47.125 51.4219 43.2812 58.9062
Q39.4531 66.4062 31.7812 66.4062
M31.7812 74.2188
Q44.0469 74.2188 50.5156 64.5156
Q56.9844 54.8281 56.9844 36.375
Q56.9844 17.9688 50.5156 8.26562
Q44.0469 -1.42188 31.7812 -1.42188
Q19.5312 -1.42188 13.0625 8.26562
Q6.59375 17.9688 6.59375 36.375
Q6.59375 54.8281 13.0625 64.5156
Q19.5312 74.2188 31.7812 74.2188" id="BitstreamVeraSans-Roman-30"/>
       <path d="
M12.4062 8.29688
L28.5156 8.29688
L28.5156 63.9219
L10.9844 60.4062
L10.9844 69.3906
L28.4219 72.9062
L38.2812 72.9062
L38.2812 8.29688
L54.3906 8.29688
L54.3906 0
L12.4062 0
z
" id="BitstreamVeraSans-Roman-31"/>
       <path d="
M40.5781 39.3125
Q47.6562 37.7969 51.625 33
Q55.6094 28.2188 55.6094 21.1875
Q55.6094 10.4062 48.1875 4.48438
Q40.7656 -1.42188 27.0938 -1.42188
Q22.5156 -1.42188 17.6562 -0.515625
Q12.7969 0.390625 7.625 2.20312
L7.625 11.7188
Q11.7188 9.32812 16.5938 8.10938
Q21.4844 6.89062 26.8125 6.89062
Q36.0781 6.89062 40.9375 10.5469
Q45.7969 14.2031 45.7969 21.1875
Q45.7969 27.6406 41.2812 31.2656
Q36.7656 34.9062 28.7188 34.9062
L20.2188 34.9062
L20.2188 43.0156
L29.1094 43.0156
Q36.375 43.0156 40.2344 45.9219
Q44.0938 48.8281 44.0938 54.2969
Q44.0938 59.9062 40.1094 62.9062
Q36.1406 65.9219 28.7188 65.9219
Q24.6562 65.9219 20.0156 65.0312
Q15.375 64.1562 9.8125 62.3125
L9.8125 71.0938
Q15.4375 72.6562 20.3438 73.4375
Q25.25 74.2188 29.5938 74.2188
Q40.8281 74.2188 47.3594 69.1094
Q53.9062 64.0156 53.9062 55.3281
Q53.9062 49.2656 50.4375 45.0938
Q46.9688 40.9219 40.5781 39.3125" id="BitstreamVeraSans-Roman-33"/>
       <path id="BitstreamVeraSans-Roman-20"/>
       <path d="
M10.7969 72.9062
L49.5156 72.9062
L49.5156 64.5938
L19.8281 64.5938
L19.8281 46.7344
Q21.9688 47.4688 24.1094 47.8281
Q26.2656 48.1875 28.4219 48.1875
Q40.625 48.1875 47.75 41.5
Q54.8906 34.8125 54.8906 23.3906
Q54.8906 11.625 47.5625 5.09375
Q40.2344 -1.42188 26.9062 -1.42188
Q22.3125 -1.42188 17.5469 -0.640625
Q12.7969 0.140625 7.71875 1.70312
L7.71875 11.625
Q12.1094 9.23438 16.7969 8.0625
Q21.4844 6.89062 26.7031 6.89062
Q35.1562 6.89062 40.0781 11.3281
Q45.0156 15.7656 45.0156 23.3906
Q45.0156 31 40.0781 35.4375
Q35.1562 39.8906 26.7031 39.8906
Q22.75 39.8906 18.8125 39.0156
Q14.8906 38.1406 10.7969 36.2812
z
" id="BitstreamVeraSans-Roman-35"/>
       <path d="
M18.3125 70.2188
L18.3125 54.6875
L36.8125 54.6875
L36.8125 47.7031
L18.3125 47.7031
L18.3125 18.0156
Q18.3125 11.3281 20.1406 9.42188
Q21.9688 7.51562 27.5938 7.51562
L36.8125 7.51562
L36.8125 0
L27.5938 0
Q17.1875 0 13.2344 3.875
Q9.28125 7.76562 9.28125 18.0156
L9.28125 47.7031
L2.6875 47.7031
L2.6875 54.6875
L9.28125 54.6875
L9.28125 70.2188
z
" id="BitstreamVeraSans-Roman-74"/>
       <path d="
M48.7812 52.5938
L48.7812 44.1875
Q44.9688 46.2969 41.1406 47.3438
Q37.3125 48.3906 33.4062 48.3906
Q24.6562 48.3906 19.8125 42.8438
Q14.9844 37.3125 14.9844 27.2969
Q14.9844 17.2812 19.8125 11.7344
Q24.6562 6.20312 33.4062 6.20312
Q37.3125 6.20312 41.1406 7.25
Q44.9688 8.29688 48.7812 10.4062
L48.7812 2.09375
Q45.0156 0.34375 40.9844 -0.53125
Q36.9688 -1.42188 32.4219 -1.42188
Q20.0625 -1.42188 12.7812 6.34375
Q5.51562 14.1094 5.51562 27.2969
Q5.51562 40.6719 12.8594 48.3281
Q20.2188 56 33.0156 56
Q37.1562 56 41.1094 55.1406
Q45.0625 54.2969 48.7812 52.5938" id="BitstreamVeraSans-Roman-63"/>
      </defs>
      <g transform="translate(53.3541815316 394.065590385)rotate(-30.0)scale(0.12 -0.12)">
       <use xlink:href="#BitstreamVeraSans-Roman-4f"/>
       <use x="78.7109375" xlink:href="#BitstreamVeraSans-Roman-63"/>
       <use x="133.69140625" xlink:href="#BitstreamVeraSans-Roman-74"/>
       <use x="172.900390625" xlink:href="#BitstreamVeraSans-Roman-20"/>
       <use x="204.6875" xlink:href="#BitstreamVeraSans-Roman-31"/>
       <use x="268.310546875" xlink:href="#BitstreamVeraSans-Roman-33"/>
       <use x="331.93359375" xlink:href="#BitstreamVeraSans-Roman-20"/>
       <use x="363.720703125" xlink:href="#BitstreamVeraSans-Roman-32"/>
       <use x="427.34375" xlink:href="#BitstreamVeraSans-Roman-30"/>
       <use x="490.966796875" xlink:href="#BitstreamVeraSans-Roman-31"/>
       <use x="554.58984375" xlink:href="#BitstreamVeraSans-Roman-35"/>
      </g>
     </g>
    </g>
    <g id="xtick_2">
     <g id="line2d_5">
      <g>
       <use style="stroke:#000000;stroke-width:0.5;" x="173.071485419" xlink:href="#m93b0483c22" y="345.6"/>
      </g>
     </g>
     <g id="line2d_6">
      <g>
       <use style="stroke:#000000;stroke-width:0.5;" x="173.071485419" xlink:href="#m741efc42ff" y="43.2"/>
      </g>
     </g>
     <g id="text_2">
      <!-- Oct 16 2015 -->
      <defs>
       <path d="
M33.0156 40.375
Q26.375 40.375 22.4844 35.8281
Q18.6094 31.2969 18.6094 23.3906
Q18.6094 15.5312 22.4844 10.9531
Q26.375 6.39062 33.0156 6.39062
Q39.6562 6.39062 43.5312 10.9531
Q47.4062 15.5312 47.4062 23.3906
Q47.4062 31.2969 43.5312 35.8281
Q39.6562 40.375 33.0156 40.375
M52.5938 71.2969
L52.5938 62.3125
Q48.875 64.0625 45.0938 64.9844
Q41.3125 65.9219 37.5938 65.9219
Q27.8281 65.9219 22.6719 59.3281
Q17.5312 52.7344 16.7969 39.4062
Q19.6719 43.6562 24.0156 45.9219
Q28.375 48.1875 33.5938 48.1875
Q44.5781 48.1875 50.9531 41.5156
Q57.3281 34.8594 57.3281 23.3906
Q57.3281 12.1562 50.6875 5.35938
Q44.0469 -1.42188 33.0156 -1.42188
Q20.3594 -1.42188 13.6719 8.26562
Q6.98438 17.9688 6.98438 36.375
Q6.98438 53.6562 15.1875 63.9375
Q23.3906 74.2188 37.2031 74.2188
Q40.9219 74.2188 44.7031 73.4844
Q48.4844 72.75 52.5938 71.2969" id="BitstreamVeraSans-Roman-36"/>
      </defs>
      <g transform="translate(108.484198684 394.065590385)rotate(-30.0)scale(0.12 -0.12)">
       <use xlink:href="#BitstreamVeraSans-Roman-4f"/>
       <use x="78.7109375" xlink:href="#BitstreamVeraSans-Roman-63"/>
       <use x="133.69140625" xlink:href="#BitstreamVeraSans-Roman-74"/>
       <use x="172.900390625" xlink:href="#BitstreamVeraSans-Roman-20"/>
       <use x="204.6875" xlink:href="#BitstreamVeraSans-Roman-31"/>
       <use x="268.310546875" xlink:href="#BitstreamVeraSans-Roman-36"/>
       <use x="331.93359375" xlink:href="#BitstreamVeraSans-Roman-20"/>
       <use x="363.720703125" xlink:href="#BitstreamVeraSans-Roman-32"/>
       <use x="427.34375" xlink:href="#BitstreamVeraSans-Roman-30"/>
       <use x="490.966796875" xlink:href="#BitstreamVeraSans-Roman-31"/>
       <use x="554.58984375" xlink:href="#BitstreamVeraSans-Roman-35"/>
      </g>
     </g>
    </g>
    <g id="xtick_3">
     <g id="line2d_7">
      <g>
       <use style="stroke:#000000;stroke-width:0.5;" x="228.201502573" xlink:href="#m93b0483c22" y="345.6"/>
      </g>
     </g>
     <g id="line2d_8">
      <g>
       <use style="stroke:#000000;stroke-width:0.5;" x="228.201502573" xlink:href="#m741efc42ff" y="43.2"/>
      </g>
     </g>
     <g id="text_3">
      <!-- Oct 19 2015 -->
      <defs>
       <path d="
M10.9844 1.51562
L10.9844 10.5
Q14.7031 8.73438 18.5 7.8125
Q22.3125 6.89062 25.9844 6.89062
Q35.75 6.89062 40.8906 13.4531
Q46.0469 20.0156 46.7812 33.4062
Q43.9531 29.2031 39.5938 26.9531
Q35.25 24.7031 29.9844 24.7031
Q19.0469 24.7031 12.6719 31.3125
Q6.29688 37.9375 6.29688 49.4219
Q6.29688 60.6406 12.9375 67.4219
Q19.5781 74.2188 30.6094 74.2188
Q43.2656 74.2188 49.9219 64.5156
Q56.5938 54.8281 56.5938 36.375
Q56.5938 19.1406 48.4062 8.85938
Q40.2344 -1.42188 26.4219 -1.42188
Q22.7031 -1.42188 18.8906 -0.6875
Q15.0938 0.046875 10.9844 1.51562
M30.6094 32.4219
Q37.25 32.4219 41.125 36.9531
Q45.0156 41.5 45.0156 49.4219
Q45.0156 57.2812 41.125 61.8438
Q37.25 66.4062 30.6094 66.4062
Q23.9688 66.4062 20.0938 61.8438
Q16.2188 57.2812 16.2188 49.4219
Q16.2188 41.5 20.0938 36.9531
Q23.9688 32.4219 30.6094 32.4219" id="BitstreamVeraSans-Roman-39"/>
      </defs>
      <g transform="translate(163.614215838 394.065590385)rotate(-30.0)scale(0.12 -0.12)">
       <use xlink:href="#BitstreamVeraSans-Roman-4f"/>
       <use x="78.7109375" xlink:href="#BitstreamVeraSans-Roman-63"/>
       <use x="133.69140625" xlink:href="#BitstreamVeraSans-Roman-74"/>
       <use x="172.900390625" xlink:href="#BitstreamVeraSans-Roman-20"/>
       <use x="204.6875" xlink:href="#BitstreamVeraSans-Roman-31"/>
       <use x="268.310546875" xlink:href="#BitstreamVeraSans-Roman-39"/>
       <use x="331.93359375" xlink:href="#BitstreamVeraSans-Roman-20"/>
       <use x="363.720703125" xlink:href="#BitstreamVeraSans-Roman-32"/>
       <use x="427.34375" xlink:href="#BitstreamVeraSans-Roman-30"/>
       <use x="490.966796875" xlink:href="#BitstreamVeraSans-Roman-31"/>
       <use x="554.58984375" xlink:href="#BitstreamVeraSans-Roman-35"/>
      </g>
     </g>
    </g>
    <g id="xtick_4">
     <g id="line2d_9">
      <g>
       <use style="stroke:#000000;stroke-width:0.5;" x="283.331519725" xlink:href="#m93b0483c22" y="345.6"/>
      </g>
     </g>
     <g id="line2d_10">
      <g>
       <use style="stroke:#000000;stroke-width:0.5;" x="283.331519725" xlink:href="#m741efc42ff" y="43.2"/>
      </g>
     </g>
     <g id="text_4">
      <!-- Oct 22 2015 -->
      <g transform="translate(218.74423299 394.065590385)rotate(-30.0)scale(0.12 -0.12)">
       <use xlink:href="#BitstreamVeraSans-Roman-4f"/>
       <use x="78.7109375" xlink:href="#BitstreamVeraSans-Roman-63"/>
       <use x="133.69140625" xlink:href="#BitstreamVeraSans-Roman-74"/>
       <use x="172.900390625" xlink:href="#BitstreamVeraSans-Roman-20"/>
       <use x="204.6875" xlink:href="#BitstreamVeraSans-Roman-32"/>
       <use x="268.310546875" xlink:href="#BitstreamVeraSans-Roman-32"/>
       <use x="331.93359375" xlink:href="#BitstreamVeraSans-Roman-20"/>
       <use x="363.720703125" xlink:href="#BitstreamVeraSans-Roman-32"/>
       <use x="427.34375" xlink:href="#BitstreamVeraSans-Roman-30"/>
       <use x="490.966796875" xlink:href="#BitstreamVeraSans-Roman-31"/>
       <use x="554.58984375" xlink:href="#BitstreamVeraSans-Roman-35"/>
      </g>
     </g>
    </g>
    <g id="xtick_5">
     <g id="line2d_11">
      <g>
       <use style="stroke:#000000;stroke-width:0.5;" x="338.461536877" xlink:href="#m93b0483c22" y="345.6"/>
      </g>
     </g>
     <g id="line2d_12">
      <g>
       <use style="stroke:#000000;stroke-width:0.5;" x="338.461536877" xlink:href="#m741efc42ff" y="43.2"/>
      </g>
     </g>
     <g id="text_5">
      <!-- Oct 25 2015 -->
      <g transform="translate(273.874250142 394.065590385)rotate(-30.0)scale(0.12 -0.12)">
       <use xlink:href="#BitstreamVeraSans-Roman-4f"/>
       <use x="78.7109375" xlink:href="#BitstreamVeraSans-Roman-63"/>
       <use x="133.69140625" xlink:href="#BitstreamVeraSans-Roman-74"/>
       <use x="172.900390625" xlink:href="#BitstreamVeraSans-Roman-20"/>
       <use x="204.6875" xlink:href="#BitstreamVeraSans-Roman-32"/>
       <use x="268.310546875" xlink:href="#BitstreamVeraSans-Roman-35"/>
       <use x="331.93359375" xlink:href="#BitstreamVeraSans-Roman-20"/>
       <use x="363.720703125" xlink:href="#BitstreamVeraSans-Roman-32"/>
       <use x="427.34375" xlink:href="#BitstreamVeraSans-Roman-30"/>
       <use x="490.966796875" xlink:href="#BitstreamVeraSans-Roman-31"/>
       <use x="554.58984375" xlink:href="#BitstreamVeraSans-Roman-35"/>
      </g>
     </g>
    </g>
    <g id="xtick_6">
     <g id="line2d_13">
      <g>
       <use style="stroke:#000000;stroke-width:0.5;" x="393.591554031" xlink:href="#m93b0483c22" y="345.6"/>
      </g>
     </g>
     <g id="line2d_14">
      <g>
       <use style="stroke:#000000;stroke-width:0.5;" x="393.591554031" xlink:href="#m741efc42ff" y="43.2"/>
      </g>
     </g>
     <g id="text_6">
      <!-- Oct 28 2015 -->
      <defs>
       <path d="
M31.7812 34.625
Q24.75 34.625 20.7188 30.8594
Q16.7031 27.0938 16.7031 20.5156
Q16.7031 13.9219 20.7188 10.1562
Q24.75 6.39062 31.7812 6.39062
Q38.8125 6.39062 42.8594 10.1719
Q46.9219 13.9688 46.9219 20.5156
Q46.9219 27.0938 42.8906 30.8594
Q38.875 34.625 31.7812 34.625
M21.9219 38.8125
Q15.5781 40.375 12.0312 44.7188
Q8.5 49.0781 8.5 55.3281
Q8.5 64.0625 14.7188 69.1406
Q20.9531 74.2188 31.7812 74.2188
Q42.6719 74.2188 48.875 69.1406
Q55.0781 64.0625 55.0781 55.3281
Q55.0781 49.0781 51.5312 44.7188
Q48 40.375 41.7031 38.8125
Q48.8281 37.1562 52.7969 32.3125
Q56.7812 27.4844 56.7812 20.5156
Q56.7812 9.90625 50.3125 4.23438
Q43.8438 -1.42188 31.7812 -1.42188
Q19.7344 -1.42188 13.25 4.23438
Q6.78125 9.90625 6.78125 20.5156
Q6.78125 27.4844 10.7812 32.3125
Q14.7969 37.1562 21.9219 38.8125
M18.3125 54.3906
Q18.3125 48.7344 21.8438 45.5625
Q25.3906 42.3906 31.7812 42.3906
Q38.1406 42.3906 41.7188 45.5625
Q45.3125 48.7344 45.3125 54.3906
Q45.3125 60.0625 41.7188 63.2344
Q38.1406 66.4062 31.7812 66.4062
Q25.3906 66.4062 21.8438 63.2344
Q18.3125 60.0625 18.3125 54.3906" id="BitstreamVeraSans-Roman-38"/>
      </defs>
      <g transform="translate(329.004267296 394.065590385)rotate(-30.0)scale(0.12 -0.12)">
       <use xlink:href="#BitstreamVeraSans-Roman-4f"/>
       <use x="78.7109375" xlink:href="#BitstreamVeraSans-Roman-63"/>
       <use x="133.69140625" xlink:href="#BitstreamVeraSans-Roman-74"/>
       <use x="172.900390625" xlink:href="#BitstreamVeraSans-Roman-20"/>
       <use x="204.6875" xlink:href="#BitstreamVeraSans-Roman-32"/>
       <use x="268.310546875" xlink:href="#BitstreamVeraSans-Roman-38"/>
       <use x="331.93359375" xlink:href="#BitstreamVeraSans-Roman-20"/>
       <use x="363.720703125" xlink:href="#BitstreamVeraSans-Roman-32"/>
       <use x="427.34375" xlink:href="#BitstreamVeraSans-Roman-30"/>
       <use x="490.966796875" xlink:href="#BitstreamVeraSans-Roman-31"/>
       <use x="554.58984375" xlink:href="#BitstreamVeraSans-Roman-35"/>
      </g>
     </g>
    </g>
    <g id="xtick_7">
     <g id="line2d_15">
      <g>
       <use style="stroke:#000000;stroke-width:0.5;" x="448.721571183" xlink:href="#m93b0483c22" y="345.6"/>
      </g>
     </g>
     <g id="line2d_16">
      <g>
       <use style="stroke:#000000;stroke-width:0.5;" x="448.721571183" xlink:href="#m741efc42ff" y="43.2"/>
      </g>
     </g>
     <g id="text_7">
      <!-- Oct 31 2015 -->
      <g transform="translate(384.134284448 394.065590385)rotate(-30.0)scale(0.12 -0.12)">
       <use xlink:href="#BitstreamVeraSans-Roman-4f"/>
       <use x="78.7109375" xlink:href="#BitstreamVeraSans-Roman-63"/>
       <use x="133.69140625" xlink:href="#BitstreamVeraSans-Roman-74"/>
       <use x="172.900390625" xlink:href="#BitstreamVeraSans-Roman-20"/>
       <use x="204.6875" xlink:href="#BitstreamVeraSans-Roman-33"/>
       <use x="268.310546875" xlink:href="#BitstreamVeraSans-Roman-31"/>
       <use x="331.93359375" xlink:href="#BitstreamVeraSans-Roman-20"/>
       <use x="363.720703125" xlink:href="#BitstreamVeraSans-Roman-32"/>
       <use x="427.34375" xlink:href="#BitstreamVeraSans-Roman-30"/>
       <use x="490.966796875" xlink:href="#BitstreamVeraSans-Roman-31"/>
       <use x="554.58984375" xlink:href="#BitstreamVeraSans-Roman-35"/>
      </g>
     </g>
    </g>
    <g id="xtick_8">
     <g id="line2d_17">
      <g>
       <use style="stroke:#000000;stroke-width:0.5;" x="503.851588335" xlink:href="#m93b0483c22" y="345.6"/>
      </g>
     </g>
     <g id="line2d_18">
      <g>
       <use style="stroke:#000000;stroke-width:0.5;" x="503.851588335" xlink:href="#m741efc42ff" y="43.2"/>
      </g>
     </g>
     <g id="text_8">
      <!-- Nov 03 2015 -->
      <defs>
       <path d="
M2.98438 54.6875
L12.5 54.6875
L29.5938 8.79688
L46.6875 54.6875
L56.2031 54.6875
L35.6875 0
L23.4844 0
z
" id="BitstreamVeraSans-Roman-76"/>
       <path d="
M9.8125 72.9062
L23.0938 72.9062
L55.4219 11.9219
L55.4219 72.9062
L64.9844 72.9062
L64.9844 0
L51.7031 0
L19.3906 60.9844
L19.3906 0
L9.8125 0
z
" id="BitstreamVeraSans-Roman-4e"/>
       <path d="
M30.6094 48.3906
Q23.3906 48.3906 19.1875 42.75
Q14.9844 37.1094 14.9844 27.2969
Q14.9844 17.4844 19.1562 11.8438
Q23.3438 6.20312 30.6094 6.20312
Q37.7969 6.20312 41.9844 11.8594
Q46.1875 17.5312 46.1875 27.2969
Q46.1875 37.0156 41.9844 42.7031
Q37.7969 48.3906 30.6094 48.3906
M30.6094 56
Q42.3281 56 49.0156 48.375
Q55.7188 40.7656 55.7188 27.2969
Q55.7188 13.875 49.0156 6.21875
Q42.3281 -1.42188 30.6094 -1.42188
Q18.8438 -1.42188 12.1719 6.21875
Q5.51562 13.875 5.51562 27.2969
Q5.51562 40.7656 12.1719 48.375
Q18.8438 56 30.6094 56" id="BitstreamVeraSans-Roman-6f"/>
      </defs>
      <g transform="translate(436.948766176 395.402465385)rotate(-30.0)scale(0.12 -0.12)">
       <use xlink:href="#BitstreamVeraSans-Roman-4e"/>
       <use x="74.8046875" xlink:href="#BitstreamVeraSans-Roman-6f"/>
       <use x="135.986328125" xlink:href="#BitstreamVeraSans-Roman-76"/>
       <use x="195.166015625" xlink:href="#BitstreamVeraSans-Roman-20"/>
       <use x="226.953125" xlink:href="#BitstreamVeraSans-Roman-30"/>
       <use x="290.576171875" xlink:href="#BitstreamVeraSans-Roman-33"/>
       <use x="354.19921875" xlink:href="#BitstreamVeraSans-Roman-20"/>
       <use x="385.986328125" xlink:href="#BitstreamVeraSans-Roman-32"/>
       <use x="449.609375" xlink:href="#BitstreamVeraSans-Roman-30"/>
       <use x="513.232421875" xlink:href="#BitstreamVeraSans-Roman-31"/>
       <use x="576.85546875" xlink:href="#BitstreamVeraSans-Roman-35"/>
      </g>
     </g>
    </g>
   </g>
   <g id="matplotlib.axis_2">
    <g id="ytick_1">
     <g id="line2d_19">
      <defs>
       <path d="
M0 0
L4 0" id="m728421d6d4" style="stroke:#000000;stroke-width:0.5;"/>
      </defs>
      <g>
       <use style="stroke:#000000;stroke-width:0.5;" x="72.0" xlink:href="#m728421d6d4" y="310.308115189"/>
      </g>
     </g>
     <g id="line2d_20">
      <defs>
       <path d="
M0 0
L-4 0" id="mcb0005524f" style="stroke:#000000;stroke-width:0.5;"/>
      </defs>
      <g>
       <use style="stroke:#000000;stroke-width:0.5;" x="518.4" xlink:href="#mcb0005524f" y="310.308115189"/>
      </g>
     </g>
     <g id="text_9">
      <!-- 1000 -->
      <g transform="translate(39.575 313.619365189)scale(0.12 -0.12)">
       <use xlink:href="#BitstreamVeraSans-Roman-31"/>
       <use x="63.623046875" xlink:href="#BitstreamVeraSans-Roman-30"/>
       <use x="127.24609375" xlink:href="#BitstreamVeraSans-Roman-30"/>
       <use x="190.869140625" xlink:href="#BitstreamVeraSans-Roman-30"/>
      </g>
     </g>
    </g>
    <g id="ytick_2">
     <g id="line2d_21">
      <g>
       <use style="stroke:#000000;stroke-width:0.5;" x="72.0" xlink:href="#m728421d6d4" y="262.288678751"/>
      </g>
     </g>
     <g id="line2d_22">
      <g>
       <use style="stroke:#000000;stroke-width:0.5;" x="518.4" xlink:href="#mcb0005524f" y="262.288678751"/>
      </g>
     </g>
     <g id="text_10">
      <!-- 2000 -->
      <g transform="translate(39.13625 265.599928751)scale(0.12 -0.12)">
       <use xlink:href="#BitstreamVeraSans-Roman-32"/>
       <use x="63.623046875" xlink:href="#BitstreamVeraSans-Roman-30"/>
       <use x="127.24609375" xlink:href="#BitstreamVeraSans-Roman-30"/>
       <use x="190.869140625" xlink:href="#BitstreamVeraSans-Roman-30"/>
      </g>
     </g>
    </g>
    <g id="ytick_3">
     <g id="line2d_23">
      <g>
       <use style="stroke:#000000;stroke-width:0.5;" x="72.0" xlink:href="#m728421d6d4" y="214.269242312"/>
      </g>
     </g>
     <g id="line2d_24">
      <g>
       <use style="stroke:#000000;stroke-width:0.5;" x="518.4" xlink:href="#mcb0005524f" y="214.269242312"/>
      </g>
     </g>
     <g id="text_11">
      <!-- 3000 -->
      <g transform="translate(39.171875 217.580492312)scale(0.12 -0.12)">
       <use xlink:href="#BitstreamVeraSans-Roman-33"/>
       <use x="63.623046875" xlink:href="#BitstreamVeraSans-Roman-30"/>
       <use x="127.24609375" xlink:href="#BitstreamVeraSans-Roman-30"/>
       <use x="190.869140625" xlink:href="#BitstreamVeraSans-Roman-30"/>
      </g>
     </g>
    </g>
    <g id="ytick_4">
     <g id="line2d_25">
      <g>
       <use style="stroke:#000000;stroke-width:0.5;" x="72.0" xlink:href="#m728421d6d4" y="166.249805874"/>
      </g>
     </g>
     <g id="line2d_26">
      <g>
       <use style="stroke:#000000;stroke-width:0.5;" x="518.4" xlink:href="#mcb0005524f" y="166.249805874"/>
      </g>
     </g>
     <g id="text_12">
      <!-- 4000 -->
      <defs>
       <path d="
M37.7969 64.3125
L12.8906 25.3906
L37.7969 25.3906
z

M35.2031 72.9062
L47.6094 72.9062
L47.6094 25.3906
L58.0156 25.3906
L58.0156 17.1875
L47.6094 17.1875
L47.6094 0
L37.7969 0
L37.7969 17.1875
L4.89062 17.1875
L4.89062 26.7031
z
" id="BitstreamVeraSans-Roman-34"/>
      </defs>
      <g transform="translate(38.84375 169.561055874)scale(0.12 -0.12)">
       <use xlink:href="#BitstreamVeraSans-Roman-34"/>
       <use x="63.623046875" xlink:href="#BitstreamVeraSans-Roman-30"/>
       <use x="127.24609375" xlink:href="#BitstreamVeraSans-Roman-30"/>
       <use x="190.869140625" xlink:href="#BitstreamVeraSans-Roman-30"/>
      </g>
     </g>
    </g>
    <g id="ytick_5">
     <g id="line2d_27">
      <g>
       <use style="stroke:#000000;stroke-width:0.5;" x="72.0" xlink:href="#m728421d6d4" y="118.230369435"/>
      </g>
     </g>
     <g id="line2d_28">
      <g>
       <use style="stroke:#000000;stroke-width:0.5;" x="518.4" xlink:href="#mcb0005524f" y="118.230369435"/>
      </g>
     </g>
     <g id="text_13">
      <!-- 5000 -->
      <g transform="translate(39.183125 121.541619435)scale(0.12 -0.12)">
       <use xlink:href="#BitstreamVeraSans-Roman-35"/>
       <use x="63.623046875" xlink:href="#BitstreamVeraSans-Roman-30"/>
       <use x="127.24609375" xlink:href="#BitstreamVeraSans-Roman-30"/>
       <use x="190.869140625" xlink:href="#BitstreamVeraSans-Roman-30"/>
      </g>
     </g>
    </g>
    <g id="ytick_6">
     <g id="line2d_29">
      <g>
       <use style="stroke:#000000;stroke-width:0.5;" x="72.0" xlink:href="#m728421d6d4" y="70.2109329967"/>
      </g>
     </g>
     <g id="line2d_30">
      <g>
       <use style="stroke:#000000;stroke-width:0.5;" x="518.4" xlink:href="#mcb0005524f" y="70.2109329967"/>
      </g>
     </g>
     <g id="text_14">
      <!-- 6000 -->
      <g transform="translate(39.095 73.5221829967)scale(0.12 -0.12)">
       <use xlink:href="#BitstreamVeraSans-Roman-36"/>
       <use x="63.623046875" xlink:href="#BitstreamVeraSans-Roman-30"/>
       <use x="127.24609375" xlink:href="#BitstreamVeraSans-Roman-30"/>
       <use x="190.869140625" xlink:href="#BitstreamVeraSans-Roman-30"/>
      </g>
     </g>
    </g>
   </g>
   <g id="text_15">
    <!-- Bauxit -->
    <defs>
     <path d="
M9.42188 54.6875
L18.4062 54.6875
L18.4062 0
L9.42188 0
z

M9.42188 75.9844
L18.4062 75.9844
L18.4062 64.5938
L9.42188 64.5938
z
" id="BitstreamVeraSans-Roman-69"/>
     <path d="
M8.5 21.5781
L8.5 54.6875
L17.4844 54.6875
L17.4844 21.9219
Q17.4844 14.1562 20.5 10.2656
Q23.5312 6.39062 29.5938 6.39062
Q36.8594 6.39062 41.0781 11.0312
Q45.3125 15.6719 45.3125 23.6875
L45.3125 54.6875
L54.2969 54.6875
L54.2969 0
L45.3125 0
L45.3125 8.40625
Q42.0469 3.42188 37.7188 1
Q33.4062 -1.42188 27.6875 -1.42188
Q18.2656 -1.42188 13.375 4.4375
Q8.5 10.2969 8.5 21.5781" id="BitstreamVeraSans-Roman-75"/>
     <path d="
M34.2812 27.4844
Q23.3906 27.4844 19.1875 25
Q14.9844 22.5156 14.9844 16.5
Q14.9844 11.7188 18.1406 8.90625
Q21.2969 6.10938 26.7031 6.10938
Q34.1875 6.10938 38.7031 11.4062
Q43.2188 16.7031 43.2188 25.4844
L43.2188 27.4844
z

M52.2031 31.2031
L52.2031 0
L43.2188 0
L43.2188 8.29688
Q40.1406 3.32812 35.5469 0.953125
Q30.9531 -1.42188 24.3125 -1.42188
Q15.9219 -1.42188 10.9531 3.29688
Q6 8.01562 6 15.9219
Q6 25.1406 12.1719 29.8281
Q18.3594 34.5156 30.6094 34.5156
L43.2188 34.5156
L43.2188 35.4062
Q43.2188 41.6094 39.1406 45
Q35.0625 48.3906 27.6875 48.3906
Q23 48.3906 18.5469 47.2656
Q14.1094 46.1406 10.0156 43.8906
L10.0156 52.2031
Q14.9375 54.1094 19.5781 55.0469
Q24.2188 56 28.6094 56
Q40.4844 56 46.3438 49.8438
Q52.2031 43.7031 52.2031 31.2031" id="BitstreamVeraSans-Roman-61"/>
     <path d="
M19.6719 34.8125
L19.6719 8.10938
L35.5 8.10938
Q43.4531 8.10938 47.2812 11.4062
Q51.125 14.7031 51.125 21.4844
Q51.125 28.3281 47.2812 31.5625
Q43.4531 34.8125 35.5 34.8125
z

M19.6719 64.7969
L19.6719 42.8281
L34.2812 42.8281
Q41.5 42.8281 45.0312 45.5312
Q48.5781 48.25 48.5781 53.8125
Q48.5781 59.3281 45.0312 62.0625
Q41.5 64.7969 34.2812 64.7969
z

M9.8125 72.9062
L35.0156 72.9062
Q46.2969 72.9062 52.3906 68.2188
Q58.5 63.5312 58.5 54.8906
Q58.5 48.1875 55.375 44.2344
Q52.25 40.2812 46.1875 39.3125
Q53.4688 37.75 57.5 32.7812
Q61.5312 27.8281 61.5312 20.4062
Q61.5312 10.6406 54.8906 5.3125
Q48.25 0 35.9844 0
L9.8125 0
z
" id="BitstreamVeraSans-Roman-42"/>
     <path d="
M54.8906 54.6875
L35.1094 28.0781
L55.9062 0
L45.3125 0
L29.3906 21.4844
L13.4844 0
L2.875 0
L24.125 28.6094
L4.6875 54.6875
L15.2812 54.6875
L29.7812 35.2031
L44.2812 54.6875
z
" id="BitstreamVeraSans-Roman-78"/>
    </defs>
    <g transform="translate(474.15825 38.2)scale(0.144 -0.144)">
     <use xlink:href="#BitstreamVeraSans-Roman-42"/>
     <use x="68.603515625" xlink:href="#BitstreamVeraSans-Roman-61"/>
     <use x="129.8828125" xlink:href="#BitstreamVeraSans-Roman-75"/>
     <use x="193.26171875" xlink:href="#BitstreamVeraSans-Roman-78"/>
     <use x="252.44140625" xlink:href="#BitstreamVeraSans-Roman-69"/>
     <use x="280.224609375" xlink:href="#BitstreamVeraSans-Roman-74"/>
    </g>
   </g>
   <g id="legend_1">
    <g id="patch_7">
     <path d="
M123.942 423.616
L466.458 423.616
L466.458 398.16
L123.942 398.16
z
" style="fill:#ffffff;stroke:#000000;stroke-linejoin:miter;"/>
    </g>
    <g id="line2d_31">
     <path d="
M134.022 409.822
L154.182 409.822" style="fill:none;stroke:#ff0000;stroke-linecap:square;"/>
    </g>
    <g id="line2d_32"/>
    <g id="text_16">
     <!-- Schwarzmarktpreis -->
     <defs>
      <path d="
M52 44.1875
Q55.375 50.25 60.0625 53.125
Q64.75 56 71.0938 56
Q79.6406 56 84.2812 50.0156
Q88.9219 44.0469 88.9219 33.0156
L88.9219 0
L79.8906 0
L79.8906 32.7188
Q79.8906 40.5781 77.0938 44.375
Q74.3125 48.1875 68.6094 48.1875
Q61.625 48.1875 57.5625 43.5469
Q53.5156 38.9219 53.5156 30.9062
L53.5156 0
L44.4844 0
L44.4844 32.7188
Q44.4844 40.625 41.7031 44.4062
Q38.9219 48.1875 33.1094 48.1875
Q26.2188 48.1875 22.1562 43.5312
Q18.1094 38.875 18.1094 30.9062
L18.1094 0
L9.07812 0
L9.07812 54.6875
L18.1094 54.6875
L18.1094 46.1875
Q21.1875 51.2188 25.4844 53.6094
Q29.7812 56 35.6875 56
Q41.6562 56 45.8281 52.9688
Q50 49.9531 52 44.1875" id="BitstreamVeraSans-Roman-6d"/>
      <path d="
M5.51562 54.6875
L48.1875 54.6875
L48.1875 46.4844
L14.4062 7.17188
L48.1875 7.17188
L48.1875 0
L4.29688 0
L4.29688 8.20312
L38.0938 47.5156
L5.51562 47.5156
z
" id="BitstreamVeraSans-Roman-7a"/>
      <path d="
M53.5156 70.5156
L53.5156 60.8906
Q47.9062 63.5781 42.9219 64.8906
Q37.9375 66.2188 33.2969 66.2188
Q25.25 66.2188 20.875 63.0938
Q16.5 59.9688 16.5 54.2031
Q16.5 49.3594 19.4062 46.8906
Q22.3125 44.4375 30.4219 42.9219
L36.375 41.7031
Q47.4062 39.5938 52.6562 34.2969
Q57.9062 29 57.9062 20.125
Q57.9062 9.51562 50.7969 4.04688
Q43.7031 -1.42188 29.9844 -1.42188
Q24.8125 -1.42188 18.9688 -0.25
Q13.1406 0.921875 6.89062 3.21875
L6.89062 13.375
Q12.8906 10.0156 18.6562 8.29688
Q24.4219 6.59375 29.9844 6.59375
Q38.4219 6.59375 43.0156 9.90625
Q47.6094 13.2344 47.6094 19.3906
Q47.6094 24.75 44.3125 27.7812
Q41.0156 30.8125 33.5 32.3281
L27.4844 33.5
Q16.4531 35.6875 11.5156 40.375
Q6.59375 45.0625 6.59375 53.4219
Q6.59375 63.0938 13.4062 68.6562
Q20.2188 74.2188 32.1719 74.2188
Q37.3125 74.2188 42.625 73.2812
Q47.9531 72.3594 53.5156 70.5156" id="BitstreamVeraSans-Roman-53"/>
      <path d="
M54.8906 33.0156
L54.8906 0
L45.9062 0
L45.9062 32.7188
Q45.9062 40.4844 42.875 44.3281
Q39.8438 48.1875 33.7969 48.1875
Q26.5156 48.1875 22.3125 43.5469
Q18.1094 38.9219 18.1094 30.9062
L18.1094 0
L9.07812 0
L9.07812 75.9844
L18.1094 75.9844
L18.1094 46.1875
Q21.3438 51.125 25.7031 53.5625
Q30.0781 56 35.7969 56
Q45.2188 56 50.0469 50.1719
Q54.8906 44.3438 54.8906 33.0156" id="BitstreamVeraSans-Roman-68"/>
      <path d="
M56.2031 29.5938
L56.2031 25.2031
L14.8906 25.2031
Q15.4844 15.9219 20.4844 11.0625
Q25.4844 6.20312 34.4219 6.20312
Q39.5938 6.20312 44.4531 7.46875
Q49.3125 8.73438 54.1094 11.2812
L54.1094 2.78125
Q49.2656 0.734375 44.1875 -0.34375
Q39.1094 -1.42188 33.8906 -1.42188
Q20.7969 -1.42188 13.1562 6.1875
Q5.51562 13.8125 5.51562 26.8125
Q5.51562 40.2344 12.7656 48.1094
Q20.0156 56 32.3281 56
Q43.3594 56 49.7812 48.8906
Q56.2031 41.7969 56.2031 29.5938
M47.2188 32.2344
Q47.125 39.5938 43.0938 43.9844
Q39.0625 48.3906 32.4219 48.3906
Q24.9062 48.3906 20.3906 44.1406
Q15.875 39.8906 15.1875 32.1719
z
" id="BitstreamVeraSans-Roman-65"/>
      <path d="
M4.20312 54.6875
L13.1875 54.6875
L24.4219 12.0156
L35.5938 54.6875
L46.1875 54.6875
L57.4219 12.0156
L68.6094 54.6875
L77.5938 54.6875
L63.2812 0
L52.6875 0
L40.9219 44.8281
L29.1094 0
L18.5 0
z
" id="BitstreamVeraSans-Roman-77"/>
      <path d="
M9.07812 75.9844
L18.1094 75.9844
L18.1094 31.1094
L44.9219 54.6875
L56.3906 54.6875
L27.3906 29.1094
L57.625 0
L45.9062 0
L18.1094 26.7031
L18.1094 0
L9.07812 0
z
" id="BitstreamVeraSans-Roman-6b"/>
      <path d="
M41.1094 46.2969
Q39.5938 47.1719 37.8125 47.5781
Q36.0312 48 33.8906 48
Q26.2656 48 22.1875 43.0469
Q18.1094 38.0938 18.1094 28.8125
L18.1094 0
L9.07812 0
L9.07812 54.6875
L18.1094 54.6875
L18.1094 46.1875
Q20.9531 51.1719 25.4844 53.5781
Q30.0312 56 36.5312 56
Q37.4531 56 38.5781 55.875
Q39.7031 55.7656 41.0625 55.5156
z
" id="BitstreamVeraSans-Roman-72"/>
      <path d="
M44.2812 53.0781
L44.2812 44.5781
Q40.4844 46.5312 36.375 47.5
Q32.2812 48.4844 27.875 48.4844
Q21.1875 48.4844 17.8438 46.4375
Q14.5 44.3906 14.5 40.2812
Q14.5 37.1562 16.8906 35.375
Q19.2812 33.5938 26.5156 31.9844
L29.5938 31.2969
Q39.1562 29.25 43.1875 25.5156
Q47.2188 21.7812 47.2188 15.0938
Q47.2188 7.46875 41.1875 3.01562
Q35.1562 -1.42188 24.6094 -1.42188
Q20.2188 -1.42188 15.4531 -0.5625
Q10.6875 0.296875 5.42188 2
L5.42188 11.2812
Q10.4062 8.6875 15.2344 7.39062
Q20.0625 6.10938 24.8125 6.10938
Q31.1562 6.10938 34.5625 8.28125
Q37.9844 10.4531 37.9844 14.4062
Q37.9844 18.0625 35.5156 20.0156
Q33.0625 21.9688 24.7031 23.7812
L21.5781 24.5156
Q13.2344 26.2656 9.51562 29.9062
Q5.8125 33.5469 5.8125 39.8906
Q5.8125 47.6094 11.2812 51.7969
Q16.75 56 26.8125 56
Q31.7812 56 36.1719 55.2656
Q40.5781 54.5469 44.2812 53.0781" id="BitstreamVeraSans-Roman-73"/>
      <path d="
M18.1094 8.20312
L18.1094 -20.7969
L9.07812 -20.7969
L9.07812 54.6875
L18.1094 54.6875
L18.1094 46.3906
Q20.9531 51.2656 25.2656 53.625
Q29.5938 56 35.5938 56
Q45.5625 56 51.7812 48.0938
Q58.0156 40.1875 58.0156 27.2969
Q58.0156 14.4062 51.7812 6.48438
Q45.5625 -1.42188 35.5938 -1.42188
Q29.5938 -1.42188 25.2656 0.953125
Q20.9531 3.32812 18.1094 8.20312
M48.6875 27.2969
Q48.6875 37.2031 44.6094 42.8438
Q40.5312 48.4844 33.4062 48.4844
Q26.2656 48.4844 22.1875 42.8438
Q18.1094 37.2031 18.1094 27.2969
Q18.1094 17.3906 22.1875 11.75
Q26.2656 6.10938 33.4062 6.10938
Q40.5312 6.10938 44.6094 11.75
Q48.6875 17.3906 48.6875 27.2969" id="BitstreamVeraSans-Roman-70"/>
     </defs>
     <g transform="translate(170.022375 414.86175)scale(0.144 -0.144)">
      <use xlink:href="#BitstreamVeraSans-Roman-53"/>
      <use x="63.4765625" xlink:href="#BitstreamVeraSans-Roman-63"/>
      <use x="118.45703125" xlink:href="#BitstreamVeraSans-Roman-68"/>
      <use x="181.8359375" xlink:href="#BitstreamVeraSans-Roman-77"/>
      <use x="263.623046875" xlink:href="#BitstreamVeraSans-Roman-61"/>
      <use x="324.90234375" xlink:href="#BitstreamVeraSans-Roman-72"/>
      <use x="366.015625" xlink:href="#BitstreamVeraSans-Roman-7a"/>
      <use x="418.505859375" xlink:href="#BitstreamVeraSans-Roman-6d"/>
      <use x="515.91796875" xlink:href="#BitstreamVeraSans-Roman-61"/>
      <use x="577.197265625" xlink:href="#BitstreamVeraSans-Roman-72"/>
      <use x="618.310546875" xlink:href="#BitstreamVeraSans-Roman-6b"/>
      <use x="676.220703125" xlink:href="#BitstreamVeraSans-Roman-74"/>
      <use x="715.4296875" xlink:href="#BitstreamVeraSans-Roman-70"/>
      <use x="778.90625" xlink:href="#BitstreamVeraSans-Roman-72"/>
      <use x="817.76953125" xlink:href="#BitstreamVeraSans-Roman-65"/>
      <use x="879.29296875" xlink:href="#BitstreamVeraSans-Roman-69"/>
      <use x="907.076171875" xlink:href="#BitstreamVeraSans-Roman-73"/>
     </g>
    </g>
    <g id="line2d_33">
     <path d="
M339.609 409.822
L359.769 409.822" style="fill:none;stroke:#008000;stroke-linecap:square;"/>
    </g>
    <g id="line2d_34"/>
    <g id="text_17">
     <!-- Normalpreis -->
     <defs>
      <path d="
M9.42188 75.9844
L18.4062 75.9844
L18.4062 0
L9.42188 0
z
" id="BitstreamVeraSans-Roman-6c"/>
     </defs>
     <g transform="translate(375.609375 414.86175)scale(0.144 -0.144)">
      <use xlink:href="#BitstreamVeraSans-Roman-4e"/>
      <use x="74.8046875" xlink:href="#BitstreamVeraSans-Roman-6f"/>
      <use x="135.986328125" xlink:href="#BitstreamVeraSans-Roman-72"/>
      <use x="175.349609375" xlink:href="#BitstreamVeraSans-Roman-6d"/>
      <use x="272.76171875" xlink:href="#BitstreamVeraSans-Roman-61"/>
      <use x="334.041015625" xlink:href="#BitstreamVeraSans-Roman-6c"/>
      <use x="361.82421875" xlink:href="#BitstreamVeraSans-Roman-70"/>
      <use x="425.30078125" xlink:href="#BitstreamVeraSans-Roman-72"/>
      <use x="464.1640625" xlink:href="#BitstreamVeraSans-Roman-65"/>
      <use x="525.6875" xlink:href="#BitstreamVeraSans-Roman-69"/>
      <use x="553.470703125" xlink:href="#BitstreamVeraSans-Roman-73"/>
     </g>
    </g>
   </g>
  </g>
 </g>
 <defs>
  <clipPath id="pcb2bf987bf">
   <rect height="302.4" width="446.4" x="72.0" y="43.2"/>
  </clipPath>
 </defs>
</svg>
