<?xml version="1.0" encoding="utf-8" standalone="no"?>
<!DOCTYPE svg PUBLIC "-//W3C//DTD SVG 1.1//EN"
  "http://www.w3.org/Graphics/SVG/1.1/DTD/svg11.dtd">
<!-- Created with matplotlib (http://matplotlib.org/) -->
<svg height="432pt" version="1.1" viewBox="0 0 576 432" width="576pt" xmlns="http://www.w3.org/2000/svg" xmlns:xlink="http://www.w3.org/1999/xlink">
 <defs>
  <style type="text/css">
*{stroke-linecap:butt;stroke-linejoin:round;}
  </style>
 </defs>
 <g id="figure_1">
  <g id="patch_1">
   <path d="
M0 432
L576 432
L576 0
L0 0
z
" style="fill:#ffffff;"/>
  </g>
  <g id="axes_1">
   <g id="patch_2">
    <path d="
M72 345.6
L518.4 345.6
L518.4 43.2
L72 43.2
z
" style="fill:#ffffff;"/>
   </g>
   <g id="line2d_1">
    <path clip-path="url(#pcb2bf987bf)" d="
M72 319.862
L72.5105 319.862
L73.2762 319.443
L73.5314 319.723
L73.9142 319.443
L74.0419 317.603
L74.2971 319.443
L74.4247 316.874
L75.0628 316.874
L75.1904 319.443
L75.4456 319.443
L75.5732 319.16
L75.9561 319.16
L76.3389 318.874
L76.7218 318.585
L76.9772 318.585
L77.3599 318.294
L77.8703 318.147
L78.1256 317.851
L78.1256 317.851
L78.5084 318.147
L79.0189 318.147
L79.4017 317.851
L79.6569 317.552
L79.7846 317.851
L80.0398 311.441
L80.1674 317.702
L80.4226 311.441
L80.5503 317.552
L80.8055 317.552
L80.9331 318.294
L81.316 318.294
L81.5712 316.865
L81.6988 315.063
L81.9542 275.218
L82.0816 318.293
L82.4645 318.439
L82.7197 318.44
L83.1026 318.147
L83.613 318.147
L83.9959 317.999
L84.3787 318.147
L85.1444 318.147
L85.3999 311.441
L85.5273 318.147
L86.1654 318.44
L86.6758 318.44
L87.0587 318.294
L87.3139 318.44
L87.6967 318.147
L88.5901 318.147
L88.8453 317.999
L88.8453 317.999
L88.9729 318.147
L89.3557 317.999
L89.7386 318.147
L89.9938 318.147
L89.9938 318.147
L90.2491 316.874
L91.0148 316.874
L91.7804 318.874
L91.9081 318.874
L93.3118 318.395
L94.2051 318.395
L95.6089 317.805
L95.7365 317.953
L96.3746 317.656
L97.1403 317.506
L97.906 317.051
L98.0336 318.395
L98.6717 318.248
L98.7993 318.101
L99.4374 317.805
L100.331 318.395
L100.969 318.395
L101.862 317.953
L103.393 318.248
L104.032 318.248
L104.797 318.101
L105.563 318.101
L106.329 317.805
L107.095 317.805
L107.86 317.953
L107.988 317.805
L108.626 317.805
L109.519 316.874
L110.285 317.656
L111.689 316.744
L111.816 316.744
L113.986 317.202
L114.879 317.202
L116.41 316.993
L117.048 317.506
L117.814 317.506
L117.942 317.355
L118.707 317.355
L119.345 317.656
L120.111 317.656
L120.877 317.506
L121.004 317.656
L121.643 317.655
L122.408 317.505
L122.536 317.655
L124.067 317.656
L124.705 317.203
L125.471 316.434
L126.365 316.121
L127.002 317.203
L127.13 309.806
L127.13 309.806
L127.64 313.209
L127.768 313.209
L128.661 317.203
L129.299 318.088
L130.193 318.098
L130.831 317.951
L131.597 318.098
L132.362 317.951
L132.362 317.951
L134.149 318.098
L134.659 317.951
L135.425 316.405
L136.318 316.715
L136.956 316.715
L137.722 317.951
L138.488 318.098
L139.381 318.098
L140.019 317.802
L140.785 317.802
L141.551 318.098
L141.678 317.951
L142.316 318.098
L143.082 317.951
L143.975 318.098
L144.613 318.098
L145.507 317.95
L146.272 316.101
L146.91 315.944
L147.676 318.098
L149.335 318.098
L149.973 319.869
L150.739 329.538
L150.867 324.115
L151.505 322.548
L152.27 322.781
L153.164 321.583
L153.802 317.244
L154.567 317.091
L155.333 317.244
L155.333 317.244
L156.099 317.244
L157.63 316.874
L157.758 317.244
L159.162 317.244
L159.927 316.939
L160.693 317.091
L160.821 317.244
L162.224 315.063
L162.99 317.128
L164.521 317.091
L164.649 316.563
L165.287 316.565
L166.053 317.244
L166.819 317.091
L167.712 317.244
L169.243 317.244
L169.881 320.091
L170.647 319.32
L170.775 319.461
L171.413 319.178
L172.178 319.178
L172.944 316.518
L173.71 316.518
L174.603 316.673
L176.007 318.685
L176.773 318.685
L176.9 318.54
L177.538 318.685
L179.963 318.685
L180.601 318.54
L180.729 318.685
L181.367 318.685
L182.26 316.428
L182.898 318.54
L183.664 316.428
L183.791 318.685
L184.43 315.642
L185.195 314.754
L185.961 315.337
L186.727 318.685
L187.492 318.54
L188.258 317.48
L189.151 317.329
L190.555 317.63
L191.321 317.48
L191.321 317.48
L192.852 318.54
L193.618 318.685
L194.384 318.685
L195.915 318.395
L198.978 318.395
L201.275 317.166
L202.04 317.769
L202.806 318.213
L203.572 318.065
L203.699 318.213
L204.338 318.395
L205.103 318.101
L205.231 318.248
L205.869 318.248
L206.124 318.101
L206.507 317.805
L206.635 317.953
L206.635 317.953
L206.762 317.805
L207.4 316.718
L208.166 316.563
L209.059 316.563
L209.059 316.563
L209.442 318.101
L209.57 318.101
L209.825 318.248
L210.846 318.395
L211.739 318.248
L211.867 318.248
L212.25 318.101
L212.505 315.063
L212.633 317.805
L212.888 317.805
L213.398 318.395
L213.781 318.395
L214.036 318.248
L214.164 318.395
L214.547 318.395
L215.313 317.953
L215.568 317.599
L215.695 318.248
L216.078 317.805
L216.333 317.805
L216.589 318.248
L216.589 318.248
L216.844 316.438
L217.099 316.438
L217.227 316.282
L217.482 315.063
L217.482 315.063
L217.61 300.924
L217.992 318.248
L218.248 318.101
L218.248 318.101
L218.375 318.395
L218.631 318.395
L218.758 318.248
L219.013 317.241
L219.396 317.241
L219.779 318.395
L220.29 318.395
L220.29 318.395
L220.417 318.101
L220.672 318.101
L220.672 318.101
L220.928 316.538
L221.055 316.693
L221.438 316.689
L221.693 315.063
L222.076 316.534
L222.842 316.538
L222.842 316.538
L223.352 316.693
L223.735 316.693
L223.99 318.395
L224.118 318.395
L224.373 317.953
L224.501 318.248
L224.756 318.395
L224.884 316.799
L225.139 318.395
L225.267 318.395
L225.522 316.652
L225.649 316.652
L225.649 316.652
L225.777 316.497
L225.777 316.497
L225.905 316.652
L225.905 316.652
L226.032 316.497
L226.032 316.497
L226.16 316.652
L226.16 316.652
L226.288 318.395
L226.415 318.248
L226.415 318.248
L226.798 318.248
L227.053 318.101
L227.181 318.248
L227.436 314.479
L227.436 314.479
L227.819 318.248
L227.946 316.323
L228.202 315.666
L228.329 315.825
L228.712 315.664
L229.478 315.664
L229.861 315.825
L230.244 315.825
L230.499 318.395
L230.499 318.395
L231.009 318.248
L231.392 318.395
L232.413 318.395
L232.541 318.248
L232.924 316.645
L233.689 316.645
L233.944 316.49
L234.072 316.645
L234.838 316.645
L235.221 316.799
L235.603 316.799
L235.986 316.645
L236.369 316.799
L236.624 318.323
L236.752 318.395
L237.007 318.101
L237.135 318.395
L237.39 318.395
L237.518 318.248
L238.156 318.248
L238.283 318.395
L238.666 318.394
L239.049 318.248
L239.432 318.247
L240.07 317.803
L240.198 317.654
L240.453 317.803
L240.453 317.803
L240.58 318.248
L240.836 318.101
L240.963 318.248
L241.219 318.248
L241.729 317.805
L241.984 318.248
L242.112 315.063
L242.367 318.248
L242.495 318.248
L242.878 318.101
L243.26 318.248
L243.898 318.248
L244.026 318.101
L244.409 318.248
L244.664 318.101
L244.792 318.248
L245.175 317.953
L245.557 318.248
L245.813 318.248
L245.94 316.652
L246.196 318.248
L247.727 318.248
L247.855 317.953
L248.876 318.248
L248.876 318.248
L249.003 318.248
L249.769 317.805
L250.152 317.805
L250.534 317.953
L250.917 317.953
L251.3 318.248
L252.321 318.248
L252.449 318.101
L252.832 318.248
L253.214 318.248
L253.597 318.101
L253.98 318.248
L254.363 318.248
L254.746 318.101
L254.746 318.101
L255.129 318.248
L255.129 318.248
L255.384 318.248
L255.511 318.101
L255.511 318.101
L255.767 318.101
L255.767 318.101
L255.894 317.505
L256.277 317.354
L256.66 317.505
L256.66 317.505
L256.915 317.505
L257.043 317.236
L257.426 317.505
L257.809 317.804
L258.064 317.655
L258.064 317.655
L258.83 317.655
L258.957 317.804
L260.106 317.805
L260.489 317.953
L260.871 317.804
L261.127 317.804
L261.254 317.953
L261.637 317.953
L261.892 317.804
L262.02 317.953
L263.168 317.953
L263.551 317.804
L264.189 317.804
L264.189 317.804
L264.317 317.65
L264.572 317.65
L264.7 317.804
L264.955 317.505
L264.955 317.505
L265.083 317.655
L265.338 317.505
L265.593 317.655
L266.997 317.652
L267.38 317.804
L268.145 317.448
L268.401 317.448
L268.528 317.599
L268.784 317.655
L268.911 317.505
L269.294 317.655
L269.677 317.655
L270.06 317.505
L270.315 317.655
L270.443 317.505
L270.698 317.953
L270.825 317.804
L271.081 317.953
L271.463 317.953
L271.846 317.804
L271.974 317.953
L272.229 317.953
L272.357 313.865
L272.612 313.865
L272.74 314.033
L272.995 317.953
L273.378 317.655
L273.378 317.655
L273.506 317.953
L273.761 317.953
L273.888 317.804
L274.271 317.953
L276.058 317.953
L276.441 317.599
L277.717 317.599
L278.099 317.448
L278.355 317.448
L278.482 317.599
L278.738 281.225
L278.865 317.116
L279.12 315.063
L279.248 316.963
L279.631 316.963
L279.886 316.584
L280.014 316.655
L280.397 316.655
L280.652 316.5
L280.779 316.655
L281.545 316.653
L281.801 316.342
L282.311 316.655
L282.566 316.5
L282.694 316.031
L282.949 315.873
L283.077 316.031
L283.332 315.578
L283.459 315.578
L283.842 315.255
L284.097 315.063
L284.225 315.255
L284.608 315.417
L284.736 315.417
L285.374 315.578
L285.629 315.578
L285.756 315.256
L286.139 315.417
L286.905 315.417
L287.16 315.094
L287.288 310.864
L287.543 315.256
L288.054 315.256
L288.309 315.094
L288.437 315.256
L288.692 315.256
L288.819 315.094
L289.074 315.256
L289.202 307.849
L289.457 315.256
L289.585 315.256
L289.968 315.417
L290.223 315.417
L290.351 315.737
L290.733 315.417
L290.861 315.055
L291.116 315.737
L291.372 315.578
L291.499 315.737
L291.754 315.737
L292.265 315.417
L292.52 315.255
L292.52 315.255
L292.648 315.737
L292.903 315.896
L293.031 315.737
L293.286 315.896
L293.286 315.896
L293.413 316.5
L293.669 316.5
L293.669 316.5
L293.796 316.345
L294.562 316.345
L295.2 316.655
L295.583 316.655
L295.71 316.5
L295.966 316.655
L296.476 316.5
L296.859 316.5
L297.242 314.9
L297.497 314.9
L297.625 314.736
L298.008 315.063
L298.263 316.5
L298.773 316.5
L299.028 316.344
L299.156 315.968
L299.539 316.344
L299.794 316.5
L300.305 316.03
L300.687 316.344
L300.943 316.344
L301.07 316.188
L301.326 316.344
L301.453 316.15
L301.836 316.15
L302.091 312.37
L302.474 312.37
L302.474 312.37
L302.857 315.465
L302.985 315.465
L303.112 315.304
L303.75 315.304
L304.133 314.98
L304.388 315.304
L305.537 315.304
L305.664 315.465
L306.43 315.465
L307.068 315.143
L307.068 315.143
L307.196 315.304
L307.834 315.304
L307.962 315.465
L308.344 315.465
L308.6 315.304
L308.6 315.304
L308.727 315.465
L309.748 315.465
L309.876 315.304
L310.131 315.465
L310.131 315.465
L310.259 315.304
L310.514 315.304
L310.642 315.465
L311.024 315.465
L311.407 315.304
L311.662 315.304
L311.79 315.425
L312.045 315.425
L312.173 315.264
L312.556 315.264
L312.811 314.939
L313.194 315.264
L313.321 314.939
L314.47 314.939
L314.725 315.102
L314.853 314.939
L315.108 314.939
L315.236 315.465
L315.619 315.465
L316.257 314.98
L316.384 315.465
L316.767 336.742
L317.022 334.985
L317.15 327.678
L317.405 325.821
L317.533 325.821
L317.788 325.602
L317.916 320.496
L318.298 320.496
L318.681 320.134
L319.319 320.493
L319.319 320.493
L319.447 320.315
L319.83 320.489
L320.213 320.353
L320.851 318.504
L320.851 318.504
L321.361 318.357
L321.616 318.504
L321.999 318.504
L322.127 318.358
L323.148 318.503
L323.275 318.503
L323.531 57.6983
L323.658 318.503
L323.914 318.503
L323.914 318.503
L324.041 318.357
L324.424 318.503
L325.19 318.503
L325.445 320.35
L325.956 320.35
L326.211 320.213
L326.338 319.591
L326.721 319.591
L327.104 317.953
L327.487 317.953
L327.742 317.797
L327.87 318.101
L328.252 317.805
L328.635 318.101
L329.273 318.101
L329.401 317.953
L330.167 317.953
L330.55 318.101
L331.188 318.101
L331.315 317.805
L331.953 318.098
L332.081 317.953
L332.336 310.56
L332.464 317.939
L332.719 316.549
L333.102 316.549
L333.23 316.393
L333.612 316.393
L334.25 316.704
L334.633 316.704
L334.761 316.549
L335.144 316.704
L335.399 317.928
L335.527 317.928
L335.909 316.549
L336.292 316.704
L336.93 316.393
L337.058 316.393
L337.441 316.549
L337.696 316.38
L338.079 316.704
L338.207 316.393
L338.462 316.393
L338.589 316.549
L338.972 316.549
L339.355 316.704
L339.738 316.704
L339.866 316.549
L340.376 316.549
L340.504 316.704
L340.759 320.489
L342.035 320.489
L342.418 320.134
L342.801 319.996
L343.184 319.996
L343.566 319.858
L343.949 320.134
L344.332 319.996
L344.588 319.439
L344.715 316.15
L344.97 319.996
L345.098 319.858
L345.863 319.858
L346.119 319.217
L346.246 319.217
L346.629 318.932
L346.884 318.788
L346.884 318.788
L347.012 316.874
L347.65 316.41
L347.778 316.254
L348.161 316.254
L348.416 316.874
L348.926 316.874
L349.309 316.565
L349.564 316.565
L350.075 315.939
L350.33 311.441
L350.458 311.838
L350.713 311.838
L350.84 311.479
L351.096 311.838
L351.224 315.621
L351.606 315.063
L351.861 316.254
L351.989 316.254
L352.244 316.72
L352.372 316.565
L352.627 314.9
L352.755 316.874
L353.393 316.565
L353.52 315.063
L353.776 314.571
L354.286 314.9
L354.541 314.736
L354.669 315.063
L355.307 314.736
L355.307 314.736
L355.817 314.736
L356.073 314.571
L356.073 314.571
L356.2 316.72
L356.583 316.72
L356.966 316.565
L357.221 319.719
L357.477 319.858
L358.753 319.855
L358.88 318.685
L359.263 318.685
L359.518 318.54
L359.646 318.685
L359.901 318.685
L360.029 318.54
L360.412 318.685
L360.667 318.685
L360.795 293.329
L361.05 318.685
L361.177 319.772
L361.816 319.49
L362.198 319.49
L362.326 319.086
L362.964 319.084
L363.092 318.941
L363.347 319.084
L363.474 318.941
L363.73 319.49
L364.113 319.49
L364.24 319.349
L364.623 319.49
L364.878 319.489
L365.006 319.348
L365.261 319.489
L365.389 319.348
L365.772 319.489
L366.027 319.349
L366.027 319.349
L366.155 319.047
L366.537 319.047
L367.175 318.761
L367.303 319.047
L367.558 318.904
L367.686 319.349
L368.069 319.047
L368.324 319.047
L368.451 318.904
L370.238 318.904
L370.366 318.616
L370.621 318.616
L370.749 318.761
L371.131 318.758
L371.514 318.54
L371.769 318.54
L372.152 318.102
L372.28 318.395
L372.918 318.394
L373.046 316.799
L373.301 316.645
L373.428 316.799
L373.684 316.799
L373.684 316.799
L374.194 316.334
L374.449 316.334
L374.577 316.49
L374.832 316.334
L374.96 316.02
L375.215 316.334
L375.343 314.9
L375.598 316.334
L375.726 316.177
L375.981 316.49
L376.108 316.334
L376.364 316.49
L376.491 315.063
L376.746 316.799
L376.874 316.645
L377.257 316.645
L377.64 316.49
L377.767 316.49
L378.023 316.799
L380.575 316.799
L380.703 316.645
L381.086 316.799
L381.851 316.799
L382.107 316.645
L382.234 316.799
L382.489 318.395
L383 318.394
L383.255 318.248
L383.383 318.394
L384.021 318.394
L384.148 318.101
L384.531 318.395
L385.169 318.101
L385.297 318.101
L385.552 318.248
L385.68 318.101
L386.062 318.248
L386.318 318.248
L386.445 318.101
L387.083 318.394
L387.211 318.394
L387.594 318.248
L387.849 318.394
L387.977 318.248
L388.36 318.248
L388.615 318.101
L388.998 318.395
L389.125 318.395
L389.763 318.101
L389.891 318.101
L390.274 317.805
L390.657 317.953
L390.912 317.469
L391.039 318.101
L391.295 318.395
L391.678 318.067
L392.06 318.067
L392.188 317.236
L392.443 318.067
L392.826 318.067
L392.954 321.698
L393.209 321.565
L393.337 320.496
L393.719 320.36
L393.975 307.166
L394.102 292.27
L394.102 292.27
L394.485 292.27
L394.868 291.435
L395.123 287.231
L395.251 318.504
L396.016 318.504
L396.399 318.358
L396.782 318.504
L398.569 318.395
L398.952 318.101
L399.079 318.101
L399.717 317.805
L399.845 317.805
L400.1 317.953
L400.228 318.54
L400.483 318.54
L400.611 309.138
L400.993 311.499
L401.632 311.499
L401.759 311.318
L402.014 311.499
L402.142 316.41
L402.78 316.097
L403.291 316.565
L403.546 315.063
L403.673 320.134
L404.056 319.854
L404.311 319.082
L404.822 319.081
L405.205 318.685
L405.46 311.658
L405.588 318.649
L405.843 311.512
L405.97 311.692
L406.226 311.692
L406.353 311.512
L406.736 311.692
L406.991 311.512
L407.119 311.692
L407.502 311.691
L408.14 311.309
L408.268 307.505
L408.523 311.692
L409.033 311.692
L409.289 311.512
L409.416 311.692
L409.671 311.512
L409.799 311.692
L410.182 311.509
L410.565 311.692
L410.82 319.08
L410.948 319.08
L411.586 318.685
L411.713 318.903
L412.096 318.903
L412.351 318.756
L412.479 315.134
L412.607 318.884
L412.989 318.884
L413.245 318.741
L413.627 318.884
L413.883 318.884
L414.01 318.741
L414.266 318.741
L414.393 318.596
L415.031 318.884
L415.159 318.741
L415.542 318.884
L415.925 318.884
L416.307 318.741
L416.69 318.741
L417.073 318.884
L418.094 318.884
L418.222 318.741
L418.604 318.884
L419.37 318.884
L419.753 318.596
L420.136 318.741
L420.519 318.451
L421.54 318.74
L421.667 318.74
L422.05 318.596
L422.816 318.596
L423.199 318.741
L423.964 318.741
L424.347 318.884
L424.73 318.741
L424.985 316.874
L425.113 318.741
L426.644 318.685
L426.899 318.54
L427.793 318.358
L428.048 316.615
L428.176 316.615
L428.431 316.304
L428.814 316.615
L428.941 316.615
L429.324 316.46
L429.707 316.46
L429.962 318.358
L430.473 318.323
L430.728 318.176
L430.983 318.323
L431.238 318.323
L431.621 318.176
L431.877 318.106
L432.004 316.871
L432.259 316.871
L432.387 318.106
L432.77 318.358
L433.536 318.358
L433.918 318.211
L434.174 318.211
L434.301 318.064
L434.684 318.211
L434.939 318.211
L435.067 317.916
L435.833 317.63
L436.854 317.63
L436.981 317.916
L437.236 317.916
L437.364 316.748
L437.747 316.438
L438.13 316.748
L438.895 316.748
L439.151 317.916
L439.533 317.767
L439.661 317.916
L440.044 317.916
L440.427 317.618
L440.682 317.916
L441.448 317.916
L441.575 316.747
L441.958 316.593
L442.341 316.593
L442.724 316.747
L442.979 316.747
L443.107 316.593
L443.362 316.747
L443.49 316.593
L443.745 316.593
L443.872 316.437
L444.128 317.916
L444.255 317.617
L444.638 317.319
L445.021 317.319
L445.276 317.916
L445.404 317.767
L445.659 316.531
L446.552 316.531
L446.935 316.219
L447.19 316.531
L447.573 316.219
L447.701 316.531
L448.084 316.531
L448.467 316.375
L448.849 316.531
L449.105 316.531
L449.232 316.375
L449.615 316.375
L449.998 316.531
L450.381 316.531
L450.636 316.375
L450.764 316.531
L451.402 316.531
L451.529 317.916
L453.826 317.916
L454.082 316.751
L454.465 316.751
L454.592 317.767
L454.975 317.767
L455.23 317.916
L455.358 317.767
L455.741 317.916
L456.123 317.616
L456.379 317.765
L456.506 317.599
L456.889 317.767
L457.144 316.859
L457.272 317.012
L457.527 317.767
L457.655 317.767
L458.038 317.916
L459.059 317.916
L459.186 317.767
L459.569 317.767
L459.824 310.223
L459.952 317.617
L460.207 317.916
L460.335 317.767
L460.59 317.916
L460.718 317.767
L460.973 316.531
L461.101 316.531
L461.356 316.375
L461.484 316.531
L462.249 316.531
L462.632 316.219
L462.887 317.767
L463.015 316.531
L463.27 312.753
L463.398 316.531
L464.163 316.531
L464.419 317.767
L464.546 317.767
L464.801 317.467
L464.929 316.592
L465.312 317.915
L465.567 316.375
L465.567 316.375
L465.95 316.375
L466.078 316.531
L466.46 316.531
L466.716 316.218
L466.843 316.531
L467.226 316.531
L467.481 316.375
L467.992 316.531
L470.544 316.375
L470.672 316.218
L471.31 316.189
L471.693 315.874
L472.075 315.874
L472.203 316.032
L472.586 316.032
L472.969 316.531
L473.99 316.525
L474.118 316.68
L474.5 316.68
L474.755 315.9
L474.883 316.525
L475.266 316.525
L475.521 316.369
L475.649 317.915
L475.904 316.68
L476.414 316.68
L476.797 316.525
L477.052 316.68
L477.18 316.369
L477.435 316.213
L477.946 316.68
L478.201 316.512
L478.329 316.68
L478.584 316.525
L478.711 316.68
L479.094 316.68
L479.477 316.369
L479.732 308.727
L479.86 316.525
L480.498 313.287
L480.626 316.369
L481.009 317.915
L481.264 314.144
L481.391 317.915
L482.03 317.916
L482.157 317.767
L482.412 317.767
L482.54 317.916
L483.306 317.916
L483.689 317.617
L483.944 317.165
L484.071 317.767
L484.327 314.9
L484.454 314.882
L484.709 315.063
L484.837 314.9
L485.475 314.9
L485.986 315.063
L486.368 315.063
L486.624 317.614
L486.751 317.767
L487.134 317.617
L487.517 317.916
L491.984 317.916
L492.111 321.999
L492.749 321.612
L492.877 321.87
L494.281 321.833
L494.663 321.221
L494.791 321.221
L495.174 321.089
L495.557 320.907
L495.684 320.519
L495.812 320.519
L495.812 320.519
L495.94 320.907
L496.322 320.503
L496.705 320.496
L497.343 320.224
L497.471 320.224
L497.854 320.36
L498.237 320.094
L499.385 319.189
L499.768 319.471
L500.151 319.33
L500.406 319.33
L500.534 319.189
L500.789 318.685
L501.555 318.685
L501.682 318.54
L502.065 318.685
L502.448 318.54
L503.597 318.54
L503.852 318.101
L504.362 318.54
L504.617 318.54
L504.873 318.685
L505.128 318.248
L505.511 318.248
L505.894 318.685
L506.277 318.395
L506.532 318.395
L506.659 318.683
L507.297 318.683
L507.425 318.538
L507.808 318.685
L508.063 318.685
L508.191 316.874
L508.446 316.874
L508.574 318.54
L508.829 318.54
L509.339 318.101
L509.595 304.196
L509.722 318.101
L509.977 318.101
L510.488 318.248
L510.743 318.248
L510.871 318.101
L511.126 318.248
L511.636 317.656
L511.892 318.248
L512.274 318.248
L512.402 318.101
L513.04 318.395
L513.168 318.395
L513.551 316.646
L513.933 316.799
L514.572 316.799
L514.699 318.395
L514.954 318.248
L515.082 318.395
L515.337 318.248
L515.848 318.685
L516.103 318.395
L516.231 318.54
L516.613 318.248
L516.996 318.395
L517.634 318.395
L517.762 318.54
L518.145 318.54
L518.4 318.685
L518.4 318.685" style="fill:none;stroke:#ff0000;stroke-linecap:square;"/>
   </g>
   <g id="line2d_2">
    <path clip-path="url(#pcb2bf987bf)" d="
M72 345.426
L100.969 345.436
L518.4 345.486
L518.4 345.486" style="fill:none;stroke:#008000;stroke-linecap:square;"/>
   </g>
   <g id="patch_3">
    <path d="
M72 43.2
L518.4 43.2" style="fill:none;stroke:#000000;stroke-linecap:square;stroke-linejoin:miter;"/>
   </g>
   <g id="patch_4">
    <path d="
M518.4 345.6
L518.4 43.2" style="fill:none;stroke:#000000;stroke-linecap:square;stroke-linejoin:miter;"/>
   </g>
   <g id="patch_5">
    <path d="
M72 345.6
L518.4 345.6" style="fill:none;stroke:#000000;stroke-linecap:square;stroke-linejoin:miter;"/>
   </g>
   <g id="patch_6">
    <path d="
M72 345.6
L72 43.2" style="fill:none;stroke:#000000;stroke-linecap:square;stroke-linejoin:miter;"/>
   </g>
   <g id="matplotlib.axis_1">
    <g id="xtick_1">
     <g id="line2d_3">
      <defs>
       <path d="
M0 0
L0 -4" id="m93b0483c22" style="stroke:#000000;stroke-width:0.5;"/>
      </defs>
      <g>
       <use style="stroke:#000000;stroke-width:0.5;" x="117.941468267" xlink:href="#m93b0483c22" y="345.6"/>
      </g>
     </g>
     <g id="line2d_4">
      <defs>
       <path d="
M0 0
L0 4" id="m741efc42ff" style="stroke:#000000;stroke-width:0.5;"/>
      </defs>
      <g>
       <use style="stroke:#000000;stroke-width:0.5;" x="117.941468267" xlink:href="#m741efc42ff" y="43.2"/>
      </g>
     </g>
     <g id="text_1">
      <!-- Oct 13 2015 -->
      <defs>
       <path d="
M19.1875 8.29688
L53.6094 8.29688
L53.6094 0
L7.32812 0
L7.32812 8.29688
Q12.9375 14.1094 22.625 23.8906
Q32.3281 33.6875 34.8125 36.5312
Q39.5469 41.8438 41.4219 45.5312
Q43.3125 49.2188 43.3125 52.7812
Q43.3125 58.5938 39.2344 62.25
Q35.1562 65.9219 28.6094 65.9219
Q23.9688 65.9219 18.8125 64.3125
Q13.6719 62.7031 7.8125 59.4219
L7.8125 69.3906
Q13.7656 71.7812 18.9375 73
Q24.125 74.2188 28.4219 74.2188
Q39.75 74.2188 46.4844 68.5469
Q53.2188 62.8906 53.2188 53.4219
Q53.2188 48.9219 51.5312 44.8906
Q49.8594 40.875 45.4062 35.4062
Q44.1875 33.9844 37.6406 27.2188
Q31.1094 20.4531 19.1875 8.29688" id="BitstreamVeraSans-Roman-32"/>
       <path d="
M39.4062 66.2188
Q28.6562 66.2188 22.3281 58.2031
Q16.0156 50.2031 16.0156 36.375
Q16.0156 22.6094 22.3281 14.5938
Q28.6562 6.59375 39.4062 6.59375
Q50.1406 6.59375 56.4219 14.5938
Q62.7031 22.6094 62.7031 36.375
Q62.7031 50.2031 56.4219 58.2031
Q50.1406 66.2188 39.4062 66.2188
M39.4062 74.2188
Q54.7344 74.2188 63.9062 63.9375
Q73.0938 53.6562 73.0938 36.375
Q73.0938 19.1406 63.9062 8.85938
Q54.7344 -1.42188 39.4062 -1.42188
Q24.0312 -1.42188 14.8125 8.82812
Q5.60938 19.0938 5.60938 36.375
Q5.60938 53.6562 14.8125 63.9375
Q24.0312 74.2188 39.4062 74.2188" id="BitstreamVeraSans-Roman-4f"/>
       <path d="
M31.7812 66.4062
Q24.1719 66.4062 20.3281 58.9062
Q16.5 51.4219 16.5 36.375
Q16.5 21.3906 20.3281 13.8906
Q24.1719 6.39062 31.7812 6.39062
Q39.4531 6.39062 43.2812 13.8906
Q47.125 21.3906 47.125 36.375
Q47.125 51.4219 43.2812 58.9062
Q39.4531 66.4062 31.7812 66.4062
M31.7812 74.2188
Q44.0469 74.2188 50.5156 64.5156
Q56.9844 54.8281 56.9844 36.375
Q56.9844 17.9688 50.5156 8.26562
Q44.0469 -1.42188 31.7812 -1.42188
Q19.5312 -1.42188 13.0625 8.26562
Q6.59375 17.9688 6.59375 36.375
Q6.59375 54.8281 13.0625 64.5156
Q19.5312 74.2188 31.7812 74.2188" id="BitstreamVeraSans-Roman-30"/>
       <path d="
M12.4062 8.29688
L28.5156 8.29688
L28.5156 63.9219
L10.9844 60.4062
L10.9844 69.3906
L28.4219 72.9062
L38.2812 72.9062
L38.2812 8.29688
L54.3906 8.29688
L54.3906 0
L12.4062 0
z
" id="BitstreamVeraSans-Roman-31"/>
       <path d="
M40.5781 39.3125
Q47.6562 37.7969 51.625 33
Q55.6094 28.2188 55.6094 21.1875
Q55.6094 10.4062 48.1875 4.48438
Q40.7656 -1.42188 27.0938 -1.42188
Q22.5156 -1.42188 17.6562 -0.515625
Q12.7969 0.390625 7.625 2.20312
L7.625 11.7188
Q11.7188 9.32812 16.5938 8.10938
Q21.4844 6.89062 26.8125 6.89062
Q36.0781 6.89062 40.9375 10.5469
Q45.7969 14.2031 45.7969 21.1875
Q45.7969 27.6406 41.2812 31.2656
Q36.7656 34.9062 28.7188 34.9062
L20.2188 34.9062
L20.2188 43.0156
L29.1094 43.0156
Q36.375 43.0156 40.2344 45.9219
Q44.0938 48.8281 44.0938 54.2969
Q44.0938 59.9062 40.1094 62.9062
Q36.1406 65.9219 28.7188 65.9219
Q24.6562 65.9219 20.0156 65.0312
Q15.375 64.1562 9.8125 62.3125
L9.8125 71.0938
Q15.4375 72.6562 20.3438 73.4375
Q25.25 74.2188 29.5938 74.2188
Q40.8281 74.2188 47.3594 69.1094
Q53.9062 64.0156 53.9062 55.3281
Q53.9062 49.2656 50.4375 45.0938
Q46.9688 40.9219 40.5781 39.3125" id="BitstreamVeraSans-Roman-33"/>
       <path id="BitstreamVeraSans-Roman-20"/>
       <path d="
M10.7969 72.9062
L49.5156 72.9062
L49.5156 64.5938
L19.8281 64.5938
L19.8281 46.7344
Q21.9688 47.4688 24.1094 47.8281
Q26.2656 48.1875 28.4219 48.1875
Q40.625 48.1875 47.75 41.5
Q54.8906 34.8125 54.8906 23.3906
Q54.8906 11.625 47.5625 5.09375
Q40.2344 -1.42188 26.9062 -1.42188
Q22.3125 -1.42188 17.5469 -0.640625
Q12.7969 0.140625 7.71875 1.70312
L7.71875 11.625
Q12.1094 9.23438 16.7969 8.0625
Q21.4844 6.89062 26.7031 6.89062
Q35.1562 6.89062 40.0781 11.3281
Q45.0156 15.7656 45.0156 23.3906
Q45.0156 31 40.0781 35.4375
Q35.1562 39.8906 26.7031 39.8906
Q22.75 39.8906 18.8125 39.0156
Q14.8906 38.1406 10.7969 36.2812
z
" id="BitstreamVeraSans-Roman-35"/>
       <path d="
M18.3125 70.2188
L18.3125 54.6875
L36.8125 54.6875
L36.8125 47.7031
L18.3125 47.7031
L18.3125 18.0156
Q18.3125 11.3281 20.1406 9.42188
Q21.9688 7.51562 27.5938 7.51562
L36.8125 7.51562
L36.8125 0
L27.5938 0
Q17.1875 0 13.2344 3.875
Q9.28125 7.76562 9.28125 18.0156
L9.28125 47.7031
L2.6875 47.7031
L2.6875 54.6875
L9.28125 54.6875
L9.28125 70.2188
z
" id="BitstreamVeraSans-Roman-74"/>
       <path d="
M48.7812 52.5938
L48.7812 44.1875
Q44.9688 46.2969 41.1406 47.3438
Q37.3125 48.3906 33.4062 48.3906
Q24.6562 48.3906 19.8125 42.8438
Q14.9844 37.3125 14.9844 27.2969
Q14.9844 17.2812 19.8125 11.7344
Q24.6562 6.20312 33.4062 6.20312
Q37.3125 6.20312 41.1406 7.25
Q44.9688 8.29688 48.7812 10.4062
L48.7812 2.09375
Q45.0156 0.34375 40.9844 -0.53125
Q36.9688 -1.42188 32.4219 -1.42188
Q20.0625 -1.42188 12.7812 6.34375
Q5.51562 14.1094 5.51562 27.2969
Q5.51562 40.6719 12.8594 48.3281
Q20.2188 56 33.0156 56
Q37.1562 56 41.1094 55.1406
Q45.0625 54.2969 48.7812 52.5938" id="BitstreamVeraSans-Roman-63"/>
      </defs>
      <g transform="translate(53.3541815316 394.065590385)rotate(-30.0)scale(0.12 -0.12)">
       <use xlink:href="#BitstreamVeraSans-Roman-4f"/>
       <use x="78.7109375" xlink:href="#BitstreamVeraSans-Roman-63"/>
       <use x="133.69140625" xlink:href="#BitstreamVeraSans-Roman-74"/>
       <use x="172.900390625" xlink:href="#BitstreamVeraSans-Roman-20"/>
       <use x="204.6875" xlink:href="#BitstreamVeraSans-Roman-31"/>
       <use x="268.310546875" xlink:href="#BitstreamVeraSans-Roman-33"/>
       <use x="331.93359375" xlink:href="#BitstreamVeraSans-Roman-20"/>
       <use x="363.720703125" xlink:href="#BitstreamVeraSans-Roman-32"/>
       <use x="427.34375" xlink:href="#BitstreamVeraSans-Roman-30"/>
       <use x="490.966796875" xlink:href="#BitstreamVeraSans-Roman-31"/>
       <use x="554.58984375" xlink:href="#BitstreamVeraSans-Roman-35"/>
      </g>
     </g>
    </g>
    <g id="xtick_2">
     <g id="line2d_5">
      <g>
       <use style="stroke:#000000;stroke-width:0.5;" x="173.071485419" xlink:href="#m93b0483c22" y="345.6"/>
      </g>
     </g>
     <g id="line2d_6">
      <g>
       <use style="stroke:#000000;stroke-width:0.5;" x="173.071485419" xlink:href="#m741efc42ff" y="43.2"/>
      </g>
     </g>
     <g id="text_2">
      <!-- Oct 16 2015 -->
      <defs>
       <path d="
M33.0156 40.375
Q26.375 40.375 22.4844 35.8281
Q18.6094 31.2969 18.6094 23.3906
Q18.6094 15.5312 22.4844 10.9531
Q26.375 6.39062 33.0156 6.39062
Q39.6562 6.39062 43.5312 10.9531
Q47.4062 15.5312 47.4062 23.3906
Q47.4062 31.2969 43.5312 35.8281
Q39.6562 40.375 33.0156 40.375
M52.5938 71.2969
L52.5938 62.3125
Q48.875 64.0625 45.0938 64.9844
Q41.3125 65.9219 37.5938 65.9219
Q27.8281 65.9219 22.6719 59.3281
Q17.5312 52.7344 16.7969 39.4062
Q19.6719 43.6562 24.0156 45.9219
Q28.375 48.1875 33.5938 48.1875
Q44.5781 48.1875 50.9531 41.5156
Q57.3281 34.8594 57.3281 23.3906
Q57.3281 12.1562 50.6875 5.35938
Q44.0469 -1.42188 33.0156 -1.42188
Q20.3594 -1.42188 13.6719 8.26562
Q6.98438 17.9688 6.98438 36.375
Q6.98438 53.6562 15.1875 63.9375
Q23.3906 74.2188 37.2031 74.2188
Q40.9219 74.2188 44.7031 73.4844
Q48.4844 72.75 52.5938 71.2969" id="BitstreamVeraSans-Roman-36"/>
      </defs>
      <g transform="translate(108.484198684 394.065590385)rotate(-30.0)scale(0.12 -0.12)">
       <use xlink:href="#BitstreamVeraSans-Roman-4f"/>
       <use x="78.7109375" xlink:href="#BitstreamVeraSans-Roman-63"/>
       <use x="133.69140625" xlink:href="#BitstreamVeraSans-Roman-74"/>
       <use x="172.900390625" xlink:href="#BitstreamVeraSans-Roman-20"/>
       <use x="204.6875" xlink:href="#BitstreamVeraSans-Roman-31"/>
       <use x="268.310546875" xlink:href="#BitstreamVeraSans-Roman-36"/>
       <use x="331.93359375" xlink:href="#BitstreamVeraSans-Roman-20"/>
       <use x="363.720703125" xlink:href="#BitstreamVeraSans-Roman-32"/>
       <use x="427.34375" xlink:href="#BitstreamVeraSans-Roman-30"/>
       <use x="490.966796875" xlink:href="#BitstreamVeraSans-Roman-31"/>
       <use x="554.58984375" xlink:href="#BitstreamVeraSans-Roman-35"/>
      </g>
     </g>
    </g>
    <g id="xtick_3">
     <g id="line2d_7">
      <g>
       <use style="stroke:#000000;stroke-width:0.5;" x="228.201502573" xlink:href="#m93b0483c22" y="345.6"/>
      </g>
     </g>
     <g id="line2d_8">
      <g>
       <use style="stroke:#000000;stroke-width:0.5;" x="228.201502573" xlink:href="#m741efc42ff" y="43.2"/>
      </g>
     </g>
     <g id="text_3">
      <!-- Oct 19 2015 -->
      <defs>
       <path d="
M10.9844 1.51562
L10.9844 10.5
Q14.7031 8.73438 18.5 7.8125
Q22.3125 6.89062 25.9844 6.89062
Q35.75 6.89062 40.8906 13.4531
Q46.0469 20.0156 46.7812 33.4062
Q43.9531 29.2031 39.5938 26.9531
Q35.25 24.7031 29.9844 24.7031
Q19.0469 24.7031 12.6719 31.3125
Q6.29688 37.9375 6.29688 49.4219
Q6.29688 60.6406 12.9375 67.4219
Q19.5781 74.2188 30.6094 74.2188
Q43.2656 74.2188 49.9219 64.5156
Q56.5938 54.8281 56.5938 36.375
Q56.5938 19.1406 48.4062 8.85938
Q40.2344 -1.42188 26.4219 -1.42188
Q22.7031 -1.42188 18.8906 -0.6875
Q15.0938 0.046875 10.9844 1.51562
M30.6094 32.4219
Q37.25 32.4219 41.125 36.9531
Q45.0156 41.5 45.0156 49.4219
Q45.0156 57.2812 41.125 61.8438
Q37.25 66.4062 30.6094 66.4062
Q23.9688 66.4062 20.0938 61.8438
Q16.2188 57.2812 16.2188 49.4219
Q16.2188 41.5 20.0938 36.9531
Q23.9688 32.4219 30.6094 32.4219" id="BitstreamVeraSans-Roman-39"/>
      </defs>
      <g transform="translate(163.614215838 394.065590385)rotate(-30.0)scale(0.12 -0.12)">
       <use xlink:href="#BitstreamVeraSans-Roman-4f"/>
       <use x="78.7109375" xlink:href="#BitstreamVeraSans-Roman-63"/>
       <use x="133.69140625" xlink:href="#BitstreamVeraSans-Roman-74"/>
       <use x="172.900390625" xlink:href="#BitstreamVeraSans-Roman-20"/>
       <use x="204.6875" xlink:href="#BitstreamVeraSans-Roman-31"/>
       <use x="268.310546875" xlink:href="#BitstreamVeraSans-Roman-39"/>
       <use x="331.93359375" xlink:href="#BitstreamVeraSans-Roman-20"/>
       <use x="363.720703125" xlink:href="#BitstreamVeraSans-Roman-32"/>
       <use x="427.34375" xlink:href="#BitstreamVeraSans-Roman-30"/>
       <use x="490.966796875" xlink:href="#BitstreamVeraSans-Roman-31"/>
       <use x="554.58984375" xlink:href="#BitstreamVeraSans-Roman-35"/>
      </g>
     </g>
    </g>
    <g id="xtick_4">
     <g id="line2d_9">
      <g>
       <use style="stroke:#000000;stroke-width:0.5;" x="283.331519725" xlink:href="#m93b0483c22" y="345.6"/>
      </g>
     </g>
     <g id="line2d_10">
      <g>
       <use style="stroke:#000000;stroke-width:0.5;" x="283.331519725" xlink:href="#m741efc42ff" y="43.2"/>
      </g>
     </g>
     <g id="text_4">
      <!-- Oct 22 2015 -->
      <g transform="translate(218.74423299 394.065590385)rotate(-30.0)scale(0.12 -0.12)">
       <use xlink:href="#BitstreamVeraSans-Roman-4f"/>
       <use x="78.7109375" xlink:href="#BitstreamVeraSans-Roman-63"/>
       <use x="133.69140625" xlink:href="#BitstreamVeraSans-Roman-74"/>
       <use x="172.900390625" xlink:href="#BitstreamVeraSans-Roman-20"/>
       <use x="204.6875" xlink:href="#BitstreamVeraSans-Roman-32"/>
       <use x="268.310546875" xlink:href="#BitstreamVeraSans-Roman-32"/>
       <use x="331.93359375" xlink:href="#BitstreamVeraSans-Roman-20"/>
       <use x="363.720703125" xlink:href="#BitstreamVeraSans-Roman-32"/>
       <use x="427.34375" xlink:href="#BitstreamVeraSans-Roman-30"/>
       <use x="490.966796875" xlink:href="#BitstreamVeraSans-Roman-31"/>
       <use x="554.58984375" xlink:href="#BitstreamVeraSans-Roman-35"/>
      </g>
     </g>
    </g>
    <g id="xtick_5">
     <g id="line2d_11">
      <g>
       <use style="stroke:#000000;stroke-width:0.5;" x="338.461536877" xlink:href="#m93b0483c22" y="345.6"/>
      </g>
     </g>
     <g id="line2d_12">
      <g>
       <use style="stroke:#000000;stroke-width:0.5;" x="338.461536877" xlink:href="#m741efc42ff" y="43.2"/>
      </g>
     </g>
     <g id="text_5">
      <!-- Oct 25 2015 -->
      <g transform="translate(273.874250142 394.065590385)rotate(-30.0)scale(0.12 -0.12)">
       <use xlink:href="#BitstreamVeraSans-Roman-4f"/>
       <use x="78.7109375" xlink:href="#BitstreamVeraSans-Roman-63"/>
       <use x="133.69140625" xlink:href="#BitstreamVeraSans-Roman-74"/>
       <use x="172.900390625" xlink:href="#BitstreamVeraSans-Roman-20"/>
       <use x="204.6875" xlink:href="#BitstreamVeraSans-Roman-32"/>
       <use x="268.310546875" xlink:href="#BitstreamVeraSans-Roman-35"/>
       <use x="331.93359375" xlink:href="#BitstreamVeraSans-Roman-20"/>
       <use x="363.720703125" xlink:href="#BitstreamVeraSans-Roman-32"/>
       <use x="427.34375" xlink:href="#BitstreamVeraSans-Roman-30"/>
       <use x="490.966796875" xlink:href="#BitstreamVeraSans-Roman-31"/>
       <use x="554.58984375" xlink:href="#BitstreamVeraSans-Roman-35"/>
      </g>
     </g>
    </g>
    <g id="xtick_6">
     <g id="line2d_13">
      <g>
       <use style="stroke:#000000;stroke-width:0.5;" x="393.591554031" xlink:href="#m93b0483c22" y="345.6"/>
      </g>
     </g>
     <g id="line2d_14">
      <g>
       <use style="stroke:#000000;stroke-width:0.5;" x="393.591554031" xlink:href="#m741efc42ff" y="43.2"/>
      </g>
     </g>
     <g id="text_6">
      <!-- Oct 28 2015 -->
      <defs>
       <path d="
M31.7812 34.625
Q24.75 34.625 20.7188 30.8594
Q16.7031 27.0938 16.7031 20.5156
Q16.7031 13.9219 20.7188 10.1562
Q24.75 6.39062 31.7812 6.39062
Q38.8125 6.39062 42.8594 10.1719
Q46.9219 13.9688 46.9219 20.5156
Q46.9219 27.0938 42.8906 30.8594
Q38.875 34.625 31.7812 34.625
M21.9219 38.8125
Q15.5781 40.375 12.0312 44.7188
Q8.5 49.0781 8.5 55.3281
Q8.5 64.0625 14.7188 69.1406
Q20.9531 74.2188 31.7812 74.2188
Q42.6719 74.2188 48.875 69.1406
Q55.0781 64.0625 55.0781 55.3281
Q55.0781 49.0781 51.5312 44.7188
Q48 40.375 41.7031 38.8125
Q48.8281 37.1562 52.7969 32.3125
Q56.7812 27.4844 56.7812 20.5156
Q56.7812 9.90625 50.3125 4.23438
Q43.8438 -1.42188 31.7812 -1.42188
Q19.7344 -1.42188 13.25 4.23438
Q6.78125 9.90625 6.78125 20.5156
Q6.78125 27.4844 10.7812 32.3125
Q14.7969 37.1562 21.9219 38.8125
M18.3125 54.3906
Q18.3125 48.7344 21.8438 45.5625
Q25.3906 42.3906 31.7812 42.3906
Q38.1406 42.3906 41.7188 45.5625
Q45.3125 48.7344 45.3125 54.3906
Q45.3125 60.0625 41.7188 63.2344
Q38.1406 66.4062 31.7812 66.4062
Q25.3906 66.4062 21.8438 63.2344
Q18.3125 60.0625 18.3125 54.3906" id="BitstreamVeraSans-Roman-38"/>
      </defs>
      <g transform="translate(329.004267296 394.065590385)rotate(-30.0)scale(0.12 -0.12)">
       <use xlink:href="#BitstreamVeraSans-Roman-4f"/>
       <use x="78.7109375" xlink:href="#BitstreamVeraSans-Roman-63"/>
       <use x="133.69140625" xlink:href="#BitstreamVeraSans-Roman-74"/>
       <use x="172.900390625" xlink:href="#BitstreamVeraSans-Roman-20"/>
       <use x="204.6875" xlink:href="#BitstreamVeraSans-Roman-32"/>
       <use x="268.310546875" xlink:href="#BitstreamVeraSans-Roman-38"/>
       <use x="331.93359375" xlink:href="#BitstreamVeraSans-Roman-20"/>
       <use x="363.720703125" xlink:href="#BitstreamVeraSans-Roman-32"/>
       <use x="427.34375" xlink:href="#BitstreamVeraSans-Roman-30"/>
       <use x="490.966796875" xlink:href="#BitstreamVeraSans-Roman-31"/>
       <use x="554.58984375" xlink:href="#BitstreamVeraSans-Roman-35"/>
      </g>
     </g>
    </g>
    <g id="xtick_7">
     <g id="line2d_15">
      <g>
       <use style="stroke:#000000;stroke-width:0.5;" x="448.721571183" xlink:href="#m93b0483c22" y="345.6"/>
      </g>
     </g>
     <g id="line2d_16">
      <g>
       <use style="stroke:#000000;stroke-width:0.5;" x="448.721571183" xlink:href="#m741efc42ff" y="43.2"/>
      </g>
     </g>
     <g id="text_7">
      <!-- Oct 31 2015 -->
      <g transform="translate(384.134284448 394.065590385)rotate(-30.0)scale(0.12 -0.12)">
       <use xlink:href="#BitstreamVeraSans-Roman-4f"/>
       <use x="78.7109375" xlink:href="#BitstreamVeraSans-Roman-63"/>
       <use x="133.69140625" xlink:href="#BitstreamVeraSans-Roman-74"/>
       <use x="172.900390625" xlink:href="#BitstreamVeraSans-Roman-20"/>
       <use x="204.6875" xlink:href="#BitstreamVeraSans-Roman-33"/>
       <use x="268.310546875" xlink:href="#BitstreamVeraSans-Roman-31"/>
       <use x="331.93359375" xlink:href="#BitstreamVeraSans-Roman-20"/>
       <use x="363.720703125" xlink:href="#BitstreamVeraSans-Roman-32"/>
       <use x="427.34375" xlink:href="#BitstreamVeraSans-Roman-30"/>
       <use x="490.966796875" xlink:href="#BitstreamVeraSans-Roman-31"/>
       <use x="554.58984375" xlink:href="#BitstreamVeraSans-Roman-35"/>
      </g>
     </g>
    </g>
    <g id="xtick_8">
     <g id="line2d_17">
      <g>
       <use style="stroke:#000000;stroke-width:0.5;" x="503.851588335" xlink:href="#m93b0483c22" y="345.6"/>
      </g>
     </g>
     <g id="line2d_18">
      <g>
       <use style="stroke:#000000;stroke-width:0.5;" x="503.851588335" xlink:href="#m741efc42ff" y="43.2"/>
      </g>
     </g>
     <g id="text_8">
      <!-- Nov 03 2015 -->
      <defs>
       <path d="
M2.98438 54.6875
L12.5 54.6875
L29.5938 8.79688
L46.6875 54.6875
L56.2031 54.6875
L35.6875 0
L23.4844 0
z
" id="BitstreamVeraSans-Roman-76"/>
       <path d="
M9.8125 72.9062
L23.0938 72.9062
L55.4219 11.9219
L55.4219 72.9062
L64.9844 72.9062
L64.9844 0
L51.7031 0
L19.3906 60.9844
L19.3906 0
L9.8125 0
z
" id="BitstreamVeraSans-Roman-4e"/>
       <path d="
M30.6094 48.3906
Q23.3906 48.3906 19.1875 42.75
Q14.9844 37.1094 14.9844 27.2969
Q14.9844 17.4844 19.1562 11.8438
Q23.3438 6.20312 30.6094 6.20312
Q37.7969 6.20312 41.9844 11.8594
Q46.1875 17.5312 46.1875 27.2969
Q46.1875 37.0156 41.9844 42.7031
Q37.7969 48.3906 30.6094 48.3906
M30.6094 56
Q42.3281 56 49.0156 48.375
Q55.7188 40.7656 55.7188 27.2969
Q55.7188 13.875 49.0156 6.21875
Q42.3281 -1.42188 30.6094 -1.42188
Q18.8438 -1.42188 12.1719 6.21875
Q5.51562 13.875 5.51562 27.2969
Q5.51562 40.7656 12.1719 48.375
Q18.8438 56 30.6094 56" id="BitstreamVeraSans-Roman-6f"/>
      </defs>
      <g transform="translate(436.948766176 395.402465385)rotate(-30.0)scale(0.12 -0.12)">
       <use xlink:href="#BitstreamVeraSans-Roman-4e"/>
       <use x="74.8046875" xlink:href="#BitstreamVeraSans-Roman-6f"/>
       <use x="135.986328125" xlink:href="#BitstreamVeraSans-Roman-76"/>
       <use x="195.166015625" xlink:href="#BitstreamVeraSans-Roman-20"/>
       <use x="226.953125" xlink:href="#BitstreamVeraSans-Roman-30"/>
       <use x="290.576171875" xlink:href="#BitstreamVeraSans-Roman-33"/>
       <use x="354.19921875" xlink:href="#BitstreamVeraSans-Roman-20"/>
       <use x="385.986328125" xlink:href="#BitstreamVeraSans-Roman-32"/>
       <use x="449.609375" xlink:href="#BitstreamVeraSans-Roman-30"/>
       <use x="513.232421875" xlink:href="#BitstreamVeraSans-Roman-31"/>
       <use x="576.85546875" xlink:href="#BitstreamVeraSans-Roman-35"/>
      </g>
     </g>
    </g>
   </g>
   <g id="matplotlib.axis_2">
    <g id="ytick_1">
     <g id="line2d_19">
      <defs>
       <path d="
M0 0
L4 0" id="m728421d6d4" style="stroke:#000000;stroke-width:0.5;"/>
      </defs>
      <g>
       <use style="stroke:#000000;stroke-width:0.5;" x="72.0" xlink:href="#m728421d6d4" y="311.440608667"/>
      </g>
     </g>
     <g id="line2d_20">
      <defs>
       <path d="
M0 0
L-4 0" id="mcb0005524f" style="stroke:#000000;stroke-width:0.5;"/>
      </defs>
      <g>
       <use style="stroke:#000000;stroke-width:0.5;" x="518.4" xlink:href="#mcb0005524f" y="311.440608667"/>
      </g>
     </g>
     <g id="text_9">
      <!-- 1 -->
      <g transform="translate(62.79125 314.751858667)scale(0.12 -0.12)">
       <use xlink:href="#BitstreamVeraSans-Roman-31"/>
      </g>
     </g>
    </g>
    <g id="ytick_2">
     <g id="line2d_21">
      <g>
       <use style="stroke:#000000;stroke-width:0.5;" x="72.0" xlink:href="#m728421d6d4" y="275.217705969"/>
      </g>
     </g>
     <g id="line2d_22">
      <g>
       <use style="stroke:#000000;stroke-width:0.5;" x="518.4" xlink:href="#mcb0005524f" y="275.217705969"/>
      </g>
     </g>
     <g id="text_10">
      <!-- 2 -->
      <g transform="translate(62.44625 278.528955969)scale(0.12 -0.12)">
       <use xlink:href="#BitstreamVeraSans-Roman-32"/>
      </g>
     </g>
    </g>
    <g id="ytick_3">
     <g id="line2d_23">
      <g>
       <use style="stroke:#000000;stroke-width:0.5;" x="72.0" xlink:href="#m728421d6d4" y="238.99480327"/>
      </g>
     </g>
     <g id="line2d_24">
      <g>
       <use style="stroke:#000000;stroke-width:0.5;" x="518.4" xlink:href="#mcb0005524f" y="238.99480327"/>
      </g>
     </g>
     <g id="text_11">
      <!-- 3 -->
      <g transform="translate(62.241875 242.30605327)scale(0.12 -0.12)">
       <use xlink:href="#BitstreamVeraSans-Roman-33"/>
      </g>
     </g>
    </g>
    <g id="ytick_4">
     <g id="line2d_25">
      <g>
       <use style="stroke:#000000;stroke-width:0.5;" x="72.0" xlink:href="#m728421d6d4" y="202.771900571"/>
      </g>
     </g>
     <g id="line2d_26">
      <g>
       <use style="stroke:#000000;stroke-width:0.5;" x="518.4" xlink:href="#mcb0005524f" y="202.771900571"/>
      </g>
     </g>
     <g id="text_12">
      <!-- 4 -->
      <defs>
       <path d="
M37.7969 64.3125
L12.8906 25.3906
L37.7969 25.3906
z

M35.2031 72.9062
L47.6094 72.9062
L47.6094 25.3906
L58.0156 25.3906
L58.0156 17.1875
L47.6094 17.1875
L47.6094 0
L37.7969 0
L37.7969 17.1875
L4.89062 17.1875
L4.89062 26.7031
z
" id="BitstreamVeraSans-Roman-34"/>
      </defs>
      <g transform="translate(61.625 206.083150571)scale(0.12 -0.12)">
       <use xlink:href="#BitstreamVeraSans-Roman-34"/>
      </g>
     </g>
    </g>
    <g id="ytick_5">
     <g id="line2d_27">
      <g>
       <use style="stroke:#000000;stroke-width:0.5;" x="72.0" xlink:href="#m728421d6d4" y="166.548997873"/>
      </g>
     </g>
     <g id="line2d_28">
      <g>
       <use style="stroke:#000000;stroke-width:0.5;" x="518.4" xlink:href="#mcb0005524f" y="166.548997873"/>
      </g>
     </g>
     <g id="text_13">
      <!-- 5 -->
      <g transform="translate(62.339375 169.860247873)scale(0.12 -0.12)">
       <use xlink:href="#BitstreamVeraSans-Roman-35"/>
      </g>
     </g>
    </g>
    <g id="ytick_6">
     <g id="line2d_29">
      <g>
       <use style="stroke:#000000;stroke-width:0.5;" x="72.0" xlink:href="#m728421d6d4" y="130.326095174"/>
      </g>
     </g>
     <g id="line2d_30">
      <g>
       <use style="stroke:#000000;stroke-width:0.5;" x="518.4" xlink:href="#mcb0005524f" y="130.326095174"/>
      </g>
     </g>
     <g id="text_14">
      <!-- 6 -->
      <g transform="translate(61.95875 133.637345174)scale(0.12 -0.12)">
       <use xlink:href="#BitstreamVeraSans-Roman-36"/>
      </g>
     </g>
    </g>
    <g id="ytick_7">
     <g id="line2d_31">
      <g>
       <use style="stroke:#000000;stroke-width:0.5;" x="72.0" xlink:href="#m728421d6d4" y="94.1031924753"/>
      </g>
     </g>
     <g id="line2d_32">
      <g>
       <use style="stroke:#000000;stroke-width:0.5;" x="518.4" xlink:href="#mcb0005524f" y="94.1031924753"/>
      </g>
     </g>
     <g id="text_15">
      <!-- 7 -->
      <defs>
       <path d="
M8.20312 72.9062
L55.0781 72.9062
L55.0781 68.7031
L28.6094 0
L18.3125 0
L43.2188 64.5938
L8.20312 64.5938
z
" id="BitstreamVeraSans-Roman-37"/>
      </defs>
      <g transform="translate(62.375 97.4144424753)scale(0.12 -0.12)">
       <use xlink:href="#BitstreamVeraSans-Roman-37"/>
      </g>
     </g>
    </g>
    <g id="ytick_8">
     <g id="line2d_33">
      <g>
       <use style="stroke:#000000;stroke-width:0.5;" x="72.0" xlink:href="#m728421d6d4" y="57.8802897766"/>
      </g>
     </g>
     <g id="line2d_34">
      <g>
       <use style="stroke:#000000;stroke-width:0.5;" x="518.4" xlink:href="#mcb0005524f" y="57.8802897766"/>
      </g>
     </g>
     <g id="text_16">
      <!-- 8 -->
      <g transform="translate(62.0 61.1915397766)scale(0.12 -0.12)">
       <use xlink:href="#BitstreamVeraSans-Roman-38"/>
      </g>
     </g>
    </g>
    <g id="text_17">
     <!-- 1e7 -->
     <defs>
      <path d="
M56.2031 29.5938
L56.2031 25.2031
L14.8906 25.2031
Q15.4844 15.9219 20.4844 11.0625
Q25.4844 6.20312 34.4219 6.20312
Q39.5938 6.20312 44.4531 7.46875
Q49.3125 8.73438 54.1094 11.2812
L54.1094 2.78125
Q49.2656 0.734375 44.1875 -0.34375
Q39.1094 -1.42188 33.8906 -1.42188
Q20.7969 -1.42188 13.1562 6.1875
Q5.51562 13.8125 5.51562 26.8125
Q5.51562 40.2344 12.7656 48.1094
Q20.0156 56 32.3281 56
Q43.3594 56 49.7812 48.8906
Q56.2031 41.7969 56.2031 29.5938
M47.2188 32.2344
Q47.125 39.5938 43.0938 43.9844
Q39.0625 48.3906 32.4219 48.3906
Q24.9062 48.3906 20.3906 44.1406
Q15.875 39.8906 15.1875 32.1719
z
" id="BitstreamVeraSans-Roman-65"/>
     </defs>
     <g transform="translate(72.0 40.2)scale(0.12 -0.12)">
      <use xlink:href="#BitstreamVeraSans-Roman-31"/>
      <use x="63.623046875" xlink:href="#BitstreamVeraSans-Roman-65"/>
      <use x="125.146484375" xlink:href="#BitstreamVeraSans-Roman-37"/>
     </g>
    </g>
   </g>
   <g id="text_18">
    <!-- Drohnenwrack -->
    <defs>
     <path d="
M54.8906 33.0156
L54.8906 0
L45.9062 0
L45.9062 32.7188
Q45.9062 40.4844 42.875 44.3281
Q39.8438 48.1875 33.7969 48.1875
Q26.5156 48.1875 22.3125 43.5469
Q18.1094 38.9219 18.1094 30.9062
L18.1094 0
L9.07812 0
L9.07812 54.6875
L18.1094 54.6875
L18.1094 46.1875
Q21.3438 51.125 25.7031 53.5625
Q30.0781 56 35.7969 56
Q45.2188 56 50.0469 50.1719
Q54.8906 44.3438 54.8906 33.0156" id="BitstreamVeraSans-Roman-6e"/>
     <path d="
M41.1094 46.2969
Q39.5938 47.1719 37.8125 47.5781
Q36.0312 48 33.8906 48
Q26.2656 48 22.1875 43.0469
Q18.1094 38.0938 18.1094 28.8125
L18.1094 0
L9.07812 0
L9.07812 54.6875
L18.1094 54.6875
L18.1094 46.1875
Q20.9531 51.1719 25.4844 53.5781
Q30.0312 56 36.5312 56
Q37.4531 56 38.5781 55.875
Q39.7031 55.7656 41.0625 55.5156
z
" id="BitstreamVeraSans-Roman-72"/>
     <path d="
M9.07812 75.9844
L18.1094 75.9844
L18.1094 31.1094
L44.9219 54.6875
L56.3906 54.6875
L27.3906 29.1094
L57.625 0
L45.9062 0
L18.1094 26.7031
L18.1094 0
L9.07812 0
z
" id="BitstreamVeraSans-Roman-6b"/>
     <path d="
M19.6719 64.7969
L19.6719 8.10938
L31.5938 8.10938
Q46.6875 8.10938 53.6875 14.9375
Q60.6875 21.7812 60.6875 36.5312
Q60.6875 51.1719 53.6875 57.9844
Q46.6875 64.7969 31.5938 64.7969
z

M9.8125 72.9062
L30.0781 72.9062
Q51.2656 72.9062 61.1719 64.0938
Q71.0938 55.2812 71.0938 36.5312
Q71.0938 17.6719 61.125 8.82812
Q51.1719 0 30.0781 0
L9.8125 0
z
" id="BitstreamVeraSans-Roman-44"/>
     <path d="
M54.8906 33.0156
L54.8906 0
L45.9062 0
L45.9062 32.7188
Q45.9062 40.4844 42.875 44.3281
Q39.8438 48.1875 33.7969 48.1875
Q26.5156 48.1875 22.3125 43.5469
Q18.1094 38.9219 18.1094 30.9062
L18.1094 0
L9.07812 0
L9.07812 75.9844
L18.1094 75.9844
L18.1094 46.1875
Q21.3438 51.125 25.7031 53.5625
Q30.0781 56 35.7969 56
Q45.2188 56 50.0469 50.1719
Q54.8906 44.3438 54.8906 33.0156" id="BitstreamVeraSans-Roman-68"/>
     <path d="
M4.20312 54.6875
L13.1875 54.6875
L24.4219 12.0156
L35.5938 54.6875
L46.1875 54.6875
L57.4219 12.0156
L68.6094 54.6875
L77.5938 54.6875
L63.2812 0
L52.6875 0
L40.9219 44.8281
L29.1094 0
L18.5 0
z
" id="BitstreamVeraSans-Roman-77"/>
     <path d="
M34.2812 27.4844
Q23.3906 27.4844 19.1875 25
Q14.9844 22.5156 14.9844 16.5
Q14.9844 11.7188 18.1406 8.90625
Q21.2969 6.10938 26.7031 6.10938
Q34.1875 6.10938 38.7031 11.4062
Q43.2188 16.7031 43.2188 25.4844
L43.2188 27.4844
z

M52.2031 31.2031
L52.2031 0
L43.2188 0
L43.2188 8.29688
Q40.1406 3.32812 35.5469 0.953125
Q30.9531 -1.42188 24.3125 -1.42188
Q15.9219 -1.42188 10.9531 3.29688
Q6 8.01562 6 15.9219
Q6 25.1406 12.1719 29.8281
Q18.3594 34.5156 30.6094 34.5156
L43.2188 34.5156
L43.2188 35.4062
Q43.2188 41.6094 39.1406 45
Q35.0625 48.3906 27.6875 48.3906
Q23 48.3906 18.5469 47.2656
Q14.1094 46.1406 10.0156 43.8906
L10.0156 52.2031
Q14.9375 54.1094 19.5781 55.0469
Q24.2188 56 28.6094 56
Q40.4844 56 46.3438 49.8438
Q52.2031 43.7031 52.2031 31.2031" id="BitstreamVeraSans-Roman-61"/>
    </defs>
    <g transform="translate(415.34325 38.2)scale(0.144 -0.144)">
     <use xlink:href="#BitstreamVeraSans-Roman-44"/>
     <use x="77.001953125" xlink:href="#BitstreamVeraSans-Roman-72"/>
     <use x="115.865234375" xlink:href="#BitstreamVeraSans-Roman-6f"/>
     <use x="177.046875" xlink:href="#BitstreamVeraSans-Roman-68"/>
     <use x="240.42578125" xlink:href="#BitstreamVeraSans-Roman-6e"/>
     <use x="303.8046875" xlink:href="#BitstreamVeraSans-Roman-65"/>
     <use x="365.328125" xlink:href="#BitstreamVeraSans-Roman-6e"/>
     <use x="428.70703125" xlink:href="#BitstreamVeraSans-Roman-77"/>
     <use x="510.494140625" xlink:href="#BitstreamVeraSans-Roman-72"/>
     <use x="551.607421875" xlink:href="#BitstreamVeraSans-Roman-61"/>
     <use x="612.88671875" xlink:href="#BitstreamVeraSans-Roman-63"/>
     <use x="667.8671875" xlink:href="#BitstreamVeraSans-Roman-6b"/>
    </g>
   </g>
   <g id="legend_1">
    <g id="patch_7">
     <path d="
M123.942 423.616
L466.458 423.616
L466.458 398.16
L123.942 398.16
z
" style="fill:#ffffff;stroke:#000000;stroke-linejoin:miter;"/>
    </g>
    <g id="line2d_35">
     <path d="
M134.022 409.822
L154.182 409.822" style="fill:none;stroke:#ff0000;stroke-linecap:square;"/>
    </g>
    <g id="line2d_36"/>
    <g id="text_19">
     <!-- Schwarzmarktpreis -->
     <defs>
      <path d="
M52 44.1875
Q55.375 50.25 60.0625 53.125
Q64.75 56 71.0938 56
Q79.6406 56 84.2812 50.0156
Q88.9219 44.0469 88.9219 33.0156
L88.9219 0
L79.8906 0
L79.8906 32.7188
Q79.8906 40.5781 77.0938 44.375
Q74.3125 48.1875 68.6094 48.1875
Q61.625 48.1875 57.5625 43.5469
Q53.5156 38.9219 53.5156 30.9062
L53.5156 0
L44.4844 0
L44.4844 32.7188
Q44.4844 40.625 41.7031 44.4062
Q38.9219 48.1875 33.1094 48.1875
Q26.2188 48.1875 22.1562 43.5312
Q18.1094 38.875 18.1094 30.9062
L18.1094 0
L9.07812 0
L9.07812 54.6875
L18.1094 54.6875
L18.1094 46.1875
Q21.1875 51.2188 25.4844 53.6094
Q29.7812 56 35.6875 56
Q41.6562 56 45.8281 52.9688
Q50 49.9531 52 44.1875" id="BitstreamVeraSans-Roman-6d"/>
      <path d="
M5.51562 54.6875
L48.1875 54.6875
L48.1875 46.4844
L14.4062 7.17188
L48.1875 7.17188
L48.1875 0
L4.29688 0
L4.29688 8.20312
L38.0938 47.5156
L5.51562 47.5156
z
" id="BitstreamVeraSans-Roman-7a"/>
      <path d="
M53.5156 70.5156
L53.5156 60.8906
Q47.9062 63.5781 42.9219 64.8906
Q37.9375 66.2188 33.2969 66.2188
Q25.25 66.2188 20.875 63.0938
Q16.5 59.9688 16.5 54.2031
Q16.5 49.3594 19.4062 46.8906
Q22.3125 44.4375 30.4219 42.9219
L36.375 41.7031
Q47.4062 39.5938 52.6562 34.2969
Q57.9062 29 57.9062 20.125
Q57.9062 9.51562 50.7969 4.04688
Q43.7031 -1.42188 29.9844 -1.42188
Q24.8125 -1.42188 18.9688 -0.25
Q13.1406 0.921875 6.89062 3.21875
L6.89062 13.375
Q12.8906 10.0156 18.6562 8.29688
Q24.4219 6.59375 29.9844 6.59375
Q38.4219 6.59375 43.0156 9.90625
Q47.6094 13.2344 47.6094 19.3906
Q47.6094 24.75 44.3125 27.7812
Q41.0156 30.8125 33.5 32.3281
L27.4844 33.5
Q16.4531 35.6875 11.5156 40.375
Q6.59375 45.0625 6.59375 53.4219
Q6.59375 63.0938 13.4062 68.6562
Q20.2188 74.2188 32.1719 74.2188
Q37.3125 74.2188 42.625 73.2812
Q47.9531 72.3594 53.5156 70.5156" id="BitstreamVeraSans-Roman-53"/>
      <path d="
M9.42188 54.6875
L18.4062 54.6875
L18.4062 0
L9.42188 0
z

M9.42188 75.9844
L18.4062 75.9844
L18.4062 64.5938
L9.42188 64.5938
z
" id="BitstreamVeraSans-Roman-69"/>
      <path d="
M44.2812 53.0781
L44.2812 44.5781
Q40.4844 46.5312 36.375 47.5
Q32.2812 48.4844 27.875 48.4844
Q21.1875 48.4844 17.8438 46.4375
Q14.5 44.3906 14.5 40.2812
Q14.5 37.1562 16.8906 35.375
Q19.2812 33.5938 26.5156 31.9844
L29.5938 31.2969
Q39.1562 29.25 43.1875 25.5156
Q47.2188 21.7812 47.2188 15.0938
Q47.2188 7.46875 41.1875 3.01562
Q35.1562 -1.42188 24.6094 -1.42188
Q20.2188 -1.42188 15.4531 -0.5625
Q10.6875 0.296875 5.42188 2
L5.42188 11.2812
Q10.4062 8.6875 15.2344 7.39062
Q20.0625 6.10938 24.8125 6.10938
Q31.1562 6.10938 34.5625 8.28125
Q37.9844 10.4531 37.9844 14.4062
Q37.9844 18.0625 35.5156 20.0156
Q33.0625 21.9688 24.7031 23.7812
L21.5781 24.5156
Q13.2344 26.2656 9.51562 29.9062
Q5.8125 33.5469 5.8125 39.8906
Q5.8125 47.6094 11.2812 51.7969
Q16.75 56 26.8125 56
Q31.7812 56 36.1719 55.2656
Q40.5781 54.5469 44.2812 53.0781" id="BitstreamVeraSans-Roman-73"/>
      <path d="
M18.1094 8.20312
L18.1094 -20.7969
L9.07812 -20.7969
L9.07812 54.6875
L18.1094 54.6875
L18.1094 46.3906
Q20.9531 51.2656 25.2656 53.625
Q29.5938 56 35.5938 56
Q45.5625 56 51.7812 48.0938
Q58.0156 40.1875 58.0156 27.2969
Q58.0156 14.4062 51.7812 6.48438
Q45.5625 -1.42188 35.5938 -1.42188
Q29.5938 -1.42188 25.2656 0.953125
Q20.9531 3.32812 18.1094 8.20312
M48.6875 27.2969
Q48.6875 37.2031 44.6094 42.8438
Q40.5312 48.4844 33.4062 48.4844
Q26.2656 48.4844 22.1875 42.8438
Q18.1094 37.2031 18.1094 27.2969
Q18.1094 17.3906 22.1875 11.75
Q26.2656 6.10938 33.4062 6.10938
Q40.5312 6.10938 44.6094 11.75
Q48.6875 17.3906 48.6875 27.2969" id="BitstreamVeraSans-Roman-70"/>
     </defs>
     <g transform="translate(170.022375 414.86175)scale(0.144 -0.144)">
      <use xlink:href="#BitstreamVeraSans-Roman-53"/>
      <use x="63.4765625" xlink:href="#BitstreamVeraSans-Roman-63"/>
      <use x="118.45703125" xlink:href="#BitstreamVeraSans-Roman-68"/>
      <use x="181.8359375" xlink:href="#BitstreamVeraSans-Roman-77"/>
      <use x="263.623046875" xlink:href="#BitstreamVeraSans-Roman-61"/>
      <use x="324.90234375" xlink:href="#BitstreamVeraSans-Roman-72"/>
      <use x="366.015625" xlink:href="#BitstreamVeraSans-Roman-7a"/>
      <use x="418.505859375" xlink:href="#BitstreamVeraSans-Roman-6d"/>
      <use x="515.91796875" xlink:href="#BitstreamVeraSans-Roman-61"/>
      <use x="577.197265625" xlink:href="#BitstreamVeraSans-Roman-72"/>
      <use x="618.310546875" xlink:href="#BitstreamVeraSans-Roman-6b"/>
      <use x="676.220703125" xlink:href="#BitstreamVeraSans-Roman-74"/>
      <use x="715.4296875" xlink:href="#BitstreamVeraSans-Roman-70"/>
      <use x="778.90625" xlink:href="#BitstreamVeraSans-Roman-72"/>
      <use x="817.76953125" xlink:href="#BitstreamVeraSans-Roman-65"/>
      <use x="879.29296875" xlink:href="#BitstreamVeraSans-Roman-69"/>
      <use x="907.076171875" xlink:href="#BitstreamVeraSans-Roman-73"/>
     </g>
    </g>
    <g id="line2d_37">
     <path d="
M339.609 409.822
L359.769 409.822" style="fill:none;stroke:#008000;stroke-linecap:square;"/>
    </g>
    <g id="line2d_38"/>
    <g id="text_20">
     <!-- Normalpreis -->
     <defs>
      <path d="
M9.42188 75.9844
L18.4062 75.9844
L18.4062 0
L9.42188 0
z
" id="BitstreamVeraSans-Roman-6c"/>
     </defs>
     <g transform="translate(375.609375 414.86175)scale(0.144 -0.144)">
      <use xlink:href="#BitstreamVeraSans-Roman-4e"/>
      <use x="74.8046875" xlink:href="#BitstreamVeraSans-Roman-6f"/>
      <use x="135.986328125" xlink:href="#BitstreamVeraSans-Roman-72"/>
      <use x="175.349609375" xlink:href="#BitstreamVeraSans-Roman-6d"/>
      <use x="272.76171875" xlink:href="#BitstreamVeraSans-Roman-61"/>
      <use x="334.041015625" xlink:href="#BitstreamVeraSans-Roman-6c"/>
      <use x="361.82421875" xlink:href="#BitstreamVeraSans-Roman-70"/>
      <use x="425.30078125" xlink:href="#BitstreamVeraSans-Roman-72"/>
      <use x="464.1640625" xlink:href="#BitstreamVeraSans-Roman-65"/>
      <use x="525.6875" xlink:href="#BitstreamVeraSans-Roman-69"/>
      <use x="553.470703125" xlink:href="#BitstreamVeraSans-Roman-73"/>
     </g>
    </g>
   </g>
  </g>
 </g>
 <defs>
  <clipPath id="pcb2bf987bf">
   <rect height="302.4" width="446.4" x="72.0" y="43.2"/>
  </clipPath>
 </defs>
</svg>
