<?xml version="1.0" encoding="utf-8" standalone="no"?>
<!DOCTYPE svg PUBLIC "-//W3C//DTD SVG 1.1//EN"
  "http://www.w3.org/Graphics/SVG/1.1/DTD/svg11.dtd">
<!-- Created with matplotlib (http://matplotlib.org/) -->
<svg height="432pt" version="1.1" viewBox="0 0 576 432" width="576pt" xmlns="http://www.w3.org/2000/svg" xmlns:xlink="http://www.w3.org/1999/xlink">
 <defs>
  <style type="text/css">
*{stroke-linecap:butt;stroke-linejoin:round;}
  </style>
 </defs>
 <g id="figure_1">
  <g id="patch_1">
   <path d="
M0 432
L576 432
L576 0
L0 0
z
" style="fill:#ffffff;"/>
  </g>
  <g id="axes_1">
   <g id="patch_2">
    <path d="
M72 345.6
L518.4 345.6
L518.4 43.2
L72 43.2
z
" style="fill:#ffffff;"/>
   </g>
   <g id="line2d_1">
    <path clip-path="url(#pcb2bf987bf)" d="
M72 200.065
L72.1276 199.119
L72.7657 199.117
L72.8933 198.163
L73.1485 199.735
L73.5314 199.737
L73.659 198.789
L74.0419 198.756
L74.2971 195.914
L74.4247 196.878
L74.6799 193.006
L75.1904 199.733
L75.4456 199.735
L75.5732 197.833
L75.8285 197.833
L75.9561 196.878
L76.2113 198.789
L76.3389 197.669
L76.5942 197.801
L76.7218 197.265
L76.9772 198.789
L77.3599 195.906
L77.7429 196.87
L78.1256 200.06
L78.1256 200.06
L78.2532 199.102
L78.636 198.789
L78.8915 197.833
L79.0189 199.733
L80.4226 199.725
L80.5503 195.477
L80.8055 193.961
L80.9331 196.861
L81.1885 199.722
L81.316 199.722
L81.5712 196.169
L81.6988 199.735
L81.9542 198.748
L82.0816 199.735
L82.7197 199.733
L82.8473 198.789
L83.1026 195.889
L83.2302 197.833
L83.4854 199.732
L83.613 199.732
L83.8683 190.262
L83.9959 191.234
L84.2511 198.768
L84.3787 198.768
L84.6342 199.73
L85.017 198.089
L85.1444 196.169
L85.3999 195.906
L85.5273 198.781
L85.7825 197.825
L85.9101 199.727
L87.4415 199.712
L87.6967 198.756
L87.8244 197.801
L88.0796 198.755
L88.2072 197.801
L88.4624 198.753
L88.5901 198.75
L88.8453 197.801
L88.8453 197.801
L88.9729 198.755
L89.2281 195.881
L89.3557 197.265
L89.611 195.881
L89.7386 198.756
L89.9938 198.756
L89.9938 198.756
L90.3767 195.881
L91.0148 198.624
L91.7804 197.809
L91.9081 195.889
L92.5461 199.728
L92.6738 199.728
L93.3118 196.169
L94.0775 195.197
L94.2051 196.161
L94.9708 196.161
L95.7365 197.125
L96.3746 197.125
L97.1403 196.153
L98.0336 197.125
L98.6717 196.309
L98.7993 195.337
L99.4374 191.44
L100.203 191.358
L100.331 196.301
L100.969 197.265
L101.862 196.309
L103.266 196.309
L103.393 197.265
L104.032 196.301
L104.797 193.953
L105.563 195.889
L106.329 196.853
L107.095 199.735
L107.86 197.833
L107.988 196.878
L108.626 198.789
L109.391 197.825
L109.519 196.87
L110.157 197.833
L110.285 196.878
L110.923 198.789
L111.05 198.789
L111.816 199.732
L113.986 198.781
L114.879 196.779
L116.283 199.71
L117.048 199.723
L117.814 198.773
L117.942 199.722
L118.707 198.773
L119.345 198.639
L120.111 198.639
L120.877 193.154
L121.004 193.154
L121.643 194.793
L122.536 195.766
L123.174 198.649
L123.94 197.693
L124.067 198.646
L124.705 197.685
L125.471 195.774
L126.109 195.766
L126.237 198.638
L126.237 198.638
L126.365 198.633
L127.002 196.729
L127.13 194.653
L127.13 194.653
L127.64 197.553
L127.64 197.553
L127.768 181.076
L128.534 199.597
L128.661 198.649
L129.299 198.649
L130.065 198.789
L130.193 197.825
L130.831 199.943
L131.597 198.781
L132.362 199.737
L132.362 199.737
L134.149 199.943
L134.659 200.437
L135.425 196.631
L136.191 202.184
L136.318 201.244
L136.956 197.463
L137.722 199.399
L138.488 198.451
L139.254 201.284
L139.381 201.267
L140.019 196.524
L140.785 200.327
L141.678 200.325
L142.316 198.435
L143.082 202.203
L143.848 200.322
L143.975 200.322
L144.613 202.167
L145.379 201.302
L145.507 202.188
L146.145 201.253
L146.272 200.313
L146.91 152.496
L147.038 201.253
L147.676 202.184
L148.442 201.714
L149.208 196.729
L149.335 198.641
L149.973 196.729
L150.739 199.572
L150.867 201.236
L151.505 199.325
L152.27 199.325
L153.164 200.262
L153.802 196.458
L154.567 198.499
L155.333 195.625
L155.333 195.625
L156.099 198.483
L156.865 198.483
L157.63 195.477
L157.758 196.441
L158.396 195.477
L159.162 197.133
L159.927 192.841
L160.693 197.364
L160.821 199.143
L162.224 198.295
L162.99 196.383
L163.118 197.339
L163.756 192.495
L163.883 194.447
L164.521 199.265
L164.649 197.339
L165.287 199.242
L166.053 198.32
L166.819 195.428
L168.35 197.333
L169.243 197.331
L169.881 196.367
L170.647 195.42
L170.775 197.347
L172.178 197.356
L172.944 196.375
L173.072 197.356
L173.71 196.383
L174.475 193.475
L174.603 197.342
L176.007 194.447
L176.773 197.342
L177.538 197.342
L178.304 191.498
L179.07 194.37
L179.835 191.498
L179.963 196.243
L180.601 197.334
L180.729 196.285
L181.367 194.34
L182.132 197.356
L182.26 200.256
L182.898 195.914
L183.664 199.737
L183.791 198.789
L184.43 200.256
L185.195 200.231
L185.961 199.218
L186.727 201.379
L187.492 191.531
L188.258 201.696
L189.024 201.693
L189.151 200.758
L190.555 197.825
L191.321 197.825
L191.321 197.825
L192.852 196.87
L193.618 200.541
L195.277 200.534
L195.915 199.588
L196.681 200.534
L198.212 199.58
L198.212 199.58
L198.978 197.133
L200.509 198.6
L201.275 198.888
L202.04 198.493
L202.806 200.386
L203.572 198.361
L203.699 198.493
L204.338 200.386
L205.231 192.487
L205.997 200.361
L206.124 199.415
L206.507 200.361
L206.635 198.466
L206.635 198.466
L206.762 200.361
L207.4 200.351
L207.911 198.46
L208.166 198.789
L208.804 200.353
L209.059 200.355
L209.059 200.355
L209.442 198.583
L209.57 199.514
L209.825 208.354
L210.591 200.445
L210.846 199.498
L211.356 201.379
L212.122 201.379
L212.25 198.089
L212.505 201.378
L212.633 200.435
L212.888 199.489
L213.271 197.586
L213.398 199.489
L213.654 199.737
L213.654 199.737
L213.781 198.789
L214.036 193.945
L214.164 193.945
L214.419 196.705
L214.547 196.845
L214.802 192.964
L214.93 183.259
L215.313 198.789
L215.568 200.437
L215.951 200.437
L215.951 200.437
L216.078 198.542
L216.333 198.089
L216.461 201.383
L216.589 201.383
L216.589 201.383
L217.099 199.498
L217.227 200.445
L217.482 196.441
L217.482 196.441
L217.61 197.595
L217.865 195.675
L217.992 201.381
L218.248 195.675
L218.248 195.675
L218.375 200.444
L218.631 198.55
L218.758 189.801
L219.013 201.368
L219.141 200.437
L219.396 199.489
L219.779 197.586
L219.907 197.586
L220.162 199.415
L220.417 197.512
L220.545 201.178
L220.928 201.178
L221.055 201.368
L221.31 199.473
L221.438 201.368
L221.693 201.373
L222.076 197.627
L222.204 199.539
L222.459 201.373
L222.587 201.368
L222.842 199.481
L222.842 199.481
L223.225 199.481
L223.352 200.552
L223.608 197.57
L223.735 199.473
L223.99 200.42
L224.118 201.366
L224.501 201.368
L224.884 212.904
L225.139 211.592
L225.777 201.162
L225.777 201.162
L225.905 202.1
L225.905 202.1
L226.032 202.1
L226.032 202.1
L226.16 200.223
L226.16 200.223
L226.288 201.104
L226.415 200.165
L226.415 200.165
L226.67 201.104
L226.798 202.042
L227.053 199.218
L227.181 202.042
L227.436 191.498
L227.436 191.498
L227.819 200.165
L227.946 198.27
L228.202 200.165
L228.329 202.002
L228.585 201.063
L228.712 200
L228.967 201.879
L229.095 200.939
L229.35 201.879
L229.478 190.888
L229.733 201.063
L230.116 201.022
L230.244 199.135
L230.499 201.959
L230.499 201.959
L230.882 201.959
L231.009 199.135
L231.264 201.959
L231.264 201.959
L232.924 201.951
L233.179 199.119
L233.306 201.951
L233.689 201.951
L233.944 200.066
L234.072 201.943
L234.327 201.335
L234.327 201.335
L234.455 201.931
L235.093 201.935
L235.093 201.935
L235.221 200.997
L235.476 201.935
L235.603 201.935
L235.859 199.737
L235.859 199.737
L235.986 201.928
L236.242 201.923
L236.369 200.972
L236.752 200.972
L237.007 198.138
L237.135 198.138
L237.518 201.895
L237.773 183.531
L237.901 200.946
L238.156 201.887
L238.283 199.061
L238.539 200.009
L238.666 200.009
L238.921 199.061
L239.049 198.114
L239.432 200.923
L239.687 191.498
L239.815 201.879
L240.07 201.903
L240.198 198.913
L240.453 201.91
L240.453 201.91
L240.836 201.894
L240.963 200.956
L241.219 201.879
L241.729 201.829
L241.984 201.381
L242.112 200.445
L242.367 200.33
L242.495 199.382
L242.75 199.498
L242.878 198.872
L243.133 200.559
L243.26 199.613
L243.516 200.559
L244.281 200.556
L244.409 199.613
L244.664 200.536
L245.047 198.46
L245.047 198.46
L245.175 199.404
L245.43 199.588
L245.557 194.645
L245.94 200.536
L246.196 200.536
L246.323 199.58
L246.961 199.588
L247.089 200.542
L247.855 200.539
L248.237 199.597
L248.493 199.597
L248.62 198.647
L248.876 199.597
L248.876 199.597
L249.003 199.572
L249.258 200.539
L249.641 200.536
L249.641 200.536
L249.769 199.588
L250.024 200.539
L250.534 200.536
L250.79 191.35
L250.917 200.536
L251.173 199.588
L251.3 199.588
L251.555 200.534
L252.321 200.526
L252.449 199.57
L252.832 199.562
L253.087 197.652
L253.214 198.608
L253.47 198.616
L253.597 199.536
L254.746 199.48
L254.746 199.48
L255.001 198.534
L255.129 199.48
L255.129 199.48
L255.511 199.48
L255.511 199.48
L255.767 198.534
L255.767 198.534
L255.894 198.534
L256.277 199.476
L256.66 199.475
L256.66 199.475
L256.915 198.517
L257.043 199.465
L257.298 197.562
L257.426 199.407
L257.681 199.463
L257.809 198.913
L258.064 199.078
L258.064 199.078
L258.447 198.913
L258.574 198.731
L258.83 198.913
L259.595 198.903
L259.595 198.903
L259.723 197.949
L259.978 198.903
L260.106 197.949
L260.361 198.893
L261.127 198.888
L261.254 196.977
L261.509 198.878
L262.02 198.862
L262.275 199.051
L262.403 200.396
L262.786 200.523
L263.041 199.588
L263.168 200.534
L263.424 199.588
L263.424 199.588
L263.551 199.588
L263.934 194.175
L264.189 202.783
L264.189 202.783
L264.572 201.236
L264.7 202.17
L264.955 194.637
L264.955 194.637
L265.083 199.735
L265.338 198.789
L265.466 199.737
L265.593 199.737
L265.848 198.789
L266.104 199.737
L266.231 196.878
L266.486 198.789
L266.614 197.833
L266.869 202.164
L266.997 202.157
L267.252 201.063
L267.635 196.318
L267.763 196.112
L268.018 195.345
L268.145 193.401
L268.401 194.373
L268.528 199.176
L268.784 197.273
L268.911 198.229
L269.166 199.176
L269.294 198.212
L269.549 198.211
L269.677 182.427
L269.932 198.211
L270.06 198.211
L270.315 197.273
L270.443 194.381
L270.825 201.381
L271.463 201.376
L271.846 197.586
L271.974 199.737
L272.229 198.072
L272.357 193.525
L272.612 198.336
L272.74 195.321
L272.995 202.027
L273.122 197.249
L273.378 197.249
L273.378 197.249
L273.506 191.498
L273.761 197.249
L273.888 196.285
L274.143 197.249
L274.271 194.348
L274.654 197.249
L274.909 196.285
L274.909 196.285
L275.037 197.249
L275.292 197.249
L275.675 196.285
L275.802 197.249
L276.568 197.249
L276.823 196.285
L276.951 197.249
L277.206 196.285
L277.334 197.247
L277.589 196.285
L277.717 195.321
L277.972 195.321
L277.972 195.321
L278.099 196.283
L278.355 196.283
L278.482 195.321
L278.738 194.348
L278.865 201.088
L279.12 200.149
L279.248 202.02
L279.886 197.084
L280.014 199.934
L280.269 196.12
L280.269 196.12
L280.397 198.987
L280.652 201.07
L280.779 200.132
L281.035 200.132
L281.035 200.132
L281.162 201.07
L281.417 201.07
L281.545 197.281
L281.801 198.236
L282.183 197.281
L282.311 198.221
L282.566 201.052
L282.694 197.257
L283.077 200.107
L283.332 198.171
L283.459 200.104
L283.715 199.16
L283.842 196.293
L284.097 198.204
L284.225 197.71
L284.48 198.203
L284.608 195.593
L284.736 198.194
L285.246 197.24
L285.374 198.194
L285.629 197.24
L285.756 196.276
L286.395 196.276
L286.522 195.312
L286.777 196.276
L286.905 195.312
L287.543 195.312
L287.926 200.102
L288.054 201.028
L288.819 201.025
L289.074 199.135
L289.202 199.135
L289.457 201.02
L289.585 201.014
L289.84 197.842
L289.968 197.842
L290.223 199.735
L290.606 196.169
L290.733 199.735
L290.861 195.914
L290.989 199.72
L291.116 198.773
L291.372 199.735
L291.754 199.735
L292.265 193.681
L292.648 200.971
L292.903 199.086
L293.031 200.033
L293.413 200.025
L293.796 197.183
L294.051 198.137
L294.051 198.137
L294.434 198.137
L294.562 200.938
L294.817 200.939
L294.817 200.939
L294.945 199.737
L295.2 200
L295.328 200.939
L295.583 198.105
L295.71 200
L295.966 200.939
L296.349 200
L296.476 200.923
L296.731 199.984
L296.859 199.984
L297.114 200.913
L297.242 200.913
L297.497 199.028
L297.625 197.125
L297.88 198.081
L298.008 199.951
L298.263 199.934
L298.39 200.882
L298.646 200.882
L298.773 199.934
L299.028 200.874
L299.156 199.934
L299.411 198.987
L299.539 199.934
L299.794 200.872
L299.922 198.979
L300.177 199.926
L300.177 199.926
L300.305 200.872
L300.56 198.979
L300.687 199.926
L301.326 199.926
L301.453 195.617
L301.836 200.841
L302.219 200.857
L302.474 198.97
L302.474 198.97
L302.857 199.91
L303.112 199.91
L303.368 197.949
L303.75 197.949
L304.005 198.913
L304.005 198.913
L304.388 198.913
L304.771 200.855
L304.899 199.91
L305.154 197.057
L305.537 197.057
L305.664 200.855
L306.047 200.855
L306.303 200.61
L306.43 200.855
L307.196 200.847
L307.451 199.621
L307.579 200.837
L307.834 200.839
L307.962 199.893
L308.217 200.839
L308.344 200.839
L308.6 198.946
L308.6 198.946
L308.727 200.831
L308.983 199.885
L309.365 199.885
L309.493 198.937
L309.748 200.808
L309.876 200.56
L310.259 200.806
L310.514 198.913
L310.642 200.806
L311.024 200.824
L311.28 198.937
L311.407 198.929
L311.662 200.824
L311.79 200.824
L312.045 199.885
L312.173 199.885
L312.428 198.979
L312.556 195.428
L312.811 200.865
L312.939 198.015
L313.194 198.97
L313.321 196.103
L313.577 196.102
L313.96 200.864
L314.087 199.918
L314.342 196.383
L314.47 199.918
L314.725 198.979
L314.853 200.865
L315.108 200.865
L315.236 199.926
L315.491 200.864
L315.619 199.918
L315.874 200.363
L316.257 198.468
L316.384 200.355
L316.767 201.071
L317.405 201.071
L317.533 202.06
L317.788 201.121
L317.916 202.06
L318.171 201.121
L318.298 202.974
L318.554 200.165
L318.554 200.165
L318.681 202.974
L318.937 202.043
L319.064 202.991
L319.447 202.983
L319.702 200.445
L319.83 200.445
L320.085 199.498
L320.213 201.376
L320.596 200.445
L320.851 200.445
L320.851 200.445
L321.234 199.491
L321.361 200.445
L321.616 200.445
L321.999 201.384
L322.127 199.498
L322.765 200.445
L322.893 201.383
L323.531 201.374
L323.658 198.089
L323.914 198.089
L323.914 198.089
L324.041 195.51
L324.424 201.374
L324.679 201.384
L324.807 216.211
L325.062 216.211
L325.573 212.917
L325.956 212.917
L326.338 211.015
L326.593 211.846
L326.721 141.991
L326.976 207.728
L327.104 203.032
L327.359 202.208
L327.487 202.208
L327.742 203.014
L327.87 203.011
L328.125 202.085
L328.252 202.085
L328.508 200.544
L328.635 198.913
L328.891 203.016
L329.273 203.03
L329.401 202.1
L329.656 202.81
L329.784 200.223
L330.039 198.789
L330.167 190.27
L330.422 203.032
L330.55 203.032
L330.805 209.623
L330.933 209.549
L331.188 210.437
L331.315 208.725
L331.57 210.445
L331.698 209.557
L331.953 211.905
L332.081 211.015
L332.336 210.126
L332.464 211.014
L332.719 210.126
L332.847 209.226
L333.612 199.608
L334.633 199.613
L334.761 202.866
L335.016 203.007
L335.144 203.653
L336.292 203.526
L336.675 202.595
L336.93 203.52
L337.058 202.587
L337.313 203.515
L337.441 203.444
L337.696 201.582
L337.824 203.441
L338.079 201.582
L338.207 196.837
L338.462 196.837
L338.589 198.748
L338.845 198.748
L338.972 199.695
L339.227 198.74
L339.355 199.694
L340.376 199.695
L340.504 201.58
L340.759 200.643
L340.886 199.704
L341.142 200.641
L341.269 199.695
L341.525 200.635
L341.907 200.64
L342.035 199.695
L342.29 199.695
L342.418 200.638
L342.673 199.695
L342.801 200.638
L343.056 200.64
L343.184 198.748
L343.566 203.442
L343.822 169.476
L343.822 169.476
L343.949 203.302
L344.204 203.302
L344.332 202.101
L344.588 202.867
L344.715 202.701
L344.97 201.607
L345.098 203.029
L345.353 201.936
L345.353 201.936
L345.481 199.737
L345.736 203.029
L345.863 201.162
L346.119 202.101
L346.246 203.029
L346.502 200.223
L346.629 200.223
L346.884 203.027
L346.884 203.027
L347.012 202.093
L347.267 202.093
L347.395 203.027
L347.778 203.026
L348.161 200.338
L348.543 203.016
L348.799 199.737
L348.926 203.026
L349.181 201.137
L349.309 203.007
L349.692 203.007
L350.075 201.03
L350.33 202.999
L350.458 200.19
L350.713 203.006
L350.84 203.006
L351.096 201.969
L351.606 202.076
L351.861 203.002
L351.989 202.996
L352.244 202.862
L352.372 201.928
L352.627 200.989
L352.755 200.989
L353.01 202.862
L353.138 201.926
L353.393 201.928
L353.52 202.857
L353.776 201.92
L353.776 201.92
L354.158 202.849
L354.286 200.981
L354.541 199.094
L354.669 197.191
L354.924 200.165
L355.052 197.833
L355.435 202.043
L355.69 201.104
L355.817 201.104
L356.073 199.218
L356.073 199.218
L356.2 202.042
L357.221 202.039
L357.477 200.165
L357.732 201.104
L357.987 200.165
L358.37 200.165
L358.37 200.165
L358.497 199.218
L358.753 199.218
L358.88 200.165
L359.136 199.218
L359.263 199.218
L359.646 202.039
L360.029 202.039
L360.284 201.104
L360.412 201.104
L360.667 202.039
L360.795 201.086
L361.05 200.149
L361.56 200.165
L361.816 202.039
L361.943 199.218
L362.198 201.096
L362.326 199.737
L362.581 201.104
L362.709 198.27
L362.964 200.165
L363.092 202.043
L363.347 198.946
L363.474 202.043
L363.73 201.104
L363.857 202.043
L364.113 197.669
L364.24 201.096
L364.495 200.157
L364.623 200.157
L364.878 202.03
L365.006 202.029
L365.261 199.481
L365.389 200.429
L365.644 201.371
L366.537 201.368
L366.792 200.56
L367.175 200.559
L367.303 199.613
L367.558 200.559
L367.941 200.557
L368.069 199.613
L368.324 199.735
L368.451 197.833
L368.707 199.445
L369.09 198.789
L369.472 197.833
L369.6 199.733
L371.514 199.654
L371.897 199.489
L372.28 199.654
L373.428 199.687
L373.684 198.74
L373.684 198.74
L373.811 199.681
L374.067 199.684
L374.194 198.74
L374.449 198.731
L374.577 199.679
L375.215 199.667
L375.343 198.723
L375.598 199.667
L376.108 199.667
L376.364 198.715
L376.491 199.661
L376.874 199.661
L377.129 198.715
L377.257 197.759
L377.512 199.661
L377.512 199.661
L377.767 199.661
L378.023 199.448
L378.278 200.394
L378.661 200.394
L378.788 200.231
L379.044 200.394
L379.171 199.448
L379.426 199.448
L379.554 200.394
L380.703 200.383
L380.958 200.149
L381.086 199.735
L381.341 199.735
L381.468 200.229
L381.723 199.432
L381.851 200.378
L382.107 200.378
L382.234 201.22
L382.489 200.198
L382.617 201.21
L383 201.21
L383.255 200.272
L383.383 198.83
L383.638 200.272
L384.021 199.323
L384.148 198.377
L384.403 200.272
L384.531 200.066
L384.786 198.954
L385.169 201.211
L385.297 200.939
L385.552 201.712
L385.68 199.819
L385.935 201.714
L386.062 198.888
L386.318 201.697
L386.701 201.632
L386.828 200.692
L387.083 200.363
L387.211 201.627
L387.466 198.097
L387.849 201.627
L387.977 200.56
L388.232 201.625
L388.232 201.625
L388.36 201.625
L388.615 200.684
L388.742 201.549
L388.998 201.625
L389.125 200.682
L389.38 199.737
L389.508 201.625
L389.891 201.623
L390.146 197.801
L390.274 200.445
L390.529 200.445
L390.657 201.383
L390.912 201.383
L391.039 200.445
L391.295 201.383
L391.422 201.381
L391.678 213.792
L391.805 203.03
L392.06 201.384
L392.826 201.378
L392.954 200.437
L393.209 200.437
L393.337 201.378
L393.592 201.371
L393.719 200.429
L393.975 199.621
L394.102 201.371
L394.102 201.371
L394.485 187.774
L394.74 199.481
L394.868 197.578
L395.123 197.578
L395.251 201.371
L395.506 200.429
L395.634 201.371
L395.889 200.429
L396.016 199.48
L396.272 201.368
L397.548 201.368
L397.803 200.429
L397.931 200.429
L398.186 201.294
L398.314 201.3
L398.569 200.363
L398.696 201.292
L398.952 200.355
L399.079 198.46
L399.335 197.504
L399.462 196.548
L399.717 201.297
L400.483 201.292
L400.611 197.059
L400.866 201.29
L401.632 201.22
L401.759 198.385
L402.014 200.279
L402.142 200.264
L402.397 201.203
L402.525 199.316
L402.908 201.201
L403.929 201.178
L404.056 199.292
L404.311 201.175
L404.439 200.223
L404.694 201.164
L405.843 201.16
L405.97 200.223
L406.609 200.223
L406.736 199.267
L406.991 200.097
L407.119 199.951
L407.374 201.147
L408.14 201.144
L408.268 200.206
L408.523 201.121
L408.65 200.198
L408.906 59.6775
L409.033 201.141
L409.289 200.099
L409.416 201.038
L409.671 200.099
L409.799 201.038
L410.948 201.038
L411.203 200.099
L411.33 201.037
L412.607 201.025
L412.989 200.083
L413.245 201.025
L413.627 201.022
L413.883 197.232
L414.01 200.083
L414.266 200.56
L414.393 199.737
L414.648 197.133
L414.776 201.022
L417.073 201.022
L417.328 199.135
L417.711 200.56
L417.839 199.737
L418.094 200.478
L418.222 200.478
L418.477 199.737
L418.604 199.733
L418.86 199.242
L418.987 200.476
L419.243 199.407
L419.625 200.056
L419.753 199.094
L420.008 200.038
L420.136 200.038
L420.391 199.094
L420.519 196.227
L420.902 199.094
L421.157 200.037
L421.284 198.147
L421.54 200.035
L421.667 199.086
L421.922 200.038
L422.305 197.191
L422.433 199.094
L422.688 198.147
L422.816 200.038
L423.071 201.019
L423.964 201.022
L424.22 200.083
L424.347 201.022
L424.602 197.265
L424.73 198.188
L424.985 197.216
L425.113 200.083
L425.368 201.022
L425.496 200.083
L425.751 199.135
L425.879 195.436
L426.517 201.136
L426.644 200.198
L426.899 201.134
L427.282 201.136
L427.665 197.677
L427.793 200.196
L428.048 197.133
L428.176 201.053
L428.431 200.116
L428.814 200.116
L428.941 199.168
L429.197 201.03
L429.324 200.091
L429.579 201.02
L429.707 200.083
L429.962 201.02
L430.09 201.017
L430.345 200.074
L430.473 201.007
L432.387 200.994
L432.642 200.05
L432.642 200.05
L432.77 200.994
L433.153 199.737
L433.408 199.102
L433.536 199.102
L433.791 200.994
L435.833 200.994
L436.088 200.05
L436.215 200.05
L436.471 200.905
L437.619 200.867
L437.747 200.396
L438.002 200.996
L438.13 200.058
L438.385 201.03
L438.768 201.03
L438.895 200.091
L439.151 200.083
L439.533 201.017
L439.661 201.017
L439.916 200.074
L440.044 198.427
L440.427 200.971
L441.065 200.971
L441.192 200.033
L441.448 200.971
L442.341 201.028
L442.596 200.083
L442.724 201.025
L443.107 201.025
L443.362 200.56
L443.49 201.025
L443.745 200.083
L443.872 200.083
L444.128 199.135
L444.255 200.725
L444.638 201.02
L445.021 201.02
L445.276 200.083
L445.404 199.135
L445.659 201.01
L446.042 199.918
L446.169 201.019
L447.318 200.971
L447.573 199.086
L447.701 200.969
L448.339 200.969
L448.467 200.083
L448.722 190.855
L448.849 201.014
L449.105 201.022
L449.232 199.737
L449.487 198.789
L449.487 198.789
L449.615 197.265
L449.87 201.022
L449.998 199.135
L450.126 200.083
L450.381 201.022
L450.636 200.083
L450.764 201.02
L451.402 201.02
L451.529 200.074
L451.785 201.012
L452.55 201.012
L452.678 198.427
L452.933 200.074
L453.061 200.066
L453.316 201.024
L453.444 201.024
L453.826 193.228
L454.082 201.019
L454.209 200.083
L454.465 201.02
L454.592 200.083
L454.847 201.022
L454.847 201.022
L455.613 201.024
L455.741 200.083
L455.996 200.066
L456.123 199.119
L456.379 200.083
L456.506 201.024
L456.762 200.083
L456.889 195.304
L457.144 201.022
L457.272 201.022
L457.527 190.196
L457.655 201.022
L457.91 201.005
L458.038 199.119
L458.293 201.005
L458.676 201.005
L458.803 199.119
L459.059 201.005
L459.186 200.066
L459.442 201.005
L459.569 201.005
L459.824 200.066
L459.952 200.066
L460.207 198.171
L460.335 200.033
L460.59 201.022
L460.718 200.083
L460.973 200.083
L461.101 201.022
L462.121 201.022
L462.249 200.066
L462.504 131.989
L462.632 200.972
L462.887 199.893
L463.015 201.022
L463.27 199.135
L463.398 200.066
L463.653 198.418
L463.781 200.066
L464.036 200.065
L464.163 201.005
L464.419 201.005
L464.546 200.066
L464.801 200.066
L464.929 201.005
L465.184 200.083
L465.312 201.02
L465.567 201.022
L465.567 201.022
L465.695 200.066
L465.95 196.252
L466.078 201.005
L466.333 200.058
L466.46 200.997
L466.716 200.058
L466.843 199.11
L467.098 195.279
L467.098 195.279
L467.226 199.11
L467.481 200.058
L467.992 200.05
L468.247 200.989
L468.63 200.989
L468.757 200.05
L469.013 200.989
L469.14 200.05
L469.396 200.989
L469.523 200.05
L469.778 200.05
L469.906 200.989
L470.161 200.989
L470.289 199.102
L470.544 200.989
L470.927 200.997
L471.055 200.058
L471.31 200.058
L471.437 198.163
L471.693 164.878
L471.82 163.758
L472.075 182.312
L472.203 199.737
L472.586 193.063
L472.841 193.063
L472.969 194.035
L473.352 200.996
L473.607 200.997
L473.734 201.368
L474.118 201.384
L474.373 198.55
L474.5 200.445
L474.755 194.711
L474.883 200.445
L475.138 205.141
L475.266 204.219
L475.521 195.251
L475.649 204.235
L475.904 204.235
L476.032 204.68
L476.287 201.549
L476.414 201.541
L476.67 203.344
L477.18 203.352
L477.435 197.529
L477.563 198.484
L477.946 205.084
L478.201 204.144
L478.329 205.158
L478.584 205.141
L478.711 206.056
L478.967 204.136
L479.094 205.973
L479.35 202.282
L479.477 203.213
L479.732 200.28
L479.86 202.175
L480.115 204.111
L480.243 205.932
L480.626 201.994
L480.881 202.933
L481.009 199.737
L481.264 205.487
L481.391 205.487
L481.774 202.711
L482.03 205.471
L482.157 205.461
L482.412 203.411
L482.54 205.454
L482.795 204.235
L483.306 204.235
L483.561 203.329
L483.689 204.251
L484.071 203.856
L484.327 202.933
L484.837 199.053
L485.092 199.053
L485.22 201.055
L485.986 203.823
L486.241 202.892
L486.241 202.892
L486.368 202.892
L486.624 201.961
L486.751 203.815
L488.538 203.818
L488.666 203.691
L488.921 200.338
L489.048 200.338
L489.431 202.892
L489.686 203.378
L489.814 202.447
L490.069 203.378
L490.197 201.162
L490.452 201.104
L490.58 203.378
L490.835 200.577
L490.963 200.56
L491.218 203.36
L491.345 203.377
L491.601 198.69
L492.111 202.447
L492.494 203.279
L492.749 199.605
L492.877 203.377
L493.132 203.378
L493.26 201.516
L493.515 201.515
L493.643 199.638
L493.898 201.515
L494.026 201.515
L494.281 203.37
L494.408 203.37
L494.663 201.508
L494.791 199.63
L495.174 199.63
L495.429 203.368
L495.557 203.368
L495.684 201.508
L495.812 202.439
L495.812 202.439
L495.94 201.508
L496.195 203.362
L496.322 203.362
L496.578 200.445
L496.705 202.439
L496.961 201.508
L497.088 202.439
L497.343 200.569
L497.471 201.508
L497.726 200.577
L497.854 202.447
L498.492 202.447
L498.62 203.377
L499.002 203.377
L499.258 202.373
L499.258 202.373
L499.385 202.447
L499.64 202.447
L499.768 201.384
L500.023 203.375
L500.151 201.516
L500.534 203.375
L500.789 203.373
L500.917 201.516
L501.172 201.516
L501.299 203.347
L501.555 203.337
L501.682 202.406
L501.938 203.337
L502.703 203.319
L502.831 201.459
L503.086 201.45
L503.214 203.21
L503.469 201.351
L503.597 203.21
L503.852 202.266
L503.979 203.195
L504.235 201.335
L504.362 202.266
L504.617 203.195
L504.745 202.925
L504.873 203.197
L505.128 199.119
L505.383 203.208
L505.511 201.887
L505.766 202.282
L505.894 201.351
L506.149 202.282
L506.277 202.068
L506.532 202.282
L506.659 203.197
L507.042 203.197
L507.297 200.396
L507.68 203.115
L507.808 203.115
L508.063 201.162
L508.191 203.032
L508.574 203.03
L508.829 202.101
L509.212 203.21
L509.339 202.281
L509.595 190.542
L509.722 203.032
L509.977 203.32
L510.36 200.453
L510.488 203.032
L510.743 200.223
L510.871 141.118
L511.126 201.145
L511.509 202.085
L511.636 203.032
L511.892 203.032
L512.019 201.162
L512.274 203.032
L512.402 203.032
L512.657 201.162
L512.785 202.101
L513.04 200.338
L513.423 205.323
L513.551 224.453
L513.806 215.151
L513.933 204.672
L514.189 206.328
L514.317 204.49
L514.699 201.706
L514.954 135.796
L515.082 204.68
L515.337 203.856
L515.465 202.925
L515.72 202.923
L515.848 201.994
L516.103 197.265
L516.231 198.221
L516.486 202.923
L516.613 199.951
L516.869 200.89
L516.996 200.89
L517.251 202.923
L517.379 202.923
L517.634 202.81
L517.762 200.56
L518.017 203.838
L518.145 201.978
L518.4 200.651
L518.4 200.651" style="fill:none;stroke:#ff0000;stroke-linecap:square;"/>
   </g>
   <g id="line2d_2">
    <path clip-path="url(#pcb2bf987bf)" d="
M72 318.162
L72.7657 318.154
L72.8933 317.988
L73.5314 317.988
L73.659 318.691
L74.2971 318.691
L74.4247 318.5
L75.0628 318.5
L75.1904 318.624
L75.8285 318.624
L75.9561 318.405
L76.5942 318.405
L76.7218 318.217
L77.3599 318.217
L77.8703 318.688
L78.1256 318.688
L78.1256 318.688
L78.2532 319.644
L78.8915 319.644
L79.0189 319.472
L79.6569 319.472
L79.7846 319.736
L80.4226 319.736
L80.5503 319.136
L81.1885 319.136
L81.316 319.619
L81.9542 319.619
L82.0816 319.003
L82.7197 319.003
L82.8473 319.312
L83.4854 319.312
L83.613 319.029
L84.2511 319.029
L84.3787 318.673
L87.3139 318.673
L87.4415 318.818
L88.8453 318.752
L88.8453 318.752
L88.9729 319.347
L89.611 319.347
L89.7386 319.606
L90.3767 319.606
L91.0148 319.449
L91.9081 319.555
L92.6738 319.237
L93.3118 320.235
L94.2051 319.841
L97.1403 319.538
L98.0336 319.181
L98.7993 319.594
L99.4374 318.721
L100.331 318.233
L100.969 318.395
L101.862 318.378
L102.5 317.63
L103.393 318.353
L104.032 318.482
L107.86 320.463
L108.626 320.463
L109.519 321.029
L110.285 320.659
L111.816 321.128
L113.986 320.334
L114.879 319.784
L117.048 319.212
L117.942 319.457
L120.111 318.551
L121.643 318.695
L122.536 318.299
L123.174 318.97
L124.705 319.23
L125.471 318.968
L126.237 318.466
L126.237 318.466
L126.365 318.466
L127.13 318.599
L127.13 318.599
L127.768 319.299
L130.193 319.919
L130.831 320.369
L131.597 320.042
L132.362 320.725
L132.362 320.725
L134.149 319.619
L134.659 319.619
L135.425 319.174
L136.318 320.271
L137.722 320.388
L138.488 320.848
L139.381 320.866
L140.785 320.295
L141.678 320.744
L142.316 320.894
L143.082 320.24
L143.975 320.365
L144.613 320.677
L145.507 320.728
L146.272 321.214
L147.038 321.038
L148.442 321.591
L149.335 321.782
L149.973 320.8
L150.867 321.056
L151.505 321.794
L152.27 320.868
L153.164 320.868
L153.802 320.379
L154.567 319.991
L155.333 319.037
L155.333 319.037
L156.099 318.797
L156.865 319.006
L157.758 319.006
L158.396 318.489
L159.162 318.787
L159.927 319.469
L160.821 319.426
L162.224 319.805
L163.118 319.502
L163.883 319.769
L164.649 319.942
L165.287 319.733
L166.053 320.206
L166.819 319.818
L168.35 319.682
L169.881 320.29
L170.775 319.978
L171.413 320.037
L173.072 319.2
L173.71 319.736
L174.603 319.448
L176.9 319.551
L177.538 319.841
L179.07 320.094
L179.963 319.439
L180.729 320.179
L182.26 319.23
L182.898 320.258
L183.791 319.975
L184.43 320.227
L185.195 320.665
L185.961 320.678
L186.727 320.547
L187.492 320.988
L188.258 321.196
L190.555 320.548
L191.321 320.047
L191.321 320.047
L193.618 320.301
L194.384 320.095
L196.681 320.146
L198.212 320.031
L198.212 320.031
L198.978 320.375
L200.509 320.37
L201.275 320.586
L202.04 320.398
L202.806 319.97
L203.699 320.178
L204.338 320.065
L205.231 319.792
L205.997 319.805
L206.124 320.344
L206.762 320.344
L207.4 320.039
L207.911 320.542
L208.166 320.542
L208.804 319.894
L209.059 319.894
L209.059 319.894
L209.442 320.634
L209.825 320.634
L210.591 320.209
L210.846 319.81
L211.356 319.81
L211.484 320.515
L212.122 320.515
L212.25 320.286
L213.654 320.186
L213.654 320.186
L213.781 320.687
L214.419 320.687
L214.547 320.425
L215.185 320.425
L215.185 320.425
L215.313 320.304
L215.951 320.304
L215.951 320.304
L216.078 320.899
L217.482 320.909
L217.482 320.909
L217.61 320.392
L218.248 320.392
L218.248 320.392
L218.375 320.105
L219.013 320.105
L219.141 321.293
L219.779 321.293
L219.907 320.201
L220.545 320.201
L220.672 320.934
L220.672 320.934
L221.31 320.934
L221.438 321.09
L222.076 321.09
L222.204 320.884
L222.842 320.884
L222.842 320.884
L223.352 321.193
L224.373 321.298
L224.501 321.474
L225.139 321.474
L225.267 320.98
L225.905 320.98
L225.905 320.98
L226.032 319.958
L226.032 319.958
L226.67 319.958
L226.798 319.283
L228.202 319.238
L228.329 318.665
L228.967 318.665
L229.095 318.484
L230.499 318.502
L230.499 318.502
L231.009 318.879
L232.03 318.873
L232.158 319.034
L232.796 319.034
L232.796 319.034
L232.924 319.171
L234.327 319.125
L234.327 319.125
L234.455 319.365
L235.093 319.365
L235.093 319.365
L235.221 319.807
L235.859 319.807
L235.859 319.807
L235.986 319.598
L237.39 319.533
L237.518 320.146
L239.687 320.051
L239.815 320.502
L240.453 320.502
L240.453 320.502
L240.58 321.268
L241.219 321.268
L241.346 321.519
L241.984 321.519
L242.112 321.076
L242.75 321.076
L242.878 321.321
L243.516 321.321
L243.643 321.53
L244.281 321.53
L244.409 320.926
L245.047 320.926
L245.047 320.926
L245.175 320.253
L249.641 320.207
L249.641 320.207
L249.769 320.122
L250.407 320.122
L250.534 319.899
L251.173 319.899
L251.3 320.056
L251.938 320.056
L252.066 320.313
L252.704 320.313
L252.832 320.133
L254.235 320.122
L254.363 319.512
L255.001 319.512
L255.129 318.785
L255.129 318.785
L255.767 318.785
L255.767 318.785
L255.894 319.505
L256.532 319.505
L256.66 319.771
L256.66 319.771
L257.298 319.771
L257.426 319.907
L258.064 319.907
L258.064 319.907
L258.574 320.117
L258.83 320.117
L258.957 320.398
L259.595 320.398
L259.595 320.398
L259.723 320.224
L260.361 320.224
L260.489 319.471
L261.127 319.471
L261.254 320.077
L261.892 320.077
L262.02 320.479
L262.658 320.479
L262.786 321.492
L263.424 321.492
L263.424 321.492
L263.551 321.761
L264.189 321.761
L264.189 321.761
L264.317 321.992
L264.955 321.992
L264.955 321.992
L265.083 321.67
L265.593 321.67
L265.848 321.45
L266.486 321.45
L266.614 321.59
L267.252 321.59
L267.38 321.855
L268.018 321.855
L268.145 321.55
L268.784 321.55
L268.911 321.763
L269.549 321.763
L269.677 321.633
L270.315 321.633
L270.443 321.797
L271.081 321.797
L271.463 322.155
L271.846 322.155
L271.974 321.893
L272.612 321.893
L272.74 321.461
L274.143 321.525
L274.271 321.614
L276.441 321.572
L276.568 322.084
L277.972 322.084
L277.972 322.084
L278.099 321.445
L278.738 321.445
L278.865 321.896
L281.035 321.921
L281.035 321.921
L281.162 321.329
L281.801 321.329
L282.311 320.992
L282.566 320.992
L282.694 320.624
L283.332 320.624
L283.459 320.435
L284.097 320.435
L284.225 320.105
L286.395 320.089
L286.522 319.635
L287.926 319.729
L288.054 320.804
L289.457 320.912
L289.585 321.468
L290.223 321.468
L290.351 321.593
L294.051 321.67
L294.051 321.67
L294.179 321.474
L294.817 321.474
L294.817 321.474
L294.945 321.721
L295.583 321.721
L295.71 321.496
L296.349 321.496
L296.476 321.67
L297.114 321.67
L297.242 321.501
L297.88 321.501
L298.008 320.833
L299.411 320.939
L299.539 320.492
L300.177 320.492
L300.177 320.492
L300.305 320.945
L300.943 320.945
L301.07 320.301
L301.708 320.301
L301.836 319.634
L302.474 319.634
L302.474 319.634
L302.985 319.319
L303.112 319.319
L303.368 319.71
L304.005 319.71
L304.005 319.71
L304.133 319.929
L305.537 320.034
L305.664 319.518
L307.068 319.518
L307.068 319.518
L307.196 320.295
L309.365 320.209
L309.493 320.479
L310.131 320.479
L310.131 320.479
L310.259 320.332
L310.897 320.332
L311.024 320.65
L311.662 320.65
L311.79 321.016
L313.194 321.054
L313.321 321.138
L313.96 321.138
L314.087 321.351
L314.725 321.351
L314.853 321.494
L315.491 321.494
L315.619 321.672
L316.257 321.672
L316.384 322.374
L318.554 322.358
L318.554 322.358
L318.681 322.791
L319.319 322.791
L319.319 322.791
L319.447 322.906
L320.085 322.906
L320.213 322.526
L320.851 322.526
L320.851 322.526
L321.361 322.338
L321.616 322.338
L322.127 322.621
L323.148 322.596
L323.275 322.313
L324.679 322.313
L324.807 322.684
L326.211 322.684
L326.338 321.941
L326.976 321.941
L327.104 321.117
L327.742 321.117
L327.87 320.952
L328.508 320.952
L328.635 321.176
L329.273 321.176
L329.401 321.705
L330.039 321.705
L330.167 321.832
L330.805 321.832
L330.933 322.427
L331.57 322.427
L331.698 322.559
L333.102 322.529
L333.23 321.677
L333.868 321.677
L333.995 321.227
L334.633 321.227
L334.761 321.633
L335.399 321.633
L335.527 321.766
L336.165 321.766
L336.292 322.064
L336.93 322.064
L337.058 321.125
L337.696 321.125
L337.824 321.403
L338.462 321.403
L338.589 321.252
L339.227 321.252
L339.355 321.636
L341.525 321.738
L341.652 321.399
L342.29 321.399
L342.418 321.748
L343.056 321.748
L343.184 321.906
L343.822 321.906
L343.822 321.906
L343.949 322.117
L344.588 322.117
L344.715 321.644
L346.884 321.669
L346.884 321.669
L347.012 321.792
L348.416 321.766
L348.543 321.319
L349.181 321.319
L349.309 321.445
L349.947 321.445
L350.075 321.314
L350.713 321.314
L350.84 321.708
L351.224 321.708
L351.606 322.008
L352.244 322.008
L352.372 322.16
L353.776 322.11
L353.776 322.11
L354.286 321.72
L354.541 321.72
L354.669 321.324
L355.307 321.324
L355.307 321.324
L355.435 321.113
L356.073 321.113
L356.073 321.113
L356.2 320.718
L356.838 320.718
L356.966 321.074
L357.477 321.074
L357.732 320.827
L358.37 320.827
L358.37 320.827
L358.497 320.988
L359.136 320.988
L359.263 320.73
L359.901 320.73
L360.029 321.227
L361.433 321.196
L361.56 321.379
L362.198 321.379
L362.326 321.656
L362.964 321.656
L363.092 322.14
L363.73 322.14
L363.857 322.445
L365.261 322.415
L365.389 322.02
L366.027 322.02
L366.027 322.02
L366.155 322.15
L368.324 322.094
L368.451 321.641
L369.09 321.641
L369.6 322.119
L369.855 322.119
L369.983 321.959
L370.621 321.959
L370.749 322.165
L371.387 322.165
L371.514 321.626
L372.152 321.626
L372.28 322.104
L373.684 322.142
L373.684 322.142
L373.811 321.835
L375.981 321.914
L376.108 322.302
L376.746 322.302
L376.874 322.026
L377.512 322.026
L377.512 322.026
L377.767 321.837
L378.278 321.837
L378.405 322.325
L379.044 322.325
L379.171 322.132
L379.809 322.132
L379.937 322.466
L382.107 322.46
L382.234 322.911
L382.872 322.911
L383 323.053
L383.638 323.053
L384.148 322.737
L384.403 322.737
L384.531 323.086
L385.935 323.086
L386.062 322.913
L386.701 322.913
L386.828 322.728
L387.466 322.728
L387.594 322.598
L388.232 322.598
L388.232 322.598
L388.36 343.304
L388.998 343.304
L389.125 323.236
L389.763 323.236
L389.891 322.75
L390.529 322.75
L390.657 322.923
L391.295 322.923
L391.422 322.554
L392.06 322.554
L392.188 323.308
L392.826 323.308
L392.954 322.504
L393.592 322.504
L393.719 322.249
L394.102 322.249
L394.102 322.249
L394.485 321.481
L395.123 321.481
L395.251 321.838
L395.889 321.838
L396.016 322.11
L398.186 322.068
L398.314 321.758
L398.952 321.758
L399.079 321.044
L399.717 321.044
L399.845 322.003
L400.483 322.003
L400.611 321.89
L401.249 321.89
L401.376 321.44
L403.546 321.512
L403.673 321.977
L405.077 321.895
L405.205 322.44
L406.609 322.516
L406.736 322.812
L408.14 322.811
L408.268 322.463
L408.906 322.463
L409.033 322.814
L409.671 322.814
L409.799 322.283
L411.203 322.367
L411.33 322.132
L412.607 322.048
L413.245 321.921
L413.5 321.921
L413.627 322.091
L414.266 322.091
L414.393 322.359
L416.563 322.427
L416.69 322.532
L418.094 322.585
L418.222 322.27
L418.86 322.27
L418.987 322.526
L419.625 322.526
L419.753 323.097
L420.391 323.097
L420.519 322.501
L421.157 322.501
L421.284 322.835
L421.922 322.835
L422.05 323.265
L422.688 323.265
L422.816 322.829
L423.454 322.829
L423.581 323.071
L424.22 323.071
L424.347 323.229
L424.985 323.229
L425.113 322.769
L425.751 322.769
L425.879 323.363
L426.517 323.363
L426.644 323.216
L428.048 323.209
L428.176 322.494
L428.814 322.494
L428.941 322.972
L429.579 322.972
L429.707 322.456
L430.345 322.456
L430.473 322.16
L431.877 322.158
L432.004 322.353
L433.408 322.356
L433.536 322.086
L434.174 322.086
L434.301 322.219
L436.471 322.316
L436.854 322.358
L438.002 322.433
L438.13 322.875
L439.533 322.914
L439.661 322.727
L441.065 322.781
L441.192 322.959
L441.831 322.959
L441.831 322.959
L441.958 323.48
L442.596 323.48
L442.724 322.705
L443.362 322.705
L443.49 323.142
L444.128 323.142
L444.255 323.43
L444.893 323.43
L445.021 323.195
L445.659 323.195
L446.169 322.784
L447.19 322.819
L447.318 322.969
L448.722 322.878
L448.849 322.72
L449.487 322.72
L449.487 322.72
L449.615 322.445
L450.126 322.445
L450.381 322.652
L453.316 322.667
L453.444 323.265
L454.082 323.265
L454.209 322.98
L454.847 322.98
L454.847 322.98
L454.975 322.832
L455.613 322.832
L455.741 323.087
L456.379 323.087
L456.506 322.644
L457.91 322.7
L458.038 322.148
L458.676 322.148
L458.803 322.323
L459.442 322.323
L459.569 322.638
L460.207 322.638
L460.335 322.463
L460.973 322.463
L461.101 322.895
L461.739 322.895
L461.866 323.282
L462.504 323.282
L462.632 323.068
L463.27 323.068
L463.398 323.542
L464.801 323.544
L464.929 323.183
L465.567 323.183
L465.567 323.183
L465.695 323.559
L466.333 323.559
L466.46 322.855
L467.098 322.855
L467.098 322.855
L467.226 322.356
L467.864 322.356
L467.992 322.928
L468.63 322.928
L468.757 322.61
L470.161 322.512
L470.672 322.488
L471.693 322.532
L471.82 322.33
L473.224 322.269
L473.352 322.656
L473.99 322.656
L474.118 323.224
L474.755 323.224
L474.883 323.068
L475.521 323.068
L475.649 322.422
L476.287 322.422
L476.414 322.667
L477.052 322.667
L477.18 322.374
L477.818 322.374
L477.946 323.193
L479.35 323.091
L479.477 322.616
L480.115 322.616
L480.243 322.297
L480.881 322.297
L481.009 322.532
L481.647 322.532
L481.774 323.056
L482.412 323.056
L482.54 322.601
L483.178 322.601
L483.306 321.909
L483.944 321.909
L484.071 322.466
L484.709 322.466
L484.837 321.88
L487.007 321.949
L487.134 321.693
L490.069 321.733
L490.197 321.896
L490.835 321.896
L490.963 322.011
L491.601 322.011
L491.728 321.534
L492.366 321.534
L492.494 322.292
L493.132 322.292
L493.26 322.694
L493.898 322.694
L494.026 322.488
L494.663 322.488
L494.791 322.043
L495.429 322.043
L495.557 322.306
L496.195 322.306
L496.322 322.133
L496.961 322.133
L497.088 323.089
L498.492 323.167
L498.62 322.791
L499.258 322.791
L499.258 322.791
L499.385 322.361
L500.023 322.361
L500.151 322.878
L500.789 322.878
L500.917 322.44
L501.555 322.44
L501.682 322.259
L502.32 322.259
L502.448 321.924
L503.852 322.018
L503.979 321.489
L504.617 321.489
L504.873 321.616
L505.383 321.616
L505.511 321.86
L507.68 321.842
L507.808 321.721
L509.212 321.781
L509.339 323.195
L509.977 323.195
L510.488 323.073
L510.743 323.073
L510.871 322.771
L511.509 322.771
L511.636 322.611
L512.274 322.611
L512.402 323.027
L513.04 323.027
L513.168 323.364
L513.806 323.364
L513.933 323.798
L514.572 323.798
L514.699 322.567
L516.103 322.573
L516.231 321.423
L516.869 321.423
L516.996 322.535
L518.4 322.539
L518.4 322.539" style="fill:none;stroke:#008000;stroke-linecap:square;"/>
   </g>
   <g id="patch_3">
    <path d="
M72 43.2
L518.4 43.2" style="fill:none;stroke:#000000;stroke-linecap:square;stroke-linejoin:miter;"/>
   </g>
   <g id="patch_4">
    <path d="
M518.4 345.6
L518.4 43.2" style="fill:none;stroke:#000000;stroke-linecap:square;stroke-linejoin:miter;"/>
   </g>
   <g id="patch_5">
    <path d="
M72 345.6
L518.4 345.6" style="fill:none;stroke:#000000;stroke-linecap:square;stroke-linejoin:miter;"/>
   </g>
   <g id="patch_6">
    <path d="
M72 345.6
L72 43.2" style="fill:none;stroke:#000000;stroke-linecap:square;stroke-linejoin:miter;"/>
   </g>
   <g id="matplotlib.axis_1">
    <g id="xtick_1">
     <g id="line2d_3">
      <defs>
       <path d="
M0 0
L0 -4" id="m93b0483c22" style="stroke:#000000;stroke-width:0.5;"/>
      </defs>
      <g>
       <use style="stroke:#000000;stroke-width:0.5;" x="117.941468267" xlink:href="#m93b0483c22" y="345.6"/>
      </g>
     </g>
     <g id="line2d_4">
      <defs>
       <path d="
M0 0
L0 4" id="m741efc42ff" style="stroke:#000000;stroke-width:0.5;"/>
      </defs>
      <g>
       <use style="stroke:#000000;stroke-width:0.5;" x="117.941468267" xlink:href="#m741efc42ff" y="43.2"/>
      </g>
     </g>
     <g id="text_1">
      <!-- Oct 13 2015 -->
      <defs>
       <path d="
M19.1875 8.29688
L53.6094 8.29688
L53.6094 0
L7.32812 0
L7.32812 8.29688
Q12.9375 14.1094 22.625 23.8906
Q32.3281 33.6875 34.8125 36.5312
Q39.5469 41.8438 41.4219 45.5312
Q43.3125 49.2188 43.3125 52.7812
Q43.3125 58.5938 39.2344 62.25
Q35.1562 65.9219 28.6094 65.9219
Q23.9688 65.9219 18.8125 64.3125
Q13.6719 62.7031 7.8125 59.4219
L7.8125 69.3906
Q13.7656 71.7812 18.9375 73
Q24.125 74.2188 28.4219 74.2188
Q39.75 74.2188 46.4844 68.5469
Q53.2188 62.8906 53.2188 53.4219
Q53.2188 48.9219 51.5312 44.8906
Q49.8594 40.875 45.4062 35.4062
Q44.1875 33.9844 37.6406 27.2188
Q31.1094 20.4531 19.1875 8.29688" id="BitstreamVeraSans-Roman-32"/>
       <path d="
M39.4062 66.2188
Q28.6562 66.2188 22.3281 58.2031
Q16.0156 50.2031 16.0156 36.375
Q16.0156 22.6094 22.3281 14.5938
Q28.6562 6.59375 39.4062 6.59375
Q50.1406 6.59375 56.4219 14.5938
Q62.7031 22.6094 62.7031 36.375
Q62.7031 50.2031 56.4219 58.2031
Q50.1406 66.2188 39.4062 66.2188
M39.4062 74.2188
Q54.7344 74.2188 63.9062 63.9375
Q73.0938 53.6562 73.0938 36.375
Q73.0938 19.1406 63.9062 8.85938
Q54.7344 -1.42188 39.4062 -1.42188
Q24.0312 -1.42188 14.8125 8.82812
Q5.60938 19.0938 5.60938 36.375
Q5.60938 53.6562 14.8125 63.9375
Q24.0312 74.2188 39.4062 74.2188" id="BitstreamVeraSans-Roman-4f"/>
       <path d="
M31.7812 66.4062
Q24.1719 66.4062 20.3281 58.9062
Q16.5 51.4219 16.5 36.375
Q16.5 21.3906 20.3281 13.8906
Q24.1719 6.39062 31.7812 6.39062
Q39.4531 6.39062 43.2812 13.8906
Q47.125 21.3906 47.125 36.375
Q47.125 51.4219 43.2812 58.9062
Q39.4531 66.4062 31.7812 66.4062
M31.7812 74.2188
Q44.0469 74.2188 50.5156 64.5156
Q56.9844 54.8281 56.9844 36.375
Q56.9844 17.9688 50.5156 8.26562
Q44.0469 -1.42188 31.7812 -1.42188
Q19.5312 -1.42188 13.0625 8.26562
Q6.59375 17.9688 6.59375 36.375
Q6.59375 54.8281 13.0625 64.5156
Q19.5312 74.2188 31.7812 74.2188" id="BitstreamVeraSans-Roman-30"/>
       <path d="
M12.4062 8.29688
L28.5156 8.29688
L28.5156 63.9219
L10.9844 60.4062
L10.9844 69.3906
L28.4219 72.9062
L38.2812 72.9062
L38.2812 8.29688
L54.3906 8.29688
L54.3906 0
L12.4062 0
z
" id="BitstreamVeraSans-Roman-31"/>
       <path d="
M40.5781 39.3125
Q47.6562 37.7969 51.625 33
Q55.6094 28.2188 55.6094 21.1875
Q55.6094 10.4062 48.1875 4.48438
Q40.7656 -1.42188 27.0938 -1.42188
Q22.5156 -1.42188 17.6562 -0.515625
Q12.7969 0.390625 7.625 2.20312
L7.625 11.7188
Q11.7188 9.32812 16.5938 8.10938
Q21.4844 6.89062 26.8125 6.89062
Q36.0781 6.89062 40.9375 10.5469
Q45.7969 14.2031 45.7969 21.1875
Q45.7969 27.6406 41.2812 31.2656
Q36.7656 34.9062 28.7188 34.9062
L20.2188 34.9062
L20.2188 43.0156
L29.1094 43.0156
Q36.375 43.0156 40.2344 45.9219
Q44.0938 48.8281 44.0938 54.2969
Q44.0938 59.9062 40.1094 62.9062
Q36.1406 65.9219 28.7188 65.9219
Q24.6562 65.9219 20.0156 65.0312
Q15.375 64.1562 9.8125 62.3125
L9.8125 71.0938
Q15.4375 72.6562 20.3438 73.4375
Q25.25 74.2188 29.5938 74.2188
Q40.8281 74.2188 47.3594 69.1094
Q53.9062 64.0156 53.9062 55.3281
Q53.9062 49.2656 50.4375 45.0938
Q46.9688 40.9219 40.5781 39.3125" id="BitstreamVeraSans-Roman-33"/>
       <path id="BitstreamVeraSans-Roman-20"/>
       <path d="
M10.7969 72.9062
L49.5156 72.9062
L49.5156 64.5938
L19.8281 64.5938
L19.8281 46.7344
Q21.9688 47.4688 24.1094 47.8281
Q26.2656 48.1875 28.4219 48.1875
Q40.625 48.1875 47.75 41.5
Q54.8906 34.8125 54.8906 23.3906
Q54.8906 11.625 47.5625 5.09375
Q40.2344 -1.42188 26.9062 -1.42188
Q22.3125 -1.42188 17.5469 -0.640625
Q12.7969 0.140625 7.71875 1.70312
L7.71875 11.625
Q12.1094 9.23438 16.7969 8.0625
Q21.4844 6.89062 26.7031 6.89062
Q35.1562 6.89062 40.0781 11.3281
Q45.0156 15.7656 45.0156 23.3906
Q45.0156 31 40.0781 35.4375
Q35.1562 39.8906 26.7031 39.8906
Q22.75 39.8906 18.8125 39.0156
Q14.8906 38.1406 10.7969 36.2812
z
" id="BitstreamVeraSans-Roman-35"/>
       <path d="
M18.3125 70.2188
L18.3125 54.6875
L36.8125 54.6875
L36.8125 47.7031
L18.3125 47.7031
L18.3125 18.0156
Q18.3125 11.3281 20.1406 9.42188
Q21.9688 7.51562 27.5938 7.51562
L36.8125 7.51562
L36.8125 0
L27.5938 0
Q17.1875 0 13.2344 3.875
Q9.28125 7.76562 9.28125 18.0156
L9.28125 47.7031
L2.6875 47.7031
L2.6875 54.6875
L9.28125 54.6875
L9.28125 70.2188
z
" id="BitstreamVeraSans-Roman-74"/>
       <path d="
M48.7812 52.5938
L48.7812 44.1875
Q44.9688 46.2969 41.1406 47.3438
Q37.3125 48.3906 33.4062 48.3906
Q24.6562 48.3906 19.8125 42.8438
Q14.9844 37.3125 14.9844 27.2969
Q14.9844 17.2812 19.8125 11.7344
Q24.6562 6.20312 33.4062 6.20312
Q37.3125 6.20312 41.1406 7.25
Q44.9688 8.29688 48.7812 10.4062
L48.7812 2.09375
Q45.0156 0.34375 40.9844 -0.53125
Q36.9688 -1.42188 32.4219 -1.42188
Q20.0625 -1.42188 12.7812 6.34375
Q5.51562 14.1094 5.51562 27.2969
Q5.51562 40.6719 12.8594 48.3281
Q20.2188 56 33.0156 56
Q37.1562 56 41.1094 55.1406
Q45.0625 54.2969 48.7812 52.5938" id="BitstreamVeraSans-Roman-63"/>
      </defs>
      <g transform="translate(53.3541815316 394.065590385)rotate(-30.0)scale(0.12 -0.12)">
       <use xlink:href="#BitstreamVeraSans-Roman-4f"/>
       <use x="78.7109375" xlink:href="#BitstreamVeraSans-Roman-63"/>
       <use x="133.69140625" xlink:href="#BitstreamVeraSans-Roman-74"/>
       <use x="172.900390625" xlink:href="#BitstreamVeraSans-Roman-20"/>
       <use x="204.6875" xlink:href="#BitstreamVeraSans-Roman-31"/>
       <use x="268.310546875" xlink:href="#BitstreamVeraSans-Roman-33"/>
       <use x="331.93359375" xlink:href="#BitstreamVeraSans-Roman-20"/>
       <use x="363.720703125" xlink:href="#BitstreamVeraSans-Roman-32"/>
       <use x="427.34375" xlink:href="#BitstreamVeraSans-Roman-30"/>
       <use x="490.966796875" xlink:href="#BitstreamVeraSans-Roman-31"/>
       <use x="554.58984375" xlink:href="#BitstreamVeraSans-Roman-35"/>
      </g>
     </g>
    </g>
    <g id="xtick_2">
     <g id="line2d_5">
      <g>
       <use style="stroke:#000000;stroke-width:0.5;" x="173.071485419" xlink:href="#m93b0483c22" y="345.6"/>
      </g>
     </g>
     <g id="line2d_6">
      <g>
       <use style="stroke:#000000;stroke-width:0.5;" x="173.071485419" xlink:href="#m741efc42ff" y="43.2"/>
      </g>
     </g>
     <g id="text_2">
      <!-- Oct 16 2015 -->
      <defs>
       <path d="
M33.0156 40.375
Q26.375 40.375 22.4844 35.8281
Q18.6094 31.2969 18.6094 23.3906
Q18.6094 15.5312 22.4844 10.9531
Q26.375 6.39062 33.0156 6.39062
Q39.6562 6.39062 43.5312 10.9531
Q47.4062 15.5312 47.4062 23.3906
Q47.4062 31.2969 43.5312 35.8281
Q39.6562 40.375 33.0156 40.375
M52.5938 71.2969
L52.5938 62.3125
Q48.875 64.0625 45.0938 64.9844
Q41.3125 65.9219 37.5938 65.9219
Q27.8281 65.9219 22.6719 59.3281
Q17.5312 52.7344 16.7969 39.4062
Q19.6719 43.6562 24.0156 45.9219
Q28.375 48.1875 33.5938 48.1875
Q44.5781 48.1875 50.9531 41.5156
Q57.3281 34.8594 57.3281 23.3906
Q57.3281 12.1562 50.6875 5.35938
Q44.0469 -1.42188 33.0156 -1.42188
Q20.3594 -1.42188 13.6719 8.26562
Q6.98438 17.9688 6.98438 36.375
Q6.98438 53.6562 15.1875 63.9375
Q23.3906 74.2188 37.2031 74.2188
Q40.9219 74.2188 44.7031 73.4844
Q48.4844 72.75 52.5938 71.2969" id="BitstreamVeraSans-Roman-36"/>
      </defs>
      <g transform="translate(108.484198684 394.065590385)rotate(-30.0)scale(0.12 -0.12)">
       <use xlink:href="#BitstreamVeraSans-Roman-4f"/>
       <use x="78.7109375" xlink:href="#BitstreamVeraSans-Roman-63"/>
       <use x="133.69140625" xlink:href="#BitstreamVeraSans-Roman-74"/>
       <use x="172.900390625" xlink:href="#BitstreamVeraSans-Roman-20"/>
       <use x="204.6875" xlink:href="#BitstreamVeraSans-Roman-31"/>
       <use x="268.310546875" xlink:href="#BitstreamVeraSans-Roman-36"/>
       <use x="331.93359375" xlink:href="#BitstreamVeraSans-Roman-20"/>
       <use x="363.720703125" xlink:href="#BitstreamVeraSans-Roman-32"/>
       <use x="427.34375" xlink:href="#BitstreamVeraSans-Roman-30"/>
       <use x="490.966796875" xlink:href="#BitstreamVeraSans-Roman-31"/>
       <use x="554.58984375" xlink:href="#BitstreamVeraSans-Roman-35"/>
      </g>
     </g>
    </g>
    <g id="xtick_3">
     <g id="line2d_7">
      <g>
       <use style="stroke:#000000;stroke-width:0.5;" x="228.201502573" xlink:href="#m93b0483c22" y="345.6"/>
      </g>
     </g>
     <g id="line2d_8">
      <g>
       <use style="stroke:#000000;stroke-width:0.5;" x="228.201502573" xlink:href="#m741efc42ff" y="43.2"/>
      </g>
     </g>
     <g id="text_3">
      <!-- Oct 19 2015 -->
      <defs>
       <path d="
M10.9844 1.51562
L10.9844 10.5
Q14.7031 8.73438 18.5 7.8125
Q22.3125 6.89062 25.9844 6.89062
Q35.75 6.89062 40.8906 13.4531
Q46.0469 20.0156 46.7812 33.4062
Q43.9531 29.2031 39.5938 26.9531
Q35.25 24.7031 29.9844 24.7031
Q19.0469 24.7031 12.6719 31.3125
Q6.29688 37.9375 6.29688 49.4219
Q6.29688 60.6406 12.9375 67.4219
Q19.5781 74.2188 30.6094 74.2188
Q43.2656 74.2188 49.9219 64.5156
Q56.5938 54.8281 56.5938 36.375
Q56.5938 19.1406 48.4062 8.85938
Q40.2344 -1.42188 26.4219 -1.42188
Q22.7031 -1.42188 18.8906 -0.6875
Q15.0938 0.046875 10.9844 1.51562
M30.6094 32.4219
Q37.25 32.4219 41.125 36.9531
Q45.0156 41.5 45.0156 49.4219
Q45.0156 57.2812 41.125 61.8438
Q37.25 66.4062 30.6094 66.4062
Q23.9688 66.4062 20.0938 61.8438
Q16.2188 57.2812 16.2188 49.4219
Q16.2188 41.5 20.0938 36.9531
Q23.9688 32.4219 30.6094 32.4219" id="BitstreamVeraSans-Roman-39"/>
      </defs>
      <g transform="translate(163.614215838 394.065590385)rotate(-30.0)scale(0.12 -0.12)">
       <use xlink:href="#BitstreamVeraSans-Roman-4f"/>
       <use x="78.7109375" xlink:href="#BitstreamVeraSans-Roman-63"/>
       <use x="133.69140625" xlink:href="#BitstreamVeraSans-Roman-74"/>
       <use x="172.900390625" xlink:href="#BitstreamVeraSans-Roman-20"/>
       <use x="204.6875" xlink:href="#BitstreamVeraSans-Roman-31"/>
       <use x="268.310546875" xlink:href="#BitstreamVeraSans-Roman-39"/>
       <use x="331.93359375" xlink:href="#BitstreamVeraSans-Roman-20"/>
       <use x="363.720703125" xlink:href="#BitstreamVeraSans-Roman-32"/>
       <use x="427.34375" xlink:href="#BitstreamVeraSans-Roman-30"/>
       <use x="490.966796875" xlink:href="#BitstreamVeraSans-Roman-31"/>
       <use x="554.58984375" xlink:href="#BitstreamVeraSans-Roman-35"/>
      </g>
     </g>
    </g>
    <g id="xtick_4">
     <g id="line2d_9">
      <g>
       <use style="stroke:#000000;stroke-width:0.5;" x="283.331519725" xlink:href="#m93b0483c22" y="345.6"/>
      </g>
     </g>
     <g id="line2d_10">
      <g>
       <use style="stroke:#000000;stroke-width:0.5;" x="283.331519725" xlink:href="#m741efc42ff" y="43.2"/>
      </g>
     </g>
     <g id="text_4">
      <!-- Oct 22 2015 -->
      <g transform="translate(218.74423299 394.065590385)rotate(-30.0)scale(0.12 -0.12)">
       <use xlink:href="#BitstreamVeraSans-Roman-4f"/>
       <use x="78.7109375" xlink:href="#BitstreamVeraSans-Roman-63"/>
       <use x="133.69140625" xlink:href="#BitstreamVeraSans-Roman-74"/>
       <use x="172.900390625" xlink:href="#BitstreamVeraSans-Roman-20"/>
       <use x="204.6875" xlink:href="#BitstreamVeraSans-Roman-32"/>
       <use x="268.310546875" xlink:href="#BitstreamVeraSans-Roman-32"/>
       <use x="331.93359375" xlink:href="#BitstreamVeraSans-Roman-20"/>
       <use x="363.720703125" xlink:href="#BitstreamVeraSans-Roman-32"/>
       <use x="427.34375" xlink:href="#BitstreamVeraSans-Roman-30"/>
       <use x="490.966796875" xlink:href="#BitstreamVeraSans-Roman-31"/>
       <use x="554.58984375" xlink:href="#BitstreamVeraSans-Roman-35"/>
      </g>
     </g>
    </g>
    <g id="xtick_5">
     <g id="line2d_11">
      <g>
       <use style="stroke:#000000;stroke-width:0.5;" x="338.461536877" xlink:href="#m93b0483c22" y="345.6"/>
      </g>
     </g>
     <g id="line2d_12">
      <g>
       <use style="stroke:#000000;stroke-width:0.5;" x="338.461536877" xlink:href="#m741efc42ff" y="43.2"/>
      </g>
     </g>
     <g id="text_5">
      <!-- Oct 25 2015 -->
      <g transform="translate(273.874250142 394.065590385)rotate(-30.0)scale(0.12 -0.12)">
       <use xlink:href="#BitstreamVeraSans-Roman-4f"/>
       <use x="78.7109375" xlink:href="#BitstreamVeraSans-Roman-63"/>
       <use x="133.69140625" xlink:href="#BitstreamVeraSans-Roman-74"/>
       <use x="172.900390625" xlink:href="#BitstreamVeraSans-Roman-20"/>
       <use x="204.6875" xlink:href="#BitstreamVeraSans-Roman-32"/>
       <use x="268.310546875" xlink:href="#BitstreamVeraSans-Roman-35"/>
       <use x="331.93359375" xlink:href="#BitstreamVeraSans-Roman-20"/>
       <use x="363.720703125" xlink:href="#BitstreamVeraSans-Roman-32"/>
       <use x="427.34375" xlink:href="#BitstreamVeraSans-Roman-30"/>
       <use x="490.966796875" xlink:href="#BitstreamVeraSans-Roman-31"/>
       <use x="554.58984375" xlink:href="#BitstreamVeraSans-Roman-35"/>
      </g>
     </g>
    </g>
    <g id="xtick_6">
     <g id="line2d_13">
      <g>
       <use style="stroke:#000000;stroke-width:0.5;" x="393.591554031" xlink:href="#m93b0483c22" y="345.6"/>
      </g>
     </g>
     <g id="line2d_14">
      <g>
       <use style="stroke:#000000;stroke-width:0.5;" x="393.591554031" xlink:href="#m741efc42ff" y="43.2"/>
      </g>
     </g>
     <g id="text_6">
      <!-- Oct 28 2015 -->
      <defs>
       <path d="
M31.7812 34.625
Q24.75 34.625 20.7188 30.8594
Q16.7031 27.0938 16.7031 20.5156
Q16.7031 13.9219 20.7188 10.1562
Q24.75 6.39062 31.7812 6.39062
Q38.8125 6.39062 42.8594 10.1719
Q46.9219 13.9688 46.9219 20.5156
Q46.9219 27.0938 42.8906 30.8594
Q38.875 34.625 31.7812 34.625
M21.9219 38.8125
Q15.5781 40.375 12.0312 44.7188
Q8.5 49.0781 8.5 55.3281
Q8.5 64.0625 14.7188 69.1406
Q20.9531 74.2188 31.7812 74.2188
Q42.6719 74.2188 48.875 69.1406
Q55.0781 64.0625 55.0781 55.3281
Q55.0781 49.0781 51.5312 44.7188
Q48 40.375 41.7031 38.8125
Q48.8281 37.1562 52.7969 32.3125
Q56.7812 27.4844 56.7812 20.5156
Q56.7812 9.90625 50.3125 4.23438
Q43.8438 -1.42188 31.7812 -1.42188
Q19.7344 -1.42188 13.25 4.23438
Q6.78125 9.90625 6.78125 20.5156
Q6.78125 27.4844 10.7812 32.3125
Q14.7969 37.1562 21.9219 38.8125
M18.3125 54.3906
Q18.3125 48.7344 21.8438 45.5625
Q25.3906 42.3906 31.7812 42.3906
Q38.1406 42.3906 41.7188 45.5625
Q45.3125 48.7344 45.3125 54.3906
Q45.3125 60.0625 41.7188 63.2344
Q38.1406 66.4062 31.7812 66.4062
Q25.3906 66.4062 21.8438 63.2344
Q18.3125 60.0625 18.3125 54.3906" id="BitstreamVeraSans-Roman-38"/>
      </defs>
      <g transform="translate(329.004267296 394.065590385)rotate(-30.0)scale(0.12 -0.12)">
       <use xlink:href="#BitstreamVeraSans-Roman-4f"/>
       <use x="78.7109375" xlink:href="#BitstreamVeraSans-Roman-63"/>
       <use x="133.69140625" xlink:href="#BitstreamVeraSans-Roman-74"/>
       <use x="172.900390625" xlink:href="#BitstreamVeraSans-Roman-20"/>
       <use x="204.6875" xlink:href="#BitstreamVeraSans-Roman-32"/>
       <use x="268.310546875" xlink:href="#BitstreamVeraSans-Roman-38"/>
       <use x="331.93359375" xlink:href="#BitstreamVeraSans-Roman-20"/>
       <use x="363.720703125" xlink:href="#BitstreamVeraSans-Roman-32"/>
       <use x="427.34375" xlink:href="#BitstreamVeraSans-Roman-30"/>
       <use x="490.966796875" xlink:href="#BitstreamVeraSans-Roman-31"/>
       <use x="554.58984375" xlink:href="#BitstreamVeraSans-Roman-35"/>
      </g>
     </g>
    </g>
    <g id="xtick_7">
     <g id="line2d_15">
      <g>
       <use style="stroke:#000000;stroke-width:0.5;" x="448.721571183" xlink:href="#m93b0483c22" y="345.6"/>
      </g>
     </g>
     <g id="line2d_16">
      <g>
       <use style="stroke:#000000;stroke-width:0.5;" x="448.721571183" xlink:href="#m741efc42ff" y="43.2"/>
      </g>
     </g>
     <g id="text_7">
      <!-- Oct 31 2015 -->
      <g transform="translate(384.134284448 394.065590385)rotate(-30.0)scale(0.12 -0.12)">
       <use xlink:href="#BitstreamVeraSans-Roman-4f"/>
       <use x="78.7109375" xlink:href="#BitstreamVeraSans-Roman-63"/>
       <use x="133.69140625" xlink:href="#BitstreamVeraSans-Roman-74"/>
       <use x="172.900390625" xlink:href="#BitstreamVeraSans-Roman-20"/>
       <use x="204.6875" xlink:href="#BitstreamVeraSans-Roman-33"/>
       <use x="268.310546875" xlink:href="#BitstreamVeraSans-Roman-31"/>
       <use x="331.93359375" xlink:href="#BitstreamVeraSans-Roman-20"/>
       <use x="363.720703125" xlink:href="#BitstreamVeraSans-Roman-32"/>
       <use x="427.34375" xlink:href="#BitstreamVeraSans-Roman-30"/>
       <use x="490.966796875" xlink:href="#BitstreamVeraSans-Roman-31"/>
       <use x="554.58984375" xlink:href="#BitstreamVeraSans-Roman-35"/>
      </g>
     </g>
    </g>
    <g id="xtick_8">
     <g id="line2d_17">
      <g>
       <use style="stroke:#000000;stroke-width:0.5;" x="503.851588335" xlink:href="#m93b0483c22" y="345.6"/>
      </g>
     </g>
     <g id="line2d_18">
      <g>
       <use style="stroke:#000000;stroke-width:0.5;" x="503.851588335" xlink:href="#m741efc42ff" y="43.2"/>
      </g>
     </g>
     <g id="text_8">
      <!-- Nov 03 2015 -->
      <defs>
       <path d="
M2.98438 54.6875
L12.5 54.6875
L29.5938 8.79688
L46.6875 54.6875
L56.2031 54.6875
L35.6875 0
L23.4844 0
z
" id="BitstreamVeraSans-Roman-76"/>
       <path d="
M9.8125 72.9062
L23.0938 72.9062
L55.4219 11.9219
L55.4219 72.9062
L64.9844 72.9062
L64.9844 0
L51.7031 0
L19.3906 60.9844
L19.3906 0
L9.8125 0
z
" id="BitstreamVeraSans-Roman-4e"/>
       <path d="
M30.6094 48.3906
Q23.3906 48.3906 19.1875 42.75
Q14.9844 37.1094 14.9844 27.2969
Q14.9844 17.4844 19.1562 11.8438
Q23.3438 6.20312 30.6094 6.20312
Q37.7969 6.20312 41.9844 11.8594
Q46.1875 17.5312 46.1875 27.2969
Q46.1875 37.0156 41.9844 42.7031
Q37.7969 48.3906 30.6094 48.3906
M30.6094 56
Q42.3281 56 49.0156 48.375
Q55.7188 40.7656 55.7188 27.2969
Q55.7188 13.875 49.0156 6.21875
Q42.3281 -1.42188 30.6094 -1.42188
Q18.8438 -1.42188 12.1719 6.21875
Q5.51562 13.875 5.51562 27.2969
Q5.51562 40.7656 12.1719 48.375
Q18.8438 56 30.6094 56" id="BitstreamVeraSans-Roman-6f"/>
      </defs>
      <g transform="translate(436.948766176 395.402465385)rotate(-30.0)scale(0.12 -0.12)">
       <use xlink:href="#BitstreamVeraSans-Roman-4e"/>
       <use x="74.8046875" xlink:href="#BitstreamVeraSans-Roman-6f"/>
       <use x="135.986328125" xlink:href="#BitstreamVeraSans-Roman-76"/>
       <use x="195.166015625" xlink:href="#BitstreamVeraSans-Roman-20"/>
       <use x="226.953125" xlink:href="#BitstreamVeraSans-Roman-30"/>
       <use x="290.576171875" xlink:href="#BitstreamVeraSans-Roman-33"/>
       <use x="354.19921875" xlink:href="#BitstreamVeraSans-Roman-20"/>
       <use x="385.986328125" xlink:href="#BitstreamVeraSans-Roman-32"/>
       <use x="449.609375" xlink:href="#BitstreamVeraSans-Roman-30"/>
       <use x="513.232421875" xlink:href="#BitstreamVeraSans-Roman-31"/>
       <use x="576.85546875" xlink:href="#BitstreamVeraSans-Roman-35"/>
      </g>
     </g>
    </g>
   </g>
   <g id="matplotlib.axis_2">
    <g id="ytick_1">
     <g id="line2d_19">
      <defs>
       <path d="
M0 0
L4 0" id="m728421d6d4" style="stroke:#000000;stroke-width:0.5;"/>
      </defs>
      <g>
       <use style="stroke:#000000;stroke-width:0.5;" x="72.0" xlink:href="#m728421d6d4" y="306.840626179"/>
      </g>
     </g>
     <g id="line2d_20">
      <defs>
       <path d="
M0 0
L-4 0" id="mcb0005524f" style="stroke:#000000;stroke-width:0.5;"/>
      </defs>
      <g>
       <use style="stroke:#000000;stroke-width:0.5;" x="518.4" xlink:href="#mcb0005524f" y="306.840626179"/>
      </g>
     </g>
     <g id="text_9">
      <!-- 50000 -->
      <g transform="translate(31.548125 310.151876179)scale(0.12 -0.12)">
       <use xlink:href="#BitstreamVeraSans-Roman-35"/>
       <use x="63.623046875" xlink:href="#BitstreamVeraSans-Roman-30"/>
       <use x="127.24609375" xlink:href="#BitstreamVeraSans-Roman-30"/>
       <use x="190.869140625" xlink:href="#BitstreamVeraSans-Roman-30"/>
       <use x="254.4921875" xlink:href="#BitstreamVeraSans-Roman-30"/>
      </g>
     </g>
    </g>
    <g id="ytick_2">
     <g id="line2d_21">
      <g>
       <use style="stroke:#000000;stroke-width:0.5;" x="72.0" xlink:href="#m728421d6d4" y="224.452930498"/>
      </g>
     </g>
     <g id="line2d_22">
      <g>
       <use style="stroke:#000000;stroke-width:0.5;" x="518.4" xlink:href="#mcb0005524f" y="224.452930498"/>
      </g>
     </g>
     <g id="text_10">
      <!-- 100000 -->
      <g transform="translate(24.305 227.764180498)scale(0.12 -0.12)">
       <use xlink:href="#BitstreamVeraSans-Roman-31"/>
       <use x="63.623046875" xlink:href="#BitstreamVeraSans-Roman-30"/>
       <use x="127.24609375" xlink:href="#BitstreamVeraSans-Roman-30"/>
       <use x="190.869140625" xlink:href="#BitstreamVeraSans-Roman-30"/>
       <use x="254.4921875" xlink:href="#BitstreamVeraSans-Roman-30"/>
       <use x="318.115234375" xlink:href="#BitstreamVeraSans-Roman-30"/>
      </g>
     </g>
    </g>
    <g id="ytick_3">
     <g id="line2d_23">
      <g>
       <use style="stroke:#000000;stroke-width:0.5;" x="72.0" xlink:href="#m728421d6d4" y="142.065234817"/>
      </g>
     </g>
     <g id="line2d_24">
      <g>
       <use style="stroke:#000000;stroke-width:0.5;" x="518.4" xlink:href="#mcb0005524f" y="142.065234817"/>
      </g>
     </g>
     <g id="text_11">
      <!-- 150000 -->
      <g transform="translate(24.305 145.376484817)scale(0.12 -0.12)">
       <use xlink:href="#BitstreamVeraSans-Roman-31"/>
       <use x="63.623046875" xlink:href="#BitstreamVeraSans-Roman-35"/>
       <use x="127.24609375" xlink:href="#BitstreamVeraSans-Roman-30"/>
       <use x="190.869140625" xlink:href="#BitstreamVeraSans-Roman-30"/>
       <use x="254.4921875" xlink:href="#BitstreamVeraSans-Roman-30"/>
       <use x="318.115234375" xlink:href="#BitstreamVeraSans-Roman-30"/>
      </g>
     </g>
    </g>
    <g id="ytick_4">
     <g id="line2d_25">
      <g>
       <use style="stroke:#000000;stroke-width:0.5;" x="72.0" xlink:href="#m728421d6d4" y="59.6775391362"/>
      </g>
     </g>
     <g id="line2d_26">
      <g>
       <use style="stroke:#000000;stroke-width:0.5;" x="518.4" xlink:href="#mcb0005524f" y="59.6775391362"/>
      </g>
     </g>
     <g id="text_12">
      <!-- 200000 -->
      <g transform="translate(23.86625 62.9887891362)scale(0.12 -0.12)">
       <use xlink:href="#BitstreamVeraSans-Roman-32"/>
       <use x="63.623046875" xlink:href="#BitstreamVeraSans-Roman-30"/>
       <use x="127.24609375" xlink:href="#BitstreamVeraSans-Roman-30"/>
       <use x="190.869140625" xlink:href="#BitstreamVeraSans-Roman-30"/>
       <use x="254.4921875" xlink:href="#BitstreamVeraSans-Roman-30"/>
       <use x="318.115234375" xlink:href="#BitstreamVeraSans-Roman-30"/>
      </g>
     </g>
    </g>
   </g>
   <g id="text_13">
    <!-- Elektronikschrott -->
    <defs>
     <path d="
M54.8906 33.0156
L54.8906 0
L45.9062 0
L45.9062 32.7188
Q45.9062 40.4844 42.875 44.3281
Q39.8438 48.1875 33.7969 48.1875
Q26.5156 48.1875 22.3125 43.5469
Q18.1094 38.9219 18.1094 30.9062
L18.1094 0
L9.07812 0
L9.07812 54.6875
L18.1094 54.6875
L18.1094 46.1875
Q21.3438 51.125 25.7031 53.5625
Q30.0781 56 35.7969 56
Q45.2188 56 50.0469 50.1719
Q54.8906 44.3438 54.8906 33.0156" id="BitstreamVeraSans-Roman-6e"/>
     <path d="
M9.42188 75.9844
L18.4062 75.9844
L18.4062 0
L9.42188 0
z
" id="BitstreamVeraSans-Roman-6c"/>
     <path d="
M9.07812 75.9844
L18.1094 75.9844
L18.1094 31.1094
L44.9219 54.6875
L56.3906 54.6875
L27.3906 29.1094
L57.625 0
L45.9062 0
L18.1094 26.7031
L18.1094 0
L9.07812 0
z
" id="BitstreamVeraSans-Roman-6b"/>
     <path d="
M9.8125 72.9062
L55.9062 72.9062
L55.9062 64.5938
L19.6719 64.5938
L19.6719 43.0156
L54.3906 43.0156
L54.3906 34.7188
L19.6719 34.7188
L19.6719 8.29688
L56.7812 8.29688
L56.7812 0
L9.8125 0
z
" id="BitstreamVeraSans-Roman-45"/>
     <path d="
M9.42188 54.6875
L18.4062 54.6875
L18.4062 0
L9.42188 0
z

M9.42188 75.9844
L18.4062 75.9844
L18.4062 64.5938
L9.42188 64.5938
z
" id="BitstreamVeraSans-Roman-69"/>
     <path d="
M54.8906 33.0156
L54.8906 0
L45.9062 0
L45.9062 32.7188
Q45.9062 40.4844 42.875 44.3281
Q39.8438 48.1875 33.7969 48.1875
Q26.5156 48.1875 22.3125 43.5469
Q18.1094 38.9219 18.1094 30.9062
L18.1094 0
L9.07812 0
L9.07812 75.9844
L18.1094 75.9844
L18.1094 46.1875
Q21.3438 51.125 25.7031 53.5625
Q30.0781 56 35.7969 56
Q45.2188 56 50.0469 50.1719
Q54.8906 44.3438 54.8906 33.0156" id="BitstreamVeraSans-Roman-68"/>
     <path d="
M56.2031 29.5938
L56.2031 25.2031
L14.8906 25.2031
Q15.4844 15.9219 20.4844 11.0625
Q25.4844 6.20312 34.4219 6.20312
Q39.5938 6.20312 44.4531 7.46875
Q49.3125 8.73438 54.1094 11.2812
L54.1094 2.78125
Q49.2656 0.734375 44.1875 -0.34375
Q39.1094 -1.42188 33.8906 -1.42188
Q20.7969 -1.42188 13.1562 6.1875
Q5.51562 13.8125 5.51562 26.8125
Q5.51562 40.2344 12.7656 48.1094
Q20.0156 56 32.3281 56
Q43.3594 56 49.7812 48.8906
Q56.2031 41.7969 56.2031 29.5938
M47.2188 32.2344
Q47.125 39.5938 43.0938 43.9844
Q39.0625 48.3906 32.4219 48.3906
Q24.9062 48.3906 20.3906 44.1406
Q15.875 39.8906 15.1875 32.1719
z
" id="BitstreamVeraSans-Roman-65"/>
     <path d="
M41.1094 46.2969
Q39.5938 47.1719 37.8125 47.5781
Q36.0312 48 33.8906 48
Q26.2656 48 22.1875 43.0469
Q18.1094 38.0938 18.1094 28.8125
L18.1094 0
L9.07812 0
L9.07812 54.6875
L18.1094 54.6875
L18.1094 46.1875
Q20.9531 51.1719 25.4844 53.5781
Q30.0312 56 36.5312 56
Q37.4531 56 38.5781 55.875
Q39.7031 55.7656 41.0625 55.5156
z
" id="BitstreamVeraSans-Roman-72"/>
     <path d="
M44.2812 53.0781
L44.2812 44.5781
Q40.4844 46.5312 36.375 47.5
Q32.2812 48.4844 27.875 48.4844
Q21.1875 48.4844 17.8438 46.4375
Q14.5 44.3906 14.5 40.2812
Q14.5 37.1562 16.8906 35.375
Q19.2812 33.5938 26.5156 31.9844
L29.5938 31.2969
Q39.1562 29.25 43.1875 25.5156
Q47.2188 21.7812 47.2188 15.0938
Q47.2188 7.46875 41.1875 3.01562
Q35.1562 -1.42188 24.6094 -1.42188
Q20.2188 -1.42188 15.4531 -0.5625
Q10.6875 0.296875 5.42188 2
L5.42188 11.2812
Q10.4062 8.6875 15.2344 7.39062
Q20.0625 6.10938 24.8125 6.10938
Q31.1562 6.10938 34.5625 8.28125
Q37.9844 10.4531 37.9844 14.4062
Q37.9844 18.0625 35.5156 20.0156
Q33.0625 21.9688 24.7031 23.7812
L21.5781 24.5156
Q13.2344 26.2656 9.51562 29.9062
Q5.8125 33.5469 5.8125 39.8906
Q5.8125 47.6094 11.2812 51.7969
Q16.75 56 26.8125 56
Q31.7812 56 36.1719 55.2656
Q40.5781 54.5469 44.2812 53.0781" id="BitstreamVeraSans-Roman-73"/>
    </defs>
    <g transform="translate(398.09925 38.2)scale(0.144 -0.144)">
     <use xlink:href="#BitstreamVeraSans-Roman-45"/>
     <use x="63.18359375" xlink:href="#BitstreamVeraSans-Roman-6c"/>
     <use x="90.966796875" xlink:href="#BitstreamVeraSans-Roman-65"/>
     <use x="152.490234375" xlink:href="#BitstreamVeraSans-Roman-6b"/>
     <use x="210.400390625" xlink:href="#BitstreamVeraSans-Roman-74"/>
     <use x="249.609375" xlink:href="#BitstreamVeraSans-Roman-72"/>
     <use x="288.47265625" xlink:href="#BitstreamVeraSans-Roman-6f"/>
     <use x="349.654296875" xlink:href="#BitstreamVeraSans-Roman-6e"/>
     <use x="413.033203125" xlink:href="#BitstreamVeraSans-Roman-69"/>
     <use x="440.81640625" xlink:href="#BitstreamVeraSans-Roman-6b"/>
     <use x="498.7265625" xlink:href="#BitstreamVeraSans-Roman-73"/>
     <use x="550.826171875" xlink:href="#BitstreamVeraSans-Roman-63"/>
     <use x="605.806640625" xlink:href="#BitstreamVeraSans-Roman-68"/>
     <use x="669.185546875" xlink:href="#BitstreamVeraSans-Roman-72"/>
     <use x="708.048828125" xlink:href="#BitstreamVeraSans-Roman-6f"/>
     <use x="769.23046875" xlink:href="#BitstreamVeraSans-Roman-74"/>
     <use x="808.439453125" xlink:href="#BitstreamVeraSans-Roman-74"/>
    </g>
   </g>
   <g id="legend_1">
    <g id="patch_7">
     <path d="
M123.942 423.616
L466.458 423.616
L466.458 398.16
L123.942 398.16
z
" style="fill:#ffffff;stroke:#000000;stroke-linejoin:miter;"/>
    </g>
    <g id="line2d_27">
     <path d="
M134.022 409.822
L154.182 409.822" style="fill:none;stroke:#ff0000;stroke-linecap:square;"/>
    </g>
    <g id="line2d_28"/>
    <g id="text_14">
     <!-- Schwarzmarktpreis -->
     <defs>
      <path d="
M52 44.1875
Q55.375 50.25 60.0625 53.125
Q64.75 56 71.0938 56
Q79.6406 56 84.2812 50.0156
Q88.9219 44.0469 88.9219 33.0156
L88.9219 0
L79.8906 0
L79.8906 32.7188
Q79.8906 40.5781 77.0938 44.375
Q74.3125 48.1875 68.6094 48.1875
Q61.625 48.1875 57.5625 43.5469
Q53.5156 38.9219 53.5156 30.9062
L53.5156 0
L44.4844 0
L44.4844 32.7188
Q44.4844 40.625 41.7031 44.4062
Q38.9219 48.1875 33.1094 48.1875
Q26.2188 48.1875 22.1562 43.5312
Q18.1094 38.875 18.1094 30.9062
L18.1094 0
L9.07812 0
L9.07812 54.6875
L18.1094 54.6875
L18.1094 46.1875
Q21.1875 51.2188 25.4844 53.6094
Q29.7812 56 35.6875 56
Q41.6562 56 45.8281 52.9688
Q50 49.9531 52 44.1875" id="BitstreamVeraSans-Roman-6d"/>
      <path d="
M5.51562 54.6875
L48.1875 54.6875
L48.1875 46.4844
L14.4062 7.17188
L48.1875 7.17188
L48.1875 0
L4.29688 0
L4.29688 8.20312
L38.0938 47.5156
L5.51562 47.5156
z
" id="BitstreamVeraSans-Roman-7a"/>
      <path d="
M53.5156 70.5156
L53.5156 60.8906
Q47.9062 63.5781 42.9219 64.8906
Q37.9375 66.2188 33.2969 66.2188
Q25.25 66.2188 20.875 63.0938
Q16.5 59.9688 16.5 54.2031
Q16.5 49.3594 19.4062 46.8906
Q22.3125 44.4375 30.4219 42.9219
L36.375 41.7031
Q47.4062 39.5938 52.6562 34.2969
Q57.9062 29 57.9062 20.125
Q57.9062 9.51562 50.7969 4.04688
Q43.7031 -1.42188 29.9844 -1.42188
Q24.8125 -1.42188 18.9688 -0.25
Q13.1406 0.921875 6.89062 3.21875
L6.89062 13.375
Q12.8906 10.0156 18.6562 8.29688
Q24.4219 6.59375 29.9844 6.59375
Q38.4219 6.59375 43.0156 9.90625
Q47.6094 13.2344 47.6094 19.3906
Q47.6094 24.75 44.3125 27.7812
Q41.0156 30.8125 33.5 32.3281
L27.4844 33.5
Q16.4531 35.6875 11.5156 40.375
Q6.59375 45.0625 6.59375 53.4219
Q6.59375 63.0938 13.4062 68.6562
Q20.2188 74.2188 32.1719 74.2188
Q37.3125 74.2188 42.625 73.2812
Q47.9531 72.3594 53.5156 70.5156" id="BitstreamVeraSans-Roman-53"/>
      <path d="
M4.20312 54.6875
L13.1875 54.6875
L24.4219 12.0156
L35.5938 54.6875
L46.1875 54.6875
L57.4219 12.0156
L68.6094 54.6875
L77.5938 54.6875
L63.2812 0
L52.6875 0
L40.9219 44.8281
L29.1094 0
L18.5 0
z
" id="BitstreamVeraSans-Roman-77"/>
      <path d="
M34.2812 27.4844
Q23.3906 27.4844 19.1875 25
Q14.9844 22.5156 14.9844 16.5
Q14.9844 11.7188 18.1406 8.90625
Q21.2969 6.10938 26.7031 6.10938
Q34.1875 6.10938 38.7031 11.4062
Q43.2188 16.7031 43.2188 25.4844
L43.2188 27.4844
z

M52.2031 31.2031
L52.2031 0
L43.2188 0
L43.2188 8.29688
Q40.1406 3.32812 35.5469 0.953125
Q30.9531 -1.42188 24.3125 -1.42188
Q15.9219 -1.42188 10.9531 3.29688
Q6 8.01562 6 15.9219
Q6 25.1406 12.1719 29.8281
Q18.3594 34.5156 30.6094 34.5156
L43.2188 34.5156
L43.2188 35.4062
Q43.2188 41.6094 39.1406 45
Q35.0625 48.3906 27.6875 48.3906
Q23 48.3906 18.5469 47.2656
Q14.1094 46.1406 10.0156 43.8906
L10.0156 52.2031
Q14.9375 54.1094 19.5781 55.0469
Q24.2188 56 28.6094 56
Q40.4844 56 46.3438 49.8438
Q52.2031 43.7031 52.2031 31.2031" id="BitstreamVeraSans-Roman-61"/>
      <path d="
M18.1094 8.20312
L18.1094 -20.7969
L9.07812 -20.7969
L9.07812 54.6875
L18.1094 54.6875
L18.1094 46.3906
Q20.9531 51.2656 25.2656 53.625
Q29.5938 56 35.5938 56
Q45.5625 56 51.7812 48.0938
Q58.0156 40.1875 58.0156 27.2969
Q58.0156 14.4062 51.7812 6.48438
Q45.5625 -1.42188 35.5938 -1.42188
Q29.5938 -1.42188 25.2656 0.953125
Q20.9531 3.32812 18.1094 8.20312
M48.6875 27.2969
Q48.6875 37.2031 44.6094 42.8438
Q40.5312 48.4844 33.4062 48.4844
Q26.2656 48.4844 22.1875 42.8438
Q18.1094 37.2031 18.1094 27.2969
Q18.1094 17.3906 22.1875 11.75
Q26.2656 6.10938 33.4062 6.10938
Q40.5312 6.10938 44.6094 11.75
Q48.6875 17.3906 48.6875 27.2969" id="BitstreamVeraSans-Roman-70"/>
     </defs>
     <g transform="translate(170.022375 414.86175)scale(0.144 -0.144)">
      <use xlink:href="#BitstreamVeraSans-Roman-53"/>
      <use x="63.4765625" xlink:href="#BitstreamVeraSans-Roman-63"/>
      <use x="118.45703125" xlink:href="#BitstreamVeraSans-Roman-68"/>
      <use x="181.8359375" xlink:href="#BitstreamVeraSans-Roman-77"/>
      <use x="263.623046875" xlink:href="#BitstreamVeraSans-Roman-61"/>
      <use x="324.90234375" xlink:href="#BitstreamVeraSans-Roman-72"/>
      <use x="366.015625" xlink:href="#BitstreamVeraSans-Roman-7a"/>
      <use x="418.505859375" xlink:href="#BitstreamVeraSans-Roman-6d"/>
      <use x="515.91796875" xlink:href="#BitstreamVeraSans-Roman-61"/>
      <use x="577.197265625" xlink:href="#BitstreamVeraSans-Roman-72"/>
      <use x="618.310546875" xlink:href="#BitstreamVeraSans-Roman-6b"/>
      <use x="676.220703125" xlink:href="#BitstreamVeraSans-Roman-74"/>
      <use x="715.4296875" xlink:href="#BitstreamVeraSans-Roman-70"/>
      <use x="778.90625" xlink:href="#BitstreamVeraSans-Roman-72"/>
      <use x="817.76953125" xlink:href="#BitstreamVeraSans-Roman-65"/>
      <use x="879.29296875" xlink:href="#BitstreamVeraSans-Roman-69"/>
      <use x="907.076171875" xlink:href="#BitstreamVeraSans-Roman-73"/>
     </g>
    </g>
    <g id="line2d_29">
     <path d="
M339.609 409.822
L359.769 409.822" style="fill:none;stroke:#008000;stroke-linecap:square;"/>
    </g>
    <g id="line2d_30"/>
    <g id="text_15">
     <!-- Normalpreis -->
     <g transform="translate(375.609375 414.86175)scale(0.144 -0.144)">
      <use xlink:href="#BitstreamVeraSans-Roman-4e"/>
      <use x="74.8046875" xlink:href="#BitstreamVeraSans-Roman-6f"/>
      <use x="135.986328125" xlink:href="#BitstreamVeraSans-Roman-72"/>
      <use x="175.349609375" xlink:href="#BitstreamVeraSans-Roman-6d"/>
      <use x="272.76171875" xlink:href="#BitstreamVeraSans-Roman-61"/>
      <use x="334.041015625" xlink:href="#BitstreamVeraSans-Roman-6c"/>
      <use x="361.82421875" xlink:href="#BitstreamVeraSans-Roman-70"/>
      <use x="425.30078125" xlink:href="#BitstreamVeraSans-Roman-72"/>
      <use x="464.1640625" xlink:href="#BitstreamVeraSans-Roman-65"/>
      <use x="525.6875" xlink:href="#BitstreamVeraSans-Roman-69"/>
      <use x="553.470703125" xlink:href="#BitstreamVeraSans-Roman-73"/>
     </g>
    </g>
   </g>
  </g>
 </g>
 <defs>
  <clipPath id="pcb2bf987bf">
   <rect height="302.4" width="446.4" x="72.0" y="43.2"/>
  </clipPath>
 </defs>
</svg>
