<?xml version="1.0" encoding="utf-8" standalone="no"?>
<!DOCTYPE svg PUBLIC "-//W3C//DTD SVG 1.1//EN"
  "http://www.w3.org/Graphics/SVG/1.1/DTD/svg11.dtd">
<!-- Created with matplotlib (http://matplotlib.org/) -->
<svg height="432pt" version="1.1" viewBox="0 0 576 432" width="576pt" xmlns="http://www.w3.org/2000/svg" xmlns:xlink="http://www.w3.org/1999/xlink">
 <defs>
  <style type="text/css">
*{stroke-linecap:butt;stroke-linejoin:round;}
  </style>
 </defs>
 <g id="figure_1">
  <g id="patch_1">
   <path d="
M0 432
L576 432
L576 0
L0 0
z
" style="fill:#ffffff;"/>
  </g>
  <g id="axes_1">
   <g id="patch_2">
    <path d="
M72 345.6
L518.4 345.6
L518.4 43.2
L72 43.2
z
" style="fill:#ffffff;"/>
   </g>
   <g id="line2d_1">
    <path clip-path="url(#pcb2bf987bf)" d="
M83.8899 433
L83.9959 184.922
L84.2078 433
M86.187 433
L86.293 184.922
L86.5049 433
M92.783 433
L93.3118 187.714
L93.9465 433
M94.3146 433
L94.8432 188.411
L94.9489 433
M99.5675 433
L100.203 185.62
L100.331 187.434
L100.86 433
M101.099 433
L101.734 184.922
L101.84 433
M101.971 433
L102.5 185.899
L103.136 433
M103.502 433
L104.032 186.038
L104.667 433
M107.882 433
L107.988 187.714
L108.626 187.714
L109.26 433
M136.427 433
L136.956 185.62
L137.592 433
M141.787 433
L142.316 187.016
L142.951 433
M157.866 433
L158.396 184.922
L159.032 433
M165.418 433
L166.053 187.714
L166.687 433
M167.822 433
L168.35 190.366
L168.983 433
M176.137 433
L176.773 184.922
L176.879 433
M181.497 433
L182.132 187.016
L182.238 433
M183.029 433
L183.664 187.016
L183.77 433
M186.858 433
L187.492 188.411
L188.127 433
M193.747 433
L194.384 184.224
L195.02 433
M202.938 433
L203.572 189.807
L203.677 433
M205.891 433
L205.997 188.411
L206.102 433
M206.529 433
L206.635 188.411
L206.635 188.411
L206.635 188.411
L206.74 433
M211.761 433
L211.867 186.318
L212.079 433
M212.144 433
L212.25 186.318
L212.461 433
M212.953 433
L213.271 184.922
L213.377 433
M213.442 433
L213.654 186.318
L213.654 186.318
L213.654 186.318
L213.759 433
M215.207 433
L215.313 187.016
L215.524 433
M215.739 433
L215.951 187.016
L215.951 187.016
L215.951 187.016
L216.056 433
M220.95 433
L221.055 189.109
L221.267 433
M224.778 433
L224.884 189.109
L225.095 433
M225.161 433
L225.267 188.411
L225.522 190.226
L225.627 433
M231.053 433
L231.264 184.922
L231.264 184.922
L231.264 184.922
L231.37 433
M231.435 433
L231.647 184.922
L231.775 185.62
L231.987 433
M237.179 433
L237.39 187.714
L237.496 433
M238.327 433
L238.539 187.714
L238.666 187.714
L238.878 433
M240.228 433
L240.453 64.1738
L240.453 64.1738
L240.453 64.1738
L240.792 433
M248.897 433
L249.003 185.62
L249.215 433
M254.024 433
L254.235 188.411
L254.341 433
M256.554 433
L256.66 188.411
L256.66 188.411
L256.66 188.411
L256.872 433
M259.767 433
L259.978 190.505
L260.106 190.505
L260.317 433
M260.533 433
L260.744 192.46
L260.849 433
M262.83 433
L263.041 189.807
L263.146 433
M265.36 433
L265.466 187.016
L265.571 433
M268.805 433
L268.911 187.714
L269.123 433
M272.634 433
L272.74 190.924
L272.951 433
M273.166 433
L273.378 189.807
L273.378 189.807
L273.378 189.807
L273.483 433
M280.058 433
L280.269 191.901
L280.269 191.901
L280.269 191.901
L280.374 433
M281.206 433
L281.417 191.203
L281.545 191.203
L281.756 433
M285.651 433
L285.756 187.714
L285.968 433
M286.183 433
L286.395 188.83
L286.5 433
M289.096 433
L289.202 188.411
L289.414 433
M290.245 433
L290.351 189.807
L290.562 433
M292.309 433
L292.52 192.041
L292.52 192.041
L292.52 192.041
L292.626 433
M294.839 433
L294.945 193.018
L295.156 433
M296.371 433
L296.476 191.901
L296.687 433
M296.903 433
L297.114 191.901
L297.22 433
M297.669 433
L297.88 191.901
L297.985 433
M302.263 433
L302.474 189.807
L302.474 189.807
L302.474 189.807
L302.791 433
M305.326 433
L305.537 189.807
L305.642 433
M307.09 433
L307.196 188.411
L307.407 433
M309.154 433
L309.365 191.203
L309.471 433
M312.45 433
L312.556 191.203
L312.767 433
M315.513 433
L315.619 190.505
L315.83 433
M319.108 433
L319.319 190.505
L319.319 190.505
L319.319 190.505
L319.425 433
M324.085 433
L324.296 189.109
L324.402 433
M325.617 433
L325.828 189.807
L325.934 433
M331.21 433
L331.315 191.203
L331.526 433
M332.358 433
L332.464 191.901
L332.675 433
M334.422 433
L334.633 191.901
L334.739 433
M335.188 433
L335.399 191.901
L335.504 433
M336.187 433
L336.292 190.505
L336.503 433
M338.867 433
L338.972 189.807
L339.183 433
M339.249 433
L339.355 189.807
L339.566 433
M340.93 433
L341.142 189.807
L341.247 433
M342.845 433
L343.056 191.203
L343.161 433
M343.844 433
L343.949 189.807
L344.16 433
M347.672 433
L347.778 191.203
L347.989 433
M352.799 433
L353.01 191.203
L353.115 433
M353.842 433
L354.158 190.505
L354.264 433
M356.627 433
L356.838 187.714
L356.944 433
M357.265 433
L357.477 187.714
L357.732 188.411
L357.943 433
M359.157 433
L359.263 187.714
L359.475 433
M361.072 433
L361.177 188.411
L361.389 433
M362.22 433
L362.326 189.109
L362.537 433
M365.05 433
L365.261 190.505
L365.367 433
M366.581 433
L366.792 190.505
L366.898 433
M367.347 433
L367.558 190.505
L367.664 433
M370.26 433
L370.366 191.901
L370.577 433
M370.643 433
L370.749 191.203
L370.96 433
M371.174 433
L371.387 177.942
L371.493 433
M373.323 433
L373.428 190.505
L373.684 189.109
L373.684 189.109
L373.789 433
M373.855 433
L374.067 189.807
L374.172 433
M379.981 433
L380.192 189.807
L380.509 433
M381.895 433
L382.107 189.807
L382.234 188.411
L382.445 433
M382.894 433
L383 191.901
L383.255 191.901
L383.36 433
M384.043 433
L384.148 193.018
L384.359 433
M384.426 433
L384.531 191.901
L384.742 433
M388.444 433
L388.615 330.098
L388.7 433
M389.167 433
L389.38 173.754
L389.508 330.098
L389.763 329.4
L389.891 329.4
L390.062 433
M390.168 433
L390.274 193.297
L390.484 433
M390.701 433
L390.912 193.995
L391.017 433
M392.848 433
L392.954 191.203
L393.165 433
M393.381 433
L393.592 191.203
L393.697 433
M396.061 433
L396.272 191.343
L396.377 433
M398.208 433
L398.314 190.505
L398.525 433
M399.123 433
L399.335 191.203
L399.44 433
M404.334 433
L404.439 193.297
L404.65 433
M408.312 433
L408.523 195.252
L408.628 433
M410.076 433
L410.182 193.437
L410.393 433
M411.99 433
L412.096 190.505
L412.307 433
M412.5 433
L412.607 175.848
L412.926 433
M416.351 433
L416.563 189.807
L416.668 433
M429.751 433
L429.962 191.483
L430.068 433
M434.345 433
L434.556 190.785
L434.684 190.785
L434.895 433
M439.556 433
L439.661 191.203
L439.872 433
M443.001 433
L443.107 191.901
L443.318 433
M443.916 433
L444.128 190.505
L444.233 433
M446.214 433
L446.425 191.901
L446.53 433
M450.425 433
L450.636 189.807
L450.742 433
M452.339 433
L452.55 189.807
L452.656 433
M455.402 433
L455.613 190.505
L455.719 433
M460.379 433
L460.59 191.901
L460.696 433
M461.761 433
L461.866 192.599
L462.077 433
M462.144 433
L462.249 191.203
L462.46 433
M465.739 433
L465.95 193.297
L466.055 433
M470.716 433
L470.927 191.203
L471.032 433
M483.583 433
L483.689 191.203
L483.944 193.018
L484.049 433
M484.731 433
L484.837 189.807
L485.048 433
M487.028 433
L487.134 189.109
L487.345 433
M487.411 433
L487.517 188.411
L487.728 433
M490.091 433
L490.197 189.109
L490.408 433
M493.92 433
L494.026 190.505
L494.237 433
M496.217 433
L496.322 189.807
L496.534 433
M496.75 433
L496.961 191.203
L497.066 433
M498.131 433
L498.237 192.599
L498.448 433
M499.813 433
L500.023 192.599
L500.129 433
M500.579 433
L500.789 193.995
L500.894 433
M505.788 433
L505.894 188.411
L506.105 433
M507.469 433
L507.68 188.411
L507.786 433
M512.446 433
L512.657 190.505
L512.763 433
L512.763 433" style="fill:none;stroke:#ff0000;stroke-linecap:square;"/>
   </g>
   <g id="line2d_2">
    <path clip-path="url(#pcb2bf987bf)" d="
M72 201.394
L72.1276 202.231
L72.7657 202.231
L72.8933 202.371
L73.5314 202.371
L73.659 202.231
L74.2971 202.231
L74.4247 202.371
L75.8285 202.371
L75.9561 202.231
L76.5942 202.231
L76.7218 202.51
L77.3599 202.51
L77.8703 202.371
L78.1256 202.371
L78.1256 202.371
L78.2532 202.51
L78.8915 202.51
L79.0189 202.231
L79.6569 202.231
L79.7846 201.394
L80.4226 201.394
L80.5503 201.114
L81.9542 201.114
L82.0816 200.556
L82.7197 200.556
L82.8473 200.416
L85.017 200.416
L85.1444 200.556
L85.7825 200.556
L85.9101 200.696
L86.5482 200.696
L86.6758 201.394
L87.3139 201.394
L87.4415 202.092
L88.0796 202.092
L88.2072 202.929
L88.8453 202.929
L88.8453 202.929
L88.9729 203.208
L90.3767 203.208
L91.0148 203.069
L91.9081 203.487
L92.6738 203.208
L93.3118 203.348
L94.2051 203.767
L94.9708 203.767
L96.3746 203.487
L97.1403 202.929
L98.0336 202.65
L98.7993 202.231
L100.331 200.696
L101.862 200.416
L102.5 199.998
L103.393 200.137
L106.329 202.65
L107.095 202.65
L107.988 202.929
L108.626 202.929
L109.519 203.487
L110.285 203.487
L111.816 203.906
L113.986 204.744
L114.879 204.744
L117.048 202.929
L117.942 201.952
L118.707 201.673
L119.345 201.812
L120.111 201.533
L121.643 201.812
L122.536 202.231
L124.705 204.185
L125.471 204.046
L126.365 204.046
L127.768 204.604
L128.661 204.325
L129.299 204.325
L130.193 204.465
L130.831 204.185
L131.597 204.185
L132.362 204.046
L132.362 204.046
L133.894 203.348
L134.149 202.929
L134.659 202.929
L135.425 202.231
L136.318 201.254
L139.381 200.696
L140.019 200.835
L140.785 201.394
L141.678 201.673
L143.082 202.929
L143.975 203.208
L145.507 203.487
L146.272 202.79
L147.038 203.208
L147.676 203.348
L149.335 203.348
L150.867 203.906
L152.27 203.348
L153.164 203.348
L153.802 201.812
L154.567 200.835
L155.333 200.137
L155.333 200.137
L156.099 200.137
L156.865 200.277
L159.162 200.277
L159.927 201.254
L160.821 201.952
L162.224 202.79
L163.118 202.65
L163.883 202.79
L164.649 203.208
L166.053 203.208
L168.35 204.883
L169.243 204.744
L169.881 204.325
L173.072 201.394
L173.71 200.416
L174.603 199.858
L176.007 200.137
L177.538 200.696
L178.304 201.114
L179.07 201.812
L179.963 203.069
L180.729 203.069
L182.26 202.79
L182.898 202.79
L183.791 203.348
L184.43 203.627
L185.961 203.906
L186.727 203.487
L187.492 204.046
L188.258 203.767
L189.151 203.627
L193.618 200.975
L194.384 201.114
L195.277 200.277
L195.915 201.394
L196.681 201.673
L198.212 202.51
L198.978 203.348
L200.509 203.767
L201.275 203.069
L202.04 203.767
L202.806 203.627
L204.338 203.906
L205.231 203.767
L205.997 204.046
L206.124 203.906
L206.762 203.906
L207.4 203.627
L207.911 203.208
L208.166 203.208
L209.059 202.929
L209.059 202.929
L209.825 202.929
L210.591 202.371
L210.846 201.952
L212.122 201.952
L212.25 201.812
L212.888 201.812
L213.398 202.092
L214.419 202.092
L214.547 202.231
L215.185 202.231
L215.185 202.231
L215.313 202.65
L215.951 202.65
L215.951 202.65
L216.078 203.069
L216.589 203.069
L216.589 203.069
L216.844 203.767
L217.482 203.767
L217.482 203.767
L217.61 204.046
L218.248 204.046
L218.248 204.046
L218.375 204.185
L219.013 204.185
L219.141 204.465
L219.779 204.465
L219.907 204.744
L220.545 204.744
L220.672 204.465
L220.672 204.465
L221.31 204.465
L221.438 204.325
L222.076 204.325
L222.204 204.465
L222.842 204.465
L222.842 204.465
L223.352 204.744
L223.608 204.744
L223.735 205.023
L224.373 205.023
L224.501 204.604
L225.139 204.604
L225.267 204.185
L225.905 204.185
L225.905 204.185
L226.032 203.487
L226.032 203.487
L226.67 203.487
L226.798 203.069
L227.436 203.069
L227.436 203.069
L227.819 202.231
L228.202 202.231
L228.329 200.975
L228.967 200.975
L229.095 200.835
L229.733 200.835
L229.861 200.556
L230.499 200.556
L230.499 200.556
L231.009 200.696
L231.264 200.696
L231.264 200.696
L231.392 199.998
L232.03 199.998
L232.158 200.975
L232.796 200.975
L232.796 200.975
L232.924 201.533
L233.562 201.533
L233.689 202.231
L234.327 202.231
L234.327 202.231
L234.455 202.65
L235.093 202.65
L235.093 202.65
L235.221 203.069
L236.624 203.069
L236.752 203.208
L237.39 203.208
L237.518 203.348
L238.921 203.348
L239.049 203.767
L239.687 203.767
L239.815 204.046
L240.453 204.046
L240.453 204.046
L240.58 204.604
L241.219 204.604
L241.346 204.883
L242.75 204.883
L242.878 205.023
L244.281 205.023
L244.409 204.185
L245.047 204.185
L245.047 204.185
L245.175 203.208
L246.578 203.208
L246.578 203.208
L246.706 201.673
L247.344 201.673
L247.855 201.394
L249.641 201.394
L249.641 201.394
L249.769 201.673
L251.173 201.673
L251.3 202.231
L251.938 202.231
L252.066 203.348
L252.704 203.348
L252.832 203.487
L253.47 203.487
L253.597 203.767
L254.235 203.767
L254.363 203.906
L255.767 203.906
L255.767 203.906
L255.894 204.046
L256.532 204.046
L256.66 204.185
L256.66 204.185
L257.298 204.185
L257.426 204.744
L258.064 204.744
L258.064 204.744
L258.574 205.302
L259.595 205.302
L259.595 205.302
L259.723 205.861
L260.361 205.861
L260.489 206.279
L261.127 206.279
L261.254 205.861
L261.892 205.861
L262.02 205.581
L262.658 205.581
L262.786 205.023
L263.424 205.023
L263.424 205.023
L263.551 204.325
L264.189 204.325
L264.189 204.325
L264.317 203.348
L264.955 203.348
L264.955 203.348
L265.083 202.79
L265.593 202.79
L265.848 202.51
L267.252 202.51
L267.38 202.79
L268.018 202.79
L268.145 203.069
L269.549 203.069
L269.677 203.627
L270.315 203.627
L270.443 204.465
L271.081 204.465
L271.463 204.744
L272.612 204.744
L272.74 205.023
L273.378 205.023
L273.378 205.023
L273.506 205.163
L274.143 205.163
L274.271 205.442
L274.909 205.442
L274.909 205.442
L275.037 205.721
L275.675 205.721
L275.802 206
L276.441 206
L276.568 206.279
L277.972 206.279
L277.972 206.279
L278.099 206.698
L278.738 206.698
L278.865 206.977
L279.503 206.977
L279.631 207.117
L280.269 207.117
L280.269 207.117
L280.397 206.838
L281.035 206.838
L281.035 206.838
L281.162 206.14
L281.801 206.14
L282.183 205.442
L282.566 205.442
L282.694 204.744
L283.332 204.744
L283.459 204.046
L284.097 204.046
L284.225 203.487
L284.736 203.487
L285.374 203.208
L285.629 203.208
L285.756 202.79
L287.16 202.79
L287.288 202.929
L287.926 202.929
L288.054 203.767
L288.692 203.767
L288.819 204.744
L289.457 204.744
L289.585 205.023
L290.223 205.023
L290.351 205.302
L290.989 205.302
L291.116 205.442
L291.754 205.442
L292.265 205.861
L292.52 205.861
L292.52 205.861
L292.648 205.721
L293.286 205.721
L293.286 205.721
L293.413 206.559
L294.051 206.559
L294.051 206.559
L294.179 206.698
L294.817 206.698
L294.817 206.698
L294.945 206.838
L296.349 206.838
L296.476 207.117
L297.114 207.117
L297.242 206.977
L298.646 206.977
L298.773 206.838
L299.411 206.838
L299.539 206.279
L300.177 206.279
L300.177 206.279
L300.305 205.302
L300.943 205.302
L301.07 204.604
L301.708 204.604
L301.836 203.906
L302.474 203.906
L302.474 203.906
L302.857 203.208
L303.112 203.208
L303.368 204.185
L304.005 204.185
L304.005 204.185
L304.133 204.046
L304.771 204.046
L304.899 204.185
L305.537 204.185
L305.664 204.046
L307.068 204.046
L307.068 204.046
L307.196 205.302
L307.834 205.302
L307.962 205.861
L308.6 205.861
L308.6 205.861
L308.727 206.279
L310.131 206.279
L310.131 206.279
L310.259 206.419
L310.897 206.419
L311.024 206.559
L311.662 206.559
L311.79 206.698
L313.194 206.698
L313.321 206.838
L313.96 206.838
L314.087 206.977
L314.725 206.977
L314.853 207.117
L315.491 207.117
L315.619 207.257
L316.257 207.257
L316.384 206.977
L317.022 206.977
L317.15 206.559
L317.788 206.559
L317.916 205.861
L318.554 205.861
L318.554 205.861
L318.681 205.442
L319.319 205.442
L319.319 205.442
L319.447 205.163
L320.085 205.163
L320.213 204.604
L320.851 204.604
L320.851 204.604
L321.361 204.465
L321.616 204.465
L322.127 204.325
L323.148 204.325
L323.275 204.465
L324.679 204.465
L324.807 204.744
L326.211 204.744
L326.338 205.163
L326.976 205.163
L327.104 205.721
L327.742 205.721
L327.87 206
L328.508 206
L328.635 206.14
L329.273 206.14
L329.401 206.279
L330.805 206.279
L330.933 206.419
L331.57 206.419
L331.698 206.279
L332.336 206.279
L332.464 206.698
L333.102 206.698
L333.23 206.838
L333.868 206.838
L333.995 207.117
L334.633 207.117
L334.761 206.838
L335.399 206.838
L335.527 206.14
L336.165 206.14
L336.292 205.861
L336.93 205.861
L337.058 205.721
L337.696 205.721
L337.824 205.581
L338.462 205.581
L338.589 205.302
L339.227 205.302
L339.355 204.604
L339.866 204.604
L340.121 204.465
L340.504 204.465
L340.759 205.442
L340.886 204.883
L342.29 204.883
L342.418 205.023
L343.056 205.023
L343.184 204.883
L343.822 204.883
L343.822 204.883
L343.949 205.442
L344.588 205.442
L344.715 205.861
L345.353 205.861
L345.353 205.861
L345.481 206.279
L346.884 206.279
L346.884 206.279
L347.012 206.419
L347.65 206.419
L347.778 206.279
L348.416 206.279
L348.543 206
L349.181 206
L349.309 206.14
L351.224 206.14
L351.606 206.419
L352.244 206.419
L352.372 206.559
L353.01 206.559
L353.138 206
L353.776 206
L353.776 206
L354.286 205.861
L354.541 205.861
L354.669 205.442
L355.307 205.442
L355.307 205.442
L355.435 204.883
L356.073 204.883
L356.073 204.883
L356.2 204.325
L356.838 204.325
L356.966 203.069
L357.477 203.069
L357.732 203.487
L359.136 203.487
L359.263 203.906
L359.901 203.906
L360.029 203.767
L360.667 203.767
L360.795 203.906
L361.433 203.906
L361.56 204.465
L362.198 204.465
L362.326 204.883
L362.964 204.883
L363.092 205.442
L364.495 205.442
L364.623 205.581
L365.261 205.581
L365.389 205.721
L366.027 205.721
L366.027 205.721
L366.155 206
L367.558 206
L367.686 206.559
L369.855 206.559
L369.983 206.698
L370.621 206.698
L370.749 206.838
L371.387 206.838
L371.514 206.559
L372.152 206.559
L372.28 206.279
L372.918 206.279
L373.046 205.721
L373.684 205.721
L373.684 205.721
L373.811 205.023
L375.215 205.023
L375.343 204.465
L375.981 204.465
L376.108 204.604
L376.746 204.604
L376.874 204.325
L378.278 204.325
L378.405 204.465
L379.044 204.465
L379.171 204.604
L379.809 204.604
L379.937 205.163
L380.575 205.163
L380.703 206.14
L381.341 206.14
L381.468 206.419
L382.107 206.419
L382.234 205.721
L382.872 205.721
L383 206.838
L384.403 206.838
L384.531 206.977
L385.935 206.977
L386.062 207.815
L386.701 207.815
L386.828 207.675
L387.466 207.675
L387.594 208.094
L388.232 208.094
L388.232 208.094
L388.36 338.334
L388.998 338.334
L389.125 208.652
L390.529 208.652
L390.657 208.792
L391.295 208.792
L391.422 207.954
L392.06 207.954
L392.188 207.257
L392.826 207.257
L392.954 206.279
L393.592 206.279
L393.719 206
L394.102 206
L394.102 206
L394.485 205.442
L395.889 205.442
L396.016 205.302
L396.655 205.302
L396.782 205.163
L397.42 205.163
L397.548 205.302
L398.186 205.302
L398.314 205.721
L398.952 205.721
L399.079 206.698
L399.717 206.698
L399.845 207.675
L402.014 207.675
L402.142 207.815
L403.546 207.815
L403.673 207.954
L404.311 207.954
L404.439 208.094
L405.077 208.094
L405.205 208.373
L405.843 208.373
L405.97 208.652
L406.609 208.652
L406.736 208.932
L408.14 208.932
L408.268 208.513
L408.906 208.513
L409.033 207.954
L409.671 207.954
L409.799 207.257
L410.437 207.257
L410.565 206.559
L411.203 206.559
L411.33 205.861
L411.968 205.861
L412.096 205.302
L413.5 205.302
L413.627 204.744
L414.266 204.744
L414.393 204.883
L415.031 204.883
L415.159 205.023
L415.797 205.023
L415.925 205.302
L416.563 205.302
L416.69 205.581
L417.328 205.581
L417.456 206.698
L418.094 206.698
L418.222 206.559
L418.86 206.559
L418.987 206.977
L419.625 206.977
L419.753 206.419
L420.391 206.419
L420.519 206.559
L421.157 206.559
L421.284 206.698
L421.922 206.698
L422.05 207.536
L422.688 207.536
L422.816 207.675
L423.454 207.675
L423.581 207.396
L427.282 207.396
L427.41 206.977
L428.048 206.977
L428.176 206.419
L428.814 206.419
L428.941 206
L429.579 206
L429.707 205.302
L430.345 205.302
L430.473 204.744
L430.983 204.744
L431.238 204.883
L431.877 204.883
L432.004 204.604
L434.939 204.604
L435.067 205.023
L435.705 205.023
L435.833 205.442
L436.471 205.442
L436.598 205.581
L437.236 205.581
L437.364 205.861
L438.002 205.861
L438.13 206.14
L438.768 206.14
L438.895 206.279
L439.533 206.279
L439.661 206.419
L440.299 206.419
L440.299 206.419
L440.427 206.838
L441.065 206.838
L441.192 206.698
L441.831 206.698
L441.831 206.698
L441.958 206.977
L442.596 206.977
L442.724 207.257
L444.128 207.257
L444.255 207.117
L444.893 207.117
L445.021 207.396
L445.659 207.396
L446.169 206.977
L446.425 206.977
L446.552 206.279
L447.19 206.279
L447.318 206
L447.956 206
L448.084 205.721
L448.722 205.721
L448.849 205.581
L449.487 205.581
L449.487 205.581
L449.615 205.023
L451.019 205.023
L451.146 204.744
L453.316 204.744
L453.444 204.883
L454.082 204.883
L454.209 205.163
L454.847 205.163
L454.847 205.163
L454.975 205.581
L455.613 205.581
L455.741 205.861
L457.144 205.861
L457.272 206.698
L457.91 206.698
L458.038 206.838
L458.676 206.838
L458.803 207.257
L459.442 207.257
L459.569 206.977
L460.207 206.977
L460.335 207.536
L461.739 207.536
L461.866 207.815
L462.504 207.815
L462.632 208.234
L463.27 208.234
L463.398 208.373
L464.036 208.373
L464.163 208.094
L464.801 208.094
L464.929 207.257
L465.567 207.257
L465.567 207.257
L465.695 207.117
L467.864 207.117
L467.992 206.838
L468.63 206.838
L468.757 206.698
L469.396 206.698
L469.523 206.559
L470.161 206.559
L470.289 206.419
L470.927 206.419
L471.055 206
L471.693 206
L471.82 206.559
L472.458 206.559
L472.586 206.838
L473.224 206.838
L473.352 207.675
L473.99 207.675
L474.118 208.234
L474.755 208.234
L474.883 208.513
L475.521 208.513
L475.649 208.652
L477.052 208.652
L477.18 208.792
L477.818 208.792
L477.946 208.652
L478.584 208.652
L478.711 208.373
L479.35 208.373
L479.477 208.234
L480.115 208.234
L480.243 207.954
L480.881 207.954
L481.009 207.675
L481.647 207.675
L481.774 207.257
L482.412 207.257
L482.54 206.838
L483.178 206.838
L483.306 206.14
L483.944 206.14
L484.071 205.442
L484.709 205.442
L484.837 205.163
L485.475 205.163
L485.986 204.604
L486.241 204.604
L486.241 204.604
L486.368 204.325
L487.007 204.325
L487.134 204.185
L489.304 204.185
L489.431 204.465
L490.069 204.465
L490.197 205.023
L490.835 205.023
L490.963 205.721
L492.366 205.721
L492.494 206
L493.898 206
L494.026 205.861
L494.663 205.861
L494.791 206.279
L495.429 206.279
L495.684 206.419
L496.961 206.419
L497.088 207.117
L497.726 207.117
L497.854 207.675
L498.492 207.675
L498.62 207.954
L499.258 207.954
L499.258 207.954
L499.385 207.815
L500.023 207.815
L500.151 207.675
L500.789 207.675
L500.917 207.396
L501.555 207.396
L501.682 206.698
L502.32 206.698
L502.448 205.861
L503.086 205.861
L503.214 205.163
L503.852 205.163
L503.979 204.604
L504.617 204.604
L504.745 204.325
L505.383 204.325
L505.511 204.046
L506.149 204.046
L506.277 203.767
L506.915 203.767
L507.042 203.906
L507.68 203.906
L507.808 204.325
L508.446 204.325
L508.574 204.883
L509.212 204.883
L509.339 205.581
L509.977 205.581
L510.488 206
L510.743 206
L510.871 206.279
L511.509 206.279
L511.636 206
L513.04 206
L513.168 206.419
L513.806 206.419
L513.933 206.838
L514.572 206.838
L514.699 206.977
L515.337 206.977
L515.465 206.838
L516.103 206.838
L516.231 207.117
L516.869 207.117
L516.996 207.396
L517.634 207.396
L517.762 208.094
L518.4 208.094
L518.4 208.094" style="fill:none;stroke:#008000;stroke-linecap:square;"/>
   </g>
   <g id="patch_3">
    <path d="
M72 43.2
L518.4 43.2" style="fill:none;stroke:#000000;stroke-linecap:square;stroke-linejoin:miter;"/>
   </g>
   <g id="patch_4">
    <path d="
M518.4 345.6
L518.4 43.2" style="fill:none;stroke:#000000;stroke-linecap:square;stroke-linejoin:miter;"/>
   </g>
   <g id="patch_5">
    <path d="
M72 345.6
L518.4 345.6" style="fill:none;stroke:#000000;stroke-linecap:square;stroke-linejoin:miter;"/>
   </g>
   <g id="patch_6">
    <path d="
M72 345.6
L72 43.2" style="fill:none;stroke:#000000;stroke-linecap:square;stroke-linejoin:miter;"/>
   </g>
   <g id="matplotlib.axis_1">
    <g id="xtick_1">
     <g id="line2d_3">
      <defs>
       <path d="
M0 0
L0 -4" id="m93b0483c22" style="stroke:#000000;stroke-width:0.5;"/>
      </defs>
      <g>
       <use style="stroke:#000000;stroke-width:0.5;" x="117.941468267" xlink:href="#m93b0483c22" y="345.6"/>
      </g>
     </g>
     <g id="line2d_4">
      <defs>
       <path d="
M0 0
L0 4" id="m741efc42ff" style="stroke:#000000;stroke-width:0.5;"/>
      </defs>
      <g>
       <use style="stroke:#000000;stroke-width:0.5;" x="117.941468267" xlink:href="#m741efc42ff" y="43.2"/>
      </g>
     </g>
     <g id="text_1">
      <!-- Oct 13 2015 -->
      <defs>
       <path d="
M19.1875 8.29688
L53.6094 8.29688
L53.6094 0
L7.32812 0
L7.32812 8.29688
Q12.9375 14.1094 22.625 23.8906
Q32.3281 33.6875 34.8125 36.5312
Q39.5469 41.8438 41.4219 45.5312
Q43.3125 49.2188 43.3125 52.7812
Q43.3125 58.5938 39.2344 62.25
Q35.1562 65.9219 28.6094 65.9219
Q23.9688 65.9219 18.8125 64.3125
Q13.6719 62.7031 7.8125 59.4219
L7.8125 69.3906
Q13.7656 71.7812 18.9375 73
Q24.125 74.2188 28.4219 74.2188
Q39.75 74.2188 46.4844 68.5469
Q53.2188 62.8906 53.2188 53.4219
Q53.2188 48.9219 51.5312 44.8906
Q49.8594 40.875 45.4062 35.4062
Q44.1875 33.9844 37.6406 27.2188
Q31.1094 20.4531 19.1875 8.29688" id="BitstreamVeraSans-Roman-32"/>
       <path d="
M39.4062 66.2188
Q28.6562 66.2188 22.3281 58.2031
Q16.0156 50.2031 16.0156 36.375
Q16.0156 22.6094 22.3281 14.5938
Q28.6562 6.59375 39.4062 6.59375
Q50.1406 6.59375 56.4219 14.5938
Q62.7031 22.6094 62.7031 36.375
Q62.7031 50.2031 56.4219 58.2031
Q50.1406 66.2188 39.4062 66.2188
M39.4062 74.2188
Q54.7344 74.2188 63.9062 63.9375
Q73.0938 53.6562 73.0938 36.375
Q73.0938 19.1406 63.9062 8.85938
Q54.7344 -1.42188 39.4062 -1.42188
Q24.0312 -1.42188 14.8125 8.82812
Q5.60938 19.0938 5.60938 36.375
Q5.60938 53.6562 14.8125 63.9375
Q24.0312 74.2188 39.4062 74.2188" id="BitstreamVeraSans-Roman-4f"/>
       <path d="
M31.7812 66.4062
Q24.1719 66.4062 20.3281 58.9062
Q16.5 51.4219 16.5 36.375
Q16.5 21.3906 20.3281 13.8906
Q24.1719 6.39062 31.7812 6.39062
Q39.4531 6.39062 43.2812 13.8906
Q47.125 21.3906 47.125 36.375
Q47.125 51.4219 43.2812 58.9062
Q39.4531 66.4062 31.7812 66.4062
M31.7812 74.2188
Q44.0469 74.2188 50.5156 64.5156
Q56.9844 54.8281 56.9844 36.375
Q56.9844 17.9688 50.5156 8.26562
Q44.0469 -1.42188 31.7812 -1.42188
Q19.5312 -1.42188 13.0625 8.26562
Q6.59375 17.9688 6.59375 36.375
Q6.59375 54.8281 13.0625 64.5156
Q19.5312 74.2188 31.7812 74.2188" id="BitstreamVeraSans-Roman-30"/>
       <path d="
M12.4062 8.29688
L28.5156 8.29688
L28.5156 63.9219
L10.9844 60.4062
L10.9844 69.3906
L28.4219 72.9062
L38.2812 72.9062
L38.2812 8.29688
L54.3906 8.29688
L54.3906 0
L12.4062 0
z
" id="BitstreamVeraSans-Roman-31"/>
       <path d="
M40.5781 39.3125
Q47.6562 37.7969 51.625 33
Q55.6094 28.2188 55.6094 21.1875
Q55.6094 10.4062 48.1875 4.48438
Q40.7656 -1.42188 27.0938 -1.42188
Q22.5156 -1.42188 17.6562 -0.515625
Q12.7969 0.390625 7.625 2.20312
L7.625 11.7188
Q11.7188 9.32812 16.5938 8.10938
Q21.4844 6.89062 26.8125 6.89062
Q36.0781 6.89062 40.9375 10.5469
Q45.7969 14.2031 45.7969 21.1875
Q45.7969 27.6406 41.2812 31.2656
Q36.7656 34.9062 28.7188 34.9062
L20.2188 34.9062
L20.2188 43.0156
L29.1094 43.0156
Q36.375 43.0156 40.2344 45.9219
Q44.0938 48.8281 44.0938 54.2969
Q44.0938 59.9062 40.1094 62.9062
Q36.1406 65.9219 28.7188 65.9219
Q24.6562 65.9219 20.0156 65.0312
Q15.375 64.1562 9.8125 62.3125
L9.8125 71.0938
Q15.4375 72.6562 20.3438 73.4375
Q25.25 74.2188 29.5938 74.2188
Q40.8281 74.2188 47.3594 69.1094
Q53.9062 64.0156 53.9062 55.3281
Q53.9062 49.2656 50.4375 45.0938
Q46.9688 40.9219 40.5781 39.3125" id="BitstreamVeraSans-Roman-33"/>
       <path id="BitstreamVeraSans-Roman-20"/>
       <path d="
M10.7969 72.9062
L49.5156 72.9062
L49.5156 64.5938
L19.8281 64.5938
L19.8281 46.7344
Q21.9688 47.4688 24.1094 47.8281
Q26.2656 48.1875 28.4219 48.1875
Q40.625 48.1875 47.75 41.5
Q54.8906 34.8125 54.8906 23.3906
Q54.8906 11.625 47.5625 5.09375
Q40.2344 -1.42188 26.9062 -1.42188
Q22.3125 -1.42188 17.5469 -0.640625
Q12.7969 0.140625 7.71875 1.70312
L7.71875 11.625
Q12.1094 9.23438 16.7969 8.0625
Q21.4844 6.89062 26.7031 6.89062
Q35.1562 6.89062 40.0781 11.3281
Q45.0156 15.7656 45.0156 23.3906
Q45.0156 31 40.0781 35.4375
Q35.1562 39.8906 26.7031 39.8906
Q22.75 39.8906 18.8125 39.0156
Q14.8906 38.1406 10.7969 36.2812
z
" id="BitstreamVeraSans-Roman-35"/>
       <path d="
M18.3125 70.2188
L18.3125 54.6875
L36.8125 54.6875
L36.8125 47.7031
L18.3125 47.7031
L18.3125 18.0156
Q18.3125 11.3281 20.1406 9.42188
Q21.9688 7.51562 27.5938 7.51562
L36.8125 7.51562
L36.8125 0
L27.5938 0
Q17.1875 0 13.2344 3.875
Q9.28125 7.76562 9.28125 18.0156
L9.28125 47.7031
L2.6875 47.7031
L2.6875 54.6875
L9.28125 54.6875
L9.28125 70.2188
z
" id="BitstreamVeraSans-Roman-74"/>
       <path d="
M48.7812 52.5938
L48.7812 44.1875
Q44.9688 46.2969 41.1406 47.3438
Q37.3125 48.3906 33.4062 48.3906
Q24.6562 48.3906 19.8125 42.8438
Q14.9844 37.3125 14.9844 27.2969
Q14.9844 17.2812 19.8125 11.7344
Q24.6562 6.20312 33.4062 6.20312
Q37.3125 6.20312 41.1406 7.25
Q44.9688 8.29688 48.7812 10.4062
L48.7812 2.09375
Q45.0156 0.34375 40.9844 -0.53125
Q36.9688 -1.42188 32.4219 -1.42188
Q20.0625 -1.42188 12.7812 6.34375
Q5.51562 14.1094 5.51562 27.2969
Q5.51562 40.6719 12.8594 48.3281
Q20.2188 56 33.0156 56
Q37.1562 56 41.1094 55.1406
Q45.0625 54.2969 48.7812 52.5938" id="BitstreamVeraSans-Roman-63"/>
      </defs>
      <g transform="translate(53.3541815316 394.065590385)rotate(-30.0)scale(0.12 -0.12)">
       <use xlink:href="#BitstreamVeraSans-Roman-4f"/>
       <use x="78.7109375" xlink:href="#BitstreamVeraSans-Roman-63"/>
       <use x="133.69140625" xlink:href="#BitstreamVeraSans-Roman-74"/>
       <use x="172.900390625" xlink:href="#BitstreamVeraSans-Roman-20"/>
       <use x="204.6875" xlink:href="#BitstreamVeraSans-Roman-31"/>
       <use x="268.310546875" xlink:href="#BitstreamVeraSans-Roman-33"/>
       <use x="331.93359375" xlink:href="#BitstreamVeraSans-Roman-20"/>
       <use x="363.720703125" xlink:href="#BitstreamVeraSans-Roman-32"/>
       <use x="427.34375" xlink:href="#BitstreamVeraSans-Roman-30"/>
       <use x="490.966796875" xlink:href="#BitstreamVeraSans-Roman-31"/>
       <use x="554.58984375" xlink:href="#BitstreamVeraSans-Roman-35"/>
      </g>
     </g>
    </g>
    <g id="xtick_2">
     <g id="line2d_5">
      <g>
       <use style="stroke:#000000;stroke-width:0.5;" x="173.071485419" xlink:href="#m93b0483c22" y="345.6"/>
      </g>
     </g>
     <g id="line2d_6">
      <g>
       <use style="stroke:#000000;stroke-width:0.5;" x="173.071485419" xlink:href="#m741efc42ff" y="43.2"/>
      </g>
     </g>
     <g id="text_2">
      <!-- Oct 16 2015 -->
      <defs>
       <path d="
M33.0156 40.375
Q26.375 40.375 22.4844 35.8281
Q18.6094 31.2969 18.6094 23.3906
Q18.6094 15.5312 22.4844 10.9531
Q26.375 6.39062 33.0156 6.39062
Q39.6562 6.39062 43.5312 10.9531
Q47.4062 15.5312 47.4062 23.3906
Q47.4062 31.2969 43.5312 35.8281
Q39.6562 40.375 33.0156 40.375
M52.5938 71.2969
L52.5938 62.3125
Q48.875 64.0625 45.0938 64.9844
Q41.3125 65.9219 37.5938 65.9219
Q27.8281 65.9219 22.6719 59.3281
Q17.5312 52.7344 16.7969 39.4062
Q19.6719 43.6562 24.0156 45.9219
Q28.375 48.1875 33.5938 48.1875
Q44.5781 48.1875 50.9531 41.5156
Q57.3281 34.8594 57.3281 23.3906
Q57.3281 12.1562 50.6875 5.35938
Q44.0469 -1.42188 33.0156 -1.42188
Q20.3594 -1.42188 13.6719 8.26562
Q6.98438 17.9688 6.98438 36.375
Q6.98438 53.6562 15.1875 63.9375
Q23.3906 74.2188 37.2031 74.2188
Q40.9219 74.2188 44.7031 73.4844
Q48.4844 72.75 52.5938 71.2969" id="BitstreamVeraSans-Roman-36"/>
      </defs>
      <g transform="translate(108.484198684 394.065590385)rotate(-30.0)scale(0.12 -0.12)">
       <use xlink:href="#BitstreamVeraSans-Roman-4f"/>
       <use x="78.7109375" xlink:href="#BitstreamVeraSans-Roman-63"/>
       <use x="133.69140625" xlink:href="#BitstreamVeraSans-Roman-74"/>
       <use x="172.900390625" xlink:href="#BitstreamVeraSans-Roman-20"/>
       <use x="204.6875" xlink:href="#BitstreamVeraSans-Roman-31"/>
       <use x="268.310546875" xlink:href="#BitstreamVeraSans-Roman-36"/>
       <use x="331.93359375" xlink:href="#BitstreamVeraSans-Roman-20"/>
       <use x="363.720703125" xlink:href="#BitstreamVeraSans-Roman-32"/>
       <use x="427.34375" xlink:href="#BitstreamVeraSans-Roman-30"/>
       <use x="490.966796875" xlink:href="#BitstreamVeraSans-Roman-31"/>
       <use x="554.58984375" xlink:href="#BitstreamVeraSans-Roman-35"/>
      </g>
     </g>
    </g>
    <g id="xtick_3">
     <g id="line2d_7">
      <g>
       <use style="stroke:#000000;stroke-width:0.5;" x="228.201502573" xlink:href="#m93b0483c22" y="345.6"/>
      </g>
     </g>
     <g id="line2d_8">
      <g>
       <use style="stroke:#000000;stroke-width:0.5;" x="228.201502573" xlink:href="#m741efc42ff" y="43.2"/>
      </g>
     </g>
     <g id="text_3">
      <!-- Oct 19 2015 -->
      <defs>
       <path d="
M10.9844 1.51562
L10.9844 10.5
Q14.7031 8.73438 18.5 7.8125
Q22.3125 6.89062 25.9844 6.89062
Q35.75 6.89062 40.8906 13.4531
Q46.0469 20.0156 46.7812 33.4062
Q43.9531 29.2031 39.5938 26.9531
Q35.25 24.7031 29.9844 24.7031
Q19.0469 24.7031 12.6719 31.3125
Q6.29688 37.9375 6.29688 49.4219
Q6.29688 60.6406 12.9375 67.4219
Q19.5781 74.2188 30.6094 74.2188
Q43.2656 74.2188 49.9219 64.5156
Q56.5938 54.8281 56.5938 36.375
Q56.5938 19.1406 48.4062 8.85938
Q40.2344 -1.42188 26.4219 -1.42188
Q22.7031 -1.42188 18.8906 -0.6875
Q15.0938 0.046875 10.9844 1.51562
M30.6094 32.4219
Q37.25 32.4219 41.125 36.9531
Q45.0156 41.5 45.0156 49.4219
Q45.0156 57.2812 41.125 61.8438
Q37.25 66.4062 30.6094 66.4062
Q23.9688 66.4062 20.0938 61.8438
Q16.2188 57.2812 16.2188 49.4219
Q16.2188 41.5 20.0938 36.9531
Q23.9688 32.4219 30.6094 32.4219" id="BitstreamVeraSans-Roman-39"/>
      </defs>
      <g transform="translate(163.614215838 394.065590385)rotate(-30.0)scale(0.12 -0.12)">
       <use xlink:href="#BitstreamVeraSans-Roman-4f"/>
       <use x="78.7109375" xlink:href="#BitstreamVeraSans-Roman-63"/>
       <use x="133.69140625" xlink:href="#BitstreamVeraSans-Roman-74"/>
       <use x="172.900390625" xlink:href="#BitstreamVeraSans-Roman-20"/>
       <use x="204.6875" xlink:href="#BitstreamVeraSans-Roman-31"/>
       <use x="268.310546875" xlink:href="#BitstreamVeraSans-Roman-39"/>
       <use x="331.93359375" xlink:href="#BitstreamVeraSans-Roman-20"/>
       <use x="363.720703125" xlink:href="#BitstreamVeraSans-Roman-32"/>
       <use x="427.34375" xlink:href="#BitstreamVeraSans-Roman-30"/>
       <use x="490.966796875" xlink:href="#BitstreamVeraSans-Roman-31"/>
       <use x="554.58984375" xlink:href="#BitstreamVeraSans-Roman-35"/>
      </g>
     </g>
    </g>
    <g id="xtick_4">
     <g id="line2d_9">
      <g>
       <use style="stroke:#000000;stroke-width:0.5;" x="283.331519725" xlink:href="#m93b0483c22" y="345.6"/>
      </g>
     </g>
     <g id="line2d_10">
      <g>
       <use style="stroke:#000000;stroke-width:0.5;" x="283.331519725" xlink:href="#m741efc42ff" y="43.2"/>
      </g>
     </g>
     <g id="text_4">
      <!-- Oct 22 2015 -->
      <g transform="translate(218.74423299 394.065590385)rotate(-30.0)scale(0.12 -0.12)">
       <use xlink:href="#BitstreamVeraSans-Roman-4f"/>
       <use x="78.7109375" xlink:href="#BitstreamVeraSans-Roman-63"/>
       <use x="133.69140625" xlink:href="#BitstreamVeraSans-Roman-74"/>
       <use x="172.900390625" xlink:href="#BitstreamVeraSans-Roman-20"/>
       <use x="204.6875" xlink:href="#BitstreamVeraSans-Roman-32"/>
       <use x="268.310546875" xlink:href="#BitstreamVeraSans-Roman-32"/>
       <use x="331.93359375" xlink:href="#BitstreamVeraSans-Roman-20"/>
       <use x="363.720703125" xlink:href="#BitstreamVeraSans-Roman-32"/>
       <use x="427.34375" xlink:href="#BitstreamVeraSans-Roman-30"/>
       <use x="490.966796875" xlink:href="#BitstreamVeraSans-Roman-31"/>
       <use x="554.58984375" xlink:href="#BitstreamVeraSans-Roman-35"/>
      </g>
     </g>
    </g>
    <g id="xtick_5">
     <g id="line2d_11">
      <g>
       <use style="stroke:#000000;stroke-width:0.5;" x="338.461536877" xlink:href="#m93b0483c22" y="345.6"/>
      </g>
     </g>
     <g id="line2d_12">
      <g>
       <use style="stroke:#000000;stroke-width:0.5;" x="338.461536877" xlink:href="#m741efc42ff" y="43.2"/>
      </g>
     </g>
     <g id="text_5">
      <!-- Oct 25 2015 -->
      <g transform="translate(273.874250142 394.065590385)rotate(-30.0)scale(0.12 -0.12)">
       <use xlink:href="#BitstreamVeraSans-Roman-4f"/>
       <use x="78.7109375" xlink:href="#BitstreamVeraSans-Roman-63"/>
       <use x="133.69140625" xlink:href="#BitstreamVeraSans-Roman-74"/>
       <use x="172.900390625" xlink:href="#BitstreamVeraSans-Roman-20"/>
       <use x="204.6875" xlink:href="#BitstreamVeraSans-Roman-32"/>
       <use x="268.310546875" xlink:href="#BitstreamVeraSans-Roman-35"/>
       <use x="331.93359375" xlink:href="#BitstreamVeraSans-Roman-20"/>
       <use x="363.720703125" xlink:href="#BitstreamVeraSans-Roman-32"/>
       <use x="427.34375" xlink:href="#BitstreamVeraSans-Roman-30"/>
       <use x="490.966796875" xlink:href="#BitstreamVeraSans-Roman-31"/>
       <use x="554.58984375" xlink:href="#BitstreamVeraSans-Roman-35"/>
      </g>
     </g>
    </g>
    <g id="xtick_6">
     <g id="line2d_13">
      <g>
       <use style="stroke:#000000;stroke-width:0.5;" x="393.591554031" xlink:href="#m93b0483c22" y="345.6"/>
      </g>
     </g>
     <g id="line2d_14">
      <g>
       <use style="stroke:#000000;stroke-width:0.5;" x="393.591554031" xlink:href="#m741efc42ff" y="43.2"/>
      </g>
     </g>
     <g id="text_6">
      <!-- Oct 28 2015 -->
      <defs>
       <path d="
M31.7812 34.625
Q24.75 34.625 20.7188 30.8594
Q16.7031 27.0938 16.7031 20.5156
Q16.7031 13.9219 20.7188 10.1562
Q24.75 6.39062 31.7812 6.39062
Q38.8125 6.39062 42.8594 10.1719
Q46.9219 13.9688 46.9219 20.5156
Q46.9219 27.0938 42.8906 30.8594
Q38.875 34.625 31.7812 34.625
M21.9219 38.8125
Q15.5781 40.375 12.0312 44.7188
Q8.5 49.0781 8.5 55.3281
Q8.5 64.0625 14.7188 69.1406
Q20.9531 74.2188 31.7812 74.2188
Q42.6719 74.2188 48.875 69.1406
Q55.0781 64.0625 55.0781 55.3281
Q55.0781 49.0781 51.5312 44.7188
Q48 40.375 41.7031 38.8125
Q48.8281 37.1562 52.7969 32.3125
Q56.7812 27.4844 56.7812 20.5156
Q56.7812 9.90625 50.3125 4.23438
Q43.8438 -1.42188 31.7812 -1.42188
Q19.7344 -1.42188 13.25 4.23438
Q6.78125 9.90625 6.78125 20.5156
Q6.78125 27.4844 10.7812 32.3125
Q14.7969 37.1562 21.9219 38.8125
M18.3125 54.3906
Q18.3125 48.7344 21.8438 45.5625
Q25.3906 42.3906 31.7812 42.3906
Q38.1406 42.3906 41.7188 45.5625
Q45.3125 48.7344 45.3125 54.3906
Q45.3125 60.0625 41.7188 63.2344
Q38.1406 66.4062 31.7812 66.4062
Q25.3906 66.4062 21.8438 63.2344
Q18.3125 60.0625 18.3125 54.3906" id="BitstreamVeraSans-Roman-38"/>
      </defs>
      <g transform="translate(329.004267296 394.065590385)rotate(-30.0)scale(0.12 -0.12)">
       <use xlink:href="#BitstreamVeraSans-Roman-4f"/>
       <use x="78.7109375" xlink:href="#BitstreamVeraSans-Roman-63"/>
       <use x="133.69140625" xlink:href="#BitstreamVeraSans-Roman-74"/>
       <use x="172.900390625" xlink:href="#BitstreamVeraSans-Roman-20"/>
       <use x="204.6875" xlink:href="#BitstreamVeraSans-Roman-32"/>
       <use x="268.310546875" xlink:href="#BitstreamVeraSans-Roman-38"/>
       <use x="331.93359375" xlink:href="#BitstreamVeraSans-Roman-20"/>
       <use x="363.720703125" xlink:href="#BitstreamVeraSans-Roman-32"/>
       <use x="427.34375" xlink:href="#BitstreamVeraSans-Roman-30"/>
       <use x="490.966796875" xlink:href="#BitstreamVeraSans-Roman-31"/>
       <use x="554.58984375" xlink:href="#BitstreamVeraSans-Roman-35"/>
      </g>
     </g>
    </g>
    <g id="xtick_7">
     <g id="line2d_15">
      <g>
       <use style="stroke:#000000;stroke-width:0.5;" x="448.721571183" xlink:href="#m93b0483c22" y="345.6"/>
      </g>
     </g>
     <g id="line2d_16">
      <g>
       <use style="stroke:#000000;stroke-width:0.5;" x="448.721571183" xlink:href="#m741efc42ff" y="43.2"/>
      </g>
     </g>
     <g id="text_7">
      <!-- Oct 31 2015 -->
      <g transform="translate(384.134284448 394.065590385)rotate(-30.0)scale(0.12 -0.12)">
       <use xlink:href="#BitstreamVeraSans-Roman-4f"/>
       <use x="78.7109375" xlink:href="#BitstreamVeraSans-Roman-63"/>
       <use x="133.69140625" xlink:href="#BitstreamVeraSans-Roman-74"/>
       <use x="172.900390625" xlink:href="#BitstreamVeraSans-Roman-20"/>
       <use x="204.6875" xlink:href="#BitstreamVeraSans-Roman-33"/>
       <use x="268.310546875" xlink:href="#BitstreamVeraSans-Roman-31"/>
       <use x="331.93359375" xlink:href="#BitstreamVeraSans-Roman-20"/>
       <use x="363.720703125" xlink:href="#BitstreamVeraSans-Roman-32"/>
       <use x="427.34375" xlink:href="#BitstreamVeraSans-Roman-30"/>
       <use x="490.966796875" xlink:href="#BitstreamVeraSans-Roman-31"/>
       <use x="554.58984375" xlink:href="#BitstreamVeraSans-Roman-35"/>
      </g>
     </g>
    </g>
    <g id="xtick_8">
     <g id="line2d_17">
      <g>
       <use style="stroke:#000000;stroke-width:0.5;" x="503.851588335" xlink:href="#m93b0483c22" y="345.6"/>
      </g>
     </g>
     <g id="line2d_18">
      <g>
       <use style="stroke:#000000;stroke-width:0.5;" x="503.851588335" xlink:href="#m741efc42ff" y="43.2"/>
      </g>
     </g>
     <g id="text_8">
      <!-- Nov 03 2015 -->
      <defs>
       <path d="
M2.98438 54.6875
L12.5 54.6875
L29.5938 8.79688
L46.6875 54.6875
L56.2031 54.6875
L35.6875 0
L23.4844 0
z
" id="BitstreamVeraSans-Roman-76"/>
       <path d="
M9.8125 72.9062
L23.0938 72.9062
L55.4219 11.9219
L55.4219 72.9062
L64.9844 72.9062
L64.9844 0
L51.7031 0
L19.3906 60.9844
L19.3906 0
L9.8125 0
z
" id="BitstreamVeraSans-Roman-4e"/>
       <path d="
M30.6094 48.3906
Q23.3906 48.3906 19.1875 42.75
Q14.9844 37.1094 14.9844 27.2969
Q14.9844 17.4844 19.1562 11.8438
Q23.3438 6.20312 30.6094 6.20312
Q37.7969 6.20312 41.9844 11.8594
Q46.1875 17.5312 46.1875 27.2969
Q46.1875 37.0156 41.9844 42.7031
Q37.7969 48.3906 30.6094 48.3906
M30.6094 56
Q42.3281 56 49.0156 48.375
Q55.7188 40.7656 55.7188 27.2969
Q55.7188 13.875 49.0156 6.21875
Q42.3281 -1.42188 30.6094 -1.42188
Q18.8438 -1.42188 12.1719 6.21875
Q5.51562 13.875 5.51562 27.2969
Q5.51562 40.7656 12.1719 48.375
Q18.8438 56 30.6094 56" id="BitstreamVeraSans-Roman-6f"/>
      </defs>
      <g transform="translate(436.948766176 395.402465385)rotate(-30.0)scale(0.12 -0.12)">
       <use xlink:href="#BitstreamVeraSans-Roman-4e"/>
       <use x="74.8046875" xlink:href="#BitstreamVeraSans-Roman-6f"/>
       <use x="135.986328125" xlink:href="#BitstreamVeraSans-Roman-76"/>
       <use x="195.166015625" xlink:href="#BitstreamVeraSans-Roman-20"/>
       <use x="226.953125" xlink:href="#BitstreamVeraSans-Roman-30"/>
       <use x="290.576171875" xlink:href="#BitstreamVeraSans-Roman-33"/>
       <use x="354.19921875" xlink:href="#BitstreamVeraSans-Roman-20"/>
       <use x="385.986328125" xlink:href="#BitstreamVeraSans-Roman-32"/>
       <use x="449.609375" xlink:href="#BitstreamVeraSans-Roman-30"/>
       <use x="513.232421875" xlink:href="#BitstreamVeraSans-Roman-31"/>
       <use x="576.85546875" xlink:href="#BitstreamVeraSans-Roman-35"/>
      </g>
     </g>
    </g>
   </g>
   <g id="matplotlib.axis_2">
    <g id="ytick_1">
     <g id="line2d_19">
      <defs>
       <path d="
M0 0
L4 0" id="m728421d6d4" style="stroke:#000000;stroke-width:0.5;"/>
      </defs>
      <g>
       <use style="stroke:#000000;stroke-width:0.5;" x="72.0" xlink:href="#m728421d6d4" y="344.057498961"/>
      </g>
     </g>
     <g id="line2d_20">
      <defs>
       <path d="
M0 0
L-4 0" id="mcb0005524f" style="stroke:#000000;stroke-width:0.5;"/>
      </defs>
      <g>
       <use style="stroke:#000000;stroke-width:0.5;" x="518.4" xlink:href="#mcb0005524f" y="344.057498961"/>
      </g>
     </g>
     <g id="text_9">
      <!-- 1000 -->
      <g transform="translate(39.575 347.368748961)scale(0.12 -0.12)">
       <use xlink:href="#BitstreamVeraSans-Roman-31"/>
       <use x="63.623046875" xlink:href="#BitstreamVeraSans-Roman-30"/>
       <use x="127.24609375" xlink:href="#BitstreamVeraSans-Roman-30"/>
       <use x="190.869140625" xlink:href="#BitstreamVeraSans-Roman-30"/>
      </g>
     </g>
    </g>
    <g id="ytick_2">
     <g id="line2d_21">
      <g>
       <use style="stroke:#000000;stroke-width:0.5;" x="72.0" xlink:href="#m728421d6d4" y="274.261071874"/>
      </g>
     </g>
     <g id="line2d_22">
      <g>
       <use style="stroke:#000000;stroke-width:0.5;" x="518.4" xlink:href="#mcb0005524f" y="274.261071874"/>
      </g>
     </g>
     <g id="text_10">
      <!-- 1500 -->
      <g transform="translate(39.575 277.572321874)scale(0.12 -0.12)">
       <use xlink:href="#BitstreamVeraSans-Roman-31"/>
       <use x="63.623046875" xlink:href="#BitstreamVeraSans-Roman-35"/>
       <use x="127.24609375" xlink:href="#BitstreamVeraSans-Roman-30"/>
       <use x="190.869140625" xlink:href="#BitstreamVeraSans-Roman-30"/>
      </g>
     </g>
    </g>
    <g id="ytick_3">
     <g id="line2d_23">
      <g>
       <use style="stroke:#000000;stroke-width:0.5;" x="72.0" xlink:href="#m728421d6d4" y="204.464644786"/>
      </g>
     </g>
     <g id="line2d_24">
      <g>
       <use style="stroke:#000000;stroke-width:0.5;" x="518.4" xlink:href="#mcb0005524f" y="204.464644786"/>
      </g>
     </g>
     <g id="text_11">
      <!-- 2000 -->
      <g transform="translate(39.13625 207.775894786)scale(0.12 -0.12)">
       <use xlink:href="#BitstreamVeraSans-Roman-32"/>
       <use x="63.623046875" xlink:href="#BitstreamVeraSans-Roman-30"/>
       <use x="127.24609375" xlink:href="#BitstreamVeraSans-Roman-30"/>
       <use x="190.869140625" xlink:href="#BitstreamVeraSans-Roman-30"/>
      </g>
     </g>
    </g>
    <g id="ytick_4">
     <g id="line2d_25">
      <g>
       <use style="stroke:#000000;stroke-width:0.5;" x="72.0" xlink:href="#m728421d6d4" y="134.668217698"/>
      </g>
     </g>
     <g id="line2d_26">
      <g>
       <use style="stroke:#000000;stroke-width:0.5;" x="518.4" xlink:href="#mcb0005524f" y="134.668217698"/>
      </g>
     </g>
     <g id="text_12">
      <!-- 2500 -->
      <g transform="translate(39.13625 137.979467698)scale(0.12 -0.12)">
       <use xlink:href="#BitstreamVeraSans-Roman-32"/>
       <use x="63.623046875" xlink:href="#BitstreamVeraSans-Roman-35"/>
       <use x="127.24609375" xlink:href="#BitstreamVeraSans-Roman-30"/>
       <use x="190.869140625" xlink:href="#BitstreamVeraSans-Roman-30"/>
      </g>
     </g>
    </g>
    <g id="ytick_5">
     <g id="line2d_27">
      <g>
       <use style="stroke:#000000;stroke-width:0.5;" x="72.0" xlink:href="#m728421d6d4" y="64.8717906107"/>
      </g>
     </g>
     <g id="line2d_28">
      <g>
       <use style="stroke:#000000;stroke-width:0.5;" x="518.4" xlink:href="#mcb0005524f" y="64.8717906107"/>
      </g>
     </g>
     <g id="text_13">
      <!-- 3000 -->
      <g transform="translate(39.171875 68.1830406107)scale(0.12 -0.12)">
       <use xlink:href="#BitstreamVeraSans-Roman-33"/>
       <use x="63.623046875" xlink:href="#BitstreamVeraSans-Roman-30"/>
       <use x="127.24609375" xlink:href="#BitstreamVeraSans-Roman-30"/>
       <use x="190.869140625" xlink:href="#BitstreamVeraSans-Roman-30"/>
      </g>
     </g>
    </g>
   </g>
   <g id="text_14">
    <!-- Fossilien -->
    <defs>
     <path d="
M54.8906 33.0156
L54.8906 0
L45.9062 0
L45.9062 32.7188
Q45.9062 40.4844 42.875 44.3281
Q39.8438 48.1875 33.7969 48.1875
Q26.5156 48.1875 22.3125 43.5469
Q18.1094 38.9219 18.1094 30.9062
L18.1094 0
L9.07812 0
L9.07812 54.6875
L18.1094 54.6875
L18.1094 46.1875
Q21.3438 51.125 25.7031 53.5625
Q30.0781 56 35.7969 56
Q45.2188 56 50.0469 50.1719
Q54.8906 44.3438 54.8906 33.0156" id="BitstreamVeraSans-Roman-6e"/>
     <path d="
M9.42188 75.9844
L18.4062 75.9844
L18.4062 0
L9.42188 0
z
" id="BitstreamVeraSans-Roman-6c"/>
     <path d="
M9.8125 72.9062
L51.7031 72.9062
L51.7031 64.5938
L19.6719 64.5938
L19.6719 43.1094
L48.5781 43.1094
L48.5781 34.8125
L19.6719 34.8125
L19.6719 0
L9.8125 0
z
" id="BitstreamVeraSans-Roman-46"/>
     <path d="
M9.42188 54.6875
L18.4062 54.6875
L18.4062 0
L9.42188 0
z

M9.42188 75.9844
L18.4062 75.9844
L18.4062 64.5938
L9.42188 64.5938
z
" id="BitstreamVeraSans-Roman-69"/>
     <path d="
M56.2031 29.5938
L56.2031 25.2031
L14.8906 25.2031
Q15.4844 15.9219 20.4844 11.0625
Q25.4844 6.20312 34.4219 6.20312
Q39.5938 6.20312 44.4531 7.46875
Q49.3125 8.73438 54.1094 11.2812
L54.1094 2.78125
Q49.2656 0.734375 44.1875 -0.34375
Q39.1094 -1.42188 33.8906 -1.42188
Q20.7969 -1.42188 13.1562 6.1875
Q5.51562 13.8125 5.51562 26.8125
Q5.51562 40.2344 12.7656 48.1094
Q20.0156 56 32.3281 56
Q43.3594 56 49.7812 48.8906
Q56.2031 41.7969 56.2031 29.5938
M47.2188 32.2344
Q47.125 39.5938 43.0938 43.9844
Q39.0625 48.3906 32.4219 48.3906
Q24.9062 48.3906 20.3906 44.1406
Q15.875 39.8906 15.1875 32.1719
z
" id="BitstreamVeraSans-Roman-65"/>
     <path d="
M44.2812 53.0781
L44.2812 44.5781
Q40.4844 46.5312 36.375 47.5
Q32.2812 48.4844 27.875 48.4844
Q21.1875 48.4844 17.8438 46.4375
Q14.5 44.3906 14.5 40.2812
Q14.5 37.1562 16.8906 35.375
Q19.2812 33.5938 26.5156 31.9844
L29.5938 31.2969
Q39.1562 29.25 43.1875 25.5156
Q47.2188 21.7812 47.2188 15.0938
Q47.2188 7.46875 41.1875 3.01562
Q35.1562 -1.42188 24.6094 -1.42188
Q20.2188 -1.42188 15.4531 -0.5625
Q10.6875 0.296875 5.42188 2
L5.42188 11.2812
Q10.4062 8.6875 15.2344 7.39062
Q20.0625 6.10938 24.8125 6.10938
Q31.1562 6.10938 34.5625 8.28125
Q37.9844 10.4531 37.9844 14.4062
Q37.9844 18.0625 35.5156 20.0156
Q33.0625 21.9688 24.7031 23.7812
L21.5781 24.5156
Q13.2344 26.2656 9.51562 29.9062
Q5.8125 33.5469 5.8125 39.8906
Q5.8125 47.6094 11.2812 51.7969
Q16.75 56 26.8125 56
Q31.7812 56 36.1719 55.2656
Q40.5781 54.5469 44.2812 53.0781" id="BitstreamVeraSans-Roman-73"/>
    </defs>
    <g transform="translate(459.4725 38.2)scale(0.144 -0.144)">
     <use xlink:href="#BitstreamVeraSans-Roman-46"/>
     <use x="53.89453125" xlink:href="#BitstreamVeraSans-Roman-6f"/>
     <use x="115.076171875" xlink:href="#BitstreamVeraSans-Roman-73"/>
     <use x="167.17578125" xlink:href="#BitstreamVeraSans-Roman-73"/>
     <use x="219.275390625" xlink:href="#BitstreamVeraSans-Roman-69"/>
     <use x="247.05859375" xlink:href="#BitstreamVeraSans-Roman-6c"/>
     <use x="274.841796875" xlink:href="#BitstreamVeraSans-Roman-69"/>
     <use x="302.625" xlink:href="#BitstreamVeraSans-Roman-65"/>
     <use x="364.1484375" xlink:href="#BitstreamVeraSans-Roman-6e"/>
    </g>
   </g>
   <g id="legend_1">
    <g id="patch_7">
     <path d="
M123.942 423.616
L466.458 423.616
L466.458 398.16
L123.942 398.16
z
" style="fill:#ffffff;stroke:#000000;stroke-linejoin:miter;"/>
    </g>
    <g id="line2d_29">
     <path d="
M134.022 409.822
L154.182 409.822" style="fill:none;stroke:#ff0000;stroke-linecap:square;"/>
    </g>
    <g id="line2d_30"/>
    <g id="text_15">
     <!-- Schwarzmarktpreis -->
     <defs>
      <path d="
M34.2812 27.4844
Q23.3906 27.4844 19.1875 25
Q14.9844 22.5156 14.9844 16.5
Q14.9844 11.7188 18.1406 8.90625
Q21.2969 6.10938 26.7031 6.10938
Q34.1875 6.10938 38.7031 11.4062
Q43.2188 16.7031 43.2188 25.4844
L43.2188 27.4844
z

M52.2031 31.2031
L52.2031 0
L43.2188 0
L43.2188 8.29688
Q40.1406 3.32812 35.5469 0.953125
Q30.9531 -1.42188 24.3125 -1.42188
Q15.9219 -1.42188 10.9531 3.29688
Q6 8.01562 6 15.9219
Q6 25.1406 12.1719 29.8281
Q18.3594 34.5156 30.6094 34.5156
L43.2188 34.5156
L43.2188 35.4062
Q43.2188 41.6094 39.1406 45
Q35.0625 48.3906 27.6875 48.3906
Q23 48.3906 18.5469 47.2656
Q14.1094 46.1406 10.0156 43.8906
L10.0156 52.2031
Q14.9375 54.1094 19.5781 55.0469
Q24.2188 56 28.6094 56
Q40.4844 56 46.3438 49.8438
Q52.2031 43.7031 52.2031 31.2031" id="BitstreamVeraSans-Roman-61"/>
      <path d="
M5.51562 54.6875
L48.1875 54.6875
L48.1875 46.4844
L14.4062 7.17188
L48.1875 7.17188
L48.1875 0
L4.29688 0
L4.29688 8.20312
L38.0938 47.5156
L5.51562 47.5156
z
" id="BitstreamVeraSans-Roman-7a"/>
      <path d="
M53.5156 70.5156
L53.5156 60.8906
Q47.9062 63.5781 42.9219 64.8906
Q37.9375 66.2188 33.2969 66.2188
Q25.25 66.2188 20.875 63.0938
Q16.5 59.9688 16.5 54.2031
Q16.5 49.3594 19.4062 46.8906
Q22.3125 44.4375 30.4219 42.9219
L36.375 41.7031
Q47.4062 39.5938 52.6562 34.2969
Q57.9062 29 57.9062 20.125
Q57.9062 9.51562 50.7969 4.04688
Q43.7031 -1.42188 29.9844 -1.42188
Q24.8125 -1.42188 18.9688 -0.25
Q13.1406 0.921875 6.89062 3.21875
L6.89062 13.375
Q12.8906 10.0156 18.6562 8.29688
Q24.4219 6.59375 29.9844 6.59375
Q38.4219 6.59375 43.0156 9.90625
Q47.6094 13.2344 47.6094 19.3906
Q47.6094 24.75 44.3125 27.7812
Q41.0156 30.8125 33.5 32.3281
L27.4844 33.5
Q16.4531 35.6875 11.5156 40.375
Q6.59375 45.0625 6.59375 53.4219
Q6.59375 63.0938 13.4062 68.6562
Q20.2188 74.2188 32.1719 74.2188
Q37.3125 74.2188 42.625 73.2812
Q47.9531 72.3594 53.5156 70.5156" id="BitstreamVeraSans-Roman-53"/>
      <path d="
M54.8906 33.0156
L54.8906 0
L45.9062 0
L45.9062 32.7188
Q45.9062 40.4844 42.875 44.3281
Q39.8438 48.1875 33.7969 48.1875
Q26.5156 48.1875 22.3125 43.5469
Q18.1094 38.9219 18.1094 30.9062
L18.1094 0
L9.07812 0
L9.07812 75.9844
L18.1094 75.9844
L18.1094 46.1875
Q21.3438 51.125 25.7031 53.5625
Q30.0781 56 35.7969 56
Q45.2188 56 50.0469 50.1719
Q54.8906 44.3438 54.8906 33.0156" id="BitstreamVeraSans-Roman-68"/>
      <path d="
M52 44.1875
Q55.375 50.25 60.0625 53.125
Q64.75 56 71.0938 56
Q79.6406 56 84.2812 50.0156
Q88.9219 44.0469 88.9219 33.0156
L88.9219 0
L79.8906 0
L79.8906 32.7188
Q79.8906 40.5781 77.0938 44.375
Q74.3125 48.1875 68.6094 48.1875
Q61.625 48.1875 57.5625 43.5469
Q53.5156 38.9219 53.5156 30.9062
L53.5156 0
L44.4844 0
L44.4844 32.7188
Q44.4844 40.625 41.7031 44.4062
Q38.9219 48.1875 33.1094 48.1875
Q26.2188 48.1875 22.1562 43.5312
Q18.1094 38.875 18.1094 30.9062
L18.1094 0
L9.07812 0
L9.07812 54.6875
L18.1094 54.6875
L18.1094 46.1875
Q21.1875 51.2188 25.4844 53.6094
Q29.7812 56 35.6875 56
Q41.6562 56 45.8281 52.9688
Q50 49.9531 52 44.1875" id="BitstreamVeraSans-Roman-6d"/>
      <path d="
M4.20312 54.6875
L13.1875 54.6875
L24.4219 12.0156
L35.5938 54.6875
L46.1875 54.6875
L57.4219 12.0156
L68.6094 54.6875
L77.5938 54.6875
L63.2812 0
L52.6875 0
L40.9219 44.8281
L29.1094 0
L18.5 0
z
" id="BitstreamVeraSans-Roman-77"/>
      <path d="
M9.07812 75.9844
L18.1094 75.9844
L18.1094 31.1094
L44.9219 54.6875
L56.3906 54.6875
L27.3906 29.1094
L57.625 0
L45.9062 0
L18.1094 26.7031
L18.1094 0
L9.07812 0
z
" id="BitstreamVeraSans-Roman-6b"/>
      <path d="
M41.1094 46.2969
Q39.5938 47.1719 37.8125 47.5781
Q36.0312 48 33.8906 48
Q26.2656 48 22.1875 43.0469
Q18.1094 38.0938 18.1094 28.8125
L18.1094 0
L9.07812 0
L9.07812 54.6875
L18.1094 54.6875
L18.1094 46.1875
Q20.9531 51.1719 25.4844 53.5781
Q30.0312 56 36.5312 56
Q37.4531 56 38.5781 55.875
Q39.7031 55.7656 41.0625 55.5156
z
" id="BitstreamVeraSans-Roman-72"/>
      <path d="
M18.1094 8.20312
L18.1094 -20.7969
L9.07812 -20.7969
L9.07812 54.6875
L18.1094 54.6875
L18.1094 46.3906
Q20.9531 51.2656 25.2656 53.625
Q29.5938 56 35.5938 56
Q45.5625 56 51.7812 48.0938
Q58.0156 40.1875 58.0156 27.2969
Q58.0156 14.4062 51.7812 6.48438
Q45.5625 -1.42188 35.5938 -1.42188
Q29.5938 -1.42188 25.2656 0.953125
Q20.9531 3.32812 18.1094 8.20312
M48.6875 27.2969
Q48.6875 37.2031 44.6094 42.8438
Q40.5312 48.4844 33.4062 48.4844
Q26.2656 48.4844 22.1875 42.8438
Q18.1094 37.2031 18.1094 27.2969
Q18.1094 17.3906 22.1875 11.75
Q26.2656 6.10938 33.4062 6.10938
Q40.5312 6.10938 44.6094 11.75
Q48.6875 17.3906 48.6875 27.2969" id="BitstreamVeraSans-Roman-70"/>
     </defs>
     <g transform="translate(170.022375 414.86175)scale(0.144 -0.144)">
      <use xlink:href="#BitstreamVeraSans-Roman-53"/>
      <use x="63.4765625" xlink:href="#BitstreamVeraSans-Roman-63"/>
      <use x="118.45703125" xlink:href="#BitstreamVeraSans-Roman-68"/>
      <use x="181.8359375" xlink:href="#BitstreamVeraSans-Roman-77"/>
      <use x="263.623046875" xlink:href="#BitstreamVeraSans-Roman-61"/>
      <use x="324.90234375" xlink:href="#BitstreamVeraSans-Roman-72"/>
      <use x="366.015625" xlink:href="#BitstreamVeraSans-Roman-7a"/>
      <use x="418.505859375" xlink:href="#BitstreamVeraSans-Roman-6d"/>
      <use x="515.91796875" xlink:href="#BitstreamVeraSans-Roman-61"/>
      <use x="577.197265625" xlink:href="#BitstreamVeraSans-Roman-72"/>
      <use x="618.310546875" xlink:href="#BitstreamVeraSans-Roman-6b"/>
      <use x="676.220703125" xlink:href="#BitstreamVeraSans-Roman-74"/>
      <use x="715.4296875" xlink:href="#BitstreamVeraSans-Roman-70"/>
      <use x="778.90625" xlink:href="#BitstreamVeraSans-Roman-72"/>
      <use x="817.76953125" xlink:href="#BitstreamVeraSans-Roman-65"/>
      <use x="879.29296875" xlink:href="#BitstreamVeraSans-Roman-69"/>
      <use x="907.076171875" xlink:href="#BitstreamVeraSans-Roman-73"/>
     </g>
    </g>
    <g id="line2d_31">
     <path d="
M339.609 409.822
L359.769 409.822" style="fill:none;stroke:#008000;stroke-linecap:square;"/>
    </g>
    <g id="line2d_32"/>
    <g id="text_16">
     <!-- Normalpreis -->
     <g transform="translate(375.609375 414.86175)scale(0.144 -0.144)">
      <use xlink:href="#BitstreamVeraSans-Roman-4e"/>
      <use x="74.8046875" xlink:href="#BitstreamVeraSans-Roman-6f"/>
      <use x="135.986328125" xlink:href="#BitstreamVeraSans-Roman-72"/>
      <use x="175.349609375" xlink:href="#BitstreamVeraSans-Roman-6d"/>
      <use x="272.76171875" xlink:href="#BitstreamVeraSans-Roman-61"/>
      <use x="334.041015625" xlink:href="#BitstreamVeraSans-Roman-6c"/>
      <use x="361.82421875" xlink:href="#BitstreamVeraSans-Roman-70"/>
      <use x="425.30078125" xlink:href="#BitstreamVeraSans-Roman-72"/>
      <use x="464.1640625" xlink:href="#BitstreamVeraSans-Roman-65"/>
      <use x="525.6875" xlink:href="#BitstreamVeraSans-Roman-69"/>
      <use x="553.470703125" xlink:href="#BitstreamVeraSans-Roman-73"/>
     </g>
    </g>
   </g>
  </g>
 </g>
 <defs>
  <clipPath id="pcb2bf987bf">
   <rect height="302.4" width="446.4" x="72.0" y="43.2"/>
  </clipPath>
 </defs>
</svg>
