<?xml version="1.0" encoding="utf-8" standalone="no"?>
<!DOCTYPE svg PUBLIC "-//W3C//DTD SVG 1.1//EN"
  "http://www.w3.org/Graphics/SVG/1.1/DTD/svg11.dtd">
<!-- Created with matplotlib (http://matplotlib.org/) -->
<svg height="432pt" version="1.1" viewBox="0 0 576 432" width="576pt" xmlns="http://www.w3.org/2000/svg" xmlns:xlink="http://www.w3.org/1999/xlink">
 <defs>
  <style type="text/css">
*{stroke-linecap:butt;stroke-linejoin:round;}
  </style>
 </defs>
 <g id="figure_1">
  <g id="patch_1">
   <path d="
M0 432
L576 432
L576 0
L0 0
z
" style="fill:#ffffff;"/>
  </g>
  <g id="axes_1">
   <g id="patch_2">
    <path d="
M72 345.6
L518.4 345.6
L518.4 43.2
L72 43.2
z
" style="fill:#ffffff;"/>
   </g>
   <g id="line2d_1">
    <path clip-path="url(#pcb2bf987bf)" d="
M72 104.685
L72.1276 131.722
L72.3828 131.722
L72.5105 133.13
L72.7657 138.303
L72.8933 138.267
L73.1485 133.145
L73.2762 135.528
L73.659 131.259
L73.9142 132.682
L74.0419 134.105
L74.2971 131.259
L74.4247 125.318
L74.8075 125.318
L75.0628 128.413
L75.1904 126.955
L75.4456 122.579
L75.5732 116.709
L75.8285 118.203
L75.9561 127.453
L76.2113 124.536
L76.3389 125.994
L76.5942 127.453
L76.7218 127.453
L77.3599 114.326
L77.7429 111.8
L77.8703 106.713
L78.1256 106.706
L78.1256 106.706
L78.2532 95.9694
L78.5084 106.706
L78.636 97.5702
L78.8915 102.017
L79.0189 102.017
L79.2741 94.0484
L79.4017 94.0484
L79.7846 105.148
L80.0398 97.5347
L80.1674 131.259
L80.4226 129.836
L80.5503 61.9958
L80.8055 126.905
L80.9331 126.919
L81.316 131.259
L81.5712 141.106
L81.6988 138.837
L81.9542 140.964
L82.0816 139.584
L82.3371 138.196
L82.4645 136.809
L82.7197 132.575
L82.8473 135.421
L83.1026 138.196
L83.2302 138.196
L83.613 133.145
L83.8683 135.421
L83.9959 131.153
L84.2511 133.998
L84.3787 138.196
L84.6342 139.584
L85.1444 140.26
L85.3999 138.872
L85.5273 137.485
L85.7825 139.584
L86.5482 139.584
L86.6758 140.964
L86.931 139.548
L87.0587 140.964
L87.3139 140.26
L87.4415 138.872
L87.8244 140.964
L88.2072 127.417
L88.4624 129.943
L88.8453 125.603
L88.8453 125.603
L88.9729 121.192
L89.2281 118.239
L89.3557 115.144
L89.611 113.614
L89.7386 113.614
L89.9938 124.137
L89.9938 124.137
L90.2491 124.109
L90.3767 121.192
L91.0148 128.164
L91.9081 121.227
L92.5461 124.002
L92.6738 118.915
L93.3118 109.915
L94.8432 97.5702
L95.7365 97.5702
L96.3746 83.3049
L97.1403 96.752
L97.906 108.243
L98.6717 106.108
L98.7993 108.243
L99.4374 106.713
L100.203 106.677
L100.331 96.3963
L100.969 112.974
L101.734 124.856
L101.862 123.362
L102.5 118.908
L103.266 121.903
L103.393 121.903
L104.032 126.314
L104.797 124.393
L105.563 126.314
L106.329 95.5425
L107.095 97.1433
L107.86 135.421
L107.988 135.414
L108.626 136.702
L109.391 120.196
L109.519 124.607
L110.285 125.062
L110.923 124.429
L111.05 110.27
L111.689 116.709
L111.816 113.508
L113.986 123.611
L114.879 118.417
L116.283 127.346
L116.41 130.228
L117.048 129.936
L117.814 133.145
L117.942 129.587
L118.58 61.9958
L118.707 111.373
L119.345 108.314
L120.111 108.314
L120.877 106.784
L121.004 108.314
L121.643 108.314
L122.408 111.373
L122.536 111.373
L123.174 112.44
L123.94 126.706
L124.067 126.699
L124.705 131.003
L125.471 121.583
L126.109 120.089
L126.237 123.042
L126.237 123.042
L126.365 121.583
L127.002 126.35
L127.13 126.35
L127.13 126.35
L127.768 118.986
L128.534 117.421
L129.299 126.03
L130.065 123.717
L130.193 131.003
L130.831 124.322
L131.597 131.558
L132.362 127.204
L132.362 127.204
L133.894 130.299
L134.149 133.138
L134.659 135.315
L135.425 157.62
L136.191 146.948
L136.318 141.498
L136.956 141.505
L138.488 144.244
L139.381 141.149
L140.019 135.955
L140.785 133.145
L141.551 140.11
L141.678 133.109
L142.316 131.686
L143.082 130.299
L143.848 129.587
L143.975 128.164
L144.613 118.915
L145.379 115.357
L145.507 115.357
L146.272 95.4002
L147.038 113.116
L147.676 111.587
L149.208 105.432
L149.335 105.432
L149.973 103.867
L150.739 97.5347
L150.867 103.867
L151.505 109.345
L152.27 107.78
L153.036 123.113
L153.802 123.113
L154.567 118.488
L155.333 115.5
L155.333 115.5
L156.099 61.0353
L156.865 111.693
L157.63 113.223
L157.758 116.994
L158.396 118.559
L159.162 114.184
L159.927 118.666
L160.693 158.901
L162.224 158.901
L162.99 148.47
L163.118 158.901
L163.756 154.952
L163.883 154.952
L164.521 130.299
L164.649 131.722
L165.287 131.722
L166.053 142.75
L166.819 141.056
L167.584 110.946
L167.712 88.7478
L168.35 123.362
L169.243 123.362
L169.881 121.903
L170.647 131.366
L170.775 128.52
L171.413 152.817
L172.178 144.529
L172.944 144.521
L173.072 140.26
L173.71 143.177
L174.475 143.106
L174.603 150.149
L176.007 149.545
L176.9 149.545
L177.538 148.186
L179.07 148.157
L179.835 140.402
L179.963 140.402
L180.601 135.528
L180.729 135.528
L181.367 136.275
L182.26 135.564
L182.898 148.15
L183.664 152.817
L183.791 152.817
L184.43 160.174
L185.195 158.758
L185.961 157.762
L186.727 151.857
L187.492 147.374
L188.258 160.324
L189.024 155.094
L189.151 156.439
L190.555 156.766
L191.321 156.766
L191.321 156.766
L192.852 166.62
L193.618 166.62
L194.384 164.45
L195.149 166.62
L198.978 166.62
L200.509 149.189
L201.275 173.522
L202.04 178.36
L202.806 178.36
L203.572 180.565
L205.231 180.565
L206.124 181.953
L206.507 183.162
L206.635 186.079
L206.635 186.079
L206.762 185.439
L207.4 179.463
L207.911 181.811
L208.166 201.768
L208.804 212.205
L209.825 199.847
L210.591 182.878
L210.846 181.704
L211.356 192.092
L211.739 189.103
L211.867 192.092
L212.122 193.223
L212.888 193.23
L213.271 188.676
L213.398 182.913
L213.654 193.23
L213.654 193.23
L213.781 192.092
L214.036 192.092
L214.164 193.23
L214.547 189.352
L214.802 193.23
L214.93 193.23
L215.185 192.554
L215.185 192.554
L215.313 192.91
L215.568 193.194
L215.695 190.953
L216.461 190.953
L216.589 189.815
L216.589 189.815
L216.844 190.953
L217.227 190.953
L217.482 194.973
L217.482 194.973
L217.61 200.558
L217.865 180.58
L217.992 180.58
L218.248 211.38
L218.248 211.38
L218.631 204.045
L218.758 181.775
L219.013 200.807
L219.141 199.776
L219.396 206.172
L219.779 209.31
L220.29 209.31
L220.29 209.31
L220.417 210.341
L220.928 210.341
L221.055 208.278
L221.31 207.844
L221.438 208.89
L221.693 208.89
L222.076 206.819
L222.204 208.89
L222.587 208.918
L222.842 209.31
L223.225 210.377
L223.352 200.878
L223.735 211.8
L224.118 211.8
L224.373 209.737
L224.501 212.796
L224.756 204.827
L225.139 212.12
L225.267 213.152
L225.522 211.088
L225.777 213.97
L225.777 213.97
L225.905 285.51
L225.905 285.51
L226.16 195.827
L226.16 195.827
L226.288 214.468
L226.415 202.159
L226.415 202.159
L226.67 218.161
L226.798 216.175
L227.053 217.172
L227.181 215.179
L227.436 213.187
L227.436 213.187
L227.819 212.156
L227.946 214.183
L228.202 195.187
L228.329 218.153
L228.585 213.756
L228.712 218.161
L228.967 216.816
L229.095 215.108
L229.35 214.112
L229.478 214.112
L229.733 204.294
L229.861 209.986
L230.244 215.108
L230.499 216.531
L230.499 216.531
L230.882 216.531
L231.009 215.464
L231.264 215.322
L231.264 215.322
L231.392 213.294
L231.647 215.464
L231.775 215.464
L232.03 214.539
L232.158 216.531
L232.413 218.161
L232.541 217.172
L232.796 279
L232.796 279
L232.924 276.19
L233.179 274.02
L233.306 270.996
L233.944 262.209
L234.072 259.633
L234.455 257.264
L234.71 258.829
L234.838 258.047
L235.093 258.011
L235.093 258.011
L235.221 256.766
L235.476 255.983
L235.603 255.165
L235.859 251.074
L235.859 251.074
L235.986 245.987
L236.369 239.868
L236.624 240.793
L237.007 240.793
L237.135 240.58
L237.518 240.793
L237.773 241.675
L237.901 241.675
L238.156 245.98
L238.283 245.133
L238.921 245.126
L239.049 244.137
L239.304 243.995
L239.432 245.126
L239.687 244.279
L239.815 245.126
L240.07 240.615
L240.198 240.615
L240.58 251.892
L240.836 251.885
L240.963 250.22
L241.219 251.885
L241.346 251.038
L241.601 250.22
L241.729 251.885
L241.984 251.074
L242.112 250.256
L242.367 245.987
L242.495 251.074
L242.75 235.101
L242.878 249.331
L243.133 247.694
L243.26 247.687
L243.643 251.963
L243.898 252.141
L244.026 253.778
L244.281 252.959
L244.409 250.505
L244.664 250.505
L244.792 248.797
L245.047 253.386
L245.047 253.386
L245.175 252.568
L245.557 245.169
L246.196 245.154
L246.323 244.315
L246.578 243.461
L246.578 243.461
L246.706 238.089
L246.961 242.607
L247.344 239.484
L247.727 243.461
L247.855 243.454
L248.237 244.315
L248.493 244.315
L248.62 242.607
L248.876 245.162
L248.876 245.162
L249.641 245.162
L249.641 245.162
L249.769 242.607
L250.152 245.162
L250.407 251.643
L250.534 251.643
L250.79 255.058
L250.917 255.058
L251.173 254.226
L251.3 253.415
L251.555 247.588
L251.683 248.442
L251.938 246.983
L252.066 246.983
L252.321 239.868
L252.449 239.512
L252.704 237.2
L252.832 246.086
L253.087 245.24
L253.214 245.24
L253.597 241.469
L253.852 238.836
L253.98 238.836
L254.235 237.058
L254.363 237.058
L254.618 231.722
L254.746 237.236
L254.746 237.236
L255.001 237.947
L255.129 243.532
L255.129 243.532
L255.384 243.532
L255.511 233.785
L255.511 233.785
L255.894 238.232
L256.277 239.477
L256.66 248.442
L256.66 248.442
L256.915 247.588
L257.043 248.442
L257.298 255.051
L257.426 254.24
L257.681 254.098
L257.809 252.461
L258.064 253.28
L258.064 253.28
L258.447 249.117
L258.574 249.971
L258.702 253.28
L258.957 253.28
L259.212 234.71
L259.212 234.71
L259.34 251.608
L259.595 253.265
L259.595 253.265
L259.723 252.461
L260.106 253.386
L260.489 253.28
L260.744 252.461
L260.871 253.28
L261.127 252.461
L261.254 252.426
L261.509 248.975
L261.637 248.975
L261.892 252.461
L262.02 251.572
L262.275 248.228
L262.403 248.228
L262.658 247.374
L262.786 249.929
L263.168 252.924
L263.424 250.469
L263.424 250.469
L263.551 254.098
L263.807 253.201
L263.934 254.091
L264.189 250.007
L264.189 250.007
L264.317 254.233
L264.572 253.422
L264.7 254.24
L264.955 252.59
L264.955 252.59
L265.083 252.59
L265.338 253.422
L265.466 246.307
L265.593 253.422
L265.848 253.415
L266.104 254.233
L266.486 254.24
L266.614 252.604
L266.869 254.24
L266.997 253.991
L267.252 251.536
L267.635 251.536
L267.763 250.718
L268.018 255.058
L268.145 255.058
L268.401 255.877
L268.911 255.877
L269.166 255.13
L269.294 255.13
L269.549 255.877
L272.357 255.877
L272.612 251.216
L272.74 251.216
L272.995 246.983
L273.122 234.39
L273.506 252.675
L273.888 252.675
L274.143 251.857
L274.271 255.877
L275.292 255.877
L275.675 249.758
L275.802 255.877
L276.185 255.877
L276.441 234.496
L276.568 255.877
L276.951 255.877
L277.206 232.967
L277.334 233.892
L277.589 254.916
L277.717 255.877
L278.099 247.161
L278.355 248.015
L278.482 255.877
L278.738 246.058
L278.865 255.229
L279.248 254.098
L279.503 255.877
L280.779 255.877
L281.162 252.568
L281.545 232.255
L281.801 248.406
L282.311 245.845
L282.566 245.845
L282.694 250.114
L283.077 258.296
L283.332 257.513
L283.459 204.294
L283.715 256.695
L283.842 255.877
L284.097 255.983
L284.225 251.394
L284.608 256.695
L284.736 256.695
L285.246 255.058
L285.374 255.877
L285.756 262.209
L286.012 260.644
L286.139 260.644
L286.395 261.355
L286.522 260.572
L286.777 261.355
L286.905 261.213
L287.16 261.426
L287.288 262.209
L287.543 262.991
L287.671 262.991
L287.926 266.905
L288.054 266.158
L288.692 268.292
L288.819 267.545
L289.202 268.321
L289.457 266.834
L289.585 264.592
L289.84 266.079
L289.968 266.051
L290.223 265.724
L290.351 264.834
L290.606 265.581
L290.733 265.553
L290.861 264.806
L291.116 259.647
L291.372 260.423
L291.499 260.43
L291.754 259.647
L292.137 256.481
L292.265 258.082
L292.52 252.675
L292.52 252.675
L292.648 255.805
L292.903 254.987
L293.031 254.987
L293.286 252.533
L293.286 252.533
L293.413 254.987
L293.796 255.877
L294.051 253.422
L294.051 253.422
L294.179 254.24
L294.434 254.24
L294.817 258.858
L294.817 258.858
L294.945 256.446
L295.2 256.446
L295.328 258.082
L295.583 258.865
L295.71 257.3
L295.966 257.292
L296.349 256.481
L296.476 256.481
L296.731 260.423
L297.114 258.082
L297.242 255.628
L297.497 253.173
L297.625 253.166
L298.008 260.423
L298.263 253.422
L298.39 253.422
L298.646 251.679
L299.156 259.647
L299.411 258.865
L299.539 259.647
L299.794 258.651
L299.922 258.829
L300.177 259.612
L300.305 257.264
L300.56 227.737
L300.687 254.56
L301.07 254.56
L301.326 259.612
L301.453 258.829
L301.708 258.794
L302.091 253.991
L302.219 257.975
L302.474 257.157
L302.474 257.157
L302.857 257.975
L302.985 258.794
L304.388 258.829
L304.771 259.612
L305.537 259.647
L305.664 246.976
L305.92 245.204
L306.047 246.129
L306.303 245.275
L306.43 245.275
L306.685 260.43
L306.813 260.146
L307.068 261.853
L307.068 261.853
L307.196 261.07
L307.451 261.853
L307.579 261.07
L307.834 261.07
L307.962 259.505
L308.344 263.326
L308.6 259.79
L308.6 259.79
L308.727 259.79
L309.11 253.28
L309.365 252.461
L309.493 249.153
L309.748 251.636
L309.876 250.789
L310.131 250.789
L310.131 250.789
L310.259 249.58
L310.514 244.422
L310.642 259.79
L310.897 263.326
L311.024 263.333
L311.28 262.636
L311.407 263.333
L311.662 266.834
L311.79 266.834
L312.045 266.549
L312.173 236.987
L312.428 266.193
L312.556 265.446
L312.811 266.542
L312.939 266.542
L313.321 263.49
L313.704 266.549
L314.087 262.742
L314.342 263.525
L314.47 263.525
L314.725 265.048
L315.108 268.321
L315.236 274.731
L315.491 267.573
L315.619 268.321
L315.874 271.174
L316.257 271.174
L316.384 287.922
L316.767 275.443
L317.022 274.731
L317.15 271.174
L317.405 271.174
L317.533 269.004
L317.788 268.256
L317.916 266.762
L318.171 266.015
L318.298 266.015
L318.554 265.268
L318.554 265.268
L318.681 266.015
L318.937 257.655
L319.064 257.655
L319.319 256.054
L319.319 256.054
L319.447 256.873
L319.702 267.474
L319.83 266.762
L320.213 263.632
L320.596 264.521
L320.851 264.521
L320.851 264.521
L321.361 255.236
L321.616 254.418
L321.999 263.739
L322.127 255.058
L322.765 265.268
L322.893 265.268
L323.148 267.509
L323.658 267.495
L323.914 266.762
L323.914 266.762
L324.296 266.762
L324.424 267.502
L324.679 266.762
L325.062 270.427
L325.19 271.152
L325.445 271.174
L325.828 279.747
L325.956 279.071
L326.211 274.838
L326.593 279.071
L326.721 275.443
L326.976 275.443
L327.104 274.731
L327.359 278.993
L327.487 276.858
L327.87 276.851
L328.252 274.695
L328.508 271.814
L328.891 271.814
L329.018 275.443
L329.656 275.443
L329.784 277.57
L330.039 276.866
L330.167 277.57
L330.422 276.154
L330.55 276.866
L330.933 274.731
L331.315 267.581
L331.57 267.581
L331.698 266.834
L331.953 266.086
L332.081 266.834
L332.336 277.57
L332.464 277.541
L332.719 276.83
L332.847 268.256
L333.102 276.012
L333.23 274.66
L333.485 275.443
L333.612 274.02
L333.868 276.83
L334.378 276.794
L334.633 274.624
L334.761 276.83
L335.144 273.984
L335.399 264.77
L335.527 264.77
L335.782 268.328
L335.909 275.407
L336.165 276.118
L336.292 276.118
L336.548 272.525
L336.675 276.118
L336.93 275.407
L337.058 274.695
L337.313 266.869
L337.441 276.111
L337.696 276.104
L337.824 268.292
L338.079 276.118
L338.207 273.272
L338.462 272.241
L338.589 271.174
L338.845 274.731
L338.972 274.695
L339.355 275.087
L339.61 274.091
L339.738 275.08
L340.504 275.087
L340.886 275.421
L341.142 274.731
L341.269 274.731
L341.525 274.02
L341.652 275.428
L341.907 274.02
L342.035 275.443
L342.418 275.443
L342.673 274.731
L342.801 274.02
L343.056 274.731
L343.184 266.158
L343.439 268.328
L343.566 267.581
L343.822 268.328
L343.822 268.328
L343.949 266.086
L344.332 268.328
L344.588 264.343
L344.715 258.829
L345.098 265.09
L345.481 264.77
L345.736 275.407
L345.863 274.695
L346.119 260.43
L346.246 239.726
L346.502 267.758
L346.629 259.633
L346.884 264.763
L346.884 264.763
L347.012 264.763
L347.267 262.422
L347.395 273.948
L347.65 274.66
L347.778 275.357
L348.033 274.66
L348.161 274.66
L348.543 276.809
L348.799 275.407
L348.926 273.664
L349.181 274.695
L349.309 276.809
L349.692 275.407
L349.947 276.823
L350.075 276.83
L350.33 276.111
L350.458 276.104
L350.713 276.858
L350.84 278.281
L351.096 275.976
L351.224 278.288
L351.606 290.775
L351.861 291.408
L351.989 291.166
L352.372 293.443
L352.627 287.04
L352.755 292.127
L353.01 291.522
L353.138 292.049
L353.393 281.81
L353.52 281.882
L353.776 279.178
L353.776 279.178
L354.158 287.609
L354.286 287.609
L354.541 286.969
L354.669 287.609
L354.924 281.917
L355.052 286.328
L355.307 286.328
L355.307 286.328
L355.435 287.538
L355.817 284.692
L356.073 284.514
L356.073 284.514
L356.2 284.052
L356.838 280.459
L357.221 284.72
L357.477 284.727
L357.732 284.052
L357.987 283.838
L358.37 261.07
L358.37 261.07
L358.497 274.02
L358.753 275.443
L358.88 274.731
L359.136 274.02
L359.263 275.435
L359.518 274.731
L359.646 274.731
L359.901 229.836
L360.029 274.731
L360.412 276.026
L360.667 284.044
L360.795 283.376
L361.05 284.044
L361.177 278.395
L361.433 281.206
L361.56 280.53
L361.943 256.126
L362.326 280.53
L362.581 279.854
L362.709 281.198
L362.964 275.443
L363.092 281.206
L363.347 280.459
L363.73 282.557
L363.857 281.882
L364.113 279
L364.24 279
L364.495 277.613
L364.623 282.522
L364.878 283.98
L365.261 280.565
L365.772 277.826
L366.027 278.538
L366.027 278.538
L366.155 275.692
L366.537 273.557
L366.792 273.308
L366.92 275.692
L367.175 272.846
L367.303 275.692
L367.558 257.655
L367.686 275.692
L368.069 279.213
L368.451 283.973
L368.707 283.304
L369.09 281.953
L369.472 278.53
L369.6 283.297
L369.855 282.629
L369.983 278.573
L370.238 281.277
L370.366 281.263
L370.621 280.601
L370.749 280.601
L371.004 283.233
L371.131 283.127
L371.387 282.451
L371.514 283.091
L371.769 282.913
L371.897 280.878
L372.28 284.052
L372.535 285.403
L372.663 282.7
L372.918 280.665
L373.046 280.672
L373.301 275.443
L373.428 275.443
L373.684 282.543
L373.684 282.543
L373.811 281.874
L374.194 286.108
L374.449 286.684
L374.577 285.724
L374.96 281.846
L375.343 285.368
L375.598 286.713
L375.726 286.705
L375.981 286.008
L376.108 286.044
L376.364 283.66
L376.491 284.336
L376.874 283.945
L377.129 281.241
L377.257 281.241
L377.512 279.889
L377.512 279.889
L377.64 284.614
L377.767 283.945
L378.023 284.614
L378.405 284.614
L378.661 286.044
L378.788 286.044
L379.171 285.083
L379.554 283.055
L379.809 285.083
L379.937 284.407
L380.192 284.407
L380.575 283.055
L380.703 283.731
L380.958 284.407
L381.086 285.083
L381.468 286.037
L381.723 286.037
L381.851 287.36
L382.234 284.052
L382.489 284.052
L382.617 282.7
L382.872 282.024
L383 282.024
L383.255 283.369
L383.383 282.593
L383.638 283.269
L384.021 283.376
L384.148 284.044
L384.403 283.376
L384.531 282.7
L384.786 283.376
L385.297 282.7
L385.552 257.3
L385.68 279.32
L385.935 279.996
L386.318 277.933
L386.445 276.51
L386.701 276.51
L386.828 274.375
L387.083 273.593
L387.211 277.933
L387.466 279.96
L387.849 279.996
L387.977 283.376
L388.232 282.7
L388.232 282.7
L388.36 282.678
L388.615 261.213
L388.742 284.037
L388.998 284.052
L389.125 282.771
L389.38 286.72
L389.508 283.803
L389.763 286.684
L389.891 284.656
L390.146 286.001
L390.657 283.226
L390.912 285.368
L391.422 272.91
L391.678 275.443
L391.805 261.213
L392.188 284.55
L392.443 282.522
L392.571 283.198
L392.826 280.459
L392.954 280.494
L393.209 279.818
L393.337 284.535
L393.719 281.206
L393.975 281.206
L394.102 280.53
L394.102 280.53
L394.485 281.206
L394.868 284.535
L395.123 284.535
L395.251 283.625
L395.506 283.767
L395.634 284.535
L395.889 282.557
L396.016 284.528
L396.272 269.644
L396.399 269.644
L396.655 268.897
L396.782 283.874
L397.037 281.846
L397.165 282.515
L397.42 284.521
L397.803 284.542
L397.931 283.874
L398.314 283.874
L398.569 284.542
L398.696 284.542
L398.952 275.443
L399.079 282.557
L399.335 283.198
L399.462 284.542
L400.1 284.478
L400.228 282.451
L400.483 285.147
L400.611 284.471
L400.866 281.099
L400.993 283.803
L401.249 277.684
L401.376 277.684
L401.632 283.795
L401.759 281.099
L402.142 277.648
L402.397 277.613
L402.525 276.901
L402.908 279.747
L403.163 283.767
L403.291 283.767
L403.546 283.091
L404.056 283.091
L404.311 278.431
L404.439 282.415
L404.694 283.767
L404.822 281.882
L405.077 283.76
L405.205 283.76
L405.588 281.732
L405.843 279
L405.97 280.387
L406.226 281.063
L406.353 281.063
L406.609 280.387
L406.736 280.387
L407.119 276.937
L407.374 276.937
L407.502 280.387
L407.885 278.317
L408.14 277.605
L408.268 278.324
L408.906 267.581
L409.033 274.02
L409.289 275.443
L409.416 273.308
L409.671 274.731
L410.054 266.691
L410.182 268.932
L410.437 268.043
L410.565 268.932
L410.82 269.679
L410.948 274.731
L411.203 274.695
L411.33 275.4
L411.713 272.597
L411.968 274.731
L412.096 280.779
L412.351 281.021
L412.479 280.352
L412.607 237.84
L412.989 280.352
L413.245 281.021
L413.5 279
L413.627 279.676
L413.883 279.676
L414.01 278.68
L414.393 281.006
L415.031 281.021
L415.159 275.443
L415.542 279
L415.797 280.352
L415.925 279.676
L416.307 279.633
L416.69 276.083
L416.945 275.435
L417.073 274.731
L417.328 275.435
L417.456 275.443
L417.711 272.561
L417.839 272.561
L418.094 271.85
L418.222 273.308
L418.477 280.316
L418.604 277.221
L418.86 279.64
L418.987 279.64
L419.243 276.83
L419.37 278.239
L419.753 278.217
L420.008 274.02
L420.136 280.316
L420.391 280.309
L420.902 277.506
L421.284 280.309
L421.54 279.633
L421.667 279.633
L421.922 273.308
L422.05 274.731
L422.305 260.43
L422.433 273.308
L422.688 273.308
L422.816 274.02
L423.071 273.308
L423.199 274.012
L423.454 273.308
L423.581 274.02
L423.837 273.308
L423.964 274.02
L424.22 274.731
L424.347 277.435
L424.985 277.506
L425.113 274.66
L425.368 276.083
L425.496 275.371
L425.879 275.371
L426.134 278.929
L426.261 276.794
L426.517 259.647
L426.644 276.873
L426.899 278.929
L427.41 278.858
L427.665 278.146
L427.793 278.858
L428.048 277.435
L428.176 278.929
L428.431 277.506
L428.814 277.47
L428.941 276.083
L429.324 274.589
L429.579 275.286
L429.707 275.293
L429.962 271.885
L430.09 275.293
L430.473 275.3
L430.728 274.589
L430.856 275.3
L430.983 274.582
L431.621 274.582
L431.877 273.877
L432.004 274.582
L432.259 273.877
L432.387 273.877
L432.642 274.582
L432.642 274.582
L432.77 272.454
L433.025 274.02
L433.153 273.308
L433.408 269.608
L433.536 273.308
L433.791 274.582
L434.301 274.582
L434.556 271.743
L435.067 271.736
L435.322 275.293
L435.45 272.454
L435.833 272.419
L436.088 271.707
L436.215 262.956
L436.598 275.279
L436.854 275.286
L436.981 274.589
L437.236 275.286
L437.364 273.87
L437.619 275.286
L438.13 272.597
L438.513 266.798
L438.768 239.868
L438.895 261.206
L439.151 261.056
L439.533 264.77
L439.661 264.77
L439.916 275.258
L440.044 274.553
L440.299 275.435
L440.299 275.435
L440.427 273.948
L441.065 270.32
L441.192 271.067
L441.575 254.703
L441.831 252.248
L441.831 252.248
L441.958 252.248
L442.341 246.094
L442.596 265.268
L442.724 266.044
L442.979 254.098
L443.107 266.044
L443.362 265.126
L443.49 265.126
L443.745 258.9
L443.872 263.596
L444.128 260.43
L444.255 265.126
L444.638 264.308
L444.893 265.482
L445.021 266.834
L445.276 266.086
L445.404 264.699
L445.659 253.522
L446.042 266.834
L446.169 266.834
L446.425 269.573
L446.552 275.435
L446.808 273.308
L446.935 270.427
L447.19 269.679
L447.318 268.328
L447.573 267.865
L447.701 267.865
L448.084 266.335
L448.467 260.181
L448.722 253.244
L448.849 243.283
L449.105 241.433
L449.232 243.212
L449.487 243.319
L449.487 243.319
L449.615 244.173
L449.87 241.497
L449.998 242.394
L450.126 242.394
L450.636 244.173
L450.764 244.165
L451.019 243.319
L451.146 228.129
L451.402 244.173
L451.529 261.206
L451.912 261.206
L452.167 259.363
L452.295 260.138
L452.678 263.312
L452.933 263.305
L453.444 246.656
L453.699 246.663
L453.826 247.517
L454.082 244.101
L454.209 244.101
L454.465 244.955
L454.592 244.101
L454.847 244.955
L454.847 244.955
L454.975 247.517
L455.23 263.297
L455.358 263.169
L455.613 260.032
L455.741 260.039
L455.996 258.466
L456.123 255.236
L456.379 258.466
L456.506 258.353
L456.762 257.655
L456.889 258.474
L457.144 256.09
L457.272 257.662
L457.527 256.161
L457.655 265.553
L457.91 270.035
L458.038 270.099
L458.293 270.099
L458.421 269.359
L458.803 266.371
L459.059 265.624
L459.186 263.063
L459.442 263.845
L459.569 263.063
L459.824 264.628
L460.207 270.099
L460.335 269.359
L460.59 270.099
L460.973 268.292
L461.101 265.304
L461.484 261.426
L461.739 262.195
L462.121 262.202
L462.249 261.419
L462.504 259.078
L462.632 261.419
L462.887 259.79
L463.015 258.224
L463.398 249.011
L463.653 259.007
L463.781 258.224
L464.036 259.861
L464.163 261.426
L464.419 261.853
L464.546 259.505
L464.801 258.687
L465.184 263.418
L465.312 259.505
L465.695 266.051
L465.95 266.798
L466.078 264.557
L466.333 265.268
L466.46 263.739
L466.716 262.173
L467.226 274.012
L470.927 274.012
L471.055 272.846
L471.31 274.012
L471.437 274.012
L471.82 273.522
L472.075 271.351
L472.203 271.351
L472.458 273.522
L472.586 273.522
L472.841 274.012
L473.352 274.012
L473.734 267.438
L473.99 268.292
L474.118 268.292
L474.373 265.588
L474.755 270.071
L474.883 270.811
L475.266 270.797
L475.521 269.324
L475.649 266.335
L476.414 257.975
L476.67 257.186
L476.797 257.193
L477.052 239.868
L477.18 140.26
L477.435 262.671
L477.563 251.714
L477.946 267.83
L478.201 265.802
L478.329 268.577
L478.584 268.577
L478.711 267.047
L478.967 266.3
L479.094 268.577
L479.35 262.529
L479.477 264.841
L479.732 264.841
L479.86 260.43
L480.115 258.047
L480.243 258.04
L480.498 238.089
L480.626 256.837
L480.881 251.501
L481.009 254.774
L481.264 254.774
L481.647 270.818
L481.774 274.012
L482.412 274.012
L482.54 272.597
L482.923 233.394
L483.178 255.663
L483.306 256.467
L483.561 254.809
L483.689 254.845
L483.944 250.718
L484.071 254.845
L484.327 270
L484.454 268.506
L484.709 267.758
L484.837 267.011
L485.22 269.253
L485.475 269.253
L485.858 267.758
L485.986 265.517
L486.241 267.011
L486.241 267.011
L486.368 267.011
L486.624 266.264
L486.751 268.328
L487.007 267.581
L487.134 267.581
L487.389 266.086
L487.517 267.581
L487.9 265.304
L488.155 261.106
L488.283 266.834
L488.538 267.581
L488.666 239.868
L488.921 268.498
L489.048 268.498
L489.304 267.758
L489.431 268.498
L489.686 267.758
L489.814 268.491
L490.069 267.011
L490.197 238.552
L490.452 267.581
L490.58 267.545
L490.835 265.304
L490.963 266.051
L491.345 260.644
L491.601 262.202
L491.728 262.209
L491.984 259.79
L492.111 259.783
L492.366 260.565
L492.494 259.719
L492.877 254.916
L493.132 201.092
L493.26 254.091
L493.515 253.208
L493.898 270.32
L494.026 271.814
L494.408 271.814
L494.663 263.169
L494.791 271.067
L495.046 270.32
L495.429 270.284
L495.557 266.549
L495.812 271.031
L495.812 271.031
L495.94 270.782
L496.195 272.938
L496.322 271.885
L496.578 272.917
L496.705 272.205
L497.088 272.205
L497.343 272.938
L497.471 274.02
L497.726 273.308
L497.854 272.597
L498.109 271.885
L498.237 270.355
L498.62 275.443
L498.875 278.288
L499.002 275.428
L499.258 274.731
L499.258 274.731
L499.385 275.435
L499.64 273.877
L499.768 275.443
L500.023 274.624
L500.151 275.443
L500.406 276.154
L500.789 274.02
L500.917 274.02
L501.299 276.154
L501.555 275.443
L501.682 270.782
L502.065 267.758
L502.32 269.288
L502.448 276.154
L502.703 274.368
L502.831 274.361
L503.086 271.529
L503.597 271.316
L503.852 269.822
L504.235 269.822
L504.745 272.597
L505.128 272.597
L505.511 270.782
L505.766 267.794
L505.894 268.541
L506.149 268.541
L506.277 267.794
L506.532 268.541
L506.659 266.3
L506.915 268.541
L507.042 270.782
L507.297 267.794
L507.425 271.529
L507.68 271.529
L507.808 270.782
L508.063 272.241
L508.191 272.241
L508.446 272.419
L508.829 273.664
L509.212 276.866
L509.339 276.866
L509.722 272.881
L509.977 272.148
L510.36 269.928
L510.488 274.375
L510.743 277.506
L511.126 275.443
L511.509 275.435
L511.636 273.308
L511.892 274.34
L512.019 275.763
L512.402 269.679
L512.657 270.419
L512.785 268.932
L513.04 275.763
L513.168 275.763
L513.423 274.731
L513.551 275.763
L513.806 275.051
L513.933 274.34
L514.189 275.051
L514.317 274.375
L514.572 272.362
L514.699 272.362
L514.954 270.925
L515.082 272.348
L515.337 269.395
L515.465 270.142
L515.72 276.638
L515.848 275.371
L516.103 274.653
L516.231 273.948
L516.486 273.237
L516.613 270.996
L516.869 272.454
L516.996 271.778
L517.251 273.23
L517.379 273.23
L517.634 261.213
L517.762 265.375
L518.017 264.628
L518.4 255.663
L518.4 255.663" style="fill:none;stroke:#ff0000;stroke-linecap:square;"/>
   </g>
   <g id="line2d_2">
    <path clip-path="url(#pcb2bf987bf)" d="
M72 297.883
L72.1276 297.627
L73.5314 297.726
L73.659 298.103
L74.2971 298.103
L74.4247 296.858
L75.0628 296.858
L75.1904 296.211
L75.8285 296.211
L75.9561 295.684
L76.5942 295.684
L76.7218 297.235
L77.3599 297.235
L77.7429 295.421
L78.1256 295.421
L78.1256 295.421
L78.2532 294.539
L78.8915 294.539
L79.0189 294.397
L79.6569 294.397
L79.7846 295.272
L80.4226 295.272
L80.5503 298.089
L81.9542 298.082
L82.0816 299.356
L82.7197 299.356
L82.8473 297.435
L83.4854 297.435
L83.613 298.132
L84.2511 298.132
L84.3787 298.794
L85.7825 298.694
L85.9101 298.239
L86.5482 298.239
L86.6758 298.737
L87.3139 298.737
L87.4415 299.341
L88.0796 299.341
L88.2072 297.854
L88.8453 297.854
L88.8453 297.854
L88.9729 296.894
L89.611 296.894
L89.7386 294.197
L90.3767 294.197
L91.0148 296.958
L91.7804 298.573
L91.9081 298.573
L92.5461 297.235
L92.6738 297.235
L93.3118 297.563
L94.2051 297.065
L95.7365 296.68
L96.3746 294.02
L97.1403 294.888
L98.0336 294.005
L98.6717 295.72
L98.7993 295.72
L99.4374 296.51
L100.969 296.225
L101.734 297.926
L101.862 297.926
L102.5 297.385
L104.032 297.677
L104.797 298.466
L105.563 298.317
L106.329 299.434
L107.095 298.68
L107.988 299.021
L108.626 299.021
L109.519 300.231
L110.285 299.349
L111.05 299.59
L111.816 299.534
L113.986 299.975
L114.879 299.384
L116.41 300.352
L117.814 297.698
L117.942 297.698
L118.58 298.836
L118.707 298.836
L119.345 299.185
L120.111 297.84
L121.004 297.492
L122.536 297.364
L123.174 297.598
L124.067 296.83
L124.705 298.701
L125.471 299.818
L126.109 298.63
L126.365 298.63
L127.13 298.431
L127.13 298.431
L127.768 299.27
L128.661 299.277
L130.065 299.868
L130.193 299.868
L130.831 300.608
L131.597 299.363
L132.362 301.134
L132.362 301.134
L133.894 299.669
L134.149 301.768
L134.659 301.768
L135.425 302.436
L136.191 300.658
L136.318 300.658
L136.956 297.52
L137.722 297.264
L138.488 297.207
L139.381 297.954
L140.019 297.314
L140.785 296.36
L141.678 297.257
L142.316 295.877
L143.082 296.382
L143.975 297.62
L144.613 296.197
L145.507 295.186
L146.272 294.859
L147.038 294.205
L147.676 295.713
L148.442 295.741
L149.335 296.061
L149.973 296.716
L150.867 296.794
L151.505 297.15
L152.27 297.015
L153.164 297.015
L153.802 299.135
L154.567 298.495
L155.333 297.207
L155.333 297.207
L156.099 298.224
L156.865 296.93
L157.758 296.93
L158.396 298.367
L159.162 299.263
L159.927 299.007
L160.821 300.281
L162.224 296.595
L162.99 294.994
L163.118 294.994
L163.883 294.133
L164.649 294.617
L165.287 292.582
L166.053 293.486
L167.712 293.835
L168.35 292.86
L169.116 295.471
L169.881 295.393
L171.413 296.417
L172.178 297.52
L173.072 298.388
L174.603 298.096
L176.007 299.47
L176.9 298.473
L177.538 298.118
L179.07 296.944
L179.963 297.492
L181.367 296.887
L182.26 296.318
L182.898 296.211
L183.791 297.122
L184.43 299.036
L185.195 298.402
L185.961 299.299
L186.727 299.818
L188.258 299.434
L189.151 300.757
L190.555 299.164
L191.321 299.434
L191.321 299.434
L192.852 296.154
L193.618 295.585
L194.384 296.737
L195.277 296.503
L195.915 296.467
L198.212 297.776
L198.212 297.776
L198.978 297.954
L200.509 295.692
L201.275 295.684
L202.04 297.456
L202.806 297.406
L203.699 297.726
L204.338 298.452
L205.231 297.385
L205.997 297.392
L206.124 298.374
L206.762 298.374
L207.4 300.238
L207.911 299.733
L208.166 299.733
L208.804 302.002
L209.059 302.002
L209.059 302.002
L209.442 298.523
L209.825 298.523
L210.591 297.833
L210.846 295.955
L211.356 295.955
L211.484 297.043
L212.122 297.043
L212.25 297.342
L212.888 297.342
L213.398 297.677
L214.419 297.705
L214.547 297.164
L215.951 297.264
L215.951 297.264
L216.078 297.527
L216.589 297.527
L216.589 297.527
L216.844 296.773
L217.482 296.773
L217.482 296.773
L217.61 297.904
L218.248 297.904
L218.248 297.904
L218.375 298.281
L219.013 298.281
L219.141 296.424
L219.779 296.424
L219.907 297.862
L220.545 297.862
L220.672 298.417
L220.672 298.417
L221.31 298.417
L221.438 298.118
L222.076 298.118
L222.204 297.563
L222.842 297.563
L222.842 297.563
L223.225 299.078
L223.608 299.078
L223.735 299.683
L224.373 299.683
L224.501 299.968
L225.139 299.968
L225.267 300.772
L225.905 300.772
L225.905 300.772
L226.032 299.74
L226.032 299.74
L226.67 299.74
L226.798 299.292
L227.436 299.292
L227.436 299.292
L227.819 297.975
L228.202 297.975
L228.329 298.737
L228.967 298.737
L229.095 298.047
L229.733 298.047
L229.861 297.164
L230.499 297.164
L230.499 297.164
L230.882 298.025
L231.264 298.025
L231.264 298.025
L231.392 297.079
L232.03 297.079
L232.158 297.847
L232.796 297.847
L232.796 297.847
L232.924 299.911
L233.562 299.911
L233.689 297.541
L234.327 297.541
L234.327 297.541
L234.455 297.15
L235.093 297.15
L235.093 297.15
L235.221 296.496
L235.859 296.496
L235.859 296.496
L235.986 293.941
L236.624 293.941
L236.752 293.564
L237.39 293.564
L237.518 293.891
L238.921 293.891
L239.049 295.229
L239.687 295.229
L239.815 295.592
L240.453 295.592
L240.453 295.592
L240.58 296.794
L241.219 296.794
L241.346 296.496
L241.984 296.496
L242.112 295.976
L242.75 295.976
L242.878 295.286
L243.516 295.286
L243.643 296.325
L244.281 296.325
L244.409 295.926
L245.047 295.926
L245.047 295.926
L245.175 296.794
L246.578 296.794
L246.578 296.794
L246.706 295.4
L247.344 295.4
L247.855 295.008
L248.237 295.805
L248.876 295.805
L248.876 295.805
L249.003 296.254
L249.641 296.254
L249.641 296.254
L249.769 296.552
L250.407 296.552
L250.534 296.88
L251.173 296.88
L251.3 297.001
L251.938 297.001
L252.066 295.215
L252.704 295.215
L252.832 294.966
L253.47 294.966
L253.597 294.774
L254.235 294.774
L254.363 295.087
L255.767 295.108
L255.767 295.108
L255.894 295.279
L256.532 295.279
L256.66 297.001
L256.66 297.001
L257.298 297.001
L257.426 298.139
L258.064 298.139
L258.064 298.139
L258.574 297.819
L258.83 297.819
L258.957 298.196
L259.595 298.196
L259.595 298.196
L259.723 297.783
L260.361 297.783
L260.489 298.274
L261.127 298.274
L261.254 297.84
L261.892 297.84
L262.02 297.292
L262.658 297.292
L262.786 296.083
L263.424 296.083
L263.424 296.083
L263.551 297.022
L264.189 297.022
L264.189 297.022
L264.317 296.801
L264.955 296.801
L264.955 296.801
L265.083 296.111
L265.593 296.111
L265.848 296.986
L267.252 296.901
L267.38 296.332
L268.018 296.332
L268.145 297.563
L268.784 297.563
L268.911 298.324
L269.549 298.324
L269.677 299.149
L270.315 299.149
L270.443 296.353
L271.081 296.353
L271.463 295.165
L271.846 295.165
L271.974 294.205
L272.612 294.205
L272.74 294.084
L274.143 294.012
L274.271 294.596
L274.909 294.596
L274.909 294.596
L275.037 296.567
L275.675 296.567
L275.802 296.239
L276.441 296.239
L276.568 295.741
L277.972 295.741
L277.972 295.741
L278.099 296.225
L278.738 296.225
L278.865 295.563
L279.503 295.563
L279.631 297.769
L280.269 297.769
L280.269 297.769
L280.397 298.168
L281.035 298.168
L281.035 298.168
L281.162 294.71
L281.801 294.71
L282.311 295.314
L282.566 295.314
L282.694 295.514
L283.332 295.514
L283.459 296.83
L284.097 296.83
L284.225 296.026
L284.736 296.026
L285.246 294.93
L285.629 294.93
L285.756 296.496
L286.395 296.496
L286.522 295.763
L287.16 295.763
L287.288 296.439
L287.926 296.439
L288.054 296.73
L288.692 296.73
L288.819 296.851
L289.457 296.851
L289.585 295.983
L290.223 295.983
L290.351 294.133
L290.989 294.133
L291.116 293.386
L291.754 293.386
L292.265 293.92
L292.52 293.92
L292.52 293.92
L292.648 292.661
L293.286 292.661
L293.286 292.661
L293.413 292.952
L294.051 292.952
L294.051 292.952
L294.179 293.714
L294.817 293.714
L294.817 293.714
L294.945 294.987
L295.583 294.987
L295.71 295.378
L296.349 295.378
L296.476 294.724
L297.114 294.724
L297.242 295.983
L298.646 296.026
L298.773 294.475
L299.411 294.475
L299.539 295.578
L300.177 295.578
L300.177 295.578
L300.305 294.482
L300.943 294.482
L301.07 293.294
L301.708 293.294
L301.836 294.553
L302.474 294.553
L302.474 294.553
L302.857 293.87
L303.112 293.87
L303.368 295.058
L304.005 295.058
L304.005 295.058
L304.133 294.66
L304.771 294.66
L304.899 295.898
L305.537 295.898
L305.664 296.168
L307.068 296.168
L307.068 296.168
L307.196 297.57
L307.834 297.57
L307.962 297.769
L308.6 297.769
L308.6 297.769
L308.727 297.364
L309.365 297.364
L309.493 296.19
L310.131 296.19
L310.131 296.19
L310.259 296.68
L310.897 296.68
L311.024 298.722
L311.662 298.722
L311.79 299.491
L312.428 299.491
L312.556 298.089
L313.194 298.089
L313.321 297.598
L313.96 297.598
L314.087 298.011
L314.725 298.011
L314.853 298.673
L315.491 298.673
L315.619 299.299
L317.022 299.285
L317.15 298.175
L317.788 298.175
L317.916 297.179
L318.554 297.179
L318.554 297.179
L318.681 296.147
L319.319 296.147
L319.319 296.147
L319.447 297.221
L320.085 297.221
L320.213 296.688
L320.851 296.688
L320.851 296.688
L321.361 296.93
L321.616 296.93
L322.127 296.716
L322.893 297.292
L323.148 297.292
L323.275 297.627
L324.679 297.627
L324.807 297.954
L326.211 297.954
L326.338 298.516
L326.976 298.516
L327.104 299.135
L327.742 299.135
L327.87 298.182
L328.508 298.182
L328.635 296.595
L329.273 296.595
L329.401 298.722
L330.039 298.722
L330.167 297.449
L330.805 297.449
L330.933 297.968
L331.57 297.968
L331.698 297.364
L332.336 297.364
L332.464 298.843
L333.102 298.843
L333.23 296.873
L333.868 296.873
L333.995 298.061
L334.633 298.061
L334.761 297.015
L335.399 297.015
L335.527 297.164
L336.165 297.164
L336.292 298.267
L336.93 298.267
L337.058 297.193
L337.696 297.193
L337.824 296.887
L338.462 296.887
L338.589 296.688
L339.227 296.688
L339.355 296.375
L340.504 296.375
L340.886 296.737
L342.29 296.752
L342.418 297.05
L343.056 297.05
L343.184 296.396
L343.822 296.396
L343.822 296.396
L343.949 296.211
L345.353 296.261
L345.353 296.261
L345.481 297.001
L346.884 297.001
L346.884 297.001
L347.012 296.439
L347.65 296.439
L347.778 297.641
L348.416 297.641
L348.543 298.168
L349.947 298.146
L350.075 298.751
L350.713 298.751
L350.84 298.63
L351.224 298.63
L351.606 300.53
L352.244 300.53
L352.372 300.039
L353.01 300.039
L353.138 298.822
L353.776 298.822
L353.776 298.822
L354.158 296.766
L354.541 296.766
L354.669 297.435
L356.073 297.364
L356.073 297.364
L356.2 295.933
L356.838 295.933
L356.966 294.774
L357.477 294.774
L357.732 295.805
L358.37 295.805
L358.37 295.805
L358.497 294.475
L360.667 294.389
L360.795 295.35
L361.433 295.35
L361.56 295.137
L362.198 295.137
L362.326 295.699
L362.964 295.699
L363.092 296.069
L363.73 296.069
L363.857 297.477
L364.495 297.477
L364.623 296.047
L365.261 296.047
L365.389 296.723
L366.027 296.723
L366.027 296.723
L366.155 296.268
L366.792 296.268
L366.92 296.04
L367.558 296.04
L367.686 296.645
L368.324 296.645
L368.451 298.004
L369.09 298.004
L369.472 297.264
L370.621 297.264
L370.749 297.015
L371.387 297.015
L371.514 296.823
L372.152 296.823
L372.28 297.57
L373.684 297.52
L373.684 297.52
L373.811 297.805
L375.215 297.805
L375.343 296.389
L375.981 296.389
L376.108 296.005
L376.746 296.005
L376.874 295.314
L377.512 295.314
L377.512 295.314
L377.64 294.646
L378.278 294.646
L378.405 295.592
L379.809 295.563
L379.937 295.976
L380.575 295.976
L380.703 295.329
L381.341 295.329
L381.468 296.296
L382.872 296.325
L383 294.333
L383.638 294.333
L384.148 294.802
L384.403 294.802
L384.531 295.03
L385.935 295.03
L386.062 295.279
L386.701 295.279
L386.828 294.155
L387.466 294.155
L387.594 295.165
L388.232 295.165
L388.232 295.165
L388.36 341.803
L388.998 341.803
L389.125 296.41
L389.763 296.41
L389.891 297.862
L390.529 297.862
L390.657 296.631
L391.295 296.631
L391.422 296.332
L392.06 296.332
L392.188 297.428
L392.826 297.428
L392.954 295.983
L393.592 295.983
L393.719 295.592
L394.102 295.592
L394.102 295.592
L394.485 295.357
L395.123 295.357
L395.251 296.211
L395.889 296.211
L396.016 295.35
L396.655 295.35
L396.782 295.585
L398.186 295.492
L398.314 295.805
L398.952 295.805
L399.079 294.873
L399.717 294.873
L399.845 296.73
L401.249 296.773
L401.376 295.684
L402.78 295.599
L402.908 296.431
L403.546 296.431
L403.673 295.4
L404.311 295.4
L404.439 294.852
L405.077 294.852
L405.205 296.126
L405.843 296.126
L405.97 294.283
L406.609 294.283
L406.736 294.895
L408.14 295.001
L408.268 295.656
L408.906 295.656
L409.033 294.93
L409.671 294.93
L409.799 294.19
L410.437 294.19
L410.565 291.992
L411.203 291.992
L411.33 294.375
L411.968 294.375
L412.096 294.667
L412.607 294.667
L412.989 294.162
L414.266 294.205
L414.393 295.236
L415.031 295.236
L415.159 295.563
L415.797 295.563
L415.925 295.905
L416.563 295.905
L416.69 294.169
L417.328 294.169
L417.456 293.82
L418.094 293.82
L418.222 292.846
L418.86 292.846
L418.987 295.585
L419.625 295.585
L419.753 294.61
L420.391 294.61
L420.519 296.076
L421.922 296.118
L422.05 295.699
L422.688 295.699
L422.816 294.973
L423.454 294.973
L423.581 294.582
L424.22 294.582
L424.347 295.763
L424.985 295.763
L425.113 296.752
L425.751 296.752
L425.879 296.595
L426.517 296.595
L426.644 296.994
L427.282 296.994
L427.41 297.634
L428.048 297.634
L428.176 296.531
L428.814 296.531
L428.941 295.741
L429.579 295.741
L429.707 296.353
L430.345 296.353
L430.473 296.503
L430.983 296.503
L431.238 295.656
L431.877 295.656
L432.004 296.047
L432.642 296.047
L432.642 296.047
L432.77 296.318
L433.408 296.318
L433.536 295.471
L434.174 295.471
L434.301 296.375
L435.705 296.332
L435.833 295.25
L436.471 295.25
L436.598 294.695
L437.236 294.695
L437.364 295.514
L438.002 295.514
L438.13 295.812
L438.768 295.812
L438.895 293.65
L439.533 293.65
L439.661 294.738
L440.299 294.738
L440.299 294.738
L440.427 296.197
L441.065 296.197
L441.192 295.677
L441.831 295.677
L441.831 295.677
L441.958 296.061
L443.362 295.976
L443.49 295.471
L444.128 295.471
L444.255 295.165
L444.893 295.165
L445.021 296.865
L445.659 296.865
L446.042 294.994
L446.425 294.994
L446.552 296.488
L447.19 296.488
L447.318 293.963
L447.956 293.963
L448.084 293.13
L448.722 293.13
L448.849 291.764
L449.487 291.764
L449.487 291.764
L449.615 291.394
L450.126 291.394
L450.381 292.17
L451.019 292.17
L451.146 292.355
L452.55 292.326
L452.678 292.952
L453.316 292.952
L453.444 292.703
L454.082 292.703
L454.209 291.729
L455.613 291.729
L455.741 292.184
L456.379 292.184
L456.506 292.582
L457.144 292.582
L457.272 292.945
L457.91 292.945
L458.038 295.442
L458.676 295.442
L458.803 294.681
L459.442 294.681
L459.569 293.827
L460.207 293.827
L460.335 296.047
L460.973 296.047
L461.101 294.624
L461.739 294.624
L461.866 293.521
L462.504 293.521
L462.632 293.173
L464.036 293.08
L464.163 294.759
L464.801 294.759
L464.929 293.884
L465.567 293.884
L465.567 293.884
L465.695 294.752
L467.098 294.681
L467.098 294.681
L467.226 296.695
L467.864 296.695
L467.992 297.214
L468.63 297.214
L468.757 296.325
L469.396 296.325
L469.523 296.019
L470.161 296.019
L470.289 295.4
L470.927 295.4
L471.055 294.759
L472.458 294.695
L472.586 294.169
L473.224 294.169
L473.352 295.265
L473.99 295.265
L474.118 294.574
L474.755 294.574
L474.883 295.4
L476.287 295.407
L476.414 292.533
L477.052 292.533
L477.18 292.71
L477.818 292.71
L477.946 294.681
L478.584 294.681
L478.711 295.642
L479.35 295.642
L479.477 295.756
L480.115 295.756
L480.243 292.653
L480.881 292.653
L481.009 293.066
L481.647 293.066
L481.774 298.018
L482.412 298.018
L482.54 297.627
L483.178 297.627
L483.306 296.446
L483.944 296.446
L484.071 295.727
L484.709 295.727
L484.837 295.478
L485.475 295.478
L485.858 296.481
L486.241 296.481
L486.241 296.481
L486.368 295.144
L487.772 295.193
L487.9 294.034
L488.538 294.034
L488.666 294.183
L489.304 294.183
L489.431 295.378
L490.069 295.378
L490.197 294.987
L490.835 294.987
L490.963 295.407
L491.601 295.407
L491.728 294.717
L492.366 294.717
L492.494 294.439
L493.132 294.439
L493.26 294.133
L493.898 294.133
L494.026 297.129
L494.663 297.129
L494.791 296.93
L496.195 296.894
L496.322 298.274
L496.961 298.274
L497.088 297.164
L497.726 297.164
L497.854 297.997
L498.492 297.997
L498.62 298.431
L499.258 298.431
L499.258 298.431
L499.385 296.73
L500.789 296.773
L500.917 297.378
L502.32 297.335
L502.448 296.609
L504.617 296.538
L504.873 296.474
L505.383 296.474
L505.511 297.449
L506.915 297.413
L507.042 297.748
L507.68 297.748
L507.808 297.456
L508.446 297.456
L508.574 297.698
L509.212 297.698
L509.339 299.228
L509.977 299.228
L510.36 298.096
L510.743 298.096
L510.871 298.744
L511.509 298.744
L511.636 295.421
L512.274 295.421
L512.402 295.891
L513.04 295.891
L513.168 296.915
L514.572 296.994
L514.699 295.25
L515.337 295.25
L515.465 295.848
L516.103 295.848
L516.231 298.018
L516.869 298.018
L516.996 297.228
L518.4 297.228
L518.4 297.228" style="fill:none;stroke:#008000;stroke-linecap:square;"/>
   </g>
   <g id="patch_3">
    <path d="
M72 43.2
L518.4 43.2" style="fill:none;stroke:#000000;stroke-linecap:square;stroke-linejoin:miter;"/>
   </g>
   <g id="patch_4">
    <path d="
M518.4 345.6
L518.4 43.2" style="fill:none;stroke:#000000;stroke-linecap:square;stroke-linejoin:miter;"/>
   </g>
   <g id="patch_5">
    <path d="
M72 345.6
L518.4 345.6" style="fill:none;stroke:#000000;stroke-linecap:square;stroke-linejoin:miter;"/>
   </g>
   <g id="patch_6">
    <path d="
M72 345.6
L72 43.2" style="fill:none;stroke:#000000;stroke-linecap:square;stroke-linejoin:miter;"/>
   </g>
   <g id="matplotlib.axis_1">
    <g id="xtick_1">
     <g id="line2d_3">
      <defs>
       <path d="
M0 0
L0 -4" id="m93b0483c22" style="stroke:#000000;stroke-width:0.5;"/>
      </defs>
      <g>
       <use style="stroke:#000000;stroke-width:0.5;" x="117.941468267" xlink:href="#m93b0483c22" y="345.6"/>
      </g>
     </g>
     <g id="line2d_4">
      <defs>
       <path d="
M0 0
L0 4" id="m741efc42ff" style="stroke:#000000;stroke-width:0.5;"/>
      </defs>
      <g>
       <use style="stroke:#000000;stroke-width:0.5;" x="117.941468267" xlink:href="#m741efc42ff" y="43.2"/>
      </g>
     </g>
     <g id="text_1">
      <!-- Oct 13 2015 -->
      <defs>
       <path d="
M19.1875 8.29688
L53.6094 8.29688
L53.6094 0
L7.32812 0
L7.32812 8.29688
Q12.9375 14.1094 22.625 23.8906
Q32.3281 33.6875 34.8125 36.5312
Q39.5469 41.8438 41.4219 45.5312
Q43.3125 49.2188 43.3125 52.7812
Q43.3125 58.5938 39.2344 62.25
Q35.1562 65.9219 28.6094 65.9219
Q23.9688 65.9219 18.8125 64.3125
Q13.6719 62.7031 7.8125 59.4219
L7.8125 69.3906
Q13.7656 71.7812 18.9375 73
Q24.125 74.2188 28.4219 74.2188
Q39.75 74.2188 46.4844 68.5469
Q53.2188 62.8906 53.2188 53.4219
Q53.2188 48.9219 51.5312 44.8906
Q49.8594 40.875 45.4062 35.4062
Q44.1875 33.9844 37.6406 27.2188
Q31.1094 20.4531 19.1875 8.29688" id="BitstreamVeraSans-Roman-32"/>
       <path d="
M39.4062 66.2188
Q28.6562 66.2188 22.3281 58.2031
Q16.0156 50.2031 16.0156 36.375
Q16.0156 22.6094 22.3281 14.5938
Q28.6562 6.59375 39.4062 6.59375
Q50.1406 6.59375 56.4219 14.5938
Q62.7031 22.6094 62.7031 36.375
Q62.7031 50.2031 56.4219 58.2031
Q50.1406 66.2188 39.4062 66.2188
M39.4062 74.2188
Q54.7344 74.2188 63.9062 63.9375
Q73.0938 53.6562 73.0938 36.375
Q73.0938 19.1406 63.9062 8.85938
Q54.7344 -1.42188 39.4062 -1.42188
Q24.0312 -1.42188 14.8125 8.82812
Q5.60938 19.0938 5.60938 36.375
Q5.60938 53.6562 14.8125 63.9375
Q24.0312 74.2188 39.4062 74.2188" id="BitstreamVeraSans-Roman-4f"/>
       <path d="
M31.7812 66.4062
Q24.1719 66.4062 20.3281 58.9062
Q16.5 51.4219 16.5 36.375
Q16.5 21.3906 20.3281 13.8906
Q24.1719 6.39062 31.7812 6.39062
Q39.4531 6.39062 43.2812 13.8906
Q47.125 21.3906 47.125 36.375
Q47.125 51.4219 43.2812 58.9062
Q39.4531 66.4062 31.7812 66.4062
M31.7812 74.2188
Q44.0469 74.2188 50.5156 64.5156
Q56.9844 54.8281 56.9844 36.375
Q56.9844 17.9688 50.5156 8.26562
Q44.0469 -1.42188 31.7812 -1.42188
Q19.5312 -1.42188 13.0625 8.26562
Q6.59375 17.9688 6.59375 36.375
Q6.59375 54.8281 13.0625 64.5156
Q19.5312 74.2188 31.7812 74.2188" id="BitstreamVeraSans-Roman-30"/>
       <path d="
M12.4062 8.29688
L28.5156 8.29688
L28.5156 63.9219
L10.9844 60.4062
L10.9844 69.3906
L28.4219 72.9062
L38.2812 72.9062
L38.2812 8.29688
L54.3906 8.29688
L54.3906 0
L12.4062 0
z
" id="BitstreamVeraSans-Roman-31"/>
       <path d="
M40.5781 39.3125
Q47.6562 37.7969 51.625 33
Q55.6094 28.2188 55.6094 21.1875
Q55.6094 10.4062 48.1875 4.48438
Q40.7656 -1.42188 27.0938 -1.42188
Q22.5156 -1.42188 17.6562 -0.515625
Q12.7969 0.390625 7.625 2.20312
L7.625 11.7188
Q11.7188 9.32812 16.5938 8.10938
Q21.4844 6.89062 26.8125 6.89062
Q36.0781 6.89062 40.9375 10.5469
Q45.7969 14.2031 45.7969 21.1875
Q45.7969 27.6406 41.2812 31.2656
Q36.7656 34.9062 28.7188 34.9062
L20.2188 34.9062
L20.2188 43.0156
L29.1094 43.0156
Q36.375 43.0156 40.2344 45.9219
Q44.0938 48.8281 44.0938 54.2969
Q44.0938 59.9062 40.1094 62.9062
Q36.1406 65.9219 28.7188 65.9219
Q24.6562 65.9219 20.0156 65.0312
Q15.375 64.1562 9.8125 62.3125
L9.8125 71.0938
Q15.4375 72.6562 20.3438 73.4375
Q25.25 74.2188 29.5938 74.2188
Q40.8281 74.2188 47.3594 69.1094
Q53.9062 64.0156 53.9062 55.3281
Q53.9062 49.2656 50.4375 45.0938
Q46.9688 40.9219 40.5781 39.3125" id="BitstreamVeraSans-Roman-33"/>
       <path id="BitstreamVeraSans-Roman-20"/>
       <path d="
M10.7969 72.9062
L49.5156 72.9062
L49.5156 64.5938
L19.8281 64.5938
L19.8281 46.7344
Q21.9688 47.4688 24.1094 47.8281
Q26.2656 48.1875 28.4219 48.1875
Q40.625 48.1875 47.75 41.5
Q54.8906 34.8125 54.8906 23.3906
Q54.8906 11.625 47.5625 5.09375
Q40.2344 -1.42188 26.9062 -1.42188
Q22.3125 -1.42188 17.5469 -0.640625
Q12.7969 0.140625 7.71875 1.70312
L7.71875 11.625
Q12.1094 9.23438 16.7969 8.0625
Q21.4844 6.89062 26.7031 6.89062
Q35.1562 6.89062 40.0781 11.3281
Q45.0156 15.7656 45.0156 23.3906
Q45.0156 31 40.0781 35.4375
Q35.1562 39.8906 26.7031 39.8906
Q22.75 39.8906 18.8125 39.0156
Q14.8906 38.1406 10.7969 36.2812
z
" id="BitstreamVeraSans-Roman-35"/>
       <path d="
M18.3125 70.2188
L18.3125 54.6875
L36.8125 54.6875
L36.8125 47.7031
L18.3125 47.7031
L18.3125 18.0156
Q18.3125 11.3281 20.1406 9.42188
Q21.9688 7.51562 27.5938 7.51562
L36.8125 7.51562
L36.8125 0
L27.5938 0
Q17.1875 0 13.2344 3.875
Q9.28125 7.76562 9.28125 18.0156
L9.28125 47.7031
L2.6875 47.7031
L2.6875 54.6875
L9.28125 54.6875
L9.28125 70.2188
z
" id="BitstreamVeraSans-Roman-74"/>
       <path d="
M48.7812 52.5938
L48.7812 44.1875
Q44.9688 46.2969 41.1406 47.3438
Q37.3125 48.3906 33.4062 48.3906
Q24.6562 48.3906 19.8125 42.8438
Q14.9844 37.3125 14.9844 27.2969
Q14.9844 17.2812 19.8125 11.7344
Q24.6562 6.20312 33.4062 6.20312
Q37.3125 6.20312 41.1406 7.25
Q44.9688 8.29688 48.7812 10.4062
L48.7812 2.09375
Q45.0156 0.34375 40.9844 -0.53125
Q36.9688 -1.42188 32.4219 -1.42188
Q20.0625 -1.42188 12.7812 6.34375
Q5.51562 14.1094 5.51562 27.2969
Q5.51562 40.6719 12.8594 48.3281
Q20.2188 56 33.0156 56
Q37.1562 56 41.1094 55.1406
Q45.0625 54.2969 48.7812 52.5938" id="BitstreamVeraSans-Roman-63"/>
      </defs>
      <g transform="translate(53.3541815316 394.065590385)rotate(-30.0)scale(0.12 -0.12)">
       <use xlink:href="#BitstreamVeraSans-Roman-4f"/>
       <use x="78.7109375" xlink:href="#BitstreamVeraSans-Roman-63"/>
       <use x="133.69140625" xlink:href="#BitstreamVeraSans-Roman-74"/>
       <use x="172.900390625" xlink:href="#BitstreamVeraSans-Roman-20"/>
       <use x="204.6875" xlink:href="#BitstreamVeraSans-Roman-31"/>
       <use x="268.310546875" xlink:href="#BitstreamVeraSans-Roman-33"/>
       <use x="331.93359375" xlink:href="#BitstreamVeraSans-Roman-20"/>
       <use x="363.720703125" xlink:href="#BitstreamVeraSans-Roman-32"/>
       <use x="427.34375" xlink:href="#BitstreamVeraSans-Roman-30"/>
       <use x="490.966796875" xlink:href="#BitstreamVeraSans-Roman-31"/>
       <use x="554.58984375" xlink:href="#BitstreamVeraSans-Roman-35"/>
      </g>
     </g>
    </g>
    <g id="xtick_2">
     <g id="line2d_5">
      <g>
       <use style="stroke:#000000;stroke-width:0.5;" x="173.071485419" xlink:href="#m93b0483c22" y="345.6"/>
      </g>
     </g>
     <g id="line2d_6">
      <g>
       <use style="stroke:#000000;stroke-width:0.5;" x="173.071485419" xlink:href="#m741efc42ff" y="43.2"/>
      </g>
     </g>
     <g id="text_2">
      <!-- Oct 16 2015 -->
      <defs>
       <path d="
M33.0156 40.375
Q26.375 40.375 22.4844 35.8281
Q18.6094 31.2969 18.6094 23.3906
Q18.6094 15.5312 22.4844 10.9531
Q26.375 6.39062 33.0156 6.39062
Q39.6562 6.39062 43.5312 10.9531
Q47.4062 15.5312 47.4062 23.3906
Q47.4062 31.2969 43.5312 35.8281
Q39.6562 40.375 33.0156 40.375
M52.5938 71.2969
L52.5938 62.3125
Q48.875 64.0625 45.0938 64.9844
Q41.3125 65.9219 37.5938 65.9219
Q27.8281 65.9219 22.6719 59.3281
Q17.5312 52.7344 16.7969 39.4062
Q19.6719 43.6562 24.0156 45.9219
Q28.375 48.1875 33.5938 48.1875
Q44.5781 48.1875 50.9531 41.5156
Q57.3281 34.8594 57.3281 23.3906
Q57.3281 12.1562 50.6875 5.35938
Q44.0469 -1.42188 33.0156 -1.42188
Q20.3594 -1.42188 13.6719 8.26562
Q6.98438 17.9688 6.98438 36.375
Q6.98438 53.6562 15.1875 63.9375
Q23.3906 74.2188 37.2031 74.2188
Q40.9219 74.2188 44.7031 73.4844
Q48.4844 72.75 52.5938 71.2969" id="BitstreamVeraSans-Roman-36"/>
      </defs>
      <g transform="translate(108.484198684 394.065590385)rotate(-30.0)scale(0.12 -0.12)">
       <use xlink:href="#BitstreamVeraSans-Roman-4f"/>
       <use x="78.7109375" xlink:href="#BitstreamVeraSans-Roman-63"/>
       <use x="133.69140625" xlink:href="#BitstreamVeraSans-Roman-74"/>
       <use x="172.900390625" xlink:href="#BitstreamVeraSans-Roman-20"/>
       <use x="204.6875" xlink:href="#BitstreamVeraSans-Roman-31"/>
       <use x="268.310546875" xlink:href="#BitstreamVeraSans-Roman-36"/>
       <use x="331.93359375" xlink:href="#BitstreamVeraSans-Roman-20"/>
       <use x="363.720703125" xlink:href="#BitstreamVeraSans-Roman-32"/>
       <use x="427.34375" xlink:href="#BitstreamVeraSans-Roman-30"/>
       <use x="490.966796875" xlink:href="#BitstreamVeraSans-Roman-31"/>
       <use x="554.58984375" xlink:href="#BitstreamVeraSans-Roman-35"/>
      </g>
     </g>
    </g>
    <g id="xtick_3">
     <g id="line2d_7">
      <g>
       <use style="stroke:#000000;stroke-width:0.5;" x="228.201502573" xlink:href="#m93b0483c22" y="345.6"/>
      </g>
     </g>
     <g id="line2d_8">
      <g>
       <use style="stroke:#000000;stroke-width:0.5;" x="228.201502573" xlink:href="#m741efc42ff" y="43.2"/>
      </g>
     </g>
     <g id="text_3">
      <!-- Oct 19 2015 -->
      <defs>
       <path d="
M10.9844 1.51562
L10.9844 10.5
Q14.7031 8.73438 18.5 7.8125
Q22.3125 6.89062 25.9844 6.89062
Q35.75 6.89062 40.8906 13.4531
Q46.0469 20.0156 46.7812 33.4062
Q43.9531 29.2031 39.5938 26.9531
Q35.25 24.7031 29.9844 24.7031
Q19.0469 24.7031 12.6719 31.3125
Q6.29688 37.9375 6.29688 49.4219
Q6.29688 60.6406 12.9375 67.4219
Q19.5781 74.2188 30.6094 74.2188
Q43.2656 74.2188 49.9219 64.5156
Q56.5938 54.8281 56.5938 36.375
Q56.5938 19.1406 48.4062 8.85938
Q40.2344 -1.42188 26.4219 -1.42188
Q22.7031 -1.42188 18.8906 -0.6875
Q15.0938 0.046875 10.9844 1.51562
M30.6094 32.4219
Q37.25 32.4219 41.125 36.9531
Q45.0156 41.5 45.0156 49.4219
Q45.0156 57.2812 41.125 61.8438
Q37.25 66.4062 30.6094 66.4062
Q23.9688 66.4062 20.0938 61.8438
Q16.2188 57.2812 16.2188 49.4219
Q16.2188 41.5 20.0938 36.9531
Q23.9688 32.4219 30.6094 32.4219" id="BitstreamVeraSans-Roman-39"/>
      </defs>
      <g transform="translate(163.614215838 394.065590385)rotate(-30.0)scale(0.12 -0.12)">
       <use xlink:href="#BitstreamVeraSans-Roman-4f"/>
       <use x="78.7109375" xlink:href="#BitstreamVeraSans-Roman-63"/>
       <use x="133.69140625" xlink:href="#BitstreamVeraSans-Roman-74"/>
       <use x="172.900390625" xlink:href="#BitstreamVeraSans-Roman-20"/>
       <use x="204.6875" xlink:href="#BitstreamVeraSans-Roman-31"/>
       <use x="268.310546875" xlink:href="#BitstreamVeraSans-Roman-39"/>
       <use x="331.93359375" xlink:href="#BitstreamVeraSans-Roman-20"/>
       <use x="363.720703125" xlink:href="#BitstreamVeraSans-Roman-32"/>
       <use x="427.34375" xlink:href="#BitstreamVeraSans-Roman-30"/>
       <use x="490.966796875" xlink:href="#BitstreamVeraSans-Roman-31"/>
       <use x="554.58984375" xlink:href="#BitstreamVeraSans-Roman-35"/>
      </g>
     </g>
    </g>
    <g id="xtick_4">
     <g id="line2d_9">
      <g>
       <use style="stroke:#000000;stroke-width:0.5;" x="283.331519725" xlink:href="#m93b0483c22" y="345.6"/>
      </g>
     </g>
     <g id="line2d_10">
      <g>
       <use style="stroke:#000000;stroke-width:0.5;" x="283.331519725" xlink:href="#m741efc42ff" y="43.2"/>
      </g>
     </g>
     <g id="text_4">
      <!-- Oct 22 2015 -->
      <g transform="translate(218.74423299 394.065590385)rotate(-30.0)scale(0.12 -0.12)">
       <use xlink:href="#BitstreamVeraSans-Roman-4f"/>
       <use x="78.7109375" xlink:href="#BitstreamVeraSans-Roman-63"/>
       <use x="133.69140625" xlink:href="#BitstreamVeraSans-Roman-74"/>
       <use x="172.900390625" xlink:href="#BitstreamVeraSans-Roman-20"/>
       <use x="204.6875" xlink:href="#BitstreamVeraSans-Roman-32"/>
       <use x="268.310546875" xlink:href="#BitstreamVeraSans-Roman-32"/>
       <use x="331.93359375" xlink:href="#BitstreamVeraSans-Roman-20"/>
       <use x="363.720703125" xlink:href="#BitstreamVeraSans-Roman-32"/>
       <use x="427.34375" xlink:href="#BitstreamVeraSans-Roman-30"/>
       <use x="490.966796875" xlink:href="#BitstreamVeraSans-Roman-31"/>
       <use x="554.58984375" xlink:href="#BitstreamVeraSans-Roman-35"/>
      </g>
     </g>
    </g>
    <g id="xtick_5">
     <g id="line2d_11">
      <g>
       <use style="stroke:#000000;stroke-width:0.5;" x="338.461536877" xlink:href="#m93b0483c22" y="345.6"/>
      </g>
     </g>
     <g id="line2d_12">
      <g>
       <use style="stroke:#000000;stroke-width:0.5;" x="338.461536877" xlink:href="#m741efc42ff" y="43.2"/>
      </g>
     </g>
     <g id="text_5">
      <!-- Oct 25 2015 -->
      <g transform="translate(273.874250142 394.065590385)rotate(-30.0)scale(0.12 -0.12)">
       <use xlink:href="#BitstreamVeraSans-Roman-4f"/>
       <use x="78.7109375" xlink:href="#BitstreamVeraSans-Roman-63"/>
       <use x="133.69140625" xlink:href="#BitstreamVeraSans-Roman-74"/>
       <use x="172.900390625" xlink:href="#BitstreamVeraSans-Roman-20"/>
       <use x="204.6875" xlink:href="#BitstreamVeraSans-Roman-32"/>
       <use x="268.310546875" xlink:href="#BitstreamVeraSans-Roman-35"/>
       <use x="331.93359375" xlink:href="#BitstreamVeraSans-Roman-20"/>
       <use x="363.720703125" xlink:href="#BitstreamVeraSans-Roman-32"/>
       <use x="427.34375" xlink:href="#BitstreamVeraSans-Roman-30"/>
       <use x="490.966796875" xlink:href="#BitstreamVeraSans-Roman-31"/>
       <use x="554.58984375" xlink:href="#BitstreamVeraSans-Roman-35"/>
      </g>
     </g>
    </g>
    <g id="xtick_6">
     <g id="line2d_13">
      <g>
       <use style="stroke:#000000;stroke-width:0.5;" x="393.591554031" xlink:href="#m93b0483c22" y="345.6"/>
      </g>
     </g>
     <g id="line2d_14">
      <g>
       <use style="stroke:#000000;stroke-width:0.5;" x="393.591554031" xlink:href="#m741efc42ff" y="43.2"/>
      </g>
     </g>
     <g id="text_6">
      <!-- Oct 28 2015 -->
      <defs>
       <path d="
M31.7812 34.625
Q24.75 34.625 20.7188 30.8594
Q16.7031 27.0938 16.7031 20.5156
Q16.7031 13.9219 20.7188 10.1562
Q24.75 6.39062 31.7812 6.39062
Q38.8125 6.39062 42.8594 10.1719
Q46.9219 13.9688 46.9219 20.5156
Q46.9219 27.0938 42.8906 30.8594
Q38.875 34.625 31.7812 34.625
M21.9219 38.8125
Q15.5781 40.375 12.0312 44.7188
Q8.5 49.0781 8.5 55.3281
Q8.5 64.0625 14.7188 69.1406
Q20.9531 74.2188 31.7812 74.2188
Q42.6719 74.2188 48.875 69.1406
Q55.0781 64.0625 55.0781 55.3281
Q55.0781 49.0781 51.5312 44.7188
Q48 40.375 41.7031 38.8125
Q48.8281 37.1562 52.7969 32.3125
Q56.7812 27.4844 56.7812 20.5156
Q56.7812 9.90625 50.3125 4.23438
Q43.8438 -1.42188 31.7812 -1.42188
Q19.7344 -1.42188 13.25 4.23438
Q6.78125 9.90625 6.78125 20.5156
Q6.78125 27.4844 10.7812 32.3125
Q14.7969 37.1562 21.9219 38.8125
M18.3125 54.3906
Q18.3125 48.7344 21.8438 45.5625
Q25.3906 42.3906 31.7812 42.3906
Q38.1406 42.3906 41.7188 45.5625
Q45.3125 48.7344 45.3125 54.3906
Q45.3125 60.0625 41.7188 63.2344
Q38.1406 66.4062 31.7812 66.4062
Q25.3906 66.4062 21.8438 63.2344
Q18.3125 60.0625 18.3125 54.3906" id="BitstreamVeraSans-Roman-38"/>
      </defs>
      <g transform="translate(329.004267296 394.065590385)rotate(-30.0)scale(0.12 -0.12)">
       <use xlink:href="#BitstreamVeraSans-Roman-4f"/>
       <use x="78.7109375" xlink:href="#BitstreamVeraSans-Roman-63"/>
       <use x="133.69140625" xlink:href="#BitstreamVeraSans-Roman-74"/>
       <use x="172.900390625" xlink:href="#BitstreamVeraSans-Roman-20"/>
       <use x="204.6875" xlink:href="#BitstreamVeraSans-Roman-32"/>
       <use x="268.310546875" xlink:href="#BitstreamVeraSans-Roman-38"/>
       <use x="331.93359375" xlink:href="#BitstreamVeraSans-Roman-20"/>
       <use x="363.720703125" xlink:href="#BitstreamVeraSans-Roman-32"/>
       <use x="427.34375" xlink:href="#BitstreamVeraSans-Roman-30"/>
       <use x="490.966796875" xlink:href="#BitstreamVeraSans-Roman-31"/>
       <use x="554.58984375" xlink:href="#BitstreamVeraSans-Roman-35"/>
      </g>
     </g>
    </g>
    <g id="xtick_7">
     <g id="line2d_15">
      <g>
       <use style="stroke:#000000;stroke-width:0.5;" x="448.721571183" xlink:href="#m93b0483c22" y="345.6"/>
      </g>
     </g>
     <g id="line2d_16">
      <g>
       <use style="stroke:#000000;stroke-width:0.5;" x="448.721571183" xlink:href="#m741efc42ff" y="43.2"/>
      </g>
     </g>
     <g id="text_7">
      <!-- Oct 31 2015 -->
      <g transform="translate(384.134284448 394.065590385)rotate(-30.0)scale(0.12 -0.12)">
       <use xlink:href="#BitstreamVeraSans-Roman-4f"/>
       <use x="78.7109375" xlink:href="#BitstreamVeraSans-Roman-63"/>
       <use x="133.69140625" xlink:href="#BitstreamVeraSans-Roman-74"/>
       <use x="172.900390625" xlink:href="#BitstreamVeraSans-Roman-20"/>
       <use x="204.6875" xlink:href="#BitstreamVeraSans-Roman-33"/>
       <use x="268.310546875" xlink:href="#BitstreamVeraSans-Roman-31"/>
       <use x="331.93359375" xlink:href="#BitstreamVeraSans-Roman-20"/>
       <use x="363.720703125" xlink:href="#BitstreamVeraSans-Roman-32"/>
       <use x="427.34375" xlink:href="#BitstreamVeraSans-Roman-30"/>
       <use x="490.966796875" xlink:href="#BitstreamVeraSans-Roman-31"/>
       <use x="554.58984375" xlink:href="#BitstreamVeraSans-Roman-35"/>
      </g>
     </g>
    </g>
    <g id="xtick_8">
     <g id="line2d_17">
      <g>
       <use style="stroke:#000000;stroke-width:0.5;" x="503.851588335" xlink:href="#m93b0483c22" y="345.6"/>
      </g>
     </g>
     <g id="line2d_18">
      <g>
       <use style="stroke:#000000;stroke-width:0.5;" x="503.851588335" xlink:href="#m741efc42ff" y="43.2"/>
      </g>
     </g>
     <g id="text_8">
      <!-- Nov 03 2015 -->
      <defs>
       <path d="
M2.98438 54.6875
L12.5 54.6875
L29.5938 8.79688
L46.6875 54.6875
L56.2031 54.6875
L35.6875 0
L23.4844 0
z
" id="BitstreamVeraSans-Roman-76"/>
       <path d="
M9.8125 72.9062
L23.0938 72.9062
L55.4219 11.9219
L55.4219 72.9062
L64.9844 72.9062
L64.9844 0
L51.7031 0
L19.3906 60.9844
L19.3906 0
L9.8125 0
z
" id="BitstreamVeraSans-Roman-4e"/>
       <path d="
M30.6094 48.3906
Q23.3906 48.3906 19.1875 42.75
Q14.9844 37.1094 14.9844 27.2969
Q14.9844 17.4844 19.1562 11.8438
Q23.3438 6.20312 30.6094 6.20312
Q37.7969 6.20312 41.9844 11.8594
Q46.1875 17.5312 46.1875 27.2969
Q46.1875 37.0156 41.9844 42.7031
Q37.7969 48.3906 30.6094 48.3906
M30.6094 56
Q42.3281 56 49.0156 48.375
Q55.7188 40.7656 55.7188 27.2969
Q55.7188 13.875 49.0156 6.21875
Q42.3281 -1.42188 30.6094 -1.42188
Q18.8438 -1.42188 12.1719 6.21875
Q5.51562 13.875 5.51562 27.2969
Q5.51562 40.7656 12.1719 48.375
Q18.8438 56 30.6094 56" id="BitstreamVeraSans-Roman-6f"/>
      </defs>
      <g transform="translate(436.948766176 395.402465385)rotate(-30.0)scale(0.12 -0.12)">
       <use xlink:href="#BitstreamVeraSans-Roman-4e"/>
       <use x="74.8046875" xlink:href="#BitstreamVeraSans-Roman-6f"/>
       <use x="135.986328125" xlink:href="#BitstreamVeraSans-Roman-76"/>
       <use x="195.166015625" xlink:href="#BitstreamVeraSans-Roman-20"/>
       <use x="226.953125" xlink:href="#BitstreamVeraSans-Roman-30"/>
       <use x="290.576171875" xlink:href="#BitstreamVeraSans-Roman-33"/>
       <use x="354.19921875" xlink:href="#BitstreamVeraSans-Roman-20"/>
       <use x="385.986328125" xlink:href="#BitstreamVeraSans-Roman-32"/>
       <use x="449.609375" xlink:href="#BitstreamVeraSans-Roman-30"/>
       <use x="513.232421875" xlink:href="#BitstreamVeraSans-Roman-31"/>
       <use x="576.85546875" xlink:href="#BitstreamVeraSans-Roman-35"/>
      </g>
     </g>
    </g>
   </g>
   <g id="matplotlib.axis_2">
    <g id="ytick_1">
     <g id="line2d_19">
      <defs>
       <path d="
M0 0
L4 0" id="m728421d6d4" style="stroke:#000000;stroke-width:0.5;"/>
      </defs>
      <g>
       <use style="stroke:#000000;stroke-width:0.5;" x="72.0" xlink:href="#m728421d6d4" y="311.016998569"/>
      </g>
     </g>
     <g id="line2d_20">
      <defs>
       <path d="
M0 0
L-4 0" id="mcb0005524f" style="stroke:#000000;stroke-width:0.5;"/>
      </defs>
      <g>
       <use style="stroke:#000000;stroke-width:0.5;" x="518.4" xlink:href="#mcb0005524f" y="311.016998569"/>
      </g>
     </g>
     <g id="text_9">
      <!-- 15000 -->
      <g transform="translate(31.94 314.328248569)scale(0.12 -0.12)">
       <use xlink:href="#BitstreamVeraSans-Roman-31"/>
       <use x="63.623046875" xlink:href="#BitstreamVeraSans-Roman-35"/>
       <use x="127.24609375" xlink:href="#BitstreamVeraSans-Roman-30"/>
       <use x="190.869140625" xlink:href="#BitstreamVeraSans-Roman-30"/>
       <use x="254.4921875" xlink:href="#BitstreamVeraSans-Roman-30"/>
      </g>
     </g>
    </g>
    <g id="ytick_2">
     <g id="line2d_21">
      <g>
       <use style="stroke:#000000;stroke-width:0.5;" x="72.0" xlink:href="#m728421d6d4" y="275.442536892"/>
      </g>
     </g>
     <g id="line2d_22">
      <g>
       <use style="stroke:#000000;stroke-width:0.5;" x="518.4" xlink:href="#mcb0005524f" y="275.442536892"/>
      </g>
     </g>
     <g id="text_10">
      <!-- 20000 -->
      <g transform="translate(31.50125 278.753786892)scale(0.12 -0.12)">
       <use xlink:href="#BitstreamVeraSans-Roman-32"/>
       <use x="63.623046875" xlink:href="#BitstreamVeraSans-Roman-30"/>
       <use x="127.24609375" xlink:href="#BitstreamVeraSans-Roman-30"/>
       <use x="190.869140625" xlink:href="#BitstreamVeraSans-Roman-30"/>
       <use x="254.4921875" xlink:href="#BitstreamVeraSans-Roman-30"/>
      </g>
     </g>
    </g>
    <g id="ytick_3">
     <g id="line2d_23">
      <g>
       <use style="stroke:#000000;stroke-width:0.5;" x="72.0" xlink:href="#m728421d6d4" y="239.868075215"/>
      </g>
     </g>
     <g id="line2d_24">
      <g>
       <use style="stroke:#000000;stroke-width:0.5;" x="518.4" xlink:href="#mcb0005524f" y="239.868075215"/>
      </g>
     </g>
     <g id="text_11">
      <!-- 25000 -->
      <g transform="translate(31.50125 243.179325215)scale(0.12 -0.12)">
       <use xlink:href="#BitstreamVeraSans-Roman-32"/>
       <use x="63.623046875" xlink:href="#BitstreamVeraSans-Roman-35"/>
       <use x="127.24609375" xlink:href="#BitstreamVeraSans-Roman-30"/>
       <use x="190.869140625" xlink:href="#BitstreamVeraSans-Roman-30"/>
       <use x="254.4921875" xlink:href="#BitstreamVeraSans-Roman-30"/>
      </g>
     </g>
    </g>
    <g id="ytick_4">
     <g id="line2d_25">
      <g>
       <use style="stroke:#000000;stroke-width:0.5;" x="72.0" xlink:href="#m728421d6d4" y="204.293613537"/>
      </g>
     </g>
     <g id="line2d_26">
      <g>
       <use style="stroke:#000000;stroke-width:0.5;" x="518.4" xlink:href="#mcb0005524f" y="204.293613537"/>
      </g>
     </g>
     <g id="text_12">
      <!-- 30000 -->
      <g transform="translate(31.536875 207.604863537)scale(0.12 -0.12)">
       <use xlink:href="#BitstreamVeraSans-Roman-33"/>
       <use x="63.623046875" xlink:href="#BitstreamVeraSans-Roman-30"/>
       <use x="127.24609375" xlink:href="#BitstreamVeraSans-Roman-30"/>
       <use x="190.869140625" xlink:href="#BitstreamVeraSans-Roman-30"/>
       <use x="254.4921875" xlink:href="#BitstreamVeraSans-Roman-30"/>
      </g>
     </g>
    </g>
    <g id="ytick_5">
     <g id="line2d_27">
      <g>
       <use style="stroke:#000000;stroke-width:0.5;" x="72.0" xlink:href="#m728421d6d4" y="168.71915186"/>
      </g>
     </g>
     <g id="line2d_28">
      <g>
       <use style="stroke:#000000;stroke-width:0.5;" x="518.4" xlink:href="#mcb0005524f" y="168.71915186"/>
      </g>
     </g>
     <g id="text_13">
      <!-- 35000 -->
      <g transform="translate(31.536875 172.03040186)scale(0.12 -0.12)">
       <use xlink:href="#BitstreamVeraSans-Roman-33"/>
       <use x="63.623046875" xlink:href="#BitstreamVeraSans-Roman-35"/>
       <use x="127.24609375" xlink:href="#BitstreamVeraSans-Roman-30"/>
       <use x="190.869140625" xlink:href="#BitstreamVeraSans-Roman-30"/>
       <use x="254.4921875" xlink:href="#BitstreamVeraSans-Roman-30"/>
      </g>
     </g>
    </g>
    <g id="ytick_6">
     <g id="line2d_29">
      <g>
       <use style="stroke:#000000;stroke-width:0.5;" x="72.0" xlink:href="#m728421d6d4" y="133.144690182"/>
      </g>
     </g>
     <g id="line2d_30">
      <g>
       <use style="stroke:#000000;stroke-width:0.5;" x="518.4" xlink:href="#mcb0005524f" y="133.144690182"/>
      </g>
     </g>
     <g id="text_14">
      <!-- 40000 -->
      <defs>
       <path d="
M37.7969 64.3125
L12.8906 25.3906
L37.7969 25.3906
z

M35.2031 72.9062
L47.6094 72.9062
L47.6094 25.3906
L58.0156 25.3906
L58.0156 17.1875
L47.6094 17.1875
L47.6094 0
L37.7969 0
L37.7969 17.1875
L4.89062 17.1875
L4.89062 26.7031
z
" id="BitstreamVeraSans-Roman-34"/>
      </defs>
      <g transform="translate(31.20875 136.455940182)scale(0.12 -0.12)">
       <use xlink:href="#BitstreamVeraSans-Roman-34"/>
       <use x="63.623046875" xlink:href="#BitstreamVeraSans-Roman-30"/>
       <use x="127.24609375" xlink:href="#BitstreamVeraSans-Roman-30"/>
       <use x="190.869140625" xlink:href="#BitstreamVeraSans-Roman-30"/>
       <use x="254.4921875" xlink:href="#BitstreamVeraSans-Roman-30"/>
      </g>
     </g>
    </g>
    <g id="ytick_7">
     <g id="line2d_31">
      <g>
       <use style="stroke:#000000;stroke-width:0.5;" x="72.0" xlink:href="#m728421d6d4" y="97.5702285047"/>
      </g>
     </g>
     <g id="line2d_32">
      <g>
       <use style="stroke:#000000;stroke-width:0.5;" x="518.4" xlink:href="#mcb0005524f" y="97.5702285047"/>
      </g>
     </g>
     <g id="text_15">
      <!-- 45000 -->
      <g transform="translate(31.20875 100.881478505)scale(0.12 -0.12)">
       <use xlink:href="#BitstreamVeraSans-Roman-34"/>
       <use x="63.623046875" xlink:href="#BitstreamVeraSans-Roman-35"/>
       <use x="127.24609375" xlink:href="#BitstreamVeraSans-Roman-30"/>
       <use x="190.869140625" xlink:href="#BitstreamVeraSans-Roman-30"/>
       <use x="254.4921875" xlink:href="#BitstreamVeraSans-Roman-30"/>
      </g>
     </g>
    </g>
    <g id="ytick_8">
     <g id="line2d_33">
      <g>
       <use style="stroke:#000000;stroke-width:0.5;" x="72.0" xlink:href="#m728421d6d4" y="61.9957668273"/>
      </g>
     </g>
     <g id="line2d_34">
      <g>
       <use style="stroke:#000000;stroke-width:0.5;" x="518.4" xlink:href="#mcb0005524f" y="61.9957668273"/>
      </g>
     </g>
     <g id="text_16">
      <!-- 50000 -->
      <g transform="translate(31.548125 65.3070168273)scale(0.12 -0.12)">
       <use xlink:href="#BitstreamVeraSans-Roman-35"/>
       <use x="63.623046875" xlink:href="#BitstreamVeraSans-Roman-30"/>
       <use x="127.24609375" xlink:href="#BitstreamVeraSans-Roman-30"/>
       <use x="190.869140625" xlink:href="#BitstreamVeraSans-Roman-30"/>
       <use x="254.4921875" xlink:href="#BitstreamVeraSans-Roman-30"/>
      </g>
     </g>
    </g>
   </g>
   <g id="text_17">
    <!-- Glas -->
    <defs>
     <path d="
M59.5156 10.4062
L59.5156 29.9844
L43.4062 29.9844
L43.4062 38.0938
L69.2812 38.0938
L69.2812 6.78125
Q63.5781 2.73438 56.6875 0.65625
Q49.8125 -1.42188 42 -1.42188
Q24.9062 -1.42188 15.25 8.5625
Q5.60938 18.5625 5.60938 36.375
Q5.60938 54.25 15.25 64.2344
Q24.9062 74.2188 42 74.2188
Q49.125 74.2188 55.5469 72.4531
Q61.9688 70.7031 67.3906 67.2812
L67.3906 56.7812
Q61.9219 61.4219 55.7656 63.7656
Q49.6094 66.1094 42.8281 66.1094
Q29.4375 66.1094 22.7188 58.6406
Q16.0156 51.1719 16.0156 36.375
Q16.0156 21.625 22.7188 14.1562
Q29.4375 6.6875 42.8281 6.6875
Q48.0469 6.6875 52.1406 7.59375
Q56.25 8.5 59.5156 10.4062" id="BitstreamVeraSans-Roman-47"/>
     <path d="
M34.2812 27.4844
Q23.3906 27.4844 19.1875 25
Q14.9844 22.5156 14.9844 16.5
Q14.9844 11.7188 18.1406 8.90625
Q21.2969 6.10938 26.7031 6.10938
Q34.1875 6.10938 38.7031 11.4062
Q43.2188 16.7031 43.2188 25.4844
L43.2188 27.4844
z

M52.2031 31.2031
L52.2031 0
L43.2188 0
L43.2188 8.29688
Q40.1406 3.32812 35.5469 0.953125
Q30.9531 -1.42188 24.3125 -1.42188
Q15.9219 -1.42188 10.9531 3.29688
Q6 8.01562 6 15.9219
Q6 25.1406 12.1719 29.8281
Q18.3594 34.5156 30.6094 34.5156
L43.2188 34.5156
L43.2188 35.4062
Q43.2188 41.6094 39.1406 45
Q35.0625 48.3906 27.6875 48.3906
Q23 48.3906 18.5469 47.2656
Q14.1094 46.1406 10.0156 43.8906
L10.0156 52.2031
Q14.9375 54.1094 19.5781 55.0469
Q24.2188 56 28.6094 56
Q40.4844 56 46.3438 49.8438
Q52.2031 43.7031 52.2031 31.2031" id="BitstreamVeraSans-Roman-61"/>
     <path d="
M44.2812 53.0781
L44.2812 44.5781
Q40.4844 46.5312 36.375 47.5
Q32.2812 48.4844 27.875 48.4844
Q21.1875 48.4844 17.8438 46.4375
Q14.5 44.3906 14.5 40.2812
Q14.5 37.1562 16.8906 35.375
Q19.2812 33.5938 26.5156 31.9844
L29.5938 31.2969
Q39.1562 29.25 43.1875 25.5156
Q47.2188 21.7812 47.2188 15.0938
Q47.2188 7.46875 41.1875 3.01562
Q35.1562 -1.42188 24.6094 -1.42188
Q20.2188 -1.42188 15.4531 -0.5625
Q10.6875 0.296875 5.42188 2
L5.42188 11.2812
Q10.4062 8.6875 15.2344 7.39062
Q20.0625 6.10938 24.8125 6.10938
Q31.1562 6.10938 34.5625 8.28125
Q37.9844 10.4531 37.9844 14.4062
Q37.9844 18.0625 35.5156 20.0156
Q33.0625 21.9688 24.7031 23.7812
L21.5781 24.5156
Q13.2344 26.2656 9.51562 29.9062
Q5.8125 33.5469 5.8125 39.8906
Q5.8125 47.6094 11.2812 51.7969
Q16.75 56 26.8125 56
Q31.7812 56 36.1719 55.2656
Q40.5781 54.5469 44.2812 53.0781" id="BitstreamVeraSans-Roman-73"/>
     <path d="
M9.42188 75.9844
L18.4062 75.9844
L18.4062 0
L9.42188 0
z
" id="BitstreamVeraSans-Roman-6c"/>
    </defs>
    <g transform="translate(488.4255 38.2)scale(0.144 -0.144)">
     <use xlink:href="#BitstreamVeraSans-Roman-47"/>
     <use x="77.490234375" xlink:href="#BitstreamVeraSans-Roman-6c"/>
     <use x="105.2734375" xlink:href="#BitstreamVeraSans-Roman-61"/>
     <use x="166.552734375" xlink:href="#BitstreamVeraSans-Roman-73"/>
    </g>
   </g>
   <g id="legend_1">
    <g id="patch_7">
     <path d="
M123.942 423.616
L466.458 423.616
L466.458 398.16
L123.942 398.16
z
" style="fill:#ffffff;stroke:#000000;stroke-linejoin:miter;"/>
    </g>
    <g id="line2d_35">
     <path d="
M134.022 409.822
L154.182 409.822" style="fill:none;stroke:#ff0000;stroke-linecap:square;"/>
    </g>
    <g id="line2d_36"/>
    <g id="text_18">
     <!-- Schwarzmarktpreis -->
     <defs>
      <path d="
M52 44.1875
Q55.375 50.25 60.0625 53.125
Q64.75 56 71.0938 56
Q79.6406 56 84.2812 50.0156
Q88.9219 44.0469 88.9219 33.0156
L88.9219 0
L79.8906 0
L79.8906 32.7188
Q79.8906 40.5781 77.0938 44.375
Q74.3125 48.1875 68.6094 48.1875
Q61.625 48.1875 57.5625 43.5469
Q53.5156 38.9219 53.5156 30.9062
L53.5156 0
L44.4844 0
L44.4844 32.7188
Q44.4844 40.625 41.7031 44.4062
Q38.9219 48.1875 33.1094 48.1875
Q26.2188 48.1875 22.1562 43.5312
Q18.1094 38.875 18.1094 30.9062
L18.1094 0
L9.07812 0
L9.07812 54.6875
L18.1094 54.6875
L18.1094 46.1875
Q21.1875 51.2188 25.4844 53.6094
Q29.7812 56 35.6875 56
Q41.6562 56 45.8281 52.9688
Q50 49.9531 52 44.1875" id="BitstreamVeraSans-Roman-6d"/>
      <path d="
M5.51562 54.6875
L48.1875 54.6875
L48.1875 46.4844
L14.4062 7.17188
L48.1875 7.17188
L48.1875 0
L4.29688 0
L4.29688 8.20312
L38.0938 47.5156
L5.51562 47.5156
z
" id="BitstreamVeraSans-Roman-7a"/>
      <path d="
M53.5156 70.5156
L53.5156 60.8906
Q47.9062 63.5781 42.9219 64.8906
Q37.9375 66.2188 33.2969 66.2188
Q25.25 66.2188 20.875 63.0938
Q16.5 59.9688 16.5 54.2031
Q16.5 49.3594 19.4062 46.8906
Q22.3125 44.4375 30.4219 42.9219
L36.375 41.7031
Q47.4062 39.5938 52.6562 34.2969
Q57.9062 29 57.9062 20.125
Q57.9062 9.51562 50.7969 4.04688
Q43.7031 -1.42188 29.9844 -1.42188
Q24.8125 -1.42188 18.9688 -0.25
Q13.1406 0.921875 6.89062 3.21875
L6.89062 13.375
Q12.8906 10.0156 18.6562 8.29688
Q24.4219 6.59375 29.9844 6.59375
Q38.4219 6.59375 43.0156 9.90625
Q47.6094 13.2344 47.6094 19.3906
Q47.6094 24.75 44.3125 27.7812
Q41.0156 30.8125 33.5 32.3281
L27.4844 33.5
Q16.4531 35.6875 11.5156 40.375
Q6.59375 45.0625 6.59375 53.4219
Q6.59375 63.0938 13.4062 68.6562
Q20.2188 74.2188 32.1719 74.2188
Q37.3125 74.2188 42.625 73.2812
Q47.9531 72.3594 53.5156 70.5156" id="BitstreamVeraSans-Roman-53"/>
      <path d="
M9.42188 54.6875
L18.4062 54.6875
L18.4062 0
L9.42188 0
z

M9.42188 75.9844
L18.4062 75.9844
L18.4062 64.5938
L9.42188 64.5938
z
" id="BitstreamVeraSans-Roman-69"/>
      <path d="
M54.8906 33.0156
L54.8906 0
L45.9062 0
L45.9062 32.7188
Q45.9062 40.4844 42.875 44.3281
Q39.8438 48.1875 33.7969 48.1875
Q26.5156 48.1875 22.3125 43.5469
Q18.1094 38.9219 18.1094 30.9062
L18.1094 0
L9.07812 0
L9.07812 75.9844
L18.1094 75.9844
L18.1094 46.1875
Q21.3438 51.125 25.7031 53.5625
Q30.0781 56 35.7969 56
Q45.2188 56 50.0469 50.1719
Q54.8906 44.3438 54.8906 33.0156" id="BitstreamVeraSans-Roman-68"/>
      <path d="
M56.2031 29.5938
L56.2031 25.2031
L14.8906 25.2031
Q15.4844 15.9219 20.4844 11.0625
Q25.4844 6.20312 34.4219 6.20312
Q39.5938 6.20312 44.4531 7.46875
Q49.3125 8.73438 54.1094 11.2812
L54.1094 2.78125
Q49.2656 0.734375 44.1875 -0.34375
Q39.1094 -1.42188 33.8906 -1.42188
Q20.7969 -1.42188 13.1562 6.1875
Q5.51562 13.8125 5.51562 26.8125
Q5.51562 40.2344 12.7656 48.1094
Q20.0156 56 32.3281 56
Q43.3594 56 49.7812 48.8906
Q56.2031 41.7969 56.2031 29.5938
M47.2188 32.2344
Q47.125 39.5938 43.0938 43.9844
Q39.0625 48.3906 32.4219 48.3906
Q24.9062 48.3906 20.3906 44.1406
Q15.875 39.8906 15.1875 32.1719
z
" id="BitstreamVeraSans-Roman-65"/>
      <path d="
M4.20312 54.6875
L13.1875 54.6875
L24.4219 12.0156
L35.5938 54.6875
L46.1875 54.6875
L57.4219 12.0156
L68.6094 54.6875
L77.5938 54.6875
L63.2812 0
L52.6875 0
L40.9219 44.8281
L29.1094 0
L18.5 0
z
" id="BitstreamVeraSans-Roman-77"/>
      <path d="
M9.07812 75.9844
L18.1094 75.9844
L18.1094 31.1094
L44.9219 54.6875
L56.3906 54.6875
L27.3906 29.1094
L57.625 0
L45.9062 0
L18.1094 26.7031
L18.1094 0
L9.07812 0
z
" id="BitstreamVeraSans-Roman-6b"/>
      <path d="
M41.1094 46.2969
Q39.5938 47.1719 37.8125 47.5781
Q36.0312 48 33.8906 48
Q26.2656 48 22.1875 43.0469
Q18.1094 38.0938 18.1094 28.8125
L18.1094 0
L9.07812 0
L9.07812 54.6875
L18.1094 54.6875
L18.1094 46.1875
Q20.9531 51.1719 25.4844 53.5781
Q30.0312 56 36.5312 56
Q37.4531 56 38.5781 55.875
Q39.7031 55.7656 41.0625 55.5156
z
" id="BitstreamVeraSans-Roman-72"/>
      <path d="
M18.1094 8.20312
L18.1094 -20.7969
L9.07812 -20.7969
L9.07812 54.6875
L18.1094 54.6875
L18.1094 46.3906
Q20.9531 51.2656 25.2656 53.625
Q29.5938 56 35.5938 56
Q45.5625 56 51.7812 48.0938
Q58.0156 40.1875 58.0156 27.2969
Q58.0156 14.4062 51.7812 6.48438
Q45.5625 -1.42188 35.5938 -1.42188
Q29.5938 -1.42188 25.2656 0.953125
Q20.9531 3.32812 18.1094 8.20312
M48.6875 27.2969
Q48.6875 37.2031 44.6094 42.8438
Q40.5312 48.4844 33.4062 48.4844
Q26.2656 48.4844 22.1875 42.8438
Q18.1094 37.2031 18.1094 27.2969
Q18.1094 17.3906 22.1875 11.75
Q26.2656 6.10938 33.4062 6.10938
Q40.5312 6.10938 44.6094 11.75
Q48.6875 17.3906 48.6875 27.2969" id="BitstreamVeraSans-Roman-70"/>
     </defs>
     <g transform="translate(170.022375 414.86175)scale(0.144 -0.144)">
      <use xlink:href="#BitstreamVeraSans-Roman-53"/>
      <use x="63.4765625" xlink:href="#BitstreamVeraSans-Roman-63"/>
      <use x="118.45703125" xlink:href="#BitstreamVeraSans-Roman-68"/>
      <use x="181.8359375" xlink:href="#BitstreamVeraSans-Roman-77"/>
      <use x="263.623046875" xlink:href="#BitstreamVeraSans-Roman-61"/>
      <use x="324.90234375" xlink:href="#BitstreamVeraSans-Roman-72"/>
      <use x="366.015625" xlink:href="#BitstreamVeraSans-Roman-7a"/>
      <use x="418.505859375" xlink:href="#BitstreamVeraSans-Roman-6d"/>
      <use x="515.91796875" xlink:href="#BitstreamVeraSans-Roman-61"/>
      <use x="577.197265625" xlink:href="#BitstreamVeraSans-Roman-72"/>
      <use x="618.310546875" xlink:href="#BitstreamVeraSans-Roman-6b"/>
      <use x="676.220703125" xlink:href="#BitstreamVeraSans-Roman-74"/>
      <use x="715.4296875" xlink:href="#BitstreamVeraSans-Roman-70"/>
      <use x="778.90625" xlink:href="#BitstreamVeraSans-Roman-72"/>
      <use x="817.76953125" xlink:href="#BitstreamVeraSans-Roman-65"/>
      <use x="879.29296875" xlink:href="#BitstreamVeraSans-Roman-69"/>
      <use x="907.076171875" xlink:href="#BitstreamVeraSans-Roman-73"/>
     </g>
    </g>
    <g id="line2d_37">
     <path d="
M339.609 409.822
L359.769 409.822" style="fill:none;stroke:#008000;stroke-linecap:square;"/>
    </g>
    <g id="line2d_38"/>
    <g id="text_19">
     <!-- Normalpreis -->
     <g transform="translate(375.609375 414.86175)scale(0.144 -0.144)">
      <use xlink:href="#BitstreamVeraSans-Roman-4e"/>
      <use x="74.8046875" xlink:href="#BitstreamVeraSans-Roman-6f"/>
      <use x="135.986328125" xlink:href="#BitstreamVeraSans-Roman-72"/>
      <use x="175.349609375" xlink:href="#BitstreamVeraSans-Roman-6d"/>
      <use x="272.76171875" xlink:href="#BitstreamVeraSans-Roman-61"/>
      <use x="334.041015625" xlink:href="#BitstreamVeraSans-Roman-6c"/>
      <use x="361.82421875" xlink:href="#BitstreamVeraSans-Roman-70"/>
      <use x="425.30078125" xlink:href="#BitstreamVeraSans-Roman-72"/>
      <use x="464.1640625" xlink:href="#BitstreamVeraSans-Roman-65"/>
      <use x="525.6875" xlink:href="#BitstreamVeraSans-Roman-69"/>
      <use x="553.470703125" xlink:href="#BitstreamVeraSans-Roman-73"/>
     </g>
    </g>
   </g>
  </g>
 </g>
 <defs>
  <clipPath id="pcb2bf987bf">
   <rect height="302.4" width="446.4" x="72.0" y="43.2"/>
  </clipPath>
 </defs>
</svg>
