<?xml version="1.0" encoding="utf-8" standalone="no"?>
<!DOCTYPE svg PUBLIC "-//W3C//DTD SVG 1.1//EN"
  "http://www.w3.org/Graphics/SVG/1.1/DTD/svg11.dtd">
<!-- Created with matplotlib (http://matplotlib.org/) -->
<svg height="432pt" version="1.1" viewBox="0 0 576 432" width="576pt" xmlns="http://www.w3.org/2000/svg" xmlns:xlink="http://www.w3.org/1999/xlink">
 <defs>
  <style type="text/css">
*{stroke-linecap:butt;stroke-linejoin:round;}
  </style>
 </defs>
 <g id="figure_1">
  <g id="patch_1">
   <path d="
M0 432
L576 432
L576 0
L0 0
z
" style="fill:#ffffff;"/>
  </g>
  <g id="axes_1">
   <g id="patch_2">
    <path d="
M72 345.6
L518.4 345.6
L518.4 43.2
L72 43.2
z
" style="fill:#ffffff;"/>
   </g>
   <g id="line2d_1">
    <path clip-path="url(#pcb2bf987bf)" d="
M72 317.85
L72.1276 319.08
L72.3828 318.763
L72.5105 320.695
L72.7657 321.118
L72.8933 321.552
L73.5314 320.973
L73.659 321.277
L73.9142 321.555
L74.2971 320.033
L74.4247 319.716
L74.6799 321.555
L75.1904 321.409
L75.5732 321.555
L76.2113 320.748
L76.3389 320.893
L76.7218 320.893
L76.9772 320.311
L77.3599 320.165
L77.8703 320.176
L78.2532 320.47
L78.5084 319.504
L78.636 320.47
L79.0189 320.324
L79.2741 317.982
L79.4017 319.729
L79.6569 319.729
L79.7846 320.47
L80.1674 321.55
L80.4226 320.629
L80.5503 321.383
L80.8055 320.377
L81.1885 315.177
L81.316 315.693
L81.5712 317.823
L81.6988 316.976
L81.9542 320.083
L82.0816 318.961
L82.3371 318.961
L82.4645 319.57
L82.7197 319.557
L82.8473 320.086
L83.1026 320.086
L83.2302 321.542
L83.4854 321.542
L83.613 321.251
L83.8683 321.251
L83.9959 321.105
L84.6342 321.105
L85.017 320.338
L85.1444 320.335
L85.5273 319.61
L85.7825 316.5
L85.9101 313.231
L86.1654 319.755
L86.293 319.755
L86.5482 320.483
L86.931 320.48
L87.0587 320.324
L87.4415 320.48
L87.6967 320.044
L87.8244 320.338
L88.0796 321.555
L88.4624 321.555
L88.8453 320.126
L88.8453 320.126
L88.9729 320.734
L89.2281 320.602
L89.3557 321.555
L89.611 320.311
L89.7386 320.311
L89.9938 319.173
L89.9938 319.173
L90.2491 321.555
L90.3767 321.555
L91.0148 319.517
L91.7804 321.555
L92.6738 321.555
L93.3118 321.198
L94.2051 321.555
L94.9708 321.079
L95.7365 321.555
L96.3746 316.394
L97.1403 321.145
L98.0336 320.708
L98.6717 317.982
L98.7993 321.37
L99.4374 319.914
L100.203 320.338
L100.331 320.192
L100.969 320.06
L101.734 320.787
L101.862 320.351
L102.5 320.496
L103.266 320.205
L103.393 320.351
L104.032 320.629
L104.797 322.412
L105.563 318.763
L106.329 320.152
L107.095 319.808
L107.988 319.858
L108.626 321.092
L110.157 320.298
L110.285 320.443
L110.923 320.6
L111.05 320.457
L111.689 313.073
L111.816 320.017
L113.986 320.43
L114.879 321.039
L116.283 320.457
L116.41 320.748
L117.814 320.748
L117.942 320.602
L118.707 319.544
L119.345 320.073
L120.111 308.544
L120.877 319.848
L121.004 319.993
L121.643 320.179
L122.408 320.6
L122.536 320.441
L123.174 320.589
L123.94 320.218
L124.067 320.298
L124.705 320.88
L125.471 320.483
L126.109 320.483
L126.237 320.232
L126.237 320.232
L126.365 318.922
L127.002 320.483
L127.13 320.338
L127.13 320.338
L127.64 320.298
L127.64 320.298
L127.768 308.812
L128.661 320.483
L129.299 320.629
L130.065 321.118
L130.193 321.55
L130.831 319.888
L131.597 319.649
L132.362 321.55
L132.362 321.55
L133.894 322.336
L134.149 321.939
L134.659 322.746
L135.425 321.118
L136.191 322.322
L136.318 321.925
L136.956 311.908
L137.722 318.842
L138.488 309.632
L139.381 317.095
L140.019 320.581
L140.785 320.47
L141.551 321.634
L141.678 320.046
L142.316 319.589
L143.848 319.319
L143.975 319.464
L144.613 319.901
L145.379 319.61
L145.507 319.424
L146.272 319.451
L146.91 321.634
L147.038 321.632
L147.676 320.47
L148.442 320.615
L149.208 321.343
L149.335 321.171
L149.973 321.632
L150.739 321.338
L150.867 321.489
L151.505 321.38
L152.27 321.78
L153.036 321.949
L153.164 321.277
L153.802 321.806
L154.567 321.502
L155.333 321.499
L155.333 321.499
L156.099 321.211
L156.865 321.065
L157.63 321.356
L157.758 320.92
L158.396 320.205
L159.162 321.356
L159.927 321.065
L160.821 321.497
L162.99 321.211
L163.118 318.564
L163.883 321.793
L164.649 320.772
L165.287 320.192
L166.053 320.285
L166.819 319.861
L167.712 321.79
L168.35 321.502
L169.116 320.774
L169.243 321.502
L169.881 320.496
L170.647 321.674
L170.775 322.23
L171.413 321.383
L172.178 321.409
L173.072 321.886
L173.71 321.78
L174.603 321.198
L176.007 321.912
L176.773 321.595
L176.9 322.344
L177.538 322.071
L178.304 319.755
L179.07 322.071
L179.835 321.793
L179.963 322.344
L180.601 310.373
L180.729 322.203
L181.367 320.997
L182.26 322.283
L182.898 322.468
L183.664 322.375
L183.791 321.555
L184.43 321.687
L185.961 323.143
L187.492 321.595
L188.258 321.727
L189.024 322.203
L189.151 322.071
L190.555 320.92
L191.321 321.383
L191.321 321.383
L193.618 319.636
L194.384 320.801
L195.149 320.652
L195.277 320.51
L195.915 321.237
L196.681 321.674
L198.212 321.952
L198.212 321.952
L198.978 321.079
L200.509 322.481
L201.275 322.786
L202.04 321.237
L202.806 323.273
L203.572 322.873
L203.699 322.614
L204.338 322.058
L205.231 319.369
L205.869 319.372
L206.124 318.908
L206.507 319.226
L206.762 318.273
L207.4 317.318
L207.911 317.638
L208.166 318.114
L208.804 316.619
L209.442 322.743
L209.57 322.614
L209.825 322.071
L210.591 321.793
L211.484 319.901
L211.739 322.738
L211.867 321.952
L212.122 322.706
L212.505 322.307
L212.633 321.687
L212.888 322.084
L213.271 320.867
L213.398 322.735
L213.654 322.735
L213.654 322.735
L213.781 322.6
L214.036 322.735
L214.802 322.045
L214.93 322.452
L215.568 321.118
L215.695 321.82
L215.951 321.383
L215.951 321.383
L216.078 321.528
L216.461 321.237
L216.589 321.38
L216.589 321.38
L216.844 321.237
L217.099 312.954
L217.227 320.946
L217.61 321.383
L217.865 320.946
L217.992 321.423
L218.631 320.523
L218.758 321.82
L219.013 321.952
L219.141 322.587
L219.779 321.489
L219.907 321.489
L220.162 321.343
L220.29 320.761
L220.29 320.761
L220.545 320.761
L220.672 320.907
L220.672 320.907
L221.055 320.629
L221.31 320.629
L221.438 320.483
L221.693 320.626
L222.204 320.033
L222.459 320.338
L222.587 319.901
L222.842 319.901
L222.842 319.901
L223.352 320.761
L223.608 320.904
L223.735 319.08
L223.99 318.922
L224.118 319.08
L224.373 320.761
L224.501 320.47
L224.756 320.377
L224.884 321.343
L225.139 321.78
L225.267 321.634
L225.522 321.634
L225.649 321.925
L225.649 321.925
L225.905 321.052
L225.905 321.052
L226.032 321.489
L226.032 321.489
L226.288 321.052
L226.415 321.343
L226.415 321.343
L226.67 320.88
L226.798 322.309
L227.053 322.177
L227.181 322.307
L227.436 322.307
L227.436 322.307
L227.819 322.598
L227.946 321.939
L228.202 321.674
L228.329 321.817
L228.585 321.237
L228.712 321.237
L228.967 320.655
L229.095 321.528
L229.35 320.941
L229.478 322.071
L229.733 317.982
L229.861 320.483
L230.116 322.336
L230.499 320.629
L230.499 320.629
L231.009 322.465
L231.264 322.336
L231.264 322.336
L231.392 322.468
L232.03 322.468
L232.158 322.203
L232.413 320.801
L232.541 317.559
L232.796 320.801
L232.924 320.655
L233.306 320.946
L233.562 322.595
L233.689 322.322
L234.072 322.738
L234.455 322.738
L234.71 322.547
L234.838 322.738
L235.859 322.693
L235.859 322.693
L235.986 322.428
L236.242 321.171
L236.369 321.317
L236.624 320.721
L237.007 319.372
L237.135 320.576
L237.39 320.576
L237.518 322.428
L237.901 322.738
L238.156 322.738
L238.283 320.324
L238.539 320.47
L238.666 320.179
L238.921 320.47
L239.049 322.738
L239.304 322.738
L239.687 321.674
L239.815 322.614
L240.198 322.349
L240.453 322.481
L240.453 322.481
L240.58 322.693
L240.836 322.738
L240.963 322.534
L241.219 322.534
L241.346 322.097
L241.601 322.614
L241.729 322.481
L241.984 321.82
L242.112 308.984
L242.367 322.349
L242.495 322.481
L242.75 322.349
L242.878 322.481
L243.133 321.37
L243.26 322.666
L243.898 322.402
L244.026 322.124
L244.281 322.111
L244.409 320.629
L244.664 321.687
L244.792 321.687
L245.047 321.833
L245.047 321.833
L245.175 322.124
L245.43 322.137
L245.557 309.248
L245.813 322.481
L245.94 322.481
L246.196 321.82
L246.323 322.071
L246.578 322.084
L246.578 322.084
L246.706 321.82
L246.961 321.82
L247.089 322.084
L247.344 321.952
L247.855 321.528
L248.237 308.15
L248.493 321.528
L248.62 320.946
L248.876 320.351
L248.876 320.351
L249.003 320.946
L249.258 298.794
L249.641 322.481
L249.641 322.481
L250.024 321.277
L250.152 322.611
L250.407 322.481
L250.534 322.611
L250.79 322.468
L250.917 322.071
L251.173 318.326
L251.3 321.936
L251.555 321.939
L251.683 321.82
L252.066 322.468
L252.321 322.071
L252.832 322.6
L253.087 322.071
L253.214 322.071
L253.852 321.502
L253.98 321.502
L254.363 320.92
L254.618 321.502
L255.001 320.92
L255.129 321.211
L255.129 321.211
L255.511 321.502
L255.511 321.502
L255.767 321.065
L255.767 321.065
L255.894 321.502
L256.532 321.356
L256.66 320.774
L256.66 320.774
L257.043 322.336
L257.426 322.598
L257.681 322.336
L257.809 322.468
L258.064 321.753
L258.064 321.753
L258.447 322.611
L258.574 322.584
L258.702 322.164
L258.83 322.164
L258.957 321.131
L259.212 322.214
L259.212 322.214
L259.723 322.211
L259.978 321.939
L260.106 321.502
L260.361 322.455
L260.489 322.336
L260.744 322.614
L260.871 322.346
L261.127 322.481
L261.254 322.217
L261.892 322.746
L262.02 322.614
L262.275 323.143
L262.403 323.011
L262.658 322.468
L262.786 322.611
L263.168 323.275
L263.424 322.217
L263.424 322.217
L263.551 325.392
L263.934 323.415
L264.189 323.815
L264.189 323.815
L264.317 322.891
L264.572 322.878
L264.7 322.481
L265.083 322.693
L266.104 322.614
L266.231 321.952
L266.486 322.733
L266.614 324.149
L266.869 323.14
L266.997 323.606
L267.38 323.606
L267.635 322.746
L268.018 322.746
L268.145 322.349
L268.401 322.878
L268.784 322.865
L268.911 323.008
L269.166 322.878
L269.294 323.008
L269.549 323.008
L269.677 322.878
L269.932 323.27
L270.06 323.143
L270.315 323.143
L270.698 322.614
L270.825 322.084
L271.081 321.502
L271.463 322.481
L271.846 322.878
L272.229 321.952
L272.357 322.084
L272.612 322.878
L272.74 322.349
L272.995 322.878
L273.122 321.952
L273.378 321.237
L273.378 321.237
L273.761 321.674
L273.888 321.528
L274.143 323.114
L275.037 323.111
L275.292 322.997
L275.802 323.103
L276.185 322.997
L276.441 322.336
L276.568 322.984
L276.951 321.727
L277.206 321.423
L277.334 323.111
L277.717 323.108
L278.099 321.343
L278.355 320.761
L278.738 322.309
L278.865 323.101
L279.503 322.574
L279.886 323.09
L280.014 322.839
L280.269 323.106
L280.269 323.106
L280.652 321.767
L280.779 321.912
L281.035 321.039
L281.035 321.039
L281.162 321.036
L281.417 321.912
L281.545 322.839
L281.801 322.24
L282.183 321.952
L282.311 322.137
L282.566 322.839
L282.694 322.309
L283.077 322.825
L283.459 322.309
L283.715 322.442
L283.842 322.852
L284.097 322.971
L284.225 322.746
L284.48 322.971
L284.736 322.746
L285.756 322.177
L286.012 321.648
L286.139 321.648
L286.522 322.045
L286.777 322.836
L286.905 320.629
L287.288 307.502
L287.543 321.899
L287.671 320.668
L287.926 322.984
L288.054 323.111
L288.437 323.114
L288.692 322.852
L288.819 322.984
L289.074 321.952
L289.202 321.952
L289.457 322.587
L289.585 322.19
L289.968 322.852
L290.223 322.666
L290.351 321.949
L290.733 322.69
L290.861 322.69
L291.116 322.561
L291.499 322.852
L291.754 323.111
L292.137 322.479
L292.265 321.674
L292.648 322.084
L292.903 323.127
L293.031 323.127
L293.286 322.733
L293.413 323.127
L293.669 322.997
L293.669 322.997
L293.796 323.124
L294.434 322.865
L294.562 323.122
L294.817 322.614
L294.817 322.614
L294.945 320.629
L295.328 323.606
L295.583 323.209
L295.71 322.521
L295.966 323.312
L296.349 323.341
L296.476 323.474
L296.731 323.325
L296.859 322.944
L297.114 323.474
L297.242 323.341
L297.497 324.598
L298.008 324.133
L298.263 322.481
L298.39 322.481
L298.646 322.084
L298.773 320.483
L299.028 322.479
L299.156 322.336
L299.411 323.868
L299.539 323.537
L299.794 323.868
L300.177 323.143
L300.177 323.143
L300.305 323.275
L300.56 323.011
L300.687 323.14
L300.943 323.14
L301.326 322.614
L301.708 323.262
L301.836 322.614
L302.219 323.273
L302.985 323.273
L303.368 323.498
L303.623 323.368
L303.75 323.5
L304.005 323.063
L304.005 323.063
L304.133 323.349
L304.388 323.5
L305.282 323.275
L305.537 323.275
L305.664 323.143
L305.92 323.275
L306.047 323.143
L306.303 323.249
L306.43 323.116
L306.813 323.378
L307.068 322.971
L307.068 322.971
L307.451 323.236
L307.579 323.103
L307.962 323.103
L308.217 323.236
L308.6 322.971
L308.6 322.971
L308.727 322.958
L309.11 323.236
L309.365 323.116
L309.493 322.719
L309.876 322.455
L310.131 323.378
L310.131 323.378
L310.259 323.373
L310.514 322.839
L310.897 322.839
L311.662 322.15
L311.79 322.15
L312.173 321.859
L312.428 320.629
L312.556 322.442
L312.811 321.767
L312.939 321.904
L313.194 321.039
L313.321 321.33
L313.704 321.036
L314.087 320.893
L314.342 321.473
L314.47 321.473
L314.725 321.158
L314.853 321.184
L315.108 320.152
L315.236 320.589
L315.619 323.13
L315.874 323.373
L316.257 323.116
L316.384 323.511
L316.767 322.878
L317.022 323.236
L317.15 323.103
L317.405 323.368
L317.788 323.363
L317.916 323.09
L318.171 322.825
L318.298 323.09
L318.554 322.878
L318.554 322.878
L318.681 322.084
L319.319 323.236
L319.319 323.236
L319.702 323.143
L319.83 322.481
L320.085 322.481
L320.213 322.349
L320.596 322.746
L320.851 322.746
L320.851 322.746
L321.361 322.614
L321.616 322.349
L322.127 322.481
L322.765 322.878
L322.893 323.275
L323.148 323.09
L323.275 322.746
L323.531 322.481
L323.914 320.338
L323.914 320.338
L324.041 323.341
L324.296 323.063
L324.424 323.209
L325.19 323.222
L325.445 323.063
L325.573 323.222
L325.828 322.958
L325.956 323.275
L326.338 322.878
L326.721 322.614
L326.976 323.236
L327.104 323.103
L327.742 323.103
L327.87 322.839
L328.125 323.236
L328.252 322.984
L328.508 322.852
L328.635 316.765
L328.891 323.275
L329.018 323.011
L329.273 320.483
L329.401 323.011
L329.784 322.746
L330.039 321.925
L330.167 321.925
L330.55 322.878
L330.805 323.273
L330.933 323.011
L331.188 322.746
L331.315 322.878
L331.57 320.629
L331.698 317.823
L332.081 317.029
L332.336 321.82
L332.464 321.674
L332.847 323.143
L333.102 323.275
L333.23 317.982
L333.485 322.468
L333.612 322.719
L333.868 322.876
L333.995 322.19
L334.378 322.322
L334.633 321.158
L334.761 322.322
L335.016 322.465
L335.144 322.746
L335.399 322.746
L335.527 322.876
L335.782 322.746
L335.909 323.143
L336.165 322.997
L336.292 323.116
L336.548 309.897
L336.675 323.262
L336.93 323.257
L337.058 323.13
L337.313 322.6
L337.441 321.793
L337.696 321.648
L337.824 322.997
L338.079 323.13
L338.207 322.997
L338.462 323.13
L338.589 322.997
L338.845 323.119
L339.61 322.481
L339.738 322.611
L339.866 322.346
L340.121 321.145
L340.376 321.145
L340.504 322.346
L340.759 320.338
L340.886 316.923
L341.142 323.143
L341.269 322.852
L341.652 322.852
L341.907 322.666
L342.418 321.632
L342.801 321.952
L343.056 322.979
L343.184 322.746
L343.439 323.27
L343.566 323.267
L343.822 323.103
L343.822 323.103
L343.949 323.27
L344.332 321.952
L344.588 322.082
L344.715 321.237
L344.97 322.481
L345.098 317.188
L345.353 323.011
L345.353 323.011
L345.481 323.008
L345.736 323.27
L345.863 322.084
L346.246 320.668
L346.502 323.127
L346.629 322.852
L347.012 322.817
L347.267 322.534
L347.395 322.82
L347.778 320.483
L348.033 322.267
L348.161 322.267
L348.543 322.124
L348.799 322.267
L348.926 321.264
L349.181 322.27
L349.564 322.267
L349.692 321.711
L350.075 321.711
L350.33 321.563
L350.458 322.27
L350.84 323.257
L351.096 322.733
L351.224 323.13
L351.606 323.265
L351.861 320.205
L351.989 323.13
L352.372 323.13
L352.627 322.865
L352.755 323.13
L353.01 322.997
L353.138 322.587
L353.393 320.099
L353.52 320.364
L353.776 322.719
L353.776 322.719
L354.158 323.13
L354.286 322.865
L354.541 322.733
L354.669 323.13
L354.924 322.984
L355.307 320.986
L355.307 320.986
L355.435 323.13
L355.69 322.733
L355.817 321.158
L356.073 322.862
L356.073 322.862
L356.2 322.6
L356.583 322.812
L356.966 322.283
L357.221 320.39
L357.477 319.372
L357.732 319.372
L357.987 319.517
L358.115 321.886
L358.497 321.883
L358.753 322.614
L359.136 322.349
L359.263 322.349
L359.646 322.164
L359.901 322.164
L360.412 321.608
L360.795 322.301
L361.177 322.005
L361.56 322.005
L361.816 321.724
L361.943 322.005
L362.326 322.349
L362.581 322.349
L362.709 322.608
L362.964 322.481
L363.092 323.101
L363.347 322.839
L363.474 323.101
L363.73 322.706
L363.857 323.101
L364.113 323.09
L364.24 322.958
L364.495 322.177
L364.623 321.33
L364.878 323.209
L365.644 323.27
L366.027 322.349
L366.027 322.349
L366.155 322.084
L366.41 322.878
L366.92 322.217
L367.303 322.878
L367.558 322.878
L367.686 331.122
L368.069 325.324
L368.451 323.54
L368.707 323.275
L369.09 323.712
L369.472 322.878
L369.6 323.011
L369.855 322.878
L369.983 321.542
L370.238 321.251
L370.366 323.011
L370.621 323.011
L370.749 323.275
L371.004 322.984
L371.387 321.947
L371.514 321.947
L371.769 321.806
L371.897 321.542
L372.152 321.949
L372.28 323.262
L372.918 322.719
L373.428 323.143
L373.684 320.218
L373.684 320.218
L373.811 323.27
L374.067 323.143
L374.194 323.27
L374.449 322.878
L374.96 323.273
L375.215 322.971
L375.343 317.741
L375.598 322.574
L375.726 322.442
L376.108 320.245
L376.364 320.536
L376.491 322.442
L376.746 323.27
L377.257 322.865
L377.512 321.952
L377.512 321.952
L377.64 321.952
L377.767 323.267
L378.023 323.273
L378.278 322.746
L378.405 321.82
L378.661 323.13
L379.044 323.13
L379.171 322.997
L379.554 323.143
L379.937 323.011
L380.192 323.143
L380.575 322.746
L380.703 323.273
L380.958 323.315
L381.086 323.577
L381.468 323.153
L381.723 323.143
L381.851 323.011
L382.107 323.143
L382.234 323.408
L382.489 323.156
L382.617 322.627
L383 323.024
L383.638 323.273
L384.021 323.09
L384.148 323.273
L384.531 323.143
L384.786 323.13
L385.169 322.587
L385.297 320.483
L385.552 322.984
L385.68 322.852
L385.935 317.664
L386.062 322.984
L386.318 323.116
L386.445 322.587
L386.701 322.587
L386.828 322.19
L387.211 321.925
L387.466 321.634
L387.594 323.116
L387.849 323.262
L387.977 323.011
L388.232 323.421
L388.232 323.421
L388.742 322.084
L388.998 317.982
L389.125 320.801
L389.38 296.796
L389.508 318.088
L389.763 323.288
L390.146 322.891
L390.657 323.408
L390.912 317.85
L391.039 323.011
L391.295 322.322
L391.422 321.29
L391.678 320.708
L391.805 323.275
L392.443 323.273
L392.826 323.011
L392.954 323.011
L393.337 323.103
L393.592 322.839
L393.719 323.077
L393.975 322.415
L394.102 322.918
L394.102 322.918
L394.74 322.78
L394.868 322.78
L395.123 314.7
L395.251 314.698
L395.506 322.786
L395.634 322.521
L396.016 322.521
L396.272 323.098
L396.399 323.063
L397.037 322.307
L397.165 322.217
L397.42 316.209
L397.548 319.027
L397.803 319.027
L397.931 322.971
L398.314 322.839
L398.696 323.265
L398.952 323.259
L399.079 322.984
L399.845 323.257
L400.483 322.825
L400.866 321.899
L400.993 322.561
L401.249 322.825
L401.632 321.952
L401.759 317.982
L402.142 322.878
L402.525 323.273
L402.78 323.273
L402.908 321.528
L403.163 323.13
L403.291 304.749
L403.546 322.852
L403.673 322.455
L403.929 313.8
L404.311 322.719
L404.439 322.878
L405.077 322.878
L405.205 322.746
L405.46 57.7972
L405.588 322.746
L405.97 322.786
L406.226 323.135
L406.353 322.733
L406.609 323.132
L406.736 322.997
L406.991 322.997
L407.885 320.867
L408.14 320.827
L408.268 320.682
L408.65 321.806
L408.906 322.73
L409.671 322.733
L409.799 323.116
L410.054 322.719
L410.182 321.936
L410.437 323.09
L410.565 319.001
L410.82 322.958
L410.948 322.693
L411.203 322.561
L411.33 322.958
L411.586 322.693
L411.713 323.085
L411.968 322.693
L412.096 322.958
L412.479 323.087
L412.607 322.693
L412.989 323.087
L413.245 322.614
L413.5 323.085
L413.627 322.164
L414.01 322.018
L414.393 322.031
L414.648 322.799
L415.159 322.825
L415.542 322.375
L415.797 322.375
L415.925 321.952
L416.307 322.825
L416.69 322.825
L416.945 322.958
L417.073 322.68
L417.328 322.68
L417.456 322.547
L417.711 322.68
L417.839 322.958
L418.094 323.037
L418.222 322.931
L418.604 323.077
L418.987 322.68
L419.625 322.27
L419.753 322.799
L420.136 322.812
L420.391 322.283
L420.902 322.283
L421.157 322.15
L421.284 321.74
L421.54 322.412
L421.922 322.084
L422.05 321.555
L422.305 321.952
L422.433 321.383
L422.688 321.052
L422.816 321.235
L423.071 322.402
L423.199 322.137
L423.454 323.074
L423.581 322.809
L424.347 322.786
L424.602 322.415
L424.73 322.547
L425.368 322.27
L425.496 321.873
L426.261 322.68
L426.517 322.547
L426.644 321.952
L426.899 322.812
L427.282 322.812
L427.41 323.087
L427.793 322.428
L428.048 318.3
L428.176 323.087
L428.558 322.997
L428.941 322.653
L429.324 322.944
L429.579 322.825
L429.707 322.336
L429.962 322.952
L430.09 322.958
L430.345 322.561
L430.473 323.09
L430.856 322.217
L430.983 321.528
L431.238 322.614
L431.494 322.349
L431.877 323.005
L432.004 323.005
L432.259 322.468
L432.387 322.6
L432.77 322.19
L433.025 322.045
L433.153 322.187
L433.408 321.767
L433.536 322.19
L433.791 322.465
L433.918 322.058
L434.174 323.005
L434.684 322.944
L434.939 320.483
L435.067 320.338
L435.322 319.319
L435.705 321.939
L435.833 321.648
L436.088 322.071
L436.215 321.939
L436.471 316.354
L436.598 321.793
L436.854 322.084
L436.981 323.011
L437.236 321.82
L437.364 322.746
L437.619 323.011
L437.747 322.878
L438.002 322.214
L438.13 322.217
L438.385 322.481
L438.513 322.217
L438.895 322.455
L439.151 323.09
L439.533 322.693
L439.661 319.782
L439.916 322.428
L440.044 322.296
L440.299 322.561
L440.299 322.561
L440.427 322.428
L440.682 322.849
L441.065 322.719
L441.192 323.008
L441.575 322.997
L441.958 322.733
L442.341 323.011
L442.596 320.192
L442.724 320.335
L442.979 319.464
L443.107 323.011
L443.49 323.09
L443.872 322.587
L444.128 323.09
L444.255 322.852
L444.51 323.09
L444.638 322.931
L444.893 322.905
L445.021 322.375
L445.276 322.243
L445.404 321.965
L445.659 321.965
L446.169 322.27
L446.425 323.09
L446.808 323.011
L446.935 321.952
L447.19 322.217
L447.318 322.746
L447.701 323.103
L447.956 323.087
L448.084 322.958
L448.339 323.09
L448.467 322.534
L448.722 322.402
L448.849 322.693
L449.232 322.947
L449.487 322.547
L449.487 322.547
L449.615 322.558
L449.87 322.415
L450.126 322.547
L450.381 322.547
L450.764 322.283
L451.019 321.886
L451.146 322.15
L452.167 323.077
L452.295 323.074
L452.55 322.931
L452.678 322.534
L453.061 322.532
L453.316 322.664
L453.444 323.063
L453.699 323.074
L453.826 322.68
L454.209 323.082
L454.465 322.825
L454.592 323.011
L454.847 322.084
L454.847 322.084
L454.975 322.825
L455.23 323.249
L455.358 322.746
L455.613 322.614
L455.996 322.997
L456.123 322.733
L456.379 322.719
L456.506 322.584
L456.762 321.939
L456.889 318.988
L457.144 320.338
L457.272 319.755
L457.655 316.129
L457.91 315.349
L458.038 316.963
L458.293 317.44
L458.421 317.44
L458.803 316.474
L459.059 316.804
L459.186 316.474
L459.442 322.058
L459.569 322.296
L459.952 322.018
L460.207 321.74
L460.335 321.886
L460.718 321.449
L460.973 321.436
L461.484 322.786
L461.739 322.68
L461.866 322.979
L462.121 322.309
L462.504 322.217
L462.632 321.555
L462.887 322.481
L463.015 322.349
L463.27 319.808
L463.398 319.808
L463.653 320.099
L463.781 296.545
L464.036 322.468
L464.163 322.481
L464.419 323.011
L464.546 322.876
L464.929 322.862
L465.695 321.886
L465.95 321.449
L466.078 321.738
L466.333 321.012
L466.46 321.738
L466.843 320.576
L467.098 322.772
L467.098 322.772
L467.481 322.767
L467.992 321.978
L468.247 321.846
L468.63 321.264
L468.757 321.409
L469.013 321.407
L469.14 321.978
L469.778 321.976
L469.906 320.748
L470.161 320.457
L470.289 321.976
L470.672 321.687
L471.437 321.687
L471.693 320.126
L471.82 320.126
L472.075 319.835
L472.203 320.123
L472.458 320.192
L472.586 321.542
L472.841 321.687
L472.969 322.375
L473.224 322.24
L473.352 322.375
L473.607 321.7
L473.734 321.978
L474.5 321.976
L474.883 321.555
L475.266 321.409
L475.521 320.39
L476.032 322.243
L476.287 322.217
L476.414 321.978
L476.67 322.243
L476.797 321.555
L477.18 322.23
L477.563 321.687
L477.818 321.251
L477.946 321.396
L478.201 322.77
L478.329 322.373
L478.584 310.042
L478.711 321.687
L479.094 320.814
L479.35 320.959
L479.732 320.655
L479.86 321.687
L480.115 321.105
L480.243 321.817
L480.498 321.674
L480.626 320.946
L480.881 320.335
L481.009 320.655
L481.264 320.179
L481.391 319.305
L481.774 320.787
L482.03 320.787
L482.412 321.661
L482.54 321.661
L482.795 320.335
L482.923 317.823
L483.306 321.817
L483.689 321.092
L484.071 320.51
L484.454 322.097
L484.709 322.097
L484.837 321.965
L485.092 322.878
L485.22 319.107
L485.475 321.939
L485.858 321.528
L485.986 321.939
L486.241 322.071
L486.241 322.071
L486.368 321.925
L486.624 321.939
L486.751 321.648
L487.134 321.738
L487.389 321.738
L487.517 320.483
L487.772 323.116
L488.155 322.402
L488.283 322.402
L488.538 322.005
L488.666 322.349
L488.921 322.203
L489.048 322.399
L489.304 322.399
L489.431 322.256
L489.814 322.389
L490.069 322.399
L490.197 319.477
L490.58 322.243
L490.963 322.27
L491.218 322.124
L491.345 321.462
L491.601 82.6485
L491.728 319.477
L491.984 322.389
L492.111 321.714
L492.494 322.733
L493.26 321.899
L493.643 322.045
L493.898 321.145
L494.026 321.145
L494.281 320.417
L494.408 318.353
L494.663 320.999
L495.046 320.695
L495.174 320.999
L495.557 320.708
L495.684 320.999
L495.812 320.854
L495.812 320.854
L495.94 320.999
L496.195 320.999
L496.322 320.854
L496.578 319.98
L496.705 320.854
L496.961 320.417
L497.088 320.999
L497.471 321.039
L497.726 320.602
L497.854 321.608
L498.109 320.549
L498.237 317.678
L498.62 321.886
L498.875 321.82
L499.258 321.092
L499.258 321.092
L499.385 321.952
L499.64 320.483
L499.768 322.997
L500.534 321.78
L500.789 311.63
L500.917 311.061
L501.172 317.506
L501.299 317.347
L501.555 315.071
L501.682 317.188
L501.938 316.5
L502.065 321.925
L502.32 321.923
L502.448 321.476
L502.703 321.621
L502.831 321.158
L503.086 321.918
L503.469 321.171
L503.597 318.075
L503.852 321.476
L503.979 321.476
L504.235 320.946
L504.362 198.529
L504.617 321.634
L504.745 321.343
L504.873 321.343
L505.128 320.761
L505.511 321.923
L505.894 321.634
L506.277 321.486
L506.659 321.489
L506.915 321.343
L507.042 321.489
L507.297 321.184
L507.425 321.634
L507.68 321.343
L508.063 321.78
L508.446 321.343
L508.574 321.489
L508.829 322.198
L509.212 322.058
L509.339 322.198
L509.722 322.084
L509.977 308.441
L510.488 322.743
L511.126 322.476
L511.509 322.719
L511.636 322.584
L512.019 322.561
L512.402 323.011
L512.657 322.746
L512.785 323.008
L513.168 322.746
L513.423 321.952
L513.551 322.481
L513.933 322.217
L514.189 321.952
L514.317 321.528
L514.572 321.952
L514.699 322.481
L514.954 316.791
L515.082 321.952
L515.337 321.806
L515.465 321.37
L515.72 322.878
L516.103 322.825
L516.231 322.561
L516.486 322.966
L516.613 322.428
L516.869 322.823
L516.996 322.296
L517.379 322.082
L517.634 322.256
L517.762 321.859
L518.145 322.256
L518.4 322.394
L518.4 322.394" style="fill:none;stroke:#ff0000;stroke-linecap:square;"/>
   </g>
   <g id="line2d_2">
    <path clip-path="url(#pcb2bf987bf)" d="
M72 343.606
L74.2971 343.664
L74.8075 343.694
L81.1885 343.588
L81.316 343.511
L87.3139 343.611
L88.2072 343.627
L99.4374 343.58
L100.331 343.466
L105.563 343.627
L107.988 343.577
L119.345 343.495
L121.643 343.484
L124.705 343.543
L126.365 343.548
L127.768 343.553
L130.065 343.585
L136.956 343.506
L138.488 343.447
L155.333 343.559
L155.333 343.559
L156.865 343.516
L171.413 343.622
L173.072 343.577
L174.603 343.543
L186.727 343.63
L187.492 343.561
L189.151 343.633
L203.699 343.627
L205.231 343.545
L206.762 343.522
L209.059 343.498
L209.059 343.498
L209.825 343.604
L212.888 343.619
L216.589 343.543
L216.589 343.543
L218.758 343.561
L260.361 343.601
L260.489 343.688
L268.018 343.59
L269.294 343.556
L291.754 343.641
L293.031 343.656
L388.232 343.585
L388.232 343.585
L388.36 345.382
L388.998 345.382
L389.125 343.625
L427.282 343.694
L427.665 343.749
L431.877 343.641
L434.684 343.635
L518.4 343.627
L518.4 343.627" style="fill:none;stroke:#008000;stroke-linecap:square;"/>
   </g>
   <g id="patch_3">
    <path d="
M72 43.2
L518.4 43.2" style="fill:none;stroke:#000000;stroke-linecap:square;stroke-linejoin:miter;"/>
   </g>
   <g id="patch_4">
    <path d="
M518.4 345.6
L518.4 43.2" style="fill:none;stroke:#000000;stroke-linecap:square;stroke-linejoin:miter;"/>
   </g>
   <g id="patch_5">
    <path d="
M72 345.6
L518.4 345.6" style="fill:none;stroke:#000000;stroke-linecap:square;stroke-linejoin:miter;"/>
   </g>
   <g id="patch_6">
    <path d="
M72 345.6
L72 43.2" style="fill:none;stroke:#000000;stroke-linecap:square;stroke-linejoin:miter;"/>
   </g>
   <g id="matplotlib.axis_1">
    <g id="xtick_1">
     <g id="line2d_3">
      <defs>
       <path d="
M0 0
L0 -4" id="m93b0483c22" style="stroke:#000000;stroke-width:0.5;"/>
      </defs>
      <g>
       <use style="stroke:#000000;stroke-width:0.5;" x="117.941468267" xlink:href="#m93b0483c22" y="345.6"/>
      </g>
     </g>
     <g id="line2d_4">
      <defs>
       <path d="
M0 0
L0 4" id="m741efc42ff" style="stroke:#000000;stroke-width:0.5;"/>
      </defs>
      <g>
       <use style="stroke:#000000;stroke-width:0.5;" x="117.941468267" xlink:href="#m741efc42ff" y="43.2"/>
      </g>
     </g>
     <g id="text_1">
      <!-- Oct 13 2015 -->
      <defs>
       <path d="
M19.1875 8.29688
L53.6094 8.29688
L53.6094 0
L7.32812 0
L7.32812 8.29688
Q12.9375 14.1094 22.625 23.8906
Q32.3281 33.6875 34.8125 36.5312
Q39.5469 41.8438 41.4219 45.5312
Q43.3125 49.2188 43.3125 52.7812
Q43.3125 58.5938 39.2344 62.25
Q35.1562 65.9219 28.6094 65.9219
Q23.9688 65.9219 18.8125 64.3125
Q13.6719 62.7031 7.8125 59.4219
L7.8125 69.3906
Q13.7656 71.7812 18.9375 73
Q24.125 74.2188 28.4219 74.2188
Q39.75 74.2188 46.4844 68.5469
Q53.2188 62.8906 53.2188 53.4219
Q53.2188 48.9219 51.5312 44.8906
Q49.8594 40.875 45.4062 35.4062
Q44.1875 33.9844 37.6406 27.2188
Q31.1094 20.4531 19.1875 8.29688" id="BitstreamVeraSans-Roman-32"/>
       <path d="
M39.4062 66.2188
Q28.6562 66.2188 22.3281 58.2031
Q16.0156 50.2031 16.0156 36.375
Q16.0156 22.6094 22.3281 14.5938
Q28.6562 6.59375 39.4062 6.59375
Q50.1406 6.59375 56.4219 14.5938
Q62.7031 22.6094 62.7031 36.375
Q62.7031 50.2031 56.4219 58.2031
Q50.1406 66.2188 39.4062 66.2188
M39.4062 74.2188
Q54.7344 74.2188 63.9062 63.9375
Q73.0938 53.6562 73.0938 36.375
Q73.0938 19.1406 63.9062 8.85938
Q54.7344 -1.42188 39.4062 -1.42188
Q24.0312 -1.42188 14.8125 8.82812
Q5.60938 19.0938 5.60938 36.375
Q5.60938 53.6562 14.8125 63.9375
Q24.0312 74.2188 39.4062 74.2188" id="BitstreamVeraSans-Roman-4f"/>
       <path d="
M31.7812 66.4062
Q24.1719 66.4062 20.3281 58.9062
Q16.5 51.4219 16.5 36.375
Q16.5 21.3906 20.3281 13.8906
Q24.1719 6.39062 31.7812 6.39062
Q39.4531 6.39062 43.2812 13.8906
Q47.125 21.3906 47.125 36.375
Q47.125 51.4219 43.2812 58.9062
Q39.4531 66.4062 31.7812 66.4062
M31.7812 74.2188
Q44.0469 74.2188 50.5156 64.5156
Q56.9844 54.8281 56.9844 36.375
Q56.9844 17.9688 50.5156 8.26562
Q44.0469 -1.42188 31.7812 -1.42188
Q19.5312 -1.42188 13.0625 8.26562
Q6.59375 17.9688 6.59375 36.375
Q6.59375 54.8281 13.0625 64.5156
Q19.5312 74.2188 31.7812 74.2188" id="BitstreamVeraSans-Roman-30"/>
       <path d="
M12.4062 8.29688
L28.5156 8.29688
L28.5156 63.9219
L10.9844 60.4062
L10.9844 69.3906
L28.4219 72.9062
L38.2812 72.9062
L38.2812 8.29688
L54.3906 8.29688
L54.3906 0
L12.4062 0
z
" id="BitstreamVeraSans-Roman-31"/>
       <path d="
M40.5781 39.3125
Q47.6562 37.7969 51.625 33
Q55.6094 28.2188 55.6094 21.1875
Q55.6094 10.4062 48.1875 4.48438
Q40.7656 -1.42188 27.0938 -1.42188
Q22.5156 -1.42188 17.6562 -0.515625
Q12.7969 0.390625 7.625 2.20312
L7.625 11.7188
Q11.7188 9.32812 16.5938 8.10938
Q21.4844 6.89062 26.8125 6.89062
Q36.0781 6.89062 40.9375 10.5469
Q45.7969 14.2031 45.7969 21.1875
Q45.7969 27.6406 41.2812 31.2656
Q36.7656 34.9062 28.7188 34.9062
L20.2188 34.9062
L20.2188 43.0156
L29.1094 43.0156
Q36.375 43.0156 40.2344 45.9219
Q44.0938 48.8281 44.0938 54.2969
Q44.0938 59.9062 40.1094 62.9062
Q36.1406 65.9219 28.7188 65.9219
Q24.6562 65.9219 20.0156 65.0312
Q15.375 64.1562 9.8125 62.3125
L9.8125 71.0938
Q15.4375 72.6562 20.3438 73.4375
Q25.25 74.2188 29.5938 74.2188
Q40.8281 74.2188 47.3594 69.1094
Q53.9062 64.0156 53.9062 55.3281
Q53.9062 49.2656 50.4375 45.0938
Q46.9688 40.9219 40.5781 39.3125" id="BitstreamVeraSans-Roman-33"/>
       <path id="BitstreamVeraSans-Roman-20"/>
       <path d="
M10.7969 72.9062
L49.5156 72.9062
L49.5156 64.5938
L19.8281 64.5938
L19.8281 46.7344
Q21.9688 47.4688 24.1094 47.8281
Q26.2656 48.1875 28.4219 48.1875
Q40.625 48.1875 47.75 41.5
Q54.8906 34.8125 54.8906 23.3906
Q54.8906 11.625 47.5625 5.09375
Q40.2344 -1.42188 26.9062 -1.42188
Q22.3125 -1.42188 17.5469 -0.640625
Q12.7969 0.140625 7.71875 1.70312
L7.71875 11.625
Q12.1094 9.23438 16.7969 8.0625
Q21.4844 6.89062 26.7031 6.89062
Q35.1562 6.89062 40.0781 11.3281
Q45.0156 15.7656 45.0156 23.3906
Q45.0156 31 40.0781 35.4375
Q35.1562 39.8906 26.7031 39.8906
Q22.75 39.8906 18.8125 39.0156
Q14.8906 38.1406 10.7969 36.2812
z
" id="BitstreamVeraSans-Roman-35"/>
       <path d="
M18.3125 70.2188
L18.3125 54.6875
L36.8125 54.6875
L36.8125 47.7031
L18.3125 47.7031
L18.3125 18.0156
Q18.3125 11.3281 20.1406 9.42188
Q21.9688 7.51562 27.5938 7.51562
L36.8125 7.51562
L36.8125 0
L27.5938 0
Q17.1875 0 13.2344 3.875
Q9.28125 7.76562 9.28125 18.0156
L9.28125 47.7031
L2.6875 47.7031
L2.6875 54.6875
L9.28125 54.6875
L9.28125 70.2188
z
" id="BitstreamVeraSans-Roman-74"/>
       <path d="
M48.7812 52.5938
L48.7812 44.1875
Q44.9688 46.2969 41.1406 47.3438
Q37.3125 48.3906 33.4062 48.3906
Q24.6562 48.3906 19.8125 42.8438
Q14.9844 37.3125 14.9844 27.2969
Q14.9844 17.2812 19.8125 11.7344
Q24.6562 6.20312 33.4062 6.20312
Q37.3125 6.20312 41.1406 7.25
Q44.9688 8.29688 48.7812 10.4062
L48.7812 2.09375
Q45.0156 0.34375 40.9844 -0.53125
Q36.9688 -1.42188 32.4219 -1.42188
Q20.0625 -1.42188 12.7812 6.34375
Q5.51562 14.1094 5.51562 27.2969
Q5.51562 40.6719 12.8594 48.3281
Q20.2188 56 33.0156 56
Q37.1562 56 41.1094 55.1406
Q45.0625 54.2969 48.7812 52.5938" id="BitstreamVeraSans-Roman-63"/>
      </defs>
      <g transform="translate(53.3541815316 394.065590385)rotate(-30.0)scale(0.12 -0.12)">
       <use xlink:href="#BitstreamVeraSans-Roman-4f"/>
       <use x="78.7109375" xlink:href="#BitstreamVeraSans-Roman-63"/>
       <use x="133.69140625" xlink:href="#BitstreamVeraSans-Roman-74"/>
       <use x="172.900390625" xlink:href="#BitstreamVeraSans-Roman-20"/>
       <use x="204.6875" xlink:href="#BitstreamVeraSans-Roman-31"/>
       <use x="268.310546875" xlink:href="#BitstreamVeraSans-Roman-33"/>
       <use x="331.93359375" xlink:href="#BitstreamVeraSans-Roman-20"/>
       <use x="363.720703125" xlink:href="#BitstreamVeraSans-Roman-32"/>
       <use x="427.34375" xlink:href="#BitstreamVeraSans-Roman-30"/>
       <use x="490.966796875" xlink:href="#BitstreamVeraSans-Roman-31"/>
       <use x="554.58984375" xlink:href="#BitstreamVeraSans-Roman-35"/>
      </g>
     </g>
    </g>
    <g id="xtick_2">
     <g id="line2d_5">
      <g>
       <use style="stroke:#000000;stroke-width:0.5;" x="173.071485419" xlink:href="#m93b0483c22" y="345.6"/>
      </g>
     </g>
     <g id="line2d_6">
      <g>
       <use style="stroke:#000000;stroke-width:0.5;" x="173.071485419" xlink:href="#m741efc42ff" y="43.2"/>
      </g>
     </g>
     <g id="text_2">
      <!-- Oct 16 2015 -->
      <defs>
       <path d="
M33.0156 40.375
Q26.375 40.375 22.4844 35.8281
Q18.6094 31.2969 18.6094 23.3906
Q18.6094 15.5312 22.4844 10.9531
Q26.375 6.39062 33.0156 6.39062
Q39.6562 6.39062 43.5312 10.9531
Q47.4062 15.5312 47.4062 23.3906
Q47.4062 31.2969 43.5312 35.8281
Q39.6562 40.375 33.0156 40.375
M52.5938 71.2969
L52.5938 62.3125
Q48.875 64.0625 45.0938 64.9844
Q41.3125 65.9219 37.5938 65.9219
Q27.8281 65.9219 22.6719 59.3281
Q17.5312 52.7344 16.7969 39.4062
Q19.6719 43.6562 24.0156 45.9219
Q28.375 48.1875 33.5938 48.1875
Q44.5781 48.1875 50.9531 41.5156
Q57.3281 34.8594 57.3281 23.3906
Q57.3281 12.1562 50.6875 5.35938
Q44.0469 -1.42188 33.0156 -1.42188
Q20.3594 -1.42188 13.6719 8.26562
Q6.98438 17.9688 6.98438 36.375
Q6.98438 53.6562 15.1875 63.9375
Q23.3906 74.2188 37.2031 74.2188
Q40.9219 74.2188 44.7031 73.4844
Q48.4844 72.75 52.5938 71.2969" id="BitstreamVeraSans-Roman-36"/>
      </defs>
      <g transform="translate(108.484198684 394.065590385)rotate(-30.0)scale(0.12 -0.12)">
       <use xlink:href="#BitstreamVeraSans-Roman-4f"/>
       <use x="78.7109375" xlink:href="#BitstreamVeraSans-Roman-63"/>
       <use x="133.69140625" xlink:href="#BitstreamVeraSans-Roman-74"/>
       <use x="172.900390625" xlink:href="#BitstreamVeraSans-Roman-20"/>
       <use x="204.6875" xlink:href="#BitstreamVeraSans-Roman-31"/>
       <use x="268.310546875" xlink:href="#BitstreamVeraSans-Roman-36"/>
       <use x="331.93359375" xlink:href="#BitstreamVeraSans-Roman-20"/>
       <use x="363.720703125" xlink:href="#BitstreamVeraSans-Roman-32"/>
       <use x="427.34375" xlink:href="#BitstreamVeraSans-Roman-30"/>
       <use x="490.966796875" xlink:href="#BitstreamVeraSans-Roman-31"/>
       <use x="554.58984375" xlink:href="#BitstreamVeraSans-Roman-35"/>
      </g>
     </g>
    </g>
    <g id="xtick_3">
     <g id="line2d_7">
      <g>
       <use style="stroke:#000000;stroke-width:0.5;" x="228.201502573" xlink:href="#m93b0483c22" y="345.6"/>
      </g>
     </g>
     <g id="line2d_8">
      <g>
       <use style="stroke:#000000;stroke-width:0.5;" x="228.201502573" xlink:href="#m741efc42ff" y="43.2"/>
      </g>
     </g>
     <g id="text_3">
      <!-- Oct 19 2015 -->
      <defs>
       <path d="
M10.9844 1.51562
L10.9844 10.5
Q14.7031 8.73438 18.5 7.8125
Q22.3125 6.89062 25.9844 6.89062
Q35.75 6.89062 40.8906 13.4531
Q46.0469 20.0156 46.7812 33.4062
Q43.9531 29.2031 39.5938 26.9531
Q35.25 24.7031 29.9844 24.7031
Q19.0469 24.7031 12.6719 31.3125
Q6.29688 37.9375 6.29688 49.4219
Q6.29688 60.6406 12.9375 67.4219
Q19.5781 74.2188 30.6094 74.2188
Q43.2656 74.2188 49.9219 64.5156
Q56.5938 54.8281 56.5938 36.375
Q56.5938 19.1406 48.4062 8.85938
Q40.2344 -1.42188 26.4219 -1.42188
Q22.7031 -1.42188 18.8906 -0.6875
Q15.0938 0.046875 10.9844 1.51562
M30.6094 32.4219
Q37.25 32.4219 41.125 36.9531
Q45.0156 41.5 45.0156 49.4219
Q45.0156 57.2812 41.125 61.8438
Q37.25 66.4062 30.6094 66.4062
Q23.9688 66.4062 20.0938 61.8438
Q16.2188 57.2812 16.2188 49.4219
Q16.2188 41.5 20.0938 36.9531
Q23.9688 32.4219 30.6094 32.4219" id="BitstreamVeraSans-Roman-39"/>
      </defs>
      <g transform="translate(163.614215838 394.065590385)rotate(-30.0)scale(0.12 -0.12)">
       <use xlink:href="#BitstreamVeraSans-Roman-4f"/>
       <use x="78.7109375" xlink:href="#BitstreamVeraSans-Roman-63"/>
       <use x="133.69140625" xlink:href="#BitstreamVeraSans-Roman-74"/>
       <use x="172.900390625" xlink:href="#BitstreamVeraSans-Roman-20"/>
       <use x="204.6875" xlink:href="#BitstreamVeraSans-Roman-31"/>
       <use x="268.310546875" xlink:href="#BitstreamVeraSans-Roman-39"/>
       <use x="331.93359375" xlink:href="#BitstreamVeraSans-Roman-20"/>
       <use x="363.720703125" xlink:href="#BitstreamVeraSans-Roman-32"/>
       <use x="427.34375" xlink:href="#BitstreamVeraSans-Roman-30"/>
       <use x="490.966796875" xlink:href="#BitstreamVeraSans-Roman-31"/>
       <use x="554.58984375" xlink:href="#BitstreamVeraSans-Roman-35"/>
      </g>
     </g>
    </g>
    <g id="xtick_4">
     <g id="line2d_9">
      <g>
       <use style="stroke:#000000;stroke-width:0.5;" x="283.331519725" xlink:href="#m93b0483c22" y="345.6"/>
      </g>
     </g>
     <g id="line2d_10">
      <g>
       <use style="stroke:#000000;stroke-width:0.5;" x="283.331519725" xlink:href="#m741efc42ff" y="43.2"/>
      </g>
     </g>
     <g id="text_4">
      <!-- Oct 22 2015 -->
      <g transform="translate(218.74423299 394.065590385)rotate(-30.0)scale(0.12 -0.12)">
       <use xlink:href="#BitstreamVeraSans-Roman-4f"/>
       <use x="78.7109375" xlink:href="#BitstreamVeraSans-Roman-63"/>
       <use x="133.69140625" xlink:href="#BitstreamVeraSans-Roman-74"/>
       <use x="172.900390625" xlink:href="#BitstreamVeraSans-Roman-20"/>
       <use x="204.6875" xlink:href="#BitstreamVeraSans-Roman-32"/>
       <use x="268.310546875" xlink:href="#BitstreamVeraSans-Roman-32"/>
       <use x="331.93359375" xlink:href="#BitstreamVeraSans-Roman-20"/>
       <use x="363.720703125" xlink:href="#BitstreamVeraSans-Roman-32"/>
       <use x="427.34375" xlink:href="#BitstreamVeraSans-Roman-30"/>
       <use x="490.966796875" xlink:href="#BitstreamVeraSans-Roman-31"/>
       <use x="554.58984375" xlink:href="#BitstreamVeraSans-Roman-35"/>
      </g>
     </g>
    </g>
    <g id="xtick_5">
     <g id="line2d_11">
      <g>
       <use style="stroke:#000000;stroke-width:0.5;" x="338.461536877" xlink:href="#m93b0483c22" y="345.6"/>
      </g>
     </g>
     <g id="line2d_12">
      <g>
       <use style="stroke:#000000;stroke-width:0.5;" x="338.461536877" xlink:href="#m741efc42ff" y="43.2"/>
      </g>
     </g>
     <g id="text_5">
      <!-- Oct 25 2015 -->
      <g transform="translate(273.874250142 394.065590385)rotate(-30.0)scale(0.12 -0.12)">
       <use xlink:href="#BitstreamVeraSans-Roman-4f"/>
       <use x="78.7109375" xlink:href="#BitstreamVeraSans-Roman-63"/>
       <use x="133.69140625" xlink:href="#BitstreamVeraSans-Roman-74"/>
       <use x="172.900390625" xlink:href="#BitstreamVeraSans-Roman-20"/>
       <use x="204.6875" xlink:href="#BitstreamVeraSans-Roman-32"/>
       <use x="268.310546875" xlink:href="#BitstreamVeraSans-Roman-35"/>
       <use x="331.93359375" xlink:href="#BitstreamVeraSans-Roman-20"/>
       <use x="363.720703125" xlink:href="#BitstreamVeraSans-Roman-32"/>
       <use x="427.34375" xlink:href="#BitstreamVeraSans-Roman-30"/>
       <use x="490.966796875" xlink:href="#BitstreamVeraSans-Roman-31"/>
       <use x="554.58984375" xlink:href="#BitstreamVeraSans-Roman-35"/>
      </g>
     </g>
    </g>
    <g id="xtick_6">
     <g id="line2d_13">
      <g>
       <use style="stroke:#000000;stroke-width:0.5;" x="393.591554031" xlink:href="#m93b0483c22" y="345.6"/>
      </g>
     </g>
     <g id="line2d_14">
      <g>
       <use style="stroke:#000000;stroke-width:0.5;" x="393.591554031" xlink:href="#m741efc42ff" y="43.2"/>
      </g>
     </g>
     <g id="text_6">
      <!-- Oct 28 2015 -->
      <defs>
       <path d="
M31.7812 34.625
Q24.75 34.625 20.7188 30.8594
Q16.7031 27.0938 16.7031 20.5156
Q16.7031 13.9219 20.7188 10.1562
Q24.75 6.39062 31.7812 6.39062
Q38.8125 6.39062 42.8594 10.1719
Q46.9219 13.9688 46.9219 20.5156
Q46.9219 27.0938 42.8906 30.8594
Q38.875 34.625 31.7812 34.625
M21.9219 38.8125
Q15.5781 40.375 12.0312 44.7188
Q8.5 49.0781 8.5 55.3281
Q8.5 64.0625 14.7188 69.1406
Q20.9531 74.2188 31.7812 74.2188
Q42.6719 74.2188 48.875 69.1406
Q55.0781 64.0625 55.0781 55.3281
Q55.0781 49.0781 51.5312 44.7188
Q48 40.375 41.7031 38.8125
Q48.8281 37.1562 52.7969 32.3125
Q56.7812 27.4844 56.7812 20.5156
Q56.7812 9.90625 50.3125 4.23438
Q43.8438 -1.42188 31.7812 -1.42188
Q19.7344 -1.42188 13.25 4.23438
Q6.78125 9.90625 6.78125 20.5156
Q6.78125 27.4844 10.7812 32.3125
Q14.7969 37.1562 21.9219 38.8125
M18.3125 54.3906
Q18.3125 48.7344 21.8438 45.5625
Q25.3906 42.3906 31.7812 42.3906
Q38.1406 42.3906 41.7188 45.5625
Q45.3125 48.7344 45.3125 54.3906
Q45.3125 60.0625 41.7188 63.2344
Q38.1406 66.4062 31.7812 66.4062
Q25.3906 66.4062 21.8438 63.2344
Q18.3125 60.0625 18.3125 54.3906" id="BitstreamVeraSans-Roman-38"/>
      </defs>
      <g transform="translate(329.004267296 394.065590385)rotate(-30.0)scale(0.12 -0.12)">
       <use xlink:href="#BitstreamVeraSans-Roman-4f"/>
       <use x="78.7109375" xlink:href="#BitstreamVeraSans-Roman-63"/>
       <use x="133.69140625" xlink:href="#BitstreamVeraSans-Roman-74"/>
       <use x="172.900390625" xlink:href="#BitstreamVeraSans-Roman-20"/>
       <use x="204.6875" xlink:href="#BitstreamVeraSans-Roman-32"/>
       <use x="268.310546875" xlink:href="#BitstreamVeraSans-Roman-38"/>
       <use x="331.93359375" xlink:href="#BitstreamVeraSans-Roman-20"/>
       <use x="363.720703125" xlink:href="#BitstreamVeraSans-Roman-32"/>
       <use x="427.34375" xlink:href="#BitstreamVeraSans-Roman-30"/>
       <use x="490.966796875" xlink:href="#BitstreamVeraSans-Roman-31"/>
       <use x="554.58984375" xlink:href="#BitstreamVeraSans-Roman-35"/>
      </g>
     </g>
    </g>
    <g id="xtick_7">
     <g id="line2d_15">
      <g>
       <use style="stroke:#000000;stroke-width:0.5;" x="448.721571183" xlink:href="#m93b0483c22" y="345.6"/>
      </g>
     </g>
     <g id="line2d_16">
      <g>
       <use style="stroke:#000000;stroke-width:0.5;" x="448.721571183" xlink:href="#m741efc42ff" y="43.2"/>
      </g>
     </g>
     <g id="text_7">
      <!-- Oct 31 2015 -->
      <g transform="translate(384.134284448 394.065590385)rotate(-30.0)scale(0.12 -0.12)">
       <use xlink:href="#BitstreamVeraSans-Roman-4f"/>
       <use x="78.7109375" xlink:href="#BitstreamVeraSans-Roman-63"/>
       <use x="133.69140625" xlink:href="#BitstreamVeraSans-Roman-74"/>
       <use x="172.900390625" xlink:href="#BitstreamVeraSans-Roman-20"/>
       <use x="204.6875" xlink:href="#BitstreamVeraSans-Roman-33"/>
       <use x="268.310546875" xlink:href="#BitstreamVeraSans-Roman-31"/>
       <use x="331.93359375" xlink:href="#BitstreamVeraSans-Roman-20"/>
       <use x="363.720703125" xlink:href="#BitstreamVeraSans-Roman-32"/>
       <use x="427.34375" xlink:href="#BitstreamVeraSans-Roman-30"/>
       <use x="490.966796875" xlink:href="#BitstreamVeraSans-Roman-31"/>
       <use x="554.58984375" xlink:href="#BitstreamVeraSans-Roman-35"/>
      </g>
     </g>
    </g>
    <g id="xtick_8">
     <g id="line2d_17">
      <g>
       <use style="stroke:#000000;stroke-width:0.5;" x="503.851588335" xlink:href="#m93b0483c22" y="345.6"/>
      </g>
     </g>
     <g id="line2d_18">
      <g>
       <use style="stroke:#000000;stroke-width:0.5;" x="503.851588335" xlink:href="#m741efc42ff" y="43.2"/>
      </g>
     </g>
     <g id="text_8">
      <!-- Nov 03 2015 -->
      <defs>
       <path d="
M2.98438 54.6875
L12.5 54.6875
L29.5938 8.79688
L46.6875 54.6875
L56.2031 54.6875
L35.6875 0
L23.4844 0
z
" id="BitstreamVeraSans-Roman-76"/>
       <path d="
M9.8125 72.9062
L23.0938 72.9062
L55.4219 11.9219
L55.4219 72.9062
L64.9844 72.9062
L64.9844 0
L51.7031 0
L19.3906 60.9844
L19.3906 0
L9.8125 0
z
" id="BitstreamVeraSans-Roman-4e"/>
       <path d="
M30.6094 48.3906
Q23.3906 48.3906 19.1875 42.75
Q14.9844 37.1094 14.9844 27.2969
Q14.9844 17.4844 19.1562 11.8438
Q23.3438 6.20312 30.6094 6.20312
Q37.7969 6.20312 41.9844 11.8594
Q46.1875 17.5312 46.1875 27.2969
Q46.1875 37.0156 41.9844 42.7031
Q37.7969 48.3906 30.6094 48.3906
M30.6094 56
Q42.3281 56 49.0156 48.375
Q55.7188 40.7656 55.7188 27.2969
Q55.7188 13.875 49.0156 6.21875
Q42.3281 -1.42188 30.6094 -1.42188
Q18.8438 -1.42188 12.1719 6.21875
Q5.51562 13.875 5.51562 27.2969
Q5.51562 40.7656 12.1719 48.375
Q18.8438 56 30.6094 56" id="BitstreamVeraSans-Roman-6f"/>
      </defs>
      <g transform="translate(436.948766176 395.402465385)rotate(-30.0)scale(0.12 -0.12)">
       <use xlink:href="#BitstreamVeraSans-Roman-4e"/>
       <use x="74.8046875" xlink:href="#BitstreamVeraSans-Roman-6f"/>
       <use x="135.986328125" xlink:href="#BitstreamVeraSans-Roman-76"/>
       <use x="195.166015625" xlink:href="#BitstreamVeraSans-Roman-20"/>
       <use x="226.953125" xlink:href="#BitstreamVeraSans-Roman-30"/>
       <use x="290.576171875" xlink:href="#BitstreamVeraSans-Roman-33"/>
       <use x="354.19921875" xlink:href="#BitstreamVeraSans-Roman-20"/>
       <use x="385.986328125" xlink:href="#BitstreamVeraSans-Roman-32"/>
       <use x="449.609375" xlink:href="#BitstreamVeraSans-Roman-30"/>
       <use x="513.232421875" xlink:href="#BitstreamVeraSans-Roman-31"/>
       <use x="576.85546875" xlink:href="#BitstreamVeraSans-Roman-35"/>
      </g>
     </g>
    </g>
   </g>
   <g id="matplotlib.axis_2">
    <g id="ytick_1">
     <g id="line2d_19">
      <defs>
       <path d="
M0 0
L4 0" id="m728421d6d4" style="stroke:#000000;stroke-width:0.5;"/>
      </defs>
      <g>
       <use style="stroke:#000000;stroke-width:0.5;" x="72.0" xlink:href="#m728421d6d4" y="296.809448906"/>
      </g>
     </g>
     <g id="line2d_20">
      <defs>
       <path d="
M0 0
L-4 0" id="mcb0005524f" style="stroke:#000000;stroke-width:0.5;"/>
      </defs>
      <g>
       <use style="stroke:#000000;stroke-width:0.5;" x="518.4" xlink:href="#mcb0005524f" y="296.809448906"/>
      </g>
     </g>
     <g id="text_9">
      <!-- 20000 -->
      <g transform="translate(31.50125 300.120698906)scale(0.12 -0.12)">
       <use xlink:href="#BitstreamVeraSans-Roman-32"/>
       <use x="63.623046875" xlink:href="#BitstreamVeraSans-Roman-30"/>
       <use x="127.24609375" xlink:href="#BitstreamVeraSans-Roman-30"/>
       <use x="190.869140625" xlink:href="#BitstreamVeraSans-Roman-30"/>
       <use x="254.4921875" xlink:href="#BitstreamVeraSans-Roman-30"/>
      </g>
     </g>
    </g>
    <g id="ytick_2">
     <g id="line2d_21">
      <g>
       <use style="stroke:#000000;stroke-width:0.5;" x="72.0" xlink:href="#m728421d6d4" y="243.877932993"/>
      </g>
     </g>
     <g id="line2d_22">
      <g>
       <use style="stroke:#000000;stroke-width:0.5;" x="518.4" xlink:href="#mcb0005524f" y="243.877932993"/>
      </g>
     </g>
     <g id="text_10">
      <!-- 40000 -->
      <defs>
       <path d="
M37.7969 64.3125
L12.8906 25.3906
L37.7969 25.3906
z

M35.2031 72.9062
L47.6094 72.9062
L47.6094 25.3906
L58.0156 25.3906
L58.0156 17.1875
L47.6094 17.1875
L47.6094 0
L37.7969 0
L37.7969 17.1875
L4.89062 17.1875
L4.89062 26.7031
z
" id="BitstreamVeraSans-Roman-34"/>
      </defs>
      <g transform="translate(31.20875 247.189182993)scale(0.12 -0.12)">
       <use xlink:href="#BitstreamVeraSans-Roman-34"/>
       <use x="63.623046875" xlink:href="#BitstreamVeraSans-Roman-30"/>
       <use x="127.24609375" xlink:href="#BitstreamVeraSans-Roman-30"/>
       <use x="190.869140625" xlink:href="#BitstreamVeraSans-Roman-30"/>
       <use x="254.4921875" xlink:href="#BitstreamVeraSans-Roman-30"/>
      </g>
     </g>
    </g>
    <g id="ytick_3">
     <g id="line2d_23">
      <g>
       <use style="stroke:#000000;stroke-width:0.5;" x="72.0" xlink:href="#m728421d6d4" y="190.94641708"/>
      </g>
     </g>
     <g id="line2d_24">
      <g>
       <use style="stroke:#000000;stroke-width:0.5;" x="518.4" xlink:href="#mcb0005524f" y="190.94641708"/>
      </g>
     </g>
     <g id="text_11">
      <!-- 60000 -->
      <g transform="translate(31.46 194.25766708)scale(0.12 -0.12)">
       <use xlink:href="#BitstreamVeraSans-Roman-36"/>
       <use x="63.623046875" xlink:href="#BitstreamVeraSans-Roman-30"/>
       <use x="127.24609375" xlink:href="#BitstreamVeraSans-Roman-30"/>
       <use x="190.869140625" xlink:href="#BitstreamVeraSans-Roman-30"/>
       <use x="254.4921875" xlink:href="#BitstreamVeraSans-Roman-30"/>
      </g>
     </g>
    </g>
    <g id="ytick_4">
     <g id="line2d_25">
      <g>
       <use style="stroke:#000000;stroke-width:0.5;" x="72.0" xlink:href="#m728421d6d4" y="138.014901167"/>
      </g>
     </g>
     <g id="line2d_26">
      <g>
       <use style="stroke:#000000;stroke-width:0.5;" x="518.4" xlink:href="#mcb0005524f" y="138.014901167"/>
      </g>
     </g>
     <g id="text_12">
      <!-- 80000 -->
      <g transform="translate(31.435625 141.326151167)scale(0.12 -0.12)">
       <use xlink:href="#BitstreamVeraSans-Roman-38"/>
       <use x="63.623046875" xlink:href="#BitstreamVeraSans-Roman-30"/>
       <use x="127.24609375" xlink:href="#BitstreamVeraSans-Roman-30"/>
       <use x="190.869140625" xlink:href="#BitstreamVeraSans-Roman-30"/>
       <use x="254.4921875" xlink:href="#BitstreamVeraSans-Roman-30"/>
      </g>
     </g>
    </g>
    <g id="ytick_5">
     <g id="line2d_27">
      <g>
       <use style="stroke:#000000;stroke-width:0.5;" x="72.0" xlink:href="#m728421d6d4" y="85.083385254"/>
      </g>
     </g>
     <g id="line2d_28">
      <g>
       <use style="stroke:#000000;stroke-width:0.5;" x="518.4" xlink:href="#mcb0005524f" y="85.083385254"/>
      </g>
     </g>
     <g id="text_13">
      <!-- 100000 -->
      <g transform="translate(24.305 88.394635254)scale(0.12 -0.12)">
       <use xlink:href="#BitstreamVeraSans-Roman-31"/>
       <use x="63.623046875" xlink:href="#BitstreamVeraSans-Roman-30"/>
       <use x="127.24609375" xlink:href="#BitstreamVeraSans-Roman-30"/>
       <use x="190.869140625" xlink:href="#BitstreamVeraSans-Roman-30"/>
       <use x="254.4921875" xlink:href="#BitstreamVeraSans-Roman-30"/>
       <use x="318.115234375" xlink:href="#BitstreamVeraSans-Roman-30"/>
      </g>
     </g>
    </g>
   </g>
   <g id="text_14">
    <!-- Kupfermnzen -->
    <defs>
     <path d="
M37.1094 75.9844
L37.1094 68.5
L28.5156 68.5
Q23.6875 68.5 21.7969 66.5469
Q19.9219 64.5938 19.9219 59.5156
L19.9219 54.6875
L34.7188 54.6875
L34.7188 47.7031
L19.9219 47.7031
L19.9219 0
L10.8906 0
L10.8906 47.7031
L2.29688 47.7031
L2.29688 54.6875
L10.8906 54.6875
L10.8906 58.5
Q10.8906 67.625 15.1406 71.7969
Q19.3906 75.9844 28.6094 75.9844
z
" id="BitstreamVeraSans-Roman-66"/>
     <path d="
M9.8125 72.9062
L19.6719 72.9062
L19.6719 42.0938
L52.3906 72.9062
L65.0938 72.9062
L28.9062 38.9219
L67.6719 0
L54.6875 0
L19.6719 35.1094
L19.6719 0
L9.8125 0
z
" id="BitstreamVeraSans-Roman-4b"/>
     <path d="
M54.8906 33.0156
L54.8906 0
L45.9062 0
L45.9062 32.7188
Q45.9062 40.4844 42.875 44.3281
Q39.8438 48.1875 33.7969 48.1875
Q26.5156 48.1875 22.3125 43.5469
Q18.1094 38.9219 18.1094 30.9062
L18.1094 0
L9.07812 0
L9.07812 54.6875
L18.1094 54.6875
L18.1094 46.1875
Q21.3438 51.125 25.7031 53.5625
Q30.0781 56 35.7969 56
Q45.2188 56 50.0469 50.1719
Q54.8906 44.3438 54.8906 33.0156" id="BitstreamVeraSans-Roman-6e"/>
     <path d="
M52 44.1875
Q55.375 50.25 60.0625 53.125
Q64.75 56 71.0938 56
Q79.6406 56 84.2812 50.0156
Q88.9219 44.0469 88.9219 33.0156
L88.9219 0
L79.8906 0
L79.8906 32.7188
Q79.8906 40.5781 77.0938 44.375
Q74.3125 48.1875 68.6094 48.1875
Q61.625 48.1875 57.5625 43.5469
Q53.5156 38.9219 53.5156 30.9062
L53.5156 0
L44.4844 0
L44.4844 32.7188
Q44.4844 40.625 41.7031 44.4062
Q38.9219 48.1875 33.1094 48.1875
Q26.2188 48.1875 22.1562 43.5312
Q18.1094 38.875 18.1094 30.9062
L18.1094 0
L9.07812 0
L9.07812 54.6875
L18.1094 54.6875
L18.1094 46.1875
Q21.1875 51.2188 25.4844 53.6094
Q29.7812 56 35.6875 56
Q41.6562 56 45.8281 52.9688
Q50 49.9531 52 44.1875" id="BitstreamVeraSans-Roman-6d"/>
     <path d="
M5.51562 54.6875
L48.1875 54.6875
L48.1875 46.4844
L14.4062 7.17188
L48.1875 7.17188
L48.1875 0
L4.29688 0
L4.29688 8.20312
L38.0938 47.5156
L5.51562 47.5156
z
" id="BitstreamVeraSans-Roman-7a"/>
     <path d="
M8.5 21.5781
L8.5 54.6875
L17.4844 54.6875
L17.4844 21.9219
Q17.4844 14.1562 20.5 10.2656
Q23.5312 6.39062 29.5938 6.39062
Q36.8594 6.39062 41.0781 11.0312
Q45.3125 15.6719 45.3125 23.6875
L45.3125 54.6875
L54.2969 54.6875
L54.2969 0
L45.3125 0
L45.3125 8.40625
Q42.0469 3.42188 37.7188 1
Q33.4062 -1.42188 27.6875 -1.42188
Q18.2656 -1.42188 13.375 4.4375
Q8.5 10.2969 8.5 21.5781
M35.5938 75.7812
L45.5 75.7812
L45.5 65.9219
L35.5938 65.9219
z

M16.5 75.7812
L26.4062 75.7812
L26.4062 65.9219
L16.5 65.9219
z
" id="BitstreamVeraSans-Roman-fc"/>
     <path d="
M56.2031 29.5938
L56.2031 25.2031
L14.8906 25.2031
Q15.4844 15.9219 20.4844 11.0625
Q25.4844 6.20312 34.4219 6.20312
Q39.5938 6.20312 44.4531 7.46875
Q49.3125 8.73438 54.1094 11.2812
L54.1094 2.78125
Q49.2656 0.734375 44.1875 -0.34375
Q39.1094 -1.42188 33.8906 -1.42188
Q20.7969 -1.42188 13.1562 6.1875
Q5.51562 13.8125 5.51562 26.8125
Q5.51562 40.2344 12.7656 48.1094
Q20.0156 56 32.3281 56
Q43.3594 56 49.7812 48.8906
Q56.2031 41.7969 56.2031 29.5938
M47.2188 32.2344
Q47.125 39.5938 43.0938 43.9844
Q39.0625 48.3906 32.4219 48.3906
Q24.9062 48.3906 20.3906 44.1406
Q15.875 39.8906 15.1875 32.1719
z
" id="BitstreamVeraSans-Roman-65"/>
     <path d="
M8.5 21.5781
L8.5 54.6875
L17.4844 54.6875
L17.4844 21.9219
Q17.4844 14.1562 20.5 10.2656
Q23.5312 6.39062 29.5938 6.39062
Q36.8594 6.39062 41.0781 11.0312
Q45.3125 15.6719 45.3125 23.6875
L45.3125 54.6875
L54.2969 54.6875
L54.2969 0
L45.3125 0
L45.3125 8.40625
Q42.0469 3.42188 37.7188 1
Q33.4062 -1.42188 27.6875 -1.42188
Q18.2656 -1.42188 13.375 4.4375
Q8.5 10.2969 8.5 21.5781" id="BitstreamVeraSans-Roman-75"/>
     <path d="
M41.1094 46.2969
Q39.5938 47.1719 37.8125 47.5781
Q36.0312 48 33.8906 48
Q26.2656 48 22.1875 43.0469
Q18.1094 38.0938 18.1094 28.8125
L18.1094 0
L9.07812 0
L9.07812 54.6875
L18.1094 54.6875
L18.1094 46.1875
Q20.9531 51.1719 25.4844 53.5781
Q30.0312 56 36.5312 56
Q37.4531 56 38.5781 55.875
Q39.7031 55.7656 41.0625 55.5156
z
" id="BitstreamVeraSans-Roman-72"/>
     <path d="
M18.1094 8.20312
L18.1094 -20.7969
L9.07812 -20.7969
L9.07812 54.6875
L18.1094 54.6875
L18.1094 46.3906
Q20.9531 51.2656 25.2656 53.625
Q29.5938 56 35.5938 56
Q45.5625 56 51.7812 48.0938
Q58.0156 40.1875 58.0156 27.2969
Q58.0156 14.4062 51.7812 6.48438
Q45.5625 -1.42188 35.5938 -1.42188
Q29.5938 -1.42188 25.2656 0.953125
Q20.9531 3.32812 18.1094 8.20312
M48.6875 27.2969
Q48.6875 37.2031 44.6094 42.8438
Q40.5312 48.4844 33.4062 48.4844
Q26.2656 48.4844 22.1875 42.8438
Q18.1094 37.2031 18.1094 27.2969
Q18.1094 17.3906 22.1875 11.75
Q26.2656 6.10938 33.4062 6.10938
Q40.5312 6.10938 44.6094 11.75
Q48.6875 17.3906 48.6875 27.2969" id="BitstreamVeraSans-Roman-70"/>
    </defs>
    <g transform="translate(416.6235 38.2)scale(0.144 -0.144)">
     <use xlink:href="#BitstreamVeraSans-Roman-4b"/>
     <use x="60.576171875" xlink:href="#BitstreamVeraSans-Roman-75"/>
     <use x="123.955078125" xlink:href="#BitstreamVeraSans-Roman-70"/>
     <use x="187.431640625" xlink:href="#BitstreamVeraSans-Roman-66"/>
     <use x="222.63671875" xlink:href="#BitstreamVeraSans-Roman-65"/>
     <use x="284.16015625" xlink:href="#BitstreamVeraSans-Roman-72"/>
     <use x="323.5234375" xlink:href="#BitstreamVeraSans-Roman-6d"/>
     <use x="420.935546875" xlink:href="#BitstreamVeraSans-Roman-fc"/>
     <use x="484.314453125" xlink:href="#BitstreamVeraSans-Roman-6e"/>
     <use x="547.693359375" xlink:href="#BitstreamVeraSans-Roman-7a"/>
     <use x="600.18359375" xlink:href="#BitstreamVeraSans-Roman-65"/>
     <use x="661.70703125" xlink:href="#BitstreamVeraSans-Roman-6e"/>
    </g>
   </g>
   <g id="legend_1">
    <g id="patch_7">
     <path d="
M123.942 423.616
L466.458 423.616
L466.458 398.16
L123.942 398.16
z
" style="fill:#ffffff;stroke:#000000;stroke-linejoin:miter;"/>
    </g>
    <g id="line2d_29">
     <path d="
M134.022 409.822
L154.182 409.822" style="fill:none;stroke:#ff0000;stroke-linecap:square;"/>
    </g>
    <g id="line2d_30"/>
    <g id="text_15">
     <!-- Schwarzmarktpreis -->
     <defs>
      <path d="
M9.07812 75.9844
L18.1094 75.9844
L18.1094 31.1094
L44.9219 54.6875
L56.3906 54.6875
L27.3906 29.1094
L57.625 0
L45.9062 0
L18.1094 26.7031
L18.1094 0
L9.07812 0
z
" id="BitstreamVeraSans-Roman-6b"/>
      <path d="
M53.5156 70.5156
L53.5156 60.8906
Q47.9062 63.5781 42.9219 64.8906
Q37.9375 66.2188 33.2969 66.2188
Q25.25 66.2188 20.875 63.0938
Q16.5 59.9688 16.5 54.2031
Q16.5 49.3594 19.4062 46.8906
Q22.3125 44.4375 30.4219 42.9219
L36.375 41.7031
Q47.4062 39.5938 52.6562 34.2969
Q57.9062 29 57.9062 20.125
Q57.9062 9.51562 50.7969 4.04688
Q43.7031 -1.42188 29.9844 -1.42188
Q24.8125 -1.42188 18.9688 -0.25
Q13.1406 0.921875 6.89062 3.21875
L6.89062 13.375
Q12.8906 10.0156 18.6562 8.29688
Q24.4219 6.59375 29.9844 6.59375
Q38.4219 6.59375 43.0156 9.90625
Q47.6094 13.2344 47.6094 19.3906
Q47.6094 24.75 44.3125 27.7812
Q41.0156 30.8125 33.5 32.3281
L27.4844 33.5
Q16.4531 35.6875 11.5156 40.375
Q6.59375 45.0625 6.59375 53.4219
Q6.59375 63.0938 13.4062 68.6562
Q20.2188 74.2188 32.1719 74.2188
Q37.3125 74.2188 42.625 73.2812
Q47.9531 72.3594 53.5156 70.5156" id="BitstreamVeraSans-Roman-53"/>
      <path d="
M9.42188 54.6875
L18.4062 54.6875
L18.4062 0
L9.42188 0
z

M9.42188 75.9844
L18.4062 75.9844
L18.4062 64.5938
L9.42188 64.5938
z
" id="BitstreamVeraSans-Roman-69"/>
      <path d="
M54.8906 33.0156
L54.8906 0
L45.9062 0
L45.9062 32.7188
Q45.9062 40.4844 42.875 44.3281
Q39.8438 48.1875 33.7969 48.1875
Q26.5156 48.1875 22.3125 43.5469
Q18.1094 38.9219 18.1094 30.9062
L18.1094 0
L9.07812 0
L9.07812 75.9844
L18.1094 75.9844
L18.1094 46.1875
Q21.3438 51.125 25.7031 53.5625
Q30.0781 56 35.7969 56
Q45.2188 56 50.0469 50.1719
Q54.8906 44.3438 54.8906 33.0156" id="BitstreamVeraSans-Roman-68"/>
      <path d="
M4.20312 54.6875
L13.1875 54.6875
L24.4219 12.0156
L35.5938 54.6875
L46.1875 54.6875
L57.4219 12.0156
L68.6094 54.6875
L77.5938 54.6875
L63.2812 0
L52.6875 0
L40.9219 44.8281
L29.1094 0
L18.5 0
z
" id="BitstreamVeraSans-Roman-77"/>
      <path d="
M34.2812 27.4844
Q23.3906 27.4844 19.1875 25
Q14.9844 22.5156 14.9844 16.5
Q14.9844 11.7188 18.1406 8.90625
Q21.2969 6.10938 26.7031 6.10938
Q34.1875 6.10938 38.7031 11.4062
Q43.2188 16.7031 43.2188 25.4844
L43.2188 27.4844
z

M52.2031 31.2031
L52.2031 0
L43.2188 0
L43.2188 8.29688
Q40.1406 3.32812 35.5469 0.953125
Q30.9531 -1.42188 24.3125 -1.42188
Q15.9219 -1.42188 10.9531 3.29688
Q6 8.01562 6 15.9219
Q6 25.1406 12.1719 29.8281
Q18.3594 34.5156 30.6094 34.5156
L43.2188 34.5156
L43.2188 35.4062
Q43.2188 41.6094 39.1406 45
Q35.0625 48.3906 27.6875 48.3906
Q23 48.3906 18.5469 47.2656
Q14.1094 46.1406 10.0156 43.8906
L10.0156 52.2031
Q14.9375 54.1094 19.5781 55.0469
Q24.2188 56 28.6094 56
Q40.4844 56 46.3438 49.8438
Q52.2031 43.7031 52.2031 31.2031" id="BitstreamVeraSans-Roman-61"/>
      <path d="
M44.2812 53.0781
L44.2812 44.5781
Q40.4844 46.5312 36.375 47.5
Q32.2812 48.4844 27.875 48.4844
Q21.1875 48.4844 17.8438 46.4375
Q14.5 44.3906 14.5 40.2812
Q14.5 37.1562 16.8906 35.375
Q19.2812 33.5938 26.5156 31.9844
L29.5938 31.2969
Q39.1562 29.25 43.1875 25.5156
Q47.2188 21.7812 47.2188 15.0938
Q47.2188 7.46875 41.1875 3.01562
Q35.1562 -1.42188 24.6094 -1.42188
Q20.2188 -1.42188 15.4531 -0.5625
Q10.6875 0.296875 5.42188 2
L5.42188 11.2812
Q10.4062 8.6875 15.2344 7.39062
Q20.0625 6.10938 24.8125 6.10938
Q31.1562 6.10938 34.5625 8.28125
Q37.9844 10.4531 37.9844 14.4062
Q37.9844 18.0625 35.5156 20.0156
Q33.0625 21.9688 24.7031 23.7812
L21.5781 24.5156
Q13.2344 26.2656 9.51562 29.9062
Q5.8125 33.5469 5.8125 39.8906
Q5.8125 47.6094 11.2812 51.7969
Q16.75 56 26.8125 56
Q31.7812 56 36.1719 55.2656
Q40.5781 54.5469 44.2812 53.0781" id="BitstreamVeraSans-Roman-73"/>
     </defs>
     <g transform="translate(170.022375 414.86175)scale(0.144 -0.144)">
      <use xlink:href="#BitstreamVeraSans-Roman-53"/>
      <use x="63.4765625" xlink:href="#BitstreamVeraSans-Roman-63"/>
      <use x="118.45703125" xlink:href="#BitstreamVeraSans-Roman-68"/>
      <use x="181.8359375" xlink:href="#BitstreamVeraSans-Roman-77"/>
      <use x="263.623046875" xlink:href="#BitstreamVeraSans-Roman-61"/>
      <use x="324.90234375" xlink:href="#BitstreamVeraSans-Roman-72"/>
      <use x="366.015625" xlink:href="#BitstreamVeraSans-Roman-7a"/>
      <use x="418.505859375" xlink:href="#BitstreamVeraSans-Roman-6d"/>
      <use x="515.91796875" xlink:href="#BitstreamVeraSans-Roman-61"/>
      <use x="577.197265625" xlink:href="#BitstreamVeraSans-Roman-72"/>
      <use x="618.310546875" xlink:href="#BitstreamVeraSans-Roman-6b"/>
      <use x="676.220703125" xlink:href="#BitstreamVeraSans-Roman-74"/>
      <use x="715.4296875" xlink:href="#BitstreamVeraSans-Roman-70"/>
      <use x="778.90625" xlink:href="#BitstreamVeraSans-Roman-72"/>
      <use x="817.76953125" xlink:href="#BitstreamVeraSans-Roman-65"/>
      <use x="879.29296875" xlink:href="#BitstreamVeraSans-Roman-69"/>
      <use x="907.076171875" xlink:href="#BitstreamVeraSans-Roman-73"/>
     </g>
    </g>
    <g id="line2d_31">
     <path d="
M339.609 409.822
L359.769 409.822" style="fill:none;stroke:#008000;stroke-linecap:square;"/>
    </g>
    <g id="line2d_32"/>
    <g id="text_16">
     <!-- Normalpreis -->
     <defs>
      <path d="
M9.42188 75.9844
L18.4062 75.9844
L18.4062 0
L9.42188 0
z
" id="BitstreamVeraSans-Roman-6c"/>
     </defs>
     <g transform="translate(375.609375 414.86175)scale(0.144 -0.144)">
      <use xlink:href="#BitstreamVeraSans-Roman-4e"/>
      <use x="74.8046875" xlink:href="#BitstreamVeraSans-Roman-6f"/>
      <use x="135.986328125" xlink:href="#BitstreamVeraSans-Roman-72"/>
      <use x="175.349609375" xlink:href="#BitstreamVeraSans-Roman-6d"/>
      <use x="272.76171875" xlink:href="#BitstreamVeraSans-Roman-61"/>
      <use x="334.041015625" xlink:href="#BitstreamVeraSans-Roman-6c"/>
      <use x="361.82421875" xlink:href="#BitstreamVeraSans-Roman-70"/>
      <use x="425.30078125" xlink:href="#BitstreamVeraSans-Roman-72"/>
      <use x="464.1640625" xlink:href="#BitstreamVeraSans-Roman-65"/>
      <use x="525.6875" xlink:href="#BitstreamVeraSans-Roman-69"/>
      <use x="553.470703125" xlink:href="#BitstreamVeraSans-Roman-73"/>
     </g>
    </g>
   </g>
  </g>
 </g>
 <defs>
  <clipPath id="pcb2bf987bf">
   <rect height="302.4" width="446.4" x="72.0" y="43.2"/>
  </clipPath>
 </defs>
</svg>
