<?xml version="1.0" encoding="utf-8" standalone="no"?>
<!DOCTYPE svg PUBLIC "-//W3C//DTD SVG 1.1//EN"
  "http://www.w3.org/Graphics/SVG/1.1/DTD/svg11.dtd">
<!-- Created with matplotlib (http://matplotlib.org/) -->
<svg height="432pt" version="1.1" viewBox="0 0 576 432" width="576pt" xmlns="http://www.w3.org/2000/svg" xmlns:xlink="http://www.w3.org/1999/xlink">
 <defs>
  <style type="text/css">
*{stroke-linecap:butt;stroke-linejoin:round;}
  </style>
 </defs>
 <g id="figure_1">
  <g id="patch_1">
   <path d="
M0 432
L576 432
L576 0
L0 0
z
" style="fill:#ffffff;"/>
  </g>
  <g id="axes_1">
   <g id="patch_2">
    <path d="
M72 345.6
L518.4 345.6
L518.4 43.2
L72 43.2
z
" style="fill:#ffffff;"/>
   </g>
   <g id="line2d_1">
    <path clip-path="url(#pcb2bf987bf)" d="
M73.031 433
L73.1485 164.509
L73.2762 167.277
L73.3931 433
M74.1809 433
L74.2971 170.269
L74.3552 433
M75.1324 433
L75.1904 170.727
L75.3065 433
M76.4782 433
L76.5942 171.078
L76.6522 433
M78.7744 433
L78.8915 166.798
L79.0189 166.585
L79.1359 433
M80.492 433
L80.5503 168.672
L80.8055 168.342
L80.9331 165.255
L81.0506 433
M81.6404 433
L81.6988 167.331
L81.9542 168.097
L82.0125 433
M82.2202 433
L82.3371 167.693
L82.4645 161.848
L82.7197 164.776
L82.7785 433
M83.3673 433
L83.4854 162.167
L83.5445 433
M83.7508 433
L83.8683 164.829
L83.927 433
M84.1336 433
L84.2511 164.616
L84.3787 164.616
L84.6342 167.746
L84.8093 433
M85.0854 433
L85.1444 161.582
L85.3999 165.042
L85.5273 165.042
L85.6447 433
M86.0487 433
L86.1654 168.193
L86.2237 433
M87.3829 433
L87.4415 165.627
L87.5588 433
M89.6804 433
L89.7386 169.779
L89.8549 433
M91.4312 433
L91.7804 169.279
L91.8387 433
M92.2557 433
L92.5461 170.205
L92.6042 433
M94.1467 433
L94.2051 167.064
L94.8432 165.201
L94.9019 433
M99.1434 433
L99.4374 164.243
L99.7902 433
M100.668 433
L100.969 152.586
L101.33 433
M102.917 433
L103.266 170.397
L103.324 433
M104.447 433
L104.797 168.182
L105.147 433
M105.98 433
L106.329 169.726
L106.678 433
M107.93 433
L107.988 172.856
L108.277 433
M109.461 433
L109.519 172.632
L109.808 433
M113.005 433
L113.986 173.484
L114.389 433
M118.649 433
L118.707 168.076
L119.345 166.16
L119.697 433
M120.529 433
L120.877 170.812
L121.004 170.812
L121.643 163.605
L121.996 433
M126.713 433
L127.002 172.313
L127.64 172.313
L127.64 172.313
L127.698 433
M128.181 433
L128.534 163.924
L128.661 163.924
L129.299 167.49
L129.65 433
M131.25 433
L131.597 172.313
L131.944 433
M134.428 433
L134.659 171.301
L135.007 433
M138.901 433
L139.254 164.563
L139.312 433
M140.437 433
L140.785 170.588
L141.133 433
M145.448 433
L145.507 166.16
L145.8 433
M146.214 433
L146.272 169.481
L146.91 166.585
L147.038 169.886
L147.676 169.971
L148.442 172.802
L149.208 161.05
L149.335 163.977
L149.973 167.277
L150.739 167.693
L150.797 433
M151.924 433
L152.27 173.537
L152.616 433
M153.105 433
L153.164 168.289
L153.455 433
M155.749 433
L156.099 168.289
L156.449 433
M157.283 433
L157.63 171.206
L157.688 433
M169.579 433
L169.881 149.339
L170.647 173.484
L170.775 167.277
L171.067 433
M172.596 433
L172.944 170.577
L173.072 167.756
L173.71 168.715
L174.059 433
M177.244 433
L177.538 163.764
L177.891 433
M181.781 433
L182.132 166.585
L182.26 166.585
L182.898 163.977
L183.251 433
M183.733 433
L183.791 166.213
L184.43 168.204
L185.195 172.728
L185.961 169.939
L186.31 433
M187.909 433
L188.258 170.205
L188.607 433
M189.093 433
L189.151 170.098
L189.79 433
M193.267 433
L193.618 167.49
L193.968 433
M195.219 433
L195.277 170.567
L195.567 433
M196.333 433
L196.681 171.174
L198.212 171.514
L198.212 171.514
L198.56 433
M199.811 433
L200.509 169.726
L201.275 163.551
L202.806 172.079
L203.699 171.802
L203.989 433
M205.173 433
L205.231 169.726
L205.869 171.961
L205.927 433
M207.68 433
L207.911 173.026
L208.026 433
M209.709 433
L209.825 171.003
L210.173 433
M211.12 433
L211.356 162.221
L211.415 433
M211.808 433
L211.867 167.064
L212.122 167.054
L212.25 164.137
L212.505 164.126
L212.633 108.726
L212.888 161.209
L213.271 162.966
L213.33 433
M213.918 433
L214.036 162.913
L214.095 433
M214.686 433
L214.802 170.311
L214.86 433
M215.255 433
L215.313 173.761
L215.428 433
M216.403 433
L216.461 171.11
L216.589 171.11
L216.589 171.11
L216.705 433
M217.935 433
L217.992 172.068
L218.108 433
M220.812 433
L220.928 171.749
L220.986 433
M221.578 433
L221.693 174.612
L222.076 171.802
L222.204 168.395
L222.32 433
M222.529 433
L222.587 171.291
L222.842 168.395
L222.842 168.395
L223.017 433
M223.294 433
L223.352 168.885
L223.608 168.874
L223.666 433
M223.874 433
L223.99 168.342
L224.049 433
M224.639 433
L224.756 168.342
L224.814 433
M226.358 433
L226.415 174.868
L226.415 174.868
L226.415 174.868
L226.67 171.589
L226.728 433
M227.32 433
L227.436 170.737
L227.436 170.737
L227.436 170.737
L227.819 200.918
L227.873 433
M228.851 433
L228.967 169.832
L229.095 163.605
L229.35 166.532
L229.409 433
M229.803 433
L229.861 170.79
L230.499 170.79
L230.499 170.79
L230.673 433
M230.951 433
L231.009 171.749
L231.125 433
M231.913 433
L232.03 167.756
L232.158 170.631
L232.413 171.919
L232.541 171.919
L232.656 433
M232.865 433
L232.924 169.023
L233.04 433
M234.212 433
L234.327 173.558
L234.327 173.558
L234.327 173.558
L234.385 433
M234.594 433
L234.71 171.749
L234.768 433
M235.163 433
L235.221 174.591
L235.336 433
M235.743 433
L235.859 174.378
L235.859 174.378
L235.859 174.378
L235.916 433
M236.507 433
L236.624 165.521
L236.683 433
M237.274 433
L237.39 169.353
L237.448 433
M238.04 433
L238.156 172.494
L238.214 433
M238.805 433
L238.921 169.619
L239.049 172.387
L239.304 167.49
L239.363 433
M239.57 433
L239.687 166.745
L239.815 167.49
L240.07 164.616
L240.198 171.536
L240.453 169.566
L240.453 169.566
L240.511 433
M241.868 433
L241.984 170.258
L242.042 433
M242.635 433
L242.75 175.23
L242.807 433
M244.727 433
L244.792 110.643
L244.921 433
M245.313 433
L245.43 167.863
L245.488 433
M246.462 433
L246.578 170.737
L246.578 170.737
L246.578 170.737
L246.636 433
M247.797 433
L247.855 171.504
L248.028 433
M248.945 433
L249.003 166.319
L249.12 433
M249.908 433
L250.024 168.981
L250.152 171.855
L250.267 433
M250.674 433
L250.79 171.855
L250.848 433
M251.44 433
L251.555 172.366
L251.613 433
M254.688 433
L254.746 170.418
L254.746 170.418
L254.746 170.418
L254.862 433
M255.268 433
L255.384 173.345
L255.442 433
M255.836 433
L255.894 167.597
L256.07 433
M259.097 433
L259.212 174.963
L259.212 174.963
L259.212 174.963
L259.27 433
M259.479 433
L259.595 172.121
L259.595 172.121
L259.595 172.121
L259.723 175.655
L259.978 175.655
L260.035 433
M260.814 433
L260.871 173.026
L260.987 433
M266.173 433
L266.231 170.045
L266.347 433
M267.519 433
L267.635 170.365
L267.763 173.218
L268.018 170.365
L268.076 433
M268.284 433
L268.401 169.257
L268.459 433
M270.002 433
L270.06 171.269
L270.315 171.269
L270.373 433
M270.582 433
L270.698 172.44
L270.756 433
M270.966 433
L271.081 175.294
L271.253 433
M271.673 433
L271.846 173.218
L271.904 433
M272.299 433
L272.357 175.059
L272.472 433
M274.793 433
L274.909 172.6
L274.909 172.6
L274.909 172.6
L275.037 172.6
L275.152 433
M275.502 433
L275.675 173.846
L275.732 433
M276.893 433
L276.951 173.665
L277.206 172.6
L277.264 433
M277.841 433
L277.972 102.286
L277.972 102.286
L277.972 102.286
L278.099 174.218
L278.215 433
M279.005 433
L279.12 171.376
L279.248 174.218
L279.363 433
M279.572 433
L279.631 164.403
L279.886 177.455
L279.943 433
M280.154 433
L280.269 176.944
L280.269 176.944
L280.269 176.944
L280.397 174.623
L280.512 433
M280.721 433
L280.779 170.79
L280.896 433
M281.301 433
L281.417 170.79
L281.545 174.676
L281.66 433
M282.253 433
L282.311 174.357
L282.426 433
M282.636 433
L282.694 174.548
L282.809 433
M283.019 433
L283.077 174.484
L283.192 433
M284.167 433
L284.225 170.897
L284.341 433
M284.55 433
L284.608 173.665
L284.666 433
M285.513 433
L285.629 170.737
L285.687 433
M285.896 433
L286.012 173.612
L286.069 433
M286.28 433
L286.395 176.614
L286.452 433
M286.662 433
L286.777 173.931
L286.905 176.773
L287.16 173.931
L287.218 433
M287.613 433
L287.671 171.269
L287.787 433
M288.96 433
L289.074 177.327
L289.132 433
M289.725 433
L289.84 174.516
L289.968 174.516
L290.223 177.369
L290.28 433
M290.931 433
L290.989 177.71
L291.046 433
M291.639 433
L291.754 173.718
L292.137 174.942
L292.195 433
M292.406 433
L292.52 177.795
L292.52 177.795
L292.52 177.795
L292.577 433
M292.788 433
L292.903 174.325
L292.961 433
M293.739 433
L293.796 175.102
L294.051 174.335
L294.051 174.335
L294.179 175.102
L294.294 433
M294.703 433
L294.817 178.136
L294.817 178.136
L294.817 178.136
L294.945 178.093
L295.059 433
M295.27 433
L295.328 175.262
L295.443 433
M295.653 433
L295.71 175.687
L295.966 172.387
L296.349 175.741
L296.406 433
M296.802 433
L296.859 176.539
L296.974 433
M297.765 433
L297.88 176.858
L297.937 433
M298.913 433
L299.028 173.984
L299.086 433
M300.062 433
L300.177 175.474
L300.177 175.474
L300.177 175.474
L300.305 172.6
L300.42 433
M301.013 433
L301.07 172.834
L301.326 173.771
L301.383 433
M301.593 433
L301.708 173.771
L301.836 170.897
L302.091 172.387
L302.219 175.208
L302.474 172.387
L302.474 172.387
L302.648 433
M306.756 433
L306.813 175.017
L306.928 433
M308.67 433
L308.727 177.923
L308.842 433
M309.053 433
L309.11 175.102
L309.225 433
M309.435 433
L309.493 174.516
L309.748 177.476
L309.805 433
M310.201 433
L310.259 173.878
L310.514 177.497
L310.642 171.749
L310.757 433
M310.967 433
L311.024 174.623
L311.139 433
M312.694 433
L312.811 168.661
L312.869 433
M313.647 433
L313.704 172.6
L313.96 174.836
L314.017 433
M314.608 433
L314.725 166.852
L314.853 175.741
L315.108 178.594
L315.236 175.262
L315.351 433
M315.561 433
L315.619 171.855
L315.734 433
M316.594 433
L316.767 173.612
L316.882 433
M317.29 433
L317.405 176.486
L317.462 433
M317.673 433
L317.788 173.399
L317.846 433
M318.241 433
L318.298 174.367
L318.554 174.357
L318.554 174.357
L318.681 171.642
L318.937 168.768
L319.064 174.484
L319.447 174.463
L319.562 433
M320.736 433
L320.851 175.506
L320.851 175.506
L320.851 175.506
L321.023 433
M322.475 433
L322.765 170.258
L322.823 433
M323.983 433
L324.041 172.973
L324.157 433
M328.007 433
L328.125 164.616
L328.252 162.487
L328.371 433
M328.578 433
L328.635 176.89
L329.018 176.89
L329.133 433
M329.342 433
L329.401 161.901
L329.519 433
M330.305 433
L330.422 168.502
L330.48 433
M330.69 433
L330.805 174.25
L330.933 174.25
L331.048 433
M331.455 433
L331.57 174.836
L331.698 159.027
L331.817 433
M333.938 433
L333.995 177.763
L334.11 433
M334.321 433
L334.378 177.763
L334.492 433
M336.05 433
L336.165 177.795
L336.292 174.623
L336.548 177.795
L336.675 177.487
L336.79 433
M337.199 433
L337.313 177.433
L337.37 433
M337.582 433
L337.696 177.433
L337.824 176.944
L337.938 433
M338.149 433
L338.207 174.091
L338.322 433
M338.532 433
L338.589 173.718
L338.845 172.92
L338.972 172.92
L339.088 433
M340.261 433
L340.376 175.038
L340.504 175.038
L340.619 433
M342.175 433
L342.29 172.6
L342.348 433
M342.557 433
L342.673 170.365
L342.731 433
M343.126 433
L343.184 175.868
L343.439 170.365
L343.497 433
M343.891 433
L343.949 173.026
L344.065 433
M344.274 433
L344.332 173.345
L344.448 433
M345.806 433
L345.863 174.25
L345.979 433
M346.386 433
L346.502 174.25
L346.884 174.25
L346.884 174.25
L346.942 433
M347.151 433
L347.267 172.068
L347.395 169.183
L347.65 172.068
L347.778 175.677
L347.893 433
M348.298 433
L348.416 163.392
L348.543 175.496
L348.799 172.653
L348.926 172.653
L349.181 175.496
L349.309 169.779
L349.425 433
M349.833 433
L349.947 177.497
L350.075 177.518
L350.33 167.011
L350.458 177.518
L350.572 433
M351.931 433
L351.989 174.41
L352.104 433
M352.697 433
L352.755 173.612
L352.87 433
M353.08 433
L353.138 176.443
L353.252 433
M353.463 433
L353.52 173.984
L353.776 173.984
L353.776 173.984
L353.949 433
M354.611 433
L354.669 173.313
L354.784 433
M354.994 433
L355.052 172.653
L355.167 433
M355.575 433
L355.69 175.113
L355.747 433
M356.143 433
L356.2 175.113
L356.373 433
M356.723 433
L356.838 174.868
L356.966 174.868
L357.081 433
M358.252 433
L358.37 165.201
L358.37 165.201
L358.37 165.201
L358.497 170.939
L358.753 167.81
L358.88 171.323
L358.996 433
M359.205 433
L359.263 171.642
L359.379 433
M360.354 433
L360.412 174.516
L360.667 172.068
L360.725 433
M360.934 433
L361.05 172.068
L361.177 172.068
L361.293 433
M362.466 433
L362.581 175.804
L362.709 172.6
L362.824 433
M363.034 433
L363.092 175.783
L363.206 433
M363.417 433
L363.474 176.294
L363.73 173.452
L363.857 167.703
L363.974 433
M365.331 433
L365.389 172.6
L365.504 433
M365.911 433
L366.027 172.866
L366.027 172.866
L366.027 172.866
L366.085 433
M367.628 433
L367.686 175.783
L367.801 433
M368.011 433
L368.069 175.783
L368.183 433
M368.915 433
L369.09 170.737
L369.472 173.292
L369.53 433
M370.506 433
L370.621 173.505
L370.679 433
M373.948 433
L374.067 161.582
L374.126 433
M375.482 433
L375.598 171.429
L375.656 433
M376.246 433
L376.364 165.255
L376.422 433
M376.629 433
L376.746 165.255
L376.874 173.878
L376.989 433
M377.907 433
L378.023 170.897
L378.139 433
M378.928 433
L379.044 173.771
L379.101 433
M380.076 433
L380.192 171.908
L380.366 433
M382.374 433
L382.489 176.315
L382.617 176.315
L382.732 433
M382.942 433
L383 174.538
L383.115 433
M383.848 433
L384.021 174.538
L384.078 433
M384.473 433
L384.531 173.824
L384.786 173.824
L385.169 168.076
L385.297 170.95
L385.413 433
M385.622 433
L385.68 176.688
L385.794 433
M386.586 433
L386.701 176.752
L386.828 174.942
L387.083 174.729
L387.141 433
M388.538 433
L388.615 296.622
L388.742 284.379
L388.998 303.307
L389.38 287.403
L389.508 174.463
L389.763 285.114
L389.891 174.463
L390.146 285.114
L390.274 157.111
L390.529 285.124
L390.657 285.124
L390.912 287.403
L391.039 167.054
L391.295 287.403
L391.422 165.893
L391.678 167.054
L391.805 287.403
L392.06 165.893
L392.188 165.893
L392.443 168.927
L392.571 166.053
L392.826 289.702
L392.954 289.702
L393.209 167.81
L393.337 289.702
L393.719 153.012
L393.975 150.031
L394.102 150.031
L394.102 150.031
L394.485 147.902
L394.74 158.037
L394.868 158.037
L395.123 145.986
L395.251 147.008
L395.506 144.017
L395.634 170.716
L395.889 289.702
L396.016 152.64
L396.272 289.702
L396.399 155.61
L396.655 169.396
L396.782 289.702
L397.037 102.286
L397.165 102.286
L397.42 99.0389
L397.548 76.7364
L397.931 76.7364
L398.186 155.78
L398.314 155.78
L398.569 149.819
L398.696 289.702
L399.335 289.702
L399.462 167.171
L399.717 289.702
L399.845 289.702
L400.1 164.722
L400.228 289.702
L400.483 289.702
L400.611 167.597
L400.866 289.702
L400.993 289.702
L401.249 164.935
L401.376 289.702
L401.632 289.702
L401.759 119.266
L402.142 171.472
L402.397 289.702
L402.908 289.702
L403.163 162.487
L403.291 168.235
L403.546 289.702
L404.439 289.702
L404.694 171.152
L404.822 289.702
L406.609 289.702
L406.736 171.78
L406.991 289.702
L407.119 193.093
L407.374 289.702
L407.502 168.927
L407.757 289.702
L407.885 171.78
L408.14 289.702
L408.268 169.3
L408.523 289.702
L409.799 289.702
L410.054 167.863
L410.182 170.769
L410.437 167.863
L410.565 289.702
L410.948 289.702
L411.203 164.403
L411.33 167.81
L411.586 289.702
L411.713 166.106
L411.968 289.702
L412.096 289.702
L412.351 170.609
L412.479 289.702
L412.989 289.702
L413.245 167.65
L413.5 289.702
L414.01 289.702
L414.266 167.384
L414.393 167.384
L414.648 289.702
L415.031 289.702
L415.159 170.194
L415.414 289.702
L415.797 289.702
L415.925 167.703
L416.18 170.577
L416.307 289.702
L416.563 167.703
L416.69 289.702
L417.073 289.702
L417.328 165.766
L417.456 289.702
L420.391 289.702
L420.519 168.874
L420.902 289.702
L421.284 289.702
L421.54 169.034
L421.667 168.874
L421.922 289.702
L422.05 289.702
L422.305 165.361
L422.433 168.235
L422.688 168.235
L422.816 289.702
L423.199 289.702
L423.454 168.715
L423.581 289.702
L424.602 289.702
L424.73 169.939
L424.985 289.702
L425.496 289.702
L425.751 169.779
L425.879 289.702
L426.134 165.521
L426.192 433
M426.4 433
L426.517 168.406
L426.644 159.666
L426.899 168.406
L427.074 433
M427.353 433
L427.41 179.477
L427.665 177.029
L427.722 433
M428.118 433
L428.176 171.323
L428.292 433
M428.501 433
L428.558 176.06
L428.673 433
M429.65 433
L429.707 177.902
L429.821 433
M431.379 433
L431.494 178.04
L431.621 174.729
L431.736 433
M432.33 433
L432.387 178.04
L432.77 178.008
L432.884 433
M433.293 433
L433.408 175.262
L433.465 433
M434.244 433
L434.301 178.21
L434.556 178.21
L434.684 164.084
L434.939 175.368
L434.997 433
M436.356 433
L436.471 175.581
L436.598 174.57
L436.713 433
M438.072 433
L438.13 173.026
L438.385 175.9
L438.442 433
M438.653 433
L438.768 175.9
L438.895 175.9
L439.01 433
M439.603 433
L439.661 169.726
L439.916 179.403
L440.044 179.403
L440.158 433
M440.568 433
L440.682 179.573
L440.853 433
M442.169 433
L442.341 176.752
L442.596 179.403
L442.724 179.403
L442.838 433
M443.049 433
L443.107 173.771
L443.222 433
M443.433 433
L443.49 179.467
L443.604 433
M444.013 433
L444.128 177.071
L444.255 172.653
L444.371 433
M445.162 433
L445.276 177.444
L445.333 433
M445.87 433
L446.042 177.071
L446.169 177.391
L446.425 179.914
L446.482 433
M447.643 433
L447.701 176.007
L447.816 433
M448.026 433
L448.084 175.517
L448.199 433
M448.608 433
L448.722 178.828
L448.849 172.653
L449.105 178.349
L449.232 174.516
L449.487 174.516
L449.487 174.516
L449.615 177.391
L449.73 433
M450.52 433
L450.636 171.855
L450.764 177.561
L451.019 158.335
L451.078 433
M451.286 433
L451.402 170.205
L451.46 433
M451.669 433
L451.785 173.09
L451.912 174.357
L452.167 174.357
L452.225 433
M452.62 433
L452.678 174.357
L452.933 174.357
L452.991 433
M453.584 433
L453.699 176.795
L453.756 433
M455.115 433
L455.23 173.931
L455.288 433
M455.881 433
L455.996 176.805
L456.123 175.794
L456.238 433
M456.449 433
L456.506 176.614
L456.621 433
M457.214 433
L457.272 167.863
L457.527 176.858
L457.585 433
M457.98 433
L458.038 174.303
L458.293 174.303
L458.351 433
M458.944 433
L459.059 177.529
L459.116 433
M459.326 433
L459.442 174.676
L459.569 175.379
L459.684 433
M460.66 433
L460.718 175.102
L460.833 433
M462.389 433
L462.504 175.794
L462.632 175.794
L462.887 173.707
L462.945 433
M463.538 433
L463.653 176.166
L463.71 433
M463.922 433
L464.036 178.988
L464.093 433
M464.686 433
L464.801 173.718
L464.859 433
M466.02 433
L466.078 175.741
L466.333 178.604
L466.46 178.604
L466.716 172.43
L466.843 172.43
L467.098 169.566
L467.098 169.566
L467.226 169.566
L467.481 172.153
L467.655 433
M468.131 433
L468.247 172.153
L468.63 175.794
L469.013 175.741
L469.07 433
M469.28 433
L469.396 173.931
L469.523 178.572
L469.778 178.572
L469.835 433
M470.43 433
L470.544 178.87
L470.672 176.007
L471.055 176.007
L471.31 174.889
L471.437 172.015
L471.82 177.146
L471.935 433
M472.339 433
L472.458 155.855
L472.586 177.146
L472.841 175.9
L472.969 169.939
L473.224 167.001
L473.352 169.928
L473.468 433
M473.676 433
L473.734 169.726
L473.851 433
M474.06 433
L474.118 177.337
L474.373 177.337
L474.5 169.726
L474.616 433
M474.826 433
L474.883 177.87
L474.997 433
M475.407 433
L475.521 177.87
L475.649 174.623
L475.764 433
M476.172 433
L476.287 177.465
L476.414 176.805
L476.67 179.626
L476.797 176.805
L476.912 433
M477.506 433
L477.563 181.532
L477.676 433
M477.889 433
L477.946 177.976
L478.06 433
M478.271 433
L478.329 177.976
L478.443 433
M479.42 433
L479.477 181.117
L479.732 181.234
L479.789 433
M481.15 433
L481.264 181.542
L481.321 433
M482.1 433
L482.157 178.615
L482.271 433
M482.483 433
L482.54 178.615
L482.795 177.231
L482.852 433
M484.211 433
L484.327 174.623
L484.384 433
M484.594 433
L484.709 172.068
L484.837 176.326
L484.952 433
M485.162 433
L485.22 173.505
L485.335 433
M486.127 433
L486.241 179.062
L486.241 179.062
L486.241 179.062
L486.368 173.345
L486.624 173.824
L486.751 173.824
L486.867 433
M487.658 433
L487.772 178.934
L487.829 433
M488.04 433
L488.155 176.113
L488.212 433
M489.189 433
L489.304 176.007
L489.361 433
M489.757 433
L489.814 179.009
L490.069 176.166
L490.197 179.541
L490.452 176.699
L490.58 179.541
L490.835 173.824
L490.893 433
M491.867 433
L491.984 170.471
L492.366 180.382
L492.494 177.125
L492.749 177.125
L492.877 171.376
L493.132 179.967
L493.26 178.157
L493.374 433
M493.783 433
L493.898 175.315
L494.281 175.315
L494.408 180.105
L494.663 177.284
L494.791 172.653
L495.046 175.528
L495.174 169.779
L495.429 172.653
L495.487 433
M496.08 433
L496.195 175.687
L496.252 433
M496.648 433
L496.705 175.208
L496.82 433
M497.229 433
L497.343 176.007
L497.401 433
M497.797 433
L497.854 179.36
L497.968 433
M498.76 433
L498.875 176.646
L499.002 179.626
L499.258 182.181
L499.258 182.181
L499.385 178.349
L499.64 178.029
L499.698 433
M500.477 433
L500.534 179.946
L500.648 433
M500.86 433
L500.917 182.788
L501.03 433
M501.243 433
L501.299 182.852
L501.413 433
M502.206 433
L502.32 179.52
L502.377 433
M502.972 433
L503.086 179.147
L503.143 433
M504.504 433
L504.617 181.298
L504.674 433
M505.013 433
L505.128 175.102
L505.243 433
M506.603 433
L506.659 181.479
L506.773 433
M506.985 433
L507.042 178.881
L507.156 433
M507.949 433
L508.063 177.604
L508.191 177.604
L508.446 174.729
L508.574 171.855
L508.829 177.55
L509 433
M509.481 433
L509.595 182.788
L509.651 433
M509.864 433
L509.977 179.946
L510.36 180.595
L510.417 433
M510.814 433
L510.871 177.763
L511.126 179.786
L511.509 179.786
L511.566 433
M511.777 433
L511.892 175.954
L512.019 175.954
L512.134 433
M512.544 433
L512.657 183.161
L512.714 433
M513.309 433
L513.423 177.763
L513.48 433
M514.076 433
L514.189 183.512
L514.245 433
M514.459 433
L514.572 183.555
L514.699 175.794
L514.814 433
M515.025 433
L515.082 181.521
L515.337 178.668
L515.465 178.668
L515.579 433
M515.79 433
L515.848 170.524
L516.103 173.399
L516.231 170.524
L516.486 181.862
L516.613 181.862
L516.727 433
M517.138 433
L517.251 181.383
L517.308 433
M517.521 433
L517.634 181.862
L517.691 433
M518.087 433
L518.145 176.22
L518.259 433
L518.259 433" style="fill:none;stroke:#ff0000;stroke-linecap:square;"/>
   </g>
   <g id="line2d_2">
    <path clip-path="url(#pcb2bf987bf)" d="
M72 197.383
L72.1276 197.639
L73.5314 197.745
L73.659 196.116
L74.2971 196.116
L74.4247 198.182
L75.8285 198.224
L75.9561 198.522
L76.5942 198.522
L76.7218 195.914
L77.3599 195.914
L77.7429 198.203
L78.1256 198.203
L78.1256 198.203
L78.2532 197.192
L78.8915 197.192
L79.0189 197.011
L79.6569 197.011
L79.7846 196.233
L80.4226 196.233
L80.5503 195.722
L81.9542 195.68
L82.0816 195.297
L82.7197 195.297
L82.8473 192.806
L83.4854 192.806
L83.613 195.35
L84.2511 195.35
L84.3787 192.241
L85.017 192.241
L85.1444 195.552
L85.7825 195.552
L85.9101 195.776
L86.5482 195.776
L86.6758 196.074
L87.3139 196.074
L87.4415 197.117
L88.0796 197.117
L88.2072 197.734
L88.8453 197.734
L88.8453 197.734
L88.9729 197.298
L89.611 197.298
L89.7386 197.788
L90.3767 197.788
L91.0148 197.511
L91.9081 196.808
L92.6738 197.692
L93.3118 195.541
L94.0775 197.447
L94.2051 197.447
L94.8432 195.659
L94.9708 195.659
L95.6089 198.341
L95.7365 198.341
L96.3746 198.458
L97.1403 198.256
L98.0336 198.416
L98.7993 197.745
L99.4374 194.775
L100.203 189.378
L100.331 189.378
L100.969 197.436
L101.734 192.582
L101.862 192.582
L102.5 197.436
L104.032 198.256
L105.563 198.746
L106.329 199.97
L107.988 200.215
L108.626 200.215
L110.285 199.821
L111.05 199.161
L111.689 200.502
L111.816 200.502
L113.986 200.939
L114.879 198.299
L116.41 200.63
L117.048 199.949
L117.814 198.245
L117.942 198.245
L118.707 198.416
L119.345 196.595
L120.111 195.978
L120.877 198.267
L121.004 198.267
L121.643 194.168
L122.408 197.596
L122.536 197.596
L123.174 199.385
L124.067 199.97
L125.471 199.917
L126.237 199.502
L126.237 199.502
L126.365 199.502
L127.13 199.693
L127.13 199.693
L127.64 197.011
L127.64 197.011
L127.768 197.011
L128.661 197.223
L129.299 197.841
L130.065 199.64
L132.362 199.715
L132.362 199.715
L133.894 199.395
L134.149 198.735
L134.659 198.735
L135.425 198.426
L136.956 197.383
L137.722 197.724
L138.488 197.585
L140.019 198.054
L140.785 198.267
L141.551 196.17
L141.678 196.17
L142.316 198.937
L143.975 199.438
L144.613 199.587
L145.507 199.289
L146.145 197
L146.272 197
L146.91 200.13
L147.038 200.13
L147.676 197.468
L148.442 200.183
L149.208 194.541
L149.335 194.541
L149.973 200.353
L150.739 195.297
L150.867 195.297
L151.505 200.864
L152.27 198.629
L153.164 198.629
L153.802 194.669
L154.567 199.065
L155.333 198.384
L155.333 198.384
L156.099 195.871
L156.865 198.639
L157.758 198.639
L158.396 198.128
L159.162 197.788
L160.821 198.82
L162.224 193.806
L162.99 200.215
L163.118 200.215
L163.883 200.673
L164.649 200.545
L165.287 200.63
L166.053 198.086
L166.819 193.593
L167.584 201.077
L167.712 201.077
L168.35 201.588
L169.243 200.811
L169.881 200.811
L170.775 200.364
L171.413 187.28
L172.178 198.735
L173.072 198.107
L173.71 196.287
L174.603 197.192
L176.9 197.809
L177.538 197.82
L178.304 190.655
L179.07 198.001
L179.963 198.927
L181.367 198.927
L182.132 197
L182.26 197
L182.898 194.509
L183.664 199.587
L183.791 199.587
L184.43 195.786
L185.195 200.098
L185.961 200.183
L186.727 200.417
L187.492 200.257
L188.258 200.428
L189.151 200.311
L190.555 199.651
L191.321 198.565
L191.321 198.565
L192.852 197.873
L193.618 197.841
L194.384 196.904
L195.277 198.033
L195.915 195.84
L196.681 198.607
L198.212 198.937
L198.212 198.937
L198.978 199.789
L200.509 200.737
L201.275 196.883
L202.806 199.47
L203.572 201.939
L203.699 201.939
L204.338 199.991
L205.103 201.759
L205.231 201.759
L205.997 202.11
L206.124 202.025
L207.4 202.12
L207.911 200.375
L208.166 200.375
L208.804 201.269
L209.059 201.269
L209.059 201.269
L209.57 201.152
L209.825 201.152
L210.591 200.768
L210.846 198.363
L211.356 198.363
L211.484 197.458
L212.122 197.458
L212.25 195.35
L212.888 195.35
L213.271 193.551
L213.654 193.551
L213.654 193.551
L213.781 200.428
L214.419 200.428
L214.547 200.545
L215.185 200.545
L215.185 200.545
L215.313 201.077
L215.951 201.077
L215.951 201.077
L216.078 201.301
L217.482 201.354
L217.482 201.354
L217.61 202.195
L218.248 202.195
L218.248 202.195
L218.375 201.162
L219.013 201.162
L219.141 202.621
L219.779 202.621
L219.907 201.727
L220.545 201.727
L220.672 201.886
L220.672 201.886
L222.076 201.95
L222.204 198.725
L222.842 198.725
L222.842 198.725
L223.225 196.436
L223.608 196.436
L223.735 201.354
L225.139 201.386
L225.267 202.131
L225.905 202.131
L225.905 202.131
L226.032 201.727
L226.032 201.727
L226.67 201.727
L226.798 200.928
L227.436 200.928
L227.436 200.928
L227.819 191.017
L228.202 191.017
L228.329 200.151
L228.967 200.151
L229.095 196.957
L229.733 196.957
L229.861 200.971
L230.499 200.971
L230.499 200.971
L230.882 199.161
L231.264 199.161
L231.264 199.161
L231.392 200.843
L232.03 200.843
L232.158 199.321
L232.796 199.321
L232.796 199.321
L232.924 200.886
L233.562 200.886
L233.689 201.343
L234.327 201.343
L234.327 201.343
L234.455 201.865
L235.093 201.865
L235.093 201.865
L235.221 201.663
L235.859 201.663
L235.859 201.663
L235.986 198.714
L236.624 198.714
L236.752 199.597
L237.39 199.597
L237.518 202.621
L238.921 202.621
L239.049 195.105
L239.687 195.105
L239.815 199.8
L240.453 199.8
L240.453 199.8
L240.58 196.5
L241.219 196.5
L241.346 200.47
L241.984 200.47
L242.112 202.472
L242.75 202.472
L242.878 203.015
L243.516 203.015
L243.643 202.504
L244.281 202.504
L244.409 201.833
L245.047 201.833
L245.047 201.833
L245.175 200.939
L246.578 200.939
L246.578 200.939
L246.706 198.778
L247.344 198.778
L247.855 198.927
L248.237 199.438
L249.641 199.416
L249.641 199.416
L249.769 199.257
L250.407 199.257
L250.534 199.502
L251.173 199.502
L251.3 199.746
L252.704 199.842
L253.087 199.896
L253.47 199.896
L253.597 200.822
L254.235 200.822
L254.363 200.651
L255.767 200.683
L255.767 200.683
L255.894 200.854
L256.532 200.854
L256.66 201.003
L256.66 201.003
L257.298 201.003
L257.426 201.46
L258.064 201.46
L258.064 201.46
L258.447 202.259
L259.595 202.216
L259.595 202.216
L259.723 202.876
L260.361 202.876
L260.489 203.111
L261.127 203.111
L261.254 202.93
L261.892 202.93
L262.02 200.417
L262.658 200.417
L262.786 202.301
L263.424 202.301
L263.424 202.301
L263.551 201.343
L264.189 201.343
L264.189 201.343
L264.317 198.075
L264.955 198.075
L264.955 198.075
L265.083 200.438
L265.593 200.438
L265.848 200.257
L266.486 200.257
L266.614 200.545
L268.018 200.556
L268.145 196.787
L268.784 196.787
L268.911 200.949
L269.549 200.949
L269.677 201.439
L270.315 201.439
L270.443 202.536
L271.081 202.536
L271.463 200.556
L271.846 200.556
L271.974 202.312
L272.612 202.312
L272.74 202.961
L273.378 202.961
L273.378 202.961
L273.506 203.089
L274.143 203.089
L274.271 202.706
L274.909 202.706
L274.909 202.706
L275.037 201.152
L275.675 201.152
L275.802 203.707
L276.441 203.707
L276.568 204.175
L277.972 204.175
L277.972 204.175
L278.099 201.514
L278.738 201.514
L278.865 204.111
L279.503 204.111
L279.631 204.59
L280.269 204.59
L280.269 204.59
L280.397 200.981
L281.035 200.981
L281.035 200.981
L281.162 204.675
L281.801 204.675
L282.311 204.367
L282.566 204.367
L282.694 201.833
L283.332 201.833
L283.459 203.813
L284.097 203.813
L284.225 201.812
L284.736 201.812
L285.246 203.643
L285.629 203.643
L285.756 203.792
L286.395 203.792
L286.522 203.941
L287.16 203.941
L287.288 201.418
L287.926 201.418
L288.054 203.994
L288.692 203.994
L288.819 204.473
L290.223 204.516
L290.351 204.835
L290.989 204.835
L291.116 203.76
L291.754 203.76
L292.137 204.92
L292.52 204.92
L292.52 204.92
L292.648 201.62
L293.286 201.62
L293.286 201.62
L293.413 205.037
L294.051 205.037
L294.051 205.037
L294.179 205.335
L294.817 205.335
L294.817 205.335
L294.945 205.197
L295.583 205.197
L295.71 205.665
L296.349 205.665
L296.476 206.443
L297.114 206.443
L297.242 206.719
L297.88 206.719
L298.008 204.878
L298.646 204.878
L298.773 206.751
L299.411 206.751
L299.539 205.421
L300.177 205.421
L300.177 205.421
L300.305 200.194
L300.943 200.194
L301.07 203.813
L301.708 203.813
L301.836 202.493
L302.474 202.493
L302.474 202.493
L302.857 200.992
L303.112 200.992
L303.368 202.812
L304.005 202.812
L304.005 202.812
L304.133 201.397
L304.771 201.397
L304.899 203.962
L305.537 203.962
L305.664 202.27
L307.068 202.27
L307.068 202.27
L307.196 204.313
L307.834 204.313
L307.962 204.814
L308.6 204.814
L308.6 204.814
L308.727 205.037
L309.365 205.037
L309.493 204.612
L311.662 204.59
L311.79 204.803
L313.194 204.793
L313.321 202.685
L313.96 202.685
L314.087 204.846
L314.725 204.846
L314.853 205.676
L315.491 205.676
L315.619 204.718
L316.257 204.718
L316.384 203.675
L317.022 203.675
L317.15 203.441
L317.788 203.441
L317.916 201.652
L318.554 201.652
L318.554 201.652
L318.681 201.769
L319.319 201.769
L319.319 201.769
L319.447 202.312
L320.085 202.312
L320.213 202.738
L320.851 202.738
L320.851 202.738
L321.361 203.025
L322.127 202.94
L322.765 200.492
L323.148 200.492
L323.275 203.057
L324.679 203.057
L324.807 203.441
L326.976 203.483
L327.104 204.026
L328.508 204.058
L328.635 204.26
L330.805 204.26
L330.933 204.835
L331.57 204.835
L331.698 197.16
L332.336 197.16
L332.464 204.92
L336.165 204.92
L336.292 204.622
L337.696 204.569
L337.824 204.111
L338.462 204.111
L338.589 203.771
L339.227 203.771
L339.355 203.228
L339.866 203.228
L340.121 202.291
L340.504 202.291
L340.759 202.919
L340.886 202.727
L342.29 202.706
L342.418 200.598
L343.056 200.598
L343.184 203.079
L343.822 203.079
L343.822 203.079
L343.949 203.398
L344.588 203.398
L344.715 204.047
L345.353 204.047
L345.353 204.047
L345.481 204.282
L346.884 204.282
L346.884 204.282
L347.012 202.898
L347.65 202.898
L347.778 193.955
L348.416 193.955
L348.543 202.727
L349.181 202.727
L349.309 204.665
L349.947 204.665
L350.075 200.098
L350.713 200.098
L350.84 204.516
L351.224 204.516
L351.861 204.388
L352.244 204.388
L352.372 203.632
L353.01 203.632
L353.138 204.005
L353.776 204.005
L353.776 204.005
L354.158 200.651
L354.541 200.651
L354.669 202.759
L355.307 202.759
L355.307 202.759
L355.435 202.365
L356.073 202.365
L356.073 202.365
L356.2 202.131
L356.838 202.131
L356.966 199.438
L357.477 199.438
L357.732 198.405
L358.37 198.405
L358.37 198.405
L358.497 201.503
L359.136 201.503
L359.263 201.79
L359.901 201.79
L360.029 202.206
L361.433 202.195
L361.56 202.685
L362.198 202.685
L362.326 203.025
L362.964 203.025
L363.092 203.483
L363.73 203.483
L363.857 195.871
L364.495 195.871
L364.623 203.036
L366.027 202.94
L366.027 202.94
L366.155 202.493
L366.792 202.493
L366.92 203.004
L368.324 202.993
L368.451 200.939
L369.09 200.939
L369.472 203.355
L369.855 203.355
L369.983 203.536
L370.621 203.536
L370.749 203.898
L371.387 203.898
L371.514 203.366
L372.152 203.366
L372.28 203.036
L372.918 203.036
L373.046 203.153
L373.684 203.153
L373.684 203.153
L373.811 202.355
L375.215 202.355
L375.343 201.588
L375.981 201.588
L376.108 201.184
L378.278 201.088
L378.405 201.641
L379.809 201.748
L379.937 202.025
L381.341 202.099
L381.468 202.887
L382.107 202.887
L382.234 203.504
L382.872 203.504
L383 201.812
L383.638 201.812
L384.021 203.845
L385.935 203.866
L386.062 204.931
L386.701 204.931
L386.828 204.707
L387.466 204.707
L387.594 205.059
L388.232 205.059
L388.232 205.059
L388.36 324.449
L388.998 324.449
L389.125 204.473
L389.763 204.473
L389.891 187.994
L390.529 187.994
L390.657 194.69
L391.295 194.69
L391.422 196.34
L392.06 196.34
L392.188 196.468
L392.826 196.468
L392.954 198.171
L393.592 198.171
L393.719 186.099
L394.102 186.099
L394.102 186.099
L394.485 175.592
L395.123 175.592
L395.251 183.789
L395.889 183.789
L396.016 196.925
L396.655 196.925
L396.782 196.617
L397.42 196.617
L397.548 183.948
L398.186 183.948
L398.314 185.652
L398.952 185.652
L399.079 197.564
L399.717 197.564
L399.845 197.969
L400.483 197.969
L400.611 198.267
L401.249 198.267
L401.376 195.297
L402.014 195.297
L402.142 198.895
L402.78 198.895
L402.908 198.597
L405.077 198.586
L405.205 198.874
L406.609 198.895
L406.736 199.193
L407.374 199.193
L407.502 199.683
L408.906 199.587
L409.289 199.534
L409.671 199.534
L409.799 198.224
L410.437 198.224
L410.565 196.862
L411.203 196.862
L411.33 196.5
L411.968 196.5
L412.096 198.075
L413.5 198.001
L413.627 197.766
L415.797 197.841
L415.925 198.043
L416.563 198.043
L416.69 193.466
L417.328 193.466
L417.456 195.957
L418.094 195.957
L418.222 198.714
L418.86 198.714
L418.987 199.012
L419.625 199.012
L419.753 198.884
L420.391 198.884
L420.519 199.172
L421.157 199.172
L421.284 199.331
L421.922 199.331
L422.05 198.554
L422.688 198.554
L422.816 200.257
L423.454 200.257
L423.581 199.896
L424.22 199.896
L424.347 200.183
L424.985 200.183
L425.113 200.013
L425.751 200.013
L425.879 195.978
L426.517 195.978
L426.644 206.517
L427.282 206.517
L427.41 204.186
L428.048 204.186
L428.176 205.985
L428.814 205.985
L428.941 205.548
L429.579 205.548
L429.707 205.016
L430.345 205.016
L430.473 204.729
L430.983 204.729
L431.238 205.154
L432.642 205.208
L432.642 205.208
L432.77 202.525
L433.408 202.525
L433.536 205.101
L434.174 205.101
L434.301 205.314
L434.939 205.314
L435.067 205.154
L435.705 205.154
L435.833 205.527
L436.471 205.527
L436.598 204.686
L437.236 204.686
L437.364 206.272
L438.002 206.272
L438.13 205.814
L438.768 205.814
L438.895 199.97
L439.533 199.97
L439.661 206.453
L440.299 206.453
L440.299 206.453
L440.427 206.613
L441.831 206.709
L441.831 206.709
L441.958 206.453
L443.362 206.506
L443.49 206.932
L444.128 206.932
L444.255 205.846
L444.893 205.846
L445.021 207.262
L445.659 207.262
L446.169 206.932
L446.425 206.932
L446.552 206.198
L447.19 206.198
L447.318 205.91
L447.956 205.91
L448.084 205.453
L448.722 205.453
L448.849 204.537
L449.487 204.537
L449.487 204.537
L449.615 200.002
L450.126 200.002
L450.381 204.697
L451.019 204.697
L451.146 200.438
L451.785 200.438
L451.912 201.641
L452.55 201.641
L452.678 203.877
L454.082 203.962
L454.209 204.058
L455.613 203.973
L455.741 203.792
L456.379 203.792
L456.506 203.675
L457.144 203.675
L457.272 204.345
L458.676 204.313
L458.803 204.665
L459.442 204.665
L459.569 202.621
L460.207 202.621
L460.335 205.048
L460.973 205.048
L461.101 205.868
L461.739 205.868
L461.866 205.729
L462.504 205.729
L462.632 203.866
L463.27 203.866
L463.398 206.049
L464.036 206.049
L464.163 203.739
L464.801 203.739
L464.929 205.751
L466.333 205.687
L466.46 199.81
L467.098 199.81
L467.098 199.81
L467.226 199.544
L467.864 199.544
L467.992 205.74
L469.396 205.655
L469.523 201.13
L470.161 201.13
L470.289 205.942
L470.927 205.942
L471.055 202.152
L471.693 202.152
L471.82 204.303
L472.458 204.303
L472.586 205.836
L473.224 205.836
L473.352 199.97
L473.99 199.97
L474.118 207.188
L474.755 207.188
L474.883 207.699
L475.521 207.699
L475.649 204.601
L476.287 204.601
L476.414 206.666
L477.052 206.666
L477.18 208.476
L477.818 208.476
L477.946 207.795
L478.584 207.795
L478.711 208.125
L480.115 208.188
L480.243 208.508
L482.412 208.412
L482.54 207.092
L483.178 207.092
L483.306 207.326
L483.944 207.326
L484.071 204.942
L484.709 204.942
L484.837 203.526
L485.475 203.526
L485.858 206.123
L486.241 206.123
L486.241 206.123
L486.368 203.856
L487.007 203.856
L487.134 206.006
L489.304 206.081
L489.431 206.24
L490.069 206.24
L490.197 206.581
L490.835 206.581
L490.963 203.377
L491.601 203.377
L491.728 207.379
L492.366 207.379
L492.494 206.986
L493.132 206.986
L493.26 205.261
L493.898 205.261
L494.026 207.135
L494.663 207.135
L494.791 202.759
L495.429 202.759
L495.557 205.623
L496.195 205.623
L496.322 207.837
L496.961 207.837
L497.088 208.593
L497.726 208.593
L497.854 209.115
L498.492 209.115
L498.62 209.37
L499.258 209.37
L499.258 209.37
L499.385 208.125
L500.023 208.125
L500.151 209.668
L501.555 209.732
L501.682 209.264
L502.32 209.264
L502.448 208.88
L503.086 208.88
L503.214 208.423
L503.852 208.423
L503.979 208.252
L504.617 208.252
L504.873 208.444
L505.383 208.444
L505.511 208.274
L506.149 208.274
L506.277 208.423
L506.915 208.423
L507.042 208.636
L507.68 208.636
L507.808 207.411
L508.446 207.411
L508.574 204.686
L509.212 204.686
L509.339 209.668
L509.977 209.668
L510.36 207.582
L510.743 207.582
L510.871 209.519
L511.509 209.519
L511.636 205.857
L512.274 205.857
L512.402 210.03
L513.04 210.03
L513.168 210.36
L514.572 210.456
L514.699 208.465
L515.337 208.465
L515.465 203.472
L516.103 203.472
L516.231 208.795
L516.869 208.795
L516.996 210.999
L517.634 210.999
L517.762 208.817
L518.4 208.817
L518.4 208.817" style="fill:none;stroke:#008000;stroke-linecap:square;"/>
   </g>
   <g id="patch_3">
    <path d="
M72 43.2
L518.4 43.2" style="fill:none;stroke:#000000;stroke-linecap:square;stroke-linejoin:miter;"/>
   </g>
   <g id="patch_4">
    <path d="
M518.4 345.6
L518.4 43.2" style="fill:none;stroke:#000000;stroke-linecap:square;stroke-linejoin:miter;"/>
   </g>
   <g id="patch_5">
    <path d="
M72 345.6
L518.4 345.6" style="fill:none;stroke:#000000;stroke-linecap:square;stroke-linejoin:miter;"/>
   </g>
   <g id="patch_6">
    <path d="
M72 345.6
L72 43.2" style="fill:none;stroke:#000000;stroke-linecap:square;stroke-linejoin:miter;"/>
   </g>
   <g id="matplotlib.axis_1">
    <g id="xtick_1">
     <g id="line2d_3">
      <defs>
       <path d="
M0 0
L0 -4" id="m93b0483c22" style="stroke:#000000;stroke-width:0.5;"/>
      </defs>
      <g>
       <use style="stroke:#000000;stroke-width:0.5;" x="117.941468267" xlink:href="#m93b0483c22" y="345.6"/>
      </g>
     </g>
     <g id="line2d_4">
      <defs>
       <path d="
M0 0
L0 4" id="m741efc42ff" style="stroke:#000000;stroke-width:0.5;"/>
      </defs>
      <g>
       <use style="stroke:#000000;stroke-width:0.5;" x="117.941468267" xlink:href="#m741efc42ff" y="43.2"/>
      </g>
     </g>
     <g id="text_1">
      <!-- Oct 13 2015 -->
      <defs>
       <path d="
M19.1875 8.29688
L53.6094 8.29688
L53.6094 0
L7.32812 0
L7.32812 8.29688
Q12.9375 14.1094 22.625 23.8906
Q32.3281 33.6875 34.8125 36.5312
Q39.5469 41.8438 41.4219 45.5312
Q43.3125 49.2188 43.3125 52.7812
Q43.3125 58.5938 39.2344 62.25
Q35.1562 65.9219 28.6094 65.9219
Q23.9688 65.9219 18.8125 64.3125
Q13.6719 62.7031 7.8125 59.4219
L7.8125 69.3906
Q13.7656 71.7812 18.9375 73
Q24.125 74.2188 28.4219 74.2188
Q39.75 74.2188 46.4844 68.5469
Q53.2188 62.8906 53.2188 53.4219
Q53.2188 48.9219 51.5312 44.8906
Q49.8594 40.875 45.4062 35.4062
Q44.1875 33.9844 37.6406 27.2188
Q31.1094 20.4531 19.1875 8.29688" id="BitstreamVeraSans-Roman-32"/>
       <path d="
M39.4062 66.2188
Q28.6562 66.2188 22.3281 58.2031
Q16.0156 50.2031 16.0156 36.375
Q16.0156 22.6094 22.3281 14.5938
Q28.6562 6.59375 39.4062 6.59375
Q50.1406 6.59375 56.4219 14.5938
Q62.7031 22.6094 62.7031 36.375
Q62.7031 50.2031 56.4219 58.2031
Q50.1406 66.2188 39.4062 66.2188
M39.4062 74.2188
Q54.7344 74.2188 63.9062 63.9375
Q73.0938 53.6562 73.0938 36.375
Q73.0938 19.1406 63.9062 8.85938
Q54.7344 -1.42188 39.4062 -1.42188
Q24.0312 -1.42188 14.8125 8.82812
Q5.60938 19.0938 5.60938 36.375
Q5.60938 53.6562 14.8125 63.9375
Q24.0312 74.2188 39.4062 74.2188" id="BitstreamVeraSans-Roman-4f"/>
       <path d="
M31.7812 66.4062
Q24.1719 66.4062 20.3281 58.9062
Q16.5 51.4219 16.5 36.375
Q16.5 21.3906 20.3281 13.8906
Q24.1719 6.39062 31.7812 6.39062
Q39.4531 6.39062 43.2812 13.8906
Q47.125 21.3906 47.125 36.375
Q47.125 51.4219 43.2812 58.9062
Q39.4531 66.4062 31.7812 66.4062
M31.7812 74.2188
Q44.0469 74.2188 50.5156 64.5156
Q56.9844 54.8281 56.9844 36.375
Q56.9844 17.9688 50.5156 8.26562
Q44.0469 -1.42188 31.7812 -1.42188
Q19.5312 -1.42188 13.0625 8.26562
Q6.59375 17.9688 6.59375 36.375
Q6.59375 54.8281 13.0625 64.5156
Q19.5312 74.2188 31.7812 74.2188" id="BitstreamVeraSans-Roman-30"/>
       <path d="
M12.4062 8.29688
L28.5156 8.29688
L28.5156 63.9219
L10.9844 60.4062
L10.9844 69.3906
L28.4219 72.9062
L38.2812 72.9062
L38.2812 8.29688
L54.3906 8.29688
L54.3906 0
L12.4062 0
z
" id="BitstreamVeraSans-Roman-31"/>
       <path d="
M40.5781 39.3125
Q47.6562 37.7969 51.625 33
Q55.6094 28.2188 55.6094 21.1875
Q55.6094 10.4062 48.1875 4.48438
Q40.7656 -1.42188 27.0938 -1.42188
Q22.5156 -1.42188 17.6562 -0.515625
Q12.7969 0.390625 7.625 2.20312
L7.625 11.7188
Q11.7188 9.32812 16.5938 8.10938
Q21.4844 6.89062 26.8125 6.89062
Q36.0781 6.89062 40.9375 10.5469
Q45.7969 14.2031 45.7969 21.1875
Q45.7969 27.6406 41.2812 31.2656
Q36.7656 34.9062 28.7188 34.9062
L20.2188 34.9062
L20.2188 43.0156
L29.1094 43.0156
Q36.375 43.0156 40.2344 45.9219
Q44.0938 48.8281 44.0938 54.2969
Q44.0938 59.9062 40.1094 62.9062
Q36.1406 65.9219 28.7188 65.9219
Q24.6562 65.9219 20.0156 65.0312
Q15.375 64.1562 9.8125 62.3125
L9.8125 71.0938
Q15.4375 72.6562 20.3438 73.4375
Q25.25 74.2188 29.5938 74.2188
Q40.8281 74.2188 47.3594 69.1094
Q53.9062 64.0156 53.9062 55.3281
Q53.9062 49.2656 50.4375 45.0938
Q46.9688 40.9219 40.5781 39.3125" id="BitstreamVeraSans-Roman-33"/>
       <path id="BitstreamVeraSans-Roman-20"/>
       <path d="
M10.7969 72.9062
L49.5156 72.9062
L49.5156 64.5938
L19.8281 64.5938
L19.8281 46.7344
Q21.9688 47.4688 24.1094 47.8281
Q26.2656 48.1875 28.4219 48.1875
Q40.625 48.1875 47.75 41.5
Q54.8906 34.8125 54.8906 23.3906
Q54.8906 11.625 47.5625 5.09375
Q40.2344 -1.42188 26.9062 -1.42188
Q22.3125 -1.42188 17.5469 -0.640625
Q12.7969 0.140625 7.71875 1.70312
L7.71875 11.625
Q12.1094 9.23438 16.7969 8.0625
Q21.4844 6.89062 26.7031 6.89062
Q35.1562 6.89062 40.0781 11.3281
Q45.0156 15.7656 45.0156 23.3906
Q45.0156 31 40.0781 35.4375
Q35.1562 39.8906 26.7031 39.8906
Q22.75 39.8906 18.8125 39.0156
Q14.8906 38.1406 10.7969 36.2812
z
" id="BitstreamVeraSans-Roman-35"/>
       <path d="
M18.3125 70.2188
L18.3125 54.6875
L36.8125 54.6875
L36.8125 47.7031
L18.3125 47.7031
L18.3125 18.0156
Q18.3125 11.3281 20.1406 9.42188
Q21.9688 7.51562 27.5938 7.51562
L36.8125 7.51562
L36.8125 0
L27.5938 0
Q17.1875 0 13.2344 3.875
Q9.28125 7.76562 9.28125 18.0156
L9.28125 47.7031
L2.6875 47.7031
L2.6875 54.6875
L9.28125 54.6875
L9.28125 70.2188
z
" id="BitstreamVeraSans-Roman-74"/>
       <path d="
M48.7812 52.5938
L48.7812 44.1875
Q44.9688 46.2969 41.1406 47.3438
Q37.3125 48.3906 33.4062 48.3906
Q24.6562 48.3906 19.8125 42.8438
Q14.9844 37.3125 14.9844 27.2969
Q14.9844 17.2812 19.8125 11.7344
Q24.6562 6.20312 33.4062 6.20312
Q37.3125 6.20312 41.1406 7.25
Q44.9688 8.29688 48.7812 10.4062
L48.7812 2.09375
Q45.0156 0.34375 40.9844 -0.53125
Q36.9688 -1.42188 32.4219 -1.42188
Q20.0625 -1.42188 12.7812 6.34375
Q5.51562 14.1094 5.51562 27.2969
Q5.51562 40.6719 12.8594 48.3281
Q20.2188 56 33.0156 56
Q37.1562 56 41.1094 55.1406
Q45.0625 54.2969 48.7812 52.5938" id="BitstreamVeraSans-Roman-63"/>
      </defs>
      <g transform="translate(53.3541815316 394.065590385)rotate(-30.0)scale(0.12 -0.12)">
       <use xlink:href="#BitstreamVeraSans-Roman-4f"/>
       <use x="78.7109375" xlink:href="#BitstreamVeraSans-Roman-63"/>
       <use x="133.69140625" xlink:href="#BitstreamVeraSans-Roman-74"/>
       <use x="172.900390625" xlink:href="#BitstreamVeraSans-Roman-20"/>
       <use x="204.6875" xlink:href="#BitstreamVeraSans-Roman-31"/>
       <use x="268.310546875" xlink:href="#BitstreamVeraSans-Roman-33"/>
       <use x="331.93359375" xlink:href="#BitstreamVeraSans-Roman-20"/>
       <use x="363.720703125" xlink:href="#BitstreamVeraSans-Roman-32"/>
       <use x="427.34375" xlink:href="#BitstreamVeraSans-Roman-30"/>
       <use x="490.966796875" xlink:href="#BitstreamVeraSans-Roman-31"/>
       <use x="554.58984375" xlink:href="#BitstreamVeraSans-Roman-35"/>
      </g>
     </g>
    </g>
    <g id="xtick_2">
     <g id="line2d_5">
      <g>
       <use style="stroke:#000000;stroke-width:0.5;" x="173.071485419" xlink:href="#m93b0483c22" y="345.6"/>
      </g>
     </g>
     <g id="line2d_6">
      <g>
       <use style="stroke:#000000;stroke-width:0.5;" x="173.071485419" xlink:href="#m741efc42ff" y="43.2"/>
      </g>
     </g>
     <g id="text_2">
      <!-- Oct 16 2015 -->
      <defs>
       <path d="
M33.0156 40.375
Q26.375 40.375 22.4844 35.8281
Q18.6094 31.2969 18.6094 23.3906
Q18.6094 15.5312 22.4844 10.9531
Q26.375 6.39062 33.0156 6.39062
Q39.6562 6.39062 43.5312 10.9531
Q47.4062 15.5312 47.4062 23.3906
Q47.4062 31.2969 43.5312 35.8281
Q39.6562 40.375 33.0156 40.375
M52.5938 71.2969
L52.5938 62.3125
Q48.875 64.0625 45.0938 64.9844
Q41.3125 65.9219 37.5938 65.9219
Q27.8281 65.9219 22.6719 59.3281
Q17.5312 52.7344 16.7969 39.4062
Q19.6719 43.6562 24.0156 45.9219
Q28.375 48.1875 33.5938 48.1875
Q44.5781 48.1875 50.9531 41.5156
Q57.3281 34.8594 57.3281 23.3906
Q57.3281 12.1562 50.6875 5.35938
Q44.0469 -1.42188 33.0156 -1.42188
Q20.3594 -1.42188 13.6719 8.26562
Q6.98438 17.9688 6.98438 36.375
Q6.98438 53.6562 15.1875 63.9375
Q23.3906 74.2188 37.2031 74.2188
Q40.9219 74.2188 44.7031 73.4844
Q48.4844 72.75 52.5938 71.2969" id="BitstreamVeraSans-Roman-36"/>
      </defs>
      <g transform="translate(108.484198684 394.065590385)rotate(-30.0)scale(0.12 -0.12)">
       <use xlink:href="#BitstreamVeraSans-Roman-4f"/>
       <use x="78.7109375" xlink:href="#BitstreamVeraSans-Roman-63"/>
       <use x="133.69140625" xlink:href="#BitstreamVeraSans-Roman-74"/>
       <use x="172.900390625" xlink:href="#BitstreamVeraSans-Roman-20"/>
       <use x="204.6875" xlink:href="#BitstreamVeraSans-Roman-31"/>
       <use x="268.310546875" xlink:href="#BitstreamVeraSans-Roman-36"/>
       <use x="331.93359375" xlink:href="#BitstreamVeraSans-Roman-20"/>
       <use x="363.720703125" xlink:href="#BitstreamVeraSans-Roman-32"/>
       <use x="427.34375" xlink:href="#BitstreamVeraSans-Roman-30"/>
       <use x="490.966796875" xlink:href="#BitstreamVeraSans-Roman-31"/>
       <use x="554.58984375" xlink:href="#BitstreamVeraSans-Roman-35"/>
      </g>
     </g>
    </g>
    <g id="xtick_3">
     <g id="line2d_7">
      <g>
       <use style="stroke:#000000;stroke-width:0.5;" x="228.201502573" xlink:href="#m93b0483c22" y="345.6"/>
      </g>
     </g>
     <g id="line2d_8">
      <g>
       <use style="stroke:#000000;stroke-width:0.5;" x="228.201502573" xlink:href="#m741efc42ff" y="43.2"/>
      </g>
     </g>
     <g id="text_3">
      <!-- Oct 19 2015 -->
      <defs>
       <path d="
M10.9844 1.51562
L10.9844 10.5
Q14.7031 8.73438 18.5 7.8125
Q22.3125 6.89062 25.9844 6.89062
Q35.75 6.89062 40.8906 13.4531
Q46.0469 20.0156 46.7812 33.4062
Q43.9531 29.2031 39.5938 26.9531
Q35.25 24.7031 29.9844 24.7031
Q19.0469 24.7031 12.6719 31.3125
Q6.29688 37.9375 6.29688 49.4219
Q6.29688 60.6406 12.9375 67.4219
Q19.5781 74.2188 30.6094 74.2188
Q43.2656 74.2188 49.9219 64.5156
Q56.5938 54.8281 56.5938 36.375
Q56.5938 19.1406 48.4062 8.85938
Q40.2344 -1.42188 26.4219 -1.42188
Q22.7031 -1.42188 18.8906 -0.6875
Q15.0938 0.046875 10.9844 1.51562
M30.6094 32.4219
Q37.25 32.4219 41.125 36.9531
Q45.0156 41.5 45.0156 49.4219
Q45.0156 57.2812 41.125 61.8438
Q37.25 66.4062 30.6094 66.4062
Q23.9688 66.4062 20.0938 61.8438
Q16.2188 57.2812 16.2188 49.4219
Q16.2188 41.5 20.0938 36.9531
Q23.9688 32.4219 30.6094 32.4219" id="BitstreamVeraSans-Roman-39"/>
      </defs>
      <g transform="translate(163.614215838 394.065590385)rotate(-30.0)scale(0.12 -0.12)">
       <use xlink:href="#BitstreamVeraSans-Roman-4f"/>
       <use x="78.7109375" xlink:href="#BitstreamVeraSans-Roman-63"/>
       <use x="133.69140625" xlink:href="#BitstreamVeraSans-Roman-74"/>
       <use x="172.900390625" xlink:href="#BitstreamVeraSans-Roman-20"/>
       <use x="204.6875" xlink:href="#BitstreamVeraSans-Roman-31"/>
       <use x="268.310546875" xlink:href="#BitstreamVeraSans-Roman-39"/>
       <use x="331.93359375" xlink:href="#BitstreamVeraSans-Roman-20"/>
       <use x="363.720703125" xlink:href="#BitstreamVeraSans-Roman-32"/>
       <use x="427.34375" xlink:href="#BitstreamVeraSans-Roman-30"/>
       <use x="490.966796875" xlink:href="#BitstreamVeraSans-Roman-31"/>
       <use x="554.58984375" xlink:href="#BitstreamVeraSans-Roman-35"/>
      </g>
     </g>
    </g>
    <g id="xtick_4">
     <g id="line2d_9">
      <g>
       <use style="stroke:#000000;stroke-width:0.5;" x="283.331519725" xlink:href="#m93b0483c22" y="345.6"/>
      </g>
     </g>
     <g id="line2d_10">
      <g>
       <use style="stroke:#000000;stroke-width:0.5;" x="283.331519725" xlink:href="#m741efc42ff" y="43.2"/>
      </g>
     </g>
     <g id="text_4">
      <!-- Oct 22 2015 -->
      <g transform="translate(218.74423299 394.065590385)rotate(-30.0)scale(0.12 -0.12)">
       <use xlink:href="#BitstreamVeraSans-Roman-4f"/>
       <use x="78.7109375" xlink:href="#BitstreamVeraSans-Roman-63"/>
       <use x="133.69140625" xlink:href="#BitstreamVeraSans-Roman-74"/>
       <use x="172.900390625" xlink:href="#BitstreamVeraSans-Roman-20"/>
       <use x="204.6875" xlink:href="#BitstreamVeraSans-Roman-32"/>
       <use x="268.310546875" xlink:href="#BitstreamVeraSans-Roman-32"/>
       <use x="331.93359375" xlink:href="#BitstreamVeraSans-Roman-20"/>
       <use x="363.720703125" xlink:href="#BitstreamVeraSans-Roman-32"/>
       <use x="427.34375" xlink:href="#BitstreamVeraSans-Roman-30"/>
       <use x="490.966796875" xlink:href="#BitstreamVeraSans-Roman-31"/>
       <use x="554.58984375" xlink:href="#BitstreamVeraSans-Roman-35"/>
      </g>
     </g>
    </g>
    <g id="xtick_5">
     <g id="line2d_11">
      <g>
       <use style="stroke:#000000;stroke-width:0.5;" x="338.461536877" xlink:href="#m93b0483c22" y="345.6"/>
      </g>
     </g>
     <g id="line2d_12">
      <g>
       <use style="stroke:#000000;stroke-width:0.5;" x="338.461536877" xlink:href="#m741efc42ff" y="43.2"/>
      </g>
     </g>
     <g id="text_5">
      <!-- Oct 25 2015 -->
      <g transform="translate(273.874250142 394.065590385)rotate(-30.0)scale(0.12 -0.12)">
       <use xlink:href="#BitstreamVeraSans-Roman-4f"/>
       <use x="78.7109375" xlink:href="#BitstreamVeraSans-Roman-63"/>
       <use x="133.69140625" xlink:href="#BitstreamVeraSans-Roman-74"/>
       <use x="172.900390625" xlink:href="#BitstreamVeraSans-Roman-20"/>
       <use x="204.6875" xlink:href="#BitstreamVeraSans-Roman-32"/>
       <use x="268.310546875" xlink:href="#BitstreamVeraSans-Roman-35"/>
       <use x="331.93359375" xlink:href="#BitstreamVeraSans-Roman-20"/>
       <use x="363.720703125" xlink:href="#BitstreamVeraSans-Roman-32"/>
       <use x="427.34375" xlink:href="#BitstreamVeraSans-Roman-30"/>
       <use x="490.966796875" xlink:href="#BitstreamVeraSans-Roman-31"/>
       <use x="554.58984375" xlink:href="#BitstreamVeraSans-Roman-35"/>
      </g>
     </g>
    </g>
    <g id="xtick_6">
     <g id="line2d_13">
      <g>
       <use style="stroke:#000000;stroke-width:0.5;" x="393.591554031" xlink:href="#m93b0483c22" y="345.6"/>
      </g>
     </g>
     <g id="line2d_14">
      <g>
       <use style="stroke:#000000;stroke-width:0.5;" x="393.591554031" xlink:href="#m741efc42ff" y="43.2"/>
      </g>
     </g>
     <g id="text_6">
      <!-- Oct 28 2015 -->
      <defs>
       <path d="
M31.7812 34.625
Q24.75 34.625 20.7188 30.8594
Q16.7031 27.0938 16.7031 20.5156
Q16.7031 13.9219 20.7188 10.1562
Q24.75 6.39062 31.7812 6.39062
Q38.8125 6.39062 42.8594 10.1719
Q46.9219 13.9688 46.9219 20.5156
Q46.9219 27.0938 42.8906 30.8594
Q38.875 34.625 31.7812 34.625
M21.9219 38.8125
Q15.5781 40.375 12.0312 44.7188
Q8.5 49.0781 8.5 55.3281
Q8.5 64.0625 14.7188 69.1406
Q20.9531 74.2188 31.7812 74.2188
Q42.6719 74.2188 48.875 69.1406
Q55.0781 64.0625 55.0781 55.3281
Q55.0781 49.0781 51.5312 44.7188
Q48 40.375 41.7031 38.8125
Q48.8281 37.1562 52.7969 32.3125
Q56.7812 27.4844 56.7812 20.5156
Q56.7812 9.90625 50.3125 4.23438
Q43.8438 -1.42188 31.7812 -1.42188
Q19.7344 -1.42188 13.25 4.23438
Q6.78125 9.90625 6.78125 20.5156
Q6.78125 27.4844 10.7812 32.3125
Q14.7969 37.1562 21.9219 38.8125
M18.3125 54.3906
Q18.3125 48.7344 21.8438 45.5625
Q25.3906 42.3906 31.7812 42.3906
Q38.1406 42.3906 41.7188 45.5625
Q45.3125 48.7344 45.3125 54.3906
Q45.3125 60.0625 41.7188 63.2344
Q38.1406 66.4062 31.7812 66.4062
Q25.3906 66.4062 21.8438 63.2344
Q18.3125 60.0625 18.3125 54.3906" id="BitstreamVeraSans-Roman-38"/>
      </defs>
      <g transform="translate(329.004267296 394.065590385)rotate(-30.0)scale(0.12 -0.12)">
       <use xlink:href="#BitstreamVeraSans-Roman-4f"/>
       <use x="78.7109375" xlink:href="#BitstreamVeraSans-Roman-63"/>
       <use x="133.69140625" xlink:href="#BitstreamVeraSans-Roman-74"/>
       <use x="172.900390625" xlink:href="#BitstreamVeraSans-Roman-20"/>
       <use x="204.6875" xlink:href="#BitstreamVeraSans-Roman-32"/>
       <use x="268.310546875" xlink:href="#BitstreamVeraSans-Roman-38"/>
       <use x="331.93359375" xlink:href="#BitstreamVeraSans-Roman-20"/>
       <use x="363.720703125" xlink:href="#BitstreamVeraSans-Roman-32"/>
       <use x="427.34375" xlink:href="#BitstreamVeraSans-Roman-30"/>
       <use x="490.966796875" xlink:href="#BitstreamVeraSans-Roman-31"/>
       <use x="554.58984375" xlink:href="#BitstreamVeraSans-Roman-35"/>
      </g>
     </g>
    </g>
    <g id="xtick_7">
     <g id="line2d_15">
      <g>
       <use style="stroke:#000000;stroke-width:0.5;" x="448.721571183" xlink:href="#m93b0483c22" y="345.6"/>
      </g>
     </g>
     <g id="line2d_16">
      <g>
       <use style="stroke:#000000;stroke-width:0.5;" x="448.721571183" xlink:href="#m741efc42ff" y="43.2"/>
      </g>
     </g>
     <g id="text_7">
      <!-- Oct 31 2015 -->
      <g transform="translate(384.134284448 394.065590385)rotate(-30.0)scale(0.12 -0.12)">
       <use xlink:href="#BitstreamVeraSans-Roman-4f"/>
       <use x="78.7109375" xlink:href="#BitstreamVeraSans-Roman-63"/>
       <use x="133.69140625" xlink:href="#BitstreamVeraSans-Roman-74"/>
       <use x="172.900390625" xlink:href="#BitstreamVeraSans-Roman-20"/>
       <use x="204.6875" xlink:href="#BitstreamVeraSans-Roman-33"/>
       <use x="268.310546875" xlink:href="#BitstreamVeraSans-Roman-31"/>
       <use x="331.93359375" xlink:href="#BitstreamVeraSans-Roman-20"/>
       <use x="363.720703125" xlink:href="#BitstreamVeraSans-Roman-32"/>
       <use x="427.34375" xlink:href="#BitstreamVeraSans-Roman-30"/>
       <use x="490.966796875" xlink:href="#BitstreamVeraSans-Roman-31"/>
       <use x="554.58984375" xlink:href="#BitstreamVeraSans-Roman-35"/>
      </g>
     </g>
    </g>
    <g id="xtick_8">
     <g id="line2d_17">
      <g>
       <use style="stroke:#000000;stroke-width:0.5;" x="503.851588335" xlink:href="#m93b0483c22" y="345.6"/>
      </g>
     </g>
     <g id="line2d_18">
      <g>
       <use style="stroke:#000000;stroke-width:0.5;" x="503.851588335" xlink:href="#m741efc42ff" y="43.2"/>
      </g>
     </g>
     <g id="text_8">
      <!-- Nov 03 2015 -->
      <defs>
       <path d="
M2.98438 54.6875
L12.5 54.6875
L29.5938 8.79688
L46.6875 54.6875
L56.2031 54.6875
L35.6875 0
L23.4844 0
z
" id="BitstreamVeraSans-Roman-76"/>
       <path d="
M9.8125 72.9062
L23.0938 72.9062
L55.4219 11.9219
L55.4219 72.9062
L64.9844 72.9062
L64.9844 0
L51.7031 0
L19.3906 60.9844
L19.3906 0
L9.8125 0
z
" id="BitstreamVeraSans-Roman-4e"/>
       <path d="
M30.6094 48.3906
Q23.3906 48.3906 19.1875 42.75
Q14.9844 37.1094 14.9844 27.2969
Q14.9844 17.4844 19.1562 11.8438
Q23.3438 6.20312 30.6094 6.20312
Q37.7969 6.20312 41.9844 11.8594
Q46.1875 17.5312 46.1875 27.2969
Q46.1875 37.0156 41.9844 42.7031
Q37.7969 48.3906 30.6094 48.3906
M30.6094 56
Q42.3281 56 49.0156 48.375
Q55.7188 40.7656 55.7188 27.2969
Q55.7188 13.875 49.0156 6.21875
Q42.3281 -1.42188 30.6094 -1.42188
Q18.8438 -1.42188 12.1719 6.21875
Q5.51562 13.875 5.51562 27.2969
Q5.51562 40.7656 12.1719 48.375
Q18.8438 56 30.6094 56" id="BitstreamVeraSans-Roman-6f"/>
      </defs>
      <g transform="translate(436.948766176 395.402465385)rotate(-30.0)scale(0.12 -0.12)">
       <use xlink:href="#BitstreamVeraSans-Roman-4e"/>
       <use x="74.8046875" xlink:href="#BitstreamVeraSans-Roman-6f"/>
       <use x="135.986328125" xlink:href="#BitstreamVeraSans-Roman-76"/>
       <use x="195.166015625" xlink:href="#BitstreamVeraSans-Roman-20"/>
       <use x="226.953125" xlink:href="#BitstreamVeraSans-Roman-30"/>
       <use x="290.576171875" xlink:href="#BitstreamVeraSans-Roman-33"/>
       <use x="354.19921875" xlink:href="#BitstreamVeraSans-Roman-20"/>
       <use x="385.986328125" xlink:href="#BitstreamVeraSans-Roman-32"/>
       <use x="449.609375" xlink:href="#BitstreamVeraSans-Roman-30"/>
       <use x="513.232421875" xlink:href="#BitstreamVeraSans-Roman-31"/>
       <use x="576.85546875" xlink:href="#BitstreamVeraSans-Roman-35"/>
      </g>
     </g>
    </g>
   </g>
   <g id="matplotlib.axis_2">
    <g id="ytick_1">
     <g id="line2d_19">
      <defs>
       <path d="
M0 0
L4 0" id="m728421d6d4" style="stroke:#000000;stroke-width:0.5;"/>
      </defs>
      <g>
       <use style="stroke:#000000;stroke-width:0.5;" x="72.0" xlink:href="#m728421d6d4" y="321.638839613"/>
      </g>
     </g>
     <g id="line2d_20">
      <defs>
       <path d="
M0 0
L-4 0" id="mcb0005524f" style="stroke:#000000;stroke-width:0.5;"/>
      </defs>
      <g>
       <use style="stroke:#000000;stroke-width:0.5;" x="518.4" xlink:href="#mcb0005524f" y="321.638839613"/>
      </g>
     </g>
     <g id="text_9">
      <!-- 40000 -->
      <defs>
       <path d="
M37.7969 64.3125
L12.8906 25.3906
L37.7969 25.3906
z

M35.2031 72.9062
L47.6094 72.9062
L47.6094 25.3906
L58.0156 25.3906
L58.0156 17.1875
L47.6094 17.1875
L47.6094 0
L37.7969 0
L37.7969 17.1875
L4.89062 17.1875
L4.89062 26.7031
z
" id="BitstreamVeraSans-Roman-34"/>
      </defs>
      <g transform="translate(31.20875 324.950089613)scale(0.12 -0.12)">
       <use xlink:href="#BitstreamVeraSans-Roman-34"/>
       <use x="63.623046875" xlink:href="#BitstreamVeraSans-Roman-30"/>
       <use x="127.24609375" xlink:href="#BitstreamVeraSans-Roman-30"/>
       <use x="190.869140625" xlink:href="#BitstreamVeraSans-Roman-30"/>
       <use x="254.4921875" xlink:href="#BitstreamVeraSans-Roman-30"/>
      </g>
     </g>
    </g>
    <g id="ytick_2">
     <g id="line2d_21">
      <g>
       <use style="stroke:#000000;stroke-width:0.5;" x="72.0" xlink:href="#m728421d6d4" y="268.410742078"/>
      </g>
     </g>
     <g id="line2d_22">
      <g>
       <use style="stroke:#000000;stroke-width:0.5;" x="518.4" xlink:href="#mcb0005524f" y="268.410742078"/>
      </g>
     </g>
     <g id="text_10">
      <!-- 45000 -->
      <g transform="translate(31.20875 271.721992078)scale(0.12 -0.12)">
       <use xlink:href="#BitstreamVeraSans-Roman-34"/>
       <use x="63.623046875" xlink:href="#BitstreamVeraSans-Roman-35"/>
       <use x="127.24609375" xlink:href="#BitstreamVeraSans-Roman-30"/>
       <use x="190.869140625" xlink:href="#BitstreamVeraSans-Roman-30"/>
       <use x="254.4921875" xlink:href="#BitstreamVeraSans-Roman-30"/>
      </g>
     </g>
    </g>
    <g id="ytick_3">
     <g id="line2d_23">
      <g>
       <use style="stroke:#000000;stroke-width:0.5;" x="72.0" xlink:href="#m728421d6d4" y="215.182644542"/>
      </g>
     </g>
     <g id="line2d_24">
      <g>
       <use style="stroke:#000000;stroke-width:0.5;" x="518.4" xlink:href="#mcb0005524f" y="215.182644542"/>
      </g>
     </g>
     <g id="text_11">
      <!-- 50000 -->
      <g transform="translate(31.548125 218.493894542)scale(0.12 -0.12)">
       <use xlink:href="#BitstreamVeraSans-Roman-35"/>
       <use x="63.623046875" xlink:href="#BitstreamVeraSans-Roman-30"/>
       <use x="127.24609375" xlink:href="#BitstreamVeraSans-Roman-30"/>
       <use x="190.869140625" xlink:href="#BitstreamVeraSans-Roman-30"/>
       <use x="254.4921875" xlink:href="#BitstreamVeraSans-Roman-30"/>
      </g>
     </g>
    </g>
    <g id="ytick_4">
     <g id="line2d_25">
      <g>
       <use style="stroke:#000000;stroke-width:0.5;" x="72.0" xlink:href="#m728421d6d4" y="161.954547007"/>
      </g>
     </g>
     <g id="line2d_26">
      <g>
       <use style="stroke:#000000;stroke-width:0.5;" x="518.4" xlink:href="#mcb0005524f" y="161.954547007"/>
      </g>
     </g>
     <g id="text_12">
      <!-- 55000 -->
      <g transform="translate(31.548125 165.265797007)scale(0.12 -0.12)">
       <use xlink:href="#BitstreamVeraSans-Roman-35"/>
       <use x="63.623046875" xlink:href="#BitstreamVeraSans-Roman-35"/>
       <use x="127.24609375" xlink:href="#BitstreamVeraSans-Roman-30"/>
       <use x="190.869140625" xlink:href="#BitstreamVeraSans-Roman-30"/>
       <use x="254.4921875" xlink:href="#BitstreamVeraSans-Roman-30"/>
      </g>
     </g>
    </g>
    <g id="ytick_5">
     <g id="line2d_27">
      <g>
       <use style="stroke:#000000;stroke-width:0.5;" x="72.0" xlink:href="#m728421d6d4" y="108.726449471"/>
      </g>
     </g>
     <g id="line2d_28">
      <g>
       <use style="stroke:#000000;stroke-width:0.5;" x="518.4" xlink:href="#mcb0005524f" y="108.726449471"/>
      </g>
     </g>
     <g id="text_13">
      <!-- 60000 -->
      <g transform="translate(31.46 112.037699471)scale(0.12 -0.12)">
       <use xlink:href="#BitstreamVeraSans-Roman-36"/>
       <use x="63.623046875" xlink:href="#BitstreamVeraSans-Roman-30"/>
       <use x="127.24609375" xlink:href="#BitstreamVeraSans-Roman-30"/>
       <use x="190.869140625" xlink:href="#BitstreamVeraSans-Roman-30"/>
       <use x="254.4921875" xlink:href="#BitstreamVeraSans-Roman-30"/>
      </g>
     </g>
    </g>
    <g id="ytick_6">
     <g id="line2d_29">
      <g>
       <use style="stroke:#000000;stroke-width:0.5;" x="72.0" xlink:href="#m728421d6d4" y="55.4983519356"/>
      </g>
     </g>
     <g id="line2d_30">
      <g>
       <use style="stroke:#000000;stroke-width:0.5;" x="518.4" xlink:href="#mcb0005524f" y="55.4983519356"/>
      </g>
     </g>
     <g id="text_14">
      <!-- 65000 -->
      <g transform="translate(31.46 58.8096019356)scale(0.12 -0.12)">
       <use xlink:href="#BitstreamVeraSans-Roman-36"/>
       <use x="63.623046875" xlink:href="#BitstreamVeraSans-Roman-35"/>
       <use x="127.24609375" xlink:href="#BitstreamVeraSans-Roman-30"/>
       <use x="190.869140625" xlink:href="#BitstreamVeraSans-Roman-30"/>
       <use x="254.4921875" xlink:href="#BitstreamVeraSans-Roman-30"/>
      </g>
     </g>
    </g>
   </g>
   <g id="text_15">
    <!-- Kupfer -->
    <defs>
     <path d="
M37.1094 75.9844
L37.1094 68.5
L28.5156 68.5
Q23.6875 68.5 21.7969 66.5469
Q19.9219 64.5938 19.9219 59.5156
L19.9219 54.6875
L34.7188 54.6875
L34.7188 47.7031
L19.9219 47.7031
L19.9219 0
L10.8906 0
L10.8906 47.7031
L2.29688 47.7031
L2.29688 54.6875
L10.8906 54.6875
L10.8906 58.5
Q10.8906 67.625 15.1406 71.7969
Q19.3906 75.9844 28.6094 75.9844
z
" id="BitstreamVeraSans-Roman-66"/>
     <path d="
M9.8125 72.9062
L19.6719 72.9062
L19.6719 42.0938
L52.3906 72.9062
L65.0938 72.9062
L28.9062 38.9219
L67.6719 0
L54.6875 0
L19.6719 35.1094
L19.6719 0
L9.8125 0
z
" id="BitstreamVeraSans-Roman-4b"/>
     <path d="
M56.2031 29.5938
L56.2031 25.2031
L14.8906 25.2031
Q15.4844 15.9219 20.4844 11.0625
Q25.4844 6.20312 34.4219 6.20312
Q39.5938 6.20312 44.4531 7.46875
Q49.3125 8.73438 54.1094 11.2812
L54.1094 2.78125
Q49.2656 0.734375 44.1875 -0.34375
Q39.1094 -1.42188 33.8906 -1.42188
Q20.7969 -1.42188 13.1562 6.1875
Q5.51562 13.8125 5.51562 26.8125
Q5.51562 40.2344 12.7656 48.1094
Q20.0156 56 32.3281 56
Q43.3594 56 49.7812 48.8906
Q56.2031 41.7969 56.2031 29.5938
M47.2188 32.2344
Q47.125 39.5938 43.0938 43.9844
Q39.0625 48.3906 32.4219 48.3906
Q24.9062 48.3906 20.3906 44.1406
Q15.875 39.8906 15.1875 32.1719
z
" id="BitstreamVeraSans-Roman-65"/>
     <path d="
M8.5 21.5781
L8.5 54.6875
L17.4844 54.6875
L17.4844 21.9219
Q17.4844 14.1562 20.5 10.2656
Q23.5312 6.39062 29.5938 6.39062
Q36.8594 6.39062 41.0781 11.0312
Q45.3125 15.6719 45.3125 23.6875
L45.3125 54.6875
L54.2969 54.6875
L54.2969 0
L45.3125 0
L45.3125 8.40625
Q42.0469 3.42188 37.7188 1
Q33.4062 -1.42188 27.6875 -1.42188
Q18.2656 -1.42188 13.375 4.4375
Q8.5 10.2969 8.5 21.5781" id="BitstreamVeraSans-Roman-75"/>
     <path d="
M41.1094 46.2969
Q39.5938 47.1719 37.8125 47.5781
Q36.0312 48 33.8906 48
Q26.2656 48 22.1875 43.0469
Q18.1094 38.0938 18.1094 28.8125
L18.1094 0
L9.07812 0
L9.07812 54.6875
L18.1094 54.6875
L18.1094 46.1875
Q20.9531 51.1719 25.4844 53.5781
Q30.0312 56 36.5312 56
Q37.4531 56 38.5781 55.875
Q39.7031 55.7656 41.0625 55.5156
z
" id="BitstreamVeraSans-Roman-72"/>
     <path d="
M18.1094 8.20312
L18.1094 -20.7969
L9.07812 -20.7969
L9.07812 54.6875
L18.1094 54.6875
L18.1094 46.3906
Q20.9531 51.2656 25.2656 53.625
Q29.5938 56 35.5938 56
Q45.5625 56 51.7812 48.0938
Q58.0156 40.1875 58.0156 27.2969
Q58.0156 14.4062 51.7812 6.48438
Q45.5625 -1.42188 35.5938 -1.42188
Q29.5938 -1.42188 25.2656 0.953125
Q20.9531 3.32812 18.1094 8.20312
M48.6875 27.2969
Q48.6875 37.2031 44.6094 42.8438
Q40.5312 48.4844 33.4062 48.4844
Q26.2656 48.4844 22.1875 42.8438
Q18.1094 37.2031 18.1094 27.2969
Q18.1094 17.3906 22.1875 11.75
Q26.2656 6.10938 33.4062 6.10938
Q40.5312 6.10938 44.6094 11.75
Q48.6875 17.3906 48.6875 27.2969" id="BitstreamVeraSans-Roman-70"/>
    </defs>
    <g transform="translate(472.9725 38.2)scale(0.144 -0.144)">
     <use xlink:href="#BitstreamVeraSans-Roman-4b"/>
     <use x="60.576171875" xlink:href="#BitstreamVeraSans-Roman-75"/>
     <use x="123.955078125" xlink:href="#BitstreamVeraSans-Roman-70"/>
     <use x="187.431640625" xlink:href="#BitstreamVeraSans-Roman-66"/>
     <use x="222.63671875" xlink:href="#BitstreamVeraSans-Roman-65"/>
     <use x="284.16015625" xlink:href="#BitstreamVeraSans-Roman-72"/>
    </g>
   </g>
   <g id="legend_1">
    <g id="patch_7">
     <path d="
M123.942 423.616
L466.458 423.616
L466.458 398.16
L123.942 398.16
z
" style="fill:#ffffff;stroke:#000000;stroke-linejoin:miter;"/>
    </g>
    <g id="line2d_31">
     <path d="
M134.022 409.822
L154.182 409.822" style="fill:none;stroke:#ff0000;stroke-linecap:square;"/>
    </g>
    <g id="line2d_32"/>
    <g id="text_16">
     <!-- Schwarzmarktpreis -->
     <defs>
      <path d="
M52 44.1875
Q55.375 50.25 60.0625 53.125
Q64.75 56 71.0938 56
Q79.6406 56 84.2812 50.0156
Q88.9219 44.0469 88.9219 33.0156
L88.9219 0
L79.8906 0
L79.8906 32.7188
Q79.8906 40.5781 77.0938 44.375
Q74.3125 48.1875 68.6094 48.1875
Q61.625 48.1875 57.5625 43.5469
Q53.5156 38.9219 53.5156 30.9062
L53.5156 0
L44.4844 0
L44.4844 32.7188
Q44.4844 40.625 41.7031 44.4062
Q38.9219 48.1875 33.1094 48.1875
Q26.2188 48.1875 22.1562 43.5312
Q18.1094 38.875 18.1094 30.9062
L18.1094 0
L9.07812 0
L9.07812 54.6875
L18.1094 54.6875
L18.1094 46.1875
Q21.1875 51.2188 25.4844 53.6094
Q29.7812 56 35.6875 56
Q41.6562 56 45.8281 52.9688
Q50 49.9531 52 44.1875" id="BitstreamVeraSans-Roman-6d"/>
      <path d="
M5.51562 54.6875
L48.1875 54.6875
L48.1875 46.4844
L14.4062 7.17188
L48.1875 7.17188
L48.1875 0
L4.29688 0
L4.29688 8.20312
L38.0938 47.5156
L5.51562 47.5156
z
" id="BitstreamVeraSans-Roman-7a"/>
      <path d="
M53.5156 70.5156
L53.5156 60.8906
Q47.9062 63.5781 42.9219 64.8906
Q37.9375 66.2188 33.2969 66.2188
Q25.25 66.2188 20.875 63.0938
Q16.5 59.9688 16.5 54.2031
Q16.5 49.3594 19.4062 46.8906
Q22.3125 44.4375 30.4219 42.9219
L36.375 41.7031
Q47.4062 39.5938 52.6562 34.2969
Q57.9062 29 57.9062 20.125
Q57.9062 9.51562 50.7969 4.04688
Q43.7031 -1.42188 29.9844 -1.42188
Q24.8125 -1.42188 18.9688 -0.25
Q13.1406 0.921875 6.89062 3.21875
L6.89062 13.375
Q12.8906 10.0156 18.6562 8.29688
Q24.4219 6.59375 29.9844 6.59375
Q38.4219 6.59375 43.0156 9.90625
Q47.6094 13.2344 47.6094 19.3906
Q47.6094 24.75 44.3125 27.7812
Q41.0156 30.8125 33.5 32.3281
L27.4844 33.5
Q16.4531 35.6875 11.5156 40.375
Q6.59375 45.0625 6.59375 53.4219
Q6.59375 63.0938 13.4062 68.6562
Q20.2188 74.2188 32.1719 74.2188
Q37.3125 74.2188 42.625 73.2812
Q47.9531 72.3594 53.5156 70.5156" id="BitstreamVeraSans-Roman-53"/>
      <path d="
M9.42188 54.6875
L18.4062 54.6875
L18.4062 0
L9.42188 0
z

M9.42188 75.9844
L18.4062 75.9844
L18.4062 64.5938
L9.42188 64.5938
z
" id="BitstreamVeraSans-Roman-69"/>
      <path d="
M54.8906 33.0156
L54.8906 0
L45.9062 0
L45.9062 32.7188
Q45.9062 40.4844 42.875 44.3281
Q39.8438 48.1875 33.7969 48.1875
Q26.5156 48.1875 22.3125 43.5469
Q18.1094 38.9219 18.1094 30.9062
L18.1094 0
L9.07812 0
L9.07812 75.9844
L18.1094 75.9844
L18.1094 46.1875
Q21.3438 51.125 25.7031 53.5625
Q30.0781 56 35.7969 56
Q45.2188 56 50.0469 50.1719
Q54.8906 44.3438 54.8906 33.0156" id="BitstreamVeraSans-Roman-68"/>
      <path d="
M4.20312 54.6875
L13.1875 54.6875
L24.4219 12.0156
L35.5938 54.6875
L46.1875 54.6875
L57.4219 12.0156
L68.6094 54.6875
L77.5938 54.6875
L63.2812 0
L52.6875 0
L40.9219 44.8281
L29.1094 0
L18.5 0
z
" id="BitstreamVeraSans-Roman-77"/>
      <path d="
M9.07812 75.9844
L18.1094 75.9844
L18.1094 31.1094
L44.9219 54.6875
L56.3906 54.6875
L27.3906 29.1094
L57.625 0
L45.9062 0
L18.1094 26.7031
L18.1094 0
L9.07812 0
z
" id="BitstreamVeraSans-Roman-6b"/>
      <path d="
M34.2812 27.4844
Q23.3906 27.4844 19.1875 25
Q14.9844 22.5156 14.9844 16.5
Q14.9844 11.7188 18.1406 8.90625
Q21.2969 6.10938 26.7031 6.10938
Q34.1875 6.10938 38.7031 11.4062
Q43.2188 16.7031 43.2188 25.4844
L43.2188 27.4844
z

M52.2031 31.2031
L52.2031 0
L43.2188 0
L43.2188 8.29688
Q40.1406 3.32812 35.5469 0.953125
Q30.9531 -1.42188 24.3125 -1.42188
Q15.9219 -1.42188 10.9531 3.29688
Q6 8.01562 6 15.9219
Q6 25.1406 12.1719 29.8281
Q18.3594 34.5156 30.6094 34.5156
L43.2188 34.5156
L43.2188 35.4062
Q43.2188 41.6094 39.1406 45
Q35.0625 48.3906 27.6875 48.3906
Q23 48.3906 18.5469 47.2656
Q14.1094 46.1406 10.0156 43.8906
L10.0156 52.2031
Q14.9375 54.1094 19.5781 55.0469
Q24.2188 56 28.6094 56
Q40.4844 56 46.3438 49.8438
Q52.2031 43.7031 52.2031 31.2031" id="BitstreamVeraSans-Roman-61"/>
      <path d="
M44.2812 53.0781
L44.2812 44.5781
Q40.4844 46.5312 36.375 47.5
Q32.2812 48.4844 27.875 48.4844
Q21.1875 48.4844 17.8438 46.4375
Q14.5 44.3906 14.5 40.2812
Q14.5 37.1562 16.8906 35.375
Q19.2812 33.5938 26.5156 31.9844
L29.5938 31.2969
Q39.1562 29.25 43.1875 25.5156
Q47.2188 21.7812 47.2188 15.0938
Q47.2188 7.46875 41.1875 3.01562
Q35.1562 -1.42188 24.6094 -1.42188
Q20.2188 -1.42188 15.4531 -0.5625
Q10.6875 0.296875 5.42188 2
L5.42188 11.2812
Q10.4062 8.6875 15.2344 7.39062
Q20.0625 6.10938 24.8125 6.10938
Q31.1562 6.10938 34.5625 8.28125
Q37.9844 10.4531 37.9844 14.4062
Q37.9844 18.0625 35.5156 20.0156
Q33.0625 21.9688 24.7031 23.7812
L21.5781 24.5156
Q13.2344 26.2656 9.51562 29.9062
Q5.8125 33.5469 5.8125 39.8906
Q5.8125 47.6094 11.2812 51.7969
Q16.75 56 26.8125 56
Q31.7812 56 36.1719 55.2656
Q40.5781 54.5469 44.2812 53.0781" id="BitstreamVeraSans-Roman-73"/>
     </defs>
     <g transform="translate(170.022375 414.86175)scale(0.144 -0.144)">
      <use xlink:href="#BitstreamVeraSans-Roman-53"/>
      <use x="63.4765625" xlink:href="#BitstreamVeraSans-Roman-63"/>
      <use x="118.45703125" xlink:href="#BitstreamVeraSans-Roman-68"/>
      <use x="181.8359375" xlink:href="#BitstreamVeraSans-Roman-77"/>
      <use x="263.623046875" xlink:href="#BitstreamVeraSans-Roman-61"/>
      <use x="324.90234375" xlink:href="#BitstreamVeraSans-Roman-72"/>
      <use x="366.015625" xlink:href="#BitstreamVeraSans-Roman-7a"/>
      <use x="418.505859375" xlink:href="#BitstreamVeraSans-Roman-6d"/>
      <use x="515.91796875" xlink:href="#BitstreamVeraSans-Roman-61"/>
      <use x="577.197265625" xlink:href="#BitstreamVeraSans-Roman-72"/>
      <use x="618.310546875" xlink:href="#BitstreamVeraSans-Roman-6b"/>
      <use x="676.220703125" xlink:href="#BitstreamVeraSans-Roman-74"/>
      <use x="715.4296875" xlink:href="#BitstreamVeraSans-Roman-70"/>
      <use x="778.90625" xlink:href="#BitstreamVeraSans-Roman-72"/>
      <use x="817.76953125" xlink:href="#BitstreamVeraSans-Roman-65"/>
      <use x="879.29296875" xlink:href="#BitstreamVeraSans-Roman-69"/>
      <use x="907.076171875" xlink:href="#BitstreamVeraSans-Roman-73"/>
     </g>
    </g>
    <g id="line2d_33">
     <path d="
M339.609 409.822
L359.769 409.822" style="fill:none;stroke:#008000;stroke-linecap:square;"/>
    </g>
    <g id="line2d_34"/>
    <g id="text_17">
     <!-- Normalpreis -->
     <defs>
      <path d="
M9.42188 75.9844
L18.4062 75.9844
L18.4062 0
L9.42188 0
z
" id="BitstreamVeraSans-Roman-6c"/>
     </defs>
     <g transform="translate(375.609375 414.86175)scale(0.144 -0.144)">
      <use xlink:href="#BitstreamVeraSans-Roman-4e"/>
      <use x="74.8046875" xlink:href="#BitstreamVeraSans-Roman-6f"/>
      <use x="135.986328125" xlink:href="#BitstreamVeraSans-Roman-72"/>
      <use x="175.349609375" xlink:href="#BitstreamVeraSans-Roman-6d"/>
      <use x="272.76171875" xlink:href="#BitstreamVeraSans-Roman-61"/>
      <use x="334.041015625" xlink:href="#BitstreamVeraSans-Roman-6c"/>
      <use x="361.82421875" xlink:href="#BitstreamVeraSans-Roman-70"/>
      <use x="425.30078125" xlink:href="#BitstreamVeraSans-Roman-72"/>
      <use x="464.1640625" xlink:href="#BitstreamVeraSans-Roman-65"/>
      <use x="525.6875" xlink:href="#BitstreamVeraSans-Roman-69"/>
      <use x="553.470703125" xlink:href="#BitstreamVeraSans-Roman-73"/>
     </g>
    </g>
   </g>
  </g>
 </g>
 <defs>
  <clipPath id="pcb2bf987bf">
   <rect height="302.4" width="446.4" x="72.0" y="43.2"/>
  </clipPath>
 </defs>
</svg>
