<?xml version="1.0" encoding="utf-8" standalone="no"?>
<!DOCTYPE svg PUBLIC "-//W3C//DTD SVG 1.1//EN"
  "http://www.w3.org/Graphics/SVG/1.1/DTD/svg11.dtd">
<!-- Created with matplotlib (http://matplotlib.org/) -->
<svg height="432pt" version="1.1" viewBox="0 0 576 432" width="576pt" xmlns="http://www.w3.org/2000/svg" xmlns:xlink="http://www.w3.org/1999/xlink">
 <defs>
  <style type="text/css">
*{stroke-linecap:butt;stroke-linejoin:round;}
  </style>
 </defs>
 <g id="figure_1">
  <g id="patch_1">
   <path d="
M0 432
L576 432
L576 0
L0 0
z
" style="fill:#ffffff;"/>
  </g>
  <g id="axes_1">
   <g id="patch_2">
    <path d="
M72 345.6
L518.4 345.6
L518.4 43.2
L72 43.2
z
" style="fill:#ffffff;"/>
   </g>
   <g id="line2d_1">
    <path clip-path="url(#pcb2bf987bf)" d="
M72 181.594
L72.1276 186.788
L72.3828 187.595
L72.5105 187.595
L72.7657 189.479
L72.8933 188.672
L73.1485 189.479
L73.2762 190.286
L73.5314 188.672
L73.659 188.672
L73.9142 185.415
L74.0419 185.415
L74.2971 184.581
L74.4247 183.747
L75.0628 183.747
L75.1904 182.078
L75.4456 172.444
L75.5732 173.332
L75.8285 162.487
L75.9561 179.253
L76.2113 179.522
L76.3389 176.077
L76.5942 176.938
L76.7218 176.077
L76.9772 179.522
L77.3599 177.799
L77.7429 177.799
L77.8703 176.077
L78.1256 175.216
L78.1256 175.216
L78.2532 174.328
L78.5084 176.077
L78.636 175.216
L78.8915 177.794
L79.0189 176.938
L79.2741 183.747
L79.4017 182.078
L79.6569 182.078
L79.7846 197.553
L80.0398 197.176
L80.1674 195.938
L80.8055 193.274
L80.9331 193.247
L81.1885 192.493
L81.5712 189.484
L81.6988 188.672
L81.9542 184.581
L82.0816 186.25
L82.4645 186.25
L82.8473 188.672
L83.1026 191.713
L83.2302 190.905
L83.4854 188.483
L83.613 188.483
L83.8683 187.676
L83.9959 186.061
L84.2511 186.061
L84.3787 188.483
L84.6342 189.533
L85.017 188.72
L85.1444 184.097
L85.3999 181.594
L85.7825 181.594
L85.9101 180.329
L86.293 180.329
L86.5482 181.594
L86.6758 180.76
L86.931 180.76
L87.0587 179.899
L87.3139 179.899
L87.4415 187.918
L87.8244 178.359
L88.0796 179.226
L88.2072 179.226
L88.4624 186.304
L88.5901 186.304
L88.8453 178.714
L88.8453 178.714
L88.9729 183.263
L89.3557 183.263
L89.611 180.733
L89.7386 180.727
L89.9938 182.428
L89.9938 182.428
L90.3767 182.428
L91.0148 177.315
L91.7804 173.494
L91.9081 170.829
L93.3118 172.606
L94.0775 174.705
L94.2051 177.315
L94.8432 172.928
L94.9708 174.705
L95.7365 186.223
L96.3746 187.046
L97.1403 173.44
L97.906 175.216
L98.0336 179.522
L98.6717 176.292
L98.7993 178.876
L99.4374 180.383
L100.331 180.356
L100.969 179.495
L101.734 166.927
L101.862 167.842
L102.5 167.842
L103.393 166.927
L104.032 167.842
L104.797 194.054
L105.563 194.054
L106.329 193.381
L107.095 190.959
L107.86 194.054
L111.05 194.054
L111.816 193.139
L113.986 186.653
L114.879 185.442
L116.283 187.488
L116.41 186.68
L117.048 185.846
L117.814 183.128
L117.942 183.128
L118.58 189.479
L118.707 188.672
L120.111 188.672
L121.004 189.479
L121.643 186.788
L122.408 184.097
L122.536 184.097
L123.174 187.057
L124.705 188.726
L126.237 181.276
L126.237 181.276
L126.365 181.276
L127.13 177.853
L127.13 177.853
L127.768 189.479
L128.534 188.241
L128.661 184.124
L129.299 188.241
L130.065 187.757
L130.193 189.479
L130.831 189.075
L131.597 185.819
L132.362 178.93
L132.362 178.93
L133.894 190.152
L134.149 190.152
L134.659 188.672
L135.425 187.03
L136.191 180.787
L136.318 183.284
L136.956 179.064
L137.722 176.481
L138.488 181.459
L139.254 178.903
L139.381 178.903
L140.019 176.319
L140.785 181.459
L141.551 180.625
L141.678 182.294
L142.316 188.564
L143.082 193.866
L143.848 188.214
L143.975 194.673
L146.145 194.592
L146.272 191.471
L146.91 184.124
L147.038 184.124
L147.676 189.016
L148.442 184.958
L149.208 175.62
L149.335 176.47
L149.973 170.264
L150.739 174.705
L150.867 173.817
L151.505 179.253
L152.27 184.118
L153.036 187.434
L153.164 186.626
L153.802 188.241
L154.567 187.434
L155.333 188.833
L155.333 188.833
L156.099 186.788
L156.865 186.788
L157.758 183.263
L158.396 185.119
L159.162 183.451
L159.927 178.714
L160.693 183.451
L160.821 180.948
L162.224 181.782
L162.99 187.864
L163.118 187.057
L163.756 196.18
L163.883 194.619
L164.521 192.52
L164.649 192.52
L165.287 191.094
L166.053 185.362
L166.819 183.693
L167.712 176.023
L168.35 179.71
L169.116 181.19
L169.243 161.626
L169.881 188.403
L170.647 188.672
L170.775 190.286
L171.413 189.479
L172.178 193.274
L172.944 194.861
L173.072 197.741
L173.71 199.248
L174.603 199.248
L176.007 158.369
L176.773 187.864
L176.9 187.864
L177.538 186.25
L178.304 189.479
L179.07 177.799
L179.835 194.592
L179.963 192.251
L180.601 190.663
L180.729 191.465
L181.367 189.049
L182.132 190.636
L182.26 189.479
L182.898 191.982
L183.664 190.367
L183.791 191.175
L184.43 190.663
L185.195 186.626
L185.961 186.519
L186.727 184.016
L187.492 188.672
L188.258 189.856
L189.024 178.23
L189.151 178.23
L190.555 189.829
L191.321 188.214
L191.321 188.214
L192.852 191.471
L193.618 190.663
L194.384 189.049
L195.149 188.241
L195.277 185.792
L195.915 179.925
L196.681 189.049
L198.212 189.856
L198.978 189.049
L200.509 186.626
L201.275 184.953
L202.04 181.621
L202.806 182.455
L203.572 180.787
L203.699 180.787
L204.338 185.146
L205.103 185.146
L205.231 185.981
L205.869 186.788
L205.997 185.981
L206.124 186.777
L206.762 186.788
L207.4 188.645
L207.911 190.582
L208.166 187.353
L208.804 188.968
L209.059 188.968
L209.059 188.968
L209.442 190.663
L209.57 190.663
L209.825 189.856
L210.591 190.663
L210.846 189.856
L211.356 190.663
L211.484 192.251
L211.739 188.672
L211.867 180.571
L212.122 187.595
L212.25 187.595
L212.505 193.812
L216.461 193.758
L216.589 192.197
L216.589 192.197
L216.844 192.978
L217.099 205.303
L217.227 204.576
L217.482 206.756
L217.482 206.756
L217.61 204.576
L217.865 203.796
L217.992 206.756
L218.248 206.03
L218.248 206.03
L218.375 205.303
L218.631 203.123
L218.758 203.123
L219.141 202.208
L219.396 202.935
L219.907 200.701
L220.162 199.194
L220.29 200.701
L220.29 200.701
L220.545 195.373
L220.928 195.373
L221.055 196.153
L221.31 196.934
L221.438 196.934
L221.693 167.95
L222.076 200.701
L222.204 199.948
L222.459 199.14
L222.587 189.479
L222.842 194.856
L222.842 194.856
L223.225 192.493
L223.352 190.093
L223.608 189.291
L223.735 186.869
L223.99 186.869
L224.118 187.676
L224.373 194.027
L224.501 178.714
L224.756 192.466
L224.884 191.686
L225.139 194.027
L225.267 194.027
L225.522 194.818
L225.649 184.097
L225.649 184.097
L225.777 194.861
L225.777 194.861
L225.905 192.52
L225.905 192.52
L226.16 194.861
L226.16 194.861
L226.288 194.081
L226.415 189.479
L226.415 189.479
L226.798 194.861
L227.053 188.672
L227.181 188.672
L227.436 185.415
L227.436 185.415
L227.819 189.479
L227.946 187.864
L228.202 187.03
L228.329 194.856
L228.585 194.081
L228.712 189.479
L228.967 189.479
L229.095 187.864
L229.35 187.864
L229.478 188.672
L229.733 187.837
L229.861 187.864
L230.116 194.856
L230.244 189.479
L230.499 194.861
L230.499 194.861
L230.882 192.52
L231.009 192.52
L231.264 191.201
L231.264 191.201
L231.392 191.201
L231.647 189.587
L232.03 189.587
L232.158 187.945
L232.413 189.479
L232.541 188.752
L232.796 185.496
L232.796 185.496
L232.924 185.496
L233.179 188.752
L233.306 186.33
L233.562 184.662
L233.689 185.496
L233.944 185.491
L234.072 188.752
L234.327 189.56
L234.327 189.56
L234.455 188.752
L234.71 161.626
L234.838 190.394
L235.093 200.54
L235.093 200.54
L235.221 200.701
L235.476 200.701
L235.603 198.441
L235.859 196.126
L235.859 196.126
L235.986 198.441
L236.369 200.701
L236.624 198.441
L237.135 198.441
L237.39 189.963
L237.518 196.934
L237.773 193.812
L238.283 193.801
L238.539 192.224
L239.049 192.224
L239.304 190.098
L239.432 190.098
L239.687 188.483
L239.815 190.098
L240.07 191.444
L240.198 189.829
L240.453 189.022
L240.453 189.022
L240.58 189.824
L240.836 189.829
L240.963 192.224
L241.219 191.444
L241.346 191.444
L241.729 188.214
L241.984 182.428
L242.112 184.097
L242.367 184.097
L242.495 189.829
L242.75 189.022
L242.878 188.214
L243.133 188.214
L243.26 189.829
L243.516 188.214
L243.643 189.022
L243.898 189.484
L244.281 186.519
L244.409 187.057
L244.792 193.005
L245.175 199.194
L245.557 196.847
L245.94 196.853
L246.196 196.046
L246.578 196.002
L246.578 196.002
L246.706 181.271
L246.961 195.997
L247.727 196.002
L247.855 195.238
L248.237 196.046
L248.493 196.853
L248.876 194.512
L248.876 194.512
L249.003 194.512
L249.258 197.66
L249.641 195.346
L249.641 195.346
L249.769 193.785
L250.024 194.565
L250.152 194.565
L250.407 191.444
L250.79 191.438
L251.173 189.022
L251.3 189.022
L251.555 193.005
L251.938 190.636
L252.066 191.444
L252.321 191.444
L252.449 190.636
L252.704 191.444
L253.087 191.444
L253.214 194.565
L253.98 199.167
L254.235 198.414
L254.363 199.948
L254.618 199.194
L254.746 199.194
L254.746 199.194
L255.001 199.948
L255.129 199.948
L255.129 199.948
L255.384 196.934
L255.767 196.928
L255.767 196.928
L255.894 199.194
L256.532 199.194
L256.66 198.441
L256.66 198.441
L257.043 198.441
L257.298 196.934
L257.426 196.934
L257.681 194.323
L257.809 176.185
L258.064 195.464
L258.064 195.464
L258.447 195.4
L258.702 193.058
L258.957 193.053
L259.212 192.278
L259.34 193.058
L259.978 191.121
L260.106 192.278
L260.744 186.519
L260.871 187.326
L261.127 185.685
L261.509 191.497
L261.637 189.075
L261.892 193.839
L262.02 193.058
L262.403 193.058
L262.658 193.839
L262.786 194.7
L263.168 194.695
L263.424 192.224
L263.424 192.224
L263.551 192.224
L263.807 190.636
L263.934 190.636
L264.189 191.438
L264.189 191.438
L264.317 191.444
L264.7 188.672
L264.955 194.695
L264.955 194.695
L265.083 194.646
L265.338 193.919
L265.466 193.139
L265.593 198.435
L265.848 197.66
L266.104 198.435
L266.231 196.907
L266.486 197.66
L266.614 196.907
L266.869 196.907
L266.997 198.435
L267.38 192.708
L267.635 194.269
L268.145 191.121
L268.401 192.708
L268.528 189.775
L268.784 188.968
L268.911 188.968
L269.166 188.16
L269.294 187.353
L269.549 188.968
L269.932 188.968
L270.06 177.396
L270.315 187.353
L270.443 186.546
L270.698 188.968
L270.825 171.179
L271.081 188.968
L271.463 193.139
L271.974 197.445
L272.229 195.884
L272.357 187.864
L272.74 160.684
L272.995 135.656
L273.122 161.626
L273.506 194.856
L273.761 192.224
L273.888 192.224
L274.143 191.734
L274.271 190.125
L274.526 190.927
L274.654 190.927
L275.037 183.263
L275.292 194.081
L276.058 185.254
L276.185 185.254
L276.441 184.42
L276.568 183.585
L276.823 188.51
L276.951 187.703
L277.206 186.896
L277.334 186.896
L277.717 182.428
L277.972 181.589
L277.972 181.589
L278.099 181.594
L278.482 190.932
L278.865 188.51
L279.12 190.125
L279.248 189.318
L279.503 194.081
L279.631 194.081
L279.886 190.932
L280.014 194.081
L280.269 176.023
L280.269 176.023
L280.397 179.307
L280.652 194.081
L280.779 187.138
L281.035 193.301
L281.035 193.301
L281.162 193.301
L281.545 190.932
L281.801 197.493
L282.183 196.718
L282.311 196.718
L282.566 197.499
L282.694 197.499
L282.949 198.274
L283.077 197.499
L283.332 197.499
L283.459 196.718
L283.715 197.499
L284.225 190.152
L284.48 190.152
L284.736 188.537
L285.246 190.932
L285.374 190.932
L285.629 192.547
L285.756 192.439
L286.012 191.659
L286.139 192.547
L286.395 191.767
L286.522 190.959
L286.777 193.327
L287.16 190.959
L287.288 190.959
L287.543 190.017
L287.671 188.403
L287.926 189.479
L288.054 187.864
L288.437 195.669
L288.692 194.108
L288.819 192.547
L289.074 198.274
L289.202 198.274
L289.457 196.718
L289.585 197.499
L289.84 188.699
L289.968 192.17
L290.351 188.941
L290.606 187.326
L290.733 187.326
L290.861 188.134
L290.989 188.134
L291.116 162.568
L291.372 187.326
L291.499 187.326
L291.754 188.134
L292.137 188.968
L292.265 190.582
L292.52 189.748
L292.52 189.748
L292.903 189.775
L293.031 192.17
L293.413 189.775
L293.669 198.274
L293.669 198.274
L293.796 198.274
L294.051 194.081
L294.051 194.081
L294.179 194.861
L294.434 194.081
L294.562 194.081
L294.817 193.301
L294.945 193.295
L295.2 194.081
L295.328 199.49
L295.583 194.861
L295.71 199.14
L295.966 198.737
L296.476 189.667
L296.731 189.667
L296.859 188.86
L297.114 190.475
L297.242 188.699
L297.497 188.699
L297.625 187.891
L297.88 190.475
L298.008 200.244
L298.263 200.244
L298.646 198.516
L298.773 195.4
L299.028 196.955
L299.156 200.244
L299.411 199.49
L299.539 199.49
L299.922 201.401
L300.177 201.401
L300.177 201.401
L300.305 202.154
L300.56 209.394
L300.687 208.877
L300.943 204.899
L301.07 204.899
L301.326 205.626
L301.453 204.173
L301.708 208.183
L302.219 205.653
L302.474 205.653
L302.474 205.653
L303.112 202.935
L303.75 206.514
L304.133 206.514
L304.388 205.787
L304.771 205.061
L304.899 204.334
L305.154 205.787
L305.282 205.061
L305.537 205.061
L305.664 203.608
L305.92 202.881
L306.047 202.128
L306.43 198.36
L306.685 202.128
L306.813 199.867
L307.068 199.113
L307.068 199.113
L307.196 187.299
L307.451 205.061
L307.579 204.334
L307.834 205.787
L307.962 204.334
L308.217 203.608
L308.344 204.334
L308.6 205.061
L308.6 205.061
L308.727 205.029
L308.983 202.854
L309.11 203.581
L309.365 202.854
L309.493 202.101
L309.748 201.347
L309.876 199.84
L310.131 199.087
L310.131 199.087
L310.259 197.579
L310.514 197.579
L310.642 200.594
L311.024 197.579
L311.28 196.046
L311.407 194.485
L311.662 196.046
L311.79 194.485
L312.045 192.924
L312.556 192.924
L312.939 190.529
L313.194 190.529
L313.321 191.336
L313.577 191.336
L313.704 192.143
L313.96 199.813
L314.342 199.813
L314.47 199.06
L314.853 195.238
L315.108 195.238
L315.236 194.458
L315.491 197.445
L315.619 193.543
L315.874 196.664
L316.257 195.077
L317.022 195.104
L317.15 197.445
L317.405 196.664
L317.533 188.322
L317.788 198.333
L317.916 198.328
L318.171 193.909
L318.298 179.899
L318.554 177.315
L318.554 177.315
L318.681 192.332
L318.937 189.937
L319.064 193.112
L319.447 189.129
L319.702 189.129
L319.83 188.322
L320.085 187.515
L320.213 186.707
L320.596 192.224
L320.851 194.081
L320.851 194.081
L321.234 199.84
L321.616 197.041
L321.999 199.087
L322.127 199.087
L322.893 198.333
L323.275 198.333
L323.531 197.579
L323.658 196.826
L323.914 196.826
L323.914 196.826
L324.041 198.333
L324.424 198.333
L324.679 199.087
L324.807 198.333
L325.062 198.333
L325.19 197.579
L325.573 197.574
L325.828 196.799
L325.956 192.843
L326.211 191.255
L326.338 189.641
L326.593 189.641
L326.721 188.833
L326.976 188.833
L327.104 187.321
L327.359 189.635
L327.487 188.026
L327.87 199.49
L328.125 197.23
L328.252 197.23
L328.508 194.888
L328.635 194.888
L328.891 194.108
L329.018 191.767
L329.401 194.888
L329.656 194.108
L329.784 191.767
L330.039 190.959
L330.167 190.152
L330.422 190.152
L330.55 190.959
L330.805 177.773
L330.933 190.152
L331.188 189.345
L331.315 189.345
L331.698 197.23
L331.953 196.449
L332.081 194.081
L332.336 199.087
L332.719 199.087
L332.847 198.333
L333.102 195.265
L333.23 197.579
L333.612 197.579
L333.868 196.772
L334.378 171.475
L334.761 184.716
L335.016 197.553
L335.144 192.789
L335.399 191.201
L335.527 192.009
L335.782 194.856
L335.909 194.081
L336.165 198.737
L336.292 196.449
L336.548 195.669
L336.675 195.669
L336.93 194.108
L337.058 199.463
L337.313 197.956
L337.441 199.463
L337.824 197.203
L338.079 198.71
L338.207 200.211
L338.462 197.203
L338.589 197.208
L338.972 200.594
L339.866 200.594
L340.121 187.057
L340.376 187.057
L340.504 200.594
L342.035 200.594
L342.29 186.223
L342.418 200.594
L346.884 200.594
L346.884 200.594
L347.012 205.142
L347.267 204.415
L347.395 204.415
L347.65 206.595
L347.778 205.868
L348.033 205.868
L348.161 197.553
L348.543 194.458
L348.799 195.238
L348.926 195.238
L349.181 207.321
L349.309 207.321
L349.564 206.595
L349.692 208.048
L350.075 205.89
L350.84 199.975
L351.096 199.221
L351.224 198.468
L351.606 197.714
L351.861 193.812
L351.989 193.812
L352.372 184.118
L352.627 196.18
L352.755 195.4
L353.01 194.856
L353.52 188.645
L353.776 197.714
L353.776 197.714
L354.158 200.728
L354.286 195.346
L354.541 202.224
L354.669 202.224
L354.924 200.728
L355.052 198.737
L355.307 197.983
L355.307 197.983
L355.435 197.23
L355.69 200.728
L356.073 196.611
L356.073 196.611
L356.2 196.611
L356.583 192.978
L356.838 181.406
L356.966 192.978
L357.221 192.978
L357.477 193.839
L357.732 193.058
L358.115 193.058
L358.37 194.619
L358.37 194.619
L358.497 196.169
L358.753 196.164
L358.88 195.4
L359.136 199.21
L359.263 199.221
L359.518 200.244
L359.646 201.482
L360.029 201.476
L360.284 193.839
L360.412 199.705
L360.667 201.482
L360.795 201.482
L361.05 202.074
L361.177 202.074
L361.433 201.32
L361.56 201.32
L361.816 195.238
L361.943 196.019
L362.198 196.019
L362.326 196.794
L362.581 196.794
L362.709 202.068
L362.964 201.32
L363.092 197.875
L363.474 200.567
L363.73 201.32
L363.857 201.32
L364.113 198.306
L364.24 199.808
L364.495 201.315
L364.623 199.813
L364.878 201.32
L365.389 196.019
L365.644 195.238
L366.027 182.428
L366.027 182.428
L366.155 176.023
L366.41 195.238
L366.537 194.458
L366.792 192.116
L366.92 192.116
L367.175 190.502
L367.303 188.887
L367.558 189.694
L367.686 190.496
L367.941 189.694
L368.069 190.496
L368.324 190.502
L368.451 188.887
L368.707 190.502
L369.09 194.458
L369.472 196.799
L369.6 198.306
L369.855 198.306
L369.983 198.091
L370.238 199.813
L370.366 199.06
L370.621 198.301
L370.749 199.813
L371.004 197.122
L371.131 197.122
L371.387 201.32
L371.514 200.567
L371.897 192.466
L372.152 201.482
L372.28 200.728
L372.535 202.23
L372.663 201.482
L372.918 200.728
L373.046 201.482
L373.301 201.482
L373.428 206.622
L373.684 205.491
L373.684 205.491
L373.811 203.877
L374.067 205.491
L374.194 204.765
L374.449 206.218
L374.577 205.491
L374.832 206.218
L375.215 206.218
L375.343 204.765
L375.598 204.033
L375.726 202.585
L375.981 201.724
L376.108 203.204
L376.364 203.204
L376.491 201.831
L376.746 201.831
L376.874 194.942
L377.129 194.942
L377.257 194.162
L377.512 194.942
L378.023 194.942
L378.278 202.585
L378.405 202.585
L378.661 201.831
L378.788 201.831
L379.044 202.585
L379.171 203.312
L379.426 203.312
L379.554 189.479
L379.809 190.206
L379.937 203.312
L380.192 203.312
L380.703 208.156
L380.958 208.156
L381.468 205.249
L381.723 205.97
L382.234 205.97
L382.489 200.836
L382.617 203.069
L382.872 203.791
L383 203.037
L383.255 203.785
L383.383 203.043
L383.638 205.249
L384.021 205.97
L384.148 205.97
L384.403 207.424
L384.531 207.429
L384.786 206.67
L385.297 198.306
L385.552 200.567
L385.68 199.813
L386.062 188.672
L386.318 196.745
L386.445 195.184
L386.701 195.184
L386.828 193.623
L387.083 193.623
L387.211 192.843
L387.466 194.404
L387.594 199.049
L387.849 198.091
L387.977 196.557
L388.232 194.996
L388.232 194.996
L388.36 194.996
L388.615 196.557
L388.742 198.091
L388.998 197.332
L389.38 189.694
L389.508 189.694
L389.763 190.502
L389.891 189.694
L390.146 191.067
L390.529 191.067
L390.657 190.26
L391.295 194.216
L391.422 194.216
L391.678 195.776
L391.805 205.169
L392.571 195.023
L392.826 194.242
L392.954 193.247
L393.337 193.462
L393.592 191.605
L393.719 191.605
L393.975 193.963
L394.102 193.963
L394.102 193.963
L394.485 194.861
L394.74 192.52
L395.123 192.52
L395.251 194.081
L395.506 194.081
L395.634 205.169
L395.889 204.442
L396.016 204.442
L396.272 202.262
L396.399 202.262
L396.655 202.989
L396.782 205.169
L397.037 203.715
L397.548 203.715
L397.931 198.494
L398.186 199.243
L398.314 197.741
L398.569 196.987
L398.696 197.741
L398.952 201.509
L399.079 200.755
L399.335 202.262
L399.462 202.262
L399.717 200.755
L399.845 200.755
L400.1 201.509
L400.228 201.509
L400.611 203.715
L400.866 202.989
L401.376 202.989
L401.632 202.262
L401.759 202.262
L402.014 201.509
L402.142 202.989
L402.397 201.509
L402.525 194.592
L402.78 190.582
L402.908 202.262
L403.163 200.244
L403.291 200.244
L403.546 199.49
L403.673 200.244
L404.056 199.975
L404.439 191.497
L404.694 190.69
L404.822 189.883
L405.205 193.839
L405.46 202.962
L405.588 202.956
L405.843 202.203
L406.353 199.189
L406.609 198.414
L406.736 198.414
L406.991 196.907
L407.374 193.301
L407.502 193.295
L407.757 192.38
L407.885 192.386
L408.14 193.301
L408.268 196.907
L408.523 195.346
L408.65 193.785
L408.906 192.224
L409.033 193.005
L409.289 191.39
L409.416 195.346
L409.799 193.005
L410.054 193.785
L410.437 189.802
L410.82 187.38
L411.33 192.515
L411.586 199.087
L411.968 195.669
L412.096 189.479
L412.351 195.663
L412.607 193.327
L412.989 190.959
L413.245 195.663
L413.5 194.888
L413.627 194.888
L413.883 194.108
L414.01 193.327
L414.266 195.663
L414.393 195.663
L414.648 194.894
L414.776 194.894
L415.031 193.327
L415.542 193.268
L415.797 191.713
L415.925 191.713
L416.18 189.291
L416.307 190.098
L416.69 186.061
L416.945 182.724
L417.073 188.483
L417.328 189.291
L417.456 189.291
L417.711 190.098
L417.839 188.483
L418.094 187.676
L418.222 190.017
L418.477 190.905
L418.604 190.098
L418.86 197.553
L418.987 196.799
L419.243 196.794
L419.37 196.019
L419.753 196.019
L420.008 194.458
L420.391 196.794
L420.519 195.992
L420.902 195.211
L421.157 194.431
L421.284 196.019
L421.54 195.992
L421.667 195.211
L421.922 195.211
L422.05 195.992
L422.433 191.255
L422.688 191.25
L422.816 190.443
L423.071 189.641
L423.199 189.641
L423.454 188.833
L423.837 192.87
L423.964 192.87
L424.347 189.667
L424.602 189.667
L424.73 188.053
L425.113 190.475
L425.368 191.282
L425.496 194.431
L425.751 192.17
L425.879 198.333
L426.134 200.265
L426.261 197.257
L426.517 196.476
L426.899 194.135
L427.282 198.764
L427.41 198.764
L427.665 198.01
L427.793 196.368
L428.048 195.696
L428.176 195.696
L428.431 194.915
L428.558 192.574
L428.814 193.354
L428.941 190.152
L429.197 190.959
L429.324 191.767
L429.579 200.244
L429.707 196.476
L430.09 193.301
L430.345 194.856
L430.473 194.081
L430.728 190.125
L430.983 190.12
L431.238 194.856
L431.494 197.251
L431.621 197.251
L431.877 198.01
L432.004 198.01
L432.259 197.257
L432.387 196.476
L432.642 196.476
L432.642 196.476
L432.77 197.257
L433.025 197.257
L433.153 195.696
L433.408 187.111
L433.536 187.111
L433.918 198.764
L434.301 195.696
L434.556 194.888
L434.684 194.888
L434.939 193.301
L435.067 193.301
L435.322 194.081
L435.45 194.081
L435.705 196.471
L436.088 192.569
L436.215 191.793
L436.471 192.574
L436.854 192.574
L437.236 191.094
L437.364 191.094
L437.747 192.708
L438.002 197.553
L438.385 195.233
L438.513 189.479
L438.895 198.71
L439.151 197.956
L439.533 197.956
L439.661 196.422
L439.916 197.203
L440.044 195.642
L440.299 196.417
L440.299 196.417
L440.427 195.938
L440.682 194.081
L441.065 197.203
L441.575 197.203
L441.831 197.553
L441.958 200.265
L442.341 197.23
L442.596 197.257
L442.724 198.01
L442.979 197.23
L443.107 195.669
L443.362 197.978
L443.49 195.642
L443.872 199.49
L444.128 200.244
L444.255 200.265
L444.51 198.764
L444.638 196.476
L444.893 197.257
L445.021 198.01
L445.276 198.01
L445.404 200.265
L446.042 200.265
L446.169 215.045
L446.425 215.045
L446.552 215.718
L446.935 211.627
L447.318 209.501
L447.573 210.928
L447.701 210.928
L447.956 210.228
L448.084 210.228
L448.339 208.129
L448.467 210.928
L448.722 210.928
L448.849 210.228
L449.105 210.228
L449.232 209.932
L449.487 212.322
L449.487 212.322
L449.615 212.322
L449.87 215.04
L449.998 213.694
L450.126 215.045
L450.381 214.345
L450.636 216.385
L450.764 215.718
L451.146 215.712
L451.402 212.973
L451.529 202.197
L451.912 202.203
L452.295 199.948
L452.55 200.701
L452.678 199.948
L452.933 199.948
L453.061 200.701
L453.316 199.948
L453.444 199.194
L453.699 199.948
L453.826 199.948
L454.209 195.373
L454.465 194.565
L454.592 194.565
L454.847 193.812
L454.847 193.812
L455.23 199.49
L455.358 197.983
L455.613 198.737
L455.741 198.737
L455.996 197.983
L456.123 196.449
L456.379 198.737
L456.506 197.983
L456.762 197.929
L457.527 193.327
L457.655 197.23
L457.91 196.449
L458.038 197.983
L458.293 198.737
L458.421 198.737
L458.676 193.812
L458.803 193.812
L459.059 194.592
L459.186 197.014
L459.442 196.934
L459.569 196.153
L459.824 198.737
L459.952 195.669
L460.207 197.23
L460.335 198.737
L460.59 212.612
L460.718 211.224
L461.101 209.173
L461.356 205.545
L461.484 205.545
L461.739 204.819
L462.121 206.999
L462.504 204.899
L462.632 211.923
L462.887 210.524
L463.398 205.276
L463.653 204.361
L463.781 202.908
L464.036 202.908
L464.163 201.993
L464.419 203.446
L464.546 202.72
L464.801 202.693
L465.312 196.342
L465.567 197.822
L465.567 197.822
L465.695 197.02
L465.95 196.207
L466.078 195.427
L466.333 205.518
L466.46 205.518
L466.716 209.125
L467.226 204.092
L467.481 204.813
L467.992 207.537
L468.247 207.51
L468.63 206.783
L469.013 206.778
L469.396 203.15
L469.523 206.057
L469.778 206.057
L469.906 207.51
L470.161 204.603
L470.289 206.057
L470.544 205.33
L470.672 205.33
L470.927 204.603
L471.055 203.877
L471.31 201.67
L471.693 201.67
L472.075 197.149
L472.203 57.8547
L472.458 199.167
L472.969 195.986
L473.224 197.66
L473.352 196.907
L473.607 209.125
L473.734 207.725
L473.99 208.398
L474.118 208.398
L474.755 210.998
L474.883 212.951
L475.138 211.573
L475.266 210.147
L475.521 208.748
L475.649 205.841
L475.904 206.595
L476.032 205.142
L476.287 203.688
L476.414 204.415
L476.67 205.142
L476.797 202.962
L477.052 205.142
L477.18 205.142
L477.435 201.482
L477.563 202.235
L477.946 212.273
L478.201 212.962
L478.329 210.874
L478.584 210.868
L478.711 211.573
L478.967 211.573
L479.094 334.64
L479.477 234.072
L479.732 233.453
L479.86 225.594
L480.115 221.127
L480.243 223.711
L481.009 213.834
L481.264 213.161
L481.391 213.834
L481.774 225.541
L482.03 234.637
L482.157 233.453
L482.412 232.861
L482.923 226.617
L483.306 224.922
L483.689 212.327
L483.944 211.627
L484.454 211.627
L484.709 213.694
L484.837 202.935
L485.22 210.922
L485.475 209.528
L485.858 209.528
L485.986 210.228
L486.241 210.228
L486.241 210.228
L486.368 210.922
L486.624 210.922
L486.751 210.228
L487.007 209.528
L487.134 209.528
L487.389 207.402
L487.517 208.828
L487.772 206.676
L488.155 206.676
L488.283 205.949
L488.666 205.949
L488.921 205.222
L489.304 200.782
L489.431 200.782
L489.686 201.482
L489.814 202.235
L490.069 205.949
L490.197 205.949
L490.452 206.622
L490.58 207.348
L490.835 205.949
L490.963 205.949
L491.218 205.217
L491.345 204.496
L491.601 206.164
L491.728 205.438
L492.111 205.438
L492.366 206.676
L492.494 206.676
L492.749 196.153
L492.877 202.208
L493.132 201.455
L493.26 201.455
L493.515 199.948
L494.026 208.317
L494.281 208.317
L494.408 206.891
L494.663 207.617
L495.174 204.711
L495.429 206.164
L495.684 206.164
L495.812 205.438
L495.812 205.438
L496.195 201.024
L496.322 202.531
L496.705 194.135
L496.961 198.01
L497.343 195.696
L497.726 191.793
L497.854 191.793
L498.109 199.49
L498.237 197.983
L498.492 199.485
L498.62 199.485
L498.875 202.531
L499.002 202.531
L499.258 203.258
L499.258 203.258
L499.385 203.258
L499.64 207.402
L499.768 205.949
L500.023 204.496
L500.151 205.217
L500.406 210.928
L500.917 208.129
L501.172 208.129
L501.299 213
L501.555 216.525
L501.682 215.18
L501.938 206.245
L502.065 206.245
L502.448 215.718
L502.831 209.663
L503.086 208.828
L503.214 209.528
L503.469 208.828
L503.852 205.061
L503.979 205.055
L504.235 204.307
L504.362 205.055
L504.617 204.334
L504.873 201.374
L505.128 200.62
L505.383 199.113
L505.511 200.244
L505.766 205.061
L505.894 202.881
L506.149 213.699
L506.277 213.027
L506.532 210.928
L506.659 210.928
L506.915 212.192
L507.042 210.093
L507.297 209.394
L508.063 209.394
L508.191 210.093
L508.446 210.093
L508.574 209.388
L508.829 208.662
L509.212 210.093
L509.339 213.027
L509.595 213.699
L509.722 167.842
L509.977 212.327
L510.36 211.627
L510.488 211.627
L510.743 213.027
L510.871 212.327
L511.126 213.699
L511.509 213.699
L511.636 213.027
L511.892 217.225
L512.402 217.225
L512.657 208.183
L512.785 212.166
L513.04 208.64
L513.168 209.367
L513.423 217.225
L514.699 217.225
L514.954 204.98
L515.082 217.225
L515.465 214.641
L515.72 215.314
L515.848 215.314
L516.231 212.596
L516.486 211.896
L516.613 211.197
L516.869 209.098
L516.996 209.792
L517.251 209.797
L517.379 209.098
L517.634 211.197
L517.762 210.497
L518.017 210.497
L518.145 178.714
L518.4 211.869
L518.4 211.869" style="fill:none;stroke:#ff0000;stroke-linecap:square;"/>
   </g>
   <g id="line2d_2">
    <path clip-path="url(#pcb2bf987bf)" d="
M72 343.392
L72.1276 343.311
L72.7657 343.311
L72.8933 343.537
L74.2971 343.521
L74.4247 343.402
L75.8285 343.402
L75.9561 343.144
L77.3599 343.139
L77.8703 343.3
L80.4226 343.365
L80.5503 343.149
L81.9542 343.149
L82.0816 342.961
L83.4854 343.036
L83.613 343.149
L85.7825 343.085
L85.9101 342.966
L87.3139 343.031
L87.4415 343.128
L93.3118 343.214
L95.7365 343.37
L96.3746 343.478
L97.1403 343.467
L98.0336 343.252
L104.032 343.182
L104.797 343.279
L106.329 342.923
L107.095 342.88
L107.988 342.999
L110.285 342.896
L111.05 342.773
L111.816 342.81
L114.879 342.584
L116.41 342.66
L117.942 343.085
L118.707 343.316
L119.345 343.117
L120.111 343.198
L121.004 343.123
L122.536 343.225
L124.705 343.036
L125.471 343.209
L127.002 343.004
L130.193 343.106
L134.659 343.327
L135.425 343.505
L136.318 343.349
L136.956 343.392
L137.722 343.155
L138.488 343.155
L139.381 343.279
L140.785 343.112
L141.678 343.225
L142.316 343.532
L143.082 343.585
L143.975 343.316
L145.507 343.036
L148.442 342.956
L149.973 342.681
L151.505 342.875
L152.27 343.004
L153.164 343.004
L153.802 343.187
L156.099 343.327
L159.162 343.252
L163.118 343.316
L163.883 343.515
L164.649 343.553
L166.053 343.279
L170.775 343.408
L171.413 343.537
L173.71 343.596
L174.603 343.343
L176.9 342.891
L179.963 343.23
L180.729 343.079
L181.367 343.214
L182.898 343.117
L183.791 343.327
L185.195 343.268
L186.727 343.166
L187.492 343.171
L188.258 343.397
L189.151 343.219
L190.555 343.392
L191.321 343.359
L191.321 343.359
L194.384 343.435
L195.277 343.311
L202.04 343.365
L202.806 343.241
L204.338 343.295
L206.507 343.456
L209.059 343.478
L209.059 343.478
L209.57 343.672
L209.825 343.672
L210.591 343.467
L210.846 343.548
L213.654 343.553
L213.654 343.553
L213.781 343.338
L215.185 343.311
L215.185 343.311
L215.313 343.074
L216.589 343.123
L216.589 343.123
L217.099 343.203
L220.545 343.139
L220.672 343.042
L220.672 343.042
L223.608 343.042
L223.735 342.929
L224.373 342.929
L224.501 343.16
L227.436 343.166
L227.436 343.166
L227.946 342.983
L228.202 342.983
L228.329 343.096
L230.499 343.101
L230.499 343.101
L231.009 343.252
L231.264 343.252
L231.264 343.252
L231.392 343.128
L232.796 343.069
L232.796 343.069
L232.924 342.993
L234.327 343.026
L234.327 343.026
L234.455 343.166
L235.093 343.166
L235.093 343.166
L235.221 343.408
L237.39 343.306
L237.518 343.133
L238.921 343.133
L239.049 343.02
L245.047 343.058
L245.047 343.058
L245.175 343.176
L248.876 343.187
L248.876 343.187
L249.003 343.306
L253.47 343.327
L253.597 343.456
L255.001 343.521
L255.129 343.677
L255.129 343.677
L258.83 343.628
L258.957 343.521
L260.361 343.462
L260.489 343.397
L261.892 343.37
L262.02 343.564
L264.189 343.505
L264.189 343.505
L264.317 343.375
L264.955 343.375
L264.955 343.375
L265.083 343.505
L270.315 343.413
L270.698 343.37
L271.081 343.37
L271.463 343.532
L275.675 343.542
L275.802 343.413
L278.738 343.424
L278.865 343.553
L279.503 343.553
L279.631 343.677
L280.269 343.677
L280.269 343.677
L280.397 343.526
L281.035 343.526
L281.035 343.526
L281.162 343.645
L284.097 343.634
L284.225 343.478
L287.926 343.381
L288.437 343.343
L288.692 343.343
L288.819 343.478
L290.989 343.381
L291.116 343.198
L291.754 343.198
L292.265 343.397
L294.051 343.489
L294.051 343.489
L294.434 343.548
L300.943 343.505
L301.07 343.429
L303.112 343.365
L303.75 343.311
L304.005 343.311
L304.005 343.311
L304.133 343.44
L309.365 343.397
L309.493 343.23
L310.897 343.171
L311.024 343.106
L317.022 343.069
L317.15 343.252
L318.554 343.241
L318.554 343.241
L318.681 343.112
L320.851 343.123
L320.851 343.123
L321.361 343.252
L322.127 343.338
L326.211 343.435
L326.338 343.3
L327.742 343.343
L327.87 343.569
L332.336 343.666
L332.719 343.715
L339.227 343.704
L339.355 343.548
L339.866 343.548
L340.121 343.149
L341.525 343.112
L341.652 343.026
L345.353 343.106
L345.353 343.106
L345.863 343.139
L347.65 343.198
L347.778 343.273
L351.224 343.192
L352.755 343.02
L353.01 343.02
L353.138 343.144
L354.541 343.236
L354.924 343.295
L355.307 343.295
L355.307 343.295
L355.435 343.166
L356.838 343.155
L356.966 343.031
L359.136 343.047
L359.263 343.23
L360.667 343.306
L361.05 343.365
L365.261 343.359
L365.389 343.214
L369.09 343.279
L369.6 343.419
L369.855 343.419
L369.983 343.564
L375.981 343.553
L376.108 343.419
L376.746 343.419
L376.874 343.564
L380.575 343.623
L380.703 343.736
L388.232 343.677
L388.232 343.677
L388.36 345.319
L388.998 345.319
L389.125 343.639
L392.826 343.591
L392.954 343.392
L395.889 343.392
L396.016 343.569
L398.186 343.505
L398.314 343.402
L398.952 343.402
L399.079 343.591
L400.483 343.65
L400.611 343.763
L402.78 343.682
L403.163 343.634
L406.609 343.548
L406.736 343.354
L411.203 343.332
L411.33 343.478
L417.328 343.419
L417.456 343.612
L418.86 343.591
L418.987 343.779
L422.688 343.768
L422.816 343.661
L425.751 343.72
L425.879 343.811
L428.814 343.752
L428.941 343.65
L429.579 343.65
L429.707 343.898
L434.939 343.849
L435.067 343.666
L435.705 343.666
L435.833 343.801
L440.299 343.731
L440.299 343.731
L440.427 343.645
L444.128 343.698
L444.255 343.822
L444.893 343.822
L445.021 343.634
L446.425 343.704
L446.552 343.774
L447.19 343.774
L447.318 343.618
L451.019 343.672
L451.146 343.736
L451.785 343.736
L451.912 343.569
L454.082 343.499
L454.209 343.381
L455.613 343.359
L455.741 343.499
L457.144 343.494
L457.272 343.3
L458.676 343.338
L458.803 343.419
L462.504 343.343
L462.887 343.295
L463.27 343.295
L463.398 343.462
L464.036 343.462
L464.163 343.343
L466.333 343.429
L466.716 343.483
L471.693 343.402
L471.82 343.338
L473.99 343.381
L474.118 343.564
L474.755 343.564
L474.883 343.763
L476.287 343.693
L476.414 343.602
L477.818 343.682
L477.946 343.806
L479.35 343.709
L479.477 343.489
L480.115 343.489
L480.243 343.257
L481.647 343.176
L481.774 343.386
L483.178 343.386
L483.306 343.166
L483.944 343.166
L484.071 343.009
L485.475 342.993
L485.986 342.832
L489.304 342.794
L489.431 342.708
L490.069 342.708
L490.197 342.864
L492.366 342.972
L492.749 343.02
L493.898 342.945
L494.026 343.144
L496.195 343.101
L496.322 343.026
L499.258 343.133
L499.258 343.133
L499.385 343.268
L500.023 343.268
L500.151 343.133
L501.555 343.236
L501.682 343.349
L502.32 343.349
L502.448 343.225
L505.383 343.187
L505.511 343.09
L506.149 343.09
L506.277 343.392
L512.274 343.429
L512.402 343.279
L513.806 343.187
L514.317 343.16
L514.572 343.16
L514.699 342.94
L515.337 342.94
L515.465 342.794
L518.4 342.81
L518.4 342.81" style="fill:none;stroke:#008000;stroke-linecap:square;"/>
   </g>
   <g id="patch_3">
    <path d="
M72 43.2
L518.4 43.2" style="fill:none;stroke:#000000;stroke-linecap:square;stroke-linejoin:miter;"/>
   </g>
   <g id="patch_4">
    <path d="
M518.4 345.6
L518.4 43.2" style="fill:none;stroke:#000000;stroke-linecap:square;stroke-linejoin:miter;"/>
   </g>
   <g id="patch_5">
    <path d="
M72 345.6
L518.4 345.6" style="fill:none;stroke:#000000;stroke-linecap:square;stroke-linejoin:miter;"/>
   </g>
   <g id="patch_6">
    <path d="
M72 345.6
L72 43.2" style="fill:none;stroke:#000000;stroke-linecap:square;stroke-linejoin:miter;"/>
   </g>
   <g id="matplotlib.axis_1">
    <g id="xtick_1">
     <g id="line2d_3">
      <defs>
       <path d="
M0 0
L0 -4" id="m93b0483c22" style="stroke:#000000;stroke-width:0.5;"/>
      </defs>
      <g>
       <use style="stroke:#000000;stroke-width:0.5;" x="117.941468267" xlink:href="#m93b0483c22" y="345.6"/>
      </g>
     </g>
     <g id="line2d_4">
      <defs>
       <path d="
M0 0
L0 4" id="m741efc42ff" style="stroke:#000000;stroke-width:0.5;"/>
      </defs>
      <g>
       <use style="stroke:#000000;stroke-width:0.5;" x="117.941468267" xlink:href="#m741efc42ff" y="43.2"/>
      </g>
     </g>
     <g id="text_1">
      <!-- Oct 13 2015 -->
      <defs>
       <path d="
M19.1875 8.29688
L53.6094 8.29688
L53.6094 0
L7.32812 0
L7.32812 8.29688
Q12.9375 14.1094 22.625 23.8906
Q32.3281 33.6875 34.8125 36.5312
Q39.5469 41.8438 41.4219 45.5312
Q43.3125 49.2188 43.3125 52.7812
Q43.3125 58.5938 39.2344 62.25
Q35.1562 65.9219 28.6094 65.9219
Q23.9688 65.9219 18.8125 64.3125
Q13.6719 62.7031 7.8125 59.4219
L7.8125 69.3906
Q13.7656 71.7812 18.9375 73
Q24.125 74.2188 28.4219 74.2188
Q39.75 74.2188 46.4844 68.5469
Q53.2188 62.8906 53.2188 53.4219
Q53.2188 48.9219 51.5312 44.8906
Q49.8594 40.875 45.4062 35.4062
Q44.1875 33.9844 37.6406 27.2188
Q31.1094 20.4531 19.1875 8.29688" id="BitstreamVeraSans-Roman-32"/>
       <path d="
M39.4062 66.2188
Q28.6562 66.2188 22.3281 58.2031
Q16.0156 50.2031 16.0156 36.375
Q16.0156 22.6094 22.3281 14.5938
Q28.6562 6.59375 39.4062 6.59375
Q50.1406 6.59375 56.4219 14.5938
Q62.7031 22.6094 62.7031 36.375
Q62.7031 50.2031 56.4219 58.2031
Q50.1406 66.2188 39.4062 66.2188
M39.4062 74.2188
Q54.7344 74.2188 63.9062 63.9375
Q73.0938 53.6562 73.0938 36.375
Q73.0938 19.1406 63.9062 8.85938
Q54.7344 -1.42188 39.4062 -1.42188
Q24.0312 -1.42188 14.8125 8.82812
Q5.60938 19.0938 5.60938 36.375
Q5.60938 53.6562 14.8125 63.9375
Q24.0312 74.2188 39.4062 74.2188" id="BitstreamVeraSans-Roman-4f"/>
       <path d="
M31.7812 66.4062
Q24.1719 66.4062 20.3281 58.9062
Q16.5 51.4219 16.5 36.375
Q16.5 21.3906 20.3281 13.8906
Q24.1719 6.39062 31.7812 6.39062
Q39.4531 6.39062 43.2812 13.8906
Q47.125 21.3906 47.125 36.375
Q47.125 51.4219 43.2812 58.9062
Q39.4531 66.4062 31.7812 66.4062
M31.7812 74.2188
Q44.0469 74.2188 50.5156 64.5156
Q56.9844 54.8281 56.9844 36.375
Q56.9844 17.9688 50.5156 8.26562
Q44.0469 -1.42188 31.7812 -1.42188
Q19.5312 -1.42188 13.0625 8.26562
Q6.59375 17.9688 6.59375 36.375
Q6.59375 54.8281 13.0625 64.5156
Q19.5312 74.2188 31.7812 74.2188" id="BitstreamVeraSans-Roman-30"/>
       <path d="
M12.4062 8.29688
L28.5156 8.29688
L28.5156 63.9219
L10.9844 60.4062
L10.9844 69.3906
L28.4219 72.9062
L38.2812 72.9062
L38.2812 8.29688
L54.3906 8.29688
L54.3906 0
L12.4062 0
z
" id="BitstreamVeraSans-Roman-31"/>
       <path d="
M40.5781 39.3125
Q47.6562 37.7969 51.625 33
Q55.6094 28.2188 55.6094 21.1875
Q55.6094 10.4062 48.1875 4.48438
Q40.7656 -1.42188 27.0938 -1.42188
Q22.5156 -1.42188 17.6562 -0.515625
Q12.7969 0.390625 7.625 2.20312
L7.625 11.7188
Q11.7188 9.32812 16.5938 8.10938
Q21.4844 6.89062 26.8125 6.89062
Q36.0781 6.89062 40.9375 10.5469
Q45.7969 14.2031 45.7969 21.1875
Q45.7969 27.6406 41.2812 31.2656
Q36.7656 34.9062 28.7188 34.9062
L20.2188 34.9062
L20.2188 43.0156
L29.1094 43.0156
Q36.375 43.0156 40.2344 45.9219
Q44.0938 48.8281 44.0938 54.2969
Q44.0938 59.9062 40.1094 62.9062
Q36.1406 65.9219 28.7188 65.9219
Q24.6562 65.9219 20.0156 65.0312
Q15.375 64.1562 9.8125 62.3125
L9.8125 71.0938
Q15.4375 72.6562 20.3438 73.4375
Q25.25 74.2188 29.5938 74.2188
Q40.8281 74.2188 47.3594 69.1094
Q53.9062 64.0156 53.9062 55.3281
Q53.9062 49.2656 50.4375 45.0938
Q46.9688 40.9219 40.5781 39.3125" id="BitstreamVeraSans-Roman-33"/>
       <path id="BitstreamVeraSans-Roman-20"/>
       <path d="
M10.7969 72.9062
L49.5156 72.9062
L49.5156 64.5938
L19.8281 64.5938
L19.8281 46.7344
Q21.9688 47.4688 24.1094 47.8281
Q26.2656 48.1875 28.4219 48.1875
Q40.625 48.1875 47.75 41.5
Q54.8906 34.8125 54.8906 23.3906
Q54.8906 11.625 47.5625 5.09375
Q40.2344 -1.42188 26.9062 -1.42188
Q22.3125 -1.42188 17.5469 -0.640625
Q12.7969 0.140625 7.71875 1.70312
L7.71875 11.625
Q12.1094 9.23438 16.7969 8.0625
Q21.4844 6.89062 26.7031 6.89062
Q35.1562 6.89062 40.0781 11.3281
Q45.0156 15.7656 45.0156 23.3906
Q45.0156 31 40.0781 35.4375
Q35.1562 39.8906 26.7031 39.8906
Q22.75 39.8906 18.8125 39.0156
Q14.8906 38.1406 10.7969 36.2812
z
" id="BitstreamVeraSans-Roman-35"/>
       <path d="
M18.3125 70.2188
L18.3125 54.6875
L36.8125 54.6875
L36.8125 47.7031
L18.3125 47.7031
L18.3125 18.0156
Q18.3125 11.3281 20.1406 9.42188
Q21.9688 7.51562 27.5938 7.51562
L36.8125 7.51562
L36.8125 0
L27.5938 0
Q17.1875 0 13.2344 3.875
Q9.28125 7.76562 9.28125 18.0156
L9.28125 47.7031
L2.6875 47.7031
L2.6875 54.6875
L9.28125 54.6875
L9.28125 70.2188
z
" id="BitstreamVeraSans-Roman-74"/>
       <path d="
M48.7812 52.5938
L48.7812 44.1875
Q44.9688 46.2969 41.1406 47.3438
Q37.3125 48.3906 33.4062 48.3906
Q24.6562 48.3906 19.8125 42.8438
Q14.9844 37.3125 14.9844 27.2969
Q14.9844 17.2812 19.8125 11.7344
Q24.6562 6.20312 33.4062 6.20312
Q37.3125 6.20312 41.1406 7.25
Q44.9688 8.29688 48.7812 10.4062
L48.7812 2.09375
Q45.0156 0.34375 40.9844 -0.53125
Q36.9688 -1.42188 32.4219 -1.42188
Q20.0625 -1.42188 12.7812 6.34375
Q5.51562 14.1094 5.51562 27.2969
Q5.51562 40.6719 12.8594 48.3281
Q20.2188 56 33.0156 56
Q37.1562 56 41.1094 55.1406
Q45.0625 54.2969 48.7812 52.5938" id="BitstreamVeraSans-Roman-63"/>
      </defs>
      <g transform="translate(53.3541815316 394.065590385)rotate(-30.0)scale(0.12 -0.12)">
       <use xlink:href="#BitstreamVeraSans-Roman-4f"/>
       <use x="78.7109375" xlink:href="#BitstreamVeraSans-Roman-63"/>
       <use x="133.69140625" xlink:href="#BitstreamVeraSans-Roman-74"/>
       <use x="172.900390625" xlink:href="#BitstreamVeraSans-Roman-20"/>
       <use x="204.6875" xlink:href="#BitstreamVeraSans-Roman-31"/>
       <use x="268.310546875" xlink:href="#BitstreamVeraSans-Roman-33"/>
       <use x="331.93359375" xlink:href="#BitstreamVeraSans-Roman-20"/>
       <use x="363.720703125" xlink:href="#BitstreamVeraSans-Roman-32"/>
       <use x="427.34375" xlink:href="#BitstreamVeraSans-Roman-30"/>
       <use x="490.966796875" xlink:href="#BitstreamVeraSans-Roman-31"/>
       <use x="554.58984375" xlink:href="#BitstreamVeraSans-Roman-35"/>
      </g>
     </g>
    </g>
    <g id="xtick_2">
     <g id="line2d_5">
      <g>
       <use style="stroke:#000000;stroke-width:0.5;" x="173.071485419" xlink:href="#m93b0483c22" y="345.6"/>
      </g>
     </g>
     <g id="line2d_6">
      <g>
       <use style="stroke:#000000;stroke-width:0.5;" x="173.071485419" xlink:href="#m741efc42ff" y="43.2"/>
      </g>
     </g>
     <g id="text_2">
      <!-- Oct 16 2015 -->
      <defs>
       <path d="
M33.0156 40.375
Q26.375 40.375 22.4844 35.8281
Q18.6094 31.2969 18.6094 23.3906
Q18.6094 15.5312 22.4844 10.9531
Q26.375 6.39062 33.0156 6.39062
Q39.6562 6.39062 43.5312 10.9531
Q47.4062 15.5312 47.4062 23.3906
Q47.4062 31.2969 43.5312 35.8281
Q39.6562 40.375 33.0156 40.375
M52.5938 71.2969
L52.5938 62.3125
Q48.875 64.0625 45.0938 64.9844
Q41.3125 65.9219 37.5938 65.9219
Q27.8281 65.9219 22.6719 59.3281
Q17.5312 52.7344 16.7969 39.4062
Q19.6719 43.6562 24.0156 45.9219
Q28.375 48.1875 33.5938 48.1875
Q44.5781 48.1875 50.9531 41.5156
Q57.3281 34.8594 57.3281 23.3906
Q57.3281 12.1562 50.6875 5.35938
Q44.0469 -1.42188 33.0156 -1.42188
Q20.3594 -1.42188 13.6719 8.26562
Q6.98438 17.9688 6.98438 36.375
Q6.98438 53.6562 15.1875 63.9375
Q23.3906 74.2188 37.2031 74.2188
Q40.9219 74.2188 44.7031 73.4844
Q48.4844 72.75 52.5938 71.2969" id="BitstreamVeraSans-Roman-36"/>
      </defs>
      <g transform="translate(108.484198684 394.065590385)rotate(-30.0)scale(0.12 -0.12)">
       <use xlink:href="#BitstreamVeraSans-Roman-4f"/>
       <use x="78.7109375" xlink:href="#BitstreamVeraSans-Roman-63"/>
       <use x="133.69140625" xlink:href="#BitstreamVeraSans-Roman-74"/>
       <use x="172.900390625" xlink:href="#BitstreamVeraSans-Roman-20"/>
       <use x="204.6875" xlink:href="#BitstreamVeraSans-Roman-31"/>
       <use x="268.310546875" xlink:href="#BitstreamVeraSans-Roman-36"/>
       <use x="331.93359375" xlink:href="#BitstreamVeraSans-Roman-20"/>
       <use x="363.720703125" xlink:href="#BitstreamVeraSans-Roman-32"/>
       <use x="427.34375" xlink:href="#BitstreamVeraSans-Roman-30"/>
       <use x="490.966796875" xlink:href="#BitstreamVeraSans-Roman-31"/>
       <use x="554.58984375" xlink:href="#BitstreamVeraSans-Roman-35"/>
      </g>
     </g>
    </g>
    <g id="xtick_3">
     <g id="line2d_7">
      <g>
       <use style="stroke:#000000;stroke-width:0.5;" x="228.201502573" xlink:href="#m93b0483c22" y="345.6"/>
      </g>
     </g>
     <g id="line2d_8">
      <g>
       <use style="stroke:#000000;stroke-width:0.5;" x="228.201502573" xlink:href="#m741efc42ff" y="43.2"/>
      </g>
     </g>
     <g id="text_3">
      <!-- Oct 19 2015 -->
      <defs>
       <path d="
M10.9844 1.51562
L10.9844 10.5
Q14.7031 8.73438 18.5 7.8125
Q22.3125 6.89062 25.9844 6.89062
Q35.75 6.89062 40.8906 13.4531
Q46.0469 20.0156 46.7812 33.4062
Q43.9531 29.2031 39.5938 26.9531
Q35.25 24.7031 29.9844 24.7031
Q19.0469 24.7031 12.6719 31.3125
Q6.29688 37.9375 6.29688 49.4219
Q6.29688 60.6406 12.9375 67.4219
Q19.5781 74.2188 30.6094 74.2188
Q43.2656 74.2188 49.9219 64.5156
Q56.5938 54.8281 56.5938 36.375
Q56.5938 19.1406 48.4062 8.85938
Q40.2344 -1.42188 26.4219 -1.42188
Q22.7031 -1.42188 18.8906 -0.6875
Q15.0938 0.046875 10.9844 1.51562
M30.6094 32.4219
Q37.25 32.4219 41.125 36.9531
Q45.0156 41.5 45.0156 49.4219
Q45.0156 57.2812 41.125 61.8438
Q37.25 66.4062 30.6094 66.4062
Q23.9688 66.4062 20.0938 61.8438
Q16.2188 57.2812 16.2188 49.4219
Q16.2188 41.5 20.0938 36.9531
Q23.9688 32.4219 30.6094 32.4219" id="BitstreamVeraSans-Roman-39"/>
      </defs>
      <g transform="translate(163.614215838 394.065590385)rotate(-30.0)scale(0.12 -0.12)">
       <use xlink:href="#BitstreamVeraSans-Roman-4f"/>
       <use x="78.7109375" xlink:href="#BitstreamVeraSans-Roman-63"/>
       <use x="133.69140625" xlink:href="#BitstreamVeraSans-Roman-74"/>
       <use x="172.900390625" xlink:href="#BitstreamVeraSans-Roman-20"/>
       <use x="204.6875" xlink:href="#BitstreamVeraSans-Roman-31"/>
       <use x="268.310546875" xlink:href="#BitstreamVeraSans-Roman-39"/>
       <use x="331.93359375" xlink:href="#BitstreamVeraSans-Roman-20"/>
       <use x="363.720703125" xlink:href="#BitstreamVeraSans-Roman-32"/>
       <use x="427.34375" xlink:href="#BitstreamVeraSans-Roman-30"/>
       <use x="490.966796875" xlink:href="#BitstreamVeraSans-Roman-31"/>
       <use x="554.58984375" xlink:href="#BitstreamVeraSans-Roman-35"/>
      </g>
     </g>
    </g>
    <g id="xtick_4">
     <g id="line2d_9">
      <g>
       <use style="stroke:#000000;stroke-width:0.5;" x="283.331519725" xlink:href="#m93b0483c22" y="345.6"/>
      </g>
     </g>
     <g id="line2d_10">
      <g>
       <use style="stroke:#000000;stroke-width:0.5;" x="283.331519725" xlink:href="#m741efc42ff" y="43.2"/>
      </g>
     </g>
     <g id="text_4">
      <!-- Oct 22 2015 -->
      <g transform="translate(218.74423299 394.065590385)rotate(-30.0)scale(0.12 -0.12)">
       <use xlink:href="#BitstreamVeraSans-Roman-4f"/>
       <use x="78.7109375" xlink:href="#BitstreamVeraSans-Roman-63"/>
       <use x="133.69140625" xlink:href="#BitstreamVeraSans-Roman-74"/>
       <use x="172.900390625" xlink:href="#BitstreamVeraSans-Roman-20"/>
       <use x="204.6875" xlink:href="#BitstreamVeraSans-Roman-32"/>
       <use x="268.310546875" xlink:href="#BitstreamVeraSans-Roman-32"/>
       <use x="331.93359375" xlink:href="#BitstreamVeraSans-Roman-20"/>
       <use x="363.720703125" xlink:href="#BitstreamVeraSans-Roman-32"/>
       <use x="427.34375" xlink:href="#BitstreamVeraSans-Roman-30"/>
       <use x="490.966796875" xlink:href="#BitstreamVeraSans-Roman-31"/>
       <use x="554.58984375" xlink:href="#BitstreamVeraSans-Roman-35"/>
      </g>
     </g>
    </g>
    <g id="xtick_5">
     <g id="line2d_11">
      <g>
       <use style="stroke:#000000;stroke-width:0.5;" x="338.461536877" xlink:href="#m93b0483c22" y="345.6"/>
      </g>
     </g>
     <g id="line2d_12">
      <g>
       <use style="stroke:#000000;stroke-width:0.5;" x="338.461536877" xlink:href="#m741efc42ff" y="43.2"/>
      </g>
     </g>
     <g id="text_5">
      <!-- Oct 25 2015 -->
      <g transform="translate(273.874250142 394.065590385)rotate(-30.0)scale(0.12 -0.12)">
       <use xlink:href="#BitstreamVeraSans-Roman-4f"/>
       <use x="78.7109375" xlink:href="#BitstreamVeraSans-Roman-63"/>
       <use x="133.69140625" xlink:href="#BitstreamVeraSans-Roman-74"/>
       <use x="172.900390625" xlink:href="#BitstreamVeraSans-Roman-20"/>
       <use x="204.6875" xlink:href="#BitstreamVeraSans-Roman-32"/>
       <use x="268.310546875" xlink:href="#BitstreamVeraSans-Roman-35"/>
       <use x="331.93359375" xlink:href="#BitstreamVeraSans-Roman-20"/>
       <use x="363.720703125" xlink:href="#BitstreamVeraSans-Roman-32"/>
       <use x="427.34375" xlink:href="#BitstreamVeraSans-Roman-30"/>
       <use x="490.966796875" xlink:href="#BitstreamVeraSans-Roman-31"/>
       <use x="554.58984375" xlink:href="#BitstreamVeraSans-Roman-35"/>
      </g>
     </g>
    </g>
    <g id="xtick_6">
     <g id="line2d_13">
      <g>
       <use style="stroke:#000000;stroke-width:0.5;" x="393.591554031" xlink:href="#m93b0483c22" y="345.6"/>
      </g>
     </g>
     <g id="line2d_14">
      <g>
       <use style="stroke:#000000;stroke-width:0.5;" x="393.591554031" xlink:href="#m741efc42ff" y="43.2"/>
      </g>
     </g>
     <g id="text_6">
      <!-- Oct 28 2015 -->
      <defs>
       <path d="
M31.7812 34.625
Q24.75 34.625 20.7188 30.8594
Q16.7031 27.0938 16.7031 20.5156
Q16.7031 13.9219 20.7188 10.1562
Q24.75 6.39062 31.7812 6.39062
Q38.8125 6.39062 42.8594 10.1719
Q46.9219 13.9688 46.9219 20.5156
Q46.9219 27.0938 42.8906 30.8594
Q38.875 34.625 31.7812 34.625
M21.9219 38.8125
Q15.5781 40.375 12.0312 44.7188
Q8.5 49.0781 8.5 55.3281
Q8.5 64.0625 14.7188 69.1406
Q20.9531 74.2188 31.7812 74.2188
Q42.6719 74.2188 48.875 69.1406
Q55.0781 64.0625 55.0781 55.3281
Q55.0781 49.0781 51.5312 44.7188
Q48 40.375 41.7031 38.8125
Q48.8281 37.1562 52.7969 32.3125
Q56.7812 27.4844 56.7812 20.5156
Q56.7812 9.90625 50.3125 4.23438
Q43.8438 -1.42188 31.7812 -1.42188
Q19.7344 -1.42188 13.25 4.23438
Q6.78125 9.90625 6.78125 20.5156
Q6.78125 27.4844 10.7812 32.3125
Q14.7969 37.1562 21.9219 38.8125
M18.3125 54.3906
Q18.3125 48.7344 21.8438 45.5625
Q25.3906 42.3906 31.7812 42.3906
Q38.1406 42.3906 41.7188 45.5625
Q45.3125 48.7344 45.3125 54.3906
Q45.3125 60.0625 41.7188 63.2344
Q38.1406 66.4062 31.7812 66.4062
Q25.3906 66.4062 21.8438 63.2344
Q18.3125 60.0625 18.3125 54.3906" id="BitstreamVeraSans-Roman-38"/>
      </defs>
      <g transform="translate(329.004267296 394.065590385)rotate(-30.0)scale(0.12 -0.12)">
       <use xlink:href="#BitstreamVeraSans-Roman-4f"/>
       <use x="78.7109375" xlink:href="#BitstreamVeraSans-Roman-63"/>
       <use x="133.69140625" xlink:href="#BitstreamVeraSans-Roman-74"/>
       <use x="172.900390625" xlink:href="#BitstreamVeraSans-Roman-20"/>
       <use x="204.6875" xlink:href="#BitstreamVeraSans-Roman-32"/>
       <use x="268.310546875" xlink:href="#BitstreamVeraSans-Roman-38"/>
       <use x="331.93359375" xlink:href="#BitstreamVeraSans-Roman-20"/>
       <use x="363.720703125" xlink:href="#BitstreamVeraSans-Roman-32"/>
       <use x="427.34375" xlink:href="#BitstreamVeraSans-Roman-30"/>
       <use x="490.966796875" xlink:href="#BitstreamVeraSans-Roman-31"/>
       <use x="554.58984375" xlink:href="#BitstreamVeraSans-Roman-35"/>
      </g>
     </g>
    </g>
    <g id="xtick_7">
     <g id="line2d_15">
      <g>
       <use style="stroke:#000000;stroke-width:0.5;" x="448.721571183" xlink:href="#m93b0483c22" y="345.6"/>
      </g>
     </g>
     <g id="line2d_16">
      <g>
       <use style="stroke:#000000;stroke-width:0.5;" x="448.721571183" xlink:href="#m741efc42ff" y="43.2"/>
      </g>
     </g>
     <g id="text_7">
      <!-- Oct 31 2015 -->
      <g transform="translate(384.134284448 394.065590385)rotate(-30.0)scale(0.12 -0.12)">
       <use xlink:href="#BitstreamVeraSans-Roman-4f"/>
       <use x="78.7109375" xlink:href="#BitstreamVeraSans-Roman-63"/>
       <use x="133.69140625" xlink:href="#BitstreamVeraSans-Roman-74"/>
       <use x="172.900390625" xlink:href="#BitstreamVeraSans-Roman-20"/>
       <use x="204.6875" xlink:href="#BitstreamVeraSans-Roman-33"/>
       <use x="268.310546875" xlink:href="#BitstreamVeraSans-Roman-31"/>
       <use x="331.93359375" xlink:href="#BitstreamVeraSans-Roman-20"/>
       <use x="363.720703125" xlink:href="#BitstreamVeraSans-Roman-32"/>
       <use x="427.34375" xlink:href="#BitstreamVeraSans-Roman-30"/>
       <use x="490.966796875" xlink:href="#BitstreamVeraSans-Roman-31"/>
       <use x="554.58984375" xlink:href="#BitstreamVeraSans-Roman-35"/>
      </g>
     </g>
    </g>
    <g id="xtick_8">
     <g id="line2d_17">
      <g>
       <use style="stroke:#000000;stroke-width:0.5;" x="503.851588335" xlink:href="#m93b0483c22" y="345.6"/>
      </g>
     </g>
     <g id="line2d_18">
      <g>
       <use style="stroke:#000000;stroke-width:0.5;" x="503.851588335" xlink:href="#m741efc42ff" y="43.2"/>
      </g>
     </g>
     <g id="text_8">
      <!-- Nov 03 2015 -->
      <defs>
       <path d="
M2.98438 54.6875
L12.5 54.6875
L29.5938 8.79688
L46.6875 54.6875
L56.2031 54.6875
L35.6875 0
L23.4844 0
z
" id="BitstreamVeraSans-Roman-76"/>
       <path d="
M9.8125 72.9062
L23.0938 72.9062
L55.4219 11.9219
L55.4219 72.9062
L64.9844 72.9062
L64.9844 0
L51.7031 0
L19.3906 60.9844
L19.3906 0
L9.8125 0
z
" id="BitstreamVeraSans-Roman-4e"/>
       <path d="
M30.6094 48.3906
Q23.3906 48.3906 19.1875 42.75
Q14.9844 37.1094 14.9844 27.2969
Q14.9844 17.4844 19.1562 11.8438
Q23.3438 6.20312 30.6094 6.20312
Q37.7969 6.20312 41.9844 11.8594
Q46.1875 17.5312 46.1875 27.2969
Q46.1875 37.0156 41.9844 42.7031
Q37.7969 48.3906 30.6094 48.3906
M30.6094 56
Q42.3281 56 49.0156 48.375
Q55.7188 40.7656 55.7188 27.2969
Q55.7188 13.875 49.0156 6.21875
Q42.3281 -1.42188 30.6094 -1.42188
Q18.8438 -1.42188 12.1719 6.21875
Q5.51562 13.875 5.51562 27.2969
Q5.51562 40.7656 12.1719 48.375
Q18.8438 56 30.6094 56" id="BitstreamVeraSans-Roman-6f"/>
      </defs>
      <g transform="translate(436.948766176 395.402465385)rotate(-30.0)scale(0.12 -0.12)">
       <use xlink:href="#BitstreamVeraSans-Roman-4e"/>
       <use x="74.8046875" xlink:href="#BitstreamVeraSans-Roman-6f"/>
       <use x="135.986328125" xlink:href="#BitstreamVeraSans-Roman-76"/>
       <use x="195.166015625" xlink:href="#BitstreamVeraSans-Roman-20"/>
       <use x="226.953125" xlink:href="#BitstreamVeraSans-Roman-30"/>
       <use x="290.576171875" xlink:href="#BitstreamVeraSans-Roman-33"/>
       <use x="354.19921875" xlink:href="#BitstreamVeraSans-Roman-20"/>
       <use x="385.986328125" xlink:href="#BitstreamVeraSans-Roman-32"/>
       <use x="449.609375" xlink:href="#BitstreamVeraSans-Roman-30"/>
       <use x="513.232421875" xlink:href="#BitstreamVeraSans-Roman-31"/>
       <use x="576.85546875" xlink:href="#BitstreamVeraSans-Roman-35"/>
      </g>
     </g>
    </g>
   </g>
   <g id="matplotlib.axis_2">
    <g id="ytick_1">
     <g id="line2d_19">
      <defs>
       <path d="
M0 0
L4 0" id="m728421d6d4" style="stroke:#000000;stroke-width:0.5;"/>
      </defs>
      <g>
       <use style="stroke:#000000;stroke-width:0.5;" x="72.0" xlink:href="#m728421d6d4" y="297.125297304"/>
      </g>
     </g>
     <g id="line2d_20">
      <defs>
       <path d="
M0 0
L-4 0" id="mcb0005524f" style="stroke:#000000;stroke-width:0.5;"/>
      </defs>
      <g>
       <use style="stroke:#000000;stroke-width:0.5;" x="518.4" xlink:href="#mcb0005524f" y="297.125297304"/>
      </g>
     </g>
     <g id="text_9">
      <!-- 10000 -->
      <g transform="translate(31.94 300.436547304)scale(0.12 -0.12)">
       <use xlink:href="#BitstreamVeraSans-Roman-31"/>
       <use x="63.623046875" xlink:href="#BitstreamVeraSans-Roman-30"/>
       <use x="127.24609375" xlink:href="#BitstreamVeraSans-Roman-30"/>
       <use x="190.869140625" xlink:href="#BitstreamVeraSans-Roman-30"/>
       <use x="254.4921875" xlink:href="#BitstreamVeraSans-Roman-30"/>
      </g>
     </g>
    </g>
    <g id="ytick_2">
     <g id="line2d_21">
      <g>
       <use style="stroke:#000000;stroke-width:0.5;" x="72.0" xlink:href="#m728421d6d4" y="243.302192704"/>
      </g>
     </g>
     <g id="line2d_22">
      <g>
       <use style="stroke:#000000;stroke-width:0.5;" x="518.4" xlink:href="#mcb0005524f" y="243.302192704"/>
      </g>
     </g>
     <g id="text_10">
      <!-- 20000 -->
      <g transform="translate(31.50125 246.613442704)scale(0.12 -0.12)">
       <use xlink:href="#BitstreamVeraSans-Roman-32"/>
       <use x="63.623046875" xlink:href="#BitstreamVeraSans-Roman-30"/>
       <use x="127.24609375" xlink:href="#BitstreamVeraSans-Roman-30"/>
       <use x="190.869140625" xlink:href="#BitstreamVeraSans-Roman-30"/>
       <use x="254.4921875" xlink:href="#BitstreamVeraSans-Roman-30"/>
      </g>
     </g>
    </g>
    <g id="ytick_3">
     <g id="line2d_23">
      <g>
       <use style="stroke:#000000;stroke-width:0.5;" x="72.0" xlink:href="#m728421d6d4" y="189.479088104"/>
      </g>
     </g>
     <g id="line2d_24">
      <g>
       <use style="stroke:#000000;stroke-width:0.5;" x="518.4" xlink:href="#mcb0005524f" y="189.479088104"/>
      </g>
     </g>
     <g id="text_11">
      <!-- 30000 -->
      <g transform="translate(31.536875 192.790338104)scale(0.12 -0.12)">
       <use xlink:href="#BitstreamVeraSans-Roman-33"/>
       <use x="63.623046875" xlink:href="#BitstreamVeraSans-Roman-30"/>
       <use x="127.24609375" xlink:href="#BitstreamVeraSans-Roman-30"/>
       <use x="190.869140625" xlink:href="#BitstreamVeraSans-Roman-30"/>
       <use x="254.4921875" xlink:href="#BitstreamVeraSans-Roman-30"/>
      </g>
     </g>
    </g>
    <g id="ytick_4">
     <g id="line2d_25">
      <g>
       <use style="stroke:#000000;stroke-width:0.5;" x="72.0" xlink:href="#m728421d6d4" y="135.655983504"/>
      </g>
     </g>
     <g id="line2d_26">
      <g>
       <use style="stroke:#000000;stroke-width:0.5;" x="518.4" xlink:href="#mcb0005524f" y="135.655983504"/>
      </g>
     </g>
     <g id="text_12">
      <!-- 40000 -->
      <defs>
       <path d="
M37.7969 64.3125
L12.8906 25.3906
L37.7969 25.3906
z

M35.2031 72.9062
L47.6094 72.9062
L47.6094 25.3906
L58.0156 25.3906
L58.0156 17.1875
L47.6094 17.1875
L47.6094 0
L37.7969 0
L37.7969 17.1875
L4.89062 17.1875
L4.89062 26.7031
z
" id="BitstreamVeraSans-Roman-34"/>
      </defs>
      <g transform="translate(31.20875 138.967233504)scale(0.12 -0.12)">
       <use xlink:href="#BitstreamVeraSans-Roman-34"/>
       <use x="63.623046875" xlink:href="#BitstreamVeraSans-Roman-30"/>
       <use x="127.24609375" xlink:href="#BitstreamVeraSans-Roman-30"/>
       <use x="190.869140625" xlink:href="#BitstreamVeraSans-Roman-30"/>
       <use x="254.4921875" xlink:href="#BitstreamVeraSans-Roman-30"/>
      </g>
     </g>
    </g>
    <g id="ytick_5">
     <g id="line2d_27">
      <g>
       <use style="stroke:#000000;stroke-width:0.5;" x="72.0" xlink:href="#m728421d6d4" y="81.8328789042"/>
      </g>
     </g>
     <g id="line2d_28">
      <g>
       <use style="stroke:#000000;stroke-width:0.5;" x="518.4" xlink:href="#mcb0005524f" y="81.8328789042"/>
      </g>
     </g>
     <g id="text_13">
      <!-- 50000 -->
      <g transform="translate(31.548125 85.1441289042)scale(0.12 -0.12)">
       <use xlink:href="#BitstreamVeraSans-Roman-35"/>
       <use x="63.623046875" xlink:href="#BitstreamVeraSans-Roman-30"/>
       <use x="127.24609375" xlink:href="#BitstreamVeraSans-Roman-30"/>
       <use x="190.869140625" xlink:href="#BitstreamVeraSans-Roman-30"/>
       <use x="254.4921875" xlink:href="#BitstreamVeraSans-Roman-30"/>
      </g>
     </g>
    </g>
   </g>
   <g id="text_14">
    <!-- Lithium -->
    <defs>
     <path d="
M9.42188 54.6875
L18.4062 54.6875
L18.4062 0
L9.42188 0
z

M9.42188 75.9844
L18.4062 75.9844
L18.4062 64.5938
L9.42188 64.5938
z
" id="BitstreamVeraSans-Roman-69"/>
     <path d="
M8.5 21.5781
L8.5 54.6875
L17.4844 54.6875
L17.4844 21.9219
Q17.4844 14.1562 20.5 10.2656
Q23.5312 6.39062 29.5938 6.39062
Q36.8594 6.39062 41.0781 11.0312
Q45.3125 15.6719 45.3125 23.6875
L45.3125 54.6875
L54.2969 54.6875
L54.2969 0
L45.3125 0
L45.3125 8.40625
Q42.0469 3.42188 37.7188 1
Q33.4062 -1.42188 27.6875 -1.42188
Q18.2656 -1.42188 13.375 4.4375
Q8.5 10.2969 8.5 21.5781" id="BitstreamVeraSans-Roman-75"/>
     <path d="
M9.8125 72.9062
L19.6719 72.9062
L19.6719 8.29688
L55.1719 8.29688
L55.1719 0
L9.8125 0
z
" id="BitstreamVeraSans-Roman-4c"/>
     <path d="
M54.8906 33.0156
L54.8906 0
L45.9062 0
L45.9062 32.7188
Q45.9062 40.4844 42.875 44.3281
Q39.8438 48.1875 33.7969 48.1875
Q26.5156 48.1875 22.3125 43.5469
Q18.1094 38.9219 18.1094 30.9062
L18.1094 0
L9.07812 0
L9.07812 75.9844
L18.1094 75.9844
L18.1094 46.1875
Q21.3438 51.125 25.7031 53.5625
Q30.0781 56 35.7969 56
Q45.2188 56 50.0469 50.1719
Q54.8906 44.3438 54.8906 33.0156" id="BitstreamVeraSans-Roman-68"/>
     <path d="
M52 44.1875
Q55.375 50.25 60.0625 53.125
Q64.75 56 71.0938 56
Q79.6406 56 84.2812 50.0156
Q88.9219 44.0469 88.9219 33.0156
L88.9219 0
L79.8906 0
L79.8906 32.7188
Q79.8906 40.5781 77.0938 44.375
Q74.3125 48.1875 68.6094 48.1875
Q61.625 48.1875 57.5625 43.5469
Q53.5156 38.9219 53.5156 30.9062
L53.5156 0
L44.4844 0
L44.4844 32.7188
Q44.4844 40.625 41.7031 44.4062
Q38.9219 48.1875 33.1094 48.1875
Q26.2188 48.1875 22.1562 43.5312
Q18.1094 38.875 18.1094 30.9062
L18.1094 0
L9.07812 0
L9.07812 54.6875
L18.1094 54.6875
L18.1094 46.1875
Q21.1875 51.2188 25.4844 53.6094
Q29.7812 56 35.6875 56
Q41.6562 56 45.8281 52.9688
Q50 49.9531 52 44.1875" id="BitstreamVeraSans-Roman-6d"/>
    </defs>
    <g transform="translate(467.0865 38.2)scale(0.144 -0.144)">
     <use xlink:href="#BitstreamVeraSans-Roman-4c"/>
     <use x="55.712890625" xlink:href="#BitstreamVeraSans-Roman-69"/>
     <use x="83.49609375" xlink:href="#BitstreamVeraSans-Roman-74"/>
     <use x="122.705078125" xlink:href="#BitstreamVeraSans-Roman-68"/>
     <use x="186.083984375" xlink:href="#BitstreamVeraSans-Roman-69"/>
     <use x="213.8671875" xlink:href="#BitstreamVeraSans-Roman-75"/>
     <use x="277.24609375" xlink:href="#BitstreamVeraSans-Roman-6d"/>
    </g>
   </g>
   <g id="legend_1">
    <g id="patch_7">
     <path d="
M123.942 423.616
L466.458 423.616
L466.458 398.16
L123.942 398.16
z
" style="fill:#ffffff;stroke:#000000;stroke-linejoin:miter;"/>
    </g>
    <g id="line2d_29">
     <path d="
M134.022 409.822
L154.182 409.822" style="fill:none;stroke:#ff0000;stroke-linecap:square;"/>
    </g>
    <g id="line2d_30"/>
    <g id="text_15">
     <!-- Schwarzmarktpreis -->
     <defs>
      <path d="
M34.2812 27.4844
Q23.3906 27.4844 19.1875 25
Q14.9844 22.5156 14.9844 16.5
Q14.9844 11.7188 18.1406 8.90625
Q21.2969 6.10938 26.7031 6.10938
Q34.1875 6.10938 38.7031 11.4062
Q43.2188 16.7031 43.2188 25.4844
L43.2188 27.4844
z

M52.2031 31.2031
L52.2031 0
L43.2188 0
L43.2188 8.29688
Q40.1406 3.32812 35.5469 0.953125
Q30.9531 -1.42188 24.3125 -1.42188
Q15.9219 -1.42188 10.9531 3.29688
Q6 8.01562 6 15.9219
Q6 25.1406 12.1719 29.8281
Q18.3594 34.5156 30.6094 34.5156
L43.2188 34.5156
L43.2188 35.4062
Q43.2188 41.6094 39.1406 45
Q35.0625 48.3906 27.6875 48.3906
Q23 48.3906 18.5469 47.2656
Q14.1094 46.1406 10.0156 43.8906
L10.0156 52.2031
Q14.9375 54.1094 19.5781 55.0469
Q24.2188 56 28.6094 56
Q40.4844 56 46.3438 49.8438
Q52.2031 43.7031 52.2031 31.2031" id="BitstreamVeraSans-Roman-61"/>
      <path d="
M9.07812 75.9844
L18.1094 75.9844
L18.1094 31.1094
L44.9219 54.6875
L56.3906 54.6875
L27.3906 29.1094
L57.625 0
L45.9062 0
L18.1094 26.7031
L18.1094 0
L9.07812 0
z
" id="BitstreamVeraSans-Roman-6b"/>
      <path d="
M53.5156 70.5156
L53.5156 60.8906
Q47.9062 63.5781 42.9219 64.8906
Q37.9375 66.2188 33.2969 66.2188
Q25.25 66.2188 20.875 63.0938
Q16.5 59.9688 16.5 54.2031
Q16.5 49.3594 19.4062 46.8906
Q22.3125 44.4375 30.4219 42.9219
L36.375 41.7031
Q47.4062 39.5938 52.6562 34.2969
Q57.9062 29 57.9062 20.125
Q57.9062 9.51562 50.7969 4.04688
Q43.7031 -1.42188 29.9844 -1.42188
Q24.8125 -1.42188 18.9688 -0.25
Q13.1406 0.921875 6.89062 3.21875
L6.89062 13.375
Q12.8906 10.0156 18.6562 8.29688
Q24.4219 6.59375 29.9844 6.59375
Q38.4219 6.59375 43.0156 9.90625
Q47.6094 13.2344 47.6094 19.3906
Q47.6094 24.75 44.3125 27.7812
Q41.0156 30.8125 33.5 32.3281
L27.4844 33.5
Q16.4531 35.6875 11.5156 40.375
Q6.59375 45.0625 6.59375 53.4219
Q6.59375 63.0938 13.4062 68.6562
Q20.2188 74.2188 32.1719 74.2188
Q37.3125 74.2188 42.625 73.2812
Q47.9531 72.3594 53.5156 70.5156" id="BitstreamVeraSans-Roman-53"/>
      <path d="
M56.2031 29.5938
L56.2031 25.2031
L14.8906 25.2031
Q15.4844 15.9219 20.4844 11.0625
Q25.4844 6.20312 34.4219 6.20312
Q39.5938 6.20312 44.4531 7.46875
Q49.3125 8.73438 54.1094 11.2812
L54.1094 2.78125
Q49.2656 0.734375 44.1875 -0.34375
Q39.1094 -1.42188 33.8906 -1.42188
Q20.7969 -1.42188 13.1562 6.1875
Q5.51562 13.8125 5.51562 26.8125
Q5.51562 40.2344 12.7656 48.1094
Q20.0156 56 32.3281 56
Q43.3594 56 49.7812 48.8906
Q56.2031 41.7969 56.2031 29.5938
M47.2188 32.2344
Q47.125 39.5938 43.0938 43.9844
Q39.0625 48.3906 32.4219 48.3906
Q24.9062 48.3906 20.3906 44.1406
Q15.875 39.8906 15.1875 32.1719
z
" id="BitstreamVeraSans-Roman-65"/>
      <path d="
M4.20312 54.6875
L13.1875 54.6875
L24.4219 12.0156
L35.5938 54.6875
L46.1875 54.6875
L57.4219 12.0156
L68.6094 54.6875
L77.5938 54.6875
L63.2812 0
L52.6875 0
L40.9219 44.8281
L29.1094 0
L18.5 0
z
" id="BitstreamVeraSans-Roman-77"/>
      <path d="
M5.51562 54.6875
L48.1875 54.6875
L48.1875 46.4844
L14.4062 7.17188
L48.1875 7.17188
L48.1875 0
L4.29688 0
L4.29688 8.20312
L38.0938 47.5156
L5.51562 47.5156
z
" id="BitstreamVeraSans-Roman-7a"/>
      <path d="
M41.1094 46.2969
Q39.5938 47.1719 37.8125 47.5781
Q36.0312 48 33.8906 48
Q26.2656 48 22.1875 43.0469
Q18.1094 38.0938 18.1094 28.8125
L18.1094 0
L9.07812 0
L9.07812 54.6875
L18.1094 54.6875
L18.1094 46.1875
Q20.9531 51.1719 25.4844 53.5781
Q30.0312 56 36.5312 56
Q37.4531 56 38.5781 55.875
Q39.7031 55.7656 41.0625 55.5156
z
" id="BitstreamVeraSans-Roman-72"/>
      <path d="
M44.2812 53.0781
L44.2812 44.5781
Q40.4844 46.5312 36.375 47.5
Q32.2812 48.4844 27.875 48.4844
Q21.1875 48.4844 17.8438 46.4375
Q14.5 44.3906 14.5 40.2812
Q14.5 37.1562 16.8906 35.375
Q19.2812 33.5938 26.5156 31.9844
L29.5938 31.2969
Q39.1562 29.25 43.1875 25.5156
Q47.2188 21.7812 47.2188 15.0938
Q47.2188 7.46875 41.1875 3.01562
Q35.1562 -1.42188 24.6094 -1.42188
Q20.2188 -1.42188 15.4531 -0.5625
Q10.6875 0.296875 5.42188 2
L5.42188 11.2812
Q10.4062 8.6875 15.2344 7.39062
Q20.0625 6.10938 24.8125 6.10938
Q31.1562 6.10938 34.5625 8.28125
Q37.9844 10.4531 37.9844 14.4062
Q37.9844 18.0625 35.5156 20.0156
Q33.0625 21.9688 24.7031 23.7812
L21.5781 24.5156
Q13.2344 26.2656 9.51562 29.9062
Q5.8125 33.5469 5.8125 39.8906
Q5.8125 47.6094 11.2812 51.7969
Q16.75 56 26.8125 56
Q31.7812 56 36.1719 55.2656
Q40.5781 54.5469 44.2812 53.0781" id="BitstreamVeraSans-Roman-73"/>
      <path d="
M18.1094 8.20312
L18.1094 -20.7969
L9.07812 -20.7969
L9.07812 54.6875
L18.1094 54.6875
L18.1094 46.3906
Q20.9531 51.2656 25.2656 53.625
Q29.5938 56 35.5938 56
Q45.5625 56 51.7812 48.0938
Q58.0156 40.1875 58.0156 27.2969
Q58.0156 14.4062 51.7812 6.48438
Q45.5625 -1.42188 35.5938 -1.42188
Q29.5938 -1.42188 25.2656 0.953125
Q20.9531 3.32812 18.1094 8.20312
M48.6875 27.2969
Q48.6875 37.2031 44.6094 42.8438
Q40.5312 48.4844 33.4062 48.4844
Q26.2656 48.4844 22.1875 42.8438
Q18.1094 37.2031 18.1094 27.2969
Q18.1094 17.3906 22.1875 11.75
Q26.2656 6.10938 33.4062 6.10938
Q40.5312 6.10938 44.6094 11.75
Q48.6875 17.3906 48.6875 27.2969" id="BitstreamVeraSans-Roman-70"/>
     </defs>
     <g transform="translate(170.022375 414.86175)scale(0.144 -0.144)">
      <use xlink:href="#BitstreamVeraSans-Roman-53"/>
      <use x="63.4765625" xlink:href="#BitstreamVeraSans-Roman-63"/>
      <use x="118.45703125" xlink:href="#BitstreamVeraSans-Roman-68"/>
      <use x="181.8359375" xlink:href="#BitstreamVeraSans-Roman-77"/>
      <use x="263.623046875" xlink:href="#BitstreamVeraSans-Roman-61"/>
      <use x="324.90234375" xlink:href="#BitstreamVeraSans-Roman-72"/>
      <use x="366.015625" xlink:href="#BitstreamVeraSans-Roman-7a"/>
      <use x="418.505859375" xlink:href="#BitstreamVeraSans-Roman-6d"/>
      <use x="515.91796875" xlink:href="#BitstreamVeraSans-Roman-61"/>
      <use x="577.197265625" xlink:href="#BitstreamVeraSans-Roman-72"/>
      <use x="618.310546875" xlink:href="#BitstreamVeraSans-Roman-6b"/>
      <use x="676.220703125" xlink:href="#BitstreamVeraSans-Roman-74"/>
      <use x="715.4296875" xlink:href="#BitstreamVeraSans-Roman-70"/>
      <use x="778.90625" xlink:href="#BitstreamVeraSans-Roman-72"/>
      <use x="817.76953125" xlink:href="#BitstreamVeraSans-Roman-65"/>
      <use x="879.29296875" xlink:href="#BitstreamVeraSans-Roman-69"/>
      <use x="907.076171875" xlink:href="#BitstreamVeraSans-Roman-73"/>
     </g>
    </g>
    <g id="line2d_31">
     <path d="
M339.609 409.822
L359.769 409.822" style="fill:none;stroke:#008000;stroke-linecap:square;"/>
    </g>
    <g id="line2d_32"/>
    <g id="text_16">
     <!-- Normalpreis -->
     <defs>
      <path d="
M9.42188 75.9844
L18.4062 75.9844
L18.4062 0
L9.42188 0
z
" id="BitstreamVeraSans-Roman-6c"/>
     </defs>
     <g transform="translate(375.609375 414.86175)scale(0.144 -0.144)">
      <use xlink:href="#BitstreamVeraSans-Roman-4e"/>
      <use x="74.8046875" xlink:href="#BitstreamVeraSans-Roman-6f"/>
      <use x="135.986328125" xlink:href="#BitstreamVeraSans-Roman-72"/>
      <use x="175.349609375" xlink:href="#BitstreamVeraSans-Roman-6d"/>
      <use x="272.76171875" xlink:href="#BitstreamVeraSans-Roman-61"/>
      <use x="334.041015625" xlink:href="#BitstreamVeraSans-Roman-6c"/>
      <use x="361.82421875" xlink:href="#BitstreamVeraSans-Roman-70"/>
      <use x="425.30078125" xlink:href="#BitstreamVeraSans-Roman-72"/>
      <use x="464.1640625" xlink:href="#BitstreamVeraSans-Roman-65"/>
      <use x="525.6875" xlink:href="#BitstreamVeraSans-Roman-69"/>
      <use x="553.470703125" xlink:href="#BitstreamVeraSans-Roman-73"/>
     </g>
    </g>
   </g>
  </g>
 </g>
 <defs>
  <clipPath id="pcb2bf987bf">
   <rect height="302.4" width="446.4" x="72.0" y="43.2"/>
  </clipPath>
 </defs>
</svg>
