<?xml version="1.0" encoding="utf-8" standalone="no"?>
<!DOCTYPE svg PUBLIC "-//W3C//DTD SVG 1.1//EN"
  "http://www.w3.org/Graphics/SVG/1.1/DTD/svg11.dtd">
<!-- Created with matplotlib (http://matplotlib.org/) -->
<svg height="432pt" version="1.1" viewBox="0 0 576 432" width="576pt" xmlns="http://www.w3.org/2000/svg" xmlns:xlink="http://www.w3.org/1999/xlink">
 <defs>
  <style type="text/css">
*{stroke-linecap:butt;stroke-linejoin:round;}
  </style>
 </defs>
 <g id="figure_1">
  <g id="patch_1">
   <path d="
M0 432
L576 432
L576 0
L0 0
z
" style="fill:#ffffff;"/>
  </g>
  <g id="axes_1">
   <g id="patch_2">
    <path d="
M72 345.6
L518.4 345.6
L518.4 43.2
L72 43.2
z
" style="fill:#ffffff;"/>
   </g>
   <g id="line2d_1">
    <path clip-path="url(#pcb2bf987bf)" d="
M72 277.979
L72.1276 276.807
L72.3828 277.246
L72.5105 276.147
L72.7657 281.277
L72.8933 286.406
L73.1485 269.479
L73.2762 283.109
L73.5314 262.957
L73.659 283.475
L73.9142 284.208
L74.0419 277.613
L74.2971 281.277
L74.4247 288.165
L74.6799 288.165
L74.8075 287.505
L75.1904 275.048
L75.4456 276.513
L75.5732 269.479
L75.8285 272.117
L76.2113 271.018
L76.3389 271.018
L76.5942 272.483
L76.7218 270.358
L77.3599 285.307
L77.8703 281.277
L78.1256 287.505
L78.1256 287.505
L78.2532 285.673
L78.5084 286.772
L78.636 292.635
L79.0189 295.566
L79.2741 293.367
L79.4017 293.734
L79.6569 203.968
L79.7846 296.958
L80.0398 296.299
L80.1674 295.566
L80.4226 295.566
L80.5503 294.833
L80.8055 294.1
L80.9331 292.268
L81.316 290.803
L81.6988 287.139
L81.9542 284.208
L82.0816 276.513
L82.4645 287.432
L82.7197 286.04
L82.8473 286.04
L83.1026 287.139
L83.2302 286.04
L83.4854 282.376
L83.613 282.742
L83.8683 282.376
L83.9959 282.742
L84.3787 281.277
L84.6342 277.686
L85.017 277.246
L85.1444 276.88
L85.5273 277.246
L85.7825 269.552
L85.9101 284.574
L86.1654 284.867
L86.293 281.277
L86.5482 287.872
L86.6758 284.574
L86.931 285.307
L87.0587 284.208
L87.4415 276.88
L87.8244 276.147
L88.0796 276.88
L88.2072 277.613
L88.4624 290.07
L88.9729 276.88
L89.2281 282.376
L89.3557 280.544
L89.7386 295.199
L89.9938 291.902
L89.9938 291.902
L90.2491 291.902
L90.3767 290.436
L91.0148 291.535
L91.7804 279.078
L91.9081 279.078
L92.6738 287.505
L93.3118 284.208
L94.0775 285.673
L94.2051 276.513
L94.9708 287.505
L95.6089 284.574
L95.7365 286.406
L96.3746 272.483
L97.1403 284.574
L98.0336 276.513
L98.6717 282.009
L98.7993 286.333
L99.4374 286.04
L100.203 283.841
L100.331 283.841
L100.969 282.376
L101.734 284.208
L101.862 284.208
L102.5 281.277
L103.266 279.078
L103.393 278.345
L104.032 277.979
L104.797 275.781
L105.563 284.574
L107.095 278.345
L107.86 281.277
L107.988 280.91
L108.626 277.613
L109.391 287.505
L109.519 286.406
L110.285 283.475
L111.05 271.75
L111.689 276.513
L111.816 270.285
L113.986 253.065
L114.879 257.095
L116.283 284.208
L116.41 282.376
L117.942 268.819
L118.58 276.147
L118.707 276.147
L119.345 275.707
L120.111 282.742
L121.004 281.57
L121.643 279.445
L122.408 279.445
L122.536 278.345
L123.174 255.629
L124.067 279.811
L124.705 274.315
L125.471 278.712
L126.109 277.613
L126.365 280.177
L127.002 271.384
L127.13 272.483
L127.13 272.483
L127.64 280.544
L127.64 280.544
L127.768 279.445
L128.534 289.337
L128.661 288.604
L129.299 279.078
L130.065 281.277
L130.193 280.544
L130.831 279.445
L131.597 265.888
L132.362 240.607
L132.362 240.607
L133.894 275.781
L134.149 272.483
L134.659 250.5
L135.425 276.513
L136.318 277.613
L136.956 278.345
L137.722 270.285
L138.488 266.255
L139.254 259.293
L139.381 259.22
L140.019 250.5
L140.785 275.341
L141.551 265.888
L141.678 269.918
L143.082 270.651
L143.848 273.949
L143.975 273.949
L144.613 276.88
L145.379 277.979
L145.507 279.078
L146.145 267.72
L146.272 258.56
L146.91 268.819
L147.038 268.087
L147.676 262.957
L148.442 280.471
L149.208 290.363
L149.335 290.143
L149.973 293.001
L150.867 283.109
L151.505 287.505
L152.27 276.147
L153.036 275.781
L153.164 280.177
L153.802 278.345
L154.567 266.987
L155.333 267.72
L155.333 267.72
L156.099 267.72
L156.865 269.552
L157.63 271.091
L157.758 273.949
L158.396 263.69
L159.162 262.591
L159.927 274.975
L160.693 274.315
L160.821 273.216
L162.224 277.613
L162.99 280.91
L163.118 283.841
L163.756 283.841
L163.883 281.643
L164.521 265.888
L164.649 272.483
L165.287 275.781
L166.053 274.315
L166.819 270.651
L167.584 273.216
L167.712 272.117
L168.35 255.629
L169.116 269.186
L169.243 267.72
L169.881 276.88
L170.647 272.117
L170.775 269.552
L171.413 267.72
L172.178 275.414
L172.944 276.88
L173.072 278.345
L173.71 268.453
L174.475 276.513
L174.603 276.513
L176.007 266.621
L176.773 260.392
L176.9 261.345
L177.538 267.354
L178.304 260.759
L179.07 273.216
L179.835 277.613
L179.963 279.078
L180.601 277.246
L180.729 276.513
L181.367 279.811
L182.132 269.479
L182.26 284.94
L183.664 284.94
L183.791 280.91
L184.43 284.94
L185.195 284.94
L185.961 281.277
L186.727 272.483
L187.492 254.896
L188.258 269.186
L189.024 199.938
L189.151 274.315
L190.555 258.194
L191.321 253.797
L191.321 253.797
L192.852 264.423
L193.618 264.789
L194.384 262.224
L195.149 254.53
L195.915 258.56
L196.681 271.75
L198.212 276.147
L198.212 276.147
L198.978 260.759
L200.509 255.996
L201.275 274.682
L202.04 261.125
L202.806 272.483
L203.572 274.682
L203.699 277.173
L204.338 270.651
L205.103 269.186
L205.231 268.453
L205.869 260.392
L205.997 240.974
L206.124 258.927
L206.635 246.47
L206.635 246.47
L206.762 246.836
L207.4 260.026
L207.911 261.492
L208.166 261.418
L208.804 262.591
L209.059 272.85
L209.059 272.85
L209.442 273.582
L209.57 265.888
L209.825 271.311
L210.591 277.613
L210.846 269.918
L211.484 265.155
L211.867 260.392
L212.25 259.66
L212.505 258.927
L212.633 259.293
L212.888 259.293
L213.654 253.797
L213.654 253.797
L213.781 248.301
L214.164 247.202
L214.419 252.332
L214.547 251.526
L214.93 241.34
L215.185 239.142
L215.185 239.142
L215.313 254.53
L215.568 255.629
L215.695 257.828
L216.078 270.285
L216.461 267.72
L217.099 277.613
L217.992 277.613
L218.248 277.246
L218.248 277.246
L218.375 277.613
L218.631 277.613
L218.758 267.72
L219.013 268.087
L219.141 276.513
L219.396 275.781
L219.779 276.513
L219.907 277.613
L220.29 277.613
L220.29 277.613
L220.545 273.949
L220.672 273.216
L220.672 273.216
L220.928 276.513
L221.055 273.582
L221.31 275.781
L221.438 275.781
L221.693 277.246
L222.076 277.246
L222.204 275.414
L222.459 274.682
L222.587 274.682
L222.842 268.453
L222.842 268.453
L223.352 277.613
L223.735 277.613
L224.118 270.651
L224.373 268.819
L224.756 268.819
L224.884 271.018
L225.139 260.392
L225.267 135.82
L225.522 254.164
L225.649 253.797
L225.649 253.797
L225.777 251.965
L225.777 251.965
L225.905 252.698
L225.905 252.698
L226.032 251.965
L226.032 251.965
L226.16 244.638
L226.16 244.638
L226.415 255.996
L226.415 255.996
L226.67 163.665
L227.053 254.53
L227.181 253.065
L227.436 253.431
L227.819 262.957
L228.202 260.392
L228.329 259.953
L228.585 270.285
L228.712 269.186
L229.095 269.918
L229.35 269.186
L229.733 265.888
L229.861 240.241
L230.116 267.28
L230.244 265.815
L230.499 207.999
L230.882 208.731
L231.009 208.731
L231.264 262.591
L231.392 260.759
L231.647 250.5
L231.775 260.759
L232.158 240.974
L232.413 245.37
L232.541 245.004
L232.796 233.646
L232.796 233.646
L232.924 239.874
L233.179 245.37
L233.306 244.638
L233.562 245.37
L233.689 243.905
L233.944 256.362
L234.072 256.362
L234.327 257.828
L234.327 257.828
L234.71 256.728
L234.838 256.728
L235.093 255.556
L235.093 255.556
L235.476 268.453
L235.603 268.087
L235.859 245.37
L235.859 245.37
L236.242 246.103
L236.369 238.409
L236.624 253.065
L236.752 252.332
L237.007 268.306
L237.135 268.087
L237.518 262.591
L237.901 264.423
L238.156 264.056
L238.283 268.087
L238.539 261.125
L238.666 260.759
L239.049 258.194
L239.304 258.927
L239.432 258.56
L239.687 258.927
L239.815 259.66
L240.198 258.56
L240.453 258.56
L240.453 258.56
L240.836 255.996
L240.963 256.215
L241.346 257.461
L241.601 251.965
L241.729 255.996
L241.984 255.263
L242.112 256.728
L242.495 253.797
L242.878 255.556
L243.133 246.836
L243.516 259.293
L243.643 260.759
L243.898 260.392
L244.026 259.293
L244.281 259.66
L244.409 258.56
L244.664 258.487
L244.792 258.194
L245.047 255.996
L245.047 255.996
L245.175 257.828
L245.43 250.5
L245.557 257.828
L245.813 261.638
L246.196 256.728
L246.323 257.095
L246.578 249.694
L246.578 249.694
L246.706 250.5
L246.961 256.728
L247.089 255.629
L247.344 255.996
L247.727 255.629
L248.237 254.164
L248.62 252.332
L248.876 253.797
L248.876 253.797
L249.258 250.866
L249.641 260.392
L249.641 260.392
L249.769 258.56
L250.407 255.629
L250.534 240.974
L250.79 253.797
L250.917 252.332
L251.3 253.065
L251.555 252.332
L251.683 238.043
L251.938 249.034
L252.066 248.668
L252.321 251.233
L252.449 251.233
L252.704 249.034
L252.832 249.401
L253.087 247.569
L253.214 247.569
L253.47 249.327
L253.597 248.301
L253.852 253.724
L253.98 244.271
L254.235 243.538
L254.363 252.332
L254.746 235.844
L254.746 235.844
L255.001 245.077
L255.129 244.638
L255.129 244.638
L255.384 244.638
L255.511 250.72
L255.511 250.72
L255.767 251.599
L255.767 251.599
L255.894 257.095
L256.277 255.629
L256.532 240.974
L256.66 253.431
L256.66 253.431
L257.043 247.569
L257.298 244.271
L257.426 245.004
L257.681 235.844
L257.809 246.103
L258.064 250.866
L258.064 250.866
L258.574 246.836
L258.702 172.459
L258.83 171.726
L258.957 246.47
L259.212 247.202
L259.212 247.202
L259.34 246.836
L259.595 248.301
L259.595 248.301
L259.723 257.022
L259.978 256.362
L260.106 254.53
L260.361 246.47
L260.489 255.263
L260.871 244.638
L261.127 255.996
L261.254 240.974
L261.509 254.457
L261.892 247.202
L262.02 256.728
L262.275 246.836
L262.403 250.5
L262.658 248.301
L262.786 254.164
L263.041 254.164
L263.168 253.065
L263.551 252.332
L263.934 257.241
L264.189 218.99
L264.189 218.99
L264.317 247.569
L264.572 245.737
L264.7 247.422
L265.083 247.202
L265.338 243.832
L265.466 244.638
L265.593 244.271
L265.848 241.34
L266.104 245.737
L266.231 244.638
L266.614 245.004
L266.869 248.301
L266.997 231.081
L267.252 230.348
L267.38 231.081
L267.635 226.684
L267.763 229.616
L268.018 231.081
L268.145 231.081
L268.401 232.547
L268.528 231.081
L268.784 231.081
L268.911 229.616
L269.166 228.883
L269.294 228.15
L269.549 218.624
L269.677 239.142
L269.932 234.745
L270.06 248.668
L270.315 250.427
L270.443 250.133
L270.698 251.233
L270.825 239.142
L271.081 253.797
L271.463 252.991
L272.229 244.271
L272.612 240.974
L272.74 240.607
L273.122 231.081
L273.506 237.676
L273.761 233.279
L273.888 239.874
L274.143 239.142
L274.271 241.267
L274.526 241.633
L274.654 251.965
L274.909 258.56
L274.909 258.56
L275.037 258.927
L275.292 250.793
L275.675 253.431
L275.802 252.332
L276.058 254.09
L276.185 246.103
L276.441 244.271
L276.568 253.431
L276.823 204.335
L276.951 251.233
L277.206 252.332
L277.589 250.5
L277.717 239.142
L278.099 236.211
L278.355 261.125
L278.482 260.026
L278.865 254.53
L279.12 255.263
L279.248 252.698
L279.503 250.866
L279.631 258.194
L279.886 258.927
L280.269 249.401
L280.269 249.401
L280.397 216.059
L280.652 245.004
L280.779 240.974
L281.035 238.775
L281.035 238.775
L281.162 229.982
L281.417 232.913
L281.545 232.18
L281.801 240.9
L282.183 226.318
L282.311 232.913
L282.566 230.715
L282.694 225.585
L282.949 229.249
L283.077 227.784
L283.332 232.913
L283.459 230.715
L283.715 229.176
L283.842 217.525
L284.097 227.344
L284.225 225.219
L284.48 223.753
L284.608 220.822
L284.736 220.749
L285.246 210.49
L285.374 219.357
L285.629 216.426
L285.756 213.494
L286.139 193.709
L286.395 214.96
L286.777 212.395
L286.905 210.93
L287.288 214.96
L287.543 214.96
L287.926 207.266
L288.054 211.296
L288.309 203.235
L288.437 209.757
L288.819 218.257
L289.074 216.792
L289.202 215.326
L289.457 221.555
L289.585 228.077
L289.84 225.952
L289.968 227.417
L290.223 226.684
L290.351 218.257
L290.606 218.257
L290.733 217.525
L290.989 211.589
L291.116 216.059
L291.372 212.395
L291.499 214.594
L291.754 203.602
L292.265 212.395
L292.52 210.93
L292.52 210.93
L292.648 217.525
L292.903 218.257
L293.031 221.189
L293.413 218.257
L293.669 217.525
L293.669 217.525
L294.051 211.662
L294.051 211.662
L294.179 212.395
L294.434 210.93
L294.562 212.395
L294.817 139.85
L294.817 139.85
L294.945 206.533
L295.2 204.994
L295.328 204.994
L295.966 199.938
L296.349 189.679
L296.476 192.171
L296.731 192.244
L296.859 191.877
L297.114 190.412
L297.242 192.61
L297.88 216.792
L298.008 210.93
L298.263 57.8519
L298.39 204.335
L298.646 208.731
L298.773 207.999
L299.028 201.404
L299.156 206.533
L299.411 203.602
L299.794 208.731
L299.922 221.921
L300.177 231.448
L300.177 231.448
L300.305 223.753
L300.56 228.516
L300.687 223.387
L300.943 227.051
L301.07 218.99
L301.326 224.413
L301.453 224.12
L301.708 206.533
L302.091 213.128
L302.219 180.153
L302.474 224.12
L302.474 224.12
L302.857 204.335
L302.985 216.792
L303.112 215.326
L303.368 217.525
L303.75 225.585
L304.005 224.853
L304.005 224.853
L304.133 217.891
L304.388 217.158
L304.771 226.318
L304.899 226.318
L305.282 221.921
L305.537 224.12
L305.664 222.654
L305.92 227.71
L306.047 226.318
L306.303 225.585
L306.43 224.853
L306.685 232.18
L306.813 229.249
L307.196 232.913
L307.579 215.326
L307.834 203.602
L307.962 218.111
L308.217 229.982
L308.344 229.249
L308.6 238.043
L308.6 238.043
L310.259 238.043
L310.514 239.508
L310.642 239.508
L310.897 237.31
L311.024 239.508
L311.28 233.646
L311.407 239.508
L312.173 239.508
L312.428 239.142
L312.556 235.478
L313.194 229.982
L313.577 227.784
L313.704 226.318
L313.96 239.508
L314.342 239.508
L314.725 204.335
L314.853 231.814
L315.108 239.508
L315.236 235.111
L315.491 233.499
L315.619 239.508
L315.874 232.18
L316.257 204.335
L316.384 204.335
L317.022 238.775
L317.15 237.896
L317.405 234.379
L317.533 188.946
L317.788 207.266
L317.916 237.896
L318.171 202.869
L318.298 218.184
L318.554 227.784
L318.554 227.784
L318.681 238.043
L319.064 240.974
L319.319 222.654
L319.319 222.654
L319.447 244.638
L319.83 247.202
L320.085 242.806
L320.213 244.271
L320.851 241.706
L320.851 241.706
L321.234 241.706
L321.616 228.516
L322.127 221.189
L322.765 221.921
L322.893 219.723
L323.148 218.99
L323.275 216.792
L323.531 218.844
L323.658 217.525
L323.914 216.059
L323.914 216.059
L324.041 216.059
L324.296 213.861
L324.424 214.594
L324.807 210.197
L325.062 220.456
L325.19 218.917
L325.573 210.124
L325.828 215.326
L325.956 214.594
L326.211 233.646
L326.338 234.379
L326.721 238.409
L326.976 224.12
L327.104 202.869
L327.359 239.728
L327.487 238.409
L327.742 233.646
L327.87 239.142
L328.125 243.538
L328.252 243.172
L328.508 236.943
L328.635 254.164
L329.018 250.5
L329.273 247.569
L329.401 247.935
L329.656 250.866
L329.784 250.5
L330.039 253.431
L330.167 252.698
L330.422 248.301
L330.55 251.599
L330.805 251.233
L330.933 253.065
L331.188 205.067
L331.315 255.263
L331.57 255.263
L331.698 254.53
L331.953 253.797
L332.081 252.332
L332.464 236.211
L332.719 236.211
L332.847 235.478
L333.102 234.745
L333.23 234.012
L333.485 238.775
L333.612 238.775
L333.868 232.18
L333.995 232.18
L334.25 233.646
L334.378 231.448
L334.633 240.9
L334.761 236.577
L335.016 234.379
L335.144 234.305
L335.399 250.866
L335.527 233.646
L335.782 251.965
L335.909 251.965
L336.165 248.668
L336.292 239.874
L336.548 239.874
L336.675 246.763
L337.058 243.538
L337.441 251.233
L337.696 249.034
L337.824 251.965
L338.079 251.233
L338.589 247.569
L338.845 250.133
L338.972 247.569
L339.355 243.905
L339.61 247.129
L339.738 247.129
L340.121 246.103
L340.504 246.03
L340.759 246.689
L340.886 245.37
L341.269 189.313
L341.525 218.99
L341.652 218.257
L341.907 245.37
L342.035 245.004
L342.29 246.616
L342.418 246.616
L343.056 244.271
L343.184 242.806
L343.566 230.715
L343.822 242.439
L343.822 242.439
L343.949 241.34
L344.204 227.784
L344.332 227.051
L344.588 221.921
L344.97 229.249
L345.098 239.801
L345.353 212.762
L345.353 212.762
L345.481 211.662
L345.863 236.943
L346.119 233.279
L346.246 234.745
L346.502 230.348
L346.629 234.012
L346.884 230.348
L347.012 231.814
L347.267 239.874
L347.395 236.943
L347.65 236.211
L347.778 237.676
L348.161 223.021
L348.416 225.219
L348.543 223.753
L348.799 223.753
L348.926 239.142
L349.181 239.142
L349.309 237.676
L349.564 244.638
L349.692 243.538
L349.947 239.874
L350.075 203.602
L350.33 221.921
L350.458 240.974
L350.713 237.676
L350.84 204.335
L351.096 236.943
L351.224 237.676
L351.606 245.737
L351.861 224.853
L351.989 236.577
L352.372 240.9
L352.755 236.577
L353.01 254.31
L353.393 247.569
L353.52 248.008
L353.776 247.569
L353.776 247.569
L354.158 238.409
L354.286 238.409
L354.541 225.219
L354.669 225.952
L354.924 241.34
L355.052 238.409
L355.307 239.874
L355.307 239.874
L355.69 236.577
L355.817 233.646
L356.073 241.706
L356.073 241.706
L356.2 237.676
L356.583 232.547
L356.966 236.577
L357.221 234.672
L357.477 228.883
L357.987 225.952
L358.115 224.486
L358.497 222.288
L358.753 217.818
L358.88 218.624
L359.136 218.551
L359.263 217.891
L359.646 212.762
L359.901 213.494
L360.029 210.563
L360.284 221.555
L360.412 202.869
L360.667 201.404
L360.795 198.472
L361.05 217.158
L361.177 216.792
L361.433 223.753
L361.56 231.814
L361.816 228.883
L361.943 231.081
L362.198 227.417
L362.326 230.348
L362.581 227.417
L362.709 232.547
L363.092 225.952
L363.347 218.99
L363.474 229.616
L363.73 227.417
L363.857 234.012
L364.113 232.547
L364.24 232.547
L364.495 232.18
L364.623 231.448
L364.878 225.219
L365.006 224.853
L365.261 228.516
L365.389 234.012
L365.772 233.646
L366.027 239.874
L366.027 239.874
L366.155 204.335
L366.41 242.073
L366.537 233.646
L366.92 242.439
L367.303 230.715
L367.941 218.99
L368.069 219.723
L368.324 226.318
L368.451 224.853
L368.707 225.585
L369.09 221.921
L369.472 216.792
L369.6 218.99
L369.855 220.456
L369.983 219.723
L370.238 215.326
L370.366 224.12
L370.621 219.723
L370.749 244.638
L371.004 242.439
L371.131 236.943
L371.514 251.965
L371.769 255.629
L371.897 255.629
L372.152 226.318
L372.28 255.629
L373.301 255.629
L373.428 248.301
L373.684 251.599
L373.811 250.866
L374.067 252.332
L374.194 251.233
L374.577 237.676
L374.832 239.142
L374.96 240.607
L375.215 240.241
L375.343 240.607
L375.598 249.401
L375.726 249.401
L375.981 250.5
L376.108 249.767
L376.364 249.034
L376.746 243.538
L376.874 242.073
L377.129 241.34
L377.257 241.34
L377.64 237.31
L377.767 234.379
L378.023 233.646
L378.278 187.481
L378.405 225.585
L378.661 232.913
L378.788 232.18
L379.044 233.646
L379.426 242.073
L379.554 239.142
L379.809 244.638
L379.937 244.271
L380.192 247.569
L380.575 245.737
L380.703 243.905
L380.958 242.439
L381.086 239.874
L381.468 219.723
L381.723 242.806
L381.851 242.073
L382.107 244.198
L382.234 243.538
L382.489 241.34
L383 234.012
L383.383 238.409
L383.638 237.676
L384.021 232.473
L384.148 232.4
L384.403 229.616
L384.786 219.357
L385.297 202.136
L385.552 204.408
L385.68 185.649
L385.935 210.563
L386.062 211.296
L386.318 209.464
L386.445 230.348
L386.701 232.18
L386.828 232.18
L387.083 238.775
L387.211 236.577
L387.466 234.379
L387.594 226.318
L387.849 235.111
L387.977 232.18
L388.232 235.478
L388.232 235.478
L388.36 239.142
L388.615 237.31
L388.742 240.827
L388.998 240.827
L389.125 242.439
L389.38 239.508
L389.763 232.913
L389.891 249.401
L390.146 243.905
L390.274 254.457
L390.657 250.866
L390.912 252.698
L391.039 247.935
L391.295 253.431
L391.422 252.332
L391.678 247.935
L391.805 258.56
L392.06 259.293
L392.188 259.293
L392.443 268.087
L392.954 262.957
L393.209 255.556
L393.337 256.362
L393.592 247.935
L393.719 247.569
L394.102 247.569
L394.102 247.569
L394.485 256.362
L394.74 267.354
L394.868 267.354
L395.123 265.155
L395.251 265.888
L395.634 262.591
L395.889 259.66
L396.016 259.586
L396.272 258.487
L396.399 258.927
L396.655 257.095
L397.037 258.927
L397.165 258.927
L397.42 257.828
L397.548 258.487
L397.803 257.095
L397.931 258.56
L398.186 257.754
L398.569 258.927
L398.696 255.556
L398.952 255.263
L399.079 239.142
L399.335 239.142
L399.462 255.629
L399.845 240.607
L400.1 240.534
L400.228 255.629
L400.483 254.53
L400.611 254.896
L400.866 247.569
L400.993 248.668
L401.249 245.37
L401.376 246.103
L401.632 245.37
L401.759 243.905
L402.014 243.538
L402.142 244.271
L402.525 240.241
L402.78 239.142
L402.908 242.439
L403.163 218.257
L403.291 242.806
L403.673 232.913
L403.929 242.439
L404.056 241.34
L404.311 240.974
L404.439 241.34
L404.694 240.974
L404.822 242.073
L405.205 238.409
L405.46 239.142
L405.588 238.409
L405.843 251.233
L405.97 249.767
L406.226 248.668
L406.353 246.103
L406.609 246.103
L406.736 251.965
L406.991 255.996
L407.119 255.263
L407.374 255.996
L407.502 248.301
L407.757 256.362
L407.885 256.728
L408.14 253.431
L408.268 249.401
L408.65 247.935
L408.906 253.065
L409.289 238.409
L409.416 238.409
L409.799 256.362
L410.182 234.012
L410.437 247.935
L410.565 245.004
L410.82 227.417
L410.948 246.836
L411.33 244.198
L411.968 241.706
L412.096 241.706
L412.351 240.974
L412.479 239.874
L412.607 239.874
L412.989 235.478
L413.245 235.478
L413.627 232.547
L414.01 236.137
L414.266 234.012
L414.393 236.943
L414.648 235.478
L414.776 231.814
L415.031 237.676
L415.159 235.478
L415.414 240.974
L415.542 220.089
L415.797 217.158
L415.925 217.671
L416.18 215.619
L416.307 212.762
L416.69 236.211
L417.073 240.974
L417.328 239.801
L417.456 244.638
L417.711 244.271
L417.839 244.638
L418.222 248.301
L418.604 258.927
L418.86 257.681
L418.987 254.823
L419.243 234.012
L419.37 240.607
L419.625 247.569
L419.753 246.47
L420.008 245.37
L420.519 241.706
L420.902 235.844
L421.157 242.439
L421.284 242.806
L421.54 239.874
L421.667 239.874
L421.922 245.737
L422.05 244.638
L422.305 235.844
L422.433 247.569
L422.688 245.37
L422.816 247.935
L423.071 247.202
L423.454 257.828
L423.581 267.72
L423.964 257.828
L424.22 258.487
L424.347 258.194
L424.602 249.767
L424.73 256.362
L424.985 258.194
L425.113 256.362
L425.368 254.53
L425.496 255.629
L425.751 255.629
L425.879 255.263
L426.261 233.279
L426.517 231.081
L426.644 228.15
L426.899 228.883
L427.282 239.142
L427.41 253.431
L427.665 250.866
L427.793 247.569
L428.048 243.905
L428.176 252.698
L428.431 246.103
L428.558 250.133
L428.814 249.034
L428.941 241.34
L429.197 253.431
L429.324 253.065
L429.707 252.698
L430.09 232.18
L430.345 233.646
L430.473 230.715
L430.728 235.844
L430.856 250.5
L431.238 246.47
L431.494 245.737
L432.004 242.439
L432.259 242.806
L432.387 242.439
L432.642 241.34
L432.642 241.34
L432.77 239.142
L433.025 236.943
L433.153 237.676
L433.408 240.607
L433.536 240.607
L433.791 238.409
L433.918 240.607
L434.301 238.043
L434.556 242.439
L434.684 242.439
L434.939 242.806
L435.067 205.067
L435.322 188.067
L435.45 188.067
L435.705 252.698
L435.833 253.065
L436.088 250.5
L436.215 253.431
L436.471 253.651
L436.598 251.965
L436.854 210.197
L436.981 210.93
L437.236 208.731
L437.364 247.569
L438.002 257.461
L438.13 262.224
L438.513 257.461
L438.768 260.759
L438.895 260.026
L439.151 257.095
L439.533 258.927
L439.661 258.487
L439.916 259.293
L440.044 239.142
L440.427 234.745
L440.682 262.224
L441.065 262.224
L441.192 261.858
L441.448 261.492
L441.575 262.737
L441.831 259.66
L441.831 259.66
L441.958 259.66
L442.341 257.828
L442.596 260.392
L442.724 259.66
L442.979 258.927
L443.107 260.392
L443.49 255.263
L443.745 259.66
L443.872 258.194
L444.255 262.224
L444.638 268.819
L444.893 269.625
L445.021 269.625
L445.276 268.087
L445.404 268.087
L445.659 267.72
L446.042 266.621
L446.169 265.815
L446.552 266.255
L446.808 267.72
L446.935 266.621
L447.318 266.621
L447.573 263.323
L447.701 260.026
L448.084 257.095
L448.339 253.065
L448.467 253.431
L448.722 253.431
L448.849 257.828
L449.105 257.754
L449.232 252.698
L449.487 257.828
L449.487 257.828
L449.615 257.388
L449.87 257.828
L450.126 257.095
L450.381 257.095
L450.636 263.323
L450.764 263.323
L451.146 262.957
L451.402 217.158
L451.529 260.759
L451.785 262.224
L451.912 261.492
L452.167 261.492
L452.295 260.392
L452.55 259.293
L452.678 258.194
L452.933 257.461
L453.061 257.828
L453.316 240.974
L453.444 257.828
L453.699 257.095
L453.826 257.095
L454.082 256.362
L454.209 258.927
L454.465 259.586
L454.592 258.853
L454.975 246.836
L455.358 259.66
L455.741 255.263
L455.996 233.279
L456.123 251.599
L456.379 248.301
L456.506 250.5
L456.762 249.767
L456.889 249.767
L457.144 247.569
L457.272 247.569
L457.527 248.668
L457.655 247.935
L458.038 250.866
L458.293 249.401
L458.421 247.569
L458.803 254.896
L459.059 253.431
L459.186 251.599
L459.442 249.767
L459.569 250.866
L459.824 249.767
L459.952 241.34
L460.207 257.828
L460.335 238.409
L460.718 233.939
L461.101 260.026
L461.356 260.026
L461.484 253.797
L461.739 258.927
L462.121 255.996
L462.249 256.362
L462.504 259.586
L462.632 258.56
L462.887 263.69
L463.015 261.858
L463.27 167.696
L463.398 262.224
L464.036 256.289
L464.163 253.431
L464.419 258.194
L464.546 257.095
L464.801 257.461
L464.929 257.095
L465.184 254.896
L465.312 257.828
L465.567 255.996
L465.567 255.996
L465.695 247.935
L466.078 246.103
L466.46 244.638
L466.716 256.728
L467.226 249.034
L467.481 248.668
L467.864 260.026
L467.992 260.319
L468.247 248.301
L468.757 245.737
L469.013 245.737
L469.14 244.638
L469.396 243.538
L469.523 242.073
L469.778 243.172
L469.906 237.31
L470.161 242.806
L470.289 241.34
L470.544 242.439
L470.672 242.439
L470.927 226.318
L471.055 225.585
L471.31 221.189
L471.437 242.439
L471.82 242.439
L472.075 242.073
L472.203 242.439
L472.458 241.34
L472.586 241.34
L472.841 240.974
L472.969 241.34
L473.224 242.439
L473.352 263.69
L473.734 261.125
L474.118 257.095
L474.373 255.996
L474.5 261.125
L474.883 251.233
L475.138 253.358
L475.521 246.103
L475.649 260.319
L476.032 254.896
L476.287 201.404
L476.414 244.638
L476.67 245.004
L476.797 243.538
L477.052 231.448
L477.563 260.392
L477.818 260.392
L477.946 242.439
L478.201 260.026
L478.329 261.125
L478.584 261.858
L478.711 261.492
L478.967 262.591
L479.094 260.392
L479.477 242.439
L479.86 260.759
L480.115 262.957
L480.243 262.884
L480.626 260.026
L480.881 262.224
L481.009 261.492
L481.264 259.293
L481.391 262.811
L481.647 254.164
L481.774 254.164
L482.03 261.858
L482.157 260.392
L482.412 262.224
L482.54 251.233
L482.795 251.233
L482.923 260.759
L483.178 265.522
L483.306 262.884
L483.561 260.026
L483.689 260.026
L484.071 251.965
L484.327 250.5
L484.454 253.431
L484.709 249.401
L484.837 260.759
L485.092 261.125
L485.22 260.026
L485.475 256.728
L485.858 253.797
L485.986 251.599
L486.241 252.698
L486.241 252.698
L486.368 252.698
L486.624 244.271
L486.751 247.569
L487.007 250.133
L487.134 249.767
L487.517 239.142
L487.772 239.874
L487.9 250.133
L488.283 247.935
L488.538 247.202
L488.666 245.004
L488.921 244.271
L489.048 243.172
L489.431 205.067
L489.686 197.373
L489.814 202.869
L490.069 242.439
L490.197 241.706
L490.452 246.836
L490.58 240.607
L490.835 243.538
L490.963 243.538
L491.218 243.905
L491.345 240.974
L491.601 241.34
L491.728 244.271
L491.984 242.439
L492.111 247.202
L492.494 250.5
L492.877 239.142
L493.132 234.745
L493.26 234.745
L493.515 232.547
L493.643 214.227
L493.898 210.93
L494.026 214.96
L494.281 239.874
L494.408 235.478
L494.663 239.874
L494.791 239.142
L495.046 229.616
L495.174 238.409
L495.429 239.508
L495.557 240.974
L495.812 238.409
L495.812 238.409
L495.94 240.241
L496.322 236.577
L496.705 240.9
L496.961 240.9
L497.088 239.142
L497.343 244.271
L497.471 252.698
L497.726 254.896
L497.854 254.53
L498.237 239.874
L498.492 234.745
L498.62 236.211
L498.875 237.676
L499.002 229.249
L499.385 232.913
L499.64 228.516
L499.768 231.448
L500.023 241.34
L500.151 241.706
L500.406 236.211
L500.534 250.133
L500.789 250.866
L500.917 256.362
L501.172 255.263
L501.299 265.888
L501.555 218.624
L501.682 254.896
L501.938 257.461
L502.065 265.742
L502.448 251.599
L502.703 246.103
L503.086 250.5
L503.214 250.5
L503.469 246.836
L503.597 247.569
L503.852 251.233
L503.979 249.767
L504.235 254.53
L504.362 251.599
L504.617 251.599
L505.128 249.034
L505.383 251.233
L506.277 247.935
L506.659 250.133
L506.915 195.541
L507.042 195.541
L507.297 194.809
L507.68 192.61
L507.808 183.084
L508.063 183.084
L508.191 178.687
L508.446 177.222
L508.574 179.347
L508.829 192.61
L509.339 250.793
L509.595 248.301
L509.722 248.301
L509.977 248.668
L510.36 247.202
L510.488 255.556
L510.871 253.724
L511.126 247.202
L511.509 240.607
L511.636 222.654
L511.892 255.263
L512.019 256.289
L512.274 255.629
L512.402 251.965
L512.657 255.996
L512.785 255.922
L513.168 253.358
L513.423 253.797
L513.551 251.599
L513.806 250.866
L513.933 254.164
L514.189 247.935
L514.317 253.065
L514.572 241.34
L514.699 227.417
L514.954 236.211
L515.082 231.081
L515.337 227.784
L515.465 228.883
L515.72 256.362
L515.848 256.655
L516.103 254.53
L516.231 254.53
L516.486 255.263
L516.613 255.263
L516.996 253.211
L517.251 253.358
L517.379 252.332
L517.762 242.073
L518.017 239.142
L518.145 218.99
L518.4 213.861
L518.4 213.861" style="fill:none;stroke:#ff0000;stroke-linecap:square;"/>
   </g>
   <g id="line2d_2">
    <path clip-path="url(#pcb2bf987bf)" d="
M72 339.606
L72.1276 339.459
L72.7657 339.459
L72.8933 339.679
L73.5314 339.679
L73.659 339.533
L75.8285 339.459
L75.9561 339.386
L78.1256 339.459
L78.1256 339.459
L78.2532 339.533
L78.8915 339.533
L79.0189 339.899
L81.1885 339.826
L81.316 339.752
L81.9542 339.752
L82.0816 339.533
L82.7197 339.533
L82.8473 339.386
L84.2511 339.313
L84.3787 339.239
L85.7825 339.313
L85.9101 339.386
L86.5482 339.386
L86.6758 339.826
L88.8453 339.752
L88.8453 339.752
L88.9729 339.679
L89.611 339.679
L89.7386 339.972
L90.3767 339.972
L91.0148 339.752
L91.9081 339.826
L92.6738 340.046
L93.3118 339.972
L94.2051 339.679
L94.9708 339.679
L95.7365 339.972
L97.1403 339.752
L98.0336 339.972
L100.331 339.899
L100.969 339.826
L101.862 339.899
L103.393 339.606
L104.797 339.533
L105.563 339.533
L106.329 339.899
L108.626 339.826
L109.519 340.119
L110.285 339.899
L111.05 339.899
L111.816 339.752
L113.986 339.972
L114.879 339.679
L117.048 340.046
L117.942 339.972
L118.707 339.679
L119.345 339.972
L120.111 339.972
L121.004 339.826
L124.705 339.899
L125.471 339.606
L126.237 339.972
L126.237 339.972
L126.365 339.972
L127.13 340.119
L127.13 340.119
L127.768 340.046
L129.299 340.265
L130.831 340.046
L131.597 339.972
L132.362 340.119
L132.362 340.119
L134.659 340.046
L135.425 339.826
L136.318 340.046
L137.722 339.972
L138.488 339.679
L140.785 339.606
L141.678 340.046
L142.316 339.972
L143.975 340.046
L145.507 340.119
L146.272 340.192
L147.038 339.972
L148.442 340.119
L149.973 340.632
L150.867 340.558
L151.505 340.339
L153.164 340.412
L153.802 340.119
L154.567 339.972
L155.333 339.606
L155.333 339.606
L157.758 339.606
L158.396 339.752
L159.162 339.533
L159.927 339.459
L160.821 339.826
L162.224 339.826
L163.118 340.119
L163.883 340.265
L165.287 339.899
L166.053 340.046
L166.819 339.899
L169.243 339.972
L169.881 340.119
L170.775 340.119
L171.413 339.752
L173.072 340.119
L173.71 339.972
L176.007 339.899
L176.9 339.679
L178.304 339.606
L179.07 339.679
L180.729 340.046
L181.367 339.899
L182.898 340.265
L183.791 340.265
L184.43 340.046
L185.195 340.339
L185.961 340.192
L186.727 339.899
L187.492 339.972
L188.258 339.899
L189.151 340.119
L191.321 339.606
L191.321 339.606
L194.384 339.679
L195.915 339.533
L198.212 340.046
L198.212 340.046
L198.978 339.972
L200.509 339.606
L202.04 339.972
L203.699 339.972
L204.338 340.192
L205.231 339.899
L205.997 339.826
L206.124 339.606
L208.166 339.606
L209.442 340.119
L209.825 340.119
L210.591 339.972
L210.846 340.339
L211.356 340.339
L211.484 340.046
L212.122 340.046
L212.25 339.826
L213.654 339.899
L213.654 339.899
L213.781 339.606
L215.951 339.533
L215.951 339.533
L216.078 339.972
L216.589 339.972
L216.589 339.972
L216.844 340.265
L218.248 340.192
L218.248 340.192
L218.375 340.046
L219.013 340.046
L219.141 339.826
L219.779 339.826
L219.907 339.972
L222.076 339.972
L222.204 340.119
L222.842 340.119
L222.842 340.119
L223.352 339.899
L223.608 339.899
L223.735 340.632
L224.373 340.632
L224.501 340.265
L225.139 340.265
L225.267 340.119
L225.905 340.119
L225.905 340.119
L226.16 339.899
L226.16 339.899
L228.202 339.899
L228.329 340.119
L229.733 340.192
L229.861 339.972
L232.03 339.899
L232.158 339.679
L233.562 339.606
L233.689 339.826
L235.859 339.826
L235.859 339.826
L235.986 340.192
L238.921 340.119
L239.049 339.899
L243.516 339.899
L243.643 340.265
L245.047 340.192
L245.047 340.192
L245.175 339.972
L246.578 339.972
L246.578 339.972
L246.706 339.826
L247.344 339.826
L247.855 339.972
L248.62 339.899
L248.876 339.899
L248.876 339.899
L249.003 339.752
L249.641 339.752
L249.641 339.752
L249.769 340.119
L250.407 340.119
L250.534 339.899
L252.704 339.826
L252.832 339.752
L254.235 339.679
L254.363 339.899
L257.298 339.899
L257.426 339.679
L258.064 339.679
L258.064 339.679
L258.574 339.972
L258.83 339.972
L258.957 339.752
L259.595 339.752
L259.595 339.752
L259.723 340.046
L262.658 339.972
L262.786 339.899
L265.593 339.899
L265.848 339.752
L270.315 339.679
L270.443 340.046
L271.081 340.046
L271.463 339.899
L274.909 339.972
L274.909 339.972
L275.037 340.265
L275.675 340.265
L275.802 340.119
L277.972 340.119
L277.972 340.119
L278.099 340.265
L278.738 340.265
L278.865 340.558
L279.503 340.558
L279.631 340.412
L280.269 340.412
L280.269 340.412
L280.397 340.192
L281.035 340.192
L281.035 340.192
L281.162 340.046
L282.566 340.046
L282.694 339.826
L283.332 339.826
L283.459 339.679
L284.097 339.679
L284.225 339.459
L285.629 339.386
L285.756 339.313
L288.692 339.239
L288.819 339.533
L290.223 339.606
L290.351 339.752
L290.989 339.752
L291.116 339.533
L296.349 339.459
L296.476 339.239
L297.88 339.313
L298.008 339.679
L299.411 339.606
L299.539 339.459
L300.177 339.459
L300.177 339.459
L300.305 339.899
L300.943 339.899
L301.07 339.752
L307.068 339.752
L307.068 339.752
L307.196 339.972
L308.6 339.899
L308.6 339.899
L308.727 340.412
L309.365 340.412
L309.493 340.119
L310.897 340.046
L311.024 339.826
L312.428 339.899
L312.556 339.606
L313.96 339.533
L314.087 339.752
L314.725 339.752
L314.853 339.533
L317.022 339.606
L317.15 339.899
L318.554 339.826
L318.554 339.826
L318.681 339.752
L319.319 339.752
L319.319 339.752
L319.447 340.046
L320.851 340.119
L320.851 340.119
L321.616 340.192
L322.127 339.972
L324.296 339.826
L326.211 339.752
L326.338 340.192
L326.976 340.192
L327.104 340.046
L327.742 340.046
L327.87 340.192
L328.508 340.192
L328.635 340.412
L329.273 340.412
L329.401 340.192
L331.57 340.265
L331.698 340.485
L332.336 340.485
L332.464 340.339
L333.868 340.265
L333.995 340.119
L334.633 340.119
L334.761 340.265
L336.165 340.265
L336.292 340.119
L339.227 340.046
L339.355 339.899
L340.759 339.972
L340.886 340.046
L343.822 339.972
L343.822 339.972
L343.949 339.899
L345.353 339.826
L345.353 339.826
L345.481 339.752
L347.65 339.826
L347.778 339.972
L349.181 339.972
L349.309 340.119
L349.947 340.119
L350.075 340.265
L352.244 340.339
L352.372 340.485
L353.01 340.485
L353.138 340.705
L354.541 340.632
L354.669 340.265
L357.477 340.192
L357.732 339.972
L360.667 339.972
L360.795 339.826
L361.433 339.826
L361.56 340.046
L362.964 340.119
L363.092 340.265
L366.027 340.192
L366.027 340.192
L366.155 340.412
L366.792 340.412
L366.92 340.558
L369.09 340.485
L369.983 340.412
L370.621 340.412
L370.749 340.558
L372.918 340.558
L373.046 340.339
L373.684 340.339
L373.684 340.339
L373.811 340.119
L376.746 340.119
L376.874 339.899
L378.278 339.826
L378.405 339.752
L379.809 339.826
L379.937 340.046
L382.107 339.972
L382.234 340.339
L382.872 340.339
L383 340.192
L387.466 340.192
L387.594 340.046
L388.232 340.046
L388.232 340.046
L388.36 345.322
L388.998 345.322
L389.125 340.192
L390.529 340.265
L390.657 340.412
L392.06 340.485
L392.188 340.632
L393.592 340.558
L393.719 340.412
L395.123 340.412
L395.251 340.632
L395.889 340.632
L396.016 340.412
L397.42 340.339
L397.548 340.265
L401.249 340.339
L401.376 340.119
L405.843 340.046
L405.97 340.339
L406.609 340.339
L406.736 340.119
L407.374 340.119
L407.502 340.485
L410.437 340.485
L410.565 340.339
L411.203 340.339
L411.33 340.192
L412.607 340.119
L414.266 339.899
L414.393 339.972
L417.328 340.046
L417.456 340.119
L418.094 340.119
L418.222 340.265
L419.625 340.339
L419.753 340.046
L420.391 340.046
L420.519 339.899
L421.922 339.899
L422.05 340.119
L423.454 340.119
L423.581 340.485
L424.22 340.485
L424.347 340.632
L425.751 340.558
L425.879 340.412
L426.517 340.412
L426.644 340.192
L427.282 340.192
L427.41 340.339
L428.048 340.339
L428.176 340.192
L429.579 340.192
L429.707 340.412
L430.345 340.412
L430.473 340.192
L432.642 340.119
L432.642 340.119
L432.77 340.046
L435.705 340.119
L435.833 340.339
L437.236 340.412
L437.364 340.192
L438.002 340.192
L438.13 340.705
L439.533 340.632
L439.661 340.558
L444.128 340.558
L444.255 340.705
L445.659 340.632
L446.169 340.485
L447.956 340.412
L448.084 340.119
L451.019 340.119
L451.146 340.265
L452.55 340.265
L452.678 340.119
L453.316 340.119
L453.444 339.972
L454.082 339.972
L454.209 340.119
L456.379 340.119
L456.506 339.972
L457.144 339.972
L457.272 339.826
L457.91 339.826
L458.038 340.046
L458.676 340.046
L458.803 340.192
L459.442 340.192
L459.569 339.899
L460.207 339.899
L460.335 340.192
L460.973 340.192
L461.101 340.412
L463.27 340.339
L463.398 340.558
L464.036 340.558
L464.163 340.265
L466.333 340.192
L466.46 340.119
L467.098 340.119
L467.098 340.119
L467.226 339.972
L467.864 339.972
L467.992 340.485
L468.63 340.485
L468.757 340.339
L469.396 340.339
L469.523 340.192
L476.287 340.192
L476.414 340.046
L477.818 339.972
L477.946 340.412
L482.412 340.412
L482.54 340.558
L483.944 340.558
L484.071 340.192
L487.007 340.119
L487.134 340.046
L488.538 340.046
L488.666 339.899
L492.366 339.899
L492.494 340.265
L493.132 340.265
L493.26 340.046
L493.898 340.046
L494.026 339.899
L494.663 339.899
L494.791 340.265
L497.726 340.265
L497.854 340.485
L498.492 340.485
L498.62 340.265
L499.258 340.265
L499.258 340.265
L499.385 340.412
L500.023 340.412
L500.151 340.558
L501.555 340.632
L501.682 340.705
L502.32 340.705
L502.448 340.485
L506.149 340.412
L506.277 340.339
L508.446 340.339
L508.574 340.119
L509.212 340.119
L509.339 340.412
L511.509 340.485
L511.636 340.558
L514.572 340.558
L514.699 340.412
L516.103 340.412
L516.231 340.632
L517.634 340.558
L517.762 340.412
L518.4 340.412
L518.4 340.412" style="fill:none;stroke:#008000;stroke-linecap:square;"/>
   </g>
   <g id="patch_3">
    <path d="
M72 43.2
L518.4 43.2" style="fill:none;stroke:#000000;stroke-linecap:square;stroke-linejoin:miter;"/>
   </g>
   <g id="patch_4">
    <path d="
M518.4 345.6
L518.4 43.2" style="fill:none;stroke:#000000;stroke-linecap:square;stroke-linejoin:miter;"/>
   </g>
   <g id="patch_5">
    <path d="
M72 345.6
L518.4 345.6" style="fill:none;stroke:#000000;stroke-linecap:square;stroke-linejoin:miter;"/>
   </g>
   <g id="patch_6">
    <path d="
M72 345.6
L72 43.2" style="fill:none;stroke:#000000;stroke-linecap:square;stroke-linejoin:miter;"/>
   </g>
   <g id="matplotlib.axis_1">
    <g id="xtick_1">
     <g id="line2d_3">
      <defs>
       <path d="
M0 0
L0 -4" id="m93b0483c22" style="stroke:#000000;stroke-width:0.5;"/>
      </defs>
      <g>
       <use style="stroke:#000000;stroke-width:0.5;" x="117.941468267" xlink:href="#m93b0483c22" y="345.6"/>
      </g>
     </g>
     <g id="line2d_4">
      <defs>
       <path d="
M0 0
L0 4" id="m741efc42ff" style="stroke:#000000;stroke-width:0.5;"/>
      </defs>
      <g>
       <use style="stroke:#000000;stroke-width:0.5;" x="117.941468267" xlink:href="#m741efc42ff" y="43.2"/>
      </g>
     </g>
     <g id="text_1">
      <!-- Oct 13 2015 -->
      <defs>
       <path d="
M19.1875 8.29688
L53.6094 8.29688
L53.6094 0
L7.32812 0
L7.32812 8.29688
Q12.9375 14.1094 22.625 23.8906
Q32.3281 33.6875 34.8125 36.5312
Q39.5469 41.8438 41.4219 45.5312
Q43.3125 49.2188 43.3125 52.7812
Q43.3125 58.5938 39.2344 62.25
Q35.1562 65.9219 28.6094 65.9219
Q23.9688 65.9219 18.8125 64.3125
Q13.6719 62.7031 7.8125 59.4219
L7.8125 69.3906
Q13.7656 71.7812 18.9375 73
Q24.125 74.2188 28.4219 74.2188
Q39.75 74.2188 46.4844 68.5469
Q53.2188 62.8906 53.2188 53.4219
Q53.2188 48.9219 51.5312 44.8906
Q49.8594 40.875 45.4062 35.4062
Q44.1875 33.9844 37.6406 27.2188
Q31.1094 20.4531 19.1875 8.29688" id="BitstreamVeraSans-Roman-32"/>
       <path d="
M39.4062 66.2188
Q28.6562 66.2188 22.3281 58.2031
Q16.0156 50.2031 16.0156 36.375
Q16.0156 22.6094 22.3281 14.5938
Q28.6562 6.59375 39.4062 6.59375
Q50.1406 6.59375 56.4219 14.5938
Q62.7031 22.6094 62.7031 36.375
Q62.7031 50.2031 56.4219 58.2031
Q50.1406 66.2188 39.4062 66.2188
M39.4062 74.2188
Q54.7344 74.2188 63.9062 63.9375
Q73.0938 53.6562 73.0938 36.375
Q73.0938 19.1406 63.9062 8.85938
Q54.7344 -1.42188 39.4062 -1.42188
Q24.0312 -1.42188 14.8125 8.82812
Q5.60938 19.0938 5.60938 36.375
Q5.60938 53.6562 14.8125 63.9375
Q24.0312 74.2188 39.4062 74.2188" id="BitstreamVeraSans-Roman-4f"/>
       <path d="
M31.7812 66.4062
Q24.1719 66.4062 20.3281 58.9062
Q16.5 51.4219 16.5 36.375
Q16.5 21.3906 20.3281 13.8906
Q24.1719 6.39062 31.7812 6.39062
Q39.4531 6.39062 43.2812 13.8906
Q47.125 21.3906 47.125 36.375
Q47.125 51.4219 43.2812 58.9062
Q39.4531 66.4062 31.7812 66.4062
M31.7812 74.2188
Q44.0469 74.2188 50.5156 64.5156
Q56.9844 54.8281 56.9844 36.375
Q56.9844 17.9688 50.5156 8.26562
Q44.0469 -1.42188 31.7812 -1.42188
Q19.5312 -1.42188 13.0625 8.26562
Q6.59375 17.9688 6.59375 36.375
Q6.59375 54.8281 13.0625 64.5156
Q19.5312 74.2188 31.7812 74.2188" id="BitstreamVeraSans-Roman-30"/>
       <path d="
M12.4062 8.29688
L28.5156 8.29688
L28.5156 63.9219
L10.9844 60.4062
L10.9844 69.3906
L28.4219 72.9062
L38.2812 72.9062
L38.2812 8.29688
L54.3906 8.29688
L54.3906 0
L12.4062 0
z
" id="BitstreamVeraSans-Roman-31"/>
       <path d="
M40.5781 39.3125
Q47.6562 37.7969 51.625 33
Q55.6094 28.2188 55.6094 21.1875
Q55.6094 10.4062 48.1875 4.48438
Q40.7656 -1.42188 27.0938 -1.42188
Q22.5156 -1.42188 17.6562 -0.515625
Q12.7969 0.390625 7.625 2.20312
L7.625 11.7188
Q11.7188 9.32812 16.5938 8.10938
Q21.4844 6.89062 26.8125 6.89062
Q36.0781 6.89062 40.9375 10.5469
Q45.7969 14.2031 45.7969 21.1875
Q45.7969 27.6406 41.2812 31.2656
Q36.7656 34.9062 28.7188 34.9062
L20.2188 34.9062
L20.2188 43.0156
L29.1094 43.0156
Q36.375 43.0156 40.2344 45.9219
Q44.0938 48.8281 44.0938 54.2969
Q44.0938 59.9062 40.1094 62.9062
Q36.1406 65.9219 28.7188 65.9219
Q24.6562 65.9219 20.0156 65.0312
Q15.375 64.1562 9.8125 62.3125
L9.8125 71.0938
Q15.4375 72.6562 20.3438 73.4375
Q25.25 74.2188 29.5938 74.2188
Q40.8281 74.2188 47.3594 69.1094
Q53.9062 64.0156 53.9062 55.3281
Q53.9062 49.2656 50.4375 45.0938
Q46.9688 40.9219 40.5781 39.3125" id="BitstreamVeraSans-Roman-33"/>
       <path id="BitstreamVeraSans-Roman-20"/>
       <path d="
M10.7969 72.9062
L49.5156 72.9062
L49.5156 64.5938
L19.8281 64.5938
L19.8281 46.7344
Q21.9688 47.4688 24.1094 47.8281
Q26.2656 48.1875 28.4219 48.1875
Q40.625 48.1875 47.75 41.5
Q54.8906 34.8125 54.8906 23.3906
Q54.8906 11.625 47.5625 5.09375
Q40.2344 -1.42188 26.9062 -1.42188
Q22.3125 -1.42188 17.5469 -0.640625
Q12.7969 0.140625 7.71875 1.70312
L7.71875 11.625
Q12.1094 9.23438 16.7969 8.0625
Q21.4844 6.89062 26.7031 6.89062
Q35.1562 6.89062 40.0781 11.3281
Q45.0156 15.7656 45.0156 23.3906
Q45.0156 31 40.0781 35.4375
Q35.1562 39.8906 26.7031 39.8906
Q22.75 39.8906 18.8125 39.0156
Q14.8906 38.1406 10.7969 36.2812
z
" id="BitstreamVeraSans-Roman-35"/>
       <path d="
M18.3125 70.2188
L18.3125 54.6875
L36.8125 54.6875
L36.8125 47.7031
L18.3125 47.7031
L18.3125 18.0156
Q18.3125 11.3281 20.1406 9.42188
Q21.9688 7.51562 27.5938 7.51562
L36.8125 7.51562
L36.8125 0
L27.5938 0
Q17.1875 0 13.2344 3.875
Q9.28125 7.76562 9.28125 18.0156
L9.28125 47.7031
L2.6875 47.7031
L2.6875 54.6875
L9.28125 54.6875
L9.28125 70.2188
z
" id="BitstreamVeraSans-Roman-74"/>
       <path d="
M48.7812 52.5938
L48.7812 44.1875
Q44.9688 46.2969 41.1406 47.3438
Q37.3125 48.3906 33.4062 48.3906
Q24.6562 48.3906 19.8125 42.8438
Q14.9844 37.3125 14.9844 27.2969
Q14.9844 17.2812 19.8125 11.7344
Q24.6562 6.20312 33.4062 6.20312
Q37.3125 6.20312 41.1406 7.25
Q44.9688 8.29688 48.7812 10.4062
L48.7812 2.09375
Q45.0156 0.34375 40.9844 -0.53125
Q36.9688 -1.42188 32.4219 -1.42188
Q20.0625 -1.42188 12.7812 6.34375
Q5.51562 14.1094 5.51562 27.2969
Q5.51562 40.6719 12.8594 48.3281
Q20.2188 56 33.0156 56
Q37.1562 56 41.1094 55.1406
Q45.0625 54.2969 48.7812 52.5938" id="BitstreamVeraSans-Roman-63"/>
      </defs>
      <g transform="translate(53.3541815316 394.065590385)rotate(-30.0)scale(0.12 -0.12)">
       <use xlink:href="#BitstreamVeraSans-Roman-4f"/>
       <use x="78.7109375" xlink:href="#BitstreamVeraSans-Roman-63"/>
       <use x="133.69140625" xlink:href="#BitstreamVeraSans-Roman-74"/>
       <use x="172.900390625" xlink:href="#BitstreamVeraSans-Roman-20"/>
       <use x="204.6875" xlink:href="#BitstreamVeraSans-Roman-31"/>
       <use x="268.310546875" xlink:href="#BitstreamVeraSans-Roman-33"/>
       <use x="331.93359375" xlink:href="#BitstreamVeraSans-Roman-20"/>
       <use x="363.720703125" xlink:href="#BitstreamVeraSans-Roman-32"/>
       <use x="427.34375" xlink:href="#BitstreamVeraSans-Roman-30"/>
       <use x="490.966796875" xlink:href="#BitstreamVeraSans-Roman-31"/>
       <use x="554.58984375" xlink:href="#BitstreamVeraSans-Roman-35"/>
      </g>
     </g>
    </g>
    <g id="xtick_2">
     <g id="line2d_5">
      <g>
       <use style="stroke:#000000;stroke-width:0.5;" x="173.071485419" xlink:href="#m93b0483c22" y="345.6"/>
      </g>
     </g>
     <g id="line2d_6">
      <g>
       <use style="stroke:#000000;stroke-width:0.5;" x="173.071485419" xlink:href="#m741efc42ff" y="43.2"/>
      </g>
     </g>
     <g id="text_2">
      <!-- Oct 16 2015 -->
      <defs>
       <path d="
M33.0156 40.375
Q26.375 40.375 22.4844 35.8281
Q18.6094 31.2969 18.6094 23.3906
Q18.6094 15.5312 22.4844 10.9531
Q26.375 6.39062 33.0156 6.39062
Q39.6562 6.39062 43.5312 10.9531
Q47.4062 15.5312 47.4062 23.3906
Q47.4062 31.2969 43.5312 35.8281
Q39.6562 40.375 33.0156 40.375
M52.5938 71.2969
L52.5938 62.3125
Q48.875 64.0625 45.0938 64.9844
Q41.3125 65.9219 37.5938 65.9219
Q27.8281 65.9219 22.6719 59.3281
Q17.5312 52.7344 16.7969 39.4062
Q19.6719 43.6562 24.0156 45.9219
Q28.375 48.1875 33.5938 48.1875
Q44.5781 48.1875 50.9531 41.5156
Q57.3281 34.8594 57.3281 23.3906
Q57.3281 12.1562 50.6875 5.35938
Q44.0469 -1.42188 33.0156 -1.42188
Q20.3594 -1.42188 13.6719 8.26562
Q6.98438 17.9688 6.98438 36.375
Q6.98438 53.6562 15.1875 63.9375
Q23.3906 74.2188 37.2031 74.2188
Q40.9219 74.2188 44.7031 73.4844
Q48.4844 72.75 52.5938 71.2969" id="BitstreamVeraSans-Roman-36"/>
      </defs>
      <g transform="translate(108.484198684 394.065590385)rotate(-30.0)scale(0.12 -0.12)">
       <use xlink:href="#BitstreamVeraSans-Roman-4f"/>
       <use x="78.7109375" xlink:href="#BitstreamVeraSans-Roman-63"/>
       <use x="133.69140625" xlink:href="#BitstreamVeraSans-Roman-74"/>
       <use x="172.900390625" xlink:href="#BitstreamVeraSans-Roman-20"/>
       <use x="204.6875" xlink:href="#BitstreamVeraSans-Roman-31"/>
       <use x="268.310546875" xlink:href="#BitstreamVeraSans-Roman-36"/>
       <use x="331.93359375" xlink:href="#BitstreamVeraSans-Roman-20"/>
       <use x="363.720703125" xlink:href="#BitstreamVeraSans-Roman-32"/>
       <use x="427.34375" xlink:href="#BitstreamVeraSans-Roman-30"/>
       <use x="490.966796875" xlink:href="#BitstreamVeraSans-Roman-31"/>
       <use x="554.58984375" xlink:href="#BitstreamVeraSans-Roman-35"/>
      </g>
     </g>
    </g>
    <g id="xtick_3">
     <g id="line2d_7">
      <g>
       <use style="stroke:#000000;stroke-width:0.5;" x="228.201502573" xlink:href="#m93b0483c22" y="345.6"/>
      </g>
     </g>
     <g id="line2d_8">
      <g>
       <use style="stroke:#000000;stroke-width:0.5;" x="228.201502573" xlink:href="#m741efc42ff" y="43.2"/>
      </g>
     </g>
     <g id="text_3">
      <!-- Oct 19 2015 -->
      <defs>
       <path d="
M10.9844 1.51562
L10.9844 10.5
Q14.7031 8.73438 18.5 7.8125
Q22.3125 6.89062 25.9844 6.89062
Q35.75 6.89062 40.8906 13.4531
Q46.0469 20.0156 46.7812 33.4062
Q43.9531 29.2031 39.5938 26.9531
Q35.25 24.7031 29.9844 24.7031
Q19.0469 24.7031 12.6719 31.3125
Q6.29688 37.9375 6.29688 49.4219
Q6.29688 60.6406 12.9375 67.4219
Q19.5781 74.2188 30.6094 74.2188
Q43.2656 74.2188 49.9219 64.5156
Q56.5938 54.8281 56.5938 36.375
Q56.5938 19.1406 48.4062 8.85938
Q40.2344 -1.42188 26.4219 -1.42188
Q22.7031 -1.42188 18.8906 -0.6875
Q15.0938 0.046875 10.9844 1.51562
M30.6094 32.4219
Q37.25 32.4219 41.125 36.9531
Q45.0156 41.5 45.0156 49.4219
Q45.0156 57.2812 41.125 61.8438
Q37.25 66.4062 30.6094 66.4062
Q23.9688 66.4062 20.0938 61.8438
Q16.2188 57.2812 16.2188 49.4219
Q16.2188 41.5 20.0938 36.9531
Q23.9688 32.4219 30.6094 32.4219" id="BitstreamVeraSans-Roman-39"/>
      </defs>
      <g transform="translate(163.614215838 394.065590385)rotate(-30.0)scale(0.12 -0.12)">
       <use xlink:href="#BitstreamVeraSans-Roman-4f"/>
       <use x="78.7109375" xlink:href="#BitstreamVeraSans-Roman-63"/>
       <use x="133.69140625" xlink:href="#BitstreamVeraSans-Roman-74"/>
       <use x="172.900390625" xlink:href="#BitstreamVeraSans-Roman-20"/>
       <use x="204.6875" xlink:href="#BitstreamVeraSans-Roman-31"/>
       <use x="268.310546875" xlink:href="#BitstreamVeraSans-Roman-39"/>
       <use x="331.93359375" xlink:href="#BitstreamVeraSans-Roman-20"/>
       <use x="363.720703125" xlink:href="#BitstreamVeraSans-Roman-32"/>
       <use x="427.34375" xlink:href="#BitstreamVeraSans-Roman-30"/>
       <use x="490.966796875" xlink:href="#BitstreamVeraSans-Roman-31"/>
       <use x="554.58984375" xlink:href="#BitstreamVeraSans-Roman-35"/>
      </g>
     </g>
    </g>
    <g id="xtick_4">
     <g id="line2d_9">
      <g>
       <use style="stroke:#000000;stroke-width:0.5;" x="283.331519725" xlink:href="#m93b0483c22" y="345.6"/>
      </g>
     </g>
     <g id="line2d_10">
      <g>
       <use style="stroke:#000000;stroke-width:0.5;" x="283.331519725" xlink:href="#m741efc42ff" y="43.2"/>
      </g>
     </g>
     <g id="text_4">
      <!-- Oct 22 2015 -->
      <g transform="translate(218.74423299 394.065590385)rotate(-30.0)scale(0.12 -0.12)">
       <use xlink:href="#BitstreamVeraSans-Roman-4f"/>
       <use x="78.7109375" xlink:href="#BitstreamVeraSans-Roman-63"/>
       <use x="133.69140625" xlink:href="#BitstreamVeraSans-Roman-74"/>
       <use x="172.900390625" xlink:href="#BitstreamVeraSans-Roman-20"/>
       <use x="204.6875" xlink:href="#BitstreamVeraSans-Roman-32"/>
       <use x="268.310546875" xlink:href="#BitstreamVeraSans-Roman-32"/>
       <use x="331.93359375" xlink:href="#BitstreamVeraSans-Roman-20"/>
       <use x="363.720703125" xlink:href="#BitstreamVeraSans-Roman-32"/>
       <use x="427.34375" xlink:href="#BitstreamVeraSans-Roman-30"/>
       <use x="490.966796875" xlink:href="#BitstreamVeraSans-Roman-31"/>
       <use x="554.58984375" xlink:href="#BitstreamVeraSans-Roman-35"/>
      </g>
     </g>
    </g>
    <g id="xtick_5">
     <g id="line2d_11">
      <g>
       <use style="stroke:#000000;stroke-width:0.5;" x="338.461536877" xlink:href="#m93b0483c22" y="345.6"/>
      </g>
     </g>
     <g id="line2d_12">
      <g>
       <use style="stroke:#000000;stroke-width:0.5;" x="338.461536877" xlink:href="#m741efc42ff" y="43.2"/>
      </g>
     </g>
     <g id="text_5">
      <!-- Oct 25 2015 -->
      <g transform="translate(273.874250142 394.065590385)rotate(-30.0)scale(0.12 -0.12)">
       <use xlink:href="#BitstreamVeraSans-Roman-4f"/>
       <use x="78.7109375" xlink:href="#BitstreamVeraSans-Roman-63"/>
       <use x="133.69140625" xlink:href="#BitstreamVeraSans-Roman-74"/>
       <use x="172.900390625" xlink:href="#BitstreamVeraSans-Roman-20"/>
       <use x="204.6875" xlink:href="#BitstreamVeraSans-Roman-32"/>
       <use x="268.310546875" xlink:href="#BitstreamVeraSans-Roman-35"/>
       <use x="331.93359375" xlink:href="#BitstreamVeraSans-Roman-20"/>
       <use x="363.720703125" xlink:href="#BitstreamVeraSans-Roman-32"/>
       <use x="427.34375" xlink:href="#BitstreamVeraSans-Roman-30"/>
       <use x="490.966796875" xlink:href="#BitstreamVeraSans-Roman-31"/>
       <use x="554.58984375" xlink:href="#BitstreamVeraSans-Roman-35"/>
      </g>
     </g>
    </g>
    <g id="xtick_6">
     <g id="line2d_13">
      <g>
       <use style="stroke:#000000;stroke-width:0.5;" x="393.591554031" xlink:href="#m93b0483c22" y="345.6"/>
      </g>
     </g>
     <g id="line2d_14">
      <g>
       <use style="stroke:#000000;stroke-width:0.5;" x="393.591554031" xlink:href="#m741efc42ff" y="43.2"/>
      </g>
     </g>
     <g id="text_6">
      <!-- Oct 28 2015 -->
      <defs>
       <path d="
M31.7812 34.625
Q24.75 34.625 20.7188 30.8594
Q16.7031 27.0938 16.7031 20.5156
Q16.7031 13.9219 20.7188 10.1562
Q24.75 6.39062 31.7812 6.39062
Q38.8125 6.39062 42.8594 10.1719
Q46.9219 13.9688 46.9219 20.5156
Q46.9219 27.0938 42.8906 30.8594
Q38.875 34.625 31.7812 34.625
M21.9219 38.8125
Q15.5781 40.375 12.0312 44.7188
Q8.5 49.0781 8.5 55.3281
Q8.5 64.0625 14.7188 69.1406
Q20.9531 74.2188 31.7812 74.2188
Q42.6719 74.2188 48.875 69.1406
Q55.0781 64.0625 55.0781 55.3281
Q55.0781 49.0781 51.5312 44.7188
Q48 40.375 41.7031 38.8125
Q48.8281 37.1562 52.7969 32.3125
Q56.7812 27.4844 56.7812 20.5156
Q56.7812 9.90625 50.3125 4.23438
Q43.8438 -1.42188 31.7812 -1.42188
Q19.7344 -1.42188 13.25 4.23438
Q6.78125 9.90625 6.78125 20.5156
Q6.78125 27.4844 10.7812 32.3125
Q14.7969 37.1562 21.9219 38.8125
M18.3125 54.3906
Q18.3125 48.7344 21.8438 45.5625
Q25.3906 42.3906 31.7812 42.3906
Q38.1406 42.3906 41.7188 45.5625
Q45.3125 48.7344 45.3125 54.3906
Q45.3125 60.0625 41.7188 63.2344
Q38.1406 66.4062 31.7812 66.4062
Q25.3906 66.4062 21.8438 63.2344
Q18.3125 60.0625 18.3125 54.3906" id="BitstreamVeraSans-Roman-38"/>
      </defs>
      <g transform="translate(329.004267296 394.065590385)rotate(-30.0)scale(0.12 -0.12)">
       <use xlink:href="#BitstreamVeraSans-Roman-4f"/>
       <use x="78.7109375" xlink:href="#BitstreamVeraSans-Roman-63"/>
       <use x="133.69140625" xlink:href="#BitstreamVeraSans-Roman-74"/>
       <use x="172.900390625" xlink:href="#BitstreamVeraSans-Roman-20"/>
       <use x="204.6875" xlink:href="#BitstreamVeraSans-Roman-32"/>
       <use x="268.310546875" xlink:href="#BitstreamVeraSans-Roman-38"/>
       <use x="331.93359375" xlink:href="#BitstreamVeraSans-Roman-20"/>
       <use x="363.720703125" xlink:href="#BitstreamVeraSans-Roman-32"/>
       <use x="427.34375" xlink:href="#BitstreamVeraSans-Roman-30"/>
       <use x="490.966796875" xlink:href="#BitstreamVeraSans-Roman-31"/>
       <use x="554.58984375" xlink:href="#BitstreamVeraSans-Roman-35"/>
      </g>
     </g>
    </g>
    <g id="xtick_7">
     <g id="line2d_15">
      <g>
       <use style="stroke:#000000;stroke-width:0.5;" x="448.721571183" xlink:href="#m93b0483c22" y="345.6"/>
      </g>
     </g>
     <g id="line2d_16">
      <g>
       <use style="stroke:#000000;stroke-width:0.5;" x="448.721571183" xlink:href="#m741efc42ff" y="43.2"/>
      </g>
     </g>
     <g id="text_7">
      <!-- Oct 31 2015 -->
      <g transform="translate(384.134284448 394.065590385)rotate(-30.0)scale(0.12 -0.12)">
       <use xlink:href="#BitstreamVeraSans-Roman-4f"/>
       <use x="78.7109375" xlink:href="#BitstreamVeraSans-Roman-63"/>
       <use x="133.69140625" xlink:href="#BitstreamVeraSans-Roman-74"/>
       <use x="172.900390625" xlink:href="#BitstreamVeraSans-Roman-20"/>
       <use x="204.6875" xlink:href="#BitstreamVeraSans-Roman-33"/>
       <use x="268.310546875" xlink:href="#BitstreamVeraSans-Roman-31"/>
       <use x="331.93359375" xlink:href="#BitstreamVeraSans-Roman-20"/>
       <use x="363.720703125" xlink:href="#BitstreamVeraSans-Roman-32"/>
       <use x="427.34375" xlink:href="#BitstreamVeraSans-Roman-30"/>
       <use x="490.966796875" xlink:href="#BitstreamVeraSans-Roman-31"/>
       <use x="554.58984375" xlink:href="#BitstreamVeraSans-Roman-35"/>
      </g>
     </g>
    </g>
    <g id="xtick_8">
     <g id="line2d_17">
      <g>
       <use style="stroke:#000000;stroke-width:0.5;" x="503.851588335" xlink:href="#m93b0483c22" y="345.6"/>
      </g>
     </g>
     <g id="line2d_18">
      <g>
       <use style="stroke:#000000;stroke-width:0.5;" x="503.851588335" xlink:href="#m741efc42ff" y="43.2"/>
      </g>
     </g>
     <g id="text_8">
      <!-- Nov 03 2015 -->
      <defs>
       <path d="
M2.98438 54.6875
L12.5 54.6875
L29.5938 8.79688
L46.6875 54.6875
L56.2031 54.6875
L35.6875 0
L23.4844 0
z
" id="BitstreamVeraSans-Roman-76"/>
       <path d="
M9.8125 72.9062
L23.0938 72.9062
L55.4219 11.9219
L55.4219 72.9062
L64.9844 72.9062
L64.9844 0
L51.7031 0
L19.3906 60.9844
L19.3906 0
L9.8125 0
z
" id="BitstreamVeraSans-Roman-4e"/>
       <path d="
M30.6094 48.3906
Q23.3906 48.3906 19.1875 42.75
Q14.9844 37.1094 14.9844 27.2969
Q14.9844 17.4844 19.1562 11.8438
Q23.3438 6.20312 30.6094 6.20312
Q37.7969 6.20312 41.9844 11.8594
Q46.1875 17.5312 46.1875 27.2969
Q46.1875 37.0156 41.9844 42.7031
Q37.7969 48.3906 30.6094 48.3906
M30.6094 56
Q42.3281 56 49.0156 48.375
Q55.7188 40.7656 55.7188 27.2969
Q55.7188 13.875 49.0156 6.21875
Q42.3281 -1.42188 30.6094 -1.42188
Q18.8438 -1.42188 12.1719 6.21875
Q5.51562 13.875 5.51562 27.2969
Q5.51562 40.7656 12.1719 48.375
Q18.8438 56 30.6094 56" id="BitstreamVeraSans-Roman-6f"/>
      </defs>
      <g transform="translate(436.948766176 395.402465385)rotate(-30.0)scale(0.12 -0.12)">
       <use xlink:href="#BitstreamVeraSans-Roman-4e"/>
       <use x="74.8046875" xlink:href="#BitstreamVeraSans-Roman-6f"/>
       <use x="135.986328125" xlink:href="#BitstreamVeraSans-Roman-76"/>
       <use x="195.166015625" xlink:href="#BitstreamVeraSans-Roman-20"/>
       <use x="226.953125" xlink:href="#BitstreamVeraSans-Roman-30"/>
       <use x="290.576171875" xlink:href="#BitstreamVeraSans-Roman-33"/>
       <use x="354.19921875" xlink:href="#BitstreamVeraSans-Roman-20"/>
       <use x="385.986328125" xlink:href="#BitstreamVeraSans-Roman-32"/>
       <use x="449.609375" xlink:href="#BitstreamVeraSans-Roman-30"/>
       <use x="513.232421875" xlink:href="#BitstreamVeraSans-Roman-31"/>
       <use x="576.85546875" xlink:href="#BitstreamVeraSans-Roman-35"/>
      </g>
     </g>
    </g>
   </g>
   <g id="matplotlib.axis_2">
    <g id="ytick_1">
     <g id="line2d_19">
      <defs>
       <path d="
M0 0
L4 0" id="m728421d6d4" style="stroke:#000000;stroke-width:0.5;"/>
      </defs>
      <g>
       <use style="stroke:#000000;stroke-width:0.5;" x="72.0" xlink:href="#m728421d6d4" y="314.251670201"/>
      </g>
     </g>
     <g id="line2d_20">
      <defs>
       <path d="
M0 0
L-4 0" id="mcb0005524f" style="stroke:#000000;stroke-width:0.5;"/>
      </defs>
      <g>
       <use style="stroke:#000000;stroke-width:0.5;" x="518.4" xlink:href="#mcb0005524f" y="314.251670201"/>
      </g>
     </g>
     <g id="text_9">
      <!-- 500 -->
      <g transform="translate(46.818125 317.562920201)scale(0.12 -0.12)">
       <use xlink:href="#BitstreamVeraSans-Roman-35"/>
       <use x="63.623046875" xlink:href="#BitstreamVeraSans-Roman-30"/>
       <use x="127.24609375" xlink:href="#BitstreamVeraSans-Roman-30"/>
      </g>
     </g>
    </g>
    <g id="ytick_2">
     <g id="line2d_21">
      <g>
       <use style="stroke:#000000;stroke-width:0.5;" x="72.0" xlink:href="#m728421d6d4" y="277.612668565"/>
      </g>
     </g>
     <g id="line2d_22">
      <g>
       <use style="stroke:#000000;stroke-width:0.5;" x="518.4" xlink:href="#mcb0005524f" y="277.612668565"/>
      </g>
     </g>
     <g id="text_10">
      <!-- 1000 -->
      <g transform="translate(39.575 280.923918565)scale(0.12 -0.12)">
       <use xlink:href="#BitstreamVeraSans-Roman-31"/>
       <use x="63.623046875" xlink:href="#BitstreamVeraSans-Roman-30"/>
       <use x="127.24609375" xlink:href="#BitstreamVeraSans-Roman-30"/>
       <use x="190.869140625" xlink:href="#BitstreamVeraSans-Roman-30"/>
      </g>
     </g>
    </g>
    <g id="ytick_3">
     <g id="line2d_23">
      <g>
       <use style="stroke:#000000;stroke-width:0.5;" x="72.0" xlink:href="#m728421d6d4" y="240.973666929"/>
      </g>
     </g>
     <g id="line2d_24">
      <g>
       <use style="stroke:#000000;stroke-width:0.5;" x="518.4" xlink:href="#mcb0005524f" y="240.973666929"/>
      </g>
     </g>
     <g id="text_11">
      <!-- 1500 -->
      <g transform="translate(39.575 244.284916929)scale(0.12 -0.12)">
       <use xlink:href="#BitstreamVeraSans-Roman-31"/>
       <use x="63.623046875" xlink:href="#BitstreamVeraSans-Roman-35"/>
       <use x="127.24609375" xlink:href="#BitstreamVeraSans-Roman-30"/>
       <use x="190.869140625" xlink:href="#BitstreamVeraSans-Roman-30"/>
      </g>
     </g>
    </g>
    <g id="ytick_4">
     <g id="line2d_25">
      <g>
       <use style="stroke:#000000;stroke-width:0.5;" x="72.0" xlink:href="#m728421d6d4" y="204.334665294"/>
      </g>
     </g>
     <g id="line2d_26">
      <g>
       <use style="stroke:#000000;stroke-width:0.5;" x="518.4" xlink:href="#mcb0005524f" y="204.334665294"/>
      </g>
     </g>
     <g id="text_12">
      <!-- 2000 -->
      <g transform="translate(39.13625 207.645915294)scale(0.12 -0.12)">
       <use xlink:href="#BitstreamVeraSans-Roman-32"/>
       <use x="63.623046875" xlink:href="#BitstreamVeraSans-Roman-30"/>
       <use x="127.24609375" xlink:href="#BitstreamVeraSans-Roman-30"/>
       <use x="190.869140625" xlink:href="#BitstreamVeraSans-Roman-30"/>
      </g>
     </g>
    </g>
    <g id="ytick_5">
     <g id="line2d_27">
      <g>
       <use style="stroke:#000000;stroke-width:0.5;" x="72.0" xlink:href="#m728421d6d4" y="167.695663658"/>
      </g>
     </g>
     <g id="line2d_28">
      <g>
       <use style="stroke:#000000;stroke-width:0.5;" x="518.4" xlink:href="#mcb0005524f" y="167.695663658"/>
      </g>
     </g>
     <g id="text_13">
      <!-- 2500 -->
      <g transform="translate(39.13625 171.006913658)scale(0.12 -0.12)">
       <use xlink:href="#BitstreamVeraSans-Roman-32"/>
       <use x="63.623046875" xlink:href="#BitstreamVeraSans-Roman-35"/>
       <use x="127.24609375" xlink:href="#BitstreamVeraSans-Roman-30"/>
       <use x="190.869140625" xlink:href="#BitstreamVeraSans-Roman-30"/>
      </g>
     </g>
    </g>
    <g id="ytick_6">
     <g id="line2d_29">
      <g>
       <use style="stroke:#000000;stroke-width:0.5;" x="72.0" xlink:href="#m728421d6d4" y="131.056662022"/>
      </g>
     </g>
     <g id="line2d_30">
      <g>
       <use style="stroke:#000000;stroke-width:0.5;" x="518.4" xlink:href="#mcb0005524f" y="131.056662022"/>
      </g>
     </g>
     <g id="text_14">
      <!-- 3000 -->
      <g transform="translate(39.171875 134.367912022)scale(0.12 -0.12)">
       <use xlink:href="#BitstreamVeraSans-Roman-33"/>
       <use x="63.623046875" xlink:href="#BitstreamVeraSans-Roman-30"/>
       <use x="127.24609375" xlink:href="#BitstreamVeraSans-Roman-30"/>
       <use x="190.869140625" xlink:href="#BitstreamVeraSans-Roman-30"/>
      </g>
     </g>
    </g>
    <g id="ytick_7">
     <g id="line2d_31">
      <g>
       <use style="stroke:#000000;stroke-width:0.5;" x="72.0" xlink:href="#m728421d6d4" y="94.4176603865"/>
      </g>
     </g>
     <g id="line2d_32">
      <g>
       <use style="stroke:#000000;stroke-width:0.5;" x="518.4" xlink:href="#mcb0005524f" y="94.4176603865"/>
      </g>
     </g>
     <g id="text_15">
      <!-- 3500 -->
      <g transform="translate(39.171875 97.7289103865)scale(0.12 -0.12)">
       <use xlink:href="#BitstreamVeraSans-Roman-33"/>
       <use x="63.623046875" xlink:href="#BitstreamVeraSans-Roman-35"/>
       <use x="127.24609375" xlink:href="#BitstreamVeraSans-Roman-30"/>
       <use x="190.869140625" xlink:href="#BitstreamVeraSans-Roman-30"/>
      </g>
     </g>
    </g>
    <g id="ytick_8">
     <g id="line2d_33">
      <g>
       <use style="stroke:#000000;stroke-width:0.5;" x="72.0" xlink:href="#m728421d6d4" y="57.7786587508"/>
      </g>
     </g>
     <g id="line2d_34">
      <g>
       <use style="stroke:#000000;stroke-width:0.5;" x="518.4" xlink:href="#mcb0005524f" y="57.7786587508"/>
      </g>
     </g>
     <g id="text_16">
      <!-- 4000 -->
      <defs>
       <path d="
M37.7969 64.3125
L12.8906 25.3906
L37.7969 25.3906
z

M35.2031 72.9062
L47.6094 72.9062
L47.6094 25.3906
L58.0156 25.3906
L58.0156 17.1875
L47.6094 17.1875
L47.6094 0
L37.7969 0
L37.7969 17.1875
L4.89062 17.1875
L4.89062 26.7031
z
" id="BitstreamVeraSans-Roman-34"/>
      </defs>
      <g transform="translate(38.84375 61.0899087508)scale(0.12 -0.12)">
       <use xlink:href="#BitstreamVeraSans-Roman-34"/>
       <use x="63.623046875" xlink:href="#BitstreamVeraSans-Roman-30"/>
       <use x="127.24609375" xlink:href="#BitstreamVeraSans-Roman-30"/>
       <use x="190.869140625" xlink:href="#BitstreamVeraSans-Roman-30"/>
      </g>
     </g>
    </g>
   </g>
   <g id="text_17">
    <!-- Quarzsand -->
    <defs>
     <path d="
M54.8906 33.0156
L54.8906 0
L45.9062 0
L45.9062 32.7188
Q45.9062 40.4844 42.875 44.3281
Q39.8438 48.1875 33.7969 48.1875
Q26.5156 48.1875 22.3125 43.5469
Q18.1094 38.9219 18.1094 30.9062
L18.1094 0
L9.07812 0
L9.07812 54.6875
L18.1094 54.6875
L18.1094 46.1875
Q21.3438 51.125 25.7031 53.5625
Q30.0781 56 35.7969 56
Q45.2188 56 50.0469 50.1719
Q54.8906 44.3438 54.8906 33.0156" id="BitstreamVeraSans-Roman-6e"/>
     <path d="
M34.2812 27.4844
Q23.3906 27.4844 19.1875 25
Q14.9844 22.5156 14.9844 16.5
Q14.9844 11.7188 18.1406 8.90625
Q21.2969 6.10938 26.7031 6.10938
Q34.1875 6.10938 38.7031 11.4062
Q43.2188 16.7031 43.2188 25.4844
L43.2188 27.4844
z

M52.2031 31.2031
L52.2031 0
L43.2188 0
L43.2188 8.29688
Q40.1406 3.32812 35.5469 0.953125
Q30.9531 -1.42188 24.3125 -1.42188
Q15.9219 -1.42188 10.9531 3.29688
Q6 8.01562 6 15.9219
Q6 25.1406 12.1719 29.8281
Q18.3594 34.5156 30.6094 34.5156
L43.2188 34.5156
L43.2188 35.4062
Q43.2188 41.6094 39.1406 45
Q35.0625 48.3906 27.6875 48.3906
Q23 48.3906 18.5469 47.2656
Q14.1094 46.1406 10.0156 43.8906
L10.0156 52.2031
Q14.9375 54.1094 19.5781 55.0469
Q24.2188 56 28.6094 56
Q40.4844 56 46.3438 49.8438
Q52.2031 43.7031 52.2031 31.2031" id="BitstreamVeraSans-Roman-61"/>
     <path d="
M5.51562 54.6875
L48.1875 54.6875
L48.1875 46.4844
L14.4062 7.17188
L48.1875 7.17188
L48.1875 0
L4.29688 0
L4.29688 8.20312
L38.0938 47.5156
L5.51562 47.5156
z
" id="BitstreamVeraSans-Roman-7a"/>
     <path d="
M39.4062 66.2188
Q28.6562 66.2188 22.3281 58.2031
Q16.0156 50.2031 16.0156 36.375
Q16.0156 22.6094 22.3281 14.5938
Q28.6562 6.59375 39.4062 6.59375
Q50.1406 6.59375 56.4219 14.5938
Q62.7031 22.6094 62.7031 36.375
Q62.7031 50.2031 56.4219 58.2031
Q50.1406 66.2188 39.4062 66.2188
M53.2188 1.3125
L66.2188 -12.8906
L54.2969 -12.8906
L43.5 -1.21875
Q41.8906 -1.3125 41.0312 -1.35938
Q40.1875 -1.42188 39.4062 -1.42188
Q24.0312 -1.42188 14.8125 8.85938
Q5.60938 19.1406 5.60938 36.375
Q5.60938 53.6562 14.8125 63.9375
Q24.0312 74.2188 39.4062 74.2188
Q54.7344 74.2188 63.9062 63.9375
Q73.0938 53.6562 73.0938 36.375
Q73.0938 23.6875 67.9844 14.6406
Q62.8906 5.60938 53.2188 1.3125" id="BitstreamVeraSans-Roman-51"/>
     <path d="
M45.4062 46.3906
L45.4062 75.9844
L54.3906 75.9844
L54.3906 0
L45.4062 0
L45.4062 8.20312
Q42.5781 3.32812 38.25 0.953125
Q33.9375 -1.42188 27.875 -1.42188
Q17.9688 -1.42188 11.7344 6.48438
Q5.51562 14.4062 5.51562 27.2969
Q5.51562 40.1875 11.7344 48.0938
Q17.9688 56 27.875 56
Q33.9375 56 38.25 53.625
Q42.5781 51.2656 45.4062 46.3906
M14.7969 27.2969
Q14.7969 17.3906 18.875 11.75
Q22.9531 6.10938 30.0781 6.10938
Q37.2031 6.10938 41.2969 11.75
Q45.4062 17.3906 45.4062 27.2969
Q45.4062 37.2031 41.2969 42.8438
Q37.2031 48.4844 30.0781 48.4844
Q22.9531 48.4844 18.875 42.8438
Q14.7969 37.2031 14.7969 27.2969" id="BitstreamVeraSans-Roman-64"/>
     <path d="
M8.5 21.5781
L8.5 54.6875
L17.4844 54.6875
L17.4844 21.9219
Q17.4844 14.1562 20.5 10.2656
Q23.5312 6.39062 29.5938 6.39062
Q36.8594 6.39062 41.0781 11.0312
Q45.3125 15.6719 45.3125 23.6875
L45.3125 54.6875
L54.2969 54.6875
L54.2969 0
L45.3125 0
L45.3125 8.40625
Q42.0469 3.42188 37.7188 1
Q33.4062 -1.42188 27.6875 -1.42188
Q18.2656 -1.42188 13.375 4.4375
Q8.5 10.2969 8.5 21.5781" id="BitstreamVeraSans-Roman-75"/>
     <path d="
M41.1094 46.2969
Q39.5938 47.1719 37.8125 47.5781
Q36.0312 48 33.8906 48
Q26.2656 48 22.1875 43.0469
Q18.1094 38.0938 18.1094 28.8125
L18.1094 0
L9.07812 0
L9.07812 54.6875
L18.1094 54.6875
L18.1094 46.1875
Q20.9531 51.1719 25.4844 53.5781
Q30.0312 56 36.5312 56
Q37.4531 56 38.5781 55.875
Q39.7031 55.7656 41.0625 55.5156
z
" id="BitstreamVeraSans-Roman-72"/>
     <path d="
M44.2812 53.0781
L44.2812 44.5781
Q40.4844 46.5312 36.375 47.5
Q32.2812 48.4844 27.875 48.4844
Q21.1875 48.4844 17.8438 46.4375
Q14.5 44.3906 14.5 40.2812
Q14.5 37.1562 16.8906 35.375
Q19.2812 33.5938 26.5156 31.9844
L29.5938 31.2969
Q39.1562 29.25 43.1875 25.5156
Q47.2188 21.7812 47.2188 15.0938
Q47.2188 7.46875 41.1875 3.01562
Q35.1562 -1.42188 24.6094 -1.42188
Q20.2188 -1.42188 15.4531 -0.5625
Q10.6875 0.296875 5.42188 2
L5.42188 11.2812
Q10.4062 8.6875 15.2344 7.39062
Q20.0625 6.10938 24.8125 6.10938
Q31.1562 6.10938 34.5625 8.28125
Q37.9844 10.4531 37.9844 14.4062
Q37.9844 18.0625 35.5156 20.0156
Q33.0625 21.9688 24.7031 23.7812
L21.5781 24.5156
Q13.2344 26.2656 9.51562 29.9062
Q5.8125 33.5469 5.8125 39.8906
Q5.8125 47.6094 11.2812 51.7969
Q16.75 56 26.8125 56
Q31.7812 56 36.1719 55.2656
Q40.5781 54.5469 44.2812 53.0781" id="BitstreamVeraSans-Roman-73"/>
    </defs>
    <g transform="translate(443.16 38.2)scale(0.144 -0.144)">
     <use xlink:href="#BitstreamVeraSans-Roman-51"/>
     <use x="78.7109375" xlink:href="#BitstreamVeraSans-Roman-75"/>
     <use x="142.08984375" xlink:href="#BitstreamVeraSans-Roman-61"/>
     <use x="203.369140625" xlink:href="#BitstreamVeraSans-Roman-72"/>
     <use x="244.482421875" xlink:href="#BitstreamVeraSans-Roman-7a"/>
     <use x="296.97265625" xlink:href="#BitstreamVeraSans-Roman-73"/>
     <use x="349.072265625" xlink:href="#BitstreamVeraSans-Roman-61"/>
     <use x="410.3515625" xlink:href="#BitstreamVeraSans-Roman-6e"/>
     <use x="473.73046875" xlink:href="#BitstreamVeraSans-Roman-64"/>
    </g>
   </g>
   <g id="legend_1">
    <g id="patch_7">
     <path d="
M123.942 423.616
L466.458 423.616
L466.458 398.16
L123.942 398.16
z
" style="fill:#ffffff;stroke:#000000;stroke-linejoin:miter;"/>
    </g>
    <g id="line2d_35">
     <path d="
M134.022 409.822
L154.182 409.822" style="fill:none;stroke:#ff0000;stroke-linecap:square;"/>
    </g>
    <g id="line2d_36"/>
    <g id="text_18">
     <!-- Schwarzmarktpreis -->
     <defs>
      <path d="
M52 44.1875
Q55.375 50.25 60.0625 53.125
Q64.75 56 71.0938 56
Q79.6406 56 84.2812 50.0156
Q88.9219 44.0469 88.9219 33.0156
L88.9219 0
L79.8906 0
L79.8906 32.7188
Q79.8906 40.5781 77.0938 44.375
Q74.3125 48.1875 68.6094 48.1875
Q61.625 48.1875 57.5625 43.5469
Q53.5156 38.9219 53.5156 30.9062
L53.5156 0
L44.4844 0
L44.4844 32.7188
Q44.4844 40.625 41.7031 44.4062
Q38.9219 48.1875 33.1094 48.1875
Q26.2188 48.1875 22.1562 43.5312
Q18.1094 38.875 18.1094 30.9062
L18.1094 0
L9.07812 0
L9.07812 54.6875
L18.1094 54.6875
L18.1094 46.1875
Q21.1875 51.2188 25.4844 53.6094
Q29.7812 56 35.6875 56
Q41.6562 56 45.8281 52.9688
Q50 49.9531 52 44.1875" id="BitstreamVeraSans-Roman-6d"/>
      <path d="
M9.07812 75.9844
L18.1094 75.9844
L18.1094 31.1094
L44.9219 54.6875
L56.3906 54.6875
L27.3906 29.1094
L57.625 0
L45.9062 0
L18.1094 26.7031
L18.1094 0
L9.07812 0
z
" id="BitstreamVeraSans-Roman-6b"/>
      <path d="
M53.5156 70.5156
L53.5156 60.8906
Q47.9062 63.5781 42.9219 64.8906
Q37.9375 66.2188 33.2969 66.2188
Q25.25 66.2188 20.875 63.0938
Q16.5 59.9688 16.5 54.2031
Q16.5 49.3594 19.4062 46.8906
Q22.3125 44.4375 30.4219 42.9219
L36.375 41.7031
Q47.4062 39.5938 52.6562 34.2969
Q57.9062 29 57.9062 20.125
Q57.9062 9.51562 50.7969 4.04688
Q43.7031 -1.42188 29.9844 -1.42188
Q24.8125 -1.42188 18.9688 -0.25
Q13.1406 0.921875 6.89062 3.21875
L6.89062 13.375
Q12.8906 10.0156 18.6562 8.29688
Q24.4219 6.59375 29.9844 6.59375
Q38.4219 6.59375 43.0156 9.90625
Q47.6094 13.2344 47.6094 19.3906
Q47.6094 24.75 44.3125 27.7812
Q41.0156 30.8125 33.5 32.3281
L27.4844 33.5
Q16.4531 35.6875 11.5156 40.375
Q6.59375 45.0625 6.59375 53.4219
Q6.59375 63.0938 13.4062 68.6562
Q20.2188 74.2188 32.1719 74.2188
Q37.3125 74.2188 42.625 73.2812
Q47.9531 72.3594 53.5156 70.5156" id="BitstreamVeraSans-Roman-53"/>
      <path d="
M9.42188 54.6875
L18.4062 54.6875
L18.4062 0
L9.42188 0
z

M9.42188 75.9844
L18.4062 75.9844
L18.4062 64.5938
L9.42188 64.5938
z
" id="BitstreamVeraSans-Roman-69"/>
      <path d="
M54.8906 33.0156
L54.8906 0
L45.9062 0
L45.9062 32.7188
Q45.9062 40.4844 42.875 44.3281
Q39.8438 48.1875 33.7969 48.1875
Q26.5156 48.1875 22.3125 43.5469
Q18.1094 38.9219 18.1094 30.9062
L18.1094 0
L9.07812 0
L9.07812 75.9844
L18.1094 75.9844
L18.1094 46.1875
Q21.3438 51.125 25.7031 53.5625
Q30.0781 56 35.7969 56
Q45.2188 56 50.0469 50.1719
Q54.8906 44.3438 54.8906 33.0156" id="BitstreamVeraSans-Roman-68"/>
      <path d="
M56.2031 29.5938
L56.2031 25.2031
L14.8906 25.2031
Q15.4844 15.9219 20.4844 11.0625
Q25.4844 6.20312 34.4219 6.20312
Q39.5938 6.20312 44.4531 7.46875
Q49.3125 8.73438 54.1094 11.2812
L54.1094 2.78125
Q49.2656 0.734375 44.1875 -0.34375
Q39.1094 -1.42188 33.8906 -1.42188
Q20.7969 -1.42188 13.1562 6.1875
Q5.51562 13.8125 5.51562 26.8125
Q5.51562 40.2344 12.7656 48.1094
Q20.0156 56 32.3281 56
Q43.3594 56 49.7812 48.8906
Q56.2031 41.7969 56.2031 29.5938
M47.2188 32.2344
Q47.125 39.5938 43.0938 43.9844
Q39.0625 48.3906 32.4219 48.3906
Q24.9062 48.3906 20.3906 44.1406
Q15.875 39.8906 15.1875 32.1719
z
" id="BitstreamVeraSans-Roman-65"/>
      <path d="
M4.20312 54.6875
L13.1875 54.6875
L24.4219 12.0156
L35.5938 54.6875
L46.1875 54.6875
L57.4219 12.0156
L68.6094 54.6875
L77.5938 54.6875
L63.2812 0
L52.6875 0
L40.9219 44.8281
L29.1094 0
L18.5 0
z
" id="BitstreamVeraSans-Roman-77"/>
      <path d="
M18.1094 8.20312
L18.1094 -20.7969
L9.07812 -20.7969
L9.07812 54.6875
L18.1094 54.6875
L18.1094 46.3906
Q20.9531 51.2656 25.2656 53.625
Q29.5938 56 35.5938 56
Q45.5625 56 51.7812 48.0938
Q58.0156 40.1875 58.0156 27.2969
Q58.0156 14.4062 51.7812 6.48438
Q45.5625 -1.42188 35.5938 -1.42188
Q29.5938 -1.42188 25.2656 0.953125
Q20.9531 3.32812 18.1094 8.20312
M48.6875 27.2969
Q48.6875 37.2031 44.6094 42.8438
Q40.5312 48.4844 33.4062 48.4844
Q26.2656 48.4844 22.1875 42.8438
Q18.1094 37.2031 18.1094 27.2969
Q18.1094 17.3906 22.1875 11.75
Q26.2656 6.10938 33.4062 6.10938
Q40.5312 6.10938 44.6094 11.75
Q48.6875 17.3906 48.6875 27.2969" id="BitstreamVeraSans-Roman-70"/>
     </defs>
     <g transform="translate(170.022375 414.86175)scale(0.144 -0.144)">
      <use xlink:href="#BitstreamVeraSans-Roman-53"/>
      <use x="63.4765625" xlink:href="#BitstreamVeraSans-Roman-63"/>
      <use x="118.45703125" xlink:href="#BitstreamVeraSans-Roman-68"/>
      <use x="181.8359375" xlink:href="#BitstreamVeraSans-Roman-77"/>
      <use x="263.623046875" xlink:href="#BitstreamVeraSans-Roman-61"/>
      <use x="324.90234375" xlink:href="#BitstreamVeraSans-Roman-72"/>
      <use x="366.015625" xlink:href="#BitstreamVeraSans-Roman-7a"/>
      <use x="418.505859375" xlink:href="#BitstreamVeraSans-Roman-6d"/>
      <use x="515.91796875" xlink:href="#BitstreamVeraSans-Roman-61"/>
      <use x="577.197265625" xlink:href="#BitstreamVeraSans-Roman-72"/>
      <use x="618.310546875" xlink:href="#BitstreamVeraSans-Roman-6b"/>
      <use x="676.220703125" xlink:href="#BitstreamVeraSans-Roman-74"/>
      <use x="715.4296875" xlink:href="#BitstreamVeraSans-Roman-70"/>
      <use x="778.90625" xlink:href="#BitstreamVeraSans-Roman-72"/>
      <use x="817.76953125" xlink:href="#BitstreamVeraSans-Roman-65"/>
      <use x="879.29296875" xlink:href="#BitstreamVeraSans-Roman-69"/>
      <use x="907.076171875" xlink:href="#BitstreamVeraSans-Roman-73"/>
     </g>
    </g>
    <g id="line2d_37">
     <path d="
M339.609 409.822
L359.769 409.822" style="fill:none;stroke:#008000;stroke-linecap:square;"/>
    </g>
    <g id="line2d_38"/>
    <g id="text_19">
     <!-- Normalpreis -->
     <defs>
      <path d="
M9.42188 75.9844
L18.4062 75.9844
L18.4062 0
L9.42188 0
z
" id="BitstreamVeraSans-Roman-6c"/>
     </defs>
     <g transform="translate(375.609375 414.86175)scale(0.144 -0.144)">
      <use xlink:href="#BitstreamVeraSans-Roman-4e"/>
      <use x="74.8046875" xlink:href="#BitstreamVeraSans-Roman-6f"/>
      <use x="135.986328125" xlink:href="#BitstreamVeraSans-Roman-72"/>
      <use x="175.349609375" xlink:href="#BitstreamVeraSans-Roman-6d"/>
      <use x="272.76171875" xlink:href="#BitstreamVeraSans-Roman-61"/>
      <use x="334.041015625" xlink:href="#BitstreamVeraSans-Roman-6c"/>
      <use x="361.82421875" xlink:href="#BitstreamVeraSans-Roman-70"/>
      <use x="425.30078125" xlink:href="#BitstreamVeraSans-Roman-72"/>
      <use x="464.1640625" xlink:href="#BitstreamVeraSans-Roman-65"/>
      <use x="525.6875" xlink:href="#BitstreamVeraSans-Roman-69"/>
      <use x="553.470703125" xlink:href="#BitstreamVeraSans-Roman-73"/>
     </g>
    </g>
   </g>
  </g>
 </g>
 <defs>
  <clipPath id="pcb2bf987bf">
   <rect height="302.4" width="446.4" x="72.0" y="43.2"/>
  </clipPath>
 </defs>
</svg>
