<?xml version="1.0" encoding="utf-8" standalone="no"?>
<!DOCTYPE svg PUBLIC "-//W3C//DTD SVG 1.1//EN"
  "http://www.w3.org/Graphics/SVG/1.1/DTD/svg11.dtd">
<!-- Created with matplotlib (http://matplotlib.org/) -->
<svg height="432pt" version="1.1" viewBox="0 0 576 432" width="576pt" xmlns="http://www.w3.org/2000/svg" xmlns:xlink="http://www.w3.org/1999/xlink">
 <defs>
  <style type="text/css">
*{stroke-linecap:butt;stroke-linejoin:round;}
  </style>
 </defs>
 <g id="figure_1">
  <g id="patch_1">
   <path d="
M0 432
L576 432
L576 0
L0 0
z
" style="fill:#ffffff;"/>
  </g>
  <g id="axes_1">
   <g id="patch_2">
    <path d="
M72 345.6
L518.4 345.6
L518.4 43.2
L72 43.2
z
" style="fill:#ffffff;"/>
   </g>
   <g id="line2d_1">
    <path clip-path="url(#pcb2bf987bf)" d="
M72 295.808
L72.1276 295.55
L72.3828 292.968
L72.5105 293.656
L72.7657 297.099
L73.1485 295.292
L73.2762 292.968
L73.9142 295.722
L74.0419 294.775
L74.2971 294.517
L74.4247 291.883
L74.6799 294.345
L74.8075 284.997
L75.1904 294.431
L75.4456 293.742
L75.5732 294.087
L75.8285 287.545
L75.9561 293.742
L76.2113 290.644
L76.3389 296.996
L76.7218 285.204
L76.9772 284.188
L77.3599 294.517
L77.7429 285.824
L77.8703 285.91
L78.1256 288.148
L78.1256 288.148
L78.2532 293.829
L78.5084 292.451
L78.636 292.434
L79.0189 290.041
L79.2741 291.074
L79.4017 286.598
L79.6569 291.763
L79.7846 290.041
L80.0398 291.763
L80.1674 284.274
L80.4226 293.742
L80.5503 293.484
L80.8055 291.746
L80.9331 289.181
L81.1885 290.041
L81.316 293.467
L81.5712 293.811
L81.6988 294.861
L81.9542 290.386
L82.0816 292.796
L82.3371 291.074
L82.4645 291.677
L82.8473 283.414
L83.1026 283.414
L83.2302 282.725
L83.4854 288.234
L83.613 273.946
L83.8683 273.515
L83.9959 291.677
L84.2511 290.644
L84.3787 288.578
L84.6342 289.611
L85.017 284.963
L85.1444 287.545
L85.3999 286.857
L85.5273 286.857
L85.7825 287.201
L86.1654 291.728
L86.293 286.943
L86.5482 286.943
L86.6758 290.644
L86.931 289.267
L87.0587 287.201
L87.4415 294.861
L87.6967 295.894
L87.8244 293.656
L88.0796 292.537
L88.2072 290.988
L88.4624 292.348
L88.5901 294.689
L88.9729 293.57
L89.2281 295.12
L89.3557 294.775
L89.7386 292.107
L89.9938 290.386
L89.9938 290.386
L90.2491 284.997
L90.3767 291.419
L91.0148 289.439
L91.9081 296.807
L92.6738 291.763
L93.3118 291.332
L94.0775 295.034
L94.2051 287.029
L94.8432 293.054
L94.9708 291.332
L95.6089 295.722
L95.7365 294.517
L96.3746 295.361
L97.1403 295.464
L98.0336 290.472
L98.7993 284.619
L99.4374 283.224
L100.331 295.034
L100.969 292.624
L101.734 291.246
L101.862 289.783
L102.5 290.558
L103.266 297.099
L103.393 296.841
L104.032 289.783
L104.797 295.275
L105.563 294.259
L106.329 293.054
L107.095 289.783
L107.86 290.282
L107.988 288.406
L109.391 296.497
L109.519 279.454
L110.285 291.935
L110.923 294.345
L111.05 295.98
L111.816 294.173
L113.986 293.14
L114.879 294.001
L116.41 293.312
L117.048 289.267
L117.814 288.406
L117.942 292.624
L118.58 291.849
L118.707 291.505
L119.345 294.689
L120.111 290.127
L120.877 290.644
L121.004 289.955
L121.643 288.922
L122.408 293.742
L122.536 290.988
L123.174 286.34
L124.067 293.656
L124.705 291.935
L125.471 288.062
L126.109 291.16
L126.365 289.439
L127.002 289.267
L127.13 292.365
L127.13 292.365
L127.64 292.365
L127.64 292.365
L127.768 292.882
L128.534 291.677
L128.661 290.644
L129.299 291.332
L130.065 288.922
L130.193 290.644
L130.831 289.611
L131.597 286.684
L132.362 288.406
L132.362 288.406
L133.894 288.733
L134.149 287.373
L134.659 286.168
L135.425 283.93
L136.191 283.586
L136.318 285.307
L136.956 288.062
L137.722 288.217
L139.254 282.037
L139.381 284.791
L140.785 282.553
L141.678 289.955
L142.316 288.836
L143.082 285.566
L145.379 233.663
L145.507 58.0735
L146.145 237.709
L146.272 235.04
L146.91 235.54
L147.038 236.159
L147.676 244.681
L148.442 239.241
L149.208 235.385
L149.335 239.602
L149.973 228.585
L150.739 226.433
L150.867 226.433
L151.505 220.752
L152.27 218.428
L153.036 220.993
L153.164 223.575
L153.802 223.421
L154.567 222.474
L155.333 225.469
L155.333 225.469
L156.099 218.945
L156.865 224.023
L157.63 216.449
L157.758 210.94
L158.396 217.654
L159.927 222.904
L160.693 217.137
L160.821 218.859
L162.224 218.859
L162.99 219.719
L163.118 219.031
L163.756 224.023
L163.883 221.097
L164.521 220.494
L164.649 219.892
L165.287 217.826
L166.053 222.302
L166.819 219.547
L167.584 220.236
L167.712 217.826
L168.35 214.538
L169.116 218.859
L169.243 216.793
L169.881 225.486
L170.647 220.649
L170.775 212.231
L171.413 216.449
L172.178 218.859
L172.944 218.859
L173.072 222.129
L173.71 222.801
L174.603 219.375
L176.007 220.752
L176.773 222.302
L176.9 220.924
L177.538 218.17
L178.304 220.408
L179.835 216.793
L179.963 209.218
L180.729 221.613
L181.367 221.441
L182.132 220.666
L182.26 217.912
L182.898 218.6
L183.664 222.87
L183.791 220.838
L184.43 220.133
L185.195 220.752
L185.961 218.17
L186.727 222.095
L187.492 221.957
L188.258 219.633
L189.024 218.342
L189.151 219.719
L190.555 218.859
L191.321 221.441
L191.321 221.441
L192.852 220.064
L193.618 219.892
L194.384 220.752
L195.149 222.818
L195.277 222.818
L195.915 220.236
L196.681 218.17
L198.212 219.547
L198.212 219.547
L198.978 219.892
L200.509 217.12
L201.275 219.84
L202.04 218.342
L202.806 218.411
L203.572 221.01
L203.699 218.428
L205.103 220.752
L205.231 217.998
L205.869 221.269
L206.124 217.843
L206.507 219.186
L206.635 217.826
L206.635 217.826
L206.762 221.251
L207.4 219.892
L207.911 219.805
L208.166 214.985
L208.804 221.183
L209.059 219.96
L209.059 219.96
L209.442 219.719
L209.57 221.957
L209.825 221.647
L210.846 221.32
L211.356 221.32
L211.484 219.978
L211.739 219.978
L211.867 218.6
L212.122 220.649
L212.25 219.96
L212.505 217.223
L212.633 219.633
L212.888 221.269
L213.398 218.428
L213.654 219.805
L213.654 219.805
L213.781 221.871
L214.036 221.871
L214.164 219.805
L214.547 219.805
L214.802 216.362
L214.93 220.494
L215.185 221.183
L215.185 221.183
L215.313 221.183
L215.695 218.514
L215.951 219.461
L215.951 219.461
L216.078 220.821
L216.333 218.686
L216.461 218.669
L216.589 219.547
L216.589 219.547
L216.844 219.892
L217.099 217.137
L217.227 221.269
L217.482 222.026
L217.482 222.026
L217.61 220.666
L217.865 224.023
L217.992 221.957
L218.248 220.58
L218.248 220.58
L218.631 222.302
L218.758 224.144
L219.013 224.161
L219.141 221.441
L219.396 219.547
L219.779 218.859
L219.907 217.395
L220.162 220.236
L220.29 219.892
L220.29 219.892
L220.417 222.818
L220.545 222.129
L220.672 220.752
L220.672 220.752
L220.928 221.527
L221.055 223.334
L221.31 222.646
L221.438 221.957
L221.693 223.317
L222.076 220.752
L222.204 221.665
L222.459 220.064
L222.587 220.064
L222.842 221.441
L222.842 221.441
L223.225 222.56
L223.352 223.334
L223.608 223.851
L223.735 215.76
L223.99 221.441
L224.118 220.924
L224.373 223.145
L224.501 223.162
L224.756 221.613
L224.884 219.547
L225.139 222.474
L225.267 221.785
L225.522 223.851
L225.905 220.236
L225.905 220.236
L226.032 220.391
L226.032 220.391
L226.16 221.768
L226.16 221.768
L226.288 219.375
L226.415 222.129
L226.415 222.129
L226.67 222.284
L227.053 218.859
L227.181 220.322
L227.436 220.58
L227.436 220.58
L227.819 221.183
L227.946 220.236
L228.202 220.064
L228.329 219.375
L228.585 220.735
L228.712 222.129
L228.967 220.064
L229.095 221.441
L229.478 219.289
L229.733 219.358
L229.861 218.686
L230.244 222.043
L230.499 219.289
L230.499 219.289
L230.882 219.289
L231.392 221.665
L231.647 221.01
L231.775 220.322
L232.158 222.095
L232.413 221.441
L232.541 222.095
L232.924 221.355
L233.179 219.978
L233.306 222.284
L233.562 220.924
L233.689 214.985
L234.072 221.251
L234.327 220.305
L234.327 220.305
L234.455 220.287
L234.71 222.474
L234.838 219.719
L235.093 220.408
L235.093 220.408
L235.221 218.342
L235.476 218.325
L235.859 221.785
L235.859 221.785
L235.986 218.945
L236.242 219.633
L236.369 222.302
L236.624 220.924
L236.752 223.507
L237.007 217.051
L237.135 219.892
L237.39 220.752
L237.518 220.064
L237.773 219.358
L237.901 215.932
L238.156 217.309
L238.283 220.046
L238.666 223.334
L238.921 222.646
L239.049 224.367
L239.304 224.539
L239.687 220.907
L239.815 220.924
L240.07 220.15
L240.198 218.773
L240.453 217.395
L240.453 217.395
L240.58 219.444
L240.836 221.613
L240.963 219.547
L241.219 219.547
L241.346 216.104
L241.729 223.162
L241.984 220.752
L242.112 222.456
L242.367 221.785
L242.495 223.507
L242.75 220.924
L242.878 222.629
L243.26 220.322
L243.516 220.408
L243.643 219.719
L243.898 219.805
L244.026 220.494
L244.281 220.752
L244.409 222.129
L244.664 221.355
L245.047 218.17
L245.047 218.17
L245.175 221.269
L245.43 222.043
L245.557 221.957
L245.813 221.183
L245.94 222.646
L246.196 222.043
L246.323 217.912
L246.706 221.424
L246.961 220.735
L247.089 219.375
L247.344 221.871
L247.727 220.494
L247.855 220.494
L248.237 219.805
L248.493 221.854
L248.62 221.183
L248.876 221.785
L248.876 221.785
L249.003 222.474
L249.258 221.785
L249.641 221.699
L249.641 221.699
L249.769 219.633
L250.024 220.236
L250.152 220.236
L250.407 220.838
L250.534 220.838
L250.79 222.388
L250.917 222.129
L251.173 218.859
L251.555 221.613
L251.683 219.719
L251.938 219.719
L252.066 221.079
L252.449 223.334
L252.704 221.269
L252.832 221.596
L253.087 225.056
L253.214 218.514
L253.47 223.317
L253.597 221.957
L253.852 221.957
L253.98 223.231
L254.235 212.524
L254.363 223.92
L255.001 222.302
L255.129 217.912
L255.129 217.912
L255.384 223.713
L255.511 222.302
L255.511 222.302
L255.767 223.662
L255.767 223.662
L256.277 221.699
L256.532 224.023
L256.66 222.646
L256.66 222.646
L256.915 225.056
L257.043 225.056
L257.298 224.023
L257.426 222.646
L257.681 225.056
L257.809 225.056
L258.064 222.629
L258.064 222.629
L258.447 225.056
L258.574 225.056
L258.702 224.798
L258.957 218.514
L259.212 220.408
L259.212 220.408
L259.34 217.998
L259.723 223.421
L259.978 222.732
L260.106 220.322
L260.361 219.633
L260.489 219.633
L260.744 220.666
L260.871 223.421
L261.127 209.132
L261.254 222.646
L261.509 221.699
L261.637 224.798
L261.892 221.269
L262.02 223.334
L262.275 221.613
L262.403 217.912
L262.658 221.183
L262.786 219.117
L263.041 220.408
L263.168 222.302
L263.424 220.924
L263.424 220.924
L263.551 222.99
L263.807 219.719
L263.934 223.334
L264.189 222.474
L264.189 222.474
L264.317 220.236
L264.7 223.162
L264.955 224.453
L264.955 224.453
L265.083 224.522
L265.338 224.281
L265.466 222.388
L265.593 222.99
L265.848 221.699
L266.104 224.419
L266.231 223.765
L266.486 217.137
L266.614 221.785
L266.869 222.99
L266.997 222.973
L267.252 224.35
L267.38 223.679
L267.635 221.613
L267.763 222.99
L268.018 219.892
L268.145 223.593
L268.401 221.527
L268.528 222.215
L268.784 222.887
L268.911 221.527
L269.166 222.215
L269.677 219.547
L269.932 220.666
L270.06 222.043
L270.315 220.649
L270.443 221.355
L270.698 220.752
L270.825 219.719
L271.081 223.421
L271.463 223.421
L271.846 222.646
L271.974 219.892
L272.229 222.043
L272.357 221.424
L272.612 222.129
L272.995 222.043
L273.122 222.302
L273.378 221.785
L273.378 221.785
L273.506 221.785
L273.761 217.481
L273.888 222.043
L274.271 221.871
L274.526 219.117
L274.654 219.117
L275.037 224.023
L275.292 223.317
L275.675 221.785
L275.802 222.732
L276.185 223.421
L276.568 221.338
L276.823 221.441
L276.951 222.818
L277.206 222.129
L277.334 223.162
L277.589 221.613
L277.717 221.768
L277.972 217.998
L277.972 217.998
L278.482 224.884
L278.738 225.744
L278.865 224.367
L279.248 228.223
L279.631 222.284
L279.886 222.56
L280.014 222.474
L280.269 224.867
L280.269 224.867
L280.397 223.507
L280.779 224.712
L281.035 223.507
L281.035 223.507
L281.162 224.195
L281.417 222.818
L281.545 219.547
L282.183 222.215
L282.311 224.023
L282.566 223.507
L282.694 221.355
L282.949 221.854
L283.077 225.555
L283.459 224.109
L283.715 222.732
L283.842 221.355
L284.097 220.666
L284.225 219.978
L284.48 225.469
L284.608 225.744
L284.736 225.056
L285.246 223.507
L285.374 224.798
L285.756 224.78
L286.012 223.507
L286.139 224.884
L286.395 222.646
L286.522 222.646
L286.777 218.859
L286.905 221.269
L287.16 218.342
L287.288 219.203
L287.543 218.514
L287.671 219.203
L287.926 222.646
L288.309 220.322
L288.437 222.629
L288.692 222.646
L288.819 223.162
L289.074 224.867
L289.202 217.912
L289.585 217.912
L289.968 223.765
L290.223 223.162
L290.351 223.162
L290.606 223.679
L290.989 218.859
L291.116 221.613
L291.372 218.859
L291.499 220.924
L291.754 220.924
L292.265 225.831
L292.52 221.01
L292.52 221.01
L292.903 222.56
L293.031 225.366
L293.286 224.694
L293.286 224.694
L293.413 222.646
L293.669 223.214
L293.669 223.214
L293.796 222.302
L294.051 221.613
L294.051 221.613
L294.179 220.236
L294.562 220.236
L294.945 222.129
L295.2 221.613
L295.328 221.613
L295.583 222.99
L295.71 222.99
L295.966 224.677
L296.349 222.474
L296.476 222.474
L296.731 220.408
L296.859 223.851
L297.114 224.712
L297.242 219.203
L297.497 224.023
L297.625 224.023
L297.88 219.892
L298.008 221.957
L298.263 220.58
L298.39 218.859
L298.773 224.006
L299.028 224.677
L299.156 222.646
L299.411 221.269
L299.539 221.441
L299.794 224.694
L299.922 221.613
L300.177 218.17
L300.177 218.17
L300.305 225.796
L300.687 220.322
L301.07 223.334
L301.326 221.01
L301.453 221.785
L301.708 222.474
L302.091 224.539
L302.219 224.539
L302.474 218.428
L302.474 218.428
L302.857 222.56
L303.112 222.56
L303.368 223.851
L303.623 222.99
L303.75 222.99
L304.005 220.236
L304.005 220.236
L304.133 220.924
L304.388 223.076
L304.771 222.646
L304.899 223.334
L305.154 220.58
L305.282 220.494
L305.537 221.183
L305.664 221.183
L305.92 223.334
L306.047 222.646
L306.303 221.957
L306.813 219.031
L307.068 217.843
L307.068 217.843
L307.196 217.843
L307.451 223.851
L307.579 223.162
L307.834 222.456
L307.962 219.547
L308.217 221.785
L308.344 221.785
L308.6 222.129
L308.6 222.129
L308.727 221.441
L308.983 222.112
L309.365 220.58
L309.493 222.112
L309.748 222.112
L309.876 221.424
L310.131 222.129
L310.131 222.129
L310.259 220.064
L310.514 219.719
L310.642 222.99
L311.024 220.924
L311.28 220.236
L311.407 222.302
L311.662 222.302
L311.79 220.924
L312.045 221.785
L312.428 220.236
L312.556 222.474
L312.811 221.768
L312.939 222.474
L313.194 222.474
L313.577 220.408
L313.704 220.391
L314.087 222.973
L314.342 219.633
L314.47 219.978
L314.725 214.727
L315.108 222.112
L315.236 220.58
L315.874 223.248
L316.257 222.215
L316.384 222.99
L316.767 222.732
L317.15 222.87
L317.405 222.129
L317.533 222.129
L317.788 221.957
L317.916 223.334
L318.171 219.805
L318.298 221.785
L318.554 221.785
L318.554 221.785
L318.681 221.269
L319.064 218.859
L319.447 218.859
L319.702 222.302
L319.83 222.302
L320.085 220.408
L320.213 222.904
L320.596 220.58
L320.851 223.885
L320.851 223.885
L321.234 223.765
L321.361 223.851
L321.616 222.302
L321.999 222.56
L322.127 223.231
L322.765 224.522
L322.893 223.679
L323.148 222.99
L323.275 224.505
L323.531 223.162
L323.658 223.162
L323.914 222.474
L323.914 222.474
L324.041 221.699
L324.296 220.924
L324.679 217.309
L324.807 217.309
L325.062 219.547
L325.19 218.17
L325.445 217.223
L325.573 222.973
L325.828 219.031
L325.956 221.097
L326.211 219.719
L326.338 222.474
L326.593 222.302
L326.721 218.428
L327.104 222.973
L327.359 222.284
L327.487 220.924
L327.742 224.195
L327.87 221.785
L328.125 221.613
L328.252 222.302
L328.508 220.408
L328.891 222.302
L329.018 221.441
L329.401 222.99
L329.656 222.302
L329.784 221.613
L330.039 219.547
L330.167 223.197
L330.55 221.768
L330.805 222.095
L330.933 222.543
L331.188 222.543
L331.315 223.18
L331.57 222.56
L331.698 221.871
L331.953 218.428
L332.081 223.317
L332.336 221.441
L332.464 217.843
L332.847 224.539
L333.102 224.023
L333.23 224.367
L333.485 223.162
L333.612 223.851
L333.868 221.785
L333.995 226.261
L334.25 225.572
L334.378 224.884
L334.633 217.843
L335.016 226.227
L335.144 225.555
L335.399 217.843
L335.527 222.646
L335.909 224.006
L336.165 223.248
L336.292 223.92
L336.93 223.73
L337.058 223.748
L337.313 219.719
L337.441 222.215
L337.696 222.99
L337.824 222.99
L338.079 224.712
L338.207 224.023
L338.462 226.209
L338.589 200.611
L338.845 223.507
L338.972 224.178
L339.227 222.818
L339.355 223.507
L339.61 219.014
L339.738 224.798
L339.866 222.99
L340.121 223.403
L340.504 223.403
L340.759 221.957
L340.886 224.023
L341.142 222.646
L341.269 225.4
L341.525 224.78
L341.652 224.109
L341.907 224.109
L342.035 225.435
L342.29 222.043
L342.418 224.712
L342.673 221.957
L342.801 224.109
L343.056 217.843
L343.184 224.023
L343.566 221.183
L343.822 225.228
L343.822 225.228
L343.949 224.798
L344.204 225.142
L344.332 224.023
L344.588 225.228
L344.715 222.646
L344.97 222.646
L345.098 223.317
L345.353 222.99
L345.353 222.99
L345.736 218.17
L345.863 222.99
L346.119 222.302
L346.246 223.334
L346.502 222.043
L346.629 222.732
L346.884 222.646
L346.884 222.646
L347.012 223.334
L347.267 223.851
L347.395 223.162
L347.65 223.851
L347.778 221.871
L348.161 221.957
L348.416 222.302
L348.543 216.104
L348.799 222.99
L349.181 217.843
L349.309 222.302
L349.564 221.871
L349.692 217.843
L350.075 224.694
L350.458 222.129
L350.713 221.785
L350.84 224.195
L351.096 223.162
L351.224 223.593
L351.606 221.613
L351.861 222.646
L351.989 224.023
L352.244 217.843
L352.372 223.851
L352.627 225.452
L353.01 221.355
L353.138 224.694
L353.393 223.937
L353.52 220.494
L353.776 223.248
L353.776 223.248
L354.158 223.765
L354.286 224.281
L354.541 218.428
L354.924 223.317
L355.052 219.375
L355.435 223.679
L355.69 222.801
L355.817 224.35
L356.073 222.99
L356.073 222.99
L356.2 222.99
L356.583 222.302
L356.838 224.006
L356.966 220.752
L357.221 223.507
L357.477 223.507
L357.732 222.129
L358.115 224.66
L358.37 222.646
L358.37 222.646
L358.497 223.334
L358.88 223.334
L359.136 222.99
L359.263 221.355
L359.646 224.643
L359.901 223.334
L360.029 224.626
L360.667 218.773
L360.795 216.707
L361.05 218.773
L361.177 224.626
L361.433 224.66
L361.56 225.039
L361.816 221.665
L361.943 221.665
L362.198 222.302
L362.326 219.375
L362.581 220.322
L362.709 221.441
L362.964 220.064
L363.092 218.342
L363.347 220.408
L363.474 219.719
L363.73 222.112
L363.857 220.752
L364.113 220.322
L364.495 221.441
L364.623 221.441
L364.878 222.302
L365.006 221.613
L365.261 222.129
L365.389 222.99
L365.772 222.99
L366.155 222.302
L366.41 222.99
L366.537 223.662
L366.92 223.593
L367.303 218.686
L367.558 220.408
L367.686 222.818
L368.069 222.388
L368.324 222.646
L368.451 223.162
L368.707 221.957
L369.09 222.956
L369.472 222.198
L369.6 221.527
L369.855 222.215
L369.983 222.215
L370.238 220.838
L370.749 223.644
L371.004 222.302
L371.131 222.99
L371.387 222.99
L371.514 223.162
L371.769 222.388
L371.897 224.505
L372.28 221.01
L372.535 220.408
L372.918 222.474
L373.046 221.097
L373.301 224.367
L373.428 217.843
L373.684 217.843
L373.684 217.843
L373.811 223.765
L374.067 221.269
L374.194 223.765
L374.577 221.01
L374.96 224.367
L375.215 222.646
L375.343 225.056
L375.726 224.694
L375.981 223.782
L376.108 220.408
L376.491 224.023
L376.874 223.851
L377.129 224.712
L377.257 221.613
L377.64 225.09
L377.767 225.09
L378.023 223.851
L378.278 223.679
L378.405 222.99
L378.788 225.503
L379.044 223.507
L379.171 220.58
L379.426 221.785
L379.554 219.289
L379.809 221.441
L379.937 221.441
L380.192 217.843
L380.575 222.99
L380.703 222.732
L380.958 222.646
L381.086 223.334
L381.341 223.937
L381.468 222.56
L381.723 223.248
L381.851 225.245
L382.107 224.626
L382.234 223.834
L382.617 225.228
L382.872 223.162
L383 223.162
L383.255 225.142
L383.383 223.076
L383.638 222.302
L384.021 223.076
L384.403 223.059
L384.531 222.043
L384.786 224.453
L385.169 224.023
L385.297 224.539
L385.552 223.248
L385.68 217.843
L385.935 225.245
L386.062 224.712
L386.318 217.843
L386.445 224.367
L386.701 225.039
L386.828 223.679
L387.211 217.843
L387.594 223.679
L387.849 225.004
L388.232 221.785
L388.232 221.785
L388.36 221.613
L388.742 224.608
L388.998 222.388
L389.125 224.539
L389.38 224.367
L389.508 224.539
L389.763 221.441
L390.274 224.987
L390.657 222.388
L391.039 222.732
L391.295 222.697
L391.422 223.421
L391.805 224.109
L392.06 224.023
L392.188 224.712
L392.443 223.3
L392.571 223.334
L392.826 221.269
L392.954 224.023
L393.209 224.712
L393.337 224.712
L393.719 222.818
L393.975 224.264
L394.102 224.023
L394.102 224.023
L394.485 224.023
L395.123 225.28
L395.251 223.248
L395.506 224.023
L395.889 221.613
L396.016 222.302
L396.399 225.297
L396.655 224.626
L397.42 224.591
L397.548 223.937
L397.803 224.539
L397.931 217.843
L398.186 223.248
L398.314 221.183
L398.569 222.56
L398.696 224.367
L398.952 223.851
L399.335 221.441
L399.462 224.712
L399.717 223.679
L399.845 223.851
L400.1 219.375
L400.228 223.162
L400.483 224.677
L400.611 223.334
L400.866 222.646
L400.993 224.677
L401.249 222.56
L401.376 224.574
L401.632 223.851
L401.759 223.076
L402.014 223.248
L402.142 223.937
L402.397 222.56
L402.525 223.248
L402.78 222.56
L402.908 221.871
L403.163 224.591
L403.291 223.937
L403.546 224.539
L403.673 218.686
L404.056 224.367
L404.311 224.453
L404.439 223.248
L404.822 224.023
L405.205 221.183
L405.46 224.539
L405.588 221.441
L405.843 223.317
L405.97 225.383
L406.226 224.023
L406.353 225.4
L406.736 221.269
L406.991 222.646
L407.119 224.539
L407.374 223.421
L407.502 224.97
L407.757 226.399
L407.885 225.021
L408.14 225.831
L408.523 222.818
L408.65 217.826
L408.906 223.421
L409.033 223.076
L409.289 217.843
L409.416 223.162
L409.671 222.646
L409.799 224.367
L410.054 222.99
L410.437 222.99
L410.82 217.843
L410.948 223.334
L411.203 222.646
L411.33 223.489
L411.713 223.851
L411.968 222.302
L412.096 224.712
L412.351 222.215
L412.479 224.281
L412.607 219.978
L412.989 223.937
L413.245 224.608
L413.5 223.248
L413.627 221.183
L413.883 220.494
L414.01 223.765
L414.266 222.388
L414.393 223.076
L414.648 222.99
L414.776 223.076
L415.414 223.076
L415.542 224.453
L415.797 223.076
L415.925 223.937
L416.18 223.248
L416.307 223.851
L416.563 221.527
L416.69 223.765
L416.945 224.453
L417.328 221.01
L417.456 222.388
L417.711 221.785
L417.839 221.785
L418.222 223.765
L418.477 222.388
L418.604 221.01
L418.86 224.712
L418.987 224.006
L419.37 224.023
L419.625 223.851
L419.753 221.441
L420.008 220.408
L420.136 223.334
L420.391 221.613
L420.519 218.859
L420.902 222.474
L421.157 221.097
L421.284 222.474
L421.667 224.023
L421.922 223.162
L422.05 224.626
L422.433 224.608
L422.816 222.56
L423.071 223.231
L423.199 224.677
L423.581 223.231
L423.837 223.231
L423.964 222.99
L424.22 224.626
L424.347 222.646
L424.602 224.677
L424.73 224.023
L424.985 224.608
L425.113 224.608
L425.368 223.851
L425.496 223.937
L425.751 223.162
L425.879 223.851
L426.134 223.937
L426.261 223.851
L426.517 221.665
L426.644 192.004
L426.899 224.281
L427.282 224.367
L427.665 217.137
L427.793 224.539
L428.048 223.679
L428.176 223.851
L428.431 224.539
L428.558 221.785
L428.814 222.99
L428.941 224.522
L429.197 222.646
L429.324 223.851
L429.579 223.162
L429.707 220.752
L429.962 221.785
L430.09 223.851
L430.345 219.031
L430.473 220.322
L430.728 215.485
L430.983 221.01
L431.494 222.474
L431.621 221.785
L431.877 223.162
L432.004 223.162
L432.259 223.851
L432.387 222.474
L432.642 221.097
L432.642 221.097
L432.77 221.785
L433.025 223.834
L433.153 223.765
L433.408 224.677
L433.536 223.334
L433.791 219.031
L433.918 222.302
L434.174 220.236
L434.301 224.109
L434.556 224.66
L434.684 222.646
L434.939 224.694
L435.067 222.646
L435.322 221.269
L435.45 224.66
L435.833 222.904
L436.088 220.838
L436.215 223.834
L436.471 221.785
L436.598 222.302
L436.854 221.613
L436.981 222.474
L437.236 222.474
L437.619 221.613
L437.747 223.593
L438.002 222.904
L438.13 224.316
L438.385 224.333
L438.513 222.302
L438.768 224.316
L438.895 224.281
L439.151 222.543
L439.533 222.904
L439.661 224.247
L439.916 224.281
L440.299 220.924
L440.299 220.924
L440.427 220.924
L440.682 224.298
L441.065 222.215
L441.192 224.333
L441.448 223.679
L441.575 224.367
L441.831 221.871
L441.831 221.871
L441.958 224.161
L442.341 222.99
L442.596 223.248
L442.724 221.183
L442.979 221.183
L443.107 223.248
L443.362 223.248
L443.49 224.539
L443.872 222.215
L444.128 224.643
L444.638 222.646
L444.893 224.367
L445.021 221.527
L445.404 224.643
L445.659 222.388
L446.042 224.677
L446.169 224.66
L446.425 223.3
L446.552 224.281
L446.935 224.694
L447.19 223.231
L447.318 223.334
L447.573 224.643
L447.701 223.851
L447.956 217.843
L448.084 222.388
L448.339 223.248
L448.467 224.712
L448.849 224.694
L449.105 224.006
L449.232 223.076
L449.487 223.971
L449.487 223.971
L449.615 223.162
L449.87 223.334
L449.998 222.646
L450.126 223.317
L450.381 222.474
L450.764 224.006
L451.019 222.99
L451.146 224.023
L451.402 223.937
L451.529 224.539
L451.785 224.712
L451.912 224.023
L452.295 224.712
L452.55 217.481
L452.678 223.334
L453.061 223.334
L453.316 222.646
L453.444 217.137
L453.826 224.281
L454.082 224.694
L454.209 217.843
L454.465 223.334
L454.592 223.334
L454.847 217.137
L454.847 217.137
L454.975 225.4
L455.23 224.195
L455.358 222.818
L455.613 223.507
L455.741 223.507
L455.996 222.646
L456.123 223.851
L456.379 224.023
L456.506 221.957
L456.762 220.322
L456.889 223.317
L457.144 226.261
L457.272 226.261
L457.527 225.228
L457.655 223.162
L457.91 221.785
L458.038 224.367
L458.421 225.555
L458.676 222.818
L458.803 222.818
L459.059 223.507
L459.442 225.486
L459.569 217.843
L459.952 224.109
L460.207 225.142
L460.335 223.765
L460.59 226.261
L460.718 226.261
L460.973 170.83
L461.101 223.92
L461.356 223.162
L461.484 223.851
L461.739 217.843
L461.866 217.843
L462.121 224.539
L462.249 224.712
L462.504 224.798
L462.632 223.334
L462.887 224.281
L463.015 224.281
L463.27 225.624
L463.398 224.195
L463.653 223.334
L463.781 225.521
L464.163 224.712
L464.419 217.843
L464.546 217.843
L464.801 206.98
L464.929 217.843
L465.184 224.626
L465.312 224.281
L465.567 224.97
L465.567 224.97
L465.695 223.937
L465.95 223.937
L466.078 225.572
L466.333 226.209
L466.716 224.195
L466.843 221.269
L467.098 225.142
L467.098 225.142
L467.226 223.765
L467.481 222.818
L467.992 226.244
L468.247 222.904
L468.63 225.211
L468.757 213.866
L469.14 227.982
L469.396 226.003
L469.523 222.56
L469.778 225.985
L469.906 224.281
L470.161 224.281
L470.289 226.347
L470.544 224.97
L470.672 225.641
L470.927 225.658
L471.055 224.712
L471.31 225.314
L471.437 222.56
L471.82 225.314
L472.075 225.142
L472.203 227.208
L472.458 226.003
L472.586 226.605
L472.841 226.003
L472.969 217.843
L473.352 227.81
L473.607 224.402
L473.734 225.142
L473.99 224.023
L474.118 225.831
L474.373 225.831
L474.755 228.396
L474.883 227.81
L475.138 225.142
L475.266 227.036
L475.521 224.539
L475.649 227.191
L475.904 224.109
L476.032 225.228
L476.287 224.023
L476.414 225.985
L476.67 225.142
L476.797 226.089
L477.052 217.998
L477.18 225.383
L477.435 224.539
L477.563 224.712
L477.818 224.712
L477.946 223.093
L478.201 224.712
L478.329 222.99
L478.584 222.646
L478.711 225.658
L478.967 223.593
L479.094 224.281
L479.35 224.367
L479.477 226.433
L479.732 225.486
L479.86 218.945
L480.115 224.626
L480.243 223.248
L480.498 224.626
L480.626 223.937
L480.881 223.937
L481.009 226.003
L481.264 217.843
L481.391 226.777
L481.647 226.433
L481.774 217.843
L482.157 225.142
L482.412 224.367
L482.54 225.056
L482.795 225.693
L482.923 225.056
L483.178 225.831
L483.306 224.712
L483.561 224.712
L483.689 224.884
L483.944 223.937
L484.071 225.486
L484.327 224.884
L484.454 223.162
L484.837 224.023
L485.092 222.732
L485.22 217.843
L485.475 217.843
L485.858 225.572
L485.986 224.195
L486.241 222.99
L486.241 222.99
L486.368 224.884
L486.624 223.334
L486.751 224.884
L487.007 226.261
L487.134 225.917
L487.389 224.195
L487.517 224.195
L487.772 226.175
L488.155 226.347
L488.283 223.679
L488.538 225.831
L488.666 224.453
L488.921 225.744
L489.048 225.744
L489.304 225.572
L489.431 225.831
L489.814 225.831
L490.069 226.76
L490.197 224.023
L490.58 226.519
L490.835 226.691
L490.963 226.072
L491.218 223.334
L491.345 224.023
L491.601 224.694
L491.728 226.261
L491.984 225.555
L492.111 223.334
L492.494 225.744
L492.749 222.99
L492.877 225.039
L493.132 224.023
L493.26 218.17
L493.515 217.481
L493.643 221.957
L493.898 224.023
L494.281 221.097
L494.408 226.072
L494.663 226.347
L494.791 225.572
L495.046 227.466
L495.174 226.691
L495.429 226.399
L495.557 224.97
L495.684 226.399
L495.812 226.33
L495.812 226.33
L495.94 225.658
L496.195 225.658
L496.322 224.195
L496.578 224.109
L496.705 225.744
L497.343 228
L497.471 233.061
L497.726 231.856
L497.854 228.068
L498.109 224.109
L498.237 226.777
L498.492 226.588
L498.62 224.453
L498.875 225.142
L499.002 223.765
L499.385 226.261
L499.768 224.367
L500.023 225.831
L500.151 221.01
L500.406 224.539
L500.534 230.892
L500.789 229.945
L500.917 229.962
L501.172 224.626
L501.299 225.917
L501.555 225.985
L501.682 224.626
L501.938 227.363
L502.065 225.383
L502.32 218.17
L502.448 218.17
L502.703 226.605
L502.831 226.571
L503.086 219.547
L503.214 223.421
L503.469 218.084
L503.597 224.453
L503.852 226.95
L503.979 224.97
L504.235 225.228
L504.362 223.851
L504.617 223.851
L504.745 224.884
L504.873 224.798
L505.128 222.129
L505.383 225.021
L505.766 224.987
L506.277 223.679
L506.532 225.039
L506.659 223.679
L506.915 225.917
L507.297 225.917
L507.425 223.507
L507.68 224.539
L507.808 223.162
L508.063 224.539
L508.191 224.539
L508.446 220.322
L508.574 228.103
L508.829 226.777
L509.212 227.982
L509.595 226.158
L509.722 226.175
L509.977 227.81
L510.36 227.466
L510.488 226.003
L510.743 226.003
L510.871 223.593
L511.126 221.785
L511.636 226.605
L511.892 223.937
L512.019 223.937
L512.402 226.347
L512.657 225.228
L513.04 219.375
L513.168 224.539
L513.423 223.851
L513.806 226.347
L513.933 222.388
L514.189 221.01
L514.317 227.018
L514.699 222.388
L515.082 227.208
L515.337 225.831
L515.465 224.281
L515.72 228.137
L515.848 227.552
L516.103 228.068
L516.231 221.441
L516.486 224.729
L516.869 224.712
L516.996 224.023
L517.251 223.679
L517.379 217.843
L517.634 227.466
L517.762 218.084
L518.017 226.433
L518.145 224.798
L518.4 226.588
L518.4 226.588" style="fill:none;stroke:#ff0000;stroke-linecap:square;"/>
   </g>
   <g id="line2d_2">
    <path clip-path="url(#pcb2bf987bf)" d="
M72 318.928
L72.1276 317.723
L72.7657 317.723
L72.8933 318.325
L73.5314 318.325
L73.659 317.017
L74.2971 317.017
L74.4247 317.137
L75.0628 317.137
L75.1904 317.568
L75.8285 317.568
L75.9561 318.136
L76.5942 318.136
L76.7218 319.083
L77.3599 319.083
L77.8703 318.635
L78.1256 318.635
L78.1256 318.635
L78.2532 319.53
L78.8915 319.53
L79.0189 318.273
L79.6569 318.273
L79.7846 319.341
L80.4226 319.341
L80.5503 320.391
L81.1885 320.391
L81.316 318.859
L81.9542 318.859
L82.0816 319.324
L82.7197 319.324
L82.8473 318.687
L83.4854 318.687
L83.613 319.289
L85.017 319.289
L85.1444 319.014
L85.7825 319.014
L85.9101 319.134
L86.5482 319.134
L86.6758 318.91
L87.3139 318.91
L87.4415 318.738
L88.0796 318.738
L88.2072 320.012
L88.8453 320.012
L88.8453 320.012
L88.9729 320.477
L89.611 320.477
L89.7386 320.322
L90.3767 320.322
L91.0148 320.15
L91.9081 320.081
L92.5461 321.957
L92.6738 321.957
L93.3118 320.77
L94.2051 321.2
L94.8432 319.943
L94.9708 319.943
L95.6089 318.704
L95.7365 318.704
L96.3746 320.115
L97.1403 319.358
L98.0336 320.047
L98.6717 318.05
L98.7993 318.05
L99.4374 319.031
L100.331 318.755
L100.969 320.012
L101.862 320.683
L102.5 320.408
L103.393 320.253
L104.032 321.217
L104.797 321.544
L105.563 320.58
L106.329 318.824
L107.095 319.203
L107.988 318.325
L108.626 318.325
L109.519 318.807
L110.157 320.632
L110.285 320.632
L110.923 319.427
L111.05 319.427
L111.816 320.305
L113.986 319.272
L114.879 319.651
L116.41 320.012
L117.048 321.355
L117.942 322.061
L118.707 322.112
L119.345 320.804
L120.111 321.2
L121.643 319.909
L122.536 320.236
L123.174 320.288
L124.067 319.857
L124.705 319.754
L125.471 319.237
L126.365 318.945
L127.13 319.478
L127.13 319.478
L127.64 320.563
L127.64 320.563
L127.768 320.563
L128.661 319.771
L129.299 318.687
L130.193 319.513
L130.831 319.392
L131.597 319.031
L132.362 318.463
L132.362 318.463
L133.894 319.823
L134.149 319.685
L134.659 319.685
L135.425 319.806
L136.956 318.807
L137.722 319.151
L138.488 318.256
L139.381 318.497
L140.019 318.446
L140.785 318.136
L141.678 319.358
L143.082 319.616
L143.975 319.41
L144.613 317.723
L145.507 317.671
L146.145 315.192
L146.272 315.192
L146.91 316.845
L147.676 316.862
L148.442 317.86
L149.335 317.189
L149.973 318.239
L150.867 318.136
L151.505 317.241
L152.27 317.034
L153.164 317.034
L153.802 319.272
L154.567 319.806
L156.099 318.669
L156.865 318.359
L157.758 318.359
L158.396 317.912
L159.162 318.549
L160.821 318.755
L162.224 318.618
L163.118 318.928
L163.883 319.031
L164.649 318.514
L165.287 319.53
L166.053 319.237
L166.819 320.305
L167.712 320.339
L168.35 319.358
L169.243 319.53
L170.647 321.854
L170.775 321.854
L171.413 320.666
L172.178 321.682
L173.072 322.009
L173.71 323.094
L174.603 322.99
L176.007 322.594
L176.9 322.853
L177.538 322.956
L179.07 322.508
L179.963 322.577
L180.601 321.424
L180.729 321.424
L181.367 322.973
L182.132 324.385
L183.791 324.453
L184.43 324.109
L185.195 324.178
L186.727 323.834
L187.492 325.159
L188.258 324.798
L189.151 324.97
L191.321 325.659
L191.321 325.659
L192.852 327.105
L193.618 327.191
L195.277 327.776
L195.915 328.413
L196.681 328.137
L198.212 327.38
L198.212 327.38
L198.978 327.346
L200.509 325.986
L201.275 325.624
L202.04 326.244
L202.806 327.053
L204.338 326.347
L205.231 326.726
L205.997 326.089
L206.124 326.571
L207.4 326.468
L207.911 327.277
L208.166 327.277
L208.804 327.604
L209.059 327.604
L209.059 327.604
L209.57 327.346
L209.825 327.346
L210.591 327.69
L210.846 327.535
L211.356 327.535
L211.484 327.191
L212.122 327.191
L212.25 326.709
L212.888 326.709
L213.398 327.277
L214.419 327.294
L214.547 327.087
L215.185 327.087
L215.185 327.087
L215.313 326.726
L215.951 326.726
L215.951 326.726
L216.078 326.399
L217.482 326.33
L217.482 326.33
L217.61 326.192
L218.248 326.192
L218.248 326.192
L218.375 327.879
L219.013 327.879
L219.141 327.38
L219.779 327.38
L219.907 327.69
L221.31 327.587
L221.438 328.086
L222.076 328.086
L222.204 327.914
L222.842 327.914
L222.842 327.914
L223.352 327.655
L223.608 327.655
L223.735 328.499
L224.373 328.499
L224.501 327.845
L225.905 327.845
L225.905 327.845
L226.032 327.483
L226.032 327.483
L229.733 327.414
L229.861 327.259
L230.499 327.259
L230.499 327.259
L231.009 326.864
L232.796 326.795
L232.796 326.795
L232.924 326.64
L233.562 326.64
L233.689 327.259
L234.327 327.259
L234.327 327.259
L234.455 326.433
L235.093 326.433
L235.093 326.433
L235.221 326.777
L235.859 326.777
L235.859 326.777
L235.986 327.724
L237.39 327.776
L237.518 327.518
L239.687 327.604
L239.815 327.225
L240.453 327.225
L240.453 327.225
L240.58 326.519
L241.219 326.519
L241.346 326.915
L241.984 326.915
L242.112 327.432
L242.75 327.432
L242.878 326.795
L243.516 326.795
L243.643 326.158
L244.281 326.158
L244.409 326.588
L245.047 326.588
L245.047 326.588
L245.175 326.709
L246.578 326.709
L246.578 326.709
L246.706 327.173
L247.344 327.173
L247.855 327.432
L248.237 326.158
L249.641 326.227
L249.641 326.227
L249.769 325.796
L251.938 325.727
L252.066 326.674
L252.704 326.674
L252.832 327.466
L253.47 327.466
L253.597 327.879
L254.235 327.879
L254.363 328.017
L255.001 328.017
L255.129 327.07
L255.129 327.07
L255.767 327.07
L255.767 327.07
L255.894 328.069
L256.532 328.069
L256.66 327.931
L256.66 327.931
L257.298 327.931
L257.426 327.277
L258.064 327.277
L258.064 327.277
L258.702 327.105
L258.83 327.105
L258.957 327.483
L259.595 327.483
L259.595 327.483
L259.723 327.724
L260.361 327.724
L260.489 327.122
L261.127 327.122
L261.254 327.277
L261.892 327.277
L262.02 327.741
L262.658 327.741
L262.786 326.898
L263.424 326.898
L263.424 326.898
L263.551 326.399
L264.189 326.399
L264.189 326.399
L264.317 326.915
L264.955 326.915
L264.955 326.915
L265.083 327.156
L265.593 327.156
L265.848 327.001
L266.486 327.001
L266.614 327.173
L267.252 327.173
L267.38 326.864
L268.018 326.864
L268.145 326.588
L268.784 326.588
L268.911 326.175
L269.549 326.175
L269.677 325.727
L271.081 325.762
L271.463 326.072
L271.846 326.072
L271.974 325.813
L273.378 325.865
L273.378 325.865
L273.506 326.709
L274.143 326.709
L274.271 326.932
L274.909 326.932
L274.909 326.932
L275.037 327.535
L276.441 327.449
L276.568 327.087
L277.972 327.087
L277.972 327.087
L278.099 327.397
L278.738 327.397
L278.865 328.344
L279.503 328.344
L279.631 328.189
L280.269 328.189
L280.269 328.189
L280.397 328.344
L281.035 328.344
L281.035 328.344
L281.162 327.879
L282.566 327.965
L282.694 327.346
L283.332 327.346
L283.459 327.466
L284.097 327.466
L284.225 327.776
L285.629 327.707
L285.756 328.602
L286.395 328.602
L286.522 328.103
L287.16 328.103
L287.288 327.845
L287.926 327.845
L288.054 328
L288.692 328
L288.819 327.483
L289.457 327.483
L289.585 328
L290.223 328
L290.351 327.518
L290.989 327.518
L291.116 327.225
L292.52 327.208
L292.52 327.208
L292.648 327.518
L293.286 327.518
L293.286 327.518
L293.413 327.191
L294.051 327.191
L294.051 327.191
L294.179 326.209
L294.817 326.209
L294.817 326.209
L294.945 326.364
L295.583 326.364
L295.71 326.743
L296.349 326.743
L296.476 326.881
L297.88 326.846
L298.008 327.414
L298.646 327.414
L298.773 327.759
L299.411 327.759
L299.539 328.206
L300.177 328.206
L300.177 328.206
L300.305 328.447
L300.943 328.447
L301.07 328.895
L301.708 328.895
L301.836 329.101
L302.474 329.101
L302.474 329.101
L303.368 328.895
L304.005 328.895
L304.005 328.895
L304.133 328.069
L304.771 328.069
L304.899 328.757
L307.068 328.826
L307.068 328.826
L307.196 328
L308.6 327.914
L308.6 327.914
L308.727 327.5
L309.365 327.5
L309.493 327.139
L310.131 327.139
L310.131 327.139
L310.259 327.001
L310.897 327.001
L311.024 327.346
L311.662 327.346
L311.79 327.087
L312.428 327.087
L312.556 326.932
L313.96 327.018
L314.087 327.466
L314.725 327.466
L314.853 327.242
L315.491 327.242
L315.619 328.051
L316.257 328.051
L316.384 328.447
L317.022 328.447
L317.15 328.602
L317.788 328.602
L317.916 329.274
L318.554 329.274
L318.554 329.274
L318.681 328.137
L319.319 328.137
L319.319 328.137
L319.447 328.327
L320.085 328.327
L320.213 328.774
L320.851 328.774
L320.851 328.774
L321.361 329.291
L323.148 329.256
L323.275 328.706
L324.679 328.706
L324.807 327.707
L327.742 327.759
L327.87 327.518
L328.508 327.518
L328.635 326.743
L330.039 326.726
L330.167 327.173
L330.805 327.173
L330.933 326.278
L331.57 326.278
L331.698 327.311
L333.102 327.242
L333.23 329.308
L333.868 329.308
L333.995 329.067
L334.633 329.067
L334.761 328.637
L335.399 328.637
L335.527 328.017
L336.165 328.017
L336.292 328.551
L336.93 328.551
L337.058 328.241
L338.462 328.223
L338.589 329.618
L339.227 329.618
L339.355 329.394
L339.866 329.394
L340.121 329.084
L340.504 329.084
L340.759 328.585
L340.886 329.446
L341.525 329.446
L341.652 329.566
L342.29 329.566
L342.418 328.826
L343.056 328.826
L343.184 329.36
L343.822 329.36
L343.822 329.36
L343.949 328.792
L344.588 328.792
L344.715 328.585
L345.353 328.585
L345.353 328.585
L345.481 327.724
L346.884 327.724
L346.884 327.724
L347.012 328.189
L347.65 328.189
L347.778 327.776
L348.416 327.776
L348.543 327.414
L349.181 327.414
L349.309 327.655
L349.947 327.655
L350.075 327.948
L350.713 327.948
L350.84 327.724
L351.224 327.724
L351.606 328.189
L353.776 328.292
L353.776 328.292
L354.286 328.688
L354.541 328.688
L354.669 328.241
L355.307 328.241
L355.307 328.241
L355.435 328.929
L356.838 328.929
L356.966 329.48
L357.477 329.48
L357.732 329.67
L358.37 329.67
L358.37 329.67
L358.497 329.325
L359.136 329.325
L359.263 328.706
L360.667 328.602
L360.795 328.103
L361.433 328.103
L361.56 328.637
L362.964 328.654
L363.092 327.931
L363.73 327.931
L363.857 328.086
L364.495 328.086
L364.623 328.275
L365.261 328.275
L365.389 328.981
L366.792 328.895
L366.92 328.585
L367.558 328.585
L367.686 328
L368.324 328
L368.451 328.378
L369.09 328.378
L369.6 328
L370.621 327.948
L370.749 327.81
L371.387 327.81
L371.514 328.585
L372.152 328.585
L372.28 327.518
L372.918 327.518
L373.046 327.845
L373.684 327.845
L373.684 327.845
L373.811 328.826
L375.215 328.826
L375.343 327.621
L376.746 327.638
L376.874 327.483
L377.512 327.483
L377.512 327.483
L377.64 328.275
L378.278 328.275
L378.405 328.671
L379.044 328.671
L379.171 328.809
L379.809 328.809
L379.937 327.982
L380.575 327.982
L380.703 327.741
L381.341 327.741
L381.468 327.914
L382.107 327.914
L382.234 327.655
L383.638 327.724
L384.148 327.483
L384.403 327.483
L384.531 327.053
L385.935 327.053
L386.062 327.208
L386.701 327.208
L386.828 327.535
L388.232 327.518
L388.232 327.518
L388.36 345.077
L388.998 345.077
L389.125 326.416
L389.763 326.416
L389.891 326.932
L390.529 326.932
L390.657 327.208
L391.295 327.208
L391.422 327.776
L392.06 327.776
L392.188 328.361
L392.826 328.361
L392.954 328.533
L393.592 328.533
L393.719 328.826
L394.102 328.826
L394.102 328.826
L394.485 329.188
L395.123 329.188
L395.251 328.947
L395.889 328.947
L396.016 328.654
L396.655 328.654
L396.782 328.843
L397.42 328.843
L397.548 328.706
L398.186 328.706
L398.314 327.638
L398.952 327.638
L399.079 326.519
L399.717 326.519
L399.845 326.709
L400.483 326.709
L400.611 326.399
L401.249 326.399
L401.376 325.676
L402.014 325.676
L402.142 326.295
L403.546 326.347
L403.673 327.346
L405.843 327.363
L405.97 327.466
L406.609 327.466
L406.736 327.587
L407.374 327.587
L407.502 327.139
L408.14 327.139
L408.268 328.499
L408.906 328.499
L409.033 327.879
L409.671 327.879
L409.799 328.482
L410.437 328.482
L410.565 328.086
L411.203 328.086
L411.33 328.43
L411.968 328.43
L412.096 327.879
L412.607 327.879
L412.989 327.673
L413.5 327.673
L413.627 328.361
L414.266 328.361
L414.393 327.914
L415.797 327.914
L415.925 327.69
L417.328 327.707
L417.456 327.346
L418.094 327.346
L418.222 327.552
L420.391 327.535
L420.519 327.173
L421.157 327.173
L421.284 326.691
L422.688 326.657
L422.816 326.295
L423.454 326.295
L423.581 326.64
L424.22 326.64
L424.347 326.777
L424.985 326.777
L425.113 326.382
L425.751 326.382
L425.879 325.951
L426.517 325.951
L426.644 325.4
L427.282 325.4
L427.41 325.211
L428.048 325.211
L428.176 325.831
L429.579 325.934
L429.707 326.192
L430.345 326.192
L430.473 325.056
L430.983 325.056
L431.238 325.194
L431.877 325.194
L432.004 325.968
L433.408 325.9
L433.536 326.64
L434.174 326.64
L434.301 326.261
L434.939 326.261
L435.067 327.018
L435.705 327.018
L435.833 326.433
L436.471 326.433
L436.598 326.054
L438.002 325.968
L438.513 325.934
L438.768 325.934
L438.895 326.054
L439.533 326.054
L439.661 325.504
L440.299 325.504
L440.299 325.504
L440.427 324.987
L441.065 324.987
L441.192 325.245
L442.596 325.331
L442.724 324.781
L444.128 324.884
L444.255 325.28
L444.893 325.28
L445.021 325.108
L445.659 325.108
L446.169 325.349
L446.425 325.349
L446.552 325.882
L447.19 325.882
L447.318 326.209
L447.956 326.209
L448.084 326.571
L448.722 326.571
L448.849 327.001
L449.487 327.001
L449.487 327.001
L449.615 326.485
L450.126 326.485
L450.381 326.347
L451.785 326.244
L451.912 327.001
L452.55 327.001
L452.678 326.829
L453.316 326.829
L453.444 326.519
L454.082 326.519
L454.209 327.5
L454.847 327.5
L454.847 327.5
L454.975 327.277
L455.613 327.277
L455.741 327.105
L456.379 327.105
L456.506 327.397
L457.144 327.397
L457.272 327.845
L457.91 327.845
L458.038 327.156
L458.676 327.156
L458.803 326.691
L459.442 326.691
L459.569 327.346
L460.973 327.346
L461.101 326.829
L461.739 326.829
L461.866 326.278
L462.504 326.278
L462.632 326.141
L463.27 326.141
L463.398 325.727
L464.801 325.831
L464.929 326.502
L465.567 326.502
L465.567 326.502
L465.695 327.087
L467.098 326.984
L467.098 326.984
L467.226 327.225
L468.63 327.139
L468.757 327.518
L469.396 327.518
L469.523 327.346
L470.161 327.346
L470.289 327.105
L472.458 327.208
L472.586 326.932
L473.224 326.932
L473.352 326.347
L473.99 326.347
L474.118 325.624
L474.755 325.624
L474.883 326.536
L475.521 326.536
L475.649 325.71
L476.287 325.71
L476.414 325.4
L477.052 325.4
L477.18 325.624
L477.818 325.624
L477.946 325.159
L478.584 325.159
L478.711 325.435
L479.35 325.435
L479.477 325.194
L480.115 325.194
L480.243 325.538
L481.647 325.504
L481.774 325.125
L482.412 325.125
L482.54 324.918
L483.178 324.918
L483.306 325.4
L483.944 325.4
L484.071 325.159
L484.709 325.159
L484.837 325.366
L485.475 325.366
L485.858 326.313
L486.241 326.313
L486.241 326.313
L486.368 325.504
L487.007 325.504
L487.134 325.796
L487.772 325.796
L487.9 326.089
L489.304 326.158
L489.431 325.865
L490.069 325.865
L490.197 325.71
L490.835 325.71
L490.963 326.468
L491.601 326.468
L491.728 325.607
L492.366 325.607
L492.494 325.762
L493.132 325.762
L493.26 325.917
L493.898 325.917
L494.026 326.072
L494.663 326.072
L494.791 325.951
L495.429 325.951
L495.557 325.383
L496.195 325.383
L496.322 324.643
L496.961 324.643
L497.088 324.505
L497.726 324.505
L497.854 324.626
L499.258 324.54
L499.258 324.54
L499.385 324.832
L500.023 324.832
L500.151 324.626
L500.789 324.626
L500.917 325.022
L501.555 325.022
L501.682 325.194
L502.32 325.194
L502.448 325.882
L503.086 325.882
L503.214 325.435
L503.852 325.435
L503.979 326.846
L504.617 326.846
L504.745 327.259
L506.915 327.225
L507.042 327.655
L507.68 327.655
L507.808 327.208
L509.212 327.225
L509.339 327.036
L509.977 327.036
L510.488 326.519
L510.743 326.519
L510.871 326.915
L511.509 326.915
L511.636 327.139
L512.274 327.139
L512.402 326.33
L513.04 326.33
L513.168 325.435
L513.806 325.435
L513.933 326.054
L514.572 326.054
L514.699 326.244
L515.337 326.244
L515.465 325.917
L516.103 325.917
L516.231 326.605
L516.869 326.605
L516.996 325.28
L517.634 325.28
L517.762 326.382
L518.4 326.382
L518.4 326.382" style="fill:none;stroke:#008000;stroke-linecap:square;"/>
   </g>
   <g id="patch_3">
    <path d="
M72 43.2
L518.4 43.2" style="fill:none;stroke:#000000;stroke-linecap:square;stroke-linejoin:miter;"/>
   </g>
   <g id="patch_4">
    <path d="
M518.4 345.6
L518.4 43.2" style="fill:none;stroke:#000000;stroke-linecap:square;stroke-linejoin:miter;"/>
   </g>
   <g id="patch_5">
    <path d="
M72 345.6
L518.4 345.6" style="fill:none;stroke:#000000;stroke-linecap:square;stroke-linejoin:miter;"/>
   </g>
   <g id="patch_6">
    <path d="
M72 345.6
L72 43.2" style="fill:none;stroke:#000000;stroke-linecap:square;stroke-linejoin:miter;"/>
   </g>
   <g id="matplotlib.axis_1">
    <g id="xtick_1">
     <g id="line2d_3">
      <defs>
       <path d="
M0 0
L0 -4" id="m93b0483c22" style="stroke:#000000;stroke-width:0.5;"/>
      </defs>
      <g>
       <use style="stroke:#000000;stroke-width:0.5;" x="117.941468267" xlink:href="#m93b0483c22" y="345.6"/>
      </g>
     </g>
     <g id="line2d_4">
      <defs>
       <path d="
M0 0
L0 4" id="m741efc42ff" style="stroke:#000000;stroke-width:0.5;"/>
      </defs>
      <g>
       <use style="stroke:#000000;stroke-width:0.5;" x="117.941468267" xlink:href="#m741efc42ff" y="43.2"/>
      </g>
     </g>
     <g id="text_1">
      <!-- Oct 13 2015 -->
      <defs>
       <path d="
M19.1875 8.29688
L53.6094 8.29688
L53.6094 0
L7.32812 0
L7.32812 8.29688
Q12.9375 14.1094 22.625 23.8906
Q32.3281 33.6875 34.8125 36.5312
Q39.5469 41.8438 41.4219 45.5312
Q43.3125 49.2188 43.3125 52.7812
Q43.3125 58.5938 39.2344 62.25
Q35.1562 65.9219 28.6094 65.9219
Q23.9688 65.9219 18.8125 64.3125
Q13.6719 62.7031 7.8125 59.4219
L7.8125 69.3906
Q13.7656 71.7812 18.9375 73
Q24.125 74.2188 28.4219 74.2188
Q39.75 74.2188 46.4844 68.5469
Q53.2188 62.8906 53.2188 53.4219
Q53.2188 48.9219 51.5312 44.8906
Q49.8594 40.875 45.4062 35.4062
Q44.1875 33.9844 37.6406 27.2188
Q31.1094 20.4531 19.1875 8.29688" id="BitstreamVeraSans-Roman-32"/>
       <path d="
M39.4062 66.2188
Q28.6562 66.2188 22.3281 58.2031
Q16.0156 50.2031 16.0156 36.375
Q16.0156 22.6094 22.3281 14.5938
Q28.6562 6.59375 39.4062 6.59375
Q50.1406 6.59375 56.4219 14.5938
Q62.7031 22.6094 62.7031 36.375
Q62.7031 50.2031 56.4219 58.2031
Q50.1406 66.2188 39.4062 66.2188
M39.4062 74.2188
Q54.7344 74.2188 63.9062 63.9375
Q73.0938 53.6562 73.0938 36.375
Q73.0938 19.1406 63.9062 8.85938
Q54.7344 -1.42188 39.4062 -1.42188
Q24.0312 -1.42188 14.8125 8.82812
Q5.60938 19.0938 5.60938 36.375
Q5.60938 53.6562 14.8125 63.9375
Q24.0312 74.2188 39.4062 74.2188" id="BitstreamVeraSans-Roman-4f"/>
       <path d="
M31.7812 66.4062
Q24.1719 66.4062 20.3281 58.9062
Q16.5 51.4219 16.5 36.375
Q16.5 21.3906 20.3281 13.8906
Q24.1719 6.39062 31.7812 6.39062
Q39.4531 6.39062 43.2812 13.8906
Q47.125 21.3906 47.125 36.375
Q47.125 51.4219 43.2812 58.9062
Q39.4531 66.4062 31.7812 66.4062
M31.7812 74.2188
Q44.0469 74.2188 50.5156 64.5156
Q56.9844 54.8281 56.9844 36.375
Q56.9844 17.9688 50.5156 8.26562
Q44.0469 -1.42188 31.7812 -1.42188
Q19.5312 -1.42188 13.0625 8.26562
Q6.59375 17.9688 6.59375 36.375
Q6.59375 54.8281 13.0625 64.5156
Q19.5312 74.2188 31.7812 74.2188" id="BitstreamVeraSans-Roman-30"/>
       <path d="
M12.4062 8.29688
L28.5156 8.29688
L28.5156 63.9219
L10.9844 60.4062
L10.9844 69.3906
L28.4219 72.9062
L38.2812 72.9062
L38.2812 8.29688
L54.3906 8.29688
L54.3906 0
L12.4062 0
z
" id="BitstreamVeraSans-Roman-31"/>
       <path d="
M40.5781 39.3125
Q47.6562 37.7969 51.625 33
Q55.6094 28.2188 55.6094 21.1875
Q55.6094 10.4062 48.1875 4.48438
Q40.7656 -1.42188 27.0938 -1.42188
Q22.5156 -1.42188 17.6562 -0.515625
Q12.7969 0.390625 7.625 2.20312
L7.625 11.7188
Q11.7188 9.32812 16.5938 8.10938
Q21.4844 6.89062 26.8125 6.89062
Q36.0781 6.89062 40.9375 10.5469
Q45.7969 14.2031 45.7969 21.1875
Q45.7969 27.6406 41.2812 31.2656
Q36.7656 34.9062 28.7188 34.9062
L20.2188 34.9062
L20.2188 43.0156
L29.1094 43.0156
Q36.375 43.0156 40.2344 45.9219
Q44.0938 48.8281 44.0938 54.2969
Q44.0938 59.9062 40.1094 62.9062
Q36.1406 65.9219 28.7188 65.9219
Q24.6562 65.9219 20.0156 65.0312
Q15.375 64.1562 9.8125 62.3125
L9.8125 71.0938
Q15.4375 72.6562 20.3438 73.4375
Q25.25 74.2188 29.5938 74.2188
Q40.8281 74.2188 47.3594 69.1094
Q53.9062 64.0156 53.9062 55.3281
Q53.9062 49.2656 50.4375 45.0938
Q46.9688 40.9219 40.5781 39.3125" id="BitstreamVeraSans-Roman-33"/>
       <path id="BitstreamVeraSans-Roman-20"/>
       <path d="
M10.7969 72.9062
L49.5156 72.9062
L49.5156 64.5938
L19.8281 64.5938
L19.8281 46.7344
Q21.9688 47.4688 24.1094 47.8281
Q26.2656 48.1875 28.4219 48.1875
Q40.625 48.1875 47.75 41.5
Q54.8906 34.8125 54.8906 23.3906
Q54.8906 11.625 47.5625 5.09375
Q40.2344 -1.42188 26.9062 -1.42188
Q22.3125 -1.42188 17.5469 -0.640625
Q12.7969 0.140625 7.71875 1.70312
L7.71875 11.625
Q12.1094 9.23438 16.7969 8.0625
Q21.4844 6.89062 26.7031 6.89062
Q35.1562 6.89062 40.0781 11.3281
Q45.0156 15.7656 45.0156 23.3906
Q45.0156 31 40.0781 35.4375
Q35.1562 39.8906 26.7031 39.8906
Q22.75 39.8906 18.8125 39.0156
Q14.8906 38.1406 10.7969 36.2812
z
" id="BitstreamVeraSans-Roman-35"/>
       <path d="
M18.3125 70.2188
L18.3125 54.6875
L36.8125 54.6875
L36.8125 47.7031
L18.3125 47.7031
L18.3125 18.0156
Q18.3125 11.3281 20.1406 9.42188
Q21.9688 7.51562 27.5938 7.51562
L36.8125 7.51562
L36.8125 0
L27.5938 0
Q17.1875 0 13.2344 3.875
Q9.28125 7.76562 9.28125 18.0156
L9.28125 47.7031
L2.6875 47.7031
L2.6875 54.6875
L9.28125 54.6875
L9.28125 70.2188
z
" id="BitstreamVeraSans-Roman-74"/>
       <path d="
M48.7812 52.5938
L48.7812 44.1875
Q44.9688 46.2969 41.1406 47.3438
Q37.3125 48.3906 33.4062 48.3906
Q24.6562 48.3906 19.8125 42.8438
Q14.9844 37.3125 14.9844 27.2969
Q14.9844 17.2812 19.8125 11.7344
Q24.6562 6.20312 33.4062 6.20312
Q37.3125 6.20312 41.1406 7.25
Q44.9688 8.29688 48.7812 10.4062
L48.7812 2.09375
Q45.0156 0.34375 40.9844 -0.53125
Q36.9688 -1.42188 32.4219 -1.42188
Q20.0625 -1.42188 12.7812 6.34375
Q5.51562 14.1094 5.51562 27.2969
Q5.51562 40.6719 12.8594 48.3281
Q20.2188 56 33.0156 56
Q37.1562 56 41.1094 55.1406
Q45.0625 54.2969 48.7812 52.5938" id="BitstreamVeraSans-Roman-63"/>
      </defs>
      <g transform="translate(53.3541815316 394.065590385)rotate(-30.0)scale(0.12 -0.12)">
       <use xlink:href="#BitstreamVeraSans-Roman-4f"/>
       <use x="78.7109375" xlink:href="#BitstreamVeraSans-Roman-63"/>
       <use x="133.69140625" xlink:href="#BitstreamVeraSans-Roman-74"/>
       <use x="172.900390625" xlink:href="#BitstreamVeraSans-Roman-20"/>
       <use x="204.6875" xlink:href="#BitstreamVeraSans-Roman-31"/>
       <use x="268.310546875" xlink:href="#BitstreamVeraSans-Roman-33"/>
       <use x="331.93359375" xlink:href="#BitstreamVeraSans-Roman-20"/>
       <use x="363.720703125" xlink:href="#BitstreamVeraSans-Roman-32"/>
       <use x="427.34375" xlink:href="#BitstreamVeraSans-Roman-30"/>
       <use x="490.966796875" xlink:href="#BitstreamVeraSans-Roman-31"/>
       <use x="554.58984375" xlink:href="#BitstreamVeraSans-Roman-35"/>
      </g>
     </g>
    </g>
    <g id="xtick_2">
     <g id="line2d_5">
      <g>
       <use style="stroke:#000000;stroke-width:0.5;" x="173.071485419" xlink:href="#m93b0483c22" y="345.6"/>
      </g>
     </g>
     <g id="line2d_6">
      <g>
       <use style="stroke:#000000;stroke-width:0.5;" x="173.071485419" xlink:href="#m741efc42ff" y="43.2"/>
      </g>
     </g>
     <g id="text_2">
      <!-- Oct 16 2015 -->
      <defs>
       <path d="
M33.0156 40.375
Q26.375 40.375 22.4844 35.8281
Q18.6094 31.2969 18.6094 23.3906
Q18.6094 15.5312 22.4844 10.9531
Q26.375 6.39062 33.0156 6.39062
Q39.6562 6.39062 43.5312 10.9531
Q47.4062 15.5312 47.4062 23.3906
Q47.4062 31.2969 43.5312 35.8281
Q39.6562 40.375 33.0156 40.375
M52.5938 71.2969
L52.5938 62.3125
Q48.875 64.0625 45.0938 64.9844
Q41.3125 65.9219 37.5938 65.9219
Q27.8281 65.9219 22.6719 59.3281
Q17.5312 52.7344 16.7969 39.4062
Q19.6719 43.6562 24.0156 45.9219
Q28.375 48.1875 33.5938 48.1875
Q44.5781 48.1875 50.9531 41.5156
Q57.3281 34.8594 57.3281 23.3906
Q57.3281 12.1562 50.6875 5.35938
Q44.0469 -1.42188 33.0156 -1.42188
Q20.3594 -1.42188 13.6719 8.26562
Q6.98438 17.9688 6.98438 36.375
Q6.98438 53.6562 15.1875 63.9375
Q23.3906 74.2188 37.2031 74.2188
Q40.9219 74.2188 44.7031 73.4844
Q48.4844 72.75 52.5938 71.2969" id="BitstreamVeraSans-Roman-36"/>
      </defs>
      <g transform="translate(108.484198684 394.065590385)rotate(-30.0)scale(0.12 -0.12)">
       <use xlink:href="#BitstreamVeraSans-Roman-4f"/>
       <use x="78.7109375" xlink:href="#BitstreamVeraSans-Roman-63"/>
       <use x="133.69140625" xlink:href="#BitstreamVeraSans-Roman-74"/>
       <use x="172.900390625" xlink:href="#BitstreamVeraSans-Roman-20"/>
       <use x="204.6875" xlink:href="#BitstreamVeraSans-Roman-31"/>
       <use x="268.310546875" xlink:href="#BitstreamVeraSans-Roman-36"/>
       <use x="331.93359375" xlink:href="#BitstreamVeraSans-Roman-20"/>
       <use x="363.720703125" xlink:href="#BitstreamVeraSans-Roman-32"/>
       <use x="427.34375" xlink:href="#BitstreamVeraSans-Roman-30"/>
       <use x="490.966796875" xlink:href="#BitstreamVeraSans-Roman-31"/>
       <use x="554.58984375" xlink:href="#BitstreamVeraSans-Roman-35"/>
      </g>
     </g>
    </g>
    <g id="xtick_3">
     <g id="line2d_7">
      <g>
       <use style="stroke:#000000;stroke-width:0.5;" x="228.201502573" xlink:href="#m93b0483c22" y="345.6"/>
      </g>
     </g>
     <g id="line2d_8">
      <g>
       <use style="stroke:#000000;stroke-width:0.5;" x="228.201502573" xlink:href="#m741efc42ff" y="43.2"/>
      </g>
     </g>
     <g id="text_3">
      <!-- Oct 19 2015 -->
      <defs>
       <path d="
M10.9844 1.51562
L10.9844 10.5
Q14.7031 8.73438 18.5 7.8125
Q22.3125 6.89062 25.9844 6.89062
Q35.75 6.89062 40.8906 13.4531
Q46.0469 20.0156 46.7812 33.4062
Q43.9531 29.2031 39.5938 26.9531
Q35.25 24.7031 29.9844 24.7031
Q19.0469 24.7031 12.6719 31.3125
Q6.29688 37.9375 6.29688 49.4219
Q6.29688 60.6406 12.9375 67.4219
Q19.5781 74.2188 30.6094 74.2188
Q43.2656 74.2188 49.9219 64.5156
Q56.5938 54.8281 56.5938 36.375
Q56.5938 19.1406 48.4062 8.85938
Q40.2344 -1.42188 26.4219 -1.42188
Q22.7031 -1.42188 18.8906 -0.6875
Q15.0938 0.046875 10.9844 1.51562
M30.6094 32.4219
Q37.25 32.4219 41.125 36.9531
Q45.0156 41.5 45.0156 49.4219
Q45.0156 57.2812 41.125 61.8438
Q37.25 66.4062 30.6094 66.4062
Q23.9688 66.4062 20.0938 61.8438
Q16.2188 57.2812 16.2188 49.4219
Q16.2188 41.5 20.0938 36.9531
Q23.9688 32.4219 30.6094 32.4219" id="BitstreamVeraSans-Roman-39"/>
      </defs>
      <g transform="translate(163.614215838 394.065590385)rotate(-30.0)scale(0.12 -0.12)">
       <use xlink:href="#BitstreamVeraSans-Roman-4f"/>
       <use x="78.7109375" xlink:href="#BitstreamVeraSans-Roman-63"/>
       <use x="133.69140625" xlink:href="#BitstreamVeraSans-Roman-74"/>
       <use x="172.900390625" xlink:href="#BitstreamVeraSans-Roman-20"/>
       <use x="204.6875" xlink:href="#BitstreamVeraSans-Roman-31"/>
       <use x="268.310546875" xlink:href="#BitstreamVeraSans-Roman-39"/>
       <use x="331.93359375" xlink:href="#BitstreamVeraSans-Roman-20"/>
       <use x="363.720703125" xlink:href="#BitstreamVeraSans-Roman-32"/>
       <use x="427.34375" xlink:href="#BitstreamVeraSans-Roman-30"/>
       <use x="490.966796875" xlink:href="#BitstreamVeraSans-Roman-31"/>
       <use x="554.58984375" xlink:href="#BitstreamVeraSans-Roman-35"/>
      </g>
     </g>
    </g>
    <g id="xtick_4">
     <g id="line2d_9">
      <g>
       <use style="stroke:#000000;stroke-width:0.5;" x="283.331519725" xlink:href="#m93b0483c22" y="345.6"/>
      </g>
     </g>
     <g id="line2d_10">
      <g>
       <use style="stroke:#000000;stroke-width:0.5;" x="283.331519725" xlink:href="#m741efc42ff" y="43.2"/>
      </g>
     </g>
     <g id="text_4">
      <!-- Oct 22 2015 -->
      <g transform="translate(218.74423299 394.065590385)rotate(-30.0)scale(0.12 -0.12)">
       <use xlink:href="#BitstreamVeraSans-Roman-4f"/>
       <use x="78.7109375" xlink:href="#BitstreamVeraSans-Roman-63"/>
       <use x="133.69140625" xlink:href="#BitstreamVeraSans-Roman-74"/>
       <use x="172.900390625" xlink:href="#BitstreamVeraSans-Roman-20"/>
       <use x="204.6875" xlink:href="#BitstreamVeraSans-Roman-32"/>
       <use x="268.310546875" xlink:href="#BitstreamVeraSans-Roman-32"/>
       <use x="331.93359375" xlink:href="#BitstreamVeraSans-Roman-20"/>
       <use x="363.720703125" xlink:href="#BitstreamVeraSans-Roman-32"/>
       <use x="427.34375" xlink:href="#BitstreamVeraSans-Roman-30"/>
       <use x="490.966796875" xlink:href="#BitstreamVeraSans-Roman-31"/>
       <use x="554.58984375" xlink:href="#BitstreamVeraSans-Roman-35"/>
      </g>
     </g>
    </g>
    <g id="xtick_5">
     <g id="line2d_11">
      <g>
       <use style="stroke:#000000;stroke-width:0.5;" x="338.461536877" xlink:href="#m93b0483c22" y="345.6"/>
      </g>
     </g>
     <g id="line2d_12">
      <g>
       <use style="stroke:#000000;stroke-width:0.5;" x="338.461536877" xlink:href="#m741efc42ff" y="43.2"/>
      </g>
     </g>
     <g id="text_5">
      <!-- Oct 25 2015 -->
      <g transform="translate(273.874250142 394.065590385)rotate(-30.0)scale(0.12 -0.12)">
       <use xlink:href="#BitstreamVeraSans-Roman-4f"/>
       <use x="78.7109375" xlink:href="#BitstreamVeraSans-Roman-63"/>
       <use x="133.69140625" xlink:href="#BitstreamVeraSans-Roman-74"/>
       <use x="172.900390625" xlink:href="#BitstreamVeraSans-Roman-20"/>
       <use x="204.6875" xlink:href="#BitstreamVeraSans-Roman-32"/>
       <use x="268.310546875" xlink:href="#BitstreamVeraSans-Roman-35"/>
       <use x="331.93359375" xlink:href="#BitstreamVeraSans-Roman-20"/>
       <use x="363.720703125" xlink:href="#BitstreamVeraSans-Roman-32"/>
       <use x="427.34375" xlink:href="#BitstreamVeraSans-Roman-30"/>
       <use x="490.966796875" xlink:href="#BitstreamVeraSans-Roman-31"/>
       <use x="554.58984375" xlink:href="#BitstreamVeraSans-Roman-35"/>
      </g>
     </g>
    </g>
    <g id="xtick_6">
     <g id="line2d_13">
      <g>
       <use style="stroke:#000000;stroke-width:0.5;" x="393.591554031" xlink:href="#m93b0483c22" y="345.6"/>
      </g>
     </g>
     <g id="line2d_14">
      <g>
       <use style="stroke:#000000;stroke-width:0.5;" x="393.591554031" xlink:href="#m741efc42ff" y="43.2"/>
      </g>
     </g>
     <g id="text_6">
      <!-- Oct 28 2015 -->
      <defs>
       <path d="
M31.7812 34.625
Q24.75 34.625 20.7188 30.8594
Q16.7031 27.0938 16.7031 20.5156
Q16.7031 13.9219 20.7188 10.1562
Q24.75 6.39062 31.7812 6.39062
Q38.8125 6.39062 42.8594 10.1719
Q46.9219 13.9688 46.9219 20.5156
Q46.9219 27.0938 42.8906 30.8594
Q38.875 34.625 31.7812 34.625
M21.9219 38.8125
Q15.5781 40.375 12.0312 44.7188
Q8.5 49.0781 8.5 55.3281
Q8.5 64.0625 14.7188 69.1406
Q20.9531 74.2188 31.7812 74.2188
Q42.6719 74.2188 48.875 69.1406
Q55.0781 64.0625 55.0781 55.3281
Q55.0781 49.0781 51.5312 44.7188
Q48 40.375 41.7031 38.8125
Q48.8281 37.1562 52.7969 32.3125
Q56.7812 27.4844 56.7812 20.5156
Q56.7812 9.90625 50.3125 4.23438
Q43.8438 -1.42188 31.7812 -1.42188
Q19.7344 -1.42188 13.25 4.23438
Q6.78125 9.90625 6.78125 20.5156
Q6.78125 27.4844 10.7812 32.3125
Q14.7969 37.1562 21.9219 38.8125
M18.3125 54.3906
Q18.3125 48.7344 21.8438 45.5625
Q25.3906 42.3906 31.7812 42.3906
Q38.1406 42.3906 41.7188 45.5625
Q45.3125 48.7344 45.3125 54.3906
Q45.3125 60.0625 41.7188 63.2344
Q38.1406 66.4062 31.7812 66.4062
Q25.3906 66.4062 21.8438 63.2344
Q18.3125 60.0625 18.3125 54.3906" id="BitstreamVeraSans-Roman-38"/>
      </defs>
      <g transform="translate(329.004267296 394.065590385)rotate(-30.0)scale(0.12 -0.12)">
       <use xlink:href="#BitstreamVeraSans-Roman-4f"/>
       <use x="78.7109375" xlink:href="#BitstreamVeraSans-Roman-63"/>
       <use x="133.69140625" xlink:href="#BitstreamVeraSans-Roman-74"/>
       <use x="172.900390625" xlink:href="#BitstreamVeraSans-Roman-20"/>
       <use x="204.6875" xlink:href="#BitstreamVeraSans-Roman-32"/>
       <use x="268.310546875" xlink:href="#BitstreamVeraSans-Roman-38"/>
       <use x="331.93359375" xlink:href="#BitstreamVeraSans-Roman-20"/>
       <use x="363.720703125" xlink:href="#BitstreamVeraSans-Roman-32"/>
       <use x="427.34375" xlink:href="#BitstreamVeraSans-Roman-30"/>
       <use x="490.966796875" xlink:href="#BitstreamVeraSans-Roman-31"/>
       <use x="554.58984375" xlink:href="#BitstreamVeraSans-Roman-35"/>
      </g>
     </g>
    </g>
    <g id="xtick_7">
     <g id="line2d_15">
      <g>
       <use style="stroke:#000000;stroke-width:0.5;" x="448.721571183" xlink:href="#m93b0483c22" y="345.6"/>
      </g>
     </g>
     <g id="line2d_16">
      <g>
       <use style="stroke:#000000;stroke-width:0.5;" x="448.721571183" xlink:href="#m741efc42ff" y="43.2"/>
      </g>
     </g>
     <g id="text_7">
      <!-- Oct 31 2015 -->
      <g transform="translate(384.134284448 394.065590385)rotate(-30.0)scale(0.12 -0.12)">
       <use xlink:href="#BitstreamVeraSans-Roman-4f"/>
       <use x="78.7109375" xlink:href="#BitstreamVeraSans-Roman-63"/>
       <use x="133.69140625" xlink:href="#BitstreamVeraSans-Roman-74"/>
       <use x="172.900390625" xlink:href="#BitstreamVeraSans-Roman-20"/>
       <use x="204.6875" xlink:href="#BitstreamVeraSans-Roman-33"/>
       <use x="268.310546875" xlink:href="#BitstreamVeraSans-Roman-31"/>
       <use x="331.93359375" xlink:href="#BitstreamVeraSans-Roman-20"/>
       <use x="363.720703125" xlink:href="#BitstreamVeraSans-Roman-32"/>
       <use x="427.34375" xlink:href="#BitstreamVeraSans-Roman-30"/>
       <use x="490.966796875" xlink:href="#BitstreamVeraSans-Roman-31"/>
       <use x="554.58984375" xlink:href="#BitstreamVeraSans-Roman-35"/>
      </g>
     </g>
    </g>
    <g id="xtick_8">
     <g id="line2d_17">
      <g>
       <use style="stroke:#000000;stroke-width:0.5;" x="503.851588335" xlink:href="#m93b0483c22" y="345.6"/>
      </g>
     </g>
     <g id="line2d_18">
      <g>
       <use style="stroke:#000000;stroke-width:0.5;" x="503.851588335" xlink:href="#m741efc42ff" y="43.2"/>
      </g>
     </g>
     <g id="text_8">
      <!-- Nov 03 2015 -->
      <defs>
       <path d="
M2.98438 54.6875
L12.5 54.6875
L29.5938 8.79688
L46.6875 54.6875
L56.2031 54.6875
L35.6875 0
L23.4844 0
z
" id="BitstreamVeraSans-Roman-76"/>
       <path d="
M9.8125 72.9062
L23.0938 72.9062
L55.4219 11.9219
L55.4219 72.9062
L64.9844 72.9062
L64.9844 0
L51.7031 0
L19.3906 60.9844
L19.3906 0
L9.8125 0
z
" id="BitstreamVeraSans-Roman-4e"/>
       <path d="
M30.6094 48.3906
Q23.3906 48.3906 19.1875 42.75
Q14.9844 37.1094 14.9844 27.2969
Q14.9844 17.4844 19.1562 11.8438
Q23.3438 6.20312 30.6094 6.20312
Q37.7969 6.20312 41.9844 11.8594
Q46.1875 17.5312 46.1875 27.2969
Q46.1875 37.0156 41.9844 42.7031
Q37.7969 48.3906 30.6094 48.3906
M30.6094 56
Q42.3281 56 49.0156 48.375
Q55.7188 40.7656 55.7188 27.2969
Q55.7188 13.875 49.0156 6.21875
Q42.3281 -1.42188 30.6094 -1.42188
Q18.8438 -1.42188 12.1719 6.21875
Q5.51562 13.875 5.51562 27.2969
Q5.51562 40.7656 12.1719 48.375
Q18.8438 56 30.6094 56" id="BitstreamVeraSans-Roman-6f"/>
      </defs>
      <g transform="translate(436.948766176 395.402465385)rotate(-30.0)scale(0.12 -0.12)">
       <use xlink:href="#BitstreamVeraSans-Roman-4e"/>
       <use x="74.8046875" xlink:href="#BitstreamVeraSans-Roman-6f"/>
       <use x="135.986328125" xlink:href="#BitstreamVeraSans-Roman-76"/>
       <use x="195.166015625" xlink:href="#BitstreamVeraSans-Roman-20"/>
       <use x="226.953125" xlink:href="#BitstreamVeraSans-Roman-30"/>
       <use x="290.576171875" xlink:href="#BitstreamVeraSans-Roman-33"/>
       <use x="354.19921875" xlink:href="#BitstreamVeraSans-Roman-20"/>
       <use x="385.986328125" xlink:href="#BitstreamVeraSans-Roman-32"/>
       <use x="449.609375" xlink:href="#BitstreamVeraSans-Roman-30"/>
       <use x="513.232421875" xlink:href="#BitstreamVeraSans-Roman-31"/>
       <use x="576.85546875" xlink:href="#BitstreamVeraSans-Roman-35"/>
      </g>
     </g>
    </g>
   </g>
   <g id="matplotlib.axis_2">
    <g id="ytick_1">
     <g id="line2d_19">
      <defs>
       <path d="
M0 0
L4 0" id="m728421d6d4" style="stroke:#000000;stroke-width:0.5;"/>
      </defs>
      <g>
       <use style="stroke:#000000;stroke-width:0.5;" x="72.0" xlink:href="#m728421d6d4" y="269.469787777"/>
      </g>
     </g>
     <g id="line2d_20">
      <defs>
       <path d="
M0 0
L-4 0" id="mcb0005524f" style="stroke:#000000;stroke-width:0.5;"/>
      </defs>
      <g>
       <use style="stroke:#000000;stroke-width:0.5;" x="518.4" xlink:href="#mcb0005524f" y="269.469787777"/>
      </g>
     </g>
     <g id="text_9">
      <!-- 5000 -->
      <g transform="translate(39.183125 272.781037777)scale(0.12 -0.12)">
       <use xlink:href="#BitstreamVeraSans-Roman-35"/>
       <use x="63.623046875" xlink:href="#BitstreamVeraSans-Roman-30"/>
       <use x="127.24609375" xlink:href="#BitstreamVeraSans-Roman-30"/>
       <use x="190.869140625" xlink:href="#BitstreamVeraSans-Roman-30"/>
      </g>
     </g>
    </g>
    <g id="ytick_2">
     <g id="line2d_21">
      <g>
       <use style="stroke:#000000;stroke-width:0.5;" x="72.0" xlink:href="#m728421d6d4" y="183.396374898"/>
      </g>
     </g>
     <g id="line2d_22">
      <g>
       <use style="stroke:#000000;stroke-width:0.5;" x="518.4" xlink:href="#mcb0005524f" y="183.396374898"/>
      </g>
     </g>
     <g id="text_10">
      <!-- 10000 -->
      <g transform="translate(31.94 186.707624898)scale(0.12 -0.12)">
       <use xlink:href="#BitstreamVeraSans-Roman-31"/>
       <use x="63.623046875" xlink:href="#BitstreamVeraSans-Roman-30"/>
       <use x="127.24609375" xlink:href="#BitstreamVeraSans-Roman-30"/>
       <use x="190.869140625" xlink:href="#BitstreamVeraSans-Roman-30"/>
       <use x="254.4921875" xlink:href="#BitstreamVeraSans-Roman-30"/>
      </g>
     </g>
    </g>
    <g id="ytick_3">
     <g id="line2d_23">
      <g>
       <use style="stroke:#000000;stroke-width:0.5;" x="72.0" xlink:href="#m728421d6d4" y="97.3229620184"/>
      </g>
     </g>
     <g id="line2d_24">
      <g>
       <use style="stroke:#000000;stroke-width:0.5;" x="518.4" xlink:href="#mcb0005524f" y="97.3229620184"/>
      </g>
     </g>
     <g id="text_11">
      <!-- 15000 -->
      <g transform="translate(31.94 100.634212018)scale(0.12 -0.12)">
       <use xlink:href="#BitstreamVeraSans-Roman-31"/>
       <use x="63.623046875" xlink:href="#BitstreamVeraSans-Roman-35"/>
       <use x="127.24609375" xlink:href="#BitstreamVeraSans-Roman-30"/>
       <use x="190.869140625" xlink:href="#BitstreamVeraSans-Roman-30"/>
       <use x="254.4921875" xlink:href="#BitstreamVeraSans-Roman-30"/>
      </g>
     </g>
    </g>
   </g>
   <g id="text_12">
    <!-- Rohdiamanten -->
    <defs>
     <path d="
M54.8906 33.0156
L54.8906 0
L45.9062 0
L45.9062 32.7188
Q45.9062 40.4844 42.875 44.3281
Q39.8438 48.1875 33.7969 48.1875
Q26.5156 48.1875 22.3125 43.5469
Q18.1094 38.9219 18.1094 30.9062
L18.1094 0
L9.07812 0
L9.07812 54.6875
L18.1094 54.6875
L18.1094 46.1875
Q21.3438 51.125 25.7031 53.5625
Q30.0781 56 35.7969 56
Q45.2188 56 50.0469 50.1719
Q54.8906 44.3438 54.8906 33.0156" id="BitstreamVeraSans-Roman-6e"/>
     <path d="
M52 44.1875
Q55.375 50.25 60.0625 53.125
Q64.75 56 71.0938 56
Q79.6406 56 84.2812 50.0156
Q88.9219 44.0469 88.9219 33.0156
L88.9219 0
L79.8906 0
L79.8906 32.7188
Q79.8906 40.5781 77.0938 44.375
Q74.3125 48.1875 68.6094 48.1875
Q61.625 48.1875 57.5625 43.5469
Q53.5156 38.9219 53.5156 30.9062
L53.5156 0
L44.4844 0
L44.4844 32.7188
Q44.4844 40.625 41.7031 44.4062
Q38.9219 48.1875 33.1094 48.1875
Q26.2188 48.1875 22.1562 43.5312
Q18.1094 38.875 18.1094 30.9062
L18.1094 0
L9.07812 0
L9.07812 54.6875
L18.1094 54.6875
L18.1094 46.1875
Q21.1875 51.2188 25.4844 53.6094
Q29.7812 56 35.6875 56
Q41.6562 56 45.8281 52.9688
Q50 49.9531 52 44.1875" id="BitstreamVeraSans-Roman-6d"/>
     <path d="
M44.3906 34.1875
Q47.5625 33.1094 50.5625 29.5938
Q53.5625 26.0781 56.5938 19.9219
L66.6094 0
L56 0
L46.6875 18.7031
Q43.0625 26.0312 39.6719 28.4219
Q36.2812 30.8125 30.4219 30.8125
L19.6719 30.8125
L19.6719 0
L9.8125 0
L9.8125 72.9062
L32.0781 72.9062
Q44.5781 72.9062 50.7344 67.6719
Q56.8906 62.4531 56.8906 51.9062
Q56.8906 45.0156 53.6875 40.4688
Q50.4844 35.9375 44.3906 34.1875
M19.6719 64.7969
L19.6719 38.9219
L32.0781 38.9219
Q39.2031 38.9219 42.8438 42.2188
Q46.4844 45.5156 46.4844 51.9062
Q46.4844 58.2969 42.8438 61.5469
Q39.2031 64.7969 32.0781 64.7969
z
" id="BitstreamVeraSans-Roman-52"/>
     <path d="
M9.42188 54.6875
L18.4062 54.6875
L18.4062 0
L9.42188 0
z

M9.42188 75.9844
L18.4062 75.9844
L18.4062 64.5938
L9.42188 64.5938
z
" id="BitstreamVeraSans-Roman-69"/>
     <path d="
M54.8906 33.0156
L54.8906 0
L45.9062 0
L45.9062 32.7188
Q45.9062 40.4844 42.875 44.3281
Q39.8438 48.1875 33.7969 48.1875
Q26.5156 48.1875 22.3125 43.5469
Q18.1094 38.9219 18.1094 30.9062
L18.1094 0
L9.07812 0
L9.07812 75.9844
L18.1094 75.9844
L18.1094 46.1875
Q21.3438 51.125 25.7031 53.5625
Q30.0781 56 35.7969 56
Q45.2188 56 50.0469 50.1719
Q54.8906 44.3438 54.8906 33.0156" id="BitstreamVeraSans-Roman-68"/>
     <path d="
M56.2031 29.5938
L56.2031 25.2031
L14.8906 25.2031
Q15.4844 15.9219 20.4844 11.0625
Q25.4844 6.20312 34.4219 6.20312
Q39.5938 6.20312 44.4531 7.46875
Q49.3125 8.73438 54.1094 11.2812
L54.1094 2.78125
Q49.2656 0.734375 44.1875 -0.34375
Q39.1094 -1.42188 33.8906 -1.42188
Q20.7969 -1.42188 13.1562 6.1875
Q5.51562 13.8125 5.51562 26.8125
Q5.51562 40.2344 12.7656 48.1094
Q20.0156 56 32.3281 56
Q43.3594 56 49.7812 48.8906
Q56.2031 41.7969 56.2031 29.5938
M47.2188 32.2344
Q47.125 39.5938 43.0938 43.9844
Q39.0625 48.3906 32.4219 48.3906
Q24.9062 48.3906 20.3906 44.1406
Q15.875 39.8906 15.1875 32.1719
z
" id="BitstreamVeraSans-Roman-65"/>
     <path d="
M45.4062 46.3906
L45.4062 75.9844
L54.3906 75.9844
L54.3906 0
L45.4062 0
L45.4062 8.20312
Q42.5781 3.32812 38.25 0.953125
Q33.9375 -1.42188 27.875 -1.42188
Q17.9688 -1.42188 11.7344 6.48438
Q5.51562 14.4062 5.51562 27.2969
Q5.51562 40.1875 11.7344 48.0938
Q17.9688 56 27.875 56
Q33.9375 56 38.25 53.625
Q42.5781 51.2656 45.4062 46.3906
M14.7969 27.2969
Q14.7969 17.3906 18.875 11.75
Q22.9531 6.10938 30.0781 6.10938
Q37.2031 6.10938 41.2969 11.75
Q45.4062 17.3906 45.4062 27.2969
Q45.4062 37.2031 41.2969 42.8438
Q37.2031 48.4844 30.0781 48.4844
Q22.9531 48.4844 18.875 42.8438
Q14.7969 37.2031 14.7969 27.2969" id="BitstreamVeraSans-Roman-64"/>
     <path d="
M34.2812 27.4844
Q23.3906 27.4844 19.1875 25
Q14.9844 22.5156 14.9844 16.5
Q14.9844 11.7188 18.1406 8.90625
Q21.2969 6.10938 26.7031 6.10938
Q34.1875 6.10938 38.7031 11.4062
Q43.2188 16.7031 43.2188 25.4844
L43.2188 27.4844
z

M52.2031 31.2031
L52.2031 0
L43.2188 0
L43.2188 8.29688
Q40.1406 3.32812 35.5469 0.953125
Q30.9531 -1.42188 24.3125 -1.42188
Q15.9219 -1.42188 10.9531 3.29688
Q6 8.01562 6 15.9219
Q6 25.1406 12.1719 29.8281
Q18.3594 34.5156 30.6094 34.5156
L43.2188 34.5156
L43.2188 35.4062
Q43.2188 41.6094 39.1406 45
Q35.0625 48.3906 27.6875 48.3906
Q23 48.3906 18.5469 47.2656
Q14.1094 46.1406 10.0156 43.8906
L10.0156 52.2031
Q14.9375 54.1094 19.5781 55.0469
Q24.2188 56 28.6094 56
Q40.4844 56 46.3438 49.8438
Q52.2031 43.7031 52.2031 31.2031" id="BitstreamVeraSans-Roman-61"/>
    </defs>
    <g transform="translate(416.1645 38.2)scale(0.144 -0.144)">
     <use xlink:href="#BitstreamVeraSans-Roman-52"/>
     <use x="64.982421875" xlink:href="#BitstreamVeraSans-Roman-6f"/>
     <use x="126.1640625" xlink:href="#BitstreamVeraSans-Roman-68"/>
     <use x="189.54296875" xlink:href="#BitstreamVeraSans-Roman-64"/>
     <use x="253.01953125" xlink:href="#BitstreamVeraSans-Roman-69"/>
     <use x="280.802734375" xlink:href="#BitstreamVeraSans-Roman-61"/>
     <use x="342.08203125" xlink:href="#BitstreamVeraSans-Roman-6d"/>
     <use x="439.494140625" xlink:href="#BitstreamVeraSans-Roman-61"/>
     <use x="500.7734375" xlink:href="#BitstreamVeraSans-Roman-6e"/>
     <use x="564.15234375" xlink:href="#BitstreamVeraSans-Roman-74"/>
     <use x="603.361328125" xlink:href="#BitstreamVeraSans-Roman-65"/>
     <use x="664.884765625" xlink:href="#BitstreamVeraSans-Roman-6e"/>
    </g>
   </g>
   <g id="legend_1">
    <g id="patch_7">
     <path d="
M123.942 423.616
L466.458 423.616
L466.458 398.16
L123.942 398.16
z
" style="fill:#ffffff;stroke:#000000;stroke-linejoin:miter;"/>
    </g>
    <g id="line2d_25">
     <path d="
M134.022 409.822
L154.182 409.822" style="fill:none;stroke:#ff0000;stroke-linecap:square;"/>
    </g>
    <g id="line2d_26"/>
    <g id="text_13">
     <!-- Schwarzmarktpreis -->
     <defs>
      <path d="
M9.07812 75.9844
L18.1094 75.9844
L18.1094 31.1094
L44.9219 54.6875
L56.3906 54.6875
L27.3906 29.1094
L57.625 0
L45.9062 0
L18.1094 26.7031
L18.1094 0
L9.07812 0
z
" id="BitstreamVeraSans-Roman-6b"/>
      <path d="
M53.5156 70.5156
L53.5156 60.8906
Q47.9062 63.5781 42.9219 64.8906
Q37.9375 66.2188 33.2969 66.2188
Q25.25 66.2188 20.875 63.0938
Q16.5 59.9688 16.5 54.2031
Q16.5 49.3594 19.4062 46.8906
Q22.3125 44.4375 30.4219 42.9219
L36.375 41.7031
Q47.4062 39.5938 52.6562 34.2969
Q57.9062 29 57.9062 20.125
Q57.9062 9.51562 50.7969 4.04688
Q43.7031 -1.42188 29.9844 -1.42188
Q24.8125 -1.42188 18.9688 -0.25
Q13.1406 0.921875 6.89062 3.21875
L6.89062 13.375
Q12.8906 10.0156 18.6562 8.29688
Q24.4219 6.59375 29.9844 6.59375
Q38.4219 6.59375 43.0156 9.90625
Q47.6094 13.2344 47.6094 19.3906
Q47.6094 24.75 44.3125 27.7812
Q41.0156 30.8125 33.5 32.3281
L27.4844 33.5
Q16.4531 35.6875 11.5156 40.375
Q6.59375 45.0625 6.59375 53.4219
Q6.59375 63.0938 13.4062 68.6562
Q20.2188 74.2188 32.1719 74.2188
Q37.3125 74.2188 42.625 73.2812
Q47.9531 72.3594 53.5156 70.5156" id="BitstreamVeraSans-Roman-53"/>
      <path d="
M4.20312 54.6875
L13.1875 54.6875
L24.4219 12.0156
L35.5938 54.6875
L46.1875 54.6875
L57.4219 12.0156
L68.6094 54.6875
L77.5938 54.6875
L63.2812 0
L52.6875 0
L40.9219 44.8281
L29.1094 0
L18.5 0
z
" id="BitstreamVeraSans-Roman-77"/>
      <path d="
M5.51562 54.6875
L48.1875 54.6875
L48.1875 46.4844
L14.4062 7.17188
L48.1875 7.17188
L48.1875 0
L4.29688 0
L4.29688 8.20312
L38.0938 47.5156
L5.51562 47.5156
z
" id="BitstreamVeraSans-Roman-7a"/>
      <path d="
M41.1094 46.2969
Q39.5938 47.1719 37.8125 47.5781
Q36.0312 48 33.8906 48
Q26.2656 48 22.1875 43.0469
Q18.1094 38.0938 18.1094 28.8125
L18.1094 0
L9.07812 0
L9.07812 54.6875
L18.1094 54.6875
L18.1094 46.1875
Q20.9531 51.1719 25.4844 53.5781
Q30.0312 56 36.5312 56
Q37.4531 56 38.5781 55.875
Q39.7031 55.7656 41.0625 55.5156
z
" id="BitstreamVeraSans-Roman-72"/>
      <path d="
M44.2812 53.0781
L44.2812 44.5781
Q40.4844 46.5312 36.375 47.5
Q32.2812 48.4844 27.875 48.4844
Q21.1875 48.4844 17.8438 46.4375
Q14.5 44.3906 14.5 40.2812
Q14.5 37.1562 16.8906 35.375
Q19.2812 33.5938 26.5156 31.9844
L29.5938 31.2969
Q39.1562 29.25 43.1875 25.5156
Q47.2188 21.7812 47.2188 15.0938
Q47.2188 7.46875 41.1875 3.01562
Q35.1562 -1.42188 24.6094 -1.42188
Q20.2188 -1.42188 15.4531 -0.5625
Q10.6875 0.296875 5.42188 2
L5.42188 11.2812
Q10.4062 8.6875 15.2344 7.39062
Q20.0625 6.10938 24.8125 6.10938
Q31.1562 6.10938 34.5625 8.28125
Q37.9844 10.4531 37.9844 14.4062
Q37.9844 18.0625 35.5156 20.0156
Q33.0625 21.9688 24.7031 23.7812
L21.5781 24.5156
Q13.2344 26.2656 9.51562 29.9062
Q5.8125 33.5469 5.8125 39.8906
Q5.8125 47.6094 11.2812 51.7969
Q16.75 56 26.8125 56
Q31.7812 56 36.1719 55.2656
Q40.5781 54.5469 44.2812 53.0781" id="BitstreamVeraSans-Roman-73"/>
      <path d="
M18.1094 8.20312
L18.1094 -20.7969
L9.07812 -20.7969
L9.07812 54.6875
L18.1094 54.6875
L18.1094 46.3906
Q20.9531 51.2656 25.2656 53.625
Q29.5938 56 35.5938 56
Q45.5625 56 51.7812 48.0938
Q58.0156 40.1875 58.0156 27.2969
Q58.0156 14.4062 51.7812 6.48438
Q45.5625 -1.42188 35.5938 -1.42188
Q29.5938 -1.42188 25.2656 0.953125
Q20.9531 3.32812 18.1094 8.20312
M48.6875 27.2969
Q48.6875 37.2031 44.6094 42.8438
Q40.5312 48.4844 33.4062 48.4844
Q26.2656 48.4844 22.1875 42.8438
Q18.1094 37.2031 18.1094 27.2969
Q18.1094 17.3906 22.1875 11.75
Q26.2656 6.10938 33.4062 6.10938
Q40.5312 6.10938 44.6094 11.75
Q48.6875 17.3906 48.6875 27.2969" id="BitstreamVeraSans-Roman-70"/>
     </defs>
     <g transform="translate(170.022375 414.86175)scale(0.144 -0.144)">
      <use xlink:href="#BitstreamVeraSans-Roman-53"/>
      <use x="63.4765625" xlink:href="#BitstreamVeraSans-Roman-63"/>
      <use x="118.45703125" xlink:href="#BitstreamVeraSans-Roman-68"/>
      <use x="181.8359375" xlink:href="#BitstreamVeraSans-Roman-77"/>
      <use x="263.623046875" xlink:href="#BitstreamVeraSans-Roman-61"/>
      <use x="324.90234375" xlink:href="#BitstreamVeraSans-Roman-72"/>
      <use x="366.015625" xlink:href="#BitstreamVeraSans-Roman-7a"/>
      <use x="418.505859375" xlink:href="#BitstreamVeraSans-Roman-6d"/>
      <use x="515.91796875" xlink:href="#BitstreamVeraSans-Roman-61"/>
      <use x="577.197265625" xlink:href="#BitstreamVeraSans-Roman-72"/>
      <use x="618.310546875" xlink:href="#BitstreamVeraSans-Roman-6b"/>
      <use x="676.220703125" xlink:href="#BitstreamVeraSans-Roman-74"/>
      <use x="715.4296875" xlink:href="#BitstreamVeraSans-Roman-70"/>
      <use x="778.90625" xlink:href="#BitstreamVeraSans-Roman-72"/>
      <use x="817.76953125" xlink:href="#BitstreamVeraSans-Roman-65"/>
      <use x="879.29296875" xlink:href="#BitstreamVeraSans-Roman-69"/>
      <use x="907.076171875" xlink:href="#BitstreamVeraSans-Roman-73"/>
     </g>
    </g>
    <g id="line2d_27">
     <path d="
M339.609 409.822
L359.769 409.822" style="fill:none;stroke:#008000;stroke-linecap:square;"/>
    </g>
    <g id="line2d_28"/>
    <g id="text_14">
     <!-- Normalpreis -->
     <defs>
      <path d="
M9.42188 75.9844
L18.4062 75.9844
L18.4062 0
L9.42188 0
z
" id="BitstreamVeraSans-Roman-6c"/>
     </defs>
     <g transform="translate(375.609375 414.86175)scale(0.144 -0.144)">
      <use xlink:href="#BitstreamVeraSans-Roman-4e"/>
      <use x="74.8046875" xlink:href="#BitstreamVeraSans-Roman-6f"/>
      <use x="135.986328125" xlink:href="#BitstreamVeraSans-Roman-72"/>
      <use x="175.349609375" xlink:href="#BitstreamVeraSans-Roman-6d"/>
      <use x="272.76171875" xlink:href="#BitstreamVeraSans-Roman-61"/>
      <use x="334.041015625" xlink:href="#BitstreamVeraSans-Roman-6c"/>
      <use x="361.82421875" xlink:href="#BitstreamVeraSans-Roman-70"/>
      <use x="425.30078125" xlink:href="#BitstreamVeraSans-Roman-72"/>
      <use x="464.1640625" xlink:href="#BitstreamVeraSans-Roman-65"/>
      <use x="525.6875" xlink:href="#BitstreamVeraSans-Roman-69"/>
      <use x="553.470703125" xlink:href="#BitstreamVeraSans-Roman-73"/>
     </g>
    </g>
   </g>
  </g>
 </g>
 <defs>
  <clipPath id="pcb2bf987bf">
   <rect height="302.4" width="446.4" x="72.0" y="43.2"/>
  </clipPath>
 </defs>
</svg>
