<?xml version="1.0" encoding="utf-8" standalone="no"?>
<!DOCTYPE svg PUBLIC "-//W3C//DTD SVG 1.1//EN"
  "http://www.w3.org/Graphics/SVG/1.1/DTD/svg11.dtd">
<!-- Created with matplotlib (http://matplotlib.org/) -->
<svg height="432pt" version="1.1" viewBox="0 0 576 432" width="576pt" xmlns="http://www.w3.org/2000/svg" xmlns:xlink="http://www.w3.org/1999/xlink">
 <defs>
  <style type="text/css">
*{stroke-linecap:butt;stroke-linejoin:round;}
  </style>
 </defs>
 <g id="figure_1">
  <g id="patch_1">
   <path d="
M0 432
L576 432
L576 0
L0 0
z
" style="fill:#ffffff;"/>
  </g>
  <g id="axes_1">
   <g id="patch_2">
    <path d="
M72 345.6
L518.4 345.6
L518.4 43.2
L72 43.2
z
" style="fill:#ffffff;"/>
   </g>
   <g id="line2d_1">
    <path clip-path="url(#pcb2bf987bf)" d="
M73.3576 433
L73.403 180.667
L73.5305 181.101
L73.5759 433
M74.5046 433
L74.5509 174.563
L74.6784 175.444
L74.9335 182.524
L75.061 182.524
L75.3161 175.444
L75.4437 182.524
L76.5915 182.524
L76.8466 164.305
L76.9742 182.524
L77.9947 182.524
L78.0173 433
M78.7151 433
L78.7598 185.626
L79.1426 185.626
L79.1649 433
M79.8618 433
L79.9077 177.434
L80.0352 177.434
L80.0811 433
M80.3955 433
L80.4178 185.13
L80.8005 185.13
L81.1831 168.069
L81.2304 433
M85.9848 433
L86.0297 183.901
L86.0297 183.901
L86.0297 183.901
L86.0522 433
M88.6633 433
L88.7081 184.362
L88.8357 184.362
L88.8805 433
M120.203 433
L120.339 180.798
L120.475 433
M121.756 433
L121.869 180.71
L122.005 433
M128.861 433
L128.884 180.248
L128.998 433
M137.802 433
L137.94 177.677
L138.077 433
M158.485 433
L158.602 171.938
L159.367 171.938
L159.507 433
M170.706 433
L170.846 172.402
L170.869 433
M183.711 433
L183.855 162.512
L183.983 155.331
L184.105 433
M207.459 433
L207.578 166.625
L207.673 433
M210.621 433
L210.767 158.304
L210.815 433
M233.063 433
L233.087 163.202
L233.087 163.202
L233.087 163.202
L233.135 433
M254.349 433
L254.386 232.964
L254.514 232.964
L254.551 433
M261.608 433
L261.656 164.409
L261.656 164.409
L261.656 164.409
L261.68 433
M266.351 433
L266.375 162.075
L266.375 162.075
L266.375 162.075
L266.423 433
M270.79 433
L270.839 154.317
L270.839 154.317
L270.839 154.317
L270.864 433
M275.382 433
L275.431 154.54
L275.505 433
M277.065 433
L277.089 161.592
L277.089 161.592
L277.089 161.592
L277.137 433
M279.743 433
L279.767 154.4
L279.767 154.4
L279.767 154.4
L279.817 433
M283.187 433
L283.211 159.82
L283.211 159.82
L283.211 159.82
L283.259 433
M285.302 433
L285.379 225.374
L285.507 225.374
L285.545 433
M287.396 433
L287.42 158.192
L287.675 158.192
L287.7 433
M288.009 433
L288.058 158.192
L288.058 158.192
L288.058 158.192
L288.082 433
M288.543 433
L288.568 151.038
L288.568 151.038
L288.568 151.038
L288.618 433
M290.694 433
L290.736 205.058
L290.864 205.058
L290.884 433
M300.635 433
L300.684 156.921
L300.684 156.921
L300.684 156.921
L300.709 433
M311.118 433
L311.143 155.798
L311.143 155.798
L311.143 155.798
L311.192 433
M315.938 433
L315.989 139.011
L316.067 433
M321.68 433
L321.729 153.721
L322.239 153.721
L322.877 194.936
L323.004 153.537
L323.259 153.537
L323.284 433
M323.745 433
L323.77 153.532
L324.152 153.532
L324.202 433
M330.863 433
L330.912 154.332
L330.912 154.332
L330.912 154.332
L330.937 433
M332.776 433
L332.825 154.13
L332.825 154.13
L332.825 154.13
L332.85 433
M342.341 433
L342.391 152.262
L342.518 152.262
L342.568 433
M348.998 433
L349.023 152.252
L349.023 152.252
L349.023 152.252
L349.073 433
M349.994 433
L350.043 152.329
L350.043 152.329
L350.043 152.329
L350.068 433
M351.294 433
L351.319 152.216
L351.319 152.216
L351.319 152.216
L351.393 433
M354.355 433
L354.38 151.349
L354.38 151.349
L354.38 151.349
L354.43 433
M355.35 433
L355.4 143.777
L355.4 143.777
L355.4 143.777
L355.426 433
M358.946 433
L358.971 149.128
L358.971 149.128
L358.971 149.128
L359.021 433
M362.62 433
L362.67 149.368
L362.67 149.368
L362.67 149.368
L362.695 433
M366.447 433
L366.496 149.552
L366.496 149.552
L366.496 149.552
L366.521 433
M373.49 433
L373.511 204.728
L373.511 204.728
L373.511 204.728
L373.553 433
M375.247 433
L375.297 147.361
L375.297 147.361
L375.297 147.361
L375.322 433
M379.072 433
L379.123 139.612
L379.251 139.612
L379.302 433
M383.281 433
L383.332 140.017
L383.332 140.017
L383.332 140.017
L383.358 433
M384.812 433
L384.863 147.204
L384.938 433
M388.648 433
L388.689 213.451
L388.689 213.451
L388.689 213.451
L388.709 433
M389.03 433
L389.072 206.8
L389.072 206.8
L389.072 206.8
L389.092 433
M390.169 433
L390.219 147.244
L390.219 147.244
L390.219 147.244
L390.245 433
M392.235 433
L392.26 146.365
L392.26 146.365
L392.26 146.365
L392.31 433
M394.148 433
L394.173 139.243
L394.173 139.243
L394.173 139.243
L394.25 433
M395.143 433
L395.194 146.503
L395.194 146.503
L395.194 146.503
L395.219 433
M395.907 433
L395.959 132.811
L396.086 142.953
L396.341 142.953
L396.367 433
M402.565 433
L402.591 138.897
L402.591 138.897
L402.591 138.897
L402.642 433
M403.331 433
L403.356 145.934
L403.356 145.934
L403.356 145.934
L403.407 433
M405.626 433
L405.652 138.799
L405.652 138.799
L405.652 138.799
L405.704 433
M407.157 433
L407.183 138.767
L407.183 138.767
L407.183 138.767
L407.234 433
M410.218 433
L410.244 145.89
L410.244 145.89
L410.244 145.89
L410.294 433
M412.974 433
L413.05 143.721
L413.1 433
M414.427 433
L414.453 143.588
L414.453 143.588
L414.453 143.588
L414.503 433
M416.569 433
L416.621 136.111
L416.621 136.111
L416.621 136.111
L416.647 433
M417.106 433
L417.131 143.678
L417.131 143.678
L417.131 143.678
L417.182 433
M418.636 433
L418.661 143.814
L418.661 143.814
L418.661 143.814
L418.712 433
M421.544 433
L421.595 143.781
L421.595 143.781
L421.595 143.781
L421.62 433
M429.732 433
L429.758 142.449
L429.758 142.449
L429.758 142.449
L429.809 433
M431.645 433
L431.671 141.924
L431.671 141.924
L431.671 141.924
L431.722 433
M451.389 433
L451.44 139.891
L451.568 139.891
L451.619 433
M456.516 433
L456.542 139.637
L456.542 139.637
L456.542 139.637
L456.593 433
M460.189 433
L460.24 140.391
L460.368 140.391
L460.419 433
M463.25 433
L463.301 136.737
L463.301 136.737
L463.301 136.737
L463.327 433
M466.694 433
L466.745 139.078
L466.745 139.078
L466.745 139.078
L466.771 433
M468.989 433
L469.041 138.739
L469.041 138.739
L469.041 138.739
L469.067 433
M469.372 433
L469.424 138.399
L469.424 138.399
L469.424 138.399
L469.449 433
M474.882 433
L474.908 138.399
L474.908 138.399
L474.908 138.399
L474.959 433
M476.03 433
L476.056 137.697
L476.056 137.697
L476.056 137.697
L476.108 433
M482.39 433
L482.433 196.892
L482.433 196.892
L482.433 196.892
L482.454 433
M486.973 433
L487.024 135.361
L487.024 135.361
L487.024 135.361
L487.05 433
M487.891 433
L487.917 135.644
L487.917 135.644
L487.917 135.644
L487.969 433
M489.039 433
L489.065 135.524
L489.448 135.524
L489.5 433
M490.568 433
L490.596 117.258
L490.596 117.258
L490.596 117.258
L490.65 433
M495.671 433
L495.697 135.747
L495.697 135.747
L495.697 135.747
L495.723 433
M510.849 433
L510.875 133.057
L510.875 133.057
L510.875 133.057
L510.927 433
L510.927 433" style="fill:none;stroke:#ff0000;stroke-linecap:square;"/>
   </g>
   <g id="line2d_2">
    <path clip-path="url(#pcb2bf987bf)" d="
M72 245.23
L73.0203 245.222
L73.1479 248.593
L73.7856 248.593
L73.9131 249.112
L74.5509 249.112
L74.6784 249.947
L75.3161 249.947
L75.4437 229.607
L76.0814 229.607
L76.2089 232.596
L76.8466 232.596
L76.9742 211.635
L77.6119 211.635
L77.9947 231.978
L78.3771 231.978
L78.3771 231.978
L78.5047 252.903
L79.1426 252.903
L79.2699 245.1
L79.9077 245.1
L80.0352 252.429
L80.6729 252.429
L80.8005 238.861
L81.4384 238.861
L81.5657 252.156
L82.9687 252.052
L83.4789 252.022
L83.7339 252.022
L83.8615 251.839
L84.4992 251.839
L84.6267 251.667
L86.0297 251.659
L86.1573 251.499
L86.795 251.499
L86.9225 251.64
L90.6213 251.534
L91.259 251.243
L92.1518 251.129
L93.5547 251.102
L95.2128 251.037
L95.9781 251.155
L96.6158 251.054
L98.2738 250.416
L99.0391 250.424
L99.6768 250.095
L102.1 249.608
L103.503 249.273
L105.034 249.261
L106.564 249.635
L107.33 249.491
L108.222 249.613
L108.86 249.613
L110.518 249.351
L111.156 250.733
L111.283 250.733
L112.048 250.554
L114.217 250.39
L115.109 250.141
L116.64 249.607
L118.043 248.627
L118.171 248.627
L119.573 248.432
L120.339 248.304
L121.104 242.369
L121.232 242.369
L121.869 248.22
L122.762 248.125
L125.696 248.272
L126.589 248.055
L128.757 247.78
L128.884 247.78
L129.522 238.357
L130.287 247.526
L130.415 247.526
L131.052 247.374
L132.583 247.237
L132.583 247.237
L134.113 246.739
L134.369 246.343
L134.879 246.343
L135.644 234.044
L136.409 245.629
L136.537 245.629
L137.174 245.34
L137.94 229.472
L138.705 228.553
L139.47 244.885
L140.235 244.866
L144.062 244.293
L144.189 244.293
L144.827 243.969
L146.485 243.88
L147.25 243.416
L147.888 243.162
L148.653 243.135
L150.184 242.734
L151.077 242.677
L152.48 242.156
L153.372 242.156
L154.01 241.482
L154.775 229.443
L155.541 240.739
L155.541 240.739
L156.306 240.306
L157.964 240.313
L158.602 239.866
L159.367 219.166
L160.132 239.544
L161.025 240.139
L162.428 240.09
L163.321 239.784
L164.086 239.852
L166.254 239.558
L167.019 240.616
L169.443 240.666
L170.08 240.845
L171.611 239.831
L172.376 239.477
L173.269 238.941
L173.907 238.588
L174.8 238.292
L176.203 226.641
L176.968 237.945
L177.733 237.881
L179.264 237.668
L180.156 238.034
L180.922 237.672
L181.559 237.74
L183.09 237.576
L185.386 237.833
L186.151 237.83
L186.916 237.532
L187.681 237.646
L189.339 237.228
L191.508 236.084
L191.508 236.084
L193.038 235.866
L193.803 235.395
L195.461 235.143
L196.864 235.126
L199.16 235.217
L200.691 235.254
L201.456 235.108
L202.221 235.141
L202.987 234.895
L203.879 234.784
L204.517 234.793
L205.41 234.621
L206.94 234.806
L207.578 234.43
L209.236 234.317
L209.236 234.317
L209.746 234.091
L210.001 234.091
L211.022 233.456
L212.297 233.4
L212.425 233.252
L214.593 233.212
L214.72 233.07
L217.654 233.004
L217.654 233.004
L217.781 232.794
L219.184 232.848
L219.312 233.339
L220.715 233.254
L221.098 233.206
L221.48 233.206
L221.608 233.907
L223.011 233.806
L223.011 233.806
L224.541 233.644
L224.669 233.35
L225.307 233.35
L225.434 233.014
L226.072 233.014
L226.072 233.014
L226.199 232.615
L226.199 232.615
L226.837 232.615
L226.965 232.255
L227.602 232.255
L227.602 232.255
L228.112 231.904
L228.368 231.904
L228.495 232.115
L229.898 232.053
L230.026 231.774
L232.194 231.757
L232.321 231.546
L233.724 231.58
L233.852 231.823
L235.255 231.915
L235.255 231.915
L235.383 232.169
L236.02 232.169
L236.02 232.169
L236.148 231.83
L239.846 231.882
L239.974 232.151
L241.377 232.137
L241.504 231.893
L242.907 231.895
L243.035 231.774
L244.438 231.762
L244.565 231.127
L245.203 231.127
L245.203 231.127
L245.331 230.98
L246.734 230.98
L246.734 230.98
L246.861 230.505
L249.03 230.449
L249.03 230.449
L249.157 230.249
L249.795 230.249
L249.795 230.249
L249.922 232.803
L252.091 232.821
L252.218 233.049
L254.386 232.964
L254.514 213.602
L255.152 213.602
L255.279 232.484
L255.279 232.484
L258.213 232.518
L258.213 232.518
L259.105 232.722
L260.508 232.752
L260.636 232.851
L261.274 232.851
L261.401 232.695
L262.039 232.695
L262.166 232.571
L262.804 232.571
L262.932 232.12
L264.335 232.032
L264.335 232.032
L264.462 231.269
L265.1 231.269
L265.1 231.269
L265.227 230.823
L265.738 230.823
L265.993 230.473
L266.63 230.473
L266.758 230.299
L267.396 230.299
L267.523 230.177
L268.926 230.082
L269.054 229.897
L271.222 229.926
L271.605 229.168
L271.987 229.168
L272.115 229.99
L273.518 229.944
L273.518 229.944
L273.645 230.149
L275.813 230.137
L275.941 230.012
L278.875 229.982
L279.002 229.794
L279.64 229.794
L279.767 230.005
L280.405 230.005
L280.405 230.005
L280.533 229.695
L281.17 229.695
L281.17 229.695
L281.298 229.165
L281.936 229.165
L282.446 228.65
L282.701 228.65
L282.828 228.324
L283.466 228.324
L283.594 227.757
L284.231 227.757
L284.359 227.407
L285.762 227.409
L285.889 226.825
L290.353 226.879
L290.481 227.065
L291.119 227.065
L291.246 227.235
L298.006 227.182
L298.133 226.827
L298.771 226.827
L298.899 226.364
L299.536 226.364
L299.664 226.151
L300.302 226.151
L300.302 226.151
L300.429 225.564
L301.067 225.564
L301.195 225.408
L301.832 225.408
L301.96 224.898
L302.597 224.898
L302.597 224.898
L303.108 224.646
L304.128 224.697
L304.128 224.697
L304.256 224.525
L314.076 224.592
L314.204 224.326
L316.372 224.344
L316.5 224.105
L317.137 224.105
L317.265 223.987
L317.903 223.987
L318.03 223.598
L318.668 223.598
L318.668 223.598
L318.795 223.381
L319.433 223.381
L319.433 223.381
L319.561 223.003
L320.198 223.003
L320.326 222.701
L320.964 222.701
L320.964 222.701
L321.474 222.517
L321.729 222.517
L322.112 201.458
L322.239 201.458
L322.877 222.341
L324.79 222.309
L324.917 222.87
L327.851 222.804
L327.979 223.083
L329.381 223.084
L329.509 222.75
L330.147 222.75
L330.274 223.098
L330.912 223.098
L331.04 222.702
L331.677 222.702
L331.805 222.927
L335.504 222.858
L335.631 222.642
L336.269 222.642
L336.396 222.342
L337.799 222.413
L337.927 221.904
L338.565 221.904
L338.692 221.214
L339.968 221.103
L340.478 220.981
L340.605 220.981
L340.86 221.465
L340.988 221.246
L341.626 221.246
L341.753 221.126
L342.391 221.126
L342.518 214.118
L343.156 214.118
L343.284 221.125
L344.687 221.089
L344.814 221.279
L345.452 221.279
L345.452 221.279
L345.579 221.403
L348.513 221.323
L348.64 221.117
L350.043 221.191
L350.171 219.728
L350.809 219.728
L350.936 221.083
L352.339 221.049
L352.467 220.729
L353.104 220.729
L353.232 220.451
L353.87 220.451
L353.87 220.451
L354.38 220.257
L354.635 220.257
L354.763 219.939
L355.4 219.939
L355.4 219.939
L355.528 219.375
L356.165 219.375
L356.165 219.375
L356.293 218.682
L356.931 218.682
L357.058 218.365
L357.568 218.365
L357.824 218.139
L362.288 218.24
L362.415 218.371
L363.053 218.371
L363.18 218.685
L363.818 218.685
L363.946 218.453
L367.644 218.529
L367.772 218.755
L369.175 218.763
L369.685 218.619
L370.705 218.619
L370.833 218.376
L371.471 218.376
L371.598 217.955
L372.236 217.955
L372.363 217.581
L373.001 217.581
L373.129 217.248
L373.766 217.248
L373.766 217.248
L373.894 217.032
L375.297 217.032
L375.424 212.939
L376.062 212.939
L376.19 216.508
L376.827 216.508
L376.955 216.232
L377.593 216.232
L377.593 216.232
L377.848 216.015
L379.123 215.991
L379.251 214.577
L379.888 214.577
L380.016 216.035
L382.184 216.134
L382.312 216.467
L384.48 216.46
L384.608 216.309
L386.011 216.309
L386.138 216.675
L386.776 216.675
L386.903 216.374
L387.541 216.374
L387.669 216.536
L388.306 216.536
L388.306 216.536
L388.434 279.662
L389.072 279.662
L389.199 216.348
L390.602 216.282
L390.73 216.019
L391.367 216.019
L391.495 215.809
L392.133 215.809
L392.26 215.511
L392.898 215.511
L393.025 215.741
L394.173 215.642
L394.173 215.642
L394.811 215.466
L395.194 215.466
L395.321 202.602
L395.959 202.602
L396.086 212.261
L396.724 212.261
L396.852 215.352
L399.785 215.327
L399.913 215.567
L401.316 215.584
L401.443 215.319
L402.846 215.313
L402.974 215.1
L403.611 215.1
L403.739 215.331
L405.907 215.221
L406.417 215.191
L406.672 215.191
L406.8 215.308
L407.438 215.308
L407.565 215.461
L408.968 215.438
L409.096 215.058
L409.733 215.058
L409.861 214.47
L410.499 214.47
L410.626 214.084
L411.264 214.084
L411.392 213.54
L412.029 213.54
L412.157 213.156
L412.667 213.156
L413.305 212.992
L413.56 212.992
L413.687 212.866
L415.09 212.824
L415.218 212.727
L416.621 212.674
L416.748 212.951
L417.386 212.951
L417.514 213.081
L418.151 213.081
L418.279 213.218
L421.212 213.155
L421.34 213.05
L421.978 213.05
L422.105 213.205
L422.743 213.205
L422.87 213.443
L423.508 213.443
L423.636 213.249
L425.039 213.359
L425.549 213.398
L425.804 213.398
L425.931 213.552
L427.334 213.464
L427.462 213.337
L428.1 213.337
L428.227 213.086
L428.865 213.086
L428.992 212.314
L429.63 212.314
L429.758 211.781
L430.395 211.781
L430.524 211.361
L431.926 211.281
L432.053 211.029
L434.222 210.955
L434.349 210.733
L436.517 210.652
L436.645 210.553
L437.283 210.553
L437.41 210.879
L438.813 210.875
L438.941 211.104
L441.874 211.056
L441.874 211.056
L442.002 210.967
L442.64 210.967
L442.767 211.321
L444.17 211.41
L444.298 211.139
L444.935 211.139
L445.063 211.301
L445.701 211.301
L446.211 210.663
L446.466 210.663
L446.593 210.28
L447.231 210.28
L447.359 209.631
L447.996 209.631
L448.124 209.217
L448.762 209.217
L448.889 209.76
L449.527 209.76
L449.527 209.76
L449.654 204.284
L450.165 204.284
L450.42 209.385
L451.823 209.345
L451.95 209.239
L452.588 209.239
L452.715 209.126
L456.414 209.103
L456.542 208.918
L457.179 208.918
L457.307 209.124
L457.945 209.124
L458.072 209.667
L458.71 209.667
L458.837 209.957
L459.475 209.957
L459.603 209.821
L460.24 209.821
L460.368 192.619
L461.006 192.619
L461.133 209.325
L461.771 209.325
L461.899 209.505
L462.536 209.505
L462.664 209.347
L464.067 209.426
L464.194 209.066
L464.832 209.066
L464.96 208.632
L467.893 208.562
L468.021 208.248
L468.658 208.248
L468.786 208.059
L469.424 208.059
L469.551 207.199
L470.189 207.199
L470.316 207.858
L475.546 207.924
L475.673 207.272
L476.311 207.272
L476.438 206.928
L477.841 207.029
L478.224 207.085
L478.607 207.085
L478.734 207.298
L479.372 207.298
L479.499 207.491
L480.137 207.491
L480.265 207.208
L480.902 207.208
L481.03 206.924
L481.668 206.924
L481.795 206.617
L482.433 206.617
L482.56 203.494
L483.198 203.494
L483.326 206.09
L484.729 205.981
L484.856 205.74
L485.494 205.74
L486.259 205.856
L486.259 205.856
L486.387 205.66
L487.024 205.66
L487.152 203.641
L487.79 203.641
L487.917 205.3
L488.555 205.3
L488.683 205.186
L489.32 205.186
L489.448 187.79
L490.085 187.79
L490.213 205.3
L491.616 205.368
L491.744 205.464
L496.208 205.398
L496.335 205.883
L497.738 205.858
L497.866 206.014
L498.503 206.014
L498.631 205.879
L499.269 205.879
L499.269 205.879
L499.396 205.685
L500.799 205.692
L500.927 205.54
L501.564 205.54
L501.692 205.046
L502.33 205.046
L502.457 204.561
L503.095 204.561
L503.222 204.305
L503.86 204.305
L503.988 203.712
L505.391 203.635
L505.518 203.263
L506.156 203.263
L506.283 203.074
L506.921 203.074
L507.049 202.894
L508.452 202.819
L508.579 203.026
L509.217 203.026
L509.344 203.185
L509.982 203.185
L510.492 202.841
L511.513 202.837
L511.64 202.995
L513.043 202.962
L513.171 203.264
L514.574 203.292
L514.701 203.14
L515.339 203.14
L515.467 203.308
L516.104 203.308
L516.232 203.471
L516.869 203.471
L516.997 203.719
L518.4 203.802
L518.4 203.802" style="fill:none;stroke:#008000;stroke-linecap:square;"/>
   </g>
   <g id="patch_3">
    <path d="
M72 43.2
L518.4 43.2" style="fill:none;stroke:#000000;stroke-linecap:square;stroke-linejoin:miter;"/>
   </g>
   <g id="patch_4">
    <path d="
M518.4 345.6
L518.4 43.2" style="fill:none;stroke:#000000;stroke-linecap:square;stroke-linejoin:miter;"/>
   </g>
   <g id="patch_5">
    <path d="
M72 345.6
L518.4 345.6" style="fill:none;stroke:#000000;stroke-linecap:square;stroke-linejoin:miter;"/>
   </g>
   <g id="patch_6">
    <path d="
M72 345.6
L72 43.2" style="fill:none;stroke:#000000;stroke-linecap:square;stroke-linejoin:miter;"/>
   </g>
   <g id="matplotlib.axis_1">
    <g id="xtick_1">
     <g id="line2d_3">
      <defs>
       <path d="
M0 0
L0 -4" id="m93b0483c22" style="stroke:#000000;stroke-width:0.5;"/>
      </defs>
      <g>
       <use style="stroke:#000000;stroke-width:0.5;" x="118.170301715" xlink:href="#m93b0483c22" y="345.6"/>
      </g>
     </g>
     <g id="line2d_4">
      <defs>
       <path d="
M0 0
L0 4" id="m741efc42ff" style="stroke:#000000;stroke-width:0.5;"/>
      </defs>
      <g>
       <use style="stroke:#000000;stroke-width:0.5;" x="118.170301715" xlink:href="#m741efc42ff" y="43.2"/>
      </g>
     </g>
     <g id="text_1">
      <!-- Oct 13 2015 -->
      <defs>
       <path d="
M19.1875 8.29688
L53.6094 8.29688
L53.6094 0
L7.32812 0
L7.32812 8.29688
Q12.9375 14.1094 22.625 23.8906
Q32.3281 33.6875 34.8125 36.5312
Q39.5469 41.8438 41.4219 45.5312
Q43.3125 49.2188 43.3125 52.7812
Q43.3125 58.5938 39.2344 62.25
Q35.1562 65.9219 28.6094 65.9219
Q23.9688 65.9219 18.8125 64.3125
Q13.6719 62.7031 7.8125 59.4219
L7.8125 69.3906
Q13.7656 71.7812 18.9375 73
Q24.125 74.2188 28.4219 74.2188
Q39.75 74.2188 46.4844 68.5469
Q53.2188 62.8906 53.2188 53.4219
Q53.2188 48.9219 51.5312 44.8906
Q49.8594 40.875 45.4062 35.4062
Q44.1875 33.9844 37.6406 27.2188
Q31.1094 20.4531 19.1875 8.29688" id="BitstreamVeraSans-Roman-32"/>
       <path d="
M39.4062 66.2188
Q28.6562 66.2188 22.3281 58.2031
Q16.0156 50.2031 16.0156 36.375
Q16.0156 22.6094 22.3281 14.5938
Q28.6562 6.59375 39.4062 6.59375
Q50.1406 6.59375 56.4219 14.5938
Q62.7031 22.6094 62.7031 36.375
Q62.7031 50.2031 56.4219 58.2031
Q50.1406 66.2188 39.4062 66.2188
M39.4062 74.2188
Q54.7344 74.2188 63.9062 63.9375
Q73.0938 53.6562 73.0938 36.375
Q73.0938 19.1406 63.9062 8.85938
Q54.7344 -1.42188 39.4062 -1.42188
Q24.0312 -1.42188 14.8125 8.82812
Q5.60938 19.0938 5.60938 36.375
Q5.60938 53.6562 14.8125 63.9375
Q24.0312 74.2188 39.4062 74.2188" id="BitstreamVeraSans-Roman-4f"/>
       <path d="
M31.7812 66.4062
Q24.1719 66.4062 20.3281 58.9062
Q16.5 51.4219 16.5 36.375
Q16.5 21.3906 20.3281 13.8906
Q24.1719 6.39062 31.7812 6.39062
Q39.4531 6.39062 43.2812 13.8906
Q47.125 21.3906 47.125 36.375
Q47.125 51.4219 43.2812 58.9062
Q39.4531 66.4062 31.7812 66.4062
M31.7812 74.2188
Q44.0469 74.2188 50.5156 64.5156
Q56.9844 54.8281 56.9844 36.375
Q56.9844 17.9688 50.5156 8.26562
Q44.0469 -1.42188 31.7812 -1.42188
Q19.5312 -1.42188 13.0625 8.26562
Q6.59375 17.9688 6.59375 36.375
Q6.59375 54.8281 13.0625 64.5156
Q19.5312 74.2188 31.7812 74.2188" id="BitstreamVeraSans-Roman-30"/>
       <path d="
M12.4062 8.29688
L28.5156 8.29688
L28.5156 63.9219
L10.9844 60.4062
L10.9844 69.3906
L28.4219 72.9062
L38.2812 72.9062
L38.2812 8.29688
L54.3906 8.29688
L54.3906 0
L12.4062 0
z
" id="BitstreamVeraSans-Roman-31"/>
       <path d="
M40.5781 39.3125
Q47.6562 37.7969 51.625 33
Q55.6094 28.2188 55.6094 21.1875
Q55.6094 10.4062 48.1875 4.48438
Q40.7656 -1.42188 27.0938 -1.42188
Q22.5156 -1.42188 17.6562 -0.515625
Q12.7969 0.390625 7.625 2.20312
L7.625 11.7188
Q11.7188 9.32812 16.5938 8.10938
Q21.4844 6.89062 26.8125 6.89062
Q36.0781 6.89062 40.9375 10.5469
Q45.7969 14.2031 45.7969 21.1875
Q45.7969 27.6406 41.2812 31.2656
Q36.7656 34.9062 28.7188 34.9062
L20.2188 34.9062
L20.2188 43.0156
L29.1094 43.0156
Q36.375 43.0156 40.2344 45.9219
Q44.0938 48.8281 44.0938 54.2969
Q44.0938 59.9062 40.1094 62.9062
Q36.1406 65.9219 28.7188 65.9219
Q24.6562 65.9219 20.0156 65.0312
Q15.375 64.1562 9.8125 62.3125
L9.8125 71.0938
Q15.4375 72.6562 20.3438 73.4375
Q25.25 74.2188 29.5938 74.2188
Q40.8281 74.2188 47.3594 69.1094
Q53.9062 64.0156 53.9062 55.3281
Q53.9062 49.2656 50.4375 45.0938
Q46.9688 40.9219 40.5781 39.3125" id="BitstreamVeraSans-Roman-33"/>
       <path id="BitstreamVeraSans-Roman-20"/>
       <path d="
M10.7969 72.9062
L49.5156 72.9062
L49.5156 64.5938
L19.8281 64.5938
L19.8281 46.7344
Q21.9688 47.4688 24.1094 47.8281
Q26.2656 48.1875 28.4219 48.1875
Q40.625 48.1875 47.75 41.5
Q54.8906 34.8125 54.8906 23.3906
Q54.8906 11.625 47.5625 5.09375
Q40.2344 -1.42188 26.9062 -1.42188
Q22.3125 -1.42188 17.5469 -0.640625
Q12.7969 0.140625 7.71875 1.70312
L7.71875 11.625
Q12.1094 9.23438 16.7969 8.0625
Q21.4844 6.89062 26.7031 6.89062
Q35.1562 6.89062 40.0781 11.3281
Q45.0156 15.7656 45.0156 23.3906
Q45.0156 31 40.0781 35.4375
Q35.1562 39.8906 26.7031 39.8906
Q22.75 39.8906 18.8125 39.0156
Q14.8906 38.1406 10.7969 36.2812
z
" id="BitstreamVeraSans-Roman-35"/>
       <path d="
M18.3125 70.2188
L18.3125 54.6875
L36.8125 54.6875
L36.8125 47.7031
L18.3125 47.7031
L18.3125 18.0156
Q18.3125 11.3281 20.1406 9.42188
Q21.9688 7.51562 27.5938 7.51562
L36.8125 7.51562
L36.8125 0
L27.5938 0
Q17.1875 0 13.2344 3.875
Q9.28125 7.76562 9.28125 18.0156
L9.28125 47.7031
L2.6875 47.7031
L2.6875 54.6875
L9.28125 54.6875
L9.28125 70.2188
z
" id="BitstreamVeraSans-Roman-74"/>
       <path d="
M48.7812 52.5938
L48.7812 44.1875
Q44.9688 46.2969 41.1406 47.3438
Q37.3125 48.3906 33.4062 48.3906
Q24.6562 48.3906 19.8125 42.8438
Q14.9844 37.3125 14.9844 27.2969
Q14.9844 17.2812 19.8125 11.7344
Q24.6562 6.20312 33.4062 6.20312
Q37.3125 6.20312 41.1406 7.25
Q44.9688 8.29688 48.7812 10.4062
L48.7812 2.09375
Q45.0156 0.34375 40.9844 -0.53125
Q36.9688 -1.42188 32.4219 -1.42188
Q20.0625 -1.42188 12.7812 6.34375
Q5.51562 14.1094 5.51562 27.2969
Q5.51562 40.6719 12.8594 48.3281
Q20.2188 56 33.0156 56
Q37.1562 56 41.1094 55.1406
Q45.0625 54.2969 48.7812 52.5938" id="BitstreamVeraSans-Roman-63"/>
      </defs>
      <g transform="translate(53.5830149798 394.065590385)rotate(-30.0)scale(0.12 -0.12)">
       <use xlink:href="#BitstreamVeraSans-Roman-4f"/>
       <use x="78.7109375" xlink:href="#BitstreamVeraSans-Roman-63"/>
       <use x="133.69140625" xlink:href="#BitstreamVeraSans-Roman-74"/>
       <use x="172.900390625" xlink:href="#BitstreamVeraSans-Roman-20"/>
       <use x="204.6875" xlink:href="#BitstreamVeraSans-Roman-31"/>
       <use x="268.310546875" xlink:href="#BitstreamVeraSans-Roman-33"/>
       <use x="331.93359375" xlink:href="#BitstreamVeraSans-Roman-20"/>
       <use x="363.720703125" xlink:href="#BitstreamVeraSans-Roman-32"/>
       <use x="427.34375" xlink:href="#BitstreamVeraSans-Roman-30"/>
       <use x="490.966796875" xlink:href="#BitstreamVeraSans-Roman-31"/>
       <use x="554.58984375" xlink:href="#BitstreamVeraSans-Roman-35"/>
      </g>
     </g>
    </g>
    <g id="xtick_2">
     <g id="line2d_5">
      <g>
       <use style="stroke:#000000;stroke-width:0.5;" x="173.268816" xlink:href="#m93b0483c22" y="345.6"/>
      </g>
     </g>
     <g id="line2d_6">
      <g>
       <use style="stroke:#000000;stroke-width:0.5;" x="173.268816" xlink:href="#m741efc42ff" y="43.2"/>
      </g>
     </g>
     <g id="text_2">
      <!-- Oct 16 2015 -->
      <defs>
       <path d="
M33.0156 40.375
Q26.375 40.375 22.4844 35.8281
Q18.6094 31.2969 18.6094 23.3906
Q18.6094 15.5312 22.4844 10.9531
Q26.375 6.39062 33.0156 6.39062
Q39.6562 6.39062 43.5312 10.9531
Q47.4062 15.5312 47.4062 23.3906
Q47.4062 31.2969 43.5312 35.8281
Q39.6562 40.375 33.0156 40.375
M52.5938 71.2969
L52.5938 62.3125
Q48.875 64.0625 45.0938 64.9844
Q41.3125 65.9219 37.5938 65.9219
Q27.8281 65.9219 22.6719 59.3281
Q17.5312 52.7344 16.7969 39.4062
Q19.6719 43.6562 24.0156 45.9219
Q28.375 48.1875 33.5938 48.1875
Q44.5781 48.1875 50.9531 41.5156
Q57.3281 34.8594 57.3281 23.3906
Q57.3281 12.1562 50.6875 5.35938
Q44.0469 -1.42188 33.0156 -1.42188
Q20.3594 -1.42188 13.6719 8.26562
Q6.98438 17.9688 6.98438 36.375
Q6.98438 53.6562 15.1875 63.9375
Q23.3906 74.2188 37.2031 74.2188
Q40.9219 74.2188 44.7031 73.4844
Q48.4844 72.75 52.5938 71.2969" id="BitstreamVeraSans-Roman-36"/>
      </defs>
      <g transform="translate(108.681529265 394.065590385)rotate(-30.0)scale(0.12 -0.12)">
       <use xlink:href="#BitstreamVeraSans-Roman-4f"/>
       <use x="78.7109375" xlink:href="#BitstreamVeraSans-Roman-63"/>
       <use x="133.69140625" xlink:href="#BitstreamVeraSans-Roman-74"/>
       <use x="172.900390625" xlink:href="#BitstreamVeraSans-Roman-20"/>
       <use x="204.6875" xlink:href="#BitstreamVeraSans-Roman-31"/>
       <use x="268.310546875" xlink:href="#BitstreamVeraSans-Roman-36"/>
       <use x="331.93359375" xlink:href="#BitstreamVeraSans-Roman-20"/>
       <use x="363.720703125" xlink:href="#BitstreamVeraSans-Roman-32"/>
       <use x="427.34375" xlink:href="#BitstreamVeraSans-Roman-30"/>
       <use x="490.966796875" xlink:href="#BitstreamVeraSans-Roman-31"/>
       <use x="554.58984375" xlink:href="#BitstreamVeraSans-Roman-35"/>
      </g>
     </g>
    </g>
    <g id="xtick_3">
     <g id="line2d_7">
      <g>
       <use style="stroke:#000000;stroke-width:0.5;" x="228.367330285" xlink:href="#m93b0483c22" y="345.6"/>
      </g>
     </g>
     <g id="line2d_8">
      <g>
       <use style="stroke:#000000;stroke-width:0.5;" x="228.367330285" xlink:href="#m741efc42ff" y="43.2"/>
      </g>
     </g>
     <g id="text_3">
      <!-- Oct 19 2015 -->
      <defs>
       <path d="
M10.9844 1.51562
L10.9844 10.5
Q14.7031 8.73438 18.5 7.8125
Q22.3125 6.89062 25.9844 6.89062
Q35.75 6.89062 40.8906 13.4531
Q46.0469 20.0156 46.7812 33.4062
Q43.9531 29.2031 39.5938 26.9531
Q35.25 24.7031 29.9844 24.7031
Q19.0469 24.7031 12.6719 31.3125
Q6.29688 37.9375 6.29688 49.4219
Q6.29688 60.6406 12.9375 67.4219
Q19.5781 74.2188 30.6094 74.2188
Q43.2656 74.2188 49.9219 64.5156
Q56.5938 54.8281 56.5938 36.375
Q56.5938 19.1406 48.4062 8.85938
Q40.2344 -1.42188 26.4219 -1.42188
Q22.7031 -1.42188 18.8906 -0.6875
Q15.0938 0.046875 10.9844 1.51562
M30.6094 32.4219
Q37.25 32.4219 41.125 36.9531
Q45.0156 41.5 45.0156 49.4219
Q45.0156 57.2812 41.125 61.8438
Q37.25 66.4062 30.6094 66.4062
Q23.9688 66.4062 20.0938 61.8438
Q16.2188 57.2812 16.2188 49.4219
Q16.2188 41.5 20.0938 36.9531
Q23.9688 32.4219 30.6094 32.4219" id="BitstreamVeraSans-Roman-39"/>
      </defs>
      <g transform="translate(163.78004355 394.065590385)rotate(-30.0)scale(0.12 -0.12)">
       <use xlink:href="#BitstreamVeraSans-Roman-4f"/>
       <use x="78.7109375" xlink:href="#BitstreamVeraSans-Roman-63"/>
       <use x="133.69140625" xlink:href="#BitstreamVeraSans-Roman-74"/>
       <use x="172.900390625" xlink:href="#BitstreamVeraSans-Roman-20"/>
       <use x="204.6875" xlink:href="#BitstreamVeraSans-Roman-31"/>
       <use x="268.310546875" xlink:href="#BitstreamVeraSans-Roman-39"/>
       <use x="331.93359375" xlink:href="#BitstreamVeraSans-Roman-20"/>
       <use x="363.720703125" xlink:href="#BitstreamVeraSans-Roman-32"/>
       <use x="427.34375" xlink:href="#BitstreamVeraSans-Roman-30"/>
       <use x="490.966796875" xlink:href="#BitstreamVeraSans-Roman-31"/>
       <use x="554.58984375" xlink:href="#BitstreamVeraSans-Roman-35"/>
      </g>
     </g>
    </g>
    <g id="xtick_4">
     <g id="line2d_9">
      <g>
       <use style="stroke:#000000;stroke-width:0.5;" x="283.465844572" xlink:href="#m93b0483c22" y="345.6"/>
      </g>
     </g>
     <g id="line2d_10">
      <g>
       <use style="stroke:#000000;stroke-width:0.5;" x="283.465844572" xlink:href="#m741efc42ff" y="43.2"/>
      </g>
     </g>
     <g id="text_4">
      <!-- Oct 22 2015 -->
      <g transform="translate(218.878557836 394.065590385)rotate(-30.0)scale(0.12 -0.12)">
       <use xlink:href="#BitstreamVeraSans-Roman-4f"/>
       <use x="78.7109375" xlink:href="#BitstreamVeraSans-Roman-63"/>
       <use x="133.69140625" xlink:href="#BitstreamVeraSans-Roman-74"/>
       <use x="172.900390625" xlink:href="#BitstreamVeraSans-Roman-20"/>
       <use x="204.6875" xlink:href="#BitstreamVeraSans-Roman-32"/>
       <use x="268.310546875" xlink:href="#BitstreamVeraSans-Roman-32"/>
       <use x="331.93359375" xlink:href="#BitstreamVeraSans-Roman-20"/>
       <use x="363.720703125" xlink:href="#BitstreamVeraSans-Roman-32"/>
       <use x="427.34375" xlink:href="#BitstreamVeraSans-Roman-30"/>
       <use x="490.966796875" xlink:href="#BitstreamVeraSans-Roman-31"/>
       <use x="554.58984375" xlink:href="#BitstreamVeraSans-Roman-35"/>
      </g>
     </g>
    </g>
    <g id="xtick_5">
     <g id="line2d_11">
      <g>
       <use style="stroke:#000000;stroke-width:0.5;" x="338.564358857" xlink:href="#m93b0483c22" y="345.6"/>
      </g>
     </g>
     <g id="line2d_12">
      <g>
       <use style="stroke:#000000;stroke-width:0.5;" x="338.564358857" xlink:href="#m741efc42ff" y="43.2"/>
      </g>
     </g>
     <g id="text_5">
      <!-- Oct 25 2015 -->
      <g transform="translate(273.977072121 394.065590385)rotate(-30.0)scale(0.12 -0.12)">
       <use xlink:href="#BitstreamVeraSans-Roman-4f"/>
       <use x="78.7109375" xlink:href="#BitstreamVeraSans-Roman-63"/>
       <use x="133.69140625" xlink:href="#BitstreamVeraSans-Roman-74"/>
       <use x="172.900390625" xlink:href="#BitstreamVeraSans-Roman-20"/>
       <use x="204.6875" xlink:href="#BitstreamVeraSans-Roman-32"/>
       <use x="268.310546875" xlink:href="#BitstreamVeraSans-Roman-35"/>
       <use x="331.93359375" xlink:href="#BitstreamVeraSans-Roman-20"/>
       <use x="363.720703125" xlink:href="#BitstreamVeraSans-Roman-32"/>
       <use x="427.34375" xlink:href="#BitstreamVeraSans-Roman-30"/>
       <use x="490.966796875" xlink:href="#BitstreamVeraSans-Roman-31"/>
       <use x="554.58984375" xlink:href="#BitstreamVeraSans-Roman-35"/>
      </g>
     </g>
    </g>
    <g id="xtick_6">
     <g id="line2d_13">
      <g>
       <use style="stroke:#000000;stroke-width:0.5;" x="393.662873141" xlink:href="#m93b0483c22" y="345.6"/>
      </g>
     </g>
     <g id="line2d_14">
      <g>
       <use style="stroke:#000000;stroke-width:0.5;" x="393.662873141" xlink:href="#m741efc42ff" y="43.2"/>
      </g>
     </g>
     <g id="text_6">
      <!-- Oct 28 2015 -->
      <defs>
       <path d="
M31.7812 34.625
Q24.75 34.625 20.7188 30.8594
Q16.7031 27.0938 16.7031 20.5156
Q16.7031 13.9219 20.7188 10.1562
Q24.75 6.39062 31.7812 6.39062
Q38.8125 6.39062 42.8594 10.1719
Q46.9219 13.9688 46.9219 20.5156
Q46.9219 27.0938 42.8906 30.8594
Q38.875 34.625 31.7812 34.625
M21.9219 38.8125
Q15.5781 40.375 12.0312 44.7188
Q8.5 49.0781 8.5 55.3281
Q8.5 64.0625 14.7188 69.1406
Q20.9531 74.2188 31.7812 74.2188
Q42.6719 74.2188 48.875 69.1406
Q55.0781 64.0625 55.0781 55.3281
Q55.0781 49.0781 51.5312 44.7188
Q48 40.375 41.7031 38.8125
Q48.8281 37.1562 52.7969 32.3125
Q56.7812 27.4844 56.7812 20.5156
Q56.7812 9.90625 50.3125 4.23438
Q43.8438 -1.42188 31.7812 -1.42188
Q19.7344 -1.42188 13.25 4.23438
Q6.78125 9.90625 6.78125 20.5156
Q6.78125 27.4844 10.7812 32.3125
Q14.7969 37.1562 21.9219 38.8125
M18.3125 54.3906
Q18.3125 48.7344 21.8438 45.5625
Q25.3906 42.3906 31.7812 42.3906
Q38.1406 42.3906 41.7188 45.5625
Q45.3125 48.7344 45.3125 54.3906
Q45.3125 60.0625 41.7188 63.2344
Q38.1406 66.4062 31.7812 66.4062
Q25.3906 66.4062 21.8438 63.2344
Q18.3125 60.0625 18.3125 54.3906" id="BitstreamVeraSans-Roman-38"/>
      </defs>
      <g transform="translate(329.075586406 394.065590385)rotate(-30.0)scale(0.12 -0.12)">
       <use xlink:href="#BitstreamVeraSans-Roman-4f"/>
       <use x="78.7109375" xlink:href="#BitstreamVeraSans-Roman-63"/>
       <use x="133.69140625" xlink:href="#BitstreamVeraSans-Roman-74"/>
       <use x="172.900390625" xlink:href="#BitstreamVeraSans-Roman-20"/>
       <use x="204.6875" xlink:href="#BitstreamVeraSans-Roman-32"/>
       <use x="268.310546875" xlink:href="#BitstreamVeraSans-Roman-38"/>
       <use x="331.93359375" xlink:href="#BitstreamVeraSans-Roman-20"/>
       <use x="363.720703125" xlink:href="#BitstreamVeraSans-Roman-32"/>
       <use x="427.34375" xlink:href="#BitstreamVeraSans-Roman-30"/>
       <use x="490.966796875" xlink:href="#BitstreamVeraSans-Roman-31"/>
       <use x="554.58984375" xlink:href="#BitstreamVeraSans-Roman-35"/>
      </g>
     </g>
    </g>
    <g id="xtick_7">
     <g id="line2d_15">
      <g>
       <use style="stroke:#000000;stroke-width:0.5;" x="448.761387428" xlink:href="#m93b0483c22" y="345.6"/>
      </g>
     </g>
     <g id="line2d_16">
      <g>
       <use style="stroke:#000000;stroke-width:0.5;" x="448.761387428" xlink:href="#m741efc42ff" y="43.2"/>
      </g>
     </g>
     <g id="text_7">
      <!-- Oct 31 2015 -->
      <g transform="translate(384.174100693 394.065590385)rotate(-30.0)scale(0.12 -0.12)">
       <use xlink:href="#BitstreamVeraSans-Roman-4f"/>
       <use x="78.7109375" xlink:href="#BitstreamVeraSans-Roman-63"/>
       <use x="133.69140625" xlink:href="#BitstreamVeraSans-Roman-74"/>
       <use x="172.900390625" xlink:href="#BitstreamVeraSans-Roman-20"/>
       <use x="204.6875" xlink:href="#BitstreamVeraSans-Roman-33"/>
       <use x="268.310546875" xlink:href="#BitstreamVeraSans-Roman-31"/>
       <use x="331.93359375" xlink:href="#BitstreamVeraSans-Roman-20"/>
       <use x="363.720703125" xlink:href="#BitstreamVeraSans-Roman-32"/>
       <use x="427.34375" xlink:href="#BitstreamVeraSans-Roman-30"/>
       <use x="490.966796875" xlink:href="#BitstreamVeraSans-Roman-31"/>
       <use x="554.58984375" xlink:href="#BitstreamVeraSans-Roman-35"/>
      </g>
     </g>
    </g>
    <g id="xtick_8">
     <g id="line2d_17">
      <g>
       <use style="stroke:#000000;stroke-width:0.5;" x="503.859901713" xlink:href="#m93b0483c22" y="345.6"/>
      </g>
     </g>
     <g id="line2d_18">
      <g>
       <use style="stroke:#000000;stroke-width:0.5;" x="503.859901713" xlink:href="#m741efc42ff" y="43.2"/>
      </g>
     </g>
     <g id="text_8">
      <!-- Nov 03 2015 -->
      <defs>
       <path d="
M2.98438 54.6875
L12.5 54.6875
L29.5938 8.79688
L46.6875 54.6875
L56.2031 54.6875
L35.6875 0
L23.4844 0
z
" id="BitstreamVeraSans-Roman-76"/>
       <path d="
M9.8125 72.9062
L23.0938 72.9062
L55.4219 11.9219
L55.4219 72.9062
L64.9844 72.9062
L64.9844 0
L51.7031 0
L19.3906 60.9844
L19.3906 0
L9.8125 0
z
" id="BitstreamVeraSans-Roman-4e"/>
       <path d="
M30.6094 48.3906
Q23.3906 48.3906 19.1875 42.75
Q14.9844 37.1094 14.9844 27.2969
Q14.9844 17.4844 19.1562 11.8438
Q23.3438 6.20312 30.6094 6.20312
Q37.7969 6.20312 41.9844 11.8594
Q46.1875 17.5312 46.1875 27.2969
Q46.1875 37.0156 41.9844 42.7031
Q37.7969 48.3906 30.6094 48.3906
M30.6094 56
Q42.3281 56 49.0156 48.375
Q55.7188 40.7656 55.7188 27.2969
Q55.7188 13.875 49.0156 6.21875
Q42.3281 -1.42188 30.6094 -1.42188
Q18.8438 -1.42188 12.1719 6.21875
Q5.51562 13.875 5.51562 27.2969
Q5.51562 40.7656 12.1719 48.375
Q18.8438 56 30.6094 56" id="BitstreamVeraSans-Roman-6f"/>
      </defs>
      <g transform="translate(436.957079555 395.402465385)rotate(-30.0)scale(0.12 -0.12)">
       <use xlink:href="#BitstreamVeraSans-Roman-4e"/>
       <use x="74.8046875" xlink:href="#BitstreamVeraSans-Roman-6f"/>
       <use x="135.986328125" xlink:href="#BitstreamVeraSans-Roman-76"/>
       <use x="195.166015625" xlink:href="#BitstreamVeraSans-Roman-20"/>
       <use x="226.953125" xlink:href="#BitstreamVeraSans-Roman-30"/>
       <use x="290.576171875" xlink:href="#BitstreamVeraSans-Roman-33"/>
       <use x="354.19921875" xlink:href="#BitstreamVeraSans-Roman-20"/>
       <use x="385.986328125" xlink:href="#BitstreamVeraSans-Roman-32"/>
       <use x="449.609375" xlink:href="#BitstreamVeraSans-Roman-30"/>
       <use x="513.232421875" xlink:href="#BitstreamVeraSans-Roman-31"/>
       <use x="576.85546875" xlink:href="#BitstreamVeraSans-Roman-35"/>
      </g>
     </g>
    </g>
   </g>
   <g id="matplotlib.axis_2">
    <g id="ytick_1">
     <g id="line2d_19">
      <defs>
       <path d="
M0 0
L4 0" id="m728421d6d4" style="stroke:#000000;stroke-width:0.5;"/>
      </defs>
      <g>
       <use style="stroke:#000000;stroke-width:0.5;" x="72.0" xlink:href="#m728421d6d4" y="334.621651616"/>
      </g>
     </g>
     <g id="line2d_20">
      <defs>
       <path d="
M0 0
L-4 0" id="mcb0005524f" style="stroke:#000000;stroke-width:0.5;"/>
      </defs>
      <g>
       <use style="stroke:#000000;stroke-width:0.5;" x="518.4" xlink:href="#mcb0005524f" y="334.621651616"/>
      </g>
     </g>
     <g id="text_9">
      <!-- 3800000 -->
      <g transform="translate(16.266875 337.932901616)scale(0.12 -0.12)">
       <use xlink:href="#BitstreamVeraSans-Roman-33"/>
       <use x="63.623046875" xlink:href="#BitstreamVeraSans-Roman-38"/>
       <use x="127.24609375" xlink:href="#BitstreamVeraSans-Roman-30"/>
       <use x="190.869140625" xlink:href="#BitstreamVeraSans-Roman-30"/>
       <use x="254.4921875" xlink:href="#BitstreamVeraSans-Roman-30"/>
       <use x="318.115234375" xlink:href="#BitstreamVeraSans-Roman-30"/>
       <use x="381.73828125" xlink:href="#BitstreamVeraSans-Roman-30"/>
      </g>
     </g>
    </g>
    <g id="ytick_2">
     <g id="line2d_21">
      <g>
       <use style="stroke:#000000;stroke-width:0.5;" x="72.0" xlink:href="#m728421d6d4" y="268.105657753"/>
      </g>
     </g>
     <g id="line2d_22">
      <g>
       <use style="stroke:#000000;stroke-width:0.5;" x="518.4" xlink:href="#mcb0005524f" y="268.105657753"/>
      </g>
     </g>
     <g id="text_10">
      <!-- 4000000 -->
      <defs>
       <path d="
M37.7969 64.3125
L12.8906 25.3906
L37.7969 25.3906
z

M35.2031 72.9062
L47.6094 72.9062
L47.6094 25.3906
L58.0156 25.3906
L58.0156 17.1875
L47.6094 17.1875
L47.6094 0
L37.7969 0
L37.7969 17.1875
L4.89062 17.1875
L4.89062 26.7031
z
" id="BitstreamVeraSans-Roman-34"/>
      </defs>
      <g transform="translate(15.93875 271.416907753)scale(0.12 -0.12)">
       <use xlink:href="#BitstreamVeraSans-Roman-34"/>
       <use x="63.623046875" xlink:href="#BitstreamVeraSans-Roman-30"/>
       <use x="127.24609375" xlink:href="#BitstreamVeraSans-Roman-30"/>
       <use x="190.869140625" xlink:href="#BitstreamVeraSans-Roman-30"/>
       <use x="254.4921875" xlink:href="#BitstreamVeraSans-Roman-30"/>
       <use x="318.115234375" xlink:href="#BitstreamVeraSans-Roman-30"/>
       <use x="381.73828125" xlink:href="#BitstreamVeraSans-Roman-30"/>
      </g>
     </g>
    </g>
    <g id="ytick_3">
     <g id="line2d_23">
      <g>
       <use style="stroke:#000000;stroke-width:0.5;" x="72.0" xlink:href="#m728421d6d4" y="201.58966389"/>
      </g>
     </g>
     <g id="line2d_24">
      <g>
       <use style="stroke:#000000;stroke-width:0.5;" x="518.4" xlink:href="#mcb0005524f" y="201.58966389"/>
      </g>
     </g>
     <g id="text_11">
      <!-- 4200000 -->
      <g transform="translate(15.93875 204.90091389)scale(0.12 -0.12)">
       <use xlink:href="#BitstreamVeraSans-Roman-34"/>
       <use x="63.623046875" xlink:href="#BitstreamVeraSans-Roman-32"/>
       <use x="127.24609375" xlink:href="#BitstreamVeraSans-Roman-30"/>
       <use x="190.869140625" xlink:href="#BitstreamVeraSans-Roman-30"/>
       <use x="254.4921875" xlink:href="#BitstreamVeraSans-Roman-30"/>
       <use x="318.115234375" xlink:href="#BitstreamVeraSans-Roman-30"/>
       <use x="381.73828125" xlink:href="#BitstreamVeraSans-Roman-30"/>
      </g>
     </g>
    </g>
    <g id="ytick_4">
     <g id="line2d_25">
      <g>
       <use style="stroke:#000000;stroke-width:0.5;" x="72.0" xlink:href="#m728421d6d4" y="135.073670027"/>
      </g>
     </g>
     <g id="line2d_26">
      <g>
       <use style="stroke:#000000;stroke-width:0.5;" x="518.4" xlink:href="#mcb0005524f" y="135.073670027"/>
      </g>
     </g>
     <g id="text_12">
      <!-- 4400000 -->
      <g transform="translate(15.93875 138.384920027)scale(0.12 -0.12)">
       <use xlink:href="#BitstreamVeraSans-Roman-34"/>
       <use x="63.623046875" xlink:href="#BitstreamVeraSans-Roman-34"/>
       <use x="127.24609375" xlink:href="#BitstreamVeraSans-Roman-30"/>
       <use x="190.869140625" xlink:href="#BitstreamVeraSans-Roman-30"/>
       <use x="254.4921875" xlink:href="#BitstreamVeraSans-Roman-30"/>
       <use x="318.115234375" xlink:href="#BitstreamVeraSans-Roman-30"/>
       <use x="381.73828125" xlink:href="#BitstreamVeraSans-Roman-30"/>
      </g>
     </g>
    </g>
    <g id="ytick_5">
     <g id="line2d_27">
      <g>
       <use style="stroke:#000000;stroke-width:0.5;" x="72.0" xlink:href="#m728421d6d4" y="68.5576761635"/>
      </g>
     </g>
     <g id="line2d_28">
      <g>
       <use style="stroke:#000000;stroke-width:0.5;" x="518.4" xlink:href="#mcb0005524f" y="68.5576761635"/>
      </g>
     </g>
     <g id="text_13">
      <!-- 4600000 -->
      <g transform="translate(15.93875 71.8689261635)scale(0.12 -0.12)">
       <use xlink:href="#BitstreamVeraSans-Roman-34"/>
       <use x="63.623046875" xlink:href="#BitstreamVeraSans-Roman-36"/>
       <use x="127.24609375" xlink:href="#BitstreamVeraSans-Roman-30"/>
       <use x="190.869140625" xlink:href="#BitstreamVeraSans-Roman-30"/>
       <use x="254.4921875" xlink:href="#BitstreamVeraSans-Roman-30"/>
       <use x="318.115234375" xlink:href="#BitstreamVeraSans-Roman-30"/>
       <use x="381.73828125" xlink:href="#BitstreamVeraSans-Roman-30"/>
      </g>
     </g>
    </g>
   </g>
   <g id="text_14">
    <!-- Schmuck -->
    <defs>
     <path d="
M52 44.1875
Q55.375 50.25 60.0625 53.125
Q64.75 56 71.0938 56
Q79.6406 56 84.2812 50.0156
Q88.9219 44.0469 88.9219 33.0156
L88.9219 0
L79.8906 0
L79.8906 32.7188
Q79.8906 40.5781 77.0938 44.375
Q74.3125 48.1875 68.6094 48.1875
Q61.625 48.1875 57.5625 43.5469
Q53.5156 38.9219 53.5156 30.9062
L53.5156 0
L44.4844 0
L44.4844 32.7188
Q44.4844 40.625 41.7031 44.4062
Q38.9219 48.1875 33.1094 48.1875
Q26.2188 48.1875 22.1562 43.5312
Q18.1094 38.875 18.1094 30.9062
L18.1094 0
L9.07812 0
L9.07812 54.6875
L18.1094 54.6875
L18.1094 46.1875
Q21.1875 51.2188 25.4844 53.6094
Q29.7812 56 35.6875 56
Q41.6562 56 45.8281 52.9688
Q50 49.9531 52 44.1875" id="BitstreamVeraSans-Roman-6d"/>
     <path d="
M8.5 21.5781
L8.5 54.6875
L17.4844 54.6875
L17.4844 21.9219
Q17.4844 14.1562 20.5 10.2656
Q23.5312 6.39062 29.5938 6.39062
Q36.8594 6.39062 41.0781 11.0312
Q45.3125 15.6719 45.3125 23.6875
L45.3125 54.6875
L54.2969 54.6875
L54.2969 0
L45.3125 0
L45.3125 8.40625
Q42.0469 3.42188 37.7188 1
Q33.4062 -1.42188 27.6875 -1.42188
Q18.2656 -1.42188 13.375 4.4375
Q8.5 10.2969 8.5 21.5781" id="BitstreamVeraSans-Roman-75"/>
     <path d="
M53.5156 70.5156
L53.5156 60.8906
Q47.9062 63.5781 42.9219 64.8906
Q37.9375 66.2188 33.2969 66.2188
Q25.25 66.2188 20.875 63.0938
Q16.5 59.9688 16.5 54.2031
Q16.5 49.3594 19.4062 46.8906
Q22.3125 44.4375 30.4219 42.9219
L36.375 41.7031
Q47.4062 39.5938 52.6562 34.2969
Q57.9062 29 57.9062 20.125
Q57.9062 9.51562 50.7969 4.04688
Q43.7031 -1.42188 29.9844 -1.42188
Q24.8125 -1.42188 18.9688 -0.25
Q13.1406 0.921875 6.89062 3.21875
L6.89062 13.375
Q12.8906 10.0156 18.6562 8.29688
Q24.4219 6.59375 29.9844 6.59375
Q38.4219 6.59375 43.0156 9.90625
Q47.6094 13.2344 47.6094 19.3906
Q47.6094 24.75 44.3125 27.7812
Q41.0156 30.8125 33.5 32.3281
L27.4844 33.5
Q16.4531 35.6875 11.5156 40.375
Q6.59375 45.0625 6.59375 53.4219
Q6.59375 63.0938 13.4062 68.6562
Q20.2188 74.2188 32.1719 74.2188
Q37.3125 74.2188 42.625 73.2812
Q47.9531 72.3594 53.5156 70.5156" id="BitstreamVeraSans-Roman-53"/>
     <path d="
M54.8906 33.0156
L54.8906 0
L45.9062 0
L45.9062 32.7188
Q45.9062 40.4844 42.875 44.3281
Q39.8438 48.1875 33.7969 48.1875
Q26.5156 48.1875 22.3125 43.5469
Q18.1094 38.9219 18.1094 30.9062
L18.1094 0
L9.07812 0
L9.07812 75.9844
L18.1094 75.9844
L18.1094 46.1875
Q21.3438 51.125 25.7031 53.5625
Q30.0781 56 35.7969 56
Q45.2188 56 50.0469 50.1719
Q54.8906 44.3438 54.8906 33.0156" id="BitstreamVeraSans-Roman-68"/>
     <path d="
M9.07812 75.9844
L18.1094 75.9844
L18.1094 31.1094
L44.9219 54.6875
L56.3906 54.6875
L27.3906 29.1094
L57.625 0
L45.9062 0
L18.1094 26.7031
L18.1094 0
L9.07812 0
z
" id="BitstreamVeraSans-Roman-6b"/>
    </defs>
    <g transform="translate(453.79575 38.2)scale(0.144 -0.144)">
     <use xlink:href="#BitstreamVeraSans-Roman-53"/>
     <use x="63.4765625" xlink:href="#BitstreamVeraSans-Roman-63"/>
     <use x="118.45703125" xlink:href="#BitstreamVeraSans-Roman-68"/>
     <use x="181.8359375" xlink:href="#BitstreamVeraSans-Roman-6d"/>
     <use x="279.248046875" xlink:href="#BitstreamVeraSans-Roman-75"/>
     <use x="342.626953125" xlink:href="#BitstreamVeraSans-Roman-63"/>
     <use x="397.607421875" xlink:href="#BitstreamVeraSans-Roman-6b"/>
    </g>
   </g>
   <g id="legend_1">
    <g id="patch_7">
     <path d="
M123.942 423.616
L466.458 423.616
L466.458 398.16
L123.942 398.16
z
" style="fill:#ffffff;stroke:#000000;stroke-linejoin:miter;"/>
    </g>
    <g id="line2d_29">
     <path d="
M134.022 409.822
L154.182 409.822" style="fill:none;stroke:#ff0000;stroke-linecap:square;"/>
    </g>
    <g id="line2d_30"/>
    <g id="text_15">
     <!-- Schwarzmarktpreis -->
     <defs>
      <path d="
M34.2812 27.4844
Q23.3906 27.4844 19.1875 25
Q14.9844 22.5156 14.9844 16.5
Q14.9844 11.7188 18.1406 8.90625
Q21.2969 6.10938 26.7031 6.10938
Q34.1875 6.10938 38.7031 11.4062
Q43.2188 16.7031 43.2188 25.4844
L43.2188 27.4844
z

M52.2031 31.2031
L52.2031 0
L43.2188 0
L43.2188 8.29688
Q40.1406 3.32812 35.5469 0.953125
Q30.9531 -1.42188 24.3125 -1.42188
Q15.9219 -1.42188 10.9531 3.29688
Q6 8.01562 6 15.9219
Q6 25.1406 12.1719 29.8281
Q18.3594 34.5156 30.6094 34.5156
L43.2188 34.5156
L43.2188 35.4062
Q43.2188 41.6094 39.1406 45
Q35.0625 48.3906 27.6875 48.3906
Q23 48.3906 18.5469 47.2656
Q14.1094 46.1406 10.0156 43.8906
L10.0156 52.2031
Q14.9375 54.1094 19.5781 55.0469
Q24.2188 56 28.6094 56
Q40.4844 56 46.3438 49.8438
Q52.2031 43.7031 52.2031 31.2031" id="BitstreamVeraSans-Roman-61"/>
      <path d="
M5.51562 54.6875
L48.1875 54.6875
L48.1875 46.4844
L14.4062 7.17188
L48.1875 7.17188
L48.1875 0
L4.29688 0
L4.29688 8.20312
L38.0938 47.5156
L5.51562 47.5156
z
" id="BitstreamVeraSans-Roman-7a"/>
      <path d="
M9.42188 54.6875
L18.4062 54.6875
L18.4062 0
L9.42188 0
z

M9.42188 75.9844
L18.4062 75.9844
L18.4062 64.5938
L9.42188 64.5938
z
" id="BitstreamVeraSans-Roman-69"/>
      <path d="
M56.2031 29.5938
L56.2031 25.2031
L14.8906 25.2031
Q15.4844 15.9219 20.4844 11.0625
Q25.4844 6.20312 34.4219 6.20312
Q39.5938 6.20312 44.4531 7.46875
Q49.3125 8.73438 54.1094 11.2812
L54.1094 2.78125
Q49.2656 0.734375 44.1875 -0.34375
Q39.1094 -1.42188 33.8906 -1.42188
Q20.7969 -1.42188 13.1562 6.1875
Q5.51562 13.8125 5.51562 26.8125
Q5.51562 40.2344 12.7656 48.1094
Q20.0156 56 32.3281 56
Q43.3594 56 49.7812 48.8906
Q56.2031 41.7969 56.2031 29.5938
M47.2188 32.2344
Q47.125 39.5938 43.0938 43.9844
Q39.0625 48.3906 32.4219 48.3906
Q24.9062 48.3906 20.3906 44.1406
Q15.875 39.8906 15.1875 32.1719
z
" id="BitstreamVeraSans-Roman-65"/>
      <path d="
M4.20312 54.6875
L13.1875 54.6875
L24.4219 12.0156
L35.5938 54.6875
L46.1875 54.6875
L57.4219 12.0156
L68.6094 54.6875
L77.5938 54.6875
L63.2812 0
L52.6875 0
L40.9219 44.8281
L29.1094 0
L18.5 0
z
" id="BitstreamVeraSans-Roman-77"/>
      <path d="
M41.1094 46.2969
Q39.5938 47.1719 37.8125 47.5781
Q36.0312 48 33.8906 48
Q26.2656 48 22.1875 43.0469
Q18.1094 38.0938 18.1094 28.8125
L18.1094 0
L9.07812 0
L9.07812 54.6875
L18.1094 54.6875
L18.1094 46.1875
Q20.9531 51.1719 25.4844 53.5781
Q30.0312 56 36.5312 56
Q37.4531 56 38.5781 55.875
Q39.7031 55.7656 41.0625 55.5156
z
" id="BitstreamVeraSans-Roman-72"/>
      <path d="
M44.2812 53.0781
L44.2812 44.5781
Q40.4844 46.5312 36.375 47.5
Q32.2812 48.4844 27.875 48.4844
Q21.1875 48.4844 17.8438 46.4375
Q14.5 44.3906 14.5 40.2812
Q14.5 37.1562 16.8906 35.375
Q19.2812 33.5938 26.5156 31.9844
L29.5938 31.2969
Q39.1562 29.25 43.1875 25.5156
Q47.2188 21.7812 47.2188 15.0938
Q47.2188 7.46875 41.1875 3.01562
Q35.1562 -1.42188 24.6094 -1.42188
Q20.2188 -1.42188 15.4531 -0.5625
Q10.6875 0.296875 5.42188 2
L5.42188 11.2812
Q10.4062 8.6875 15.2344 7.39062
Q20.0625 6.10938 24.8125 6.10938
Q31.1562 6.10938 34.5625 8.28125
Q37.9844 10.4531 37.9844 14.4062
Q37.9844 18.0625 35.5156 20.0156
Q33.0625 21.9688 24.7031 23.7812
L21.5781 24.5156
Q13.2344 26.2656 9.51562 29.9062
Q5.8125 33.5469 5.8125 39.8906
Q5.8125 47.6094 11.2812 51.7969
Q16.75 56 26.8125 56
Q31.7812 56 36.1719 55.2656
Q40.5781 54.5469 44.2812 53.0781" id="BitstreamVeraSans-Roman-73"/>
      <path d="
M18.1094 8.20312
L18.1094 -20.7969
L9.07812 -20.7969
L9.07812 54.6875
L18.1094 54.6875
L18.1094 46.3906
Q20.9531 51.2656 25.2656 53.625
Q29.5938 56 35.5938 56
Q45.5625 56 51.7812 48.0938
Q58.0156 40.1875 58.0156 27.2969
Q58.0156 14.4062 51.7812 6.48438
Q45.5625 -1.42188 35.5938 -1.42188
Q29.5938 -1.42188 25.2656 0.953125
Q20.9531 3.32812 18.1094 8.20312
M48.6875 27.2969
Q48.6875 37.2031 44.6094 42.8438
Q40.5312 48.4844 33.4062 48.4844
Q26.2656 48.4844 22.1875 42.8438
Q18.1094 37.2031 18.1094 27.2969
Q18.1094 17.3906 22.1875 11.75
Q26.2656 6.10938 33.4062 6.10938
Q40.5312 6.10938 44.6094 11.75
Q48.6875 17.3906 48.6875 27.2969" id="BitstreamVeraSans-Roman-70"/>
     </defs>
     <g transform="translate(170.022375 414.86175)scale(0.144 -0.144)">
      <use xlink:href="#BitstreamVeraSans-Roman-53"/>
      <use x="63.4765625" xlink:href="#BitstreamVeraSans-Roman-63"/>
      <use x="118.45703125" xlink:href="#BitstreamVeraSans-Roman-68"/>
      <use x="181.8359375" xlink:href="#BitstreamVeraSans-Roman-77"/>
      <use x="263.623046875" xlink:href="#BitstreamVeraSans-Roman-61"/>
      <use x="324.90234375" xlink:href="#BitstreamVeraSans-Roman-72"/>
      <use x="366.015625" xlink:href="#BitstreamVeraSans-Roman-7a"/>
      <use x="418.505859375" xlink:href="#BitstreamVeraSans-Roman-6d"/>
      <use x="515.91796875" xlink:href="#BitstreamVeraSans-Roman-61"/>
      <use x="577.197265625" xlink:href="#BitstreamVeraSans-Roman-72"/>
      <use x="618.310546875" xlink:href="#BitstreamVeraSans-Roman-6b"/>
      <use x="676.220703125" xlink:href="#BitstreamVeraSans-Roman-74"/>
      <use x="715.4296875" xlink:href="#BitstreamVeraSans-Roman-70"/>
      <use x="778.90625" xlink:href="#BitstreamVeraSans-Roman-72"/>
      <use x="817.76953125" xlink:href="#BitstreamVeraSans-Roman-65"/>
      <use x="879.29296875" xlink:href="#BitstreamVeraSans-Roman-69"/>
      <use x="907.076171875" xlink:href="#BitstreamVeraSans-Roman-73"/>
     </g>
    </g>
    <g id="line2d_31">
     <path d="
M339.609 409.822
L359.769 409.822" style="fill:none;stroke:#008000;stroke-linecap:square;"/>
    </g>
    <g id="line2d_32"/>
    <g id="text_16">
     <!-- Normalpreis -->
     <defs>
      <path d="
M9.42188 75.9844
L18.4062 75.9844
L18.4062 0
L9.42188 0
z
" id="BitstreamVeraSans-Roman-6c"/>
     </defs>
     <g transform="translate(375.609375 414.86175)scale(0.144 -0.144)">
      <use xlink:href="#BitstreamVeraSans-Roman-4e"/>
      <use x="74.8046875" xlink:href="#BitstreamVeraSans-Roman-6f"/>
      <use x="135.986328125" xlink:href="#BitstreamVeraSans-Roman-72"/>
      <use x="175.349609375" xlink:href="#BitstreamVeraSans-Roman-6d"/>
      <use x="272.76171875" xlink:href="#BitstreamVeraSans-Roman-61"/>
      <use x="334.041015625" xlink:href="#BitstreamVeraSans-Roman-6c"/>
      <use x="361.82421875" xlink:href="#BitstreamVeraSans-Roman-70"/>
      <use x="425.30078125" xlink:href="#BitstreamVeraSans-Roman-72"/>
      <use x="464.1640625" xlink:href="#BitstreamVeraSans-Roman-65"/>
      <use x="525.6875" xlink:href="#BitstreamVeraSans-Roman-69"/>
      <use x="553.470703125" xlink:href="#BitstreamVeraSans-Roman-73"/>
     </g>
    </g>
   </g>
  </g>
 </g>
 <defs>
  <clipPath id="pcb2bf987bf">
   <rect height="302.4" width="446.4" x="72.0" y="43.2"/>
  </clipPath>
 </defs>
</svg>
