<?xml version="1.0" encoding="utf-8" standalone="no"?>
<!DOCTYPE svg PUBLIC "-//W3C//DTD SVG 1.1//EN"
  "http://www.w3.org/Graphics/SVG/1.1/DTD/svg11.dtd">
<!-- Created with matplotlib (http://matplotlib.org/) -->
<svg height="432pt" version="1.1" viewBox="0 0 576 432" width="576pt" xmlns="http://www.w3.org/2000/svg" xmlns:xlink="http://www.w3.org/1999/xlink">
 <defs>
  <style type="text/css">
*{stroke-linecap:butt;stroke-linejoin:round;}
  </style>
 </defs>
 <g id="figure_1">
  <g id="patch_1">
   <path d="
M0 432
L576 432
L576 0
L0 0
z
" style="fill:#ffffff;"/>
  </g>
  <g id="axes_1">
   <g id="patch_2">
    <path d="
M72 345.6
L518.4 345.6
L518.4 43.2
L72 43.2
z
" style="fill:#ffffff;"/>
   </g>
   <g id="line2d_1">
    <path clip-path="url(#pcb2bf987bf)" d="
M72 420.304
L75.3161 420.304
L75.4437 191.203
L75.6987 420.304
L76.2089 420.304
L76.464 178.485
L76.5915 420.304
L79.1426 420.304
L79.2699 189.59
L79.525 420.304
L79.6526 189.949
L79.9077 189.232
L80.0352 420.304
L80.2903 420.304
L80.4178 187.441
L80.6729 420.304
L80.8005 187.441
L81.0555 420.304
L81.8208 420.304
L81.9483 186.545
L82.2036 420.304
L82.5863 420.304
L82.7136 176.693
L82.9687 61.1574
L83.3513 420.304
L83.4789 187.441
L83.7339 420.304
L83.8615 186.008
L84.1166 420.304
L90.4937 420.304
L90.6213 189.232
L91.259 420.304
L93.5547 420.304
L94.32 190.128
L94.4475 190.128
L95.0853 420.304
L98.9115 420.304
L99.0391 188.337
L99.6768 420.304
L100.442 420.304
L100.57 188.695
L101.207 420.304
L107.33 420.304
L108.095 189.232
L108.222 420.304
L111.156 420.304
L111.283 189.232
L111.921 420.304
L112.048 420.304
L114.217 191.023
L115.109 420.304
L118.808 420.304
L118.936 186.545
L119.573 420.304
L121.232 420.304
L121.869 187.441
L122.635 420.304
L124.93 420.304
L125.696 190.665
L126.333 189.232
L126.461 188.337
L126.461 188.337
L126.589 420.304
L127.226 190.128
L127.354 420.304
L127.354 420.304
L134.369 420.304
L134.879 190.128
L135.644 420.304
L136.409 420.304
L136.537 188.337
L137.174 420.304
L167.785 420.304
L167.912 191.023
L168.55 420.304
L172.376 420.304
L173.141 187.441
L173.269 420.304
L183.09 420.304
L183.855 187.441
L183.983 420.304
L184.62 190.128
L185.386 420.304
L189.339 420.304
L190.742 190.665
L191.508 420.304
L191.508 420.304
L212.297 420.304
L212.425 189.232
L212.68 420.304
L212.807 420.304
L213.062 189.232
L213.445 420.304
L213.573 420.304
L213.828 188.337
L213.828 188.337
L213.955 420.304
L214.338 420.304
L214.593 189.232
L214.72 420.304
L215.103 420.304
L215.358 189.232
L215.358 189.232
L215.486 420.304
L216.123 420.304
L216.123 420.304
L216.251 189.232
L216.506 420.304
L221.098 420.304
L221.225 191.919
L221.48 420.304
L225.944 420.304
L225.944 420.304
L226.072 190.128
L226.072 190.128
L226.199 420.304
L226.199 420.304
L229.26 420.304
L229.515 186.904
L229.643 420.304
L231.811 420.304
L231.939 184.754
L232.194 420.304
L233.469 420.304
L233.724 186.545
L233.852 420.304
L234.107 420.304
L234.235 187.441
L234.49 420.304
L234.49 420.304
L235 420.304
L235.255 188.337
L235.255 188.337
L235.383 420.304
L235.637 420.304
L235.765 188.337
L236.02 420.304
L236.02 420.304
L238.061 420.304
L238.316 189.232
L238.443 420.304
L240.229 420.304
L240.357 190.128
L240.612 420.304
L240.612 420.304
L248.009 420.304
L248.392 188.337
L248.647 420.304
L249.922 420.304
L250.177 185.65
L250.305 420.304
L250.56 186.545
L250.688 185.65
L250.943 420.304
L251.07 420.304
L251.325 187.441
L251.453 420.304
L251.708 187.441
L251.835 420.304
L252.856 420.304
L252.983 189.232
L253.238 420.304
L254.769 420.304
L254.896 190.128
L254.896 190.128
L255.152 420.304
L255.534 420.304
L255.662 190.128
L255.662 190.128
L255.917 190.128
L255.917 190.128
L256.044 191.023
L256.427 420.304
L256.81 420.304
L256.81 420.304
L257.065 191.023
L257.192 420.304
L261.019 420.304
L261.274 192.994
L261.401 420.304
L264.462 420.304
L264.717 188.337
L264.845 420.304
L265.483 420.304
L265.61 187.441
L265.738 420.304
L267.013 420.304
L267.141 186.545
L267.396 420.304
L267.906 420.304
L268.161 186.545
L268.288 420.304
L269.819 420.304
L270.074 187.441
L270.202 420.304
L275.813 420.304
L275.941 192.098
L276.196 420.304
L277.472 420.304
L277.727 191.919
L277.854 420.304
L278.492 420.304
L278.619 191.919
L278.875 420.304
L280.15 420.304
L280.405 192.815
L280.533 420.304
L284.869 420.304
L285.379 189.411
L285.507 188.337
L285.762 420.304
L286.144 420.304
L286.272 188.337
L286.527 189.232
L286.655 420.304
L290.864 420.304
L290.991 191.023
L291.119 189.232
L291.246 420.304
L293.414 420.304
L293.414 420.304
L293.542 191.919
L293.797 420.304
L293.797 420.304
L294.307 420.304
L294.562 191.919
L294.69 420.304
L295.455 420.304
L295.71 191.919
L295.838 191.919
L296.093 420.304
L298.899 420.304
L299.154 191.919
L299.281 420.304
L310.76 420.304
L311.015 191.023
L311.143 420.304
L312.291 420.304
L312.546 193.71
L312.673 420.304
L313.311 420.304
L313.439 193.71
L313.694 420.304
L313.821 192.815
L314.076 420.304
L314.204 420.304
L314.459 192.815
L314.587 420.304
L317.265 420.304
L317.52 193.531
L317.648 420.304
L323.259 420.304
L323.387 190.128
L323.642 420.304
L327.468 420.304
L327.596 191.023
L327.851 420.304
L327.979 420.304
L328.234 191.919
L328.361 189.232
L328.616 191.919
L328.744 420.304
L329.126 420.304
L329.381 192.815
L329.509 420.304
L329.764 191.919
L329.892 420.304
L330.147 192.815
L330.274 420.304
L330.529 420.304
L330.657 187.441
L330.912 420.304
L331.04 194.069
L331.295 420.304
L331.677 420.304
L331.805 194.606
L332.06 420.304
L332.443 420.304
L332.57 194.964
L332.825 420.304
L334.101 420.304
L334.356 193.71
L334.483 420.304
L338.692 420.304
L338.947 187.441
L339.075 420.304
L339.84 420.304
L339.968 190.128
L340.223 420.304
L343.284 420.304
L343.539 190.128
L343.666 420.304
L345.579 420.304
L345.835 191.919
L345.962 420.304
L350.043 420.304
L350.171 191.919
L350.426 420.304
L350.554 420.304
L350.809 191.919
L350.936 420.304
L356.931 420.304
L357.058 187.441
L357.313 420.304
L358.971 420.304
L359.227 187.441
L359.354 420.304
L361.14 420.304
L361.267 188.337
L361.522 187.441
L361.65 420.304
L361.905 188.337
L362.032 420.304
L362.415 420.304
L362.67 187.441
L362.798 420.304
L365.349 420.304
L365.476 190.128
L365.731 420.304
L367.262 420.304
L367.389 190.307
L367.644 420.304
L368.41 420.304
L368.537 190.128
L368.792 420.304
L382.694 420.304
L382.949 189.232
L383.077 420.304
L383.332 420.304
L383.46 187.441
L383.715 420.304
L384.097 189.232
L384.225 189.232
L384.48 420.304
L385.755 420.304
L386.011 189.232
L386.138 420.304
L388.434 420.304
L388.816 330.742
L389.199 330.742
L389.454 328.055
L389.582 330.742
L389.837 326.263
L390.347 326.263
L390.602 188.337
L390.73 337.907
L390.985 190.128
L391.112 337.907
L391.367 189.232
L391.495 188.337
L391.75 337.907
L392.643 337.907
L392.898 191.203
L393.025 337.907
L393.28 337.907
L393.408 420.304
L393.663 420.304
L393.791 191.561
L394.046 420.304
L397.234 420.304
L397.489 189.232
L397.617 420.304
L398.382 420.304
L398.637 190.128
L398.765 420.304
L399.53 420.304
L399.785 191.023
L399.913 191.023
L400.168 420.304
L400.933 420.304
L401.061 190.128
L401.316 420.304
L401.698 420.304
L401.826 133.703
L402.081 420.304
L402.464 420.304
L402.591 191.023
L402.846 420.304
L402.974 420.304
L403.229 191.919
L403.356 420.304
L403.739 420.304
L403.994 191.919
L404.122 420.304
L407.183 420.304
L407.438 193.531
L407.565 420.304
L409.861 420.304
L410.116 191.023
L410.244 420.304
L419.427 420.304
L419.682 189.232
L419.809 420.304
L420.575 420.304
L420.957 188.337
L421.212 420.304
L423.125 420.304
L423.253 190.128
L423.508 420.304
L426.314 420.304
L426.569 191.919
L426.697 420.304
L432.436 420.304
L432.691 189.053
L432.691 189.053
L432.819 189.232
L433.074 420.304
L436.135 420.304
L436.262 188.337
L436.517 420.304
L436.645 189.411
L436.9 189.411
L437.028 188.337
L437.283 420.304
L440.726 420.304
L441.109 190.128
L441.237 420.304
L447.614 420.304
L447.741 189.949
L447.996 420.304
L448.124 420.304
L448.379 189.77
L448.507 420.304
L448.762 420.304
L448.889 188.337
L449.144 189.232
L449.272 420.304
L450.675 420.304
L450.802 187.441
L451.057 420.304
L453.353 420.304
L453.481 187.441
L453.736 420.304
L455.266 420.304
L455.394 189.232
L455.649 420.304
L455.776 420.304
L456.032 190.486
L456.159 420.304
L460.623 420.304
L460.751 191.023
L461.006 420.304
L463.046 420.304
L463.301 191.919
L463.429 420.304
L465.98 420.304
L466.107 191.382
L466.363 420.304
L466.49 190.128
L466.745 420.304
L466.873 420.304
L467.128 189.232
L467.128 189.232
L467.256 420.304
L468.276 420.304
L468.658 189.232
L468.786 420.304
L469.041 188.337
L469.168 420.304
L469.424 188.337
L469.551 188.337
L469.806 420.304
L471.082 420.304
L471.337 189.232
L471.464 420.304
L472.229 420.304
L472.485 189.232
L472.612 420.304
L474.398 420.304
L474.525 190.128
L474.78 420.304
L474.908 190.128
L475.163 420.304
L475.546 420.304
L475.673 191.023
L475.928 420.304
L481.03 420.304
L481.285 191.023
L481.413 420.304
L482.816 420.304
L482.943 190.128
L483.198 420.304
L485.494 420.304
L485.877 188.874
L486.004 420.304
L486.769 420.304
L487.024 187.441
L487.152 420.304
L487.407 188.337
L487.535 186.545
L487.79 186.545
L487.917 420.304
L488.172 420.304
L488.3 187.441
L488.555 420.304
L488.683 420.304
L488.938 187.441
L489.065 187.441
L489.32 420.304
L489.83 420.304
L490.085 187.441
L490.213 420.304
L490.468 420.304
L490.596 188.516
L490.851 186.545
L490.978 420.304
L492.509 420.304
L492.764 188.337
L492.891 189.411
L493.147 188.337
L493.274 188.337
L493.529 420.304
L496.973 420.304
L497.1 190.128
L497.355 420.304
L500.799 420.304
L500.927 191.023
L501.182 420.304
L509.6 420.304
L509.727 187.441
L509.982 420.304
L510.365 189.232
L510.492 189.232
L510.747 420.304
L512.023 420.304
L512.278 135.495
L512.405 420.304
L512.661 190.128
L512.788 420.304
L513.553 420.304
L513.808 190.844
L513.936 420.304
L514.191 189.232
L514.319 420.304
L515.084 420.304
L515.339 190.128
L515.467 420.304
L518.4 420.304
L518.4 420.304" style="fill:none;stroke:#ff0000;stroke-linecap:square;"/>
   </g>
   <g id="line2d_2">
    <path clip-path="url(#pcb2bf987bf)" d="
M72 201.95
L72.2551 201.95
L72.3826 202.308
L73.0203 202.308
L73.1479 201.95
L74.5509 201.95
L74.6784 201.413
L75.3161 201.413
L75.4437 201.95
L76.0814 201.95
L76.2089 202.129
L76.8466 202.129
L76.9742 201.771
L77.6119 201.771
L78.1221 201.234
L78.3771 201.234
L78.3771 201.234
L78.5047 200.875
L79.1426 200.875
L79.2699 200.517
L79.9077 200.517
L80.0352 199.263
L80.6729 199.263
L80.8005 198.905
L81.4384 198.905
L81.5657 198.726
L82.2036 198.726
L82.331 198.368
L84.4992 198.368
L84.6267 198.547
L86.795 198.547
L86.9225 199.263
L87.5602 199.263
L87.6878 199.801
L88.3255 199.801
L88.453 200.338
L89.0907 200.338
L89.0907 200.338
L89.2183 200.696
L89.856 200.696
L89.9835 201.055
L92.1518 201.055
L92.917 201.234
L93.5547 201.592
L94.4475 201.771
L95.2128 202.308
L95.9781 202.308
L96.6158 202.129
L98.2738 201.055
L99.0391 199.98
L99.6768 199.622
L100.57 198.905
L101.207 198.905
L102.738 198.547
L103.631 198.547
L104.268 198.726
L105.034 199.084
L105.799 200.338
L107.33 201.055
L108.222 201.234
L108.86 201.234
L109.753 201.413
L110.518 201.055
L111.283 201.592
L112.048 202.667
L114.217 203.204
L115.109 203.025
L116.64 201.771
L118.043 199.084
L118.171 199.084
L118.936 198.547
L119.573 198.368
L120.339 198.726
L121.232 198.905
L121.869 199.263
L122.762 199.084
L123.4 200.338
L124.293 201.055
L124.93 201.413
L125.696 201.592
L126.461 201.055
L126.461 201.055
L126.589 201.055
L127.226 202.308
L127.991 202.308
L128.884 202.129
L130.415 202.129
L131.052 201.95
L131.818 202.129
L132.583 203.025
L132.583 203.025
L134.369 201.592
L134.879 201.592
L135.644 200.875
L136.537 199.98
L137.174 198.726
L137.94 199.084
L138.705 198.905
L139.598 199.084
L140.235 199.084
L141.001 199.442
L141.893 199.98
L143.296 201.95
L144.189 202.129
L144.827 202.488
L145.72 202.308
L146.485 201.771
L147.25 201.95
L147.888 201.95
L148.653 202.667
L149.546 203.204
L150.184 203.383
L151.077 203.383
L152.48 201.771
L153.372 201.771
L154.01 201.055
L154.775 199.442
L155.541 199.084
L155.541 199.084
L156.306 198.905
L157.071 199.084
L157.964 199.084
L158.602 199.263
L159.367 199.263
L161.025 200.696
L162.428 201.413
L163.321 201.413
L164.851 201.771
L166.254 203.025
L167.019 203.204
L167.912 203.562
L168.55 203.741
L169.443 203.383
L170.08 202.667
L170.973 202.308
L173.269 199.263
L173.907 197.83
L174.8 196.935
L176.203 196.935
L178.498 198.009
L179.264 198.547
L180.156 199.622
L180.922 199.98
L181.559 199.622
L182.452 199.622
L183.983 199.98
L184.62 201.055
L185.386 201.592
L186.151 201.592
L186.916 202.129
L187.681 203.204
L188.447 203.204
L189.339 202.488
L190.742 201.771
L191.508 200.696
L191.508 200.696
L193.803 199.98
L195.461 199.622
L196.099 200.159
L196.864 200.517
L198.395 201.592
L198.395 201.592
L199.16 201.95
L200.691 202.129
L201.456 201.95
L202.221 202.488
L202.987 202.308
L203.879 201.95
L204.517 202.488
L205.41 202.129
L206.303 202.667
L206.94 202.667
L208.343 201.95
L210.001 201.95
L210.767 201.771
L211.022 201.234
L211.532 201.234
L211.659 201.055
L212.297 201.055
L212.425 200.875
L213.062 200.875
L213.573 200.517
L213.828 200.517
L213.828 200.517
L213.955 201.055
L214.593 201.055
L214.72 200.875
L216.123 200.875
L216.123 200.875
L216.251 201.592
L216.761 201.592
L216.761 201.592
L217.016 202.667
L217.654 202.667
L217.654 202.667
L217.781 203.025
L218.419 203.025
L218.419 203.025
L218.547 202.129
L219.184 202.129
L219.312 202.846
L219.95 202.846
L220.077 202.667
L220.715 202.667
L220.843 202.846
L220.843 202.846
L221.48 202.846
L221.608 202.488
L222.245 202.488
L222.373 201.95
L223.011 201.95
L223.011 201.95
L223.521 202.129
L223.776 202.129
L223.904 202.308
L224.541 202.308
L224.669 202.129
L225.307 202.129
L225.434 201.771
L226.072 201.771
L226.072 201.771
L226.199 200.696
L226.199 200.696
L226.837 200.696
L226.965 200.338
L227.602 200.338
L227.602 200.338
L227.985 199.263
L228.368 199.263
L228.495 198.547
L229.133 198.547
L229.26 198.009
L229.898 198.009
L230.026 198.189
L230.663 198.189
L230.663 198.189
L231.173 198.368
L232.194 198.368
L232.321 198.547
L233.724 198.547
L233.852 199.622
L234.49 199.622
L234.49 199.622
L234.617 200.338
L235.255 200.338
L235.255 200.338
L235.383 200.875
L236.785 200.875
L236.913 201.234
L237.551 201.234
L237.678 201.413
L239.081 201.413
L239.209 201.771
L239.846 201.771
L239.974 202.308
L240.612 202.308
L240.612 202.308
L240.739 202.667
L242.142 202.667
L242.27 203.025
L242.907 203.025
L243.035 203.204
L243.673 203.204
L243.8 202.667
L244.438 202.667
L244.565 201.592
L245.203 201.592
L245.203 201.592
L245.331 200.338
L246.734 200.338
L246.734 200.338
L246.861 199.622
L247.499 199.622
L248.009 199.263
L249.795 199.263
L249.795 199.263
L249.922 198.905
L251.325 198.905
L251.453 199.801
L252.091 199.801
L252.218 200.696
L252.856 200.696
L252.983 201.055
L253.621 201.055
L253.749 201.771
L254.386 201.771
L254.514 201.95
L255.152 201.95
L255.279 201.771
L255.279 201.771
L255.917 201.771
L255.917 201.771
L256.044 202.667
L256.682 202.667
L256.81 202.488
L256.81 202.488
L257.447 202.488
L257.575 202.846
L258.213 202.846
L258.213 202.846
L258.723 203.204
L259.743 203.204
L259.743 203.204
L259.871 203.562
L260.508 203.562
L260.636 203.741
L261.274 203.741
L261.401 203.204
L262.039 203.204
L262.166 202.488
L262.804 202.488
L262.932 202.129
L263.569 202.129
L263.569 202.129
L263.697 201.055
L264.335 201.055
L264.335 201.055
L264.462 199.98
L265.1 199.98
L265.1 199.98
L265.227 199.084
L265.738 199.084
L265.993 198.726
L266.63 198.726
L266.758 198.547
L268.161 198.547
L268.288 198.905
L268.926 198.905
L269.054 199.263
L269.691 199.263
L269.819 199.622
L270.457 199.622
L270.584 200.338
L271.222 200.338
L271.605 201.234
L271.987 201.234
L272.115 201.413
L272.752 201.413
L272.88 201.771
L273.518 201.771
L273.518 201.771
L273.645 201.95
L274.283 201.95
L274.411 202.308
L275.048 202.308
L275.048 202.308
L275.176 202.488
L275.813 202.488
L275.941 202.846
L276.579 202.846
L276.706 203.741
L278.109 203.741
L278.109 203.741
L278.237 203.921
L278.875 203.921
L279.002 204.279
L280.405 204.279
L280.405 204.279
L280.533 203.741
L281.17 203.741
L281.17 203.741
L281.298 203.025
L281.936 203.025
L282.318 201.771
L282.701 201.771
L282.828 201.413
L283.466 201.413
L283.594 201.055
L284.231 201.055
L284.359 200.517
L284.869 200.517
L285.507 200.338
L285.762 200.338
L285.889 200.159
L286.527 200.159
L286.655 199.442
L287.292 199.442
L287.42 200.159
L288.058 200.159
L288.185 200.696
L288.823 200.696
L288.95 201.413
L289.588 201.413
L289.716 202.129
L290.353 202.129
L290.481 202.488
L291.119 202.488
L291.246 201.95
L291.884 201.95
L292.267 203.204
L292.649 203.204
L292.649 203.204
L292.777 203.383
L294.18 203.383
L294.18 203.383
L294.307 203.741
L294.945 203.741
L294.945 203.741
L295.072 204.1
L295.71 204.1
L295.838 203.921
L296.475 203.921
L296.603 204.279
L298.771 204.279
L298.899 204.1
L299.536 204.1
L299.664 203.921
L300.302 203.921
L300.302 203.921
L300.429 202.488
L301.067 202.488
L301.195 201.592
L302.597 201.592
L302.597 201.592
L303.108 201.234
L303.235 201.234
L303.49 201.413
L304.893 201.413
L305.021 201.592
L307.189 201.592
L307.189 201.592
L307.317 202.667
L307.954 202.667
L308.082 203.383
L308.72 203.383
L308.72 203.383
L308.847 203.562
L310.25 203.562
L310.25 203.562
L310.378 203.741
L311.781 203.741
L311.908 204.458
L313.311 204.458
L313.439 204.816
L314.842 204.816
L314.969 204.995
L315.607 204.995
L315.734 204.816
L316.372 204.816
L316.5 204.458
L317.903 204.458
L318.03 203.741
L318.668 203.741
L318.668 203.741
L318.795 203.383
L319.433 203.383
L319.433 203.383
L319.561 202.488
L320.198 202.488
L320.326 201.95
L320.964 201.95
L320.964 201.95
L321.474 201.771
L322.239 201.771
L323.259 201.95
L324.79 201.95
L324.917 202.488
L326.32 202.488
L326.448 203.025
L327.851 203.025
L327.979 204.1
L328.616 204.1
L328.744 204.637
L329.381 204.637
L329.509 204.1
L330.147 204.1
L330.274 204.816
L330.912 204.816
L331.04 205.174
L331.677 205.174
L331.805 205.533
L332.443 205.533
L332.57 205.712
L333.208 205.712
L333.335 205.354
L333.973 205.354
L334.101 205.174
L335.504 205.174
L335.631 204.637
L336.269 204.637
L336.396 203.921
L337.034 203.921
L337.162 203.383
L337.799 203.383
L337.927 202.846
L338.565 202.846
L338.692 202.308
L339.33 202.308
L339.457 201.592
L340.605 201.592
L340.86 202.488
L340.988 202.129
L341.626 202.129
L341.753 201.95
L342.391 201.95
L342.518 202.129
L343.156 202.129
L343.284 202.308
L343.921 202.308
L343.921 202.308
L344.049 202.667
L344.687 202.667
L344.814 203.025
L345.452 203.025
L345.452 203.025
L345.579 203.383
L346.982 203.383
L346.982 203.383
L347.11 204.1
L347.748 204.1
L347.875 203.921
L348.513 203.921
L348.64 203.741
L349.278 203.741
L349.406 203.562
L350.043 203.562
L350.171 203.921
L350.809 203.921
L350.936 203.741
L352.339 203.741
L352.467 203.562
L353.104 203.562
L353.232 203.204
L353.87 203.204
L353.87 203.204
L354.38 203.025
L354.635 203.025
L354.763 202.308
L355.4 202.308
L355.4 202.308
L355.528 201.234
L356.165 201.234
L356.165 201.234
L356.293 200.338
L356.931 200.338
L357.058 199.622
L357.568 199.622
L357.824 199.263
L358.461 199.263
L358.461 199.263
L358.589 199.084
L359.227 199.084
L359.354 198.726
L359.992 198.726
L360.119 199.263
L361.522 199.263
L361.65 199.98
L362.288 199.98
L362.415 200.696
L363.053 200.696
L363.18 201.055
L365.349 201.055
L365.476 201.234
L366.114 201.234
L366.114 201.234
L366.242 201.413
L366.879 201.413
L367.007 201.771
L369.94 201.771
L370.068 201.95
L371.471 201.95
L371.598 201.413
L372.236 201.413
L372.363 201.055
L373.001 201.055
L373.129 200.696
L373.766 200.696
L373.766 200.696
L373.894 199.622
L375.297 199.622
L375.424 198.547
L376.062 198.547
L376.19 198.189
L376.827 198.189
L376.955 198.368
L377.593 198.368
L377.593 198.368
L377.848 198.189
L379.123 198.189
L379.251 198.368
L379.888 198.368
L380.016 198.726
L380.654 198.726
L380.781 200.159
L381.419 200.159
L381.547 200.517
L382.184 200.517
L382.312 200.875
L384.48 200.875
L384.608 201.055
L386.011 201.055
L386.138 202.308
L386.776 202.308
L386.903 201.95
L387.541 201.95
L387.669 203.025
L388.306 203.025
L388.306 203.025
L388.434 341.668
L389.072 341.668
L389.199 202.129
L389.837 202.129
L389.964 200.696
L390.602 200.696
L390.73 201.234
L391.367 201.234
L391.495 201.592
L392.133 201.592
L392.26 201.95
L392.898 201.95
L393.025 201.592
L393.663 201.592
L393.791 202.308
L394.173 202.308
L394.173 202.308
L394.556 201.95
L395.194 201.95
L395.321 202.129
L395.959 202.129
L396.086 201.771
L396.724 201.771
L396.852 201.592
L397.489 201.592
L397.617 201.234
L398.255 201.234
L398.382 201.95
L399.02 201.95
L399.147 202.667
L400.55 202.667
L400.678 203.383
L401.316 203.383
L401.443 203.741
L402.081 203.741
L402.208 203.204
L402.846 203.204
L402.974 203.741
L405.907 203.741
L406.035 204.1
L406.672 204.1
L406.8 204.279
L407.438 204.279
L407.565 204.1
L408.203 204.1
L408.331 204.279
L408.968 204.279
L409.096 203.562
L409.733 203.562
L409.861 202.846
L410.499 202.846
L410.626 202.308
L411.264 202.308
L411.392 201.413
L412.029 201.413
L412.157 200.517
L412.667 200.517
L413.05 200.159
L413.56 200.159
L413.687 199.622
L415.09 199.622
L415.218 199.801
L415.856 199.801
L415.983 200.159
L416.621 200.159
L416.748 200.517
L417.386 200.517
L417.514 201.413
L418.151 201.413
L418.279 201.234
L418.917 201.234
L419.044 201.413
L419.682 201.413
L419.809 200.696
L420.447 200.696
L420.575 201.234
L421.212 201.234
L421.34 201.413
L421.978 201.413
L422.105 201.771
L422.743 201.771
L422.87 201.95
L423.508 201.95
L423.636 202.846
L425.039 202.846
L425.166 203.025
L425.804 203.025
L425.931 203.383
L427.334 203.383
L427.462 203.025
L428.1 203.025
L428.227 201.771
L428.865 201.771
L428.992 201.592
L429.63 201.592
L429.758 201.055
L430.395 201.055
L430.524 200.338
L431.033 200.338
L431.288 200.517
L431.926 200.517
L432.053 200.159
L433.456 200.159
L433.584 200.338
L434.222 200.338
L434.349 200.159
L435.752 200.159
L435.88 200.338
L437.283 200.338
L437.41 201.592
L438.048 201.592
L438.176 201.413
L438.813 201.413
L438.941 201.771
L439.579 201.771
L439.706 201.95
L441.109 201.95
L441.237 201.592
L441.874 201.592
L441.874 201.592
L442.002 202.488
L442.64 202.488
L442.767 202.846
L443.405 202.846
L443.533 202.667
L444.935 202.667
L445.063 201.95
L445.701 201.95
L446.211 201.771
L446.466 201.771
L446.593 201.413
L447.231 201.413
L447.359 200.875
L447.996 200.875
L448.124 200.696
L448.762 200.696
L448.889 200.338
L449.527 200.338
L449.527 200.338
L449.654 200.159
L450.165 200.159
L450.42 199.442
L451.057 199.442
L451.185 199.622
L451.823 199.622
L451.95 199.442
L453.353 199.442
L453.481 199.622
L454.118 199.622
L454.246 200.159
L454.884 200.159
L454.884 200.159
L455.011 200.875
L455.649 200.875
L455.776 201.413
L457.179 201.413
L457.307 201.592
L457.945 201.592
L458.072 202.308
L458.71 202.308
L458.837 202.667
L459.475 202.667
L459.603 203.025
L460.24 203.025
L460.368 203.562
L461.006 203.562
L461.133 203.204
L461.771 203.204
L461.899 203.921
L462.536 203.921
L462.664 203.562
L464.067 203.562
L464.194 202.846
L464.832 202.846
L464.96 202.488
L465.597 202.488
L465.597 202.488
L465.725 202.129
L466.363 202.129
L466.49 201.771
L467.893 201.771
L468.021 201.413
L468.658 201.413
L468.786 200.696
L470.189 200.696
L470.316 201.234
L470.954 201.234
L471.082 201.055
L472.485 201.055
L472.612 201.413
L473.25 201.413
L473.377 201.95
L474.015 201.95
L474.143 202.308
L474.78 202.308
L474.908 202.488
L475.546 202.488
L475.673 202.667
L476.311 202.667
L476.438 203.204
L477.076 203.204
L477.204 202.846
L477.841 202.846
L477.969 203.025
L478.607 203.025
L478.734 203.204
L479.372 203.204
L479.499 203.562
L480.137 203.562
L480.265 202.846
L480.902 202.846
L481.03 202.667
L482.433 202.667
L482.56 201.95
L483.198 201.95
L483.326 201.413
L483.963 201.413
L484.091 200.696
L484.729 200.696
L484.856 199.801
L485.494 199.801
L486.004 199.263
L487.024 199.263
L487.152 198.726
L487.79 198.726
L487.917 199.084
L489.32 199.084
L489.448 199.263
L490.085 199.263
L490.213 199.442
L490.851 199.442
L490.978 200.159
L491.616 200.159
L491.744 200.338
L492.381 200.338
L492.509 200.696
L493.147 200.696
L493.274 200.517
L493.912 200.517
L494.04 201.592
L494.677 201.592
L494.805 201.234
L495.442 201.234
L495.697 201.413
L496.208 201.413
L496.335 201.771
L496.973 201.771
L497.1 202.308
L497.738 202.308
L497.866 202.667
L498.503 202.667
L498.631 203.025
L500.799 203.025
L500.927 202.846
L501.564 202.846
L501.692 201.771
L502.33 201.771
L502.457 201.055
L503.095 201.055
L503.222 200.159
L503.86 200.159
L503.988 199.263
L504.625 199.263
L504.753 198.726
L505.391 198.726
L505.518 198.547
L506.156 198.547
L506.283 198.368
L506.921 198.368
L507.049 198.547
L507.686 198.547
L507.814 198.905
L508.452 198.905
L508.579 199.622
L509.217 199.622
L509.344 200.338
L509.982 200.338
L510.365 201.055
L510.747 201.055
L510.875 201.592
L511.513 201.592
L511.64 201.055
L512.278 201.055
L512.405 200.696
L513.043 200.696
L513.171 201.771
L513.808 201.771
L513.936 201.592
L514.574 201.592
L514.701 202.308
L515.339 202.308
L515.467 201.055
L516.104 201.055
L516.232 202.488
L516.869 202.488
L516.997 202.846
L518.4 202.846
L518.4 202.846" style="fill:none;stroke:#008000;stroke-linecap:square;"/>
   </g>
   <g id="patch_3">
    <path d="
M72 43.2
L518.4 43.2" style="fill:none;stroke:#000000;stroke-linecap:square;stroke-linejoin:miter;"/>
   </g>
   <g id="patch_4">
    <path d="
M518.4 345.6
L518.4 43.2" style="fill:none;stroke:#000000;stroke-linecap:square;stroke-linejoin:miter;"/>
   </g>
   <g id="patch_5">
    <path d="
M72 345.6
L518.4 345.6" style="fill:none;stroke:#000000;stroke-linecap:square;stroke-linejoin:miter;"/>
   </g>
   <g id="patch_6">
    <path d="
M72 345.6
L72 43.2" style="fill:none;stroke:#000000;stroke-linecap:square;stroke-linejoin:miter;"/>
   </g>
   <g id="matplotlib.axis_1">
    <g id="xtick_1">
     <g id="line2d_3">
      <defs>
       <path d="
M0 0
L0 -4" id="m93b0483c22" style="stroke:#000000;stroke-width:0.5;"/>
      </defs>
      <g>
       <use style="stroke:#000000;stroke-width:0.5;" x="118.170301715" xlink:href="#m93b0483c22" y="345.6"/>
      </g>
     </g>
     <g id="line2d_4">
      <defs>
       <path d="
M0 0
L0 4" id="m741efc42ff" style="stroke:#000000;stroke-width:0.5;"/>
      </defs>
      <g>
       <use style="stroke:#000000;stroke-width:0.5;" x="118.170301715" xlink:href="#m741efc42ff" y="43.2"/>
      </g>
     </g>
     <g id="text_1">
      <!-- Oct 13 2015 -->
      <defs>
       <path d="
M19.1875 8.29688
L53.6094 8.29688
L53.6094 0
L7.32812 0
L7.32812 8.29688
Q12.9375 14.1094 22.625 23.8906
Q32.3281 33.6875 34.8125 36.5312
Q39.5469 41.8438 41.4219 45.5312
Q43.3125 49.2188 43.3125 52.7812
Q43.3125 58.5938 39.2344 62.25
Q35.1562 65.9219 28.6094 65.9219
Q23.9688 65.9219 18.8125 64.3125
Q13.6719 62.7031 7.8125 59.4219
L7.8125 69.3906
Q13.7656 71.7812 18.9375 73
Q24.125 74.2188 28.4219 74.2188
Q39.75 74.2188 46.4844 68.5469
Q53.2188 62.8906 53.2188 53.4219
Q53.2188 48.9219 51.5312 44.8906
Q49.8594 40.875 45.4062 35.4062
Q44.1875 33.9844 37.6406 27.2188
Q31.1094 20.4531 19.1875 8.29688" id="BitstreamVeraSans-Roman-32"/>
       <path d="
M39.4062 66.2188
Q28.6562 66.2188 22.3281 58.2031
Q16.0156 50.2031 16.0156 36.375
Q16.0156 22.6094 22.3281 14.5938
Q28.6562 6.59375 39.4062 6.59375
Q50.1406 6.59375 56.4219 14.5938
Q62.7031 22.6094 62.7031 36.375
Q62.7031 50.2031 56.4219 58.2031
Q50.1406 66.2188 39.4062 66.2188
M39.4062 74.2188
Q54.7344 74.2188 63.9062 63.9375
Q73.0938 53.6562 73.0938 36.375
Q73.0938 19.1406 63.9062 8.85938
Q54.7344 -1.42188 39.4062 -1.42188
Q24.0312 -1.42188 14.8125 8.82812
Q5.60938 19.0938 5.60938 36.375
Q5.60938 53.6562 14.8125 63.9375
Q24.0312 74.2188 39.4062 74.2188" id="BitstreamVeraSans-Roman-4f"/>
       <path d="
M31.7812 66.4062
Q24.1719 66.4062 20.3281 58.9062
Q16.5 51.4219 16.5 36.375
Q16.5 21.3906 20.3281 13.8906
Q24.1719 6.39062 31.7812 6.39062
Q39.4531 6.39062 43.2812 13.8906
Q47.125 21.3906 47.125 36.375
Q47.125 51.4219 43.2812 58.9062
Q39.4531 66.4062 31.7812 66.4062
M31.7812 74.2188
Q44.0469 74.2188 50.5156 64.5156
Q56.9844 54.8281 56.9844 36.375
Q56.9844 17.9688 50.5156 8.26562
Q44.0469 -1.42188 31.7812 -1.42188
Q19.5312 -1.42188 13.0625 8.26562
Q6.59375 17.9688 6.59375 36.375
Q6.59375 54.8281 13.0625 64.5156
Q19.5312 74.2188 31.7812 74.2188" id="BitstreamVeraSans-Roman-30"/>
       <path d="
M12.4062 8.29688
L28.5156 8.29688
L28.5156 63.9219
L10.9844 60.4062
L10.9844 69.3906
L28.4219 72.9062
L38.2812 72.9062
L38.2812 8.29688
L54.3906 8.29688
L54.3906 0
L12.4062 0
z
" id="BitstreamVeraSans-Roman-31"/>
       <path d="
M40.5781 39.3125
Q47.6562 37.7969 51.625 33
Q55.6094 28.2188 55.6094 21.1875
Q55.6094 10.4062 48.1875 4.48438
Q40.7656 -1.42188 27.0938 -1.42188
Q22.5156 -1.42188 17.6562 -0.515625
Q12.7969 0.390625 7.625 2.20312
L7.625 11.7188
Q11.7188 9.32812 16.5938 8.10938
Q21.4844 6.89062 26.8125 6.89062
Q36.0781 6.89062 40.9375 10.5469
Q45.7969 14.2031 45.7969 21.1875
Q45.7969 27.6406 41.2812 31.2656
Q36.7656 34.9062 28.7188 34.9062
L20.2188 34.9062
L20.2188 43.0156
L29.1094 43.0156
Q36.375 43.0156 40.2344 45.9219
Q44.0938 48.8281 44.0938 54.2969
Q44.0938 59.9062 40.1094 62.9062
Q36.1406 65.9219 28.7188 65.9219
Q24.6562 65.9219 20.0156 65.0312
Q15.375 64.1562 9.8125 62.3125
L9.8125 71.0938
Q15.4375 72.6562 20.3438 73.4375
Q25.25 74.2188 29.5938 74.2188
Q40.8281 74.2188 47.3594 69.1094
Q53.9062 64.0156 53.9062 55.3281
Q53.9062 49.2656 50.4375 45.0938
Q46.9688 40.9219 40.5781 39.3125" id="BitstreamVeraSans-Roman-33"/>
       <path id="BitstreamVeraSans-Roman-20"/>
       <path d="
M10.7969 72.9062
L49.5156 72.9062
L49.5156 64.5938
L19.8281 64.5938
L19.8281 46.7344
Q21.9688 47.4688 24.1094 47.8281
Q26.2656 48.1875 28.4219 48.1875
Q40.625 48.1875 47.75 41.5
Q54.8906 34.8125 54.8906 23.3906
Q54.8906 11.625 47.5625 5.09375
Q40.2344 -1.42188 26.9062 -1.42188
Q22.3125 -1.42188 17.5469 -0.640625
Q12.7969 0.140625 7.71875 1.70312
L7.71875 11.625
Q12.1094 9.23438 16.7969 8.0625
Q21.4844 6.89062 26.7031 6.89062
Q35.1562 6.89062 40.0781 11.3281
Q45.0156 15.7656 45.0156 23.3906
Q45.0156 31 40.0781 35.4375
Q35.1562 39.8906 26.7031 39.8906
Q22.75 39.8906 18.8125 39.0156
Q14.8906 38.1406 10.7969 36.2812
z
" id="BitstreamVeraSans-Roman-35"/>
       <path d="
M18.3125 70.2188
L18.3125 54.6875
L36.8125 54.6875
L36.8125 47.7031
L18.3125 47.7031
L18.3125 18.0156
Q18.3125 11.3281 20.1406 9.42188
Q21.9688 7.51562 27.5938 7.51562
L36.8125 7.51562
L36.8125 0
L27.5938 0
Q17.1875 0 13.2344 3.875
Q9.28125 7.76562 9.28125 18.0156
L9.28125 47.7031
L2.6875 47.7031
L2.6875 54.6875
L9.28125 54.6875
L9.28125 70.2188
z
" id="BitstreamVeraSans-Roman-74"/>
       <path d="
M48.7812 52.5938
L48.7812 44.1875
Q44.9688 46.2969 41.1406 47.3438
Q37.3125 48.3906 33.4062 48.3906
Q24.6562 48.3906 19.8125 42.8438
Q14.9844 37.3125 14.9844 27.2969
Q14.9844 17.2812 19.8125 11.7344
Q24.6562 6.20312 33.4062 6.20312
Q37.3125 6.20312 41.1406 7.25
Q44.9688 8.29688 48.7812 10.4062
L48.7812 2.09375
Q45.0156 0.34375 40.9844 -0.53125
Q36.9688 -1.42188 32.4219 -1.42188
Q20.0625 -1.42188 12.7812 6.34375
Q5.51562 14.1094 5.51562 27.2969
Q5.51562 40.6719 12.8594 48.3281
Q20.2188 56 33.0156 56
Q37.1562 56 41.1094 55.1406
Q45.0625 54.2969 48.7812 52.5938" id="BitstreamVeraSans-Roman-63"/>
      </defs>
      <g transform="translate(53.5830149798 394.065590385)rotate(-30.0)scale(0.12 -0.12)">
       <use xlink:href="#BitstreamVeraSans-Roman-4f"/>
       <use x="78.7109375" xlink:href="#BitstreamVeraSans-Roman-63"/>
       <use x="133.69140625" xlink:href="#BitstreamVeraSans-Roman-74"/>
       <use x="172.900390625" xlink:href="#BitstreamVeraSans-Roman-20"/>
       <use x="204.6875" xlink:href="#BitstreamVeraSans-Roman-31"/>
       <use x="268.310546875" xlink:href="#BitstreamVeraSans-Roman-33"/>
       <use x="331.93359375" xlink:href="#BitstreamVeraSans-Roman-20"/>
       <use x="363.720703125" xlink:href="#BitstreamVeraSans-Roman-32"/>
       <use x="427.34375" xlink:href="#BitstreamVeraSans-Roman-30"/>
       <use x="490.966796875" xlink:href="#BitstreamVeraSans-Roman-31"/>
       <use x="554.58984375" xlink:href="#BitstreamVeraSans-Roman-35"/>
      </g>
     </g>
    </g>
    <g id="xtick_2">
     <g id="line2d_5">
      <g>
       <use style="stroke:#000000;stroke-width:0.5;" x="173.268816" xlink:href="#m93b0483c22" y="345.6"/>
      </g>
     </g>
     <g id="line2d_6">
      <g>
       <use style="stroke:#000000;stroke-width:0.5;" x="173.268816" xlink:href="#m741efc42ff" y="43.2"/>
      </g>
     </g>
     <g id="text_2">
      <!-- Oct 16 2015 -->
      <defs>
       <path d="
M33.0156 40.375
Q26.375 40.375 22.4844 35.8281
Q18.6094 31.2969 18.6094 23.3906
Q18.6094 15.5312 22.4844 10.9531
Q26.375 6.39062 33.0156 6.39062
Q39.6562 6.39062 43.5312 10.9531
Q47.4062 15.5312 47.4062 23.3906
Q47.4062 31.2969 43.5312 35.8281
Q39.6562 40.375 33.0156 40.375
M52.5938 71.2969
L52.5938 62.3125
Q48.875 64.0625 45.0938 64.9844
Q41.3125 65.9219 37.5938 65.9219
Q27.8281 65.9219 22.6719 59.3281
Q17.5312 52.7344 16.7969 39.4062
Q19.6719 43.6562 24.0156 45.9219
Q28.375 48.1875 33.5938 48.1875
Q44.5781 48.1875 50.9531 41.5156
Q57.3281 34.8594 57.3281 23.3906
Q57.3281 12.1562 50.6875 5.35938
Q44.0469 -1.42188 33.0156 -1.42188
Q20.3594 -1.42188 13.6719 8.26562
Q6.98438 17.9688 6.98438 36.375
Q6.98438 53.6562 15.1875 63.9375
Q23.3906 74.2188 37.2031 74.2188
Q40.9219 74.2188 44.7031 73.4844
Q48.4844 72.75 52.5938 71.2969" id="BitstreamVeraSans-Roman-36"/>
      </defs>
      <g transform="translate(108.681529265 394.065590385)rotate(-30.0)scale(0.12 -0.12)">
       <use xlink:href="#BitstreamVeraSans-Roman-4f"/>
       <use x="78.7109375" xlink:href="#BitstreamVeraSans-Roman-63"/>
       <use x="133.69140625" xlink:href="#BitstreamVeraSans-Roman-74"/>
       <use x="172.900390625" xlink:href="#BitstreamVeraSans-Roman-20"/>
       <use x="204.6875" xlink:href="#BitstreamVeraSans-Roman-31"/>
       <use x="268.310546875" xlink:href="#BitstreamVeraSans-Roman-36"/>
       <use x="331.93359375" xlink:href="#BitstreamVeraSans-Roman-20"/>
       <use x="363.720703125" xlink:href="#BitstreamVeraSans-Roman-32"/>
       <use x="427.34375" xlink:href="#BitstreamVeraSans-Roman-30"/>
       <use x="490.966796875" xlink:href="#BitstreamVeraSans-Roman-31"/>
       <use x="554.58984375" xlink:href="#BitstreamVeraSans-Roman-35"/>
      </g>
     </g>
    </g>
    <g id="xtick_3">
     <g id="line2d_7">
      <g>
       <use style="stroke:#000000;stroke-width:0.5;" x="228.367330285" xlink:href="#m93b0483c22" y="345.6"/>
      </g>
     </g>
     <g id="line2d_8">
      <g>
       <use style="stroke:#000000;stroke-width:0.5;" x="228.367330285" xlink:href="#m741efc42ff" y="43.2"/>
      </g>
     </g>
     <g id="text_3">
      <!-- Oct 19 2015 -->
      <defs>
       <path d="
M10.9844 1.51562
L10.9844 10.5
Q14.7031 8.73438 18.5 7.8125
Q22.3125 6.89062 25.9844 6.89062
Q35.75 6.89062 40.8906 13.4531
Q46.0469 20.0156 46.7812 33.4062
Q43.9531 29.2031 39.5938 26.9531
Q35.25 24.7031 29.9844 24.7031
Q19.0469 24.7031 12.6719 31.3125
Q6.29688 37.9375 6.29688 49.4219
Q6.29688 60.6406 12.9375 67.4219
Q19.5781 74.2188 30.6094 74.2188
Q43.2656 74.2188 49.9219 64.5156
Q56.5938 54.8281 56.5938 36.375
Q56.5938 19.1406 48.4062 8.85938
Q40.2344 -1.42188 26.4219 -1.42188
Q22.7031 -1.42188 18.8906 -0.6875
Q15.0938 0.046875 10.9844 1.51562
M30.6094 32.4219
Q37.25 32.4219 41.125 36.9531
Q45.0156 41.5 45.0156 49.4219
Q45.0156 57.2812 41.125 61.8438
Q37.25 66.4062 30.6094 66.4062
Q23.9688 66.4062 20.0938 61.8438
Q16.2188 57.2812 16.2188 49.4219
Q16.2188 41.5 20.0938 36.9531
Q23.9688 32.4219 30.6094 32.4219" id="BitstreamVeraSans-Roman-39"/>
      </defs>
      <g transform="translate(163.78004355 394.065590385)rotate(-30.0)scale(0.12 -0.12)">
       <use xlink:href="#BitstreamVeraSans-Roman-4f"/>
       <use x="78.7109375" xlink:href="#BitstreamVeraSans-Roman-63"/>
       <use x="133.69140625" xlink:href="#BitstreamVeraSans-Roman-74"/>
       <use x="172.900390625" xlink:href="#BitstreamVeraSans-Roman-20"/>
       <use x="204.6875" xlink:href="#BitstreamVeraSans-Roman-31"/>
       <use x="268.310546875" xlink:href="#BitstreamVeraSans-Roman-39"/>
       <use x="331.93359375" xlink:href="#BitstreamVeraSans-Roman-20"/>
       <use x="363.720703125" xlink:href="#BitstreamVeraSans-Roman-32"/>
       <use x="427.34375" xlink:href="#BitstreamVeraSans-Roman-30"/>
       <use x="490.966796875" xlink:href="#BitstreamVeraSans-Roman-31"/>
       <use x="554.58984375" xlink:href="#BitstreamVeraSans-Roman-35"/>
      </g>
     </g>
    </g>
    <g id="xtick_4">
     <g id="line2d_9">
      <g>
       <use style="stroke:#000000;stroke-width:0.5;" x="283.465844572" xlink:href="#m93b0483c22" y="345.6"/>
      </g>
     </g>
     <g id="line2d_10">
      <g>
       <use style="stroke:#000000;stroke-width:0.5;" x="283.465844572" xlink:href="#m741efc42ff" y="43.2"/>
      </g>
     </g>
     <g id="text_4">
      <!-- Oct 22 2015 -->
      <g transform="translate(218.878557836 394.065590385)rotate(-30.0)scale(0.12 -0.12)">
       <use xlink:href="#BitstreamVeraSans-Roman-4f"/>
       <use x="78.7109375" xlink:href="#BitstreamVeraSans-Roman-63"/>
       <use x="133.69140625" xlink:href="#BitstreamVeraSans-Roman-74"/>
       <use x="172.900390625" xlink:href="#BitstreamVeraSans-Roman-20"/>
       <use x="204.6875" xlink:href="#BitstreamVeraSans-Roman-32"/>
       <use x="268.310546875" xlink:href="#BitstreamVeraSans-Roman-32"/>
       <use x="331.93359375" xlink:href="#BitstreamVeraSans-Roman-20"/>
       <use x="363.720703125" xlink:href="#BitstreamVeraSans-Roman-32"/>
       <use x="427.34375" xlink:href="#BitstreamVeraSans-Roman-30"/>
       <use x="490.966796875" xlink:href="#BitstreamVeraSans-Roman-31"/>
       <use x="554.58984375" xlink:href="#BitstreamVeraSans-Roman-35"/>
      </g>
     </g>
    </g>
    <g id="xtick_5">
     <g id="line2d_11">
      <g>
       <use style="stroke:#000000;stroke-width:0.5;" x="338.564358857" xlink:href="#m93b0483c22" y="345.6"/>
      </g>
     </g>
     <g id="line2d_12">
      <g>
       <use style="stroke:#000000;stroke-width:0.5;" x="338.564358857" xlink:href="#m741efc42ff" y="43.2"/>
      </g>
     </g>
     <g id="text_5">
      <!-- Oct 25 2015 -->
      <g transform="translate(273.977072121 394.065590385)rotate(-30.0)scale(0.12 -0.12)">
       <use xlink:href="#BitstreamVeraSans-Roman-4f"/>
       <use x="78.7109375" xlink:href="#BitstreamVeraSans-Roman-63"/>
       <use x="133.69140625" xlink:href="#BitstreamVeraSans-Roman-74"/>
       <use x="172.900390625" xlink:href="#BitstreamVeraSans-Roman-20"/>
       <use x="204.6875" xlink:href="#BitstreamVeraSans-Roman-32"/>
       <use x="268.310546875" xlink:href="#BitstreamVeraSans-Roman-35"/>
       <use x="331.93359375" xlink:href="#BitstreamVeraSans-Roman-20"/>
       <use x="363.720703125" xlink:href="#BitstreamVeraSans-Roman-32"/>
       <use x="427.34375" xlink:href="#BitstreamVeraSans-Roman-30"/>
       <use x="490.966796875" xlink:href="#BitstreamVeraSans-Roman-31"/>
       <use x="554.58984375" xlink:href="#BitstreamVeraSans-Roman-35"/>
      </g>
     </g>
    </g>
    <g id="xtick_6">
     <g id="line2d_13">
      <g>
       <use style="stroke:#000000;stroke-width:0.5;" x="393.662873141" xlink:href="#m93b0483c22" y="345.6"/>
      </g>
     </g>
     <g id="line2d_14">
      <g>
       <use style="stroke:#000000;stroke-width:0.5;" x="393.662873141" xlink:href="#m741efc42ff" y="43.2"/>
      </g>
     </g>
     <g id="text_6">
      <!-- Oct 28 2015 -->
      <defs>
       <path d="
M31.7812 34.625
Q24.75 34.625 20.7188 30.8594
Q16.7031 27.0938 16.7031 20.5156
Q16.7031 13.9219 20.7188 10.1562
Q24.75 6.39062 31.7812 6.39062
Q38.8125 6.39062 42.8594 10.1719
Q46.9219 13.9688 46.9219 20.5156
Q46.9219 27.0938 42.8906 30.8594
Q38.875 34.625 31.7812 34.625
M21.9219 38.8125
Q15.5781 40.375 12.0312 44.7188
Q8.5 49.0781 8.5 55.3281
Q8.5 64.0625 14.7188 69.1406
Q20.9531 74.2188 31.7812 74.2188
Q42.6719 74.2188 48.875 69.1406
Q55.0781 64.0625 55.0781 55.3281
Q55.0781 49.0781 51.5312 44.7188
Q48 40.375 41.7031 38.8125
Q48.8281 37.1562 52.7969 32.3125
Q56.7812 27.4844 56.7812 20.5156
Q56.7812 9.90625 50.3125 4.23438
Q43.8438 -1.42188 31.7812 -1.42188
Q19.7344 -1.42188 13.25 4.23438
Q6.78125 9.90625 6.78125 20.5156
Q6.78125 27.4844 10.7812 32.3125
Q14.7969 37.1562 21.9219 38.8125
M18.3125 54.3906
Q18.3125 48.7344 21.8438 45.5625
Q25.3906 42.3906 31.7812 42.3906
Q38.1406 42.3906 41.7188 45.5625
Q45.3125 48.7344 45.3125 54.3906
Q45.3125 60.0625 41.7188 63.2344
Q38.1406 66.4062 31.7812 66.4062
Q25.3906 66.4062 21.8438 63.2344
Q18.3125 60.0625 18.3125 54.3906" id="BitstreamVeraSans-Roman-38"/>
      </defs>
      <g transform="translate(329.075586406 394.065590385)rotate(-30.0)scale(0.12 -0.12)">
       <use xlink:href="#BitstreamVeraSans-Roman-4f"/>
       <use x="78.7109375" xlink:href="#BitstreamVeraSans-Roman-63"/>
       <use x="133.69140625" xlink:href="#BitstreamVeraSans-Roman-74"/>
       <use x="172.900390625" xlink:href="#BitstreamVeraSans-Roman-20"/>
       <use x="204.6875" xlink:href="#BitstreamVeraSans-Roman-32"/>
       <use x="268.310546875" xlink:href="#BitstreamVeraSans-Roman-38"/>
       <use x="331.93359375" xlink:href="#BitstreamVeraSans-Roman-20"/>
       <use x="363.720703125" xlink:href="#BitstreamVeraSans-Roman-32"/>
       <use x="427.34375" xlink:href="#BitstreamVeraSans-Roman-30"/>
       <use x="490.966796875" xlink:href="#BitstreamVeraSans-Roman-31"/>
       <use x="554.58984375" xlink:href="#BitstreamVeraSans-Roman-35"/>
      </g>
     </g>
    </g>
    <g id="xtick_7">
     <g id="line2d_15">
      <g>
       <use style="stroke:#000000;stroke-width:0.5;" x="448.761387428" xlink:href="#m93b0483c22" y="345.6"/>
      </g>
     </g>
     <g id="line2d_16">
      <g>
       <use style="stroke:#000000;stroke-width:0.5;" x="448.761387428" xlink:href="#m741efc42ff" y="43.2"/>
      </g>
     </g>
     <g id="text_7">
      <!-- Oct 31 2015 -->
      <g transform="translate(384.174100693 394.065590385)rotate(-30.0)scale(0.12 -0.12)">
       <use xlink:href="#BitstreamVeraSans-Roman-4f"/>
       <use x="78.7109375" xlink:href="#BitstreamVeraSans-Roman-63"/>
       <use x="133.69140625" xlink:href="#BitstreamVeraSans-Roman-74"/>
       <use x="172.900390625" xlink:href="#BitstreamVeraSans-Roman-20"/>
       <use x="204.6875" xlink:href="#BitstreamVeraSans-Roman-33"/>
       <use x="268.310546875" xlink:href="#BitstreamVeraSans-Roman-31"/>
       <use x="331.93359375" xlink:href="#BitstreamVeraSans-Roman-20"/>
       <use x="363.720703125" xlink:href="#BitstreamVeraSans-Roman-32"/>
       <use x="427.34375" xlink:href="#BitstreamVeraSans-Roman-30"/>
       <use x="490.966796875" xlink:href="#BitstreamVeraSans-Roman-31"/>
       <use x="554.58984375" xlink:href="#BitstreamVeraSans-Roman-35"/>
      </g>
     </g>
    </g>
    <g id="xtick_8">
     <g id="line2d_17">
      <g>
       <use style="stroke:#000000;stroke-width:0.5;" x="503.859901713" xlink:href="#m93b0483c22" y="345.6"/>
      </g>
     </g>
     <g id="line2d_18">
      <g>
       <use style="stroke:#000000;stroke-width:0.5;" x="503.859901713" xlink:href="#m741efc42ff" y="43.2"/>
      </g>
     </g>
     <g id="text_8">
      <!-- Nov 03 2015 -->
      <defs>
       <path d="
M2.98438 54.6875
L12.5 54.6875
L29.5938 8.79688
L46.6875 54.6875
L56.2031 54.6875
L35.6875 0
L23.4844 0
z
" id="BitstreamVeraSans-Roman-76"/>
       <path d="
M9.8125 72.9062
L23.0938 72.9062
L55.4219 11.9219
L55.4219 72.9062
L64.9844 72.9062
L64.9844 0
L51.7031 0
L19.3906 60.9844
L19.3906 0
L9.8125 0
z
" id="BitstreamVeraSans-Roman-4e"/>
       <path d="
M30.6094 48.3906
Q23.3906 48.3906 19.1875 42.75
Q14.9844 37.1094 14.9844 27.2969
Q14.9844 17.4844 19.1562 11.8438
Q23.3438 6.20312 30.6094 6.20312
Q37.7969 6.20312 41.9844 11.8594
Q46.1875 17.5312 46.1875 27.2969
Q46.1875 37.0156 41.9844 42.7031
Q37.7969 48.3906 30.6094 48.3906
M30.6094 56
Q42.3281 56 49.0156 48.375
Q55.7188 40.7656 55.7188 27.2969
Q55.7188 13.875 49.0156 6.21875
Q42.3281 -1.42188 30.6094 -1.42188
Q18.8438 -1.42188 12.1719 6.21875
Q5.51562 13.875 5.51562 27.2969
Q5.51562 40.7656 12.1719 48.375
Q18.8438 56 30.6094 56" id="BitstreamVeraSans-Roman-6f"/>
      </defs>
      <g transform="translate(436.957079555 395.402465385)rotate(-30.0)scale(0.12 -0.12)">
       <use xlink:href="#BitstreamVeraSans-Roman-4e"/>
       <use x="74.8046875" xlink:href="#BitstreamVeraSans-Roman-6f"/>
       <use x="135.986328125" xlink:href="#BitstreamVeraSans-Roman-76"/>
       <use x="195.166015625" xlink:href="#BitstreamVeraSans-Roman-20"/>
       <use x="226.953125" xlink:href="#BitstreamVeraSans-Roman-30"/>
       <use x="290.576171875" xlink:href="#BitstreamVeraSans-Roman-33"/>
       <use x="354.19921875" xlink:href="#BitstreamVeraSans-Roman-20"/>
       <use x="385.986328125" xlink:href="#BitstreamVeraSans-Roman-32"/>
       <use x="449.609375" xlink:href="#BitstreamVeraSans-Roman-30"/>
       <use x="513.232421875" xlink:href="#BitstreamVeraSans-Roman-31"/>
       <use x="576.85546875" xlink:href="#BitstreamVeraSans-Roman-35"/>
      </g>
     </g>
    </g>
   </g>
   <g id="matplotlib.axis_2">
    <g id="ytick_1">
     <g id="line2d_19">
      <defs>
       <path d="
M0 0
L4 0" id="m728421d6d4" style="stroke:#000000;stroke-width:0.5;"/>
      </defs>
      <g>
       <use style="stroke:#000000;stroke-width:0.5;" x="72.0" xlink:href="#m728421d6d4" y="312.828953915"/>
      </g>
     </g>
     <g id="line2d_20">
      <defs>
       <path d="
M0 0
L-4 0" id="mcb0005524f" style="stroke:#000000;stroke-width:0.5;"/>
      </defs>
      <g>
       <use style="stroke:#000000;stroke-width:0.5;" x="518.4" xlink:href="#mcb0005524f" y="312.828953915"/>
      </g>
     </g>
     <g id="text_9">
      <!-- 600 -->
      <g transform="translate(46.73 316.140203915)scale(0.12 -0.12)">
       <use xlink:href="#BitstreamVeraSans-Roman-36"/>
       <use x="63.623046875" xlink:href="#BitstreamVeraSans-Roman-30"/>
       <use x="127.24609375" xlink:href="#BitstreamVeraSans-Roman-30"/>
      </g>
     </g>
    </g>
    <g id="ytick_2">
     <g id="line2d_21">
      <g>
       <use style="stroke:#000000;stroke-width:0.5;" x="72.0" xlink:href="#m728421d6d4" y="277.003814714"/>
      </g>
     </g>
     <g id="line2d_22">
      <g>
       <use style="stroke:#000000;stroke-width:0.5;" x="518.4" xlink:href="#mcb0005524f" y="277.003814714"/>
      </g>
     </g>
     <g id="text_10">
      <!-- 800 -->
      <g transform="translate(46.705625 280.315064714)scale(0.12 -0.12)">
       <use xlink:href="#BitstreamVeraSans-Roman-38"/>
       <use x="63.623046875" xlink:href="#BitstreamVeraSans-Roman-30"/>
       <use x="127.24609375" xlink:href="#BitstreamVeraSans-Roman-30"/>
      </g>
     </g>
    </g>
    <g id="ytick_3">
     <g id="line2d_23">
      <g>
       <use style="stroke:#000000;stroke-width:0.5;" x="72.0" xlink:href="#m728421d6d4" y="241.178675512"/>
      </g>
     </g>
     <g id="line2d_24">
      <g>
       <use style="stroke:#000000;stroke-width:0.5;" x="518.4" xlink:href="#mcb0005524f" y="241.178675512"/>
      </g>
     </g>
     <g id="text_11">
      <!-- 1000 -->
      <g transform="translate(39.575 244.489925512)scale(0.12 -0.12)">
       <use xlink:href="#BitstreamVeraSans-Roman-31"/>
       <use x="63.623046875" xlink:href="#BitstreamVeraSans-Roman-30"/>
       <use x="127.24609375" xlink:href="#BitstreamVeraSans-Roman-30"/>
       <use x="190.869140625" xlink:href="#BitstreamVeraSans-Roman-30"/>
      </g>
     </g>
    </g>
    <g id="ytick_4">
     <g id="line2d_25">
      <g>
       <use style="stroke:#000000;stroke-width:0.5;" x="72.0" xlink:href="#m728421d6d4" y="205.353536311"/>
      </g>
     </g>
     <g id="line2d_26">
      <g>
       <use style="stroke:#000000;stroke-width:0.5;" x="518.4" xlink:href="#mcb0005524f" y="205.353536311"/>
      </g>
     </g>
     <g id="text_12">
      <!-- 1200 -->
      <g transform="translate(39.575 208.664786311)scale(0.12 -0.12)">
       <use xlink:href="#BitstreamVeraSans-Roman-31"/>
       <use x="63.623046875" xlink:href="#BitstreamVeraSans-Roman-32"/>
       <use x="127.24609375" xlink:href="#BitstreamVeraSans-Roman-30"/>
       <use x="190.869140625" xlink:href="#BitstreamVeraSans-Roman-30"/>
      </g>
     </g>
    </g>
    <g id="ytick_5">
     <g id="line2d_27">
      <g>
       <use style="stroke:#000000;stroke-width:0.5;" x="72.0" xlink:href="#m728421d6d4" y="169.528397109"/>
      </g>
     </g>
     <g id="line2d_28">
      <g>
       <use style="stroke:#000000;stroke-width:0.5;" x="518.4" xlink:href="#mcb0005524f" y="169.528397109"/>
      </g>
     </g>
     <g id="text_13">
      <!-- 1400 -->
      <defs>
       <path d="
M37.7969 64.3125
L12.8906 25.3906
L37.7969 25.3906
z

M35.2031 72.9062
L47.6094 72.9062
L47.6094 25.3906
L58.0156 25.3906
L58.0156 17.1875
L47.6094 17.1875
L47.6094 0
L37.7969 0
L37.7969 17.1875
L4.89062 17.1875
L4.89062 26.7031
z
" id="BitstreamVeraSans-Roman-34"/>
      </defs>
      <g transform="translate(39.575 172.839647109)scale(0.12 -0.12)">
       <use xlink:href="#BitstreamVeraSans-Roman-31"/>
       <use x="63.623046875" xlink:href="#BitstreamVeraSans-Roman-34"/>
       <use x="127.24609375" xlink:href="#BitstreamVeraSans-Roman-30"/>
       <use x="190.869140625" xlink:href="#BitstreamVeraSans-Roman-30"/>
      </g>
     </g>
    </g>
    <g id="ytick_6">
     <g id="line2d_29">
      <g>
       <use style="stroke:#000000;stroke-width:0.5;" x="72.0" xlink:href="#m728421d6d4" y="133.703257908"/>
      </g>
     </g>
     <g id="line2d_30">
      <g>
       <use style="stroke:#000000;stroke-width:0.5;" x="518.4" xlink:href="#mcb0005524f" y="133.703257908"/>
      </g>
     </g>
     <g id="text_14">
      <!-- 1600 -->
      <g transform="translate(39.575 137.014507908)scale(0.12 -0.12)">
       <use xlink:href="#BitstreamVeraSans-Roman-31"/>
       <use x="63.623046875" xlink:href="#BitstreamVeraSans-Roman-36"/>
       <use x="127.24609375" xlink:href="#BitstreamVeraSans-Roman-30"/>
       <use x="190.869140625" xlink:href="#BitstreamVeraSans-Roman-30"/>
      </g>
     </g>
    </g>
    <g id="ytick_7">
     <g id="line2d_31">
      <g>
       <use style="stroke:#000000;stroke-width:0.5;" x="72.0" xlink:href="#m728421d6d4" y="97.8781187063"/>
      </g>
     </g>
     <g id="line2d_32">
      <g>
       <use style="stroke:#000000;stroke-width:0.5;" x="518.4" xlink:href="#mcb0005524f" y="97.8781187063"/>
      </g>
     </g>
     <g id="text_15">
      <!-- 1800 -->
      <g transform="translate(39.575 101.189368706)scale(0.12 -0.12)">
       <use xlink:href="#BitstreamVeraSans-Roman-31"/>
       <use x="63.623046875" xlink:href="#BitstreamVeraSans-Roman-38"/>
       <use x="127.24609375" xlink:href="#BitstreamVeraSans-Roman-30"/>
       <use x="190.869140625" xlink:href="#BitstreamVeraSans-Roman-30"/>
      </g>
     </g>
    </g>
    <g id="ytick_8">
     <g id="line2d_33">
      <g>
       <use style="stroke:#000000;stroke-width:0.5;" x="72.0" xlink:href="#m728421d6d4" y="62.0529795048"/>
      </g>
     </g>
     <g id="line2d_34">
      <g>
       <use style="stroke:#000000;stroke-width:0.5;" x="518.4" xlink:href="#mcb0005524f" y="62.0529795048"/>
      </g>
     </g>
     <g id="text_16">
      <!-- 2000 -->
      <g transform="translate(39.13625 65.3642295048)scale(0.12 -0.12)">
       <use xlink:href="#BitstreamVeraSans-Roman-32"/>
       <use x="63.623046875" xlink:href="#BitstreamVeraSans-Roman-30"/>
       <use x="127.24609375" xlink:href="#BitstreamVeraSans-Roman-30"/>
       <use x="190.869140625" xlink:href="#BitstreamVeraSans-Roman-30"/>
      </g>
     </g>
    </g>
   </g>
   <g id="text_17">
    <!-- Silber -->
    <defs>
     <path d="
M9.42188 75.9844
L18.4062 75.9844
L18.4062 0
L9.42188 0
z
" id="BitstreamVeraSans-Roman-6c"/>
     <path d="
M53.5156 70.5156
L53.5156 60.8906
Q47.9062 63.5781 42.9219 64.8906
Q37.9375 66.2188 33.2969 66.2188
Q25.25 66.2188 20.875 63.0938
Q16.5 59.9688 16.5 54.2031
Q16.5 49.3594 19.4062 46.8906
Q22.3125 44.4375 30.4219 42.9219
L36.375 41.7031
Q47.4062 39.5938 52.6562 34.2969
Q57.9062 29 57.9062 20.125
Q57.9062 9.51562 50.7969 4.04688
Q43.7031 -1.42188 29.9844 -1.42188
Q24.8125 -1.42188 18.9688 -0.25
Q13.1406 0.921875 6.89062 3.21875
L6.89062 13.375
Q12.8906 10.0156 18.6562 8.29688
Q24.4219 6.59375 29.9844 6.59375
Q38.4219 6.59375 43.0156 9.90625
Q47.6094 13.2344 47.6094 19.3906
Q47.6094 24.75 44.3125 27.7812
Q41.0156 30.8125 33.5 32.3281
L27.4844 33.5
Q16.4531 35.6875 11.5156 40.375
Q6.59375 45.0625 6.59375 53.4219
Q6.59375 63.0938 13.4062 68.6562
Q20.2188 74.2188 32.1719 74.2188
Q37.3125 74.2188 42.625 73.2812
Q47.9531 72.3594 53.5156 70.5156" id="BitstreamVeraSans-Roman-53"/>
     <path d="
M9.42188 54.6875
L18.4062 54.6875
L18.4062 0
L9.42188 0
z

M9.42188 75.9844
L18.4062 75.9844
L18.4062 64.5938
L9.42188 64.5938
z
" id="BitstreamVeraSans-Roman-69"/>
     <path d="
M56.2031 29.5938
L56.2031 25.2031
L14.8906 25.2031
Q15.4844 15.9219 20.4844 11.0625
Q25.4844 6.20312 34.4219 6.20312
Q39.5938 6.20312 44.4531 7.46875
Q49.3125 8.73438 54.1094 11.2812
L54.1094 2.78125
Q49.2656 0.734375 44.1875 -0.34375
Q39.1094 -1.42188 33.8906 -1.42188
Q20.7969 -1.42188 13.1562 6.1875
Q5.51562 13.8125 5.51562 26.8125
Q5.51562 40.2344 12.7656 48.1094
Q20.0156 56 32.3281 56
Q43.3594 56 49.7812 48.8906
Q56.2031 41.7969 56.2031 29.5938
M47.2188 32.2344
Q47.125 39.5938 43.0938 43.9844
Q39.0625 48.3906 32.4219 48.3906
Q24.9062 48.3906 20.3906 44.1406
Q15.875 39.8906 15.1875 32.1719
z
" id="BitstreamVeraSans-Roman-65"/>
     <path d="
M41.1094 46.2969
Q39.5938 47.1719 37.8125 47.5781
Q36.0312 48 33.8906 48
Q26.2656 48 22.1875 43.0469
Q18.1094 38.0938 18.1094 28.8125
L18.1094 0
L9.07812 0
L9.07812 54.6875
L18.1094 54.6875
L18.1094 46.1875
Q20.9531 51.1719 25.4844 53.5781
Q30.0312 56 36.5312 56
Q37.4531 56 38.5781 55.875
Q39.7031 55.7656 41.0625 55.5156
z
" id="BitstreamVeraSans-Roman-72"/>
     <path d="
M48.6875 27.2969
Q48.6875 37.2031 44.6094 42.8438
Q40.5312 48.4844 33.4062 48.4844
Q26.2656 48.4844 22.1875 42.8438
Q18.1094 37.2031 18.1094 27.2969
Q18.1094 17.3906 22.1875 11.75
Q26.2656 6.10938 33.4062 6.10938
Q40.5312 6.10938 44.6094 11.75
Q48.6875 17.3906 48.6875 27.2969
M18.1094 46.3906
Q20.9531 51.2656 25.2656 53.625
Q29.5938 56 35.5938 56
Q45.5625 56 51.7812 48.0938
Q58.0156 40.1875 58.0156 27.2969
Q58.0156 14.4062 51.7812 6.48438
Q45.5625 -1.42188 35.5938 -1.42188
Q29.5938 -1.42188 25.2656 0.953125
Q20.9531 3.32812 18.1094 8.20312
L18.1094 0
L9.07812 0
L9.07812 75.9844
L18.1094 75.9844
z
" id="BitstreamVeraSans-Roman-62"/>
    </defs>
    <g transform="translate(478.28475 38.2)scale(0.144 -0.144)">
     <use xlink:href="#BitstreamVeraSans-Roman-53"/>
     <use x="63.4765625" xlink:href="#BitstreamVeraSans-Roman-69"/>
     <use x="91.259765625" xlink:href="#BitstreamVeraSans-Roman-6c"/>
     <use x="119.04296875" xlink:href="#BitstreamVeraSans-Roman-62"/>
     <use x="182.51953125" xlink:href="#BitstreamVeraSans-Roman-65"/>
     <use x="244.04296875" xlink:href="#BitstreamVeraSans-Roman-72"/>
    </g>
   </g>
   <g id="legend_1">
    <g id="patch_7">
     <path d="
M123.942 423.616
L466.458 423.616
L466.458 398.16
L123.942 398.16
z
" style="fill:#ffffff;stroke:#000000;stroke-linejoin:miter;"/>
    </g>
    <g id="line2d_35">
     <path d="
M134.022 409.822
L154.182 409.822" style="fill:none;stroke:#ff0000;stroke-linecap:square;"/>
    </g>
    <g id="line2d_36"/>
    <g id="text_18">
     <!-- Schwarzmarktpreis -->
     <defs>
      <path d="
M52 44.1875
Q55.375 50.25 60.0625 53.125
Q64.75 56 71.0938 56
Q79.6406 56 84.2812 50.0156
Q88.9219 44.0469 88.9219 33.0156
L88.9219 0
L79.8906 0
L79.8906 32.7188
Q79.8906 40.5781 77.0938 44.375
Q74.3125 48.1875 68.6094 48.1875
Q61.625 48.1875 57.5625 43.5469
Q53.5156 38.9219 53.5156 30.9062
L53.5156 0
L44.4844 0
L44.4844 32.7188
Q44.4844 40.625 41.7031 44.4062
Q38.9219 48.1875 33.1094 48.1875
Q26.2188 48.1875 22.1562 43.5312
Q18.1094 38.875 18.1094 30.9062
L18.1094 0
L9.07812 0
L9.07812 54.6875
L18.1094 54.6875
L18.1094 46.1875
Q21.1875 51.2188 25.4844 53.6094
Q29.7812 56 35.6875 56
Q41.6562 56 45.8281 52.9688
Q50 49.9531 52 44.1875" id="BitstreamVeraSans-Roman-6d"/>
      <path d="
M9.07812 75.9844
L18.1094 75.9844
L18.1094 31.1094
L44.9219 54.6875
L56.3906 54.6875
L27.3906 29.1094
L57.625 0
L45.9062 0
L18.1094 26.7031
L18.1094 0
L9.07812 0
z
" id="BitstreamVeraSans-Roman-6b"/>
      <path d="
M54.8906 33.0156
L54.8906 0
L45.9062 0
L45.9062 32.7188
Q45.9062 40.4844 42.875 44.3281
Q39.8438 48.1875 33.7969 48.1875
Q26.5156 48.1875 22.3125 43.5469
Q18.1094 38.9219 18.1094 30.9062
L18.1094 0
L9.07812 0
L9.07812 75.9844
L18.1094 75.9844
L18.1094 46.1875
Q21.3438 51.125 25.7031 53.5625
Q30.0781 56 35.7969 56
Q45.2188 56 50.0469 50.1719
Q54.8906 44.3438 54.8906 33.0156" id="BitstreamVeraSans-Roman-68"/>
      <path d="
M4.20312 54.6875
L13.1875 54.6875
L24.4219 12.0156
L35.5938 54.6875
L46.1875 54.6875
L57.4219 12.0156
L68.6094 54.6875
L77.5938 54.6875
L63.2812 0
L52.6875 0
L40.9219 44.8281
L29.1094 0
L18.5 0
z
" id="BitstreamVeraSans-Roman-77"/>
      <path d="
M5.51562 54.6875
L48.1875 54.6875
L48.1875 46.4844
L14.4062 7.17188
L48.1875 7.17188
L48.1875 0
L4.29688 0
L4.29688 8.20312
L38.0938 47.5156
L5.51562 47.5156
z
" id="BitstreamVeraSans-Roman-7a"/>
      <path d="
M34.2812 27.4844
Q23.3906 27.4844 19.1875 25
Q14.9844 22.5156 14.9844 16.5
Q14.9844 11.7188 18.1406 8.90625
Q21.2969 6.10938 26.7031 6.10938
Q34.1875 6.10938 38.7031 11.4062
Q43.2188 16.7031 43.2188 25.4844
L43.2188 27.4844
z

M52.2031 31.2031
L52.2031 0
L43.2188 0
L43.2188 8.29688
Q40.1406 3.32812 35.5469 0.953125
Q30.9531 -1.42188 24.3125 -1.42188
Q15.9219 -1.42188 10.9531 3.29688
Q6 8.01562 6 15.9219
Q6 25.1406 12.1719 29.8281
Q18.3594 34.5156 30.6094 34.5156
L43.2188 34.5156
L43.2188 35.4062
Q43.2188 41.6094 39.1406 45
Q35.0625 48.3906 27.6875 48.3906
Q23 48.3906 18.5469 47.2656
Q14.1094 46.1406 10.0156 43.8906
L10.0156 52.2031
Q14.9375 54.1094 19.5781 55.0469
Q24.2188 56 28.6094 56
Q40.4844 56 46.3438 49.8438
Q52.2031 43.7031 52.2031 31.2031" id="BitstreamVeraSans-Roman-61"/>
      <path d="
M44.2812 53.0781
L44.2812 44.5781
Q40.4844 46.5312 36.375 47.5
Q32.2812 48.4844 27.875 48.4844
Q21.1875 48.4844 17.8438 46.4375
Q14.5 44.3906 14.5 40.2812
Q14.5 37.1562 16.8906 35.375
Q19.2812 33.5938 26.5156 31.9844
L29.5938 31.2969
Q39.1562 29.25 43.1875 25.5156
Q47.2188 21.7812 47.2188 15.0938
Q47.2188 7.46875 41.1875 3.01562
Q35.1562 -1.42188 24.6094 -1.42188
Q20.2188 -1.42188 15.4531 -0.5625
Q10.6875 0.296875 5.42188 2
L5.42188 11.2812
Q10.4062 8.6875 15.2344 7.39062
Q20.0625 6.10938 24.8125 6.10938
Q31.1562 6.10938 34.5625 8.28125
Q37.9844 10.4531 37.9844 14.4062
Q37.9844 18.0625 35.5156 20.0156
Q33.0625 21.9688 24.7031 23.7812
L21.5781 24.5156
Q13.2344 26.2656 9.51562 29.9062
Q5.8125 33.5469 5.8125 39.8906
Q5.8125 47.6094 11.2812 51.7969
Q16.75 56 26.8125 56
Q31.7812 56 36.1719 55.2656
Q40.5781 54.5469 44.2812 53.0781" id="BitstreamVeraSans-Roman-73"/>
      <path d="
M18.1094 8.20312
L18.1094 -20.7969
L9.07812 -20.7969
L9.07812 54.6875
L18.1094 54.6875
L18.1094 46.3906
Q20.9531 51.2656 25.2656 53.625
Q29.5938 56 35.5938 56
Q45.5625 56 51.7812 48.0938
Q58.0156 40.1875 58.0156 27.2969
Q58.0156 14.4062 51.7812 6.48438
Q45.5625 -1.42188 35.5938 -1.42188
Q29.5938 -1.42188 25.2656 0.953125
Q20.9531 3.32812 18.1094 8.20312
M48.6875 27.2969
Q48.6875 37.2031 44.6094 42.8438
Q40.5312 48.4844 33.4062 48.4844
Q26.2656 48.4844 22.1875 42.8438
Q18.1094 37.2031 18.1094 27.2969
Q18.1094 17.3906 22.1875 11.75
Q26.2656 6.10938 33.4062 6.10938
Q40.5312 6.10938 44.6094 11.75
Q48.6875 17.3906 48.6875 27.2969" id="BitstreamVeraSans-Roman-70"/>
     </defs>
     <g transform="translate(170.022375 414.86175)scale(0.144 -0.144)">
      <use xlink:href="#BitstreamVeraSans-Roman-53"/>
      <use x="63.4765625" xlink:href="#BitstreamVeraSans-Roman-63"/>
      <use x="118.45703125" xlink:href="#BitstreamVeraSans-Roman-68"/>
      <use x="181.8359375" xlink:href="#BitstreamVeraSans-Roman-77"/>
      <use x="263.623046875" xlink:href="#BitstreamVeraSans-Roman-61"/>
      <use x="324.90234375" xlink:href="#BitstreamVeraSans-Roman-72"/>
      <use x="366.015625" xlink:href="#BitstreamVeraSans-Roman-7a"/>
      <use x="418.505859375" xlink:href="#BitstreamVeraSans-Roman-6d"/>
      <use x="515.91796875" xlink:href="#BitstreamVeraSans-Roman-61"/>
      <use x="577.197265625" xlink:href="#BitstreamVeraSans-Roman-72"/>
      <use x="618.310546875" xlink:href="#BitstreamVeraSans-Roman-6b"/>
      <use x="676.220703125" xlink:href="#BitstreamVeraSans-Roman-74"/>
      <use x="715.4296875" xlink:href="#BitstreamVeraSans-Roman-70"/>
      <use x="778.90625" xlink:href="#BitstreamVeraSans-Roman-72"/>
      <use x="817.76953125" xlink:href="#BitstreamVeraSans-Roman-65"/>
      <use x="879.29296875" xlink:href="#BitstreamVeraSans-Roman-69"/>
      <use x="907.076171875" xlink:href="#BitstreamVeraSans-Roman-73"/>
     </g>
    </g>
    <g id="line2d_37">
     <path d="
M339.609 409.822
L359.769 409.822" style="fill:none;stroke:#008000;stroke-linecap:square;"/>
    </g>
    <g id="line2d_38"/>
    <g id="text_19">
     <!-- Normalpreis -->
     <g transform="translate(375.609375 414.86175)scale(0.144 -0.144)">
      <use xlink:href="#BitstreamVeraSans-Roman-4e"/>
      <use x="74.8046875" xlink:href="#BitstreamVeraSans-Roman-6f"/>
      <use x="135.986328125" xlink:href="#BitstreamVeraSans-Roman-72"/>
      <use x="175.349609375" xlink:href="#BitstreamVeraSans-Roman-6d"/>
      <use x="272.76171875" xlink:href="#BitstreamVeraSans-Roman-61"/>
      <use x="334.041015625" xlink:href="#BitstreamVeraSans-Roman-6c"/>
      <use x="361.82421875" xlink:href="#BitstreamVeraSans-Roman-70"/>
      <use x="425.30078125" xlink:href="#BitstreamVeraSans-Roman-72"/>
      <use x="464.1640625" xlink:href="#BitstreamVeraSans-Roman-65"/>
      <use x="525.6875" xlink:href="#BitstreamVeraSans-Roman-69"/>
      <use x="553.470703125" xlink:href="#BitstreamVeraSans-Roman-73"/>
     </g>
    </g>
   </g>
  </g>
 </g>
 <defs>
  <clipPath id="pcb2bf987bf">
   <rect height="302.4" width="446.4" x="72.0" y="43.2"/>
  </clipPath>
 </defs>
</svg>
