<?xml version="1.0" encoding="utf-8" standalone="no"?>
<!DOCTYPE svg PUBLIC "-//W3C//DTD SVG 1.1//EN"
  "http://www.w3.org/Graphics/SVG/1.1/DTD/svg11.dtd">
<!-- Created with matplotlib (http://matplotlib.org/) -->
<svg height="432pt" version="1.1" viewBox="0 0 576 432" width="576pt" xmlns="http://www.w3.org/2000/svg" xmlns:xlink="http://www.w3.org/1999/xlink">
 <defs>
  <style type="text/css">
*{stroke-linecap:butt;stroke-linejoin:round;}
  </style>
 </defs>
 <g id="figure_1">
  <g id="patch_1">
   <path d="
M0 432
L576 432
L576 0
L0 0
z
" style="fill:#ffffff;"/>
  </g>
  <g id="axes_1">
   <g id="patch_2">
    <path d="
M72 345.6
L518.4 345.6
L518.4 43.2
L72 43.2
z
" style="fill:#ffffff;"/>
   </g>
   <g id="line2d_1">
    <path clip-path="url(#pcb2bf987bf)" d="
M72 410.944
L72.2551 410.944
L72.3826 410.944
L72.6377 258.044
L72.7653 410.944
L73.7856 410.944
L73.9131 257.608
L74.1682 410.944
L76.0814 410.944
L76.2089 256.737
L76.464 410.944
L77.2295 410.944
L77.6119 255.866
L77.9947 256.302
L78.1221 410.944
L79.1426 410.944
L79.2699 256.302
L79.525 410.944
L80.4178 410.944
L80.6729 256.737
L80.8005 410.944
L82.9687 410.944
L83.0962 256.955
L83.3513 256.955
L83.4789 410.944
L83.7339 255.213
L83.8615 255.866
L84.1166 410.944
L84.4992 410.944
L84.6267 254.995
L84.882 410.944
L86.5399 410.944
L86.795 257.173
L86.9225 410.944
L88.3255 410.944
L88.453 257.521
L88.7081 410.944
L89.0907 410.944
L89.0907 410.944
L89.2183 256.519
L89.4734 410.944
L91.259 410.944
L92.0242 256.999
L92.1518 410.944
L92.7895 256.302
L92.917 256.302
L93.5547 410.944
L94.32 410.944
L94.4475 256.084
L95.0853 410.944
L98.2738 410.944
L98.9115 257.826
L99.0391 410.944
L100.57 410.944
L101.207 257.391
L101.973 257.913
L102.1 257.173
L102.738 410.944
L103.503 410.944
L103.631 258.044
L104.268 410.944
L105.034 255.43
L105.799 410.944
L106.564 256.737
L107.33 410.944
L109.753 410.944
L110.39 258.175
L110.518 410.944
L114.217 410.944
L115.109 257.173
L116.512 410.944
L116.64 258.697
L117.278 410.944
L118.043 410.944
L118.171 259.09
L118.808 410.944
L121.232 410.944
L121.869 258.915
L122.635 410.944
L126.461 410.944
L126.461 410.944
L126.589 260.658
L127.226 259.787
L127.354 410.944
L127.354 410.944
L128.884 410.944
L129.522 258.48
L130.287 410.944
L134.369 410.944
L134.879 258.044
L135.644 258.915
L136.409 410.944
L139.598 410.944
L140.235 257.391
L141.001 410.944
L162.428 410.944
L163.193 259.351
L163.321 259.133
L163.958 410.944
L164.086 410.944
L164.724 260.004
L164.851 410.944
L165.489 410.944
L166.254 260.222
L167.019 410.944
L167.912 410.944
L168.55 259.787
L169.315 410.944
L186.916 410.944
L187.681 260.353
L188.447 259.569
L189.212 410.944
L193.038 410.944
L193.803 258.915
L194.569 410.944
L199.16 410.944
L200.691 259.351
L201.456 410.944
L206.813 410.944
L206.813 410.944
L206.94 260.876
L207.578 410.944
L208.088 258.48
L208.343 410.944
L212.297 410.944
L212.425 149.577
L212.68 410.944
L214.72 410.944
L214.976 259.133
L215.103 410.944
L215.486 410.944
L215.741 260.396
L215.868 410.944
L216.761 410.944
L216.761 410.944
L217.016 260.44
L217.271 259.133
L217.399 410.944
L217.781 410.944
L218.037 260.658
L218.164 410.944
L219.312 410.944
L219.567 261.093
L219.95 410.944
L225.434 410.944
L225.689 259.569
L225.817 410.944
L225.817 410.944
L226.199 410.944
L226.199 410.944
L226.327 259.046
L226.327 259.046
L226.455 410.944
L226.582 410.944
L226.582 410.944
L226.837 259.351
L226.965 410.944
L227.22 258.697
L227.347 410.944
L228.878 410.944
L229.133 258.915
L229.26 410.944
L229.515 259.569
L229.643 410.944
L236.403 410.944
L236.53 259.133
L236.785 259.133
L236.913 410.944
L237.678 410.944
L237.933 260.44
L238.061 260.091
L238.316 410.944
L238.443 410.944
L238.699 260.44
L238.826 410.944
L239.464 410.944
L239.591 260.658
L239.846 410.944
L239.974 260.876
L240.229 410.944
L240.612 410.944
L240.612 410.944
L240.739 260.876
L240.994 410.944
L241.122 410.944
L241.377 261.529
L241.504 410.944
L243.418 410.944
L243.673 260.658
L243.8 410.944
L245.203 410.944
L245.203 410.944
L245.331 261.311
L245.586 260.004
L245.713 262.836
L245.968 263.489
L246.096 410.944
L248.009 410.944
L248.392 264.36
L248.647 410.944
L250.56 410.944
L250.688 263.925
L250.943 410.944
L251.07 263.925
L251.325 263.925
L251.453 410.944
L253.749 410.944
L254.004 259.569
L254.131 410.944
L255.152 410.944
L255.279 263.489
L255.279 263.489
L255.534 410.944
L255.662 263.489
L255.662 263.489
L255.917 410.944
L255.917 410.944
L256.81 410.944
L256.81 410.944
L257.065 264.578
L257.192 264.578
L257.447 410.944
L257.575 410.944
L257.83 264.578
L257.957 410.944
L263.314 410.944
L263.569 263.925
L263.569 263.925
L263.697 410.944
L264.08 410.944
L264.335 264.709
L264.335 264.709
L264.462 410.944
L272.88 410.944
L273.135 263.925
L273.263 410.944
L273.518 410.944
L273.518 410.944
L273.645 263.707
L273.9 410.944
L274.666 410.944
L274.793 263.925
L275.048 410.944
L275.048 410.944
L275.813 410.944
L275.941 263.489
L276.196 410.944
L276.324 262.836
L276.579 410.944
L280.533 410.944
L280.788 263.489
L280.915 410.944
L283.083 410.944
L283.211 262.618
L283.466 262.662
L283.594 410.944
L283.849 410.944
L283.976 261.093
L284.231 261.093
L284.359 410.944
L285.507 410.944
L285.762 262.4
L286.272 262.444
L286.527 410.944
L288.185 410.944
L288.44 261.747
L288.568 410.944
L290.864 410.944
L290.991 261.965
L291.119 410.944
L291.629 410.944
L291.884 261.965
L292.267 410.944
L293.032 410.944
L293.159 262.4
L293.414 410.944
L293.414 410.944
L293.925 410.944
L294.18 262.618
L294.18 262.618
L294.307 410.944
L294.562 261.311
L294.69 410.944
L295.072 410.944
L295.328 261.529
L295.455 410.944
L299.919 410.944
L300.047 260.44
L300.302 410.944
L300.302 410.944
L304.256 410.944
L304.511 261.747
L304.893 410.944
L305.021 410.944
L305.276 261.529
L305.403 410.944
L311.143 410.944
L311.398 261.093
L311.525 260.44
L311.781 410.944
L311.908 410.944
L312.163 262.008
L312.291 410.944
L315.607 410.944
L315.734 262.139
L315.989 410.944
L316.372 410.944
L316.5 256.955
L316.882 410.944
L317.265 410.944
L317.52 260.222
L317.648 410.944
L321.474 410.944
L321.729 261.529
L322.112 410.944
L324.025 410.944
L324.025 410.944
L324.152 262.618
L324.407 410.944
L324.535 263.315
L324.79 262.618
L324.917 410.944
L325.683 410.944
L325.938 261.965
L326.32 261.965
L326.448 410.944
L327.468 410.944
L327.596 262.618
L327.851 410.944
L328.999 410.944
L329.126 263.054
L329.381 410.944
L332.57 410.944
L332.825 263.576
L332.953 410.944
L334.738 410.944
L334.866 261.529
L335.121 410.944
L335.248 410.944
L335.504 262.618
L335.631 410.944
L337.162 410.944
L337.417 262.618
L337.544 410.944
L348.258 410.944
L348.513 262.4
L348.64 410.944
L352.849 410.944
L353.104 261.747
L353.232 410.944
L355.783 410.944
L355.91 262.531
L356.165 261.747
L356.165 261.747
L356.293 410.944
L356.676 262.182
L356.931 262.836
L357.058 410.944
L357.313 262.836
L357.568 410.944
L360.374 410.944
L360.502 261.965
L360.757 410.944
L363.053 410.944
L363.18 263.968
L363.435 410.944
L363.563 410.944
L363.818 263.271
L363.946 410.944
L364.201 263.62
L364.328 262.836
L364.583 410.944
L365.349 410.944
L365.476 263.925
L365.731 410.944
L365.859 263.925
L366.114 264.578
L366.114 264.578
L366.242 410.944
L371.598 410.944
L371.853 263.271
L371.981 410.944
L379.506 410.944
L379.633 265.798
L379.888 410.944
L380.781 410.944
L381.036 265.885
L381.164 410.944
L383.715 410.944
L384.097 264.796
L384.225 410.944
L385.373 410.944
L385.628 264.578
L385.755 410.944
L386.903 410.944
L387.158 264.36
L387.286 410.944
L388.434 410.944
L388.689 337.979
L388.816 337.108
L389.072 338.415
L389.199 410.944
L389.454 338.415
L389.582 338.415
L389.964 338.763
L391.75 338.763
L391.878 263.271
L392.133 338.763
L393.025 338.763
L393.28 255.648
L393.408 338.763
L393.663 338.763
L393.791 264.578
L394.046 338.763
L394.939 338.763
L395.194 263.707
L395.321 338.763
L395.576 263.271
L395.704 338.763
L395.959 262.618
L396.086 261.965
L396.341 262.618
L396.469 261.965
L396.724 261.311
L396.852 338.763
L397.234 338.763
L397.489 261.965
L397.617 263.751
L397.872 338.763
L399.403 338.763
L399.53 265.188
L399.785 338.763
L401.826 338.763
L402.081 266.016
L402.208 338.763
L402.974 338.763
L403.229 265.232
L403.356 338.763
L403.611 265.885
L403.739 338.763
L405.142 338.763
L405.269 265.232
L405.525 338.763
L405.652 338.763
L405.907 265.232
L406.035 265.929
L406.29 338.763
L406.417 265.406
L406.672 264.578
L406.8 338.763
L407.055 410.944
L407.565 410.944
L407.82 265.885
L407.948 410.944
L410.881 410.944
L411.009 265.754
L411.264 410.944
L411.392 410.944
L411.647 265.014
L411.774 410.944
L412.539 410.944
L412.667 265.972
L413.05 410.944
L415.6 410.944
L415.856 265.014
L415.983 264.36
L416.238 410.944
L417.769 410.944
L417.896 264.796
L418.151 410.944
L420.957 410.944
L421.212 265.885
L421.34 265.885
L421.595 410.944
L423.891 410.944
L424.018 265.885
L424.273 265.885
L424.401 265.014
L424.656 410.944
L424.784 265.014
L425.039 410.944
L425.166 265.885
L425.421 410.944
L426.952 410.944
L427.334 266.539
L427.462 410.944
L427.717 410.944
L427.845 266.103
L428.1 410.944
L428.227 266.103
L428.482 410.944
L429.758 410.944
L430.013 265.885
L430.14 410.944
L430.778 410.944
L430.906 266.321
L431.033 410.944
L434.604 410.944
L434.732 266.539
L434.987 410.944
L435.115 410.944
L435.37 266.321
L435.497 410.944
L437.283 410.944
L437.41 266.321
L437.665 410.944
L440.344 410.944
L440.344 410.944
L440.471 266.495
L440.726 410.944
L442.64 410.944
L442.767 265.885
L443.022 410.944
L443.15 266.582
L443.405 410.944
L443.915 410.944
L444.17 266.103
L444.298 410.944
L445.063 410.944
L445.318 264.578
L445.445 410.944
L446.593 410.944
L446.848 266.887
L446.976 410.944
L447.231 266.103
L447.359 266.103
L447.614 410.944
L447.741 266.059
L447.996 410.944
L450.675 410.944
L450.802 264.36
L451.057 265.014
L451.185 410.944
L455.776 410.944
L456.032 265.885
L456.159 410.944
L456.924 410.944
L457.179 265.885
L457.307 264.578
L457.562 266.103
L457.69 410.944
L458.072 410.944
L458.327 266.103
L458.455 410.944
L458.71 410.944
L458.837 265.885
L459.093 265.885
L459.22 410.944
L459.475 265.232
L459.603 264.578
L459.858 266.321
L459.985 264.36
L460.24 264.36
L460.368 410.944
L461.388 410.944
L461.516 60.7116
L461.771 410.944
L461.899 410.944
L462.154 265.885
L462.281 410.944
L462.536 265.232
L462.664 410.944
L463.301 410.944
L463.429 265.449
L463.684 410.944
L466.363 410.944
L466.49 265.014
L466.745 410.944
L468.658 410.944
L468.786 265.885
L469.041 265.232
L469.168 410.944
L469.424 265.232
L469.551 410.944
L470.316 410.944
L470.571 265.885
L470.699 410.944
L472.995 410.944
L473.25 265.885
L473.377 410.944
L477.204 410.944
L477.459 265.406
L477.586 265.885
L477.841 410.944
L478.224 410.944
L478.352 266.756
L478.607 266.756
L478.734 410.944
L478.989 265.667
L479.117 410.944
L479.755 410.944
L479.882 267.018
L480.137 410.944
L480.647 410.944
L480.902 264.796
L481.03 410.944
L482.56 410.944
L482.816 265.232
L482.943 410.944
L485.239 410.944
L485.494 265.885
L485.877 410.944
L486.004 265.014
L486.259 410.944
L486.259 410.944
L486.387 410.944
L486.642 266.539
L486.769 410.944
L487.79 410.944
L487.917 267.453
L488.172 410.944
L488.3 266.756
L488.555 410.944
L488.683 410.944
L488.938 266.756
L489.065 266.756
L489.32 410.944
L490.596 410.944
L490.851 266.756
L490.978 410.944
L491.999 410.944
L492.126 267.192
L492.381 410.944
L493.657 410.944
L493.912 266.974
L494.04 267.758
L494.294 410.944
L498.631 410.944
L498.886 266.539
L499.013 410.944
L501.564 410.944
L501.692 265.449
L501.947 265.885
L502.075 410.944
L502.33 265.449
L502.457 410.944
L507.686 410.944
L507.814 266.756
L508.069 267.54
L508.197 410.944
L508.834 410.944
L509.217 267.192
L509.344 410.944
L509.6 410.944
L509.727 267.715
L509.982 410.944
L514.319 410.944
L514.574 267.628
L514.701 410.944
L514.956 410.944
L515.084 265.885
L515.339 410.944
L515.467 410.944
L515.722 265.885
L515.849 410.944
L516.104 266.756
L516.232 410.944
L518.4 410.944
L518.4 410.944" style="fill:none;stroke:#ff0000;stroke-linecap:square;"/>
   </g>
   <g id="line2d_2">
    <path clip-path="url(#pcb2bf987bf)" d="
M72 265.754
L72.2551 265.754
L72.3826 265.929
L73.0203 265.929
L73.1479 265.798
L73.7856 265.798
L73.9131 265.667
L74.5509 265.667
L74.6784 265.537
L75.3161 265.537
L75.4437 264.186
L76.0814 264.186
L76.2089 264.753
L76.8466 264.753
L76.9742 263.925
L77.6119 263.925
L78.1221 264.404
L79.1426 264.491
L79.2699 264.796
L81.4384 264.753
L81.5657 265.188
L82.2036 265.188
L82.331 265.057
L82.9687 265.057
L83.0962 264.273
L83.7339 264.273
L83.8615 263.141
L84.4992 263.141
L84.6267 264.927
L85.2647 264.927
L85.392 265.057
L86.0297 265.057
L86.1573 265.275
L86.795 265.275
L86.9225 263.228
L87.5602 263.228
L87.6878 265.537
L88.3255 265.537
L88.453 264.796
L89.0907 264.796
L89.0907 264.796
L89.2183 264.622
L89.856 264.622
L89.9835 264.36
L90.6213 264.36
L91.259 264.535
L92.1518 264.317
L92.917 264.491
L93.5547 264.056
L94.4475 264.273
L95.2128 264.186
L95.9781 264.491
L97.381 265.972
L98.2738 265.798
L99.0391 265.798
L99.6768 265.537
L100.57 265.406
L101.207 265.406
L102.1 265.188
L102.738 263.925
L103.503 266.059
L103.631 266.059
L104.268 265.014
L105.034 265.319
L105.799 265.754
L106.564 264.84
L107.33 265.188
L108.222 266.321
L108.86 266.321
L109.625 264.84
L109.753 264.84
L110.518 265.449
L111.283 265.057
L112.048 265.319
L114.217 265.754
L115.109 265.275
L116.64 266.626
L117.278 265.014
L118.171 266.321
L118.808 264.056
L118.936 264.056
L119.573 264.578
L120.339 265.711
L121.104 267.105
L121.232 267.105
L121.869 266.931
L122.762 267.018
L123.4 266.931
L124.293 267.061
L124.93 266.408
L125.696 267.584
L126.461 267.976
L126.461 267.976
L126.589 267.976
L127.354 267.715
L127.354 267.715
L127.991 268.194
L128.884 268.063
L129.522 267.54
L131.052 267.671
L131.818 268.194
L134.113 267.192
L134.369 266.059
L135.644 266.146
L136.537 266.843
L137.94 266.451
L139.598 266.277
L140.235 267.41
L141.001 266.103
L141.766 267.845
L141.893 267.845
L142.531 268.673
L143.296 268.76
L144.189 268.368
L144.827 268.804
L145.72 268.368
L146.485 268.629
L147.25 268.586
L147.888 267.453
L148.653 267.758
L149.546 267.715
L150.184 267.54
L151.077 266.843
L151.714 267.061
L152.48 266.8
L153.372 266.8
L154.01 265.842
L154.775 265.58
L155.541 265.972
L155.541 265.972
L156.306 266.19
L157.071 266.059
L157.964 266.059
L158.602 266.887
L159.367 266.669
L160.132 267.192
L161.025 266.8
L162.428 267.54
L163.321 267.148
L164.086 267.845
L164.851 268.063
L165.489 267.584
L166.254 268.107
L167.019 267.671
L167.912 267.889
L168.55 267.715
L169.443 267.061
L170.08 267.845
L170.973 267.366
L171.611 267.758
L172.376 267.715
L173.269 266.931
L173.907 266.539
L174.8 266.582
L177.095 266.408
L177.733 266.19
L178.498 266.626
L179.264 266.887
L180.029 264.927
L180.156 264.927
L180.794 266.408
L180.922 266.408
L181.559 266.19
L182.452 266.146
L183.09 266.451
L183.983 266.582
L184.62 265.972
L185.386 267.671
L186.151 267.497
L186.916 267.671
L187.681 267.497
L188.447 267.976
L189.339 268.76
L190.742 268.15
L191.508 268.194
L191.508 268.194
L193.038 266.843
L193.803 267.497
L194.569 267.497
L195.461 267.148
L196.099 267.889
L198.395 267.802
L198.395 267.802
L199.16 267.366
L200.691 267.932
L201.456 267.715
L202.987 268.542
L204.517 268.02
L205.41 268.542
L206.175 268.499
L206.303 268.76
L206.94 268.76
L207.578 268.455
L208.088 267.584
L208.343 267.584
L209.236 267.845
L209.236 267.845
L209.619 267.061
L210.001 267.061
L210.767 267.715
L211.022 267.235
L212.297 267.235
L212.425 267.105
L213.062 267.105
L213.573 266.887
L213.828 266.887
L213.828 266.887
L213.955 267.279
L214.593 267.279
L214.72 267.105
L215.358 267.105
L215.358 267.105
L215.486 267.54
L216.123 267.54
L216.123 267.54
L216.251 267.715
L216.761 267.715
L216.761 267.715
L217.016 268.281
L217.654 268.281
L217.654 268.281
L217.781 268.499
L218.419 268.499
L218.419 268.499
L218.547 269.239
L219.184 269.239
L219.312 268.934
L219.95 268.934
L220.077 269.196
L220.715 269.196
L220.843 269.457
L220.843 269.457
L221.48 269.457
L221.608 268.76
L222.245 268.76
L222.373 268.325
L223.011 268.325
L223.011 268.325
L223.521 267.976
L224.541 267.889
L224.669 267.54
L226.072 267.497
L226.072 267.497
L226.199 267.192
L226.199 267.192
L226.837 267.192
L226.965 266.8
L227.602 266.8
L227.602 266.8
L228.112 267.105
L228.368 267.105
L228.495 267.453
L229.133 267.453
L229.26 266.146
L229.898 266.146
L230.026 267.366
L230.663 267.366
L230.663 267.366
L231.173 267.671
L231.429 267.671
L231.429 267.671
L231.556 267.889
L232.194 267.889
L232.321 267.628
L234.49 267.54
L234.49 267.54
L234.617 267.018
L235.255 267.018
L235.255 267.018
L235.383 267.279
L236.02 267.279
L236.02 267.279
L236.148 267.061
L236.785 267.061
L236.913 267.235
L237.551 267.235
L237.678 268.194
L239.081 268.194
L239.209 268.455
L239.846 268.455
L239.974 268.629
L240.612 268.629
L240.612 268.629
L240.739 268.891
L241.377 268.891
L241.504 268.281
L242.142 268.281
L242.27 268.804
L242.907 268.804
L243.035 269.065
L243.673 269.065
L243.8 270.677
L244.438 270.677
L244.565 269.109
L245.203 269.109
L245.203 269.109
L245.331 270.503
L247.499 270.415
L248.009 270.372
L248.392 271.984
L249.03 271.984
L249.03 271.984
L249.157 271.592
L249.795 271.592
L249.795 271.592
L249.922 271.722
L250.56 271.722
L250.688 271.592
L251.325 271.592
L251.453 270.938
L252.091 270.938
L252.218 271.679
L252.856 271.679
L252.983 272.158
L253.621 272.158
L253.749 271.679
L254.386 271.679
L254.514 271.417
L255.152 271.417
L255.279 271.243
L255.279 271.243
L255.917 271.243
L255.917 271.243
L256.044 271.722
L256.682 271.722
L256.81 272.201
L256.81 272.201
L257.447 272.201
L257.575 271.984
L258.213 271.984
L258.213 271.984
L258.723 272.55
L258.978 272.55
L259.105 272.201
L260.508 272.245
L260.636 272.463
L262.804 272.376
L262.932 271.635
L263.569 271.635
L263.569 271.635
L263.697 271.287
L264.335 271.287
L264.335 271.287
L264.462 270.677
L265.1 270.677
L265.1 270.677
L265.227 270.111
L265.738 270.111
L265.993 270.459
L268.926 270.415
L269.054 270.633
L271.222 270.546
L271.605 270.982
L273.518 270.895
L273.518 270.895
L273.645 270.154
L274.283 270.154
L274.411 270.895
L275.813 270.938
L275.941 271.112
L276.579 271.112
L276.706 270.851
L278.109 270.851
L278.109 270.851
L278.237 271.069
L279.64 271.069
L279.767 271.722
L280.405 271.722
L280.405 271.722
L280.533 271.112
L281.17 271.112
L281.17 271.112
L281.298 270.546
L281.936 270.546
L282.318 269.762
L283.466 269.718
L283.594 268.978
L284.231 268.978
L284.359 269.544
L285.762 269.501
L285.889 268.978
L286.527 268.978
L286.655 269.806
L287.292 269.806
L287.42 269.631
L288.058 269.631
L288.185 269.501
L289.588 269.588
L289.716 269.196
L290.353 269.196
L290.481 269.675
L291.119 269.675
L291.246 269.806
L291.884 269.806
L292.394 270.154
L293.414 270.067
L293.414 270.067
L293.542 270.328
L294.18 270.328
L294.18 270.328
L294.307 269.196
L294.945 269.196
L294.945 269.196
L295.072 269.326
L295.71 269.326
L295.838 269.544
L296.475 269.544
L296.603 269.849
L297.241 269.849
L297.368 269.457
L298.006 269.457
L298.133 269.283
L298.771 269.283
L298.899 268.586
L299.536 268.586
L299.664 268.325
L300.302 268.325
L300.302 268.325
L300.429 268.673
L302.597 268.629
L302.597 268.629
L302.98 269.414
L303.235 269.414
L303.49 269.239
L304.128 269.239
L304.128 269.239
L304.256 269.544
L304.893 269.544
L305.021 269.37
L305.659 269.37
L305.786 269.588
L307.189 269.588
L307.189 269.588
L307.317 269.283
L307.954 269.283
L308.082 269.065
L308.72 269.065
L308.72 269.065
L308.847 269.196
L310.25 269.239
L310.25 269.239
L310.378 268.978
L311.015 268.978
L311.143 268.237
L311.781 268.237
L311.908 269.065
L314.076 269.152
L314.204 269.762
L314.842 269.762
L314.969 269.37
L315.607 269.37
L315.734 269.196
L316.372 269.196
L316.5 269.414
L317.903 269.37
L318.03 269.98
L318.668 269.98
L318.668 269.98
L318.795 270.372
L319.433 270.372
L319.433 270.372
L319.561 269.849
L320.198 269.849
L320.326 268.934
L320.964 268.934
L320.964 268.934
L321.474 269.326
L321.729 269.326
L322.239 269.718
L323.259 269.544
L323.387 270.328
L324.79 270.328
L324.917 269.762
L326.32 269.762
L326.448 270.415
L328.616 270.415
L328.744 270.72
L329.381 270.72
L329.509 270.285
L330.147 270.285
L330.274 270.677
L330.912 270.677
L331.04 270.851
L332.443 270.764
L332.57 270.59
L333.208 270.59
L333.335 270.198
L333.973 270.198
L334.101 269.936
L334.738 269.936
L334.866 270.415
L335.504 270.415
L335.631 269.544
L336.269 269.544
L336.396 269.98
L337.034 269.98
L337.162 270.328
L337.799 270.328
L337.927 269.98
L338.565 269.98
L338.692 270.111
L339.33 270.111
L339.457 269.893
L340.605 269.98
L340.86 270.285
L340.988 270.067
L341.626 270.067
L341.753 269.501
L342.391 269.501
L342.518 269.283
L343.156 269.283
L343.284 270.285
L343.921 270.285
L343.921 270.285
L344.049 270.154
L344.687 270.154
L344.814 270.328
L345.452 270.328
L345.452 270.328
L345.579 270.154
L346.982 270.154
L346.982 270.154
L347.11 270.023
L347.748 270.023
L347.875 270.241
L348.513 270.241
L348.64 269.631
L349.278 269.631
L349.406 270.459
L350.043 270.459
L350.171 269.631
L350.809 269.631
L350.936 270.198
L351.319 270.198
L351.702 268.804
L352.339 268.804
L352.467 270.111
L353.87 270.067
L353.87 270.067
L354.38 269.806
L354.635 269.806
L354.763 269.631
L356.165 269.588
L356.165 269.588
L356.293 269.849
L356.931 269.849
L357.058 269.631
L358.461 269.675
L358.461 269.675
L358.589 269.283
L359.227 269.283
L359.354 270.067
L359.992 270.067
L360.119 269.806
L360.757 269.806
L360.885 270.285
L361.522 270.285
L361.65 270.72
L362.288 270.72
L362.415 270.372
L363.053 270.372
L363.18 270.938
L363.818 270.938
L363.946 270.633
L364.583 270.633
L364.711 271.374
L365.349 271.374
L365.476 271.548
L367.644 271.461
L367.772 271.33
L368.41 271.33
L368.537 271.679
L369.175 271.679
L369.685 271.548
L369.94 271.548
L370.068 271.984
L370.705 271.984
L370.833 272.855
L372.236 272.855
L372.363 273.116
L373.001 273.116
L373.129 272.55
L373.766 272.55
L373.766 272.55
L373.894 272.027
L375.297 272.027
L375.424 272.811
L376.062 272.811
L376.19 272.419
L376.827 272.419
L376.955 272.55
L377.593 272.55
L377.593 272.55
L377.72 272.811
L379.888 272.724
L380.016 272.942
L380.654 272.942
L380.781 273.508
L381.419 273.508
L381.547 272.637
L382.184 272.637
L382.312 272.463
L382.949 272.463
L383.077 271.984
L383.715 271.984
L384.225 272.463
L384.48 272.463
L384.608 272.158
L386.011 272.158
L386.138 272.289
L386.776 272.289
L386.903 271.94
L388.306 271.94
L388.306 271.94
L388.434 342.161
L389.072 342.161
L389.199 271.33
L389.837 271.33
L389.964 271.461
L390.602 271.461
L390.73 271.2
L391.367 271.2
L391.495 271.548
L392.133 271.548
L392.26 271.853
L392.898 271.853
L393.025 271.984
L393.663 271.984
L393.791 271.548
L394.173 271.548
L394.173 271.548
L394.811 271.417
L395.194 271.417
L395.321 270.982
L395.959 270.982
L396.086 270.328
L396.724 270.328
L396.852 270.764
L397.489 270.764
L397.617 271.287
L398.255 271.287
L398.382 272.027
L399.02 272.027
L399.147 272.158
L399.785 272.158
L399.913 272.376
L401.316 272.419
L401.443 272.898
L402.081 272.898
L402.208 272.201
L402.846 272.201
L402.974 272.768
L403.611 272.768
L403.739 272.027
L404.377 272.027
L404.504 273.203
L405.142 273.203
L405.269 272.811
L406.672 272.811
L406.8 272.332
L407.438 272.332
L407.565 273.508
L409.733 273.508
L409.861 272.986
L410.499 272.986
L410.626 272.681
L411.264 272.681
L411.392 272.55
L412.029 272.55
L412.157 272.855
L412.667 272.855
L413.305 273.029
L413.56 273.029
L413.687 272.855
L415.09 272.898
L415.218 272.724
L415.856 272.724
L415.983 272.071
L416.621 272.071
L416.748 272.898
L417.386 272.898
L417.514 272.376
L418.151 272.376
L418.279 272.158
L418.917 272.158
L419.044 272.986
L419.682 272.986
L419.809 273.552
L420.447 273.552
L420.575 273.421
L421.212 273.421
L421.34 273.073
L421.978 273.073
L422.105 272.724
L422.743 272.724
L422.87 272.942
L423.508 272.942
L423.636 273.465
L424.273 273.465
L424.401 272.724
L425.039 272.724
L425.166 273.552
L426.569 273.508
L426.697 274.118
L427.334 274.118
L427.462 273.77
L428.1 273.77
L428.227 272.811
L428.865 272.811
L428.992 273.334
L429.63 273.334
L429.758 273.465
L430.395 273.465
L430.524 273.987
L431.033 273.987
L431.288 273.639
L431.926 273.639
L432.053 274.075
L433.456 274.162
L433.584 274.249
L434.987 274.162
L435.115 273.9
L435.752 273.9
L435.88 273.334
L436.517 273.334
L436.645 273.9
L438.048 273.857
L438.176 273.291
L438.813 273.291
L438.941 273.073
L439.579 273.073
L439.706 273.334
L441.109 273.291
L441.237 273.465
L442.64 273.421
L442.767 273.639
L443.405 273.639
L443.533 273.77
L444.17 273.77
L444.298 272.898
L444.935 272.898
L445.063 273.421
L446.466 273.421
L446.593 273.726
L447.231 273.726
L447.359 272.942
L447.996 272.942
L448.124 273.465
L448.762 273.465
L448.889 272.768
L449.527 272.768
L449.527 272.768
L449.654 272.55
L450.165 272.55
L450.42 272.681
L451.057 272.681
L451.185 273.247
L452.588 273.334
L452.715 273.421
L457.179 273.378
L457.307 273.639
L459.475 273.552
L459.603 271.94
L460.24 271.94
L460.368 272.855
L461.006 272.855
L461.133 273.247
L461.771 273.247
L461.899 273.508
L462.536 273.508
L462.664 273.378
L463.301 273.378
L463.429 273.029
L464.832 273.029
L464.96 272.724
L465.597 272.724
L465.597 272.724
L465.725 272.245
L466.363 272.245
L466.49 272.55
L467.128 272.55
L467.128 272.55
L467.256 272.724
L467.893 272.724
L468.021 272.855
L470.189 272.855
L470.316 273.378
L471.719 273.291
L471.847 272.986
L472.485 272.986
L472.612 273.508
L473.25 273.508
L473.377 271.897
L474.015 271.897
L474.143 273.116
L474.78 273.116
L474.908 273.247
L475.546 273.247
L475.673 272.898
L476.311 272.898
L476.438 272.332
L477.076 272.332
L477.204 273.508
L477.841 273.508
L477.969 274.205
L478.607 274.205
L478.734 273.9
L479.372 273.9
L479.499 274.118
L480.137 274.118
L480.265 273.378
L480.902 273.378
L481.03 272.986
L481.668 272.986
L481.795 273.378
L483.198 273.334
L483.326 272.811
L483.963 272.811
L484.091 273.508
L485.494 273.421
L485.877 272.681
L486.259 272.681
L486.259 272.681
L486.387 274.118
L487.024 274.118
L487.152 273.857
L487.79 273.857
L487.917 274.249
L490.851 274.292
L490.978 273.9
L491.616 273.9
L491.744 274.728
L492.381 274.728
L492.509 274.38
L493.147 274.38
L493.274 274.554
L493.912 274.554
L494.04 273.683
L494.677 273.683
L494.805 274.38
L496.208 274.423
L496.335 274.118
L500.034 274.075
L500.161 273.639
L500.799 273.639
L500.927 273.508
L501.564 273.508
L501.692 273.16
L502.33 273.16
L502.457 273.465
L503.86 273.508
L503.988 273.247
L504.625 273.247
L504.753 272.986
L505.391 272.986
L505.518 274.38
L508.452 274.467
L508.579 274.597
L509.982 274.51
L510.492 274.859
L510.747 274.859
L510.875 274.162
L511.513 274.162
L511.64 274.728
L512.278 274.728
L512.405 274.946
L513.043 274.946
L513.171 275.338
L513.808 275.338
L513.936 275.077
L514.574 275.077
L514.701 273.508
L515.339 273.508
L515.467 274.336
L516.869 274.249
L516.997 274.728
L517.635 274.728
L517.762 275.033
L518.4 275.033
L518.4 275.033" style="fill:none;stroke:#008000;stroke-linecap:square;"/>
   </g>
   <g id="patch_3">
    <path d="
M72 43.2
L518.4 43.2" style="fill:none;stroke:#000000;stroke-linecap:square;stroke-linejoin:miter;"/>
   </g>
   <g id="patch_4">
    <path d="
M518.4 345.6
L518.4 43.2" style="fill:none;stroke:#000000;stroke-linecap:square;stroke-linejoin:miter;"/>
   </g>
   <g id="patch_5">
    <path d="
M72 345.6
L518.4 345.6" style="fill:none;stroke:#000000;stroke-linecap:square;stroke-linejoin:miter;"/>
   </g>
   <g id="patch_6">
    <path d="
M72 345.6
L72 43.2" style="fill:none;stroke:#000000;stroke-linecap:square;stroke-linejoin:miter;"/>
   </g>
   <g id="matplotlib.axis_1">
    <g id="xtick_1">
     <g id="line2d_3">
      <defs>
       <path d="
M0 0
L0 -4" id="m93b0483c22" style="stroke:#000000;stroke-width:0.5;"/>
      </defs>
      <g>
       <use style="stroke:#000000;stroke-width:0.5;" x="118.170301715" xlink:href="#m93b0483c22" y="345.6"/>
      </g>
     </g>
     <g id="line2d_4">
      <defs>
       <path d="
M0 0
L0 4" id="m741efc42ff" style="stroke:#000000;stroke-width:0.5;"/>
      </defs>
      <g>
       <use style="stroke:#000000;stroke-width:0.5;" x="118.170301715" xlink:href="#m741efc42ff" y="43.2"/>
      </g>
     </g>
     <g id="text_1">
      <!-- Oct 13 2015 -->
      <defs>
       <path d="
M19.1875 8.29688
L53.6094 8.29688
L53.6094 0
L7.32812 0
L7.32812 8.29688
Q12.9375 14.1094 22.625 23.8906
Q32.3281 33.6875 34.8125 36.5312
Q39.5469 41.8438 41.4219 45.5312
Q43.3125 49.2188 43.3125 52.7812
Q43.3125 58.5938 39.2344 62.25
Q35.1562 65.9219 28.6094 65.9219
Q23.9688 65.9219 18.8125 64.3125
Q13.6719 62.7031 7.8125 59.4219
L7.8125 69.3906
Q13.7656 71.7812 18.9375 73
Q24.125 74.2188 28.4219 74.2188
Q39.75 74.2188 46.4844 68.5469
Q53.2188 62.8906 53.2188 53.4219
Q53.2188 48.9219 51.5312 44.8906
Q49.8594 40.875 45.4062 35.4062
Q44.1875 33.9844 37.6406 27.2188
Q31.1094 20.4531 19.1875 8.29688" id="BitstreamVeraSans-Roman-32"/>
       <path d="
M39.4062 66.2188
Q28.6562 66.2188 22.3281 58.2031
Q16.0156 50.2031 16.0156 36.375
Q16.0156 22.6094 22.3281 14.5938
Q28.6562 6.59375 39.4062 6.59375
Q50.1406 6.59375 56.4219 14.5938
Q62.7031 22.6094 62.7031 36.375
Q62.7031 50.2031 56.4219 58.2031
Q50.1406 66.2188 39.4062 66.2188
M39.4062 74.2188
Q54.7344 74.2188 63.9062 63.9375
Q73.0938 53.6562 73.0938 36.375
Q73.0938 19.1406 63.9062 8.85938
Q54.7344 -1.42188 39.4062 -1.42188
Q24.0312 -1.42188 14.8125 8.82812
Q5.60938 19.0938 5.60938 36.375
Q5.60938 53.6562 14.8125 63.9375
Q24.0312 74.2188 39.4062 74.2188" id="BitstreamVeraSans-Roman-4f"/>
       <path d="
M31.7812 66.4062
Q24.1719 66.4062 20.3281 58.9062
Q16.5 51.4219 16.5 36.375
Q16.5 21.3906 20.3281 13.8906
Q24.1719 6.39062 31.7812 6.39062
Q39.4531 6.39062 43.2812 13.8906
Q47.125 21.3906 47.125 36.375
Q47.125 51.4219 43.2812 58.9062
Q39.4531 66.4062 31.7812 66.4062
M31.7812 74.2188
Q44.0469 74.2188 50.5156 64.5156
Q56.9844 54.8281 56.9844 36.375
Q56.9844 17.9688 50.5156 8.26562
Q44.0469 -1.42188 31.7812 -1.42188
Q19.5312 -1.42188 13.0625 8.26562
Q6.59375 17.9688 6.59375 36.375
Q6.59375 54.8281 13.0625 64.5156
Q19.5312 74.2188 31.7812 74.2188" id="BitstreamVeraSans-Roman-30"/>
       <path d="
M12.4062 8.29688
L28.5156 8.29688
L28.5156 63.9219
L10.9844 60.4062
L10.9844 69.3906
L28.4219 72.9062
L38.2812 72.9062
L38.2812 8.29688
L54.3906 8.29688
L54.3906 0
L12.4062 0
z
" id="BitstreamVeraSans-Roman-31"/>
       <path d="
M40.5781 39.3125
Q47.6562 37.7969 51.625 33
Q55.6094 28.2188 55.6094 21.1875
Q55.6094 10.4062 48.1875 4.48438
Q40.7656 -1.42188 27.0938 -1.42188
Q22.5156 -1.42188 17.6562 -0.515625
Q12.7969 0.390625 7.625 2.20312
L7.625 11.7188
Q11.7188 9.32812 16.5938 8.10938
Q21.4844 6.89062 26.8125 6.89062
Q36.0781 6.89062 40.9375 10.5469
Q45.7969 14.2031 45.7969 21.1875
Q45.7969 27.6406 41.2812 31.2656
Q36.7656 34.9062 28.7188 34.9062
L20.2188 34.9062
L20.2188 43.0156
L29.1094 43.0156
Q36.375 43.0156 40.2344 45.9219
Q44.0938 48.8281 44.0938 54.2969
Q44.0938 59.9062 40.1094 62.9062
Q36.1406 65.9219 28.7188 65.9219
Q24.6562 65.9219 20.0156 65.0312
Q15.375 64.1562 9.8125 62.3125
L9.8125 71.0938
Q15.4375 72.6562 20.3438 73.4375
Q25.25 74.2188 29.5938 74.2188
Q40.8281 74.2188 47.3594 69.1094
Q53.9062 64.0156 53.9062 55.3281
Q53.9062 49.2656 50.4375 45.0938
Q46.9688 40.9219 40.5781 39.3125" id="BitstreamVeraSans-Roman-33"/>
       <path id="BitstreamVeraSans-Roman-20"/>
       <path d="
M10.7969 72.9062
L49.5156 72.9062
L49.5156 64.5938
L19.8281 64.5938
L19.8281 46.7344
Q21.9688 47.4688 24.1094 47.8281
Q26.2656 48.1875 28.4219 48.1875
Q40.625 48.1875 47.75 41.5
Q54.8906 34.8125 54.8906 23.3906
Q54.8906 11.625 47.5625 5.09375
Q40.2344 -1.42188 26.9062 -1.42188
Q22.3125 -1.42188 17.5469 -0.640625
Q12.7969 0.140625 7.71875 1.70312
L7.71875 11.625
Q12.1094 9.23438 16.7969 8.0625
Q21.4844 6.89062 26.7031 6.89062
Q35.1562 6.89062 40.0781 11.3281
Q45.0156 15.7656 45.0156 23.3906
Q45.0156 31 40.0781 35.4375
Q35.1562 39.8906 26.7031 39.8906
Q22.75 39.8906 18.8125 39.0156
Q14.8906 38.1406 10.7969 36.2812
z
" id="BitstreamVeraSans-Roman-35"/>
       <path d="
M18.3125 70.2188
L18.3125 54.6875
L36.8125 54.6875
L36.8125 47.7031
L18.3125 47.7031
L18.3125 18.0156
Q18.3125 11.3281 20.1406 9.42188
Q21.9688 7.51562 27.5938 7.51562
L36.8125 7.51562
L36.8125 0
L27.5938 0
Q17.1875 0 13.2344 3.875
Q9.28125 7.76562 9.28125 18.0156
L9.28125 47.7031
L2.6875 47.7031
L2.6875 54.6875
L9.28125 54.6875
L9.28125 70.2188
z
" id="BitstreamVeraSans-Roman-74"/>
       <path d="
M48.7812 52.5938
L48.7812 44.1875
Q44.9688 46.2969 41.1406 47.3438
Q37.3125 48.3906 33.4062 48.3906
Q24.6562 48.3906 19.8125 42.8438
Q14.9844 37.3125 14.9844 27.2969
Q14.9844 17.2812 19.8125 11.7344
Q24.6562 6.20312 33.4062 6.20312
Q37.3125 6.20312 41.1406 7.25
Q44.9688 8.29688 48.7812 10.4062
L48.7812 2.09375
Q45.0156 0.34375 40.9844 -0.53125
Q36.9688 -1.42188 32.4219 -1.42188
Q20.0625 -1.42188 12.7812 6.34375
Q5.51562 14.1094 5.51562 27.2969
Q5.51562 40.6719 12.8594 48.3281
Q20.2188 56 33.0156 56
Q37.1562 56 41.1094 55.1406
Q45.0625 54.2969 48.7812 52.5938" id="BitstreamVeraSans-Roman-63"/>
      </defs>
      <g transform="translate(53.5830149798 394.065590385)rotate(-30.0)scale(0.12 -0.12)">
       <use xlink:href="#BitstreamVeraSans-Roman-4f"/>
       <use x="78.7109375" xlink:href="#BitstreamVeraSans-Roman-63"/>
       <use x="133.69140625" xlink:href="#BitstreamVeraSans-Roman-74"/>
       <use x="172.900390625" xlink:href="#BitstreamVeraSans-Roman-20"/>
       <use x="204.6875" xlink:href="#BitstreamVeraSans-Roman-31"/>
       <use x="268.310546875" xlink:href="#BitstreamVeraSans-Roman-33"/>
       <use x="331.93359375" xlink:href="#BitstreamVeraSans-Roman-20"/>
       <use x="363.720703125" xlink:href="#BitstreamVeraSans-Roman-32"/>
       <use x="427.34375" xlink:href="#BitstreamVeraSans-Roman-30"/>
       <use x="490.966796875" xlink:href="#BitstreamVeraSans-Roman-31"/>
       <use x="554.58984375" xlink:href="#BitstreamVeraSans-Roman-35"/>
      </g>
     </g>
    </g>
    <g id="xtick_2">
     <g id="line2d_5">
      <g>
       <use style="stroke:#000000;stroke-width:0.5;" x="173.268816" xlink:href="#m93b0483c22" y="345.6"/>
      </g>
     </g>
     <g id="line2d_6">
      <g>
       <use style="stroke:#000000;stroke-width:0.5;" x="173.268816" xlink:href="#m741efc42ff" y="43.2"/>
      </g>
     </g>
     <g id="text_2">
      <!-- Oct 16 2015 -->
      <defs>
       <path d="
M33.0156 40.375
Q26.375 40.375 22.4844 35.8281
Q18.6094 31.2969 18.6094 23.3906
Q18.6094 15.5312 22.4844 10.9531
Q26.375 6.39062 33.0156 6.39062
Q39.6562 6.39062 43.5312 10.9531
Q47.4062 15.5312 47.4062 23.3906
Q47.4062 31.2969 43.5312 35.8281
Q39.6562 40.375 33.0156 40.375
M52.5938 71.2969
L52.5938 62.3125
Q48.875 64.0625 45.0938 64.9844
Q41.3125 65.9219 37.5938 65.9219
Q27.8281 65.9219 22.6719 59.3281
Q17.5312 52.7344 16.7969 39.4062
Q19.6719 43.6562 24.0156 45.9219
Q28.375 48.1875 33.5938 48.1875
Q44.5781 48.1875 50.9531 41.5156
Q57.3281 34.8594 57.3281 23.3906
Q57.3281 12.1562 50.6875 5.35938
Q44.0469 -1.42188 33.0156 -1.42188
Q20.3594 -1.42188 13.6719 8.26562
Q6.98438 17.9688 6.98438 36.375
Q6.98438 53.6562 15.1875 63.9375
Q23.3906 74.2188 37.2031 74.2188
Q40.9219 74.2188 44.7031 73.4844
Q48.4844 72.75 52.5938 71.2969" id="BitstreamVeraSans-Roman-36"/>
      </defs>
      <g transform="translate(108.681529265 394.065590385)rotate(-30.0)scale(0.12 -0.12)">
       <use xlink:href="#BitstreamVeraSans-Roman-4f"/>
       <use x="78.7109375" xlink:href="#BitstreamVeraSans-Roman-63"/>
       <use x="133.69140625" xlink:href="#BitstreamVeraSans-Roman-74"/>
       <use x="172.900390625" xlink:href="#BitstreamVeraSans-Roman-20"/>
       <use x="204.6875" xlink:href="#BitstreamVeraSans-Roman-31"/>
       <use x="268.310546875" xlink:href="#BitstreamVeraSans-Roman-36"/>
       <use x="331.93359375" xlink:href="#BitstreamVeraSans-Roman-20"/>
       <use x="363.720703125" xlink:href="#BitstreamVeraSans-Roman-32"/>
       <use x="427.34375" xlink:href="#BitstreamVeraSans-Roman-30"/>
       <use x="490.966796875" xlink:href="#BitstreamVeraSans-Roman-31"/>
       <use x="554.58984375" xlink:href="#BitstreamVeraSans-Roman-35"/>
      </g>
     </g>
    </g>
    <g id="xtick_3">
     <g id="line2d_7">
      <g>
       <use style="stroke:#000000;stroke-width:0.5;" x="228.367330285" xlink:href="#m93b0483c22" y="345.6"/>
      </g>
     </g>
     <g id="line2d_8">
      <g>
       <use style="stroke:#000000;stroke-width:0.5;" x="228.367330285" xlink:href="#m741efc42ff" y="43.2"/>
      </g>
     </g>
     <g id="text_3">
      <!-- Oct 19 2015 -->
      <defs>
       <path d="
M10.9844 1.51562
L10.9844 10.5
Q14.7031 8.73438 18.5 7.8125
Q22.3125 6.89062 25.9844 6.89062
Q35.75 6.89062 40.8906 13.4531
Q46.0469 20.0156 46.7812 33.4062
Q43.9531 29.2031 39.5938 26.9531
Q35.25 24.7031 29.9844 24.7031
Q19.0469 24.7031 12.6719 31.3125
Q6.29688 37.9375 6.29688 49.4219
Q6.29688 60.6406 12.9375 67.4219
Q19.5781 74.2188 30.6094 74.2188
Q43.2656 74.2188 49.9219 64.5156
Q56.5938 54.8281 56.5938 36.375
Q56.5938 19.1406 48.4062 8.85938
Q40.2344 -1.42188 26.4219 -1.42188
Q22.7031 -1.42188 18.8906 -0.6875
Q15.0938 0.046875 10.9844 1.51562
M30.6094 32.4219
Q37.25 32.4219 41.125 36.9531
Q45.0156 41.5 45.0156 49.4219
Q45.0156 57.2812 41.125 61.8438
Q37.25 66.4062 30.6094 66.4062
Q23.9688 66.4062 20.0938 61.8438
Q16.2188 57.2812 16.2188 49.4219
Q16.2188 41.5 20.0938 36.9531
Q23.9688 32.4219 30.6094 32.4219" id="BitstreamVeraSans-Roman-39"/>
      </defs>
      <g transform="translate(163.78004355 394.065590385)rotate(-30.0)scale(0.12 -0.12)">
       <use xlink:href="#BitstreamVeraSans-Roman-4f"/>
       <use x="78.7109375" xlink:href="#BitstreamVeraSans-Roman-63"/>
       <use x="133.69140625" xlink:href="#BitstreamVeraSans-Roman-74"/>
       <use x="172.900390625" xlink:href="#BitstreamVeraSans-Roman-20"/>
       <use x="204.6875" xlink:href="#BitstreamVeraSans-Roman-31"/>
       <use x="268.310546875" xlink:href="#BitstreamVeraSans-Roman-39"/>
       <use x="331.93359375" xlink:href="#BitstreamVeraSans-Roman-20"/>
       <use x="363.720703125" xlink:href="#BitstreamVeraSans-Roman-32"/>
       <use x="427.34375" xlink:href="#BitstreamVeraSans-Roman-30"/>
       <use x="490.966796875" xlink:href="#BitstreamVeraSans-Roman-31"/>
       <use x="554.58984375" xlink:href="#BitstreamVeraSans-Roman-35"/>
      </g>
     </g>
    </g>
    <g id="xtick_4">
     <g id="line2d_9">
      <g>
       <use style="stroke:#000000;stroke-width:0.5;" x="283.465844572" xlink:href="#m93b0483c22" y="345.6"/>
      </g>
     </g>
     <g id="line2d_10">
      <g>
       <use style="stroke:#000000;stroke-width:0.5;" x="283.465844572" xlink:href="#m741efc42ff" y="43.2"/>
      </g>
     </g>
     <g id="text_4">
      <!-- Oct 22 2015 -->
      <g transform="translate(218.878557836 394.065590385)rotate(-30.0)scale(0.12 -0.12)">
       <use xlink:href="#BitstreamVeraSans-Roman-4f"/>
       <use x="78.7109375" xlink:href="#BitstreamVeraSans-Roman-63"/>
       <use x="133.69140625" xlink:href="#BitstreamVeraSans-Roman-74"/>
       <use x="172.900390625" xlink:href="#BitstreamVeraSans-Roman-20"/>
       <use x="204.6875" xlink:href="#BitstreamVeraSans-Roman-32"/>
       <use x="268.310546875" xlink:href="#BitstreamVeraSans-Roman-32"/>
       <use x="331.93359375" xlink:href="#BitstreamVeraSans-Roman-20"/>
       <use x="363.720703125" xlink:href="#BitstreamVeraSans-Roman-32"/>
       <use x="427.34375" xlink:href="#BitstreamVeraSans-Roman-30"/>
       <use x="490.966796875" xlink:href="#BitstreamVeraSans-Roman-31"/>
       <use x="554.58984375" xlink:href="#BitstreamVeraSans-Roman-35"/>
      </g>
     </g>
    </g>
    <g id="xtick_5">
     <g id="line2d_11">
      <g>
       <use style="stroke:#000000;stroke-width:0.5;" x="338.564358857" xlink:href="#m93b0483c22" y="345.6"/>
      </g>
     </g>
     <g id="line2d_12">
      <g>
       <use style="stroke:#000000;stroke-width:0.5;" x="338.564358857" xlink:href="#m741efc42ff" y="43.2"/>
      </g>
     </g>
     <g id="text_5">
      <!-- Oct 25 2015 -->
      <g transform="translate(273.977072121 394.065590385)rotate(-30.0)scale(0.12 -0.12)">
       <use xlink:href="#BitstreamVeraSans-Roman-4f"/>
       <use x="78.7109375" xlink:href="#BitstreamVeraSans-Roman-63"/>
       <use x="133.69140625" xlink:href="#BitstreamVeraSans-Roman-74"/>
       <use x="172.900390625" xlink:href="#BitstreamVeraSans-Roman-20"/>
       <use x="204.6875" xlink:href="#BitstreamVeraSans-Roman-32"/>
       <use x="268.310546875" xlink:href="#BitstreamVeraSans-Roman-35"/>
       <use x="331.93359375" xlink:href="#BitstreamVeraSans-Roman-20"/>
       <use x="363.720703125" xlink:href="#BitstreamVeraSans-Roman-32"/>
       <use x="427.34375" xlink:href="#BitstreamVeraSans-Roman-30"/>
       <use x="490.966796875" xlink:href="#BitstreamVeraSans-Roman-31"/>
       <use x="554.58984375" xlink:href="#BitstreamVeraSans-Roman-35"/>
      </g>
     </g>
    </g>
    <g id="xtick_6">
     <g id="line2d_13">
      <g>
       <use style="stroke:#000000;stroke-width:0.5;" x="393.662873141" xlink:href="#m93b0483c22" y="345.6"/>
      </g>
     </g>
     <g id="line2d_14">
      <g>
       <use style="stroke:#000000;stroke-width:0.5;" x="393.662873141" xlink:href="#m741efc42ff" y="43.2"/>
      </g>
     </g>
     <g id="text_6">
      <!-- Oct 28 2015 -->
      <defs>
       <path d="
M31.7812 34.625
Q24.75 34.625 20.7188 30.8594
Q16.7031 27.0938 16.7031 20.5156
Q16.7031 13.9219 20.7188 10.1562
Q24.75 6.39062 31.7812 6.39062
Q38.8125 6.39062 42.8594 10.1719
Q46.9219 13.9688 46.9219 20.5156
Q46.9219 27.0938 42.8906 30.8594
Q38.875 34.625 31.7812 34.625
M21.9219 38.8125
Q15.5781 40.375 12.0312 44.7188
Q8.5 49.0781 8.5 55.3281
Q8.5 64.0625 14.7188 69.1406
Q20.9531 74.2188 31.7812 74.2188
Q42.6719 74.2188 48.875 69.1406
Q55.0781 64.0625 55.0781 55.3281
Q55.0781 49.0781 51.5312 44.7188
Q48 40.375 41.7031 38.8125
Q48.8281 37.1562 52.7969 32.3125
Q56.7812 27.4844 56.7812 20.5156
Q56.7812 9.90625 50.3125 4.23438
Q43.8438 -1.42188 31.7812 -1.42188
Q19.7344 -1.42188 13.25 4.23438
Q6.78125 9.90625 6.78125 20.5156
Q6.78125 27.4844 10.7812 32.3125
Q14.7969 37.1562 21.9219 38.8125
M18.3125 54.3906
Q18.3125 48.7344 21.8438 45.5625
Q25.3906 42.3906 31.7812 42.3906
Q38.1406 42.3906 41.7188 45.5625
Q45.3125 48.7344 45.3125 54.3906
Q45.3125 60.0625 41.7188 63.2344
Q38.1406 66.4062 31.7812 66.4062
Q25.3906 66.4062 21.8438 63.2344
Q18.3125 60.0625 18.3125 54.3906" id="BitstreamVeraSans-Roman-38"/>
      </defs>
      <g transform="translate(329.075586406 394.065590385)rotate(-30.0)scale(0.12 -0.12)">
       <use xlink:href="#BitstreamVeraSans-Roman-4f"/>
       <use x="78.7109375" xlink:href="#BitstreamVeraSans-Roman-63"/>
       <use x="133.69140625" xlink:href="#BitstreamVeraSans-Roman-74"/>
       <use x="172.900390625" xlink:href="#BitstreamVeraSans-Roman-20"/>
       <use x="204.6875" xlink:href="#BitstreamVeraSans-Roman-32"/>
       <use x="268.310546875" xlink:href="#BitstreamVeraSans-Roman-38"/>
       <use x="331.93359375" xlink:href="#BitstreamVeraSans-Roman-20"/>
       <use x="363.720703125" xlink:href="#BitstreamVeraSans-Roman-32"/>
       <use x="427.34375" xlink:href="#BitstreamVeraSans-Roman-30"/>
       <use x="490.966796875" xlink:href="#BitstreamVeraSans-Roman-31"/>
       <use x="554.58984375" xlink:href="#BitstreamVeraSans-Roman-35"/>
      </g>
     </g>
    </g>
    <g id="xtick_7">
     <g id="line2d_15">
      <g>
       <use style="stroke:#000000;stroke-width:0.5;" x="448.761387428" xlink:href="#m93b0483c22" y="345.6"/>
      </g>
     </g>
     <g id="line2d_16">
      <g>
       <use style="stroke:#000000;stroke-width:0.5;" x="448.761387428" xlink:href="#m741efc42ff" y="43.2"/>
      </g>
     </g>
     <g id="text_7">
      <!-- Oct 31 2015 -->
      <g transform="translate(384.174100693 394.065590385)rotate(-30.0)scale(0.12 -0.12)">
       <use xlink:href="#BitstreamVeraSans-Roman-4f"/>
       <use x="78.7109375" xlink:href="#BitstreamVeraSans-Roman-63"/>
       <use x="133.69140625" xlink:href="#BitstreamVeraSans-Roman-74"/>
       <use x="172.900390625" xlink:href="#BitstreamVeraSans-Roman-20"/>
       <use x="204.6875" xlink:href="#BitstreamVeraSans-Roman-33"/>
       <use x="268.310546875" xlink:href="#BitstreamVeraSans-Roman-31"/>
       <use x="331.93359375" xlink:href="#BitstreamVeraSans-Roman-20"/>
       <use x="363.720703125" xlink:href="#BitstreamVeraSans-Roman-32"/>
       <use x="427.34375" xlink:href="#BitstreamVeraSans-Roman-30"/>
       <use x="490.966796875" xlink:href="#BitstreamVeraSans-Roman-31"/>
       <use x="554.58984375" xlink:href="#BitstreamVeraSans-Roman-35"/>
      </g>
     </g>
    </g>
    <g id="xtick_8">
     <g id="line2d_17">
      <g>
       <use style="stroke:#000000;stroke-width:0.5;" x="503.859901713" xlink:href="#m93b0483c22" y="345.6"/>
      </g>
     </g>
     <g id="line2d_18">
      <g>
       <use style="stroke:#000000;stroke-width:0.5;" x="503.859901713" xlink:href="#m741efc42ff" y="43.2"/>
      </g>
     </g>
     <g id="text_8">
      <!-- Nov 03 2015 -->
      <defs>
       <path d="
M2.98438 54.6875
L12.5 54.6875
L29.5938 8.79688
L46.6875 54.6875
L56.2031 54.6875
L35.6875 0
L23.4844 0
z
" id="BitstreamVeraSans-Roman-76"/>
       <path d="
M9.8125 72.9062
L23.0938 72.9062
L55.4219 11.9219
L55.4219 72.9062
L64.9844 72.9062
L64.9844 0
L51.7031 0
L19.3906 60.9844
L19.3906 0
L9.8125 0
z
" id="BitstreamVeraSans-Roman-4e"/>
       <path d="
M30.6094 48.3906
Q23.3906 48.3906 19.1875 42.75
Q14.9844 37.1094 14.9844 27.2969
Q14.9844 17.4844 19.1562 11.8438
Q23.3438 6.20312 30.6094 6.20312
Q37.7969 6.20312 41.9844 11.8594
Q46.1875 17.5312 46.1875 27.2969
Q46.1875 37.0156 41.9844 42.7031
Q37.7969 48.3906 30.6094 48.3906
M30.6094 56
Q42.3281 56 49.0156 48.375
Q55.7188 40.7656 55.7188 27.2969
Q55.7188 13.875 49.0156 6.21875
Q42.3281 -1.42188 30.6094 -1.42188
Q18.8438 -1.42188 12.1719 6.21875
Q5.51562 13.875 5.51562 27.2969
Q5.51562 40.7656 12.1719 48.375
Q18.8438 56 30.6094 56" id="BitstreamVeraSans-Roman-6f"/>
      </defs>
      <g transform="translate(436.957079555 395.402465385)rotate(-30.0)scale(0.12 -0.12)">
       <use xlink:href="#BitstreamVeraSans-Roman-4e"/>
       <use x="74.8046875" xlink:href="#BitstreamVeraSans-Roman-6f"/>
       <use x="135.986328125" xlink:href="#BitstreamVeraSans-Roman-76"/>
       <use x="195.166015625" xlink:href="#BitstreamVeraSans-Roman-20"/>
       <use x="226.953125" xlink:href="#BitstreamVeraSans-Roman-30"/>
       <use x="290.576171875" xlink:href="#BitstreamVeraSans-Roman-33"/>
       <use x="354.19921875" xlink:href="#BitstreamVeraSans-Roman-20"/>
       <use x="385.986328125" xlink:href="#BitstreamVeraSans-Roman-32"/>
       <use x="449.609375" xlink:href="#BitstreamVeraSans-Roman-30"/>
       <use x="513.232421875" xlink:href="#BitstreamVeraSans-Roman-31"/>
       <use x="576.85546875" xlink:href="#BitstreamVeraSans-Roman-35"/>
      </g>
     </g>
    </g>
   </g>
   <g id="matplotlib.axis_2">
    <g id="ytick_1">
     <g id="line2d_19">
      <defs>
       <path d="
M0 0
L4 0" id="m728421d6d4" style="stroke:#000000;stroke-width:0.5;"/>
      </defs>
      <g>
       <use style="stroke:#000000;stroke-width:0.5;" x="72.0" xlink:href="#m728421d6d4" y="323.821554462"/>
      </g>
     </g>
     <g id="line2d_20">
      <defs>
       <path d="
M0 0
L-4 0" id="mcb0005524f" style="stroke:#000000;stroke-width:0.5;"/>
      </defs>
      <g>
       <use style="stroke:#000000;stroke-width:0.5;" x="518.4" xlink:href="#mcb0005524f" y="323.821554462"/>
      </g>
     </g>
     <g id="text_9">
      <!-- 2000 -->
      <g transform="translate(39.13625 327.132804462)scale(0.12 -0.12)">
       <use xlink:href="#BitstreamVeraSans-Roman-32"/>
       <use x="63.623046875" xlink:href="#BitstreamVeraSans-Roman-30"/>
       <use x="127.24609375" xlink:href="#BitstreamVeraSans-Roman-30"/>
       <use x="190.869140625" xlink:href="#BitstreamVeraSans-Roman-30"/>
      </g>
     </g>
    </g>
    <g id="ytick_2">
     <g id="line2d_21">
      <g>
       <use style="stroke:#000000;stroke-width:0.5;" x="72.0" xlink:href="#m728421d6d4" y="280.260307262"/>
      </g>
     </g>
     <g id="line2d_22">
      <g>
       <use style="stroke:#000000;stroke-width:0.5;" x="518.4" xlink:href="#mcb0005524f" y="280.260307262"/>
      </g>
     </g>
     <g id="text_10">
      <!-- 3000 -->
      <g transform="translate(39.171875 283.571557262)scale(0.12 -0.12)">
       <use xlink:href="#BitstreamVeraSans-Roman-33"/>
       <use x="63.623046875" xlink:href="#BitstreamVeraSans-Roman-30"/>
       <use x="127.24609375" xlink:href="#BitstreamVeraSans-Roman-30"/>
       <use x="190.869140625" xlink:href="#BitstreamVeraSans-Roman-30"/>
      </g>
     </g>
    </g>
    <g id="ytick_3">
     <g id="line2d_23">
      <g>
       <use style="stroke:#000000;stroke-width:0.5;" x="72.0" xlink:href="#m728421d6d4" y="236.699060062"/>
      </g>
     </g>
     <g id="line2d_24">
      <g>
       <use style="stroke:#000000;stroke-width:0.5;" x="518.4" xlink:href="#mcb0005524f" y="236.699060062"/>
      </g>
     </g>
     <g id="text_11">
      <!-- 4000 -->
      <defs>
       <path d="
M37.7969 64.3125
L12.8906 25.3906
L37.7969 25.3906
z

M35.2031 72.9062
L47.6094 72.9062
L47.6094 25.3906
L58.0156 25.3906
L58.0156 17.1875
L47.6094 17.1875
L47.6094 0
L37.7969 0
L37.7969 17.1875
L4.89062 17.1875
L4.89062 26.7031
z
" id="BitstreamVeraSans-Roman-34"/>
      </defs>
      <g transform="translate(38.84375 240.010310062)scale(0.12 -0.12)">
       <use xlink:href="#BitstreamVeraSans-Roman-34"/>
       <use x="63.623046875" xlink:href="#BitstreamVeraSans-Roman-30"/>
       <use x="127.24609375" xlink:href="#BitstreamVeraSans-Roman-30"/>
       <use x="190.869140625" xlink:href="#BitstreamVeraSans-Roman-30"/>
      </g>
     </g>
    </g>
    <g id="ytick_4">
     <g id="line2d_25">
      <g>
       <use style="stroke:#000000;stroke-width:0.5;" x="72.0" xlink:href="#m728421d6d4" y="193.137812862"/>
      </g>
     </g>
     <g id="line2d_26">
      <g>
       <use style="stroke:#000000;stroke-width:0.5;" x="518.4" xlink:href="#mcb0005524f" y="193.137812862"/>
      </g>
     </g>
     <g id="text_12">
      <!-- 5000 -->
      <g transform="translate(39.183125 196.449062862)scale(0.12 -0.12)">
       <use xlink:href="#BitstreamVeraSans-Roman-35"/>
       <use x="63.623046875" xlink:href="#BitstreamVeraSans-Roman-30"/>
       <use x="127.24609375" xlink:href="#BitstreamVeraSans-Roman-30"/>
       <use x="190.869140625" xlink:href="#BitstreamVeraSans-Roman-30"/>
      </g>
     </g>
    </g>
    <g id="ytick_5">
     <g id="line2d_27">
      <g>
       <use style="stroke:#000000;stroke-width:0.5;" x="72.0" xlink:href="#m728421d6d4" y="149.576565662"/>
      </g>
     </g>
     <g id="line2d_28">
      <g>
       <use style="stroke:#000000;stroke-width:0.5;" x="518.4" xlink:href="#mcb0005524f" y="149.576565662"/>
      </g>
     </g>
     <g id="text_13">
      <!-- 6000 -->
      <g transform="translate(39.095 152.887815662)scale(0.12 -0.12)">
       <use xlink:href="#BitstreamVeraSans-Roman-36"/>
       <use x="63.623046875" xlink:href="#BitstreamVeraSans-Roman-30"/>
       <use x="127.24609375" xlink:href="#BitstreamVeraSans-Roman-30"/>
       <use x="190.869140625" xlink:href="#BitstreamVeraSans-Roman-30"/>
      </g>
     </g>
    </g>
    <g id="ytick_6">
     <g id="line2d_29">
      <g>
       <use style="stroke:#000000;stroke-width:0.5;" x="72.0" xlink:href="#m728421d6d4" y="106.015318462"/>
      </g>
     </g>
     <g id="line2d_30">
      <g>
       <use style="stroke:#000000;stroke-width:0.5;" x="518.4" xlink:href="#mcb0005524f" y="106.015318462"/>
      </g>
     </g>
     <g id="text_14">
      <!-- 7000 -->
      <defs>
       <path d="
M8.20312 72.9062
L55.0781 72.9062
L55.0781 68.7031
L28.6094 0
L18.3125 0
L43.2188 64.5938
L8.20312 64.5938
z
" id="BitstreamVeraSans-Roman-37"/>
      </defs>
      <g transform="translate(39.24125 109.326568462)scale(0.12 -0.12)">
       <use xlink:href="#BitstreamVeraSans-Roman-37"/>
       <use x="63.623046875" xlink:href="#BitstreamVeraSans-Roman-30"/>
       <use x="127.24609375" xlink:href="#BitstreamVeraSans-Roman-30"/>
       <use x="190.869140625" xlink:href="#BitstreamVeraSans-Roman-30"/>
      </g>
     </g>
    </g>
    <g id="ytick_7">
     <g id="line2d_31">
      <g>
       <use style="stroke:#000000;stroke-width:0.5;" x="72.0" xlink:href="#m728421d6d4" y="62.4540712624"/>
      </g>
     </g>
     <g id="line2d_32">
      <g>
       <use style="stroke:#000000;stroke-width:0.5;" x="518.4" xlink:href="#mcb0005524f" y="62.4540712624"/>
      </g>
     </g>
     <g id="text_15">
      <!-- 8000 -->
      <g transform="translate(39.070625 65.7653212624)scale(0.12 -0.12)">
       <use xlink:href="#BitstreamVeraSans-Roman-38"/>
       <use x="63.623046875" xlink:href="#BitstreamVeraSans-Roman-30"/>
       <use x="127.24609375" xlink:href="#BitstreamVeraSans-Roman-30"/>
       <use x="190.869140625" xlink:href="#BitstreamVeraSans-Roman-30"/>
      </g>
     </g>
    </g>
   </g>
   <g id="text_16">
    <!-- Silbererz -->
    <defs>
     <path d="
M9.42188 75.9844
L18.4062 75.9844
L18.4062 0
L9.42188 0
z
" id="BitstreamVeraSans-Roman-6c"/>
     <path d="
M5.51562 54.6875
L48.1875 54.6875
L48.1875 46.4844
L14.4062 7.17188
L48.1875 7.17188
L48.1875 0
L4.29688 0
L4.29688 8.20312
L38.0938 47.5156
L5.51562 47.5156
z
" id="BitstreamVeraSans-Roman-7a"/>
     <path d="
M53.5156 70.5156
L53.5156 60.8906
Q47.9062 63.5781 42.9219 64.8906
Q37.9375 66.2188 33.2969 66.2188
Q25.25 66.2188 20.875 63.0938
Q16.5 59.9688 16.5 54.2031
Q16.5 49.3594 19.4062 46.8906
Q22.3125 44.4375 30.4219 42.9219
L36.375 41.7031
Q47.4062 39.5938 52.6562 34.2969
Q57.9062 29 57.9062 20.125
Q57.9062 9.51562 50.7969 4.04688
Q43.7031 -1.42188 29.9844 -1.42188
Q24.8125 -1.42188 18.9688 -0.25
Q13.1406 0.921875 6.89062 3.21875
L6.89062 13.375
Q12.8906 10.0156 18.6562 8.29688
Q24.4219 6.59375 29.9844 6.59375
Q38.4219 6.59375 43.0156 9.90625
Q47.6094 13.2344 47.6094 19.3906
Q47.6094 24.75 44.3125 27.7812
Q41.0156 30.8125 33.5 32.3281
L27.4844 33.5
Q16.4531 35.6875 11.5156 40.375
Q6.59375 45.0625 6.59375 53.4219
Q6.59375 63.0938 13.4062 68.6562
Q20.2188 74.2188 32.1719 74.2188
Q37.3125 74.2188 42.625 73.2812
Q47.9531 72.3594 53.5156 70.5156" id="BitstreamVeraSans-Roman-53"/>
     <path d="
M9.42188 54.6875
L18.4062 54.6875
L18.4062 0
L9.42188 0
z

M9.42188 75.9844
L18.4062 75.9844
L18.4062 64.5938
L9.42188 64.5938
z
" id="BitstreamVeraSans-Roman-69"/>
     <path d="
M56.2031 29.5938
L56.2031 25.2031
L14.8906 25.2031
Q15.4844 15.9219 20.4844 11.0625
Q25.4844 6.20312 34.4219 6.20312
Q39.5938 6.20312 44.4531 7.46875
Q49.3125 8.73438 54.1094 11.2812
L54.1094 2.78125
Q49.2656 0.734375 44.1875 -0.34375
Q39.1094 -1.42188 33.8906 -1.42188
Q20.7969 -1.42188 13.1562 6.1875
Q5.51562 13.8125 5.51562 26.8125
Q5.51562 40.2344 12.7656 48.1094
Q20.0156 56 32.3281 56
Q43.3594 56 49.7812 48.8906
Q56.2031 41.7969 56.2031 29.5938
M47.2188 32.2344
Q47.125 39.5938 43.0938 43.9844
Q39.0625 48.3906 32.4219 48.3906
Q24.9062 48.3906 20.3906 44.1406
Q15.875 39.8906 15.1875 32.1719
z
" id="BitstreamVeraSans-Roman-65"/>
     <path d="
M41.1094 46.2969
Q39.5938 47.1719 37.8125 47.5781
Q36.0312 48 33.8906 48
Q26.2656 48 22.1875 43.0469
Q18.1094 38.0938 18.1094 28.8125
L18.1094 0
L9.07812 0
L9.07812 54.6875
L18.1094 54.6875
L18.1094 46.1875
Q20.9531 51.1719 25.4844 53.5781
Q30.0312 56 36.5312 56
Q37.4531 56 38.5781 55.875
Q39.7031 55.7656 41.0625 55.5156
z
" id="BitstreamVeraSans-Roman-72"/>
     <path d="
M48.6875 27.2969
Q48.6875 37.2031 44.6094 42.8438
Q40.5312 48.4844 33.4062 48.4844
Q26.2656 48.4844 22.1875 42.8438
Q18.1094 37.2031 18.1094 27.2969
Q18.1094 17.3906 22.1875 11.75
Q26.2656 6.10938 33.4062 6.10938
Q40.5312 6.10938 44.6094 11.75
Q48.6875 17.3906 48.6875 27.2969
M18.1094 46.3906
Q20.9531 51.2656 25.2656 53.625
Q29.5938 56 35.5938 56
Q45.5625 56 51.7812 48.0938
Q58.0156 40.1875 58.0156 27.2969
Q58.0156 14.4062 51.7812 6.48438
Q45.5625 -1.42188 35.5938 -1.42188
Q29.5938 -1.42188 25.2656 0.953125
Q20.9531 3.32812 18.1094 8.20312
L18.1094 0
L9.07812 0
L9.07812 75.9844
L18.1094 75.9844
z
" id="BitstreamVeraSans-Roman-62"/>
    </defs>
    <g transform="translate(456.8895 38.2)scale(0.144 -0.144)">
     <use xlink:href="#BitstreamVeraSans-Roman-53"/>
     <use x="63.4765625" xlink:href="#BitstreamVeraSans-Roman-69"/>
     <use x="91.259765625" xlink:href="#BitstreamVeraSans-Roman-6c"/>
     <use x="119.04296875" xlink:href="#BitstreamVeraSans-Roman-62"/>
     <use x="182.51953125" xlink:href="#BitstreamVeraSans-Roman-65"/>
     <use x="244.04296875" xlink:href="#BitstreamVeraSans-Roman-72"/>
     <use x="282.90625" xlink:href="#BitstreamVeraSans-Roman-65"/>
     <use x="344.4296875" xlink:href="#BitstreamVeraSans-Roman-72"/>
     <use x="385.54296875" xlink:href="#BitstreamVeraSans-Roman-7a"/>
    </g>
   </g>
   <g id="legend_1">
    <g id="patch_7">
     <path d="
M123.942 423.616
L466.458 423.616
L466.458 398.16
L123.942 398.16
z
" style="fill:#ffffff;stroke:#000000;stroke-linejoin:miter;"/>
    </g>
    <g id="line2d_33">
     <path d="
M134.022 409.822
L154.182 409.822" style="fill:none;stroke:#ff0000;stroke-linecap:square;"/>
    </g>
    <g id="line2d_34"/>
    <g id="text_17">
     <!-- Schwarzmarktpreis -->
     <defs>
      <path d="
M52 44.1875
Q55.375 50.25 60.0625 53.125
Q64.75 56 71.0938 56
Q79.6406 56 84.2812 50.0156
Q88.9219 44.0469 88.9219 33.0156
L88.9219 0
L79.8906 0
L79.8906 32.7188
Q79.8906 40.5781 77.0938 44.375
Q74.3125 48.1875 68.6094 48.1875
Q61.625 48.1875 57.5625 43.5469
Q53.5156 38.9219 53.5156 30.9062
L53.5156 0
L44.4844 0
L44.4844 32.7188
Q44.4844 40.625 41.7031 44.4062
Q38.9219 48.1875 33.1094 48.1875
Q26.2188 48.1875 22.1562 43.5312
Q18.1094 38.875 18.1094 30.9062
L18.1094 0
L9.07812 0
L9.07812 54.6875
L18.1094 54.6875
L18.1094 46.1875
Q21.1875 51.2188 25.4844 53.6094
Q29.7812 56 35.6875 56
Q41.6562 56 45.8281 52.9688
Q50 49.9531 52 44.1875" id="BitstreamVeraSans-Roman-6d"/>
      <path d="
M9.07812 75.9844
L18.1094 75.9844
L18.1094 31.1094
L44.9219 54.6875
L56.3906 54.6875
L27.3906 29.1094
L57.625 0
L45.9062 0
L18.1094 26.7031
L18.1094 0
L9.07812 0
z
" id="BitstreamVeraSans-Roman-6b"/>
      <path d="
M54.8906 33.0156
L54.8906 0
L45.9062 0
L45.9062 32.7188
Q45.9062 40.4844 42.875 44.3281
Q39.8438 48.1875 33.7969 48.1875
Q26.5156 48.1875 22.3125 43.5469
Q18.1094 38.9219 18.1094 30.9062
L18.1094 0
L9.07812 0
L9.07812 75.9844
L18.1094 75.9844
L18.1094 46.1875
Q21.3438 51.125 25.7031 53.5625
Q30.0781 56 35.7969 56
Q45.2188 56 50.0469 50.1719
Q54.8906 44.3438 54.8906 33.0156" id="BitstreamVeraSans-Roman-68"/>
      <path d="
M4.20312 54.6875
L13.1875 54.6875
L24.4219 12.0156
L35.5938 54.6875
L46.1875 54.6875
L57.4219 12.0156
L68.6094 54.6875
L77.5938 54.6875
L63.2812 0
L52.6875 0
L40.9219 44.8281
L29.1094 0
L18.5 0
z
" id="BitstreamVeraSans-Roman-77"/>
      <path d="
M34.2812 27.4844
Q23.3906 27.4844 19.1875 25
Q14.9844 22.5156 14.9844 16.5
Q14.9844 11.7188 18.1406 8.90625
Q21.2969 6.10938 26.7031 6.10938
Q34.1875 6.10938 38.7031 11.4062
Q43.2188 16.7031 43.2188 25.4844
L43.2188 27.4844
z

M52.2031 31.2031
L52.2031 0
L43.2188 0
L43.2188 8.29688
Q40.1406 3.32812 35.5469 0.953125
Q30.9531 -1.42188 24.3125 -1.42188
Q15.9219 -1.42188 10.9531 3.29688
Q6 8.01562 6 15.9219
Q6 25.1406 12.1719 29.8281
Q18.3594 34.5156 30.6094 34.5156
L43.2188 34.5156
L43.2188 35.4062
Q43.2188 41.6094 39.1406 45
Q35.0625 48.3906 27.6875 48.3906
Q23 48.3906 18.5469 47.2656
Q14.1094 46.1406 10.0156 43.8906
L10.0156 52.2031
Q14.9375 54.1094 19.5781 55.0469
Q24.2188 56 28.6094 56
Q40.4844 56 46.3438 49.8438
Q52.2031 43.7031 52.2031 31.2031" id="BitstreamVeraSans-Roman-61"/>
      <path d="
M44.2812 53.0781
L44.2812 44.5781
Q40.4844 46.5312 36.375 47.5
Q32.2812 48.4844 27.875 48.4844
Q21.1875 48.4844 17.8438 46.4375
Q14.5 44.3906 14.5 40.2812
Q14.5 37.1562 16.8906 35.375
Q19.2812 33.5938 26.5156 31.9844
L29.5938 31.2969
Q39.1562 29.25 43.1875 25.5156
Q47.2188 21.7812 47.2188 15.0938
Q47.2188 7.46875 41.1875 3.01562
Q35.1562 -1.42188 24.6094 -1.42188
Q20.2188 -1.42188 15.4531 -0.5625
Q10.6875 0.296875 5.42188 2
L5.42188 11.2812
Q10.4062 8.6875 15.2344 7.39062
Q20.0625 6.10938 24.8125 6.10938
Q31.1562 6.10938 34.5625 8.28125
Q37.9844 10.4531 37.9844 14.4062
Q37.9844 18.0625 35.5156 20.0156
Q33.0625 21.9688 24.7031 23.7812
L21.5781 24.5156
Q13.2344 26.2656 9.51562 29.9062
Q5.8125 33.5469 5.8125 39.8906
Q5.8125 47.6094 11.2812 51.7969
Q16.75 56 26.8125 56
Q31.7812 56 36.1719 55.2656
Q40.5781 54.5469 44.2812 53.0781" id="BitstreamVeraSans-Roman-73"/>
      <path d="
M18.1094 8.20312
L18.1094 -20.7969
L9.07812 -20.7969
L9.07812 54.6875
L18.1094 54.6875
L18.1094 46.3906
Q20.9531 51.2656 25.2656 53.625
Q29.5938 56 35.5938 56
Q45.5625 56 51.7812 48.0938
Q58.0156 40.1875 58.0156 27.2969
Q58.0156 14.4062 51.7812 6.48438
Q45.5625 -1.42188 35.5938 -1.42188
Q29.5938 -1.42188 25.2656 0.953125
Q20.9531 3.32812 18.1094 8.20312
M48.6875 27.2969
Q48.6875 37.2031 44.6094 42.8438
Q40.5312 48.4844 33.4062 48.4844
Q26.2656 48.4844 22.1875 42.8438
Q18.1094 37.2031 18.1094 27.2969
Q18.1094 17.3906 22.1875 11.75
Q26.2656 6.10938 33.4062 6.10938
Q40.5312 6.10938 44.6094 11.75
Q48.6875 17.3906 48.6875 27.2969" id="BitstreamVeraSans-Roman-70"/>
     </defs>
     <g transform="translate(170.022375 414.86175)scale(0.144 -0.144)">
      <use xlink:href="#BitstreamVeraSans-Roman-53"/>
      <use x="63.4765625" xlink:href="#BitstreamVeraSans-Roman-63"/>
      <use x="118.45703125" xlink:href="#BitstreamVeraSans-Roman-68"/>
      <use x="181.8359375" xlink:href="#BitstreamVeraSans-Roman-77"/>
      <use x="263.623046875" xlink:href="#BitstreamVeraSans-Roman-61"/>
      <use x="324.90234375" xlink:href="#BitstreamVeraSans-Roman-72"/>
      <use x="366.015625" xlink:href="#BitstreamVeraSans-Roman-7a"/>
      <use x="418.505859375" xlink:href="#BitstreamVeraSans-Roman-6d"/>
      <use x="515.91796875" xlink:href="#BitstreamVeraSans-Roman-61"/>
      <use x="577.197265625" xlink:href="#BitstreamVeraSans-Roman-72"/>
      <use x="618.310546875" xlink:href="#BitstreamVeraSans-Roman-6b"/>
      <use x="676.220703125" xlink:href="#BitstreamVeraSans-Roman-74"/>
      <use x="715.4296875" xlink:href="#BitstreamVeraSans-Roman-70"/>
      <use x="778.90625" xlink:href="#BitstreamVeraSans-Roman-72"/>
      <use x="817.76953125" xlink:href="#BitstreamVeraSans-Roman-65"/>
      <use x="879.29296875" xlink:href="#BitstreamVeraSans-Roman-69"/>
      <use x="907.076171875" xlink:href="#BitstreamVeraSans-Roman-73"/>
     </g>
    </g>
    <g id="line2d_35">
     <path d="
M339.609 409.822
L359.769 409.822" style="fill:none;stroke:#008000;stroke-linecap:square;"/>
    </g>
    <g id="line2d_36"/>
    <g id="text_18">
     <!-- Normalpreis -->
     <g transform="translate(375.609375 414.86175)scale(0.144 -0.144)">
      <use xlink:href="#BitstreamVeraSans-Roman-4e"/>
      <use x="74.8046875" xlink:href="#BitstreamVeraSans-Roman-6f"/>
      <use x="135.986328125" xlink:href="#BitstreamVeraSans-Roman-72"/>
      <use x="175.349609375" xlink:href="#BitstreamVeraSans-Roman-6d"/>
      <use x="272.76171875" xlink:href="#BitstreamVeraSans-Roman-61"/>
      <use x="334.041015625" xlink:href="#BitstreamVeraSans-Roman-6c"/>
      <use x="361.82421875" xlink:href="#BitstreamVeraSans-Roman-70"/>
      <use x="425.30078125" xlink:href="#BitstreamVeraSans-Roman-72"/>
      <use x="464.1640625" xlink:href="#BitstreamVeraSans-Roman-65"/>
      <use x="525.6875" xlink:href="#BitstreamVeraSans-Roman-69"/>
      <use x="553.470703125" xlink:href="#BitstreamVeraSans-Roman-73"/>
     </g>
    </g>
   </g>
  </g>
 </g>
 <defs>
  <clipPath id="pcb2bf987bf">
   <rect height="302.4" width="446.4" x="72.0" y="43.2"/>
  </clipPath>
 </defs>
</svg>
