<?xml version="1.0" encoding="utf-8" standalone="no"?>
<!DOCTYPE svg PUBLIC "-//W3C//DTD SVG 1.1//EN"
  "http://www.w3.org/Graphics/SVG/1.1/DTD/svg11.dtd">
<!-- Created with matplotlib (http://matplotlib.org/) -->
<svg height="432pt" version="1.1" viewBox="0 0 576 432" width="576pt" xmlns="http://www.w3.org/2000/svg" xmlns:xlink="http://www.w3.org/1999/xlink">
 <defs>
  <style type="text/css">
*{stroke-linecap:butt;stroke-linejoin:round;}
  </style>
 </defs>
 <g id="figure_1">
  <g id="patch_1">
   <path d="
M0 432
L576 432
L576 0
L0 0
z
" style="fill:#ffffff;"/>
  </g>
  <g id="axes_1">
   <g id="patch_2">
    <path d="
M72 345.6
L518.4 345.6
L518.4 43.2
L72 43.2
z
" style="fill:#ffffff;"/>
   </g>
   <g id="line2d_1">
    <path clip-path="url(#pcb2bf987bf)" d="
M72 101.879
L72.2551 101.879
L72.3826 103.796
L72.6377 101.879
L72.7653 92.1505
L73.0203 94.134
L73.1479 87.7182
L73.403 87.7182
L73.5305 98.0234
L73.9131 98.0234
L74.1682 99.9514
L74.2958 115.199
L74.6784 114.755
L74.9335 114.755
L75.3161 115.199
L75.4437 116.524
L75.6987 114.456
L75.8263 114.456
L76.0814 116.085
L76.2089 114.235
L76.464 116.307
L77.2295 116.304
L77.6119 112.592
L78.5047 120.502
L78.7598 118.667
L78.8873 118.667
L79.1426 120.497
L79.2699 120.296
L79.9077 120.282
L80.0352 131.272
L80.2903 131.272
L80.6729 123.58
L81.0555 123.58
L81.1831 123.177
L81.5657 113.193
L81.8208 118.744
L81.9483 115.055
L82.331 109.093
L82.7136 109.093
L82.9687 107.664
L83.3513 107.664
L83.4789 105.769
L84.1166 105.769
L84.2441 107.661
L84.4992 107.661
L84.6267 105.669
L84.882 105.669
L85.2647 103.763
L85.392 103.763
L85.6473 101.846
L85.7746 105.658
L86.1573 105.654
L86.4123 103.75
L86.795 103.752
L86.9225 105.658
L87.1776 114.633
L87.5602 114.633
L87.6878 98.799
L88.0704 114.988
L88.3255 113.126
L88.453 111.254
L88.7081 109.368
L88.8357 113.115
L89.0907 113.126
L89.0907 113.126
L89.2183 109.88
L89.4734 109.878
L89.6009 113.126
L89.9835 105.603
L90.2386 103.69
L90.2386 103.69
L92.1518 103.695
L92.7895 107.32
L92.917 107.296
L93.5547 103.353
L94.4475 102.068
L95.0853 90.3887
L95.2128 90.3887
L95.8505 94.3224
L95.9781 100.96
L96.6158 105.392
L98.1463 105.447
L98.2738 107.974
L98.9115 104.173
L99.0391 104.155
L99.6768 105.414
L100.442 101.401
L100.57 101.401
L101.207 103.508
L101.973 64.3156
L102.1 64.3156
L102.738 66.4209
L103.503 64.3156
L103.631 66.4209
L104.268 109.202
L105.034 107.309
L105.799 109.202
L106.564 109.199
L107.33 123.58
L108.095 115.442
L108.222 115.442
L108.86 109.847
L109.625 111.706
L109.753 111.54
L110.39 109.833
L110.518 109.833
L111.156 104.151
L111.283 104.151
L111.921 100.317
L112.048 104.151
L115.109 104.151
L116.64 106.048
L117.278 106.053
L118.043 104.151
L118.171 106.053
L119.573 106.053
L120.339 104.14
L121.104 106.05
L121.232 106.05
L121.869 102.234
L122.635 104.151
L122.762 104.151
L123.4 106.055
L124.293 106.053
L124.93 95.8626
L126.461 111.697
L126.461 111.697
L127.226 111.704
L127.354 107.941
L127.354 107.941
L127.864 103.231
L127.864 103.231
L127.991 103.231
L128.757 107.941
L130.287 107.938
L130.415 116.528
L131.052 97.5912
L131.818 114.678
L132.583 116.138
L132.583 116.138
L134.113 126.911
L134.369 123.308
L134.879 119.642
L135.644 123.303
L136.409 123.301
L136.537 119.651
L137.174 121.477
L137.94 117.811
L138.705 117.63
L139.47 115.786
L139.598 115.786
L140.235 117.63
L141.001 113.935
L141.766 115.786
L142.531 115.786
L143.296 115.961
L144.062 111.542
L144.189 109.669
L144.827 117.811
L145.592 114.478
L145.72 114.478
L146.357 109.769
L146.485 116.307
L147.25 110.223
L147.888 114.434
L148.653 112.572
L149.419 116.304
L149.546 116.304
L150.184 114.456
L150.949 112.595
L151.077 114.423
L151.714 110.722
L152.48 115.154
L153.245 111.42
L154.01 111.398
L154.775 103.836
L155.541 99.9957
L155.541 99.9957
L156.306 105.747
L157.071 101.758
L157.837 95.9513
L157.964 95.9513
L158.602 92.0375
L160.132 88.0839
L161.025 88.0839
L162.428 86.0893
L163.193 90.0673
L163.321 90.0673
L163.958 95.949
L164.086 95.949
L164.724 94.001
L165.489 83.2859
L166.254 79.2414
L167.912 94.001
L168.55 97.3807
L169.443 97.8771
L170.08 95.938
L170.846 93.99
L170.973 93.99
L171.611 95.9513
L172.376 94.6216
L173.907 94.6326
L174.672 92.6713
L174.8 92.6713
L176.203 90.6879
L176.968 75.3964
L177.095 75.3964
L177.733 89.9322
L178.498 92.6669
L180.029 92.6691
L180.156 88.7155
L180.794 90.0341
L180.922 76.6374
L181.559 88.0484
L182.325 90.0341
L182.452 85.5021
L183.09 92.627
L183.855 88.6712
L183.983 84.6821
L184.62 90.6546
L185.386 94.5684
L186.151 86.6766
L186.916 92.627
L188.447 88.6468
L189.212 92.6248
L189.339 92.6248
L190.742 74.1442
L191.508 67.9279
L191.508 67.9279
L193.038 87.7182
L193.803 87.4966
L194.569 92.1483
L195.334 84.1945
L195.461 84.1945
L196.099 88.1947
L196.864 87.7182
L198.395 92.1483
L198.395 92.1483
L199.16 90.1782
L200.691 87.7182
L201.456 85.7237
L202.221 89.9344
L202.987 87.7182
L204.517 88.1725
L205.282 83.7513
L205.41 85.7569
L206.048 91.7029
L206.175 89.7349
L206.303 89.7349
L206.813 96.574
L206.813 96.574
L206.94 94.6216
L207.578 98.799
L209.236 98.799
L209.236 98.799
L209.746 98.4311
L210.001 100.359
L210.767 104.195
L211.022 103.896
L211.659 96.5829
L211.915 97.6909
L212.042 95.7496
L212.425 95.7496
L212.68 100.051
L212.807 100.051
L213.062 98.1231
L213.445 96.184
L213.573 100.051
L213.828 101.015
L213.828 101.015
L213.955 101.015
L214.21 99.0871
L214.338 99.0871
L214.593 97.148
L214.72 99.0871
L215.486 99.0871
L215.741 97.148
L217.016 97.1435
L217.271 95.1978
L217.399 93.2254
L217.654 93.2365
L217.654 93.2365
L217.781 100.051
L218.037 103.896
L218.164 101.979
L218.419 100.051
L218.419 100.051
L218.547 105.445
L218.802 103.542
L218.929 99.6966
L219.184 105.443
L219.312 103.542
L219.567 103.542
L219.95 99.6966
L220.077 101.015
L220.332 101.625
L220.46 103.539
L220.46 103.539
L220.587 101.625
L220.715 103.539
L221.225 103.542
L221.608 107.774
L221.863 105.875
L222.245 103.974
L222.373 102.057
L223.011 102.055
L223.011 102.055
L223.393 109.869
L223.521 109.869
L223.776 107.985
L223.904 106.09
L224.159 109.869
L224.286 109.88
L224.541 104.195
L224.669 109.88
L224.924 212.151
L225.051 196.018
L225.434 145.338
L225.689 140.186
L225.817 140.009
L225.817 140.009
L226.327 130.04
L226.327 130.04
L226.455 130.047
L226.965 114.678
L227.22 120.958
L227.347 120.958
L227.602 119.21
L227.602 119.21
L227.985 115.354
L228.112 111.631
L228.495 111.628
L228.75 109.558
L228.878 109.558
L229.133 105.778
L229.26 105.775
L229.515 103.874
L229.643 105.775
L229.898 103.874
L230.026 103.874
L230.281 87.7182
L230.408 105.769
L230.663 105.778
L230.663 105.778
L231.046 109.558
L231.939 109.558
L232.194 105.78
L232.321 107.675
L232.576 107.675
L232.704 109.558
L232.959 109.558
L232.959 109.558
L233.087 105.78
L233.342 107.675
L233.469 107.675
L233.724 109.558
L233.852 109.558
L234.107 110.223
L234.235 110.223
L234.49 107.664
L234.49 107.664
L234.617 108.34
L234.872 112.096
L235 110.223
L235.255 108.34
L235.255 108.34
L235.383 108.34
L235.637 106.445
L235.765 106.445
L236.02 108.34
L236.02 108.34
L236.148 112.094
L236.785 112.094
L236.913 114.656
L237.168 114.656
L237.296 110.921
L237.678 112.792
L237.933 110.921
L238.061 107.154
L238.316 107.154
L238.443 105.259
L238.699 107.154
L238.826 109.038
L239.209 108.883
L239.464 106.999
L239.591 106.999
L239.846 105.093
L239.974 105.093
L240.229 103.187
L240.357 101.27
L240.739 106.986
L241.122 106.986
L241.377 107.996
L241.504 107.996
L241.76 112.79
L241.887 110.921
L242.142 114.308
L242.653 114.308
L242.907 112.451
L243.035 112.351
L243.418 112.451
L243.673 112.451
L243.8 114.308
L244.055 112.451
L244.183 112.451
L244.438 110.578
L244.821 110.545
L244.948 112.096
L245.331 112.074
L245.586 106.09
L245.713 100.328
L245.968 107.985
L246.096 107.985
L246.351 105.953
L246.479 105.891
L246.734 102.046
L246.734 102.046
L246.861 98.1896
L247.116 100.118
L247.244 103.963
L247.499 105.647
L248.392 105.645
L248.647 105.447
L248.774 103.542
L249.03 105.636
L249.03 105.636
L250.177 105.667
L250.305 103.763
L250.56 103.763
L250.688 101.846
L250.943 103.763
L251.07 103.231
L251.325 101.314
L251.835 101.314
L252.091 105.667
L252.218 105.667
L252.473 101.846
L252.856 106.09
L254.386 106.09
L254.514 104.184
L254.769 98.4223
L254.896 100.35
L254.896 100.35
L255.279 108.772
L255.279 108.772
L255.534 108.772
L255.662 108.648
L255.662 108.648
L257.065 108.643
L257.575 103.087
L257.83 104.991
L258.723 104.969
L258.85 106.888
L258.978 106.888
L259.36 109.855
L259.36 109.855
L259.488 105.769
L259.743 105.769
L259.743 105.769
L259.871 103.863
L260.126 105.769
L260.508 109.875
L260.636 109.875
L260.891 106.002
L261.019 107.996
L261.274 106.101
L261.401 107.996
L261.656 107.994
L261.784 106.101
L262.039 106.101
L262.166 114.312
L262.421 114.308
L262.549 114.091
L262.932 114.084
L263.187 110.135
L263.314 115.199
L263.569 109.437
L263.569 109.437
L263.697 109.78
L263.952 97.8017
L264.08 111.653
L264.335 113.423
L264.335 113.423
L264.845 113.426
L265.227 187.434
L265.483 174.148
L265.61 173.705
L265.738 171.932
L265.993 126.689
L266.248 117.603
L266.375 117.603
L266.758 117.266
L267.141 117.266
L267.396 111.706
L267.523 111.706
L267.778 109.835
L267.906 111.706
L268.161 111.706
L268.288 109.835
L268.544 107.952
L268.671 103.841
L268.926 103.841
L269.054 111.706
L269.691 111.706
L269.819 109.835
L270.074 113.57
L270.202 111.708
L270.457 111.708
L270.584 112.096
L270.967 112.092
L271.222 108.34
L271.605 110.223
L271.987 97.5801
L272.115 108.34
L272.37 104.539
L272.497 104.539
L272.752 108.772
L272.88 104.661
L273.135 102.755
L273.263 96.9707
L273.645 96.9707
L273.9 100.838
L274.028 100.838
L274.283 102.755
L274.411 100.838
L274.666 104.339
L275.431 104.335
L275.813 95.1955
L275.941 95.1978
L276.324 90.433
L276.579 83.7181
L276.706 90.433
L276.961 95.1978
L277.089 91.2641
L277.344 89.2917
L277.727 108.329
L278.109 102.301
L278.109 102.301
L278.237 108.107
L279.002 108.767
L279.257 106.788
L279.385 108.767
L279.64 106.877
L279.767 106.877
L280.022 97.292
L280.15 99.2312
L280.405 99.2312
L280.405 99.2312
L280.533 97.292
L280.788 99.2312
L280.915 95.3418
L281.298 95.3418
L281.553 95.5967
L281.68 91.1533
L281.936 95.3418
L282.318 104.98
L282.446 103.076
L282.701 104.893
L282.828 99.0871
L283.083 101.015
L283.211 99.0871
L283.466 103.076
L283.976 103.076
L284.231 101.159
L284.359 101.159
L284.614 103.076
L284.869 103.076
L285.379 111.981
L286.272 111.983
L286.527 110.113
L286.655 110.113
L286.91 111.874
L287.037 110.113
L287.42 102.522
L287.803 102.522
L288.058 100.605
L288.185 96.5829
L288.44 102.522
L288.568 111.985
L288.823 115.396
L289.333 115.389
L289.588 113.226
L289.716 113.226
L289.971 115.088
L290.098 115.088
L290.353 111.365
L290.481 111.365
L290.736 115.389
L291.119 115.391
L291.246 113.536
L291.501 113.536
L291.629 111.675
L291.884 111.675
L292.267 109.802
L292.394 109.802
L292.649 107.919
L292.649 107.919
L292.777 111.653
L293.159 111.675
L293.414 109.8
L293.414 109.8
L293.542 115.391
L293.797 120.739
L293.797 120.739
L293.925 120.739
L294.18 117.071
L294.18 117.071
L294.307 116.972
L294.562 115.121
L294.69 116.972
L294.945 115.219
L294.945 115.219
L295.072 111.498
L295.455 114.312
L295.838 118.523
L296.093 116.683
L296.475 112.971
L296.986 98.799
L297.368 116.683
L297.623 118.744
L297.751 118.744
L298.006 113.556
L298.133 87.7182
L298.389 104.184
L298.516 104.184
L298.771 102.578
L298.899 102.578
L299.154 98.7325
L299.536 88.926
L299.664 104.483
L299.919 102.578
L300.047 98.7325
L300.302 102.578
L300.302 102.578
L300.429 116.373
L300.812 116.373
L301.067 118.213
L301.195 116.373
L301.45 118.722
L301.577 123.166
L301.832 117.681
L301.96 117.681
L302.342 107.996
L302.597 107.996
L302.597 107.996
L302.98 106.101
L303.108 106.101
L303.235 104.195
L303.745 104.195
L303.873 116.528
L304.128 112.816
L304.128 112.816
L304.256 114.678
L304.511 114.678
L304.893 112.816
L305.659 112.816
L306.041 103.32
L306.424 103.32
L306.551 105.226
L306.806 103.298
L306.934 105.226
L307.317 105.281
L307.572 107.176
L307.699 105.281
L307.954 105.669
L308.082 103.763
L308.337 101.846
L308.464 99.9182
L308.72 99.9182
L308.72 99.9182
L308.847 100.681
L309.102 109.06
L309.23 107.176
L309.485 109.058
L309.612 105.27
L309.995 104.916
L310.25 104.916
L310.25 104.916
L310.378 105.27
L310.76 88.0728
L311.015 86.0783
L311.143 88.0728
L311.398 104.339
L311.525 104.339
L311.781 109.058
L312.163 109.058
L312.291 107.176
L312.546 105.27
L312.673 101.447
L312.928 107.163
L313.056 101.436
L313.311 95.6188
L313.821 103.231
L314.076 105.259
L314.204 105.259
L314.459 106.999
L314.587 106.999
L314.969 81.5019
L315.224 105.891
L315.352 106.556
L315.607 84.9369
L315.734 105.093
L315.989 107.176
L316.372 107.994
L316.5 112.428
L316.882 118.742
L317.137 116.905
L317.265 114.678
L317.52 114.678
L317.648 112.816
L318.03 112.814
L318.285 118.523
L318.413 118.521
L318.795 117.415
L319.816 117.304
L319.943 115.442
L320.198 104.173
L320.326 109.858
L320.709 113.59
L320.964 67.396
L320.964 67.396
L321.346 117.293
L321.729 117.681
L322.112 119.509
L322.239 119.509
L322.877 113.98
L323.387 113.98
L323.642 119.509
L323.77 115.83
L324.025 115.83
L324.025 115.83
L324.152 117.67
L324.535 117.67
L324.79 119.509
L325.173 119.516
L325.555 113.975
L325.683 113.98
L325.938 112.118
L326.066 110.245
L326.32 108.362
L326.448 110.241
L326.703 112.116
L326.831 110.245
L327.086 112.118
L327.213 108.362
L327.468 113.869
L327.979 113.969
L328.234 115.837
L328.361 115.839
L328.616 113.98
L328.744 112.118
L328.999 113.958
L329.381 113.958
L329.509 115.839
L330.657 115.832
L330.912 113.98
L331.04 115.832
L331.295 115.839
L331.422 113.98
L331.677 115.841
L331.805 115.841
L332.06 119.518
L332.825 119.518
L333.335 114.667
L333.59 118.357
L333.718 116.517
L334.101 119.518
L334.356 119.518
L334.483 119.132
L334.866 119.518
L338.309 119.518
L338.565 128.094
L338.692 123.177
L338.947 123.177
L339.075 121.36
L339.33 119.531
L339.457 128.094
L339.712 126.302
L340.605 126.302
L340.86 125.389
L341.371 125.389
L341.626 123.587
L341.753 125.386
L342.901 125.384
L343.284 116.262
L343.666 116.262
L343.921 123.576
L343.921 123.576
L344.304 123.576
L344.432 119.93
L344.687 121.756
L344.814 120.958
L345.197 116.528
L345.452 120.954
L345.452 120.954
L345.835 120.958
L345.962 119.132
L346.217 117.293
L346.345 117.293
L346.6 119.072
L346.727 125.386
L346.982 123.576
L346.982 123.576
L347.11 125.38
L347.365 121.758
L347.493 121.758
L347.748 119.93
L347.875 117.636
L348.13 119.93
L348.258 119.631
L348.513 118.102
L348.64 118.102
L348.896 116.262
L349.023 114.412
L349.278 112.55
L349.788 105.326
L350.043 105.015
L350.171 110.678
L350.426 108.794
L350.554 104.694
L350.936 114.412
L351.191 112.55
L351.319 110.678
L351.702 114.412
L351.957 111.121
L352.084 112.55
L352.339 118.102
L352.467 118.102
L352.722 116.262
L352.849 112.55
L353.104 110.678
L353.232 110.678
L353.487 100.86
L353.615 106.567
L353.87 106.567
L353.87 106.567
L354.252 114.412
L354.38 114.412
L354.635 112.55
L354.763 112.55
L355.145 121.758
L355.4 136.472
L355.4 136.472
L355.528 136.274
L355.91 136.469
L356.165 136.228
L356.165 136.228
L356.293 134.468
L358.971 134.464
L359.609 128.484
L360.119 128.484
L360.374 124.894
L360.502 132.706
L360.757 128.939
L360.885 128.939
L361.14 123.554
L361.267 123.554
L361.65 120.961
L361.905 121.736
L362.032 121.736
L362.288 125.36
L362.415 129.16
L362.67 125.581
L362.798 125.579
L363.053 127.133
L363.18 125.338
L363.435 125.338
L363.563 119.797
L363.818 121.603
L363.946 109.864
L364.201 109.864
L364.328 96.9042
L364.711 109.864
L365.476 109.88
L365.859 102.511
L366.114 104.417
L366.242 102.511
L366.496 96.8599
L366.624 98.799
L366.879 110.91
L367.007 125.338
L367.262 125.335
L367.389 125.171
L367.644 127.133
L367.772 127.133
L368.027 129.158
L368.537 129.081
L368.792 125.393
L369.175 109.88
L369.557 129.085
L369.685 128.939
L369.94 128.939
L370.068 127.166
L370.45 118
L370.705 116.085
L371.088 109.88
L371.216 114.235
L371.471 114.235
L371.598 123.175
L371.853 121.36
L371.981 121.36
L372.363 115.852
L372.619 113.98
L372.746 112.129
L373.001 115.841
L373.511 115.852
L373.766 123.172
L373.766 123.172
L374.149 117.692
L374.277 117.692
L374.532 115.848
L374.659 112.129
L374.914 115.852
L375.424 108.384
L375.807 122.731
L376.19 122.731
L376.445 120.916
L376.572 119.066
L376.955 119.066
L377.338 111.653
L377.72 111.653
L377.848 109.78
L378.103 119.066
L378.358 119.066
L378.485 122.731
L379.123 122.731
L379.251 118.866
L379.506 118.866
L379.633 117.027
L379.888 118.866
L380.016 118.866
L380.271 113.315
L380.654 111.453
L380.781 117.027
L381.036 115.174
L381.164 115.174
L381.419 116.528
L381.547 114.678
L381.802 120.595
L382.184 120.517
L382.312 118.756
L382.567 120.584
L382.694 120.584
L382.949 118.756
L383.077 118.756
L383.332 116.905
L383.46 116.905
L383.715 115.974
L384.225 104.716
L384.48 106.611
L384.608 118.753
L384.863 118.753
L385.245 116.916
L385.628 116.916
L385.755 115.066
L386.011 116.914
L386.138 115.066
L386.903 114.977
L387.158 113.115
L387.286 113.113
L387.541 111.243
L387.924 111.243
L388.051 107.486
L388.306 105.669
L388.306 105.669
L388.689 114.268
L388.816 112.404
L389.837 112.406
L389.964 114.268
L390.219 110.534
L390.347 110.534
L390.602 114.268
L390.73 114.268
L390.985 111.963
L391.112 111.963
L391.367 113.814
L391.495 113.814
L391.75 111.941
L391.878 115.066
L392.133 116.539
L392.26 109.104
L392.515 112.473
L392.643 112.473
L392.898 102.068
L393.025 110.578
L393.408 109.725
L393.663 116.905
L393.791 116.839
L394.046 110.223
L394.173 110.223
L394.173 110.223
L394.556 114.897
L394.811 114.897
L394.939 113.038
L395.321 113.036
L395.576 114.897
L395.704 114.855
L395.959 112.451
L396.086 112.451
L396.341 110.578
L396.469 110.578
L396.724 108.694
L396.852 108.694
L397.107 112.451
L397.234 112.451
L397.489 108.694
L397.617 114.899
L397.872 111.165
L398 113.038
L398.255 107.664
L398.382 109.293
L398.637 111.11
L398.765 111.11
L399.02 109.126
L399.147 109.237
L399.403 111.11
L399.53 111.11
L399.913 101.392
L400.168 101.392
L400.295 99.4639
L400.55 99.4639
L400.678 101.39
L400.933 97.5247
L401.061 101.392
L401.316 101.39
L401.698 114.897
L401.826 114.755
L402.081 114.755
L402.208 111.021
L402.464 112.894
L402.591 110.99
L402.846 112.894
L403.229 107.232
L403.356 107.232
L403.611 105.215
L403.739 111.021
L403.994 111.021
L404.122 109.148
L404.504 114.751
L405.652 114.749
L405.907 120.517
L406.035 118.689
L406.29 116.85
L406.417 116.85
L406.672 118.682
L406.8 118.682
L407.055 116.839
L407.183 114.312
L407.438 114.988
L407.565 114.988
L407.82 113.082
L407.948 113.328
L408.203 118.685
L408.331 118.687
L408.586 116.85
L408.713 120.515
L409.096 120.584
L409.351 115.077
L409.478 116.927
L409.733 116.927
L409.861 115.077
L410.116 113.215
L410.244 115.077
L410.499 120.595
L410.626 120.595
L410.881 120.958
L411.009 127.609
L411.392 127.381
L411.647 127.381
L411.774 125.393
L412.412 125.382
L412.539 123.576
L412.667 123.576
L413.05 120.961
L414.07 120.961
L414.325 119.132
L414.708 119.132
L414.835 117.293
L415.09 115.442
L415.218 115.442
L415.473 117.293
L415.983 117.293
L416.238 115.343
L416.366 117.193
L416.621 109.88
L416.748 112.451
L417.131 104.184
L417.386 117.293
L417.896 110.223
L418.151 112.094
L418.534 107.996
L418.661 112.094
L418.917 110.179
L419.044 108.295
L419.299 108.295
L419.427 108.007
L419.682 112.094
L419.809 112.094
L420.064 108.34
L420.192 103.542
L420.447 111.243
L420.575 111.243
L420.957 113.113
L421.212 111.243
L421.34 111.243
L421.595 107.486
L421.723 109.37
L421.978 111.243
L422.105 111.243
L422.36 109.37
L422.488 109.37
L422.743 113.115
L422.87 112.085
L423.125 112.085
L423.253 114.97
L423.636 114.973
L423.891 113.115
L424.018 103.542
L424.273 111.243
L424.784 111.243
L425.039 109.37
L425.421 109.37
L425.549 111.243
L425.804 113.093
L426.187 102.121
L426.314 100.195
L426.569 100.195
L426.697 107.996
L427.462 107.994
L427.717 106.101
L428.227 113.115
L428.482 114.968
L428.61 114.968
L428.865 113.104
L428.992 113.104
L429.248 114.964
L429.375 111.232
L429.758 111.232
L430.013 114.753
L430.14 112.892
L430.524 112.894
L430.778 109.148
L431.033 109.146
L431.288 111.019
L432.053 111.021
L432.436 112.894
L432.819 112.894
L433.074 114.312
L433.839 114.312
L433.967 114.755
L434.222 114.755
L434.349 111.021
L434.604 114.755
L434.732 114.755
L435.115 114.957
L435.497 114.959
L435.752 112.894
L435.88 114.744
L436.262 114.733
L436.645 114.975
L436.9 116.524
L437.028 116.526
L437.283 118.224
L437.41 114.534
L437.793 114.532
L438.048 131.374
L438.176 127.809
L438.431 127.809
L438.558 126.013
L438.941 110.932
L439.196 118.744
L439.579 122.388
L439.706 115.42
L440.089 115.416
L440.471 109.824
L440.726 109.824
L441.109 104.136
L441.237 100.295
L441.619 113.556
L442.767 113.559
L443.022 111.697
L443.15 112.451
L443.915 112.451
L444.17 114.312
L444.298 107.664
L444.68 117.193
L444.935 117.193
L445.063 109.88
L445.318 115.343
L445.445 115.343
L445.701 117.191
L446.593 117.193
L446.848 118.744
L446.976 120.517
L447.231 116.528
L447.359 117.268
L447.614 116.914
L447.741 113.204
L447.996 116.85
L448.124 116.85
L448.379 118.682
L449.654 118.689
L449.909 116.85
L450.037 113.138
L450.42 113.138
L450.675 112.982
L450.802 113.138
L452.333 113.138
L452.588 111.265
L454.246 111.265
L454.501 107.509
L454.629 107.509
L454.884 111.265
L454.884 111.265
L455.011 111.265
L455.266 114.312
L455.394 112.451
L456.032 112.451
L456.159 114.31
L456.414 112.451
L456.542 108.694
L456.797 108.572
L456.924 110.578
L457.179 112.318
L457.307 106.666
L457.562 103.231
L457.69 114.308
L457.945 114.308
L458.072 110.567
L458.327 110.567
L458.455 114.312
L458.71 116.524
L458.837 116.522
L459.093 114.456
L459.22 114.456
L459.475 112.096
L459.603 112.096
L459.858 114.456
L459.985 114.456
L460.24 110.72
L460.368 110.72
L460.623 112.592
L461.133 112.595
L461.388 116.526
L461.516 116.528
L461.771 112.096
L461.899 112.096
L462.154 107.176
L462.281 116.526
L462.536 117.268
L462.664 115.42
L462.919 117.268
L463.046 126.39
L463.429 126.39
L463.684 124.582
L463.812 124.582
L464.449 120.684
L464.577 122.512
L464.832 120.695
L464.96 120.692
L465.215 122.698
L465.725 122.698
L465.98 120.695
L466.107 120.695
L466.363 126.497
L466.49 126.497
L466.745 124.693
L466.873 124.686
L467.256 124.502
L467.51 123.731
L467.893 121.803
L468.786 121.787
L469.168 116.285
L469.806 116.285
L469.934 114.434
L470.189 114.434
L470.316 110.698
L470.571 112.572
L470.699 112.572
L470.954 114.432
L471.464 114.432
L471.719 116.285
L471.847 116.085
L472.102 116.285
L472.229 123.62
L472.485 121.637
L472.612 123.731
L473.25 123.731
L473.377 126.501
L473.76 126.501
L474.015 123.587
L474.143 115.952
L474.398 121.402
L474.525 121.402
L474.78 113.568
L474.908 127.607
L475.163 132.041
L475.546 132.041
L475.673 130.268
L475.928 123.576
L476.056 132.041
L476.438 132.041
L476.821 118.722
L477.076 115.032
L477.204 115.032
L477.459 128.019
L477.586 128.019
L477.841 132.041
L478.352 132.035
L478.607 131.864
L478.734 130.069
L478.989 130.091
L479.372 124.229
L479.499 124.227
L479.755 122.412
L480.137 122.368
L480.265 120.961
L480.52 128.307
L480.647 126.512
L480.902 130.091
L481.03 130.091
L481.413 129.333
L481.668 120.307
L481.795 122.124
L482.05 123.939
L482.56 123.941
L482.816 122.124
L482.943 120.307
L483.198 98.799
L483.326 110.855
L483.581 118.423
L483.963 118.423
L484.091 116.584
L484.856 116.639
L485.111 118.479
L485.239 120.305
L486.004 120.305
L486.259 118.479
L486.259 118.479
L486.387 118.479
L486.642 120.296
L486.769 120.305
L487.024 119.808
L487.152 119.808
L487.407 120.307
L487.79 120.307
L487.917 123.842
L489.32 123.941
L489.448 122.124
L489.83 122.124
L490.085 116.639
L490.213 116.528
L490.596 110.921
L490.851 112.794
L490.978 116.504
L491.233 114.656
L491.361 118.479
L491.616 112.927
L492.126 112.927
L492.509 118.412
L492.764 114.722
L492.891 118.412
L493.147 118.479
L493.274 116.639
L493.529 116.639
L493.657 108.14
L493.912 118.479
L494.294 118.479
L494.422 116.639
L494.805 116.562
L495.187 111.054
L495.442 109.182
L495.57 105.403
L495.697 107.298
L495.952 103.497
L496.59 103.497
L496.718 105.403
L497.1 105.403
L497.483 114.789
L497.738 112.927
L497.866 118.467
L498.121 112.916
L498.248 114.778
L498.503 112.085
L498.631 112.085
L499.013 109.864
L499.269 104.184
L499.269 104.184
L499.396 109.864
L499.651 107.985
L499.779 110.212
L500.034 108.329
L500.161 104.528
L500.416 114.778
L500.544 114.778
L500.799 112.916
L500.927 104.716
L501.182 100.891
L501.564 100.891
L502.075 116.451
L502.457 116.628
L503.095 120.302
L503.605 120.305
L503.86 120.185
L503.988 120.307
L504.243 116.639
L504.37 120.307
L504.625 120.307
L504.753 120.074
L504.881 120.307
L505.136 120.307
L505.391 120.961
L505.518 120.961
L505.773 119.132
L505.901 119.132
L506.156 117.415
L506.666 117.413
L506.921 115.564
L507.049 119.132
L507.814 119.132
L508.069 105.447
L508.197 105.447
L508.452 112.451
L508.579 112.451
L508.834 116.524
L509.217 114.312
L509.344 120.958
L509.6 120.961
L509.727 122.556
L509.982 122.556
L510.365 120.684
L510.492 118.855
L510.747 120.595
L510.875 120.595
L511.513 116.526
L511.64 116.526
L511.895 114.534
L512.023 114.667
L512.278 114.534
L512.405 107.032
L512.661 108.894
L512.788 107.021
L513.043 108.916
L513.171 108.916
L513.426 114.678
L513.553 114.678
L513.808 107.229
L513.936 107.22
L514.191 99.9071
L514.319 107.187
L514.574 107.185
L514.701 104.517
L514.956 107.185
L515.339 107.218
L515.467 105.326
L515.849 116.307
L516.104 114.445
L516.232 112.584
L516.487 112.584
L516.614 114.454
L516.869 109.88
L516.997 112.595
L517.38 112.595
L517.635 108.827
L517.762 109.88
L518.017 116.298
L518.145 116.298
L518.4 109.88
L518.4 109.88" style="fill:none;stroke:#ff0000;stroke-linecap:square;"/>
   </g>
   <g id="line2d_2">
    <path clip-path="url(#pcb2bf987bf)" d="
M72 297.677
L72.2551 297.677
L72.3826 295.04
L73.0203 295.04
L73.1479 293.697
L73.7856 293.697
L73.9131 294.477
L74.5509 294.477
L74.6784 298.262
L75.3161 298.262
L75.4437 301.852
L76.0814 301.852
L76.2089 300.609
L76.8466 300.609
L76.9742 299.43
L77.6119 299.43
L77.9947 297.792
L78.3771 297.792
L78.3771 297.792
L78.5047 303.184
L79.1426 303.184
L79.2699 300.388
L79.9077 300.388
L80.0352 301.181
L80.6729 301.181
L80.8005 296.048
L81.4384 296.048
L81.5657 290.843
L82.2036 290.843
L82.331 291.514
L82.9687 291.514
L83.0962 290.107
L83.7339 290.107
L83.8615 291.323
L84.4992 291.323
L84.6267 290.736
L85.2647 290.736
L85.392 291.534
L86.0297 291.534
L86.1573 292.039
L87.5602 292.048
L87.6878 294.841
L88.3255 294.841
L88.453 293.378
L89.0907 293.378
L89.0907 293.378
L89.2183 291.917
L89.856 291.917
L89.9835 286.076
L90.6213 286.076
L91.259 285.575
L92.0242 287.022
L92.1518 287.022
L92.917 286.129
L93.5547 286.39
L94.32 289.147
L94.4475 289.147
L95.0853 284.416
L95.2128 284.416
L95.8505 286.689
L95.9781 286.689
L96.6158 289.267
L97.381 291.767
L98.1463 295.756
L98.2738 295.756
L98.9115 291.405
L99.0391 291.405
L99.6768 288.236
L100.442 292.361
L100.57 292.361
L101.207 294.06
L102.1 294.202
L102.738 291.166
L103.503 292.711
L103.631 292.711
L104.268 293.637
L105.034 297.976
L105.799 297.003
L106.564 297.354
L107.33 297.163
L108.095 295.477
L108.86 295.477
L109.753 295.672
L110.518 295.514
L111.156 298.118
L111.283 298.118
L112.048 297.491
L114.217 297.932
L115.109 297.006
L117.278 299.966
L118.043 301.635
L118.171 301.635
L118.936 301.321
L119.573 303.12
L120.339 302.983
L121.104 301.622
L121.232 301.622
L121.869 302.256
L122.635 300.246
L122.762 300.246
L123.4 302.094
L124.293 300.897
L124.93 302.389
L125.696 301.42
L126.461 301.917
L126.461 301.917
L126.589 301.917
L127.354 302.93
L127.354 302.93
L127.991 302.648
L128.884 301.77
L129.522 302.606
L130.415 301.963
L131.052 304.08
L131.818 302.316
L132.583 302.012
L132.583 302.012
L134.113 302.883
L134.369 300.168
L134.879 300.168
L135.644 299.645
L136.537 300.709
L137.174 299.364
L137.94 301.589
L138.705 297.976
L139.598 297.941
L140.235 297.453
L141.001 297.179
L141.893 296
L143.296 299.315
L144.062 301.487
L144.189 301.487
L144.827 299.463
L145.592 301.795
L145.72 301.795
L146.357 299.986
L146.485 299.986
L147.123 301.141
L147.25 301.141
L147.888 296.97
L148.653 299.368
L149.419 301.077
L149.546 301.077
L150.184 301.465
L150.949 299.002
L151.077 299.002
L151.714 300.228
L152.48 299.986
L153.372 299.986
L154.01 296.498
L154.775 293.174
L155.541 291.219
L155.541 291.219
L156.306 293.462
L157.071 294.382
L157.964 294.382
L158.602 291.361
L159.367 292.675
L160.132 287.862
L160.897 290.102
L161.025 290.102
L162.428 297.19
L163.193 295.641
L163.321 295.641
L163.958 298.628
L164.086 298.628
L164.851 299.583
L165.489 297.877
L166.254 294.524
L167.019 295.849
L167.912 296.33
L168.55 298.77
L170.08 299.242
L170.973 298.568
L171.611 299.344
L172.376 298.666
L173.269 299.226
L173.907 299.18
L174.672 301.343
L174.8 301.343
L176.203 299.787
L176.968 296.91
L177.095 296.91
L177.733 295.12
L178.498 295.969
L179.264 300.199
L180.156 300.02
L180.922 300.54
L181.559 298.996
L182.452 298.901
L183.09 299.051
L183.855 302.936
L183.983 302.936
L184.62 299.322
L185.386 303.787
L186.151 304.516
L186.916 302.954
L187.681 304.764
L188.447 305.119
L189.212 302.041
L189.339 302.041
L190.742 300.396
L191.508 295.075
L191.508 295.075
L193.038 299.541
L193.803 300.248
L194.569 302.032
L195.461 300.937
L196.099 298.402
L196.864 300.773
L198.395 300.86
L198.395 300.86
L199.16 302.604
L200.691 300.259
L201.456 300.523
L202.221 299.612
L202.987 300.458
L204.517 298.083
L205.282 302.925
L205.41 302.925
L206.048 300.523
L206.175 300.523
L206.303 303.105
L206.94 303.105
L207.578 306.172
L208.088 301.015
L208.343 301.015
L208.981 297.912
L209.236 297.912
L209.236 297.912
L209.619 298.643
L210.001 298.643
L210.767 295.742
L211.022 296.483
L211.532 296.483
L211.659 291.075
L212.297 291.075
L212.425 291.308
L213.062 291.308
L213.445 290.133
L213.828 290.133
L213.828 290.133
L213.955 291.802
L214.593 291.802
L214.72 289.615
L215.358 289.615
L215.358 289.615
L215.486 290.601
L216.761 290.699
L216.761 290.699
L217.016 288.077
L217.654 288.077
L217.654 288.077
L217.781 292.263
L218.419 292.263
L218.419 292.263
L218.547 297.954
L219.184 297.954
L219.312 298.313
L219.95 298.313
L220.077 298.038
L220.715 298.038
L220.843 297.063
L220.843 297.063
L221.48 297.063
L221.608 302.473
L222.245 302.473
L222.373 302.36
L223.011 302.36
L223.011 302.36
L223.521 302.876
L223.776 302.876
L223.904 304.268
L224.541 304.268
L224.669 304.627
L225.307 304.627
L225.434 294.623
L226.072 294.623
L226.072 294.623
L226.199 290.045
L226.199 290.045
L226.837 290.045
L226.965 287.576
L227.602 287.576
L227.602 287.576
L228.112 288.059
L228.368 288.059
L228.495 287.942
L229.133 287.942
L229.26 284.666
L229.898 284.666
L230.026 283.946
L230.663 283.946
L230.663 283.946
L231.046 286.193
L231.429 286.193
L231.429 286.193
L231.556 286.929
L232.194 286.929
L232.321 287.948
L232.959 287.948
L232.959 287.948
L233.087 288.56
L233.724 288.56
L233.852 288.948
L234.49 288.948
L234.49 288.948
L234.617 287.565
L235.255 287.565
L235.255 287.565
L235.383 287.394
L236.02 287.394
L236.02 287.394
L236.148 290.26
L236.785 290.26
L236.913 291.813
L237.551 291.813
L237.678 293.012
L239.081 293.012
L239.209 292.276
L239.846 292.276
L239.974 290.388
L240.612 290.388
L240.612 290.388
L240.739 289.885
L241.377 289.885
L241.504 293.267
L242.142 293.267
L242.27 297.89
L242.907 297.89
L243.035 295.419
L243.673 295.419
L243.8 297.327
L244.438 297.327
L244.565 295.069
L245.203 295.069
L245.203 295.069
L245.331 295.379
L246.734 295.379
L246.734 295.379
L246.861 284.385
L247.499 284.385
L247.882 286.206
L248.009 286.206
L248.392 284.575
L249.03 284.575
L249.03 284.575
L249.157 286.204
L249.795 286.204
L249.795 286.204
L249.922 288.449
L250.56 288.449
L250.688 287.244
L251.325 287.244
L251.453 287.115
L252.091 287.115
L252.218 288.974
L252.856 288.974
L252.983 293.331
L253.621 293.331
L253.749 289.462
L254.386 289.462
L254.514 292.875
L255.152 292.875
L255.279 294.719
L255.279 294.719
L255.917 294.719
L255.917 294.719
L256.044 293.646
L257.447 293.69
L257.575 291.343
L258.213 291.343
L258.213 291.343
L258.723 291.596
L258.978 291.596
L259.105 294.942
L259.743 294.942
L259.743 294.942
L259.871 294.681
L260.508 294.681
L260.636 298.479
L261.274 298.479
L261.401 297.544
L262.039 297.544
L262.166 299.33
L262.804 299.33
L262.932 298.32
L263.569 298.32
L263.569 298.32
L263.697 303.894
L264.335 303.894
L264.335 303.894
L264.462 302.706
L265.1 302.706
L265.1 302.706
L265.227 303.167
L265.738 303.167
L265.993 297.717
L266.63 297.717
L266.758 296.839
L267.396 296.839
L267.523 294.475
L268.161 294.475
L268.288 296.713
L268.926 296.713
L269.054 297.012
L269.691 297.012
L269.819 295.955
L270.457 295.955
L270.584 297.768
L271.222 297.768
L271.605 297.019
L271.987 297.019
L272.115 295.984
L272.752 295.984
L272.88 295.8
L273.518 295.8
L273.518 295.8
L273.645 293.504
L274.283 293.504
L274.411 292.815
L275.048 292.815
L275.048 292.815
L275.176 290.929
L275.813 290.929
L275.941 290.071
L276.579 290.071
L276.706 288.93
L278.109 288.93
L278.109 288.93
L278.237 293.673
L278.875 293.673
L279.002 296.011
L279.64 296.011
L279.767 294.905
L280.405 294.905
L280.405 294.905
L280.533 292.489
L281.17 292.489
L281.17 292.489
L281.298 291.86
L282.701 291.749
L282.828 293.107
L283.466 293.107
L283.594 291.866
L284.231 291.866
L284.359 290.772
L284.869 290.772
L285.379 292.006
L285.762 292.006
L285.889 296.416
L286.527 296.416
L286.655 297.553
L287.292 297.553
L287.42 295.417
L288.058 295.417
L288.185 295.707
L288.823 295.707
L288.95 300.436
L289.588 300.436
L289.716 297.879
L290.353 297.879
L290.481 298.118
L291.119 298.118
L291.246 300.793
L291.884 300.793
L292.267 297.223
L292.649 297.223
L292.649 297.223
L292.777 296.476
L293.414 296.476
L293.414 296.476
L293.542 299.922
L294.18 299.922
L294.18 299.922
L294.307 300.607
L294.945 300.607
L294.945 300.607
L295.072 299.226
L295.71 299.226
L295.838 301.66
L297.241 301.77
L297.368 302.551
L298.006 302.551
L298.133 301.742
L298.771 301.742
L298.899 296.228
L299.536 296.228
L299.664 295.1
L300.302 295.1
L300.302 295.1
L300.429 300.928
L301.067 300.928
L301.195 302.156
L302.597 302.207
L302.597 302.207
L302.98 301.221
L303.235 301.221
L303.49 301.451
L304.128 301.451
L304.128 301.451
L304.256 302.278
L304.893 302.278
L305.021 302.107
L305.659 302.107
L305.786 301.338
L307.189 301.338
L307.189 301.338
L307.317 299.142
L307.954 299.142
L308.082 299.426
L308.72 299.426
L308.72 299.426
L308.847 294.151
L309.485 294.151
L309.612 298.369
L310.25 298.369
L310.25 298.369
L310.378 297.819
L311.015 297.819
L311.143 296.873
L311.781 296.873
L311.908 300.981
L312.546 300.981
L312.673 300.829
L313.311 300.829
L313.439 298.444
L314.842 298.479
L314.969 299.639
L315.607 299.639
L315.734 298.976
L316.372 298.976
L316.5 304.049
L317.137 304.049
L317.265 305.782
L317.903 305.782
L318.03 301.666
L318.668 301.666
L318.668 301.666
L318.795 301.099
L319.433 301.099
L319.433 301.099
L319.561 300.605
L320.198 300.605
L320.326 295.018
L320.964 295.018
L320.964 295.018
L321.346 297.524
L321.729 297.524
L322.112 301.675
L322.239 301.675
L323.004 301.327
L323.259 301.327
L323.387 301.097
L324.79 301.097
L324.917 301.903
L326.32 301.903
L326.448 299.592
L327.086 299.592
L327.213 300.986
L327.851 300.986
L327.979 298.262
L328.616 298.262
L328.744 299.164
L329.381 299.164
L329.509 300.529
L330.912 300.563
L331.04 301.5
L331.677 301.5
L331.805 303.987
L332.443 303.987
L332.57 303.69
L333.208 303.69
L333.335 303.831
L333.973 303.831
L334.101 306.5
L335.504 306.431
L335.631 302.697
L336.269 302.697
L336.396 303.204
L337.034 303.204
L337.162 295.075
L337.799 295.075
L337.927 292.092
L338.565 292.092
L338.692 291.906
L339.33 291.906
L339.457 288.591
L339.968 288.591
L340.223 291.645
L340.605 291.645
L340.86 292.319
L340.988 289.353
L342.391 289.309
L342.518 289.672
L343.156 289.672
L343.284 285.116
L343.921 285.116
L343.921 285.116
L344.049 287.122
L344.687 287.122
L344.814 288.394
L345.452 288.394
L345.452 288.394
L345.579 290.674
L346.982 290.674
L346.982 290.674
L347.11 296.871
L347.748 296.871
L347.875 293.976
L348.513 293.976
L348.64 294.111
L349.278 294.111
L349.406 292.671
L350.043 292.671
L350.171 294.809
L350.809 294.809
L350.936 298.001
L351.319 298.001
L351.702 296.186
L352.339 296.186
L352.467 299.774
L353.104 299.774
L353.232 295.448
L353.87 295.448
L353.87 295.448
L354.252 297.105
L354.635 297.105
L354.763 299.173
L355.4 299.173
L355.4 299.173
L355.528 305.303
L356.165 305.303
L356.165 305.303
L356.293 303.891
L356.931 303.891
L357.058 301.744
L357.568 301.744
L357.824 300.518
L358.461 300.518
L358.461 300.518
L358.589 300.642
L359.227 300.642
L359.354 298.688
L359.992 298.688
L360.119 299.231
L360.757 299.231
L360.885 297.823
L361.522 297.823
L361.65 295.709
L362.288 295.709
L362.415 300.638
L363.053 300.638
L363.18 298.635
L363.818 298.635
L363.946 298.4
L364.583 298.4
L364.711 293.704
L365.349 293.704
L365.476 294.705
L366.114 294.705
L366.114 294.705
L366.242 292.602
L366.879 292.602
L367.007 295.162
L367.644 295.162
L367.772 297.451
L368.41 297.451
L368.537 297.148
L369.175 297.148
L369.557 296.27
L369.94 296.27
L370.068 298.606
L370.705 298.606
L370.833 296.844
L371.471 296.844
L371.598 297.121
L372.236 297.121
L372.363 295.441
L373.766 295.505
L373.766 295.505
L373.894 299.324
L375.297 299.324
L375.424 299.86
L376.062 299.86
L376.19 302.504
L376.827 302.504
L376.955 301.334
L378.358 301.292
L378.485 304.751
L379.123 304.751
L379.251 303.583
L379.888 303.583
L380.016 303.836
L380.654 303.836
L380.781 302.136
L382.184 302.236
L382.312 302.362
L382.949 302.362
L383.077 300.048
L383.715 300.048
L384.097 299.229
L384.48 299.229
L384.608 298.945
L386.011 298.945
L386.138 300.56
L386.776 300.56
L386.903 299.989
L387.541 299.989
L387.669 297.427
L388.306 297.427
L388.306 297.427
L388.434 338.178
L389.072 338.178
L389.199 298.632
L389.837 298.632
L389.964 300.091
L390.602 300.091
L390.73 299.06
L392.898 299.091
L393.025 298.564
L394.173 298.592
L394.173 298.592
L394.556 293.458
L395.194 293.458
L395.321 295.344
L395.959 295.344
L396.086 295.155
L396.724 295.155
L396.852 294.335
L397.489 294.335
L397.617 295.629
L398.255 295.629
L398.382 294.415
L399.02 294.415
L399.147 293.209
L399.785 293.209
L399.913 294.091
L400.55 294.091
L400.678 290.599
L401.316 290.599
L401.443 294.357
L402.081 294.357
L402.208 296.899
L402.846 296.899
L402.974 298.134
L404.377 298.236
L404.504 298.734
L405.142 298.734
L405.269 300.266
L405.907 300.266
L406.035 303.171
L406.672 303.171
L406.8 299.911
L407.438 299.911
L407.565 300.645
L408.203 300.645
L408.331 302.644
L408.968 302.644
L409.096 306.24
L409.733 306.24
L409.861 305.999
L410.499 305.999
L410.626 304.78
L411.264 304.78
L411.392 304.461
L412.029 304.461
L412.157 301.349
L412.667 301.349
L413.05 298.149
L413.56 298.149
L413.687 294.998
L414.325 294.998
L414.453 295.957
L415.09 295.957
L415.218 293.819
L415.856 293.819
L415.983 294.482
L416.621 294.482
L416.748 292.95
L417.386 292.95
L417.514 297.648
L418.151 297.648
L418.279 296.301
L418.917 296.301
L419.044 295.481
L419.682 295.481
L419.809 296.54
L420.447 296.54
L420.575 296.698
L421.212 296.698
L421.34 296.343
L421.978 296.343
L422.105 297.327
L422.743 297.327
L422.87 297.801
L423.508 297.801
L423.636 298.834
L424.273 298.834
L424.401 296.709
L425.039 296.709
L425.166 294.962
L425.804 294.962
L425.931 297.236
L427.334 297.154
L427.462 295.12
L428.1 295.12
L428.227 298.18
L428.865 298.18
L428.992 297.859
L429.63 297.859
L429.758 294.1
L430.395 294.1
L430.524 295.337
L431.033 295.337
L431.288 292.239
L431.926 292.239
L432.053 292.729
L432.691 292.729
L432.691 292.729
L432.819 294.513
L433.456 294.513
L433.584 293.664
L434.222 293.664
L434.349 295.282
L434.987 295.282
L435.115 296.531
L435.752 296.531
L435.88 295.957
L436.517 295.957
L436.645 300.108
L437.283 300.108
L437.41 303.614
L438.048 303.614
L438.176 304.986
L438.813 304.986
L438.941 299.612
L439.579 299.612
L439.706 302.863
L440.344 302.863
L440.344 302.863
L440.471 298.745
L441.109 298.745
L441.237 297.307
L441.874 297.307
L441.874 297.307
L442.002 301.465
L442.64 301.465
L442.767 303.078
L443.405 303.078
L443.533 300.891
L444.17 300.891
L444.298 305.166
L444.935 305.166
L445.063 306.524
L445.701 306.524
L446.211 305.855
L447.231 305.873
L447.359 305.997
L447.996 305.997
L448.124 304.96
L448.762 304.96
L448.889 303.461
L449.527 303.461
L449.527 303.461
L449.654 305.449
L450.165 305.449
L450.42 302.138
L451.823 302.125
L451.95 303.138
L452.588 303.138
L452.715 300.948
L454.118 300.977
L454.246 300.432
L454.884 300.432
L454.884 300.432
L455.011 304.707
L455.649 304.707
L455.776 305.33
L456.414 305.33
L456.542 303.648
L457.179 303.648
L457.307 304.097
L457.945 304.097
L458.072 303.129
L458.71 303.129
L458.837 305.644
L459.475 305.644
L459.603 305.248
L460.24 305.248
L460.368 301.857
L461.006 301.857
L461.133 302.577
L461.771 302.577
L461.899 302.987
L462.536 302.987
L462.664 306.934
L463.301 306.934
L463.429 306.247
L464.067 306.247
L464.194 303.752
L464.832 303.752
L464.96 303.187
L465.597 303.187
L465.597 303.187
L465.725 304.179
L466.363 304.179
L466.49 304.326
L467.128 304.326
L467.128 304.326
L467.256 303.213
L467.893 303.213
L468.021 301.591
L468.658 301.591
L468.786 300.525
L469.424 300.525
L469.551 299.492
L470.189 299.492
L470.316 300.552
L470.954 300.552
L471.082 299.816
L471.719 299.816
L471.847 301.081
L472.485 301.081
L472.612 303.789
L473.25 303.789
L473.377 305.01
L474.015 305.01
L474.143 305.573
L474.78 305.573
L474.908 303.306
L475.546 303.306
L475.673 305.545
L476.311 305.545
L476.438 301.309
L477.076 301.309
L477.204 298.763
L477.841 298.763
L477.969 303.967
L478.607 303.967
L478.734 301.409
L479.372 301.409
L479.499 297.114
L480.137 297.114
L480.265 297.338
L480.902 297.338
L481.03 302.466
L481.668 302.466
L481.795 298.3
L482.433 298.3
L482.56 298.003
L483.198 298.003
L483.326 296.895
L483.963 296.895
L484.091 295.842
L484.729 295.842
L484.856 294.244
L485.494 294.244
L485.877 296.474
L486.259 296.474
L486.259 296.474
L486.387 295.474
L487.024 295.474
L487.152 295.226
L487.79 295.226
L487.917 297.777
L488.555 297.777
L488.683 299.415
L489.32 299.415
L489.448 299.953
L490.085 299.953
L490.213 297.706
L492.381 297.655
L492.509 300.902
L493.147 300.902
L493.274 300.594
L494.677 300.6
L494.805 297.761
L495.442 297.761
L495.57 295.308
L496.208 295.308
L496.335 296.48
L496.973 296.48
L497.1 300.281
L497.738 300.281
L497.866 301.026
L498.503 301.026
L498.631 296.7
L499.269 296.7
L499.269 296.7
L499.396 293.531
L500.034 293.531
L500.161 294.677
L500.799 294.677
L500.927 296.015
L501.564 296.015
L501.692 292.42
L502.33 292.42
L502.457 296.791
L503.095 296.791
L503.222 302.453
L503.86 302.453
L503.988 303.829
L504.625 303.829
L504.753 302.225
L505.391 302.225
L505.518 303.191
L506.156 303.191
L506.283 300.709
L506.921 300.709
L507.049 301.859
L508.452 301.95
L508.579 300.365
L509.217 300.365
L509.344 298.761
L509.982 298.761
L510.365 304.705
L510.747 304.705
L510.875 303.696
L511.513 303.696
L511.64 301.223
L512.278 301.223
L512.405 300.95
L513.043 300.95
L513.171 301.081
L513.808 301.081
L513.936 298.85
L514.574 298.85
L514.701 299.033
L515.339 299.033
L515.467 300.647
L516.104 300.647
L516.232 302.214
L516.869 302.214
L516.997 301.312
L517.635 301.312
L517.762 302.832
L518.4 302.832
L518.4 302.832" style="fill:none;stroke:#008000;stroke-linecap:square;"/>
   </g>
   <g id="patch_3">
    <path d="
M72 43.2
L518.4 43.2" style="fill:none;stroke:#000000;stroke-linecap:square;stroke-linejoin:miter;"/>
   </g>
   <g id="patch_4">
    <path d="
M518.4 345.6
L518.4 43.2" style="fill:none;stroke:#000000;stroke-linecap:square;stroke-linejoin:miter;"/>
   </g>
   <g id="patch_5">
    <path d="
M72 345.6
L518.4 345.6" style="fill:none;stroke:#000000;stroke-linecap:square;stroke-linejoin:miter;"/>
   </g>
   <g id="patch_6">
    <path d="
M72 345.6
L72 43.2" style="fill:none;stroke:#000000;stroke-linecap:square;stroke-linejoin:miter;"/>
   </g>
   <g id="matplotlib.axis_1">
    <g id="xtick_1">
     <g id="line2d_3">
      <defs>
       <path d="
M0 0
L0 -4" id="m93b0483c22" style="stroke:#000000;stroke-width:0.5;"/>
      </defs>
      <g>
       <use style="stroke:#000000;stroke-width:0.5;" x="118.170301715" xlink:href="#m93b0483c22" y="345.6"/>
      </g>
     </g>
     <g id="line2d_4">
      <defs>
       <path d="
M0 0
L0 4" id="m741efc42ff" style="stroke:#000000;stroke-width:0.5;"/>
      </defs>
      <g>
       <use style="stroke:#000000;stroke-width:0.5;" x="118.170301715" xlink:href="#m741efc42ff" y="43.2"/>
      </g>
     </g>
     <g id="text_1">
      <!-- Oct 13 2015 -->
      <defs>
       <path d="
M19.1875 8.29688
L53.6094 8.29688
L53.6094 0
L7.32812 0
L7.32812 8.29688
Q12.9375 14.1094 22.625 23.8906
Q32.3281 33.6875 34.8125 36.5312
Q39.5469 41.8438 41.4219 45.5312
Q43.3125 49.2188 43.3125 52.7812
Q43.3125 58.5938 39.2344 62.25
Q35.1562 65.9219 28.6094 65.9219
Q23.9688 65.9219 18.8125 64.3125
Q13.6719 62.7031 7.8125 59.4219
L7.8125 69.3906
Q13.7656 71.7812 18.9375 73
Q24.125 74.2188 28.4219 74.2188
Q39.75 74.2188 46.4844 68.5469
Q53.2188 62.8906 53.2188 53.4219
Q53.2188 48.9219 51.5312 44.8906
Q49.8594 40.875 45.4062 35.4062
Q44.1875 33.9844 37.6406 27.2188
Q31.1094 20.4531 19.1875 8.29688" id="BitstreamVeraSans-Roman-32"/>
       <path d="
M39.4062 66.2188
Q28.6562 66.2188 22.3281 58.2031
Q16.0156 50.2031 16.0156 36.375
Q16.0156 22.6094 22.3281 14.5938
Q28.6562 6.59375 39.4062 6.59375
Q50.1406 6.59375 56.4219 14.5938
Q62.7031 22.6094 62.7031 36.375
Q62.7031 50.2031 56.4219 58.2031
Q50.1406 66.2188 39.4062 66.2188
M39.4062 74.2188
Q54.7344 74.2188 63.9062 63.9375
Q73.0938 53.6562 73.0938 36.375
Q73.0938 19.1406 63.9062 8.85938
Q54.7344 -1.42188 39.4062 -1.42188
Q24.0312 -1.42188 14.8125 8.82812
Q5.60938 19.0938 5.60938 36.375
Q5.60938 53.6562 14.8125 63.9375
Q24.0312 74.2188 39.4062 74.2188" id="BitstreamVeraSans-Roman-4f"/>
       <path d="
M31.7812 66.4062
Q24.1719 66.4062 20.3281 58.9062
Q16.5 51.4219 16.5 36.375
Q16.5 21.3906 20.3281 13.8906
Q24.1719 6.39062 31.7812 6.39062
Q39.4531 6.39062 43.2812 13.8906
Q47.125 21.3906 47.125 36.375
Q47.125 51.4219 43.2812 58.9062
Q39.4531 66.4062 31.7812 66.4062
M31.7812 74.2188
Q44.0469 74.2188 50.5156 64.5156
Q56.9844 54.8281 56.9844 36.375
Q56.9844 17.9688 50.5156 8.26562
Q44.0469 -1.42188 31.7812 -1.42188
Q19.5312 -1.42188 13.0625 8.26562
Q6.59375 17.9688 6.59375 36.375
Q6.59375 54.8281 13.0625 64.5156
Q19.5312 74.2188 31.7812 74.2188" id="BitstreamVeraSans-Roman-30"/>
       <path d="
M12.4062 8.29688
L28.5156 8.29688
L28.5156 63.9219
L10.9844 60.4062
L10.9844 69.3906
L28.4219 72.9062
L38.2812 72.9062
L38.2812 8.29688
L54.3906 8.29688
L54.3906 0
L12.4062 0
z
" id="BitstreamVeraSans-Roman-31"/>
       <path d="
M40.5781 39.3125
Q47.6562 37.7969 51.625 33
Q55.6094 28.2188 55.6094 21.1875
Q55.6094 10.4062 48.1875 4.48438
Q40.7656 -1.42188 27.0938 -1.42188
Q22.5156 -1.42188 17.6562 -0.515625
Q12.7969 0.390625 7.625 2.20312
L7.625 11.7188
Q11.7188 9.32812 16.5938 8.10938
Q21.4844 6.89062 26.8125 6.89062
Q36.0781 6.89062 40.9375 10.5469
Q45.7969 14.2031 45.7969 21.1875
Q45.7969 27.6406 41.2812 31.2656
Q36.7656 34.9062 28.7188 34.9062
L20.2188 34.9062
L20.2188 43.0156
L29.1094 43.0156
Q36.375 43.0156 40.2344 45.9219
Q44.0938 48.8281 44.0938 54.2969
Q44.0938 59.9062 40.1094 62.9062
Q36.1406 65.9219 28.7188 65.9219
Q24.6562 65.9219 20.0156 65.0312
Q15.375 64.1562 9.8125 62.3125
L9.8125 71.0938
Q15.4375 72.6562 20.3438 73.4375
Q25.25 74.2188 29.5938 74.2188
Q40.8281 74.2188 47.3594 69.1094
Q53.9062 64.0156 53.9062 55.3281
Q53.9062 49.2656 50.4375 45.0938
Q46.9688 40.9219 40.5781 39.3125" id="BitstreamVeraSans-Roman-33"/>
       <path id="BitstreamVeraSans-Roman-20"/>
       <path d="
M10.7969 72.9062
L49.5156 72.9062
L49.5156 64.5938
L19.8281 64.5938
L19.8281 46.7344
Q21.9688 47.4688 24.1094 47.8281
Q26.2656 48.1875 28.4219 48.1875
Q40.625 48.1875 47.75 41.5
Q54.8906 34.8125 54.8906 23.3906
Q54.8906 11.625 47.5625 5.09375
Q40.2344 -1.42188 26.9062 -1.42188
Q22.3125 -1.42188 17.5469 -0.640625
Q12.7969 0.140625 7.71875 1.70312
L7.71875 11.625
Q12.1094 9.23438 16.7969 8.0625
Q21.4844 6.89062 26.7031 6.89062
Q35.1562 6.89062 40.0781 11.3281
Q45.0156 15.7656 45.0156 23.3906
Q45.0156 31 40.0781 35.4375
Q35.1562 39.8906 26.7031 39.8906
Q22.75 39.8906 18.8125 39.0156
Q14.8906 38.1406 10.7969 36.2812
z
" id="BitstreamVeraSans-Roman-35"/>
       <path d="
M18.3125 70.2188
L18.3125 54.6875
L36.8125 54.6875
L36.8125 47.7031
L18.3125 47.7031
L18.3125 18.0156
Q18.3125 11.3281 20.1406 9.42188
Q21.9688 7.51562 27.5938 7.51562
L36.8125 7.51562
L36.8125 0
L27.5938 0
Q17.1875 0 13.2344 3.875
Q9.28125 7.76562 9.28125 18.0156
L9.28125 47.7031
L2.6875 47.7031
L2.6875 54.6875
L9.28125 54.6875
L9.28125 70.2188
z
" id="BitstreamVeraSans-Roman-74"/>
       <path d="
M48.7812 52.5938
L48.7812 44.1875
Q44.9688 46.2969 41.1406 47.3438
Q37.3125 48.3906 33.4062 48.3906
Q24.6562 48.3906 19.8125 42.8438
Q14.9844 37.3125 14.9844 27.2969
Q14.9844 17.2812 19.8125 11.7344
Q24.6562 6.20312 33.4062 6.20312
Q37.3125 6.20312 41.1406 7.25
Q44.9688 8.29688 48.7812 10.4062
L48.7812 2.09375
Q45.0156 0.34375 40.9844 -0.53125
Q36.9688 -1.42188 32.4219 -1.42188
Q20.0625 -1.42188 12.7812 6.34375
Q5.51562 14.1094 5.51562 27.2969
Q5.51562 40.6719 12.8594 48.3281
Q20.2188 56 33.0156 56
Q37.1562 56 41.1094 55.1406
Q45.0625 54.2969 48.7812 52.5938" id="BitstreamVeraSans-Roman-63"/>
      </defs>
      <g transform="translate(53.5830149798 394.065590385)rotate(-30.0)scale(0.12 -0.12)">
       <use xlink:href="#BitstreamVeraSans-Roman-4f"/>
       <use x="78.7109375" xlink:href="#BitstreamVeraSans-Roman-63"/>
       <use x="133.69140625" xlink:href="#BitstreamVeraSans-Roman-74"/>
       <use x="172.900390625" xlink:href="#BitstreamVeraSans-Roman-20"/>
       <use x="204.6875" xlink:href="#BitstreamVeraSans-Roman-31"/>
       <use x="268.310546875" xlink:href="#BitstreamVeraSans-Roman-33"/>
       <use x="331.93359375" xlink:href="#BitstreamVeraSans-Roman-20"/>
       <use x="363.720703125" xlink:href="#BitstreamVeraSans-Roman-32"/>
       <use x="427.34375" xlink:href="#BitstreamVeraSans-Roman-30"/>
       <use x="490.966796875" xlink:href="#BitstreamVeraSans-Roman-31"/>
       <use x="554.58984375" xlink:href="#BitstreamVeraSans-Roman-35"/>
      </g>
     </g>
    </g>
    <g id="xtick_2">
     <g id="line2d_5">
      <g>
       <use style="stroke:#000000;stroke-width:0.5;" x="173.268816" xlink:href="#m93b0483c22" y="345.6"/>
      </g>
     </g>
     <g id="line2d_6">
      <g>
       <use style="stroke:#000000;stroke-width:0.5;" x="173.268816" xlink:href="#m741efc42ff" y="43.2"/>
      </g>
     </g>
     <g id="text_2">
      <!-- Oct 16 2015 -->
      <defs>
       <path d="
M33.0156 40.375
Q26.375 40.375 22.4844 35.8281
Q18.6094 31.2969 18.6094 23.3906
Q18.6094 15.5312 22.4844 10.9531
Q26.375 6.39062 33.0156 6.39062
Q39.6562 6.39062 43.5312 10.9531
Q47.4062 15.5312 47.4062 23.3906
Q47.4062 31.2969 43.5312 35.8281
Q39.6562 40.375 33.0156 40.375
M52.5938 71.2969
L52.5938 62.3125
Q48.875 64.0625 45.0938 64.9844
Q41.3125 65.9219 37.5938 65.9219
Q27.8281 65.9219 22.6719 59.3281
Q17.5312 52.7344 16.7969 39.4062
Q19.6719 43.6562 24.0156 45.9219
Q28.375 48.1875 33.5938 48.1875
Q44.5781 48.1875 50.9531 41.5156
Q57.3281 34.8594 57.3281 23.3906
Q57.3281 12.1562 50.6875 5.35938
Q44.0469 -1.42188 33.0156 -1.42188
Q20.3594 -1.42188 13.6719 8.26562
Q6.98438 17.9688 6.98438 36.375
Q6.98438 53.6562 15.1875 63.9375
Q23.3906 74.2188 37.2031 74.2188
Q40.9219 74.2188 44.7031 73.4844
Q48.4844 72.75 52.5938 71.2969" id="BitstreamVeraSans-Roman-36"/>
      </defs>
      <g transform="translate(108.681529265 394.065590385)rotate(-30.0)scale(0.12 -0.12)">
       <use xlink:href="#BitstreamVeraSans-Roman-4f"/>
       <use x="78.7109375" xlink:href="#BitstreamVeraSans-Roman-63"/>
       <use x="133.69140625" xlink:href="#BitstreamVeraSans-Roman-74"/>
       <use x="172.900390625" xlink:href="#BitstreamVeraSans-Roman-20"/>
       <use x="204.6875" xlink:href="#BitstreamVeraSans-Roman-31"/>
       <use x="268.310546875" xlink:href="#BitstreamVeraSans-Roman-36"/>
       <use x="331.93359375" xlink:href="#BitstreamVeraSans-Roman-20"/>
       <use x="363.720703125" xlink:href="#BitstreamVeraSans-Roman-32"/>
       <use x="427.34375" xlink:href="#BitstreamVeraSans-Roman-30"/>
       <use x="490.966796875" xlink:href="#BitstreamVeraSans-Roman-31"/>
       <use x="554.58984375" xlink:href="#BitstreamVeraSans-Roman-35"/>
      </g>
     </g>
    </g>
    <g id="xtick_3">
     <g id="line2d_7">
      <g>
       <use style="stroke:#000000;stroke-width:0.5;" x="228.367330285" xlink:href="#m93b0483c22" y="345.6"/>
      </g>
     </g>
     <g id="line2d_8">
      <g>
       <use style="stroke:#000000;stroke-width:0.5;" x="228.367330285" xlink:href="#m741efc42ff" y="43.2"/>
      </g>
     </g>
     <g id="text_3">
      <!-- Oct 19 2015 -->
      <defs>
       <path d="
M10.9844 1.51562
L10.9844 10.5
Q14.7031 8.73438 18.5 7.8125
Q22.3125 6.89062 25.9844 6.89062
Q35.75 6.89062 40.8906 13.4531
Q46.0469 20.0156 46.7812 33.4062
Q43.9531 29.2031 39.5938 26.9531
Q35.25 24.7031 29.9844 24.7031
Q19.0469 24.7031 12.6719 31.3125
Q6.29688 37.9375 6.29688 49.4219
Q6.29688 60.6406 12.9375 67.4219
Q19.5781 74.2188 30.6094 74.2188
Q43.2656 74.2188 49.9219 64.5156
Q56.5938 54.8281 56.5938 36.375
Q56.5938 19.1406 48.4062 8.85938
Q40.2344 -1.42188 26.4219 -1.42188
Q22.7031 -1.42188 18.8906 -0.6875
Q15.0938 0.046875 10.9844 1.51562
M30.6094 32.4219
Q37.25 32.4219 41.125 36.9531
Q45.0156 41.5 45.0156 49.4219
Q45.0156 57.2812 41.125 61.8438
Q37.25 66.4062 30.6094 66.4062
Q23.9688 66.4062 20.0938 61.8438
Q16.2188 57.2812 16.2188 49.4219
Q16.2188 41.5 20.0938 36.9531
Q23.9688 32.4219 30.6094 32.4219" id="BitstreamVeraSans-Roman-39"/>
      </defs>
      <g transform="translate(163.78004355 394.065590385)rotate(-30.0)scale(0.12 -0.12)">
       <use xlink:href="#BitstreamVeraSans-Roman-4f"/>
       <use x="78.7109375" xlink:href="#BitstreamVeraSans-Roman-63"/>
       <use x="133.69140625" xlink:href="#BitstreamVeraSans-Roman-74"/>
       <use x="172.900390625" xlink:href="#BitstreamVeraSans-Roman-20"/>
       <use x="204.6875" xlink:href="#BitstreamVeraSans-Roman-31"/>
       <use x="268.310546875" xlink:href="#BitstreamVeraSans-Roman-39"/>
       <use x="331.93359375" xlink:href="#BitstreamVeraSans-Roman-20"/>
       <use x="363.720703125" xlink:href="#BitstreamVeraSans-Roman-32"/>
       <use x="427.34375" xlink:href="#BitstreamVeraSans-Roman-30"/>
       <use x="490.966796875" xlink:href="#BitstreamVeraSans-Roman-31"/>
       <use x="554.58984375" xlink:href="#BitstreamVeraSans-Roman-35"/>
      </g>
     </g>
    </g>
    <g id="xtick_4">
     <g id="line2d_9">
      <g>
       <use style="stroke:#000000;stroke-width:0.5;" x="283.465844572" xlink:href="#m93b0483c22" y="345.6"/>
      </g>
     </g>
     <g id="line2d_10">
      <g>
       <use style="stroke:#000000;stroke-width:0.5;" x="283.465844572" xlink:href="#m741efc42ff" y="43.2"/>
      </g>
     </g>
     <g id="text_4">
      <!-- Oct 22 2015 -->
      <g transform="translate(218.878557836 394.065590385)rotate(-30.0)scale(0.12 -0.12)">
       <use xlink:href="#BitstreamVeraSans-Roman-4f"/>
       <use x="78.7109375" xlink:href="#BitstreamVeraSans-Roman-63"/>
       <use x="133.69140625" xlink:href="#BitstreamVeraSans-Roman-74"/>
       <use x="172.900390625" xlink:href="#BitstreamVeraSans-Roman-20"/>
       <use x="204.6875" xlink:href="#BitstreamVeraSans-Roman-32"/>
       <use x="268.310546875" xlink:href="#BitstreamVeraSans-Roman-32"/>
       <use x="331.93359375" xlink:href="#BitstreamVeraSans-Roman-20"/>
       <use x="363.720703125" xlink:href="#BitstreamVeraSans-Roman-32"/>
       <use x="427.34375" xlink:href="#BitstreamVeraSans-Roman-30"/>
       <use x="490.966796875" xlink:href="#BitstreamVeraSans-Roman-31"/>
       <use x="554.58984375" xlink:href="#BitstreamVeraSans-Roman-35"/>
      </g>
     </g>
    </g>
    <g id="xtick_5">
     <g id="line2d_11">
      <g>
       <use style="stroke:#000000;stroke-width:0.5;" x="338.564358857" xlink:href="#m93b0483c22" y="345.6"/>
      </g>
     </g>
     <g id="line2d_12">
      <g>
       <use style="stroke:#000000;stroke-width:0.5;" x="338.564358857" xlink:href="#m741efc42ff" y="43.2"/>
      </g>
     </g>
     <g id="text_5">
      <!-- Oct 25 2015 -->
      <g transform="translate(273.977072121 394.065590385)rotate(-30.0)scale(0.12 -0.12)">
       <use xlink:href="#BitstreamVeraSans-Roman-4f"/>
       <use x="78.7109375" xlink:href="#BitstreamVeraSans-Roman-63"/>
       <use x="133.69140625" xlink:href="#BitstreamVeraSans-Roman-74"/>
       <use x="172.900390625" xlink:href="#BitstreamVeraSans-Roman-20"/>
       <use x="204.6875" xlink:href="#BitstreamVeraSans-Roman-32"/>
       <use x="268.310546875" xlink:href="#BitstreamVeraSans-Roman-35"/>
       <use x="331.93359375" xlink:href="#BitstreamVeraSans-Roman-20"/>
       <use x="363.720703125" xlink:href="#BitstreamVeraSans-Roman-32"/>
       <use x="427.34375" xlink:href="#BitstreamVeraSans-Roman-30"/>
       <use x="490.966796875" xlink:href="#BitstreamVeraSans-Roman-31"/>
       <use x="554.58984375" xlink:href="#BitstreamVeraSans-Roman-35"/>
      </g>
     </g>
    </g>
    <g id="xtick_6">
     <g id="line2d_13">
      <g>
       <use style="stroke:#000000;stroke-width:0.5;" x="393.662873141" xlink:href="#m93b0483c22" y="345.6"/>
      </g>
     </g>
     <g id="line2d_14">
      <g>
       <use style="stroke:#000000;stroke-width:0.5;" x="393.662873141" xlink:href="#m741efc42ff" y="43.2"/>
      </g>
     </g>
     <g id="text_6">
      <!-- Oct 28 2015 -->
      <defs>
       <path d="
M31.7812 34.625
Q24.75 34.625 20.7188 30.8594
Q16.7031 27.0938 16.7031 20.5156
Q16.7031 13.9219 20.7188 10.1562
Q24.75 6.39062 31.7812 6.39062
Q38.8125 6.39062 42.8594 10.1719
Q46.9219 13.9688 46.9219 20.5156
Q46.9219 27.0938 42.8906 30.8594
Q38.875 34.625 31.7812 34.625
M21.9219 38.8125
Q15.5781 40.375 12.0312 44.7188
Q8.5 49.0781 8.5 55.3281
Q8.5 64.0625 14.7188 69.1406
Q20.9531 74.2188 31.7812 74.2188
Q42.6719 74.2188 48.875 69.1406
Q55.0781 64.0625 55.0781 55.3281
Q55.0781 49.0781 51.5312 44.7188
Q48 40.375 41.7031 38.8125
Q48.8281 37.1562 52.7969 32.3125
Q56.7812 27.4844 56.7812 20.5156
Q56.7812 9.90625 50.3125 4.23438
Q43.8438 -1.42188 31.7812 -1.42188
Q19.7344 -1.42188 13.25 4.23438
Q6.78125 9.90625 6.78125 20.5156
Q6.78125 27.4844 10.7812 32.3125
Q14.7969 37.1562 21.9219 38.8125
M18.3125 54.3906
Q18.3125 48.7344 21.8438 45.5625
Q25.3906 42.3906 31.7812 42.3906
Q38.1406 42.3906 41.7188 45.5625
Q45.3125 48.7344 45.3125 54.3906
Q45.3125 60.0625 41.7188 63.2344
Q38.1406 66.4062 31.7812 66.4062
Q25.3906 66.4062 21.8438 63.2344
Q18.3125 60.0625 18.3125 54.3906" id="BitstreamVeraSans-Roman-38"/>
      </defs>
      <g transform="translate(329.075586406 394.065590385)rotate(-30.0)scale(0.12 -0.12)">
       <use xlink:href="#BitstreamVeraSans-Roman-4f"/>
       <use x="78.7109375" xlink:href="#BitstreamVeraSans-Roman-63"/>
       <use x="133.69140625" xlink:href="#BitstreamVeraSans-Roman-74"/>
       <use x="172.900390625" xlink:href="#BitstreamVeraSans-Roman-20"/>
       <use x="204.6875" xlink:href="#BitstreamVeraSans-Roman-32"/>
       <use x="268.310546875" xlink:href="#BitstreamVeraSans-Roman-38"/>
       <use x="331.93359375" xlink:href="#BitstreamVeraSans-Roman-20"/>
       <use x="363.720703125" xlink:href="#BitstreamVeraSans-Roman-32"/>
       <use x="427.34375" xlink:href="#BitstreamVeraSans-Roman-30"/>
       <use x="490.966796875" xlink:href="#BitstreamVeraSans-Roman-31"/>
       <use x="554.58984375" xlink:href="#BitstreamVeraSans-Roman-35"/>
      </g>
     </g>
    </g>
    <g id="xtick_7">
     <g id="line2d_15">
      <g>
       <use style="stroke:#000000;stroke-width:0.5;" x="448.761387428" xlink:href="#m93b0483c22" y="345.6"/>
      </g>
     </g>
     <g id="line2d_16">
      <g>
       <use style="stroke:#000000;stroke-width:0.5;" x="448.761387428" xlink:href="#m741efc42ff" y="43.2"/>
      </g>
     </g>
     <g id="text_7">
      <!-- Oct 31 2015 -->
      <g transform="translate(384.174100693 394.065590385)rotate(-30.0)scale(0.12 -0.12)">
       <use xlink:href="#BitstreamVeraSans-Roman-4f"/>
       <use x="78.7109375" xlink:href="#BitstreamVeraSans-Roman-63"/>
       <use x="133.69140625" xlink:href="#BitstreamVeraSans-Roman-74"/>
       <use x="172.900390625" xlink:href="#BitstreamVeraSans-Roman-20"/>
       <use x="204.6875" xlink:href="#BitstreamVeraSans-Roman-33"/>
       <use x="268.310546875" xlink:href="#BitstreamVeraSans-Roman-31"/>
       <use x="331.93359375" xlink:href="#BitstreamVeraSans-Roman-20"/>
       <use x="363.720703125" xlink:href="#BitstreamVeraSans-Roman-32"/>
       <use x="427.34375" xlink:href="#BitstreamVeraSans-Roman-30"/>
       <use x="490.966796875" xlink:href="#BitstreamVeraSans-Roman-31"/>
       <use x="554.58984375" xlink:href="#BitstreamVeraSans-Roman-35"/>
      </g>
     </g>
    </g>
    <g id="xtick_8">
     <g id="line2d_17">
      <g>
       <use style="stroke:#000000;stroke-width:0.5;" x="503.859901713" xlink:href="#m93b0483c22" y="345.6"/>
      </g>
     </g>
     <g id="line2d_18">
      <g>
       <use style="stroke:#000000;stroke-width:0.5;" x="503.859901713" xlink:href="#m741efc42ff" y="43.2"/>
      </g>
     </g>
     <g id="text_8">
      <!-- Nov 03 2015 -->
      <defs>
       <path d="
M2.98438 54.6875
L12.5 54.6875
L29.5938 8.79688
L46.6875 54.6875
L56.2031 54.6875
L35.6875 0
L23.4844 0
z
" id="BitstreamVeraSans-Roman-76"/>
       <path d="
M9.8125 72.9062
L23.0938 72.9062
L55.4219 11.9219
L55.4219 72.9062
L64.9844 72.9062
L64.9844 0
L51.7031 0
L19.3906 60.9844
L19.3906 0
L9.8125 0
z
" id="BitstreamVeraSans-Roman-4e"/>
       <path d="
M30.6094 48.3906
Q23.3906 48.3906 19.1875 42.75
Q14.9844 37.1094 14.9844 27.2969
Q14.9844 17.4844 19.1562 11.8438
Q23.3438 6.20312 30.6094 6.20312
Q37.7969 6.20312 41.9844 11.8594
Q46.1875 17.5312 46.1875 27.2969
Q46.1875 37.0156 41.9844 42.7031
Q37.7969 48.3906 30.6094 48.3906
M30.6094 56
Q42.3281 56 49.0156 48.375
Q55.7188 40.7656 55.7188 27.2969
Q55.7188 13.875 49.0156 6.21875
Q42.3281 -1.42188 30.6094 -1.42188
Q18.8438 -1.42188 12.1719 6.21875
Q5.51562 13.875 5.51562 27.2969
Q5.51562 40.7656 12.1719 48.375
Q18.8438 56 30.6094 56" id="BitstreamVeraSans-Roman-6f"/>
      </defs>
      <g transform="translate(436.957079555 395.402465385)rotate(-30.0)scale(0.12 -0.12)">
       <use xlink:href="#BitstreamVeraSans-Roman-4e"/>
       <use x="74.8046875" xlink:href="#BitstreamVeraSans-Roman-6f"/>
       <use x="135.986328125" xlink:href="#BitstreamVeraSans-Roman-76"/>
       <use x="195.166015625" xlink:href="#BitstreamVeraSans-Roman-20"/>
       <use x="226.953125" xlink:href="#BitstreamVeraSans-Roman-30"/>
       <use x="290.576171875" xlink:href="#BitstreamVeraSans-Roman-33"/>
       <use x="354.19921875" xlink:href="#BitstreamVeraSans-Roman-20"/>
       <use x="385.986328125" xlink:href="#BitstreamVeraSans-Roman-32"/>
       <use x="449.609375" xlink:href="#BitstreamVeraSans-Roman-30"/>
       <use x="513.232421875" xlink:href="#BitstreamVeraSans-Roman-31"/>
       <use x="576.85546875" xlink:href="#BitstreamVeraSans-Roman-35"/>
      </g>
     </g>
    </g>
   </g>
   <g id="matplotlib.axis_2">
    <g id="ytick_1">
     <g id="line2d_19">
      <defs>
       <path d="
M0 0
L4 0" id="m728421d6d4" style="stroke:#000000;stroke-width:0.5;"/>
      </defs>
      <g>
       <use style="stroke:#000000;stroke-width:0.5;" x="72.0" xlink:href="#m728421d6d4" y="309.334205922"/>
      </g>
     </g>
     <g id="line2d_20">
      <defs>
       <path d="
M0 0
L-4 0" id="mcb0005524f" style="stroke:#000000;stroke-width:0.5;"/>
      </defs>
      <g>
       <use style="stroke:#000000;stroke-width:0.5;" x="518.4" xlink:href="#mcb0005524f" y="309.334205922"/>
      </g>
     </g>
     <g id="text_9">
      <!-- 80000 -->
      <g transform="translate(31.435625 312.645455922)scale(0.12 -0.12)">
       <use xlink:href="#BitstreamVeraSans-Roman-38"/>
       <use x="63.623046875" xlink:href="#BitstreamVeraSans-Roman-30"/>
       <use x="127.24609375" xlink:href="#BitstreamVeraSans-Roman-30"/>
       <use x="190.869140625" xlink:href="#BitstreamVeraSans-Roman-30"/>
       <use x="254.4921875" xlink:href="#BitstreamVeraSans-Roman-30"/>
      </g>
     </g>
    </g>
    <g id="ytick_2">
     <g id="line2d_21">
      <g>
       <use style="stroke:#000000;stroke-width:0.5;" x="72.0" xlink:href="#m728421d6d4" y="265.011008613"/>
      </g>
     </g>
     <g id="line2d_22">
      <g>
       <use style="stroke:#000000;stroke-width:0.5;" x="518.4" xlink:href="#mcb0005524f" y="265.011008613"/>
      </g>
     </g>
     <g id="text_10">
      <!-- 100000 -->
      <g transform="translate(24.305 268.322258613)scale(0.12 -0.12)">
       <use xlink:href="#BitstreamVeraSans-Roman-31"/>
       <use x="63.623046875" xlink:href="#BitstreamVeraSans-Roman-30"/>
       <use x="127.24609375" xlink:href="#BitstreamVeraSans-Roman-30"/>
       <use x="190.869140625" xlink:href="#BitstreamVeraSans-Roman-30"/>
       <use x="254.4921875" xlink:href="#BitstreamVeraSans-Roman-30"/>
       <use x="318.115234375" xlink:href="#BitstreamVeraSans-Roman-30"/>
      </g>
     </g>
    </g>
    <g id="ytick_3">
     <g id="line2d_23">
      <g>
       <use style="stroke:#000000;stroke-width:0.5;" x="72.0" xlink:href="#m728421d6d4" y="220.687811304"/>
      </g>
     </g>
     <g id="line2d_24">
      <g>
       <use style="stroke:#000000;stroke-width:0.5;" x="518.4" xlink:href="#mcb0005524f" y="220.687811304"/>
      </g>
     </g>
     <g id="text_11">
      <!-- 120000 -->
      <g transform="translate(24.305 223.999061304)scale(0.12 -0.12)">
       <use xlink:href="#BitstreamVeraSans-Roman-31"/>
       <use x="63.623046875" xlink:href="#BitstreamVeraSans-Roman-32"/>
       <use x="127.24609375" xlink:href="#BitstreamVeraSans-Roman-30"/>
       <use x="190.869140625" xlink:href="#BitstreamVeraSans-Roman-30"/>
       <use x="254.4921875" xlink:href="#BitstreamVeraSans-Roman-30"/>
       <use x="318.115234375" xlink:href="#BitstreamVeraSans-Roman-30"/>
      </g>
     </g>
    </g>
    <g id="ytick_4">
     <g id="line2d_25">
      <g>
       <use style="stroke:#000000;stroke-width:0.5;" x="72.0" xlink:href="#m728421d6d4" y="176.364613995"/>
      </g>
     </g>
     <g id="line2d_26">
      <g>
       <use style="stroke:#000000;stroke-width:0.5;" x="518.4" xlink:href="#mcb0005524f" y="176.364613995"/>
      </g>
     </g>
     <g id="text_12">
      <!-- 140000 -->
      <defs>
       <path d="
M37.7969 64.3125
L12.8906 25.3906
L37.7969 25.3906
z

M35.2031 72.9062
L47.6094 72.9062
L47.6094 25.3906
L58.0156 25.3906
L58.0156 17.1875
L47.6094 17.1875
L47.6094 0
L37.7969 0
L37.7969 17.1875
L4.89062 17.1875
L4.89062 26.7031
z
" id="BitstreamVeraSans-Roman-34"/>
      </defs>
      <g transform="translate(24.305 179.675863995)scale(0.12 -0.12)">
       <use xlink:href="#BitstreamVeraSans-Roman-31"/>
       <use x="63.623046875" xlink:href="#BitstreamVeraSans-Roman-34"/>
       <use x="127.24609375" xlink:href="#BitstreamVeraSans-Roman-30"/>
       <use x="190.869140625" xlink:href="#BitstreamVeraSans-Roman-30"/>
       <use x="254.4921875" xlink:href="#BitstreamVeraSans-Roman-30"/>
       <use x="318.115234375" xlink:href="#BitstreamVeraSans-Roman-30"/>
      </g>
     </g>
    </g>
    <g id="ytick_5">
     <g id="line2d_27">
      <g>
       <use style="stroke:#000000;stroke-width:0.5;" x="72.0" xlink:href="#m728421d6d4" y="132.041416686"/>
      </g>
     </g>
     <g id="line2d_28">
      <g>
       <use style="stroke:#000000;stroke-width:0.5;" x="518.4" xlink:href="#mcb0005524f" y="132.041416686"/>
      </g>
     </g>
     <g id="text_13">
      <!-- 160000 -->
      <g transform="translate(24.305 135.352666686)scale(0.12 -0.12)">
       <use xlink:href="#BitstreamVeraSans-Roman-31"/>
       <use x="63.623046875" xlink:href="#BitstreamVeraSans-Roman-36"/>
       <use x="127.24609375" xlink:href="#BitstreamVeraSans-Roman-30"/>
       <use x="190.869140625" xlink:href="#BitstreamVeraSans-Roman-30"/>
       <use x="254.4921875" xlink:href="#BitstreamVeraSans-Roman-30"/>
       <use x="318.115234375" xlink:href="#BitstreamVeraSans-Roman-30"/>
      </g>
     </g>
    </g>
    <g id="ytick_6">
     <g id="line2d_29">
      <g>
       <use style="stroke:#000000;stroke-width:0.5;" x="72.0" xlink:href="#m728421d6d4" y="87.7182193771"/>
      </g>
     </g>
     <g id="line2d_30">
      <g>
       <use style="stroke:#000000;stroke-width:0.5;" x="518.4" xlink:href="#mcb0005524f" y="87.7182193771"/>
      </g>
     </g>
     <g id="text_14">
      <!-- 180000 -->
      <g transform="translate(24.305 91.0294693771)scale(0.12 -0.12)">
       <use xlink:href="#BitstreamVeraSans-Roman-31"/>
       <use x="63.623046875" xlink:href="#BitstreamVeraSans-Roman-38"/>
       <use x="127.24609375" xlink:href="#BitstreamVeraSans-Roman-30"/>
       <use x="190.869140625" xlink:href="#BitstreamVeraSans-Roman-30"/>
       <use x="254.4921875" xlink:href="#BitstreamVeraSans-Roman-30"/>
       <use x="318.115234375" xlink:href="#BitstreamVeraSans-Roman-30"/>
      </g>
     </g>
    </g>
    <g id="ytick_7">
     <g id="line2d_31">
      <g>
       <use style="stroke:#000000;stroke-width:0.5;" x="72.0" xlink:href="#m728421d6d4" y="43.3950220682"/>
      </g>
     </g>
     <g id="line2d_32">
      <g>
       <use style="stroke:#000000;stroke-width:0.5;" x="518.4" xlink:href="#mcb0005524f" y="43.3950220682"/>
      </g>
     </g>
     <g id="text_15">
      <!-- 200000 -->
      <g transform="translate(23.86625 46.7062720682)scale(0.12 -0.12)">
       <use xlink:href="#BitstreamVeraSans-Roman-32"/>
       <use x="63.623046875" xlink:href="#BitstreamVeraSans-Roman-30"/>
       <use x="127.24609375" xlink:href="#BitstreamVeraSans-Roman-30"/>
       <use x="190.869140625" xlink:href="#BitstreamVeraSans-Roman-30"/>
       <use x="254.4921875" xlink:href="#BitstreamVeraSans-Roman-30"/>
       <use x="318.115234375" xlink:href="#BitstreamVeraSans-Roman-30"/>
      </g>
     </g>
    </g>
   </g>
   <g id="text_16">
    <!-- Silizium -->
    <defs>
     <path d="
M52 44.1875
Q55.375 50.25 60.0625 53.125
Q64.75 56 71.0938 56
Q79.6406 56 84.2812 50.0156
Q88.9219 44.0469 88.9219 33.0156
L88.9219 0
L79.8906 0
L79.8906 32.7188
Q79.8906 40.5781 77.0938 44.375
Q74.3125 48.1875 68.6094 48.1875
Q61.625 48.1875 57.5625 43.5469
Q53.5156 38.9219 53.5156 30.9062
L53.5156 0
L44.4844 0
L44.4844 32.7188
Q44.4844 40.625 41.7031 44.4062
Q38.9219 48.1875 33.1094 48.1875
Q26.2188 48.1875 22.1562 43.5312
Q18.1094 38.875 18.1094 30.9062
L18.1094 0
L9.07812 0
L9.07812 54.6875
L18.1094 54.6875
L18.1094 46.1875
Q21.1875 51.2188 25.4844 53.6094
Q29.7812 56 35.6875 56
Q41.6562 56 45.8281 52.9688
Q50 49.9531 52 44.1875" id="BitstreamVeraSans-Roman-6d"/>
     <path d="
M9.42188 75.9844
L18.4062 75.9844
L18.4062 0
L9.42188 0
z
" id="BitstreamVeraSans-Roman-6c"/>
     <path d="
M5.51562 54.6875
L48.1875 54.6875
L48.1875 46.4844
L14.4062 7.17188
L48.1875 7.17188
L48.1875 0
L4.29688 0
L4.29688 8.20312
L38.0938 47.5156
L5.51562 47.5156
z
" id="BitstreamVeraSans-Roman-7a"/>
     <path d="
M53.5156 70.5156
L53.5156 60.8906
Q47.9062 63.5781 42.9219 64.8906
Q37.9375 66.2188 33.2969 66.2188
Q25.25 66.2188 20.875 63.0938
Q16.5 59.9688 16.5 54.2031
Q16.5 49.3594 19.4062 46.8906
Q22.3125 44.4375 30.4219 42.9219
L36.375 41.7031
Q47.4062 39.5938 52.6562 34.2969
Q57.9062 29 57.9062 20.125
Q57.9062 9.51562 50.7969 4.04688
Q43.7031 -1.42188 29.9844 -1.42188
Q24.8125 -1.42188 18.9688 -0.25
Q13.1406 0.921875 6.89062 3.21875
L6.89062 13.375
Q12.8906 10.0156 18.6562 8.29688
Q24.4219 6.59375 29.9844 6.59375
Q38.4219 6.59375 43.0156 9.90625
Q47.6094 13.2344 47.6094 19.3906
Q47.6094 24.75 44.3125 27.7812
Q41.0156 30.8125 33.5 32.3281
L27.4844 33.5
Q16.4531 35.6875 11.5156 40.375
Q6.59375 45.0625 6.59375 53.4219
Q6.59375 63.0938 13.4062 68.6562
Q20.2188 74.2188 32.1719 74.2188
Q37.3125 74.2188 42.625 73.2812
Q47.9531 72.3594 53.5156 70.5156" id="BitstreamVeraSans-Roman-53"/>
     <path d="
M9.42188 54.6875
L18.4062 54.6875
L18.4062 0
L9.42188 0
z

M9.42188 75.9844
L18.4062 75.9844
L18.4062 64.5938
L9.42188 64.5938
z
" id="BitstreamVeraSans-Roman-69"/>
     <path d="
M8.5 21.5781
L8.5 54.6875
L17.4844 54.6875
L17.4844 21.9219
Q17.4844 14.1562 20.5 10.2656
Q23.5312 6.39062 29.5938 6.39062
Q36.8594 6.39062 41.0781 11.0312
Q45.3125 15.6719 45.3125 23.6875
L45.3125 54.6875
L54.2969 54.6875
L54.2969 0
L45.3125 0
L45.3125 8.40625
Q42.0469 3.42188 37.7188 1
Q33.4062 -1.42188 27.6875 -1.42188
Q18.2656 -1.42188 13.375 4.4375
Q8.5 10.2969 8.5 21.5781" id="BitstreamVeraSans-Roman-75"/>
    </defs>
    <g transform="translate(464.71725 38.2)scale(0.144 -0.144)">
     <use xlink:href="#BitstreamVeraSans-Roman-53"/>
     <use x="63.4765625" xlink:href="#BitstreamVeraSans-Roman-69"/>
     <use x="91.259765625" xlink:href="#BitstreamVeraSans-Roman-6c"/>
     <use x="119.04296875" xlink:href="#BitstreamVeraSans-Roman-69"/>
     <use x="146.826171875" xlink:href="#BitstreamVeraSans-Roman-7a"/>
     <use x="199.31640625" xlink:href="#BitstreamVeraSans-Roman-69"/>
     <use x="227.099609375" xlink:href="#BitstreamVeraSans-Roman-75"/>
     <use x="290.478515625" xlink:href="#BitstreamVeraSans-Roman-6d"/>
    </g>
   </g>
   <g id="legend_1">
    <g id="patch_7">
     <path d="
M123.942 423.616
L466.458 423.616
L466.458 398.16
L123.942 398.16
z
" style="fill:#ffffff;stroke:#000000;stroke-linejoin:miter;"/>
    </g>
    <g id="line2d_33">
     <path d="
M134.022 409.822
L154.182 409.822" style="fill:none;stroke:#ff0000;stroke-linecap:square;"/>
    </g>
    <g id="line2d_34"/>
    <g id="text_17">
     <!-- Schwarzmarktpreis -->
     <defs>
      <path d="
M34.2812 27.4844
Q23.3906 27.4844 19.1875 25
Q14.9844 22.5156 14.9844 16.5
Q14.9844 11.7188 18.1406 8.90625
Q21.2969 6.10938 26.7031 6.10938
Q34.1875 6.10938 38.7031 11.4062
Q43.2188 16.7031 43.2188 25.4844
L43.2188 27.4844
z

M52.2031 31.2031
L52.2031 0
L43.2188 0
L43.2188 8.29688
Q40.1406 3.32812 35.5469 0.953125
Q30.9531 -1.42188 24.3125 -1.42188
Q15.9219 -1.42188 10.9531 3.29688
Q6 8.01562 6 15.9219
Q6 25.1406 12.1719 29.8281
Q18.3594 34.5156 30.6094 34.5156
L43.2188 34.5156
L43.2188 35.4062
Q43.2188 41.6094 39.1406 45
Q35.0625 48.3906 27.6875 48.3906
Q23 48.3906 18.5469 47.2656
Q14.1094 46.1406 10.0156 43.8906
L10.0156 52.2031
Q14.9375 54.1094 19.5781 55.0469
Q24.2188 56 28.6094 56
Q40.4844 56 46.3438 49.8438
Q52.2031 43.7031 52.2031 31.2031" id="BitstreamVeraSans-Roman-61"/>
      <path d="
M9.07812 75.9844
L18.1094 75.9844
L18.1094 31.1094
L44.9219 54.6875
L56.3906 54.6875
L27.3906 29.1094
L57.625 0
L45.9062 0
L18.1094 26.7031
L18.1094 0
L9.07812 0
z
" id="BitstreamVeraSans-Roman-6b"/>
      <path d="
M54.8906 33.0156
L54.8906 0
L45.9062 0
L45.9062 32.7188
Q45.9062 40.4844 42.875 44.3281
Q39.8438 48.1875 33.7969 48.1875
Q26.5156 48.1875 22.3125 43.5469
Q18.1094 38.9219 18.1094 30.9062
L18.1094 0
L9.07812 0
L9.07812 75.9844
L18.1094 75.9844
L18.1094 46.1875
Q21.3438 51.125 25.7031 53.5625
Q30.0781 56 35.7969 56
Q45.2188 56 50.0469 50.1719
Q54.8906 44.3438 54.8906 33.0156" id="BitstreamVeraSans-Roman-68"/>
      <path d="
M56.2031 29.5938
L56.2031 25.2031
L14.8906 25.2031
Q15.4844 15.9219 20.4844 11.0625
Q25.4844 6.20312 34.4219 6.20312
Q39.5938 6.20312 44.4531 7.46875
Q49.3125 8.73438 54.1094 11.2812
L54.1094 2.78125
Q49.2656 0.734375 44.1875 -0.34375
Q39.1094 -1.42188 33.8906 -1.42188
Q20.7969 -1.42188 13.1562 6.1875
Q5.51562 13.8125 5.51562 26.8125
Q5.51562 40.2344 12.7656 48.1094
Q20.0156 56 32.3281 56
Q43.3594 56 49.7812 48.8906
Q56.2031 41.7969 56.2031 29.5938
M47.2188 32.2344
Q47.125 39.5938 43.0938 43.9844
Q39.0625 48.3906 32.4219 48.3906
Q24.9062 48.3906 20.3906 44.1406
Q15.875 39.8906 15.1875 32.1719
z
" id="BitstreamVeraSans-Roman-65"/>
      <path d="
M4.20312 54.6875
L13.1875 54.6875
L24.4219 12.0156
L35.5938 54.6875
L46.1875 54.6875
L57.4219 12.0156
L68.6094 54.6875
L77.5938 54.6875
L63.2812 0
L52.6875 0
L40.9219 44.8281
L29.1094 0
L18.5 0
z
" id="BitstreamVeraSans-Roman-77"/>
      <path d="
M41.1094 46.2969
Q39.5938 47.1719 37.8125 47.5781
Q36.0312 48 33.8906 48
Q26.2656 48 22.1875 43.0469
Q18.1094 38.0938 18.1094 28.8125
L18.1094 0
L9.07812 0
L9.07812 54.6875
L18.1094 54.6875
L18.1094 46.1875
Q20.9531 51.1719 25.4844 53.5781
Q30.0312 56 36.5312 56
Q37.4531 56 38.5781 55.875
Q39.7031 55.7656 41.0625 55.5156
z
" id="BitstreamVeraSans-Roman-72"/>
      <path d="
M44.2812 53.0781
L44.2812 44.5781
Q40.4844 46.5312 36.375 47.5
Q32.2812 48.4844 27.875 48.4844
Q21.1875 48.4844 17.8438 46.4375
Q14.5 44.3906 14.5 40.2812
Q14.5 37.1562 16.8906 35.375
Q19.2812 33.5938 26.5156 31.9844
L29.5938 31.2969
Q39.1562 29.25 43.1875 25.5156
Q47.2188 21.7812 47.2188 15.0938
Q47.2188 7.46875 41.1875 3.01562
Q35.1562 -1.42188 24.6094 -1.42188
Q20.2188 -1.42188 15.4531 -0.5625
Q10.6875 0.296875 5.42188 2
L5.42188 11.2812
Q10.4062 8.6875 15.2344 7.39062
Q20.0625 6.10938 24.8125 6.10938
Q31.1562 6.10938 34.5625 8.28125
Q37.9844 10.4531 37.9844 14.4062
Q37.9844 18.0625 35.5156 20.0156
Q33.0625 21.9688 24.7031 23.7812
L21.5781 24.5156
Q13.2344 26.2656 9.51562 29.9062
Q5.8125 33.5469 5.8125 39.8906
Q5.8125 47.6094 11.2812 51.7969
Q16.75 56 26.8125 56
Q31.7812 56 36.1719 55.2656
Q40.5781 54.5469 44.2812 53.0781" id="BitstreamVeraSans-Roman-73"/>
      <path d="
M18.1094 8.20312
L18.1094 -20.7969
L9.07812 -20.7969
L9.07812 54.6875
L18.1094 54.6875
L18.1094 46.3906
Q20.9531 51.2656 25.2656 53.625
Q29.5938 56 35.5938 56
Q45.5625 56 51.7812 48.0938
Q58.0156 40.1875 58.0156 27.2969
Q58.0156 14.4062 51.7812 6.48438
Q45.5625 -1.42188 35.5938 -1.42188
Q29.5938 -1.42188 25.2656 0.953125
Q20.9531 3.32812 18.1094 8.20312
M48.6875 27.2969
Q48.6875 37.2031 44.6094 42.8438
Q40.5312 48.4844 33.4062 48.4844
Q26.2656 48.4844 22.1875 42.8438
Q18.1094 37.2031 18.1094 27.2969
Q18.1094 17.3906 22.1875 11.75
Q26.2656 6.10938 33.4062 6.10938
Q40.5312 6.10938 44.6094 11.75
Q48.6875 17.3906 48.6875 27.2969" id="BitstreamVeraSans-Roman-70"/>
     </defs>
     <g transform="translate(170.022375 414.86175)scale(0.144 -0.144)">
      <use xlink:href="#BitstreamVeraSans-Roman-53"/>
      <use x="63.4765625" xlink:href="#BitstreamVeraSans-Roman-63"/>
      <use x="118.45703125" xlink:href="#BitstreamVeraSans-Roman-68"/>
      <use x="181.8359375" xlink:href="#BitstreamVeraSans-Roman-77"/>
      <use x="263.623046875" xlink:href="#BitstreamVeraSans-Roman-61"/>
      <use x="324.90234375" xlink:href="#BitstreamVeraSans-Roman-72"/>
      <use x="366.015625" xlink:href="#BitstreamVeraSans-Roman-7a"/>
      <use x="418.505859375" xlink:href="#BitstreamVeraSans-Roman-6d"/>
      <use x="515.91796875" xlink:href="#BitstreamVeraSans-Roman-61"/>
      <use x="577.197265625" xlink:href="#BitstreamVeraSans-Roman-72"/>
      <use x="618.310546875" xlink:href="#BitstreamVeraSans-Roman-6b"/>
      <use x="676.220703125" xlink:href="#BitstreamVeraSans-Roman-74"/>
      <use x="715.4296875" xlink:href="#BitstreamVeraSans-Roman-70"/>
      <use x="778.90625" xlink:href="#BitstreamVeraSans-Roman-72"/>
      <use x="817.76953125" xlink:href="#BitstreamVeraSans-Roman-65"/>
      <use x="879.29296875" xlink:href="#BitstreamVeraSans-Roman-69"/>
      <use x="907.076171875" xlink:href="#BitstreamVeraSans-Roman-73"/>
     </g>
    </g>
    <g id="line2d_35">
     <path d="
M339.609 409.822
L359.769 409.822" style="fill:none;stroke:#008000;stroke-linecap:square;"/>
    </g>
    <g id="line2d_36"/>
    <g id="text_18">
     <!-- Normalpreis -->
     <g transform="translate(375.609375 414.86175)scale(0.144 -0.144)">
      <use xlink:href="#BitstreamVeraSans-Roman-4e"/>
      <use x="74.8046875" xlink:href="#BitstreamVeraSans-Roman-6f"/>
      <use x="135.986328125" xlink:href="#BitstreamVeraSans-Roman-72"/>
      <use x="175.349609375" xlink:href="#BitstreamVeraSans-Roman-6d"/>
      <use x="272.76171875" xlink:href="#BitstreamVeraSans-Roman-61"/>
      <use x="334.041015625" xlink:href="#BitstreamVeraSans-Roman-6c"/>
      <use x="361.82421875" xlink:href="#BitstreamVeraSans-Roman-70"/>
      <use x="425.30078125" xlink:href="#BitstreamVeraSans-Roman-72"/>
      <use x="464.1640625" xlink:href="#BitstreamVeraSans-Roman-65"/>
      <use x="525.6875" xlink:href="#BitstreamVeraSans-Roman-69"/>
      <use x="553.470703125" xlink:href="#BitstreamVeraSans-Roman-73"/>
     </g>
    </g>
   </g>
  </g>
 </g>
 <defs>
  <clipPath id="pcb2bf987bf">
   <rect height="302.4" width="446.4" x="72.0" y="43.2"/>
  </clipPath>
 </defs>
</svg>
