<?xml version="1.0" encoding="utf-8" standalone="no"?>
<!DOCTYPE svg PUBLIC "-//W3C//DTD SVG 1.1//EN"
  "http://www.w3.org/Graphics/SVG/1.1/DTD/svg11.dtd">
<!-- Created with matplotlib (http://matplotlib.org/) -->
<svg height="432pt" version="1.1" viewBox="0 0 576 432" width="576pt" xmlns="http://www.w3.org/2000/svg" xmlns:xlink="http://www.w3.org/1999/xlink">
 <defs>
  <style type="text/css">
*{stroke-linecap:butt;stroke-linejoin:round;}
  </style>
 </defs>
 <g id="figure_1">
  <g id="patch_1">
   <path d="
M0 432
L576 432
L576 0
L0 0
z
" style="fill:#ffffff;"/>
  </g>
  <g id="axes_1">
   <g id="patch_2">
    <path d="
M72 345.6
L518.4 345.6
L518.4 43.2
L72 43.2
z
" style="fill:#ffffff;"/>
   </g>
   <g id="line2d_1">
    <path clip-path="url(#pcb2bf987bf)" d="
M72 225.089
L72.2551 219.813
L72.3826 219.813
L72.6377 218.525
L72.7653 218.525
L73.0203 221.977
L73.1479 220.073
L73.403 223.231
L73.5305 221.346
L73.7856 222.606
L73.9131 222.606
L74.1682 223.231
L74.2958 224.636
L74.6784 225.089
L74.9335 225.089
L75.061 223.231
L75.3161 222.606
L75.4437 221.977
L75.6987 222.606
L75.8263 222.606
L76.0814 225.089
L76.2089 225.089
L76.464 223.853
L76.5915 224.471
L76.8466 223.852
L77.2295 223.852
L77.6119 223.463
L77.9947 224.471
L78.3771 224.471
L78.3771 224.471
L78.5047 223.852
L78.7598 223.852
L78.8873 222.604
L79.1426 222.604
L79.2699 223.852
L79.6526 221.344
L79.9077 221.343
L80.0352 222.604
L80.2903 228.458
L80.4178 228.458
L80.6729 229.61
L80.8005 229.017
L81.0555 229.738
L81.4384 229.738
L81.9483 227.69
L82.2036 227.425
L82.331 199.152
L82.5863 226.821
L82.7136 226.821
L82.9687 227.425
L83.0962 226.821
L83.4789 227.69
L83.8615 227.425
L84.1166 228.29
L84.2441 228.29
L84.4992 227.087
L85.2647 227.087
L85.392 226.481
L85.6473 225.872
L85.7746 228.29
L86.1573 228.29
L86.4123 227.69
L86.5399 227.69
L86.795 227.087
L86.9225 227.087
L87.1776 225.26
L87.3051 225.26
L87.5602 225.872
L87.6878 228.29
L87.9429 227.69
L88.0704 227.69
L88.3255 228.29
L88.453 227.69
L88.7081 227.087
L88.8357 225.872
L89.0907 225.26
L89.0907 225.26
L89.4734 225.26
L89.6009 223.405
L90.2386 223.405
L90.2386 223.405
L90.4937 222.153
L90.6213 222.153
L91.259 223.405
L92.1518 222.776
L92.7895 226.481
L92.917 226.481
L93.5547 225.26
L94.32 226.481
L94.4475 228.29
L95.0853 233.09
L95.2128 232.514
L95.8505 226.494
L95.9781 226.494
L96.6158 227.137
L97.381 222.808
L98.2738 223.244
L98.9115 222.149
L99.0391 221.518
L99.6768 220.244
L100.442 220.244
L100.57 219.603
L101.207 218.96
L101.973 220.244
L102.1 218.96
L102.738 220.244
L103.631 221.516
L104.268 221.518
L105.034 220.883
L105.799 221.349
L106.564 220.076
L107.33 219.435
L108.095 221.349
L108.222 220.714
L108.86 221.349
L109.753 215.521
L110.39 214.19
L110.518 208.87
L111.156 220.076
L111.283 219.435
L114.217 219.435
L115.109 218.127
L116.512 215.795
L116.64 219.435
L117.278 219.435
L118.043 220.076
L118.171 219.9
L118.936 220.076
L119.573 218.791
L120.339 219.987
L121.232 219.345
L121.869 220.076
L122.635 219.435
L122.762 220.076
L124.165 217.492
L124.93 217.492
L125.696 220.076
L126.333 216.181
L126.461 218.143
L126.461 218.143
L126.589 218.143
L127.226 219.435
L127.354 218.791
L127.354 218.791
L127.864 217.492
L127.864 217.492
L127.991 216.181
L128.757 220.076
L128.884 219.435
L129.522 220.076
L130.287 219.435
L130.415 218.143
L131.052 216.181
L131.818 216.838
L132.583 218.143
L132.583 218.143
L134.113 227.963
L134.369 227.361
L134.879 227.361
L135.644 236.162
L136.409 229.111
L136.537 229.111
L137.174 229.711
L137.94 218.515
L138.705 215.9
L139.47 219.161
L139.598 219.161
L140.235 217.214
L141.001 213.232
L141.766 216.558
L141.893 226.104
L142.531 225.495
L143.296 230.301
L144.189 229.711
L145.592 229.711
L145.72 230.301
L146.485 229.711
L147.123 228.522
L147.25 227.923
L147.888 224.267
L148.653 226.717
L149.546 223.244
L150.184 220.499
L150.949 230.888
L151.077 230.888
L151.714 229.959
L152.48 219.161
L153.245 228.588
L153.372 227.341
L154.01 229.391
L154.775 228.901
L155.541 217.139
L155.541 217.139
L156.306 228.304
L157.071 221.144
L157.837 222.406
L157.964 221.776
L158.602 221.777
L159.367 229.623
L160.132 231.493
L160.897 229.731
L161.025 229.138
L162.428 227.342
L163.321 227.332
L164.086 226.727
L164.724 226.727
L164.851 224.194
L165.489 222.149
L166.254 223.573
L167.019 225.394
L167.785 226.12
L167.912 227.332
L168.55 227.332
L169.315 221.146
L169.443 221.779
L170.08 221.146
L170.846 226.737
L170.973 226.129
L171.611 224.288
L172.376 224.905
L173.141 230.906
L173.269 230.906
L173.907 228.327
L174.672 228.327
L174.8 227.727
L176.203 227.727
L177.095 226.518
L177.733 225.798
L178.498 226.518
L179.264 225.297
L180.029 224.485
L180.156 223.866
L181.559 225.101
L182.452 225.098
L183.09 230.909
L183.855 226.444
L183.983 226.444
L184.62 219.958
L185.386 224.607
L186.151 224.607
L186.916 220.648
L187.681 224.485
L188.447 223.244
L189.212 219.958
L189.339 225.222
L190.742 226.821
L191.508 231.958
L191.508 231.958
L193.038 227.963
L193.803 229.75
L194.569 230.789
L196.099 230.789
L196.864 226.614
L198.395 228.421
L198.395 228.421
L199.16 227.822
L200.691 226.263
L202.221 228.587
L202.987 230.68
L203.879 229.741
L204.517 230.091
L205.282 222.149
L205.41 219.609
L206.048 217.477
L206.175 214.84
L206.303 229.5
L206.685 225.892
L206.813 226.501
L206.813 226.501
L206.94 225.892
L208.088 222.776
L208.343 219.182
L208.981 227.106
L209.236 227.71
L209.236 227.71
L209.746 227.71
L210.001 229.5
L210.767 230.68
L211.022 229.157
L211.532 231.953
L212.042 231.953
L212.297 231.372
L212.807 231.372
L213.062 231.953
L213.955 231.95
L214.21 231.369
L214.593 231.369
L214.72 230.784
L214.976 231.369
L215.103 230.784
L215.358 230.196
L215.358 230.196
L215.486 229.606
L215.741 229.012
L215.868 230.771
L216.123 230.183
L216.123 230.183
L216.251 228.999
L216.634 231.369
L216.761 230.784
L216.761 230.784
L217.016 229.012
L217.271 230.196
L217.399 230.071
L217.654 229.48
L217.654 229.48
L217.781 228.289
L218.037 220.452
L218.164 226.214
L218.419 229.076
L218.419 229.076
L218.547 229.076
L218.802 228.48
L218.929 227.881
L219.184 228.48
L219.312 228.48
L219.567 227.279
L219.95 224.841
L220.077 225.455
L220.332 229.012
L220.46 227.816
L220.46 227.816
L220.587 225.389
L220.843 231.368
L220.843 231.368
L221.48 231.363
L221.863 227.214
L222.245 228.416
L222.373 231.363
L222.756 231.363
L223.011 231.953
L223.011 231.953
L223.521 227.952
L223.776 227.35
L223.904 231.956
L224.286 229.75
L224.541 229.157
L224.669 228.561
L224.924 231.493
L225.051 231.493
L225.307 230.912
L225.434 229.735
L225.689 229.735
L225.817 230.325
L225.817 230.325
L226.072 227.343
L226.072 227.343
L226.199 225.52
L226.199 225.52
L226.327 225.52
L226.327 225.52
L226.582 232.074
L226.582 232.074
L226.837 231.53
L226.965 231.53
L227.347 229.768
L227.602 229.768
L227.602 229.768
L227.985 230.9
L228.112 230.313
L228.368 229.723
L228.495 229.721
L228.75 223.341
L228.878 225.074
L229.133 230.313
L229.26 230.313
L229.515 230.9
L229.643 230.9
L229.898 230.313
L230.026 230.313
L230.281 229.723
L230.663 227.983
L230.663 227.983
L231.046 230.313
L231.811 230.313
L231.939 229.723
L232.704 229.723
L232.959 229.13
L232.959 229.13
L233.087 228.535
L233.342 229.13
L233.724 229.13
L233.852 229.723
L234.235 229.723
L234.49 230.313
L234.49 230.313
L234.617 230.313
L234.872 229.723
L235 229.723
L235.255 230.313
L235.255 230.313
L235.383 230.313
L235.637 230.9
L235.765 230.313
L236.02 229.723
L236.02 229.723
L236.785 229.723
L236.913 228.535
L237.168 228.535
L237.296 228
L237.551 229.75
L237.678 229.157
L238.061 229.157
L238.316 228.588
L238.699 228.588
L238.826 229.75
L239.081 227.361
L239.464 227.361
L239.591 226.756
L239.846 224.895
L239.974 226.119
L240.357 226.119
L240.612 224.278
L240.612 224.278
L240.739 226.119
L240.994 224.895
L241.122 224.895
L241.377 224.251
L241.504 223.007
L241.76 223.631
L241.887 223.034
L242.142 224.278
L242.27 223.034
L242.525 223.658
L242.653 222.408
L242.907 221.847
L243.418 230.9
L243.673 230.9
L243.8 230.313
L244.438 230.313
L244.565 229.723
L244.821 230.666
L244.948 232.894
L245.203 232.074
L245.203 232.074
L245.331 232.074
L245.586 230.907
L245.713 229.73
L245.968 230.907
L246.096 229.73
L246.351 230.32
L247.116 230.32
L247.244 229.138
L247.499 229.138
L247.882 227.943
L248.009 228.542
L248.392 227.943
L248.647 226.737
L249.157 226.737
L249.412 227.341
L249.795 226.737
L249.795 226.737
L249.922 226.129
L250.177 225.518
L250.56 225.518
L250.688 224.904
L250.943 227.341
L251.07 227.341
L251.325 226.737
L251.708 226.737
L251.835 226.129
L252.091 226.735
L252.601 226.737
L252.856 227.943
L252.983 227.341
L253.238 227.943
L253.366 227.943
L253.621 226.734
L253.749 226.736
L254.004 226.126
L254.131 225.515
L254.386 225.515
L254.769 227.341
L255.152 227.341
L255.279 226.129
L255.279 226.129
L255.534 225.518
L255.662 226.736
L255.662 226.736
L255.917 226.736
L255.917 226.736
L256.044 226.129
L256.427 225.518
L256.81 223.667
L256.81 223.667
L257.065 227.341
L257.447 227.341
L257.575 227.943
L257.957 227.943
L258.213 228.542
L258.213 228.542
L258.595 228.541
L258.723 227.34
L258.85 227.942
L258.978 226.128
L259.105 227.942
L259.36 227.34
L259.36 227.34
L259.488 227.34
L259.743 226.736
L259.743 226.736
L259.871 226.736
L260.126 227.942
L260.253 236.142
L261.401 236.142
L261.656 231.342
L261.784 233.652
L262.039 232.391
L262.166 232.391
L262.421 231.811
L262.549 232.39
L262.804 231.804
L262.932 230.636
L263.187 230.048
L263.314 228.265
L263.569 229.456
L263.569 229.456
L263.697 230.636
L263.952 231.226
L264.08 230.641
L264.335 231.808
L264.335 231.808
L264.462 231.808
L264.717 231.923
L264.845 230.757
L265.1 232.502
L265.1 232.502
L265.483 232.502
L265.61 231.923
L265.738 231.923
L266.375 229.517
L266.758 232.502
L267.141 232.502
L267.523 232.156
L267.778 232.156
L267.906 231.493
L268.161 230.908
L268.671 228.529
L269.054 228.529
L269.309 227.328
L269.437 227.93
L269.691 228.529
L269.819 228.529
L270.074 227.328
L270.202 227.328
L270.457 228.543
L270.584 227.944
L270.839 232.073
L270.967 231.492
L271.222 230.908
L271.987 230.908
L272.115 232.073
L272.37 230.908
L272.88 230.907
L273.135 208.83
L273.263 230.331
L273.518 229.741
L273.518 229.741
L273.9 229.741
L274.028 227.417
L274.283 230.57
L274.411 229.39
L274.666 229.39
L274.793 232.318
L275.048 230.582
L275.048 230.582
L275.176 230.582
L275.431 229.02
L275.813 228.424
L275.941 227.824
L276.196 228.424
L276.324 228.424
L276.579 227.222
L276.706 219.813
L276.961 230.912
L277.089 230.912
L277.344 230.091
L277.472 229.14
L277.727 229.733
L277.854 229.733
L278.109 229.14
L278.109 229.14
L278.237 228.542
L278.875 231.389
L279.385 231.389
L279.64 230.805
L279.767 230.805
L280.022 230.682
L280.15 230.094
L280.533 225.816
L280.788 227.635
L280.915 229.501
L281.17 228.909
L281.17 228.909
L281.298 229.503
L281.553 229.503
L281.68 230.682
L281.936 227.712
L282.318 228.909
L282.446 231.389
L282.701 230.217
L282.828 230.805
L283.083 229.036
L283.211 216.77
L283.466 229.036
L283.594 229.629
L283.976 229.629
L284.231 229.036
L284.359 228.439
L284.614 227.84
L284.869 227.84
L285.379 226.632
L285.889 226.632
L286.144 226.024
L286.272 226.024
L286.527 226.632
L286.655 226.632
L286.91 225.413
L287.037 226.024
L287.292 225.413
L287.42 227.84
L287.675 230.219
L287.803 230.219
L288.185 225.48
L288.44 226.091
L288.568 230.219
L288.95 231.493
L289.205 231.493
L289.333 232.074
L289.588 230.446
L289.716 230.446
L289.971 230.909
L290.098 229.732
L290.481 229.732
L290.736 229.139
L290.864 229.732
L290.991 229.139
L291.119 229.729
L291.246 229.729
L291.501 227.942
L291.884 227.942
L292.394 225.651
L292.649 223.802
L292.649 223.802
L292.777 227.942
L293.414 227.942
L293.414 227.942
L293.542 228.897
L293.797 227.681
L293.797 227.681
L293.925 228.123
L294.18 226.682
L294.18 226.682
L294.307 226.682
L294.562 225.93
L294.69 227.287
L294.945 226.682
L294.945 226.682
L295.072 226.682
L295.328 228.3
L295.455 231.493
L295.71 230.322
L295.838 230.322
L296.093 231.493
L296.858 231.493
L296.986 230.909
L297.241 230.909
L297.368 228.588
L297.751 232.074
L298.006 231.809
L298.133 232.074
L298.389 231.341
L298.516 231.341
L298.771 229.578
L298.899 229.578
L299.154 230.756
L299.281 230.169
L299.536 232.502
L299.664 231.923
L299.919 232.063
L300.047 232.502
L300.429 230.169
L300.684 229.578
L300.812 230.169
L301.195 230.169
L301.45 228.985
L301.577 228.985
L301.832 230.757
L301.96 230.757
L302.215 230.169
L302.342 229.404
L302.98 231.259
L303.108 233.652
L303.745 233.652
L303.873 233.236
L304.511 233.231
L304.893 232.077
L305.021 232.077
L305.276 231.493
L305.659 231.493
L305.786 233.232
L306.041 233.232
L306.169 232.657
L306.424 232.657
L306.551 233.652
L306.806 233.149
L306.934 233.149
L307.189 231.994
L307.189 231.994
L307.317 230.829
L307.572 231.994
L307.699 231.413
L307.954 230.829
L308.464 230.829
L308.72 230.24
L308.72 230.24
L308.847 231.413
L309.102 230.829
L309.23 231.994
L309.995 231.994
L310.25 231.404
L310.25 231.404
L310.378 231.404
L310.633 231.994
L310.76 231.994
L311.015 230.829
L311.398 230.825
L311.525 230.237
L311.781 229.647
L311.908 228.458
L312.291 230.829
L312.546 230.613
L312.673 229.89
L312.928 229.298
L313.056 229.298
L313.311 231.493
L313.439 233.652
L314.459 233.652
L314.587 232.111
L314.969 232.111
L315.224 219.17
L315.352 232.539
L315.734 232.892
L315.989 232.89
L316.372 230.564
L316.5 231.733
L316.882 230.565
L317.137 231.733
L317.52 231.726
L317.648 230.557
L317.903 231.143
L318.03 231.143
L318.285 232.313
L318.413 232.313
L318.668 231.733
L318.668 231.733
L318.795 232.313
L319.051 228.826
L319.178 231.733
L319.561 231.731
L319.943 231.027
L320.198 232.074
L320.326 232.074
L321.346 229.75
L321.474 231.259
L321.729 232.313
L322.112 229.976
L322.239 230.565
L323.642 230.563
L323.77 229.383
L324.152 227.59
L324.407 226.987
L324.535 226.987
L324.79 230.563
L325.3 228.658
L325.555 229.975
L325.683 229.383
L325.938 229.383
L326.066 229.975
L326.448 229.975
L326.703 228.19
L326.831 228.191
L327.086 232.313
L327.213 232.074
L327.468 230.909
L327.851 230.909
L327.979 231.733
L328.234 229.384
L328.361 229.384
L328.616 231.029
L328.744 231.029
L328.999 231.144
L329.126 230.675
L329.509 230.446
L329.764 229.97
L329.892 231.144
L330.147 219.161
L330.274 230.559
L330.529 229.97
L330.657 229.97
L330.912 219.161
L331.04 229.378
L331.295 229.97
L331.422 229.97
L331.677 229.378
L331.805 231.144
L332.187 228.588
L332.443 228.784
L332.57 228.186
L332.825 228.784
L332.953 228.784
L333.208 228.167
L333.335 228.167
L333.59 227.425
L333.718 228.167
L333.973 227.565
L334.356 225.745
L334.483 226.961
L334.738 226.354
L334.866 227.566
L335.121 227.566
L335.248 228.167
L335.504 228.784
L335.886 228.784
L336.014 227.586
L336.269 227.586
L336.396 226.982
L336.651 227.586
L336.779 226.982
L337.034 226.375
L337.162 228.784
L337.417 228.784
L337.544 228.186
L337.927 227.425
L338.182 229.75
L338.309 229.75
L338.565 229.157
L338.692 229.157
L338.947 212.74
L339.075 227.963
L339.33 229.157
L339.457 229.157
L339.712 231.733
L340.478 231.726
L340.605 232.121
L340.86 231.54
L341.371 231.54
L341.626 234.038
L342.391 234.038
L342.518 229.75
L342.773 232.341
L342.901 231.761
L343.156 232.918
L343.284 232.341
L343.539 230.004
L343.666 230.004
L343.921 231.178
L343.921 231.178
L344.049 231.178
L344.687 227.755
L344.814 229.75
L345.069 230.592
L345.197 229.412
L345.452 229.878
L345.452 229.878
L345.579 229.75
L345.835 231.143
L345.962 229.969
L346.217 228.78
L346.345 227.582
L346.6 227.387
L346.727 228.588
L346.982 227.989
L346.982 227.989
L347.11 228.588
L347.365 232.918
L347.493 232.341
L347.875 232.341
L348.13 207.934
L348.258 232.918
L348.513 232.918
L348.64 231.761
L348.896 230.593
L349.278 230.593
L349.406 230.004
L349.661 229.413
L349.788 229.413
L350.043 227.017
L350.171 227.017
L350.426 229.413
L350.554 229.413
L350.809 227.017
L351.191 228.818
L351.319 227.017
L351.957 228.221
L352.084 229.413
L352.339 228.221
L352.467 228.223
L352.722 227.425
L352.849 230.591
L353.104 231.178
L353.232 232.074
L353.487 232.074
L353.615 231.493
L353.87 232.341
L353.87 232.341
L354.252 231.178
L354.635 231.178
L354.763 231.026
L355.018 230.44
L355.145 229.85
L355.4 230.437
L355.4 230.437
L355.528 231.761
L355.783 231.178
L356.165 231.178
L356.165 231.178
L356.293 230.004
L356.931 228.106
L357.058 228.704
L357.313 228.106
L357.568 227.97
L358.206 227.97
L358.461 227.368
L358.461 227.368
L358.589 226.763
L358.844 226.763
L358.971 227.368
L359.227 226.763
L359.354 227.368
L359.737 227.368
L359.992 224.485
L360.119 221.518
L360.374 227.368
L360.502 226.763
L360.757 227.97
L360.885 226.763
L361.14 225.545
L361.267 226.156
L361.522 228.704
L361.65 228.704
L362.032 226.901
L362.288 226.9
L362.415 226.726
L362.67 225.507
L362.798 226.118
L363.18 230.91
L363.435 230.91
L363.563 231.178
L363.818 230.36
L363.946 231.178
L364.201 231.493
L364.328 230.909
L364.583 232.918
L364.711 232.655
L364.966 230.912
L365.093 230.912
L365.349 226.821
L365.476 230.912
L365.731 232.655
L365.859 232.077
L366.114 231.496
L366.114 231.496
L366.242 232.655
L366.496 232.077
L366.624 231.496
L366.879 230.912
L367.007 229.142
L367.262 231.496
L367.389 231.496
L367.644 230.912
L367.772 230.912
L368.027 231.496
L368.155 231.496
L368.41 232.655
L368.537 232.074
L369.175 232.074
L369.685 226.738
L370.068 224.805
L370.323 224.718
L370.45 224.805
L370.705 224.805
L370.833 225.101
L371.216 220.724
L371.471 220.086
L371.598 220.724
L371.981 220.724
L372.363 231.493
L372.619 230.781
L372.746 230.781
L373.001 231.374
L373.129 230.789
L373.511 230.789
L373.766 230.09
L373.766 230.09
L373.894 227.989
L374.149 228.905
L374.277 232.074
L374.659 232.077
L374.914 231.496
L375.042 232.655
L375.297 232.655
L375.424 232.077
L375.68 231.47
L375.807 230.302
L376.062 230.302
L376.19 229.712
L376.445 230.302
L376.572 230.889
L376.827 231.47
L377.338 231.47
L377.593 230.886
L377.593 230.886
L377.848 230.886
L378.103 231.47
L378.485 231.446
L378.741 230.885
L379.123 229.115
L379.251 229.115
L379.506 228.52
L379.633 230.885
L379.888 229.708
L380.016 228.52
L380.271 227.405
L380.654 228.006
L380.781 227.405
L381.036 228.006
L381.164 228.006
L381.419 228.587
L381.547 228.587
L381.802 229.708
L381.929 229.708
L382.184 229.115
L382.312 230.298
L382.567 230.298
L382.694 230.885
L383.077 229.115
L383.46 229.115
L383.715 231.47
L384.608 231.47
L384.863 230.886
L385.245 230.299
L385.373 232.655
L385.628 230.323
L385.755 231.494
L386.011 230.91
L386.138 231.494
L386.393 232.074
L386.521 232.074
L386.776 232.654
L387.158 232.654
L387.286 232.075
L387.541 231.494
L387.669 219.288
L387.924 232.075
L388.051 232.074
L388.306 231.493
L388.306 231.493
L388.434 231.493
L388.689 232.075
L388.816 232.654
L389.072 232.075
L389.199 232.654
L389.582 232.515
L389.837 232.074
L389.964 231.493
L390.347 231.936
L390.602 230.559
L390.73 231.121
L391.112 227.423
L391.495 230.533
L391.75 229.937
L391.878 227.551
L392.26 223.023
L392.515 226.341
L392.643 225.731
L392.898 227.551
L393.025 226.821
L393.28 229.937
L394.046 229.937
L394.173 229.334
L394.173 229.334
L394.556 226.418
L394.811 229.926
L395.194 229.926
L395.321 229.334
L395.576 229.937
L395.704 228.75
L395.959 228.152
L396.086 228.152
L396.469 229.937
L396.852 229.937
L397.107 229.345
L397.234 229.937
L397.489 229.345
L397.872 229.345
L398 229.937
L398.255 229.345
L398.765 229.345
L399.02 229.937
L399.147 229.345
L399.403 229.345
L399.53 229.937
L400.168 229.926
L400.295 229.345
L400.678 229.345
L400.933 228.75
L401.061 228.152
L401.316 228.152
L401.443 226.948
L401.698 228.588
L402.081 228.588
L402.208 229.345
L402.464 229.345
L402.591 229.937
L402.846 229.344
L402.974 227.02
L403.356 229.937
L403.739 229.946
L403.994 229.355
L404.377 229.355
L404.504 228.76
L404.759 229.946
L404.887 229.355
L405.142 228.76
L405.269 228.76
L405.652 226.958
L405.907 228.76
L406.035 228.76
L406.417 228.395
L406.8 228.76
L407.055 227.193
L407.438 228.76
L407.565 228.162
L407.82 227.502
L407.948 228.103
L408.203 232.074
L408.331 230.909
L408.586 230.909
L408.713 227.989
L409.096 230.907
L409.478 230.907
L409.733 230.322
L409.861 229.732
L410.116 230.322
L410.244 229.139
L410.499 229.139
L410.626 230.909
L411.009 230.903
L411.264 230.316
L412.157 230.322
L412.412 228.789
L412.539 228.789
L412.667 230.322
L413.305 228.543
L413.687 228.544
L413.942 229.139
L414.453 229.101
L415.09 226.092
L415.218 229.101
L415.473 228.506
L415.856 228.506
L415.983 227.305
L416.238 227.305
L416.366 229.101
L416.621 229.052
L416.748 228.456
L417.003 228.456
L417.131 227.857
L417.386 227.945
L417.514 227.343
L417.769 220.452
L417.896 227.343
L418.151 227.748
L418.279 227.145
L418.534 228.347
L418.661 228.347
L418.917 229.139
L419.044 228.544
L419.299 228.544
L419.427 227.945
L419.682 231.493
L419.809 230.909
L420.064 230.9
L420.192 229.381
L420.447 228.787
L420.957 226.055
L421.212 228.189
L421.34 227.589
L421.595 228.189
L421.723 228.189
L421.978 226.378
L422.105 224.541
L422.36 225.139
L422.743 225.139
L422.87 224.523
L423.125 223.904
L423.253 223.904
L423.508 228.787
L423.636 228.189
L423.891 228.787
L424.018 228.189
L424.273 229.973
L424.401 229.381
L424.656 231.958
L424.784 230.793
L425.039 230.768
L425.421 232.074
L425.549 231.493
L425.804 230.909
L425.931 229.732
L426.187 228.544
L426.314 226.738
L426.569 232.074
L426.697 232.074
L426.952 231.493
L427.462 232.074
L427.717 230.447
L427.845 230.909
L428.1 229.139
L428.227 225.609
L428.482 222.776
L428.61 224.379
L428.865 229.747
L428.992 228.559
L429.248 229.75
L429.758 227.361
L430.013 228.561
L430.14 230.851
L430.395 231.435
L430.524 227.425
L430.778 231.435
L430.906 229.748
L431.543 229.748
L431.671 229.155
L431.926 229.748
L432.053 231.447
L432.309 230.275
L432.436 220.452
L432.691 229.685
L432.691 229.685
L432.819 229.685
L433.074 229.086
L433.201 229.086
L433.456 227.891
L433.584 229.075
L433.839 229.075
L433.967 228.238
L434.222 227.638
L434.349 228.479
L434.604 228.345
L434.732 227.745
L435.115 227.724
L435.37 57.7285
L435.497 220.452
L435.752 228.479
L435.88 228.479
L436.135 229.092
L436.262 228.496
L436.517 228.496
L436.645 227.897
L436.9 230.862
L437.283 230.909
L437.41 230.909
L437.665 230.322
L437.793 232.074
L438.176 232.074
L438.431 231.493
L438.558 231.493
L438.813 232.074
L439.196 232.074
L439.706 227.425
L440.089 232.074
L440.344 231.493
L440.344 231.493
L440.471 231.493
L440.726 230.909
L441.237 229.139
L441.492 229.139
L441.619 232.074
L441.874 232.074
L441.874 232.074
L442.64 225.279
L442.767 222.62
L443.022 229.732
L443.15 229.732
L443.405 229.139
L443.533 229.139
L443.787 228.544
L443.915 227.945
L444.17 229.732
L444.298 229.279
L444.553 229.732
L444.68 229.139
L444.935 229.732
L445.063 230.909
L445.318 229.157
L445.445 229.157
L445.701 231.493
L446.083 231.493
L446.211 230.322
L446.466 229.732
L446.593 230.909
L446.848 230.322
L447.359 230.312
L447.614 219.161
L447.741 229.129
L447.996 230.908
L448.124 230.322
L448.379 230.907
L448.507 230.32
L448.762 230.32
L448.889 227.943
L449.144 227.341
L449.272 228.542
L449.527 228.542
L449.527 228.542
L449.654 229.73
L449.909 228.673
L450.037 227.474
L450.165 228.075
L450.42 228.075
L450.675 228.542
L450.802 227.341
L451.057 228.542
L451.185 227.943
L452.205 227.943
L452.333 227.341
L452.588 227.341
L452.715 227.943
L452.971 227.341
L453.098 226.737
L453.353 227.341
L453.481 227.943
L453.863 227.943
L454.118 227.341
L454.246 227.943
L454.501 228.542
L454.629 229.138
L454.884 228.541
L454.884 228.541
L455.011 227.942
L455.266 227.943
L455.394 230.908
L455.649 230.321
L455.776 229.738
L456.032 230.328
L456.159 228.55
L456.414 229.145
L456.542 229.145
L456.797 227.951
L456.924 230.328
L457.307 226.744
L457.562 226.137
L457.945 230.14
L458.072 230.728
L458.327 230.908
L458.455 229.732
L458.71 230.322
L458.837 229.732
L459.093 227.944
L459.22 226.13
L459.475 229.139
L459.858 227.81
L459.985 227.81
L460.24 227.944
L460.368 228.543
L460.623 230.908
L460.751 230.908
L461.006 229.75
L461.133 229.841
L461.516 226.849
L461.771 225.019
L461.899 226.242
L462.154 223.776
L462.536 223.783
L462.919 222.368
L463.046 222.342
L463.429 222.532
L463.684 224.402
L463.812 223.783
L464.067 224.402
L464.832 224.402
L464.96 219.134
L465.215 224.402
L465.597 224.402
L465.597 224.402
L465.98 218.641
L466.107 225.632
L466.363 226.849
L466.49 226.242
L466.745 222.681
L466.873 222.681
L467.128 226.844
L467.128 226.844
L467.256 226.237
L467.893 226.237
L468.021 225.627
L468.276 220.181
L468.786 220.181
L469.041 224.397
L469.168 220.452
L469.424 223.777
L469.551 223.777
L469.806 225.013
L469.934 225.013
L470.189 223.777
L470.316 223.777
L470.571 223.155
L470.699 223.155
L470.954 223.777
L471.082 225.013
L471.337 224.397
L472.229 224.38
L472.485 223.745
L472.612 218.04
L472.867 217.389
L472.995 225.627
L473.377 225.627
L473.632 222.072
L473.76 226.237
L474.015 226.237
L474.143 225.627
L474.398 226.237
L474.525 224.697
L474.78 230.908
L475.163 230.908
L475.291 228.535
L475.673 226.121
L475.928 226.121
L476.056 225.511
L476.311 223.036
L476.438 223.66
L476.693 226.121
L476.821 225.511
L477.076 226.616
L477.204 226.007
L477.459 220.724
L477.586 220.719
L477.841 227.334
L477.969 226.729
L478.224 227.936
L478.352 227.936
L478.607 226.729
L478.734 225.511
L479.117 218.127
L479.372 225.798
L479.499 225.186
L479.755 224.57
L479.882 223.797
L480.265 225.186
L480.52 224.57
L480.647 223.934
L480.902 223.934
L481.03 223.691
L481.285 218.658
L481.413 225.101
L481.795 223.09
L482.05 224.333
L482.178 223.713
L482.433 220.748
L482.816 223.079
L482.943 224.57
L483.326 226.121
L483.581 223.036
L483.708 223.036
L483.963 221.148
L484.091 225.511
L484.346 223.66
L484.856 223.66
L485.111 221.148
L485.239 222.41
L485.877 222.41
L486.004 221.781
L486.387 219.136
L486.642 218.49
L486.769 218.49
L487.024 221.781
L487.535 221.682
L487.917 219.774
L488.172 221.682
L488.3 221.682
L488.555 220.413
L488.683 221.781
L489.065 221.671
L489.32 219.813
L489.448 222.41
L489.703 221.781
L489.83 220.512
L490.085 219.873
L490.213 220.512
L490.596 218.586
L490.851 219.231
L490.978 219.231
L491.233 219.873
L491.361 219.873
L491.616 221.781
L491.744 221.781
L492.126 219.873
L492.381 219.873
L492.764 217.936
L492.891 217.936
L493.147 217.284
L493.529 221.781
L493.657 219.173
L494.04 224.875
L494.294 225.511
L494.422 225.511
L494.677 224.28
L494.805 224.897
L495.06 227.334
L495.187 226.729
L495.442 227.334
L495.57 226.121
L495.697 226.729
L495.825 226.121
L495.825 226.121
L495.952 224.897
L496.208 225.511
L496.335 225.511
L496.59 224.897
L496.718 224.897
L496.973 224.244
L497.355 224.244
L497.483 224.861
L497.866 224.845
L498.121 222.984
L498.248 222.984
L498.503 224.228
L498.631 224.228
L498.886 223.607
L499.013 222.984
L499.269 222.357
L499.269 222.357
L499.396 222.984
L499.779 222.984
L500.034 217.685
L500.161 217.685
L500.416 224.228
L500.544 223.607
L500.799 222.984
L500.927 224.228
L501.182 224.228
L501.309 223.607
L501.564 220.459
L501.692 220.459
L501.947 224.228
L502.075 221.095
L502.33 220.459
L502.457 219.82
L502.712 219.82
L503.095 212.574
L503.222 218.532
L503.605 218.532
L503.988 229.627
L504.243 229.498
L504.37 229.627
L504.625 228.437
L504.881 228.437
L505.136 225.513
L505.391 228.437
L505.901 228.437
L506.156 227.235
L506.283 227.235
L506.539 229.033
L506.921 229.033
L507.049 229.627
L507.304 229.033
L507.431 229.033
L507.686 230.331
L508.069 230.331
L508.197 229.741
L508.452 229.148
L508.579 229.148
L508.834 228.552
L509.217 228.552
L509.344 227.954
L509.727 224.298
L509.982 222.148
L510.365 224.915
L510.492 224.915
L510.747 228.552
L510.875 228.562
L511.13 229.148
L511.513 227.954
L511.64 227.954
L511.895 227.352
L512.023 226.7
L512.278 226.7
L512.405 226.821
L512.661 227.954
L513.171 227.954
L513.426 227.352
L513.553 226.747
L513.936 226.728
L514.191 230.885
L514.319 230.885
L514.574 230.298
L514.701 229.708
L514.956 229.65
L515.084 229.057
L515.467 229.057
L515.722 228.461
L515.849 224.923
L516.104 223.063
L516.232 223.686
L516.614 229.057
L516.869 229.057
L517.252 228.46
L517.635 226.653
L517.762 227.258
L518.017 229.708
L518.145 229.115
L518.4 228.519
L518.4 228.519" style="fill:none;stroke:#ff0000;stroke-linecap:square;"/>
   </g>
   <g id="line2d_2">
    <path clip-path="url(#pcb2bf987bf)" d="
M72 345.435
L388.306 345.457
L388.306 345.457
L388.434 343.705
L389.072 343.705
L389.199 345.457
L518.4 345.456
L518.4 345.456" style="fill:none;stroke:#008000;stroke-linecap:square;"/>
   </g>
   <g id="patch_3">
    <path d="
M72 43.2
L518.4 43.2" style="fill:none;stroke:#000000;stroke-linecap:square;stroke-linejoin:miter;"/>
   </g>
   <g id="patch_4">
    <path d="
M518.4 345.6
L518.4 43.2" style="fill:none;stroke:#000000;stroke-linecap:square;stroke-linejoin:miter;"/>
   </g>
   <g id="patch_5">
    <path d="
M72 345.6
L518.4 345.6" style="fill:none;stroke:#000000;stroke-linecap:square;stroke-linejoin:miter;"/>
   </g>
   <g id="patch_6">
    <path d="
M72 345.6
L72 43.2" style="fill:none;stroke:#000000;stroke-linecap:square;stroke-linejoin:miter;"/>
   </g>
   <g id="matplotlib.axis_1">
    <g id="xtick_1">
     <g id="line2d_3">
      <defs>
       <path d="
M0 0
L0 -4" id="m93b0483c22" style="stroke:#000000;stroke-width:0.5;"/>
      </defs>
      <g>
       <use style="stroke:#000000;stroke-width:0.5;" x="118.170301715" xlink:href="#m93b0483c22" y="345.6"/>
      </g>
     </g>
     <g id="line2d_4">
      <defs>
       <path d="
M0 0
L0 4" id="m741efc42ff" style="stroke:#000000;stroke-width:0.5;"/>
      </defs>
      <g>
       <use style="stroke:#000000;stroke-width:0.5;" x="118.170301715" xlink:href="#m741efc42ff" y="43.2"/>
      </g>
     </g>
     <g id="text_1">
      <!-- Oct 13 2015 -->
      <defs>
       <path d="
M19.1875 8.29688
L53.6094 8.29688
L53.6094 0
L7.32812 0
L7.32812 8.29688
Q12.9375 14.1094 22.625 23.8906
Q32.3281 33.6875 34.8125 36.5312
Q39.5469 41.8438 41.4219 45.5312
Q43.3125 49.2188 43.3125 52.7812
Q43.3125 58.5938 39.2344 62.25
Q35.1562 65.9219 28.6094 65.9219
Q23.9688 65.9219 18.8125 64.3125
Q13.6719 62.7031 7.8125 59.4219
L7.8125 69.3906
Q13.7656 71.7812 18.9375 73
Q24.125 74.2188 28.4219 74.2188
Q39.75 74.2188 46.4844 68.5469
Q53.2188 62.8906 53.2188 53.4219
Q53.2188 48.9219 51.5312 44.8906
Q49.8594 40.875 45.4062 35.4062
Q44.1875 33.9844 37.6406 27.2188
Q31.1094 20.4531 19.1875 8.29688" id="BitstreamVeraSans-Roman-32"/>
       <path d="
M39.4062 66.2188
Q28.6562 66.2188 22.3281 58.2031
Q16.0156 50.2031 16.0156 36.375
Q16.0156 22.6094 22.3281 14.5938
Q28.6562 6.59375 39.4062 6.59375
Q50.1406 6.59375 56.4219 14.5938
Q62.7031 22.6094 62.7031 36.375
Q62.7031 50.2031 56.4219 58.2031
Q50.1406 66.2188 39.4062 66.2188
M39.4062 74.2188
Q54.7344 74.2188 63.9062 63.9375
Q73.0938 53.6562 73.0938 36.375
Q73.0938 19.1406 63.9062 8.85938
Q54.7344 -1.42188 39.4062 -1.42188
Q24.0312 -1.42188 14.8125 8.82812
Q5.60938 19.0938 5.60938 36.375
Q5.60938 53.6562 14.8125 63.9375
Q24.0312 74.2188 39.4062 74.2188" id="BitstreamVeraSans-Roman-4f"/>
       <path d="
M31.7812 66.4062
Q24.1719 66.4062 20.3281 58.9062
Q16.5 51.4219 16.5 36.375
Q16.5 21.3906 20.3281 13.8906
Q24.1719 6.39062 31.7812 6.39062
Q39.4531 6.39062 43.2812 13.8906
Q47.125 21.3906 47.125 36.375
Q47.125 51.4219 43.2812 58.9062
Q39.4531 66.4062 31.7812 66.4062
M31.7812 74.2188
Q44.0469 74.2188 50.5156 64.5156
Q56.9844 54.8281 56.9844 36.375
Q56.9844 17.9688 50.5156 8.26562
Q44.0469 -1.42188 31.7812 -1.42188
Q19.5312 -1.42188 13.0625 8.26562
Q6.59375 17.9688 6.59375 36.375
Q6.59375 54.8281 13.0625 64.5156
Q19.5312 74.2188 31.7812 74.2188" id="BitstreamVeraSans-Roman-30"/>
       <path d="
M12.4062 8.29688
L28.5156 8.29688
L28.5156 63.9219
L10.9844 60.4062
L10.9844 69.3906
L28.4219 72.9062
L38.2812 72.9062
L38.2812 8.29688
L54.3906 8.29688
L54.3906 0
L12.4062 0
z
" id="BitstreamVeraSans-Roman-31"/>
       <path d="
M40.5781 39.3125
Q47.6562 37.7969 51.625 33
Q55.6094 28.2188 55.6094 21.1875
Q55.6094 10.4062 48.1875 4.48438
Q40.7656 -1.42188 27.0938 -1.42188
Q22.5156 -1.42188 17.6562 -0.515625
Q12.7969 0.390625 7.625 2.20312
L7.625 11.7188
Q11.7188 9.32812 16.5938 8.10938
Q21.4844 6.89062 26.8125 6.89062
Q36.0781 6.89062 40.9375 10.5469
Q45.7969 14.2031 45.7969 21.1875
Q45.7969 27.6406 41.2812 31.2656
Q36.7656 34.9062 28.7188 34.9062
L20.2188 34.9062
L20.2188 43.0156
L29.1094 43.0156
Q36.375 43.0156 40.2344 45.9219
Q44.0938 48.8281 44.0938 54.2969
Q44.0938 59.9062 40.1094 62.9062
Q36.1406 65.9219 28.7188 65.9219
Q24.6562 65.9219 20.0156 65.0312
Q15.375 64.1562 9.8125 62.3125
L9.8125 71.0938
Q15.4375 72.6562 20.3438 73.4375
Q25.25 74.2188 29.5938 74.2188
Q40.8281 74.2188 47.3594 69.1094
Q53.9062 64.0156 53.9062 55.3281
Q53.9062 49.2656 50.4375 45.0938
Q46.9688 40.9219 40.5781 39.3125" id="BitstreamVeraSans-Roman-33"/>
       <path id="BitstreamVeraSans-Roman-20"/>
       <path d="
M10.7969 72.9062
L49.5156 72.9062
L49.5156 64.5938
L19.8281 64.5938
L19.8281 46.7344
Q21.9688 47.4688 24.1094 47.8281
Q26.2656 48.1875 28.4219 48.1875
Q40.625 48.1875 47.75 41.5
Q54.8906 34.8125 54.8906 23.3906
Q54.8906 11.625 47.5625 5.09375
Q40.2344 -1.42188 26.9062 -1.42188
Q22.3125 -1.42188 17.5469 -0.640625
Q12.7969 0.140625 7.71875 1.70312
L7.71875 11.625
Q12.1094 9.23438 16.7969 8.0625
Q21.4844 6.89062 26.7031 6.89062
Q35.1562 6.89062 40.0781 11.3281
Q45.0156 15.7656 45.0156 23.3906
Q45.0156 31 40.0781 35.4375
Q35.1562 39.8906 26.7031 39.8906
Q22.75 39.8906 18.8125 39.0156
Q14.8906 38.1406 10.7969 36.2812
z
" id="BitstreamVeraSans-Roman-35"/>
       <path d="
M18.3125 70.2188
L18.3125 54.6875
L36.8125 54.6875
L36.8125 47.7031
L18.3125 47.7031
L18.3125 18.0156
Q18.3125 11.3281 20.1406 9.42188
Q21.9688 7.51562 27.5938 7.51562
L36.8125 7.51562
L36.8125 0
L27.5938 0
Q17.1875 0 13.2344 3.875
Q9.28125 7.76562 9.28125 18.0156
L9.28125 47.7031
L2.6875 47.7031
L2.6875 54.6875
L9.28125 54.6875
L9.28125 70.2188
z
" id="BitstreamVeraSans-Roman-74"/>
       <path d="
M48.7812 52.5938
L48.7812 44.1875
Q44.9688 46.2969 41.1406 47.3438
Q37.3125 48.3906 33.4062 48.3906
Q24.6562 48.3906 19.8125 42.8438
Q14.9844 37.3125 14.9844 27.2969
Q14.9844 17.2812 19.8125 11.7344
Q24.6562 6.20312 33.4062 6.20312
Q37.3125 6.20312 41.1406 7.25
Q44.9688 8.29688 48.7812 10.4062
L48.7812 2.09375
Q45.0156 0.34375 40.9844 -0.53125
Q36.9688 -1.42188 32.4219 -1.42188
Q20.0625 -1.42188 12.7812 6.34375
Q5.51562 14.1094 5.51562 27.2969
Q5.51562 40.6719 12.8594 48.3281
Q20.2188 56 33.0156 56
Q37.1562 56 41.1094 55.1406
Q45.0625 54.2969 48.7812 52.5938" id="BitstreamVeraSans-Roman-63"/>
      </defs>
      <g transform="translate(53.5830149798 394.065590385)rotate(-30.0)scale(0.12 -0.12)">
       <use xlink:href="#BitstreamVeraSans-Roman-4f"/>
       <use x="78.7109375" xlink:href="#BitstreamVeraSans-Roman-63"/>
       <use x="133.69140625" xlink:href="#BitstreamVeraSans-Roman-74"/>
       <use x="172.900390625" xlink:href="#BitstreamVeraSans-Roman-20"/>
       <use x="204.6875" xlink:href="#BitstreamVeraSans-Roman-31"/>
       <use x="268.310546875" xlink:href="#BitstreamVeraSans-Roman-33"/>
       <use x="331.93359375" xlink:href="#BitstreamVeraSans-Roman-20"/>
       <use x="363.720703125" xlink:href="#BitstreamVeraSans-Roman-32"/>
       <use x="427.34375" xlink:href="#BitstreamVeraSans-Roman-30"/>
       <use x="490.966796875" xlink:href="#BitstreamVeraSans-Roman-31"/>
       <use x="554.58984375" xlink:href="#BitstreamVeraSans-Roman-35"/>
      </g>
     </g>
    </g>
    <g id="xtick_2">
     <g id="line2d_5">
      <g>
       <use style="stroke:#000000;stroke-width:0.5;" x="173.268816" xlink:href="#m93b0483c22" y="345.6"/>
      </g>
     </g>
     <g id="line2d_6">
      <g>
       <use style="stroke:#000000;stroke-width:0.5;" x="173.268816" xlink:href="#m741efc42ff" y="43.2"/>
      </g>
     </g>
     <g id="text_2">
      <!-- Oct 16 2015 -->
      <defs>
       <path d="
M33.0156 40.375
Q26.375 40.375 22.4844 35.8281
Q18.6094 31.2969 18.6094 23.3906
Q18.6094 15.5312 22.4844 10.9531
Q26.375 6.39062 33.0156 6.39062
Q39.6562 6.39062 43.5312 10.9531
Q47.4062 15.5312 47.4062 23.3906
Q47.4062 31.2969 43.5312 35.8281
Q39.6562 40.375 33.0156 40.375
M52.5938 71.2969
L52.5938 62.3125
Q48.875 64.0625 45.0938 64.9844
Q41.3125 65.9219 37.5938 65.9219
Q27.8281 65.9219 22.6719 59.3281
Q17.5312 52.7344 16.7969 39.4062
Q19.6719 43.6562 24.0156 45.9219
Q28.375 48.1875 33.5938 48.1875
Q44.5781 48.1875 50.9531 41.5156
Q57.3281 34.8594 57.3281 23.3906
Q57.3281 12.1562 50.6875 5.35938
Q44.0469 -1.42188 33.0156 -1.42188
Q20.3594 -1.42188 13.6719 8.26562
Q6.98438 17.9688 6.98438 36.375
Q6.98438 53.6562 15.1875 63.9375
Q23.3906 74.2188 37.2031 74.2188
Q40.9219 74.2188 44.7031 73.4844
Q48.4844 72.75 52.5938 71.2969" id="BitstreamVeraSans-Roman-36"/>
      </defs>
      <g transform="translate(108.681529265 394.065590385)rotate(-30.0)scale(0.12 -0.12)">
       <use xlink:href="#BitstreamVeraSans-Roman-4f"/>
       <use x="78.7109375" xlink:href="#BitstreamVeraSans-Roman-63"/>
       <use x="133.69140625" xlink:href="#BitstreamVeraSans-Roman-74"/>
       <use x="172.900390625" xlink:href="#BitstreamVeraSans-Roman-20"/>
       <use x="204.6875" xlink:href="#BitstreamVeraSans-Roman-31"/>
       <use x="268.310546875" xlink:href="#BitstreamVeraSans-Roman-36"/>
       <use x="331.93359375" xlink:href="#BitstreamVeraSans-Roman-20"/>
       <use x="363.720703125" xlink:href="#BitstreamVeraSans-Roman-32"/>
       <use x="427.34375" xlink:href="#BitstreamVeraSans-Roman-30"/>
       <use x="490.966796875" xlink:href="#BitstreamVeraSans-Roman-31"/>
       <use x="554.58984375" xlink:href="#BitstreamVeraSans-Roman-35"/>
      </g>
     </g>
    </g>
    <g id="xtick_3">
     <g id="line2d_7">
      <g>
       <use style="stroke:#000000;stroke-width:0.5;" x="228.367330285" xlink:href="#m93b0483c22" y="345.6"/>
      </g>
     </g>
     <g id="line2d_8">
      <g>
       <use style="stroke:#000000;stroke-width:0.5;" x="228.367330285" xlink:href="#m741efc42ff" y="43.2"/>
      </g>
     </g>
     <g id="text_3">
      <!-- Oct 19 2015 -->
      <defs>
       <path d="
M10.9844 1.51562
L10.9844 10.5
Q14.7031 8.73438 18.5 7.8125
Q22.3125 6.89062 25.9844 6.89062
Q35.75 6.89062 40.8906 13.4531
Q46.0469 20.0156 46.7812 33.4062
Q43.9531 29.2031 39.5938 26.9531
Q35.25 24.7031 29.9844 24.7031
Q19.0469 24.7031 12.6719 31.3125
Q6.29688 37.9375 6.29688 49.4219
Q6.29688 60.6406 12.9375 67.4219
Q19.5781 74.2188 30.6094 74.2188
Q43.2656 74.2188 49.9219 64.5156
Q56.5938 54.8281 56.5938 36.375
Q56.5938 19.1406 48.4062 8.85938
Q40.2344 -1.42188 26.4219 -1.42188
Q22.7031 -1.42188 18.8906 -0.6875
Q15.0938 0.046875 10.9844 1.51562
M30.6094 32.4219
Q37.25 32.4219 41.125 36.9531
Q45.0156 41.5 45.0156 49.4219
Q45.0156 57.2812 41.125 61.8438
Q37.25 66.4062 30.6094 66.4062
Q23.9688 66.4062 20.0938 61.8438
Q16.2188 57.2812 16.2188 49.4219
Q16.2188 41.5 20.0938 36.9531
Q23.9688 32.4219 30.6094 32.4219" id="BitstreamVeraSans-Roman-39"/>
      </defs>
      <g transform="translate(163.78004355 394.065590385)rotate(-30.0)scale(0.12 -0.12)">
       <use xlink:href="#BitstreamVeraSans-Roman-4f"/>
       <use x="78.7109375" xlink:href="#BitstreamVeraSans-Roman-63"/>
       <use x="133.69140625" xlink:href="#BitstreamVeraSans-Roman-74"/>
       <use x="172.900390625" xlink:href="#BitstreamVeraSans-Roman-20"/>
       <use x="204.6875" xlink:href="#BitstreamVeraSans-Roman-31"/>
       <use x="268.310546875" xlink:href="#BitstreamVeraSans-Roman-39"/>
       <use x="331.93359375" xlink:href="#BitstreamVeraSans-Roman-20"/>
       <use x="363.720703125" xlink:href="#BitstreamVeraSans-Roman-32"/>
       <use x="427.34375" xlink:href="#BitstreamVeraSans-Roman-30"/>
       <use x="490.966796875" xlink:href="#BitstreamVeraSans-Roman-31"/>
       <use x="554.58984375" xlink:href="#BitstreamVeraSans-Roman-35"/>
      </g>
     </g>
    </g>
    <g id="xtick_4">
     <g id="line2d_9">
      <g>
       <use style="stroke:#000000;stroke-width:0.5;" x="283.465844572" xlink:href="#m93b0483c22" y="345.6"/>
      </g>
     </g>
     <g id="line2d_10">
      <g>
       <use style="stroke:#000000;stroke-width:0.5;" x="283.465844572" xlink:href="#m741efc42ff" y="43.2"/>
      </g>
     </g>
     <g id="text_4">
      <!-- Oct 22 2015 -->
      <g transform="translate(218.878557836 394.065590385)rotate(-30.0)scale(0.12 -0.12)">
       <use xlink:href="#BitstreamVeraSans-Roman-4f"/>
       <use x="78.7109375" xlink:href="#BitstreamVeraSans-Roman-63"/>
       <use x="133.69140625" xlink:href="#BitstreamVeraSans-Roman-74"/>
       <use x="172.900390625" xlink:href="#BitstreamVeraSans-Roman-20"/>
       <use x="204.6875" xlink:href="#BitstreamVeraSans-Roman-32"/>
       <use x="268.310546875" xlink:href="#BitstreamVeraSans-Roman-32"/>
       <use x="331.93359375" xlink:href="#BitstreamVeraSans-Roman-20"/>
       <use x="363.720703125" xlink:href="#BitstreamVeraSans-Roman-32"/>
       <use x="427.34375" xlink:href="#BitstreamVeraSans-Roman-30"/>
       <use x="490.966796875" xlink:href="#BitstreamVeraSans-Roman-31"/>
       <use x="554.58984375" xlink:href="#BitstreamVeraSans-Roman-35"/>
      </g>
     </g>
    </g>
    <g id="xtick_5">
     <g id="line2d_11">
      <g>
       <use style="stroke:#000000;stroke-width:0.5;" x="338.564358857" xlink:href="#m93b0483c22" y="345.6"/>
      </g>
     </g>
     <g id="line2d_12">
      <g>
       <use style="stroke:#000000;stroke-width:0.5;" x="338.564358857" xlink:href="#m741efc42ff" y="43.2"/>
      </g>
     </g>
     <g id="text_5">
      <!-- Oct 25 2015 -->
      <g transform="translate(273.977072121 394.065590385)rotate(-30.0)scale(0.12 -0.12)">
       <use xlink:href="#BitstreamVeraSans-Roman-4f"/>
       <use x="78.7109375" xlink:href="#BitstreamVeraSans-Roman-63"/>
       <use x="133.69140625" xlink:href="#BitstreamVeraSans-Roman-74"/>
       <use x="172.900390625" xlink:href="#BitstreamVeraSans-Roman-20"/>
       <use x="204.6875" xlink:href="#BitstreamVeraSans-Roman-32"/>
       <use x="268.310546875" xlink:href="#BitstreamVeraSans-Roman-35"/>
       <use x="331.93359375" xlink:href="#BitstreamVeraSans-Roman-20"/>
       <use x="363.720703125" xlink:href="#BitstreamVeraSans-Roman-32"/>
       <use x="427.34375" xlink:href="#BitstreamVeraSans-Roman-30"/>
       <use x="490.966796875" xlink:href="#BitstreamVeraSans-Roman-31"/>
       <use x="554.58984375" xlink:href="#BitstreamVeraSans-Roman-35"/>
      </g>
     </g>
    </g>
    <g id="xtick_6">
     <g id="line2d_13">
      <g>
       <use style="stroke:#000000;stroke-width:0.5;" x="393.662873141" xlink:href="#m93b0483c22" y="345.6"/>
      </g>
     </g>
     <g id="line2d_14">
      <g>
       <use style="stroke:#000000;stroke-width:0.5;" x="393.662873141" xlink:href="#m741efc42ff" y="43.2"/>
      </g>
     </g>
     <g id="text_6">
      <!-- Oct 28 2015 -->
      <defs>
       <path d="
M31.7812 34.625
Q24.75 34.625 20.7188 30.8594
Q16.7031 27.0938 16.7031 20.5156
Q16.7031 13.9219 20.7188 10.1562
Q24.75 6.39062 31.7812 6.39062
Q38.8125 6.39062 42.8594 10.1719
Q46.9219 13.9688 46.9219 20.5156
Q46.9219 27.0938 42.8906 30.8594
Q38.875 34.625 31.7812 34.625
M21.9219 38.8125
Q15.5781 40.375 12.0312 44.7188
Q8.5 49.0781 8.5 55.3281
Q8.5 64.0625 14.7188 69.1406
Q20.9531 74.2188 31.7812 74.2188
Q42.6719 74.2188 48.875 69.1406
Q55.0781 64.0625 55.0781 55.3281
Q55.0781 49.0781 51.5312 44.7188
Q48 40.375 41.7031 38.8125
Q48.8281 37.1562 52.7969 32.3125
Q56.7812 27.4844 56.7812 20.5156
Q56.7812 9.90625 50.3125 4.23438
Q43.8438 -1.42188 31.7812 -1.42188
Q19.7344 -1.42188 13.25 4.23438
Q6.78125 9.90625 6.78125 20.5156
Q6.78125 27.4844 10.7812 32.3125
Q14.7969 37.1562 21.9219 38.8125
M18.3125 54.3906
Q18.3125 48.7344 21.8438 45.5625
Q25.3906 42.3906 31.7812 42.3906
Q38.1406 42.3906 41.7188 45.5625
Q45.3125 48.7344 45.3125 54.3906
Q45.3125 60.0625 41.7188 63.2344
Q38.1406 66.4062 31.7812 66.4062
Q25.3906 66.4062 21.8438 63.2344
Q18.3125 60.0625 18.3125 54.3906" id="BitstreamVeraSans-Roman-38"/>
      </defs>
      <g transform="translate(329.075586406 394.065590385)rotate(-30.0)scale(0.12 -0.12)">
       <use xlink:href="#BitstreamVeraSans-Roman-4f"/>
       <use x="78.7109375" xlink:href="#BitstreamVeraSans-Roman-63"/>
       <use x="133.69140625" xlink:href="#BitstreamVeraSans-Roman-74"/>
       <use x="172.900390625" xlink:href="#BitstreamVeraSans-Roman-20"/>
       <use x="204.6875" xlink:href="#BitstreamVeraSans-Roman-32"/>
       <use x="268.310546875" xlink:href="#BitstreamVeraSans-Roman-38"/>
       <use x="331.93359375" xlink:href="#BitstreamVeraSans-Roman-20"/>
       <use x="363.720703125" xlink:href="#BitstreamVeraSans-Roman-32"/>
       <use x="427.34375" xlink:href="#BitstreamVeraSans-Roman-30"/>
       <use x="490.966796875" xlink:href="#BitstreamVeraSans-Roman-31"/>
       <use x="554.58984375" xlink:href="#BitstreamVeraSans-Roman-35"/>
      </g>
     </g>
    </g>
    <g id="xtick_7">
     <g id="line2d_15">
      <g>
       <use style="stroke:#000000;stroke-width:0.5;" x="448.761387428" xlink:href="#m93b0483c22" y="345.6"/>
      </g>
     </g>
     <g id="line2d_16">
      <g>
       <use style="stroke:#000000;stroke-width:0.5;" x="448.761387428" xlink:href="#m741efc42ff" y="43.2"/>
      </g>
     </g>
     <g id="text_7">
      <!-- Oct 31 2015 -->
      <g transform="translate(384.174100693 394.065590385)rotate(-30.0)scale(0.12 -0.12)">
       <use xlink:href="#BitstreamVeraSans-Roman-4f"/>
       <use x="78.7109375" xlink:href="#BitstreamVeraSans-Roman-63"/>
       <use x="133.69140625" xlink:href="#BitstreamVeraSans-Roman-74"/>
       <use x="172.900390625" xlink:href="#BitstreamVeraSans-Roman-20"/>
       <use x="204.6875" xlink:href="#BitstreamVeraSans-Roman-33"/>
       <use x="268.310546875" xlink:href="#BitstreamVeraSans-Roman-31"/>
       <use x="331.93359375" xlink:href="#BitstreamVeraSans-Roman-20"/>
       <use x="363.720703125" xlink:href="#BitstreamVeraSans-Roman-32"/>
       <use x="427.34375" xlink:href="#BitstreamVeraSans-Roman-30"/>
       <use x="490.966796875" xlink:href="#BitstreamVeraSans-Roman-31"/>
       <use x="554.58984375" xlink:href="#BitstreamVeraSans-Roman-35"/>
      </g>
     </g>
    </g>
    <g id="xtick_8">
     <g id="line2d_17">
      <g>
       <use style="stroke:#000000;stroke-width:0.5;" x="503.859901713" xlink:href="#m93b0483c22" y="345.6"/>
      </g>
     </g>
     <g id="line2d_18">
      <g>
       <use style="stroke:#000000;stroke-width:0.5;" x="503.859901713" xlink:href="#m741efc42ff" y="43.2"/>
      </g>
     </g>
     <g id="text_8">
      <!-- Nov 03 2015 -->
      <defs>
       <path d="
M2.98438 54.6875
L12.5 54.6875
L29.5938 8.79688
L46.6875 54.6875
L56.2031 54.6875
L35.6875 0
L23.4844 0
z
" id="BitstreamVeraSans-Roman-76"/>
       <path d="
M9.8125 72.9062
L23.0938 72.9062
L55.4219 11.9219
L55.4219 72.9062
L64.9844 72.9062
L64.9844 0
L51.7031 0
L19.3906 60.9844
L19.3906 0
L9.8125 0
z
" id="BitstreamVeraSans-Roman-4e"/>
       <path d="
M30.6094 48.3906
Q23.3906 48.3906 19.1875 42.75
Q14.9844 37.1094 14.9844 27.2969
Q14.9844 17.4844 19.1562 11.8438
Q23.3438 6.20312 30.6094 6.20312
Q37.7969 6.20312 41.9844 11.8594
Q46.1875 17.5312 46.1875 27.2969
Q46.1875 37.0156 41.9844 42.7031
Q37.7969 48.3906 30.6094 48.3906
M30.6094 56
Q42.3281 56 49.0156 48.375
Q55.7188 40.7656 55.7188 27.2969
Q55.7188 13.875 49.0156 6.21875
Q42.3281 -1.42188 30.6094 -1.42188
Q18.8438 -1.42188 12.1719 6.21875
Q5.51562 13.875 5.51562 27.2969
Q5.51562 40.7656 12.1719 48.375
Q18.8438 56 30.6094 56" id="BitstreamVeraSans-Roman-6f"/>
      </defs>
      <g transform="translate(436.957079555 395.402465385)rotate(-30.0)scale(0.12 -0.12)">
       <use xlink:href="#BitstreamVeraSans-Roman-4e"/>
       <use x="74.8046875" xlink:href="#BitstreamVeraSans-Roman-6f"/>
       <use x="135.986328125" xlink:href="#BitstreamVeraSans-Roman-76"/>
       <use x="195.166015625" xlink:href="#BitstreamVeraSans-Roman-20"/>
       <use x="226.953125" xlink:href="#BitstreamVeraSans-Roman-30"/>
       <use x="290.576171875" xlink:href="#BitstreamVeraSans-Roman-33"/>
       <use x="354.19921875" xlink:href="#BitstreamVeraSans-Roman-20"/>
       <use x="385.986328125" xlink:href="#BitstreamVeraSans-Roman-32"/>
       <use x="449.609375" xlink:href="#BitstreamVeraSans-Roman-30"/>
       <use x="513.232421875" xlink:href="#BitstreamVeraSans-Roman-31"/>
       <use x="576.85546875" xlink:href="#BitstreamVeraSans-Roman-35"/>
      </g>
     </g>
    </g>
   </g>
   <g id="matplotlib.axis_2">
    <g id="ytick_1">
     <g id="line2d_19">
      <defs>
       <path d="
M0 0
L4 0" id="m728421d6d4" style="stroke:#000000;stroke-width:0.5;"/>
      </defs>
      <g>
       <use style="stroke:#000000;stroke-width:0.5;" x="72.0" xlink:href="#m728421d6d4" y="301.808161373"/>
      </g>
     </g>
     <g id="line2d_20">
      <defs>
       <path d="
M0 0
L-4 0" id="mcb0005524f" style="stroke:#000000;stroke-width:0.5;"/>
      </defs>
      <g>
       <use style="stroke:#000000;stroke-width:0.5;" x="518.4" xlink:href="#mcb0005524f" y="301.808161373"/>
      </g>
     </g>
     <g id="text_9">
      <!-- 0.2 -->
      <defs>
       <path d="
M10.6875 12.4062
L21 12.4062
L21 0
L10.6875 0
z
" id="BitstreamVeraSans-Roman-2e"/>
      </defs>
      <g transform="translate(50.909375 305.119411373)scale(0.12 -0.12)">
       <use xlink:href="#BitstreamVeraSans-Roman-30"/>
       <use x="63.623046875" xlink:href="#BitstreamVeraSans-Roman-2e"/>
       <use x="95.41015625" xlink:href="#BitstreamVeraSans-Roman-32"/>
      </g>
     </g>
    </g>
    <g id="ytick_2">
     <g id="line2d_21">
      <g>
       <use style="stroke:#000000;stroke-width:0.5;" x="72.0" xlink:href="#m728421d6d4" y="255.318853407"/>
      </g>
     </g>
     <g id="line2d_22">
      <g>
       <use style="stroke:#000000;stroke-width:0.5;" x="518.4" xlink:href="#mcb0005524f" y="255.318853407"/>
      </g>
     </g>
     <g id="text_10">
      <!-- 0.4 -->
      <defs>
       <path d="
M37.7969 64.3125
L12.8906 25.3906
L37.7969 25.3906
z

M35.2031 72.9062
L47.6094 72.9062
L47.6094 25.3906
L58.0156 25.3906
L58.0156 17.1875
L47.6094 17.1875
L47.6094 0
L37.7969 0
L37.7969 17.1875
L4.89062 17.1875
L4.89062 26.7031
z
" id="BitstreamVeraSans-Roman-34"/>
      </defs>
      <g transform="translate(50.380625 258.630103407)scale(0.12 -0.12)">
       <use xlink:href="#BitstreamVeraSans-Roman-30"/>
       <use x="63.623046875" xlink:href="#BitstreamVeraSans-Roman-2e"/>
       <use x="95.41015625" xlink:href="#BitstreamVeraSans-Roman-34"/>
      </g>
     </g>
    </g>
    <g id="ytick_3">
     <g id="line2d_23">
      <g>
       <use style="stroke:#000000;stroke-width:0.5;" x="72.0" xlink:href="#m728421d6d4" y="208.829545441"/>
      </g>
     </g>
     <g id="line2d_24">
      <g>
       <use style="stroke:#000000;stroke-width:0.5;" x="518.4" xlink:href="#mcb0005524f" y="208.829545441"/>
      </g>
     </g>
     <g id="text_11">
      <!-- 0.6 -->
      <g transform="translate(50.463125 212.140795441)scale(0.12 -0.12)">
       <use xlink:href="#BitstreamVeraSans-Roman-30"/>
       <use x="63.623046875" xlink:href="#BitstreamVeraSans-Roman-2e"/>
       <use x="95.41015625" xlink:href="#BitstreamVeraSans-Roman-36"/>
      </g>
     </g>
    </g>
    <g id="ytick_4">
     <g id="line2d_25">
      <g>
       <use style="stroke:#000000;stroke-width:0.5;" x="72.0" xlink:href="#m728421d6d4" y="162.340237475"/>
      </g>
     </g>
     <g id="line2d_26">
      <g>
       <use style="stroke:#000000;stroke-width:0.5;" x="518.4" xlink:href="#mcb0005524f" y="162.340237475"/>
      </g>
     </g>
     <g id="text_12">
      <!-- 0.8 -->
      <g transform="translate(50.52875 165.651487475)scale(0.12 -0.12)">
       <use xlink:href="#BitstreamVeraSans-Roman-30"/>
       <use x="63.623046875" xlink:href="#BitstreamVeraSans-Roman-2e"/>
       <use x="95.41015625" xlink:href="#BitstreamVeraSans-Roman-38"/>
      </g>
     </g>
    </g>
    <g id="ytick_5">
     <g id="line2d_27">
      <g>
       <use style="stroke:#000000;stroke-width:0.5;" x="72.0" xlink:href="#m728421d6d4" y="115.850929509"/>
      </g>
     </g>
     <g id="line2d_28">
      <g>
       <use style="stroke:#000000;stroke-width:0.5;" x="518.4" xlink:href="#mcb0005524f" y="115.850929509"/>
      </g>
     </g>
     <g id="text_13">
      <!-- 1.0 -->
      <g transform="translate(51.03125 119.162179509)scale(0.12 -0.12)">
       <use xlink:href="#BitstreamVeraSans-Roman-31"/>
       <use x="63.623046875" xlink:href="#BitstreamVeraSans-Roman-2e"/>
       <use x="95.41015625" xlink:href="#BitstreamVeraSans-Roman-30"/>
      </g>
     </g>
    </g>
    <g id="ytick_6">
     <g id="line2d_29">
      <g>
       <use style="stroke:#000000;stroke-width:0.5;" x="72.0" xlink:href="#m728421d6d4" y="69.3616215435"/>
      </g>
     </g>
     <g id="line2d_30">
      <g>
       <use style="stroke:#000000;stroke-width:0.5;" x="518.4" xlink:href="#mcb0005524f" y="69.3616215435"/>
      </g>
     </g>
     <g id="text_14">
      <!-- 1.2 -->
      <g transform="translate(51.43625 72.6728715435)scale(0.12 -0.12)">
       <use xlink:href="#BitstreamVeraSans-Roman-31"/>
       <use x="63.623046875" xlink:href="#BitstreamVeraSans-Roman-2e"/>
       <use x="95.41015625" xlink:href="#BitstreamVeraSans-Roman-32"/>
      </g>
     </g>
    </g>
    <g id="text_15">
     <!-- 1e8 -->
     <defs>
      <path d="
M56.2031 29.5938
L56.2031 25.2031
L14.8906 25.2031
Q15.4844 15.9219 20.4844 11.0625
Q25.4844 6.20312 34.4219 6.20312
Q39.5938 6.20312 44.4531 7.46875
Q49.3125 8.73438 54.1094 11.2812
L54.1094 2.78125
Q49.2656 0.734375 44.1875 -0.34375
Q39.1094 -1.42188 33.8906 -1.42188
Q20.7969 -1.42188 13.1562 6.1875
Q5.51562 13.8125 5.51562 26.8125
Q5.51562 40.2344 12.7656 48.1094
Q20.0156 56 32.3281 56
Q43.3594 56 49.7812 48.8906
Q56.2031 41.7969 56.2031 29.5938
M47.2188 32.2344
Q47.125 39.5938 43.0938 43.9844
Q39.0625 48.3906 32.4219 48.3906
Q24.9062 48.3906 20.3906 44.1406
Q15.875 39.8906 15.1875 32.1719
z
" id="BitstreamVeraSans-Roman-65"/>
     </defs>
     <g transform="translate(72.0 40.2)scale(0.12 -0.12)">
      <use xlink:href="#BitstreamVeraSans-Roman-31"/>
      <use x="63.623046875" xlink:href="#BitstreamVeraSans-Roman-65"/>
      <use x="125.146484375" xlink:href="#BitstreamVeraSans-Roman-38"/>
     </g>
    </g>
   </g>
   <g id="text_16">
    <!-- Techupgrade 1 -->
    <defs>
     <path d="
M34.2812 27.4844
Q23.3906 27.4844 19.1875 25
Q14.9844 22.5156 14.9844 16.5
Q14.9844 11.7188 18.1406 8.90625
Q21.2969 6.10938 26.7031 6.10938
Q34.1875 6.10938 38.7031 11.4062
Q43.2188 16.7031 43.2188 25.4844
L43.2188 27.4844
z

M52.2031 31.2031
L52.2031 0
L43.2188 0
L43.2188 8.29688
Q40.1406 3.32812 35.5469 0.953125
Q30.9531 -1.42188 24.3125 -1.42188
Q15.9219 -1.42188 10.9531 3.29688
Q6 8.01562 6 15.9219
Q6 25.1406 12.1719 29.8281
Q18.3594 34.5156 30.6094 34.5156
L43.2188 34.5156
L43.2188 35.4062
Q43.2188 41.6094 39.1406 45
Q35.0625 48.3906 27.6875 48.3906
Q23 48.3906 18.5469 47.2656
Q14.1094 46.1406 10.0156 43.8906
L10.0156 52.2031
Q14.9375 54.1094 19.5781 55.0469
Q24.2188 56 28.6094 56
Q40.4844 56 46.3438 49.8438
Q52.2031 43.7031 52.2031 31.2031" id="BitstreamVeraSans-Roman-61"/>
     <path d="
M-0.296875 72.9062
L61.375 72.9062
L61.375 64.5938
L35.5 64.5938
L35.5 0
L25.5938 0
L25.5938 64.5938
L-0.296875 64.5938
z
" id="BitstreamVeraSans-Roman-54"/>
     <path d="
M54.8906 33.0156
L54.8906 0
L45.9062 0
L45.9062 32.7188
Q45.9062 40.4844 42.875 44.3281
Q39.8438 48.1875 33.7969 48.1875
Q26.5156 48.1875 22.3125 43.5469
Q18.1094 38.9219 18.1094 30.9062
L18.1094 0
L9.07812 0
L9.07812 75.9844
L18.1094 75.9844
L18.1094 46.1875
Q21.3438 51.125 25.7031 53.5625
Q30.0781 56 35.7969 56
Q45.2188 56 50.0469 50.1719
Q54.8906 44.3438 54.8906 33.0156" id="BitstreamVeraSans-Roman-68"/>
     <path d="
M45.4062 46.3906
L45.4062 75.9844
L54.3906 75.9844
L54.3906 0
L45.4062 0
L45.4062 8.20312
Q42.5781 3.32812 38.25 0.953125
Q33.9375 -1.42188 27.875 -1.42188
Q17.9688 -1.42188 11.7344 6.48438
Q5.51562 14.4062 5.51562 27.2969
Q5.51562 40.1875 11.7344 48.0938
Q17.9688 56 27.875 56
Q33.9375 56 38.25 53.625
Q42.5781 51.2656 45.4062 46.3906
M14.7969 27.2969
Q14.7969 17.3906 18.875 11.75
Q22.9531 6.10938 30.0781 6.10938
Q37.2031 6.10938 41.2969 11.75
Q45.4062 17.3906 45.4062 27.2969
Q45.4062 37.2031 41.2969 42.8438
Q37.2031 48.4844 30.0781 48.4844
Q22.9531 48.4844 18.875 42.8438
Q14.7969 37.2031 14.7969 27.2969" id="BitstreamVeraSans-Roman-64"/>
     <path d="
M45.4062 27.9844
Q45.4062 37.75 41.375 43.1094
Q37.3594 48.4844 30.0781 48.4844
Q22.8594 48.4844 18.8281 43.1094
Q14.7969 37.75 14.7969 27.9844
Q14.7969 18.2656 18.8281 12.8906
Q22.8594 7.51562 30.0781 7.51562
Q37.3594 7.51562 41.375 12.8906
Q45.4062 18.2656 45.4062 27.9844
M54.3906 6.78125
Q54.3906 -7.17188 48.1875 -13.9844
Q42 -20.7969 29.2031 -20.7969
Q24.4688 -20.7969 20.2656 -20.0938
Q16.0625 -19.3906 12.1094 -17.9219
L12.1094 -9.1875
Q16.0625 -11.3281 19.9219 -12.3438
Q23.7812 -13.375 27.7812 -13.375
Q36.625 -13.375 41.0156 -8.76562
Q45.4062 -4.15625 45.4062 5.17188
L45.4062 9.625
Q42.625 4.78125 38.2812 2.39062
Q33.9375 0 27.875 0
Q17.8281 0 11.6719 7.65625
Q5.51562 15.3281 5.51562 27.9844
Q5.51562 40.6719 11.6719 48.3281
Q17.8281 56 27.875 56
Q33.9375 56 38.2812 53.6094
Q42.625 51.2188 45.4062 46.3906
L45.4062 54.6875
L54.3906 54.6875
z
" id="BitstreamVeraSans-Roman-67"/>
     <path d="
M8.5 21.5781
L8.5 54.6875
L17.4844 54.6875
L17.4844 21.9219
Q17.4844 14.1562 20.5 10.2656
Q23.5312 6.39062 29.5938 6.39062
Q36.8594 6.39062 41.0781 11.0312
Q45.3125 15.6719 45.3125 23.6875
L45.3125 54.6875
L54.2969 54.6875
L54.2969 0
L45.3125 0
L45.3125 8.40625
Q42.0469 3.42188 37.7188 1
Q33.4062 -1.42188 27.6875 -1.42188
Q18.2656 -1.42188 13.375 4.4375
Q8.5 10.2969 8.5 21.5781" id="BitstreamVeraSans-Roman-75"/>
     <path d="
M41.1094 46.2969
Q39.5938 47.1719 37.8125 47.5781
Q36.0312 48 33.8906 48
Q26.2656 48 22.1875 43.0469
Q18.1094 38.0938 18.1094 28.8125
L18.1094 0
L9.07812 0
L9.07812 54.6875
L18.1094 54.6875
L18.1094 46.1875
Q20.9531 51.1719 25.4844 53.5781
Q30.0312 56 36.5312 56
Q37.4531 56 38.5781 55.875
Q39.7031 55.7656 41.0625 55.5156
z
" id="BitstreamVeraSans-Roman-72"/>
     <path d="
M18.1094 8.20312
L18.1094 -20.7969
L9.07812 -20.7969
L9.07812 54.6875
L18.1094 54.6875
L18.1094 46.3906
Q20.9531 51.2656 25.2656 53.625
Q29.5938 56 35.5938 56
Q45.5625 56 51.7812 48.0938
Q58.0156 40.1875 58.0156 27.2969
Q58.0156 14.4062 51.7812 6.48438
Q45.5625 -1.42188 35.5938 -1.42188
Q29.5938 -1.42188 25.2656 0.953125
Q20.9531 3.32812 18.1094 8.20312
M48.6875 27.2969
Q48.6875 37.2031 44.6094 42.8438
Q40.5312 48.4844 33.4062 48.4844
Q26.2656 48.4844 22.1875 42.8438
Q18.1094 37.2031 18.1094 27.2969
Q18.1094 17.3906 22.1875 11.75
Q26.2656 6.10938 33.4062 6.10938
Q40.5312 6.10938 44.6094 11.75
Q48.6875 17.3906 48.6875 27.2969" id="BitstreamVeraSans-Roman-70"/>
    </defs>
    <g transform="translate(413.541 38.2)scale(0.144 -0.144)">
     <use xlink:href="#BitstreamVeraSans-Roman-54"/>
     <use x="44.083984375" xlink:href="#BitstreamVeraSans-Roman-65"/>
     <use x="105.607421875" xlink:href="#BitstreamVeraSans-Roman-63"/>
     <use x="160.587890625" xlink:href="#BitstreamVeraSans-Roman-68"/>
     <use x="223.966796875" xlink:href="#BitstreamVeraSans-Roman-75"/>
     <use x="287.345703125" xlink:href="#BitstreamVeraSans-Roman-70"/>
     <use x="350.822265625" xlink:href="#BitstreamVeraSans-Roman-67"/>
     <use x="414.298828125" xlink:href="#BitstreamVeraSans-Roman-72"/>
     <use x="455.412109375" xlink:href="#BitstreamVeraSans-Roman-61"/>
     <use x="516.69140625" xlink:href="#BitstreamVeraSans-Roman-64"/>
     <use x="580.16796875" xlink:href="#BitstreamVeraSans-Roman-65"/>
     <use x="641.69140625" xlink:href="#BitstreamVeraSans-Roman-20"/>
     <use x="673.478515625" xlink:href="#BitstreamVeraSans-Roman-31"/>
    </g>
   </g>
   <g id="legend_1">
    <g id="patch_7">
     <path d="
M123.942 423.616
L466.458 423.616
L466.458 398.16
L123.942 398.16
z
" style="fill:#ffffff;stroke:#000000;stroke-linejoin:miter;"/>
    </g>
    <g id="line2d_31">
     <path d="
M134.022 409.822
L154.182 409.822" style="fill:none;stroke:#ff0000;stroke-linecap:square;"/>
    </g>
    <g id="line2d_32"/>
    <g id="text_17">
     <!-- Schwarzmarktpreis -->
     <defs>
      <path d="
M52 44.1875
Q55.375 50.25 60.0625 53.125
Q64.75 56 71.0938 56
Q79.6406 56 84.2812 50.0156
Q88.9219 44.0469 88.9219 33.0156
L88.9219 0
L79.8906 0
L79.8906 32.7188
Q79.8906 40.5781 77.0938 44.375
Q74.3125 48.1875 68.6094 48.1875
Q61.625 48.1875 57.5625 43.5469
Q53.5156 38.9219 53.5156 30.9062
L53.5156 0
L44.4844 0
L44.4844 32.7188
Q44.4844 40.625 41.7031 44.4062
Q38.9219 48.1875 33.1094 48.1875
Q26.2188 48.1875 22.1562 43.5312
Q18.1094 38.875 18.1094 30.9062
L18.1094 0
L9.07812 0
L9.07812 54.6875
L18.1094 54.6875
L18.1094 46.1875
Q21.1875 51.2188 25.4844 53.6094
Q29.7812 56 35.6875 56
Q41.6562 56 45.8281 52.9688
Q50 49.9531 52 44.1875" id="BitstreamVeraSans-Roman-6d"/>
      <path d="
M9.07812 75.9844
L18.1094 75.9844
L18.1094 31.1094
L44.9219 54.6875
L56.3906 54.6875
L27.3906 29.1094
L57.625 0
L45.9062 0
L18.1094 26.7031
L18.1094 0
L9.07812 0
z
" id="BitstreamVeraSans-Roman-6b"/>
      <path d="
M53.5156 70.5156
L53.5156 60.8906
Q47.9062 63.5781 42.9219 64.8906
Q37.9375 66.2188 33.2969 66.2188
Q25.25 66.2188 20.875 63.0938
Q16.5 59.9688 16.5 54.2031
Q16.5 49.3594 19.4062 46.8906
Q22.3125 44.4375 30.4219 42.9219
L36.375 41.7031
Q47.4062 39.5938 52.6562 34.2969
Q57.9062 29 57.9062 20.125
Q57.9062 9.51562 50.7969 4.04688
Q43.7031 -1.42188 29.9844 -1.42188
Q24.8125 -1.42188 18.9688 -0.25
Q13.1406 0.921875 6.89062 3.21875
L6.89062 13.375
Q12.8906 10.0156 18.6562 8.29688
Q24.4219 6.59375 29.9844 6.59375
Q38.4219 6.59375 43.0156 9.90625
Q47.6094 13.2344 47.6094 19.3906
Q47.6094 24.75 44.3125 27.7812
Q41.0156 30.8125 33.5 32.3281
L27.4844 33.5
Q16.4531 35.6875 11.5156 40.375
Q6.59375 45.0625 6.59375 53.4219
Q6.59375 63.0938 13.4062 68.6562
Q20.2188 74.2188 32.1719 74.2188
Q37.3125 74.2188 42.625 73.2812
Q47.9531 72.3594 53.5156 70.5156" id="BitstreamVeraSans-Roman-53"/>
      <path d="
M9.42188 54.6875
L18.4062 54.6875
L18.4062 0
L9.42188 0
z

M9.42188 75.9844
L18.4062 75.9844
L18.4062 64.5938
L9.42188 64.5938
z
" id="BitstreamVeraSans-Roman-69"/>
      <path d="
M4.20312 54.6875
L13.1875 54.6875
L24.4219 12.0156
L35.5938 54.6875
L46.1875 54.6875
L57.4219 12.0156
L68.6094 54.6875
L77.5938 54.6875
L63.2812 0
L52.6875 0
L40.9219 44.8281
L29.1094 0
L18.5 0
z
" id="BitstreamVeraSans-Roman-77"/>
      <path d="
M5.51562 54.6875
L48.1875 54.6875
L48.1875 46.4844
L14.4062 7.17188
L48.1875 7.17188
L48.1875 0
L4.29688 0
L4.29688 8.20312
L38.0938 47.5156
L5.51562 47.5156
z
" id="BitstreamVeraSans-Roman-7a"/>
      <path d="
M44.2812 53.0781
L44.2812 44.5781
Q40.4844 46.5312 36.375 47.5
Q32.2812 48.4844 27.875 48.4844
Q21.1875 48.4844 17.8438 46.4375
Q14.5 44.3906 14.5 40.2812
Q14.5 37.1562 16.8906 35.375
Q19.2812 33.5938 26.5156 31.9844
L29.5938 31.2969
Q39.1562 29.25 43.1875 25.5156
Q47.2188 21.7812 47.2188 15.0938
Q47.2188 7.46875 41.1875 3.01562
Q35.1562 -1.42188 24.6094 -1.42188
Q20.2188 -1.42188 15.4531 -0.5625
Q10.6875 0.296875 5.42188 2
L5.42188 11.2812
Q10.4062 8.6875 15.2344 7.39062
Q20.0625 6.10938 24.8125 6.10938
Q31.1562 6.10938 34.5625 8.28125
Q37.9844 10.4531 37.9844 14.4062
Q37.9844 18.0625 35.5156 20.0156
Q33.0625 21.9688 24.7031 23.7812
L21.5781 24.5156
Q13.2344 26.2656 9.51562 29.9062
Q5.8125 33.5469 5.8125 39.8906
Q5.8125 47.6094 11.2812 51.7969
Q16.75 56 26.8125 56
Q31.7812 56 36.1719 55.2656
Q40.5781 54.5469 44.2812 53.0781" id="BitstreamVeraSans-Roman-73"/>
     </defs>
     <g transform="translate(170.022375 414.86175)scale(0.144 -0.144)">
      <use xlink:href="#BitstreamVeraSans-Roman-53"/>
      <use x="63.4765625" xlink:href="#BitstreamVeraSans-Roman-63"/>
      <use x="118.45703125" xlink:href="#BitstreamVeraSans-Roman-68"/>
      <use x="181.8359375" xlink:href="#BitstreamVeraSans-Roman-77"/>
      <use x="263.623046875" xlink:href="#BitstreamVeraSans-Roman-61"/>
      <use x="324.90234375" xlink:href="#BitstreamVeraSans-Roman-72"/>
      <use x="366.015625" xlink:href="#BitstreamVeraSans-Roman-7a"/>
      <use x="418.505859375" xlink:href="#BitstreamVeraSans-Roman-6d"/>
      <use x="515.91796875" xlink:href="#BitstreamVeraSans-Roman-61"/>
      <use x="577.197265625" xlink:href="#BitstreamVeraSans-Roman-72"/>
      <use x="618.310546875" xlink:href="#BitstreamVeraSans-Roman-6b"/>
      <use x="676.220703125" xlink:href="#BitstreamVeraSans-Roman-74"/>
      <use x="715.4296875" xlink:href="#BitstreamVeraSans-Roman-70"/>
      <use x="778.90625" xlink:href="#BitstreamVeraSans-Roman-72"/>
      <use x="817.76953125" xlink:href="#BitstreamVeraSans-Roman-65"/>
      <use x="879.29296875" xlink:href="#BitstreamVeraSans-Roman-69"/>
      <use x="907.076171875" xlink:href="#BitstreamVeraSans-Roman-73"/>
     </g>
    </g>
    <g id="line2d_33">
     <path d="
M339.609 409.822
L359.769 409.822" style="fill:none;stroke:#008000;stroke-linecap:square;"/>
    </g>
    <g id="line2d_34"/>
    <g id="text_18">
     <!-- Normalpreis -->
     <defs>
      <path d="
M9.42188 75.9844
L18.4062 75.9844
L18.4062 0
L9.42188 0
z
" id="BitstreamVeraSans-Roman-6c"/>
     </defs>
     <g transform="translate(375.609375 414.86175)scale(0.144 -0.144)">
      <use xlink:href="#BitstreamVeraSans-Roman-4e"/>
      <use x="74.8046875" xlink:href="#BitstreamVeraSans-Roman-6f"/>
      <use x="135.986328125" xlink:href="#BitstreamVeraSans-Roman-72"/>
      <use x="175.349609375" xlink:href="#BitstreamVeraSans-Roman-6d"/>
      <use x="272.76171875" xlink:href="#BitstreamVeraSans-Roman-61"/>
      <use x="334.041015625" xlink:href="#BitstreamVeraSans-Roman-6c"/>
      <use x="361.82421875" xlink:href="#BitstreamVeraSans-Roman-70"/>
      <use x="425.30078125" xlink:href="#BitstreamVeraSans-Roman-72"/>
      <use x="464.1640625" xlink:href="#BitstreamVeraSans-Roman-65"/>
      <use x="525.6875" xlink:href="#BitstreamVeraSans-Roman-69"/>
      <use x="553.470703125" xlink:href="#BitstreamVeraSans-Roman-73"/>
     </g>
    </g>
   </g>
  </g>
 </g>
 <defs>
  <clipPath id="pcb2bf987bf">
   <rect height="302.4" width="446.4" x="72.0" y="43.2"/>
  </clipPath>
 </defs>
</svg>
