<?xml version="1.0" encoding="utf-8" standalone="no"?>
<!DOCTYPE svg PUBLIC "-//W3C//DTD SVG 1.1//EN"
  "http://www.w3.org/Graphics/SVG/1.1/DTD/svg11.dtd">
<!-- Created with matplotlib (http://matplotlib.org/) -->
<svg height="432pt" version="1.1" viewBox="0 0 576 432" width="576pt" xmlns="http://www.w3.org/2000/svg" xmlns:xlink="http://www.w3.org/1999/xlink">
 <defs>
  <style type="text/css">
*{stroke-linecap:butt;stroke-linejoin:round;}
  </style>
 </defs>
 <g id="figure_1">
  <g id="patch_1">
   <path d="
M0 432
L576 432
L576 0
L0 0
z
" style="fill:#ffffff;"/>
  </g>
  <g id="axes_1">
   <g id="patch_2">
    <path d="
M72 345.6
L518.4 345.6
L518.4 43.2
L72 43.2
z
" style="fill:#ffffff;"/>
   </g>
   <g id="line2d_1">
    <path clip-path="url(#pcb2bf987bf)" d="
M72 222.952
L74.6784 222.952
L74.9335 105.959
L75.061 105.959
L75.3161 222.952
L75.8263 222.952
L76.0814 206.051
L76.2089 206.051
L76.464 210.098
L76.5915 222.952
L80.2903 222.952
L80.4178 253.976
L80.6729 253.436
L80.8005 253.436
L81.0555 252.895
L81.1831 252.895
L81.4384 252.348
L81.5657 251.802
L81.8208 251.251
L81.9483 250.699
L82.2036 252.895
L82.331 252.895
L82.5863 253.436
L83.4789 253.436
L83.7339 252.895
L84.6267 252.895
L84.882 253.436
L85.392 253.977
L86.1573 253.977
L86.4123 255.05
L86.795 255.045
L86.9225 254.508
L87.1776 255.581
L87.5602 255.581
L87.6878 256.112
L88.3255 256.112
L88.453 255.581
L88.7081 255.05
L89.0907 255.05
L89.0907 255.05
L89.4734 253.436
L89.6009 253.977
L89.856 252.895
L90.6213 252.895
L91.259 252.348
L92.0242 261.788
L92.1518 261.287
L92.7895 235.432
L92.917 235.432
L93.5547 234.117
L94.32 260.776
L94.4475 260.776
L95.8505 259.764
L96.6158 259.763
L98.1463 250.578
L98.2738 250.578
L98.9115 248.898
L99.0391 248.898
L100.442 247.765
L100.57 247.765
L101.207 254.063
L101.973 254.063
L102.1 253.522
L102.738 240.369
L103.631 239.762
L104.268 239.762
L105.034 254.063
L105.799 253.522
L106.564 253.522
L107.33 251.848
L108.222 252.394
L108.86 251.296
L109.625 251.848
L109.753 251.296
L110.518 250.745
L111.156 249.07
L111.283 249.07
L111.921 248.443
L112.048 247.876
L114.217 243.02
L115.109 242.039
L116.64 240.233
L117.278 230.373
L118.043 213.801
L118.171 214.539
L118.936 214.539
L119.573 213.801
L120.339 212.314
L121.232 213.057
L121.869 212.314
L122.635 209.794
L122.762 209.794
L123.4 209.035
L124.293 209.035
L124.93 209.794
L125.696 213.022
L126.461 212.278
L126.461 212.278
L126.589 213.022
L127.991 213.057
L129.522 211.565
L132.583 211.555
L132.583 211.555
L134.113 205.434
L134.369 205.434
L134.879 204.65
L137.94 204.65
L138.705 201.265
L139.47 201.265
L139.598 200.461
L140.235 194.962
L141.001 201.265
L141.893 201.265
L142.531 200.461
L144.062 200.461
L144.189 199.651
L144.827 200.461
L145.592 198.023
L145.72 198.023
L146.357 196.277
L146.485 196.277
L147.123 198.023
L147.888 198.023
L148.653 197.203
L149.419 194.719
L150.184 194.719
L150.949 191.35
L151.077 191.35
L151.714 190.495
L152.48 184.971
L153.245 191.35
L153.372 190.495
L154.01 189.639
L154.775 189.64
L155.541 189.043
L155.541 189.043
L156.306 189.043
L157.071 169.668
L157.964 189.903
L158.602 192.939
L159.367 211.565
L168.55 211.565
L169.315 248.929
L170.08 248.929
L170.846 244.917
L170.973 245.499
L171.611 244.916
L172.376 244.916
L173.141 243.152
L173.269 119.081
L173.907 240.344
L176.968 237.896
L177.095 238.513
L177.733 237.896
L178.498 230.409
L179.264 229.716
L180.029 227.048
L180.156 209.379
L180.794 209.378
L180.922 208.616
L181.559 208.615
L182.452 207.846
L183.09 205.08
L183.983 206.304
L184.62 205.525
L185.386 198.038
L186.151 239.124
L187.681 239.124
L188.447 238.508
L191.508 238.508
L191.508 238.508
L193.038 243.743
L202.221 243.743
L202.987 239.934
L204.517 238.71
L205.41 239.322
L206.303 235.978
L206.813 235.432
L206.813 235.432
L206.94 235.432
L207.578 235.978
L208.088 234.719
L208.343 234.719
L208.981 230.393
L209.236 229.736
L209.236 229.736
L209.619 229.073
L209.746 220.316
L210.001 220.316
L210.767 216.74
L211.022 216.74
L211.532 213.816
L211.659 213.816
L211.915 213.077
L212.042 212.364
L212.297 202.196
L212.807 202.196
L213.062 201.093
L213.445 213.077
L213.955 213.077
L214.21 213.816
L215.868 213.816
L216.123 214.555
L216.123 214.555
L216.634 214.555
L216.761 210.138
L216.761 210.138
L217.016 210.138
L217.399 207.847
L217.654 209.379
L217.654 209.379
L218.037 209.379
L218.164 208.616
L218.419 209.379
L218.419 209.379
L218.547 207.847
L218.802 208.616
L219.567 208.616
L219.95 219.608
L220.077 219.608
L220.332 218.895
L220.587 218.895
L220.715 219.608
L220.843 219.608
L220.843 219.608
L221.098 218.895
L221.225 219.608
L221.863 219.608
L222.245 198.048
L223.011 198.048
L223.011 198.048
L223.393 229.736
L223.521 229.736
L223.776 229.073
L224.159 229.073
L224.286 229.736
L224.541 229.736
L224.669 229.073
L224.924 229.073
L225.051 229.736
L225.307 229.073
L225.689 229.073
L225.817 228.41
L225.817 228.41
L226.582 228.409
L226.582 228.409
L226.837 227.743
L227.22 227.743
L227.347 227.07
L227.602 227.004
L227.602 227.004
L228.495 225.653
L228.75 225.653
L228.878 224.97
L229.26 224.97
L229.515 225.652
L229.643 225.652
L229.898 224.97
L230.026 224.97
L230.281 224.288
L230.408 224.288
L230.663 223.6
L230.663 223.6
L231.046 224.288
L231.173 224.97
L231.429 224.97
L231.429 224.97
L231.556 223.6
L231.811 222.907
L233.852 222.907
L234.235 219.795
L234.617 219.795
L234.872 219.087
L235.255 219.087
L235.255 219.087
L235.383 218.374
L235.765 218.374
L236.02 219.087
L236.02 219.087
L236.403 219.087
L236.53 225.651
L236.913 225.651
L237.168 224.288
L237.933 224.288
L238.061 222.229
L239.591 222.278
L239.846 221.581
L239.974 220.878
L240.229 221.581
L240.357 221.581
L240.612 222.278
L240.612 222.278
L240.739 225.651
L240.994 225.651
L241.122 224.97
L241.377 224.288
L241.887 224.288
L242.142 221.202
L242.27 222.907
L242.525 222.279
L242.653 222.279
L242.907 221.581
L243.035 221.581
L243.418 218.935
L243.673 208.818
L243.8 208.818
L244.055 218.935
L244.438 218.935
L244.565 218.222
L244.948 218.217
L245.203 217.499
L245.203 217.499
L245.331 217.499
L245.586 218.222
L245.713 218.935
L245.968 216.78
L246.096 217.504
L246.351 216.78
L247.499 216.78
L247.882 218.935
L248.009 218.935
L248.392 222.279
L249.157 222.279
L249.412 221.581
L250.177 221.581
L250.305 225.653
L262.166 225.653
L262.549 219.546
L262.932 200.021
L263.187 205.08
L263.697 205.08
L263.952 159.551
L264.462 159.551
L264.717 156.5
L264.845 139.316
L265.1 156.5
L265.1 156.5
L265.227 155.474
L265.483 154.442
L265.61 153.374
L265.993 153.374
L266.248 158.539
L266.375 205.08
L266.758 205.08
L267.013 218.834
L267.906 218.834
L268.161 219.548
L268.288 233.778
L268.671 233.641
L269.054 233.641
L269.437 233.778
L269.691 235.007
L269.819 234.375
L270.202 231.097
L270.457 231.097
L270.584 229.432
L270.839 231.097
L272.115 231.097
L272.37 229.786
L273.135 229.786
L273.263 229.123
L273.645 229.123
L273.9 229.786
L274.028 229.786
L274.283 219.006
L274.411 219.006
L274.666 229.786
L274.793 230.444
L275.176 227.793
L275.431 226.448
L276.961 226.448
L277.472 224.075
L277.727 224.075
L278.109 220.595
L278.109 220.595
L278.492 220.595
L278.619 217.863
L278.875 221.298
L279.002 221.298
L279.257 215.197
L279.385 215.197
L279.64 214.463
L280.405 214.463
L280.405 214.463
L280.533 210.138
L280.915 210.138
L281.17 208.565
L281.17 208.565
L281.298 208.565
L281.553 207.796
L281.68 208.565
L281.936 200.021
L282.318 210.088
L282.446 208.317
L282.701 208.565
L283.083 212.986
L283.976 212.986
L284.231 213.725
L286.527 213.725
L286.655 214.463
L287.42 214.462
L287.675 214.185
L287.803 213.447
L288.058 212.703
L288.185 211.211
L288.823 211.15
L288.95 211.15
L289.205 210.396
L289.333 210.396
L289.716 210.138
L289.971 211.21
L290.098 210.442
L290.481 210.442
L290.736 208.924
L290.991 208.924
L291.119 209.683
L291.501 209.632
L291.884 209.682
L293.414 209.683
L293.414 209.683
L293.542 208.924
L294.562 208.924
L294.69 208.16
L294.945 208.924
L294.945 208.924
L295.455 208.924
L295.71 208.16
L295.838 208.16
L296.093 208.924
L296.475 214.463
L296.603 212.991
L296.986 212.991
L297.241 212.248
L297.368 211.499
L297.623 212.248
L297.751 212.248
L298.006 211.499
L298.133 211.499
L298.389 210.745
L298.771 210.745
L299.154 207.346
L299.281 206.572
L299.536 209.177
L299.919 209.233
L300.047 209.992
L300.429 207.7
L300.684 207.7
L300.812 206.931
L301.067 206.931
L301.195 209.233
L302.342 209.233
L302.597 208.469
L302.597 208.469
L302.98 208.469
L303.108 209.233
L303.235 209.233
L303.49 193.299
L303.745 209.232
L303.873 209.232
L304.128 208.469
L304.128 208.469
L304.256 207.7
L304.893 207.7
L305.021 206.931
L305.276 206.157
L305.659 206.157
L305.786 205.378
L306.041 206.157
L307.954 206.157
L308.082 205.378
L308.72 205.378
L308.72 205.378
L308.847 206.157
L309.102 206.157
L309.23 205.378
L309.485 206.157
L309.995 206.157
L310.25 205.378
L310.25 205.378
L310.378 209.232
L312.163 209.233
L312.291 208.469
L312.673 208.469
L312.928 221.996
L314.587 221.996
L314.842 220.999
L314.969 226.139
L315.224 226.139
L315.352 225.461
L315.607 224.778
L315.734 225.416
L316.882 225.415
L317.137 226.139
L317.265 226.139
L317.52 225.461
L317.648 225.461
L317.903 224.778
L318.03 224.09
L318.668 224.09
L318.668 224.09
L318.795 213.285
L319.051 212.541
L319.561 212.541
L319.816 211.792
L319.943 211.792
L320.198 224.09
L320.326 223.402
L320.709 222.011
L321.474 222.011
L321.729 220.61
L322.112 221.313
L322.239 221.313
L323.004 220.61
L325.555 220.61
L325.683 219.902
L327.213 219.902
L327.468 219.193
L327.596 218.48
L327.851 219.193
L327.979 218.48
L328.361 218.48
L328.616 217.762
L329.126 217.762
L329.381 217.043
L329.892 217.043
L330.147 214.727
L330.274 214.727
L330.529 203.137
L330.657 213.993
L330.912 214.727
L331.04 218.48
L331.422 218.48
L331.677 217.762
L332.443 217.762
L332.57 216.942
L332.825 216.942
L332.953 184.668
L333.335 184.668
L333.59 181.997
L334.483 181.997
L334.738 181.096
L334.866 179.179
L335.121 181.096
L335.248 180.798
L335.504 181.096
L335.631 173.791
L335.886 173.791
L336.014 171.904
L336.269 171.904
L336.396 173.791
L336.651 172.85
L336.779 172.85
L337.034 169.668
L337.162 164.61
L337.417 169.668
L337.799 169.668
L337.927 172.85
L338.692 172.85
L338.947 171.904
L339.84 171.895
L339.968 170.943
L340.605 170.943
L340.86 169.668
L340.988 169.668
L341.243 159.601
L341.753 159.601
L342.008 169.567
L345.197 169.567
L345.452 168.606
L345.452 168.606
L345.579 169.567
L345.835 168.606
L346.217 168.606
L346.345 169.567
L346.6 217.043
L346.727 217.043
L346.982 216.32
L346.982 216.32
L347.493 216.32
L347.748 217.043
L348.258 217.043
L348.513 216.32
L348.64 216.32
L348.896 224.09
L354.635 224.09
L354.763 232.038
L355.145 206.855
L355.4 200.785
L355.4 200.785
L355.528 207.867
L355.783 196.98
L355.91 208.631
L356.931 208.631
L357.058 199.525
L357.313 195.68
L357.568 195.68
L357.824 194.851
L359.992 194.851
L360.119 194.016
L360.757 194.016
L360.885 194.851
L363.435 194.851
L363.563 194.016
L363.818 194.851
L364.328 194.851
L364.583 184.071
L365.476 184.071
L365.731 194.016
L366.114 194.016
L366.114 194.016
L366.242 193.176
L366.624 193.176
L366.879 192.332
L367.007 190.632
L367.262 188.917
L367.389 188.917
L367.644 188.052
L368.792 188.052
L369.175 186.307
L369.685 186.307
L369.94 179.604
L370.068 179.604
L370.323 182.639
L370.45 182.639
L370.705 181.744
L370.833 182.639
L371.088 181.744
L371.216 181.744
L371.471 179.938
L371.598 177.004
L372.363 177.004
L372.619 176.078
L372.746 159.546
L373.129 155.484
L373.384 154.452
L373.511 153.253
L373.766 153.253
L373.766 153.253
L373.894 152.211
L374.277 152.211
L374.532 151.164
L375.424 151.164
L375.807 127.554
L376.062 127.554
L376.19 128.718
L376.572 128.718
L376.827 129.876
L376.955 129.876
L377.21 151.164
L378.485 151.164
L378.741 150.111
L378.868 150.111
L379.123 151.164
L382.312 151.164
L382.567 150.111
L382.694 149.054
L383.077 149.054
L383.332 147.992
L383.46 147.992
L383.715 151.164
L384.608 151.164
L384.863 148.371
L385.373 148.371
L385.628 151.164
L386.138 151.164
L386.393 150.111
L386.521 150.111
L386.776 149.054
L386.903 147.992
L387.158 151.164
L387.286 151.164
L387.541 150.111
L387.924 150.111
L388.051 151.164
L389.837 151.164
L389.964 150.111
L390.219 150.111
L390.347 149.054
L390.602 151.164
L392.643 151.164
L392.898 150.111
L393.025 149.054
L393.408 149.054
L393.663 136.913
L394.046 136.913
L394.173 150.111
L394.173 150.111
L394.556 150.111
L394.811 151.164
L401.443 151.164
L401.698 154.29
L410.244 154.29
L410.499 173.473
L410.626 173.473
L410.881 174.408
L411.009 174.408
L411.264 215.612
L411.392 216.543
L411.647 175.344
L411.774 175.344
L412.029 173.478
L412.157 173.478
L412.412 171.495
L412.539 171.495
L412.667 173.447
L413.05 174.412
L414.708 174.413
L414.835 173.478
L415.218 173.478
L415.473 172.537
L415.6 173.478
L416.748 173.478
L417.003 172.537
L417.131 172.537
L417.386 173.478
L417.896 173.478
L418.151 172.537
L418.661 172.537
L418.917 171.591
L419.044 172.501
L419.427 172.537
L419.682 173.478
L420.957 173.478
L421.212 172.557
L421.34 173.478
L421.595 172.537
L421.723 173.478
L421.978 172.537
L422.105 174.413
L422.36 173.478
L422.488 173.478
L422.743 172.537
L423.253 172.537
L423.508 174.413
L424.018 174.413
L424.273 173.478
L424.784 173.478
L425.039 172.537
L425.166 172.537
L425.421 173.478
L425.804 173.478
L425.931 172.537
L426.187 171.591
L426.314 172.537
L426.569 170.64
L426.952 170.64
L427.334 171.591
L427.462 169.684
L427.717 170.589
L428.1 170.64
L428.227 169.684
L428.482 169.684
L428.865 171.805
L428.992 172.537
L429.248 171.591
L429.375 171.591
L429.758 174.413
L430.013 173.478
L430.778 173.478
L430.906 172.537
L431.033 172.537
L431.543 170.64
L432.436 170.64
L432.691 174.413
L432.691 174.413
L448.507 174.413
L448.762 199.889
L450.165 199.889
L450.42 198.265
L451.057 198.265
L451.185 167.093
L451.44 167.093
L451.568 166.117
L452.333 166.117
L452.588 165.136
L452.971 162.176
L453.481 162.176
L453.736 161.18
L453.863 161.18
L454.118 162.176
L454.246 161.18
L454.501 162.176
L454.629 162.176
L454.884 165.136
L454.884 165.136
L455.011 199.889
L455.266 198.265
L455.776 198.265
L456.159 197.997
L456.414 196.353
L456.924 196.353
L457.179 198.265
L458.455 198.265
L458.71 199.08
L458.837 199.889
L459.093 168.727
L459.22 168.727
L459.475 199.889
L460.751 199.884
L461.006 199.075
L461.133 199.075
L461.388 196.672
L461.516 196.672
L461.771 195.847
L461.899 195.847
L462.154 195.018
L462.281 194.183
L462.536 196.672
L462.919 196.672
L463.046 197.491
L463.301 199.884
L463.429 199.075
L464.96 199.075
L465.215 198.26
L465.342 198.26
L465.597 199.075
L465.597 199.075
L466.873 199.075
L467.128 198.26
L467.128 198.26
L467.51 198.26
L467.893 196.616
L468.021 197.441
L468.276 159.551
L468.658 159.541
L468.786 158.529
L469.041 157.512
L470.316 157.512
L470.571 155.463
L470.954 155.463
L471.082 158.529
L471.337 158.529
L471.464 159.541
L471.719 159.541
L471.847 158.529
L472.612 158.529
L472.867 159.551
L473.632 159.551
L473.76 158.539
L474.015 158.539
L474.143 157.522
L474.398 158.539
L474.78 158.539
L474.908 157.522
L475.163 198.26
L475.291 238.761
L475.546 238.143
L475.673 238.143
L475.928 237.526
L476.056 236.904
L476.311 237.526
L476.438 236.277
L476.693 235.649
L476.821 236.904
L477.204 236.904
L477.459 235.649
L477.969 235.649
L478.224 233.747
L478.734 233.745
L478.989 233.105
L479.117 233.105
L479.372 233.744
L479.755 233.744
L480.137 232.387
L480.265 232.387
L480.52 231.086
L480.647 231.085
L481.03 227.12
L481.285 226.448
L481.668 226.447
L481.795 225.77
L482.178 225.77
L482.433 227.12
L482.56 227.119
L482.816 196.095
L482.943 195.266
L483.326 195.266
L483.581 196.095
L483.708 196.095
L483.963 227.119
L484.346 225.087
L484.474 225.087
L484.729 225.77
L484.856 225.77
L485.239 219.548
L486.769 219.543
L487.024 226.446
L487.152 226.446
L487.407 225.77
L487.917 225.77
L488.172 225.087
L488.938 225.087
L489.065 224.404
L489.703 224.404
L489.83 223.716
L490.085 224.404
L490.213 223.716
L490.468 223.023
L491.744 223.023
L491.999 222.33
L492.126 222.33
L492.381 223.023
L492.509 223.023
L492.764 220.868
L492.891 221.571
L493.147 170.28
L493.274 170.28
L493.529 169.324
L494.294 169.324
L494.422 168.363
L494.677 167.397
L494.805 167.397
L495.06 168.363
L495.187 169.324
L495.57 169.324
L495.697 168.363
L495.825 168.363
L495.825 168.363
L495.952 167.397
L496.718 167.397
L496.973 166.426
L497.1 165.419
L497.738 165.418
L497.866 164.438
L498.248 165.418
L498.886 165.418
L499.013 164.417
L499.269 165.418
L499.269 165.418
L499.396 164.438
L500.034 164.428
L500.161 163.441
L500.416 164.428
L500.544 163.436
L500.799 164.438
L500.927 164.438
L501.182 167.397
L501.309 166.426
L501.564 166.426
L501.692 168.363
L501.947 167.397
L502.457 167.397
L502.712 168.363
L504.37 168.363
L504.625 167.397
L504.753 168.363
L507.431 168.363
L507.814 168.151
L508.197 168.151
L508.452 167.185
L508.579 167.185
L508.834 169.324
L509.217 168.363
L509.344 168.363
L509.6 159.551
L509.982 159.551
L510.492 169.324
L511.13 169.324
L511.513 168.363
L511.64 167.397
L511.895 167.397
L512.023 166.426
L512.278 158.539
L512.405 158.539
L512.661 156.5
L512.788 58.3762
L513.043 154.442
L513.171 154.442
L513.426 155.474
L513.553 155.474
L513.936 151.315
L514.191 151.315
L514.319 152.362
L514.956 152.362
L515.084 151.315
L515.339 150.263
L515.467 151.315
L516.232 151.315
L516.487 149.206
L516.869 149.206
L517.252 146.004
L517.38 146.004
L517.635 133.119
L517.762 134.257
L518.017 133.119
L518.145 133.119
L518.4 131.976
L518.4 131.976" style="fill:none;stroke:#ff0000;stroke-linecap:square;"/>
   </g>
   <g id="line2d_2">
    <path clip-path="url(#pcb2bf987bf)" d="
M72 343.535
L73.0203 343.489
L73.1479 343.346
L74.5509 343.419
L74.6784 343.534
L75.3161 343.534
L75.4437 343.414
L78.3771 343.428
L78.3771 343.428
L78.5047 343.58
L79.1426 343.58
L79.2699 343.437
L79.9077 343.437
L80.0352 343.707
L83.7339 343.761
L83.8615 343.845
L91.259 343.901
L92.917 344.083
L95.9781 343.989
L98.1463 343.93
L105.799 343.866
L108.86 343.777
L110.518 343.809
L112.048 343.607
L114.217 343.404
L116.64 343.569
L117.278 343.424
L118.171 343.424
L119.573 343.638
L124.293 343.543
L125.696 343.785
L129.522 343.853
L130.415 343.828
L131.818 344
L134.113 343.954
L134.369 343.819
L134.879 343.819
L135.644 343.982
L150.184 344.028
L153.372 344.129
L156.306 344.225
L159.367 344.294
L161.025 343.69
L164.086 343.615
L164.851 343.549
L165.489 343.61
L168.55 343.385
L170.08 343.26
L170.973 343.443
L173.269 343.34
L174.672 343.155
L174.8 343.155
L177.095 343.254
L193.038 343.507
L193.803 343.133
L194.569 342.93
L196.099 342.9
L196.864 343.163
L199.16 343.193
L200.691 343.561
L206.175 343.757
L206.303 343.692
L207.578 343.769
L209.236 343.859
L209.236 343.859
L210.001 343.823
L212.297 343.79
L213.573 343.787
L218.419 343.849
L218.419 343.849
L218.547 343.959
L224.541 344.067
L224.924 344.112
L226.072 344.089
L226.072 344.089
L226.327 343.962
L226.327 343.962
L240.612 344.061
L240.612 344.061
L240.739 344.129
L242.142 344.054
L242.525 343.992
L246.734 343.961
L246.734 343.961
L246.861 344.215
L250.56 344.214
L250.688 343.841
L252.091 343.89
L252.218 343.686
L255.917 343.611
L255.917 343.611
L256.044 343.557
L259.743 343.581
L259.743 343.581
L259.871 343.752
L261.274 343.77
L261.401 343.884
L262.804 343.885
L262.932 343.741
L265.1 343.749
L265.1 343.749
L265.227 343.918
L266.63 343.912
L266.758 344.074
L271.987 344.025
L272.115 343.897
L272.752 343.897
L272.88 343.781
L278.109 343.713
L278.109 343.713
L278.492 343.659
L279.64 343.741
L279.767 343.828
L287.292 343.825
L287.42 343.953
L288.823 343.997
L288.95 344.095
L298.006 344.025
L298.133 343.961
L308.72 344.042
L308.72 344.042
L308.847 344.167
L314.842 344.22
L314.969 344.303
L317.137 344.311
L317.265 344.471
L318.668 344.376
L318.668 344.376
L318.795 344.249
L320.964 344.239
L320.964 344.239
L321.474 344.117
L346.982 344.195
L346.982 344.195
L347.365 344.25
L350.043 344.24
L350.171 343.996
L354.635 344.086
L354.763 344.189
L360.757 344.255
L360.885 344.382
L369.175 344.279
L370.705 344.253
L371.471 344.275
L372.746 344.241
L388.306 344.28
L388.306 344.28
L388.434 344.742
L389.072 344.742
L389.199 344.334
L399.785 344.288
L399.913 344.153
L401.316 344.073
L401.443 343.781
L402.081 343.781
L402.208 343.922
L422.743 343.977
L422.87 344.074
L433.456 344.055
L433.584 343.935
L437.283 344.041
L437.41 344.154
L438.048 344.154
L438.176 344.273
L447.996 344.378
L448.889 344.418
L451.823 344.425
L451.95 344.296
L471.719 344.319
L471.847 344.451
L478.607 344.471
L478.734 344.336
L480.902 344.25
L481.413 344.22
L483.198 344.268
L483.326 344.381
L493.912 344.333
L494.04 344.217
L496.208 344.267
L496.335 344.103
L500.799 344.207
L501.947 344.245
L515.339 344.245
L515.467 344.377
L518.4 344.406
L518.4 344.406" style="fill:none;stroke:#008000;stroke-linecap:square;"/>
   </g>
   <g id="patch_3">
    <path d="
M72 43.2
L518.4 43.2" style="fill:none;stroke:#000000;stroke-linecap:square;stroke-linejoin:miter;"/>
   </g>
   <g id="patch_4">
    <path d="
M518.4 345.6
L518.4 43.2" style="fill:none;stroke:#000000;stroke-linecap:square;stroke-linejoin:miter;"/>
   </g>
   <g id="patch_5">
    <path d="
M72 345.6
L518.4 345.6" style="fill:none;stroke:#000000;stroke-linecap:square;stroke-linejoin:miter;"/>
   </g>
   <g id="patch_6">
    <path d="
M72 345.6
L72 43.2" style="fill:none;stroke:#000000;stroke-linecap:square;stroke-linejoin:miter;"/>
   </g>
   <g id="matplotlib.axis_1">
    <g id="xtick_1">
     <g id="line2d_3">
      <defs>
       <path d="
M0 0
L0 -4" id="m93b0483c22" style="stroke:#000000;stroke-width:0.5;"/>
      </defs>
      <g>
       <use style="stroke:#000000;stroke-width:0.5;" x="118.170301715" xlink:href="#m93b0483c22" y="345.6"/>
      </g>
     </g>
     <g id="line2d_4">
      <defs>
       <path d="
M0 0
L0 4" id="m741efc42ff" style="stroke:#000000;stroke-width:0.5;"/>
      </defs>
      <g>
       <use style="stroke:#000000;stroke-width:0.5;" x="118.170301715" xlink:href="#m741efc42ff" y="43.2"/>
      </g>
     </g>
     <g id="text_1">
      <!-- Oct 13 2015 -->
      <defs>
       <path d="
M19.1875 8.29688
L53.6094 8.29688
L53.6094 0
L7.32812 0
L7.32812 8.29688
Q12.9375 14.1094 22.625 23.8906
Q32.3281 33.6875 34.8125 36.5312
Q39.5469 41.8438 41.4219 45.5312
Q43.3125 49.2188 43.3125 52.7812
Q43.3125 58.5938 39.2344 62.25
Q35.1562 65.9219 28.6094 65.9219
Q23.9688 65.9219 18.8125 64.3125
Q13.6719 62.7031 7.8125 59.4219
L7.8125 69.3906
Q13.7656 71.7812 18.9375 73
Q24.125 74.2188 28.4219 74.2188
Q39.75 74.2188 46.4844 68.5469
Q53.2188 62.8906 53.2188 53.4219
Q53.2188 48.9219 51.5312 44.8906
Q49.8594 40.875 45.4062 35.4062
Q44.1875 33.9844 37.6406 27.2188
Q31.1094 20.4531 19.1875 8.29688" id="BitstreamVeraSans-Roman-32"/>
       <path d="
M39.4062 66.2188
Q28.6562 66.2188 22.3281 58.2031
Q16.0156 50.2031 16.0156 36.375
Q16.0156 22.6094 22.3281 14.5938
Q28.6562 6.59375 39.4062 6.59375
Q50.1406 6.59375 56.4219 14.5938
Q62.7031 22.6094 62.7031 36.375
Q62.7031 50.2031 56.4219 58.2031
Q50.1406 66.2188 39.4062 66.2188
M39.4062 74.2188
Q54.7344 74.2188 63.9062 63.9375
Q73.0938 53.6562 73.0938 36.375
Q73.0938 19.1406 63.9062 8.85938
Q54.7344 -1.42188 39.4062 -1.42188
Q24.0312 -1.42188 14.8125 8.82812
Q5.60938 19.0938 5.60938 36.375
Q5.60938 53.6562 14.8125 63.9375
Q24.0312 74.2188 39.4062 74.2188" id="BitstreamVeraSans-Roman-4f"/>
       <path d="
M31.7812 66.4062
Q24.1719 66.4062 20.3281 58.9062
Q16.5 51.4219 16.5 36.375
Q16.5 21.3906 20.3281 13.8906
Q24.1719 6.39062 31.7812 6.39062
Q39.4531 6.39062 43.2812 13.8906
Q47.125 21.3906 47.125 36.375
Q47.125 51.4219 43.2812 58.9062
Q39.4531 66.4062 31.7812 66.4062
M31.7812 74.2188
Q44.0469 74.2188 50.5156 64.5156
Q56.9844 54.8281 56.9844 36.375
Q56.9844 17.9688 50.5156 8.26562
Q44.0469 -1.42188 31.7812 -1.42188
Q19.5312 -1.42188 13.0625 8.26562
Q6.59375 17.9688 6.59375 36.375
Q6.59375 54.8281 13.0625 64.5156
Q19.5312 74.2188 31.7812 74.2188" id="BitstreamVeraSans-Roman-30"/>
       <path d="
M12.4062 8.29688
L28.5156 8.29688
L28.5156 63.9219
L10.9844 60.4062
L10.9844 69.3906
L28.4219 72.9062
L38.2812 72.9062
L38.2812 8.29688
L54.3906 8.29688
L54.3906 0
L12.4062 0
z
" id="BitstreamVeraSans-Roman-31"/>
       <path d="
M40.5781 39.3125
Q47.6562 37.7969 51.625 33
Q55.6094 28.2188 55.6094 21.1875
Q55.6094 10.4062 48.1875 4.48438
Q40.7656 -1.42188 27.0938 -1.42188
Q22.5156 -1.42188 17.6562 -0.515625
Q12.7969 0.390625 7.625 2.20312
L7.625 11.7188
Q11.7188 9.32812 16.5938 8.10938
Q21.4844 6.89062 26.8125 6.89062
Q36.0781 6.89062 40.9375 10.5469
Q45.7969 14.2031 45.7969 21.1875
Q45.7969 27.6406 41.2812 31.2656
Q36.7656 34.9062 28.7188 34.9062
L20.2188 34.9062
L20.2188 43.0156
L29.1094 43.0156
Q36.375 43.0156 40.2344 45.9219
Q44.0938 48.8281 44.0938 54.2969
Q44.0938 59.9062 40.1094 62.9062
Q36.1406 65.9219 28.7188 65.9219
Q24.6562 65.9219 20.0156 65.0312
Q15.375 64.1562 9.8125 62.3125
L9.8125 71.0938
Q15.4375 72.6562 20.3438 73.4375
Q25.25 74.2188 29.5938 74.2188
Q40.8281 74.2188 47.3594 69.1094
Q53.9062 64.0156 53.9062 55.3281
Q53.9062 49.2656 50.4375 45.0938
Q46.9688 40.9219 40.5781 39.3125" id="BitstreamVeraSans-Roman-33"/>
       <path id="BitstreamVeraSans-Roman-20"/>
       <path d="
M10.7969 72.9062
L49.5156 72.9062
L49.5156 64.5938
L19.8281 64.5938
L19.8281 46.7344
Q21.9688 47.4688 24.1094 47.8281
Q26.2656 48.1875 28.4219 48.1875
Q40.625 48.1875 47.75 41.5
Q54.8906 34.8125 54.8906 23.3906
Q54.8906 11.625 47.5625 5.09375
Q40.2344 -1.42188 26.9062 -1.42188
Q22.3125 -1.42188 17.5469 -0.640625
Q12.7969 0.140625 7.71875 1.70312
L7.71875 11.625
Q12.1094 9.23438 16.7969 8.0625
Q21.4844 6.89062 26.7031 6.89062
Q35.1562 6.89062 40.0781 11.3281
Q45.0156 15.7656 45.0156 23.3906
Q45.0156 31 40.0781 35.4375
Q35.1562 39.8906 26.7031 39.8906
Q22.75 39.8906 18.8125 39.0156
Q14.8906 38.1406 10.7969 36.2812
z
" id="BitstreamVeraSans-Roman-35"/>
       <path d="
M18.3125 70.2188
L18.3125 54.6875
L36.8125 54.6875
L36.8125 47.7031
L18.3125 47.7031
L18.3125 18.0156
Q18.3125 11.3281 20.1406 9.42188
Q21.9688 7.51562 27.5938 7.51562
L36.8125 7.51562
L36.8125 0
L27.5938 0
Q17.1875 0 13.2344 3.875
Q9.28125 7.76562 9.28125 18.0156
L9.28125 47.7031
L2.6875 47.7031
L2.6875 54.6875
L9.28125 54.6875
L9.28125 70.2188
z
" id="BitstreamVeraSans-Roman-74"/>
       <path d="
M48.7812 52.5938
L48.7812 44.1875
Q44.9688 46.2969 41.1406 47.3438
Q37.3125 48.3906 33.4062 48.3906
Q24.6562 48.3906 19.8125 42.8438
Q14.9844 37.3125 14.9844 27.2969
Q14.9844 17.2812 19.8125 11.7344
Q24.6562 6.20312 33.4062 6.20312
Q37.3125 6.20312 41.1406 7.25
Q44.9688 8.29688 48.7812 10.4062
L48.7812 2.09375
Q45.0156 0.34375 40.9844 -0.53125
Q36.9688 -1.42188 32.4219 -1.42188
Q20.0625 -1.42188 12.7812 6.34375
Q5.51562 14.1094 5.51562 27.2969
Q5.51562 40.6719 12.8594 48.3281
Q20.2188 56 33.0156 56
Q37.1562 56 41.1094 55.1406
Q45.0625 54.2969 48.7812 52.5938" id="BitstreamVeraSans-Roman-63"/>
      </defs>
      <g transform="translate(53.5830149798 394.065590385)rotate(-30.0)scale(0.12 -0.12)">
       <use xlink:href="#BitstreamVeraSans-Roman-4f"/>
       <use x="78.7109375" xlink:href="#BitstreamVeraSans-Roman-63"/>
       <use x="133.69140625" xlink:href="#BitstreamVeraSans-Roman-74"/>
       <use x="172.900390625" xlink:href="#BitstreamVeraSans-Roman-20"/>
       <use x="204.6875" xlink:href="#BitstreamVeraSans-Roman-31"/>
       <use x="268.310546875" xlink:href="#BitstreamVeraSans-Roman-33"/>
       <use x="331.93359375" xlink:href="#BitstreamVeraSans-Roman-20"/>
       <use x="363.720703125" xlink:href="#BitstreamVeraSans-Roman-32"/>
       <use x="427.34375" xlink:href="#BitstreamVeraSans-Roman-30"/>
       <use x="490.966796875" xlink:href="#BitstreamVeraSans-Roman-31"/>
       <use x="554.58984375" xlink:href="#BitstreamVeraSans-Roman-35"/>
      </g>
     </g>
    </g>
    <g id="xtick_2">
     <g id="line2d_5">
      <g>
       <use style="stroke:#000000;stroke-width:0.5;" x="173.268816" xlink:href="#m93b0483c22" y="345.6"/>
      </g>
     </g>
     <g id="line2d_6">
      <g>
       <use style="stroke:#000000;stroke-width:0.5;" x="173.268816" xlink:href="#m741efc42ff" y="43.2"/>
      </g>
     </g>
     <g id="text_2">
      <!-- Oct 16 2015 -->
      <defs>
       <path d="
M33.0156 40.375
Q26.375 40.375 22.4844 35.8281
Q18.6094 31.2969 18.6094 23.3906
Q18.6094 15.5312 22.4844 10.9531
Q26.375 6.39062 33.0156 6.39062
Q39.6562 6.39062 43.5312 10.9531
Q47.4062 15.5312 47.4062 23.3906
Q47.4062 31.2969 43.5312 35.8281
Q39.6562 40.375 33.0156 40.375
M52.5938 71.2969
L52.5938 62.3125
Q48.875 64.0625 45.0938 64.9844
Q41.3125 65.9219 37.5938 65.9219
Q27.8281 65.9219 22.6719 59.3281
Q17.5312 52.7344 16.7969 39.4062
Q19.6719 43.6562 24.0156 45.9219
Q28.375 48.1875 33.5938 48.1875
Q44.5781 48.1875 50.9531 41.5156
Q57.3281 34.8594 57.3281 23.3906
Q57.3281 12.1562 50.6875 5.35938
Q44.0469 -1.42188 33.0156 -1.42188
Q20.3594 -1.42188 13.6719 8.26562
Q6.98438 17.9688 6.98438 36.375
Q6.98438 53.6562 15.1875 63.9375
Q23.3906 74.2188 37.2031 74.2188
Q40.9219 74.2188 44.7031 73.4844
Q48.4844 72.75 52.5938 71.2969" id="BitstreamVeraSans-Roman-36"/>
      </defs>
      <g transform="translate(108.681529265 394.065590385)rotate(-30.0)scale(0.12 -0.12)">
       <use xlink:href="#BitstreamVeraSans-Roman-4f"/>
       <use x="78.7109375" xlink:href="#BitstreamVeraSans-Roman-63"/>
       <use x="133.69140625" xlink:href="#BitstreamVeraSans-Roman-74"/>
       <use x="172.900390625" xlink:href="#BitstreamVeraSans-Roman-20"/>
       <use x="204.6875" xlink:href="#BitstreamVeraSans-Roman-31"/>
       <use x="268.310546875" xlink:href="#BitstreamVeraSans-Roman-36"/>
       <use x="331.93359375" xlink:href="#BitstreamVeraSans-Roman-20"/>
       <use x="363.720703125" xlink:href="#BitstreamVeraSans-Roman-32"/>
       <use x="427.34375" xlink:href="#BitstreamVeraSans-Roman-30"/>
       <use x="490.966796875" xlink:href="#BitstreamVeraSans-Roman-31"/>
       <use x="554.58984375" xlink:href="#BitstreamVeraSans-Roman-35"/>
      </g>
     </g>
    </g>
    <g id="xtick_3">
     <g id="line2d_7">
      <g>
       <use style="stroke:#000000;stroke-width:0.5;" x="228.367330285" xlink:href="#m93b0483c22" y="345.6"/>
      </g>
     </g>
     <g id="line2d_8">
      <g>
       <use style="stroke:#000000;stroke-width:0.5;" x="228.367330285" xlink:href="#m741efc42ff" y="43.2"/>
      </g>
     </g>
     <g id="text_3">
      <!-- Oct 19 2015 -->
      <defs>
       <path d="
M10.9844 1.51562
L10.9844 10.5
Q14.7031 8.73438 18.5 7.8125
Q22.3125 6.89062 25.9844 6.89062
Q35.75 6.89062 40.8906 13.4531
Q46.0469 20.0156 46.7812 33.4062
Q43.9531 29.2031 39.5938 26.9531
Q35.25 24.7031 29.9844 24.7031
Q19.0469 24.7031 12.6719 31.3125
Q6.29688 37.9375 6.29688 49.4219
Q6.29688 60.6406 12.9375 67.4219
Q19.5781 74.2188 30.6094 74.2188
Q43.2656 74.2188 49.9219 64.5156
Q56.5938 54.8281 56.5938 36.375
Q56.5938 19.1406 48.4062 8.85938
Q40.2344 -1.42188 26.4219 -1.42188
Q22.7031 -1.42188 18.8906 -0.6875
Q15.0938 0.046875 10.9844 1.51562
M30.6094 32.4219
Q37.25 32.4219 41.125 36.9531
Q45.0156 41.5 45.0156 49.4219
Q45.0156 57.2812 41.125 61.8438
Q37.25 66.4062 30.6094 66.4062
Q23.9688 66.4062 20.0938 61.8438
Q16.2188 57.2812 16.2188 49.4219
Q16.2188 41.5 20.0938 36.9531
Q23.9688 32.4219 30.6094 32.4219" id="BitstreamVeraSans-Roman-39"/>
      </defs>
      <g transform="translate(163.78004355 394.065590385)rotate(-30.0)scale(0.12 -0.12)">
       <use xlink:href="#BitstreamVeraSans-Roman-4f"/>
       <use x="78.7109375" xlink:href="#BitstreamVeraSans-Roman-63"/>
       <use x="133.69140625" xlink:href="#BitstreamVeraSans-Roman-74"/>
       <use x="172.900390625" xlink:href="#BitstreamVeraSans-Roman-20"/>
       <use x="204.6875" xlink:href="#BitstreamVeraSans-Roman-31"/>
       <use x="268.310546875" xlink:href="#BitstreamVeraSans-Roman-39"/>
       <use x="331.93359375" xlink:href="#BitstreamVeraSans-Roman-20"/>
       <use x="363.720703125" xlink:href="#BitstreamVeraSans-Roman-32"/>
       <use x="427.34375" xlink:href="#BitstreamVeraSans-Roman-30"/>
       <use x="490.966796875" xlink:href="#BitstreamVeraSans-Roman-31"/>
       <use x="554.58984375" xlink:href="#BitstreamVeraSans-Roman-35"/>
      </g>
     </g>
    </g>
    <g id="xtick_4">
     <g id="line2d_9">
      <g>
       <use style="stroke:#000000;stroke-width:0.5;" x="283.465844572" xlink:href="#m93b0483c22" y="345.6"/>
      </g>
     </g>
     <g id="line2d_10">
      <g>
       <use style="stroke:#000000;stroke-width:0.5;" x="283.465844572" xlink:href="#m741efc42ff" y="43.2"/>
      </g>
     </g>
     <g id="text_4">
      <!-- Oct 22 2015 -->
      <g transform="translate(218.878557836 394.065590385)rotate(-30.0)scale(0.12 -0.12)">
       <use xlink:href="#BitstreamVeraSans-Roman-4f"/>
       <use x="78.7109375" xlink:href="#BitstreamVeraSans-Roman-63"/>
       <use x="133.69140625" xlink:href="#BitstreamVeraSans-Roman-74"/>
       <use x="172.900390625" xlink:href="#BitstreamVeraSans-Roman-20"/>
       <use x="204.6875" xlink:href="#BitstreamVeraSans-Roman-32"/>
       <use x="268.310546875" xlink:href="#BitstreamVeraSans-Roman-32"/>
       <use x="331.93359375" xlink:href="#BitstreamVeraSans-Roman-20"/>
       <use x="363.720703125" xlink:href="#BitstreamVeraSans-Roman-32"/>
       <use x="427.34375" xlink:href="#BitstreamVeraSans-Roman-30"/>
       <use x="490.966796875" xlink:href="#BitstreamVeraSans-Roman-31"/>
       <use x="554.58984375" xlink:href="#BitstreamVeraSans-Roman-35"/>
      </g>
     </g>
    </g>
    <g id="xtick_5">
     <g id="line2d_11">
      <g>
       <use style="stroke:#000000;stroke-width:0.5;" x="338.564358857" xlink:href="#m93b0483c22" y="345.6"/>
      </g>
     </g>
     <g id="line2d_12">
      <g>
       <use style="stroke:#000000;stroke-width:0.5;" x="338.564358857" xlink:href="#m741efc42ff" y="43.2"/>
      </g>
     </g>
     <g id="text_5">
      <!-- Oct 25 2015 -->
      <g transform="translate(273.977072121 394.065590385)rotate(-30.0)scale(0.12 -0.12)">
       <use xlink:href="#BitstreamVeraSans-Roman-4f"/>
       <use x="78.7109375" xlink:href="#BitstreamVeraSans-Roman-63"/>
       <use x="133.69140625" xlink:href="#BitstreamVeraSans-Roman-74"/>
       <use x="172.900390625" xlink:href="#BitstreamVeraSans-Roman-20"/>
       <use x="204.6875" xlink:href="#BitstreamVeraSans-Roman-32"/>
       <use x="268.310546875" xlink:href="#BitstreamVeraSans-Roman-35"/>
       <use x="331.93359375" xlink:href="#BitstreamVeraSans-Roman-20"/>
       <use x="363.720703125" xlink:href="#BitstreamVeraSans-Roman-32"/>
       <use x="427.34375" xlink:href="#BitstreamVeraSans-Roman-30"/>
       <use x="490.966796875" xlink:href="#BitstreamVeraSans-Roman-31"/>
       <use x="554.58984375" xlink:href="#BitstreamVeraSans-Roman-35"/>
      </g>
     </g>
    </g>
    <g id="xtick_6">
     <g id="line2d_13">
      <g>
       <use style="stroke:#000000;stroke-width:0.5;" x="393.662873141" xlink:href="#m93b0483c22" y="345.6"/>
      </g>
     </g>
     <g id="line2d_14">
      <g>
       <use style="stroke:#000000;stroke-width:0.5;" x="393.662873141" xlink:href="#m741efc42ff" y="43.2"/>
      </g>
     </g>
     <g id="text_6">
      <!-- Oct 28 2015 -->
      <defs>
       <path d="
M31.7812 34.625
Q24.75 34.625 20.7188 30.8594
Q16.7031 27.0938 16.7031 20.5156
Q16.7031 13.9219 20.7188 10.1562
Q24.75 6.39062 31.7812 6.39062
Q38.8125 6.39062 42.8594 10.1719
Q46.9219 13.9688 46.9219 20.5156
Q46.9219 27.0938 42.8906 30.8594
Q38.875 34.625 31.7812 34.625
M21.9219 38.8125
Q15.5781 40.375 12.0312 44.7188
Q8.5 49.0781 8.5 55.3281
Q8.5 64.0625 14.7188 69.1406
Q20.9531 74.2188 31.7812 74.2188
Q42.6719 74.2188 48.875 69.1406
Q55.0781 64.0625 55.0781 55.3281
Q55.0781 49.0781 51.5312 44.7188
Q48 40.375 41.7031 38.8125
Q48.8281 37.1562 52.7969 32.3125
Q56.7812 27.4844 56.7812 20.5156
Q56.7812 9.90625 50.3125 4.23438
Q43.8438 -1.42188 31.7812 -1.42188
Q19.7344 -1.42188 13.25 4.23438
Q6.78125 9.90625 6.78125 20.5156
Q6.78125 27.4844 10.7812 32.3125
Q14.7969 37.1562 21.9219 38.8125
M18.3125 54.3906
Q18.3125 48.7344 21.8438 45.5625
Q25.3906 42.3906 31.7812 42.3906
Q38.1406 42.3906 41.7188 45.5625
Q45.3125 48.7344 45.3125 54.3906
Q45.3125 60.0625 41.7188 63.2344
Q38.1406 66.4062 31.7812 66.4062
Q25.3906 66.4062 21.8438 63.2344
Q18.3125 60.0625 18.3125 54.3906" id="BitstreamVeraSans-Roman-38"/>
      </defs>
      <g transform="translate(329.075586406 394.065590385)rotate(-30.0)scale(0.12 -0.12)">
       <use xlink:href="#BitstreamVeraSans-Roman-4f"/>
       <use x="78.7109375" xlink:href="#BitstreamVeraSans-Roman-63"/>
       <use x="133.69140625" xlink:href="#BitstreamVeraSans-Roman-74"/>
       <use x="172.900390625" xlink:href="#BitstreamVeraSans-Roman-20"/>
       <use x="204.6875" xlink:href="#BitstreamVeraSans-Roman-32"/>
       <use x="268.310546875" xlink:href="#BitstreamVeraSans-Roman-38"/>
       <use x="331.93359375" xlink:href="#BitstreamVeraSans-Roman-20"/>
       <use x="363.720703125" xlink:href="#BitstreamVeraSans-Roman-32"/>
       <use x="427.34375" xlink:href="#BitstreamVeraSans-Roman-30"/>
       <use x="490.966796875" xlink:href="#BitstreamVeraSans-Roman-31"/>
       <use x="554.58984375" xlink:href="#BitstreamVeraSans-Roman-35"/>
      </g>
     </g>
    </g>
    <g id="xtick_7">
     <g id="line2d_15">
      <g>
       <use style="stroke:#000000;stroke-width:0.5;" x="448.761387428" xlink:href="#m93b0483c22" y="345.6"/>
      </g>
     </g>
     <g id="line2d_16">
      <g>
       <use style="stroke:#000000;stroke-width:0.5;" x="448.761387428" xlink:href="#m741efc42ff" y="43.2"/>
      </g>
     </g>
     <g id="text_7">
      <!-- Oct 31 2015 -->
      <g transform="translate(384.174100693 394.065590385)rotate(-30.0)scale(0.12 -0.12)">
       <use xlink:href="#BitstreamVeraSans-Roman-4f"/>
       <use x="78.7109375" xlink:href="#BitstreamVeraSans-Roman-63"/>
       <use x="133.69140625" xlink:href="#BitstreamVeraSans-Roman-74"/>
       <use x="172.900390625" xlink:href="#BitstreamVeraSans-Roman-20"/>
       <use x="204.6875" xlink:href="#BitstreamVeraSans-Roman-33"/>
       <use x="268.310546875" xlink:href="#BitstreamVeraSans-Roman-31"/>
       <use x="331.93359375" xlink:href="#BitstreamVeraSans-Roman-20"/>
       <use x="363.720703125" xlink:href="#BitstreamVeraSans-Roman-32"/>
       <use x="427.34375" xlink:href="#BitstreamVeraSans-Roman-30"/>
       <use x="490.966796875" xlink:href="#BitstreamVeraSans-Roman-31"/>
       <use x="554.58984375" xlink:href="#BitstreamVeraSans-Roman-35"/>
      </g>
     </g>
    </g>
    <g id="xtick_8">
     <g id="line2d_17">
      <g>
       <use style="stroke:#000000;stroke-width:0.5;" x="503.859901713" xlink:href="#m93b0483c22" y="345.6"/>
      </g>
     </g>
     <g id="line2d_18">
      <g>
       <use style="stroke:#000000;stroke-width:0.5;" x="503.859901713" xlink:href="#m741efc42ff" y="43.2"/>
      </g>
     </g>
     <g id="text_8">
      <!-- Nov 03 2015 -->
      <defs>
       <path d="
M2.98438 54.6875
L12.5 54.6875
L29.5938 8.79688
L46.6875 54.6875
L56.2031 54.6875
L35.6875 0
L23.4844 0
z
" id="BitstreamVeraSans-Roman-76"/>
       <path d="
M9.8125 72.9062
L23.0938 72.9062
L55.4219 11.9219
L55.4219 72.9062
L64.9844 72.9062
L64.9844 0
L51.7031 0
L19.3906 60.9844
L19.3906 0
L9.8125 0
z
" id="BitstreamVeraSans-Roman-4e"/>
       <path d="
M30.6094 48.3906
Q23.3906 48.3906 19.1875 42.75
Q14.9844 37.1094 14.9844 27.2969
Q14.9844 17.4844 19.1562 11.8438
Q23.3438 6.20312 30.6094 6.20312
Q37.7969 6.20312 41.9844 11.8594
Q46.1875 17.5312 46.1875 27.2969
Q46.1875 37.0156 41.9844 42.7031
Q37.7969 48.3906 30.6094 48.3906
M30.6094 56
Q42.3281 56 49.0156 48.375
Q55.7188 40.7656 55.7188 27.2969
Q55.7188 13.875 49.0156 6.21875
Q42.3281 -1.42188 30.6094 -1.42188
Q18.8438 -1.42188 12.1719 6.21875
Q5.51562 13.875 5.51562 27.2969
Q5.51562 40.7656 12.1719 48.375
Q18.8438 56 30.6094 56" id="BitstreamVeraSans-Roman-6f"/>
      </defs>
      <g transform="translate(436.957079555 395.402465385)rotate(-30.0)scale(0.12 -0.12)">
       <use xlink:href="#BitstreamVeraSans-Roman-4e"/>
       <use x="74.8046875" xlink:href="#BitstreamVeraSans-Roman-6f"/>
       <use x="135.986328125" xlink:href="#BitstreamVeraSans-Roman-76"/>
       <use x="195.166015625" xlink:href="#BitstreamVeraSans-Roman-20"/>
       <use x="226.953125" xlink:href="#BitstreamVeraSans-Roman-30"/>
       <use x="290.576171875" xlink:href="#BitstreamVeraSans-Roman-33"/>
       <use x="354.19921875" xlink:href="#BitstreamVeraSans-Roman-20"/>
       <use x="385.986328125" xlink:href="#BitstreamVeraSans-Roman-32"/>
       <use x="449.609375" xlink:href="#BitstreamVeraSans-Roman-30"/>
       <use x="513.232421875" xlink:href="#BitstreamVeraSans-Roman-31"/>
       <use x="576.85546875" xlink:href="#BitstreamVeraSans-Roman-35"/>
      </g>
     </g>
    </g>
   </g>
   <g id="matplotlib.axis_2">
    <g id="ytick_1">
     <g id="line2d_19">
      <defs>
       <path d="
M0 0
L4 0" id="m728421d6d4" style="stroke:#000000;stroke-width:0.5;"/>
      </defs>
      <g>
       <use style="stroke:#000000;stroke-width:0.5;" x="72.0" xlink:href="#m728421d6d4" y="311.312956334"/>
      </g>
     </g>
     <g id="line2d_20">
      <defs>
       <path d="
M0 0
L-4 0" id="mcb0005524f" style="stroke:#000000;stroke-width:0.5;"/>
      </defs>
      <g>
       <use style="stroke:#000000;stroke-width:0.5;" x="518.4" xlink:href="#mcb0005524f" y="311.312956334"/>
      </g>
     </g>
     <g id="text_9">
      <!-- 50000 -->
      <g transform="translate(31.548125 314.624206334)scale(0.12 -0.12)">
       <use xlink:href="#BitstreamVeraSans-Roman-35"/>
       <use x="63.623046875" xlink:href="#BitstreamVeraSans-Roman-30"/>
       <use x="127.24609375" xlink:href="#BitstreamVeraSans-Roman-30"/>
       <use x="190.869140625" xlink:href="#BitstreamVeraSans-Roman-30"/>
       <use x="254.4921875" xlink:href="#BitstreamVeraSans-Roman-30"/>
      </g>
     </g>
    </g>
    <g id="ytick_2">
     <g id="line2d_21">
      <g>
       <use style="stroke:#000000;stroke-width:0.5;" x="72.0" xlink:href="#m728421d6d4" y="260.725606082"/>
      </g>
     </g>
     <g id="line2d_22">
      <g>
       <use style="stroke:#000000;stroke-width:0.5;" x="518.4" xlink:href="#mcb0005524f" y="260.725606082"/>
      </g>
     </g>
     <g id="text_10">
      <!-- 100000 -->
      <g transform="translate(24.305 264.036856082)scale(0.12 -0.12)">
       <use xlink:href="#BitstreamVeraSans-Roman-31"/>
       <use x="63.623046875" xlink:href="#BitstreamVeraSans-Roman-30"/>
       <use x="127.24609375" xlink:href="#BitstreamVeraSans-Roman-30"/>
       <use x="190.869140625" xlink:href="#BitstreamVeraSans-Roman-30"/>
       <use x="254.4921875" xlink:href="#BitstreamVeraSans-Roman-30"/>
       <use x="318.115234375" xlink:href="#BitstreamVeraSans-Roman-30"/>
      </g>
     </g>
    </g>
    <g id="ytick_3">
     <g id="line2d_23">
      <g>
       <use style="stroke:#000000;stroke-width:0.5;" x="72.0" xlink:href="#m728421d6d4" y="210.13825583"/>
      </g>
     </g>
     <g id="line2d_24">
      <g>
       <use style="stroke:#000000;stroke-width:0.5;" x="518.4" xlink:href="#mcb0005524f" y="210.13825583"/>
      </g>
     </g>
     <g id="text_11">
      <!-- 150000 -->
      <g transform="translate(24.305 213.44950583)scale(0.12 -0.12)">
       <use xlink:href="#BitstreamVeraSans-Roman-31"/>
       <use x="63.623046875" xlink:href="#BitstreamVeraSans-Roman-35"/>
       <use x="127.24609375" xlink:href="#BitstreamVeraSans-Roman-30"/>
       <use x="190.869140625" xlink:href="#BitstreamVeraSans-Roman-30"/>
       <use x="254.4921875" xlink:href="#BitstreamVeraSans-Roman-30"/>
       <use x="318.115234375" xlink:href="#BitstreamVeraSans-Roman-30"/>
      </g>
     </g>
    </g>
    <g id="ytick_4">
     <g id="line2d_25">
      <g>
       <use style="stroke:#000000;stroke-width:0.5;" x="72.0" xlink:href="#m728421d6d4" y="159.550905579"/>
      </g>
     </g>
     <g id="line2d_26">
      <g>
       <use style="stroke:#000000;stroke-width:0.5;" x="518.4" xlink:href="#mcb0005524f" y="159.550905579"/>
      </g>
     </g>
     <g id="text_12">
      <!-- 200000 -->
      <g transform="translate(23.86625 162.862155579)scale(0.12 -0.12)">
       <use xlink:href="#BitstreamVeraSans-Roman-32"/>
       <use x="63.623046875" xlink:href="#BitstreamVeraSans-Roman-30"/>
       <use x="127.24609375" xlink:href="#BitstreamVeraSans-Roman-30"/>
       <use x="190.869140625" xlink:href="#BitstreamVeraSans-Roman-30"/>
       <use x="254.4921875" xlink:href="#BitstreamVeraSans-Roman-30"/>
       <use x="318.115234375" xlink:href="#BitstreamVeraSans-Roman-30"/>
      </g>
     </g>
    </g>
    <g id="ytick_5">
     <g id="line2d_27">
      <g>
       <use style="stroke:#000000;stroke-width:0.5;" x="72.0" xlink:href="#m728421d6d4" y="108.963555327"/>
      </g>
     </g>
     <g id="line2d_28">
      <g>
       <use style="stroke:#000000;stroke-width:0.5;" x="518.4" xlink:href="#mcb0005524f" y="108.963555327"/>
      </g>
     </g>
     <g id="text_13">
      <!-- 250000 -->
      <g transform="translate(23.86625 112.274805327)scale(0.12 -0.12)">
       <use xlink:href="#BitstreamVeraSans-Roman-32"/>
       <use x="63.623046875" xlink:href="#BitstreamVeraSans-Roman-35"/>
       <use x="127.24609375" xlink:href="#BitstreamVeraSans-Roman-30"/>
       <use x="190.869140625" xlink:href="#BitstreamVeraSans-Roman-30"/>
       <use x="254.4921875" xlink:href="#BitstreamVeraSans-Roman-30"/>
       <use x="318.115234375" xlink:href="#BitstreamVeraSans-Roman-30"/>
      </g>
     </g>
    </g>
    <g id="ytick_6">
     <g id="line2d_29">
      <g>
       <use style="stroke:#000000;stroke-width:0.5;" x="72.0" xlink:href="#m728421d6d4" y="58.3762050755"/>
      </g>
     </g>
     <g id="line2d_30">
      <g>
       <use style="stroke:#000000;stroke-width:0.5;" x="518.4" xlink:href="#mcb0005524f" y="58.3762050755"/>
      </g>
     </g>
     <g id="text_14">
      <!-- 300000 -->
      <g transform="translate(23.901875 61.6874550755)scale(0.12 -0.12)">
       <use xlink:href="#BitstreamVeraSans-Roman-33"/>
       <use x="63.623046875" xlink:href="#BitstreamVeraSans-Roman-30"/>
       <use x="127.24609375" xlink:href="#BitstreamVeraSans-Roman-30"/>
       <use x="190.869140625" xlink:href="#BitstreamVeraSans-Roman-30"/>
       <use x="254.4921875" xlink:href="#BitstreamVeraSans-Roman-30"/>
       <use x="318.115234375" xlink:href="#BitstreamVeraSans-Roman-30"/>
      </g>
     </g>
    </g>
   </g>
   <g id="text_15">
    <!-- Wachhunde -->
    <defs>
     <path d="
M54.8906 33.0156
L54.8906 0
L45.9062 0
L45.9062 32.7188
Q45.9062 40.4844 42.875 44.3281
Q39.8438 48.1875 33.7969 48.1875
Q26.5156 48.1875 22.3125 43.5469
Q18.1094 38.9219 18.1094 30.9062
L18.1094 0
L9.07812 0
L9.07812 54.6875
L18.1094 54.6875
L18.1094 46.1875
Q21.3438 51.125 25.7031 53.5625
Q30.0781 56 35.7969 56
Q45.2188 56 50.0469 50.1719
Q54.8906 44.3438 54.8906 33.0156" id="BitstreamVeraSans-Roman-6e"/>
     <path d="
M54.8906 33.0156
L54.8906 0
L45.9062 0
L45.9062 32.7188
Q45.9062 40.4844 42.875 44.3281
Q39.8438 48.1875 33.7969 48.1875
Q26.5156 48.1875 22.3125 43.5469
Q18.1094 38.9219 18.1094 30.9062
L18.1094 0
L9.07812 0
L9.07812 75.9844
L18.1094 75.9844
L18.1094 46.1875
Q21.3438 51.125 25.7031 53.5625
Q30.0781 56 35.7969 56
Q45.2188 56 50.0469 50.1719
Q54.8906 44.3438 54.8906 33.0156" id="BitstreamVeraSans-Roman-68"/>
     <path d="
M3.32812 72.9062
L13.2812 72.9062
L28.6094 11.2812
L43.8906 72.9062
L54.9844 72.9062
L70.3125 11.2812
L85.5938 72.9062
L95.6094 72.9062
L77.2969 0
L64.8906 0
L49.5156 63.2812
L33.9844 0
L21.5781 0
z
" id="BitstreamVeraSans-Roman-57"/>
     <path d="
M56.2031 29.5938
L56.2031 25.2031
L14.8906 25.2031
Q15.4844 15.9219 20.4844 11.0625
Q25.4844 6.20312 34.4219 6.20312
Q39.5938 6.20312 44.4531 7.46875
Q49.3125 8.73438 54.1094 11.2812
L54.1094 2.78125
Q49.2656 0.734375 44.1875 -0.34375
Q39.1094 -1.42188 33.8906 -1.42188
Q20.7969 -1.42188 13.1562 6.1875
Q5.51562 13.8125 5.51562 26.8125
Q5.51562 40.2344 12.7656 48.1094
Q20.0156 56 32.3281 56
Q43.3594 56 49.7812 48.8906
Q56.2031 41.7969 56.2031 29.5938
M47.2188 32.2344
Q47.125 39.5938 43.0938 43.9844
Q39.0625 48.3906 32.4219 48.3906
Q24.9062 48.3906 20.3906 44.1406
Q15.875 39.8906 15.1875 32.1719
z
" id="BitstreamVeraSans-Roman-65"/>
     <path d="
M45.4062 46.3906
L45.4062 75.9844
L54.3906 75.9844
L54.3906 0
L45.4062 0
L45.4062 8.20312
Q42.5781 3.32812 38.25 0.953125
Q33.9375 -1.42188 27.875 -1.42188
Q17.9688 -1.42188 11.7344 6.48438
Q5.51562 14.4062 5.51562 27.2969
Q5.51562 40.1875 11.7344 48.0938
Q17.9688 56 27.875 56
Q33.9375 56 38.25 53.625
Q42.5781 51.2656 45.4062 46.3906
M14.7969 27.2969
Q14.7969 17.3906 18.875 11.75
Q22.9531 6.10938 30.0781 6.10938
Q37.2031 6.10938 41.2969 11.75
Q45.4062 17.3906 45.4062 27.2969
Q45.4062 37.2031 41.2969 42.8438
Q37.2031 48.4844 30.0781 48.4844
Q22.9531 48.4844 18.875 42.8438
Q14.7969 37.2031 14.7969 27.2969" id="BitstreamVeraSans-Roman-64"/>
     <path d="
M8.5 21.5781
L8.5 54.6875
L17.4844 54.6875
L17.4844 21.9219
Q17.4844 14.1562 20.5 10.2656
Q23.5312 6.39062 29.5938 6.39062
Q36.8594 6.39062 41.0781 11.0312
Q45.3125 15.6719 45.3125 23.6875
L45.3125 54.6875
L54.2969 54.6875
L54.2969 0
L45.3125 0
L45.3125 8.40625
Q42.0469 3.42188 37.7188 1
Q33.4062 -1.42188 27.6875 -1.42188
Q18.2656 -1.42188 13.375 4.4375
Q8.5 10.2969 8.5 21.5781" id="BitstreamVeraSans-Roman-75"/>
     <path d="
M34.2812 27.4844
Q23.3906 27.4844 19.1875 25
Q14.9844 22.5156 14.9844 16.5
Q14.9844 11.7188 18.1406 8.90625
Q21.2969 6.10938 26.7031 6.10938
Q34.1875 6.10938 38.7031 11.4062
Q43.2188 16.7031 43.2188 25.4844
L43.2188 27.4844
z

M52.2031 31.2031
L52.2031 0
L43.2188 0
L43.2188 8.29688
Q40.1406 3.32812 35.5469 0.953125
Q30.9531 -1.42188 24.3125 -1.42188
Q15.9219 -1.42188 10.9531 3.29688
Q6 8.01562 6 15.9219
Q6 25.1406 12.1719 29.8281
Q18.3594 34.5156 30.6094 34.5156
L43.2188 34.5156
L43.2188 35.4062
Q43.2188 41.6094 39.1406 45
Q35.0625 48.3906 27.6875 48.3906
Q23 48.3906 18.5469 47.2656
Q14.1094 46.1406 10.0156 43.8906
L10.0156 52.2031
Q14.9375 54.1094 19.5781 55.0469
Q24.2188 56 28.6094 56
Q40.4844 56 46.3438 49.8438
Q52.2031 43.7031 52.2031 31.2031" id="BitstreamVeraSans-Roman-61"/>
    </defs>
    <g transform="translate(435.078 38.2)scale(0.144 -0.144)">
     <use xlink:href="#BitstreamVeraSans-Roman-57"/>
     <use x="92.501953125" xlink:href="#BitstreamVeraSans-Roman-61"/>
     <use x="153.78125" xlink:href="#BitstreamVeraSans-Roman-63"/>
     <use x="208.76171875" xlink:href="#BitstreamVeraSans-Roman-68"/>
     <use x="272.140625" xlink:href="#BitstreamVeraSans-Roman-68"/>
     <use x="335.51953125" xlink:href="#BitstreamVeraSans-Roman-75"/>
     <use x="398.8984375" xlink:href="#BitstreamVeraSans-Roman-6e"/>
     <use x="462.27734375" xlink:href="#BitstreamVeraSans-Roman-64"/>
     <use x="525.75390625" xlink:href="#BitstreamVeraSans-Roman-65"/>
    </g>
   </g>
   <g id="legend_1">
    <g id="patch_7">
     <path d="
M123.942 423.616
L466.458 423.616
L466.458 398.16
L123.942 398.16
z
" style="fill:#ffffff;stroke:#000000;stroke-linejoin:miter;"/>
    </g>
    <g id="line2d_31">
     <path d="
M134.022 409.822
L154.182 409.822" style="fill:none;stroke:#ff0000;stroke-linecap:square;"/>
    </g>
    <g id="line2d_32"/>
    <g id="text_16">
     <!-- Schwarzmarktpreis -->
     <defs>
      <path d="
M52 44.1875
Q55.375 50.25 60.0625 53.125
Q64.75 56 71.0938 56
Q79.6406 56 84.2812 50.0156
Q88.9219 44.0469 88.9219 33.0156
L88.9219 0
L79.8906 0
L79.8906 32.7188
Q79.8906 40.5781 77.0938 44.375
Q74.3125 48.1875 68.6094 48.1875
Q61.625 48.1875 57.5625 43.5469
Q53.5156 38.9219 53.5156 30.9062
L53.5156 0
L44.4844 0
L44.4844 32.7188
Q44.4844 40.625 41.7031 44.4062
Q38.9219 48.1875 33.1094 48.1875
Q26.2188 48.1875 22.1562 43.5312
Q18.1094 38.875 18.1094 30.9062
L18.1094 0
L9.07812 0
L9.07812 54.6875
L18.1094 54.6875
L18.1094 46.1875
Q21.1875 51.2188 25.4844 53.6094
Q29.7812 56 35.6875 56
Q41.6562 56 45.8281 52.9688
Q50 49.9531 52 44.1875" id="BitstreamVeraSans-Roman-6d"/>
      <path d="
M9.07812 75.9844
L18.1094 75.9844
L18.1094 31.1094
L44.9219 54.6875
L56.3906 54.6875
L27.3906 29.1094
L57.625 0
L45.9062 0
L18.1094 26.7031
L18.1094 0
L9.07812 0
z
" id="BitstreamVeraSans-Roman-6b"/>
      <path d="
M53.5156 70.5156
L53.5156 60.8906
Q47.9062 63.5781 42.9219 64.8906
Q37.9375 66.2188 33.2969 66.2188
Q25.25 66.2188 20.875 63.0938
Q16.5 59.9688 16.5 54.2031
Q16.5 49.3594 19.4062 46.8906
Q22.3125 44.4375 30.4219 42.9219
L36.375 41.7031
Q47.4062 39.5938 52.6562 34.2969
Q57.9062 29 57.9062 20.125
Q57.9062 9.51562 50.7969 4.04688
Q43.7031 -1.42188 29.9844 -1.42188
Q24.8125 -1.42188 18.9688 -0.25
Q13.1406 0.921875 6.89062 3.21875
L6.89062 13.375
Q12.8906 10.0156 18.6562 8.29688
Q24.4219 6.59375 29.9844 6.59375
Q38.4219 6.59375 43.0156 9.90625
Q47.6094 13.2344 47.6094 19.3906
Q47.6094 24.75 44.3125 27.7812
Q41.0156 30.8125 33.5 32.3281
L27.4844 33.5
Q16.4531 35.6875 11.5156 40.375
Q6.59375 45.0625 6.59375 53.4219
Q6.59375 63.0938 13.4062 68.6562
Q20.2188 74.2188 32.1719 74.2188
Q37.3125 74.2188 42.625 73.2812
Q47.9531 72.3594 53.5156 70.5156" id="BitstreamVeraSans-Roman-53"/>
      <path d="
M9.42188 54.6875
L18.4062 54.6875
L18.4062 0
L9.42188 0
z

M9.42188 75.9844
L18.4062 75.9844
L18.4062 64.5938
L9.42188 64.5938
z
" id="BitstreamVeraSans-Roman-69"/>
      <path d="
M4.20312 54.6875
L13.1875 54.6875
L24.4219 12.0156
L35.5938 54.6875
L46.1875 54.6875
L57.4219 12.0156
L68.6094 54.6875
L77.5938 54.6875
L63.2812 0
L52.6875 0
L40.9219 44.8281
L29.1094 0
L18.5 0
z
" id="BitstreamVeraSans-Roman-77"/>
      <path d="
M5.51562 54.6875
L48.1875 54.6875
L48.1875 46.4844
L14.4062 7.17188
L48.1875 7.17188
L48.1875 0
L4.29688 0
L4.29688 8.20312
L38.0938 47.5156
L5.51562 47.5156
z
" id="BitstreamVeraSans-Roman-7a"/>
      <path d="
M41.1094 46.2969
Q39.5938 47.1719 37.8125 47.5781
Q36.0312 48 33.8906 48
Q26.2656 48 22.1875 43.0469
Q18.1094 38.0938 18.1094 28.8125
L18.1094 0
L9.07812 0
L9.07812 54.6875
L18.1094 54.6875
L18.1094 46.1875
Q20.9531 51.1719 25.4844 53.5781
Q30.0312 56 36.5312 56
Q37.4531 56 38.5781 55.875
Q39.7031 55.7656 41.0625 55.5156
z
" id="BitstreamVeraSans-Roman-72"/>
      <path d="
M44.2812 53.0781
L44.2812 44.5781
Q40.4844 46.5312 36.375 47.5
Q32.2812 48.4844 27.875 48.4844
Q21.1875 48.4844 17.8438 46.4375
Q14.5 44.3906 14.5 40.2812
Q14.5 37.1562 16.8906 35.375
Q19.2812 33.5938 26.5156 31.9844
L29.5938 31.2969
Q39.1562 29.25 43.1875 25.5156
Q47.2188 21.7812 47.2188 15.0938
Q47.2188 7.46875 41.1875 3.01562
Q35.1562 -1.42188 24.6094 -1.42188
Q20.2188 -1.42188 15.4531 -0.5625
Q10.6875 0.296875 5.42188 2
L5.42188 11.2812
Q10.4062 8.6875 15.2344 7.39062
Q20.0625 6.10938 24.8125 6.10938
Q31.1562 6.10938 34.5625 8.28125
Q37.9844 10.4531 37.9844 14.4062
Q37.9844 18.0625 35.5156 20.0156
Q33.0625 21.9688 24.7031 23.7812
L21.5781 24.5156
Q13.2344 26.2656 9.51562 29.9062
Q5.8125 33.5469 5.8125 39.8906
Q5.8125 47.6094 11.2812 51.7969
Q16.75 56 26.8125 56
Q31.7812 56 36.1719 55.2656
Q40.5781 54.5469 44.2812 53.0781" id="BitstreamVeraSans-Roman-73"/>
      <path d="
M18.1094 8.20312
L18.1094 -20.7969
L9.07812 -20.7969
L9.07812 54.6875
L18.1094 54.6875
L18.1094 46.3906
Q20.9531 51.2656 25.2656 53.625
Q29.5938 56 35.5938 56
Q45.5625 56 51.7812 48.0938
Q58.0156 40.1875 58.0156 27.2969
Q58.0156 14.4062 51.7812 6.48438
Q45.5625 -1.42188 35.5938 -1.42188
Q29.5938 -1.42188 25.2656 0.953125
Q20.9531 3.32812 18.1094 8.20312
M48.6875 27.2969
Q48.6875 37.2031 44.6094 42.8438
Q40.5312 48.4844 33.4062 48.4844
Q26.2656 48.4844 22.1875 42.8438
Q18.1094 37.2031 18.1094 27.2969
Q18.1094 17.3906 22.1875 11.75
Q26.2656 6.10938 33.4062 6.10938
Q40.5312 6.10938 44.6094 11.75
Q48.6875 17.3906 48.6875 27.2969" id="BitstreamVeraSans-Roman-70"/>
     </defs>
     <g transform="translate(170.022375 414.86175)scale(0.144 -0.144)">
      <use xlink:href="#BitstreamVeraSans-Roman-53"/>
      <use x="63.4765625" xlink:href="#BitstreamVeraSans-Roman-63"/>
      <use x="118.45703125" xlink:href="#BitstreamVeraSans-Roman-68"/>
      <use x="181.8359375" xlink:href="#BitstreamVeraSans-Roman-77"/>
      <use x="263.623046875" xlink:href="#BitstreamVeraSans-Roman-61"/>
      <use x="324.90234375" xlink:href="#BitstreamVeraSans-Roman-72"/>
      <use x="366.015625" xlink:href="#BitstreamVeraSans-Roman-7a"/>
      <use x="418.505859375" xlink:href="#BitstreamVeraSans-Roman-6d"/>
      <use x="515.91796875" xlink:href="#BitstreamVeraSans-Roman-61"/>
      <use x="577.197265625" xlink:href="#BitstreamVeraSans-Roman-72"/>
      <use x="618.310546875" xlink:href="#BitstreamVeraSans-Roman-6b"/>
      <use x="676.220703125" xlink:href="#BitstreamVeraSans-Roman-74"/>
      <use x="715.4296875" xlink:href="#BitstreamVeraSans-Roman-70"/>
      <use x="778.90625" xlink:href="#BitstreamVeraSans-Roman-72"/>
      <use x="817.76953125" xlink:href="#BitstreamVeraSans-Roman-65"/>
      <use x="879.29296875" xlink:href="#BitstreamVeraSans-Roman-69"/>
      <use x="907.076171875" xlink:href="#BitstreamVeraSans-Roman-73"/>
     </g>
    </g>
    <g id="line2d_33">
     <path d="
M339.609 409.822
L359.769 409.822" style="fill:none;stroke:#008000;stroke-linecap:square;"/>
    </g>
    <g id="line2d_34"/>
    <g id="text_17">
     <!-- Normalpreis -->
     <defs>
      <path d="
M9.42188 75.9844
L18.4062 75.9844
L18.4062 0
L9.42188 0
z
" id="BitstreamVeraSans-Roman-6c"/>
     </defs>
     <g transform="translate(375.609375 414.86175)scale(0.144 -0.144)">
      <use xlink:href="#BitstreamVeraSans-Roman-4e"/>
      <use x="74.8046875" xlink:href="#BitstreamVeraSans-Roman-6f"/>
      <use x="135.986328125" xlink:href="#BitstreamVeraSans-Roman-72"/>
      <use x="175.349609375" xlink:href="#BitstreamVeraSans-Roman-6d"/>
      <use x="272.76171875" xlink:href="#BitstreamVeraSans-Roman-61"/>
      <use x="334.041015625" xlink:href="#BitstreamVeraSans-Roman-6c"/>
      <use x="361.82421875" xlink:href="#BitstreamVeraSans-Roman-70"/>
      <use x="425.30078125" xlink:href="#BitstreamVeraSans-Roman-72"/>
      <use x="464.1640625" xlink:href="#BitstreamVeraSans-Roman-65"/>
      <use x="525.6875" xlink:href="#BitstreamVeraSans-Roman-69"/>
      <use x="553.470703125" xlink:href="#BitstreamVeraSans-Roman-73"/>
     </g>
    </g>
   </g>
  </g>
 </g>
 <defs>
  <clipPath id="pcb2bf987bf">
   <rect height="302.4" width="446.4" x="72.0" y="43.2"/>
  </clipPath>
 </defs>
</svg>
