<?xml version="1.0" encoding="utf-8" standalone="no"?>
<!DOCTYPE svg PUBLIC "-//W3C//DTD SVG 1.1//EN"
  "http://www.w3.org/Graphics/SVG/1.1/DTD/svg11.dtd">
<!-- Created with matplotlib (http://matplotlib.org/) -->
<svg height="432pt" version="1.1" viewBox="0 0 576 432" width="576pt" xmlns="http://www.w3.org/2000/svg" xmlns:xlink="http://www.w3.org/1999/xlink">
 <defs>
  <style type="text/css">
*{stroke-linecap:butt;stroke-linejoin:round;}
  </style>
 </defs>
 <g id="figure_1">
  <g id="patch_1">
   <path d="
M0 432
L576 432
L576 0
L0 0
z
" style="fill:#ffffff;"/>
  </g>
  <g id="axes_1">
   <g id="patch_2">
    <path d="
M72 345.6
L518.4 345.6
L518.4 43.2
L72 43.2
z
" style="fill:#ffffff;"/>
   </g>
   <g id="line2d_1">
    <path clip-path="url(#pcb2bf987bf)" d="
M72 327.151
L74.1682 327.064
L74.2958 326.957
L74.5509 327.17
L74.6784 327.064
L77.9947 326.957
L78.1221 326.85
L81.8208 326.741
L82.331 326.414
L85.7746 326.304
L86.1573 326.194
L90.4937 326.083
L90.6213 325.971
L92.1518 325.746
L92.917 325.746
L94.4475 325.29
L95.2128 325.405
L98.1463 325.405
L98.2738 325.29
L99.0391 324.941
L99.6768 324.941
L101.207 324.706
L104.268 324.705
L105.034 324.586
L105.799 324.227
L106.564 324.227
L107.33 323.863
L108.095 323.863
L108.222 323.74
L108.86 323.617
L109.753 323.616
L110.518 323.493
L111.283 323.493
L112.048 323.617
L114.217 322.991
L115.109 322.864
L116.64 324.106
L119.573 324.106
L120.339 323.985
L121.869 323.985
L122.762 323.601
L126.589 323.535
L127.354 323.411
L127.354 323.411
L128.884 323.411
L129.522 323.161
L131.818 323.161
L132.583 323.411
L132.583 323.411
L134.113 323.286
L134.369 323.411
L134.879 323.286
L135.644 323.286
L136.537 323.161
L139.598 323.161
L140.235 323.034
L141.001 323.161
L141.893 323.161
L142.531 323.286
L144.827 323.286
L146.357 322.652
L147.25 322.652
L147.888 322.523
L148.653 322.523
L149.546 322.394
L150.949 323.286
L151.077 322.068
L151.714 323.286
L152.48 323.411
L153.245 322.357
L153.372 321.658
L154.01 321.745
L154.775 322.095
L155.541 321.964
L155.541 321.964
L156.306 321.699
L157.071 322.095
L157.964 322.226
L159.367 322.226
L160.132 323.535
L161.025 323.535
L162.428 333.031
L164.086 332.799
L164.851 332.199
L167.019 332.035
L168.55 331.953
L170.08 331.705
L170.973 331.277
L172.376 331.277
L173.141 328.733
L176.203 328.634
L177.733 328.535
L178.498 327.989
L184.62 327.988
L185.386 327.784
L186.151 327.988
L186.916 327.865
L188.447 327.982
L189.339 327.88
L191.508 327.879
L191.508 327.879
L193.038 327.652
L194.569 327.547
L195.334 323.946
L196.864 323.946
L199.16 323.824
L200.691 323.046
L201.456 323.046
L202.221 323.946
L204.517 323.946
L205.41 323.824
L206.94 323.824
L207.578 323.946
L208.981 323.715
L211.022 323.701
L211.532 326.433
L217.016 326.323
L217.399 325.99
L217.781 325.878
L218.164 325.878
L218.547 325.766
L219.184 325.766
L219.312 325.878
L220.077 325.875
L220.332 325.762
L220.46 325.535
L220.46 325.535
L220.715 325.535
L220.843 304.696
L220.843 304.696
L221.098 325.535
L221.225 325.42
L221.863 325.42
L222.245 325.305
L222.373 325.42
L223.521 325.42
L223.904 325.305
L224.669 325.305
L225.051 325.19
L226.837 325.19
L226.965 325.42
L228.495 325.42
L228.75 323.12
L228.878 322.993
L229.133 322.993
L229.26 323.12
L233.087 323.12
L233.469 322.993
L233.852 323.12
L234.235 322.84
L234.617 322.84
L235 322.713
L236.148 322.713
L236.53 322.409
L240.229 322.399
L240.357 322.269
L240.612 322.269
L240.612 322.269
L240.739 325.42
L240.994 325.305
L241.122 317.809
L241.887 317.809
L242.142 325.305
L242.27 317.809
L242.525 325.24
L244.821 325.24
L244.948 325.124
L245.331 325.24
L245.713 325.124
L246.351 325.124
L246.479 325.008
L246.861 325.305
L251.325 325.305
L251.453 325.19
L252.091 325.19
L252.218 325.305
L256.044 325.305
L256.81 325.19
L256.81 325.19
L257.192 325.19
L257.575 325.074
L257.83 325.074
L257.957 325.305
L259.105 325.305
L259.871 325.074
L260.508 325.074
L260.636 266.898
L260.891 325.074
L262.166 325.074
L262.421 315.624
L262.549 315.46
L262.804 325.074
L264.462 325.074
L264.845 324.957
L265.1 324.957
L265.1 324.957
L265.227 304.696
L265.483 304.696
L265.61 324.957
L265.738 324.84
L268.671 324.84
L268.926 324.957
L269.309 324.721
L270.202 324.721
L270.457 325.074
L270.584 324.892
L271.222 324.892
L271.605 324.774
L272.115 324.418
L272.88 324.177
L273.263 324.177
L273.645 324.056
L275.941 324.038
L276.324 323.916
L276.706 323.916
L277.727 323.379
L277.854 323.128
L278.492 323.128
L278.619 322.783
L279.002 322.655
L279.385 322.655
L279.767 322.526
L280.15 320.951
L280.405 320.53
L280.405 320.53
L280.533 321.088
L281.298 321.088
L281.68 320.951
L282.828 320.869
L283.083 320.454
L283.211 322.397
L283.466 322.397
L283.594 322.526
L287.803 322.526
L288.185 322.249
L288.44 322.249
L288.568 322.526
L293.414 322.526
L293.414 322.526
L293.542 322.267
L295.455 322.267
L295.838 322.397
L296.093 322.267
L296.603 322.397
L297.241 322.136
L297.751 322.136
L298.133 322.005
L306.041 322.004
L306.169 321.872
L306.424 321.872
L306.551 322.004
L308.082 322.004
L308.72 321.743
L308.72 321.743
L310.25 321.743
L310.25 321.743
L310.378 57.7336
L310.633 321.61
L312.546 321.61
L312.673 321.476
L313.311 321.476
L313.439 321.61
L313.694 321.61
L313.821 321.476
L314.842 321.476
L314.969 321.341
L315.224 321.341
L315.607 321.07
L315.989 321.07
L316.5 321.206
L316.882 321.743
L318.03 321.61
L318.285 322.526
L318.795 322.526
L319.051 321.088
L319.178 322.526
L319.561 322.526
L319.943 322.397
L320.326 322.397
L320.964 322.267
L320.964 322.267
L321.729 322.267
L322.239 322.136
L324.917 322.136
L325.3 322.526
L326.448 322.526
L326.703 330.922
L332.825 330.824
L333.208 330.647
L333.335 330.647
L333.718 330.469
L335.631 330.221
L336.779 330.13
L337.799 329.854
L338.309 329.854
L338.692 329.668
L339.457 329.668
L339.84 329.48
L341.753 329.385
L342.136 329.29
L342.518 329.29
L342.901 329.099
L345.579 329.001
L345.962 328.807
L346.6 328.708
L346.982 328.511
L346.982 328.511
L349.023 328.411
L350.936 327.699
L351.957 327.595
L352.084 327.387
L352.467 327.282
L353.104 327.282
L353.232 327.07
L354.763 326.963
L355.145 326.856
L357.568 326.856
L357.824 326.639
L361.65 326.531
L362.032 326.332
L362.415 326
L362.67 326.111
L362.798 326.332
L363.563 326.309
L363.818 315.106
L363.946 314.939
L364.583 314.939
L364.711 315.106
L364.966 326.309
L366.879 326.199
L367.262 325.981
L367.389 325.981
L367.772 325.869
L368.537 325.869
L370.068 325.295
L370.45 324.587
L370.833 324.468
L371.216 324.468
L371.598 324.162
L371.853 324.162
L371.981 324.041
L372.236 324.041
L372.363 323.81
L372.746 324.041
L373.001 324.049
L373.384 323.805
L373.511 323.805
L373.894 323.682
L374.277 323.682
L374.532 323.805
L374.659 323.682
L374.914 323.184
L375.042 323.184
L375.424 323.057
L375.68 323.057
L375.807 322.931
L376.062 322.931
L376.19 322.803
L376.572 323.184
L382.694 323.184
L383.332 322.931
L383.715 322.931
L384.225 322.803
L385.755 322.803
L386.138 322.547
L386.521 322.547
L386.903 322.417
L387.286 322.547
L390.219 322.547
L390.347 322.417
L390.602 322.547
L390.73 322.417
L391.495 322.417
L392.133 322.157
L393.663 322.157
L393.791 322.026
L394.939 322.026
L395.321 321.894
L395.959 321.894
L396.086 321.761
L396.724 321.761
L396.852 322.547
L397.234 322.399
L398.765 322.417
L399.147 322.288
L399.403 322.417
L399.785 322.157
L399.913 322.157
L400.295 322.026
L400.933 322.026
L401.061 322.157
L401.826 322.157
L402.081 319.84
L403.739 319.84
L403.994 322.157
L404.122 322.026
L404.504 322.157
L405.269 322.157
L405.652 322.026
L406.035 322.157
L406.8 322.004
L407.183 321.872
L407.948 321.872
L408.586 321.606
L408.713 319.995
L408.968 321.472
L409.478 321.472
L409.733 321.606
L409.861 321.337
L410.881 321.337
L411.009 321.606
L414.07 321.606
L414.453 321.835
L414.708 321.835
L415.09 321.569
L415.218 321.569
L415.6 321.435
L415.983 321.702
L416.748 321.702
L417.131 321.435
L418.661 321.435
L419.044 321.569
L419.427 321.569
L419.809 321.435
L420.575 321.435
L421.212 321.569
L421.978 321.569
L422.105 321.435
L422.488 321.435
L422.87 321.3
L423.636 321.3
L424.018 321.569
L424.401 321.435
L425.421 321.435
L425.549 321.3
L425.804 321.3
L426.187 321.028
L427.334 321.028
L427.462 320.615
L427.845 320.754
L428.1 320.754
L428.227 320.615
L428.61 320.754
L430.524 320.754
L430.906 320.615
L431.033 320.615
L431.288 320.476
L431.671 320.615
L433.201 320.615
L433.456 320.039
L433.584 320.039
L433.839 320.615
L434.349 320.615
L434.732 320.754
L435.752 320.754
L435.88 320.615
L436.135 311.734
L436.645 311.734
L436.9 320.615
L437.665 320.615
L437.793 320.754
L440.471 320.754
L440.726 321.028
L441.619 321.028
L442.002 321.164
L442.384 321.164
L442.767 321.416
L443.022 321.416
L443.15 321.281
L443.787 321.281
L444.17 321.009
L444.298 321.009
L444.553 321.145
L444.68 321.009
L444.935 321.009
L445.063 320.872
L445.445 320.872
L445.701 321.145
L446.593 321.145
L446.976 321.416
L457.307 321.384
L457.69 321.249
L458.71 321.249
L458.837 239.132
L459.093 321.384
L464.194 321.368
L464.577 321.233
L465.215 321.233
L465.342 321.368
L467.256 321.368
L467.51 321.233
L470.316 321.233
L470.699 320.96
L471.082 320.96
L471.464 320.823
L472.102 320.823
L472.229 321.097
L473.377 320.545
L473.76 320.545
L474.143 320.684
L474.78 320.684
L474.908 320.406
L475.546 320.959
L477.586 320.959
L477.841 320.821
L477.969 320.959
L478.352 320.821
L480.137 320.821
L480.265 320.683
L481.795 320.683
L482.178 320.454
L482.433 320.454
L482.56 320.315
L483.198 320.315
L483.326 320.174
L483.708 320.174
L484.091 320.033
L484.856 320.033
L485.111 319.891
L485.239 320.033
L485.494 320.033
L486.004 319.891
L487.152 319.891
L487.535 319.749
L488.683 319.749
L489.065 319.605
L490.596 319.605
L490.978 319.749
L491.744 319.749
L492.126 319.605
L492.509 319.605
L492.891 319.461
L493.147 314.946
L493.274 314.946
L493.529 314.778
L493.657 313.438
L493.912 314.41
L494.04 314.069
L494.294 314.24
L494.677 313.897
L494.805 313.897
L495.187 313.725
L495.442 311.712
L495.57 311.712
L495.952 311.344
L496.335 311.159
L496.718 311.159
L497.1 310.972
L497.483 311.159
L498.631 311.159
L498.886 310.972
L499.013 311.159
L499.269 310.972
L499.269 310.972
L499.651 311.344
L500.161 311.344
L500.799 310.972
L501.309 310.972
L501.564 311.344
L501.947 310.972
L503.095 310.972
L503.222 311.159
L503.605 310.972
L503.988 310.972
L504.37 310.785
L505.518 310.785
L505.901 310.408
L509.982 310.408
L510.492 310.597
L510.747 311.344
L510.875 311.344
L511.13 311.159
L511.513 311.159
L511.64 310.972
L511.895 310.972
L512.023 311.344
L512.278 293.496
L512.405 293.496
L512.788 293.769
L513.553 293.769
L513.808 282.842
L513.936 311.344
L514.191 311.344
L514.319 311.159
L514.701 311.159
L515.084 311.344
L515.467 311.344
L515.849 311.159
L516.487 311.159
L516.614 310.972
L517.38 310.972
L518.017 310.597
L518.4 310.597
L518.4 310.597" style="fill:none;stroke:#ff0000;stroke-linecap:square;"/>
   </g>
   <g id="line2d_2">
    <path clip-path="url(#pcb2bf987bf)" d="
M72 345.265
L159.367 345.376
L188.447 345.326
L191.508 345.307
L191.508 345.307
L281.68 345.38
L327.851 345.29
L328.616 345.269
L329.509 345.288
L386.776 345.382
L387.669 345.41
L518.4 345.438
L518.4 345.438" style="fill:none;stroke:#008000;stroke-linecap:square;"/>
   </g>
   <g id="patch_3">
    <path d="
M72 43.2
L518.4 43.2" style="fill:none;stroke:#000000;stroke-linecap:square;stroke-linejoin:miter;"/>
   </g>
   <g id="patch_4">
    <path d="
M518.4 345.6
L518.4 43.2" style="fill:none;stroke:#000000;stroke-linecap:square;stroke-linejoin:miter;"/>
   </g>
   <g id="patch_5">
    <path d="
M72 345.6
L518.4 345.6" style="fill:none;stroke:#000000;stroke-linecap:square;stroke-linejoin:miter;"/>
   </g>
   <g id="patch_6">
    <path d="
M72 345.6
L72 43.2" style="fill:none;stroke:#000000;stroke-linecap:square;stroke-linejoin:miter;"/>
   </g>
   <g id="matplotlib.axis_1">
    <g id="xtick_1">
     <g id="line2d_3">
      <defs>
       <path d="
M0 0
L0 -4" id="m93b0483c22" style="stroke:#000000;stroke-width:0.5;"/>
      </defs>
      <g>
       <use style="stroke:#000000;stroke-width:0.5;" x="118.170301715" xlink:href="#m93b0483c22" y="345.6"/>
      </g>
     </g>
     <g id="line2d_4">
      <defs>
       <path d="
M0 0
L0 4" id="m741efc42ff" style="stroke:#000000;stroke-width:0.5;"/>
      </defs>
      <g>
       <use style="stroke:#000000;stroke-width:0.5;" x="118.170301715" xlink:href="#m741efc42ff" y="43.2"/>
      </g>
     </g>
     <g id="text_1">
      <!-- Oct 13 2015 -->
      <defs>
       <path d="
M19.1875 8.29688
L53.6094 8.29688
L53.6094 0
L7.32812 0
L7.32812 8.29688
Q12.9375 14.1094 22.625 23.8906
Q32.3281 33.6875 34.8125 36.5312
Q39.5469 41.8438 41.4219 45.5312
Q43.3125 49.2188 43.3125 52.7812
Q43.3125 58.5938 39.2344 62.25
Q35.1562 65.9219 28.6094 65.9219
Q23.9688 65.9219 18.8125 64.3125
Q13.6719 62.7031 7.8125 59.4219
L7.8125 69.3906
Q13.7656 71.7812 18.9375 73
Q24.125 74.2188 28.4219 74.2188
Q39.75 74.2188 46.4844 68.5469
Q53.2188 62.8906 53.2188 53.4219
Q53.2188 48.9219 51.5312 44.8906
Q49.8594 40.875 45.4062 35.4062
Q44.1875 33.9844 37.6406 27.2188
Q31.1094 20.4531 19.1875 8.29688" id="BitstreamVeraSans-Roman-32"/>
       <path d="
M39.4062 66.2188
Q28.6562 66.2188 22.3281 58.2031
Q16.0156 50.2031 16.0156 36.375
Q16.0156 22.6094 22.3281 14.5938
Q28.6562 6.59375 39.4062 6.59375
Q50.1406 6.59375 56.4219 14.5938
Q62.7031 22.6094 62.7031 36.375
Q62.7031 50.2031 56.4219 58.2031
Q50.1406 66.2188 39.4062 66.2188
M39.4062 74.2188
Q54.7344 74.2188 63.9062 63.9375
Q73.0938 53.6562 73.0938 36.375
Q73.0938 19.1406 63.9062 8.85938
Q54.7344 -1.42188 39.4062 -1.42188
Q24.0312 -1.42188 14.8125 8.82812
Q5.60938 19.0938 5.60938 36.375
Q5.60938 53.6562 14.8125 63.9375
Q24.0312 74.2188 39.4062 74.2188" id="BitstreamVeraSans-Roman-4f"/>
       <path d="
M31.7812 66.4062
Q24.1719 66.4062 20.3281 58.9062
Q16.5 51.4219 16.5 36.375
Q16.5 21.3906 20.3281 13.8906
Q24.1719 6.39062 31.7812 6.39062
Q39.4531 6.39062 43.2812 13.8906
Q47.125 21.3906 47.125 36.375
Q47.125 51.4219 43.2812 58.9062
Q39.4531 66.4062 31.7812 66.4062
M31.7812 74.2188
Q44.0469 74.2188 50.5156 64.5156
Q56.9844 54.8281 56.9844 36.375
Q56.9844 17.9688 50.5156 8.26562
Q44.0469 -1.42188 31.7812 -1.42188
Q19.5312 -1.42188 13.0625 8.26562
Q6.59375 17.9688 6.59375 36.375
Q6.59375 54.8281 13.0625 64.5156
Q19.5312 74.2188 31.7812 74.2188" id="BitstreamVeraSans-Roman-30"/>
       <path d="
M12.4062 8.29688
L28.5156 8.29688
L28.5156 63.9219
L10.9844 60.4062
L10.9844 69.3906
L28.4219 72.9062
L38.2812 72.9062
L38.2812 8.29688
L54.3906 8.29688
L54.3906 0
L12.4062 0
z
" id="BitstreamVeraSans-Roman-31"/>
       <path d="
M40.5781 39.3125
Q47.6562 37.7969 51.625 33
Q55.6094 28.2188 55.6094 21.1875
Q55.6094 10.4062 48.1875 4.48438
Q40.7656 -1.42188 27.0938 -1.42188
Q22.5156 -1.42188 17.6562 -0.515625
Q12.7969 0.390625 7.625 2.20312
L7.625 11.7188
Q11.7188 9.32812 16.5938 8.10938
Q21.4844 6.89062 26.8125 6.89062
Q36.0781 6.89062 40.9375 10.5469
Q45.7969 14.2031 45.7969 21.1875
Q45.7969 27.6406 41.2812 31.2656
Q36.7656 34.9062 28.7188 34.9062
L20.2188 34.9062
L20.2188 43.0156
L29.1094 43.0156
Q36.375 43.0156 40.2344 45.9219
Q44.0938 48.8281 44.0938 54.2969
Q44.0938 59.9062 40.1094 62.9062
Q36.1406 65.9219 28.7188 65.9219
Q24.6562 65.9219 20.0156 65.0312
Q15.375 64.1562 9.8125 62.3125
L9.8125 71.0938
Q15.4375 72.6562 20.3438 73.4375
Q25.25 74.2188 29.5938 74.2188
Q40.8281 74.2188 47.3594 69.1094
Q53.9062 64.0156 53.9062 55.3281
Q53.9062 49.2656 50.4375 45.0938
Q46.9688 40.9219 40.5781 39.3125" id="BitstreamVeraSans-Roman-33"/>
       <path id="BitstreamVeraSans-Roman-20"/>
       <path d="
M10.7969 72.9062
L49.5156 72.9062
L49.5156 64.5938
L19.8281 64.5938
L19.8281 46.7344
Q21.9688 47.4688 24.1094 47.8281
Q26.2656 48.1875 28.4219 48.1875
Q40.625 48.1875 47.75 41.5
Q54.8906 34.8125 54.8906 23.3906
Q54.8906 11.625 47.5625 5.09375
Q40.2344 -1.42188 26.9062 -1.42188
Q22.3125 -1.42188 17.5469 -0.640625
Q12.7969 0.140625 7.71875 1.70312
L7.71875 11.625
Q12.1094 9.23438 16.7969 8.0625
Q21.4844 6.89062 26.7031 6.89062
Q35.1562 6.89062 40.0781 11.3281
Q45.0156 15.7656 45.0156 23.3906
Q45.0156 31 40.0781 35.4375
Q35.1562 39.8906 26.7031 39.8906
Q22.75 39.8906 18.8125 39.0156
Q14.8906 38.1406 10.7969 36.2812
z
" id="BitstreamVeraSans-Roman-35"/>
       <path d="
M18.3125 70.2188
L18.3125 54.6875
L36.8125 54.6875
L36.8125 47.7031
L18.3125 47.7031
L18.3125 18.0156
Q18.3125 11.3281 20.1406 9.42188
Q21.9688 7.51562 27.5938 7.51562
L36.8125 7.51562
L36.8125 0
L27.5938 0
Q17.1875 0 13.2344 3.875
Q9.28125 7.76562 9.28125 18.0156
L9.28125 47.7031
L2.6875 47.7031
L2.6875 54.6875
L9.28125 54.6875
L9.28125 70.2188
z
" id="BitstreamVeraSans-Roman-74"/>
       <path d="
M48.7812 52.5938
L48.7812 44.1875
Q44.9688 46.2969 41.1406 47.3438
Q37.3125 48.3906 33.4062 48.3906
Q24.6562 48.3906 19.8125 42.8438
Q14.9844 37.3125 14.9844 27.2969
Q14.9844 17.2812 19.8125 11.7344
Q24.6562 6.20312 33.4062 6.20312
Q37.3125 6.20312 41.1406 7.25
Q44.9688 8.29688 48.7812 10.4062
L48.7812 2.09375
Q45.0156 0.34375 40.9844 -0.53125
Q36.9688 -1.42188 32.4219 -1.42188
Q20.0625 -1.42188 12.7812 6.34375
Q5.51562 14.1094 5.51562 27.2969
Q5.51562 40.6719 12.8594 48.3281
Q20.2188 56 33.0156 56
Q37.1562 56 41.1094 55.1406
Q45.0625 54.2969 48.7812 52.5938" id="BitstreamVeraSans-Roman-63"/>
      </defs>
      <g transform="translate(53.5830149798 394.065590385)rotate(-30.0)scale(0.12 -0.12)">
       <use xlink:href="#BitstreamVeraSans-Roman-4f"/>
       <use x="78.7109375" xlink:href="#BitstreamVeraSans-Roman-63"/>
       <use x="133.69140625" xlink:href="#BitstreamVeraSans-Roman-74"/>
       <use x="172.900390625" xlink:href="#BitstreamVeraSans-Roman-20"/>
       <use x="204.6875" xlink:href="#BitstreamVeraSans-Roman-31"/>
       <use x="268.310546875" xlink:href="#BitstreamVeraSans-Roman-33"/>
       <use x="331.93359375" xlink:href="#BitstreamVeraSans-Roman-20"/>
       <use x="363.720703125" xlink:href="#BitstreamVeraSans-Roman-32"/>
       <use x="427.34375" xlink:href="#BitstreamVeraSans-Roman-30"/>
       <use x="490.966796875" xlink:href="#BitstreamVeraSans-Roman-31"/>
       <use x="554.58984375" xlink:href="#BitstreamVeraSans-Roman-35"/>
      </g>
     </g>
    </g>
    <g id="xtick_2">
     <g id="line2d_5">
      <g>
       <use style="stroke:#000000;stroke-width:0.5;" x="173.268816" xlink:href="#m93b0483c22" y="345.6"/>
      </g>
     </g>
     <g id="line2d_6">
      <g>
       <use style="stroke:#000000;stroke-width:0.5;" x="173.268816" xlink:href="#m741efc42ff" y="43.2"/>
      </g>
     </g>
     <g id="text_2">
      <!-- Oct 16 2015 -->
      <defs>
       <path d="
M33.0156 40.375
Q26.375 40.375 22.4844 35.8281
Q18.6094 31.2969 18.6094 23.3906
Q18.6094 15.5312 22.4844 10.9531
Q26.375 6.39062 33.0156 6.39062
Q39.6562 6.39062 43.5312 10.9531
Q47.4062 15.5312 47.4062 23.3906
Q47.4062 31.2969 43.5312 35.8281
Q39.6562 40.375 33.0156 40.375
M52.5938 71.2969
L52.5938 62.3125
Q48.875 64.0625 45.0938 64.9844
Q41.3125 65.9219 37.5938 65.9219
Q27.8281 65.9219 22.6719 59.3281
Q17.5312 52.7344 16.7969 39.4062
Q19.6719 43.6562 24.0156 45.9219
Q28.375 48.1875 33.5938 48.1875
Q44.5781 48.1875 50.9531 41.5156
Q57.3281 34.8594 57.3281 23.3906
Q57.3281 12.1562 50.6875 5.35938
Q44.0469 -1.42188 33.0156 -1.42188
Q20.3594 -1.42188 13.6719 8.26562
Q6.98438 17.9688 6.98438 36.375
Q6.98438 53.6562 15.1875 63.9375
Q23.3906 74.2188 37.2031 74.2188
Q40.9219 74.2188 44.7031 73.4844
Q48.4844 72.75 52.5938 71.2969" id="BitstreamVeraSans-Roman-36"/>
      </defs>
      <g transform="translate(108.681529265 394.065590385)rotate(-30.0)scale(0.12 -0.12)">
       <use xlink:href="#BitstreamVeraSans-Roman-4f"/>
       <use x="78.7109375" xlink:href="#BitstreamVeraSans-Roman-63"/>
       <use x="133.69140625" xlink:href="#BitstreamVeraSans-Roman-74"/>
       <use x="172.900390625" xlink:href="#BitstreamVeraSans-Roman-20"/>
       <use x="204.6875" xlink:href="#BitstreamVeraSans-Roman-31"/>
       <use x="268.310546875" xlink:href="#BitstreamVeraSans-Roman-36"/>
       <use x="331.93359375" xlink:href="#BitstreamVeraSans-Roman-20"/>
       <use x="363.720703125" xlink:href="#BitstreamVeraSans-Roman-32"/>
       <use x="427.34375" xlink:href="#BitstreamVeraSans-Roman-30"/>
       <use x="490.966796875" xlink:href="#BitstreamVeraSans-Roman-31"/>
       <use x="554.58984375" xlink:href="#BitstreamVeraSans-Roman-35"/>
      </g>
     </g>
    </g>
    <g id="xtick_3">
     <g id="line2d_7">
      <g>
       <use style="stroke:#000000;stroke-width:0.5;" x="228.367330285" xlink:href="#m93b0483c22" y="345.6"/>
      </g>
     </g>
     <g id="line2d_8">
      <g>
       <use style="stroke:#000000;stroke-width:0.5;" x="228.367330285" xlink:href="#m741efc42ff" y="43.2"/>
      </g>
     </g>
     <g id="text_3">
      <!-- Oct 19 2015 -->
      <defs>
       <path d="
M10.9844 1.51562
L10.9844 10.5
Q14.7031 8.73438 18.5 7.8125
Q22.3125 6.89062 25.9844 6.89062
Q35.75 6.89062 40.8906 13.4531
Q46.0469 20.0156 46.7812 33.4062
Q43.9531 29.2031 39.5938 26.9531
Q35.25 24.7031 29.9844 24.7031
Q19.0469 24.7031 12.6719 31.3125
Q6.29688 37.9375 6.29688 49.4219
Q6.29688 60.6406 12.9375 67.4219
Q19.5781 74.2188 30.6094 74.2188
Q43.2656 74.2188 49.9219 64.5156
Q56.5938 54.8281 56.5938 36.375
Q56.5938 19.1406 48.4062 8.85938
Q40.2344 -1.42188 26.4219 -1.42188
Q22.7031 -1.42188 18.8906 -0.6875
Q15.0938 0.046875 10.9844 1.51562
M30.6094 32.4219
Q37.25 32.4219 41.125 36.9531
Q45.0156 41.5 45.0156 49.4219
Q45.0156 57.2812 41.125 61.8438
Q37.25 66.4062 30.6094 66.4062
Q23.9688 66.4062 20.0938 61.8438
Q16.2188 57.2812 16.2188 49.4219
Q16.2188 41.5 20.0938 36.9531
Q23.9688 32.4219 30.6094 32.4219" id="BitstreamVeraSans-Roman-39"/>
      </defs>
      <g transform="translate(163.78004355 394.065590385)rotate(-30.0)scale(0.12 -0.12)">
       <use xlink:href="#BitstreamVeraSans-Roman-4f"/>
       <use x="78.7109375" xlink:href="#BitstreamVeraSans-Roman-63"/>
       <use x="133.69140625" xlink:href="#BitstreamVeraSans-Roman-74"/>
       <use x="172.900390625" xlink:href="#BitstreamVeraSans-Roman-20"/>
       <use x="204.6875" xlink:href="#BitstreamVeraSans-Roman-31"/>
       <use x="268.310546875" xlink:href="#BitstreamVeraSans-Roman-39"/>
       <use x="331.93359375" xlink:href="#BitstreamVeraSans-Roman-20"/>
       <use x="363.720703125" xlink:href="#BitstreamVeraSans-Roman-32"/>
       <use x="427.34375" xlink:href="#BitstreamVeraSans-Roman-30"/>
       <use x="490.966796875" xlink:href="#BitstreamVeraSans-Roman-31"/>
       <use x="554.58984375" xlink:href="#BitstreamVeraSans-Roman-35"/>
      </g>
     </g>
    </g>
    <g id="xtick_4">
     <g id="line2d_9">
      <g>
       <use style="stroke:#000000;stroke-width:0.5;" x="283.465844572" xlink:href="#m93b0483c22" y="345.6"/>
      </g>
     </g>
     <g id="line2d_10">
      <g>
       <use style="stroke:#000000;stroke-width:0.5;" x="283.465844572" xlink:href="#m741efc42ff" y="43.2"/>
      </g>
     </g>
     <g id="text_4">
      <!-- Oct 22 2015 -->
      <g transform="translate(218.878557836 394.065590385)rotate(-30.0)scale(0.12 -0.12)">
       <use xlink:href="#BitstreamVeraSans-Roman-4f"/>
       <use x="78.7109375" xlink:href="#BitstreamVeraSans-Roman-63"/>
       <use x="133.69140625" xlink:href="#BitstreamVeraSans-Roman-74"/>
       <use x="172.900390625" xlink:href="#BitstreamVeraSans-Roman-20"/>
       <use x="204.6875" xlink:href="#BitstreamVeraSans-Roman-32"/>
       <use x="268.310546875" xlink:href="#BitstreamVeraSans-Roman-32"/>
       <use x="331.93359375" xlink:href="#BitstreamVeraSans-Roman-20"/>
       <use x="363.720703125" xlink:href="#BitstreamVeraSans-Roman-32"/>
       <use x="427.34375" xlink:href="#BitstreamVeraSans-Roman-30"/>
       <use x="490.966796875" xlink:href="#BitstreamVeraSans-Roman-31"/>
       <use x="554.58984375" xlink:href="#BitstreamVeraSans-Roman-35"/>
      </g>
     </g>
    </g>
    <g id="xtick_5">
     <g id="line2d_11">
      <g>
       <use style="stroke:#000000;stroke-width:0.5;" x="338.564358857" xlink:href="#m93b0483c22" y="345.6"/>
      </g>
     </g>
     <g id="line2d_12">
      <g>
       <use style="stroke:#000000;stroke-width:0.5;" x="338.564358857" xlink:href="#m741efc42ff" y="43.2"/>
      </g>
     </g>
     <g id="text_5">
      <!-- Oct 25 2015 -->
      <g transform="translate(273.977072121 394.065590385)rotate(-30.0)scale(0.12 -0.12)">
       <use xlink:href="#BitstreamVeraSans-Roman-4f"/>
       <use x="78.7109375" xlink:href="#BitstreamVeraSans-Roman-63"/>
       <use x="133.69140625" xlink:href="#BitstreamVeraSans-Roman-74"/>
       <use x="172.900390625" xlink:href="#BitstreamVeraSans-Roman-20"/>
       <use x="204.6875" xlink:href="#BitstreamVeraSans-Roman-32"/>
       <use x="268.310546875" xlink:href="#BitstreamVeraSans-Roman-35"/>
       <use x="331.93359375" xlink:href="#BitstreamVeraSans-Roman-20"/>
       <use x="363.720703125" xlink:href="#BitstreamVeraSans-Roman-32"/>
       <use x="427.34375" xlink:href="#BitstreamVeraSans-Roman-30"/>
       <use x="490.966796875" xlink:href="#BitstreamVeraSans-Roman-31"/>
       <use x="554.58984375" xlink:href="#BitstreamVeraSans-Roman-35"/>
      </g>
     </g>
    </g>
    <g id="xtick_6">
     <g id="line2d_13">
      <g>
       <use style="stroke:#000000;stroke-width:0.5;" x="393.662873141" xlink:href="#m93b0483c22" y="345.6"/>
      </g>
     </g>
     <g id="line2d_14">
      <g>
       <use style="stroke:#000000;stroke-width:0.5;" x="393.662873141" xlink:href="#m741efc42ff" y="43.2"/>
      </g>
     </g>
     <g id="text_6">
      <!-- Oct 28 2015 -->
      <defs>
       <path d="
M31.7812 34.625
Q24.75 34.625 20.7188 30.8594
Q16.7031 27.0938 16.7031 20.5156
Q16.7031 13.9219 20.7188 10.1562
Q24.75 6.39062 31.7812 6.39062
Q38.8125 6.39062 42.8594 10.1719
Q46.9219 13.9688 46.9219 20.5156
Q46.9219 27.0938 42.8906 30.8594
Q38.875 34.625 31.7812 34.625
M21.9219 38.8125
Q15.5781 40.375 12.0312 44.7188
Q8.5 49.0781 8.5 55.3281
Q8.5 64.0625 14.7188 69.1406
Q20.9531 74.2188 31.7812 74.2188
Q42.6719 74.2188 48.875 69.1406
Q55.0781 64.0625 55.0781 55.3281
Q55.0781 49.0781 51.5312 44.7188
Q48 40.375 41.7031 38.8125
Q48.8281 37.1562 52.7969 32.3125
Q56.7812 27.4844 56.7812 20.5156
Q56.7812 9.90625 50.3125 4.23438
Q43.8438 -1.42188 31.7812 -1.42188
Q19.7344 -1.42188 13.25 4.23438
Q6.78125 9.90625 6.78125 20.5156
Q6.78125 27.4844 10.7812 32.3125
Q14.7969 37.1562 21.9219 38.8125
M18.3125 54.3906
Q18.3125 48.7344 21.8438 45.5625
Q25.3906 42.3906 31.7812 42.3906
Q38.1406 42.3906 41.7188 45.5625
Q45.3125 48.7344 45.3125 54.3906
Q45.3125 60.0625 41.7188 63.2344
Q38.1406 66.4062 31.7812 66.4062
Q25.3906 66.4062 21.8438 63.2344
Q18.3125 60.0625 18.3125 54.3906" id="BitstreamVeraSans-Roman-38"/>
      </defs>
      <g transform="translate(329.075586406 394.065590385)rotate(-30.0)scale(0.12 -0.12)">
       <use xlink:href="#BitstreamVeraSans-Roman-4f"/>
       <use x="78.7109375" xlink:href="#BitstreamVeraSans-Roman-63"/>
       <use x="133.69140625" xlink:href="#BitstreamVeraSans-Roman-74"/>
       <use x="172.900390625" xlink:href="#BitstreamVeraSans-Roman-20"/>
       <use x="204.6875" xlink:href="#BitstreamVeraSans-Roman-32"/>
       <use x="268.310546875" xlink:href="#BitstreamVeraSans-Roman-38"/>
       <use x="331.93359375" xlink:href="#BitstreamVeraSans-Roman-20"/>
       <use x="363.720703125" xlink:href="#BitstreamVeraSans-Roman-32"/>
       <use x="427.34375" xlink:href="#BitstreamVeraSans-Roman-30"/>
       <use x="490.966796875" xlink:href="#BitstreamVeraSans-Roman-31"/>
       <use x="554.58984375" xlink:href="#BitstreamVeraSans-Roman-35"/>
      </g>
     </g>
    </g>
    <g id="xtick_7">
     <g id="line2d_15">
      <g>
       <use style="stroke:#000000;stroke-width:0.5;" x="448.761387428" xlink:href="#m93b0483c22" y="345.6"/>
      </g>
     </g>
     <g id="line2d_16">
      <g>
       <use style="stroke:#000000;stroke-width:0.5;" x="448.761387428" xlink:href="#m741efc42ff" y="43.2"/>
      </g>
     </g>
     <g id="text_7">
      <!-- Oct 31 2015 -->
      <g transform="translate(384.174100693 394.065590385)rotate(-30.0)scale(0.12 -0.12)">
       <use xlink:href="#BitstreamVeraSans-Roman-4f"/>
       <use x="78.7109375" xlink:href="#BitstreamVeraSans-Roman-63"/>
       <use x="133.69140625" xlink:href="#BitstreamVeraSans-Roman-74"/>
       <use x="172.900390625" xlink:href="#BitstreamVeraSans-Roman-20"/>
       <use x="204.6875" xlink:href="#BitstreamVeraSans-Roman-33"/>
       <use x="268.310546875" xlink:href="#BitstreamVeraSans-Roman-31"/>
       <use x="331.93359375" xlink:href="#BitstreamVeraSans-Roman-20"/>
       <use x="363.720703125" xlink:href="#BitstreamVeraSans-Roman-32"/>
       <use x="427.34375" xlink:href="#BitstreamVeraSans-Roman-30"/>
       <use x="490.966796875" xlink:href="#BitstreamVeraSans-Roman-31"/>
       <use x="554.58984375" xlink:href="#BitstreamVeraSans-Roman-35"/>
      </g>
     </g>
    </g>
    <g id="xtick_8">
     <g id="line2d_17">
      <g>
       <use style="stroke:#000000;stroke-width:0.5;" x="503.859901713" xlink:href="#m93b0483c22" y="345.6"/>
      </g>
     </g>
     <g id="line2d_18">
      <g>
       <use style="stroke:#000000;stroke-width:0.5;" x="503.859901713" xlink:href="#m741efc42ff" y="43.2"/>
      </g>
     </g>
     <g id="text_8">
      <!-- Nov 03 2015 -->
      <defs>
       <path d="
M2.98438 54.6875
L12.5 54.6875
L29.5938 8.79688
L46.6875 54.6875
L56.2031 54.6875
L35.6875 0
L23.4844 0
z
" id="BitstreamVeraSans-Roman-76"/>
       <path d="
M9.8125 72.9062
L23.0938 72.9062
L55.4219 11.9219
L55.4219 72.9062
L64.9844 72.9062
L64.9844 0
L51.7031 0
L19.3906 60.9844
L19.3906 0
L9.8125 0
z
" id="BitstreamVeraSans-Roman-4e"/>
       <path d="
M30.6094 48.3906
Q23.3906 48.3906 19.1875 42.75
Q14.9844 37.1094 14.9844 27.2969
Q14.9844 17.4844 19.1562 11.8438
Q23.3438 6.20312 30.6094 6.20312
Q37.7969 6.20312 41.9844 11.8594
Q46.1875 17.5312 46.1875 27.2969
Q46.1875 37.0156 41.9844 42.7031
Q37.7969 48.3906 30.6094 48.3906
M30.6094 56
Q42.3281 56 49.0156 48.375
Q55.7188 40.7656 55.7188 27.2969
Q55.7188 13.875 49.0156 6.21875
Q42.3281 -1.42188 30.6094 -1.42188
Q18.8438 -1.42188 12.1719 6.21875
Q5.51562 13.875 5.51562 27.2969
Q5.51562 40.7656 12.1719 48.375
Q18.8438 56 30.6094 56" id="BitstreamVeraSans-Roman-6f"/>
      </defs>
      <g transform="translate(436.957079555 395.402465385)rotate(-30.0)scale(0.12 -0.12)">
       <use xlink:href="#BitstreamVeraSans-Roman-4e"/>
       <use x="74.8046875" xlink:href="#BitstreamVeraSans-Roman-6f"/>
       <use x="135.986328125" xlink:href="#BitstreamVeraSans-Roman-76"/>
       <use x="195.166015625" xlink:href="#BitstreamVeraSans-Roman-20"/>
       <use x="226.953125" xlink:href="#BitstreamVeraSans-Roman-30"/>
       <use x="290.576171875" xlink:href="#BitstreamVeraSans-Roman-33"/>
       <use x="354.19921875" xlink:href="#BitstreamVeraSans-Roman-20"/>
       <use x="385.986328125" xlink:href="#BitstreamVeraSans-Roman-32"/>
       <use x="449.609375" xlink:href="#BitstreamVeraSans-Roman-30"/>
       <use x="513.232421875" xlink:href="#BitstreamVeraSans-Roman-31"/>
       <use x="576.85546875" xlink:href="#BitstreamVeraSans-Roman-35"/>
      </g>
     </g>
    </g>
   </g>
   <g id="matplotlib.axis_2">
    <g id="ytick_1">
     <g id="line2d_19">
      <defs>
       <path d="
M0 0
L4 0" id="m728421d6d4" style="stroke:#000000;stroke-width:0.5;"/>
      </defs>
      <g>
       <use style="stroke:#000000;stroke-width:0.5;" x="72.0" xlink:href="#m728421d6d4" y="304.696488183"/>
      </g>
     </g>
     <g id="line2d_20">
      <defs>
       <path d="
M0 0
L-4 0" id="mcb0005524f" style="stroke:#000000;stroke-width:0.5;"/>
      </defs>
      <g>
       <use style="stroke:#000000;stroke-width:0.5;" x="518.4" xlink:href="#mcb0005524f" y="304.696488183"/>
      </g>
     </g>
     <g id="text_9">
      <!-- 0.2 -->
      <defs>
       <path d="
M10.6875 12.4062
L21 12.4062
L21 0
L10.6875 0
z
" id="BitstreamVeraSans-Roman-2e"/>
      </defs>
      <g transform="translate(50.909375 308.007738183)scale(0.12 -0.12)">
       <use xlink:href="#BitstreamVeraSans-Roman-30"/>
       <use x="63.623046875" xlink:href="#BitstreamVeraSans-Roman-2e"/>
       <use x="95.41015625" xlink:href="#BitstreamVeraSans-Roman-32"/>
      </g>
     </g>
    </g>
    <g id="ytick_2">
     <g id="line2d_21">
      <g>
       <use style="stroke:#000000;stroke-width:0.5;" x="72.0" xlink:href="#m728421d6d4" y="260.986635543"/>
      </g>
     </g>
     <g id="line2d_22">
      <g>
       <use style="stroke:#000000;stroke-width:0.5;" x="518.4" xlink:href="#mcb0005524f" y="260.986635543"/>
      </g>
     </g>
     <g id="text_10">
      <!-- 0.4 -->
      <defs>
       <path d="
M37.7969 64.3125
L12.8906 25.3906
L37.7969 25.3906
z

M35.2031 72.9062
L47.6094 72.9062
L47.6094 25.3906
L58.0156 25.3906
L58.0156 17.1875
L47.6094 17.1875
L47.6094 0
L37.7969 0
L37.7969 17.1875
L4.89062 17.1875
L4.89062 26.7031
z
" id="BitstreamVeraSans-Roman-34"/>
      </defs>
      <g transform="translate(50.380625 264.297885543)scale(0.12 -0.12)">
       <use xlink:href="#BitstreamVeraSans-Roman-30"/>
       <use x="63.623046875" xlink:href="#BitstreamVeraSans-Roman-2e"/>
       <use x="95.41015625" xlink:href="#BitstreamVeraSans-Roman-34"/>
      </g>
     </g>
    </g>
    <g id="ytick_3">
     <g id="line2d_23">
      <g>
       <use style="stroke:#000000;stroke-width:0.5;" x="72.0" xlink:href="#m728421d6d4" y="217.276782904"/>
      </g>
     </g>
     <g id="line2d_24">
      <g>
       <use style="stroke:#000000;stroke-width:0.5;" x="518.4" xlink:href="#mcb0005524f" y="217.276782904"/>
      </g>
     </g>
     <g id="text_11">
      <!-- 0.6 -->
      <g transform="translate(50.463125 220.588032904)scale(0.12 -0.12)">
       <use xlink:href="#BitstreamVeraSans-Roman-30"/>
       <use x="63.623046875" xlink:href="#BitstreamVeraSans-Roman-2e"/>
       <use x="95.41015625" xlink:href="#BitstreamVeraSans-Roman-36"/>
      </g>
     </g>
    </g>
    <g id="ytick_4">
     <g id="line2d_25">
      <g>
       <use style="stroke:#000000;stroke-width:0.5;" x="72.0" xlink:href="#m728421d6d4" y="173.566930264"/>
      </g>
     </g>
     <g id="line2d_26">
      <g>
       <use style="stroke:#000000;stroke-width:0.5;" x="518.4" xlink:href="#mcb0005524f" y="173.566930264"/>
      </g>
     </g>
     <g id="text_12">
      <!-- 0.8 -->
      <g transform="translate(50.52875 176.878180264)scale(0.12 -0.12)">
       <use xlink:href="#BitstreamVeraSans-Roman-30"/>
       <use x="63.623046875" xlink:href="#BitstreamVeraSans-Roman-2e"/>
       <use x="95.41015625" xlink:href="#BitstreamVeraSans-Roman-38"/>
      </g>
     </g>
    </g>
    <g id="ytick_5">
     <g id="line2d_27">
      <g>
       <use style="stroke:#000000;stroke-width:0.5;" x="72.0" xlink:href="#m728421d6d4" y="129.857077625"/>
      </g>
     </g>
     <g id="line2d_28">
      <g>
       <use style="stroke:#000000;stroke-width:0.5;" x="518.4" xlink:href="#mcb0005524f" y="129.857077625"/>
      </g>
     </g>
     <g id="text_13">
      <!-- 1.0 -->
      <g transform="translate(51.03125 133.168327625)scale(0.12 -0.12)">
       <use xlink:href="#BitstreamVeraSans-Roman-31"/>
       <use x="63.623046875" xlink:href="#BitstreamVeraSans-Roman-2e"/>
       <use x="95.41015625" xlink:href="#BitstreamVeraSans-Roman-30"/>
      </g>
     </g>
    </g>
    <g id="ytick_6">
     <g id="line2d_29">
      <g>
       <use style="stroke:#000000;stroke-width:0.5;" x="72.0" xlink:href="#m728421d6d4" y="86.1472249855"/>
      </g>
     </g>
     <g id="line2d_30">
      <g>
       <use style="stroke:#000000;stroke-width:0.5;" x="518.4" xlink:href="#mcb0005524f" y="86.1472249855"/>
      </g>
     </g>
     <g id="text_14">
      <!-- 1.2 -->
      <g transform="translate(51.43625 89.4584749855)scale(0.12 -0.12)">
       <use xlink:href="#BitstreamVeraSans-Roman-31"/>
       <use x="63.623046875" xlink:href="#BitstreamVeraSans-Roman-2e"/>
       <use x="95.41015625" xlink:href="#BitstreamVeraSans-Roman-32"/>
      </g>
     </g>
    </g>
    <g id="text_15">
     <!-- 1e7 -->
     <defs>
      <path d="
M56.2031 29.5938
L56.2031 25.2031
L14.8906 25.2031
Q15.4844 15.9219 20.4844 11.0625
Q25.4844 6.20312 34.4219 6.20312
Q39.5938 6.20312 44.4531 7.46875
Q49.3125 8.73438 54.1094 11.2812
L54.1094 2.78125
Q49.2656 0.734375 44.1875 -0.34375
Q39.1094 -1.42188 33.8906 -1.42188
Q20.7969 -1.42188 13.1562 6.1875
Q5.51562 13.8125 5.51562 26.8125
Q5.51562 40.2344 12.7656 48.1094
Q20.0156 56 32.3281 56
Q43.3594 56 49.7812 48.8906
Q56.2031 41.7969 56.2031 29.5938
M47.2188 32.2344
Q47.125 39.5938 43.0938 43.9844
Q39.0625 48.3906 32.4219 48.3906
Q24.9062 48.3906 20.3906 44.1406
Q15.875 39.8906 15.1875 32.1719
z
" id="BitstreamVeraSans-Roman-65"/>
      <path d="
M8.20312 72.9062
L55.0781 72.9062
L55.0781 68.7031
L28.6094 0
L18.3125 0
L43.2188 64.5938
L8.20312 64.5938
z
" id="BitstreamVeraSans-Roman-37"/>
     </defs>
     <g transform="translate(72.0 40.2)scale(0.12 -0.12)">
      <use xlink:href="#BitstreamVeraSans-Roman-31"/>
      <use x="63.623046875" xlink:href="#BitstreamVeraSans-Roman-65"/>
      <use x="125.146484375" xlink:href="#BitstreamVeraSans-Roman-37"/>
     </g>
    </g>
   </g>
   <g id="text_16">
    <!-- Wachpersonal -->
    <defs>
     <path d="
M54.8906 33.0156
L54.8906 0
L45.9062 0
L45.9062 32.7188
Q45.9062 40.4844 42.875 44.3281
Q39.8438 48.1875 33.7969 48.1875
Q26.5156 48.1875 22.3125 43.5469
Q18.1094 38.9219 18.1094 30.9062
L18.1094 0
L9.07812 0
L9.07812 54.6875
L18.1094 54.6875
L18.1094 46.1875
Q21.3438 51.125 25.7031 53.5625
Q30.0781 56 35.7969 56
Q45.2188 56 50.0469 50.1719
Q54.8906 44.3438 54.8906 33.0156" id="BitstreamVeraSans-Roman-6e"/>
     <path d="
M34.2812 27.4844
Q23.3906 27.4844 19.1875 25
Q14.9844 22.5156 14.9844 16.5
Q14.9844 11.7188 18.1406 8.90625
Q21.2969 6.10938 26.7031 6.10938
Q34.1875 6.10938 38.7031 11.4062
Q43.2188 16.7031 43.2188 25.4844
L43.2188 27.4844
z

M52.2031 31.2031
L52.2031 0
L43.2188 0
L43.2188 8.29688
Q40.1406 3.32812 35.5469 0.953125
Q30.9531 -1.42188 24.3125 -1.42188
Q15.9219 -1.42188 10.9531 3.29688
Q6 8.01562 6 15.9219
Q6 25.1406 12.1719 29.8281
Q18.3594 34.5156 30.6094 34.5156
L43.2188 34.5156
L43.2188 35.4062
Q43.2188 41.6094 39.1406 45
Q35.0625 48.3906 27.6875 48.3906
Q23 48.3906 18.5469 47.2656
Q14.1094 46.1406 10.0156 43.8906
L10.0156 52.2031
Q14.9375 54.1094 19.5781 55.0469
Q24.2188 56 28.6094 56
Q40.4844 56 46.3438 49.8438
Q52.2031 43.7031 52.2031 31.2031" id="BitstreamVeraSans-Roman-61"/>
     <path d="
M9.42188 75.9844
L18.4062 75.9844
L18.4062 0
L9.42188 0
z
" id="BitstreamVeraSans-Roman-6c"/>
     <path d="
M54.8906 33.0156
L54.8906 0
L45.9062 0
L45.9062 32.7188
Q45.9062 40.4844 42.875 44.3281
Q39.8438 48.1875 33.7969 48.1875
Q26.5156 48.1875 22.3125 43.5469
Q18.1094 38.9219 18.1094 30.9062
L18.1094 0
L9.07812 0
L9.07812 75.9844
L18.1094 75.9844
L18.1094 46.1875
Q21.3438 51.125 25.7031 53.5625
Q30.0781 56 35.7969 56
Q45.2188 56 50.0469 50.1719
Q54.8906 44.3438 54.8906 33.0156" id="BitstreamVeraSans-Roman-68"/>
     <path d="
M3.32812 72.9062
L13.2812 72.9062
L28.6094 11.2812
L43.8906 72.9062
L54.9844 72.9062
L70.3125 11.2812
L85.5938 72.9062
L95.6094 72.9062
L77.2969 0
L64.8906 0
L49.5156 63.2812
L33.9844 0
L21.5781 0
z
" id="BitstreamVeraSans-Roman-57"/>
     <path d="
M41.1094 46.2969
Q39.5938 47.1719 37.8125 47.5781
Q36.0312 48 33.8906 48
Q26.2656 48 22.1875 43.0469
Q18.1094 38.0938 18.1094 28.8125
L18.1094 0
L9.07812 0
L9.07812 54.6875
L18.1094 54.6875
L18.1094 46.1875
Q20.9531 51.1719 25.4844 53.5781
Q30.0312 56 36.5312 56
Q37.4531 56 38.5781 55.875
Q39.7031 55.7656 41.0625 55.5156
z
" id="BitstreamVeraSans-Roman-72"/>
     <path d="
M44.2812 53.0781
L44.2812 44.5781
Q40.4844 46.5312 36.375 47.5
Q32.2812 48.4844 27.875 48.4844
Q21.1875 48.4844 17.8438 46.4375
Q14.5 44.3906 14.5 40.2812
Q14.5 37.1562 16.8906 35.375
Q19.2812 33.5938 26.5156 31.9844
L29.5938 31.2969
Q39.1562 29.25 43.1875 25.5156
Q47.2188 21.7812 47.2188 15.0938
Q47.2188 7.46875 41.1875 3.01562
Q35.1562 -1.42188 24.6094 -1.42188
Q20.2188 -1.42188 15.4531 -0.5625
Q10.6875 0.296875 5.42188 2
L5.42188 11.2812
Q10.4062 8.6875 15.2344 7.39062
Q20.0625 6.10938 24.8125 6.10938
Q31.1562 6.10938 34.5625 8.28125
Q37.9844 10.4531 37.9844 14.4062
Q37.9844 18.0625 35.5156 20.0156
Q33.0625 21.9688 24.7031 23.7812
L21.5781 24.5156
Q13.2344 26.2656 9.51562 29.9062
Q5.8125 33.5469 5.8125 39.8906
Q5.8125 47.6094 11.2812 51.7969
Q16.75 56 26.8125 56
Q31.7812 56 36.1719 55.2656
Q40.5781 54.5469 44.2812 53.0781" id="BitstreamVeraSans-Roman-73"/>
     <path d="
M18.1094 8.20312
L18.1094 -20.7969
L9.07812 -20.7969
L9.07812 54.6875
L18.1094 54.6875
L18.1094 46.3906
Q20.9531 51.2656 25.2656 53.625
Q29.5938 56 35.5938 56
Q45.5625 56 51.7812 48.0938
Q58.0156 40.1875 58.0156 27.2969
Q58.0156 14.4062 51.7812 6.48438
Q45.5625 -1.42188 35.5938 -1.42188
Q29.5938 -1.42188 25.2656 0.953125
Q20.9531 3.32812 18.1094 8.20312
M48.6875 27.2969
Q48.6875 37.2031 44.6094 42.8438
Q40.5312 48.4844 33.4062 48.4844
Q26.2656 48.4844 22.1875 42.8438
Q18.1094 37.2031 18.1094 27.2969
Q18.1094 17.3906 22.1875 11.75
Q26.2656 6.10938 33.4062 6.10938
Q40.5312 6.10938 44.6094 11.75
Q48.6875 17.3906 48.6875 27.2969" id="BitstreamVeraSans-Roman-70"/>
    </defs>
    <g transform="translate(418.8555 38.2)scale(0.144 -0.144)">
     <use xlink:href="#BitstreamVeraSans-Roman-57"/>
     <use x="92.501953125" xlink:href="#BitstreamVeraSans-Roman-61"/>
     <use x="153.78125" xlink:href="#BitstreamVeraSans-Roman-63"/>
     <use x="208.76171875" xlink:href="#BitstreamVeraSans-Roman-68"/>
     <use x="272.140625" xlink:href="#BitstreamVeraSans-Roman-70"/>
     <use x="335.6171875" xlink:href="#BitstreamVeraSans-Roman-65"/>
     <use x="397.140625" xlink:href="#BitstreamVeraSans-Roman-72"/>
     <use x="438.25390625" xlink:href="#BitstreamVeraSans-Roman-73"/>
     <use x="490.353515625" xlink:href="#BitstreamVeraSans-Roman-6f"/>
     <use x="551.53515625" xlink:href="#BitstreamVeraSans-Roman-6e"/>
     <use x="614.9140625" xlink:href="#BitstreamVeraSans-Roman-61"/>
     <use x="676.193359375" xlink:href="#BitstreamVeraSans-Roman-6c"/>
    </g>
   </g>
   <g id="legend_1">
    <g id="patch_7">
     <path d="
M123.942 423.616
L466.458 423.616
L466.458 398.16
L123.942 398.16
z
" style="fill:#ffffff;stroke:#000000;stroke-linejoin:miter;"/>
    </g>
    <g id="line2d_31">
     <path d="
M134.022 409.822
L154.182 409.822" style="fill:none;stroke:#ff0000;stroke-linecap:square;"/>
    </g>
    <g id="line2d_32"/>
    <g id="text_17">
     <!-- Schwarzmarktpreis -->
     <defs>
      <path d="
M52 44.1875
Q55.375 50.25 60.0625 53.125
Q64.75 56 71.0938 56
Q79.6406 56 84.2812 50.0156
Q88.9219 44.0469 88.9219 33.0156
L88.9219 0
L79.8906 0
L79.8906 32.7188
Q79.8906 40.5781 77.0938 44.375
Q74.3125 48.1875 68.6094 48.1875
Q61.625 48.1875 57.5625 43.5469
Q53.5156 38.9219 53.5156 30.9062
L53.5156 0
L44.4844 0
L44.4844 32.7188
Q44.4844 40.625 41.7031 44.4062
Q38.9219 48.1875 33.1094 48.1875
Q26.2188 48.1875 22.1562 43.5312
Q18.1094 38.875 18.1094 30.9062
L18.1094 0
L9.07812 0
L9.07812 54.6875
L18.1094 54.6875
L18.1094 46.1875
Q21.1875 51.2188 25.4844 53.6094
Q29.7812 56 35.6875 56
Q41.6562 56 45.8281 52.9688
Q50 49.9531 52 44.1875" id="BitstreamVeraSans-Roman-6d"/>
      <path d="
M9.07812 75.9844
L18.1094 75.9844
L18.1094 31.1094
L44.9219 54.6875
L56.3906 54.6875
L27.3906 29.1094
L57.625 0
L45.9062 0
L18.1094 26.7031
L18.1094 0
L9.07812 0
z
" id="BitstreamVeraSans-Roman-6b"/>
      <path d="
M53.5156 70.5156
L53.5156 60.8906
Q47.9062 63.5781 42.9219 64.8906
Q37.9375 66.2188 33.2969 66.2188
Q25.25 66.2188 20.875 63.0938
Q16.5 59.9688 16.5 54.2031
Q16.5 49.3594 19.4062 46.8906
Q22.3125 44.4375 30.4219 42.9219
L36.375 41.7031
Q47.4062 39.5938 52.6562 34.2969
Q57.9062 29 57.9062 20.125
Q57.9062 9.51562 50.7969 4.04688
Q43.7031 -1.42188 29.9844 -1.42188
Q24.8125 -1.42188 18.9688 -0.25
Q13.1406 0.921875 6.89062 3.21875
L6.89062 13.375
Q12.8906 10.0156 18.6562 8.29688
Q24.4219 6.59375 29.9844 6.59375
Q38.4219 6.59375 43.0156 9.90625
Q47.6094 13.2344 47.6094 19.3906
Q47.6094 24.75 44.3125 27.7812
Q41.0156 30.8125 33.5 32.3281
L27.4844 33.5
Q16.4531 35.6875 11.5156 40.375
Q6.59375 45.0625 6.59375 53.4219
Q6.59375 63.0938 13.4062 68.6562
Q20.2188 74.2188 32.1719 74.2188
Q37.3125 74.2188 42.625 73.2812
Q47.9531 72.3594 53.5156 70.5156" id="BitstreamVeraSans-Roman-53"/>
      <path d="
M9.42188 54.6875
L18.4062 54.6875
L18.4062 0
L9.42188 0
z

M9.42188 75.9844
L18.4062 75.9844
L18.4062 64.5938
L9.42188 64.5938
z
" id="BitstreamVeraSans-Roman-69"/>
      <path d="
M4.20312 54.6875
L13.1875 54.6875
L24.4219 12.0156
L35.5938 54.6875
L46.1875 54.6875
L57.4219 12.0156
L68.6094 54.6875
L77.5938 54.6875
L63.2812 0
L52.6875 0
L40.9219 44.8281
L29.1094 0
L18.5 0
z
" id="BitstreamVeraSans-Roman-77"/>
      <path d="
M5.51562 54.6875
L48.1875 54.6875
L48.1875 46.4844
L14.4062 7.17188
L48.1875 7.17188
L48.1875 0
L4.29688 0
L4.29688 8.20312
L38.0938 47.5156
L5.51562 47.5156
z
" id="BitstreamVeraSans-Roman-7a"/>
     </defs>
     <g transform="translate(170.022375 414.86175)scale(0.144 -0.144)">
      <use xlink:href="#BitstreamVeraSans-Roman-53"/>
      <use x="63.4765625" xlink:href="#BitstreamVeraSans-Roman-63"/>
      <use x="118.45703125" xlink:href="#BitstreamVeraSans-Roman-68"/>
      <use x="181.8359375" xlink:href="#BitstreamVeraSans-Roman-77"/>
      <use x="263.623046875" xlink:href="#BitstreamVeraSans-Roman-61"/>
      <use x="324.90234375" xlink:href="#BitstreamVeraSans-Roman-72"/>
      <use x="366.015625" xlink:href="#BitstreamVeraSans-Roman-7a"/>
      <use x="418.505859375" xlink:href="#BitstreamVeraSans-Roman-6d"/>
      <use x="515.91796875" xlink:href="#BitstreamVeraSans-Roman-61"/>
      <use x="577.197265625" xlink:href="#BitstreamVeraSans-Roman-72"/>
      <use x="618.310546875" xlink:href="#BitstreamVeraSans-Roman-6b"/>
      <use x="676.220703125" xlink:href="#BitstreamVeraSans-Roman-74"/>
      <use x="715.4296875" xlink:href="#BitstreamVeraSans-Roman-70"/>
      <use x="778.90625" xlink:href="#BitstreamVeraSans-Roman-72"/>
      <use x="817.76953125" xlink:href="#BitstreamVeraSans-Roman-65"/>
      <use x="879.29296875" xlink:href="#BitstreamVeraSans-Roman-69"/>
      <use x="907.076171875" xlink:href="#BitstreamVeraSans-Roman-73"/>
     </g>
    </g>
    <g id="line2d_33">
     <path d="
M339.609 409.822
L359.769 409.822" style="fill:none;stroke:#008000;stroke-linecap:square;"/>
    </g>
    <g id="line2d_34"/>
    <g id="text_18">
     <!-- Normalpreis -->
     <g transform="translate(375.609375 414.86175)scale(0.144 -0.144)">
      <use xlink:href="#BitstreamVeraSans-Roman-4e"/>
      <use x="74.8046875" xlink:href="#BitstreamVeraSans-Roman-6f"/>
      <use x="135.986328125" xlink:href="#BitstreamVeraSans-Roman-72"/>
      <use x="175.349609375" xlink:href="#BitstreamVeraSans-Roman-6d"/>
      <use x="272.76171875" xlink:href="#BitstreamVeraSans-Roman-61"/>
      <use x="334.041015625" xlink:href="#BitstreamVeraSans-Roman-6c"/>
      <use x="361.82421875" xlink:href="#BitstreamVeraSans-Roman-70"/>
      <use x="425.30078125" xlink:href="#BitstreamVeraSans-Roman-72"/>
      <use x="464.1640625" xlink:href="#BitstreamVeraSans-Roman-65"/>
      <use x="525.6875" xlink:href="#BitstreamVeraSans-Roman-69"/>
      <use x="553.470703125" xlink:href="#BitstreamVeraSans-Roman-73"/>
     </g>
    </g>
   </g>
  </g>
 </g>
 <defs>
  <clipPath id="pcb2bf987bf">
   <rect height="302.4" width="446.4" x="72.0" y="43.2"/>
  </clipPath>
 </defs>
</svg>
