<?xml version="1.0" encoding="utf-8" standalone="no"?>
<!DOCTYPE svg PUBLIC "-//W3C//DTD SVG 1.1//EN"
  "http://www.w3.org/Graphics/SVG/1.1/DTD/svg11.dtd">
<!-- Created with matplotlib (http://matplotlib.org/) -->
<svg height="432pt" version="1.1" viewBox="0 0 576 432" width="576pt" xmlns="http://www.w3.org/2000/svg" xmlns:xlink="http://www.w3.org/1999/xlink">
 <defs>
  <style type="text/css">
*{stroke-linecap:butt;stroke-linejoin:round;}
  </style>
 </defs>
 <g id="figure_1">
  <g id="patch_1">
   <path d="
M0 432
L576 432
L576 0
L0 0
z
" style="fill:#ffffff;"/>
  </g>
  <g id="axes_1">
   <g id="patch_2">
    <path d="
M72 345.6
L518.4 345.6
L518.4 43.2
L72 43.2
z
" style="fill:#ffffff;"/>
   </g>
   <g id="line2d_1">
    <path clip-path="url(#pcb2bf987bf)" d="
M72 245.793
L72.2551 246.341
L72.3826 246.341
L72.6377 245.794
L72.7653 247.517
L74.5509 247.478
L74.6784 246.935
L75.061 246.935
L75.3161 247.478
L76.464 247.478
L76.5915 246.935
L76.8466 246.39
L76.9742 237.67
L77.2295 246.39
L77.9947 246.39
L78.1221 245.842
L78.3771 246.39
L78.3771 246.39
L79.1426 246.39
L79.2699 237.956
L79.525 246.39
L80.0352 246.39
L80.2903 247.468
L81.9483 247.507
L82.331 245.873
L82.5863 246.42
L82.7136 246.42
L82.9687 247.507
L83.0962 247.507
L83.3513 246.965
L83.4789 246.42
L84.882 246.42
L85.2647 247.507
L85.6473 247.507
L85.7746 246.965
L86.0297 247.507
L86.1573 246.965
L86.4123 247.507
L86.5399 246.965
L86.795 247.507
L87.1776 247.507
L87.3051 246.965
L87.5602 247.507
L89.2183 247.477
L89.4734 246.876
L89.6009 246.876
L89.856 247.419
L89.9835 246.837
L90.2386 247.419
L90.2386 247.419
L90.4937 247.419
L90.6213 245.89
L91.259 246.876
L92.1518 247.419
L94.32 247.33
L94.4475 245.936
L95.0853 217.955
L95.2128 245.936
L95.8505 245.936
L95.9781 244.833
L96.6158 245.936
L97.381 245.936
L98.1463 246.787
L98.2738 247.33
L98.9115 247.034
L99.0391 246.49
L99.6768 246.487
L100.57 245.94
L101.207 244.837
L101.973 245.94
L102.1 245.39
L102.738 245.282
L103.631 245.833
L105.034 245.901
L107.33 245.901
L108.095 247.33
L108.86 247.33
L109.753 247.527
L110.518 247.478
L111.283 246.886
L111.921 245.697
L112.048 246.246
L114.217 246.886
L115.109 246.788
L116.64 247.468
L117.278 237.67
L118.043 247.468
L121.869 247.468
L122.762 246.38
L125.696 246.289
L127.354 246.246
L127.354 246.246
L127.864 246.289
L127.864 246.289
L127.991 245.556
L128.884 246.289
L131.052 246.289
L131.818 245.741
L132.583 247.527
L132.583 247.527
L134.113 246.886
L134.369 247.429
L134.879 246.886
L136.409 246.836
L136.537 247.379
L139.47 247.33
L139.598 246.787
L140.235 247.34
L141.766 247.348
L141.893 245.994
L142.531 245.711
L143.296 247.348
L145.72 247.231
L151.077 247.182
L151.714 246.49
L152.48 247.034
L153.245 247.012
L153.372 245.92
L154.01 246.46
L154.775 245.912
L155.541 246.467
L155.541 246.467
L156.306 246.465
L157.071 247.01
L157.837 245.917
L157.964 246.465
L158.602 246.995
L160.132 247.005
L161.025 246.467
L162.428 247.012
L163.321 245.915
L164.086 247.005
L166.254 246.985
L167.019 246.44
L167.785 244.789
L167.912 246.985
L169.315 246.936
L170.08 243.646
L170.973 244.205
L172.376 244.205
L173.141 246.344
L174.8 246.369
L176.203 245.812
L177.095 246.369
L178.498 246.369
L179.264 245.196
L180.029 246.295
L180.156 245.747
L180.922 246.268
L186.151 246.269
L186.916 246.936
L187.681 245.292
L188.447 246.936
L189.339 246.936
L190.742 246.384
L191.508 245.842
L191.508 245.842
L193.038 246.915
L193.803 246.915
L194.569 246.37
L195.461 246.915
L196.099 246.37
L196.864 246.915
L198.395 246.915
L198.395 246.915
L199.16 232.741
L200.691 246.914
L206.175 246.915
L206.303 246.369
L206.685 246.914
L206.813 246.317
L206.813 246.317
L206.94 246.317
L207.578 246.862
L210.001 246.862
L210.767 246.315
L211.022 246.861
L211.532 245.767
L211.659 246.861
L211.915 246.315
L212.042 245.767
L212.297 246.315
L212.425 246.315
L212.68 246.861
L213.062 246.861
L213.445 245.767
L213.573 245.767
L213.828 246.861
L213.828 246.861
L214.21 246.861
L214.338 246.315
L214.593 245.767
L214.72 246.861
L214.976 246.315
L215.103 246.315
L215.486 246.914
L216.123 246.914
L216.123 246.914
L216.251 246.369
L216.506 246.914
L216.634 246.914
L216.761 246.369
L216.761 246.369
L217.016 246.914
L218.547 246.915
L218.802 246.292
L218.929 246.837
L219.184 246.739
L219.312 245.644
L219.567 246.739
L220.077 246.837
L220.332 245.192
L220.46 246.837
L220.46 246.837
L220.843 246.735
L220.843 246.735
L221.098 246.189
L221.225 246.735
L221.608 246.837
L221.863 246.182
L222.373 246.837
L223.904 246.837
L224.159 246.189
L224.286 246.837
L225.307 246.935
L225.434 245.641
L225.817 246.935
L225.817 246.935
L226.199 246.935
L226.199 246.935
L226.327 246.735
L226.327 246.735
L226.582 246.935
L226.582 246.935
L226.837 246.836
L226.965 246.935
L227.22 246.836
L227.347 247.379
L228.112 247.379
L228.368 246.836
L228.495 247.369
L228.878 247.379
L229.133 246.836
L229.515 246.836
L229.643 247.379
L230.026 247.379
L230.281 246.836
L231.046 246.833
L231.173 246.291
L231.429 246.836
L231.429 246.836
L231.556 246.836
L231.811 245.921
L231.939 246.468
L232.194 245.921
L232.576 245.921
L232.704 225.535
L232.959 247.369
L232.959 247.369
L233.087 246.826
L233.342 246.826
L233.469 247.368
L234.49 247.359
L234.49 247.359
L234.617 246.816
L234.872 246.816
L235 247.359
L236.403 247.359
L236.53 245.851
L236.785 247.359
L236.913 247.359
L237.168 246.815
L237.296 247.358
L237.933 247.358
L238.061 246.269
L238.316 247.358
L238.699 247.357
L238.826 246.268
L239.081 247.357
L240.357 247.307
L240.612 247.053
L240.612 247.053
L240.739 245.89
L240.994 245.34
L241.377 247.034
L241.76 247.027
L242.142 245.937
L242.27 246.484
L242.907 246.439
L243.418 245.639
L243.8 245.976
L244.438 245.91
L244.821 245.919
L244.948 244.816
L245.713 246.484
L245.968 245.936
L246.096 245.386
L246.351 245.936
L246.479 245.936
L246.734 58.0933
L246.734 58.0933
L246.861 245.936
L247.499 245.936
L247.882 246.484
L248.009 245.936
L248.392 245.936
L248.647 246.344
L248.774 245.796
L249.412 245.796
L249.795 246.344
L249.795 246.344
L250.177 246.292
L251.07 246.292
L251.325 245.796
L251.453 245.796
L251.708 246.344
L252.091 246.295
L252.218 245.747
L252.473 246.295
L252.983 246.295
L253.366 245.556
L253.621 246.246
L254.896 246.181
L254.896 246.181
L255.152 245.632
L255.279 246.181
L255.279 246.181
L258.723 246.121
L258.85 245.572
L259.105 245.555
L259.36 246.065
L259.36 246.065
L259.488 246.064
L259.743 245.515
L259.743 245.515
L259.871 245.515
L260.126 246.065
L260.253 242.755
L260.636 246.121
L261.274 246.177
L261.401 245.044
L261.656 246.145
L261.784 246.043
L262.549 245.95
L262.804 244.342
L262.932 246.043
L263.187 246.043
L263.314 245.589
L263.569 245.532
L263.569 245.532
L263.697 246.179
L264.335 246.181
L264.335 246.181
L264.462 245.632
L264.717 246.181
L265.227 246.181
L265.61 246.541
L266.375 246.541
L266.63 245.994
L266.758 246.541
L267.141 246.541
L267.396 245.343
L267.778 246.541
L268.671 246.541
L268.926 236.137
L269.054 246.541
L269.309 246.487
L269.437 245.94
L269.691 246.487
L270.839 246.541
L270.967 245.994
L271.222 246.541
L271.605 246.541
L271.987 245.994
L272.115 246.541
L272.752 246.541
L272.88 245.994
L273.135 246.54
L274.666 246.541
L274.793 245.994
L275.048 246.541
L275.048 246.541
L275.431 246.541
L275.813 245.994
L275.941 246.541
L276.324 246.541
L276.579 245.994
L276.706 246.541
L276.961 245.986
L277.089 246.541
L277.854 246.541
L278.109 245.994
L278.109 245.994
L278.237 246.541
L278.619 246.541
L278.875 245.994
L279.002 246.541
L279.257 245.444
L279.385 246.541
L279.64 245.994
L279.767 246.526
L280.022 245.938
L280.15 246.432
L280.915 246.455
L283.976 246.486
L284.231 245.388
L284.359 246.486
L284.614 246.486
L284.741 206.508
L284.869 246.486
L285.762 246.478
L285.889 245.931
L286.527 245.931
L286.655 245.381
L286.91 245.931
L287.292 245.931
L287.42 246.478
L287.675 246.432
L287.803 245.884
L288.058 246.478
L288.185 246.478
L288.44 245.931
L288.568 246.478
L290.864 246.478
L290.991 245.931
L291.119 245.931
L291.246 246.478
L292.267 246.478
L292.394 245.931
L292.649 246.478
L292.649 246.478
L293.414 246.541
L293.414 246.541
L293.542 245.437
L293.797 246.541
L293.797 246.541
L293.925 246.541
L294.18 247.527
L294.18 247.527
L294.69 247.527
L294.945 249.952
L294.945 249.952
L295.072 249.952
L295.328 251.224
L295.455 251.224
L296.093 247.879
L296.475 247.879
L296.603 247.338
L296.858 246.795
L296.986 247.338
L297.368 247.338
L297.623 248.411
L297.751 248.11
L298.006 246.484
L298.133 247.029
L299.281 246.936
L299.919 246.936
L300.047 246.391
L300.302 246.936
L300.302 246.936
L300.429 246.936
L300.684 252.456
L300.812 251.372
L301.195 249.992
L301.45 249.992
L301.577 249.499
L302.342 249.499
L302.597 248.966
L302.597 248.966
L303.108 249.499
L303.235 248.964
L303.49 249.006
L303.745 248.471
L303.873 247.393
L304.128 249.006
L304.128 249.006
L305.786 249.006
L306.041 248.327
L306.169 247.248
L306.424 248.862
L306.934 248.862
L307.189 248.326
L307.189 248.326
L307.317 248.513
L308.464 248.513
L308.847 247.525
L309.23 247.525
L309.485 246.438
L309.612 247.525
L310.25 247.525
L310.25 247.525
L310.378 246.983
L310.633 247.525
L311.908 247.524
L312.163 246.432
L312.291 247.524
L314.204 247.521
L314.459 246.434
L314.587 246.979
L314.842 247.521
L315.989 247.522
L316.372 246.98
L316.5 247.522
L316.882 247.525
L317.137 250.386
L317.265 249.858
L317.52 249.857
L317.648 249.325
L318.03 249.323
L318.285 247.959
L318.413 249.323
L318.668 248.79
L318.668 248.79
L318.795 249.323
L319.433 249.323
L319.433 249.323
L319.561 250.386
L319.943 249.992
L320.326 249.984
L320.709 250.386
L324.79 250.386
L324.917 249.842
L325.3 249.842
L325.555 248.779
L325.683 248.779
L325.938 249.312
L326.066 248.779
L326.32 250.386
L327.596 250.386
L327.851 247.429
L327.979 250.386
L337.544 250.386
L337.799 253.479
L337.927 253.479
L338.182 251.414
L338.309 251.934
L338.565 251.934
L338.692 251.414
L338.947 251.934
L339.712 251.934
L339.84 251.414
L339.968 251.414
L340.223 250.366
L340.478 250.366
L340.605 251.934
L341.753 251.934
L342.008 252.967
L342.136 252.967
L342.391 253.479
L342.518 253.479
L342.773 252.967
L343.284 252.967
L343.539 252.452
L343.666 253.989
L343.921 254.496
L343.921 254.496
L344.049 253.989
L344.304 253.479
L344.432 254.496
L344.687 253.972
L344.814 253.989
L345.069 254.496
L345.452 254.496
L345.452 254.496
L345.579 253.989
L345.835 254.496
L345.962 254.496
L346.217 253.479
L346.345 252.456
L346.6 251.908
L347.875 251.908
L348.13 251.388
L348.64 251.388
L348.896 250.834
L349.278 250.834
L349.406 250.308
L349.788 250.308
L350.043 250.176
L350.171 250.79
L350.426 250.834
L350.554 250.308
L350.809 250.834
L350.936 252.374
L351.191 252.374
L351.319 251.335
L351.957 251.335
L352.084 250.977
L352.339 250.812
L352.467 252.967
L352.722 242.592
L352.849 252.964
L353.104 252.964
L353.232 251.932
L353.487 252.449
L353.615 252.964
L355.018 252.967
L355.145 252.452
L355.4 254.427
L355.4 254.427
L355.528 254.181
L356.676 254.161
L356.931 253.651
L357.058 253.651
L357.313 254.169
L357.568 254.176
L357.824 250.709
L358.079 250.183
L358.206 250.183
L358.461 254.176
L358.461 254.176
L358.971 254.176
L359.227 253.667
L359.354 254.169
L359.609 253.66
L359.737 253.149
L359.992 253.66
L360.119 253.66
L360.374 253.149
L360.502 252.635
L360.757 254.176
L360.885 253.667
L361.14 254.132
L361.267 253.442
L363.18 253.442
L363.435 252.929
L363.563 252.929
L363.818 253.604
L364.583 253.623
L364.711 253.111
L365.093 253.442
L365.349 253.619
L365.476 253.111
L365.731 254.427
L366.496 254.425
L366.624 253.918
L366.879 254.425
L367.007 254.425
L367.262 253.918
L367.389 254.425
L367.644 253.918
L368.027 253.91
L368.155 254.418
L369.557 254.426
L369.685 253.918
L370.068 253.915
L370.323 253.405
L370.45 253.915
L370.705 254.426
L371.088 254.423
L371.216 253.915
L371.471 254.423
L371.981 254.378
L372.363 252.746
L372.619 252.746
L372.746 253.77
L373.129 253.77
L373.384 253.635
L373.511 253.752
L373.894 253.752
L374.149 253.241
L374.277 253.752
L375.042 253.752
L375.297 252.211
L375.424 252.727
L375.68 252.727
L375.807 253.241
L376.19 253.241
L376.445 252.727
L376.572 253.241
L376.827 253.752
L378.741 253.752
L378.868 253.241
L379.123 253.752
L379.888 253.752
L380.016 253.241
L380.271 253.752
L380.654 254.127
L380.781 253.618
L381.036 254.368
L381.164 253.86
L381.419 253.35
L381.547 253.349
L381.929 253.23
L382.312 253.343
L382.694 253.144
L382.949 253.144
L383.077 252.63
L383.332 253.144
L383.46 253.144
L383.715 253.35
L384.225 253.35
L384.48 252.456
L384.608 253.35
L384.863 254.207
L385.373 254.378
L386.011 254.378
L386.138 253.87
L386.521 253.855
L386.776 254.349
L389.072 254.346
L389.454 254.426
L389.582 253.918
L389.837 254.426
L389.964 253.918
L390.219 257.385
L390.347 257.385
L390.602 265.454
L391.112 259.796
L391.367 258.832
L391.495 257.385
L392.643 257.365
L392.898 256.376
L393.025 257.365
L393.663 257.365
L393.791 256.872
L394.046 256.872
L394.173 256.376
L394.173 256.376
L394.939 256.376
L395.194 255.878
L395.321 255.878
L395.576 256.376
L395.704 257.365
L396.086 257.286
L396.341 256.792
L396.469 257.286
L396.724 256.296
L397.234 256.285
L397.489 255.25
L397.617 256.25
L397.872 256.25
L398 255.751
L398.255 255.25
L398.637 255.25
L398.765 254.747
L399.147 254.227
L400.295 254.227
L400.55 233.394
L400.678 204.94
L401.061 254.723
L401.443 254.723
L401.826 254.427
L402.081 254.427
L402.208 253.92
L402.464 254.427
L402.846 254.409
L402.974 253.901
L403.229 253.9
L403.356 254.408
L403.611 254.408
L403.994 252.789
L404.122 252.789
L404.377 253.302
L405.525 253.294
L405.652 253.821
L406.035 253.821
L406.29 254.408
L406.672 254.395
L406.8 253.37
L407.055 254.394
L407.82 254.378
L407.948 253.87
L408.203 254.395
L408.331 253.887
L408.586 254.408
L411.009 254.408
L411.264 253.506
L411.392 254.408
L411.647 253.9
L411.774 254.408
L412.029 254.329
L412.157 254.408
L412.412 254.217
L412.539 253.708
L412.667 253.708
L413.05 254.217
L413.305 253.708
L413.56 254.723
L414.453 254.733
L414.708 254.227
L414.835 254.733
L415.09 254.733
L415.218 254.227
L415.473 254.733
L415.856 254.733
L415.983 254.227
L416.238 254.733
L417.003 254.733
L417.131 254.227
L417.386 252.694
L417.514 254.415
L417.769 254.92
L417.896 254.92
L418.151 254.415
L418.279 254.92
L419.809 254.92
L420.064 254.415
L420.192 254.415
L420.447 254.92
L421.212 254.92
L421.34 255.247
L421.723 255.137
L422.105 255.247
L422.36 252.256
L422.488 255.246
L422.743 254.743
L422.87 255.246
L423.125 254.743
L423.253 254.237
L423.508 254.744
L424.018 254.744
L424.273 254.238
L424.401 254.238
L424.656 254.744
L424.784 254.744
L425.039 254.238
L425.166 254.744
L425.421 255.247
L425.804 255.246
L425.931 254.743
L426.187 255.246
L426.697 255.236
L426.952 254.732
L427.334 254.805
L427.462 255.246
L427.717 254.743
L427.845 254.743
L428.1 255.247
L428.227 254.743
L428.482 255.247
L428.61 250.211
L428.992 257.088
L430.395 257.085
L430.524 256.591
L430.778 257.086
L430.906 256.591
L431.033 257.086
L431.288 256.591
L431.543 256.985
L431.671 256.941
L432.691 257.086
L432.691 257.086
L432.819 255.605
L433.074 257.085
L433.201 257.085
L433.456 255.607
L433.584 257.087
L434.222 257.087
L434.349 256.593
L434.604 257.087
L435.115 257.087
L435.37 256.593
L435.497 257.087
L435.752 256.593
L435.88 257.087
L436.262 257.087
L436.645 257.384
L437.41 257.384
L437.665 256.891
L437.793 257.384
L438.431 257.384
L438.558 256.891
L438.941 256.891
L439.196 256.394
L439.579 254.903
L439.706 254.903
L439.961 255.307
L440.089 255.807
L440.344 255.807
L440.344 255.807
L440.471 255.652
L441.492 255.652
L441.619 255.807
L442.384 255.807
L442.64 248.406
L442.767 255.807
L443.533 255.807
L443.787 254.803
L443.915 255.807
L444.17 255.2
L444.298 255.807
L445.701 255.896
L446.083 255.396
L446.211 255.896
L446.593 255.889
L446.976 255.635
L447.359 255.635
L447.614 255.413
L447.741 254.92
L448.379 254.92
L448.507 255.401
L449.144 255.401
L449.272 254.898
L449.527 252.862
L449.527 252.862
L449.654 253.375
L449.909 254.898
L450.165 254.898
L450.42 254.393
L450.675 254.898
L450.802 254.898
L451.057 255.401
L451.568 255.401
L451.823 255.133
L451.95 255.635
L452.333 255.62
L452.588 255.133
L452.715 255.635
L455.649 255.635
L455.776 255.896
L456.032 255.896
L456.159 255.396
L456.414 255.896
L457.179 255.849
L457.307 253.377
L457.562 255.349
L457.69 255.349
L457.945 255.896
L458.072 255.386
L458.327 257.384
L458.455 257.384
L458.71 256.891
L458.837 256.891
L459.093 257.384
L459.22 257.384
L459.475 256.891
L460.623 256.878
L460.751 256.778
L461.006 256.282
L461.133 257.384
L461.516 257.384
L461.771 256.396
L461.899 256.891
L462.664 256.891
L462.919 255.898
L463.046 256.891
L463.429 256.891
L463.684 256.396
L463.812 255.901
L464.194 256.197
L465.597 256.196
L465.597 256.196
L465.725 255.697
L465.98 256.196
L467.51 256.196
L468.021 256.399
L468.276 256.399
L468.786 256.891
L469.041 251.417
L469.168 251.938
L471.082 251.938
L471.337 256.399
L471.847 256.399
L472.102 254.898
L472.229 256.399
L472.612 256.399
L472.867 256.891
L474.398 256.891
L474.525 256.395
L474.908 256.395
L475.163 257.383
L475.291 256.394
L475.928 256.389
L476.056 255.891
L476.311 255.891
L476.438 255.391
L476.693 255.891
L476.821 256.389
L477.076 255.891
L477.204 256.389
L477.586 256.384
L477.841 257.384
L478.734 257.38
L478.989 256.884
L479.499 256.872
L479.755 256.377
L479.882 255.879
L480.265 256.881
L480.647 256.881
L480.902 255.799
L481.03 255.888
L481.285 256.38
L481.413 256.881
L481.668 256.881
L481.795 256.388
L482.05 256.881
L482.178 256.839
L482.433 256.32
L482.816 256.343
L482.943 256.289
L483.198 256.343
L483.326 256.839
L483.963 256.881
L484.091 256.384
L484.346 256.879
L484.474 256.374
L484.856 255.861
L485.111 256.359
L485.877 256.362
L486.259 254.878
L486.259 254.878
L486.387 256.362
L490.213 256.376
L490.468 255.878
L490.596 256.376
L490.978 256.376
L491.233 255.378
L491.361 256.888
L491.744 257.381
L491.999 257.382
L492.126 252.453
L492.381 256.886
L492.891 256.886
L493.147 256.391
L493.529 256.391
L493.657 256.886
L493.912 256.386
L494.04 255.888
L494.294 256.386
L494.805 256.386
L495.06 256.886
L495.187 256.391
L495.697 256.886
L495.825 256.391
L495.825 256.391
L495.952 256.389
L496.208 256.884
L498.248 256.842
L498.503 256.347
L498.886 256.347
L499.013 256.842
L500.161 256.884
L500.544 254.883
L500.799 255.386
L500.927 256.389
L501.182 256.389
L501.309 256.884
L502.457 256.872
L502.712 257.385
L503.605 257.384
L503.86 256.891
L503.988 257.384
L504.243 256.891
L504.37 257.384
L504.625 256.891
L504.881 257.384
L505.136 251.938
L505.391 257.384
L505.518 256.891
L505.773 257.384
L505.901 256.891
L506.156 257.384
L506.666 257.384
L506.921 256.396
L507.049 256.396
L507.304 257.384
L508.197 257.384
L508.452 256.891
L508.579 256.396
L508.834 257.384
L509.217 255.898
L509.344 256.399
L509.6 255.896
L509.727 255.896
L509.982 256.393
L512.023 256.394
L512.278 255.896
L512.405 256.394
L512.788 256.394
L513.043 255.896
L513.171 256.394
L513.426 256.392
L513.553 255.895
L513.808 255.895
L513.936 255.394
L514.191 255.894
L514.574 255.895
L514.701 256.393
L514.956 255.891
L515.084 256.388
L515.339 250.361
L515.467 251.409
L515.722 251.409
L515.849 255.89
L516.104 255.89
L516.232 256.388
L517.38 256.382
L517.635 255.89
L517.762 256.384
L518.4 256.384
L518.4 256.384" style="fill:none;stroke:#ff0000;stroke-linecap:square;"/>
   </g>
   <g id="line2d_2">
    <path clip-path="url(#pcb2bf987bf)" d="
M72 344.903
L229.898 344.986
L230.281 345.029
L388.306 344.984
L388.306 344.984
L388.434 341.881
L389.072 341.881
L389.199 345.043
L518.4 345.037
L518.4 345.037" style="fill:none;stroke:#008000;stroke-linecap:square;"/>
   </g>
   <g id="patch_3">
    <path d="
M72 43.2
L518.4 43.2" style="fill:none;stroke:#000000;stroke-linecap:square;stroke-linejoin:miter;"/>
   </g>
   <g id="patch_4">
    <path d="
M518.4 345.6
L518.4 43.2" style="fill:none;stroke:#000000;stroke-linecap:square;stroke-linejoin:miter;"/>
   </g>
   <g id="patch_5">
    <path d="
M72 345.6
L518.4 345.6" style="fill:none;stroke:#000000;stroke-linecap:square;stroke-linejoin:miter;"/>
   </g>
   <g id="patch_6">
    <path d="
M72 345.6
L72 43.2" style="fill:none;stroke:#000000;stroke-linecap:square;stroke-linejoin:miter;"/>
   </g>
   <g id="matplotlib.axis_1">
    <g id="xtick_1">
     <g id="line2d_3">
      <defs>
       <path d="
M0 0
L0 -4" id="m93b0483c22" style="stroke:#000000;stroke-width:0.5;"/>
      </defs>
      <g>
       <use style="stroke:#000000;stroke-width:0.5;" x="118.170301715" xlink:href="#m93b0483c22" y="345.6"/>
      </g>
     </g>
     <g id="line2d_4">
      <defs>
       <path d="
M0 0
L0 4" id="m741efc42ff" style="stroke:#000000;stroke-width:0.5;"/>
      </defs>
      <g>
       <use style="stroke:#000000;stroke-width:0.5;" x="118.170301715" xlink:href="#m741efc42ff" y="43.2"/>
      </g>
     </g>
     <g id="text_1">
      <!-- Oct 13 2015 -->
      <defs>
       <path d="
M19.1875 8.29688
L53.6094 8.29688
L53.6094 0
L7.32812 0
L7.32812 8.29688
Q12.9375 14.1094 22.625 23.8906
Q32.3281 33.6875 34.8125 36.5312
Q39.5469 41.8438 41.4219 45.5312
Q43.3125 49.2188 43.3125 52.7812
Q43.3125 58.5938 39.2344 62.25
Q35.1562 65.9219 28.6094 65.9219
Q23.9688 65.9219 18.8125 64.3125
Q13.6719 62.7031 7.8125 59.4219
L7.8125 69.3906
Q13.7656 71.7812 18.9375 73
Q24.125 74.2188 28.4219 74.2188
Q39.75 74.2188 46.4844 68.5469
Q53.2188 62.8906 53.2188 53.4219
Q53.2188 48.9219 51.5312 44.8906
Q49.8594 40.875 45.4062 35.4062
Q44.1875 33.9844 37.6406 27.2188
Q31.1094 20.4531 19.1875 8.29688" id="BitstreamVeraSans-Roman-32"/>
       <path d="
M39.4062 66.2188
Q28.6562 66.2188 22.3281 58.2031
Q16.0156 50.2031 16.0156 36.375
Q16.0156 22.6094 22.3281 14.5938
Q28.6562 6.59375 39.4062 6.59375
Q50.1406 6.59375 56.4219 14.5938
Q62.7031 22.6094 62.7031 36.375
Q62.7031 50.2031 56.4219 58.2031
Q50.1406 66.2188 39.4062 66.2188
M39.4062 74.2188
Q54.7344 74.2188 63.9062 63.9375
Q73.0938 53.6562 73.0938 36.375
Q73.0938 19.1406 63.9062 8.85938
Q54.7344 -1.42188 39.4062 -1.42188
Q24.0312 -1.42188 14.8125 8.82812
Q5.60938 19.0938 5.60938 36.375
Q5.60938 53.6562 14.8125 63.9375
Q24.0312 74.2188 39.4062 74.2188" id="BitstreamVeraSans-Roman-4f"/>
       <path d="
M31.7812 66.4062
Q24.1719 66.4062 20.3281 58.9062
Q16.5 51.4219 16.5 36.375
Q16.5 21.3906 20.3281 13.8906
Q24.1719 6.39062 31.7812 6.39062
Q39.4531 6.39062 43.2812 13.8906
Q47.125 21.3906 47.125 36.375
Q47.125 51.4219 43.2812 58.9062
Q39.4531 66.4062 31.7812 66.4062
M31.7812 74.2188
Q44.0469 74.2188 50.5156 64.5156
Q56.9844 54.8281 56.9844 36.375
Q56.9844 17.9688 50.5156 8.26562
Q44.0469 -1.42188 31.7812 -1.42188
Q19.5312 -1.42188 13.0625 8.26562
Q6.59375 17.9688 6.59375 36.375
Q6.59375 54.8281 13.0625 64.5156
Q19.5312 74.2188 31.7812 74.2188" id="BitstreamVeraSans-Roman-30"/>
       <path d="
M12.4062 8.29688
L28.5156 8.29688
L28.5156 63.9219
L10.9844 60.4062
L10.9844 69.3906
L28.4219 72.9062
L38.2812 72.9062
L38.2812 8.29688
L54.3906 8.29688
L54.3906 0
L12.4062 0
z
" id="BitstreamVeraSans-Roman-31"/>
       <path d="
M40.5781 39.3125
Q47.6562 37.7969 51.625 33
Q55.6094 28.2188 55.6094 21.1875
Q55.6094 10.4062 48.1875 4.48438
Q40.7656 -1.42188 27.0938 -1.42188
Q22.5156 -1.42188 17.6562 -0.515625
Q12.7969 0.390625 7.625 2.20312
L7.625 11.7188
Q11.7188 9.32812 16.5938 8.10938
Q21.4844 6.89062 26.8125 6.89062
Q36.0781 6.89062 40.9375 10.5469
Q45.7969 14.2031 45.7969 21.1875
Q45.7969 27.6406 41.2812 31.2656
Q36.7656 34.9062 28.7188 34.9062
L20.2188 34.9062
L20.2188 43.0156
L29.1094 43.0156
Q36.375 43.0156 40.2344 45.9219
Q44.0938 48.8281 44.0938 54.2969
Q44.0938 59.9062 40.1094 62.9062
Q36.1406 65.9219 28.7188 65.9219
Q24.6562 65.9219 20.0156 65.0312
Q15.375 64.1562 9.8125 62.3125
L9.8125 71.0938
Q15.4375 72.6562 20.3438 73.4375
Q25.25 74.2188 29.5938 74.2188
Q40.8281 74.2188 47.3594 69.1094
Q53.9062 64.0156 53.9062 55.3281
Q53.9062 49.2656 50.4375 45.0938
Q46.9688 40.9219 40.5781 39.3125" id="BitstreamVeraSans-Roman-33"/>
       <path id="BitstreamVeraSans-Roman-20"/>
       <path d="
M10.7969 72.9062
L49.5156 72.9062
L49.5156 64.5938
L19.8281 64.5938
L19.8281 46.7344
Q21.9688 47.4688 24.1094 47.8281
Q26.2656 48.1875 28.4219 48.1875
Q40.625 48.1875 47.75 41.5
Q54.8906 34.8125 54.8906 23.3906
Q54.8906 11.625 47.5625 5.09375
Q40.2344 -1.42188 26.9062 -1.42188
Q22.3125 -1.42188 17.5469 -0.640625
Q12.7969 0.140625 7.71875 1.70312
L7.71875 11.625
Q12.1094 9.23438 16.7969 8.0625
Q21.4844 6.89062 26.7031 6.89062
Q35.1562 6.89062 40.0781 11.3281
Q45.0156 15.7656 45.0156 23.3906
Q45.0156 31 40.0781 35.4375
Q35.1562 39.8906 26.7031 39.8906
Q22.75 39.8906 18.8125 39.0156
Q14.8906 38.1406 10.7969 36.2812
z
" id="BitstreamVeraSans-Roman-35"/>
       <path d="
M18.3125 70.2188
L18.3125 54.6875
L36.8125 54.6875
L36.8125 47.7031
L18.3125 47.7031
L18.3125 18.0156
Q18.3125 11.3281 20.1406 9.42188
Q21.9688 7.51562 27.5938 7.51562
L36.8125 7.51562
L36.8125 0
L27.5938 0
Q17.1875 0 13.2344 3.875
Q9.28125 7.76562 9.28125 18.0156
L9.28125 47.7031
L2.6875 47.7031
L2.6875 54.6875
L9.28125 54.6875
L9.28125 70.2188
z
" id="BitstreamVeraSans-Roman-74"/>
       <path d="
M48.7812 52.5938
L48.7812 44.1875
Q44.9688 46.2969 41.1406 47.3438
Q37.3125 48.3906 33.4062 48.3906
Q24.6562 48.3906 19.8125 42.8438
Q14.9844 37.3125 14.9844 27.2969
Q14.9844 17.2812 19.8125 11.7344
Q24.6562 6.20312 33.4062 6.20312
Q37.3125 6.20312 41.1406 7.25
Q44.9688 8.29688 48.7812 10.4062
L48.7812 2.09375
Q45.0156 0.34375 40.9844 -0.53125
Q36.9688 -1.42188 32.4219 -1.42188
Q20.0625 -1.42188 12.7812 6.34375
Q5.51562 14.1094 5.51562 27.2969
Q5.51562 40.6719 12.8594 48.3281
Q20.2188 56 33.0156 56
Q37.1562 56 41.1094 55.1406
Q45.0625 54.2969 48.7812 52.5938" id="BitstreamVeraSans-Roman-63"/>
      </defs>
      <g transform="translate(53.5830149798 394.065590385)rotate(-30.0)scale(0.12 -0.12)">
       <use xlink:href="#BitstreamVeraSans-Roman-4f"/>
       <use x="78.7109375" xlink:href="#BitstreamVeraSans-Roman-63"/>
       <use x="133.69140625" xlink:href="#BitstreamVeraSans-Roman-74"/>
       <use x="172.900390625" xlink:href="#BitstreamVeraSans-Roman-20"/>
       <use x="204.6875" xlink:href="#BitstreamVeraSans-Roman-31"/>
       <use x="268.310546875" xlink:href="#BitstreamVeraSans-Roman-33"/>
       <use x="331.93359375" xlink:href="#BitstreamVeraSans-Roman-20"/>
       <use x="363.720703125" xlink:href="#BitstreamVeraSans-Roman-32"/>
       <use x="427.34375" xlink:href="#BitstreamVeraSans-Roman-30"/>
       <use x="490.966796875" xlink:href="#BitstreamVeraSans-Roman-31"/>
       <use x="554.58984375" xlink:href="#BitstreamVeraSans-Roman-35"/>
      </g>
     </g>
    </g>
    <g id="xtick_2">
     <g id="line2d_5">
      <g>
       <use style="stroke:#000000;stroke-width:0.5;" x="173.268816" xlink:href="#m93b0483c22" y="345.6"/>
      </g>
     </g>
     <g id="line2d_6">
      <g>
       <use style="stroke:#000000;stroke-width:0.5;" x="173.268816" xlink:href="#m741efc42ff" y="43.2"/>
      </g>
     </g>
     <g id="text_2">
      <!-- Oct 16 2015 -->
      <defs>
       <path d="
M33.0156 40.375
Q26.375 40.375 22.4844 35.8281
Q18.6094 31.2969 18.6094 23.3906
Q18.6094 15.5312 22.4844 10.9531
Q26.375 6.39062 33.0156 6.39062
Q39.6562 6.39062 43.5312 10.9531
Q47.4062 15.5312 47.4062 23.3906
Q47.4062 31.2969 43.5312 35.8281
Q39.6562 40.375 33.0156 40.375
M52.5938 71.2969
L52.5938 62.3125
Q48.875 64.0625 45.0938 64.9844
Q41.3125 65.9219 37.5938 65.9219
Q27.8281 65.9219 22.6719 59.3281
Q17.5312 52.7344 16.7969 39.4062
Q19.6719 43.6562 24.0156 45.9219
Q28.375 48.1875 33.5938 48.1875
Q44.5781 48.1875 50.9531 41.5156
Q57.3281 34.8594 57.3281 23.3906
Q57.3281 12.1562 50.6875 5.35938
Q44.0469 -1.42188 33.0156 -1.42188
Q20.3594 -1.42188 13.6719 8.26562
Q6.98438 17.9688 6.98438 36.375
Q6.98438 53.6562 15.1875 63.9375
Q23.3906 74.2188 37.2031 74.2188
Q40.9219 74.2188 44.7031 73.4844
Q48.4844 72.75 52.5938 71.2969" id="BitstreamVeraSans-Roman-36"/>
      </defs>
      <g transform="translate(108.681529265 394.065590385)rotate(-30.0)scale(0.12 -0.12)">
       <use xlink:href="#BitstreamVeraSans-Roman-4f"/>
       <use x="78.7109375" xlink:href="#BitstreamVeraSans-Roman-63"/>
       <use x="133.69140625" xlink:href="#BitstreamVeraSans-Roman-74"/>
       <use x="172.900390625" xlink:href="#BitstreamVeraSans-Roman-20"/>
       <use x="204.6875" xlink:href="#BitstreamVeraSans-Roman-31"/>
       <use x="268.310546875" xlink:href="#BitstreamVeraSans-Roman-36"/>
       <use x="331.93359375" xlink:href="#BitstreamVeraSans-Roman-20"/>
       <use x="363.720703125" xlink:href="#BitstreamVeraSans-Roman-32"/>
       <use x="427.34375" xlink:href="#BitstreamVeraSans-Roman-30"/>
       <use x="490.966796875" xlink:href="#BitstreamVeraSans-Roman-31"/>
       <use x="554.58984375" xlink:href="#BitstreamVeraSans-Roman-35"/>
      </g>
     </g>
    </g>
    <g id="xtick_3">
     <g id="line2d_7">
      <g>
       <use style="stroke:#000000;stroke-width:0.5;" x="228.367330285" xlink:href="#m93b0483c22" y="345.6"/>
      </g>
     </g>
     <g id="line2d_8">
      <g>
       <use style="stroke:#000000;stroke-width:0.5;" x="228.367330285" xlink:href="#m741efc42ff" y="43.2"/>
      </g>
     </g>
     <g id="text_3">
      <!-- Oct 19 2015 -->
      <defs>
       <path d="
M10.9844 1.51562
L10.9844 10.5
Q14.7031 8.73438 18.5 7.8125
Q22.3125 6.89062 25.9844 6.89062
Q35.75 6.89062 40.8906 13.4531
Q46.0469 20.0156 46.7812 33.4062
Q43.9531 29.2031 39.5938 26.9531
Q35.25 24.7031 29.9844 24.7031
Q19.0469 24.7031 12.6719 31.3125
Q6.29688 37.9375 6.29688 49.4219
Q6.29688 60.6406 12.9375 67.4219
Q19.5781 74.2188 30.6094 74.2188
Q43.2656 74.2188 49.9219 64.5156
Q56.5938 54.8281 56.5938 36.375
Q56.5938 19.1406 48.4062 8.85938
Q40.2344 -1.42188 26.4219 -1.42188
Q22.7031 -1.42188 18.8906 -0.6875
Q15.0938 0.046875 10.9844 1.51562
M30.6094 32.4219
Q37.25 32.4219 41.125 36.9531
Q45.0156 41.5 45.0156 49.4219
Q45.0156 57.2812 41.125 61.8438
Q37.25 66.4062 30.6094 66.4062
Q23.9688 66.4062 20.0938 61.8438
Q16.2188 57.2812 16.2188 49.4219
Q16.2188 41.5 20.0938 36.9531
Q23.9688 32.4219 30.6094 32.4219" id="BitstreamVeraSans-Roman-39"/>
      </defs>
      <g transform="translate(163.78004355 394.065590385)rotate(-30.0)scale(0.12 -0.12)">
       <use xlink:href="#BitstreamVeraSans-Roman-4f"/>
       <use x="78.7109375" xlink:href="#BitstreamVeraSans-Roman-63"/>
       <use x="133.69140625" xlink:href="#BitstreamVeraSans-Roman-74"/>
       <use x="172.900390625" xlink:href="#BitstreamVeraSans-Roman-20"/>
       <use x="204.6875" xlink:href="#BitstreamVeraSans-Roman-31"/>
       <use x="268.310546875" xlink:href="#BitstreamVeraSans-Roman-39"/>
       <use x="331.93359375" xlink:href="#BitstreamVeraSans-Roman-20"/>
       <use x="363.720703125" xlink:href="#BitstreamVeraSans-Roman-32"/>
       <use x="427.34375" xlink:href="#BitstreamVeraSans-Roman-30"/>
       <use x="490.966796875" xlink:href="#BitstreamVeraSans-Roman-31"/>
       <use x="554.58984375" xlink:href="#BitstreamVeraSans-Roman-35"/>
      </g>
     </g>
    </g>
    <g id="xtick_4">
     <g id="line2d_9">
      <g>
       <use style="stroke:#000000;stroke-width:0.5;" x="283.465844572" xlink:href="#m93b0483c22" y="345.6"/>
      </g>
     </g>
     <g id="line2d_10">
      <g>
       <use style="stroke:#000000;stroke-width:0.5;" x="283.465844572" xlink:href="#m741efc42ff" y="43.2"/>
      </g>
     </g>
     <g id="text_4">
      <!-- Oct 22 2015 -->
      <g transform="translate(218.878557836 394.065590385)rotate(-30.0)scale(0.12 -0.12)">
       <use xlink:href="#BitstreamVeraSans-Roman-4f"/>
       <use x="78.7109375" xlink:href="#BitstreamVeraSans-Roman-63"/>
       <use x="133.69140625" xlink:href="#BitstreamVeraSans-Roman-74"/>
       <use x="172.900390625" xlink:href="#BitstreamVeraSans-Roman-20"/>
       <use x="204.6875" xlink:href="#BitstreamVeraSans-Roman-32"/>
       <use x="268.310546875" xlink:href="#BitstreamVeraSans-Roman-32"/>
       <use x="331.93359375" xlink:href="#BitstreamVeraSans-Roman-20"/>
       <use x="363.720703125" xlink:href="#BitstreamVeraSans-Roman-32"/>
       <use x="427.34375" xlink:href="#BitstreamVeraSans-Roman-30"/>
       <use x="490.966796875" xlink:href="#BitstreamVeraSans-Roman-31"/>
       <use x="554.58984375" xlink:href="#BitstreamVeraSans-Roman-35"/>
      </g>
     </g>
    </g>
    <g id="xtick_5">
     <g id="line2d_11">
      <g>
       <use style="stroke:#000000;stroke-width:0.5;" x="338.564358857" xlink:href="#m93b0483c22" y="345.6"/>
      </g>
     </g>
     <g id="line2d_12">
      <g>
       <use style="stroke:#000000;stroke-width:0.5;" x="338.564358857" xlink:href="#m741efc42ff" y="43.2"/>
      </g>
     </g>
     <g id="text_5">
      <!-- Oct 25 2015 -->
      <g transform="translate(273.977072121 394.065590385)rotate(-30.0)scale(0.12 -0.12)">
       <use xlink:href="#BitstreamVeraSans-Roman-4f"/>
       <use x="78.7109375" xlink:href="#BitstreamVeraSans-Roman-63"/>
       <use x="133.69140625" xlink:href="#BitstreamVeraSans-Roman-74"/>
       <use x="172.900390625" xlink:href="#BitstreamVeraSans-Roman-20"/>
       <use x="204.6875" xlink:href="#BitstreamVeraSans-Roman-32"/>
       <use x="268.310546875" xlink:href="#BitstreamVeraSans-Roman-35"/>
       <use x="331.93359375" xlink:href="#BitstreamVeraSans-Roman-20"/>
       <use x="363.720703125" xlink:href="#BitstreamVeraSans-Roman-32"/>
       <use x="427.34375" xlink:href="#BitstreamVeraSans-Roman-30"/>
       <use x="490.966796875" xlink:href="#BitstreamVeraSans-Roman-31"/>
       <use x="554.58984375" xlink:href="#BitstreamVeraSans-Roman-35"/>
      </g>
     </g>
    </g>
    <g id="xtick_6">
     <g id="line2d_13">
      <g>
       <use style="stroke:#000000;stroke-width:0.5;" x="393.662873141" xlink:href="#m93b0483c22" y="345.6"/>
      </g>
     </g>
     <g id="line2d_14">
      <g>
       <use style="stroke:#000000;stroke-width:0.5;" x="393.662873141" xlink:href="#m741efc42ff" y="43.2"/>
      </g>
     </g>
     <g id="text_6">
      <!-- Oct 28 2015 -->
      <defs>
       <path d="
M31.7812 34.625
Q24.75 34.625 20.7188 30.8594
Q16.7031 27.0938 16.7031 20.5156
Q16.7031 13.9219 20.7188 10.1562
Q24.75 6.39062 31.7812 6.39062
Q38.8125 6.39062 42.8594 10.1719
Q46.9219 13.9688 46.9219 20.5156
Q46.9219 27.0938 42.8906 30.8594
Q38.875 34.625 31.7812 34.625
M21.9219 38.8125
Q15.5781 40.375 12.0312 44.7188
Q8.5 49.0781 8.5 55.3281
Q8.5 64.0625 14.7188 69.1406
Q20.9531 74.2188 31.7812 74.2188
Q42.6719 74.2188 48.875 69.1406
Q55.0781 64.0625 55.0781 55.3281
Q55.0781 49.0781 51.5312 44.7188
Q48 40.375 41.7031 38.8125
Q48.8281 37.1562 52.7969 32.3125
Q56.7812 27.4844 56.7812 20.5156
Q56.7812 9.90625 50.3125 4.23438
Q43.8438 -1.42188 31.7812 -1.42188
Q19.7344 -1.42188 13.25 4.23438
Q6.78125 9.90625 6.78125 20.5156
Q6.78125 27.4844 10.7812 32.3125
Q14.7969 37.1562 21.9219 38.8125
M18.3125 54.3906
Q18.3125 48.7344 21.8438 45.5625
Q25.3906 42.3906 31.7812 42.3906
Q38.1406 42.3906 41.7188 45.5625
Q45.3125 48.7344 45.3125 54.3906
Q45.3125 60.0625 41.7188 63.2344
Q38.1406 66.4062 31.7812 66.4062
Q25.3906 66.4062 21.8438 63.2344
Q18.3125 60.0625 18.3125 54.3906" id="BitstreamVeraSans-Roman-38"/>
      </defs>
      <g transform="translate(329.075586406 394.065590385)rotate(-30.0)scale(0.12 -0.12)">
       <use xlink:href="#BitstreamVeraSans-Roman-4f"/>
       <use x="78.7109375" xlink:href="#BitstreamVeraSans-Roman-63"/>
       <use x="133.69140625" xlink:href="#BitstreamVeraSans-Roman-74"/>
       <use x="172.900390625" xlink:href="#BitstreamVeraSans-Roman-20"/>
       <use x="204.6875" xlink:href="#BitstreamVeraSans-Roman-32"/>
       <use x="268.310546875" xlink:href="#BitstreamVeraSans-Roman-38"/>
       <use x="331.93359375" xlink:href="#BitstreamVeraSans-Roman-20"/>
       <use x="363.720703125" xlink:href="#BitstreamVeraSans-Roman-32"/>
       <use x="427.34375" xlink:href="#BitstreamVeraSans-Roman-30"/>
       <use x="490.966796875" xlink:href="#BitstreamVeraSans-Roman-31"/>
       <use x="554.58984375" xlink:href="#BitstreamVeraSans-Roman-35"/>
      </g>
     </g>
    </g>
    <g id="xtick_7">
     <g id="line2d_15">
      <g>
       <use style="stroke:#000000;stroke-width:0.5;" x="448.761387428" xlink:href="#m93b0483c22" y="345.6"/>
      </g>
     </g>
     <g id="line2d_16">
      <g>
       <use style="stroke:#000000;stroke-width:0.5;" x="448.761387428" xlink:href="#m741efc42ff" y="43.2"/>
      </g>
     </g>
     <g id="text_7">
      <!-- Oct 31 2015 -->
      <g transform="translate(384.174100693 394.065590385)rotate(-30.0)scale(0.12 -0.12)">
       <use xlink:href="#BitstreamVeraSans-Roman-4f"/>
       <use x="78.7109375" xlink:href="#BitstreamVeraSans-Roman-63"/>
       <use x="133.69140625" xlink:href="#BitstreamVeraSans-Roman-74"/>
       <use x="172.900390625" xlink:href="#BitstreamVeraSans-Roman-20"/>
       <use x="204.6875" xlink:href="#BitstreamVeraSans-Roman-33"/>
       <use x="268.310546875" xlink:href="#BitstreamVeraSans-Roman-31"/>
       <use x="331.93359375" xlink:href="#BitstreamVeraSans-Roman-20"/>
       <use x="363.720703125" xlink:href="#BitstreamVeraSans-Roman-32"/>
       <use x="427.34375" xlink:href="#BitstreamVeraSans-Roman-30"/>
       <use x="490.966796875" xlink:href="#BitstreamVeraSans-Roman-31"/>
       <use x="554.58984375" xlink:href="#BitstreamVeraSans-Roman-35"/>
      </g>
     </g>
    </g>
    <g id="xtick_8">
     <g id="line2d_17">
      <g>
       <use style="stroke:#000000;stroke-width:0.5;" x="503.859901713" xlink:href="#m93b0483c22" y="345.6"/>
      </g>
     </g>
     <g id="line2d_18">
      <g>
       <use style="stroke:#000000;stroke-width:0.5;" x="503.859901713" xlink:href="#m741efc42ff" y="43.2"/>
      </g>
     </g>
     <g id="text_8">
      <!-- Nov 03 2015 -->
      <defs>
       <path d="
M2.98438 54.6875
L12.5 54.6875
L29.5938 8.79688
L46.6875 54.6875
L56.2031 54.6875
L35.6875 0
L23.4844 0
z
" id="BitstreamVeraSans-Roman-76"/>
       <path d="
M9.8125 72.9062
L23.0938 72.9062
L55.4219 11.9219
L55.4219 72.9062
L64.9844 72.9062
L64.9844 0
L51.7031 0
L19.3906 60.9844
L19.3906 0
L9.8125 0
z
" id="BitstreamVeraSans-Roman-4e"/>
       <path d="
M30.6094 48.3906
Q23.3906 48.3906 19.1875 42.75
Q14.9844 37.1094 14.9844 27.2969
Q14.9844 17.4844 19.1562 11.8438
Q23.3438 6.20312 30.6094 6.20312
Q37.7969 6.20312 41.9844 11.8594
Q46.1875 17.5312 46.1875 27.2969
Q46.1875 37.0156 41.9844 42.7031
Q37.7969 48.3906 30.6094 48.3906
M30.6094 56
Q42.3281 56 49.0156 48.375
Q55.7188 40.7656 55.7188 27.2969
Q55.7188 13.875 49.0156 6.21875
Q42.3281 -1.42188 30.6094 -1.42188
Q18.8438 -1.42188 12.1719 6.21875
Q5.51562 13.875 5.51562 27.2969
Q5.51562 40.7656 12.1719 48.375
Q18.8438 56 30.6094 56" id="BitstreamVeraSans-Roman-6f"/>
      </defs>
      <g transform="translate(436.957079555 395.402465385)rotate(-30.0)scale(0.12 -0.12)">
       <use xlink:href="#BitstreamVeraSans-Roman-4e"/>
       <use x="74.8046875" xlink:href="#BitstreamVeraSans-Roman-6f"/>
       <use x="135.986328125" xlink:href="#BitstreamVeraSans-Roman-76"/>
       <use x="195.166015625" xlink:href="#BitstreamVeraSans-Roman-20"/>
       <use x="226.953125" xlink:href="#BitstreamVeraSans-Roman-30"/>
       <use x="290.576171875" xlink:href="#BitstreamVeraSans-Roman-33"/>
       <use x="354.19921875" xlink:href="#BitstreamVeraSans-Roman-20"/>
       <use x="385.986328125" xlink:href="#BitstreamVeraSans-Roman-32"/>
       <use x="449.609375" xlink:href="#BitstreamVeraSans-Roman-30"/>
       <use x="513.232421875" xlink:href="#BitstreamVeraSans-Roman-31"/>
       <use x="576.85546875" xlink:href="#BitstreamVeraSans-Roman-35"/>
      </g>
     </g>
    </g>
   </g>
   <g id="matplotlib.axis_2">
    <g id="ytick_1">
     <g id="line2d_19">
      <defs>
       <path d="
M0 0
L4 0" id="m728421d6d4" style="stroke:#000000;stroke-width:0.5;"/>
      </defs>
      <g>
       <use style="stroke:#000000;stroke-width:0.5;" x="72.0" xlink:href="#m728421d6d4" y="306.672263296"/>
      </g>
     </g>
     <g id="line2d_20">
      <defs>
       <path d="
M0 0
L-4 0" id="mcb0005524f" style="stroke:#000000;stroke-width:0.5;"/>
      </defs>
      <g>
       <use style="stroke:#000000;stroke-width:0.5;" x="518.4" xlink:href="#mcb0005524f" y="306.672263296"/>
      </g>
     </g>
     <g id="text_9">
      <!-- 0.5 -->
      <defs>
       <path d="
M10.6875 12.4062
L21 12.4062
L21 0
L10.6875 0
z
" id="BitstreamVeraSans-Roman-2e"/>
      </defs>
      <g transform="translate(50.755625 309.983513296)scale(0.12 -0.12)">
       <use xlink:href="#BitstreamVeraSans-Roman-30"/>
       <use x="63.623046875" xlink:href="#BitstreamVeraSans-Roman-2e"/>
       <use x="95.41015625" xlink:href="#BitstreamVeraSans-Roman-35"/>
      </g>
     </g>
    </g>
    <g id="ytick_2">
     <g id="line2d_21">
      <g>
       <use style="stroke:#000000;stroke-width:0.5;" x="72.0" xlink:href="#m728421d6d4" y="257.384676571"/>
      </g>
     </g>
     <g id="line2d_22">
      <g>
       <use style="stroke:#000000;stroke-width:0.5;" x="518.4" xlink:href="#mcb0005524f" y="257.384676571"/>
      </g>
     </g>
     <g id="text_10">
      <!-- 1.0 -->
      <g transform="translate(51.03125 260.695926571)scale(0.12 -0.12)">
       <use xlink:href="#BitstreamVeraSans-Roman-31"/>
       <use x="63.623046875" xlink:href="#BitstreamVeraSans-Roman-2e"/>
       <use x="95.41015625" xlink:href="#BitstreamVeraSans-Roman-30"/>
      </g>
     </g>
    </g>
    <g id="ytick_3">
     <g id="line2d_23">
      <g>
       <use style="stroke:#000000;stroke-width:0.5;" x="72.0" xlink:href="#m728421d6d4" y="208.097089846"/>
      </g>
     </g>
     <g id="line2d_24">
      <g>
       <use style="stroke:#000000;stroke-width:0.5;" x="518.4" xlink:href="#mcb0005524f" y="208.097089846"/>
      </g>
     </g>
     <g id="text_11">
      <!-- 1.5 -->
      <g transform="translate(51.2825 211.408339846)scale(0.12 -0.12)">
       <use xlink:href="#BitstreamVeraSans-Roman-31"/>
       <use x="63.623046875" xlink:href="#BitstreamVeraSans-Roman-2e"/>
       <use x="95.41015625" xlink:href="#BitstreamVeraSans-Roman-35"/>
      </g>
     </g>
    </g>
    <g id="ytick_4">
     <g id="line2d_25">
      <g>
       <use style="stroke:#000000;stroke-width:0.5;" x="72.0" xlink:href="#m728421d6d4" y="158.809503121"/>
      </g>
     </g>
     <g id="line2d_26">
      <g>
       <use style="stroke:#000000;stroke-width:0.5;" x="518.4" xlink:href="#mcb0005524f" y="158.809503121"/>
      </g>
     </g>
     <g id="text_12">
      <!-- 2.0 -->
      <g transform="translate(50.5925 162.120753121)scale(0.12 -0.12)">
       <use xlink:href="#BitstreamVeraSans-Roman-32"/>
       <use x="63.623046875" xlink:href="#BitstreamVeraSans-Roman-2e"/>
       <use x="95.41015625" xlink:href="#BitstreamVeraSans-Roman-30"/>
      </g>
     </g>
    </g>
    <g id="ytick_5">
     <g id="line2d_27">
      <g>
       <use style="stroke:#000000;stroke-width:0.5;" x="72.0" xlink:href="#m728421d6d4" y="109.521916396"/>
      </g>
     </g>
     <g id="line2d_28">
      <g>
       <use style="stroke:#000000;stroke-width:0.5;" x="518.4" xlink:href="#mcb0005524f" y="109.521916396"/>
      </g>
     </g>
     <g id="text_13">
      <!-- 2.5 -->
      <g transform="translate(50.84375 112.833166396)scale(0.12 -0.12)">
       <use xlink:href="#BitstreamVeraSans-Roman-32"/>
       <use x="63.623046875" xlink:href="#BitstreamVeraSans-Roman-2e"/>
       <use x="95.41015625" xlink:href="#BitstreamVeraSans-Roman-35"/>
      </g>
     </g>
    </g>
    <g id="ytick_6">
     <g id="line2d_29">
      <g>
       <use style="stroke:#000000;stroke-width:0.5;" x="72.0" xlink:href="#m728421d6d4" y="60.2343296713"/>
      </g>
     </g>
     <g id="line2d_30">
      <g>
       <use style="stroke:#000000;stroke-width:0.5;" x="518.4" xlink:href="#mcb0005524f" y="60.2343296713"/>
      </g>
     </g>
     <g id="text_14">
      <!-- 3.0 -->
      <g transform="translate(50.628125 63.5455796713)scale(0.12 -0.12)">
       <use xlink:href="#BitstreamVeraSans-Roman-33"/>
       <use x="63.623046875" xlink:href="#BitstreamVeraSans-Roman-2e"/>
       <use x="95.41015625" xlink:href="#BitstreamVeraSans-Roman-30"/>
      </g>
     </g>
    </g>
    <g id="text_15">
     <!-- 1e7 -->
     <defs>
      <path d="
M56.2031 29.5938
L56.2031 25.2031
L14.8906 25.2031
Q15.4844 15.9219 20.4844 11.0625
Q25.4844 6.20312 34.4219 6.20312
Q39.5938 6.20312 44.4531 7.46875
Q49.3125 8.73438 54.1094 11.2812
L54.1094 2.78125
Q49.2656 0.734375 44.1875 -0.34375
Q39.1094 -1.42188 33.8906 -1.42188
Q20.7969 -1.42188 13.1562 6.1875
Q5.51562 13.8125 5.51562 26.8125
Q5.51562 40.2344 12.7656 48.1094
Q20.0156 56 32.3281 56
Q43.3594 56 49.7812 48.8906
Q56.2031 41.7969 56.2031 29.5938
M47.2188 32.2344
Q47.125 39.5938 43.0938 43.9844
Q39.0625 48.3906 32.4219 48.3906
Q24.9062 48.3906 20.3906 44.1406
Q15.875 39.8906 15.1875 32.1719
z
" id="BitstreamVeraSans-Roman-65"/>
      <path d="
M8.20312 72.9062
L55.0781 72.9062
L55.0781 68.7031
L28.6094 0
L18.3125 0
L43.2188 64.5938
L8.20312 64.5938
z
" id="BitstreamVeraSans-Roman-37"/>
     </defs>
     <g transform="translate(72.0 40.2)scale(0.12 -0.12)">
      <use xlink:href="#BitstreamVeraSans-Roman-31"/>
      <use x="63.623046875" xlink:href="#BitstreamVeraSans-Roman-65"/>
      <use x="125.146484375" xlink:href="#BitstreamVeraSans-Roman-37"/>
     </g>
    </g>
   </g>
   <g id="text_16">
    <!-- Wartungskit -->
    <defs>
     <path d="
M54.8906 33.0156
L54.8906 0
L45.9062 0
L45.9062 32.7188
Q45.9062 40.4844 42.875 44.3281
Q39.8438 48.1875 33.7969 48.1875
Q26.5156 48.1875 22.3125 43.5469
Q18.1094 38.9219 18.1094 30.9062
L18.1094 0
L9.07812 0
L9.07812 54.6875
L18.1094 54.6875
L18.1094 46.1875
Q21.3438 51.125 25.7031 53.5625
Q30.0781 56 35.7969 56
Q45.2188 56 50.0469 50.1719
Q54.8906 44.3438 54.8906 33.0156" id="BitstreamVeraSans-Roman-6e"/>
     <path d="
M34.2812 27.4844
Q23.3906 27.4844 19.1875 25
Q14.9844 22.5156 14.9844 16.5
Q14.9844 11.7188 18.1406 8.90625
Q21.2969 6.10938 26.7031 6.10938
Q34.1875 6.10938 38.7031 11.4062
Q43.2188 16.7031 43.2188 25.4844
L43.2188 27.4844
z

M52.2031 31.2031
L52.2031 0
L43.2188 0
L43.2188 8.29688
Q40.1406 3.32812 35.5469 0.953125
Q30.9531 -1.42188 24.3125 -1.42188
Q15.9219 -1.42188 10.9531 3.29688
Q6 8.01562 6 15.9219
Q6 25.1406 12.1719 29.8281
Q18.3594 34.5156 30.6094 34.5156
L43.2188 34.5156
L43.2188 35.4062
Q43.2188 41.6094 39.1406 45
Q35.0625 48.3906 27.6875 48.3906
Q23 48.3906 18.5469 47.2656
Q14.1094 46.1406 10.0156 43.8906
L10.0156 52.2031
Q14.9375 54.1094 19.5781 55.0469
Q24.2188 56 28.6094 56
Q40.4844 56 46.3438 49.8438
Q52.2031 43.7031 52.2031 31.2031" id="BitstreamVeraSans-Roman-61"/>
     <path d="
M9.07812 75.9844
L18.1094 75.9844
L18.1094 31.1094
L44.9219 54.6875
L56.3906 54.6875
L27.3906 29.1094
L57.625 0
L45.9062 0
L18.1094 26.7031
L18.1094 0
L9.07812 0
z
" id="BitstreamVeraSans-Roman-6b"/>
     <path d="
M9.42188 54.6875
L18.4062 54.6875
L18.4062 0
L9.42188 0
z

M9.42188 75.9844
L18.4062 75.9844
L18.4062 64.5938
L9.42188 64.5938
z
" id="BitstreamVeraSans-Roman-69"/>
     <path d="
M3.32812 72.9062
L13.2812 72.9062
L28.6094 11.2812
L43.8906 72.9062
L54.9844 72.9062
L70.3125 11.2812
L85.5938 72.9062
L95.6094 72.9062
L77.2969 0
L64.8906 0
L49.5156 63.2812
L33.9844 0
L21.5781 0
z
" id="BitstreamVeraSans-Roman-57"/>
     <path d="
M45.4062 27.9844
Q45.4062 37.75 41.375 43.1094
Q37.3594 48.4844 30.0781 48.4844
Q22.8594 48.4844 18.8281 43.1094
Q14.7969 37.75 14.7969 27.9844
Q14.7969 18.2656 18.8281 12.8906
Q22.8594 7.51562 30.0781 7.51562
Q37.3594 7.51562 41.375 12.8906
Q45.4062 18.2656 45.4062 27.9844
M54.3906 6.78125
Q54.3906 -7.17188 48.1875 -13.9844
Q42 -20.7969 29.2031 -20.7969
Q24.4688 -20.7969 20.2656 -20.0938
Q16.0625 -19.3906 12.1094 -17.9219
L12.1094 -9.1875
Q16.0625 -11.3281 19.9219 -12.3438
Q23.7812 -13.375 27.7812 -13.375
Q36.625 -13.375 41.0156 -8.76562
Q45.4062 -4.15625 45.4062 5.17188
L45.4062 9.625
Q42.625 4.78125 38.2812 2.39062
Q33.9375 0 27.875 0
Q17.8281 0 11.6719 7.65625
Q5.51562 15.3281 5.51562 27.9844
Q5.51562 40.6719 11.6719 48.3281
Q17.8281 56 27.875 56
Q33.9375 56 38.2812 53.6094
Q42.625 51.2188 45.4062 46.3906
L45.4062 54.6875
L54.3906 54.6875
z
" id="BitstreamVeraSans-Roman-67"/>
     <path d="
M8.5 21.5781
L8.5 54.6875
L17.4844 54.6875
L17.4844 21.9219
Q17.4844 14.1562 20.5 10.2656
Q23.5312 6.39062 29.5938 6.39062
Q36.8594 6.39062 41.0781 11.0312
Q45.3125 15.6719 45.3125 23.6875
L45.3125 54.6875
L54.2969 54.6875
L54.2969 0
L45.3125 0
L45.3125 8.40625
Q42.0469 3.42188 37.7188 1
Q33.4062 -1.42188 27.6875 -1.42188
Q18.2656 -1.42188 13.375 4.4375
Q8.5 10.2969 8.5 21.5781" id="BitstreamVeraSans-Roman-75"/>
     <path d="
M41.1094 46.2969
Q39.5938 47.1719 37.8125 47.5781
Q36.0312 48 33.8906 48
Q26.2656 48 22.1875 43.0469
Q18.1094 38.0938 18.1094 28.8125
L18.1094 0
L9.07812 0
L9.07812 54.6875
L18.1094 54.6875
L18.1094 46.1875
Q20.9531 51.1719 25.4844 53.5781
Q30.0312 56 36.5312 56
Q37.4531 56 38.5781 55.875
Q39.7031 55.7656 41.0625 55.5156
z
" id="BitstreamVeraSans-Roman-72"/>
     <path d="
M44.2812 53.0781
L44.2812 44.5781
Q40.4844 46.5312 36.375 47.5
Q32.2812 48.4844 27.875 48.4844
Q21.1875 48.4844 17.8438 46.4375
Q14.5 44.3906 14.5 40.2812
Q14.5 37.1562 16.8906 35.375
Q19.2812 33.5938 26.5156 31.9844
L29.5938 31.2969
Q39.1562 29.25 43.1875 25.5156
Q47.2188 21.7812 47.2188 15.0938
Q47.2188 7.46875 41.1875 3.01562
Q35.1562 -1.42188 24.6094 -1.42188
Q20.2188 -1.42188 15.4531 -0.5625
Q10.6875 0.296875 5.42188 2
L5.42188 11.2812
Q10.4062 8.6875 15.2344 7.39062
Q20.0625 6.10938 24.8125 6.10938
Q31.1562 6.10938 34.5625 8.28125
Q37.9844 10.4531 37.9844 14.4062
Q37.9844 18.0625 35.5156 20.0156
Q33.0625 21.9688 24.7031 23.7812
L21.5781 24.5156
Q13.2344 26.2656 9.51562 29.9062
Q5.8125 33.5469 5.8125 39.8906
Q5.8125 47.6094 11.2812 51.7969
Q16.75 56 26.8125 56
Q31.7812 56 36.1719 55.2656
Q40.5781 54.5469 44.2812 53.0781" id="BitstreamVeraSans-Roman-73"/>
    </defs>
    <g transform="translate(432.6345 38.2)scale(0.144 -0.144)">
     <use xlink:href="#BitstreamVeraSans-Roman-57"/>
     <use x="92.501953125" xlink:href="#BitstreamVeraSans-Roman-61"/>
     <use x="153.78125" xlink:href="#BitstreamVeraSans-Roman-72"/>
     <use x="194.89453125" xlink:href="#BitstreamVeraSans-Roman-74"/>
     <use x="234.103515625" xlink:href="#BitstreamVeraSans-Roman-75"/>
     <use x="297.482421875" xlink:href="#BitstreamVeraSans-Roman-6e"/>
     <use x="360.861328125" xlink:href="#BitstreamVeraSans-Roman-67"/>
     <use x="424.337890625" xlink:href="#BitstreamVeraSans-Roman-73"/>
     <use x="476.4375" xlink:href="#BitstreamVeraSans-Roman-6b"/>
     <use x="534.34765625" xlink:href="#BitstreamVeraSans-Roman-69"/>
     <use x="562.130859375" xlink:href="#BitstreamVeraSans-Roman-74"/>
    </g>
   </g>
   <g id="legend_1">
    <g id="patch_7">
     <path d="
M123.942 423.616
L466.458 423.616
L466.458 398.16
L123.942 398.16
z
" style="fill:#ffffff;stroke:#000000;stroke-linejoin:miter;"/>
    </g>
    <g id="line2d_31">
     <path d="
M134.022 409.822
L154.182 409.822" style="fill:none;stroke:#ff0000;stroke-linecap:square;"/>
    </g>
    <g id="line2d_32"/>
    <g id="text_17">
     <!-- Schwarzmarktpreis -->
     <defs>
      <path d="
M52 44.1875
Q55.375 50.25 60.0625 53.125
Q64.75 56 71.0938 56
Q79.6406 56 84.2812 50.0156
Q88.9219 44.0469 88.9219 33.0156
L88.9219 0
L79.8906 0
L79.8906 32.7188
Q79.8906 40.5781 77.0938 44.375
Q74.3125 48.1875 68.6094 48.1875
Q61.625 48.1875 57.5625 43.5469
Q53.5156 38.9219 53.5156 30.9062
L53.5156 0
L44.4844 0
L44.4844 32.7188
Q44.4844 40.625 41.7031 44.4062
Q38.9219 48.1875 33.1094 48.1875
Q26.2188 48.1875 22.1562 43.5312
Q18.1094 38.875 18.1094 30.9062
L18.1094 0
L9.07812 0
L9.07812 54.6875
L18.1094 54.6875
L18.1094 46.1875
Q21.1875 51.2188 25.4844 53.6094
Q29.7812 56 35.6875 56
Q41.6562 56 45.8281 52.9688
Q50 49.9531 52 44.1875" id="BitstreamVeraSans-Roman-6d"/>
      <path d="
M5.51562 54.6875
L48.1875 54.6875
L48.1875 46.4844
L14.4062 7.17188
L48.1875 7.17188
L48.1875 0
L4.29688 0
L4.29688 8.20312
L38.0938 47.5156
L5.51562 47.5156
z
" id="BitstreamVeraSans-Roman-7a"/>
      <path d="
M53.5156 70.5156
L53.5156 60.8906
Q47.9062 63.5781 42.9219 64.8906
Q37.9375 66.2188 33.2969 66.2188
Q25.25 66.2188 20.875 63.0938
Q16.5 59.9688 16.5 54.2031
Q16.5 49.3594 19.4062 46.8906
Q22.3125 44.4375 30.4219 42.9219
L36.375 41.7031
Q47.4062 39.5938 52.6562 34.2969
Q57.9062 29 57.9062 20.125
Q57.9062 9.51562 50.7969 4.04688
Q43.7031 -1.42188 29.9844 -1.42188
Q24.8125 -1.42188 18.9688 -0.25
Q13.1406 0.921875 6.89062 3.21875
L6.89062 13.375
Q12.8906 10.0156 18.6562 8.29688
Q24.4219 6.59375 29.9844 6.59375
Q38.4219 6.59375 43.0156 9.90625
Q47.6094 13.2344 47.6094 19.3906
Q47.6094 24.75 44.3125 27.7812
Q41.0156 30.8125 33.5 32.3281
L27.4844 33.5
Q16.4531 35.6875 11.5156 40.375
Q6.59375 45.0625 6.59375 53.4219
Q6.59375 63.0938 13.4062 68.6562
Q20.2188 74.2188 32.1719 74.2188
Q37.3125 74.2188 42.625 73.2812
Q47.9531 72.3594 53.5156 70.5156" id="BitstreamVeraSans-Roman-53"/>
      <path d="
M54.8906 33.0156
L54.8906 0
L45.9062 0
L45.9062 32.7188
Q45.9062 40.4844 42.875 44.3281
Q39.8438 48.1875 33.7969 48.1875
Q26.5156 48.1875 22.3125 43.5469
Q18.1094 38.9219 18.1094 30.9062
L18.1094 0
L9.07812 0
L9.07812 75.9844
L18.1094 75.9844
L18.1094 46.1875
Q21.3438 51.125 25.7031 53.5625
Q30.0781 56 35.7969 56
Q45.2188 56 50.0469 50.1719
Q54.8906 44.3438 54.8906 33.0156" id="BitstreamVeraSans-Roman-68"/>
      <path d="
M4.20312 54.6875
L13.1875 54.6875
L24.4219 12.0156
L35.5938 54.6875
L46.1875 54.6875
L57.4219 12.0156
L68.6094 54.6875
L77.5938 54.6875
L63.2812 0
L52.6875 0
L40.9219 44.8281
L29.1094 0
L18.5 0
z
" id="BitstreamVeraSans-Roman-77"/>
      <path d="
M18.1094 8.20312
L18.1094 -20.7969
L9.07812 -20.7969
L9.07812 54.6875
L18.1094 54.6875
L18.1094 46.3906
Q20.9531 51.2656 25.2656 53.625
Q29.5938 56 35.5938 56
Q45.5625 56 51.7812 48.0938
Q58.0156 40.1875 58.0156 27.2969
Q58.0156 14.4062 51.7812 6.48438
Q45.5625 -1.42188 35.5938 -1.42188
Q29.5938 -1.42188 25.2656 0.953125
Q20.9531 3.32812 18.1094 8.20312
M48.6875 27.2969
Q48.6875 37.2031 44.6094 42.8438
Q40.5312 48.4844 33.4062 48.4844
Q26.2656 48.4844 22.1875 42.8438
Q18.1094 37.2031 18.1094 27.2969
Q18.1094 17.3906 22.1875 11.75
Q26.2656 6.10938 33.4062 6.10938
Q40.5312 6.10938 44.6094 11.75
Q48.6875 17.3906 48.6875 27.2969" id="BitstreamVeraSans-Roman-70"/>
     </defs>
     <g transform="translate(170.022375 414.86175)scale(0.144 -0.144)">
      <use xlink:href="#BitstreamVeraSans-Roman-53"/>
      <use x="63.4765625" xlink:href="#BitstreamVeraSans-Roman-63"/>
      <use x="118.45703125" xlink:href="#BitstreamVeraSans-Roman-68"/>
      <use x="181.8359375" xlink:href="#BitstreamVeraSans-Roman-77"/>
      <use x="263.623046875" xlink:href="#BitstreamVeraSans-Roman-61"/>
      <use x="324.90234375" xlink:href="#BitstreamVeraSans-Roman-72"/>
      <use x="366.015625" xlink:href="#BitstreamVeraSans-Roman-7a"/>
      <use x="418.505859375" xlink:href="#BitstreamVeraSans-Roman-6d"/>
      <use x="515.91796875" xlink:href="#BitstreamVeraSans-Roman-61"/>
      <use x="577.197265625" xlink:href="#BitstreamVeraSans-Roman-72"/>
      <use x="618.310546875" xlink:href="#BitstreamVeraSans-Roman-6b"/>
      <use x="676.220703125" xlink:href="#BitstreamVeraSans-Roman-74"/>
      <use x="715.4296875" xlink:href="#BitstreamVeraSans-Roman-70"/>
      <use x="778.90625" xlink:href="#BitstreamVeraSans-Roman-72"/>
      <use x="817.76953125" xlink:href="#BitstreamVeraSans-Roman-65"/>
      <use x="879.29296875" xlink:href="#BitstreamVeraSans-Roman-69"/>
      <use x="907.076171875" xlink:href="#BitstreamVeraSans-Roman-73"/>
     </g>
    </g>
    <g id="line2d_33">
     <path d="
M339.609 409.822
L359.769 409.822" style="fill:none;stroke:#008000;stroke-linecap:square;"/>
    </g>
    <g id="line2d_34"/>
    <g id="text_18">
     <!-- Normalpreis -->
     <defs>
      <path d="
M9.42188 75.9844
L18.4062 75.9844
L18.4062 0
L9.42188 0
z
" id="BitstreamVeraSans-Roman-6c"/>
     </defs>
     <g transform="translate(375.609375 414.86175)scale(0.144 -0.144)">
      <use xlink:href="#BitstreamVeraSans-Roman-4e"/>
      <use x="74.8046875" xlink:href="#BitstreamVeraSans-Roman-6f"/>
      <use x="135.986328125" xlink:href="#BitstreamVeraSans-Roman-72"/>
      <use x="175.349609375" xlink:href="#BitstreamVeraSans-Roman-6d"/>
      <use x="272.76171875" xlink:href="#BitstreamVeraSans-Roman-61"/>
      <use x="334.041015625" xlink:href="#BitstreamVeraSans-Roman-6c"/>
      <use x="361.82421875" xlink:href="#BitstreamVeraSans-Roman-70"/>
      <use x="425.30078125" xlink:href="#BitstreamVeraSans-Roman-72"/>
      <use x="464.1640625" xlink:href="#BitstreamVeraSans-Roman-65"/>
      <use x="525.6875" xlink:href="#BitstreamVeraSans-Roman-69"/>
      <use x="553.470703125" xlink:href="#BitstreamVeraSans-Roman-73"/>
     </g>
    </g>
   </g>
  </g>
 </g>
 <defs>
  <clipPath id="pcb2bf987bf">
   <rect height="302.4" width="446.4" x="72.0" y="43.2"/>
  </clipPath>
 </defs>
</svg>
